<?xml version="1.0" encoding="UTF-8" standalone="no"?>
<!DOCTYPE svg PUBLIC "-//W3C//DTD SVG 1.1//EN"
 "http://www.w3.org/Graphics/SVG/1.1/DTD/svg11.dtd">
<!-- Generated by graphviz version 2.26.3 (20100126.1600)
 -->
<!-- Title: ThreadedLogger Pages: 1 -->
<svg width="280pt" height="632pt"
 viewBox="0.00 0.00 280.00 632.00" xmlns="http://www.w3.org/2000/svg" xmlns:xlink="http://www.w3.org/1999/xlink">
<g id="graph1" class="graph" transform="scale(1 1) rotate(0) translate(4 628)">
<title>ThreadedLogger</title>
<polygon fill="white" stroke="white" points="-4,5 -4,-628 277,-628 277,5 -4,5"/>
<!-- Node1 -->
<g id="node1" class="node"><title>Node1</title>
<polygon fill="#bfbfbf" stroke="black" points="131,-0.5 131,-63.5 217,-63.5 217,-0.5 131,-0.5"/>
<text text-anchor="middle" x="174" y="-50.5" font-family="Helvetica,sans-Serif" font-size="10.00">ThreadedLogger</text>
<polyline fill="none" stroke="black" points="131,-42.5 217,-42.5 "/>
<text text-anchor="middle" x="174" y="-29.5" font-family="Helvetica,sans-Serif" font-size="10.00"> </text>
<polyline fill="none" stroke="black" points="131,-21.5 217,-21.5 "/>
<text text-anchor="middle" x="174" y="-8.5" font-family="Helvetica,sans-Serif" font-size="10.00"> </text>
</g>
<!-- Node2 -->
<g id="node2" class="node"><title>Node2</title>
<a xlink:href="../../d8/d18/class_thread.html" target="_top" xlink:title="{Thread\n||+ detach()\l+ getCreatorId()\l+ getThreadId()\l+ isJoined()\l+ isStarted()\l+ join()\l+ kill()\l+ start()\l+ getCurrentThread()\l+ getCurrentThreadId()\l+ globally()\l}">
<polygon fill="white" stroke="black" points="58,-100.5 58,-293.5 174,-293.5 174,-100.5 58,-100.5"/>
<text text-anchor="middle" x="116" y="-280.5" font-family="Helvetica,sans-Serif" font-size="10.00">Thread</text>
<polyline fill="none" stroke="black" points="58,-272.5 174,-272.5 "/>
<text text-anchor="middle" x="116" y="-259.5" font-family="Helvetica,sans-Serif" font-size="10.00"> </text>
<polyline fill="none" stroke="black" points="58,-251.5 174,-251.5 "/>
<text text-anchor="start" x="66" y="-238.5" font-family="Helvetica,sans-Serif" font-size="10.00">+ detach()</text>
<text text-anchor="start" x="66" y="-225.5" font-family="Helvetica,sans-Serif" font-size="10.00">+ getCreatorId()</text>
<text text-anchor="start" x="66" y="-212.5" font-family="Helvetica,sans-Serif" font-size="10.00">+ getThreadId()</text>
<text text-anchor="start" x="66" y="-199.5" font-family="Helvetica,sans-Serif" font-size="10.00">+ isJoined()</text>
<text text-anchor="start" x="66" y="-186.5" font-family="Helvetica,sans-Serif" font-size="10.00">+ isStarted()</text>
<text text-anchor="start" x="66" y="-173.5" font-family="Helvetica,sans-Serif" font-size="10.00">+ join()</text>
<text text-anchor="start" x="66" y="-160.5" font-family="Helvetica,sans-Serif" font-size="10.00">+ kill()</text>
<text text-anchor="start" x="66" y="-147.5" font-family="Helvetica,sans-Serif" font-size="10.00">+ start()</text>
<text text-anchor="start" x="66" y="-134.5" font-family="Helvetica,sans-Serif" font-size="10.00">+ getCurrentThread()</text>
<text text-anchor="start" x="66" y="-121.5" font-family="Helvetica,sans-Serif" font-size="10.00">+ getCurrentThreadId()</text>
<text text-anchor="start" x="66" y="-108.5" font-family="Helvetica,sans-Serif" font-size="10.00">+ globally()</text>
</a>
</g>
<!-- Node2&#45;&gt;Node1 -->
<g id="edge2" class="edge"><title>Node2&#45;&gt;Node1</title>
<path fill="none" stroke="midnightblue" d="M153.474,-90.3932C156.826,-80.8578 160.012,-71.7933 162.831,-63.774"/>
<polygon fill="none" stroke="midnightblue" points="150.089,-89.4696 150.074,-100.064 156.693,-91.791 150.089,-89.4696"/>
</g>
<!-- Node3 -->
<g id="node4" class="node"><title>Node3</title>
<a xlink:href="../../d0/d82/class_threaded.html" target="_top" xlink:title="{Threaded\n||+ chunk()\l+ count()\l+ getTerminationInfo()\l+ isRunning()\l+ isTerminated()\l+ isWaiting()\l+ lock()\l+ merge()\l+ notify()\l+ offsetGet()\land 9 more...\l}">
<polygon fill="white" stroke="black" points="59.5,-330.5 59.5,-523.5 172.5,-523.5 172.5,-330.5 59.5,-330.5"/>
<text text-anchor="middle" x="116" y="-510.5" font-family="Helvetica,sans-Serif" font-size="10.00">Threaded</text>
<polyline fill="none" stroke="black" points="59.5,-502.5 172.5,-502.5 "/>
<text text-anchor="middle" x="116" y="-489.5" font-family="Helvetica,sans-Serif" font-size="10.00"> </text>
<polyline fill="none" stroke="black" points="59.5,-481.5 172.5,-481.5 "/>
<text text-anchor="start" x="67.5" y="-468.5" font-family="Helvetica,sans-Serif" font-size="10.00">+ chunk()</text>
<text text-anchor="start" x="67.5" y="-455.5" font-family="Helvetica,sans-Serif" font-size="10.00">+ count()</text>
<text text-anchor="start" x="67.5" y="-442.5" font-family="Helvetica,sans-Serif" font-size="10.00">+ getTerminationInfo()</text>
<text text-anchor="start" x="67.5" y="-429.5" font-family="Helvetica,sans-Serif" font-size="10.00">+ isRunning()</text>
<text text-anchor="start" x="67.5" y="-416.5" font-family="Helvetica,sans-Serif" font-size="10.00">+ isTerminated()</text>
<text text-anchor="start" x="67.5" y="-403.5" font-family="Helvetica,sans-Serif" font-size="10.00">+ isWaiting()</text>
<text text-anchor="start" x="67.5" y="-390.5" font-family="Helvetica,sans-Serif" font-size="10.00">+ lock()</text>
<text text-anchor="start" x="67.5" y="-377.5" font-family="Helvetica,sans-Serif" font-size="10.00">+ merge()</text>
<text text-anchor="start" x="67.5" y="-364.5" font-family="Helvetica,sans-Serif" font-size="10.00">+ notify()</text>
<text text-anchor="start" x="67.5" y="-351.5" font-family="Helvetica,sans-Serif" font-size="10.00">+ offsetGet()</text>
<text text-anchor="start" x="67.5" y="-338.5" font-family="Helvetica,sans-Serif" font-size="10.00">and 9 more...</text>
</a>
</g>
<!-- Node3&#45;&gt;Node2 -->
<g id="edge4" class="edge"><title>Node3&#45;&gt;Node2</title>
<path fill="none" stroke="midnightblue" d="M116,-320.423C116,-311.499 116,-302.507 116,-293.663"/>
<polygon fill="none" stroke="midnightblue" points="112.5,-320.459 116,-330.459 119.5,-320.459 112.5,-320.459"/>
</g>
<!-- Node4 -->
<g id="node6" class="node"><title>Node4</title>
<polygon fill="white" stroke="#bfbfbf" points="0,-560.5 0,-623.5 68,-623.5 68,-560.5 0,-560.5"/>
<text text-anchor="middle" x="34" y="-610.5" font-family="Helvetica,sans-Serif" font-size="10.00">Traversable</text>
<polyline fill="none" stroke="#bfbfbf" points="0,-602.5 68,-602.5 "/>
<text text-anchor="middle" x="34" y="-589.5" font-family="Helvetica,sans-Serif" font-size="10.00"> </text>
<polyline fill="none" stroke="#bfbfbf" points="0,-581.5 68,-581.5 "/>
<text text-anchor="middle" x="34" y="-568.5" font-family="Helvetica,sans-Serif" font-size="10.00"> </text>
</g>
<!-- Node4&#45;&gt;Node3 -->
<g id="edge6" class="edge"><title>Node4&#45;&gt;Node3</title>
<path fill="none" stroke="midnightblue" d="M54.3964,-550.958C58.619,-542.462 63.2356,-533.172 67.9815,-523.623"/>
<polygon fill="none" stroke="midnightblue" points="51.1266,-549.674 49.8104,-560.186 57.3952,-552.789 51.1266,-549.674"/>
</g>
<!-- Node5 -->
<g id="node8" class="node"><title>Node5</title>
<polygon fill="white" stroke="#bfbfbf" points="85.5,-560.5 85.5,-623.5 146.5,-623.5 146.5,-560.5 85.5,-560.5"/>
<text text-anchor="middle" x="116" y="-610.5" font-family="Helvetica,sans-Serif" font-size="10.00">Countable</text>
<polyline fill="none" stroke="#bfbfbf" points="85.5,-602.5 146.5,-602.5 "/>
<text text-anchor="middle" x="116" y="-589.5" font-family="Helvetica,sans-Serif" font-size="10.00"> </text>
<polyline fill="none" stroke="#bfbfbf" points="85.5,-581.5 146.5,-581.5 "/>
<text text-anchor="middle" x="116" y="-568.5" font-family="Helvetica,sans-Serif" font-size="10.00"> </text>
</g>
<!-- Node5&#45;&gt;Node3 -->
<g id="edge8" class="edge"><title>Node5&#45;&gt;Node3</title>
<path fill="none" stroke="midnightblue" d="M116,-550.134C116,-541.862 116,-532.864 116,-523.623"/>
<polygon fill="none" stroke="midnightblue" points="112.5,-550.186 116,-560.186 119.5,-550.186 112.5,-550.186"/>
</g>
<!-- Node6 -->
<g id="node10" class="node"><title>Node6</title>
<polygon fill="white" stroke="#bfbfbf" points="163.5,-560.5 163.5,-623.5 236.5,-623.5 236.5,-560.5 163.5,-560.5"/>
<text text-anchor="middle" x="200" y="-610.5" font-family="Helvetica,sans-Serif" font-size="10.00">ArrayAccess</text>
<polyline fill="none" stroke="#bfbfbf" points="163.5,-602.5 236.5,-602.5 "/>
<text text-anchor="middle" x="200" y="-589.5" font-family="Helvetica,sans-Serif" font-size="10.00"> </text>
<polyline fill="none" stroke="#bfbfbf" points="163.5,-581.5 236.5,-581.5 "/>
<text text-anchor="middle" x="200" y="-568.5" font-family="Helvetica,sans-Serif" font-size="10.00"> </text>
</g>
<!-- Node6&#45;&gt;Node3 -->
<g id="edge10" class="edge"><title>Node6&#45;&gt;Node3</title>
<path fill="none" stroke="midnightblue" d="M179.246,-551.232C174.882,-542.661 170.104,-533.275 165.19,-523.623"/>
<polygon fill="none" stroke="midnightblue" points="176.148,-552.863 183.804,-560.186 182.386,-549.687 176.148,-552.863"/>
</g>
<!-- Node7 -->
<g id="node12" class="node"><title>Node7</title>
<a xlink:href="../../d4/d00/interface_logger.html" target="_top" xlink:title="{Logger\n||+ emergency()\l+ alert()\l+ critical()\l+ error()\l+ warning()\l+ notice()\l+ info()\l+ debug()\l+ log()\l}">
<polygon fill="white" stroke="black" points="192,-113.5 192,-280.5 272,-280.5 272,-113.5 192,-113.5"/>
<text text-anchor="middle" x="232" y="-267.5" font-family="Helvetica,sans-Serif" font-size="10.00">Logger</text>
<polyline fill="none" stroke="black" points="192,-259.5 272,-259.5 "/>
<text text-anchor="middle" x="232" y="-246.5" font-family="Helvetica,sans-Serif" font-size="10.00"> </text>
<polyline fill="none" stroke="black" points="192,-238.5 272,-238.5 "/>
<text text-anchor="start" x="200" y="-225.5" font-family="Helvetica,sans-Serif" font-size="10.00">+ emergency()</text>
<text text-anchor="start" x="200" y="-212.5" font-family="Helvetica,sans-Serif" font-size="10.00">+ alert()</text>
<text text-anchor="start" x="200" y="-199.5" font-family="Helvetica,sans-Serif" font-size="10.00">+ critical()</text>
<text text-anchor="start" x="200" y="-186.5" font-family="Helvetica,sans-Serif" font-size="10.00">+ error()</text>
<text text-anchor="start" x="200" y="-173.5" font-family="Helvetica,sans-Serif" font-size="10.00">+ warning()</text>
<text text-anchor="start" x="200" y="-160.5" font-family="Helvetica,sans-Serif" font-size="10.00">+ notice()</text>
<text text-anchor="start" x="200" y="-147.5" font-family="Helvetica,sans-Serif" font-size="10.00">+ info()</text>
<text text-anchor="start" x="200" y="-134.5" font-family="Helvetica,sans-Serif" font-size="10.00">+ debug()</text>
<text text-anchor="start" x="200" y="-121.5" font-family="Helvetica,sans-Serif" font-size="10.00">+ log()</text>
</a>
</g>
<!-- Node7&#45;&gt;Node1 -->
<g id="edge12" class="edge"><title>Node7&#45;&gt;Node1</title>
<path fill="none" stroke="midnightblue" d="M199.151,-103.55C194.094,-89.1642 189.196,-75.2306 185.087,-63.5408"/>
<polygon fill="none" stroke="midnightblue" points="195.872,-104.776 202.49,-113.05 202.476,-102.455 195.872,-104.776"/>
</g>
</g>
</svg>
