<?xml version="1.0" encoding="UTF-8" standalone="no"?>
<!DOCTYPE svg PUBLIC "-//W3C//DTD SVG 1.1//EN"
 "http://www.w3.org/Graphics/SVG/1.1/DTD/svg11.dtd">
<!-- Generated by graphviz version 2.36.0 (20140111.2315)
 -->
<!-- Title: pocketmine\event\inventory\InventoryEvent Pages: 1 -->
<!--zoomable 344 -->
<svg id="main" version="1.1" xmlns="http://www.w3.org/2000/svg" xmlns:xlink="http://www.w3.org/1999/xlink" xml:space="preserve" onload="init(evt)">
<style type="text/css"><![CDATA[
.edge:hover path { stroke: red; }
.edge:hover polygon { stroke: red; fill: red; }
]]></style>
<script type="text/javascript"><![CDATA[
var edges = document.getElementsByTagName('g');
if (edges && edges.length) {
  for (var i=0;i<edges.length;i++) {
    if (edges[i].id.substr(0,4)=='edge') {
      edges[i].setAttribute('class','edge');
    }
  }
}
]]></script>
        <defs>
                <circle id="rim" cx="0" cy="0" r="7"/>
                <circle id="rim2" cx="0" cy="0" r="3.5"/>
                <g id="zoomPlus">
                        <use xlink:href="#rim" fill="#404040">
                                <set attributeName="fill" to="#808080" begin="zoomplus.mouseover" end="zoomplus.mouseout"/>
                        </use>
                        <path d="M-4,0h8M0,-4v8" fill="none" stroke="white" stroke-width="1.5" pointer-events="none"/>
                </g>
                <g id="zoomMin">
                        <use xlink:href="#rim" fill="#404040">
                                <set attributeName="fill" to="#808080" begin="zoomminus.mouseover" end="zoomminus.mouseout"/>
                        </use>
                        <path d="M-4,0h8" fill="none" stroke="white" stroke-width="1.5" pointer-events="none"/>
                </g>
                <g id="dirArrow">
                        <path fill="none" stroke="white" stroke-width="1.5" d="M0,-3.0v7 M-2.5,-0.5L0,-3.0L2.5,-0.5"/>
                </g>
               <g id="resetDef">
                       <use xlink:href="#rim2" fill="#404040">
                               <set attributeName="fill" to="#808080" begin="reset.mouseover" end="reset.mouseout"/>
                       </use>
               </g>
        </defs>

<script type="text/javascript">
var viewWidth = 662;
var viewHeight = 344;
var sectionId = 'dynsection-0';
</script>
<script xlink:href="../../svgpan.js"/>
<svg id="graph" class="graph">
<g id="viewport">
<title>pocketmine\event\inventory\InventoryEvent</title>
<polygon fill="white" stroke="none" points="-4,4 -4,-340 658,-340 658,4 -4,4"/>
<!-- Node1 -->
<g id="node1" class="node"><title>Node1</title>
<polygon fill="#bfbfbf" stroke="black" points="252,-139 252,-229 402,-229 402,-139 252,-139"/>
<text text-anchor="start" x="260" y="-217" font-family="Helvetica,sans-Serif" font-size="10.00">pocketmine\event\inventory</text>
<text text-anchor="middle" x="327" y="-206" font-family="Helvetica,sans-Serif" font-size="10.00">\InventoryEvent</text>
<polyline fill="none" stroke="black" points="252,-199 402,-199 "/>
<text text-anchor="start" x="260" y="-187" font-family="Helvetica,sans-Serif" font-size="10.00"># $inventory</text>
<polyline fill="none" stroke="black" points="252,-180 402,-180 "/>
<text text-anchor="start" x="260" y="-168" font-family="Helvetica,sans-Serif" font-size="10.00">+ __construct()</text>
<text text-anchor="start" x="260" y="-157" font-family="Helvetica,sans-Serif" font-size="10.00">+ getInventory()</text>
<text text-anchor="start" x="260" y="-146" font-family="Helvetica,sans-Serif" font-size="10.00">+ getViewers()</text>
</g>
<!-- Node3 -->
<g id="node3" class="node"><title>Node3</title>
<g id="a_node3"><a xlink:href="../../df/dbc/classpocketmine_1_1event_1_1inventory_1_1_inventory_close_event.html" target="_top" xlink:title="{pocketmine\\event\\inventory\l\\InventoryCloseEvent\n|+ $handlerList\l+ $eventPool\l+ $nextEvent\l|+ __construct()\l+ getPlayer()\l}">
<polygon fill="white" stroke="black" points="0,-0.5 0,-101.5 150,-101.5 150,-0.5 0,-0.5"/>
<text text-anchor="start" x="8" y="-89.5" font-family="Helvetica,sans-Serif" font-size="10.00">pocketmine\event\inventory</text>
<text text-anchor="middle" x="75" y="-78.5" font-family="Helvetica,sans-Serif" font-size="10.00">\InventoryCloseEvent</text>
<polyline fill="none" stroke="black" points="0,-71.5 150,-71.5 "/>
<text text-anchor="start" x="8" y="-59.5" font-family="Helvetica,sans-Serif" font-size="10.00">+ $handlerList</text>
<text text-anchor="start" x="8" y="-48.5" font-family="Helvetica,sans-Serif" font-size="10.00">+ $eventPool</text>
<text text-anchor="start" x="8" y="-37.5" font-family="Helvetica,sans-Serif" font-size="10.00">+ $nextEvent</text>
<polyline fill="none" stroke="black" points="0,-30.5 150,-30.5 "/>
<text text-anchor="start" x="8" y="-18.5" font-family="Helvetica,sans-Serif" font-size="10.00">+ __construct()</text>
<text text-anchor="start" x="8" y="-7.5" font-family="Helvetica,sans-Serif" font-size="10.00">+ getPlayer()</text>
</a>
</g>
</g>
<!-- Node1&#45;&gt;Node3 -->
<g id="edge2" class="edge"><title>Node1&#45;&gt;Node3</title>
<path fill="none" stroke="midnightblue" d="M242.817,-144.189C215.797,-131.261 185.907,-116.459 159,-102 156.16,-100.474 153.278,-98.8985 150.377,-97.2901"/>
<polygon fill="none" stroke="midnightblue" points="241.329,-147.357 251.862,-148.499 244.34,-141.038 241.329,-147.357"/>
</g>
<!-- Node4 -->
<g id="node4" class="node"><title>Node4</title>
<g id="a_node4"><a xlink:href="../../db/da4/classpocketmine_1_1event_1_1inventory_1_1_inventory_open_event.html" target="_top" xlink:title="{pocketmine\\event\\inventory\l\\InventoryOpenEvent\n|+ $handlerList\l+ $eventPool\l+ $nextEvent\l|+ __construct()\l+ getPlayer()\l}">
<polygon fill="white" stroke="black" points="168,-0.5 168,-101.5 318,-101.5 318,-0.5 168,-0.5"/>
<text text-anchor="start" x="176" y="-89.5" font-family="Helvetica,sans-Serif" font-size="10.00">pocketmine\event\inventory</text>
<text text-anchor="middle" x="243" y="-78.5" font-family="Helvetica,sans-Serif" font-size="10.00">\InventoryOpenEvent</text>
<polyline fill="none" stroke="black" points="168,-71.5 318,-71.5 "/>
<text text-anchor="start" x="176" y="-59.5" font-family="Helvetica,sans-Serif" font-size="10.00">+ $handlerList</text>
<text text-anchor="start" x="176" y="-48.5" font-family="Helvetica,sans-Serif" font-size="10.00">+ $eventPool</text>
<text text-anchor="start" x="176" y="-37.5" font-family="Helvetica,sans-Serif" font-size="10.00">+ $nextEvent</text>
<polyline fill="none" stroke="black" points="168,-30.5 318,-30.5 "/>
<text text-anchor="start" x="176" y="-18.5" font-family="Helvetica,sans-Serif" font-size="10.00">+ __construct()</text>
<text text-anchor="start" x="176" y="-7.5" font-family="Helvetica,sans-Serif" font-size="10.00">+ getPlayer()</text>
</a>
</g>
</g>
<!-- Node1&#45;&gt;Node4 -->
<g id="edge3" class="edge"><title>Node1&#45;&gt;Node4</title>
<path fill="none" stroke="midnightblue" d="M293.112,-130.151C287.091,-120.761 280.839,-111.011 274.877,-101.712"/>
<polygon fill="none" stroke="midnightblue" points="290.217,-132.121 298.561,-138.649 296.11,-128.342 290.217,-132.121"/>
</g>
<!-- Node5 -->
<g id="node5" class="node"><title>Node5</title>
<g id="a_node5"><a xlink:href="../../df/d36/classpocketmine_1_1event_1_1inventory_1_1_inventory_pickup_arrow_event.html" target="_top" xlink:title="{pocketmine\\event\\inventory\l\\InventoryPickupArrowEvent\n|+ $handlerList\l+ $eventPool\l+ $nextEvent\l|+ __construct()\l+ getArrow()\l}">
<polygon fill="white" stroke="black" points="336,-0.5 336,-101.5 486,-101.5 486,-0.5 336,-0.5"/>
<text text-anchor="start" x="344" y="-89.5" font-family="Helvetica,sans-Serif" font-size="10.00">pocketmine\event\inventory</text>
<text text-anchor="middle" x="411" y="-78.5" font-family="Helvetica,sans-Serif" font-size="10.00">\InventoryPickupArrowEvent</text>
<polyline fill="none" stroke="black" points="336,-71.5 486,-71.5 "/>
<text text-anchor="start" x="344" y="-59.5" font-family="Helvetica,sans-Serif" font-size="10.00">+ $handlerList</text>
<text text-anchor="start" x="344" y="-48.5" font-family="Helvetica,sans-Serif" font-size="10.00">+ $eventPool</text>
<text text-anchor="start" x="344" y="-37.5" font-family="Helvetica,sans-Serif" font-size="10.00">+ $nextEvent</text>
<polyline fill="none" stroke="black" points="336,-30.5 486,-30.5 "/>
<text text-anchor="start" x="344" y="-18.5" font-family="Helvetica,sans-Serif" font-size="10.00">+ __construct()</text>
<text text-anchor="start" x="344" y="-7.5" font-family="Helvetica,sans-Serif" font-size="10.00">+ getArrow()</text>
</a>
</g>
</g>
<!-- Node1&#45;&gt;Node5 -->
<g id="edge4" class="edge"><title>Node1&#45;&gt;Node5</title>
<path fill="none" stroke="midnightblue" d="M360.888,-130.151C366.909,-120.761 373.161,-111.011 379.123,-101.712"/>
<polygon fill="none" stroke="midnightblue" points="357.89,-128.342 355.439,-138.649 363.783,-132.121 357.89,-128.342"/>
</g>
<!-- Node6 -->
<g id="node6" class="node"><title>Node6</title>
<g id="a_node6"><a xlink:href="../../db/d63/classpocketmine_1_1event_1_1inventory_1_1_inventory_pickup_item_event.html" target="_top" xlink:title="{pocketmine\\event\\inventory\l\\InventoryPickupItemEvent\n|+ $handlerList\l+ $eventPool\l+ $nextEvent\l|+ __construct()\l+ getItem()\l}">
<polygon fill="white" stroke="black" points="504,-0.5 504,-101.5 654,-101.5 654,-0.5 504,-0.5"/>
<text text-anchor="start" x="512" y="-89.5" font-family="Helvetica,sans-Serif" font-size="10.00">pocketmine\event\inventory</text>
<text text-anchor="middle" x="579" y="-78.5" font-family="Helvetica,sans-Serif" font-size="10.00">\InventoryPickupItemEvent</text>
<polyline fill="none" stroke="black" points="504,-71.5 654,-71.5 "/>
<text text-anchor="start" x="512" y="-59.5" font-family="Helvetica,sans-Serif" font-size="10.00">+ $handlerList</text>
<text text-anchor="start" x="512" y="-48.5" font-family="Helvetica,sans-Serif" font-size="10.00">+ $eventPool</text>
<text text-anchor="start" x="512" y="-37.5" font-family="Helvetica,sans-Serif" font-size="10.00">+ $nextEvent</text>
<polyline fill="none" stroke="black" points="504,-30.5 654,-30.5 "/>
<text text-anchor="start" x="512" y="-18.5" font-family="Helvetica,sans-Serif" font-size="10.00">+ __construct()</text>
<text text-anchor="start" x="512" y="-7.5" font-family="Helvetica,sans-Serif" font-size="10.00">+ getItem()</text>
</a>
</g>
</g>
<!-- Node1&#45;&gt;Node6 -->
<g id="edge5" class="edge"><title>Node1&#45;&gt;Node6</title>
<path fill="none" stroke="midnightblue" d="M411.354,-143.707C438.017,-130.856 467.446,-116.22 494,-102 497.169,-100.303 500.391,-98.5473 503.635,-96.755"/>
<polygon fill="none" stroke="midnightblue" points="409.548,-140.691 402.048,-148.174 412.578,-147.002 409.548,-140.691"/>
</g>
<!-- Node2 -->
<g id="node2" class="node"><title>Node2</title>
<g id="a_node2"><a xlink:href="../../d1/d2f/classpocketmine_1_1event_1_1_event.html" target="_top" xlink:title="{pocketmine\\event\\Event\n|# $eventName\l|+ getEventName()\l+ getHandlers()\l}">
<polygon fill="white" stroke="black" points="260.5,-267 260.5,-335 393.5,-335 393.5,-267 260.5,-267"/>
<text text-anchor="middle" x="327" y="-323" font-family="Helvetica,sans-Serif" font-size="10.00">pocketmine\event\Event</text>
<polyline fill="none" stroke="black" points="260.5,-316 393.5,-316 "/>
<text text-anchor="start" x="268.5" y="-304" font-family="Helvetica,sans-Serif" font-size="10.00"># $eventName</text>
<polyline fill="none" stroke="black" points="260.5,-297 393.5,-297 "/>
<text text-anchor="start" x="268.5" y="-285" font-family="Helvetica,sans-Serif" font-size="10.00">+ getEventName()</text>
<text text-anchor="start" x="268.5" y="-274" font-family="Helvetica,sans-Serif" font-size="10.00">+ getHandlers()</text>
</a>
</g>
</g>
<!-- Node2&#45;&gt;Node1 -->
<g id="edge1" class="edge"><title>Node2&#45;&gt;Node1</title>
<path fill="none" stroke="midnightblue" d="M327,-256.555C327,-247.646 327,-238.257 327,-229.318"/>
<polygon fill="none" stroke="midnightblue" points="323.5,-256.737 327,-266.737 330.5,-256.737 323.5,-256.737"/>
</g>
</g>
</svg>
        <g id="navigator" transform="translate(0 0)" fill="#404254">
                <rect fill="#f2f5e9" fill-opacity="0.5" stroke="#606060" stroke-width=".5" x="0" y="0" width="60" height="60"/>
                <use id="zoomplus" xlink:href="#zoomPlus" x="17" y="9" onmousedown="handleZoom(evt,'in')"/>
                <use id="zoomminus" xlink:href="#zoomMin" x="42" y="9" onmousedown="handleZoom(evt,'out')"/>
                <use id="reset" xlink:href="#resetDef" x="30" y="36" onmousedown="handleReset()"/>
                <g id="arrowUp" xlink:href="#dirArrow" transform="translate(30 24)" onmousedown="handlePan(0,-1)">
                  <use xlink:href="#rim" fill="#404040">
                        <set attributeName="fill" to="#808080" begin="arrowUp.mouseover" end="arrowUp.mouseout"/>
                  </use>
                  <path fill="none" stroke="white" stroke-width="1.5" d="M0,-3.0v7 M-2.5,-0.5L0,-3.0L2.5,-0.5"/>
                </g>
                <g id="arrowRight" xlink:href="#dirArrow" transform="rotate(90) translate(36 -43)" onmousedown="handlePan(1,0)">
                  <use xlink:href="#rim" fill="#404040">
                        <set attributeName="fill" to="#808080" begin="arrowRight.mouseover" end="arrowRight.mouseout"/>
                  </use>
                  <path fill="none" stroke="white" stroke-width="1.5" d="M0,-3.0v7 M-2.5,-0.5L0,-3.0L2.5,-0.5"/>
                </g>
                <g id="arrowDown" xlink:href="#dirArrow" transform="rotate(180) translate(-30 -48)" onmousedown="handlePan(0,1)">
                  <use xlink:href="#rim" fill="#404040">
                        <set attributeName="fill" to="#808080" begin="arrowDown.mouseover" end="arrowDown.mouseout"/>
                  </use>
                  <path fill="none" stroke="white" stroke-width="1.5" d="M0,-3.0v7 M-2.5,-0.5L0,-3.0L2.5,-0.5"/>
                </g>
                <g id="arrowLeft" xlink:href="#dirArrow" transform="rotate(270) translate(-36 17)" onmousedown="handlePan(-1,0)">
                  <use xlink:href="#rim" fill="#404040">
                        <set attributeName="fill" to="#808080" begin="arrowLeft.mouseover" end="arrowLeft.mouseout"/>
                  </use>
                  <path fill="none" stroke="white" stroke-width="1.5" d="M0,-3.0v7 M-2.5,-0.5L0,-3.0L2.5,-0.5"/>
                </g>
        </g>
        <svg viewBox="0 0 15 15" width="100%" height="30px" preserveAspectRatio="xMaxYMin meet">
         <g id="arrow_out" transform="scale(0.3 0.3)">
          <a xlink:href="classpocketmine_1_1event_1_1inventory_1_1_inventory_event__inherit__graph_org.svg" target="_base">
           <rect id="button" ry="5" rx="5" y="6" x="6" height="38" width="38"
                fill="#f2f5e9" fill-opacity="0.5" stroke="#606060" stroke-width="1.0"/>
           <path id="arrow"
             d="M 11.500037,31.436501 C 11.940474,20.09759 22.043105,11.32322 32.158766,21.979434 L 37.068811,17.246167 C 37.068811,17.246167 37.088388,32 37.088388,32 L 22.160133,31.978069 C 22.160133,31.978069 26.997745,27.140456 26.997745,27.140456 C 18.528582,18.264221 13.291696,25.230495 11.500037,31.436501 z"
             style="fill:#404040;"/>
          </a>
         </g>
        </svg>
</svg>
