<?xml version="1.0" encoding="UTF-8" standalone="no"?>
<!DOCTYPE svg PUBLIC "-//W3C//DTD SVG 1.1//EN"
 "http://www.w3.org/Graphics/SVG/1.1/DTD/svg11.dtd">
<!-- Generated by graphviz version 2.26.3 (20100126.1600)
 -->
<!-- Title: pocketmine\event\server\DataPacketSendEvent Pages: 1 -->
<svg width="298pt" height="366pt"
 viewBox="0.00 0.00 298.00 366.00" xmlns="http://www.w3.org/2000/svg" xmlns:xlink="http://www.w3.org/1999/xlink">
<g id="graph1" class="graph" transform="scale(1 1) rotate(0) translate(4 362)">
<title>pocketmine\event\server\DataPacketSendEvent</title>
<polygon fill="white" stroke="white" points="-4,5 -4,-362 295,-362 295,5 -4,5"/>
<!-- Node1 -->
<g id="node1" class="node"><title>Node1</title>
<polygon fill="#bfbfbf" stroke="black" points="77,-1 77,-103 201,-103 201,-1 77,-1"/>
<text text-anchor="start" x="85" y="-90" font-family="Helvetica,sans-Serif" font-size="10.00">pocketmine\event\server</text>
<text text-anchor="middle" x="139" y="-77" font-family="Helvetica,sans-Serif" font-size="10.00">\DataPacketSendEvent</text>
<polyline fill="none" stroke="black" points="77,-69 201,-69 "/>
<text text-anchor="start" x="85" y="-56" font-family="Helvetica,sans-Serif" font-size="10.00">+ $handlerList</text>
<polyline fill="none" stroke="black" points="77,-48 201,-48 "/>
<text text-anchor="start" x="85" y="-35" font-family="Helvetica,sans-Serif" font-size="10.00">+ __construct()</text>
<text text-anchor="start" x="85" y="-22" font-family="Helvetica,sans-Serif" font-size="10.00">+ getPacket()</text>
<text text-anchor="start" x="85" y="-9" font-family="Helvetica,sans-Serif" font-size="10.00">+ getPlayer()</text>
</g>
<!-- Node2 -->
<g id="node2" class="node"><title>Node2</title>
<a xlink:href="../../d1/d77/classpocketmine_1_1event_1_1server_1_1_server_event.html" target="_top" xlink:title="{pocketmine\\event\\server\l\\ServerEvent\n||}">
<polygon fill="white" stroke="black" points="0,-141 0,-217 124,-217 124,-141 0,-141"/>
<text text-anchor="start" x="8" y="-204" font-family="Helvetica,sans-Serif" font-size="10.00">pocketmine\event\server</text>
<text text-anchor="middle" x="62" y="-191" font-family="Helvetica,sans-Serif" font-size="10.00">\ServerEvent</text>
<polyline fill="none" stroke="black" points="0,-183 124,-183 "/>
<text text-anchor="middle" x="62" y="-170" font-family="Helvetica,sans-Serif" font-size="10.00"> </text>
<polyline fill="none" stroke="black" points="0,-162 124,-162 "/>
<text text-anchor="middle" x="62" y="-149" font-family="Helvetica,sans-Serif" font-size="10.00"> </text>
</a>
</g>
<!-- Node2&#45;&gt;Node1 -->
<g id="edge2" class="edge"><title>Node2&#45;&gt;Node1</title>
<path fill="none" stroke="midnightblue" d="M90.4491,-132.077C96.1451,-122.683 102.157,-112.767 107.936,-103.235"/>
<polygon fill="none" stroke="midnightblue" points="87.2942,-130.53 85.1025,-140.896 93.28,-134.159 87.2942,-130.53"/>
</g>
<!-- Node3 -->
<g id="node4" class="node"><title>Node3</title>
<a xlink:href="../../d1/d2f/classpocketmine_1_1event_1_1_event.html" target="_top" xlink:title="{pocketmine\\event\\Event\n|# $eventName\l|+ getEventName()\l+ isCancelled()\l+ setCancelled()\l+ getHandlers()\l}">
<polygon fill="white" stroke="black" points="1,-255 1,-357 123,-357 123,-255 1,-255"/>
<text text-anchor="middle" x="62" y="-344" font-family="Helvetica,sans-Serif" font-size="10.00">pocketmine\event\Event</text>
<polyline fill="none" stroke="black" points="1,-336 123,-336 "/>
<text text-anchor="start" x="9" y="-323" font-family="Helvetica,sans-Serif" font-size="10.00"># $eventName</text>
<polyline fill="none" stroke="black" points="1,-315 123,-315 "/>
<text text-anchor="start" x="9" y="-302" font-family="Helvetica,sans-Serif" font-size="10.00">+ getEventName()</text>
<text text-anchor="start" x="9" y="-289" font-family="Helvetica,sans-Serif" font-size="10.00">+ isCancelled()</text>
<text text-anchor="start" x="9" y="-276" font-family="Helvetica,sans-Serif" font-size="10.00">+ setCancelled()</text>
<text text-anchor="start" x="9" y="-263" font-family="Helvetica,sans-Serif" font-size="10.00">+ getHandlers()</text>
</a>
</g>
<!-- Node3&#45;&gt;Node2 -->
<g id="edge4" class="edge"><title>Node3&#45;&gt;Node2</title>
<path fill="none" stroke="midnightblue" d="M62,-244.625C62,-235.273 62,-225.859 62,-217.197"/>
<polygon fill="none" stroke="midnightblue" points="58.5001,-244.71 62,-254.71 65.5001,-244.71 58.5001,-244.71"/>
</g>
<!-- Node4 -->
<g id="node6" class="node"><title>Node4</title>
<a xlink:href="../../db/d62/interfacepocketmine_1_1event_1_1_cancellable.html" target="_top" xlink:title="{pocketmine\\event\\Cancellable\n||+ isCancelled()\l+ setCancelled()\l}">
<polygon fill="white" stroke="black" points="142,-141 142,-217 290,-217 290,-141 142,-141"/>
<text text-anchor="middle" x="216" y="-204" font-family="Helvetica,sans-Serif" font-size="10.00">pocketmine\event\Cancellable</text>
<polyline fill="none" stroke="black" points="142,-196 290,-196 "/>
<text text-anchor="middle" x="216" y="-183" font-family="Helvetica,sans-Serif" font-size="10.00"> </text>
<polyline fill="none" stroke="black" points="142,-175 290,-175 "/>
<text text-anchor="start" x="150" y="-162" font-family="Helvetica,sans-Serif" font-size="10.00">+ isCancelled()</text>
<text text-anchor="start" x="150" y="-149" font-family="Helvetica,sans-Serif" font-size="10.00">+ setCancelled()</text>
</a>
</g>
<!-- Node4&#45;&gt;Node1 -->
<g id="edge6" class="edge"><title>Node4&#45;&gt;Node1</title>
<path fill="none" stroke="midnightblue" d="M187.551,-132.077C181.855,-122.683 175.843,-112.767 170.064,-103.235"/>
<polygon fill="none" stroke="midnightblue" points="184.72,-134.159 192.897,-140.896 190.706,-130.53 184.72,-134.159"/>
</g>
</g>
</svg>
