<?xml version="1.0" encoding="UTF-8" standalone="no"?>
<!DOCTYPE svg PUBLIC "-//W3C//DTD SVG 1.1//EN"
 "http://www.w3.org/Graphics/SVG/1.1/DTD/svg11.dtd">
<!-- Generated by graphviz version 2.36.0 (20140111.2315)
 -->
<!-- Title: pocketmine\event\server\DataPacketSendEvent Pages: 1 -->
<svg width="323pt" height="334pt"
 viewBox="0.00 0.00 323.00 334.00" xmlns="http://www.w3.org/2000/svg" xmlns:xlink="http://www.w3.org/1999/xlink">
<g id="graph0" class="graph" transform="scale(1 1) rotate(0) translate(4 330)">
<title>pocketmine\event\server\DataPacketSendEvent</title>
<polygon fill="white" stroke="none" points="-4,4 -4,-330 319,-330 319,4 -4,4"/>
<!-- Node1 -->
<g id="node1" class="node"><title>Node1</title>
<polygon fill="#bfbfbf" stroke="black" points="83,-1 83,-113 219,-113 219,-1 83,-1"/>
<text text-anchor="start" x="91" y="-101" font-family="Helvetica,sans-Serif" font-size="10.00">pocketmine\event\server</text>
<text text-anchor="middle" x="151" y="-90" font-family="Helvetica,sans-Serif" font-size="10.00">\DataPacketSendEvent</text>
<polyline fill="none" stroke="black" points="83,-83 219,-83 "/>
<text text-anchor="start" x="91" y="-71" font-family="Helvetica,sans-Serif" font-size="10.00">+ $handlerList</text>
<text text-anchor="start" x="91" y="-60" font-family="Helvetica,sans-Serif" font-size="10.00">+ $eventPool</text>
<text text-anchor="start" x="91" y="-49" font-family="Helvetica,sans-Serif" font-size="10.00">+ $nextEvent</text>
<polyline fill="none" stroke="black" points="83,-42 219,-42 "/>
<text text-anchor="start" x="91" y="-30" font-family="Helvetica,sans-Serif" font-size="10.00">+ __construct()</text>
<text text-anchor="start" x="91" y="-19" font-family="Helvetica,sans-Serif" font-size="10.00">+ getPacket()</text>
<text text-anchor="start" x="91" y="-8" font-family="Helvetica,sans-Serif" font-size="10.00">+ getPlayer()</text>
</g>
<!-- Node2 -->
<g id="node2" class="node"><title>Node2</title>
<g id="a_node2"><a xlink:href="../../d1/d77/classpocketmine_1_1event_1_1server_1_1_server_event.html" target="_top" xlink:title="{pocketmine\\event\\server\l\\ServerEvent\n||}">
<polygon fill="white" stroke="black" points="0,-151 0,-219 136,-219 136,-151 0,-151"/>
<text text-anchor="start" x="8" y="-207" font-family="Helvetica,sans-Serif" font-size="10.00">pocketmine\event\server</text>
<text text-anchor="middle" x="68" y="-196" font-family="Helvetica,sans-Serif" font-size="10.00">\ServerEvent</text>
<polyline fill="none" stroke="black" points="0,-189 136,-189 "/>
<text text-anchor="middle" x="68" y="-177" font-family="Helvetica,sans-Serif" font-size="10.00"> </text>
<polyline fill="none" stroke="black" points="0,-170 136,-170 "/>
<text text-anchor="middle" x="68" y="-158" font-family="Helvetica,sans-Serif" font-size="10.00"> </text>
</a>
</g>
</g>
<!-- Node2&#45;&gt;Node1 -->
<g id="edge1" class="edge"><title>Node2&#45;&gt;Node1</title>
<path fill="none" stroke="midnightblue" d="M95.3132,-142.537C101.474,-133.184 108.108,-123.113 114.576,-113.294"/>
<polygon fill="none" stroke="midnightblue" points="92.3855,-140.619 89.8073,-150.895 98.2312,-144.469 92.3855,-140.619"/>
</g>
<!-- Node3 -->
<g id="node3" class="node"><title>Node3</title>
<g id="a_node3"><a xlink:href="../../d1/d2f/classpocketmine_1_1event_1_1_event.html" target="_top" xlink:title="{pocketmine\\event\\Event\n|# $eventName\l|+ getEventName()\l+ getHandlers()\l}">
<polygon fill="white" stroke="black" points="1.5,-257 1.5,-325 134.5,-325 134.5,-257 1.5,-257"/>
<text text-anchor="middle" x="68" y="-313" font-family="Helvetica,sans-Serif" font-size="10.00">pocketmine\event\Event</text>
<polyline fill="none" stroke="black" points="1.5,-306 134.5,-306 "/>
<text text-anchor="start" x="9.5" y="-294" font-family="Helvetica,sans-Serif" font-size="10.00"># $eventName</text>
<polyline fill="none" stroke="black" points="1.5,-287 134.5,-287 "/>
<text text-anchor="start" x="9.5" y="-275" font-family="Helvetica,sans-Serif" font-size="10.00">+ getEventName()</text>
<text text-anchor="start" x="9.5" y="-264" font-family="Helvetica,sans-Serif" font-size="10.00">+ getHandlers()</text>
</a>
</g>
</g>
<!-- Node3&#45;&gt;Node2 -->
<g id="edge2" class="edge"><title>Node3&#45;&gt;Node2</title>
<path fill="none" stroke="midnightblue" d="M68,-246.674C68,-237.502 68,-227.961 68,-219.234"/>
<polygon fill="none" stroke="midnightblue" points="64.5001,-246.808 68,-256.808 71.5001,-246.808 64.5001,-246.808"/>
</g>
<!-- Node4 -->
<g id="node4" class="node"><title>Node4</title>
<g id="a_node4"><a xlink:href="../../db/d62/interfacepocketmine_1_1event_1_1_cancellable.html" target="_top" xlink:title="{pocketmine\\event\\Cancellable\n||+ isCancelled()\l+ setCancelled()\l}">
<polygon fill="white" stroke="black" points="154.5,-151 154.5,-219 315.5,-219 315.5,-151 154.5,-151"/>
<text text-anchor="middle" x="235" y="-207" font-family="Helvetica,sans-Serif" font-size="10.00">pocketmine\event\Cancellable</text>
<polyline fill="none" stroke="black" points="154.5,-200 315.5,-200 "/>
<text text-anchor="middle" x="235" y="-188" font-family="Helvetica,sans-Serif" font-size="10.00"> </text>
<polyline fill="none" stroke="black" points="154.5,-181 315.5,-181 "/>
<text text-anchor="start" x="162.5" y="-169" font-family="Helvetica,sans-Serif" font-size="10.00">+ isCancelled()</text>
<text text-anchor="start" x="162.5" y="-158" font-family="Helvetica,sans-Serif" font-size="10.00">+ setCancelled()</text>
</a>
</g>
</g>
<!-- Node4&#45;&gt;Node1 -->
<g id="edge3" class="edge"><title>Node4&#45;&gt;Node1</title>
<path fill="none" stroke="midnightblue" d="M207.358,-142.537C201.123,-133.184 194.408,-123.113 187.863,-113.294"/>
<polygon fill="none" stroke="midnightblue" points="204.471,-144.516 212.93,-150.895 210.295,-140.633 204.471,-144.516"/>
</g>
</g>
</svg>
