<?xml version="1.0" encoding="UTF-8" standalone="no"?>
<!DOCTYPE svg PUBLIC "-//W3C//DTD SVG 1.1//EN"
 "http://www.w3.org/Graphics/SVG/1.1/DTD/svg11.dtd">
<!-- Generated by graphviz version 2.36.0 (20140111.2315)
 -->
<!-- Title: pocketmine\event\block\BlockFormEvent Pages: 1 -->
<svg width="318pt" height="460pt"
 viewBox="0.00 0.00 318.00 460.00" xmlns="http://www.w3.org/2000/svg" xmlns:xlink="http://www.w3.org/1999/xlink">
<g id="graph0" class="graph" transform="scale(1 1) rotate(0) translate(4 456)">
<title>pocketmine\event\block\BlockFormEvent</title>
<polygon fill="white" stroke="none" points="-4,4 -4,-456 314,-456 314,4 -4,4"/>
<!-- Node1 -->
<g id="node1" class="node"><title>Node1</title>
<polygon fill="#bfbfbf" stroke="black" points="117.5,-1 117.5,-91 248.5,-91 248.5,-1 117.5,-1"/>
<text text-anchor="start" x="125.5" y="-79" font-family="Helvetica,sans-Serif" font-size="10.00">pocketmine\event\block</text>
<text text-anchor="middle" x="183" y="-68" font-family="Helvetica,sans-Serif" font-size="10.00">\BlockFormEvent</text>
<polyline fill="none" stroke="black" points="117.5,-61 248.5,-61 "/>
<text text-anchor="start" x="125.5" y="-49" font-family="Helvetica,sans-Serif" font-size="10.00">+ $handlerList</text>
<text text-anchor="start" x="125.5" y="-38" font-family="Helvetica,sans-Serif" font-size="10.00">+ $eventPool</text>
<text text-anchor="start" x="125.5" y="-27" font-family="Helvetica,sans-Serif" font-size="10.00">+ $nextEvent</text>
<polyline fill="none" stroke="black" points="117.5,-20 248.5,-20 "/>
<text text-anchor="start" x="125.5" y="-8" font-family="Helvetica,sans-Serif" font-size="10.00">+ __construct()</text>
</g>
<!-- Node2 -->
<g id="node2" class="node"><title>Node2</title>
<g id="a_node2"><a xlink:href="../../db/d04/classpocketmine_1_1event_1_1block_1_1_block_grow_event.html" target="_top" xlink:title="{pocketmine\\event\\block\l\\BlockGrowEvent\n|+ $handlerList\l+ $eventPool\l+ $nextEvent\l|+ __construct()\l+ getNewState()\l}">
<polygon fill="white" stroke="black" points="70.5,-128.5 70.5,-229.5 201.5,-229.5 201.5,-128.5 70.5,-128.5"/>
<text text-anchor="start" x="78.5" y="-217.5" font-family="Helvetica,sans-Serif" font-size="10.00">pocketmine\event\block</text>
<text text-anchor="middle" x="136" y="-206.5" font-family="Helvetica,sans-Serif" font-size="10.00">\BlockGrowEvent</text>
<polyline fill="none" stroke="black" points="70.5,-199.5 201.5,-199.5 "/>
<text text-anchor="start" x="78.5" y="-187.5" font-family="Helvetica,sans-Serif" font-size="10.00">+ $handlerList</text>
<text text-anchor="start" x="78.5" y="-176.5" font-family="Helvetica,sans-Serif" font-size="10.00">+ $eventPool</text>
<text text-anchor="start" x="78.5" y="-165.5" font-family="Helvetica,sans-Serif" font-size="10.00">+ $nextEvent</text>
<polyline fill="none" stroke="black" points="70.5,-158.5 201.5,-158.5 "/>
<text text-anchor="start" x="78.5" y="-146.5" font-family="Helvetica,sans-Serif" font-size="10.00">+ __construct()</text>
<text text-anchor="start" x="78.5" y="-135.5" font-family="Helvetica,sans-Serif" font-size="10.00">+ getNewState()</text>
</a>
</g>
</g>
<!-- Node2&#45;&gt;Node1 -->
<g id="edge1" class="edge"><title>Node2&#45;&gt;Node1</title>
<path fill="none" stroke="midnightblue" d="M157.232,-118.82C160.589,-109.465 164.008,-99.9353 167.212,-91.0055"/>
<polygon fill="none" stroke="midnightblue" points="153.851,-117.88 153.769,-128.475 160.44,-120.244 153.851,-117.88"/>
</g>
<!-- Node3 -->
<g id="node3" class="node"><title>Node3</title>
<g id="a_node3"><a xlink:href="../../df/d69/classpocketmine_1_1event_1_1block_1_1_block_event.html" target="_top" xlink:title="{pocketmine\\event\\block\l\\BlockEvent\n|# $block\l|+ __construct()\l+ getBlock()\l}">
<polygon fill="white" stroke="black" points="0.5,-266.5 0.5,-345.5 131.5,-345.5 131.5,-266.5 0.5,-266.5"/>
<text text-anchor="start" x="8.5" y="-333.5" font-family="Helvetica,sans-Serif" font-size="10.00">pocketmine\event\block</text>
<text text-anchor="middle" x="66" y="-322.5" font-family="Helvetica,sans-Serif" font-size="10.00">\BlockEvent</text>
<polyline fill="none" stroke="black" points="0.5,-315.5 131.5,-315.5 "/>
<text text-anchor="start" x="8.5" y="-303.5" font-family="Helvetica,sans-Serif" font-size="10.00"># $block</text>
<polyline fill="none" stroke="black" points="0.5,-296.5 131.5,-296.5 "/>
<text text-anchor="start" x="8.5" y="-284.5" font-family="Helvetica,sans-Serif" font-size="10.00">+ __construct()</text>
<text text-anchor="start" x="8.5" y="-273.5" font-family="Helvetica,sans-Serif" font-size="10.00">+ getBlock()</text>
</a>
</g>
</g>
<!-- Node3&#45;&gt;Node2 -->
<g id="edge2" class="edge"><title>Node3&#45;&gt;Node2</title>
<path fill="none" stroke="midnightblue" d="M92.5738,-257.547C97.6761,-248.436 103.032,-238.871 108.173,-229.691"/>
<polygon fill="none" stroke="midnightblue" points="89.4058,-256.041 87.5735,-266.476 95.5133,-259.461 89.4058,-256.041"/>
</g>
<!-- Node4 -->
<g id="node4" class="node"><title>Node4</title>
<g id="a_node4"><a xlink:href="../../d1/d2f/classpocketmine_1_1event_1_1_event.html" target="_top" xlink:title="{pocketmine\\event\\Event\n|# $eventName\l|+ getEventName()\l+ getHandlers()\l}">
<polygon fill="white" stroke="black" points="-0.5,-383 -0.5,-451 132.5,-451 132.5,-383 -0.5,-383"/>
<text text-anchor="middle" x="66" y="-439" font-family="Helvetica,sans-Serif" font-size="10.00">pocketmine\event\Event</text>
<polyline fill="none" stroke="black" points="-0.5,-432 132.5,-432 "/>
<text text-anchor="start" x="7.5" y="-420" font-family="Helvetica,sans-Serif" font-size="10.00"># $eventName</text>
<polyline fill="none" stroke="black" points="-0.5,-413 132.5,-413 "/>
<text text-anchor="start" x="7.5" y="-401" font-family="Helvetica,sans-Serif" font-size="10.00">+ getEventName()</text>
<text text-anchor="start" x="7.5" y="-390" font-family="Helvetica,sans-Serif" font-size="10.00">+ getHandlers()</text>
</a>
</g>
</g>
<!-- Node4&#45;&gt;Node3 -->
<g id="edge3" class="edge"><title>Node4&#45;&gt;Node3</title>
<path fill="none" stroke="midnightblue" d="M66,-372.575C66,-363.737 66,-354.493 66,-345.827"/>
<polygon fill="none" stroke="midnightblue" points="62.5001,-372.704 66,-382.704 69.5001,-372.704 62.5001,-372.704"/>
</g>
<!-- Node5 -->
<g id="node5" class="node"><title>Node5</title>
<g id="a_node5"><a xlink:href="../../db/d62/interfacepocketmine_1_1event_1_1_cancellable.html" target="_top" xlink:title="{pocketmine\\event\\Cancellable\n||+ isCancelled()\l+ setCancelled()\l}">
<polygon fill="white" stroke="black" points="149.5,-272 149.5,-340 310.5,-340 310.5,-272 149.5,-272"/>
<text text-anchor="middle" x="230" y="-328" font-family="Helvetica,sans-Serif" font-size="10.00">pocketmine\event\Cancellable</text>
<polyline fill="none" stroke="black" points="149.5,-321 310.5,-321 "/>
<text text-anchor="middle" x="230" y="-309" font-family="Helvetica,sans-Serif" font-size="10.00"> </text>
<polyline fill="none" stroke="black" points="149.5,-302 310.5,-302 "/>
<text text-anchor="start" x="157.5" y="-290" font-family="Helvetica,sans-Serif" font-size="10.00">+ isCancelled()</text>
<text text-anchor="start" x="157.5" y="-279" font-family="Helvetica,sans-Serif" font-size="10.00">+ setCancelled()</text>
</a>
</g>
</g>
<!-- Node5&#45;&gt;Node1 -->
<g id="edge5" class="edge"><title>Node5&#45;&gt;Node1</title>
<path fill="none" stroke="midnightblue" d="M227.632,-261.528C225.06,-225.441 219.914,-172.939 210,-128 207.318,-115.841 203.488,-102.94 199.554,-91.0939"/>
<polygon fill="none" stroke="midnightblue" points="224.153,-261.971 228.32,-271.712 231.137,-261.499 224.153,-261.971"/>
</g>
<!-- Node5&#45;&gt;Node2 -->
<g id="edge4" class="edge"><title>Node5&#45;&gt;Node2</title>
<path fill="none" stroke="midnightblue" d="M198.976,-263.745C190.814,-252.891 181.922,-241.066 173.46,-229.814"/>
<polygon fill="none" stroke="midnightblue" points="196.249,-265.942 205.057,-271.83 201.844,-261.735 196.249,-265.942"/>
</g>
</g>
</svg>
