<?xml version="1.0" encoding="UTF-8" standalone="no"?>
<!DOCTYPE svg PUBLIC "-//W3C//DTD SVG 1.1//EN"
 "http://www.w3.org/Graphics/SVG/1.1/DTD/svg11.dtd">
<!-- Generated by graphviz version 2.36.0 (20140111.2315)
 -->
<!-- Title: pocketmine\level\format\generic\BaseFullChunk\load Pages: 1 -->
<svg width="348pt" height="147pt"
 viewBox="0.00 0.00 348.00 147.00" xmlns="http://www.w3.org/2000/svg" xmlns:xlink="http://www.w3.org/1999/xlink">
<g id="graph0" class="graph" transform="scale(1 1) rotate(0) translate(4 143)">
<title>pocketmine\level\format\generic\BaseFullChunk\load</title>
<polygon fill="white" stroke="none" points="-4,4 -4,-143 344,-143 344,4 -4,4"/>
<!-- Node1 -->
<g id="node1" class="node"><title>Node1</title>
<polygon fill="#bfbfbf" stroke="black" points="0,-49 0,-79 150,-79 150,-49 0,-49"/>
<text text-anchor="start" x="8" y="-67" font-family="Helvetica,sans-Serif" font-size="10.00">pocketmine\level\format</text>
<text text-anchor="middle" x="75" y="-56" font-family="Helvetica,sans-Serif" font-size="10.00">\generic\BaseFullChunk\load</text>
</g>
<!-- Node2 -->
<g id="node2" class="node"><title>Node2</title>
<g id="a_node2"><a xlink:href="../../da/d9a/classpocketmine_1_1level_1_1format_1_1generic_1_1_base_full_chunk.html#a0fb118fe67d326822e163bfeaaf1114b" target="_top" xlink:title="pocketmine\\level\\format\l\\generic\\BaseFullChunk\l\\getProvider">
<polygon fill="white" stroke="black" points="196.5,-97.5 196.5,-138.5 329.5,-138.5 329.5,-97.5 196.5,-97.5"/>
<text text-anchor="start" x="204.5" y="-126.5" font-family="Helvetica,sans-Serif" font-size="10.00">pocketmine\level\format</text>
<text text-anchor="start" x="204.5" y="-115.5" font-family="Helvetica,sans-Serif" font-size="10.00">\generic\BaseFullChunk</text>
<text text-anchor="middle" x="263" y="-104.5" font-family="Helvetica,sans-Serif" font-size="10.00">\getProvider</text>
</a>
</g>
</g>
<!-- Node1&#45;&gt;Node2 -->
<g id="edge1" class="edge"><title>Node1&#45;&gt;Node2</title>
<path fill="none" stroke="midnightblue" d="M127.811,-79.042C145.927,-84.3013 166.655,-90.3192 186.313,-96.0264"/>
<polygon fill="midnightblue" stroke="midnightblue" points="185.588,-99.4604 196.168,-98.8874 187.54,-92.738 185.588,-99.4604"/>
</g>
<!-- Node3 -->
<g id="node3" class="node"><title>Node3</title>
<g id="a_node3"><a xlink:href="../../da/d9a/classpocketmine_1_1level_1_1format_1_1generic_1_1_base_full_chunk.html#a7d105e7bd1e1f502689ecb52b32b2313" target="_top" xlink:title="pocketmine\\level\\format\l\\generic\\BaseFullChunk\\getX">
<polygon fill="white" stroke="black" points="187,-49 187,-79 339,-79 339,-49 187,-49"/>
<text text-anchor="start" x="195" y="-67" font-family="Helvetica,sans-Serif" font-size="10.00">pocketmine\level\format</text>
<text text-anchor="middle" x="263" y="-56" font-family="Helvetica,sans-Serif" font-size="10.00">\generic\BaseFullChunk\getX</text>
</a>
</g>
</g>
<!-- Node1&#45;&gt;Node3 -->
<g id="edge2" class="edge"><title>Node1&#45;&gt;Node3</title>
<path fill="none" stroke="midnightblue" d="M150.047,-64C158.879,-64 167.95,-64 176.922,-64"/>
<polygon fill="midnightblue" stroke="midnightblue" points="176.992,-67.5001 186.992,-64 176.992,-60.5001 176.992,-67.5001"/>
</g>
<!-- Node4 -->
<g id="node4" class="node"><title>Node4</title>
<g id="a_node4"><a xlink:href="../../da/d9a/classpocketmine_1_1level_1_1format_1_1generic_1_1_base_full_chunk.html#accb52bc772db27ca758128ecfbd5228d" target="_top" xlink:title="pocketmine\\level\\format\l\\generic\\BaseFullChunk\\getZ">
<polygon fill="white" stroke="black" points="186.5,-0 186.5,-30 339.5,-30 339.5,-0 186.5,-0"/>
<text text-anchor="start" x="194.5" y="-18" font-family="Helvetica,sans-Serif" font-size="10.00">pocketmine\level\format</text>
<text text-anchor="middle" x="263" y="-7" font-family="Helvetica,sans-Serif" font-size="10.00">\generic\BaseFullChunk\getZ</text>
</a>
</g>
</g>
<!-- Node1&#45;&gt;Node4 -->
<g id="edge3" class="edge"><title>Node1&#45;&gt;Node4</title>
<path fill="none" stroke="midnightblue" d="M133.07,-48.9654C152.709,-43.7917 174.874,-37.9525 195.217,-32.5934"/>
<polygon fill="midnightblue" stroke="midnightblue" points="196.259,-35.9383 205.038,-30.0062 194.476,-29.1692 196.259,-35.9383"/>
</g>
</g>
</svg>
