<?xml version="1.0" encoding="UTF-8" standalone="no"?>
<!DOCTYPE svg PUBLIC "-//W3C//DTD SVG 1.1//EN"
 "http://www.w3.org/Graphics/SVG/1.1/DTD/svg11.dtd">
<!-- Generated by graphviz version 2.36.0 (20140111.2315)
 -->
<!-- Title: pocketmine\level\format\generic\BaseFullChunk\getX Pages: 1 -->
<svg width="346pt" height="206pt"
 viewBox="0.00 0.00 346.00 206.00" xmlns="http://www.w3.org/2000/svg" xmlns:xlink="http://www.w3.org/1999/xlink">
<g id="graph0" class="graph" transform="scale(1 1) rotate(0) translate(4 202)">
<title>pocketmine\level\format\generic\BaseFullChunk\getX</title>
<polygon fill="white" stroke="none" points="-4,4 -4,-202 342,-202 342,4 -4,4"/>
<!-- Node1 -->
<g id="node1" class="node"><title>Node1</title>
<polygon fill="#bfbfbf" stroke="black" points="0,-83 0,-113 152,-113 152,-83 0,-83"/>
<text text-anchor="start" x="8" y="-101" font-family="Helvetica,sans-Serif" font-size="10.00">pocketmine\level\format</text>
<text text-anchor="middle" x="76" y="-90" font-family="Helvetica,sans-Serif" font-size="10.00">\generic\BaseFullChunk\getX</text>
</g>
<!-- Node2 -->
<g id="node2" class="node"><title>Node2</title>
<g id="a_node2"><a xlink:href="../../da/d9a/classpocketmine_1_1level_1_1format_1_1generic_1_1_base_full_chunk.html#aa17851e4c448fab216cfcc57f8b63588" target="_top" xlink:title="pocketmine\\level\\format\l\\generic\\BaseFullChunk\l\\isLoaded">
<polygon fill="white" stroke="black" points="196.5,-156.5 196.5,-197.5 329.5,-197.5 329.5,-156.5 196.5,-156.5"/>
<text text-anchor="start" x="204.5" y="-185.5" font-family="Helvetica,sans-Serif" font-size="10.00">pocketmine\level\format</text>
<text text-anchor="start" x="204.5" y="-174.5" font-family="Helvetica,sans-Serif" font-size="10.00">\generic\BaseFullChunk</text>
<text text-anchor="middle" x="263" y="-163.5" font-family="Helvetica,sans-Serif" font-size="10.00">\isLoaded</text>
</a>
</g>
</g>
<!-- Node1&#45;&gt;Node2 -->
<g id="edge1" class="edge"><title>Node1&#45;&gt;Node2</title>
<path fill="none" stroke="midnightblue" d="M119.805,-117.261C140.364,-126.418 165.392,-137.43 188,-147 195.277,-150.08 202.982,-153.276 210.563,-156.383"/>
<polygon fill="midnightblue" stroke="midnightblue" points="120.958,-113.943 110.4,-113.063 118.105,-120.335 120.958,-113.943"/>
</g>
<!-- Node3 -->
<g id="node3" class="node"><title>Node3</title>
<g id="a_node3"><a xlink:href="../../dc/de8/classpocketmine_1_1level_1_1format_1_1generic_1_1_base_chunk.html#a2ffced285cefc755d5fb34ce20f75976" target="_top" xlink:title="pocketmine\\level\\format\l\\generic\\BaseChunk\\load">
<polygon fill="white" stroke="black" points="195.5,-108 195.5,-138 330.5,-138 330.5,-108 195.5,-108"/>
<text text-anchor="start" x="203.5" y="-126" font-family="Helvetica,sans-Serif" font-size="10.00">pocketmine\level\format</text>
<text text-anchor="middle" x="263" y="-115" font-family="Helvetica,sans-Serif" font-size="10.00">\generic\BaseChunk\load</text>
</a>
</g>
</g>
<!-- Node1&#45;&gt;Node3 -->
<g id="edge2" class="edge"><title>Node1&#45;&gt;Node3</title>
<path fill="none" stroke="midnightblue" d="M162.38,-109.538C173.477,-111.037 184.712,-112.556 195.439,-114.005"/>
<polygon fill="midnightblue" stroke="midnightblue" points="162.625,-106.039 152.247,-108.168 161.688,-112.976 162.625,-106.039"/>
</g>
<!-- Node4 -->
<g id="node4" class="node"><title>Node4</title>
<g id="a_node4"><a xlink:href="../../da/d9a/classpocketmine_1_1level_1_1format_1_1generic_1_1_base_full_chunk.html#aa6162b740a19a8021ff802d5fc421c59" target="_top" xlink:title="pocketmine\\level\\format\l\\generic\\BaseFullChunk\\load">
<polygon fill="white" stroke="black" points="188,-59 188,-89 338,-89 338,-59 188,-59"/>
<text text-anchor="start" x="196" y="-77" font-family="Helvetica,sans-Serif" font-size="10.00">pocketmine\level\format</text>
<text text-anchor="middle" x="263" y="-66" font-family="Helvetica,sans-Serif" font-size="10.00">\generic\BaseFullChunk\load</text>
</a>
</g>
</g>
<!-- Node1&#45;&gt;Node4 -->
<g id="edge3" class="edge"><title>Node1&#45;&gt;Node4</title>
<path fill="none" stroke="midnightblue" d="M162.195,-86.9477C170.717,-85.8421 179.323,-84.7257 187.72,-83.6364"/>
<polygon fill="midnightblue" stroke="midnightblue" points="161.713,-83.4808 152.247,-88.2383 162.614,-90.4226 161.713,-83.4808"/>
</g>
<!-- Node5 -->
<g id="node5" class="node"><title>Node5</title>
<g id="a_node5"><a xlink:href="../../da/d9a/classpocketmine_1_1level_1_1format_1_1generic_1_1_base_full_chunk.html#a0cd95594b690c3f8bb09937f2905b5c5" target="_top" xlink:title="pocketmine\\level\\format\l\\generic\\BaseFullChunk\l\\unload">
<polygon fill="white" stroke="black" points="196.5,0.5 196.5,-40.5 329.5,-40.5 329.5,0.5 196.5,0.5"/>
<text text-anchor="start" x="204.5" y="-28.5" font-family="Helvetica,sans-Serif" font-size="10.00">pocketmine\level\format</text>
<text text-anchor="start" x="204.5" y="-17.5" font-family="Helvetica,sans-Serif" font-size="10.00">\generic\BaseFullChunk</text>
<text text-anchor="middle" x="263" y="-6.5" font-family="Helvetica,sans-Serif" font-size="10.00">\unload</text>
</a>
</g>
</g>
<!-- Node1&#45;&gt;Node5 -->
<g id="edge4" class="edge"><title>Node1&#45;&gt;Node5</title>
<path fill="none" stroke="midnightblue" d="M120.756,-78.8029C141.147,-69.9276 165.765,-59.3131 188,-50 195.416,-46.8937 203.27,-43.655 210.983,-40.5034"/>
<polygon fill="midnightblue" stroke="midnightblue" points="119.18,-75.6718 111.412,-82.8767 121.978,-82.0884 119.18,-75.6718"/>
</g>
</g>
</svg>
