<?xml version="1.0" encoding="UTF-8" standalone="no"?>
<!DOCTYPE svg PUBLIC "-//W3C//DTD SVG 1.1//EN"
 "http://www.w3.org/Graphics/SVG/1.1/DTD/svg11.dtd">
<!-- Generated by graphviz version 2.26.3 (20100126.1600)
 -->
<!-- Title: pocketmine\level\format\generic\BaseFullChunk\load Pages: 1 -->
<svg width="330pt" height="160pt"
 viewBox="0.00 0.00 330.00 160.00" xmlns="http://www.w3.org/2000/svg" xmlns:xlink="http://www.w3.org/1999/xlink">
<g id="graph1" class="graph" transform="scale(1 1) rotate(0) translate(4 156)">
<title>pocketmine\level\format\generic\BaseFullChunk\load</title>
<polygon fill="white" stroke="white" points="-4,5 -4,-156 327,-156 327,5 -4,5"/>
<!-- Node1 -->
<g id="node1" class="node"><title>Node1</title>
<polygon fill="#bfbfbf" stroke="black" points="0,-52 0,-86 142,-86 142,-52 0,-52"/>
<text text-anchor="start" x="8" y="-73" font-family="Helvetica,sans-Serif" font-size="10.00">pocketmine\level\format</text>
<text text-anchor="middle" x="71" y="-60" font-family="Helvetica,sans-Serif" font-size="10.00">\generic\BaseFullChunk\load</text>
</g>
<!-- Node2 -->
<g id="node3" class="node"><title>Node2</title>
<a xlink:href="../../da/d9a/classpocketmine_1_1level_1_1format_1_1generic_1_1_base_full_chunk.html#a0fb118fe67d326822e163bfeaaf1114b" target="_top" xlink:title="pocketmine\\level\\format\l\\generic\\BaseFullChunk\l\\getProvider">
<polygon fill="white" stroke="black" points="189.5,-104.5 189.5,-151.5 310.5,-151.5 310.5,-104.5 189.5,-104.5"/>
<text text-anchor="start" x="197.5" y="-138.5" font-family="Helvetica,sans-Serif" font-size="10.00">pocketmine\level\format</text>
<text text-anchor="start" x="197.5" y="-125.5" font-family="Helvetica,sans-Serif" font-size="10.00">\generic\BaseFullChunk</text>
<text text-anchor="middle" x="250" y="-112.5" font-family="Helvetica,sans-Serif" font-size="10.00">\getProvider</text>
</a>
</g>
<!-- Node1&#45;&gt;Node2 -->
<g id="edge2" class="edge"><title>Node1&#45;&gt;Node2</title>
<path fill="none" stroke="midnightblue" d="M122.774,-86.0652C140.617,-91.9463 160.908,-98.6345 179.962,-104.915"/>
<polygon fill="midnightblue" stroke="midnightblue" points="178.903,-108.251 189.496,-108.057 181.095,-101.603 178.903,-108.251"/>
</g>
<!-- Node3 -->
<g id="node5" class="node"><title>Node3</title>
<a xlink:href="../../da/d9a/classpocketmine_1_1level_1_1format_1_1generic_1_1_base_full_chunk.html#a7d105e7bd1e1f502689ecb52b32b2313" target="_top" xlink:title="pocketmine\\level\\format\l\\generic\\BaseFullChunk\\getX">
<polygon fill="white" stroke="black" points="178,-52 178,-86 322,-86 322,-52 178,-52"/>
<text text-anchor="start" x="186" y="-73" font-family="Helvetica,sans-Serif" font-size="10.00">pocketmine\level\format</text>
<text text-anchor="middle" x="250" y="-60" font-family="Helvetica,sans-Serif" font-size="10.00">\generic\BaseFullChunk\getX</text>
</a>
</g>
<!-- Node1&#45;&gt;Node3 -->
<g id="edge4" class="edge"><title>Node1&#45;&gt;Node3</title>
<path fill="none" stroke="midnightblue" d="M142.003,-69C150.492,-69 159.213,-69 167.842,-69"/>
<polygon fill="midnightblue" stroke="midnightblue" points="167.911,-72.5001 177.911,-69 167.911,-65.5001 167.911,-72.5001"/>
</g>
<!-- Node4 -->
<g id="node7" class="node"><title>Node4</title>
<a xlink:href="../../da/d9a/classpocketmine_1_1level_1_1format_1_1generic_1_1_base_full_chunk.html#accb52bc772db27ca758128ecfbd5228d" target="_top" xlink:title="pocketmine\\level\\format\l\\generic\\BaseFullChunk\\getZ">
<polygon fill="white" stroke="black" points="178.5,-0 178.5,-34 321.5,-34 321.5,-0 178.5,-0"/>
<text text-anchor="start" x="186.5" y="-21" font-family="Helvetica,sans-Serif" font-size="10.00">pocketmine\level\format</text>
<text text-anchor="middle" x="250" y="-8" font-family="Helvetica,sans-Serif" font-size="10.00">\generic\BaseFullChunk\getZ</text>
</a>
</g>
<!-- Node1&#45;&gt;Node4 -->
<g id="edge6" class="edge"><title>Node1&#45;&gt;Node4</title>
<path fill="none" stroke="midnightblue" d="M129.611,-51.9733C146.146,-47.1697 164.285,-41.9005 181.352,-36.9424"/>
<polygon fill="midnightblue" stroke="midnightblue" points="182.63,-40.2158 191.257,-34.065 180.678,-33.4937 182.63,-40.2158"/>
</g>
</g>
</svg>
