<?xml version="1.0" encoding="UTF-8" standalone="no"?>
<!DOCTYPE svg PUBLIC "-//W3C//DTD SVG 1.1//EN"
 "http://www.w3.org/Graphics/SVG/1.1/DTD/svg11.dtd">
<!-- Generated by graphviz version 2.26.3 (20100126.1600)
 -->
<!-- Title: pocketmine\level\format\generic\BaseFullChunk\unload Pages: 1 -->
<svg width="310pt" height="292pt"
 viewBox="0.00 0.00 310.00 292.00" xmlns="http://www.w3.org/2000/svg" xmlns:xlink="http://www.w3.org/1999/xlink">
<g id="graph1" class="graph" transform="scale(1 1) rotate(0) translate(4 288)">
<title>pocketmine\level\format\generic\BaseFullChunk\unload</title>
<polygon fill="white" stroke="white" points="-4,5 -4,-288 307,-288 307,5 -4,5"/>
<!-- Node1 -->
<g id="node1" class="node"><title>Node1</title>
<polygon fill="#bfbfbf" stroke="black" points="0.5,-104.5 0.5,-151.5 121.5,-151.5 121.5,-104.5 0.5,-104.5"/>
<text text-anchor="start" x="8.5" y="-138.5" font-family="Helvetica,sans-Serif" font-size="10.00">pocketmine\level\format</text>
<text text-anchor="start" x="8.5" y="-125.5" font-family="Helvetica,sans-Serif" font-size="10.00">\generic\BaseFullChunk</text>
<text text-anchor="middle" x="61" y="-112.5" font-family="Helvetica,sans-Serif" font-size="10.00">\unload</text>
</g>
<!-- Node2 -->
<g id="node3" class="node"><title>Node2</title>
<a xlink:href="../../da/d9a/classpocketmine_1_1level_1_1format_1_1generic_1_1_base_full_chunk.html#a1acf60f4bd5a93971966e56b0cfe63fc" target="_top" xlink:title="pocketmine\\level\\format\l\\generic\\BaseFullChunk\l\\getEntities">
<polygon fill="white" stroke="black" points="169.5,-236.5 169.5,-283.5 290.5,-283.5 290.5,-236.5 169.5,-236.5"/>
<text text-anchor="start" x="177.5" y="-270.5" font-family="Helvetica,sans-Serif" font-size="10.00">pocketmine\level\format</text>
<text text-anchor="start" x="177.5" y="-257.5" font-family="Helvetica,sans-Serif" font-size="10.00">\generic\BaseFullChunk</text>
<text text-anchor="middle" x="230" y="-244.5" font-family="Helvetica,sans-Serif" font-size="10.00">\getEntities</text>
</a>
</g>
<!-- Node1&#45;&gt;Node2 -->
<g id="edge2" class="edge"><title>Node1&#45;&gt;Node2</title>
<path fill="none" stroke="midnightblue" d="M79.782,-151.635C97.9882,-173.373 127.29,-205.414 158,-227 160.067,-228.453 162.208,-229.867 164.403,-231.241"/>
<polygon fill="midnightblue" stroke="midnightblue" points="162.687,-234.293 173.083,-236.336 166.23,-228.255 162.687,-234.293"/>
</g>
<!-- Node3 -->
<g id="node5" class="node"><title>Node3</title>
<a xlink:href="../../da/d9a/classpocketmine_1_1level_1_1format_1_1generic_1_1_base_full_chunk.html#a0fb118fe67d326822e163bfeaaf1114b" target="_top" xlink:title="pocketmine\\level\\format\l\\generic\\BaseFullChunk\l\\getProvider">
<polygon fill="white" stroke="black" points="169.5,-170.5 169.5,-217.5 290.5,-217.5 290.5,-170.5 169.5,-170.5"/>
<text text-anchor="start" x="177.5" y="-204.5" font-family="Helvetica,sans-Serif" font-size="10.00">pocketmine\level\format</text>
<text text-anchor="start" x="177.5" y="-191.5" font-family="Helvetica,sans-Serif" font-size="10.00">\generic\BaseFullChunk</text>
<text text-anchor="middle" x="230" y="-178.5" font-family="Helvetica,sans-Serif" font-size="10.00">\getProvider</text>
</a>
</g>
<!-- Node1&#45;&gt;Node3 -->
<g id="edge4" class="edge"><title>Node1&#45;&gt;Node3</title>
<path fill="none" stroke="midnightblue" d="M121.536,-151.641C133.989,-156.504 147.199,-161.664 159.956,-166.646"/>
<polygon fill="midnightblue" stroke="midnightblue" points="159.015,-170.035 169.603,-170.413 161.562,-163.515 159.015,-170.035"/>
</g>
<!-- Node4 -->
<g id="node7" class="node"><title>Node4</title>
<a xlink:href="../../da/d9a/classpocketmine_1_1level_1_1format_1_1generic_1_1_base_full_chunk.html#a7449ef296579a450ea842f8a7eceb2d4" target="_top" xlink:title="pocketmine\\level\\format\l\\generic\\BaseFullChunk\l\\getTiles">
<polygon fill="white" stroke="black" points="169.5,-104.5 169.5,-151.5 290.5,-151.5 290.5,-104.5 169.5,-104.5"/>
<text text-anchor="start" x="177.5" y="-138.5" font-family="Helvetica,sans-Serif" font-size="10.00">pocketmine\level\format</text>
<text text-anchor="start" x="177.5" y="-125.5" font-family="Helvetica,sans-Serif" font-size="10.00">\generic\BaseFullChunk</text>
<text text-anchor="middle" x="230" y="-112.5" font-family="Helvetica,sans-Serif" font-size="10.00">\getTiles</text>
</a>
</g>
<!-- Node1&#45;&gt;Node4 -->
<g id="edge6" class="edge"><title>Node1&#45;&gt;Node4</title>
<path fill="none" stroke="midnightblue" d="M121.536,-128C133.671,-128 146.524,-128 158.977,-128"/>
<polygon fill="midnightblue" stroke="midnightblue" points="159.319,-131.5 169.319,-128 159.319,-124.5 159.319,-131.5"/>
</g>
<!-- Node5 -->
<g id="node9" class="node"><title>Node5</title>
<a xlink:href="../../da/d9a/classpocketmine_1_1level_1_1format_1_1generic_1_1_base_full_chunk.html#a7d105e7bd1e1f502689ecb52b32b2313" target="_top" xlink:title="pocketmine\\level\\format\l\\generic\\BaseFullChunk\\getX">
<polygon fill="white" stroke="black" points="158,-52 158,-86 302,-86 302,-52 158,-52"/>
<text text-anchor="start" x="166" y="-73" font-family="Helvetica,sans-Serif" font-size="10.00">pocketmine\level\format</text>
<text text-anchor="middle" x="230" y="-60" font-family="Helvetica,sans-Serif" font-size="10.00">\generic\BaseFullChunk\getX</text>
</a>
</g>
<!-- Node1&#45;&gt;Node5 -->
<g id="edge8" class="edge"><title>Node1&#45;&gt;Node5</title>
<path fill="none" stroke="midnightblue" d="M121.536,-106.866C137.771,-101.198 155.294,-95.0808 171.422,-89.4505"/>
<polygon fill="midnightblue" stroke="midnightblue" points="172.971,-92.6166 181.259,-86.0161 170.664,-86.0078 172.971,-92.6166"/>
</g>
<!-- Node6 -->
<g id="node11" class="node"><title>Node6</title>
<a xlink:href="../../da/d9a/classpocketmine_1_1level_1_1format_1_1generic_1_1_base_full_chunk.html#accb52bc772db27ca758128ecfbd5228d" target="_top" xlink:title="pocketmine\\level\\format\l\\generic\\BaseFullChunk\\getZ">
<polygon fill="white" stroke="black" points="158.5,-0 158.5,-34 301.5,-34 301.5,-0 158.5,-0"/>
<text text-anchor="start" x="166.5" y="-21" font-family="Helvetica,sans-Serif" font-size="10.00">pocketmine\level\format</text>
<text text-anchor="middle" x="230" y="-8" font-family="Helvetica,sans-Serif" font-size="10.00">\generic\BaseFullChunk\getZ</text>
</a>
</g>
<!-- Node1&#45;&gt;Node6 -->
<g id="edge10" class="edge"><title>Node1&#45;&gt;Node6</title>
<path fill="none" stroke="midnightblue" d="M82.9861,-104.371C101.498,-85.6181 129.459,-59.8399 158,-43 160.804,-41.3454 163.731,-39.7694 166.732,-38.272"/>
<polygon fill="midnightblue" stroke="midnightblue" points="168.307,-41.3998 175.905,-34.0161 165.361,-35.0499 168.307,-41.3998"/>
</g>
</g>
</svg>
