<?xml version="1.0" encoding="UTF-8" standalone="no"?>
<!DOCTYPE svg PUBLIC "-//W3C//DTD SVG 1.1//EN"
 "http://www.w3.org/Graphics/SVG/1.1/DTD/svg11.dtd">
<!-- Generated by graphviz version 2.36.0 (20140111.2315)
 -->
<!-- Title: pocketmine\level\format\generic\BaseFullChunk\unload Pages: 1 -->
<svg width="332pt" height="326pt"
 viewBox="0.00 0.00 332.00 326.00" xmlns="http://www.w3.org/2000/svg" xmlns:xlink="http://www.w3.org/1999/xlink">
<g id="graph0" class="graph" transform="scale(1 1) rotate(0) translate(4 322)">
<title>pocketmine\level\format\generic\BaseFullChunk\unload</title>
<polygon fill="white" stroke="none" points="-4,4 -4,-322 328,-322 328,4 -4,4"/>
<!-- Node1 -->
<g id="node1" class="node"><title>Node1</title>
<polygon fill="#bfbfbf" stroke="black" points="0.5,-129.5 0.5,-170.5 133.5,-170.5 133.5,-129.5 0.5,-129.5"/>
<text text-anchor="start" x="8.5" y="-158.5" font-family="Helvetica,sans-Serif" font-size="10.00">pocketmine\level\format</text>
<text text-anchor="start" x="8.5" y="-147.5" font-family="Helvetica,sans-Serif" font-size="10.00">\generic\BaseFullChunk</text>
<text text-anchor="middle" x="67" y="-136.5" font-family="Helvetica,sans-Serif" font-size="10.00">\unload</text>
</g>
<!-- Node2 -->
<g id="node2" class="node"><title>Node2</title>
<g id="a_node2"><a xlink:href="../../da/d9a/classpocketmine_1_1level_1_1format_1_1generic_1_1_base_full_chunk.html#a1acf60f4bd5a93971966e56b0cfe63fc" target="_top" xlink:title="pocketmine\\level\\format\l\\generic\\BaseFullChunk\l\\getEntities">
<polygon fill="white" stroke="black" points="180.5,-276.5 180.5,-317.5 313.5,-317.5 313.5,-276.5 180.5,-276.5"/>
<text text-anchor="start" x="188.5" y="-305.5" font-family="Helvetica,sans-Serif" font-size="10.00">pocketmine\level\format</text>
<text text-anchor="start" x="188.5" y="-294.5" font-family="Helvetica,sans-Serif" font-size="10.00">\generic\BaseFullChunk</text>
<text text-anchor="middle" x="247" y="-283.5" font-family="Helvetica,sans-Serif" font-size="10.00">\getEntities</text>
</a>
</g>
</g>
<!-- Node1&#45;&gt;Node2 -->
<g id="edge1" class="edge"><title>Node1&#45;&gt;Node2</title>
<path fill="none" stroke="midnightblue" d="M81.5996,-170.634C99.2917,-196.087 132.417,-239.259 170,-266 172.67,-267.9 175.475,-269.709 178.367,-271.428"/>
<polygon fill="midnightblue" stroke="midnightblue" points="176.812,-274.567 187.262,-276.315 180.183,-268.432 176.812,-274.567"/>
</g>
<!-- Node3 -->
<g id="node3" class="node"><title>Node3</title>
<g id="a_node3"><a xlink:href="../../da/d9a/classpocketmine_1_1level_1_1format_1_1generic_1_1_base_full_chunk.html#a0fb118fe67d326822e163bfeaaf1114b" target="_top" xlink:title="pocketmine\\level\\format\l\\generic\\BaseFullChunk\l\\getProvider">
<polygon fill="white" stroke="black" points="180.5,-216.5 180.5,-257.5 313.5,-257.5 313.5,-216.5 180.5,-216.5"/>
<text text-anchor="start" x="188.5" y="-245.5" font-family="Helvetica,sans-Serif" font-size="10.00">pocketmine\level\format</text>
<text text-anchor="start" x="188.5" y="-234.5" font-family="Helvetica,sans-Serif" font-size="10.00">\generic\BaseFullChunk</text>
<text text-anchor="middle" x="247" y="-223.5" font-family="Helvetica,sans-Serif" font-size="10.00">\getProvider</text>
</a>
</g>
</g>
<!-- Node1&#45;&gt;Node3 -->
<g id="edge2" class="edge"><title>Node1&#45;&gt;Node3</title>
<path fill="none" stroke="midnightblue" d="M103.353,-170.717C122.748,-181.749 147.386,-195.224 170,-206 174.547,-208.167 179.286,-210.326 184.079,-212.438"/>
<polygon fill="midnightblue" stroke="midnightblue" points="182.757,-215.68 193.325,-216.433 185.534,-209.254 182.757,-215.68"/>
</g>
<!-- Node4 -->
<g id="node4" class="node"><title>Node4</title>
<g id="a_node4"><a xlink:href="../../da/d9a/classpocketmine_1_1level_1_1format_1_1generic_1_1_base_full_chunk.html#a7449ef296579a450ea842f8a7eceb2d4" target="_top" xlink:title="pocketmine\\level\\format\l\\generic\\BaseFullChunk\l\\getTiles">
<polygon fill="white" stroke="black" points="180.5,-156.5 180.5,-197.5 313.5,-197.5 313.5,-156.5 180.5,-156.5"/>
<text text-anchor="start" x="188.5" y="-185.5" font-family="Helvetica,sans-Serif" font-size="10.00">pocketmine\level\format</text>
<text text-anchor="start" x="188.5" y="-174.5" font-family="Helvetica,sans-Serif" font-size="10.00">\generic\BaseFullChunk</text>
<text text-anchor="middle" x="247" y="-163.5" font-family="Helvetica,sans-Serif" font-size="10.00">\getTiles</text>
</a>
</g>
</g>
<!-- Node1&#45;&gt;Node4 -->
<g id="edge3" class="edge"><title>Node1&#45;&gt;Node4</title>
<path fill="none" stroke="midnightblue" d="M133.522,-159.939C145.449,-161.748 157.981,-163.649 170.175,-165.499"/>
<polygon fill="midnightblue" stroke="midnightblue" points="169.907,-168.998 180.319,-167.037 170.957,-162.077 169.907,-168.998"/>
</g>
<!-- Node5 -->
<g id="node5" class="node"><title>Node5</title>
<g id="a_node5"><a xlink:href="../../da/d9a/classpocketmine_1_1level_1_1format_1_1generic_1_1_base_full_chunk.html#a7d105e7bd1e1f502689ecb52b32b2313" target="_top" xlink:title="pocketmine\\level\\format\l\\generic\\BaseFullChunk\\getX">
<polygon fill="white" stroke="black" points="171,-108 171,-138 323,-138 323,-108 171,-108"/>
<text text-anchor="start" x="179" y="-126" font-family="Helvetica,sans-Serif" font-size="10.00">pocketmine\level\format</text>
<text text-anchor="middle" x="247" y="-115" font-family="Helvetica,sans-Serif" font-size="10.00">\generic\BaseFullChunk\getX</text>
</a>
</g>
</g>
<!-- Node1&#45;&gt;Node5 -->
<g id="edge4" class="edge"><title>Node1&#45;&gt;Node5</title>
<path fill="none" stroke="midnightblue" d="M133.522,-140.061C142.476,-138.703 151.772,-137.293 161.01,-135.892"/>
<polygon fill="midnightblue" stroke="midnightblue" points="161.63,-139.338 170.992,-134.378 160.58,-132.417 161.63,-139.338"/>
</g>
<!-- Node6 -->
<g id="node6" class="node"><title>Node6</title>
<g id="a_node6"><a xlink:href="../../da/d9a/classpocketmine_1_1level_1_1format_1_1generic_1_1_base_full_chunk.html#accb52bc772db27ca758128ecfbd5228d" target="_top" xlink:title="pocketmine\\level\\format\l\\generic\\BaseFullChunk\\getZ">
<polygon fill="white" stroke="black" points="170.5,-59 170.5,-89 323.5,-89 323.5,-59 170.5,-59"/>
<text text-anchor="start" x="178.5" y="-77" font-family="Helvetica,sans-Serif" font-size="10.00">pocketmine\level\format</text>
<text text-anchor="middle" x="247" y="-66" font-family="Helvetica,sans-Serif" font-size="10.00">\generic\BaseFullChunk\getZ</text>
</a>
</g>
</g>
<!-- Node1&#45;&gt;Node6 -->
<g id="edge5" class="edge"><title>Node1&#45;&gt;Node6</title>
<path fill="none" stroke="midnightblue" d="M106.133,-129.274C125.04,-119.428 148.398,-107.898 170,-99 175.43,-96.7633 181.14,-94.5834 186.889,-92.5027"/>
<polygon fill="midnightblue" stroke="midnightblue" points="188.285,-95.7217 196.557,-89.102 185.963,-89.1183 188.285,-95.7217"/>
</g>
<!-- Node7 -->
<g id="node7" class="node"><title>Node7</title>
<g id="a_node7"><a xlink:href="../../da/d9a/classpocketmine_1_1level_1_1format_1_1generic_1_1_base_full_chunk.html#af66cc6951f866ad4d7359010a9e452c1" target="_top" xlink:title="pocketmine\\level\\format\l\\generic\\BaseFullChunk\l\\hasChanged">
<polygon fill="white" stroke="black" points="180.5,0.5 180.5,-40.5 313.5,-40.5 313.5,0.5 180.5,0.5"/>
<text text-anchor="start" x="188.5" y="-28.5" font-family="Helvetica,sans-Serif" font-size="10.00">pocketmine\level\format</text>
<text text-anchor="start" x="188.5" y="-17.5" font-family="Helvetica,sans-Serif" font-size="10.00">\generic\BaseFullChunk</text>
<text text-anchor="middle" x="247" y="-6.5" font-family="Helvetica,sans-Serif" font-size="10.00">\hasChanged</text>
</a>
</g>
</g>
<!-- Node1&#45;&gt;Node7 -->
<g id="edge6" class="edge"><title>Node1&#45;&gt;Node7</title>
<path fill="none" stroke="midnightblue" d="M84.8341,-129.117C103.62,-106.955 135.886,-72.1429 170,-50 172.454,-48.4071 175.006,-46.8762 177.624,-45.4075"/>
<polygon fill="midnightblue" stroke="midnightblue" points="179.487,-48.3831 186.735,-40.6547 176.25,-42.1769 179.487,-48.3831"/>
</g>
</g>
</svg>
