<?xml version="1.0" encoding="UTF-8" standalone="no"?>
<!DOCTYPE svg PUBLIC "-//W3C//DTD SVG 1.1//EN"
 "http://www.w3.org/Graphics/SVG/1.1/DTD/svg11.dtd">
<!-- Generated by graphviz version 2.36.0 (20140111.2315)
 -->
<!-- Title: pocketmine\level\format\generic\BaseFullChunk\hasChanged Pages: 1 -->
<!--zoomable 1251 -->
<svg id="main" version="1.1" xmlns="http://www.w3.org/2000/svg" xmlns:xlink="http://www.w3.org/1999/xlink" xml:space="preserve" onload="init(evt)">
<style type="text/css"><![CDATA[
.edge:hover path { stroke: red; }
.edge:hover polygon { stroke: red; fill: red; }
]]></style>
<script type="text/javascript"><![CDATA[
var edges = document.getElementsByTagName('g');
if (edges && edges.length) {
  for (var i=0;i<edges.length;i++) {
    if (edges[i].id.substr(0,4)=='edge') {
      edges[i].setAttribute('class','edge');
    }
  }
}
]]></script>
        <defs>
                <circle id="rim" cx="0" cy="0" r="7"/>
                <circle id="rim2" cx="0" cy="0" r="3.5"/>
                <g id="zoomPlus">
                        <use xlink:href="#rim" fill="#404040">
                                <set attributeName="fill" to="#808080" begin="zoomplus.mouseover" end="zoomplus.mouseout"/>
                        </use>
                        <path d="M-4,0h8M0,-4v8" fill="none" stroke="white" stroke-width="1.5" pointer-events="none"/>
                </g>
                <g id="zoomMin">
                        <use xlink:href="#rim" fill="#404040">
                                <set attributeName="fill" to="#808080" begin="zoomminus.mouseover" end="zoomminus.mouseout"/>
                        </use>
                        <path d="M-4,0h8" fill="none" stroke="white" stroke-width="1.5" pointer-events="none"/>
                </g>
                <g id="dirArrow">
                        <path fill="none" stroke="white" stroke-width="1.5" d="M0,-3.0v7 M-2.5,-0.5L0,-3.0L2.5,-0.5"/>
                </g>
               <g id="resetDef">
                       <use xlink:href="#rim2" fill="#404040">
                               <set attributeName="fill" to="#808080" begin="reset.mouseover" end="reset.mouseout"/>
                       </use>
               </g>
        </defs>

<script type="text/javascript">
var viewWidth = 374;
var viewHeight = 1251;
var sectionId = 'dynsection-10';
</script>
<script xlink:href="../../svgpan.js"/>
<svg id="graph" class="graph">
<g id="viewport">
<title>pocketmine\level\format\generic\BaseFullChunk\hasChanged</title>
<polygon fill="white" stroke="none" points="-4,4 -4,-1247 370,-1247 370,4 -4,4"/>
<!-- Node1 -->
<g id="node1" class="node"><title>Node1</title>
<polygon fill="#bfbfbf" stroke="black" points="0.5,-577.5 0.5,-618.5 133.5,-618.5 133.5,-577.5 0.5,-577.5"/>
<text text-anchor="start" x="8.5" y="-606.5" font-family="Helvetica,sans-Serif" font-size="10.00">pocketmine\level\format</text>
<text text-anchor="start" x="8.5" y="-595.5" font-family="Helvetica,sans-Serif" font-size="10.00">\generic\BaseFullChunk</text>
<text text-anchor="middle" x="67" y="-584.5" font-family="Helvetica,sans-Serif" font-size="10.00">\hasChanged</text>
</g>
<!-- Node2 -->
<g id="node2" class="node"><title>Node2</title>
<g id="a_node2"><a xlink:href="../../da/d9a/classpocketmine_1_1level_1_1format_1_1generic_1_1_base_full_chunk.html#a417e98ebaf2c83a1af94513f67f1377b" target="_top" xlink:title="pocketmine\\level\\format\l\\generic\\BaseFullChunk\l\\addEntity">
<polygon fill="white" stroke="black" points="201.5,-1201.5 201.5,-1242.5 334.5,-1242.5 334.5,-1201.5 201.5,-1201.5"/>
<text text-anchor="start" x="209.5" y="-1230.5" font-family="Helvetica,sans-Serif" font-size="10.00">pocketmine\level\format</text>
<text text-anchor="start" x="209.5" y="-1219.5" font-family="Helvetica,sans-Serif" font-size="10.00">\generic\BaseFullChunk</text>
<text text-anchor="middle" x="268" y="-1208.5" font-family="Helvetica,sans-Serif" font-size="10.00">\addEntity</text>
</a>
</g>
</g>
<!-- Node1&#45;&gt;Node2 -->
<g id="edge1" class="edge"><title>Node1&#45;&gt;Node2</title>
<path fill="none" stroke="midnightblue" d="M69.1836,-628.74C73.9935,-737.965 95.5224,-1105.38 170,-1191 178.238,-1200.47 189.368,-1207.07 201.152,-1211.67"/>
<polygon fill="midnightblue" stroke="midnightblue" points="72.6788,-628.549 68.7574,-618.707 65.6851,-628.847 72.6788,-628.549"/>
</g>
<!-- Node3 -->
<g id="node3" class="node"><title>Node3</title>
<g id="a_node3"><a xlink:href="../../da/d9a/classpocketmine_1_1level_1_1format_1_1generic_1_1_base_full_chunk.html#a548a18a99968a4f25324096e58ef72a5" target="_top" xlink:title="pocketmine\\level\\format\l\\generic\\BaseFullChunk\l\\addTile">
<polygon fill="white" stroke="black" points="201.5,-1141.5 201.5,-1182.5 334.5,-1182.5 334.5,-1141.5 201.5,-1141.5"/>
<text text-anchor="start" x="209.5" y="-1170.5" font-family="Helvetica,sans-Serif" font-size="10.00">pocketmine\level\format</text>
<text text-anchor="start" x="209.5" y="-1159.5" font-family="Helvetica,sans-Serif" font-size="10.00">\generic\BaseFullChunk</text>
<text text-anchor="middle" x="268" y="-1148.5" font-family="Helvetica,sans-Serif" font-size="10.00">\addTile</text>
</a>
</g>
</g>
<!-- Node1&#45;&gt;Node3 -->
<g id="edge2" class="edge"><title>Node1&#45;&gt;Node3</title>
<path fill="none" stroke="midnightblue" d="M69.8487,-628.919C76.5558,-731.023 102.842,-1055.24 170,-1131 178.327,-1140.39 189.496,-1146.96 201.29,-1151.55"/>
<polygon fill="midnightblue" stroke="midnightblue" points="73.3241,-628.421 69.1925,-618.665 66.3384,-628.868 73.3241,-628.421"/>
</g>
<!-- Node4 -->
<g id="node4" class="node"><title>Node4</title>
<g id="a_node4"><a xlink:href="../../da/d9a/classpocketmine_1_1level_1_1format_1_1generic_1_1_base_full_chunk.html#ae72b62e0dce2a89484348ba54644379b" target="_top" xlink:title="pocketmine\\level\\format\l\\generic\\BaseFullChunk\l\\removeEntity">
<polygon fill="white" stroke="black" points="201.5,-1081.5 201.5,-1122.5 334.5,-1122.5 334.5,-1081.5 201.5,-1081.5"/>
<text text-anchor="start" x="209.5" y="-1110.5" font-family="Helvetica,sans-Serif" font-size="10.00">pocketmine\level\format</text>
<text text-anchor="start" x="209.5" y="-1099.5" font-family="Helvetica,sans-Serif" font-size="10.00">\generic\BaseFullChunk</text>
<text text-anchor="middle" x="268" y="-1088.5" font-family="Helvetica,sans-Serif" font-size="10.00">\removeEntity</text>
</a>
</g>
</g>
<!-- Node1&#45;&gt;Node4 -->
<g id="edge3" class="edge"><title>Node1&#45;&gt;Node4</title>
<path fill="none" stroke="midnightblue" d="M70.6316,-628.528C79.3178,-722.472 110.002,-1004.88 170,-1071 178.435,-1080.3 189.653,-1086.82 201.461,-1091.39"/>
<polygon fill="midnightblue" stroke="midnightblue" points="74.1138,-628.172 69.725,-618.529 67.1424,-628.804 74.1138,-628.172"/>
</g>
<!-- Node5 -->
<g id="node5" class="node"><title>Node5</title>
<g id="a_node5"><a xlink:href="../../da/d9a/classpocketmine_1_1level_1_1format_1_1generic_1_1_base_full_chunk.html#aca4fb99efcad358d1448d2179a007002" target="_top" xlink:title="pocketmine\\level\\format\l\\generic\\BaseFullChunk\l\\removeTile">
<polygon fill="white" stroke="black" points="201.5,-1021.5 201.5,-1062.5 334.5,-1062.5 334.5,-1021.5 201.5,-1021.5"/>
<text text-anchor="start" x="209.5" y="-1050.5" font-family="Helvetica,sans-Serif" font-size="10.00">pocketmine\level\format</text>
<text text-anchor="start" x="209.5" y="-1039.5" font-family="Helvetica,sans-Serif" font-size="10.00">\generic\BaseFullChunk</text>
<text text-anchor="middle" x="268" y="-1028.5" font-family="Helvetica,sans-Serif" font-size="10.00">\removeTile</text>
</a>
</g>
</g>
<!-- Node1&#45;&gt;Node5 -->
<g id="edge4" class="edge"><title>Node1&#45;&gt;Node5</title>
<path fill="none" stroke="midnightblue" d="M71.7126,-628.878C82.6412,-714.892 117.275,-954.608 170,-1011 178.452,-1020.04 189.534,-1026.45 201.176,-1031"/>
<polygon fill="midnightblue" stroke="midnightblue" points="75.1551,-628.199 70.4409,-618.711 68.2092,-629.068 75.1551,-628.199"/>
</g>
<!-- Node6 -->
<g id="node6" class="node"><title>Node6</title>
<g id="a_node6"><a xlink:href="../../da/d9a/classpocketmine_1_1level_1_1format_1_1generic_1_1_base_full_chunk.html#a8f2a477d232e7eed9c1de8d0ddb50acc" target="_top" xlink:title="pocketmine\\level\\format\l\\generic\\BaseFullChunk\l\\setBiomeColor">
<polygon fill="white" stroke="black" points="201.5,-961.5 201.5,-1002.5 334.5,-1002.5 334.5,-961.5 201.5,-961.5"/>
<text text-anchor="start" x="209.5" y="-990.5" font-family="Helvetica,sans-Serif" font-size="10.00">pocketmine\level\format</text>
<text text-anchor="start" x="209.5" y="-979.5" font-family="Helvetica,sans-Serif" font-size="10.00">\generic\BaseFullChunk</text>
<text text-anchor="middle" x="268" y="-968.5" font-family="Helvetica,sans-Serif" font-size="10.00">\setBiomeColor</text>
</a>
</g>
</g>
<!-- Node1&#45;&gt;Node6 -->
<g id="edge5" class="edge"><title>Node1&#45;&gt;Node6</title>
<path fill="none" stroke="midnightblue" d="M67.7505,-628.828C68.9142,-696.616 81.3536,-859.833 170,-951 178.627,-959.873 189.789,-966.211 201.454,-970.737"/>
<polygon fill="midnightblue" stroke="midnightblue" points="71.25,-628.758 67.6506,-618.793 64.2504,-628.828 71.25,-628.758"/>
</g>
<!-- Node7 -->
<g id="node7" class="node"><title>Node7</title>
<g id="a_node7"><a xlink:href="../../da/d9a/classpocketmine_1_1level_1_1format_1_1generic_1_1_base_full_chunk.html#abf60618b57dc1056e4ee5a2791a6b23f" target="_top" xlink:title="pocketmine\\level\\format\l\\generic\\BaseFullChunk\l\\setBiomeId">
<polygon fill="white" stroke="black" points="201.5,-901.5 201.5,-942.5 334.5,-942.5 334.5,-901.5 201.5,-901.5"/>
<text text-anchor="start" x="209.5" y="-930.5" font-family="Helvetica,sans-Serif" font-size="10.00">pocketmine\level\format</text>
<text text-anchor="start" x="209.5" y="-919.5" font-family="Helvetica,sans-Serif" font-size="10.00">\generic\BaseFullChunk</text>
<text text-anchor="middle" x="268" y="-908.5" font-family="Helvetica,sans-Serif" font-size="10.00">\setBiomeId</text>
</a>
</g>
</g>
<!-- Node1&#45;&gt;Node7 -->
<g id="edge6" class="edge"><title>Node1&#45;&gt;Node7</title>
<path fill="none" stroke="midnightblue" d="M69.8328,-629.061C75.0306,-688.611 94.8486,-819.361 170,-892 178.745,-900.453 189.823,-906.529 201.341,-910.895"/>
<polygon fill="midnightblue" stroke="midnightblue" points="73.299,-628.494 69.0223,-618.8 66.3207,-629.045 73.299,-628.494"/>
</g>
<!-- Node8 -->
<g id="node8" class="node"><title>Node8</title>
<g id="a_node8"><a xlink:href="../../dc/de8/classpocketmine_1_1level_1_1format_1_1generic_1_1_base_chunk.html#afdfb7cfa468c23372aed6e619989ebe2" target="_top" xlink:title="pocketmine\\level\\format\l\\generic\\BaseChunk\\setBlock">
<polygon fill="white" stroke="black" points="190.5,-853 190.5,-883 345.5,-883 345.5,-853 190.5,-853"/>
<text text-anchor="start" x="198.5" y="-871" font-family="Helvetica,sans-Serif" font-size="10.00">pocketmine\level\format</text>
<text text-anchor="middle" x="268" y="-860" font-family="Helvetica,sans-Serif" font-size="10.00">\generic\BaseChunk\setBlock</text>
</a>
</g>
</g>
<!-- Node1&#45;&gt;Node8 -->
<g id="edge7" class="edge"><title>Node1&#45;&gt;Node8</title>
<path fill="none" stroke="midnightblue" d="M71.908,-628.628C80.2106,-680.676 104.538,-786.246 170,-843 176.044,-848.24 183.048,-852.405 190.472,-855.71"/>
<polygon fill="midnightblue" stroke="midnightblue" points="75.3584,-628.036 70.412,-618.666 68.436,-629.075 75.3584,-628.036"/>
</g>
<!-- Node9 -->
<g id="node9" class="node"><title>Node9</title>
<g id="a_node9"><a xlink:href="../../df/dbb/classpocketmine_1_1level_1_1format_1_1leveldb_1_1_chunk.html#a432137677340c990749fc6b2b596f102" target="_top" xlink:title="pocketmine\\level\\format\l\\leveldb\\Chunk\\setBlock">
<polygon fill="white" stroke="black" points="201.5,-804 201.5,-834 334.5,-834 334.5,-804 201.5,-804"/>
<text text-anchor="start" x="209.5" y="-822" font-family="Helvetica,sans-Serif" font-size="10.00">pocketmine\level\format</text>
<text text-anchor="middle" x="268" y="-811" font-family="Helvetica,sans-Serif" font-size="10.00">\leveldb\Chunk\setBlock</text>
</a>
</g>
</g>
<!-- Node1&#45;&gt;Node9 -->
<g id="edge8" class="edge"><title>Node1&#45;&gt;Node9</title>
<path fill="none" stroke="midnightblue" d="M75.4207,-628.495C87.6053,-671.942 116.067,-751.131 170,-794 179.121,-801.25 190.112,-806.418 201.37,-810.096"/>
<polygon fill="midnightblue" stroke="midnightblue" points="78.7819,-627.516 72.7994,-618.772 72.0232,-629.339 78.7819,-627.516"/>
</g>
<!-- Node10 -->
<g id="node10" class="node"><title>Node10</title>
<g id="a_node10"><a xlink:href="../../dd/dcf/classpocketmine_1_1level_1_1format_1_1mcregion_1_1_chunk.html#a0a5a64c5d0d9effe863cad66bdc4d752" target="_top" xlink:title="pocketmine\\level\\format\l\\mcregion\\Chunk\\setBlock">
<polygon fill="white" stroke="black" points="197.5,-755 197.5,-785 338.5,-785 338.5,-755 197.5,-755"/>
<text text-anchor="start" x="205.5" y="-773" font-family="Helvetica,sans-Serif" font-size="10.00">pocketmine\level\format</text>
<text text-anchor="middle" x="268" y="-762" font-family="Helvetica,sans-Serif" font-size="10.00">\mcregion\Chunk\setBlock</text>
</a>
</g>
</g>
<!-- Node1&#45;&gt;Node10 -->
<g id="edge9" class="edge"><title>Node1&#45;&gt;Node10</title>
<path fill="none" stroke="midnightblue" d="M80.8418,-627.917C96.822,-661.533 127.308,-715.275 170,-745 178.206,-750.714 187.62,-755.122 197.284,-758.523"/>
<polygon fill="midnightblue" stroke="midnightblue" points="83.9059,-626.204 76.5357,-618.593 77.5509,-629.139 83.9059,-626.204"/>
</g>
<!-- Node11 -->
<g id="node11" class="node"><title>Node11</title>
<g id="a_node11"><a xlink:href="../../df/dbb/classpocketmine_1_1level_1_1format_1_1leveldb_1_1_chunk.html#af1039c2706e089b68ed0e58575a56216" target="_top" xlink:title="pocketmine\\level\\format\l\\leveldb\\Chunk\\setBlockData">
<polygon fill="white" stroke="black" points="191.5,-706 191.5,-736 344.5,-736 344.5,-706 191.5,-706"/>
<text text-anchor="start" x="199.5" y="-724" font-family="Helvetica,sans-Serif" font-size="10.00">pocketmine\level\format</text>
<text text-anchor="middle" x="268" y="-713" font-family="Helvetica,sans-Serif" font-size="10.00">\leveldb\Chunk\setBlockData</text>
</a>
</g>
</g>
<!-- Node1&#45;&gt;Node11 -->
<g id="edge10" class="edge"><title>Node1&#45;&gt;Node11</title>
<path fill="none" stroke="midnightblue" d="M90.6,-626.627C109.54,-648.73 138.484,-678.42 170,-696 176.986,-699.897 184.594,-703.201 192.374,-705.999"/>
<polygon fill="midnightblue" stroke="midnightblue" points="93.1964,-624.276 84.0886,-618.863 87.833,-628.774 93.1964,-624.276"/>
</g>
<!-- Node12 -->
<g id="node12" class="node"><title>Node12</title>
<g id="a_node12"><a xlink:href="../../dd/dcf/classpocketmine_1_1level_1_1format_1_1mcregion_1_1_chunk.html#a85f82ac25aa7c894170f1df90fe0069f" target="_top" xlink:title="pocketmine\\level\\format\l\\mcregion\\Chunk\\setBlockData">
<polygon fill="white" stroke="black" points="186,-657 186,-687 350,-687 350,-657 186,-657"/>
<text text-anchor="start" x="194" y="-675" font-family="Helvetica,sans-Serif" font-size="10.00">pocketmine\level\format</text>
<text text-anchor="middle" x="268" y="-664" font-family="Helvetica,sans-Serif" font-size="10.00">\mcregion\Chunk\setBlockData</text>
</a>
</g>
</g>
<!-- Node1&#45;&gt;Node12 -->
<g id="edge11" class="edge"><title>Node1&#45;&gt;Node12</title>
<path fill="none" stroke="midnightblue" d="M115.565,-623.229C132.447,-631.541 151.782,-640.349 170,-647 180.047,-650.668 190.864,-654.016 201.503,-656.987"/>
<polygon fill="midnightblue" stroke="midnightblue" points="116.971,-620.019 106.461,-618.679 113.842,-626.28 116.971,-620.019"/>
</g>
<!-- Node13 -->
<g id="node13" class="node"><title>Node13</title>
<g id="a_node13"><a xlink:href="../../dc/de8/classpocketmine_1_1level_1_1format_1_1generic_1_1_base_chunk.html#a2c7ffca84fa06a9e29b743824f3d12d8" target="_top" xlink:title="pocketmine\\level\\format\l\\generic\\BaseChunk\\setBlockData">
<polygon fill="white" stroke="black" points="178.5,-608 178.5,-638 357.5,-638 357.5,-608 178.5,-608"/>
<text text-anchor="start" x="186.5" y="-626" font-family="Helvetica,sans-Serif" font-size="10.00">pocketmine\level\format</text>
<text text-anchor="middle" x="268" y="-615" font-family="Helvetica,sans-Serif" font-size="10.00">\generic\BaseChunk\setBlockData</text>
</a>
</g>
</g>
<!-- Node1&#45;&gt;Node13 -->
<g id="edge12" class="edge"><title>Node1&#45;&gt;Node13</title>
<path fill="none" stroke="midnightblue" d="M143.897,-607.535C155.137,-608.947 166.805,-610.413 178.278,-611.854"/>
<polygon fill="midnightblue" stroke="midnightblue" points="144.07,-604.029 133.712,-606.255 143.197,-610.974 144.07,-604.029"/>
</g>
<!-- Node14 -->
<g id="node14" class="node"><title>Node14</title>
<g id="a_node14"><a xlink:href="../../df/dbb/classpocketmine_1_1level_1_1format_1_1leveldb_1_1_chunk.html#acece3d6fb47a9354e73bb5ff72847900" target="_top" xlink:title="pocketmine\\level\\format\l\\leveldb\\Chunk\\setBlockId">
<polygon fill="white" stroke="black" points="199,-559 199,-589 337,-589 337,-559 199,-559"/>
<text text-anchor="start" x="207" y="-577" font-family="Helvetica,sans-Serif" font-size="10.00">pocketmine\level\format</text>
<text text-anchor="middle" x="268" y="-566" font-family="Helvetica,sans-Serif" font-size="10.00">\leveldb\Chunk\setBlockId</text>
</a>
</g>
</g>
<!-- Node1&#45;&gt;Node14 -->
<g id="edge13" class="edge"><title>Node1&#45;&gt;Node14</title>
<path fill="none" stroke="midnightblue" d="M143.678,-588.873C161.858,-586.68 181.164,-584.352 198.971,-582.204"/>
<polygon fill="midnightblue" stroke="midnightblue" points="143.221,-585.403 133.712,-590.075 144.059,-592.352 143.221,-585.403"/>
</g>
<!-- Node15 -->
<g id="node15" class="node"><title>Node15</title>
<g id="a_node15"><a xlink:href="../../dd/dcf/classpocketmine_1_1level_1_1format_1_1mcregion_1_1_chunk.html#a4b74efa4ac0790242ce3bbb30e1c4bb2" target="_top" xlink:title="pocketmine\\level\\format\l\\mcregion\\Chunk\\setBlockId">
<polygon fill="white" stroke="black" points="193.5,-510 193.5,-540 342.5,-540 342.5,-510 193.5,-510"/>
<text text-anchor="start" x="201.5" y="-528" font-family="Helvetica,sans-Serif" font-size="10.00">pocketmine\level\format</text>
<text text-anchor="middle" x="268" y="-517" font-family="Helvetica,sans-Serif" font-size="10.00">\mcregion\Chunk\setBlockId</text>
</a>
</g>
</g>
<!-- Node1&#45;&gt;Node15 -->
<g id="edge14" class="edge"><title>Node1&#45;&gt;Node15</title>
<path fill="none" stroke="midnightblue" d="M116.482,-572.911C133.16,-564.895 152.136,-556.441 170,-550 180.143,-546.343 191.063,-542.991 201.787,-540.011"/>
<polygon fill="midnightblue" stroke="midnightblue" points="114.928,-569.775 107.474,-577.304 117.996,-576.066 114.928,-569.775"/>
</g>
<!-- Node16 -->
<g id="node16" class="node"><title>Node16</title>
<g id="a_node16"><a xlink:href="../../dc/de8/classpocketmine_1_1level_1_1format_1_1generic_1_1_base_chunk.html#a4d11de008965a2c5d892f57b489d9f51" target="_top" xlink:title="pocketmine\\level\\format\l\\generic\\BaseChunk\\setBlockId">
<polygon fill="white" stroke="black" points="186,-461 186,-491 350,-491 350,-461 186,-461"/>
<text text-anchor="start" x="194" y="-479" font-family="Helvetica,sans-Serif" font-size="10.00">pocketmine\level\format</text>
<text text-anchor="middle" x="268" y="-468" font-family="Helvetica,sans-Serif" font-size="10.00">\generic\BaseChunk\setBlockId</text>
</a>
</g>
</g>
<!-- Node1&#45;&gt;Node16 -->
<g id="edge15" class="edge"><title>Node1&#45;&gt;Node16</title>
<path fill="none" stroke="midnightblue" d="M90.6595,-569.672C109.633,-547.798 138.593,-518.414 170,-501 176.996,-497.121 184.61,-493.829 192.394,-491.038"/>
<polygon fill="midnightblue" stroke="midnightblue" points="87.9402,-567.467 84.1351,-577.355 93.2759,-571.999 87.9402,-567.467"/>
</g>
<!-- Node17 -->
<g id="node17" class="node"><title>Node17</title>
<g id="a_node17"><a xlink:href="../../dc/de8/classpocketmine_1_1level_1_1format_1_1generic_1_1_base_chunk.html#a6502e62fcf5a72b8dfe8397756dfbcca" target="_top" xlink:title="pocketmine\\level\\format\l\\generic\\BaseChunk\\setBlockLight">
<polygon fill="white" stroke="black" points="178.5,-412 178.5,-442 357.5,-442 357.5,-412 178.5,-412"/>
<text text-anchor="start" x="186.5" y="-430" font-family="Helvetica,sans-Serif" font-size="10.00">pocketmine\level\format</text>
<text text-anchor="middle" x="268" y="-419" font-family="Helvetica,sans-Serif" font-size="10.00">\generic\BaseChunk\setBlockLight</text>
</a>
</g>
</g>
<!-- Node1&#45;&gt;Node17 -->
<g id="edge16" class="edge"><title>Node1&#45;&gt;Node17</title>
<path fill="none" stroke="midnightblue" d="M81.026,-568.013C97.0908,-534.608 127.573,-481.44 170,-452 175.572,-448.133 181.698,-444.865 188.079,-442.102"/>
<polygon fill="midnightblue" stroke="midnightblue" points="77.7555,-566.745 76.6925,-577.286 84.0972,-569.708 77.7555,-566.745"/>
</g>
<!-- Node18 -->
<g id="node18" class="node"><title>Node18</title>
<g id="a_node18"><a xlink:href="../../df/dbb/classpocketmine_1_1level_1_1format_1_1leveldb_1_1_chunk.html#a0047988ad315aea490bfb585ac4f8b55" target="_top" xlink:title="pocketmine\\level\\format\l\\leveldb\\Chunk\\setBlockLight">
<polygon fill="white" stroke="black" points="191.5,-363 191.5,-393 344.5,-393 344.5,-363 191.5,-363"/>
<text text-anchor="start" x="199.5" y="-381" font-family="Helvetica,sans-Serif" font-size="10.00">pocketmine\level\format</text>
<text text-anchor="middle" x="268" y="-370" font-family="Helvetica,sans-Serif" font-size="10.00">\leveldb\Chunk\setBlockLight</text>
</a>
</g>
</g>
<!-- Node1&#45;&gt;Node18 -->
<g id="edge17" class="edge"><title>Node1&#45;&gt;Node18</title>
<path fill="none" stroke="midnightblue" d="M75.4666,-567.658C87.7077,-524.429 116.239,-445.641 170,-403 176.404,-397.921 183.726,-393.864 191.413,-390.625"/>
<polygon fill="midnightblue" stroke="midnightblue" points="72.0827,-566.764 72.832,-577.332 78.8367,-568.603 72.0827,-566.764"/>
</g>
<!-- Node19 -->
<g id="node19" class="node"><title>Node19</title>
<g id="a_node19"><a xlink:href="../../dd/dcf/classpocketmine_1_1level_1_1format_1_1mcregion_1_1_chunk.html#afe272d1067e69014bfa86f8af12c1bb6" target="_top" xlink:title="pocketmine\\level\\format\l\\mcregion\\Chunk\\setBlockLight">
<polygon fill="white" stroke="black" points="186,-314 186,-344 350,-344 350,-314 186,-314"/>
<text text-anchor="start" x="194" y="-332" font-family="Helvetica,sans-Serif" font-size="10.00">pocketmine\level\format</text>
<text text-anchor="middle" x="268" y="-321" font-family="Helvetica,sans-Serif" font-size="10.00">\mcregion\Chunk\setBlockLight</text>
</a>
</g>
</g>
<!-- Node1&#45;&gt;Node19 -->
<g id="edge18" class="edge"><title>Node1&#45;&gt;Node19</title>
<path fill="none" stroke="midnightblue" d="M71.9474,-567.494C80.3096,-515.655 104.724,-410.51 170,-354 174.733,-349.902 180.054,-346.463 185.702,-343.577"/>
<polygon fill="midnightblue" stroke="midnightblue" points="68.4819,-567.004 70.4396,-577.416 75.4024,-568.055 68.4819,-567.004"/>
</g>
<!-- Node20 -->
<g id="node20" class="node"><title>Node20</title>
<g id="a_node20"><a xlink:href="../../dc/de8/classpocketmine_1_1level_1_1format_1_1generic_1_1_base_chunk.html#a399a79e3755aaca7b5c7a0afbd837ea5" target="_top" xlink:title="pocketmine\\level\\format\l\\generic\\BaseChunk\\setBlockSkyLight">
<polygon fill="white" stroke="black" points="170,-265 170,-295 366,-295 366,-265 170,-265"/>
<text text-anchor="start" x="178" y="-283" font-family="Helvetica,sans-Serif" font-size="10.00">pocketmine\level\format</text>
<text text-anchor="middle" x="268" y="-272" font-family="Helvetica,sans-Serif" font-size="10.00">\generic\BaseChunk\setBlockSkyLight</text>
</a>
</g>
</g>
<!-- Node1&#45;&gt;Node20 -->
<g id="edge19" class="edge"><title>Node1&#45;&gt;Node20</title>
<path fill="none" stroke="midnightblue" d="M69.5272,-567.155C74.198,-507.447 93.147,-375.742 170,-305 174.222,-301.113 178.968,-297.813 184.032,-295.013"/>
<polygon fill="midnightblue" stroke="midnightblue" points="66.0146,-567.215 68.8105,-577.435 72.9976,-567.702 66.0146,-567.215"/>
</g>
<!-- Node21 -->
<g id="node21" class="node"><title>Node21</title>
<g id="a_node21"><a xlink:href="../../df/dbb/classpocketmine_1_1level_1_1format_1_1leveldb_1_1_chunk.html#aa211cb697624476985046e7137f465b0" target="_top" xlink:title="pocketmine\\level\\format\l\\leveldb\\Chunk\\setBlockSkyLight">
<polygon fill="white" stroke="black" points="183,-216 183,-246 353,-246 353,-216 183,-216"/>
<text text-anchor="start" x="191" y="-234" font-family="Helvetica,sans-Serif" font-size="10.00">pocketmine\level\format</text>
<text text-anchor="middle" x="268" y="-223" font-family="Helvetica,sans-Serif" font-size="10.00">\leveldb\Chunk\setBlockSkyLight</text>
</a>
</g>
</g>
<!-- Node1&#45;&gt;Node21 -->
<g id="edge20" class="edge"><title>Node1&#45;&gt;Node21</title>
<path fill="none" stroke="midnightblue" d="M67.7194,-566.854C68.8858,-499.87 81.4349,-341.296 170,-256 174.008,-252.14 178.53,-248.854 183.375,-246.059"/>
<polygon fill="midnightblue" stroke="midnightblue" points="64.2166,-567.127 67.6192,-577.161 71.2163,-567.195 64.2166,-567.127"/>
</g>
<!-- Node22 -->
<g id="node22" class="node"><title>Node22</title>
<g id="a_node22"><a xlink:href="../../dd/dcf/classpocketmine_1_1level_1_1format_1_1mcregion_1_1_chunk.html#a701bea5efe6aa4e3284dcfa9d8a7bd00" target="_top" xlink:title="pocketmine\\level\\format\l\\mcregion\\Chunk\\setBlockSkyLight">
<polygon fill="white" stroke="black" points="177,-167 177,-197 359,-197 359,-167 177,-167"/>
<text text-anchor="start" x="185" y="-185" font-family="Helvetica,sans-Serif" font-size="10.00">pocketmine\level\format</text>
<text text-anchor="middle" x="268" y="-174" font-family="Helvetica,sans-Serif" font-size="10.00">\mcregion\Chunk\setBlockSkyLight</text>
</a>
</g>
</g>
<!-- Node1&#45;&gt;Node22 -->
<g id="edge21" class="edge"><title>Node1&#45;&gt;Node22</title>
<path fill="none" stroke="midnightblue" d="M71.9823,-567.215C83.3271,-484.195 118.362,-258.487 170,-207 173.818,-203.194 178.133,-199.942 182.77,-197.168"/>
<polygon fill="midnightblue" stroke="midnightblue" points="68.4925,-566.906 70.6276,-577.283 75.43,-567.839 68.4925,-566.906"/>
</g>
<!-- Node23 -->
<g id="node23" class="node"><title>Node23</title>
<g id="a_node23"><a xlink:href="../../da/d9a/classpocketmine_1_1level_1_1format_1_1generic_1_1_base_full_chunk.html#ad4b08cb0acea3e39874011eaf1083bff" target="_top" xlink:title="pocketmine\\level\\format\l\\generic\\BaseFullChunk\l\\setChanged">
<polygon fill="white" stroke="black" points="201.5,-107.5 201.5,-148.5 334.5,-148.5 334.5,-107.5 201.5,-107.5"/>
<text text-anchor="start" x="209.5" y="-136.5" font-family="Helvetica,sans-Serif" font-size="10.00">pocketmine\level\format</text>
<text text-anchor="start" x="209.5" y="-125.5" font-family="Helvetica,sans-Serif" font-size="10.00">\generic\BaseFullChunk</text>
<text text-anchor="middle" x="268" y="-114.5" font-family="Helvetica,sans-Serif" font-size="10.00">\setChanged</text>
</a>
</g>
</g>
<!-- Node1&#45;&gt;Node23 -->
<g id="edge22" class="edge"><title>Node1&#45;&gt;Node23</title>
<path fill="none" stroke="midnightblue" d="M71.1675,-567.207C80.9951,-477.428 113.735,-218.479 170,-158 178.405,-148.966 189.466,-142.629 201.102,-138.19"/>
<polygon fill="midnightblue" stroke="midnightblue" points="67.6724,-566.975 70.0826,-577.292 74.6322,-567.724 67.6724,-566.975"/>
</g>
<!-- Node24 -->
<g id="node24" class="node"><title>Node24</title>
<g id="a_node24"><a xlink:href="../../dc/de8/classpocketmine_1_1level_1_1format_1_1generic_1_1_base_chunk.html#ac95397836090b84ac15fbac4fe71dfc9" target="_top" xlink:title="pocketmine\\level\\format\l\\generic\\BaseChunk\\setSection">
<polygon fill="white" stroke="black" points="185,-59 185,-89 351,-89 351,-59 185,-59"/>
<text text-anchor="start" x="193" y="-77" font-family="Helvetica,sans-Serif" font-size="10.00">pocketmine\level\format</text>
<text text-anchor="middle" x="268" y="-66" font-family="Helvetica,sans-Serif" font-size="10.00">\generic\BaseChunk\setSection</text>
</a>
</g>
</g>
<!-- Node1&#45;&gt;Node24 -->
<g id="edge23" class="edge"><title>Node1&#45;&gt;Node24</title>
<path fill="none" stroke="midnightblue" d="M70.0623,-567.204C77.2547,-469.096 104.449,-166.316 170,-98 174.324,-93.4936 179.35,-89.7801 184.795,-86.7254"/>
<polygon fill="midnightblue" stroke="midnightblue" points="66.5589,-567.127 69.3368,-577.352 73.5411,-567.627 66.5589,-567.127"/>
</g>
<!-- Node25 -->
<g id="node25" class="node"><title>Node25</title>
<g id="a_node25"><a xlink:href="../../da/d9a/classpocketmine_1_1level_1_1format_1_1generic_1_1_base_full_chunk.html#a0cd95594b690c3f8bb09937f2905b5c5" target="_top" xlink:title="pocketmine\\level\\format\l\\generic\\BaseFullChunk\l\\unload">
<polygon fill="white" stroke="black" points="201.5,0.5 201.5,-40.5 334.5,-40.5 334.5,0.5 201.5,0.5"/>
<text text-anchor="start" x="209.5" y="-28.5" font-family="Helvetica,sans-Serif" font-size="10.00">pocketmine\level\format</text>
<text text-anchor="start" x="209.5" y="-17.5" font-family="Helvetica,sans-Serif" font-size="10.00">\generic\BaseFullChunk</text>
<text text-anchor="middle" x="268" y="-6.5" font-family="Helvetica,sans-Serif" font-size="10.00">\unload</text>
</a>
</g>
</g>
<!-- Node1&#45;&gt;Node25 -->
<g id="edge24" class="edge"><title>Node1&#45;&gt;Node25</title>
<path fill="none" stroke="midnightblue" d="M69.6346,-567.214C75.7543,-463.338 100.625,-127.923 170,-50 178.322,-40.6525 189.489,-34.1824 201.283,-29.7125"/>
<polygon fill="midnightblue" stroke="midnightblue" points="66.1316,-567.166 69.0541,-577.35 73.1202,-567.567 66.1316,-567.166"/>
</g>
</g>
</svg>
        <g id="navigator" transform="translate(0 0)" fill="#404254">
                <rect fill="#f2f5e9" fill-opacity="0.5" stroke="#606060" stroke-width=".5" x="0" y="0" width="60" height="60"/>
                <use id="zoomplus" xlink:href="#zoomPlus" x="17" y="9" onmousedown="handleZoom(evt,'in')"/>
                <use id="zoomminus" xlink:href="#zoomMin" x="42" y="9" onmousedown="handleZoom(evt,'out')"/>
                <use id="reset" xlink:href="#resetDef" x="30" y="36" onmousedown="handleReset()"/>
                <g id="arrowUp" xlink:href="#dirArrow" transform="translate(30 24)" onmousedown="handlePan(0,-1)">
                  <use xlink:href="#rim" fill="#404040">
                        <set attributeName="fill" to="#808080" begin="arrowUp.mouseover" end="arrowUp.mouseout"/>
                  </use>
                  <path fill="none" stroke="white" stroke-width="1.5" d="M0,-3.0v7 M-2.5,-0.5L0,-3.0L2.5,-0.5"/>
                </g>
                <g id="arrowRight" xlink:href="#dirArrow" transform="rotate(90) translate(36 -43)" onmousedown="handlePan(1,0)">
                  <use xlink:href="#rim" fill="#404040">
                        <set attributeName="fill" to="#808080" begin="arrowRight.mouseover" end="arrowRight.mouseout"/>
                  </use>
                  <path fill="none" stroke="white" stroke-width="1.5" d="M0,-3.0v7 M-2.5,-0.5L0,-3.0L2.5,-0.5"/>
                </g>
                <g id="arrowDown" xlink:href="#dirArrow" transform="rotate(180) translate(-30 -48)" onmousedown="handlePan(0,1)">
                  <use xlink:href="#rim" fill="#404040">
                        <set attributeName="fill" to="#808080" begin="arrowDown.mouseover" end="arrowDown.mouseout"/>
                  </use>
                  <path fill="none" stroke="white" stroke-width="1.5" d="M0,-3.0v7 M-2.5,-0.5L0,-3.0L2.5,-0.5"/>
                </g>
                <g id="arrowLeft" xlink:href="#dirArrow" transform="rotate(270) translate(-36 17)" onmousedown="handlePan(-1,0)">
                  <use xlink:href="#rim" fill="#404040">
                        <set attributeName="fill" to="#808080" begin="arrowLeft.mouseover" end="arrowLeft.mouseout"/>
                  </use>
                  <path fill="none" stroke="white" stroke-width="1.5" d="M0,-3.0v7 M-2.5,-0.5L0,-3.0L2.5,-0.5"/>
                </g>
        </g>
        <svg viewBox="0 0 15 15" width="100%" height="30px" preserveAspectRatio="xMaxYMin meet">
         <g id="arrow_out" transform="scale(0.3 0.3)">
          <a xlink:href="classpocketmine_1_1level_1_1format_1_1generic_1_1_base_full_chunk_af66cc6951f866ad4d7359010a9e452c1_icgraph_org.svg" target="_base">
           <rect id="button" ry="5" rx="5" y="6" x="6" height="38" width="38"
                fill="#f2f5e9" fill-opacity="0.5" stroke="#606060" stroke-width="1.0"/>
           <path id="arrow"
             d="M 11.500037,31.436501 C 11.940474,20.09759 22.043105,11.32322 32.158766,21.979434 L 37.068811,17.246167 C 37.068811,17.246167 37.088388,32 37.088388,32 L 22.160133,31.978069 C 22.160133,31.978069 26.997745,27.140456 26.997745,27.140456 C 18.528582,18.264221 13.291696,25.230495 11.500037,31.436501 z"
             style="fill:#404040;"/>
          </a>
         </g>
        </svg>
</svg>
