<?xml version="1.0" encoding="UTF-8" standalone="no"?>
<!DOCTYPE svg PUBLIC "-//W3C//DTD SVG 1.1//EN"
 "http://www.w3.org/Graphics/SVG/1.1/DTD/svg11.dtd">
<!-- Generated by graphviz version 2.36.0 (20140111.2315)
 -->
<!-- Title: pocketmine\inventory\BaseInventory\sendSlot Pages: 1 -->
<svg width="1108pt" height="410pt"
 viewBox="0.00 0.00 1108.00 410.00" xmlns="http://www.w3.org/2000/svg" xmlns:xlink="http://www.w3.org/1999/xlink">
<g id="graph0" class="graph" transform="scale(1 1) rotate(0) translate(4 406)">
<title>pocketmine\inventory\BaseInventory\sendSlot</title>
<polygon fill="white" stroke="none" points="-4,4 -4,-406 1104,-406 1104,4 -4,4"/>
<!-- Node1 -->
<g id="node1" class="node"><title>Node1</title>
<polygon fill="#bfbfbf" stroke="black" points="0.5,-195 0.5,-225 133.5,-225 133.5,-195 0.5,-195"/>
<text text-anchor="start" x="8.5" y="-213" font-family="Helvetica,sans-Serif" font-size="10.00">pocketmine\inventory</text>
<text text-anchor="middle" x="67" y="-202" font-family="Helvetica,sans-Serif" font-size="10.00">\BaseInventory\sendSlot</text>
</g>
<!-- Node2 -->
<g id="node2" class="node"><title>Node2</title>
<g id="a_node2"><a xlink:href="../../dc/d77/classpocketmine_1_1inventory_1_1_player_inventory.html#a1b9f22225b0a8cee8cd57855c02724ab" target="_top" xlink:title="pocketmine\\inventory\l\\PlayerInventory\\clear">
<polygon fill="white" stroke="black" points="189,-298 189,-328 309,-328 309,-298 189,-298"/>
<text text-anchor="start" x="197" y="-316" font-family="Helvetica,sans-Serif" font-size="10.00">pocketmine\inventory</text>
<text text-anchor="middle" x="249" y="-305" font-family="Helvetica,sans-Serif" font-size="10.00">\PlayerInventory\clear</text>
</a>
</g>
</g>
<!-- Node1&#45;&gt;Node2 -->
<g id="edge1" class="edge"><title>Node1&#45;&gt;Node2</title>
<path fill="none" stroke="midnightblue" d="M97.758,-230.735C117.768,-244.306 144.966,-262.042 170,-276 184.007,-283.81 199.932,-291.555 213.724,-297.925"/>
<polygon fill="midnightblue" stroke="midnightblue" points="99.6085,-227.761 89.377,-225.01 95.66,-233.541 99.6085,-227.761"/>
</g>
<!-- Node5 -->
<g id="node5" class="node"><title>Node5</title>
<g id="a_node5"><a xlink:href="../../dc/d77/classpocketmine_1_1inventory_1_1_player_inventory.html#aa2c8b45b25cac829ee9316dd5b7b5931" target="_top" xlink:title="pocketmine\\inventory\l\\PlayerInventory\\setItem">
<polygon fill="white" stroke="black" points="364.5,-284 364.5,-314 497.5,-314 497.5,-284 364.5,-284"/>
<text text-anchor="start" x="372.5" y="-302" font-family="Helvetica,sans-Serif" font-size="10.00">pocketmine\inventory</text>
<text text-anchor="middle" x="431" y="-291" font-family="Helvetica,sans-Serif" font-size="10.00">\PlayerInventory\setItem</text>
</a>
</g>
</g>
<!-- Node1&#45;&gt;Node5 -->
<g id="edge21" class="edge"><title>Node1&#45;&gt;Node5</title>
<path fill="none" stroke="midnightblue" d="M139.461,-227.569C206.442,-244.037 305.5,-268.391 368.896,-283.977"/>
<polygon fill="midnightblue" stroke="midnightblue" points="139.955,-224.086 129.408,-225.098 138.284,-230.884 139.955,-224.086"/>
</g>
<!-- Node7 -->
<g id="node7" class="node"><title>Node7</title>
<g id="a_node7"><a xlink:href="../../d5/dc4/classpocketmine_1_1inventory_1_1_base_inventory.html#a4e37b46b040119e90211c5078dd79662" target="_top" xlink:title="pocketmine\\inventory\l\\BaseInventory\\clear">
<polygon fill="white" stroke="black" points="371,-185 371,-215 491,-215 491,-185 371,-185"/>
<text text-anchor="start" x="379" y="-203" font-family="Helvetica,sans-Serif" font-size="10.00">pocketmine\inventory</text>
<text text-anchor="middle" x="431" y="-192" font-family="Helvetica,sans-Serif" font-size="10.00">\BaseInventory\clear</text>
</a>
</g>
</g>
<!-- Node1&#45;&gt;Node7 -->
<g id="edge7" class="edge"><title>Node1&#45;&gt;Node7</title>
<path fill="none" stroke="midnightblue" d="M143.719,-207.908C211.317,-206.041 308.946,-203.344 370.925,-201.632"/>
<polygon fill="midnightblue" stroke="midnightblue" points="143.455,-204.414 133.555,-208.189 143.648,-211.412 143.455,-204.414"/>
</g>
<!-- Node12 -->
<g id="node12" class="node"><title>Node12</title>
<g id="a_node12"><a xlink:href="../../d5/dc4/classpocketmine_1_1inventory_1_1_base_inventory.html#a99f7ddb22a3e614d55daefe9d4b9eaeb" target="_top" xlink:title="pocketmine\\inventory\l\\BaseInventory\\setItem">
<polygon fill="white" stroke="black" points="563,-98 563,-128 691,-128 691,-98 563,-98"/>
<text text-anchor="start" x="571" y="-116" font-family="Helvetica,sans-Serif" font-size="10.00">pocketmine\inventory</text>
<text text-anchor="middle" x="627" y="-105" font-family="Helvetica,sans-Serif" font-size="10.00">\BaseInventory\setItem</text>
</a>
</g>
</g>
<!-- Node1&#45;&gt;Node12 -->
<g id="edge20" class="edge"><title>Node1&#45;&gt;Node12</title>
<path fill="none" stroke="midnightblue" d="M91.9113,-188.387C111.404,-172.192 140.453,-151.148 170,-141 303.901,-95.0106 472.771,-99.5419 562.744,-106.5"/>
<polygon fill="midnightblue" stroke="midnightblue" points="89.5099,-185.835 84.1687,-194.985 94.0501,-191.163 89.5099,-185.835"/>
</g>
<!-- Node16 -->
<g id="node16" class="node"><title>Node16</title>
<g id="a_node16"><a xlink:href="../../d5/dc4/classpocketmine_1_1inventory_1_1_base_inventory.html#a372297a2da072277724b5a20453bb423" target="_top" xlink:title="pocketmine\\inventory\l\\BaseInventory\\onSlotChange">
<polygon fill="white" stroke="black" points="170,-151 170,-181 328,-181 328,-151 170,-151"/>
<text text-anchor="start" x="178" y="-169" font-family="Helvetica,sans-Serif" font-size="10.00">pocketmine\inventory</text>
<text text-anchor="middle" x="249" y="-158" font-family="Helvetica,sans-Serif" font-size="10.00">\BaseInventory\onSlotChange</text>
</a>
</g>
</g>
<!-- Node1&#45;&gt;Node16 -->
<g id="edge17" class="edge"><title>Node1&#45;&gt;Node16</title>
<path fill="none" stroke="midnightblue" d="M139.531,-192.515C155.084,-188.713 171.406,-184.723 186.529,-181.026"/>
<polygon fill="midnightblue" stroke="midnightblue" points="138.325,-189.206 129.442,-194.981 139.987,-196.006 138.325,-189.206"/>
</g>
<!-- Node3 -->
<g id="node3" class="node"><title>Node3</title>
<g id="a_node3"><a xlink:href="../../dc/d77/classpocketmine_1_1inventory_1_1_player_inventory.html#a75d7d59372f2f6e2ced5364aac6a930c" target="_top" xlink:title="pocketmine\\inventory\l\\PlayerInventory\\clearAll">
<polygon fill="white" stroke="black" points="365.5,-372 365.5,-402 496.5,-402 496.5,-372 365.5,-372"/>
<text text-anchor="start" x="373.5" y="-390" font-family="Helvetica,sans-Serif" font-size="10.00">pocketmine\inventory</text>
<text text-anchor="middle" x="431" y="-379" font-family="Helvetica,sans-Serif" font-size="10.00">\PlayerInventory\clearAll</text>
</a>
</g>
</g>
<!-- Node2&#45;&gt;Node3 -->
<g id="edge2" class="edge"><title>Node2&#45;&gt;Node3</title>
<path fill="none" stroke="midnightblue" d="M296.345,-332.053C326.571,-344.479 365.468,-360.47 393.497,-371.993"/>
<polygon fill="midnightblue" stroke="midnightblue" points="297.44,-328.719 286.86,-328.154 294.778,-335.193 297.44,-328.719"/>
</g>
<!-- Node4 -->
<g id="node4" class="node"><title>Node4</title>
<g id="a_node4"><a xlink:href="../../dc/d77/classpocketmine_1_1inventory_1_1_player_inventory.html#aad6eea0b7a857bd16a25329e41cbcf3d" target="_top" xlink:title="pocketmine\\inventory\l\\PlayerInventory\\setArmorContents">
<polygon fill="white" stroke="black" points="534.5,-333 534.5,-363 719.5,-363 719.5,-333 534.5,-333"/>
<text text-anchor="start" x="542.5" y="-351" font-family="Helvetica,sans-Serif" font-size="10.00">pocketmine\inventory</text>
<text text-anchor="middle" x="627" y="-340" font-family="Helvetica,sans-Serif" font-size="10.00">\PlayerInventory\setArmorContents</text>
</a>
</g>
</g>
<!-- Node2&#45;&gt;Node4 -->
<g id="edge3" class="edge"><title>Node2&#45;&gt;Node4</title>
<path fill="none" stroke="midnightblue" d="M319.368,-319.457C379.822,-325.084 467.947,-333.288 534.227,-339.457"/>
<polygon fill="midnightblue" stroke="midnightblue" points="319.445,-315.949 309.164,-318.507 318.796,-322.919 319.445,-315.949"/>
</g>
<!-- Node2&#45;&gt;Node5 -->
<g id="edge4" class="edge"><title>Node2&#45;&gt;Node5</title>
<path fill="none" stroke="midnightblue" d="M319.511,-307.594C334.271,-306.446 349.807,-305.237 364.415,-304.101"/>
<polygon fill="midnightblue" stroke="midnightblue" points="319.136,-304.112 309.438,-308.377 319.679,-311.091 319.136,-304.112"/>
</g>
<!-- Node5&#45;&gt;Node4 -->
<g id="edge6" class="edge"><title>Node5&#45;&gt;Node4</title>
<path fill="none" stroke="midnightblue" d="M501.483,-316.55C522.787,-321.931 546.021,-327.799 566.588,-332.994"/>
<polygon fill="midnightblue" stroke="midnightblue" points="502.077,-313.09 491.525,-314.035 500.363,-319.877 502.077,-313.09"/>
</g>
<!-- Node6 -->
<g id="node6" class="node"><title>Node6</title>
<g id="a_node6"><a xlink:href="../../dc/d77/classpocketmine_1_1inventory_1_1_player_inventory.html#ab204245a5947b86e206ff07fbeb17a33" target="_top" xlink:title="pocketmine\\inventory\l\\PlayerInventory\\setItemInHand">
<polygon fill="white" stroke="black" points="543.5,-284 543.5,-314 710.5,-314 710.5,-284 543.5,-284"/>
<text text-anchor="start" x="551.5" y="-302" font-family="Helvetica,sans-Serif" font-size="10.00">pocketmine\inventory</text>
<text text-anchor="middle" x="627" y="-291" font-family="Helvetica,sans-Serif" font-size="10.00">\PlayerInventory\setItemInHand</text>
</a>
</g>
</g>
<!-- Node5&#45;&gt;Node6 -->
<g id="edge5" class="edge"><title>Node5&#45;&gt;Node6</title>
<path fill="none" stroke="midnightblue" d="M507.762,-299C519.381,-299 531.428,-299 543.19,-299"/>
<polygon fill="midnightblue" stroke="midnightblue" points="507.68,-295.5 497.68,-299 507.68,-302.5 507.68,-295.5"/>
</g>
<!-- Node8 -->
<g id="node8" class="node"><title>Node8</title>
<g id="a_node8"><a xlink:href="../../d5/dc4/classpocketmine_1_1inventory_1_1_base_inventory.html#a4c7aef211a9628f380e7de98b49c4551" target="_top" xlink:title="pocketmine\\inventory\l\\BaseInventory\\clearAll">
<polygon fill="white" stroke="black" points="564.5,-235 564.5,-265 689.5,-265 689.5,-235 564.5,-235"/>
<text text-anchor="start" x="572.5" y="-253" font-family="Helvetica,sans-Serif" font-size="10.00">pocketmine\inventory</text>
<text text-anchor="middle" x="627" y="-242" font-family="Helvetica,sans-Serif" font-size="10.00">\BaseInventory\clearAll</text>
</a>
</g>
</g>
<!-- Node7&#45;&gt;Node8 -->
<g id="edge8" class="edge"><title>Node7&#45;&gt;Node8</title>
<path fill="none" stroke="midnightblue" d="M500.135,-217.561C522.118,-223.226 546.276,-229.453 567.5,-234.923"/>
<polygon fill="midnightblue" stroke="midnightblue" points="500.763,-214.108 490.206,-215.002 499.016,-220.887 500.763,-214.108"/>
</g>
<!-- Node9 -->
<g id="node9" class="node"><title>Node9</title>
<g id="a_node9"><a xlink:href="../../d5/dc4/classpocketmine_1_1inventory_1_1_base_inventory.html#a5c676080faee6eaecdc04a70fcedf142" target="_top" xlink:title="pocketmine\\inventory\l\\BaseInventory\\remove">
<polygon fill="white" stroke="black" points="563,-186 563,-216 691,-216 691,-186 563,-186"/>
<text text-anchor="start" x="571" y="-204" font-family="Helvetica,sans-Serif" font-size="10.00">pocketmine\inventory</text>
<text text-anchor="middle" x="627" y="-193" font-family="Helvetica,sans-Serif" font-size="10.00">\BaseInventory\remove</text>
</a>
</g>
</g>
<!-- Node7&#45;&gt;Node9 -->
<g id="edge9" class="edge"><title>Node7&#45;&gt;Node9</title>
<path fill="none" stroke="midnightblue" d="M501.528,-200.358C521.496,-200.461 543.156,-200.573 562.725,-200.674"/>
<polygon fill="midnightblue" stroke="midnightblue" points="501.278,-196.857 491.261,-200.305 501.242,-203.857 501.278,-196.857"/>
</g>
<!-- Node10 -->
<g id="node10" class="node"><title>Node10</title>
<g id="a_node10"><a xlink:href="../../d5/dc4/classpocketmine_1_1inventory_1_1_base_inventory.html#a295a782543c002623d01ec47a6e93329" target="_top" xlink:title="pocketmine\\inventory\l\\BaseInventory\\setContents">
<polygon fill="white" stroke="black" points="762.5,-147 762.5,-177 911.5,-177 911.5,-147 762.5,-147"/>
<text text-anchor="start" x="770.5" y="-165" font-family="Helvetica,sans-Serif" font-size="10.00">pocketmine\inventory</text>
<text text-anchor="middle" x="837" y="-154" font-family="Helvetica,sans-Serif" font-size="10.00">\BaseInventory\setContents</text>
</a>
</g>
</g>
<!-- Node7&#45;&gt;Node10 -->
<g id="edge10" class="edge"><title>Node7&#45;&gt;Node10</title>
<path fill="none" stroke="midnightblue" d="M497.497,-182.708C509.563,-180.061 522.106,-177.66 534,-176 611.454,-165.187 701.053,-162.218 762.42,-161.626"/>
<polygon fill="midnightblue" stroke="midnightblue" points="496.475,-179.351 487.499,-184.98 498.026,-186.177 496.475,-179.351"/>
</g>
<!-- Node7&#45;&gt;Node12 -->
<g id="edge12" class="edge"><title>Node7&#45;&gt;Node12</title>
<path fill="none" stroke="midnightblue" d="M473.444,-180.266C481.68,-176.069 490.191,-171.532 498,-167 514.632,-157.348 516.698,-151.392 534,-143 545.79,-137.281 558.937,-132.262 571.518,-128.048"/>
<polygon fill="midnightblue" stroke="midnightblue" points="471.688,-177.232 464.316,-184.841 474.824,-183.49 471.688,-177.232"/>
</g>
<!-- Node11 -->
<g id="node11" class="node"><title>Node11</title>
<g id="a_node11"><a xlink:href="../../d5/dc4/classpocketmine_1_1inventory_1_1_base_inventory.html#afaac83c7a4ade74f9bd461f68a48c30a" target="_top" xlink:title="pocketmine\\inventory\l\\BaseInventory\\__construct">
<polygon fill="white" stroke="black" points="954,-147 954,-177 1100,-177 1100,-147 954,-147"/>
<text text-anchor="start" x="962" y="-165" font-family="Helvetica,sans-Serif" font-size="10.00">pocketmine\inventory</text>
<text text-anchor="middle" x="1027" y="-154" font-family="Helvetica,sans-Serif" font-size="10.00">\BaseInventory\__construct</text>
</a>
</g>
</g>
<!-- Node10&#45;&gt;Node11 -->
<g id="edge11" class="edge"><title>Node10&#45;&gt;Node11</title>
<path fill="none" stroke="midnightblue" d="M921.944,-162C932.637,-162 943.507,-162 953.989,-162"/>
<polygon fill="midnightblue" stroke="midnightblue" points="921.763,-158.5 911.763,-162 921.763,-165.5 921.763,-158.5"/>
</g>
<!-- Node12&#45;&gt;Node10 -->
<g id="edge13" class="edge"><title>Node12&#45;&gt;Node10</title>
<path fill="none" stroke="midnightblue" d="M701.014,-130.2C724.142,-135.649 749.522,-141.628 771.97,-146.916"/>
<polygon fill="midnightblue" stroke="midnightblue" points="701.79,-126.788 691.254,-127.901 700.185,-133.601 701.79,-126.788"/>
</g>
<!-- Node13 -->
<g id="node13" class="node"><title>Node13</title>
<g id="a_node13"><a xlink:href="../../dc/d34/classpocketmine_1_1inventory_1_1_furnace_inventory.html#a5c9e307818bee9a64b8aae1a3e4e58a9" target="_top" xlink:title="pocketmine\\inventory\l\\FurnaceInventory\\setFuel">
<polygon fill="white" stroke="black" points="768,-49 768,-79 906,-79 906,-49 768,-49"/>
<text text-anchor="start" x="776" y="-67" font-family="Helvetica,sans-Serif" font-size="10.00">pocketmine\inventory</text>
<text text-anchor="middle" x="837" y="-56" font-family="Helvetica,sans-Serif" font-size="10.00">\FurnaceInventory\setFuel</text>
</a>
</g>
</g>
<!-- Node12&#45;&gt;Node13 -->
<g id="edge14" class="edge"><title>Node12&#45;&gt;Node13</title>
<path fill="none" stroke="midnightblue" d="M701.014,-95.7997C724.142,-90.351 749.522,-84.3723 771.97,-79.0839"/>
<polygon fill="midnightblue" stroke="midnightblue" points="700.185,-92.399 691.254,-98.0988 701.79,-99.2125 700.185,-92.399"/>
</g>
<!-- Node14 -->
<g id="node14" class="node"><title>Node14</title>
<g id="a_node14"><a xlink:href="../../dc/d34/classpocketmine_1_1inventory_1_1_furnace_inventory.html#ae1e7071536d244eadbf62472da3d51da" target="_top" xlink:title="pocketmine\\inventory\l\\FurnaceInventory\\setResult">
<polygon fill="white" stroke="black" points="763,-0 763,-30 911,-30 911,-0 763,-0"/>
<text text-anchor="start" x="771" y="-18" font-family="Helvetica,sans-Serif" font-size="10.00">pocketmine\inventory</text>
<text text-anchor="middle" x="837" y="-7" font-family="Helvetica,sans-Serif" font-size="10.00">\FurnaceInventory\setResult</text>
</a>
</g>
</g>
<!-- Node12&#45;&gt;Node14 -->
<g id="edge15" class="edge"><title>Node12&#45;&gt;Node14</title>
<path fill="none" stroke="midnightblue" d="M658.708,-92.5138C683.997,-76.324 721.221,-54.026 756,-39 763.587,-35.7219 771.762,-32.7138 779.886,-30.018"/>
<polygon fill="midnightblue" stroke="midnightblue" points="656.779,-89.593 650.285,-97.9637 660.582,-95.4702 656.779,-89.593"/>
</g>
<!-- Node15 -->
<g id="node15" class="node"><title>Node15</title>
<g id="a_node15"><a xlink:href="../../dc/d34/classpocketmine_1_1inventory_1_1_furnace_inventory.html#a45d3b373d8adb32961d8d08fc970c3ec" target="_top" xlink:title="pocketmine\\inventory\l\\FurnaceInventory\\setSmelting">
<polygon fill="white" stroke="black" points="756,-98 756,-128 918,-128 918,-98 756,-98"/>
<text text-anchor="start" x="764" y="-116" font-family="Helvetica,sans-Serif" font-size="10.00">pocketmine\inventory</text>
<text text-anchor="middle" x="837" y="-105" font-family="Helvetica,sans-Serif" font-size="10.00">\FurnaceInventory\setSmelting</text>
</a>
</g>
</g>
<!-- Node12&#45;&gt;Node15 -->
<g id="edge16" class="edge"><title>Node12&#45;&gt;Node15</title>
<path fill="none" stroke="midnightblue" d="M701.436,-113C719.01,-113 737.862,-113 755.727,-113"/>
<polygon fill="midnightblue" stroke="midnightblue" points="701.254,-109.5 691.254,-113 701.254,-116.5 701.254,-109.5"/>
</g>
<!-- Node16&#45;&gt;Node7 -->
<g id="edge18" class="edge"><title>Node16&#45;&gt;Node7</title>
<path fill="none" stroke="midnightblue" d="M338.287,-182.676C349.339,-184.764 360.425,-186.858 370.88,-188.833"/>
<polygon fill="midnightblue" stroke="midnightblue" points="338.641,-179.182 328.165,-180.765 337.342,-186.06 338.641,-179.182"/>
</g>
<!-- Node16&#45;&gt;Node12 -->
<g id="edge19" class="edge"><title>Node16&#45;&gt;Node12</title>
<path fill="none" stroke="midnightblue" d="M338.352,-153.546C407.329,-143.823 501.477,-130.552 562.989,-121.882"/>
<polygon fill="midnightblue" stroke="midnightblue" points="337.778,-150.092 328.364,-154.954 338.755,-157.024 337.778,-150.092"/>
</g>
</g>
</svg>
