<?xml version="1.0" encoding="UTF-8" standalone="no"?>
<!DOCTYPE svg PUBLIC "-//W3C//DTD SVG 1.1//EN"
 "http://www.w3.org/Graphics/SVG/1.1/DTD/svg11.dtd">
<!-- Generated by graphviz version 2.26.3 (20100126.1600)
 -->
<!-- Title: pocketmine\inventory\BaseInventory\contains Pages: 1 -->
<svg width="306pt" height="42pt"
 viewBox="0.00 0.00 306.00 42.00" xmlns="http://www.w3.org/2000/svg" xmlns:xlink="http://www.w3.org/1999/xlink">
<g id="graph1" class="graph" transform="scale(1 1) rotate(0) translate(4 38)">
<title>pocketmine\inventory\BaseInventory\contains</title>
<polygon fill="white" stroke="white" points="-4,5 -4,-38 303,-38 303,5 -4,5"/>
<!-- Node1 -->
<g id="node1" class="node"><title>Node1</title>
<polygon fill="#bfbfbf" stroke="black" points="0,-0 0,-34 122,-34 122,-0 0,-0"/>
<text text-anchor="start" x="8" y="-21" font-family="Helvetica,sans-Serif" font-size="10.00">pocketmine\inventory</text>
<text text-anchor="middle" x="61" y="-8" font-family="Helvetica,sans-Serif" font-size="10.00">\BaseInventory\contains</text>
</g>
<!-- Node2 -->
<g id="node3" class="node"><title>Node2</title>
<a xlink:href="../../d5/dc4/classpocketmine_1_1inventory_1_1_base_inventory.html#a0e8340ccc6267464b500f41e32d96059" target="_top" xlink:title="pocketmine\\inventory\l\\BaseInventory\\getContents">
<polygon fill="white" stroke="black" points="158.5,-0 158.5,-34 297.5,-34 297.5,-0 158.5,-0"/>
<text text-anchor="start" x="166.5" y="-21" font-family="Helvetica,sans-Serif" font-size="10.00">pocketmine\inventory</text>
<text text-anchor="middle" x="228" y="-8" font-family="Helvetica,sans-Serif" font-size="10.00">\BaseInventory\getContents</text>
</a>
</g>
<!-- Node1&#45;&gt;Node2 -->
<g id="edge2" class="edge"><title>Node1&#45;&gt;Node2</title>
<path fill="none" stroke="midnightblue" d="M122.236,-17C130.667,-17 139.424,-17 148.128,-17"/>
<polygon fill="midnightblue" stroke="midnightblue" points="148.299,-20.5001 158.299,-17 148.299,-13.5001 148.299,-20.5001"/>
</g>
</g>
</svg>
