<?xml version="1.0" encoding="UTF-8" standalone="no"?>
<!DOCTYPE svg PUBLIC "-//W3C//DTD SVG 1.1//EN"
 "http://www.w3.org/Graphics/SVG/1.1/DTD/svg11.dtd">
<!-- Generated by graphviz version 2.36.0 (20140111.2315)
 -->
<!-- Title: pocketmine\inventory\BaseInventory\setContents Pages: 1 -->
<svg width="1026pt" height="285pt"
 viewBox="0.00 0.00 1026.00 284.58" xmlns="http://www.w3.org/2000/svg" xmlns:xlink="http://www.w3.org/1999/xlink">
<g id="graph0" class="graph" transform="scale(1 1) rotate(0) translate(4 280.585)">
<title>pocketmine\inventory\BaseInventory\setContents</title>
<polygon fill="white" stroke="none" points="-4,4 -4,-280.585 1022,-280.585 1022,4 -4,4"/>
<!-- Node1 -->
<g id="node1" class="node"><title>Node1</title>
<polygon fill="#bfbfbf" stroke="black" points="0.5,-128.452 0.5,-158.452 149.5,-158.452 149.5,-128.452 0.5,-128.452"/>
<text text-anchor="start" x="8.5" y="-146.452" font-family="Helvetica,sans-Serif" font-size="10.00">pocketmine\inventory</text>
<text text-anchor="middle" x="75" y="-135.452" font-family="Helvetica,sans-Serif" font-size="10.00">\BaseInventory\setContents</text>
</g>
<!-- Node2 -->
<g id="node2" class="node"><title>Node2</title>
<g id="a_node2"><a xlink:href="../../d5/dc4/classpocketmine_1_1inventory_1_1_base_inventory.html#a4e37b46b040119e90211c5078dd79662" target="_top" xlink:title="pocketmine\\inventory\l\\BaseInventory\\clear">
<polygon fill="white" stroke="black" points="350,-106.452 350,-136.452 470,-136.452 470,-106.452 350,-106.452"/>
<text text-anchor="start" x="358" y="-124.452" font-family="Helvetica,sans-Serif" font-size="10.00">pocketmine\inventory</text>
<text text-anchor="middle" x="410" y="-113.452" font-family="Helvetica,sans-Serif" font-size="10.00">\BaseInventory\clear</text>
</a>
</g>
</g>
<!-- Node1&#45;&gt;Node2 -->
<g id="edge1" class="edge"><title>Node1&#45;&gt;Node2</title>
<path fill="none" stroke="midnightblue" d="M149.903,-138.57C206.634,-134.822 284.394,-129.684 339.891,-126.018"/>
<polygon fill="midnightblue" stroke="midnightblue" points="340.237,-129.503 349.985,-125.351 339.776,-122.518 340.237,-129.503"/>
</g>
<!-- Node9 -->
<g id="node9" class="node"><title>Node9</title>
<g id="a_node9"><a xlink:href="../../d5/dc4/classpocketmine_1_1inventory_1_1_base_inventory.html#a99f7ddb22a3e614d55daefe9d4b9eaeb" target="_top" xlink:title="pocketmine\\inventory\l\\BaseInventory\\setItem">
<polygon fill="white" stroke="black" points="186,-150.452 186,-180.452 314,-180.452 314,-150.452 186,-150.452"/>
<text text-anchor="start" x="194" y="-168.452" font-family="Helvetica,sans-Serif" font-size="10.00">pocketmine\inventory</text>
<text text-anchor="middle" x="250" y="-157.452" font-family="Helvetica,sans-Serif" font-size="10.00">\BaseInventory\setItem</text>
</a>
</g>
</g>
<!-- Node1&#45;&gt;Node9 -->
<g id="edge10" class="edge"><title>Node1&#45;&gt;Node9</title>
<path fill="none" stroke="midnightblue" d="M149.618,-152.814C158.278,-153.915 167.113,-155.039 175.767,-156.139"/>
<polygon fill="midnightblue" stroke="midnightblue" points="175.459,-159.628 185.821,-157.418 176.342,-152.684 175.459,-159.628"/>
</g>
<!-- Node3 -->
<g id="node3" class="node"><title>Node3</title>
<g id="a_node3"><a xlink:href="../../d5/dc4/classpocketmine_1_1inventory_1_1_base_inventory.html#a17dc7367b4cee9f1029c38d52e448563" target="_top" xlink:title="pocketmine\\inventory\l\\BaseInventory\\getHolder">
<polygon fill="white" stroke="black" points="521,-188.452 521,-218.452 659,-218.452 659,-188.452 521,-188.452"/>
<text text-anchor="start" x="529" y="-206.452" font-family="Helvetica,sans-Serif" font-size="10.00">pocketmine\inventory</text>
<text text-anchor="middle" x="590" y="-195.452" font-family="Helvetica,sans-Serif" font-size="10.00">\BaseInventory\getHolder</text>
</a>
</g>
</g>
<!-- Node2&#45;&gt;Node3 -->
<g id="edge2" class="edge"><title>Node2&#45;&gt;Node3</title>
<path fill="none" stroke="midnightblue" d="M432.804,-136.674C451.534,-149.217 479.615,-166.78 506,-178.452 511.29,-180.792 516.863,-182.993 522.514,-185.044"/>
<polygon fill="midnightblue" stroke="midnightblue" points="521.467,-188.386 532.062,-188.352 523.759,-181.771 521.467,-188.386"/>
</g>
<!-- Node4 -->
<g id="node4" class="node"><title>Node4</title>
<g id="a_node4"><a xlink:href="../../d5/df7/classpocketmine_1_1_server.html#a8d9b9873eb3c7efce048f10f803c2b2e" target="_top" xlink:title="pocketmine\\Server\\getInstance">
<polygon fill="white" stroke="black" points="506.5,-149.952 506.5,-168.952 673.5,-168.952 673.5,-149.952 506.5,-149.952"/>
<text text-anchor="middle" x="590" y="-156.952" font-family="Helvetica,sans-Serif" font-size="10.00">pocketmine\Server\getInstance</text>
</a>
</g>
</g>
<!-- Node2&#45;&gt;Node4 -->
<g id="edge3" class="edge"><title>Node2&#45;&gt;Node4</title>
<path fill="none" stroke="midnightblue" d="M470.271,-134.106C490.949,-138.52 514.045,-143.451 534.331,-147.781"/>
<polygon fill="midnightblue" stroke="midnightblue" points="533.837,-151.255 544.347,-149.919 535.298,-144.409 533.837,-151.255"/>
</g>
<!-- Node5 -->
<g id="node5" class="node"><title>Node5</title>
<g id="a_node5"><a xlink:href="../../d5/dc4/classpocketmine_1_1inventory_1_1_base_inventory.html#a65b280b6c12e1d4e5bcd4d0de3aa4a71" target="_top" xlink:title="pocketmine\\inventory\l\\BaseInventory\\getViewers">
<polygon fill="white" stroke="black" points="710.5,-24.4522 710.5,-54.4522 853.5,-54.4522 853.5,-24.4522 710.5,-24.4522"/>
<text text-anchor="start" x="718.5" y="-42.4522" font-family="Helvetica,sans-Serif" font-size="10.00">pocketmine\inventory</text>
<text text-anchor="middle" x="782" y="-31.4522" font-family="Helvetica,sans-Serif" font-size="10.00">\BaseInventory\getViewers</text>
</a>
</g>
</g>
<!-- Node2&#45;&gt;Node5 -->
<g id="edge4" class="edge"><title>Node2&#45;&gt;Node5</title>
<path fill="none" stroke="midnightblue" d="M470.03,-108.498C523.341,-96.7831 603.94,-79.0345 674,-63.4522 683.858,-61.2596 694.225,-58.9452 704.467,-56.6535"/>
<polygon fill="midnightblue" stroke="midnightblue" points="705.233,-60.0686 714.227,-54.4681 703.704,-53.2378 705.233,-60.0686"/>
</g>
<!-- Node6 -->
<g id="node6" class="node"><title>Node6</title>
<g id="a_node6"><a xlink:href="../../d5/dc4/classpocketmine_1_1inventory_1_1_base_inventory.html#a372297a2da072277724b5a20453bb423" target="_top" xlink:title="pocketmine\\inventory\l\\BaseInventory\\onSlotChange">
<polygon fill="white" stroke="black" points="511,-24.4522 511,-54.4522 669,-54.4522 669,-24.4522 511,-24.4522"/>
<text text-anchor="start" x="519" y="-42.4522" font-family="Helvetica,sans-Serif" font-size="10.00">pocketmine\inventory</text>
<text text-anchor="middle" x="590" y="-31.4522" font-family="Helvetica,sans-Serif" font-size="10.00">\BaseInventory\onSlotChange</text>
</a>
</g>
</g>
<!-- Node2&#45;&gt;Node6 -->
<g id="edge5" class="edge"><title>Node2&#45;&gt;Node6</title>
<path fill="none" stroke="midnightblue" d="M436.26,-106.233C455.096,-95.2306 481.663,-80.4322 506,-69.4522 514.811,-65.477 524.32,-61.6392 533.647,-58.1124"/>
<polygon fill="midnightblue" stroke="midnightblue" points="535.099,-61.3073 543.265,-54.5571 532.672,-54.7415 535.099,-61.3073"/>
</g>
<!-- Node7 -->
<g id="node7" class="node"><title>Node7</title>
<g id="a_node7"><a xlink:href="../../d5/dc4/classpocketmine_1_1inventory_1_1_base_inventory.html#ad84dac811677e799d06924279a4288cc" target="_top" xlink:title="pocketmine\\inventory\l\\BaseInventory\\sendSlot">
<polygon fill="white" stroke="black" points="715.5,-147.452 715.5,-177.452 848.5,-177.452 848.5,-147.452 715.5,-147.452"/>
<text text-anchor="start" x="723.5" y="-165.452" font-family="Helvetica,sans-Serif" font-size="10.00">pocketmine\inventory</text>
<text text-anchor="middle" x="782" y="-154.452" font-family="Helvetica,sans-Serif" font-size="10.00">\BaseInventory\sendSlot</text>
</a>
</g>
</g>
<!-- Node2&#45;&gt;Node7 -->
<g id="edge9" class="edge"><title>Node2&#45;&gt;Node7</title>
<path fill="none" stroke="midnightblue" d="M470.247,-123.52C523.703,-125.911 604.392,-130.824 674,-140.452 684.179,-141.86 694.842,-143.658 705.329,-145.617"/>
<polygon fill="midnightblue" stroke="midnightblue" points="704.827,-149.084 715.308,-147.537 706.15,-142.21 704.827,-149.084"/>
</g>
<!-- Node6&#45;&gt;Node5 -->
<g id="edge6" class="edge"><title>Node6&#45;&gt;Node5</title>
<path fill="none" stroke="midnightblue" d="M669.103,-39.4522C679.312,-39.4522 689.791,-39.4522 700.047,-39.4522"/>
<polygon fill="midnightblue" stroke="midnightblue" points="700.209,-42.9523 710.209,-39.4522 700.209,-35.9523 700.209,-42.9523"/>
</g>
<!-- Node6&#45;&gt;Node7 -->
<g id="edge7" class="edge"><title>Node6&#45;&gt;Node7</title>
<path fill="none" stroke="midnightblue" d="M614.298,-54.5344C648.149,-76.4487 711.04,-117.162 749.149,-141.833"/>
<polygon fill="midnightblue" stroke="midnightblue" points="747.513,-144.943 757.809,-147.439 751.317,-139.067 747.513,-144.943"/>
</g>
<!-- Node8 -->
<g id="node8" class="node"><title>Node8</title>
<g id="a_node8"><a xlink:href="../../d5/dc4/classpocketmine_1_1inventory_1_1_base_inventory.html#a8bc94c0515906b5c1f3af5600d89b3df" target="_top" xlink:title="pocketmine\\inventory\l\\BaseInventory\\getItem">
<polygon fill="white" stroke="black" points="890,-229.452 890,-259.452 1018,-259.452 1018,-229.452 890,-229.452"/>
<text text-anchor="start" x="898" y="-247.452" font-family="Helvetica,sans-Serif" font-size="10.00">pocketmine\inventory</text>
<text text-anchor="middle" x="954" y="-236.452" font-family="Helvetica,sans-Serif" font-size="10.00">\BaseInventory\getItem</text>
</a>
</g>
</g>
<!-- Node7&#45;&gt;Node8 -->
<g id="edge8" class="edge"><title>Node7&#45;&gt;Node8</title>
<path fill="none" stroke="midnightblue" d="M814.181,-177.492C841.772,-190.801 882.216,-210.31 912.341,-224.84"/>
<polygon fill="midnightblue" stroke="midnightblue" points="911.202,-228.177 921.73,-229.369 914.243,-221.872 911.202,-228.177"/>
</g>
<!-- Node9&#45;&gt;Node2 -->
<g id="edge11" class="edge"><title>Node9&#45;&gt;Node2</title>
<path fill="none" stroke="midnightblue" d="M304.933,-150.433C317.953,-146.807 331.987,-142.899 345.405,-139.162"/>
<polygon fill="midnightblue" stroke="midnightblue" points="346.348,-142.533 355.042,-136.478 344.47,-135.789 346.348,-142.533"/>
</g>
<!-- Node9&#45;&gt;Node3 -->
<g id="edge12" class="edge"><title>Node9&#45;&gt;Node3</title>
<path fill="none" stroke="midnightblue" d="M314.097,-173.218C326.02,-174.652 338.39,-176.117 350,-177.452 403.696,-183.627 464.224,-190.208 510.933,-195.204"/>
<polygon fill="midnightblue" stroke="midnightblue" points="510.668,-198.695 520.983,-196.277 511.411,-191.735 510.668,-198.695"/>
</g>
<!-- Node9&#45;&gt;Node4 -->
<g id="edge13" class="edge"><title>Node9&#45;&gt;Node4</title>
<path fill="none" stroke="midnightblue" d="M314.179,-164.331C365.37,-163.422 438.237,-162.128 496.078,-161.102"/>
<polygon fill="midnightblue" stroke="midnightblue" points="496.39,-164.597 506.326,-160.92 496.265,-157.598 496.39,-164.597"/>
</g>
<!-- Node9&#45;&gt;Node5 -->
<g id="edge15" class="edge"><title>Node9&#45;&gt;Node5</title>
<path fill="none" stroke="midnightblue" d="M260.562,-150.253C276.275,-126.551 309.856,-80.9666 350,-56.4522 473.926,19.2236 529.75,2.17551 674,-14.4522 688.182,-16.087 703.217,-18.9024 717.393,-22.0684"/>
<polygon fill="midnightblue" stroke="midnightblue" points="717.007,-25.5718 727.539,-24.4239 718.59,-18.7531 717.007,-25.5718"/>
</g>
<!-- Node9&#45;&gt;Node6 -->
<g id="edge16" class="edge"><title>Node9&#45;&gt;Node6</title>
<path fill="none" stroke="midnightblue" d="M268.366,-150.28C287.224,-134.574 318.839,-110.421 350,-96.4522 397.778,-75.0353 454.683,-61.0522 500.98,-52.2978"/>
<polygon fill="midnightblue" stroke="midnightblue" points="501.791,-55.7073 510.992,-50.4543 500.524,-48.8231 501.791,-55.7073"/>
</g>
<!-- Node9&#45;&gt;Node7 -->
<g id="edge17" class="edge"><title>Node9&#45;&gt;Node7</title>
<path fill="none" stroke="midnightblue" d="M286.73,-180.536C360.378,-209.492 533.91,-266.668 674,-227.452 704.354,-218.955 734.654,-199.226 755.221,-183.718"/>
<polygon fill="midnightblue" stroke="midnightblue" points="757.376,-186.476 763.143,-177.588 753.092,-180.94 757.376,-186.476"/>
</g>
<!-- Node9&#45;&gt;Node8 -->
<g id="edge14" class="edge"><title>Node9&#45;&gt;Node8</title>
<path fill="none" stroke="midnightblue" d="M267.774,-180.688C286.378,-196.599 318.011,-220.827 350,-232.452 531.025,-298.241 763.235,-275.681 879.607,-257.77"/>
<polygon fill="midnightblue" stroke="midnightblue" points="880.488,-261.175 889.823,-256.164 879.401,-254.26 880.488,-261.175"/>
</g>
</g>
</svg>
