<?xml version="1.0" encoding="UTF-8" standalone="no"?>
<!DOCTYPE svg PUBLIC "-//W3C//DTD SVG 1.1//EN"
 "http://www.w3.org/Graphics/SVG/1.1/DTD/svg11.dtd">
<!-- Generated by graphviz version 2.36.0 (20140111.2315)
 -->
<!-- Title: pocketmine\inventory\BaseInventory\setItem Pages: 1 -->
<!--zoomable 276 -->
<svg id="main" version="1.1" xmlns="http://www.w3.org/2000/svg" xmlns:xlink="http://www.w3.org/1999/xlink" xml:space="preserve" onload="init(evt)">
<style type="text/css"><![CDATA[
.edge:hover path { stroke: red; }
.edge:hover polygon { stroke: red; fill: red; }
]]></style>
<script type="text/javascript"><![CDATA[
var edges = document.getElementsByTagName('g');
if (edges && edges.length) {
  for (var i=0;i<edges.length;i++) {
    if (edges[i].id.substr(0,4)=='edge') {
      edges[i].setAttribute('class','edge');
    }
  }
}
]]></script>
        <defs>
                <circle id="rim" cx="0" cy="0" r="7"/>
                <circle id="rim2" cx="0" cy="0" r="3.5"/>
                <g id="zoomPlus">
                        <use xlink:href="#rim" fill="#404040">
                                <set attributeName="fill" to="#808080" begin="zoomplus.mouseover" end="zoomplus.mouseout"/>
                        </use>
                        <path d="M-4,0h8M0,-4v8" fill="none" stroke="white" stroke-width="1.5" pointer-events="none"/>
                </g>
                <g id="zoomMin">
                        <use xlink:href="#rim" fill="#404040">
                                <set attributeName="fill" to="#808080" begin="zoomminus.mouseover" end="zoomminus.mouseout"/>
                        </use>
                        <path d="M-4,0h8" fill="none" stroke="white" stroke-width="1.5" pointer-events="none"/>
                </g>
                <g id="dirArrow">
                        <path fill="none" stroke="white" stroke-width="1.5" d="M0,-3.0v7 M-2.5,-0.5L0,-3.0L2.5,-0.5"/>
                </g>
               <g id="resetDef">
                       <use xlink:href="#rim2" fill="#404040">
                               <set attributeName="fill" to="#808080" begin="reset.mouseover" end="reset.mouseout"/>
                       </use>
               </g>
        </defs>

<script type="text/javascript">
var viewWidth = 840;
var viewHeight = 276;
var sectionId = 'dynsection-27';
</script>
<script xlink:href="../../svgpan.js"/>
<svg id="graph" class="graph">
<g id="viewport">
<title>pocketmine\inventory\BaseInventory\setItem</title>
<polygon fill="white" stroke="none" points="-4,4 -4,-271.509 836,-271.509 836,4 -4,4"/>
<!-- Node1 -->
<g id="node1" class="node"><title>Node1</title>
<polygon fill="#bfbfbf" stroke="black" points="0,-145.003 0,-175.003 128,-175.003 128,-145.003 0,-145.003"/>
<text text-anchor="start" x="8" y="-163.003" font-family="Helvetica,sans-Serif" font-size="10.00">pocketmine\inventory</text>
<text text-anchor="middle" x="64" y="-152.003" font-family="Helvetica,sans-Serif" font-size="10.00">\BaseInventory\setItem</text>
</g>
<!-- Node2 -->
<g id="node2" class="node"><title>Node2</title>
<g id="a_node2"><a xlink:href="../../d5/dc4/classpocketmine_1_1inventory_1_1_base_inventory.html#a4e37b46b040119e90211c5078dd79662" target="_top" xlink:title="pocketmine\\inventory\l\\BaseInventory\\clear">
<polygon fill="white" stroke="black" points="164,-101.003 164,-131.003 284,-131.003 284,-101.003 164,-101.003"/>
<text text-anchor="start" x="172" y="-119.003" font-family="Helvetica,sans-Serif" font-size="10.00">pocketmine\inventory</text>
<text text-anchor="middle" x="224" y="-108.003" font-family="Helvetica,sans-Serif" font-size="10.00">\BaseInventory\clear</text>
</a>
</g>
</g>
<!-- Node1&#45;&gt;Node2 -->
<g id="edge1" class="edge"><title>Node1&#45;&gt;Node2</title>
<path fill="none" stroke="midnightblue" d="M118.933,-144.984C131.953,-141.358 145.987,-137.449 159.405,-133.713"/>
<polygon fill="midnightblue" stroke="midnightblue" points="160.348,-137.084 169.042,-131.029 158.47,-130.34 160.348,-137.084"/>
</g>
<!-- Node3 -->
<g id="node3" class="node"><title>Node3</title>
<g id="a_node3"><a xlink:href="../../d5/dc4/classpocketmine_1_1inventory_1_1_base_inventory.html#a17dc7367b4cee9f1029c38d52e448563" target="_top" xlink:title="pocketmine\\inventory\l\\BaseInventory\\getHolder">
<polygon fill="white" stroke="black" points="335,-183.003 335,-213.003 473,-213.003 473,-183.003 335,-183.003"/>
<text text-anchor="start" x="343" y="-201.003" font-family="Helvetica,sans-Serif" font-size="10.00">pocketmine\inventory</text>
<text text-anchor="middle" x="404" y="-190.003" font-family="Helvetica,sans-Serif" font-size="10.00">\BaseInventory\getHolder</text>
</a>
</g>
</g>
<!-- Node1&#45;&gt;Node3 -->
<g id="edge10" class="edge"><title>Node1&#45;&gt;Node3</title>
<path fill="none" stroke="midnightblue" d="M128.097,-167.768C140.02,-169.202 152.39,-170.668 164,-172.003 217.696,-178.178 278.224,-184.758 324.933,-189.754"/>
<polygon fill="midnightblue" stroke="midnightblue" points="324.668,-193.246 334.983,-190.828 325.411,-186.285 324.668,-193.246"/>
</g>
<!-- Node4 -->
<g id="node4" class="node"><title>Node4</title>
<g id="a_node4"><a xlink:href="../../d5/df7/classpocketmine_1_1_server.html#a8d9b9873eb3c7efce048f10f803c2b2e" target="_top" xlink:title="pocketmine\\Server\\getInstance">
<polygon fill="white" stroke="black" points="320.5,-144.503 320.5,-163.503 487.5,-163.503 487.5,-144.503 320.5,-144.503"/>
<text text-anchor="middle" x="404" y="-151.503" font-family="Helvetica,sans-Serif" font-size="10.00">pocketmine\Server\getInstance</text>
</a>
</g>
</g>
<!-- Node1&#45;&gt;Node4 -->
<g id="edge11" class="edge"><title>Node1&#45;&gt;Node4</title>
<path fill="none" stroke="midnightblue" d="M128.179,-158.881C179.37,-157.973 252.237,-156.679 310.078,-155.652"/>
<polygon fill="midnightblue" stroke="midnightblue" points="310.39,-159.147 320.326,-155.47 310.265,-152.149 310.39,-159.147"/>
</g>
<!-- Node5 -->
<g id="node5" class="node"><title>Node5</title>
<g id="a_node5"><a xlink:href="../../d5/dc4/classpocketmine_1_1inventory_1_1_base_inventory.html#a65b280b6c12e1d4e5bcd4d0de3aa4a71" target="_top" xlink:title="pocketmine\\inventory\l\\BaseInventory\\getViewers">
<polygon fill="white" stroke="black" points="524.5,-101.003 524.5,-131.003 667.5,-131.003 667.5,-101.003 524.5,-101.003"/>
<text text-anchor="start" x="532.5" y="-119.003" font-family="Helvetica,sans-Serif" font-size="10.00">pocketmine\inventory</text>
<text text-anchor="middle" x="596" y="-108.003" font-family="Helvetica,sans-Serif" font-size="10.00">\BaseInventory\getViewers</text>
</a>
</g>
</g>
<!-- Node1&#45;&gt;Node5 -->
<g id="edge13" class="edge"><title>Node1&#45;&gt;Node5</title>
<path fill="none" stroke="midnightblue" d="M95.8127,-175.097C167.499,-207.998 349.864,-278.841 488,-222.003 528.234,-205.448 561.367,-165.636 579.635,-139.792"/>
<polygon fill="midnightblue" stroke="midnightblue" points="582.693,-141.52 585.463,-131.294 576.921,-137.561 582.693,-141.52"/>
</g>
<!-- Node6 -->
<g id="node6" class="node"><title>Node6</title>
<g id="a_node6"><a xlink:href="../../d5/dc4/classpocketmine_1_1inventory_1_1_base_inventory.html#a372297a2da072277724b5a20453bb423" target="_top" xlink:title="pocketmine\\inventory\l\\BaseInventory\\onSlotChange">
<polygon fill="white" stroke="black" points="325,-19.0029 325,-49.0029 483,-49.0029 483,-19.0029 325,-19.0029"/>
<text text-anchor="start" x="333" y="-37.0029" font-family="Helvetica,sans-Serif" font-size="10.00">pocketmine\inventory</text>
<text text-anchor="middle" x="404" y="-26.0029" font-family="Helvetica,sans-Serif" font-size="10.00">\BaseInventory\onSlotChange</text>
</a>
</g>
</g>
<!-- Node1&#45;&gt;Node6 -->
<g id="edge14" class="edge"><title>Node1&#45;&gt;Node6</title>
<path fill="none" stroke="midnightblue" d="M82.3659,-144.831C101.224,-129.125 132.839,-104.971 164,-91.0029 211.778,-69.586 268.683,-55.6028 314.98,-46.8484"/>
<polygon fill="midnightblue" stroke="midnightblue" points="315.791,-50.258 324.992,-45.005 314.524,-43.3737 315.791,-50.258"/>
</g>
<!-- Node7 -->
<g id="node7" class="node"><title>Node7</title>
<g id="a_node7"><a xlink:href="../../d5/dc4/classpocketmine_1_1inventory_1_1_base_inventory.html#ad84dac811677e799d06924279a4288cc" target="_top" xlink:title="pocketmine\\inventory\l\\BaseInventory\\sendSlot">
<polygon fill="white" stroke="black" points="529.5,-35.0029 529.5,-65.0029 662.5,-65.0029 662.5,-35.0029 529.5,-35.0029"/>
<text text-anchor="start" x="537.5" y="-53.0029" font-family="Helvetica,sans-Serif" font-size="10.00">pocketmine\inventory</text>
<text text-anchor="middle" x="596" y="-42.0029" font-family="Helvetica,sans-Serif" font-size="10.00">\BaseInventory\sendSlot</text>
</a>
</g>
</g>
<!-- Node1&#45;&gt;Node7 -->
<g id="edge15" class="edge"><title>Node1&#45;&gt;Node7</title>
<path fill="none" stroke="midnightblue" d="M74.5617,-144.804C90.2752,-121.102 123.856,-75.5172 164,-51.0029 225.28,-13.582 248.818,-18.4175 320,-9.00285 394.022,0.787345 414.58,4.5821 488,-9.00285 511.03,-13.2642 535.509,-22.2778 555.232,-30.7712"/>
<polygon fill="midnightblue" stroke="midnightblue" points="553.945,-34.0287 564.506,-34.8758 556.778,-27.6277 553.945,-34.0287"/>
</g>
<!-- Node8 -->
<g id="node8" class="node"><title>Node8</title>
<g id="a_node8"><a xlink:href="../../d5/dc4/classpocketmine_1_1inventory_1_1_base_inventory.html#a8bc94c0515906b5c1f3af5600d89b3df" target="_top" xlink:title="pocketmine\\inventory\l\\BaseInventory\\getItem">
<polygon fill="white" stroke="black" points="704,-150.003 704,-180.003 832,-180.003 832,-150.003 704,-150.003"/>
<text text-anchor="start" x="712" y="-168.003" font-family="Helvetica,sans-Serif" font-size="10.00">pocketmine\inventory</text>
<text text-anchor="middle" x="768" y="-157.003" font-family="Helvetica,sans-Serif" font-size="10.00">\BaseInventory\getItem</text>
</a>
</g>
</g>
<!-- Node1&#45;&gt;Node8 -->
<g id="edge12" class="edge"><title>Node1&#45;&gt;Node8</title>
<path fill="none" stroke="midnightblue" d="M79.4633,-175.066C97.4265,-192.679 129.892,-221.066 164,-234.003 298.75,-285.11 345.354,-267.531 488,-247.003 571.204,-235.029 664.199,-203.943 719.052,-183.671"/>
<polygon fill="midnightblue" stroke="midnightblue" points="720.363,-186.918 728.509,-180.143 717.917,-180.359 720.363,-186.918"/>
</g>
<!-- Node2&#45;&gt;Node3 -->
<g id="edge2" class="edge"><title>Node2&#45;&gt;Node3</title>
<path fill="none" stroke="midnightblue" d="M246.804,-131.224C265.534,-143.768 293.615,-161.331 320,-173.003 325.29,-175.343 330.863,-177.544 336.514,-179.595"/>
<polygon fill="midnightblue" stroke="midnightblue" points="335.467,-182.936 346.062,-182.903 337.759,-176.322 335.467,-182.936"/>
</g>
<!-- Node2&#45;&gt;Node4 -->
<g id="edge3" class="edge"><title>Node2&#45;&gt;Node4</title>
<path fill="none" stroke="midnightblue" d="M284.271,-128.656C304.949,-133.071 328.045,-138.001 348.331,-142.332"/>
<polygon fill="midnightblue" stroke="midnightblue" points="347.837,-145.805 358.347,-144.47 349.298,-138.959 347.837,-145.805"/>
</g>
<!-- Node2&#45;&gt;Node5 -->
<g id="edge4" class="edge"><title>Node2&#45;&gt;Node5</title>
<path fill="none" stroke="midnightblue" d="M284.037,-116.003C346.362,-116.003 445.011,-116.003 514.453,-116.003"/>
<polygon fill="midnightblue" stroke="midnightblue" points="514.479,-119.503 524.479,-116.003 514.479,-112.503 514.479,-119.503"/>
</g>
<!-- Node2&#45;&gt;Node6 -->
<g id="edge5" class="edge"><title>Node2&#45;&gt;Node6</title>
<path fill="none" stroke="midnightblue" d="M250.26,-100.784C269.096,-89.7812 295.663,-74.9829 320,-64.0029 328.811,-60.0276 338.32,-56.1898 347.647,-52.6631"/>
<polygon fill="midnightblue" stroke="midnightblue" points="349.099,-55.858 357.265,-49.1078 346.672,-49.2922 349.099,-55.858"/>
</g>
<!-- Node2&#45;&gt;Node7 -->
<g id="edge9" class="edge"><title>Node2&#45;&gt;Node7</title>
<path fill="none" stroke="midnightblue" d="M284.037,-105.472C347.82,-94.0944 449.647,-75.9306 519.279,-63.5098"/>
<polygon fill="midnightblue" stroke="midnightblue" points="520.081,-66.9221 529.311,-61.7203 518.852,-60.0309 520.081,-66.9221"/>
</g>
<!-- Node6&#45;&gt;Node5 -->
<g id="edge6" class="edge"><title>Node6&#45;&gt;Node5</title>
<path fill="none" stroke="midnightblue" d="M439.849,-49.0429C471.087,-62.5246 517.066,-82.368 550.863,-96.9544"/>
<polygon fill="midnightblue" stroke="midnightblue" points="549.482,-100.17 560.051,-100.92 552.256,-93.7434 549.482,-100.17"/>
</g>
<!-- Node6&#45;&gt;Node7 -->
<g id="edge7" class="edge"><title>Node6&#45;&gt;Node7</title>
<path fill="none" stroke="midnightblue" d="M483.103,-40.5799C494.977,-41.5799 507.216,-42.6105 519.044,-43.6065"/>
<polygon fill="midnightblue" stroke="midnightblue" points="519.054,-47.1197 529.312,-44.4713 519.641,-40.1444 519.054,-47.1197"/>
</g>
<!-- Node7&#45;&gt;Node8 -->
<g id="edge8" class="edge"><title>Node7&#45;&gt;Node8</title>
<path fill="none" stroke="midnightblue" d="M624.767,-65.0326C638.07,-72.4858 654.095,-81.8374 668,-91.0029 693.24,-107.64 720.68,-128.375 740.256,-143.66"/>
<polygon fill="midnightblue" stroke="midnightblue" points="738.109,-146.424 748.135,-149.85 742.434,-140.92 738.109,-146.424"/>
</g>
</g>
</svg>
        <g id="navigator" transform="translate(0 0)" fill="#404254">
                <rect fill="#f2f5e9" fill-opacity="0.5" stroke="#606060" stroke-width=".5" x="0" y="0" width="60" height="60"/>
                <use id="zoomplus" xlink:href="#zoomPlus" x="17" y="9" onmousedown="handleZoom(evt,'in')"/>
                <use id="zoomminus" xlink:href="#zoomMin" x="42" y="9" onmousedown="handleZoom(evt,'out')"/>
                <use id="reset" xlink:href="#resetDef" x="30" y="36" onmousedown="handleReset()"/>
                <g id="arrowUp" xlink:href="#dirArrow" transform="translate(30 24)" onmousedown="handlePan(0,-1)">
                  <use xlink:href="#rim" fill="#404040">
                        <set attributeName="fill" to="#808080" begin="arrowUp.mouseover" end="arrowUp.mouseout"/>
                  </use>
                  <path fill="none" stroke="white" stroke-width="1.5" d="M0,-3.0v7 M-2.5,-0.5L0,-3.0L2.5,-0.5"/>
                </g>
                <g id="arrowRight" xlink:href="#dirArrow" transform="rotate(90) translate(36 -43)" onmousedown="handlePan(1,0)">
                  <use xlink:href="#rim" fill="#404040">
                        <set attributeName="fill" to="#808080" begin="arrowRight.mouseover" end="arrowRight.mouseout"/>
                  </use>
                  <path fill="none" stroke="white" stroke-width="1.5" d="M0,-3.0v7 M-2.5,-0.5L0,-3.0L2.5,-0.5"/>
                </g>
                <g id="arrowDown" xlink:href="#dirArrow" transform="rotate(180) translate(-30 -48)" onmousedown="handlePan(0,1)">
                  <use xlink:href="#rim" fill="#404040">
                        <set attributeName="fill" to="#808080" begin="arrowDown.mouseover" end="arrowDown.mouseout"/>
                  </use>
                  <path fill="none" stroke="white" stroke-width="1.5" d="M0,-3.0v7 M-2.5,-0.5L0,-3.0L2.5,-0.5"/>
                </g>
                <g id="arrowLeft" xlink:href="#dirArrow" transform="rotate(270) translate(-36 17)" onmousedown="handlePan(-1,0)">
                  <use xlink:href="#rim" fill="#404040">
                        <set attributeName="fill" to="#808080" begin="arrowLeft.mouseover" end="arrowLeft.mouseout"/>
                  </use>
                  <path fill="none" stroke="white" stroke-width="1.5" d="M0,-3.0v7 M-2.5,-0.5L0,-3.0L2.5,-0.5"/>
                </g>
        </g>
        <svg viewBox="0 0 15 15" width="100%" height="30px" preserveAspectRatio="xMaxYMin meet">
         <g id="arrow_out" transform="scale(0.3 0.3)">
          <a xlink:href="classpocketmine_1_1inventory_1_1_base_inventory_a99f7ddb22a3e614d55daefe9d4b9eaeb_cgraph_org.svg" target="_base">
           <rect id="button" ry="5" rx="5" y="6" x="6" height="38" width="38"
                fill="#f2f5e9" fill-opacity="0.5" stroke="#606060" stroke-width="1.0"/>
           <path id="arrow"
             d="M 11.500037,31.436501 C 11.940474,20.09759 22.043105,11.32322 32.158766,21.979434 L 37.068811,17.246167 C 37.068811,17.246167 37.088388,32 37.088388,32 L 22.160133,31.978069 C 22.160133,31.978069 26.997745,27.140456 26.997745,27.140456 C 18.528582,18.264221 13.291696,25.230495 11.500037,31.436501 z"
             style="fill:#404040;"/>
          </a>
         </g>
        </svg>
</svg>
