<?xml version="1.0" encoding="UTF-8" standalone="no"?>
<!DOCTYPE svg PUBLIC "-//W3C//DTD SVG 1.1//EN"
 "http://www.w3.org/Graphics/SVG/1.1/DTD/svg11.dtd">
<!-- Generated by graphviz version 2.36.0 (20140111.2315)
 -->
<!-- Title: pocketmine\inventory\BaseInventory\__construct Pages: 1 -->
<svg width="1216pt" height="269pt"
 viewBox="0.00 0.00 1216.00 269.24" xmlns="http://www.w3.org/2000/svg" xmlns:xlink="http://www.w3.org/1999/xlink">
<g id="graph0" class="graph" transform="scale(1 1) rotate(0) translate(4 265.242)">
<title>pocketmine\inventory\BaseInventory\__construct</title>
<polygon fill="white" stroke="none" points="-4,4 -4,-265.242 1212,-265.242 1212,4 -4,4"/>
<!-- Node1 -->
<g id="node1" class="node"><title>Node1</title>
<polygon fill="#bfbfbf" stroke="black" points="0,-134.721 0,-164.721 146,-164.721 146,-134.721 0,-134.721"/>
<text text-anchor="start" x="8" y="-152.721" font-family="Helvetica,sans-Serif" font-size="10.00">pocketmine\inventory</text>
<text text-anchor="middle" x="73" y="-141.721" font-family="Helvetica,sans-Serif" font-size="10.00">\BaseInventory\__construct</text>
</g>
<!-- Node2 -->
<g id="node2" class="node"><title>Node2</title>
<g id="a_node2"><a xlink:href="../../d8/db0/classpocketmine_1_1inventory_1_1_inventory_type.html#a57e007abd2fc5096c6f39cbe00f12c3a" target="_top" xlink:title="pocketmine\\inventory\l\\InventoryType\\getDefaultSize">
<polygon fill="white" stroke="black" points="182,-159.721 182,-189.721 340,-189.721 340,-159.721 182,-159.721"/>
<text text-anchor="start" x="190" y="-177.721" font-family="Helvetica,sans-Serif" font-size="10.00">pocketmine\inventory</text>
<text text-anchor="middle" x="261" y="-166.721" font-family="Helvetica,sans-Serif" font-size="10.00">\InventoryType\getDefaultSize</text>
</a>
</g>
</g>
<!-- Node1&#45;&gt;Node2 -->
<g id="edge1" class="edge"><title>Node1&#45;&gt;Node2</title>
<path fill="none" stroke="midnightblue" d="M146.179,-159.422C154.546,-160.547 163.15,-161.703 171.701,-162.853"/>
<polygon fill="midnightblue" stroke="midnightblue" points="171.32,-166.333 181.697,-164.196 172.253,-159.395 171.32,-166.333"/>
</g>
<!-- Node3 -->
<g id="node3" class="node"><title>Node3</title>
<g id="a_node3"><a xlink:href="../../d5/dc4/classpocketmine_1_1inventory_1_1_base_inventory.html#a295a782543c002623d01ec47a6e93329" target="_top" xlink:title="pocketmine\\inventory\l\\BaseInventory\\setContents">
<polygon fill="white" stroke="black" points="186.5,-110.721 186.5,-140.721 335.5,-140.721 335.5,-110.721 186.5,-110.721"/>
<text text-anchor="start" x="194.5" y="-128.721" font-family="Helvetica,sans-Serif" font-size="10.00">pocketmine\inventory</text>
<text text-anchor="middle" x="261" y="-117.721" font-family="Helvetica,sans-Serif" font-size="10.00">\BaseInventory\setContents</text>
</a>
</g>
</g>
<!-- Node1&#45;&gt;Node3 -->
<g id="edge2" class="edge"><title>Node1&#45;&gt;Node3</title>
<path fill="none" stroke="midnightblue" d="M146.179,-140.407C156.058,-139.133 166.269,-137.815 176.332,-136.517"/>
<polygon fill="midnightblue" stroke="midnightblue" points="176.858,-139.978 186.328,-135.227 175.962,-133.035 176.858,-139.978"/>
</g>
<!-- Node4 -->
<g id="node4" class="node"><title>Node4</title>
<g id="a_node4"><a xlink:href="../../d5/dc4/classpocketmine_1_1inventory_1_1_base_inventory.html#a4e37b46b040119e90211c5078dd79662" target="_top" xlink:title="pocketmine\\inventory\l\\BaseInventory\\clear">
<polygon fill="white" stroke="black" points="540,-132.721 540,-162.721 660,-162.721 660,-132.721 540,-132.721"/>
<text text-anchor="start" x="548" y="-150.721" font-family="Helvetica,sans-Serif" font-size="10.00">pocketmine\inventory</text>
<text text-anchor="middle" x="600" y="-139.721" font-family="Helvetica,sans-Serif" font-size="10.00">\BaseInventory\clear</text>
</a>
</g>
</g>
<!-- Node3&#45;&gt;Node4 -->
<g id="edge3" class="edge"><title>Node3&#45;&gt;Node4</title>
<path fill="none" stroke="midnightblue" d="M335.54,-130.522C393.244,-134.289 473.01,-139.496 529.619,-143.191"/>
<polygon fill="midnightblue" stroke="midnightblue" points="529.702,-146.704 539.909,-143.863 530.158,-139.719 529.702,-146.704"/>
</g>
<!-- Node11 -->
<g id="node11" class="node"><title>Node11</title>
<g id="a_node11"><a xlink:href="../../d5/dc4/classpocketmine_1_1inventory_1_1_base_inventory.html#a99f7ddb22a3e614d55daefe9d4b9eaeb" target="_top" xlink:title="pocketmine\\inventory\l\\BaseInventory\\setItem">
<polygon fill="white" stroke="black" points="376,-88.7208 376,-118.721 504,-118.721 504,-88.7208 376,-88.7208"/>
<text text-anchor="start" x="384" y="-106.721" font-family="Helvetica,sans-Serif" font-size="10.00">pocketmine\inventory</text>
<text text-anchor="middle" x="440" y="-95.7208" font-family="Helvetica,sans-Serif" font-size="10.00">\BaseInventory\setItem</text>
</a>
</g>
</g>
<!-- Node3&#45;&gt;Node11 -->
<g id="edge12" class="edge"><title>Node3&#45;&gt;Node11</title>
<path fill="none" stroke="midnightblue" d="M335.526,-116.582C345.571,-115.333 355.88,-114.052 365.916,-112.805"/>
<polygon fill="midnightblue" stroke="midnightblue" points="366.35,-116.278 375.842,-111.571 365.486,-109.331 366.35,-116.278"/>
</g>
<!-- Node5 -->
<g id="node5" class="node"><title>Node5</title>
<g id="a_node5"><a xlink:href="../../d5/dc4/classpocketmine_1_1inventory_1_1_base_inventory.html#a17dc7367b4cee9f1029c38d52e448563" target="_top" xlink:title="pocketmine\\inventory\l\\BaseInventory\\getHolder">
<polygon fill="white" stroke="black" points="711,-88.7208 711,-118.721 849,-118.721 849,-88.7208 711,-88.7208"/>
<text text-anchor="start" x="719" y="-106.721" font-family="Helvetica,sans-Serif" font-size="10.00">pocketmine\inventory</text>
<text text-anchor="middle" x="780" y="-95.7208" font-family="Helvetica,sans-Serif" font-size="10.00">\BaseInventory\getHolder</text>
</a>
</g>
</g>
<!-- Node4&#45;&gt;Node5 -->
<g id="edge4" class="edge"><title>Node4&#45;&gt;Node5</title>
<path fill="none" stroke="midnightblue" d="M660.271,-133.069C675.682,-129.26 692.435,-125.119 708.368,-121.18"/>
<polygon fill="midnightblue" stroke="midnightblue" points="709.295,-124.557 718.163,-118.759 707.615,-117.761 709.295,-124.557"/>
</g>
<!-- Node6 -->
<g id="node6" class="node"><title>Node6</title>
<g id="a_node6"><a xlink:href="../../d5/df7/classpocketmine_1_1_server.html#a8d9b9873eb3c7efce048f10f803c2b2e" target="_top" xlink:title="pocketmine\\Server\\getInstance">
<polygon fill="white" stroke="black" points="696.5,-50.2208 696.5,-69.2208 863.5,-69.2208 863.5,-50.2208 696.5,-50.2208"/>
<text text-anchor="middle" x="780" y="-57.2208" font-family="Helvetica,sans-Serif" font-size="10.00">pocketmine\Server\getInstance</text>
</a>
</g>
</g>
<!-- Node4&#45;&gt;Node6 -->
<g id="edge5" class="edge"><title>Node4&#45;&gt;Node6</title>
<path fill="none" stroke="midnightblue" d="M617.527,-132.462C635.508,-116.683 665.751,-92.4693 696,-78.7208 701.431,-76.2521 707.213,-74.0896 713.1,-72.1981"/>
<polygon fill="midnightblue" stroke="midnightblue" points="714.458,-75.4467 723.062,-69.2644 712.481,-68.7318 714.458,-75.4467"/>
</g>
<!-- Node7 -->
<g id="node7" class="node"><title>Node7</title>
<g id="a_node7"><a xlink:href="../../d5/dc4/classpocketmine_1_1inventory_1_1_base_inventory.html#ad84dac811677e799d06924279a4288cc" target="_top" xlink:title="pocketmine\\inventory\l\\BaseInventory\\sendSlot">
<polygon fill="white" stroke="black" points="905.5,-72.7208 905.5,-102.721 1038.5,-102.721 1038.5,-72.7208 905.5,-72.7208"/>
<text text-anchor="start" x="913.5" y="-90.7208" font-family="Helvetica,sans-Serif" font-size="10.00">pocketmine\inventory</text>
<text text-anchor="middle" x="972" y="-79.7208" font-family="Helvetica,sans-Serif" font-size="10.00">\BaseInventory\sendSlot</text>
</a>
</g>
</g>
<!-- Node4&#45;&gt;Node7 -->
<g id="edge6" class="edge"><title>Node4&#45;&gt;Node7</title>
<path fill="none" stroke="midnightblue" d="M660.186,-147.951C713.947,-147.047 795.132,-142.891 864,-127.721 885.87,-122.903 909.266,-114.553 928.585,-106.724"/>
<polygon fill="midnightblue" stroke="midnightblue" points="930.104,-109.883 938.001,-102.82 927.423,-103.417 930.104,-109.883"/>
</g>
<!-- Node9 -->
<g id="node9" class="node"><title>Node9</title>
<g id="a_node9"><a xlink:href="../../d5/dc4/classpocketmine_1_1inventory_1_1_base_inventory.html#a65b280b6c12e1d4e5bcd4d0de3aa4a71" target="_top" xlink:title="pocketmine\\inventory\l\\BaseInventory\\getViewers">
<polygon fill="white" stroke="black" points="900.5,-214.721 900.5,-244.721 1043.5,-244.721 1043.5,-214.721 900.5,-214.721"/>
<text text-anchor="start" x="908.5" y="-232.721" font-family="Helvetica,sans-Serif" font-size="10.00">pocketmine\inventory</text>
<text text-anchor="middle" x="972" y="-221.721" font-family="Helvetica,sans-Serif" font-size="10.00">\BaseInventory\getViewers</text>
</a>
</g>
</g>
<!-- Node4&#45;&gt;Node9 -->
<g id="edge8" class="edge"><title>Node4&#45;&gt;Node9</title>
<path fill="none" stroke="midnightblue" d="M660.076,-160.24C713.418,-171.612 794.037,-188.967 864,-204.721 874.868,-207.168 886.345,-209.799 897.588,-212.404"/>
<polygon fill="midnightblue" stroke="midnightblue" points="896.854,-215.826 907.387,-214.68 898.438,-209.008 896.854,-215.826"/>
</g>
<!-- Node10 -->
<g id="node10" class="node"><title>Node10</title>
<g id="a_node10"><a xlink:href="../../d5/dc4/classpocketmine_1_1inventory_1_1_base_inventory.html#a372297a2da072277724b5a20453bb423" target="_top" xlink:title="pocketmine\\inventory\l\\BaseInventory\\onSlotChange">
<polygon fill="white" stroke="black" points="701,-214.721 701,-244.721 859,-244.721 859,-214.721 701,-214.721"/>
<text text-anchor="start" x="709" y="-232.721" font-family="Helvetica,sans-Serif" font-size="10.00">pocketmine\inventory</text>
<text text-anchor="middle" x="780" y="-221.721" font-family="Helvetica,sans-Serif" font-size="10.00">\BaseInventory\onSlotChange</text>
</a>
</g>
</g>
<!-- Node4&#45;&gt;Node10 -->
<g id="edge9" class="edge"><title>Node4&#45;&gt;Node10</title>
<path fill="none" stroke="midnightblue" d="M626.26,-162.94C645.096,-173.942 671.663,-188.741 696,-199.721 704.811,-203.696 714.32,-207.534 723.647,-211.061"/>
<polygon fill="midnightblue" stroke="midnightblue" points="722.672,-214.431 733.265,-214.616 725.099,-207.866 722.672,-214.431"/>
</g>
<!-- Node8 -->
<g id="node8" class="node"><title>Node8</title>
<g id="a_node8"><a xlink:href="../../d5/dc4/classpocketmine_1_1inventory_1_1_base_inventory.html#a8bc94c0515906b5c1f3af5600d89b3df" target="_top" xlink:title="pocketmine\\inventory\l\\BaseInventory\\getItem">
<polygon fill="white" stroke="black" points="1080,-20.7208 1080,-50.7208 1208,-50.7208 1208,-20.7208 1080,-20.7208"/>
<text text-anchor="start" x="1088" y="-38.7208" font-family="Helvetica,sans-Serif" font-size="10.00">pocketmine\inventory</text>
<text text-anchor="middle" x="1144" y="-27.7208" font-family="Helvetica,sans-Serif" font-size="10.00">\BaseInventory\getItem</text>
</a>
</g>
</g>
<!-- Node7&#45;&gt;Node8 -->
<g id="edge7" class="edge"><title>Node7&#45;&gt;Node8</title>
<path fill="none" stroke="midnightblue" d="M1022.17,-72.6802C1041.55,-66.7515 1063.98,-59.8921 1084.21,-53.7043"/>
<polygon fill="midnightblue" stroke="midnightblue" points="1085.4,-56.9996 1093.94,-50.7275 1083.35,-50.3057 1085.4,-56.9996"/>
</g>
<!-- Node10&#45;&gt;Node7 -->
<g id="edge10" class="edge"><title>Node10&#45;&gt;Node7</title>
<path fill="none" stroke="midnightblue" d="M801.333,-214.524C835.332,-189.115 903.797,-137.946 942.556,-108.979"/>
<polygon fill="midnightblue" stroke="midnightblue" points="944.898,-111.598 950.813,-102.808 940.707,-105.991 944.898,-111.598"/>
</g>
<!-- Node10&#45;&gt;Node9 -->
<g id="edge11" class="edge"><title>Node10&#45;&gt;Node9</title>
<path fill="none" stroke="midnightblue" d="M859.103,-229.721C869.312,-229.721 879.791,-229.721 890.047,-229.721"/>
<polygon fill="midnightblue" stroke="midnightblue" points="890.209,-233.221 900.209,-229.721 890.209,-226.221 890.209,-233.221"/>
</g>
<!-- Node11&#45;&gt;Node4 -->
<g id="edge13" class="edge"><title>Node11&#45;&gt;Node4</title>
<path fill="none" stroke="midnightblue" d="M494.933,-118.74C507.953,-122.366 521.987,-126.274 535.405,-130.011"/>
<polygon fill="midnightblue" stroke="midnightblue" points="534.47,-133.383 545.042,-132.695 536.348,-126.64 534.47,-133.383"/>
</g>
<!-- Node11&#45;&gt;Node5 -->
<g id="edge14" class="edge"><title>Node11&#45;&gt;Node5</title>
<path fill="none" stroke="midnightblue" d="M504.179,-103.721C559.811,-103.721 641.042,-103.721 700.768,-103.721"/>
<polygon fill="midnightblue" stroke="midnightblue" points="700.909,-107.221 710.909,-103.721 700.909,-100.221 700.909,-107.221"/>
</g>
<!-- Node11&#45;&gt;Node6 -->
<g id="edge15" class="edge"><title>Node11&#45;&gt;Node6</title>
<path fill="none" stroke="midnightblue" d="M504.179,-95.4963C558.276,-88.4541 636.578,-78.2609 695.775,-70.5548"/>
<polygon fill="midnightblue" stroke="midnightblue" points="696.384,-74.0051 705.849,-69.2434 695.481,-67.0637 696.384,-74.0051"/>
</g>
<!-- Node11&#45;&gt;Node7 -->
<g id="edge17" class="edge"><title>Node11&#45;&gt;Node7</title>
<path fill="none" stroke="midnightblue" d="M480.056,-88.6989C554.991,-61.9056 723.941,-11.3161 864,-40.7208 889.14,-45.9989 915.585,-57.5523 935.895,-67.8829"/>
<polygon fill="midnightblue" stroke="midnightblue" points="934.284,-70.99 944.769,-72.5164 937.524,-64.785 934.284,-70.99"/>
</g>
<!-- Node11&#45;&gt;Node8 -->
<g id="edge16" class="edge"><title>Node11&#45;&gt;Node8</title>
<path fill="none" stroke="midnightblue" d="M457.776,-88.7109C476.384,-73.0781 508.018,-49.4078 540,-38.7208 722.405,22.2319 953.537,-2.74987 1069.53,-21.7205"/>
<polygon fill="midnightblue" stroke="midnightblue" points="1069.28,-25.2261 1079.72,-23.4192 1070.43,-18.3215 1069.28,-25.2261"/>
</g>
<!-- Node11&#45;&gt;Node9 -->
<g id="edge18" class="edge"><title>Node11&#45;&gt;Node9</title>
<path fill="none" stroke="midnightblue" d="M452.032,-119.034C468.683,-141.075 502.319,-181.625 540,-204.721 601.961,-242.698 624.167,-242.705 696,-253.721 769.804,-265.039 789.787,-261.942 864,-253.721 877.269,-252.251 891.298,-249.785 904.674,-246.98"/>
<polygon fill="midnightblue" stroke="midnightblue" points="905.729,-250.332 914.752,-244.78 904.235,-243.493 905.729,-250.332"/>
</g>
<!-- Node11&#45;&gt;Node10 -->
<g id="edge19" class="edge"><title>Node11&#45;&gt;Node10</title>
<path fill="none" stroke="midnightblue" d="M458.765,-118.922C477.704,-134.376 509.156,-157.948 540,-171.721 587.763,-193.049 644.547,-207.246 690.779,-216.254"/>
<polygon fill="midnightblue" stroke="midnightblue" points="690.3,-219.725 700.777,-218.153 691.606,-212.848 690.3,-219.725"/>
</g>
</g>
</svg>
