<?xml version="1.0" encoding="UTF-8" standalone="no"?>
<!DOCTYPE svg PUBLIC "-//W3C//DTD SVG 1.1//EN"
 "http://www.w3.org/Graphics/SVG/1.1/DTD/svg11.dtd">
<!-- Generated by graphviz version 2.36.0 (20140111.2315)
 -->
<!-- Title: pocketmine\inventory\BaseInventory\clear Pages: 1 -->
<svg width="676pt" height="191pt"
 viewBox="0.00 0.00 676.00 191.05" xmlns="http://www.w3.org/2000/svg" xmlns:xlink="http://www.w3.org/1999/xlink">
<g id="graph0" class="graph" transform="scale(1 1) rotate(0) translate(4 187.047)">
<title>pocketmine\inventory\BaseInventory\clear</title>
<polygon fill="white" stroke="none" points="-4,4 -4,-187.047 672,-187.047 672,4 -4,4"/>
<!-- Node1 -->
<g id="node1" class="node"><title>Node1</title>
<polygon fill="#bfbfbf" stroke="black" points="0,-71.0473 0,-101.047 120,-101.047 120,-71.0473 0,-71.0473"/>
<text text-anchor="start" x="8" y="-89.0473" font-family="Helvetica,sans-Serif" font-size="10.00">pocketmine\inventory</text>
<text text-anchor="middle" x="60" y="-78.0473" font-family="Helvetica,sans-Serif" font-size="10.00">\BaseInventory\clear</text>
</g>
<!-- Node2 -->
<g id="node2" class="node"><title>Node2</title>
<g id="a_node2"><a xlink:href="../../d5/dc4/classpocketmine_1_1inventory_1_1_base_inventory.html#a17dc7367b4cee9f1029c38d52e448563" target="_top" xlink:title="pocketmine\\inventory\l\\BaseInventory\\getHolder">
<polygon fill="white" stroke="black" points="171,-153.047 171,-183.047 309,-183.047 309,-153.047 171,-153.047"/>
<text text-anchor="start" x="179" y="-171.047" font-family="Helvetica,sans-Serif" font-size="10.00">pocketmine\inventory</text>
<text text-anchor="middle" x="240" y="-160.047" font-family="Helvetica,sans-Serif" font-size="10.00">\BaseInventory\getHolder</text>
</a>
</g>
</g>
<!-- Node1&#45;&gt;Node2 -->
<g id="edge1" class="edge"><title>Node1&#45;&gt;Node2</title>
<path fill="none" stroke="midnightblue" d="M82.8037,-101.269C101.534,-113.812 129.615,-131.375 156,-143.047 161.29,-145.387 166.863,-147.588 172.514,-149.639"/>
<polygon fill="midnightblue" stroke="midnightblue" points="171.467,-152.981 182.062,-152.947 173.759,-146.367 171.467,-152.981"/>
</g>
<!-- Node3 -->
<g id="node3" class="node"><title>Node3</title>
<g id="a_node3"><a xlink:href="../../d5/df7/classpocketmine_1_1_server.html#a8d9b9873eb3c7efce048f10f803c2b2e" target="_top" xlink:title="pocketmine\\Server\\getInstance">
<polygon fill="white" stroke="black" points="156.5,-114.547 156.5,-133.547 323.5,-133.547 323.5,-114.547 156.5,-114.547"/>
<text text-anchor="middle" x="240" y="-121.547" font-family="Helvetica,sans-Serif" font-size="10.00">pocketmine\Server\getInstance</text>
</a>
</g>
</g>
<!-- Node1&#45;&gt;Node3 -->
<g id="edge2" class="edge"><title>Node1&#45;&gt;Node3</title>
<path fill="none" stroke="midnightblue" d="M120.271,-98.7007C140.949,-103.115 164.045,-108.046 184.331,-112.376"/>
<polygon fill="midnightblue" stroke="midnightblue" points="183.837,-115.85 194.347,-114.515 185.298,-109.004 183.837,-115.85"/>
</g>
<!-- Node4 -->
<g id="node4" class="node"><title>Node4</title>
<g id="a_node4"><a xlink:href="../../d5/dc4/classpocketmine_1_1inventory_1_1_base_inventory.html#a65b280b6c12e1d4e5bcd4d0de3aa4a71" target="_top" xlink:title="pocketmine\\inventory\l\\BaseInventory\\getViewers">
<polygon fill="white" stroke="black" points="360.5,-61.0473 360.5,-91.0473 503.5,-91.0473 503.5,-61.0473 360.5,-61.0473"/>
<text text-anchor="start" x="368.5" y="-79.0473" font-family="Helvetica,sans-Serif" font-size="10.00">pocketmine\inventory</text>
<text text-anchor="middle" x="432" y="-68.0473" font-family="Helvetica,sans-Serif" font-size="10.00">\BaseInventory\getViewers</text>
</a>
</g>
</g>
<!-- Node1&#45;&gt;Node4 -->
<g id="edge3" class="edge"><title>Node1&#45;&gt;Node4</title>
<path fill="none" stroke="midnightblue" d="M120.037,-84.4517C182.362,-82.7672 281.011,-80.101 350.453,-78.2242"/>
<polygon fill="midnightblue" stroke="midnightblue" points="350.577,-81.7222 360.479,-77.9532 350.388,-74.7248 350.577,-81.7222"/>
</g>
<!-- Node5 -->
<g id="node5" class="node"><title>Node5</title>
<g id="a_node5"><a xlink:href="../../d5/dc4/classpocketmine_1_1inventory_1_1_base_inventory.html#a372297a2da072277724b5a20453bb423" target="_top" xlink:title="pocketmine\\inventory\l\\BaseInventory\\onSlotChange">
<polygon fill="white" stroke="black" points="161,-27.0473 161,-57.0473 319,-57.0473 319,-27.0473 161,-27.0473"/>
<text text-anchor="start" x="169" y="-45.0473" font-family="Helvetica,sans-Serif" font-size="10.00">pocketmine\inventory</text>
<text text-anchor="middle" x="240" y="-34.0473" font-family="Helvetica,sans-Serif" font-size="10.00">\BaseInventory\onSlotChange</text>
</a>
</g>
</g>
<!-- Node1&#45;&gt;Node5 -->
<g id="edge4" class="edge"><title>Node1&#45;&gt;Node5</title>
<path fill="none" stroke="midnightblue" d="M120.271,-71.3959C135.682,-67.5866 152.435,-63.4453 168.368,-59.5069"/>
<polygon fill="midnightblue" stroke="midnightblue" points="169.295,-62.8832 178.163,-57.0857 167.615,-56.0878 169.295,-62.8832"/>
</g>
<!-- Node6 -->
<g id="node6" class="node"><title>Node6</title>
<g id="a_node6"><a xlink:href="../../d5/dc4/classpocketmine_1_1inventory_1_1_base_inventory.html#ad84dac811677e799d06924279a4288cc" target="_top" xlink:title="pocketmine\\inventory\l\\BaseInventory\\sendSlot">
<polygon fill="white" stroke="black" points="365.5,-2.04727 365.5,-32.0473 498.5,-32.0473 498.5,-2.04727 365.5,-2.04727"/>
<text text-anchor="start" x="373.5" y="-20.0473" font-family="Helvetica,sans-Serif" font-size="10.00">pocketmine\inventory</text>
<text text-anchor="middle" x="432" y="-9.04727" font-family="Helvetica,sans-Serif" font-size="10.00">\BaseInventory\sendSlot</text>
</a>
</g>
</g>
<!-- Node1&#45;&gt;Node6 -->
<g id="edge8" class="edge"><title>Node1&#45;&gt;Node6</title>
<path fill="none" stroke="midnightblue" d="M75.4132,-70.9433C92.6948,-54.0369 123.43,-27.6274 156,-17.0473 220.761,3.98969 298.719,1.58638 355.067,-4.6686"/>
<polygon fill="midnightblue" stroke="midnightblue" points="354.989,-8.18343 365.329,-5.87659 355.807,-1.23143 354.989,-8.18343"/>
</g>
<!-- Node5&#45;&gt;Node4 -->
<g id="edge5" class="edge"><title>Node5&#45;&gt;Node4</title>
<path fill="none" stroke="midnightblue" d="M319.103,-56.0236C329.312,-57.8506 339.791,-59.7257 350.047,-61.5609"/>
<polygon fill="midnightblue" stroke="midnightblue" points="349.749,-65.0632 360.209,-63.3795 350.982,-58.1726 349.749,-65.0632"/>
</g>
<!-- Node5&#45;&gt;Node6 -->
<g id="edge6" class="edge"><title>Node5&#45;&gt;Node6</title>
<path fill="none" stroke="midnightblue" d="M319.103,-31.7706C330.977,-30.2082 343.216,-28.5978 355.044,-27.0415"/>
<polygon fill="midnightblue" stroke="midnightblue" points="355.854,-30.4651 365.312,-25.6904 354.941,-23.5249 355.854,-30.4651"/>
</g>
<!-- Node7 -->
<g id="node7" class="node"><title>Node7</title>
<g id="a_node7"><a xlink:href="../../d5/dc4/classpocketmine_1_1inventory_1_1_base_inventory.html#a8bc94c0515906b5c1f3af5600d89b3df" target="_top" xlink:title="pocketmine\\inventory\l\\BaseInventory\\getItem">
<polygon fill="white" stroke="black" points="540,-2.04727 540,-32.0473 668,-32.0473 668,-2.04727 540,-2.04727"/>
<text text-anchor="start" x="548" y="-20.0473" font-family="Helvetica,sans-Serif" font-size="10.00">pocketmine\inventory</text>
<text text-anchor="middle" x="604" y="-9.04727" font-family="Helvetica,sans-Serif" font-size="10.00">\BaseInventory\getItem</text>
</a>
</g>
</g>
<!-- Node6&#45;&gt;Node7 -->
<g id="edge7" class="edge"><title>Node6&#45;&gt;Node7</title>
<path fill="none" stroke="midnightblue" d="M498.726,-17.0473C508.887,-17.0473 519.436,-17.0473 529.75,-17.0473"/>
<polygon fill="midnightblue" stroke="midnightblue" points="529.962,-20.5474 539.962,-17.0473 529.962,-13.5474 529.962,-20.5474"/>
</g>
</g>
</svg>
