<?xml version="1.0" encoding="UTF-8" standalone="no"?>
<!DOCTYPE svg PUBLIC "-//W3C//DTD SVG 1.1//EN"
 "http://www.w3.org/Graphics/SVG/1.1/DTD/svg11.dtd">
<!-- Generated by graphviz version 2.36.0 (20140111.2315)
 -->
<!-- Title: pocketmine\inventory\BaseInventory\onSlotChange Pages: 1 -->
<svg width="866pt" height="273pt"
 viewBox="0.00 0.00 866.00 273.00" xmlns="http://www.w3.org/2000/svg" xmlns:xlink="http://www.w3.org/1999/xlink">
<g id="graph0" class="graph" transform="scale(1 1) rotate(0) translate(4 269)">
<title>pocketmine\inventory\BaseInventory\onSlotChange</title>
<polygon fill="white" stroke="none" points="-4,4 -4,-269 862,-269 862,4 -4,4"/>
<!-- Node1 -->
<g id="node1" class="node"><title>Node1</title>
<polygon fill="#bfbfbf" stroke="black" points="0,-120 0,-150 158,-150 158,-120 0,-120"/>
<text text-anchor="start" x="8" y="-138" font-family="Helvetica,sans-Serif" font-size="10.00">pocketmine\inventory</text>
<text text-anchor="middle" x="79" y="-127" font-family="Helvetica,sans-Serif" font-size="10.00">\BaseInventory\onSlotChange</text>
</g>
<!-- Node2 -->
<g id="node2" class="node"><title>Node2</title>
<g id="a_node2"><a xlink:href="../../d5/dc4/classpocketmine_1_1inventory_1_1_base_inventory.html#a4e37b46b040119e90211c5078dd79662" target="_top" xlink:title="pocketmine\\inventory\l\\BaseInventory\\clear">
<polygon fill="white" stroke="black" points="194,-142 194,-172 314,-172 314,-142 194,-142"/>
<text text-anchor="start" x="202" y="-160" font-family="Helvetica,sans-Serif" font-size="10.00">pocketmine\inventory</text>
<text text-anchor="middle" x="254" y="-149" font-family="Helvetica,sans-Serif" font-size="10.00">\BaseInventory\clear</text>
</a>
</g>
</g>
<!-- Node1&#45;&gt;Node2 -->
<g id="edge1" class="edge"><title>Node1&#45;&gt;Node2</title>
<path fill="none" stroke="midnightblue" d="M168.303,-146.229C176.962,-147.33 185.596,-148.428 193.859,-149.479"/>
<polygon fill="midnightblue" stroke="midnightblue" points="168.51,-142.728 158.149,-144.938 167.627,-149.672 168.51,-142.728"/>
</g>
<!-- Node7 -->
<g id="node7" class="node"><title>Node7</title>
<g id="a_node7"><a xlink:href="../../d5/dc4/classpocketmine_1_1inventory_1_1_base_inventory.html#a99f7ddb22a3e614d55daefe9d4b9eaeb" target="_top" xlink:title="pocketmine\\inventory\l\\BaseInventory\\setItem">
<polygon fill="white" stroke="black" points="350,-98 350,-128 478,-128 478,-98 350,-98"/>
<text text-anchor="start" x="358" y="-116" font-family="Helvetica,sans-Serif" font-size="10.00">pocketmine\inventory</text>
<text text-anchor="middle" x="414" y="-105" font-family="Helvetica,sans-Serif" font-size="10.00">\BaseInventory\setItem</text>
</a>
</g>
</g>
<!-- Node1&#45;&gt;Node7 -->
<g id="edge11" class="edge"><title>Node1&#45;&gt;Node7</title>
<path fill="none" stroke="midnightblue" d="M168.193,-129.173C225.374,-125.396 298.513,-120.564 349.9,-117.169"/>
<polygon fill="midnightblue" stroke="midnightblue" points="167.821,-125.69 158.074,-129.842 168.283,-132.675 167.821,-125.69"/>
</g>
<!-- Node3 -->
<g id="node3" class="node"><title>Node3</title>
<g id="a_node3"><a xlink:href="../../d5/dc4/classpocketmine_1_1inventory_1_1_base_inventory.html#a4c7aef211a9628f380e7de98b49c4551" target="_top" xlink:title="pocketmine\\inventory\l\\BaseInventory\\clearAll">
<polygon fill="white" stroke="black" points="351.5,-235 351.5,-265 476.5,-265 476.5,-235 351.5,-235"/>
<text text-anchor="start" x="359.5" y="-253" font-family="Helvetica,sans-Serif" font-size="10.00">pocketmine\inventory</text>
<text text-anchor="middle" x="414" y="-242" font-family="Helvetica,sans-Serif" font-size="10.00">\BaseInventory\clearAll</text>
</a>
</g>
</g>
<!-- Node2&#45;&gt;Node3 -->
<g id="edge2" class="edge"><title>Node2&#45;&gt;Node3</title>
<path fill="none" stroke="midnightblue" d="M281.331,-178.515C299.787,-192.912 325.45,-211.604 350,-225 356.611,-228.607 363.854,-231.973 371,-234.994"/>
<polygon fill="midnightblue" stroke="midnightblue" points="283.404,-175.692 273.388,-172.237 279.063,-181.184 283.404,-175.692"/>
</g>
<!-- Node4 -->
<g id="node4" class="node"><title>Node4</title>
<g id="a_node4"><a xlink:href="../../d5/dc4/classpocketmine_1_1inventory_1_1_base_inventory.html#a5c676080faee6eaecdc04a70fcedf142" target="_top" xlink:title="pocketmine\\inventory\l\\BaseInventory\\remove">
<polygon fill="white" stroke="black" points="350,-186 350,-216 478,-216 478,-186 350,-186"/>
<text text-anchor="start" x="358" y="-204" font-family="Helvetica,sans-Serif" font-size="10.00">pocketmine\inventory</text>
<text text-anchor="middle" x="414" y="-193" font-family="Helvetica,sans-Serif" font-size="10.00">\BaseInventory\remove</text>
</a>
</g>
</g>
<!-- Node2&#45;&gt;Node4 -->
<g id="edge3" class="edge"><title>Node2&#45;&gt;Node4</title>
<path fill="none" stroke="midnightblue" d="M318.57,-174.703C331.986,-178.439 346.02,-182.347 359.042,-185.974"/>
<polygon fill="midnightblue" stroke="midnightblue" points="319.505,-171.33 308.933,-172.019 317.627,-178.074 319.505,-171.33"/>
</g>
<!-- Node5 -->
<g id="node5" class="node"><title>Node5</title>
<g id="a_node5"><a xlink:href="../../d5/dc4/classpocketmine_1_1inventory_1_1_base_inventory.html#a295a782543c002623d01ec47a6e93329" target="_top" xlink:title="pocketmine\\inventory\l\\BaseInventory\\setContents">
<polygon fill="white" stroke="black" points="520.5,-147 520.5,-177 669.5,-177 669.5,-147 520.5,-147"/>
<text text-anchor="start" x="528.5" y="-165" font-family="Helvetica,sans-Serif" font-size="10.00">pocketmine\inventory</text>
<text text-anchor="middle" x="595" y="-154" font-family="Helvetica,sans-Serif" font-size="10.00">\BaseInventory\setContents</text>
</a>
</g>
</g>
<!-- Node2&#45;&gt;Node5 -->
<g id="edge4" class="edge"><title>Node2&#45;&gt;Node5</title>
<path fill="none" stroke="midnightblue" d="M324.061,-158.019C381.125,-158.86 461.945,-160.052 520.259,-160.912"/>
<polygon fill="midnightblue" stroke="midnightblue" points="324.1,-154.519 314.049,-157.871 323.997,-161.518 324.1,-154.519"/>
</g>
<!-- Node2&#45;&gt;Node7 -->
<g id="edge6" class="edge"><title>Node2&#45;&gt;Node7</title>
<path fill="none" stroke="midnightblue" d="M318.57,-139.297C331.986,-135.561 346.02,-131.653 359.042,-128.026"/>
<polygon fill="midnightblue" stroke="midnightblue" points="317.627,-135.926 308.933,-141.981 319.505,-142.67 317.627,-135.926"/>
</g>
<!-- Node6 -->
<g id="node6" class="node"><title>Node6</title>
<g id="a_node6"><a xlink:href="../../d5/dc4/classpocketmine_1_1inventory_1_1_base_inventory.html#afaac83c7a4ade74f9bd461f68a48c30a" target="_top" xlink:title="pocketmine\\inventory\l\\BaseInventory\\__construct">
<polygon fill="white" stroke="black" points="712,-147 712,-177 858,-177 858,-147 712,-147"/>
<text text-anchor="start" x="720" y="-165" font-family="Helvetica,sans-Serif" font-size="10.00">pocketmine\inventory</text>
<text text-anchor="middle" x="785" y="-154" font-family="Helvetica,sans-Serif" font-size="10.00">\BaseInventory\__construct</text>
</a>
</g>
</g>
<!-- Node5&#45;&gt;Node6 -->
<g id="edge5" class="edge"><title>Node5&#45;&gt;Node6</title>
<path fill="none" stroke="midnightblue" d="M679.944,-162C690.637,-162 701.507,-162 711.989,-162"/>
<polygon fill="midnightblue" stroke="midnightblue" points="679.763,-158.5 669.763,-162 679.763,-165.5 679.763,-158.5"/>
</g>
<!-- Node7&#45;&gt;Node5 -->
<g id="edge7" class="edge"><title>Node7&#45;&gt;Node5</title>
<path fill="none" stroke="midnightblue" d="M479.836,-130.748C499.236,-136.059 520.313,-141.829 539.016,-146.948"/>
<polygon fill="midnightblue" stroke="midnightblue" points="480.736,-127.366 470.166,-128.101 478.888,-134.118 480.736,-127.366"/>
</g>
<!-- Node8 -->
<g id="node8" class="node"><title>Node8</title>
<g id="a_node8"><a xlink:href="../../dc/d34/classpocketmine_1_1inventory_1_1_furnace_inventory.html#a5c9e307818bee9a64b8aae1a3e4e58a9" target="_top" xlink:title="pocketmine\\inventory\l\\FurnaceInventory\\setFuel">
<polygon fill="white" stroke="black" points="526,-98 526,-128 664,-128 664,-98 526,-98"/>
<text text-anchor="start" x="534" y="-116" font-family="Helvetica,sans-Serif" font-size="10.00">pocketmine\inventory</text>
<text text-anchor="middle" x="595" y="-105" font-family="Helvetica,sans-Serif" font-size="10.00">\FurnaceInventory\setFuel</text>
</a>
</g>
</g>
<!-- Node7&#45;&gt;Node8 -->
<g id="edge8" class="edge"><title>Node7&#45;&gt;Node8</title>
<path fill="none" stroke="midnightblue" d="M488.426,-113C500.854,-113 513.709,-113 525.991,-113"/>
<polygon fill="midnightblue" stroke="midnightblue" points="488.109,-109.5 478.109,-113 488.109,-116.5 488.109,-109.5"/>
</g>
<!-- Node9 -->
<g id="node9" class="node"><title>Node9</title>
<g id="a_node9"><a xlink:href="../../dc/d34/classpocketmine_1_1inventory_1_1_furnace_inventory.html#ae1e7071536d244eadbf62472da3d51da" target="_top" xlink:title="pocketmine\\inventory\l\\FurnaceInventory\\setResult">
<polygon fill="white" stroke="black" points="521,-49 521,-79 669,-79 669,-49 521,-49"/>
<text text-anchor="start" x="529" y="-67" font-family="Helvetica,sans-Serif" font-size="10.00">pocketmine\inventory</text>
<text text-anchor="middle" x="595" y="-56" font-family="Helvetica,sans-Serif" font-size="10.00">\FurnaceInventory\setResult</text>
</a>
</g>
</g>
<!-- Node7&#45;&gt;Node9 -->
<g id="edge9" class="edge"><title>Node7&#45;&gt;Node9</title>
<path fill="none" stroke="midnightblue" d="M479.836,-95.2515C499.236,-89.9409 520.313,-84.1712 539.016,-79.0516"/>
<polygon fill="midnightblue" stroke="midnightblue" points="478.888,-91.8824 470.166,-97.8986 480.736,-98.634 478.888,-91.8824"/>
</g>
<!-- Node10 -->
<g id="node10" class="node"><title>Node10</title>
<g id="a_node10"><a xlink:href="../../dc/d34/classpocketmine_1_1inventory_1_1_furnace_inventory.html#a45d3b373d8adb32961d8d08fc970c3ec" target="_top" xlink:title="pocketmine\\inventory\l\\FurnaceInventory\\setSmelting">
<polygon fill="white" stroke="black" points="514,-0 514,-30 676,-30 676,-0 514,-0"/>
<text text-anchor="start" x="522" y="-18" font-family="Helvetica,sans-Serif" font-size="10.00">pocketmine\inventory</text>
<text text-anchor="middle" x="595" y="-7" font-family="Helvetica,sans-Serif" font-size="10.00">\FurnaceInventory\setSmelting</text>
</a>
</g>
</g>
<!-- Node7&#45;&gt;Node10 -->
<g id="edge10" class="edge"><title>Node7&#45;&gt;Node10</title>
<path fill="none" stroke="midnightblue" d="M438.925,-91.3078C458.045,-74.9556 486.165,-53.0231 514,-39 520.604,-35.6728 527.753,-32.7187 534.965,-30.1212"/>
<polygon fill="midnightblue" stroke="midnightblue" points="436.556,-88.7303 431.309,-97.9349 441.151,-94.0111 436.556,-88.7303"/>
</g>
</g>
</svg>
