<?xml version="1.0" encoding="UTF-8" standalone="no"?>
<!DOCTYPE svg PUBLIC "-//W3C//DTD SVG 1.1//EN"
 "http://www.w3.org/Graphics/SVG/1.1/DTD/svg11.dtd">
<!-- Generated by graphviz version 2.26.3 (20100126.1600)
 -->
<!-- Title: pocketmine\inventory\BaseInventory\getHolder Pages: 1 -->
<svg width="798pt" height="288pt"
 viewBox="0.00 0.00 798.00 288.00" xmlns="http://www.w3.org/2000/svg" xmlns:xlink="http://www.w3.org/1999/xlink">
<g id="graph1" class="graph" transform="scale(1 1) rotate(0) translate(4 284)">
<title>pocketmine\inventory\BaseInventory\getHolder</title>
<polygon fill="white" stroke="white" points="-4,5 -4,-284 795,-284 795,5 -4,5"/>
<!-- Node1 -->
<g id="node1" class="node"><title>Node1</title>
<polygon fill="#bfbfbf" stroke="black" points="0,-126 0,-160 128,-160 128,-126 0,-126"/>
<text text-anchor="start" x="8" y="-147" font-family="Helvetica,sans-Serif" font-size="10.00">pocketmine\inventory</text>
<text text-anchor="middle" x="64" y="-134" font-family="Helvetica,sans-Serif" font-size="10.00">\BaseInventory\getHolder</text>
</g>
<!-- Node2 -->
<g id="node3" class="node"><title>Node2</title>
<a xlink:href="../../d5/dc4/classpocketmine_1_1inventory_1_1_base_inventory.html#a4e37b46b040119e90211c5078dd79662" target="_top" xlink:title="pocketmine\\inventory\l\\BaseInventory\\clear">
<polygon fill="white" stroke="black" points="164,-149 164,-183 274,-183 274,-149 164,-149"/>
<text text-anchor="start" x="172" y="-170" font-family="Helvetica,sans-Serif" font-size="10.00">pocketmine\inventory</text>
<text text-anchor="middle" x="219" y="-157" font-family="Helvetica,sans-Serif" font-size="10.00">\BaseInventory\clear</text>
</a>
</g>
<!-- Node1&#45;&gt;Node2 -->
<g id="edge2" class="edge"><title>Node1&#45;&gt;Node2</title>
<path fill="none" stroke="midnightblue" d="M138.427,-154.044C147.02,-155.319 155.664,-156.602 163.935,-157.829"/>
<polygon fill="midnightblue" stroke="midnightblue" points="138.793,-150.56 128.387,-152.554 137.765,-157.484 138.793,-150.56"/>
</g>
<!-- Node7 -->
<g id="node13" class="node"><title>Node7</title>
<a xlink:href="../../d5/dc4/classpocketmine_1_1inventory_1_1_base_inventory.html#a99f7ddb22a3e614d55daefe9d4b9eaeb" target="_top" xlink:title="pocketmine\\inventory\l\\BaseInventory\\setItem">
<polygon fill="white" stroke="black" points="310.5,-104 310.5,-138 429.5,-138 429.5,-104 310.5,-104"/>
<text text-anchor="start" x="318.5" y="-125" font-family="Helvetica,sans-Serif" font-size="10.00">pocketmine\inventory</text>
<text text-anchor="middle" x="370" y="-112" font-family="Helvetica,sans-Serif" font-size="10.00">\BaseInventory\setItem</text>
</a>
</g>
<!-- Node1&#45;&gt;Node7 -->
<g id="edge22" class="edge"><title>Node1&#45;&gt;Node7</title>
<path fill="none" stroke="midnightblue" d="M138.14,-137.67C190.988,-133.87 261.11,-128.829 310.351,-125.288"/>
<polygon fill="midnightblue" stroke="midnightblue" points="137.871,-134.18 128.148,-138.388 138.373,-141.162 137.871,-134.18"/>
</g>
<!-- Node3 -->
<g id="node5" class="node"><title>Node3</title>
<a xlink:href="../../d5/dc4/classpocketmine_1_1inventory_1_1_base_inventory.html#a4c7aef211a9628f380e7de98b49c4551" target="_top" xlink:title="pocketmine\\inventory\l\\BaseInventory\\clearAll">
<polygon fill="white" stroke="black" points="311,-246 311,-280 429,-280 429,-246 311,-246"/>
<text text-anchor="start" x="319" y="-267" font-family="Helvetica,sans-Serif" font-size="10.00">pocketmine\inventory</text>
<text text-anchor="middle" x="370" y="-254" font-family="Helvetica,sans-Serif" font-size="10.00">\BaseInventory\clearAll</text>
</a>
</g>
<!-- Node2&#45;&gt;Node3 -->
<g id="edge4" class="edge"><title>Node2&#45;&gt;Node3</title>
<path fill="none" stroke="midnightblue" d="M245.884,-189.931C263.344,-204.706 287.048,-223.375 310,-237 315.369,-240.187 321.201,-243.205 327.048,-245.979"/>
<polygon fill="midnightblue" stroke="midnightblue" points="247.713,-186.888 237.845,-183.03 243.153,-192.2 247.713,-186.888"/>
</g>
<!-- Node4 -->
<g id="node7" class="node"><title>Node4</title>
<a xlink:href="../../d5/dc4/classpocketmine_1_1inventory_1_1_base_inventory.html#a5c676080faee6eaecdc04a70fcedf142" target="_top" xlink:title="pocketmine\\inventory\l\\BaseInventory\\remove">
<polygon fill="white" stroke="black" points="311,-194 311,-228 429,-228 429,-194 311,-194"/>
<text text-anchor="start" x="319" y="-215" font-family="Helvetica,sans-Serif" font-size="10.00">pocketmine\inventory</text>
<text text-anchor="middle" x="370" y="-202" font-family="Helvetica,sans-Serif" font-size="10.00">\BaseInventory\remove</text>
</a>
</g>
<!-- Node2&#45;&gt;Node4 -->
<g id="edge6" class="edge"><title>Node2&#45;&gt;Node4</title>
<path fill="none" stroke="midnightblue" d="M284.203,-185.431C293.741,-188.274 303.503,-191.183 312.865,-193.973"/>
<polygon fill="midnightblue" stroke="midnightblue" points="284.953,-182.003 274.369,-182.501 282.953,-188.711 284.953,-182.003"/>
</g>
<!-- Node5 -->
<g id="node9" class="node"><title>Node5</title>
<a xlink:href="../../d5/dc4/classpocketmine_1_1inventory_1_1_base_inventory.html#a295a782543c002623d01ec47a6e93329" target="_top" xlink:title="pocketmine\\inventory\l\\BaseInventory\\setContents">
<polygon fill="white" stroke="black" points="471.5,-156 471.5,-190 610.5,-190 610.5,-156 471.5,-156"/>
<text text-anchor="start" x="479.5" y="-177" font-family="Helvetica,sans-Serif" font-size="10.00">pocketmine\inventory</text>
<text text-anchor="middle" x="541" y="-164" font-family="Helvetica,sans-Serif" font-size="10.00">\BaseInventory\setContents</text>
</a>
</g>
<!-- Node2&#45;&gt;Node5 -->
<g id="edge8" class="edge"><title>Node2&#45;&gt;Node5</title>
<path fill="none" stroke="midnightblue" d="M284.556,-167.425C338.845,-168.605 415.792,-170.278 471.216,-171.483"/>
<polygon fill="midnightblue" stroke="midnightblue" points="284.428,-163.922 274.354,-167.203 284.275,-170.92 284.428,-163.922"/>
</g>
<!-- Node2&#45;&gt;Node7 -->
<g id="edge12" class="edge"><title>Node2&#45;&gt;Node7</title>
<path fill="none" stroke="midnightblue" d="M284.203,-146.569C293.741,-143.726 303.503,-140.817 312.865,-138.027"/>
<polygon fill="midnightblue" stroke="midnightblue" points="282.953,-143.289 274.369,-149.499 284.953,-149.997 282.953,-143.289"/>
</g>
<!-- Node6 -->
<g id="node11" class="node"><title>Node6</title>
<a xlink:href="../../d5/dc4/classpocketmine_1_1inventory_1_1_base_inventory.html#afaac83c7a4ade74f9bd461f68a48c30a" target="_top" xlink:title="pocketmine\\inventory\l\\BaseInventory\\__construct">
<polygon fill="white" stroke="black" points="652.5,-156 652.5,-190 789.5,-190 789.5,-156 652.5,-156"/>
<text text-anchor="start" x="660.5" y="-177" font-family="Helvetica,sans-Serif" font-size="10.00">pocketmine\inventory</text>
<text text-anchor="middle" x="721" y="-164" font-family="Helvetica,sans-Serif" font-size="10.00">\BaseInventory\__construct</text>
</a>
</g>
<!-- Node5&#45;&gt;Node6 -->
<g id="edge10" class="edge"><title>Node5&#45;&gt;Node6</title>
<path fill="none" stroke="midnightblue" d="M620.682,-173C631.288,-173 642.088,-173 652.481,-173"/>
<polygon fill="midnightblue" stroke="midnightblue" points="620.593,-169.5 610.593,-173 620.593,-176.5 620.593,-169.5"/>
</g>
<!-- Node7&#45;&gt;Node5 -->
<g id="edge14" class="edge"><title>Node7&#45;&gt;Node5</title>
<path fill="none" stroke="midnightblue" d="M435.907,-141.042C452.073,-145.958 469.226,-151.174 484.882,-155.935"/>
<polygon fill="midnightblue" stroke="midnightblue" points="436.578,-137.588 425.992,-138.027 434.541,-144.285 436.578,-137.588"/>
</g>
<!-- Node8 -->
<g id="node16" class="node"><title>Node8</title>
<a xlink:href="../../dc/d34/classpocketmine_1_1inventory_1_1_furnace_inventory.html#a5c9e307818bee9a64b8aae1a3e4e58a9" target="_top" xlink:title="pocketmine\\inventory\l\\FurnaceInventory\\setFuel">
<polygon fill="white" stroke="black" points="475.5,-104 475.5,-138 606.5,-138 606.5,-104 475.5,-104"/>
<text text-anchor="start" x="483.5" y="-125" font-family="Helvetica,sans-Serif" font-size="10.00">pocketmine\inventory</text>
<text text-anchor="middle" x="541" y="-112" font-family="Helvetica,sans-Serif" font-size="10.00">\FurnaceInventory\setFuel</text>
</a>
</g>
<!-- Node7&#45;&gt;Node8 -->
<g id="edge16" class="edge"><title>Node7&#45;&gt;Node8</title>
<path fill="none" stroke="midnightblue" d="M439.973,-121C451.684,-121 463.798,-121 475.395,-121"/>
<polygon fill="midnightblue" stroke="midnightblue" points="439.808,-117.5 429.808,-121 439.807,-124.5 439.808,-117.5"/>
</g>
<!-- Node9 -->
<g id="node18" class="node"><title>Node9</title>
<a xlink:href="../../dc/d34/classpocketmine_1_1inventory_1_1_furnace_inventory.html#ae1e7071536d244eadbf62472da3d51da" target="_top" xlink:title="pocketmine\\inventory\l\\FurnaceInventory\\setResult">
<polygon fill="white" stroke="black" points="471,-52 471,-86 611,-86 611,-52 471,-52"/>
<text text-anchor="start" x="479" y="-73" font-family="Helvetica,sans-Serif" font-size="10.00">pocketmine\inventory</text>
<text text-anchor="middle" x="541" y="-60" font-family="Helvetica,sans-Serif" font-size="10.00">\FurnaceInventory\setResult</text>
</a>
</g>
<!-- Node7&#45;&gt;Node9 -->
<g id="edge18" class="edge"><title>Node7&#45;&gt;Node9</title>
<path fill="none" stroke="midnightblue" d="M435.907,-100.958C452.073,-96.0422 469.226,-90.8261 484.882,-86.065"/>
<polygon fill="midnightblue" stroke="midnightblue" points="434.541,-97.7152 425.992,-103.973 436.578,-104.412 434.541,-97.7152"/>
</g>
<!-- Node10 -->
<g id="node20" class="node"><title>Node10</title>
<a xlink:href="../../dc/d34/classpocketmine_1_1inventory_1_1_furnace_inventory.html#a45d3b373d8adb32961d8d08fc970c3ec" target="_top" xlink:title="pocketmine\\inventory\l\\FurnaceInventory\\setSmelting">
<polygon fill="white" stroke="black" points="466,-0 466,-34 616,-34 616,-0 466,-0"/>
<text text-anchor="start" x="474" y="-21" font-family="Helvetica,sans-Serif" font-size="10.00">pocketmine\inventory</text>
<text text-anchor="middle" x="541" y="-8" font-family="Helvetica,sans-Serif" font-size="10.00">\FurnaceInventory\setSmelting</text>
</a>
</g>
<!-- Node7&#45;&gt;Node10 -->
<g id="edge20" class="edge"><title>Node7&#45;&gt;Node10</title>
<path fill="none" stroke="midnightblue" d="M394.746,-96.7927C413.156,-79.8558 439.568,-57.7159 466,-43 471.9,-39.7152 478.289,-36.7353 484.764,-34.064"/>
<polygon fill="midnightblue" stroke="midnightblue" points="392.279,-94.3076 387.369,-103.696 397.062,-99.4187 392.279,-94.3076"/>
</g>
</g>
</svg>
