<?xml version="1.0" encoding="UTF-8" standalone="no"?>
<!DOCTYPE svg PUBLIC "-//W3C//DTD SVG 1.1//EN"
 "http://www.w3.org/Graphics/SVG/1.1/DTD/svg11.dtd">
<!-- Generated by graphviz version 2.26.3 (20100126.1600)
 -->
<!-- Title: pocketmine\inventory\BaseInventory\getContents Pages: 1 -->
<svg width="306pt" height="250pt"
 viewBox="0.00 0.00 306.00 250.00" xmlns="http://www.w3.org/2000/svg" xmlns:xlink="http://www.w3.org/1999/xlink">
<g id="graph1" class="graph" transform="scale(1 1) rotate(0) translate(4 246)">
<title>pocketmine\inventory\BaseInventory\getContents</title>
<polygon fill="white" stroke="white" points="-4,5 -4,-246 303,-246 303,5 -4,5"/>
<!-- Node1 -->
<g id="node1" class="node"><title>Node1</title>
<polygon fill="#bfbfbf" stroke="black" points="0.5,-104 0.5,-138 139.5,-138 139.5,-104 0.5,-104"/>
<text text-anchor="start" x="8.5" y="-125" font-family="Helvetica,sans-Serif" font-size="10.00">pocketmine\inventory</text>
<text text-anchor="middle" x="70" y="-112" font-family="Helvetica,sans-Serif" font-size="10.00">\BaseInventory\getContents</text>
</g>
<!-- Node2 -->
<g id="node3" class="node"><title>Node2</title>
<a xlink:href="../../d5/dc4/classpocketmine_1_1inventory_1_1_base_inventory.html#a9e8a9a58178c93680c225de229606fec" target="_top" xlink:title="pocketmine\\inventory\l\\BaseInventory\\all">
<polygon fill="white" stroke="black" points="182,-208 182,-242 292,-242 292,-208 182,-208"/>
<text text-anchor="start" x="190" y="-229" font-family="Helvetica,sans-Serif" font-size="10.00">pocketmine\inventory</text>
<text text-anchor="middle" x="237" y="-216" font-family="Helvetica,sans-Serif" font-size="10.00">\BaseInventory\all</text>
</a>
</g>
<!-- Node1&#45;&gt;Node2 -->
<g id="edge2" class="edge"><title>Node1&#45;&gt;Node2</title>
<path fill="none" stroke="midnightblue" d="M98.1804,-144.544C118.862,-161.107 148.095,-183.073 176,-199 181.499,-202.139 187.451,-205.129 193.407,-207.889"/>
<polygon fill="midnightblue" stroke="midnightblue" points="100.118,-141.609 90.1448,-138.035 95.7124,-147.049 100.118,-141.609"/>
</g>
<!-- Node3 -->
<g id="node5" class="node"><title>Node3</title>
<a xlink:href="../../d5/dc4/classpocketmine_1_1inventory_1_1_base_inventory.html#a4c7aef211a9628f380e7de98b49c4551" target="_top" xlink:title="pocketmine\\inventory\l\\BaseInventory\\clearAll">
<polygon fill="white" stroke="black" points="178,-156 178,-190 296,-190 296,-156 178,-156"/>
<text text-anchor="start" x="186" y="-177" font-family="Helvetica,sans-Serif" font-size="10.00">pocketmine\inventory</text>
<text text-anchor="middle" x="237" y="-164" font-family="Helvetica,sans-Serif" font-size="10.00">\BaseInventory\clearAll</text>
</a>
</g>
<!-- Node1&#45;&gt;Node3 -->
<g id="edge4" class="edge"><title>Node1&#45;&gt;Node3</title>
<path fill="none" stroke="midnightblue" d="M134.366,-141.042C150.153,-145.958 166.905,-151.174 182.195,-155.935"/>
<polygon fill="midnightblue" stroke="midnightblue" points="135.27,-137.658 124.682,-138.027 133.189,-144.342 135.27,-137.658"/>
</g>
<!-- Node4 -->
<g id="node7" class="node"><title>Node4</title>
<a xlink:href="../../d5/dc4/classpocketmine_1_1inventory_1_1_base_inventory.html#aa2d57d9cb0e9cbb043329c99539706ef" target="_top" xlink:title="pocketmine\\inventory\l\\BaseInventory\\contains">
<polygon fill="white" stroke="black" points="176,-104 176,-138 298,-138 298,-104 176,-104"/>
<text text-anchor="start" x="184" y="-125" font-family="Helvetica,sans-Serif" font-size="10.00">pocketmine\inventory</text>
<text text-anchor="middle" x="237" y="-112" font-family="Helvetica,sans-Serif" font-size="10.00">\BaseInventory\contains</text>
</a>
</g>
<!-- Node1&#45;&gt;Node4 -->
<g id="edge6" class="edge"><title>Node1&#45;&gt;Node4</title>
<path fill="none" stroke="midnightblue" d="M150.029,-121C158.735,-121 167.492,-121 175.919,-121"/>
<polygon fill="midnightblue" stroke="midnightblue" points="149.855,-117.5 139.855,-121 149.855,-124.5 149.855,-117.5"/>
</g>
<!-- Node5 -->
<g id="node9" class="node"><title>Node5</title>
<a xlink:href="../../d5/dc4/classpocketmine_1_1inventory_1_1_base_inventory.html#a971ca115595b2883c91a02ea0a5b7732" target="_top" xlink:title="pocketmine\\inventory\l\\BaseInventory\\first">
<polygon fill="white" stroke="black" points="182,-52 182,-86 292,-86 292,-52 182,-52"/>
<text text-anchor="start" x="190" y="-73" font-family="Helvetica,sans-Serif" font-size="10.00">pocketmine\inventory</text>
<text text-anchor="middle" x="237" y="-60" font-family="Helvetica,sans-Serif" font-size="10.00">\BaseInventory\first</text>
</a>
</g>
<!-- Node1&#45;&gt;Node5 -->
<g id="edge8" class="edge"><title>Node1&#45;&gt;Node5</title>
<path fill="none" stroke="midnightblue" d="M134.366,-100.958C150.153,-96.0422 166.905,-90.8261 182.195,-86.065"/>
<polygon fill="midnightblue" stroke="midnightblue" points="133.189,-97.6585 124.682,-103.973 135.27,-104.342 133.189,-97.6585"/>
</g>
<!-- Node6 -->
<g id="node11" class="node"><title>Node6</title>
<a xlink:href="../../d5/dc4/classpocketmine_1_1inventory_1_1_base_inventory.html#a5c676080faee6eaecdc04a70fcedf142" target="_top" xlink:title="pocketmine\\inventory\l\\BaseInventory\\remove">
<polygon fill="white" stroke="black" points="178,-0 178,-34 296,-34 296,-0 178,-0"/>
<text text-anchor="start" x="186" y="-21" font-family="Helvetica,sans-Serif" font-size="10.00">pocketmine\inventory</text>
<text text-anchor="middle" x="237" y="-8" font-family="Helvetica,sans-Serif" font-size="10.00">\BaseInventory\remove</text>
</a>
</g>
<!-- Node1&#45;&gt;Node6 -->
<g id="edge10" class="edge"><title>Node1&#45;&gt;Node6</title>
<path fill="none" stroke="midnightblue" d="M98.1804,-97.4565C118.862,-80.8926 148.095,-58.9271 176,-43 181.499,-39.8614 187.451,-36.8712 193.407,-34.1107"/>
<polygon fill="midnightblue" stroke="midnightblue" points="95.7124,-94.9514 90.1448,-103.965 100.118,-100.391 95.7124,-94.9514"/>
</g>
</g>
</svg>
