<?xml version="1.0" encoding="UTF-8" standalone="no"?>
<!DOCTYPE svg PUBLIC "-//W3C//DTD SVG 1.1//EN"
 "http://www.w3.org/Graphics/SVG/1.1/DTD/svg11.dtd">
<!-- Generated by graphviz version 2.26.3 (20100126.1600)
 -->
<!-- Title: pocketmine\inventory\BaseInventory\getViewers Pages: 1 -->
<svg width="1018pt" height="416pt"
 viewBox="0.00 0.00 1018.00 416.06" xmlns="http://www.w3.org/2000/svg" xmlns:xlink="http://www.w3.org/1999/xlink">
<g id="graph1" class="graph" transform="scale(1 1) rotate(0) translate(4 412.058)">
<title>pocketmine\inventory\BaseInventory\getViewers</title>
<polygon fill="white" stroke="white" points="-4,5 -4,-412.058 1015,-412.058 1015,5 -4,5"/>
<!-- Node1 -->
<g id="node1" class="node"><title>Node1</title>
<polygon fill="#bfbfbf" stroke="black" points="0,-228 0,-262 134,-262 134,-228 0,-228"/>
<text text-anchor="start" x="8" y="-249" font-family="Helvetica,sans-Serif" font-size="10.00">pocketmine\inventory</text>
<text text-anchor="middle" x="67" y="-236" font-family="Helvetica,sans-Serif" font-size="10.00">\BaseInventory\getViewers</text>
</g>
<!-- Node2 -->
<g id="node3" class="node"><title>Node2</title>
<a xlink:href="../../dc/d77/classpocketmine_1_1inventory_1_1_player_inventory.html#a1b9f22225b0a8cee8cd57855c02724ab" target="_top" xlink:title="pocketmine\\inventory\l\\PlayerInventory\\clear">
<polygon fill="white" stroke="black" points="358,-292 358,-326 470,-326 470,-292 358,-292"/>
<text text-anchor="start" x="366" y="-313" font-family="Helvetica,sans-Serif" font-size="10.00">pocketmine\inventory</text>
<text text-anchor="middle" x="414" y="-300" font-family="Helvetica,sans-Serif" font-size="10.00">\PlayerInventory\clear</text>
</a>
</g>
<!-- Node1&#45;&gt;Node2 -->
<g id="edge2" class="edge"><title>Node1&#45;&gt;Node2</title>
<path fill="none" stroke="midnightblue" d="M116.953,-265.607C133.58,-271.745 152.36,-277.915 170,-282 233.32,-296.662 307.786,-303.436 357.65,-306.518"/>
<polygon fill="midnightblue" stroke="midnightblue" points="118.029,-262.272 107.437,-262.013 115.556,-268.82 118.029,-262.272"/>
</g>
<!-- Node5 -->
<g id="node9" class="node"><title>Node5</title>
<a xlink:href="../../dc/d77/classpocketmine_1_1inventory_1_1_player_inventory.html#aa2c8b45b25cac829ee9316dd5b7b5931" target="_top" xlink:title="pocketmine\\inventory\l\\PlayerInventory\\setItem">
<polygon fill="white" stroke="black" points="506,-344 506,-378 630,-378 630,-344 506,-344"/>
<text text-anchor="start" x="514" y="-365" font-family="Helvetica,sans-Serif" font-size="10.00">pocketmine\inventory</text>
<text text-anchor="middle" x="568" y="-352" font-family="Helvetica,sans-Serif" font-size="10.00">\PlayerInventory\setItem</text>
</a>
</g>
<!-- Node1&#45;&gt;Node5 -->
<g id="edge52" class="edge"><title>Node1&#45;&gt;Node5</title>
<path fill="none" stroke="midnightblue" d="M78.6746,-271.625C94.2786,-303.455 125.258,-355.161 170,-377 283.104,-432.207 436.55,-400.83 515.811,-378.077"/>
<polygon fill="midnightblue" stroke="midnightblue" points="81.7689,-269.982 74.3273,-262.44 75.4418,-272.976 81.7689,-269.982"/>
</g>
<!-- Node7 -->
<g id="node14" class="node"><title>Node7</title>
<a xlink:href="../../d5/dc4/classpocketmine_1_1inventory_1_1_base_inventory.html#a4e37b46b040119e90211c5078dd79662" target="_top" xlink:title="pocketmine\\inventory\l\\BaseInventory\\clear">
<polygon fill="white" stroke="black" points="359,-149 359,-183 469,-183 469,-149 359,-149"/>
<text text-anchor="start" x="367" y="-170" font-family="Helvetica,sans-Serif" font-size="10.00">pocketmine\inventory</text>
<text text-anchor="middle" x="414" y="-157" font-family="Helvetica,sans-Serif" font-size="10.00">\BaseInventory\clear</text>
</a>
</g>
<!-- Node1&#45;&gt;Node7 -->
<g id="edge14" class="edge"><title>Node1&#45;&gt;Node7</title>
<path fill="none" stroke="midnightblue" d="M144.248,-260.882C196.222,-268.085 265.336,-270.783 322,-249 356.335,-235.801 385.85,-203.202 401.664,-183.009"/>
<polygon fill="midnightblue" stroke="midnightblue" points="144.493,-257.38 134.09,-259.387 143.474,-264.305 144.493,-257.38"/>
</g>
<!-- Node12 -->
<g id="node24" class="node"><title>Node12</title>
<a xlink:href="../../d5/dc4/classpocketmine_1_1inventory_1_1_base_inventory.html#a99f7ddb22a3e614d55daefe9d4b9eaeb" target="_top" xlink:title="pocketmine\\inventory\l\\BaseInventory\\setItem">
<polygon fill="white" stroke="black" points="508.5,-59 508.5,-93 627.5,-93 627.5,-59 508.5,-59"/>
<text text-anchor="start" x="516.5" y="-80" font-family="Helvetica,sans-Serif" font-size="10.00">pocketmine\inventory</text>
<text text-anchor="middle" x="568" y="-67" font-family="Helvetica,sans-Serif" font-size="10.00">\BaseInventory\setItem</text>
</a>
</g>
<!-- Node1&#45;&gt;Node12 -->
<g id="edge50" class="edge"><title>Node1&#45;&gt;Node12</title>
<path fill="none" stroke="midnightblue" d="M76.3988,-218.103C90.5,-182.329 120.849,-120.426 170,-93 276.898,-33.3511 426.237,-48.0587 508.227,-62.8165"/>
<polygon fill="midnightblue" stroke="midnightblue" points="72.9666,-217.283 72.6954,-227.874 79.5123,-219.764 72.9666,-217.283"/>
</g>
<!-- Node16 -->
<g id="node33" class="node"><title>Node16</title>
<a xlink:href="../../d3/dd8/classpocketmine_1_1inventory_1_1_chest_inventory.html#affd188f523d964cb81d7edb052ada726" target="_top" xlink:title="pocketmine\\inventory\l\\ChestInventory\\onClose">
<polygon fill="white" stroke="black" points="183.5,-206 183.5,-240 308.5,-240 308.5,-206 183.5,-206"/>
<text text-anchor="start" x="191.5" y="-227" font-family="Helvetica,sans-Serif" font-size="10.00">pocketmine\inventory</text>
<text text-anchor="middle" x="246" y="-214" font-family="Helvetica,sans-Serif" font-size="10.00">\ChestInventory\onClose</text>
</a>
</g>
<!-- Node1&#45;&gt;Node16 -->
<g id="edge34" class="edge"><title>Node1&#45;&gt;Node16</title>
<path fill="none" stroke="midnightblue" d="M144.125,-235.521C157.272,-233.905 170.781,-232.245 183.49,-230.683"/>
<polygon fill="midnightblue" stroke="midnightblue" points="143.661,-232.052 134.162,-236.745 144.515,-238.999 143.661,-232.052"/>
</g>
<!-- Node17 -->
<g id="node35" class="node"><title>Node17</title>
<a xlink:href="../../d3/dd8/classpocketmine_1_1inventory_1_1_chest_inventory.html#a481f71f9f51ed8bb690ed492006c30f2" target="_top" xlink:title="pocketmine\\inventory\l\\ChestInventory\\onOpen">
<polygon fill="white" stroke="black" points="184.5,-154 184.5,-188 307.5,-188 307.5,-154 184.5,-154"/>
<text text-anchor="start" x="192.5" y="-175" font-family="Helvetica,sans-Serif" font-size="10.00">pocketmine\inventory</text>
<text text-anchor="middle" x="246" y="-162" font-family="Helvetica,sans-Serif" font-size="10.00">\ChestInventory\onOpen</text>
</a>
</g>
<!-- Node1&#45;&gt;Node17 -->
<g id="edge36" class="edge"><title>Node1&#45;&gt;Node17</title>
<path fill="none" stroke="midnightblue" d="M110.58,-223.437C128.757,-214.773 150.209,-204.971 170,-197 177.632,-193.926 185.783,-190.888 193.808,-188.033"/>
<polygon fill="midnightblue" stroke="midnightblue" points="108.897,-220.363 101.399,-227.849 111.929,-226.673 108.897,-220.363"/>
</g>
<!-- Node18 -->
<g id="node37" class="node"><title>Node18</title>
<a xlink:href="../../dc/d77/classpocketmine_1_1inventory_1_1_player_inventory.html#ad3878f887e75d92f3164e4d78fd40fab" target="_top" xlink:title="pocketmine\\inventory\l\\PlayerInventory\\onSlotChange">
<polygon fill="white" stroke="black" points="170,-334 170,-368 322,-368 322,-334 170,-334"/>
<text text-anchor="start" x="178" y="-355" font-family="Helvetica,sans-Serif" font-size="10.00">pocketmine\inventory</text>
<text text-anchor="middle" x="246" y="-342" font-family="Helvetica,sans-Serif" font-size="10.00">\PlayerInventory\onSlotChange</text>
</a>
</g>
<!-- Node1&#45;&gt;Node18 -->
<g id="edge38" class="edge"><title>Node1&#45;&gt;Node18</title>
<path fill="none" stroke="midnightblue" d="M95.1041,-268.346C115.136,-284.249 143.166,-305.049 170,-320 179.087,-325.063 189.172,-329.759 198.946,-333.886"/>
<polygon fill="midnightblue" stroke="midnightblue" points="97.2916,-265.614 87.3036,-262.079 92.9075,-271.071 97.2916,-265.614"/>
</g>
<!-- Node19 -->
<g id="node41" class="node"><title>Node19</title>
<a xlink:href="../../d5/dc4/classpocketmine_1_1inventory_1_1_base_inventory.html#a372297a2da072277724b5a20453bb423" target="_top" xlink:title="pocketmine\\inventory\l\\BaseInventory\\onSlotChange">
<polygon fill="white" stroke="black" points="172.5,-102 172.5,-136 319.5,-136 319.5,-102 172.5,-102"/>
<text text-anchor="start" x="180.5" y="-123" font-family="Helvetica,sans-Serif" font-size="10.00">pocketmine\inventory</text>
<text text-anchor="middle" x="246" y="-110" font-family="Helvetica,sans-Serif" font-size="10.00">\BaseInventory\onSlotChange</text>
</a>
</g>
<!-- Node1&#45;&gt;Node19 -->
<g id="edge44" class="edge"><title>Node1&#45;&gt;Node19</title>
<path fill="none" stroke="midnightblue" d="M87.0805,-220.003C106.268,-197.582 137.075,-165.192 170,-145 175.468,-141.646 181.425,-138.659 187.519,-136.013"/>
<polygon fill="midnightblue" stroke="midnightblue" points="84.307,-217.863 80.5546,-227.771 89.6668,-222.366 84.307,-217.863"/>
</g>
<!-- Node3 -->
<g id="node5" class="node"><title>Node3</title>
<a xlink:href="../../dc/d77/classpocketmine_1_1inventory_1_1_player_inventory.html#a75d7d59372f2f6e2ced5364aac6a930c" target="_top" xlink:title="pocketmine\\inventory\l\\PlayerInventory\\clearAll">
<polygon fill="white" stroke="black" points="506.5,-292 506.5,-326 629.5,-326 629.5,-292 506.5,-292"/>
<text text-anchor="start" x="514.5" y="-313" font-family="Helvetica,sans-Serif" font-size="10.00">pocketmine\inventory</text>
<text text-anchor="middle" x="568" y="-300" font-family="Helvetica,sans-Serif" font-size="10.00">\PlayerInventory\clearAll</text>
</a>
</g>
<!-- Node2&#45;&gt;Node3 -->
<g id="edge4" class="edge"><title>Node2&#45;&gt;Node3</title>
<path fill="none" stroke="midnightblue" d="M480.115,-309C488.801,-309 497.675,-309 506.283,-309"/>
<polygon fill="midnightblue" stroke="midnightblue" points="480.033,-305.5 470.033,-309 480.033,-312.5 480.033,-305.5"/>
</g>
<!-- Node4 -->
<g id="node7" class="node"><title>Node4</title>
<a xlink:href="../../dc/d77/classpocketmine_1_1inventory_1_1_player_inventory.html#aad6eea0b7a857bd16a25329e41cbcf3d" target="_top" xlink:title="pocketmine\\inventory\l\\PlayerInventory\\setArmorContents">
<polygon fill="white" stroke="black" points="666,-270 666,-304 836,-304 836,-270 666,-270"/>
<text text-anchor="start" x="674" y="-291" font-family="Helvetica,sans-Serif" font-size="10.00">pocketmine\inventory</text>
<text text-anchor="middle" x="751" y="-278" font-family="Helvetica,sans-Serif" font-size="10.00">\PlayerInventory\setArmorContents</text>
</a>
</g>
<!-- Node2&#45;&gt;Node4 -->
<g id="edge6" class="edge"><title>Node2&#45;&gt;Node4</title>
<path fill="none" stroke="midnightblue" d="M474.794,-289.288C485.106,-286.676 495.784,-284.416 506,-283 558.777,-275.686 618.558,-276.486 665.855,-279.211"/>
<polygon fill="midnightblue" stroke="midnightblue" points="473.808,-285.928 465.045,-291.883 475.609,-292.693 473.808,-285.928"/>
</g>
<!-- Node2&#45;&gt;Node5 -->
<g id="edge8" class="edge"><title>Node2&#45;&gt;Node5</title>
<path fill="none" stroke="midnightblue" d="M474.18,-329.321C488.496,-334.154 503.627,-339.264 517.461,-343.935"/>
<polygon fill="midnightblue" stroke="midnightblue" points="475.02,-325.91 464.425,-326.027 472.78,-332.542 475.02,-325.91"/>
</g>
<!-- Node5&#45;&gt;Node4 -->
<g id="edge12" class="edge"><title>Node5&#45;&gt;Node4</title>
<path fill="none" stroke="midnightblue" d="M619.731,-340.081C647.883,-328.698 682.27,-314.792 708.786,-304.07"/>
<polygon fill="midnightblue" stroke="midnightblue" points="618.402,-336.843 610.444,-343.837 621.027,-343.333 618.402,-336.843"/>
</g>
<!-- Node6 -->
<g id="node11" class="node"><title>Node6</title>
<a xlink:href="../../dc/d77/classpocketmine_1_1inventory_1_1_player_inventory.html#aea00deec1dff34be27e648a71f3cfaa3" target="_top" xlink:title="pocketmine\\inventory\l\\PlayerInventory\\setItemInHand">
<polygon fill="white" stroke="black" points="673.5,-344 673.5,-378 828.5,-378 828.5,-344 673.5,-344"/>
<text text-anchor="start" x="681.5" y="-365" font-family="Helvetica,sans-Serif" font-size="10.00">pocketmine\inventory</text>
<text text-anchor="middle" x="751" y="-352" font-family="Helvetica,sans-Serif" font-size="10.00">\PlayerInventory\setItemInHand</text>
</a>
</g>
<!-- Node5&#45;&gt;Node6 -->
<g id="edge10" class="edge"><title>Node5&#45;&gt;Node6</title>
<path fill="none" stroke="midnightblue" d="M640.455,-361C651.28,-361 662.478,-361 673.405,-361"/>
<polygon fill="midnightblue" stroke="midnightblue" points="640.211,-357.5 630.211,-361 640.211,-364.5 640.211,-357.5"/>
</g>
<!-- Node8 -->
<g id="node16" class="node"><title>Node8</title>
<a xlink:href="../../d5/dc4/classpocketmine_1_1inventory_1_1_base_inventory.html#a4c7aef211a9628f380e7de98b49c4551" target="_top" xlink:title="pocketmine\\inventory\l\\BaseInventory\\clearAll">
<polygon fill="white" stroke="black" points="509,-111 509,-145 627,-145 627,-111 509,-111"/>
<text text-anchor="start" x="517" y="-132" font-family="Helvetica,sans-Serif" font-size="10.00">pocketmine\inventory</text>
<text text-anchor="middle" x="568" y="-119" font-family="Helvetica,sans-Serif" font-size="10.00">\BaseInventory\clearAll</text>
</a>
</g>
<!-- Node7&#45;&gt;Node8 -->
<g id="edge16" class="edge"><title>Node7&#45;&gt;Node8</title>
<path fill="none" stroke="midnightblue" d="M478.948,-149.974C488.85,-147.531 499.024,-145.02 508.794,-142.609"/>
<polygon fill="midnightblue" stroke="midnightblue" points="478.033,-146.595 469.163,-152.388 479.71,-153.391 478.033,-146.595"/>
</g>
<!-- Node9 -->
<g id="node18" class="node"><title>Node9</title>
<a xlink:href="../../d5/dc4/classpocketmine_1_1inventory_1_1_base_inventory.html#a5c676080faee6eaecdc04a70fcedf142" target="_top" xlink:title="pocketmine\\inventory\l\\BaseInventory\\remove">
<polygon fill="white" stroke="black" points="509,-201 509,-235 627,-235 627,-201 509,-201"/>
<text text-anchor="start" x="517" y="-222" font-family="Helvetica,sans-Serif" font-size="10.00">pocketmine\inventory</text>
<text text-anchor="middle" x="568" y="-209" font-family="Helvetica,sans-Serif" font-size="10.00">\BaseInventory\remove</text>
</a>
</g>
<!-- Node7&#45;&gt;Node9 -->
<g id="edge18" class="edge"><title>Node7&#45;&gt;Node9</title>
<path fill="none" stroke="midnightblue" d="M474.18,-186.321C488.496,-191.154 503.627,-196.264 517.461,-200.935"/>
<polygon fill="midnightblue" stroke="midnightblue" points="475.02,-182.91 464.425,-183.027 472.78,-189.542 475.02,-182.91"/>
</g>
<!-- Node10 -->
<g id="node20" class="node"><title>Node10</title>
<a xlink:href="../../d5/dc4/classpocketmine_1_1inventory_1_1_base_inventory.html#a295a782543c002623d01ec47a6e93329" target="_top" xlink:title="pocketmine\\inventory\l\\BaseInventory\\setContents">
<polygon fill="white" stroke="black" points="681.5,-156 681.5,-190 820.5,-190 820.5,-156 681.5,-156"/>
<text text-anchor="start" x="689.5" y="-177" font-family="Helvetica,sans-Serif" font-size="10.00">pocketmine\inventory</text>
<text text-anchor="middle" x="751" y="-164" font-family="Helvetica,sans-Serif" font-size="10.00">\BaseInventory\setContents</text>
</a>
</g>
<!-- Node7&#45;&gt;Node10 -->
<g id="edge20" class="edge"><title>Node7&#45;&gt;Node10</title>
<path fill="none" stroke="midnightblue" d="M479.433,-167.359C537.499,-168.565 622.081,-170.322 681.38,-171.554"/>
<polygon fill="midnightblue" stroke="midnightblue" points="479.342,-163.857 469.271,-167.148 479.196,-170.855 479.342,-163.857"/>
</g>
<!-- Node7&#45;&gt;Node12 -->
<g id="edge24" class="edge"><title>Node7&#45;&gt;Node12</title>
<path fill="none" stroke="midnightblue" d="M449.284,-143.148C456.203,-138.538 463.369,-133.671 470,-129 486.351,-117.482 488.647,-111.943 506,-102 511.57,-98.8086 517.609,-95.7884 523.657,-93.0131"/>
<polygon fill="midnightblue" stroke="midnightblue" points="447.122,-140.382 440.711,-148.817 450.983,-146.221 447.122,-140.382"/>
</g>
<!-- Node11 -->
<g id="node22" class="node"><title>Node11</title>
<a xlink:href="../../d5/dc4/classpocketmine_1_1inventory_1_1_base_inventory.html#afaac83c7a4ade74f9bd461f68a48c30a" target="_top" xlink:title="pocketmine\\inventory\l\\BaseInventory\\__construct">
<polygon fill="white" stroke="black" points="872.5,-156 872.5,-190 1009.5,-190 1009.5,-156 872.5,-156"/>
<text text-anchor="start" x="880.5" y="-177" font-family="Helvetica,sans-Serif" font-size="10.00">pocketmine\inventory</text>
<text text-anchor="middle" x="941" y="-164" font-family="Helvetica,sans-Serif" font-size="10.00">\BaseInventory\__construct</text>
</a>
</g>
<!-- Node10&#45;&gt;Node11 -->
<g id="edge22" class="edge"><title>Node10&#45;&gt;Node11</title>
<path fill="none" stroke="midnightblue" d="M831.054,-173C844.767,-173 858.907,-173 872.29,-173"/>
<polygon fill="midnightblue" stroke="midnightblue" points="830.67,-169.5 820.67,-173 830.67,-176.5 830.67,-169.5"/>
</g>
<!-- Node12&#45;&gt;Node10 -->
<g id="edge26" class="edge"><title>Node12&#45;&gt;Node10</title>
<path fill="none" stroke="midnightblue" d="M624.447,-98.1382C626.363,-99.3704 628.221,-100.657 630,-102 650.443,-117.43 644.81,-132.613 666,-147 670.979,-150.381 676.414,-153.335 682.05,-155.914"/>
<polygon fill="midnightblue" stroke="midnightblue" points="626.148,-95.0789 615.743,-93.0842 622.633,-101.132 626.148,-95.0789"/>
</g>
<!-- Node13 -->
<g id="node27" class="node"><title>Node13</title>
<a xlink:href="../../dc/d34/classpocketmine_1_1inventory_1_1_furnace_inventory.html#a5c9e307818bee9a64b8aae1a3e4e58a9" target="_top" xlink:title="pocketmine\\inventory\l\\FurnaceInventory\\setFuel">
<polygon fill="white" stroke="black" points="685.5,-104 685.5,-138 816.5,-138 816.5,-104 685.5,-104"/>
<text text-anchor="start" x="693.5" y="-125" font-family="Helvetica,sans-Serif" font-size="10.00">pocketmine\inventory</text>
<text text-anchor="middle" x="751" y="-112" font-family="Helvetica,sans-Serif" font-size="10.00">\FurnaceInventory\setFuel</text>
</a>
</g>
<!-- Node12&#45;&gt;Node13 -->
<g id="edge28" class="edge"><title>Node12&#45;&gt;Node13</title>
<path fill="none" stroke="midnightblue" d="M637.79,-93.1616C653.422,-97.0055 669.951,-101.07 685.406,-104.87"/>
<polygon fill="midnightblue" stroke="midnightblue" points="638.214,-89.6616 627.668,-90.6724 636.543,-96.4591 638.214,-89.6616"/>
</g>
<!-- Node14 -->
<g id="node29" class="node"><title>Node14</title>
<a xlink:href="../../dc/d34/classpocketmine_1_1inventory_1_1_furnace_inventory.html#ae1e7071536d244eadbf62472da3d51da" target="_top" xlink:title="pocketmine\\inventory\l\\FurnaceInventory\\setResult">
<polygon fill="white" stroke="black" points="681,-52 681,-86 821,-86 821,-52 681,-52"/>
<text text-anchor="start" x="689" y="-73" font-family="Helvetica,sans-Serif" font-size="10.00">pocketmine\inventory</text>
<text text-anchor="middle" x="751" y="-60" font-family="Helvetica,sans-Serif" font-size="10.00">\FurnaceInventory\setResult</text>
</a>
</g>
<!-- Node12&#45;&gt;Node14 -->
<g id="edge30" class="edge"><title>Node12&#45;&gt;Node14</title>
<path fill="none" stroke="midnightblue" d="M637.8,-73.33C651.922,-72.7899 666.775,-72.2217 680.907,-71.6811"/>
<polygon fill="midnightblue" stroke="midnightblue" points="637.527,-69.8379 627.668,-73.7176 637.794,-76.8327 637.527,-69.8379"/>
</g>
<!-- Node15 -->
<g id="node31" class="node"><title>Node15</title>
<a xlink:href="../../dc/d34/classpocketmine_1_1inventory_1_1_furnace_inventory.html#a45d3b373d8adb32961d8d08fc970c3ec" target="_top" xlink:title="pocketmine\\inventory\l\\FurnaceInventory\\setSmelting">
<polygon fill="white" stroke="black" points="676,-0 676,-34 826,-34 826,-0 676,-0"/>
<text text-anchor="start" x="684" y="-21" font-family="Helvetica,sans-Serif" font-size="10.00">pocketmine\inventory</text>
<text text-anchor="middle" x="751" y="-8" font-family="Helvetica,sans-Serif" font-size="10.00">\FurnaceInventory\setSmelting</text>
</a>
</g>
<!-- Node12&#45;&gt;Node15 -->
<g id="edge32" class="edge"><title>Node12&#45;&gt;Node15</title>
<path fill="none" stroke="midnightblue" d="M627.348,-55.719C640.078,-51.4516 653.469,-47.0254 666,-43 675.109,-40.0737 684.792,-37.0399 694.236,-34.1221"/>
<polygon fill="midnightblue" stroke="midnightblue" points="626.128,-52.4363 617.766,-58.942 628.36,-59.071 626.128,-52.4363"/>
</g>
<!-- Node18&#45;&gt;Node2 -->
<g id="edge42" class="edge"><title>Node18&#45;&gt;Node2</title>
<path fill="none" stroke="midnightblue" d="M324.227,-331.443C335.552,-328.612 347.018,-325.745 357.796,-323.051"/>
<polygon fill="midnightblue" stroke="midnightblue" points="323.185,-328.096 314.332,-333.917 324.882,-334.887 323.185,-328.096"/>
</g>
<!-- Node18&#45;&gt;Node5 -->
<g id="edge40" class="edge"><title>Node18&#45;&gt;Node5</title>
<path fill="none" stroke="midnightblue" d="M332.355,-353.682C387.119,-355.383 456.681,-357.543 505.994,-359.074"/>
<polygon fill="midnightblue" stroke="midnightblue" points="332.413,-350.182 322.31,-353.37 332.196,-357.179 332.413,-350.182"/>
</g>
<!-- Node19&#45;&gt;Node7 -->
<g id="edge46" class="edge"><title>Node19&#45;&gt;Node7</title>
<path fill="none" stroke="midnightblue" d="M317.152,-138.906C331.068,-142.799 345.466,-146.827 358.769,-150.548"/>
<polygon fill="midnightblue" stroke="midnightblue" points="317.7,-135.425 307.127,-136.101 315.814,-142.166 317.7,-135.425"/>
</g>
<!-- Node19&#45;&gt;Node12 -->
<g id="edge48" class="edge"><title>Node19&#45;&gt;Node12</title>
<path fill="none" stroke="midnightblue" d="M330.133,-107.765C386.137,-100.286 458.354,-90.6421 508.453,-83.9519"/>
<polygon fill="midnightblue" stroke="midnightblue" points="329.322,-104.342 319.873,-109.135 330.249,-111.28 329.322,-104.342"/>
</g>
</g>
</svg>
