<?xml version="1.0" encoding="UTF-8" standalone="no"?>
<!DOCTYPE svg PUBLIC "-//W3C//DTD SVG 1.1//EN"
 "http://www.w3.org/Graphics/SVG/1.1/DTD/svg11.dtd">
<!-- Generated by graphviz version 2.26.3 (20100126.1600)
 -->
<!-- Title: pocketmine\inventory\BaseInventory\clearAll Pages: 1 -->
<svg width="828pt" height="227pt"
 viewBox="0.00 0.00 828.00 227.00" xmlns="http://www.w3.org/2000/svg" xmlns:xlink="http://www.w3.org/1999/xlink">
<g id="graph1" class="graph" transform="scale(1 1) rotate(0) translate(4 223)">
<title>pocketmine\inventory\BaseInventory\clearAll</title>
<polygon fill="white" stroke="white" points="-4,5 -4,-223 825,-223 825,5 -4,5"/>
<!-- Node1 -->
<g id="node1" class="node"><title>Node1</title>
<polygon fill="#bfbfbf" stroke="black" points="0,-74 0,-108 118,-108 118,-74 0,-74"/>
<text text-anchor="start" x="8" y="-95" font-family="Helvetica,sans-Serif" font-size="10.00">pocketmine\inventory</text>
<text text-anchor="middle" x="59" y="-82" font-family="Helvetica,sans-Serif" font-size="10.00">\BaseInventory\clearAll</text>
</g>
<!-- Node2 -->
<g id="node3" class="node"><title>Node2</title>
<a xlink:href="../../d5/dc4/classpocketmine_1_1inventory_1_1_base_inventory.html#a4e37b46b040119e90211c5078dd79662" target="_top" xlink:title="pocketmine\\inventory\l\\BaseInventory\\clear">
<polygon fill="white" stroke="black" points="169,-100 169,-134 279,-134 279,-100 169,-100"/>
<text text-anchor="start" x="177" y="-121" font-family="Helvetica,sans-Serif" font-size="10.00">pocketmine\inventory</text>
<text text-anchor="middle" x="224" y="-108" font-family="Helvetica,sans-Serif" font-size="10.00">\BaseInventory\clear</text>
</a>
</g>
<!-- Node1&#45;&gt;Node2 -->
<g id="edge2" class="edge"><title>Node1&#45;&gt;Node2</title>
<path fill="none" stroke="midnightblue" d="M118.103,-100.313C131.293,-102.392 145.353,-104.607 158.774,-106.722"/>
<polygon fill="midnightblue" stroke="midnightblue" points="158.465,-110.216 168.888,-108.316 159.555,-103.302 158.465,-110.216"/>
</g>
<!-- Node10 -->
<g id="node21" class="node"><title>Node10</title>
<a xlink:href="../../d5/dc4/classpocketmine_1_1inventory_1_1_base_inventory.html#a0e8340ccc6267464b500f41e32d96059" target="_top" xlink:title="pocketmine\\inventory\l\\BaseInventory\\getContents">
<polygon fill="white" stroke="black" points="154.5,-48 154.5,-82 293.5,-82 293.5,-48 154.5,-48"/>
<text text-anchor="start" x="162.5" y="-69" font-family="Helvetica,sans-Serif" font-size="10.00">pocketmine\inventory</text>
<text text-anchor="middle" x="224" y="-56" font-family="Helvetica,sans-Serif" font-size="10.00">\BaseInventory\getContents</text>
</a>
</g>
<!-- Node1&#45;&gt;Node10 -->
<g id="edge22" class="edge"><title>Node1&#45;&gt;Node10</title>
<path fill="none" stroke="midnightblue" d="M118.103,-81.6868C126.635,-80.3423 135.532,-78.9404 144.384,-77.5455"/>
<polygon fill="midnightblue" stroke="midnightblue" points="145.005,-80.991 154.338,-75.977 143.915,-74.0763 145.005,-80.991"/>
</g>
<!-- Node3 -->
<g id="node5" class="node"><title>Node3</title>
<a xlink:href="../../d5/dc4/classpocketmine_1_1inventory_1_1_base_inventory.html#a17dc7367b4cee9f1029c38d52e448563" target="_top" xlink:title="pocketmine\\inventory\l\\BaseInventory\\getHolder">
<polygon fill="white" stroke="black" points="342,-185 342,-219 470,-219 470,-185 342,-185"/>
<text text-anchor="start" x="350" y="-206" font-family="Helvetica,sans-Serif" font-size="10.00">pocketmine\inventory</text>
<text text-anchor="middle" x="406" y="-193" font-family="Helvetica,sans-Serif" font-size="10.00">\BaseInventory\getHolder</text>
</a>
</g>
<!-- Node2&#45;&gt;Node3 -->
<g id="edge4" class="edge"><title>Node2&#45;&gt;Node3</title>
<path fill="none" stroke="midnightblue" d="M251.643,-134.18C272.634,-146.779 302.485,-163.753 330,-176 334.051,-177.803 338.268,-179.559 342.548,-181.253"/>
<polygon fill="midnightblue" stroke="midnightblue" points="341.385,-184.555 351.976,-184.853 343.882,-178.016 341.385,-184.555"/>
</g>
<!-- Node4 -->
<g id="node7" class="node"><title>Node4</title>
<a xlink:href="../../d5/df7/classpocketmine_1_1_server.html#a8d9b9873eb3c7efce048f10f803c2b2e" target="_top" xlink:title="pocketmine\\Server\\getInstance">
<polygon fill="white" stroke="black" points="330,-145.5 330,-166.5 482,-166.5 482,-145.5 330,-145.5"/>
<text text-anchor="middle" x="406" y="-153.5" font-family="Helvetica,sans-Serif" font-size="10.00">pocketmine\Server\getInstance</text>
</a>
</g>
<!-- Node2&#45;&gt;Node4 -->
<g id="edge6" class="edge"><title>Node2&#45;&gt;Node4</title>
<path fill="none" stroke="midnightblue" d="M279.1,-128.807C300.603,-133.415 325.29,-138.705 347.141,-143.387"/>
<polygon fill="midnightblue" stroke="midnightblue" points="346.448,-146.818 356.959,-145.491 347.914,-139.974 346.448,-146.818"/>
</g>
<!-- Node5 -->
<g id="node9" class="node"><title>Node5</title>
<a xlink:href="../../d5/dc4/classpocketmine_1_1inventory_1_1_base_inventory.html#a65b280b6c12e1d4e5bcd4d0de3aa4a71" target="_top" xlink:title="pocketmine\\inventory\l\\BaseInventory\\getViewers">
<polygon fill="white" stroke="black" points="524,-104 524,-138 658,-138 658,-104 524,-104"/>
<text text-anchor="start" x="532" y="-125" font-family="Helvetica,sans-Serif" font-size="10.00">pocketmine\inventory</text>
<text text-anchor="middle" x="591" y="-112" font-family="Helvetica,sans-Serif" font-size="10.00">\BaseInventory\getViewers</text>
</a>
</g>
<!-- Node2&#45;&gt;Node5 -->
<g id="edge8" class="edge"><title>Node2&#45;&gt;Node5</title>
<path fill="none" stroke="midnightblue" d="M279.341,-117.603C341.751,-118.283 443.667,-119.394 513.864,-120.159"/>
<polygon fill="midnightblue" stroke="midnightblue" points="513.945,-123.66 523.983,-120.27 514.021,-116.661 513.945,-123.66"/>
</g>
<!-- Node6 -->
<g id="node11" class="node"><title>Node6</title>
<a xlink:href="../../d5/dc4/classpocketmine_1_1inventory_1_1_base_inventory.html#a372297a2da072277724b5a20453bb423" target="_top" xlink:title="pocketmine\\inventory\l\\BaseInventory\\onSlotChange">
<polygon fill="white" stroke="black" points="332.5,-55 332.5,-89 479.5,-89 479.5,-55 332.5,-55"/>
<text text-anchor="start" x="340.5" y="-76" font-family="Helvetica,sans-Serif" font-size="10.00">pocketmine\inventory</text>
<text text-anchor="middle" x="406" y="-63" font-family="Helvetica,sans-Serif" font-size="10.00">\BaseInventory\onSlotChange</text>
</a>
</g>
<!-- Node2&#45;&gt;Node6 -->
<g id="edge10" class="edge"><title>Node2&#45;&gt;Node6</title>
<path fill="none" stroke="midnightblue" d="M279.1,-103.376C294.262,-99.6275 311.008,-95.487 327.226,-91.4771"/>
<polygon fill="midnightblue" stroke="midnightblue" points="328.37,-94.7998 337.237,-89.0018 326.689,-88.0044 328.37,-94.7998"/>
</g>
<!-- Node9 -->
<g id="node18" class="node"><title>Node9</title>
<a xlink:href="../../d5/dc4/classpocketmine_1_1inventory_1_1_base_inventory.html#a78e842dd42ef0a0870385092b3c30896" target="_top" xlink:title="pocketmine\\inventory\l\\BaseInventory\\sendContents">
<polygon fill="white" stroke="black" points="518,-0 518,-34 664,-34 664,-0 518,-0"/>
<text text-anchor="start" x="526" y="-21" font-family="Helvetica,sans-Serif" font-size="10.00">pocketmine\inventory</text>
<text text-anchor="middle" x="591" y="-8" font-family="Helvetica,sans-Serif" font-size="10.00">\BaseInventory\sendContents</text>
</a>
</g>
<!-- Node2&#45;&gt;Node9 -->
<g id="edge18" class="edge"><title>Node2&#45;&gt;Node9</title>
<path fill="none" stroke="midnightblue" d="M278.996,-99.9147C284.275,-97.3023 289.377,-94.3414 294,-91 314.758,-75.9966 307.564,-58.3547 330,-46 384.027,-16.2492 453.838,-9.84327 507.664,-10.4173"/>
<polygon fill="midnightblue" stroke="midnightblue" points="507.799,-13.9204 517.864,-10.6109 507.932,-6.92169 507.799,-13.9204"/>
</g>
<!-- Node6&#45;&gt;Node5 -->
<g id="edge12" class="edge"><title>Node6&#45;&gt;Node5</title>
<path fill="none" stroke="midnightblue" d="M470.185,-89.0003C485.166,-92.9684 501.244,-97.2269 516.626,-101.301"/>
<polygon fill="midnightblue" stroke="midnightblue" points="516.053,-104.77 526.616,-103.947 517.845,-98.003 516.053,-104.77"/>
</g>
<!-- Node7 -->
<g id="node14" class="node"><title>Node7</title>
<a xlink:href="../../d5/dc4/classpocketmine_1_1inventory_1_1_base_inventory.html#ad84dac811677e799d06924279a4288cc" target="_top" xlink:title="pocketmine\\inventory\l\\BaseInventory\\sendSlot">
<polygon fill="white" stroke="black" points="529,-52 529,-86 653,-86 653,-52 529,-52"/>
<text text-anchor="start" x="537" y="-73" font-family="Helvetica,sans-Serif" font-size="10.00">pocketmine\inventory</text>
<text text-anchor="middle" x="591" y="-60" font-family="Helvetica,sans-Serif" font-size="10.00">\BaseInventory\sendSlot</text>
</a>
</g>
<!-- Node6&#45;&gt;Node7 -->
<g id="edge14" class="edge"><title>Node6&#45;&gt;Node7</title>
<path fill="none" stroke="midnightblue" d="M479.648,-70.8057C492.529,-70.5968 505.918,-70.3797 518.76,-70.1715"/>
<polygon fill="midnightblue" stroke="midnightblue" points="518.979,-73.6685 528.921,-70.0067 518.866,-66.6694 518.979,-73.6685"/>
</g>
<!-- Node8 -->
<g id="node16" class="node"><title>Node8</title>
<a xlink:href="../../d5/dc4/classpocketmine_1_1inventory_1_1_base_inventory.html#a8bc94c0515906b5c1f3af5600d89b3df" target="_top" xlink:title="pocketmine\\inventory\l\\BaseInventory\\getItem">
<polygon fill="white" stroke="black" points="700.5,-26 700.5,-60 819.5,-60 819.5,-26 700.5,-26"/>
<text text-anchor="start" x="708.5" y="-47" font-family="Helvetica,sans-Serif" font-size="10.00">pocketmine\inventory</text>
<text text-anchor="middle" x="760" y="-34" font-family="Helvetica,sans-Serif" font-size="10.00">\BaseInventory\getItem</text>
</a>
</g>
<!-- Node7&#45;&gt;Node8 -->
<g id="edge16" class="edge"><title>Node7&#45;&gt;Node8</title>
<path fill="none" stroke="midnightblue" d="M653.449,-59.3924C665.423,-57.5503 678.032,-55.6105 690.219,-53.7355"/>
<polygon fill="midnightblue" stroke="midnightblue" points="690.983,-57.1593 700.334,-52.1793 689.918,-50.2407 690.983,-57.1593"/>
</g>
<!-- Node9&#45;&gt;Node8 -->
<g id="edge20" class="edge"><title>Node9&#45;&gt;Node8</title>
<path fill="none" stroke="midnightblue" d="M664.143,-28.2528C672.863,-29.5943 681.747,-30.9611 690.415,-32.2947"/>
<polygon fill="midnightblue" stroke="midnightblue" points="690.053,-35.78 700.469,-33.8414 691.117,-28.8614 690.053,-35.78"/>
</g>
</g>
</svg>
