<?xml version="1.0" encoding="UTF-8" standalone="no"?>
<!DOCTYPE svg PUBLIC "-//W3C//DTD SVG 1.1//EN"
 "http://www.w3.org/Graphics/SVG/1.1/DTD/svg11.dtd">
<!-- Generated by graphviz version 2.36.0 (20140111.2315)
 -->
<!-- Title: pocketmine\inventory\BaseInventory\getHolder Pages: 1 -->
<svg width="878pt" height="273pt"
 viewBox="0.00 0.00 878.00 273.00" xmlns="http://www.w3.org/2000/svg" xmlns:xlink="http://www.w3.org/1999/xlink">
<g id="graph0" class="graph" transform="scale(1 1) rotate(0) translate(4 269)">
<title>pocketmine\inventory\BaseInventory\getHolder</title>
<polygon fill="white" stroke="none" points="-4,4 -4,-269 874,-269 874,4 -4,4"/>
<!-- Node1 -->
<g id="node1" class="node"><title>Node1</title>
<polygon fill="#bfbfbf" stroke="black" points="0,-98 0,-128 138,-128 138,-98 0,-98"/>
<text text-anchor="start" x="8" y="-116" font-family="Helvetica,sans-Serif" font-size="10.00">pocketmine\inventory</text>
<text text-anchor="middle" x="69" y="-105" font-family="Helvetica,sans-Serif" font-size="10.00">\BaseInventory\getHolder</text>
</g>
<!-- Node2 -->
<g id="node2" class="node"><title>Node2</title>
<g id="a_node2"><a xlink:href="../../d5/dc4/classpocketmine_1_1inventory_1_1_base_inventory.html#a4e37b46b040119e90211c5078dd79662" target="_top" xlink:title="pocketmine\\inventory\l\\BaseInventory\\clear">
<polygon fill="white" stroke="black" points="190,-142 190,-172 310,-172 310,-142 190,-142"/>
<text text-anchor="start" x="198" y="-160" font-family="Helvetica,sans-Serif" font-size="10.00">pocketmine\inventory</text>
<text text-anchor="middle" x="250" y="-149" font-family="Helvetica,sans-Serif" font-size="10.00">\BaseInventory\clear</text>
</a>
</g>
</g>
<!-- Node1&#45;&gt;Node2 -->
<g id="edge1" class="edge"><title>Node1&#45;&gt;Node2</title>
<path fill="none" stroke="midnightblue" d="M141.068,-130.469C157.283,-134.455 174.343,-138.648 189.99,-142.495"/>
<polygon fill="midnightblue" stroke="midnightblue" points="141.647,-127.008 131.101,-128.019 139.976,-133.805 141.647,-127.008"/>
</g>
<!-- Node7 -->
<g id="node7" class="node"><title>Node7</title>
<g id="a_node7"><a xlink:href="../../d5/dc4/classpocketmine_1_1inventory_1_1_base_inventory.html#a99f7ddb22a3e614d55daefe9d4b9eaeb" target="_top" xlink:title="pocketmine\\inventory\l\\BaseInventory\\setItem">
<polygon fill="white" stroke="black" points="362,-98 362,-128 490,-128 490,-98 362,-98"/>
<text text-anchor="start" x="370" y="-116" font-family="Helvetica,sans-Serif" font-size="10.00">pocketmine\inventory</text>
<text text-anchor="middle" x="426" y="-105" font-family="Helvetica,sans-Serif" font-size="10.00">\BaseInventory\setItem</text>
</a>
</g>
</g>
<!-- Node1&#45;&gt;Node7 -->
<g id="edge12" class="edge"><title>Node1&#45;&gt;Node7</title>
<path fill="none" stroke="midnightblue" d="M148.11,-113C212.357,-113 302.241,-113 361.969,-113"/>
<polygon fill="midnightblue" stroke="midnightblue" points="148.028,-109.5 138.028,-113 148.027,-116.5 148.028,-109.5"/>
</g>
<!-- Node11 -->
<g id="node11" class="node"><title>Node11</title>
<g id="a_node11"><a xlink:href="../../dc/d02/classpocketmine_1_1inventory_1_1_container_inventory.html#aea6c5161d4a1c36119440a95beb7c78c" target="_top" xlink:title="pocketmine\\inventory\l\\ContainerInventory\\onOpen">
<polygon fill="white" stroke="black" points="174.5,-54 174.5,-84 325.5,-84 325.5,-54 174.5,-54"/>
<text text-anchor="start" x="182.5" y="-72" font-family="Helvetica,sans-Serif" font-size="10.00">pocketmine\inventory</text>
<text text-anchor="middle" x="250" y="-61" font-family="Helvetica,sans-Serif" font-size="10.00">\ContainerInventory\onOpen</text>
</a>
</g>
</g>
<!-- Node1&#45;&gt;Node11 -->
<g id="edge11" class="edge"><title>Node1&#45;&gt;Node11</title>
<path fill="none" stroke="midnightblue" d="M141.134,-95.5145C156.6,-91.7127 172.832,-87.723 187.871,-84.0262"/>
<polygon fill="midnightblue" stroke="midnightblue" points="139.976,-92.1948 131.101,-97.9808 141.647,-98.9925 139.976,-92.1948"/>
</g>
<!-- Node3 -->
<g id="node3" class="node"><title>Node3</title>
<g id="a_node3"><a xlink:href="../../d5/dc4/classpocketmine_1_1inventory_1_1_base_inventory.html#a4c7aef211a9628f380e7de98b49c4551" target="_top" xlink:title="pocketmine\\inventory\l\\BaseInventory\\clearAll">
<polygon fill="white" stroke="black" points="363.5,-235 363.5,-265 488.5,-265 488.5,-235 363.5,-235"/>
<text text-anchor="start" x="371.5" y="-253" font-family="Helvetica,sans-Serif" font-size="10.00">pocketmine\inventory</text>
<text text-anchor="middle" x="426" y="-242" font-family="Helvetica,sans-Serif" font-size="10.00">\BaseInventory\clearAll</text>
</a>
</g>
</g>
<!-- Node2&#45;&gt;Node3 -->
<g id="edge2" class="edge"><title>Node2&#45;&gt;Node3</title>
<path fill="none" stroke="midnightblue" d="M281.82,-177.865C303.652,-192.146 333.931,-210.963 362,-225 368.946,-228.474 376.498,-231.818 383.882,-234.868"/>
<polygon fill="midnightblue" stroke="midnightblue" points="283.579,-174.832 273.305,-172.245 279.723,-180.674 283.579,-174.832"/>
</g>
<!-- Node4 -->
<g id="node4" class="node"><title>Node4</title>
<g id="a_node4"><a xlink:href="../../d5/dc4/classpocketmine_1_1inventory_1_1_base_inventory.html#a5c676080faee6eaecdc04a70fcedf142" target="_top" xlink:title="pocketmine\\inventory\l\\BaseInventory\\remove">
<polygon fill="white" stroke="black" points="362,-186 362,-216 490,-216 490,-186 362,-186"/>
<text text-anchor="start" x="370" y="-204" font-family="Helvetica,sans-Serif" font-size="10.00">pocketmine\inventory</text>
<text text-anchor="middle" x="426" y="-193" font-family="Helvetica,sans-Serif" font-size="10.00">\BaseInventory\remove</text>
</a>
</g>
</g>
<!-- Node2&#45;&gt;Node4 -->
<g id="edge3" class="edge"><title>Node2&#45;&gt;Node4</title>
<path fill="none" stroke="midnightblue" d="M320.147,-174.485C335.181,-178.287 350.959,-182.277 365.578,-185.974"/>
<polygon fill="midnightblue" stroke="midnightblue" points="320.947,-171.078 310.394,-172.019 319.231,-177.864 320.947,-171.078"/>
</g>
<!-- Node5 -->
<g id="node5" class="node"><title>Node5</title>
<g id="a_node5"><a xlink:href="../../d5/dc4/classpocketmine_1_1inventory_1_1_base_inventory.html#a295a782543c002623d01ec47a6e93329" target="_top" xlink:title="pocketmine\\inventory\l\\BaseInventory\\setContents">
<polygon fill="white" stroke="black" points="532.5,-147 532.5,-177 681.5,-177 681.5,-147 532.5,-147"/>
<text text-anchor="start" x="540.5" y="-165" font-family="Helvetica,sans-Serif" font-size="10.00">pocketmine\inventory</text>
<text text-anchor="middle" x="607" y="-154" font-family="Helvetica,sans-Serif" font-size="10.00">\BaseInventory\setContents</text>
</a>
</g>
</g>
<!-- Node2&#45;&gt;Node5 -->
<g id="edge4" class="edge"><title>Node2&#45;&gt;Node5</title>
<path fill="none" stroke="midnightblue" d="M320.329,-157.976C381.387,-158.836 470.047,-160.085 532.362,-160.963"/>
<polygon fill="midnightblue" stroke="midnightblue" points="320.068,-154.473 310.02,-157.831 319.969,-161.472 320.068,-154.473"/>
</g>
<!-- Node2&#45;&gt;Node7 -->
<g id="edge6" class="edge"><title>Node2&#45;&gt;Node7</title>
<path fill="none" stroke="midnightblue" d="M320.147,-139.515C335.181,-135.713 350.959,-131.723 365.578,-128.026"/>
<polygon fill="midnightblue" stroke="midnightblue" points="319.231,-136.136 310.394,-141.981 320.947,-142.922 319.231,-136.136"/>
</g>
<!-- Node6 -->
<g id="node6" class="node"><title>Node6</title>
<g id="a_node6"><a xlink:href="../../d5/dc4/classpocketmine_1_1inventory_1_1_base_inventory.html#afaac83c7a4ade74f9bd461f68a48c30a" target="_top" xlink:title="pocketmine\\inventory\l\\BaseInventory\\__construct">
<polygon fill="white" stroke="black" points="724,-147 724,-177 870,-177 870,-147 724,-147"/>
<text text-anchor="start" x="732" y="-165" font-family="Helvetica,sans-Serif" font-size="10.00">pocketmine\inventory</text>
<text text-anchor="middle" x="797" y="-154" font-family="Helvetica,sans-Serif" font-size="10.00">\BaseInventory\__construct</text>
</a>
</g>
</g>
<!-- Node5&#45;&gt;Node6 -->
<g id="edge5" class="edge"><title>Node5&#45;&gt;Node6</title>
<path fill="none" stroke="midnightblue" d="M691.944,-162C702.637,-162 713.507,-162 723.989,-162"/>
<polygon fill="midnightblue" stroke="midnightblue" points="691.763,-158.5 681.763,-162 691.763,-165.5 691.763,-158.5"/>
</g>
<!-- Node7&#45;&gt;Node5 -->
<g id="edge7" class="edge"><title>Node7&#45;&gt;Node5</title>
<path fill="none" stroke="midnightblue" d="M491.836,-130.748C511.236,-136.059 532.313,-141.829 551.016,-146.948"/>
<polygon fill="midnightblue" stroke="midnightblue" points="492.736,-127.366 482.166,-128.101 490.888,-134.118 492.736,-127.366"/>
</g>
<!-- Node8 -->
<g id="node8" class="node"><title>Node8</title>
<g id="a_node8"><a xlink:href="../../dc/d34/classpocketmine_1_1inventory_1_1_furnace_inventory.html#a5c9e307818bee9a64b8aae1a3e4e58a9" target="_top" xlink:title="pocketmine\\inventory\l\\FurnaceInventory\\setFuel">
<polygon fill="white" stroke="black" points="538,-98 538,-128 676,-128 676,-98 538,-98"/>
<text text-anchor="start" x="546" y="-116" font-family="Helvetica,sans-Serif" font-size="10.00">pocketmine\inventory</text>
<text text-anchor="middle" x="607" y="-105" font-family="Helvetica,sans-Serif" font-size="10.00">\FurnaceInventory\setFuel</text>
</a>
</g>
</g>
<!-- Node7&#45;&gt;Node8 -->
<g id="edge8" class="edge"><title>Node7&#45;&gt;Node8</title>
<path fill="none" stroke="midnightblue" d="M500.426,-113C512.854,-113 525.709,-113 537.991,-113"/>
<polygon fill="midnightblue" stroke="midnightblue" points="500.109,-109.5 490.109,-113 500.109,-116.5 500.109,-109.5"/>
</g>
<!-- Node9 -->
<g id="node9" class="node"><title>Node9</title>
<g id="a_node9"><a xlink:href="../../dc/d34/classpocketmine_1_1inventory_1_1_furnace_inventory.html#ae1e7071536d244eadbf62472da3d51da" target="_top" xlink:title="pocketmine\\inventory\l\\FurnaceInventory\\setResult">
<polygon fill="white" stroke="black" points="533,-49 533,-79 681,-79 681,-49 533,-49"/>
<text text-anchor="start" x="541" y="-67" font-family="Helvetica,sans-Serif" font-size="10.00">pocketmine\inventory</text>
<text text-anchor="middle" x="607" y="-56" font-family="Helvetica,sans-Serif" font-size="10.00">\FurnaceInventory\setResult</text>
</a>
</g>
</g>
<!-- Node7&#45;&gt;Node9 -->
<g id="edge9" class="edge"><title>Node7&#45;&gt;Node9</title>
<path fill="none" stroke="midnightblue" d="M491.836,-95.2515C511.236,-89.9409 532.313,-84.1712 551.016,-79.0516"/>
<polygon fill="midnightblue" stroke="midnightblue" points="490.888,-91.8824 482.166,-97.8986 492.736,-98.634 490.888,-91.8824"/>
</g>
<!-- Node10 -->
<g id="node10" class="node"><title>Node10</title>
<g id="a_node10"><a xlink:href="../../dc/d34/classpocketmine_1_1inventory_1_1_furnace_inventory.html#a45d3b373d8adb32961d8d08fc970c3ec" target="_top" xlink:title="pocketmine\\inventory\l\\FurnaceInventory\\setSmelting">
<polygon fill="white" stroke="black" points="526,-0 526,-30 688,-30 688,-0 526,-0"/>
<text text-anchor="start" x="534" y="-18" font-family="Helvetica,sans-Serif" font-size="10.00">pocketmine\inventory</text>
<text text-anchor="middle" x="607" y="-7" font-family="Helvetica,sans-Serif" font-size="10.00">\FurnaceInventory\setSmelting</text>
</a>
</g>
</g>
<!-- Node7&#45;&gt;Node10 -->
<g id="edge10" class="edge"><title>Node7&#45;&gt;Node10</title>
<path fill="none" stroke="midnightblue" d="M450.925,-91.3078C470.045,-74.9556 498.165,-53.0231 526,-39 532.604,-35.6728 539.753,-32.7187 546.965,-30.1212"/>
<polygon fill="midnightblue" stroke="midnightblue" points="448.556,-88.7303 443.309,-97.9349 453.151,-94.0111 448.556,-88.7303"/>
</g>
</g>
</svg>
