<?xml version="1.0" encoding="UTF-8" standalone="no"?>
<!DOCTYPE svg PUBLIC "-//W3C//DTD SVG 1.1//EN"
 "http://www.w3.org/Graphics/SVG/1.1/DTD/svg11.dtd">
<!-- Generated by graphviz version 2.36.0 (20140111.2315)
 -->
<!-- Title: pocketmine\inventory\BaseInventory\setContents Pages: 1 -->
<svg width="340pt" height="38pt"
 viewBox="0.00 0.00 340.00 38.00" xmlns="http://www.w3.org/2000/svg" xmlns:xlink="http://www.w3.org/1999/xlink">
<g id="graph0" class="graph" transform="scale(1 1) rotate(0) translate(4 34)">
<title>pocketmine\inventory\BaseInventory\setContents</title>
<polygon fill="white" stroke="none" points="-4,4 -4,-34 336,-34 336,4 -4,4"/>
<!-- Node1 -->
<g id="node1" class="node"><title>Node1</title>
<polygon fill="#bfbfbf" stroke="black" points="0.5,-0 0.5,-30 149.5,-30 149.5,-0 0.5,-0"/>
<text text-anchor="start" x="8.5" y="-18" font-family="Helvetica,sans-Serif" font-size="10.00">pocketmine\inventory</text>
<text text-anchor="middle" x="75" y="-7" font-family="Helvetica,sans-Serif" font-size="10.00">\BaseInventory\setContents</text>
</g>
<!-- Node2 -->
<g id="node2" class="node"><title>Node2</title>
<g id="a_node2"><a xlink:href="../../d5/dc4/classpocketmine_1_1inventory_1_1_base_inventory.html#afaac83c7a4ade74f9bd461f68a48c30a" target="_top" xlink:title="pocketmine\\inventory\l\\BaseInventory\\__construct">
<polygon fill="white" stroke="black" points="186,-0 186,-30 332,-30 332,-0 186,-0"/>
<text text-anchor="start" x="194" y="-18" font-family="Helvetica,sans-Serif" font-size="10.00">pocketmine\inventory</text>
<text text-anchor="middle" x="259" y="-7" font-family="Helvetica,sans-Serif" font-size="10.00">\BaseInventory\__construct</text>
</a>
</g>
</g>
<!-- Node1&#45;&gt;Node2 -->
<g id="edge1" class="edge"><title>Node1&#45;&gt;Node2</title>
<path fill="none" stroke="midnightblue" d="M159.738,-15C168.51,-15 177.373,-15 185.997,-15"/>
<polygon fill="midnightblue" stroke="midnightblue" points="159.502,-11.5001 149.502,-15 159.502,-18.5001 159.502,-11.5001"/>
</g>
</g>
</svg>
