<?xml version="1.0" encoding="UTF-8" standalone="no"?>
<!DOCTYPE svg PUBLIC "-//W3C//DTD SVG 1.1//EN"
 "http://www.w3.org/Graphics/SVG/1.1/DTD/svg11.dtd">
<!-- Generated by graphviz version 2.36.0 (20140111.2315)
 -->
<!-- Title: pocketmine\inventory\BaseInventory\clear Pages: 1 -->
<svg width="672pt" height="275pt"
 viewBox="0.00 0.00 672.00 275.00" xmlns="http://www.w3.org/2000/svg" xmlns:xlink="http://www.w3.org/1999/xlink">
<g id="graph0" class="graph" transform="scale(1 1) rotate(0) translate(4 271)">
<title>pocketmine\inventory\BaseInventory\clear</title>
<polygon fill="white" stroke="none" points="-4,4 -4,-271 668,-271 668,4 -4,4"/>
<!-- Node1 -->
<g id="node1" class="node"><title>Node1</title>
<polygon fill="#bfbfbf" stroke="black" points="0,-166 0,-196 120,-196 120,-166 0,-166"/>
<text text-anchor="start" x="8" y="-184" font-family="Helvetica,sans-Serif" font-size="10.00">pocketmine\inventory</text>
<text text-anchor="middle" x="60" y="-173" font-family="Helvetica,sans-Serif" font-size="10.00">\BaseInventory\clear</text>
</g>
<!-- Node2 -->
<g id="node2" class="node"><title>Node2</title>
<g id="a_node2"><a xlink:href="../../d5/dc4/classpocketmine_1_1inventory_1_1_base_inventory.html#a4c7aef211a9628f380e7de98b49c4551" target="_top" xlink:title="pocketmine\\inventory\l\\BaseInventory\\clearAll">
<polygon fill="white" stroke="black" points="157.5,-237 157.5,-267 282.5,-267 282.5,-237 157.5,-237"/>
<text text-anchor="start" x="165.5" y="-255" font-family="Helvetica,sans-Serif" font-size="10.00">pocketmine\inventory</text>
<text text-anchor="middle" x="220" y="-244" font-family="Helvetica,sans-Serif" font-size="10.00">\BaseInventory\clearAll</text>
</a>
</g>
</g>
<!-- Node1&#45;&gt;Node2 -->
<g id="edge1" class="edge"><title>Node1&#45;&gt;Node2</title>
<path fill="none" stroke="midnightblue" d="M99.8144,-200.588C116.91,-209.009 137.318,-218.783 156,-227 163.648,-230.364 171.899,-233.784 179.831,-236.972"/>
<polygon fill="midnightblue" stroke="midnightblue" points="101.204,-197.371 90.6895,-196.068 98.0964,-203.643 101.204,-197.371"/>
</g>
<!-- Node3 -->
<g id="node3" class="node"><title>Node3</title>
<g id="a_node3"><a xlink:href="../../d5/dc4/classpocketmine_1_1inventory_1_1_base_inventory.html#a5c676080faee6eaecdc04a70fcedf142" target="_top" xlink:title="pocketmine\\inventory\l\\BaseInventory\\remove">
<polygon fill="white" stroke="black" points="156,-188 156,-218 284,-218 284,-188 156,-188"/>
<text text-anchor="start" x="164" y="-206" font-family="Helvetica,sans-Serif" font-size="10.00">pocketmine\inventory</text>
<text text-anchor="middle" x="220" y="-195" font-family="Helvetica,sans-Serif" font-size="10.00">\BaseInventory\remove</text>
</a>
</g>
</g>
<!-- Node1&#45;&gt;Node3 -->
<g id="edge2" class="edge"><title>Node1&#45;&gt;Node3</title>
<path fill="none" stroke="midnightblue" d="M130.23,-190.64C138.785,-191.831 147.495,-193.044 155.95,-194.221"/>
<polygon fill="midnightblue" stroke="midnightblue" points="130.67,-187.167 120.283,-189.255 129.705,-194.1 130.67,-187.167"/>
</g>
<!-- Node4 -->
<g id="node4" class="node"><title>Node4</title>
<g id="a_node4"><a xlink:href="../../d5/dc4/classpocketmine_1_1inventory_1_1_base_inventory.html#a295a782543c002623d01ec47a6e93329" target="_top" xlink:title="pocketmine\\inventory\l\\BaseInventory\\setContents">
<polygon fill="white" stroke="black" points="326.5,-147 326.5,-177 475.5,-177 475.5,-147 326.5,-147"/>
<text text-anchor="start" x="334.5" y="-165" font-family="Helvetica,sans-Serif" font-size="10.00">pocketmine\inventory</text>
<text text-anchor="middle" x="401" y="-154" font-family="Helvetica,sans-Serif" font-size="10.00">\BaseInventory\setContents</text>
</a>
</g>
</g>
<!-- Node1&#45;&gt;Node4 -->
<g id="edge3" class="edge"><title>Node1&#45;&gt;Node4</title>
<path fill="none" stroke="midnightblue" d="M130.061,-177.129C187.125,-173.931 267.945,-169.401 326.259,-166.133"/>
<polygon fill="midnightblue" stroke="midnightblue" points="129.838,-173.636 120.049,-177.69 130.23,-180.625 129.838,-173.636"/>
</g>
<!-- Node6 -->
<g id="node6" class="node"><title>Node6</title>
<g id="a_node6"><a xlink:href="../../d5/dc4/classpocketmine_1_1inventory_1_1_base_inventory.html#a99f7ddb22a3e614d55daefe9d4b9eaeb" target="_top" xlink:title="pocketmine\\inventory\l\\BaseInventory\\setItem">
<polygon fill="white" stroke="black" points="156,-98 156,-128 284,-128 284,-98 156,-98"/>
<text text-anchor="start" x="164" y="-116" font-family="Helvetica,sans-Serif" font-size="10.00">pocketmine\inventory</text>
<text text-anchor="middle" x="220" y="-105" font-family="Helvetica,sans-Serif" font-size="10.00">\BaseInventory\setItem</text>
</a>
</g>
</g>
<!-- Node1&#45;&gt;Node6 -->
<g id="edge5" class="edge"><title>Node1&#45;&gt;Node6</title>
<path fill="none" stroke="midnightblue" d="M105.3,-161.934C130.198,-151.218 160.836,-138.032 184.033,-128.049"/>
<polygon fill="midnightblue" stroke="midnightblue" points="103.867,-158.74 96.0653,-165.909 106.634,-165.17 103.867,-158.74"/>
</g>
<!-- Node5 -->
<g id="node5" class="node"><title>Node5</title>
<g id="a_node5"><a xlink:href="../../d5/dc4/classpocketmine_1_1inventory_1_1_base_inventory.html#afaac83c7a4ade74f9bd461f68a48c30a" target="_top" xlink:title="pocketmine\\inventory\l\\BaseInventory\\__construct">
<polygon fill="white" stroke="black" points="518,-147 518,-177 664,-177 664,-147 518,-147"/>
<text text-anchor="start" x="526" y="-165" font-family="Helvetica,sans-Serif" font-size="10.00">pocketmine\inventory</text>
<text text-anchor="middle" x="591" y="-154" font-family="Helvetica,sans-Serif" font-size="10.00">\BaseInventory\__construct</text>
</a>
</g>
</g>
<!-- Node4&#45;&gt;Node5 -->
<g id="edge4" class="edge"><title>Node4&#45;&gt;Node5</title>
<path fill="none" stroke="midnightblue" d="M485.944,-162C496.637,-162 507.507,-162 517.989,-162"/>
<polygon fill="midnightblue" stroke="midnightblue" points="485.763,-158.5 475.763,-162 485.763,-165.5 485.763,-158.5"/>
</g>
<!-- Node6&#45;&gt;Node4 -->
<g id="edge6" class="edge"><title>Node6&#45;&gt;Node4</title>
<path fill="none" stroke="midnightblue" d="M285.836,-130.748C305.236,-136.059 326.313,-141.829 345.016,-146.948"/>
<polygon fill="midnightblue" stroke="midnightblue" points="286.736,-127.366 276.166,-128.101 284.888,-134.118 286.736,-127.366"/>
</g>
<!-- Node7 -->
<g id="node7" class="node"><title>Node7</title>
<g id="a_node7"><a xlink:href="../../dc/d34/classpocketmine_1_1inventory_1_1_furnace_inventory.html#a5c9e307818bee9a64b8aae1a3e4e58a9" target="_top" xlink:title="pocketmine\\inventory\l\\FurnaceInventory\\setFuel">
<polygon fill="white" stroke="black" points="332,-98 332,-128 470,-128 470,-98 332,-98"/>
<text text-anchor="start" x="340" y="-116" font-family="Helvetica,sans-Serif" font-size="10.00">pocketmine\inventory</text>
<text text-anchor="middle" x="401" y="-105" font-family="Helvetica,sans-Serif" font-size="10.00">\FurnaceInventory\setFuel</text>
</a>
</g>
</g>
<!-- Node6&#45;&gt;Node7 -->
<g id="edge7" class="edge"><title>Node6&#45;&gt;Node7</title>
<path fill="none" stroke="midnightblue" d="M294.426,-113C306.854,-113 319.709,-113 331.991,-113"/>
<polygon fill="midnightblue" stroke="midnightblue" points="294.109,-109.5 284.109,-113 294.109,-116.5 294.109,-109.5"/>
</g>
<!-- Node8 -->
<g id="node8" class="node"><title>Node8</title>
<g id="a_node8"><a xlink:href="../../dc/d34/classpocketmine_1_1inventory_1_1_furnace_inventory.html#ae1e7071536d244eadbf62472da3d51da" target="_top" xlink:title="pocketmine\\inventory\l\\FurnaceInventory\\setResult">
<polygon fill="white" stroke="black" points="327,-49 327,-79 475,-79 475,-49 327,-49"/>
<text text-anchor="start" x="335" y="-67" font-family="Helvetica,sans-Serif" font-size="10.00">pocketmine\inventory</text>
<text text-anchor="middle" x="401" y="-56" font-family="Helvetica,sans-Serif" font-size="10.00">\FurnaceInventory\setResult</text>
</a>
</g>
</g>
<!-- Node6&#45;&gt;Node8 -->
<g id="edge8" class="edge"><title>Node6&#45;&gt;Node8</title>
<path fill="none" stroke="midnightblue" d="M285.836,-95.2515C305.236,-89.9409 326.313,-84.1712 345.016,-79.0516"/>
<polygon fill="midnightblue" stroke="midnightblue" points="284.888,-91.8824 276.166,-97.8986 286.736,-98.634 284.888,-91.8824"/>
</g>
<!-- Node9 -->
<g id="node9" class="node"><title>Node9</title>
<g id="a_node9"><a xlink:href="../../dc/d34/classpocketmine_1_1inventory_1_1_furnace_inventory.html#a45d3b373d8adb32961d8d08fc970c3ec" target="_top" xlink:title="pocketmine\\inventory\l\\FurnaceInventory\\setSmelting">
<polygon fill="white" stroke="black" points="320,-0 320,-30 482,-30 482,-0 320,-0"/>
<text text-anchor="start" x="328" y="-18" font-family="Helvetica,sans-Serif" font-size="10.00">pocketmine\inventory</text>
<text text-anchor="middle" x="401" y="-7" font-family="Helvetica,sans-Serif" font-size="10.00">\FurnaceInventory\setSmelting</text>
</a>
</g>
</g>
<!-- Node6&#45;&gt;Node9 -->
<g id="edge9" class="edge"><title>Node6&#45;&gt;Node9</title>
<path fill="none" stroke="midnightblue" d="M244.925,-91.3078C264.045,-74.9556 292.165,-53.0231 320,-39 326.604,-35.6728 333.753,-32.7187 340.965,-30.1212"/>
<polygon fill="midnightblue" stroke="midnightblue" points="242.556,-88.7303 237.309,-97.9349 247.151,-94.0111 242.556,-88.7303"/>
</g>
</g>
</svg>
