<?xml version="1.0" encoding="UTF-8" standalone="no"?>
<!DOCTYPE svg PUBLIC "-//W3C//DTD SVG 1.1//EN"
 "http://www.w3.org/Graphics/SVG/1.1/DTD/svg11.dtd">
<!-- Generated by graphviz version 2.26.3 (20100126.1600)
 -->
<!-- Title: pocketmine\inventory\BaseInventory\getItem Pages: 1 -->
<!--zoomable 754 -->
<svg id="main" version="1.1" xmlns="http://www.w3.org/2000/svg" xmlns:xlink="http://www.w3.org/1999/xlink" xml:space="preserve" onload="init(evt)">
<style type="text/css"><![CDATA[
.edge:hover path { stroke: red; }
.edge:hover polygon { stroke: red; fill: red; }
]]></style>
<script type="text/javascript"><![CDATA[
var edges = document.getElementsByTagName('g');
if (edges && edges.length) {
  for (var i=0;i<edges.length;i++) {
    if (edges[i].id.substr(0,4)=='edge') {
      edges[i].setAttribute('class','edge');
    }
  }
}
]]></script>
        <defs>
                <circle id="rim" cx="0" cy="0" r="7"/>
                <circle id="rim2" cx="0" cy="0" r="3.5"/>
                <g id="zoomPlus">
                        <use xlink:href="#rim" fill="#404040">
                                <set attributeName="fill" to="#808080" begin="zoomplus.mouseover" end="zoomplus.mouseout"/>
                        </use>
                        <path d="M-4,0h8M0,-4v8" fill="none" stroke="white" stroke-width="1.5" pointer-events="none"/>
                </g>
                <g id="zoomMin">
                        <use xlink:href="#rim" fill="#404040">
                                <set attributeName="fill" to="#808080" begin="zoomminus.mouseover" end="zoomminus.mouseout"/>
                        </use>
                        <path d="M-4,0h8" fill="none" stroke="white" stroke-width="1.5" pointer-events="none"/>
                </g>
                <g id="dirArrow">
                        <path fill="none" stroke="white" stroke-width="1.5" d="M0,-3.0v7 M-2.5,-0.5L0,-3.0L2.5,-0.5"/>
                </g>
               <g id="resetDef">
                       <use xlink:href="#rim2" fill="#404040">
                               <set attributeName="fill" to="#808080" begin="reset.mouseover" end="reset.mouseout"/>
                       </use>
               </g>
        </defs>

<script type="text/javascript">
var viewWidth = 1264;
var viewHeight = 754;
var sectionId = 'dynsection-13';
</script>
<script xlink:href="../../svgpan.js"/>
<svg id="graph" class="graph">
<g id="viewport">
<title>pocketmine\inventory\BaseInventory\getItem</title>
<polygon fill="white" stroke="white" points="-4,5 -4,-750 1261,-750 1261,5 -4,5"/>
<!-- Node1 -->
<g id="node1" class="node"><title>Node1</title>
<polygon fill="#bfbfbf" stroke="black" points="0.5,-452 0.5,-486 119.5,-486 119.5,-452 0.5,-452"/>
<text text-anchor="start" x="8.5" y="-473" font-family="Helvetica,sans-Serif" font-size="10.00">pocketmine\inventory</text>
<text text-anchor="middle" x="60" y="-460" font-family="Helvetica,sans-Serif" font-size="10.00">\BaseInventory\getItem</text>
</g>
<!-- Node2 -->
<g id="node3" class="node"><title>Node2</title>
<a xlink:href="../../d5/dc4/classpocketmine_1_1inventory_1_1_base_inventory.html#a46ca31398256b2a5fecddd025587579b" target="_top" xlink:title="pocketmine\\inventory\l\\BaseInventory\\canAddItem">
<polygon fill="white" stroke="black" points="172,-712 172,-746 310,-746 310,-712 172,-712"/>
<text text-anchor="start" x="180" y="-733" font-family="Helvetica,sans-Serif" font-size="10.00">pocketmine\inventory</text>
<text text-anchor="middle" x="241" y="-720" font-family="Helvetica,sans-Serif" font-size="10.00">\BaseInventory\canAddItem</text>
</a>
</g>
<!-- Node1&#45;&gt;Node2 -->
<g id="edge2" class="edge"><title>Node1&#45;&gt;Node2</title>
<path fill="none" stroke="midnightblue" d="M63.5429,-496.34C71.2974,-544.993 94.3026,-646.759 156,-703 160.676,-707.262 166.034,-710.826 171.737,-713.806"/>
<polygon fill="midnightblue" stroke="midnightblue" points="66.9754,-495.628 62.035,-486.255 60.0523,-496.663 66.9754,-495.628"/>
</g>
<!-- Node3 -->
<g id="node5" class="node"><title>Node3</title>
<a xlink:href="../../d5/dc4/classpocketmine_1_1inventory_1_1_base_inventory.html#ab91f0a13cfec22468eb5e6bfed9a9a80" target="_top" xlink:title="pocketmine\\inventory\l\\BaseInventory\\firstEmpty">
<polygon fill="white" stroke="black" points="175.5,-660 175.5,-694 306.5,-694 306.5,-660 175.5,-660"/>
<text text-anchor="start" x="183.5" y="-681" font-family="Helvetica,sans-Serif" font-size="10.00">pocketmine\inventory</text>
<text text-anchor="middle" x="241" y="-668" font-family="Helvetica,sans-Serif" font-size="10.00">\BaseInventory\firstEmpty</text>
</a>
</g>
<!-- Node1&#45;&gt;Node3 -->
<g id="edge4" class="edge"><title>Node1&#45;&gt;Node3</title>
<path fill="none" stroke="midnightblue" d="M67.0044,-495.901C78.7275,-535.626 106.096,-609.718 156,-651 161.708,-655.721 168.263,-659.586 175.148,-662.75"/>
<polygon fill="midnightblue" stroke="midnightblue" points="70.327,-494.789 64.2316,-486.123 63.5926,-496.699 70.327,-494.789"/>
</g>
<!-- Node4 -->
<g id="node7" class="node"><title>Node4</title>
<a xlink:href="../../dc/d77/classpocketmine_1_1inventory_1_1_player_inventory.html#acf116a16f953b0f2418ef427ea1c9530" target="_top" xlink:title="pocketmine\\inventory\l\\PlayerInventory\\getArmorContents">
<polygon fill="white" stroke="black" points="156,-608 156,-642 326,-642 326,-608 156,-608"/>
<text text-anchor="start" x="164" y="-629" font-family="Helvetica,sans-Serif" font-size="10.00">pocketmine\inventory</text>
<text text-anchor="middle" x="241" y="-616" font-family="Helvetica,sans-Serif" font-size="10.00">\PlayerInventory\getArmorContents</text>
</a>
</g>
<!-- Node1&#45;&gt;Node4 -->
<g id="edge6" class="edge"><title>Node1&#45;&gt;Node4</title>
<path fill="none" stroke="midnightblue" d="M72.842,-495.342C88.5144,-524.799 117.727,-571.919 156,-599 160.787,-602.387 166.026,-605.342 171.477,-607.917"/>
<polygon fill="midnightblue" stroke="midnightblue" points="75.756,-493.357 68.0526,-486.083 69.5386,-496.573 75.756,-493.357"/>
</g>
<!-- Node5 -->
<g id="node9" class="node"><title>Node5</title>
<a xlink:href="../../dc/d34/classpocketmine_1_1inventory_1_1_furnace_inventory.html#af20614dea61a8cafa3ac09023f7573ac" target="_top" xlink:title="pocketmine\\inventory\l\\FurnaceInventory\\getFuel">
<polygon fill="white" stroke="black" points="175.5,-556 175.5,-590 306.5,-590 306.5,-556 175.5,-556"/>
<text text-anchor="start" x="183.5" y="-577" font-family="Helvetica,sans-Serif" font-size="10.00">pocketmine\inventory</text>
<text text-anchor="middle" x="241" y="-564" font-family="Helvetica,sans-Serif" font-size="10.00">\FurnaceInventory\getFuel</text>
</a>
</g>
<!-- Node1&#45;&gt;Node5 -->
<g id="edge8" class="edge"><title>Node1&#45;&gt;Node5</title>
<path fill="none" stroke="midnightblue" d="M84.2434,-493.187C102.588,-510.309 129.136,-532.685 156,-547 162.265,-550.338 169.023,-553.316 175.894,-555.956"/>
<polygon fill="midnightblue" stroke="midnightblue" points="86.5648,-490.564 76.9064,-486.209 81.7409,-495.637 86.5648,-490.564"/>
</g>
<!-- Node6 -->
<g id="node11" class="node"><title>Node6</title>
<a xlink:href="../../dc/d34/classpocketmine_1_1inventory_1_1_furnace_inventory.html#a8f1c939981b7602dfff37f9561490d25" target="_top" xlink:title="pocketmine\\inventory\l\\FurnaceInventory\\getResult">
<polygon fill="white" stroke="black" points="171,-504 171,-538 311,-538 311,-504 171,-504"/>
<text text-anchor="start" x="179" y="-525" font-family="Helvetica,sans-Serif" font-size="10.00">pocketmine\inventory</text>
<text text-anchor="middle" x="241" y="-512" font-family="Helvetica,sans-Serif" font-size="10.00">\FurnaceInventory\getResult</text>
</a>
</g>
<!-- Node1&#45;&gt;Node6 -->
<g id="edge10" class="edge"><title>Node1&#45;&gt;Node6</title>
<path fill="none" stroke="midnightblue" d="M129.278,-488.903C146.53,-493.859 164.872,-499.129 181.601,-503.935"/>
<polygon fill="midnightblue" stroke="midnightblue" points="129.844,-485.424 119.266,-486.027 127.911,-492.152 129.844,-485.424"/>
</g>
<!-- Node7 -->
<g id="node13" class="node"><title>Node7</title>
<a xlink:href="../../dc/d34/classpocketmine_1_1inventory_1_1_furnace_inventory.html#a10b36ed39c567293422622229e39e327" target="_top" xlink:title="pocketmine\\inventory\l\\FurnaceInventory\\getSmelting">
<polygon fill="white" stroke="black" points="166,-452 166,-486 316,-486 316,-452 166,-452"/>
<text text-anchor="start" x="174" y="-473" font-family="Helvetica,sans-Serif" font-size="10.00">pocketmine\inventory</text>
<text text-anchor="middle" x="241" y="-460" font-family="Helvetica,sans-Serif" font-size="10.00">\FurnaceInventory\getSmelting</text>
</a>
</g>
<!-- Node1&#45;&gt;Node7 -->
<g id="edge12" class="edge"><title>Node1&#45;&gt;Node7</title>
<path fill="none" stroke="midnightblue" d="M129.774,-469C141.618,-469 153.962,-469 165.935,-469"/>
<polygon fill="midnightblue" stroke="midnightblue" points="129.517,-465.5 119.517,-469 129.517,-472.5 129.517,-465.5"/>
</g>
<!-- Node8 -->
<g id="node15" class="node"><title>Node8</title>
<a xlink:href="../../dc/d77/classpocketmine_1_1inventory_1_1_player_inventory.html#ac0fe6ab11ec3f4f792474dcf537819dc" target="_top" xlink:title="pocketmine\\inventory\l\\PlayerInventory\\sendContents">
<polygon fill="white" stroke="black" points="165,-340 165,-374 317,-374 317,-340 165,-340"/>
<text text-anchor="start" x="173" y="-361" font-family="Helvetica,sans-Serif" font-size="10.00">pocketmine\inventory</text>
<text text-anchor="middle" x="241" y="-348" font-family="Helvetica,sans-Serif" font-size="10.00">\PlayerInventory\sendContents</text>
</a>
</g>
<!-- Node1&#45;&gt;Node8 -->
<g id="edge14" class="edge"><title>Node1&#45;&gt;Node8</title>
<path fill="none" stroke="midnightblue" d="M96.3122,-446.531C130.802,-425.189 181.913,-393.562 213.251,-374.17"/>
<polygon fill="midnightblue" stroke="midnightblue" points="94.152,-443.751 87.49,-451.99 97.8354,-449.704 94.152,-443.751"/>
</g>
<!-- Node10 -->
<g id="node19" class="node"><title>Node10</title>
<a xlink:href="../../dc/d77/classpocketmine_1_1inventory_1_1_player_inventory.html#aa2c8b45b25cac829ee9316dd5b7b5931" target="_top" xlink:title="pocketmine\\inventory\l\\PlayerInventory\\setItem">
<polygon fill="white" stroke="black" points="558,-381 558,-415 682,-415 682,-381 558,-381"/>
<text text-anchor="start" x="566" y="-402" font-family="Helvetica,sans-Serif" font-size="10.00">pocketmine\inventory</text>
<text text-anchor="middle" x="620" y="-389" font-family="Helvetica,sans-Serif" font-size="10.00">\PlayerInventory\setItem</text>
</a>
</g>
<!-- Node1&#45;&gt;Node10 -->
<g id="edge68" class="edge"><title>Node1&#45;&gt;Node10</title>
<path fill="none" stroke="midnightblue" d="M125.666,-449.429C135.755,-446.942 146.106,-444.683 156,-443 313.271,-416.247 355.713,-436.878 514,-417 528.284,-415.206 543.565,-412.773 557.951,-410.246"/>
<polygon fill="midnightblue" stroke="midnightblue" points="124.512,-446.111 115.691,-451.979 126.246,-452.893 124.512,-446.111"/>
</g>
<!-- Node15 -->
<g id="node31" class="node"><title>Node15</title>
<a xlink:href="../../d5/dc4/classpocketmine_1_1inventory_1_1_base_inventory.html#a78e842dd42ef0a0870385092b3c30896" target="_top" xlink:title="pocketmine\\inventory\l\\BaseInventory\\sendContents">
<polygon fill="white" stroke="black" points="365,-232 365,-266 511,-266 511,-232 365,-232"/>
<text text-anchor="start" x="373" y="-253" font-family="Helvetica,sans-Serif" font-size="10.00">pocketmine\inventory</text>
<text text-anchor="middle" x="438" y="-240" font-family="Helvetica,sans-Serif" font-size="10.00">\BaseInventory\sendContents</text>
</a>
</g>
<!-- Node1&#45;&gt;Node15 -->
<g id="edge32" class="edge"><title>Node1&#45;&gt;Node15</title>
<path fill="none" stroke="midnightblue" d="M71.6762,-442.345C86.7164,-411.088 115.791,-359.887 156,-331 218.112,-286.377 304.253,-265.894 364.94,-256.582"/>
<polygon fill="midnightblue" stroke="midnightblue" points="68.3494,-441.197 67.2898,-451.739 74.692,-444.158 68.3494,-441.197"/>
</g>
<!-- Node21 -->
<g id="node43" class="node"><title>Node21</title>
<a xlink:href="../../d5/dc4/classpocketmine_1_1inventory_1_1_base_inventory.html#a99f7ddb22a3e614d55daefe9d4b9eaeb" target="_top" xlink:title="pocketmine\\inventory\l\\BaseInventory\\setItem">
<polygon fill="white" stroke="black" points="751.5,-104 751.5,-138 870.5,-138 870.5,-104 751.5,-104"/>
<text text-anchor="start" x="759.5" y="-125" font-family="Helvetica,sans-Serif" font-size="10.00">pocketmine\inventory</text>
<text text-anchor="middle" x="811" y="-112" font-family="Helvetica,sans-Serif" font-size="10.00">\BaseInventory\setItem</text>
</a>
</g>
<!-- Node1&#45;&gt;Node21 -->
<g id="edge66" class="edge"><title>Node1&#45;&gt;Node21</title>
<path fill="none" stroke="midnightblue" d="M61.6234,-441.602C66.3532,-387.808 84.7567,-268.215 156,-206 326.798,-56.8457 624.562,-87.404 751.225,-109.033"/>
<polygon fill="midnightblue" stroke="midnightblue" points="58.1208,-441.5 60.8278,-451.743 65.0993,-442.047 58.1208,-441.5"/>
</g>
<!-- Node26 -->
<g id="node55" class="node"><title>Node26</title>
<a xlink:href="../../d5/dc4/classpocketmine_1_1inventory_1_1_base_inventory.html#ad84dac811677e799d06924279a4288cc" target="_top" xlink:title="pocketmine\\inventory\l\\BaseInventory\\sendSlot">
<polygon fill="white" stroke="black" points="179,-215 179,-249 303,-249 303,-215 179,-215"/>
<text text-anchor="start" x="187" y="-236" font-family="Helvetica,sans-Serif" font-size="10.00">pocketmine\inventory</text>
<text text-anchor="middle" x="241" y="-223" font-family="Helvetica,sans-Serif" font-size="10.00">\BaseInventory\sendSlot</text>
</a>
</g>
<!-- Node1&#45;&gt;Node26 -->
<g id="edge58" class="edge"><title>Node1&#45;&gt;Node26</title>
<path fill="none" stroke="midnightblue" d="M65.9749,-442.057C76.7926,-399.209 103.531,-315.351 156,-266 163.294,-259.14 172.145,-253.597 181.346,-249.139"/>
<polygon fill="midnightblue" stroke="midnightblue" points="62.5731,-441.234 63.6182,-451.777 69.3761,-442.883 62.5731,-441.234"/>
</g>
<!-- Node9 -->
<g id="node17" class="node"><title>Node9</title>
<a xlink:href="../../dc/d77/classpocketmine_1_1inventory_1_1_player_inventory.html#a725ed4489f073b21e061cef5a6bb78ed" target="_top" xlink:title="pocketmine\\inventory\l\\PlayerInventory\\sendHeldItem">
<polygon fill="white" stroke="black" points="362,-374 362,-408 514,-408 514,-374 362,-374"/>
<text text-anchor="start" x="370" y="-395" font-family="Helvetica,sans-Serif" font-size="10.00">pocketmine\inventory</text>
<text text-anchor="middle" x="438" y="-382" font-family="Helvetica,sans-Serif" font-size="10.00">\PlayerInventory\sendHeldItem</text>
</a>
</g>
<!-- Node8&#45;&gt;Node9 -->
<g id="edge16" class="edge"><title>Node8&#45;&gt;Node9</title>
<path fill="none" stroke="midnightblue" d="M327.191,-371.876C338.684,-373.859 350.404,-375.882 361.712,-377.834"/>
<polygon fill="midnightblue" stroke="midnightblue" points="327.615,-368.397 317.165,-370.145 326.424,-375.295 327.615,-368.397"/>
</g>
<!-- Node8&#45;&gt;Node10 -->
<g id="edge18" class="edge"><title>Node8&#45;&gt;Node10</title>
<path fill="none" stroke="midnightblue" d="M327.372,-353.556C381.369,-352.875 452.16,-354.668 514,-365 534.341,-368.399 556.196,-374.721 574.746,-380.93"/>
<polygon fill="midnightblue" stroke="midnightblue" points="327.092,-350.06 317.149,-353.717 327.202,-357.059 327.092,-350.06"/>
</g>
<!-- Node13 -->
<g id="node25" class="node"><title>Node13</title>
<a xlink:href="../../dc/d77/classpocketmine_1_1inventory_1_1_player_inventory.html#a1b9f22225b0a8cee8cd57855c02724ab" target="_top" xlink:title="pocketmine\\inventory\l\\PlayerInventory\\clear">
<polygon fill="white" stroke="black" points="382,-284 382,-318 494,-318 494,-284 382,-284"/>
<text text-anchor="start" x="390" y="-305" font-family="Helvetica,sans-Serif" font-size="10.00">pocketmine\inventory</text>
<text text-anchor="middle" x="438" y="-292" font-family="Helvetica,sans-Serif" font-size="10.00">\PlayerInventory\clear</text>
</a>
</g>
<!-- Node8&#45;&gt;Node13 -->
<g id="edge24" class="edge"><title>Node8&#45;&gt;Node13</title>
<path fill="none" stroke="midnightblue" d="M310.723,-337.18C333.998,-330.564 359.624,-323.28 381.743,-316.992"/>
<polygon fill="midnightblue" stroke="midnightblue" points="309.571,-333.869 300.909,-339.97 311.485,-340.602 309.571,-333.869"/>
</g>
<!-- Node11 -->
<g id="node21" class="node"><title>Node11</title>
<a xlink:href="../../dc/d77/classpocketmine_1_1inventory_1_1_player_inventory.html#aea00deec1dff34be27e648a71f3cfaa3" target="_top" xlink:title="pocketmine\\inventory\l\\PlayerInventory\\setItemInHand">
<polygon fill="white" stroke="black" points="733.5,-381 733.5,-415 888.5,-415 888.5,-381 733.5,-381"/>
<text text-anchor="start" x="741.5" y="-402" font-family="Helvetica,sans-Serif" font-size="10.00">pocketmine\inventory</text>
<text text-anchor="middle" x="811" y="-389" font-family="Helvetica,sans-Serif" font-size="10.00">\PlayerInventory\setItemInHand</text>
</a>
</g>
<!-- Node10&#45;&gt;Node11 -->
<g id="edge20" class="edge"><title>Node10&#45;&gt;Node11</title>
<path fill="none" stroke="midnightblue" d="M692.135,-398C705.565,-398 719.652,-398 733.242,-398"/>
<polygon fill="midnightblue" stroke="midnightblue" points="692.012,-394.5 682.012,-398 692.012,-401.5 692.012,-394.5"/>
</g>
<!-- Node12 -->
<g id="node23" class="node"><title>Node12</title>
<a xlink:href="../../dc/d77/classpocketmine_1_1inventory_1_1_player_inventory.html#aad6eea0b7a857bd16a25329e41cbcf3d" target="_top" xlink:title="pocketmine\\inventory\l\\PlayerInventory\\setArmorContents">
<polygon fill="white" stroke="black" points="726,-317 726,-351 896,-351 896,-317 726,-317"/>
<text text-anchor="start" x="734" y="-338" font-family="Helvetica,sans-Serif" font-size="10.00">pocketmine\inventory</text>
<text text-anchor="middle" x="811" y="-325" font-family="Helvetica,sans-Serif" font-size="10.00">\PlayerInventory\setArmorContents</text>
</a>
</g>
<!-- Node10&#45;&gt;Node12 -->
<g id="edge22" class="edge"><title>Node10&#45;&gt;Node12</title>
<path fill="none" stroke="midnightblue" d="M680.551,-377.711C706.191,-369.119 735.73,-359.221 760.208,-351.019"/>
<polygon fill="midnightblue" stroke="midnightblue" points="679.303,-374.437 670.934,-380.933 681.527,-381.075 679.303,-374.437"/>
</g>
<!-- Node13&#45;&gt;Node10 -->
<g id="edge30" class="edge"><title>Node13&#45;&gt;Node10</title>
<path fill="none" stroke="midnightblue" d="M498.411,-322.629C503.859,-325.466 509.145,-328.588 514,-332 533.568,-345.753 530.217,-358.558 550,-372 554.933,-375.351 560.353,-378.338 565.926,-380.983"/>
<polygon fill="midnightblue" stroke="midnightblue" points="499.659,-319.345 489.134,-318.125 496.601,-325.641 499.659,-319.345"/>
</g>
<!-- Node13&#45;&gt;Node12 -->
<g id="edge28" class="edge"><title>Node13&#45;&gt;Node12</title>
<path fill="none" stroke="midnightblue" d="M504.305,-305.273C555.161,-308.727 627.075,-313.99 690,-320 701.578,-321.106 713.767,-322.383 725.768,-323.706"/>
<polygon fill="midnightblue" stroke="midnightblue" points="504.317,-301.766 494.104,-304.586 503.846,-308.75 504.317,-301.766"/>
</g>
<!-- Node14 -->
<g id="node27" class="node"><title>Node14</title>
<a xlink:href="../../dc/d77/classpocketmine_1_1inventory_1_1_player_inventory.html#a75d7d59372f2f6e2ced5364aac6a930c" target="_top" xlink:title="pocketmine\\inventory\l\\PlayerInventory\\clearAll">
<polygon fill="white" stroke="black" points="558.5,-329 558.5,-363 681.5,-363 681.5,-329 558.5,-329"/>
<text text-anchor="start" x="566.5" y="-350" font-family="Helvetica,sans-Serif" font-size="10.00">pocketmine\inventory</text>
<text text-anchor="middle" x="620" y="-337" font-family="Helvetica,sans-Serif" font-size="10.00">\PlayerInventory\clearAll</text>
</a>
</g>
<!-- Node13&#45;&gt;Node14 -->
<g id="edge26" class="edge"><title>Node13&#45;&gt;Node14</title>
<path fill="none" stroke="midnightblue" d="M503.82,-317.274C521.626,-321.677 540.827,-326.424 558.392,-330.767"/>
<polygon fill="midnightblue" stroke="midnightblue" points="504.639,-313.871 494.091,-314.869 502.959,-320.667 504.639,-313.871"/>
</g>
<!-- Node16 -->
<g id="node33" class="node"><title>Node16</title>
<a xlink:href="../../d5/dc4/classpocketmine_1_1inventory_1_1_base_inventory.html#a4e37b46b040119e90211c5078dd79662" target="_top" xlink:title="pocketmine\\inventory\l\\BaseInventory\\clear">
<polygon fill="white" stroke="black" points="565,-187 565,-221 675,-221 675,-187 565,-187"/>
<text text-anchor="start" x="573" y="-208" font-family="Helvetica,sans-Serif" font-size="10.00">pocketmine\inventory</text>
<text text-anchor="middle" x="620" y="-195" font-family="Helvetica,sans-Serif" font-size="10.00">\BaseInventory\clear</text>
</a>
</g>
<!-- Node15&#45;&gt;Node16 -->
<g id="edge34" class="edge"><title>Node15&#45;&gt;Node16</title>
<path fill="none" stroke="midnightblue" d="M516.826,-229.51C533.057,-225.497 549.815,-221.353 564.983,-217.603"/>
<polygon fill="midnightblue" stroke="midnightblue" points="515.674,-226.189 506.806,-231.987 517.354,-232.985 515.674,-226.189"/>
</g>
<!-- Node15&#45;&gt;Node21 -->
<g id="edge56" class="edge"><title>Node15&#45;&gt;Node21</title>
<path fill="none" stroke="midnightblue" d="M507.464,-227.192C509.717,-225.87 511.904,-224.474 514,-223 534.951,-208.268 528.239,-191.508 550,-178 558.608,-172.657 677.081,-148.048 751.417,-132.966"/>
<polygon fill="midnightblue" stroke="midnightblue" points="505.698,-224.167 498.49,-231.932 508.967,-230.356 505.698,-224.167"/>
</g>
<!-- Node25 -->
<g id="node52" class="node"><title>Node25</title>
<a xlink:href="../../dc/d02/classpocketmine_1_1inventory_1_1_container_inventory.html#aea6c5161d4a1c36119440a95beb7c78c" target="_top" xlink:title="pocketmine\\inventory\l\\ContainerInventory\\onOpen">
<polygon fill="white" stroke="black" points="550.5,-239 550.5,-273 689.5,-273 689.5,-239 550.5,-239"/>
<text text-anchor="start" x="558.5" y="-260" font-family="Helvetica,sans-Serif" font-size="10.00">pocketmine\inventory</text>
<text text-anchor="middle" x="620" y="-247" font-family="Helvetica,sans-Serif" font-size="10.00">\ContainerInventory\onOpen</text>
</a>
</g>
<!-- Node15&#45;&gt;Node25 -->
<g id="edge54" class="edge"><title>Node15&#45;&gt;Node25</title>
<path fill="none" stroke="midnightblue" d="M521.328,-252.205C531.068,-252.58 540.926,-252.959 550.452,-253.325"/>
<polygon fill="midnightblue" stroke="midnightblue" points="521.367,-248.704 511.24,-251.817 521.098,-255.699 521.367,-248.704"/>
</g>
<!-- Node17 -->
<g id="node35" class="node"><title>Node17</title>
<a xlink:href="../../d5/dc4/classpocketmine_1_1inventory_1_1_base_inventory.html#a4c7aef211a9628f380e7de98b49c4551" target="_top" xlink:title="pocketmine\\inventory\l\\BaseInventory\\clearAll">
<polygon fill="white" stroke="black" points="752,-250 752,-284 870,-284 870,-250 752,-250"/>
<text text-anchor="start" x="760" y="-271" font-family="Helvetica,sans-Serif" font-size="10.00">pocketmine\inventory</text>
<text text-anchor="middle" x="811" y="-258" font-family="Helvetica,sans-Serif" font-size="10.00">\BaseInventory\clearAll</text>
</a>
</g>
<!-- Node16&#45;&gt;Node17 -->
<g id="edge36" class="edge"><title>Node16&#45;&gt;Node17</title>
<path fill="none" stroke="midnightblue" d="M677.233,-224.436C692.995,-229.938 710.122,-235.803 726,-241 735.093,-243.976 744.767,-247.036 754.208,-249.964"/>
<polygon fill="midnightblue" stroke="midnightblue" points="678.215,-221.071 667.62,-221.065 675.899,-227.677 678.215,-221.071"/>
</g>
<!-- Node18 -->
<g id="node37" class="node"><title>Node18</title>
<a xlink:href="../../d5/dc4/classpocketmine_1_1inventory_1_1_base_inventory.html#a5c676080faee6eaecdc04a70fcedf142" target="_top" xlink:title="pocketmine\\inventory\l\\BaseInventory\\remove">
<polygon fill="white" stroke="black" points="752,-198 752,-232 870,-232 870,-198 752,-198"/>
<text text-anchor="start" x="760" y="-219" font-family="Helvetica,sans-Serif" font-size="10.00">pocketmine\inventory</text>
<text text-anchor="middle" x="811" y="-206" font-family="Helvetica,sans-Serif" font-size="10.00">\BaseInventory\remove</text>
</a>
</g>
<!-- Node16&#45;&gt;Node18 -->
<g id="edge38" class="edge"><title>Node16&#45;&gt;Node18</title>
<path fill="none" stroke="midnightblue" d="M685.309,-207.761C706.898,-209.005 730.781,-210.38 751.879,-211.595"/>
<polygon fill="midnightblue" stroke="midnightblue" points="685.43,-204.263 675.245,-207.182 685.027,-211.251 685.43,-204.263"/>
</g>
<!-- Node19 -->
<g id="node39" class="node"><title>Node19</title>
<a xlink:href="../../d5/dc4/classpocketmine_1_1inventory_1_1_base_inventory.html#a295a782543c002623d01ec47a6e93329" target="_top" xlink:title="pocketmine\\inventory\l\\BaseInventory\\setContents">
<polygon fill="white" stroke="black" points="937.5,-156 937.5,-190 1076.5,-190 1076.5,-156 937.5,-156"/>
<text text-anchor="start" x="945.5" y="-177" font-family="Helvetica,sans-Serif" font-size="10.00">pocketmine\inventory</text>
<text text-anchor="middle" x="1007" y="-164" font-family="Helvetica,sans-Serif" font-size="10.00">\BaseInventory\setContents</text>
</a>
</g>
<!-- Node16&#45;&gt;Node19 -->
<g id="edge40" class="edge"><title>Node16&#45;&gt;Node19</title>
<path fill="none" stroke="midnightblue" d="M685.308,-193.884C698.74,-192.049 712.809,-190.307 726,-189 797.845,-181.884 880.36,-177.652 937.298,-175.346"/>
<polygon fill="midnightblue" stroke="midnightblue" points="684.603,-190.448 675.184,-195.299 685.572,-197.381 684.603,-190.448"/>
</g>
<!-- Node16&#45;&gt;Node21 -->
<g id="edge44" class="edge"><title>Node16&#45;&gt;Node21</title>
<path fill="none" stroke="midnightblue" d="M668.133,-182.868C675.471,-179.593 682.946,-176.227 690,-173 706.091,-165.639 709.814,-163.149 726,-156 739.723,-149.939 754.828,-143.61 768.45,-138.028"/>
<polygon fill="midnightblue" stroke="midnightblue" points="666.668,-179.689 658.953,-186.95 669.512,-186.085 666.668,-179.689"/>
</g>
<!-- Node20 -->
<g id="node41" class="node"><title>Node20</title>
<a xlink:href="../../d5/dc4/classpocketmine_1_1inventory_1_1_base_inventory.html#afaac83c7a4ade74f9bd461f68a48c30a" target="_top" xlink:title="pocketmine\\inventory\l\\BaseInventory\\__construct">
<polygon fill="white" stroke="black" points="1118.5,-156 1118.5,-190 1255.5,-190 1255.5,-156 1118.5,-156"/>
<text text-anchor="start" x="1126.5" y="-177" font-family="Helvetica,sans-Serif" font-size="10.00">pocketmine\inventory</text>
<text text-anchor="middle" x="1187" y="-164" font-family="Helvetica,sans-Serif" font-size="10.00">\BaseInventory\__construct</text>
</a>
</g>
<!-- Node19&#45;&gt;Node20 -->
<g id="edge42" class="edge"><title>Node19&#45;&gt;Node20</title>
<path fill="none" stroke="midnightblue" d="M1086.68,-173C1097.29,-173 1108.09,-173 1118.48,-173"/>
<polygon fill="midnightblue" stroke="midnightblue" points="1086.59,-169.5 1076.59,-173 1086.59,-176.5 1086.59,-169.5"/>
</g>
<!-- Node21&#45;&gt;Node19 -->
<g id="edge46" class="edge"><title>Node21&#45;&gt;Node19</title>
<path fill="none" stroke="midnightblue" d="M880.429,-139.42C900.772,-144.817 922.914,-150.692 942.909,-155.996"/>
<polygon fill="midnightblue" stroke="midnightblue" points="881.168,-135.995 870.605,-136.814 879.373,-142.761 881.168,-135.995"/>
</g>
<!-- Node22 -->
<g id="node46" class="node"><title>Node22</title>
<a xlink:href="../../dc/d34/classpocketmine_1_1inventory_1_1_furnace_inventory.html#a5c9e307818bee9a64b8aae1a3e4e58a9" target="_top" xlink:title="pocketmine\\inventory\l\\FurnaceInventory\\setFuel">
<polygon fill="white" stroke="black" points="941.5,-104 941.5,-138 1072.5,-138 1072.5,-104 941.5,-104"/>
<text text-anchor="start" x="949.5" y="-125" font-family="Helvetica,sans-Serif" font-size="10.00">pocketmine\inventory</text>
<text text-anchor="middle" x="1007" y="-112" font-family="Helvetica,sans-Serif" font-size="10.00">\FurnaceInventory\setFuel</text>
</a>
</g>
<!-- Node21&#45;&gt;Node22 -->
<g id="edge48" class="edge"><title>Node21&#45;&gt;Node22</title>
<path fill="none" stroke="midnightblue" d="M880.725,-121C900.402,-121 921.744,-121 941.184,-121"/>
<polygon fill="midnightblue" stroke="midnightblue" points="880.605,-117.5 870.605,-121 880.605,-124.5 880.605,-117.5"/>
</g>
<!-- Node23 -->
<g id="node48" class="node"><title>Node23</title>
<a xlink:href="../../dc/d34/classpocketmine_1_1inventory_1_1_furnace_inventory.html#ae1e7071536d244eadbf62472da3d51da" target="_top" xlink:title="pocketmine\\inventory\l\\FurnaceInventory\\setResult">
<polygon fill="white" stroke="black" points="937,-52 937,-86 1077,-86 1077,-52 937,-52"/>
<text text-anchor="start" x="945" y="-73" font-family="Helvetica,sans-Serif" font-size="10.00">pocketmine\inventory</text>
<text text-anchor="middle" x="1007" y="-60" font-family="Helvetica,sans-Serif" font-size="10.00">\FurnaceInventory\setResult</text>
</a>
</g>
<!-- Node21&#45;&gt;Node23 -->
<g id="edge50" class="edge"><title>Node21&#45;&gt;Node23</title>
<path fill="none" stroke="midnightblue" d="M880.429,-102.58C900.772,-97.183 922.914,-91.3085 942.909,-86.0038"/>
<polygon fill="midnightblue" stroke="midnightblue" points="879.373,-99.2391 870.605,-105.186 881.168,-106.005 879.373,-99.2391"/>
</g>
<!-- Node24 -->
<g id="node50" class="node"><title>Node24</title>
<a xlink:href="../../dc/d34/classpocketmine_1_1inventory_1_1_furnace_inventory.html#a45d3b373d8adb32961d8d08fc970c3ec" target="_top" xlink:title="pocketmine\\inventory\l\\FurnaceInventory\\setSmelting">
<polygon fill="white" stroke="black" points="932,-0 932,-34 1082,-34 1082,-0 932,-0"/>
<text text-anchor="start" x="940" y="-21" font-family="Helvetica,sans-Serif" font-size="10.00">pocketmine\inventory</text>
<text text-anchor="middle" x="1007" y="-8" font-family="Helvetica,sans-Serif" font-size="10.00">\FurnaceInventory\setSmelting</text>
</a>
</g>
<!-- Node21&#45;&gt;Node24 -->
<g id="edge52" class="edge"><title>Node21&#45;&gt;Node24</title>
<path fill="none" stroke="midnightblue" d="M842.381,-97.7935C866.115,-80.9942 899.979,-58.5923 932,-43 938.567,-39.8024 945.629,-36.8143 952.7,-34.0862"/>
<polygon fill="midnightblue" stroke="midnightblue" points="840.213,-95.0407 834.117,-103.706 844.287,-100.734 840.213,-95.0407"/>
</g>
<!-- Node27 -->
<g id="node57" class="node"><title>Node27</title>
<a xlink:href="../../d5/dc4/classpocketmine_1_1inventory_1_1_base_inventory.html#a372297a2da072277724b5a20453bb423" target="_top" xlink:title="pocketmine\\inventory\l\\BaseInventory\\onSlotChange">
<polygon fill="white" stroke="black" points="364.5,-180 364.5,-214 511.5,-214 511.5,-180 364.5,-180"/>
<text text-anchor="start" x="372.5" y="-201" font-family="Helvetica,sans-Serif" font-size="10.00">pocketmine\inventory</text>
<text text-anchor="middle" x="438" y="-188" font-family="Helvetica,sans-Serif" font-size="10.00">\BaseInventory\onSlotChange</text>
</a>
</g>
<!-- Node26&#45;&gt;Node27 -->
<g id="edge60" class="edge"><title>Node26&#45;&gt;Node27</title>
<path fill="none" stroke="midnightblue" d="M313.24,-219.165C329.84,-216.216 347.513,-213.076 364.178,-210.116"/>
<polygon fill="midnightblue" stroke="midnightblue" points="312.295,-215.778 303.062,-220.974 313.52,-222.671 312.295,-215.778"/>
</g>
<!-- Node27&#45;&gt;Node16 -->
<g id="edge62" class="edge"><title>Node27&#45;&gt;Node16</title>
<path fill="none" stroke="midnightblue" d="M521.626,-200.216C536.336,-200.782 551.305,-201.358 564.982,-201.884"/>
<polygon fill="midnightblue" stroke="midnightblue" points="521.629,-196.714 511.502,-199.827 521.36,-203.709 521.629,-196.714"/>
</g>
<!-- Node27&#45;&gt;Node21 -->
<g id="edge64" class="edge"><title>Node27&#45;&gt;Node21</title>
<path fill="none" stroke="midnightblue" d="M476.307,-175.217C497.386,-164.271 524.395,-151.899 550,-145 617.443,-126.829 697.845,-121.82 751.417,-120.722"/>
<polygon fill="midnightblue" stroke="midnightblue" points="474.557,-172.183 467.363,-179.96 477.837,-178.367 474.557,-172.183"/>
</g>
</g>
</svg>
        <g id="navigator" transform="translate(0 0)" fill="#404254">
                <rect fill="#f2f5e9" fill-opacity="0.5" stroke="#606060" stroke-width=".5" x="0" y="0" width="60" height="60"/>
                <use id="zoomplus" xlink:href="#zoomPlus" x="17" y="9" onmousedown="handleZoom(evt,'in')"/>
                <use id="zoomminus" xlink:href="#zoomMin" x="42" y="9" onmousedown="handleZoom(evt,'out')"/>
                <use id="reset" xlink:href="#resetDef" x="30" y="36" onmousedown="handleReset()"/>
                <g id="arrowUp" xlink:href="#dirArrow" transform="translate(30 24)" onmousedown="handlePan(0,-1)">
                  <use xlink:href="#rim" fill="#404040">
                        <set attributeName="fill" to="#808080" begin="arrowUp.mouseover" end="arrowUp.mouseout"/>
                  </use>
                  <path fill="none" stroke="white" stroke-width="1.5" d="M0,-3.0v7 M-2.5,-0.5L0,-3.0L2.5,-0.5"/>
                </g>
                <g id="arrowRight" xlink:href="#dirArrow" transform="rotate(90) translate(36 -43)" onmousedown="handlePan(1,0)">
                  <use xlink:href="#rim" fill="#404040">
                        <set attributeName="fill" to="#808080" begin="arrowRight.mouseover" end="arrowRight.mouseout"/>
                  </use>
                  <path fill="none" stroke="white" stroke-width="1.5" d="M0,-3.0v7 M-2.5,-0.5L0,-3.0L2.5,-0.5"/>
                </g>
                <g id="arrowDown" xlink:href="#dirArrow" transform="rotate(180) translate(-30 -48)" onmousedown="handlePan(0,1)">
                  <use xlink:href="#rim" fill="#404040">
                        <set attributeName="fill" to="#808080" begin="arrowDown.mouseover" end="arrowDown.mouseout"/>
                  </use>
                  <path fill="none" stroke="white" stroke-width="1.5" d="M0,-3.0v7 M-2.5,-0.5L0,-3.0L2.5,-0.5"/>
                </g>
                <g id="arrowLeft" xlink:href="#dirArrow" transform="rotate(270) translate(-36 17)" onmousedown="handlePan(-1,0)">
                  <use xlink:href="#rim" fill="#404040">
                        <set attributeName="fill" to="#808080" begin="arrowLeft.mouseover" end="arrowLeft.mouseout"/>
                  </use>
                  <path fill="none" stroke="white" stroke-width="1.5" d="M0,-3.0v7 M-2.5,-0.5L0,-3.0L2.5,-0.5"/>
                </g>
        </g>
        <svg viewBox="0 0 15 15" width="100%" height="30px" preserveAspectRatio="xMaxYMin meet">
         <g id="arrow_out" transform="scale(0.3 0.3)">
          <a xlink:href="classpocketmine_1_1inventory_1_1_base_inventory_a8bc94c0515906b5c1f3af5600d89b3df_icgraph_org.svg" target="_base">
           <rect id="button" ry="5" rx="5" y="6" x="6" height="38" width="38"
                fill="#f2f5e9" fill-opacity="0.5" stroke="#606060" stroke-width="1.0"/>
           <path id="arrow"
             d="M 11.500037,31.436501 C 11.940474,20.09759 22.043105,11.32322 32.158766,21.979434 L 37.068811,17.246167 C 37.068811,17.246167 37.088388,32 37.088388,32 L 22.160133,31.978069 C 22.160133,31.978069 26.997745,27.140456 26.997745,27.140456 C 18.528582,18.264221 13.291696,25.230495 11.500037,31.436501 z"
             style="fill:#404040;"/>
          </a>
         </g>
        </svg>
</svg>
