<?xml version="1.0" encoding="UTF-8" standalone="no"?>
<!DOCTYPE svg PUBLIC "-//W3C//DTD SVG 1.1//EN"
 "http://www.w3.org/Graphics/SVG/1.1/DTD/svg11.dtd">
<!-- Generated by graphviz version 2.36.0 (20140111.2315)
 -->
<!-- Title: pocketmine\inventory\BaseInventory\open Pages: 1 -->
<svg width="320pt" height="77pt"
 viewBox="0.00 0.00 320.00 77.00" xmlns="http://www.w3.org/2000/svg" xmlns:xlink="http://www.w3.org/1999/xlink">
<g id="graph0" class="graph" transform="scale(1 1) rotate(0) translate(4 73)">
<title>pocketmine\inventory\BaseInventory\open</title>
<polygon fill="white" stroke="none" points="-4,4 -4,-73 316,-73 316,4 -4,4"/>
<!-- Node1 -->
<g id="node1" class="node"><title>Node1</title>
<polygon fill="#bfbfbf" stroke="black" points="0,-22 0,-52 120,-52 120,-22 0,-22"/>
<text text-anchor="start" x="8" y="-40" font-family="Helvetica,sans-Serif" font-size="10.00">pocketmine\inventory</text>
<text text-anchor="middle" x="60" y="-29" font-family="Helvetica,sans-Serif" font-size="10.00">\BaseInventory\open</text>
</g>
<!-- Node2 -->
<g id="node2" class="node"><title>Node2</title>
<g id="a_node2"><a xlink:href="../../df/d2c/classpocketmine_1_1_player.html#a6d03d1e69a0e6deea6e05d030da2bd91" target="_top" xlink:title="pocketmine\\Player\\getServer">
<polygon fill="white" stroke="black" points="156.5,-49.5 156.5,-68.5 311.5,-68.5 311.5,-49.5 156.5,-49.5"/>
<text text-anchor="middle" x="234" y="-56.5" font-family="Helvetica,sans-Serif" font-size="10.00">pocketmine\Player\getServer</text>
</a>
</g>
</g>
<!-- Node1&#45;&gt;Node2 -->
<g id="edge1" class="edge"><title>Node1&#45;&gt;Node2</title>
<path fill="none" stroke="midnightblue" d="M120.193,-44.5712C129.352,-45.7427 138.962,-46.9719 148.547,-48.1979"/>
<polygon fill="midnightblue" stroke="midnightblue" points="148.143,-51.6746 158.506,-49.4717 149.031,-44.7312 148.143,-51.6746"/>
</g>
<!-- Node3 -->
<g id="node3" class="node"><title>Node3</title>
<g id="a_node3"><a xlink:href="../../d5/dc4/classpocketmine_1_1inventory_1_1_base_inventory.html#ad61d0fa541f73c0387c81dc3c46def67" target="_top" xlink:title="pocketmine\\inventory\l\\BaseInventory\\onOpen">
<polygon fill="white" stroke="black" points="170,-0 170,-30 298,-30 298,-0 170,-0"/>
<text text-anchor="start" x="178" y="-18" font-family="Helvetica,sans-Serif" font-size="10.00">pocketmine\inventory</text>
<text text-anchor="middle" x="234" y="-7" font-family="Helvetica,sans-Serif" font-size="10.00">\BaseInventory\onOpen</text>
</a>
</g>
</g>
<!-- Node1&#45;&gt;Node3 -->
<g id="edge2" class="edge"><title>Node1&#45;&gt;Node3</title>
<path fill="none" stroke="midnightblue" d="M120.193,-29.4288C132.97,-27.7946 146.624,-26.0481 159.862,-24.3549"/>
<polygon fill="midnightblue" stroke="midnightblue" points="160.407,-27.8137 169.883,-23.0732 159.519,-20.8703 160.407,-27.8137"/>
</g>
</g>
</svg>
