<?xml version="1.0" encoding="UTF-8" standalone="no"?>
<!DOCTYPE svg PUBLIC "-//W3C//DTD SVG 1.1//EN"
 "http://www.w3.org/Graphics/SVG/1.1/DTD/svg11.dtd">
<!-- Generated by graphviz version 2.26.3 (20100126.1600)
 -->
<!-- Title: pocketmine\inventory\BaseInventory\first Pages: 1 -->
<svg width="294pt" height="42pt"
 viewBox="0.00 0.00 294.00 42.00" xmlns="http://www.w3.org/2000/svg" xmlns:xlink="http://www.w3.org/1999/xlink">
<g id="graph1" class="graph" transform="scale(1 1) rotate(0) translate(4 38)">
<title>pocketmine\inventory\BaseInventory\first</title>
<polygon fill="white" stroke="white" points="-4,5 -4,-38 291,-38 291,5 -4,5"/>
<!-- Node1 -->
<g id="node1" class="node"><title>Node1</title>
<polygon fill="#bfbfbf" stroke="black" points="0,-0 0,-34 110,-34 110,-0 0,-0"/>
<text text-anchor="start" x="8" y="-21" font-family="Helvetica,sans-Serif" font-size="10.00">pocketmine\inventory</text>
<text text-anchor="middle" x="55" y="-8" font-family="Helvetica,sans-Serif" font-size="10.00">\BaseInventory\first</text>
</g>
<!-- Node2 -->
<g id="node3" class="node"><title>Node2</title>
<a xlink:href="../../d5/dc4/classpocketmine_1_1inventory_1_1_base_inventory.html#a0e8340ccc6267464b500f41e32d96059" target="_top" xlink:title="pocketmine\\inventory\l\\BaseInventory\\getContents">
<polygon fill="white" stroke="black" points="146.5,-0 146.5,-34 285.5,-34 285.5,-0 146.5,-0"/>
<text text-anchor="start" x="154.5" y="-21" font-family="Helvetica,sans-Serif" font-size="10.00">pocketmine\inventory</text>
<text text-anchor="middle" x="216" y="-8" font-family="Helvetica,sans-Serif" font-size="10.00">\BaseInventory\getContents</text>
</a>
</g>
<!-- Node1&#45;&gt;Node2 -->
<g id="edge2" class="edge"><title>Node1&#45;&gt;Node2</title>
<path fill="none" stroke="midnightblue" d="M110.407,-17C118.71,-17 127.409,-17 136.098,-17"/>
<polygon fill="midnightblue" stroke="midnightblue" points="136.27,-20.5001 146.27,-17 136.27,-13.5001 136.27,-20.5001"/>
</g>
</g>
</svg>
