<?xml version="1.0" encoding="UTF-8" standalone="no"?>
<!DOCTYPE svg PUBLIC "-//W3C//DTD SVG 1.1//EN"
 "http://www.w3.org/Graphics/SVG/1.1/DTD/svg11.dtd">
<!-- Generated by graphviz version 2.36.0 (20140111.2315)
 -->
<!-- Title: pocketmine\event\server\ServerEvent Pages: 1 -->
<!--zoomable 560 -->
<svg id="main" version="1.1" xmlns="http://www.w3.org/2000/svg" xmlns:xlink="http://www.w3.org/1999/xlink" xml:space="preserve" onload="init(evt)">
<style type="text/css"><![CDATA[
.edge:hover path { stroke: red; }
.edge:hover polygon { stroke: red; fill: red; }
]]></style>
<script type="text/javascript"><![CDATA[
var edges = document.getElementsByTagName('g');
if (edges && edges.length) {
  for (var i=0;i<edges.length;i++) {
    if (edges[i].id.substr(0,4)=='edge') {
      edges[i].setAttribute('class','edge');
    }
  }
}
]]></script>
        <defs>
                <circle id="rim" cx="0" cy="0" r="7"/>
                <circle id="rim2" cx="0" cy="0" r="3.5"/>
                <g id="zoomPlus">
                        <use xlink:href="#rim" fill="#404040">
                                <set attributeName="fill" to="#808080" begin="zoomplus.mouseover" end="zoomplus.mouseout"/>
                        </use>
                        <path d="M-4,0h8M0,-4v8" fill="none" stroke="white" stroke-width="1.5" pointer-events="none"/>
                </g>
                <g id="zoomMin">
                        <use xlink:href="#rim" fill="#404040">
                                <set attributeName="fill" to="#808080" begin="zoomminus.mouseover" end="zoomminus.mouseout"/>
                        </use>
                        <path d="M-4,0h8" fill="none" stroke="white" stroke-width="1.5" pointer-events="none"/>
                </g>
                <g id="dirArrow">
                        <path fill="none" stroke="white" stroke-width="1.5" d="M0,-3.0v7 M-2.5,-0.5L0,-3.0L2.5,-0.5"/>
                </g>
               <g id="resetDef">
                       <use xlink:href="#rim2" fill="#404040">
                               <set attributeName="fill" to="#808080" begin="reset.mouseover" end="reset.mouseout"/>
                       </use>
               </g>
        </defs>

<script type="text/javascript">
var viewWidth = 622;
var viewHeight = 560;
var sectionId = 'dynsection-0';
</script>
<script xlink:href="../../svgpan.js"/>
<svg id="graph" class="graph">
<g id="viewport">
<title>pocketmine\event\server\ServerEvent</title>
<polygon fill="white" stroke="none" points="-4,4 -4,-556 618,-556 618,4 -4,4"/>
<!-- Node1 -->
<g id="node1" class="node"><title>Node1</title>
<polygon fill="#bfbfbf" stroke="black" points="232,-377 232,-445 368,-445 368,-377 232,-377"/>
<text text-anchor="start" x="240" y="-433" font-family="Helvetica,sans-Serif" font-size="10.00">pocketmine\event\server</text>
<text text-anchor="middle" x="300" y="-422" font-family="Helvetica,sans-Serif" font-size="10.00">\ServerEvent</text>
<polyline fill="none" stroke="black" points="232,-415 368,-415 "/>
<text text-anchor="middle" x="300" y="-403" font-family="Helvetica,sans-Serif" font-size="10.00"> </text>
<polyline fill="none" stroke="black" points="232,-396 368,-396 "/>
<text text-anchor="middle" x="300" y="-384" font-family="Helvetica,sans-Serif" font-size="10.00"> </text>
</g>
<!-- Node3 -->
<g id="node3" class="node"><title>Node3</title>
<g id="a_node3"><a xlink:href="../../d1/dcc/classpocketmine_1_1event_1_1server_1_1_data_packet_receive_event.html" target="_top" xlink:title="{pocketmine\\event\\server\l\\DataPacketReceiveEvent\n|+ $handlerList\l+ $eventPool\l+ $nextEvent\l|+ __construct()\l+ getPacket()\l+ getPlayer()\l}">
<polygon fill="white" stroke="black" points="-0.5,-178 -0.5,-290 136.5,-290 136.5,-178 -0.5,-178"/>
<text text-anchor="start" x="7.5" y="-278" font-family="Helvetica,sans-Serif" font-size="10.00">pocketmine\event\server</text>
<text text-anchor="middle" x="68" y="-267" font-family="Helvetica,sans-Serif" font-size="10.00">\DataPacketReceiveEvent</text>
<polyline fill="none" stroke="black" points="-0.5,-260 136.5,-260 "/>
<text text-anchor="start" x="7.5" y="-248" font-family="Helvetica,sans-Serif" font-size="10.00">+ $handlerList</text>
<text text-anchor="start" x="7.5" y="-237" font-family="Helvetica,sans-Serif" font-size="10.00">+ $eventPool</text>
<text text-anchor="start" x="7.5" y="-226" font-family="Helvetica,sans-Serif" font-size="10.00">+ $nextEvent</text>
<polyline fill="none" stroke="black" points="-0.5,-219 136.5,-219 "/>
<text text-anchor="start" x="7.5" y="-207" font-family="Helvetica,sans-Serif" font-size="10.00">+ __construct()</text>
<text text-anchor="start" x="7.5" y="-196" font-family="Helvetica,sans-Serif" font-size="10.00">+ getPacket()</text>
<text text-anchor="start" x="7.5" y="-185" font-family="Helvetica,sans-Serif" font-size="10.00">+ getPlayer()</text>
</a>
</g>
</g>
<!-- Node1&#45;&gt;Node3 -->
<g id="edge2" class="edge"><title>Node1&#45;&gt;Node3</title>
<path fill="none" stroke="midnightblue" d="M222.342,-383.722C196.444,-372.699 168.488,-358.157 146,-340 128.862,-326.162 113.513,-307.736 101.057,-290.185"/>
<polygon fill="none" stroke="midnightblue" points="221.198,-387.036 231.776,-387.624 223.873,-380.568 221.198,-387.036"/>
</g>
<!-- Node4 -->
<g id="node4" class="node"><title>Node4</title>
<g id="a_node4"><a xlink:href="../../d5/dd4/classpocketmine_1_1event_1_1server_1_1_data_packet_send_event.html" target="_top" xlink:title="{pocketmine\\event\\server\l\\DataPacketSendEvent\n|+ $handlerList\l+ $eventPool\l+ $nextEvent\l|+ __construct()\l+ getPacket()\l+ getPlayer()\l}">
<polygon fill="white" stroke="black" points="155,-178 155,-290 291,-290 291,-178 155,-178"/>
<text text-anchor="start" x="163" y="-278" font-family="Helvetica,sans-Serif" font-size="10.00">pocketmine\event\server</text>
<text text-anchor="middle" x="223" y="-267" font-family="Helvetica,sans-Serif" font-size="10.00">\DataPacketSendEvent</text>
<polyline fill="none" stroke="black" points="155,-260 291,-260 "/>
<text text-anchor="start" x="163" y="-248" font-family="Helvetica,sans-Serif" font-size="10.00">+ $handlerList</text>
<text text-anchor="start" x="163" y="-237" font-family="Helvetica,sans-Serif" font-size="10.00">+ $eventPool</text>
<text text-anchor="start" x="163" y="-226" font-family="Helvetica,sans-Serif" font-size="10.00">+ $nextEvent</text>
<polyline fill="none" stroke="black" points="155,-219 291,-219 "/>
<text text-anchor="start" x="163" y="-207" font-family="Helvetica,sans-Serif" font-size="10.00">+ __construct()</text>
<text text-anchor="start" x="163" y="-196" font-family="Helvetica,sans-Serif" font-size="10.00">+ getPacket()</text>
<text text-anchor="start" x="163" y="-185" font-family="Helvetica,sans-Serif" font-size="10.00">+ getPlayer()</text>
</a>
</g>
</g>
<!-- Node1&#45;&gt;Node4 -->
<g id="edge3" class="edge"><title>Node1&#45;&gt;Node4</title>
<path fill="none" stroke="midnightblue" d="M281.268,-367.428C271.049,-344.202 258.28,-315.181 247.301,-290.23"/>
<polygon fill="none" stroke="midnightblue" points="278.105,-368.928 285.336,-376.672 284.512,-366.109 278.105,-368.928"/>
</g>
<!-- Node5 -->
<g id="node5" class="node"><title>Node5</title>
<g id="a_node5"><a xlink:href="../../dd/d42/classpocketmine_1_1event_1_1server_1_1_query_regenerate_event.html" target="_top" xlink:title="{pocketmine\\event\\server\l\\QueryRegenerateEvent\n|+ GAME_ID\l+ $handlerList\l+ $eventPool\l+ $nextEvent\l|+ __construct()\l+ getTimeout()\l+ setTimeout()\l+ getServerName()\l+ setServerName()\l+ canListPlugins()\l+ setListPlugins()\l+ getPlugins()\l+ setPlugins()\l+ getPlayerList()\land 11 more...\l}">
<polygon fill="white" stroke="black" points="309,-128.5 309,-339.5 445,-339.5 445,-128.5 309,-128.5"/>
<text text-anchor="start" x="317" y="-327.5" font-family="Helvetica,sans-Serif" font-size="10.00">pocketmine\event\server</text>
<text text-anchor="middle" x="377" y="-316.5" font-family="Helvetica,sans-Serif" font-size="10.00">\QueryRegenerateEvent</text>
<polyline fill="none" stroke="black" points="309,-309.5 445,-309.5 "/>
<text text-anchor="start" x="317" y="-297.5" font-family="Helvetica,sans-Serif" font-size="10.00">+ GAME_ID</text>
<text text-anchor="start" x="317" y="-286.5" font-family="Helvetica,sans-Serif" font-size="10.00">+ $handlerList</text>
<text text-anchor="start" x="317" y="-275.5" font-family="Helvetica,sans-Serif" font-size="10.00">+ $eventPool</text>
<text text-anchor="start" x="317" y="-264.5" font-family="Helvetica,sans-Serif" font-size="10.00">+ $nextEvent</text>
<polyline fill="none" stroke="black" points="309,-257.5 445,-257.5 "/>
<text text-anchor="start" x="317" y="-245.5" font-family="Helvetica,sans-Serif" font-size="10.00">+ __construct()</text>
<text text-anchor="start" x="317" y="-234.5" font-family="Helvetica,sans-Serif" font-size="10.00">+ getTimeout()</text>
<text text-anchor="start" x="317" y="-223.5" font-family="Helvetica,sans-Serif" font-size="10.00">+ setTimeout()</text>
<text text-anchor="start" x="317" y="-212.5" font-family="Helvetica,sans-Serif" font-size="10.00">+ getServerName()</text>
<text text-anchor="start" x="317" y="-201.5" font-family="Helvetica,sans-Serif" font-size="10.00">+ setServerName()</text>
<text text-anchor="start" x="317" y="-190.5" font-family="Helvetica,sans-Serif" font-size="10.00">+ canListPlugins()</text>
<text text-anchor="start" x="317" y="-179.5" font-family="Helvetica,sans-Serif" font-size="10.00">+ setListPlugins()</text>
<text text-anchor="start" x="317" y="-168.5" font-family="Helvetica,sans-Serif" font-size="10.00">+ getPlugins()</text>
<text text-anchor="start" x="317" y="-157.5" font-family="Helvetica,sans-Serif" font-size="10.00">+ setPlugins()</text>
<text text-anchor="start" x="317" y="-146.5" font-family="Helvetica,sans-Serif" font-size="10.00">+ getPlayerList()</text>
<text text-anchor="start" x="317" y="-135.5" font-family="Helvetica,sans-Serif" font-size="10.00">and 11 more...</text>
</a>
</g>
</g>
<!-- Node1&#45;&gt;Node5 -->
<g id="edge4" class="edge"><title>Node1&#45;&gt;Node5</title>
<path fill="none" stroke="midnightblue" d="M318.773,-367.335C322.553,-358.744 326.681,-349.362 330.937,-339.689"/>
<polygon fill="none" stroke="midnightblue" points="315.488,-366.109 314.664,-376.672 321.895,-368.928 315.488,-366.109"/>
</g>
<!-- Node6 -->
<g id="node6" class="node"><title>Node6</title>
<g id="a_node6"><a xlink:href="../../d4/de4/classpocketmine_1_1event_1_1server_1_1_server_command_event.html" target="_top" xlink:title="{pocketmine\\event\\server\l\\ServerCommandEvent\n|+ $handlerList\l+ $eventPool\l+ $nextEvent\l# $command\l# $sender\l|+ __construct()\l+ getSender()\l+ getCommand()\l+ setCommand()\l}">
<polygon fill="white" stroke="black" points="463,-161.5 463,-306.5 599,-306.5 599,-161.5 463,-161.5"/>
<text text-anchor="start" x="471" y="-294.5" font-family="Helvetica,sans-Serif" font-size="10.00">pocketmine\event\server</text>
<text text-anchor="middle" x="531" y="-283.5" font-family="Helvetica,sans-Serif" font-size="10.00">\ServerCommandEvent</text>
<polyline fill="none" stroke="black" points="463,-276.5 599,-276.5 "/>
<text text-anchor="start" x="471" y="-264.5" font-family="Helvetica,sans-Serif" font-size="10.00">+ $handlerList</text>
<text text-anchor="start" x="471" y="-253.5" font-family="Helvetica,sans-Serif" font-size="10.00">+ $eventPool</text>
<text text-anchor="start" x="471" y="-242.5" font-family="Helvetica,sans-Serif" font-size="10.00">+ $nextEvent</text>
<text text-anchor="start" x="471" y="-231.5" font-family="Helvetica,sans-Serif" font-size="10.00"># $command</text>
<text text-anchor="start" x="471" y="-220.5" font-family="Helvetica,sans-Serif" font-size="10.00"># $sender</text>
<polyline fill="none" stroke="black" points="463,-213.5 599,-213.5 "/>
<text text-anchor="start" x="471" y="-201.5" font-family="Helvetica,sans-Serif" font-size="10.00">+ __construct()</text>
<text text-anchor="start" x="471" y="-190.5" font-family="Helvetica,sans-Serif" font-size="10.00">+ getSender()</text>
<text text-anchor="start" x="471" y="-179.5" font-family="Helvetica,sans-Serif" font-size="10.00">+ getCommand()</text>
<text text-anchor="start" x="471" y="-168.5" font-family="Helvetica,sans-Serif" font-size="10.00">+ setCommand()</text>
</a>
</g>
</g>
<!-- Node1&#45;&gt;Node6 -->
<g id="edge5" class="edge"><title>Node1&#45;&gt;Node6</title>
<path fill="none" stroke="midnightblue" d="M377.722,-383.801C403.625,-372.784 431.569,-358.226 454,-340 465.755,-330.449 476.631,-318.705 486.283,-306.571"/>
<polygon fill="none" stroke="midnightblue" points="376.191,-380.646 368.285,-387.699 378.864,-387.116 376.191,-380.646"/>
</g>
<!-- Node2 -->
<g id="node2" class="node"><title>Node2</title>
<g id="a_node2"><a xlink:href="../../d1/d2f/classpocketmine_1_1event_1_1_event.html" target="_top" xlink:title="{pocketmine\\event\\Event\n|# $eventName\l|+ getEventName()\l+ getHandlers()\l}">
<polygon fill="white" stroke="black" points="233.5,-483 233.5,-551 366.5,-551 366.5,-483 233.5,-483"/>
<text text-anchor="middle" x="300" y="-539" font-family="Helvetica,sans-Serif" font-size="10.00">pocketmine\event\Event</text>
<polyline fill="none" stroke="black" points="233.5,-532 366.5,-532 "/>
<text text-anchor="start" x="241.5" y="-520" font-family="Helvetica,sans-Serif" font-size="10.00"># $eventName</text>
<polyline fill="none" stroke="black" points="233.5,-513 366.5,-513 "/>
<text text-anchor="start" x="241.5" y="-501" font-family="Helvetica,sans-Serif" font-size="10.00">+ getEventName()</text>
<text text-anchor="start" x="241.5" y="-490" font-family="Helvetica,sans-Serif" font-size="10.00">+ getHandlers()</text>
</a>
</g>
</g>
<!-- Node2&#45;&gt;Node1 -->
<g id="edge1" class="edge"><title>Node2&#45;&gt;Node1</title>
<path fill="none" stroke="midnightblue" d="M300,-472.674C300,-463.502 300,-453.961 300,-445.234"/>
<polygon fill="none" stroke="midnightblue" points="296.5,-472.808 300,-482.808 303.5,-472.808 296.5,-472.808"/>
</g>
<!-- Node7 -->
<g id="node7" class="node"><title>Node7</title>
<g id="a_node7"><a xlink:href="../../d0/d79/classpocketmine_1_1event_1_1server_1_1_remote_server_command_event.html" target="_top" xlink:title="{pocketmine\\event\\server\l\\RemoteServerCommandEvent\n|+ $handlerList\l+ $eventPool\l+ $nextEvent\l|+ __construct()\l}">
<polygon fill="white" stroke="black" points="448.5,-1 448.5,-91 613.5,-91 613.5,-1 448.5,-1"/>
<text text-anchor="start" x="456.5" y="-79" font-family="Helvetica,sans-Serif" font-size="10.00">pocketmine\event\server</text>
<text text-anchor="middle" x="531" y="-68" font-family="Helvetica,sans-Serif" font-size="10.00">\RemoteServerCommandEvent</text>
<polyline fill="none" stroke="black" points="448.5,-61 613.5,-61 "/>
<text text-anchor="start" x="456.5" y="-49" font-family="Helvetica,sans-Serif" font-size="10.00">+ $handlerList</text>
<text text-anchor="start" x="456.5" y="-38" font-family="Helvetica,sans-Serif" font-size="10.00">+ $eventPool</text>
<text text-anchor="start" x="456.5" y="-27" font-family="Helvetica,sans-Serif" font-size="10.00">+ $nextEvent</text>
<polyline fill="none" stroke="black" points="448.5,-20 613.5,-20 "/>
<text text-anchor="start" x="456.5" y="-8" font-family="Helvetica,sans-Serif" font-size="10.00">+ __construct()</text>
</a>
</g>
</g>
<!-- Node6&#45;&gt;Node7 -->
<g id="edge6" class="edge"><title>Node6&#45;&gt;Node7</title>
<path fill="none" stroke="midnightblue" d="M531,-151.283C531,-130.609 531,-109.18 531,-91.1637"/>
<polygon fill="none" stroke="midnightblue" points="527.5,-151.354 531,-161.354 534.5,-151.354 527.5,-151.354"/>
</g>
</g>
</svg>
        <g id="navigator" transform="translate(0 0)" fill="#404254">
                <rect fill="#f2f5e9" fill-opacity="0.5" stroke="#606060" stroke-width=".5" x="0" y="0" width="60" height="60"/>
                <use id="zoomplus" xlink:href="#zoomPlus" x="17" y="9" onmousedown="handleZoom(evt,'in')"/>
                <use id="zoomminus" xlink:href="#zoomMin" x="42" y="9" onmousedown="handleZoom(evt,'out')"/>
                <use id="reset" xlink:href="#resetDef" x="30" y="36" onmousedown="handleReset()"/>
                <g id="arrowUp" xlink:href="#dirArrow" transform="translate(30 24)" onmousedown="handlePan(0,-1)">
                  <use xlink:href="#rim" fill="#404040">
                        <set attributeName="fill" to="#808080" begin="arrowUp.mouseover" end="arrowUp.mouseout"/>
                  </use>
                  <path fill="none" stroke="white" stroke-width="1.5" d="M0,-3.0v7 M-2.5,-0.5L0,-3.0L2.5,-0.5"/>
                </g>
                <g id="arrowRight" xlink:href="#dirArrow" transform="rotate(90) translate(36 -43)" onmousedown="handlePan(1,0)">
                  <use xlink:href="#rim" fill="#404040">
                        <set attributeName="fill" to="#808080" begin="arrowRight.mouseover" end="arrowRight.mouseout"/>
                  </use>
                  <path fill="none" stroke="white" stroke-width="1.5" d="M0,-3.0v7 M-2.5,-0.5L0,-3.0L2.5,-0.5"/>
                </g>
                <g id="arrowDown" xlink:href="#dirArrow" transform="rotate(180) translate(-30 -48)" onmousedown="handlePan(0,1)">
                  <use xlink:href="#rim" fill="#404040">
                        <set attributeName="fill" to="#808080" begin="arrowDown.mouseover" end="arrowDown.mouseout"/>
                  </use>
                  <path fill="none" stroke="white" stroke-width="1.5" d="M0,-3.0v7 M-2.5,-0.5L0,-3.0L2.5,-0.5"/>
                </g>
                <g id="arrowLeft" xlink:href="#dirArrow" transform="rotate(270) translate(-36 17)" onmousedown="handlePan(-1,0)">
                  <use xlink:href="#rim" fill="#404040">
                        <set attributeName="fill" to="#808080" begin="arrowLeft.mouseover" end="arrowLeft.mouseout"/>
                  </use>
                  <path fill="none" stroke="white" stroke-width="1.5" d="M0,-3.0v7 M-2.5,-0.5L0,-3.0L2.5,-0.5"/>
                </g>
        </g>
        <svg viewBox="0 0 15 15" width="100%" height="30px" preserveAspectRatio="xMaxYMin meet">
         <g id="arrow_out" transform="scale(0.3 0.3)">
          <a xlink:href="classpocketmine_1_1event_1_1server_1_1_server_event__inherit__graph_org.svg" target="_base">
           <rect id="button" ry="5" rx="5" y="6" x="6" height="38" width="38"
                fill="#f2f5e9" fill-opacity="0.5" stroke="#606060" stroke-width="1.0"/>
           <path id="arrow"
             d="M 11.500037,31.436501 C 11.940474,20.09759 22.043105,11.32322 32.158766,21.979434 L 37.068811,17.246167 C 37.068811,17.246167 37.088388,32 37.088388,32 L 22.160133,31.978069 C 22.160133,31.978069 26.997745,27.140456 26.997745,27.140456 C 18.528582,18.264221 13.291696,25.230495 11.500037,31.436501 z"
             style="fill:#404040;"/>
          </a>
         </g>
        </svg>
</svg>
