<?xml version="1.0" encoding="UTF-8" standalone="no"?>
<!DOCTYPE svg PUBLIC "-//W3C//DTD SVG 1.1//EN"
 "http://www.w3.org/Graphics/SVG/1.1/DTD/svg11.dtd">
<!-- Generated by graphviz version 2.26.3 (20100126.1600)
 -->
<!-- Title: pocketmine\block\Block\getDamage Pages: 1 -->
<svg width="434pt" height="42pt"
 viewBox="0.00 0.00 434.00 42.00" xmlns="http://www.w3.org/2000/svg" xmlns:xlink="http://www.w3.org/1999/xlink">
<g id="graph1" class="graph" transform="scale(1 1) rotate(0) translate(4 38)">
<title>pocketmine\block\Block\getDamage</title>
<polygon fill="white" stroke="white" points="-4,5 -4,-38 431,-38 431,5 -4,5"/>
<!-- Node1 -->
<g id="node1" class="node"><title>Node1</title>
<polygon fill="#bfbfbf" stroke="black" points="0.5,-0 0.5,-34 121.5,-34 121.5,-0 0.5,-0"/>
<text text-anchor="start" x="8.5" y="-21" font-family="Helvetica,sans-Serif" font-size="10.00">pocketmine\block\Block</text>
<text text-anchor="middle" x="61" y="-8" font-family="Helvetica,sans-Serif" font-size="10.00">\getDamage</text>
</g>
<!-- Node2 -->
<g id="node3" class="node"><title>Node2</title>
<a xlink:href="../../d3/d4b/classpocketmine_1_1level_1_1_level.html#a809bb258d797af4a4f9271addb4bfd4a" target="_top" xlink:title="pocketmine\\level\\Level\l\\setBlock">
<polygon fill="white" stroke="black" points="158,-0 158,-34 274,-34 274,-0 158,-0"/>
<text text-anchor="start" x="166" y="-21" font-family="Helvetica,sans-Serif" font-size="10.00">pocketmine\level\Level</text>
<text text-anchor="middle" x="216" y="-8" font-family="Helvetica,sans-Serif" font-size="10.00">\setBlock</text>
</a>
</g>
<!-- Node1&#45;&gt;Node2 -->
<g id="edge2" class="edge"><title>Node1&#45;&gt;Node2</title>
<path fill="none" stroke="midnightblue" d="M131.937,-17C140.626,-17 149.425,-17 157.894,-17"/>
<polygon fill="midnightblue" stroke="midnightblue" points="131.815,-13.5001 121.815,-17 131.815,-20.5001 131.815,-13.5001"/>
</g>
<!-- Node3 -->
<g id="node5" class="node"><title>Node3</title>
<a xlink:href="../../d3/d4b/classpocketmine_1_1level_1_1_level.html#a3346679b5fe84b0fb3ae4bc27d99e18f" target="_top" xlink:title="pocketmine\\level\\Level\l\\useItemOn">
<polygon fill="white" stroke="black" points="310,-0 310,-34 426,-34 426,-0 310,-0"/>
<text text-anchor="start" x="318" y="-21" font-family="Helvetica,sans-Serif" font-size="10.00">pocketmine\level\Level</text>
<text text-anchor="middle" x="368" y="-8" font-family="Helvetica,sans-Serif" font-size="10.00">\useItemOn</text>
</a>
</g>
<!-- Node2&#45;&gt;Node3 -->
<g id="edge4" class="edge"><title>Node2&#45;&gt;Node3</title>
<path fill="none" stroke="midnightblue" d="M284.542,-17C292.986,-17 301.554,-17 309.824,-17"/>
<polygon fill="midnightblue" stroke="midnightblue" points="284.332,-13.5001 274.332,-17 284.332,-20.5001 284.332,-13.5001"/>
</g>
</g>
</svg>
