<?xml version="1.0" encoding="UTF-8" standalone="no"?>
<!DOCTYPE svg PUBLIC "-//W3C//DTD SVG 1.1//EN"
 "http://www.w3.org/Graphics/SVG/1.1/DTD/svg11.dtd">
<!-- Generated by graphviz version 2.26.3 (20100126.1600)
 -->
<!-- Title: G Pages: 1 -->
<svg width="386pt" height="110pt"
 viewBox="0.00 0.00 386.00 110.00" xmlns="http://www.w3.org/2000/svg" xmlns:xlink="http://www.w3.org/1999/xlink">
<g id="graph1" class="graph" transform="scale(1 1) rotate(0) translate(4 106)">
<title>G</title>
<polygon fill="white" stroke="white" points="-4,5 -4,-106 383,-106 383,5 -4,5"/>
<!-- Node1 -->
<g id="node1" class="node"><title>Node1</title>
<polygon fill="#bfbfbf" stroke="black" points="0,-40.5 0,-61.5 174,-61.5 174,-40.5 0,-40.5"/>
<text text-anchor="middle" x="87" y="-48.5" font-family="Helvetica,sans-Serif" font-size="10.00">pocketmine\block\Block\getDamage</text>
</g>
<!-- Node2 -->
<g id="node3" class="node"><title>Node2</title>
<a xlink:href="../../d8/d5c/classpocketmine_1_1block_1_1_chest.html#a63325173d218f13a149204af816dbaa7" target="_top" xlink:title="pocketmine\\block\\Chest\\place">
<polygon fill="white" stroke="black" points="219.5,-80.5 219.5,-101.5 368.5,-101.5 368.5,-80.5 219.5,-80.5"/>
<text text-anchor="middle" x="294" y="-88.5" font-family="Helvetica,sans-Serif" font-size="10.00">pocketmine\block\Chest\place</text>
</a>
</g>
<!-- Node1&#45;&gt;Node2 -->
<g id="edge2" class="edge"><title>Node1&#45;&gt;Node2</title>
<path fill="none" stroke="midnightblue" d="M151.574,-63.4781C179.834,-68.939 212.627,-75.2757 239.617,-80.4913"/>
<polygon fill="midnightblue" stroke="midnightblue" points="151.869,-59.9704 141.387,-61.5095 150.541,-66.8433 151.869,-59.9704"/>
</g>
<!-- Node3 -->
<g id="node5" class="node"><title>Node3</title>
<a xlink:href="../../d5/df7/classpocketmine_1_1block_1_1_wood_slab.html#a4e47845b54903d664d71cce8104febf7" target="_top" xlink:title="pocketmine\\block\\WoodSlab\\place">
<polygon fill="white" stroke="black" points="210.5,-40.5 210.5,-61.5 377.5,-61.5 377.5,-40.5 210.5,-40.5"/>
<text text-anchor="middle" x="294" y="-48.5" font-family="Helvetica,sans-Serif" font-size="10.00">pocketmine\block\WoodSlab\place</text>
</a>
</g>
<!-- Node1&#45;&gt;Node3 -->
<g id="edge4" class="edge"><title>Node1&#45;&gt;Node3</title>
<path fill="none" stroke="midnightblue" d="M184.311,-51C192.971,-51 201.688,-51 210.22,-51"/>
<polygon fill="midnightblue" stroke="midnightblue" points="184.187,-47.5001 174.187,-51 184.187,-54.5001 184.187,-47.5001"/>
</g>
<!-- Node4 -->
<g id="node7" class="node"><title>Node4</title>
<a xlink:href="../../dc/d60/classpocketmine_1_1block_1_1_slab.html#abc92dd48d2b5226e30be7204bbb9886e" target="_top" xlink:title="pocketmine\\block\\Slab\\place">
<polygon fill="white" stroke="black" points="223,-0.5 223,-21.5 365,-21.5 365,-0.5 223,-0.5"/>
<text text-anchor="middle" x="294" y="-8.5" font-family="Helvetica,sans-Serif" font-size="10.00">pocketmine\block\Slab\place</text>
</a>
</g>
<!-- Node1&#45;&gt;Node4 -->
<g id="edge6" class="edge"><title>Node1&#45;&gt;Node4</title>
<path fill="none" stroke="midnightblue" d="M151.574,-38.5219C179.834,-33.061 212.627,-26.7243 239.617,-21.5087"/>
<polygon fill="midnightblue" stroke="midnightblue" points="150.541,-35.1567 141.387,-40.4905 151.869,-42.0296 150.541,-35.1567"/>
</g>
</g>
</svg>
