<?xml version="1.0" encoding="UTF-8" standalone="no"?>
<!DOCTYPE svg PUBLIC "-//W3C//DTD SVG 1.1//EN"
 "http://www.w3.org/Graphics/SVG/1.1/DTD/svg11.dtd">
<!-- Generated by graphviz version 2.36.0 (20140111.2315)
 -->
<!-- Title: pocketmine\Server\broadcastPacket Pages: 1 -->
<svg width="660pt" height="342pt"
 viewBox="0.00 0.00 660.00 342.00" xmlns="http://www.w3.org/2000/svg" xmlns:xlink="http://www.w3.org/1999/xlink">
<g id="graph0" class="graph" transform="scale(1 1) rotate(0) translate(4 338)">
<title>pocketmine\Server\broadcastPacket</title>
<polygon fill="white" stroke="none" points="-4,4 -4,-338 656,-338 656,4 -4,4"/>
<!-- Node1 -->
<g id="node1" class="node"><title>Node1</title>
<polygon fill="#bfbfbf" stroke="black" points="0,-169 0,-199 158,-199 158,-169 0,-169"/>
<text text-anchor="start" x="8" y="-187" font-family="Helvetica,sans-Serif" font-size="10.00">pocketmine\Server\broadcast</text>
<text text-anchor="middle" x="79" y="-176" font-family="Helvetica,sans-Serif" font-size="10.00">Packet</text>
</g>
<!-- Node2 -->
<g id="node2" class="node"><title>Node2</title>
<g id="a_node2"><a xlink:href="../../d3/dd8/classpocketmine_1_1inventory_1_1_chest_inventory.html#affd188f523d964cb81d7edb052ada726" target="_top" xlink:title="pocketmine\\inventory\l\\ChestInventory\\onClose">
<polygon fill="white" stroke="black" points="194.5,-304 194.5,-334 327.5,-334 327.5,-304 194.5,-304"/>
<text text-anchor="start" x="202.5" y="-322" font-family="Helvetica,sans-Serif" font-size="10.00">pocketmine\inventory</text>
<text text-anchor="middle" x="261" y="-311" font-family="Helvetica,sans-Serif" font-size="10.00">\ChestInventory\onClose</text>
</a>
</g>
</g>
<!-- Node1&#45;&gt;Node2 -->
<g id="edge1" class="edge"><title>Node1&#45;&gt;Node2</title>
<path fill="none" stroke="midnightblue" d="M98.6667,-206.87C119.648,-231.31 155.804,-269.796 194,-294 199.899,-297.738 206.444,-301.051 213.053,-303.943"/>
<polygon fill="midnightblue" stroke="midnightblue" points="101.28,-204.539 92.1519,-199.161 95.9334,-209.058 101.28,-204.539"/>
</g>
<!-- Node3 -->
<g id="node3" class="node"><title>Node3</title>
<g id="a_node3"><a xlink:href="../../d6/d3e/classpocketmine_1_1inventory_1_1_double_chest_inventory.html#af9429bec4a66b057677785590389636a" target="_top" xlink:title="pocketmine\\inventory\l\\DoubleChestInventory\l\\onClose">
<polygon fill="white" stroke="black" points="198.5,-244.5 198.5,-285.5 323.5,-285.5 323.5,-244.5 198.5,-244.5"/>
<text text-anchor="start" x="206.5" y="-273.5" font-family="Helvetica,sans-Serif" font-size="10.00">pocketmine\inventory</text>
<text text-anchor="start" x="206.5" y="-262.5" font-family="Helvetica,sans-Serif" font-size="10.00">\DoubleChestInventory</text>
<text text-anchor="middle" x="261" y="-251.5" font-family="Helvetica,sans-Serif" font-size="10.00">\onClose</text>
</a>
</g>
</g>
<!-- Node1&#45;&gt;Node3 -->
<g id="edge2" class="edge"><title>Node1&#45;&gt;Node3</title>
<path fill="none" stroke="midnightblue" d="M122.805,-203.262C150.337,-215.652 186.087,-231.739 214.19,-244.386"/>
<polygon fill="midnightblue" stroke="midnightblue" points="123.99,-199.958 113.435,-199.046 121.118,-206.341 123.99,-199.958"/>
</g>
<!-- Node4 -->
<g id="node4" class="node"><title>Node4</title>
<g id="a_node4"><a xlink:href="../../d3/dd8/classpocketmine_1_1inventory_1_1_chest_inventory.html#a481f71f9f51ed8bb690ed492006c30f2" target="_top" xlink:title="pocketmine\\inventory\l\\ChestInventory\\onOpen">
<polygon fill="white" stroke="black" points="195,-196 195,-226 327,-226 327,-196 195,-196"/>
<text text-anchor="start" x="203" y="-214" font-family="Helvetica,sans-Serif" font-size="10.00">pocketmine\inventory</text>
<text text-anchor="middle" x="261" y="-203" font-family="Helvetica,sans-Serif" font-size="10.00">\ChestInventory\onOpen</text>
</a>
</g>
</g>
<!-- Node1&#45;&gt;Node4 -->
<g id="edge3" class="edge"><title>Node1&#45;&gt;Node4</title>
<path fill="none" stroke="midnightblue" d="M168.253,-197.238C177.213,-198.582 186.196,-199.929 194.847,-201.227"/>
<polygon fill="midnightblue" stroke="midnightblue" points="168.574,-193.747 158.165,-195.725 167.535,-200.67 168.574,-193.747"/>
</g>
<!-- Node5 -->
<g id="node5" class="node"><title>Node5</title>
<g id="a_node5"><a xlink:href="../../d6/d3e/classpocketmine_1_1inventory_1_1_double_chest_inventory.html#a049993ad739923915d217f08848b5a55" target="_top" xlink:title="pocketmine\\inventory\l\\DoubleChestInventory\l\\onOpen">
<polygon fill="white" stroke="black" points="198.5,-136.5 198.5,-177.5 323.5,-177.5 323.5,-136.5 198.5,-136.5"/>
<text text-anchor="start" x="206.5" y="-165.5" font-family="Helvetica,sans-Serif" font-size="10.00">pocketmine\inventory</text>
<text text-anchor="start" x="206.5" y="-154.5" font-family="Helvetica,sans-Serif" font-size="10.00">\DoubleChestInventory</text>
<text text-anchor="middle" x="261" y="-143.5" font-family="Helvetica,sans-Serif" font-size="10.00">\onOpen</text>
</a>
</g>
</g>
<!-- Node1&#45;&gt;Node5 -->
<g id="edge4" class="edge"><title>Node1&#45;&gt;Node5</title>
<path fill="none" stroke="midnightblue" d="M168.318,-170.752C178.499,-169.225 188.71,-167.694 198.427,-166.236"/>
<polygon fill="midnightblue" stroke="midnightblue" points="167.535,-167.33 158.165,-172.275 168.574,-174.253 167.535,-167.33"/>
</g>
<!-- Node6 -->
<g id="node6" class="node"><title>Node6</title>
<g id="a_node6"><a xlink:href="../../d3/d4b/classpocketmine_1_1level_1_1_level.html#a787adc6473f820d013965a02196b02a5" target="_top" xlink:title="pocketmine\\level\\Level\l\\sendTime">
<polygon fill="white" stroke="black" points="198.5,-88 198.5,-118 323.5,-118 323.5,-88 198.5,-88"/>
<text text-anchor="start" x="206.5" y="-106" font-family="Helvetica,sans-Serif" font-size="10.00">pocketmine\level\Level</text>
<text text-anchor="middle" x="261" y="-95" font-family="Helvetica,sans-Serif" font-size="10.00">\sendTime</text>
</a>
</g>
</g>
<!-- Node1&#45;&gt;Node6 -->
<g id="edge5" class="edge"><title>Node1&#45;&gt;Node6</title>
<path fill="none" stroke="midnightblue" d="M117.164,-164.061C139.203,-152.581 167.854,-138.246 194,-127 201.168,-123.917 208.877,-120.875 216.409,-118.047"/>
<polygon fill="midnightblue" stroke="midnightblue" points="115.38,-161.045 108.151,-168.789 118.632,-167.244 115.38,-161.045"/>
</g>
<!-- Node11 -->
<g id="node11" class="node"><title>Node11</title>
<g id="a_node11"><a xlink:href="../../d3/d4b/classpocketmine_1_1level_1_1_level.html#a809bb258d797af4a4f9271addb4bfd4a" target="_top" xlink:title="pocketmine\\level\\Level\l\\setBlock">
<polygon fill="white" stroke="black" points="198.5,-20 198.5,-50 323.5,-50 323.5,-20 198.5,-20"/>
<text text-anchor="start" x="206.5" y="-38" font-family="Helvetica,sans-Serif" font-size="10.00">pocketmine\level\Level</text>
<text text-anchor="middle" x="261" y="-27" font-family="Helvetica,sans-Serif" font-size="10.00">\setBlock</text>
</a>
</g>
</g>
<!-- Node1&#45;&gt;Node11 -->
<g id="edge12" class="edge"><title>Node1&#45;&gt;Node11</title>
<path fill="none" stroke="midnightblue" d="M102.019,-161.368C124.262,-139.037 160.091,-104.494 194,-78 206.824,-67.9804 221.987,-57.9845 234.543,-50.1553"/>
<polygon fill="midnightblue" stroke="midnightblue" points="99.2868,-159.153 94.7431,-168.724 104.264,-164.075 99.2868,-159.153"/>
</g>
<!-- Node7 -->
<g id="node7" class="node"><title>Node7</title>
<g id="a_node7"><a xlink:href="../../d3/d4b/classpocketmine_1_1level_1_1_level.html#ac2855c606dec3107ace36c3bd073b953" target="_top" xlink:title="pocketmine\\level\\Level\l\\setTime">
<polygon fill="white" stroke="black" points="364.5,-137 364.5,-167 489.5,-167 489.5,-137 364.5,-137"/>
<text text-anchor="start" x="372.5" y="-155" font-family="Helvetica,sans-Serif" font-size="10.00">pocketmine\level\Level</text>
<text text-anchor="middle" x="427" y="-144" font-family="Helvetica,sans-Serif" font-size="10.00">\setTime</text>
</a>
</g>
</g>
<!-- Node6&#45;&gt;Node7 -->
<g id="edge6" class="edge"><title>Node6&#45;&gt;Node7</title>
<path fill="none" stroke="midnightblue" d="M322.134,-120.967C339.706,-126.217 358.723,-131.899 375.623,-136.948"/>
<polygon fill="midnightblue" stroke="midnightblue" points="323.127,-117.611 312.544,-118.101 321.123,-124.318 323.127,-117.611"/>
</g>
<!-- Node8 -->
<g id="node8" class="node"><title>Node8</title>
<g id="a_node8"><a xlink:href="../../d3/d4b/classpocketmine_1_1level_1_1_level.html#a44ce0ab1d94a790f2f3a02c7ff70ca83" target="_top" xlink:title="pocketmine\\level\\Level\l\\stopTime">
<polygon fill="white" stroke="black" points="364.5,-88 364.5,-118 489.5,-118 489.5,-88 364.5,-88"/>
<text text-anchor="start" x="372.5" y="-106" font-family="Helvetica,sans-Serif" font-size="10.00">pocketmine\level\Level</text>
<text text-anchor="middle" x="427" y="-95" font-family="Helvetica,sans-Serif" font-size="10.00">\stopTime</text>
</a>
</g>
</g>
<!-- Node6&#45;&gt;Node8 -->
<g id="edge7" class="edge"><title>Node6&#45;&gt;Node8</title>
<path fill="none" stroke="midnightblue" d="M333.676,-96.2978C343.914,-96.2026 354.371,-96.2497 364.394,-96.4391"/>
<polygon fill="midnightblue" stroke="midnightblue" points="333.484,-92.8 323.534,-96.4404 333.582,-99.7993 333.484,-92.8"/>
</g>
<!-- Node10 -->
<g id="node10" class="node"><title>Node10</title>
<g id="a_node10"><a xlink:href="../../d3/d4b/classpocketmine_1_1level_1_1_level.html#ad56d6a8573f596fddea712bdb171f866" target="_top" xlink:title="pocketmine\\level\\Level\l\\startTime">
<polygon fill="white" stroke="black" points="526.5,-44 526.5,-74 651.5,-74 651.5,-44 526.5,-44"/>
<text text-anchor="start" x="534.5" y="-62" font-family="Helvetica,sans-Serif" font-size="10.00">pocketmine\level\Level</text>
<text text-anchor="middle" x="589" y="-51" font-family="Helvetica,sans-Serif" font-size="10.00">\startTime</text>
</a>
</g>
</g>
<!-- Node6&#45;&gt;Node10 -->
<g id="edge11" class="edge"><title>Node6&#45;&gt;Node10</title>
<path fill="none" stroke="midnightblue" d="M326.299,-85.6321C338.737,-82.73 351.72,-80.0132 364,-78 418.498,-69.0659 481.186,-64.2034 526.359,-61.6409"/>
<polygon fill="midnightblue" stroke="midnightblue" points="325.374,-82.2547 316.465,-87.9894 327.006,-89.0619 325.374,-82.2547"/>
</g>
<!-- Node8&#45;&gt;Node6 -->
<g id="edge9" class="edge"><title>Node8&#45;&gt;Node6</title>
<path fill="none" stroke="midnightblue" d="M354.251,-109.703C344.011,-109.797 333.555,-109.75 323.534,-109.56"/>
<polygon fill="midnightblue" stroke="midnightblue" points="354.444,-113.201 364.394,-109.561 354.346,-106.201 354.444,-113.201"/>
</g>
<!-- Node9 -->
<g id="node9" class="node"><title>Node9</title>
<g id="a_node9"><a xlink:href="../../d3/d4b/classpocketmine_1_1level_1_1_level.html#a1079deee151083b7da76d8dd57f5b2ef" target="_top" xlink:title="pocketmine\\level\\Level\l\\checkTime">
<polygon fill="white" stroke="black" points="526.5,-93 526.5,-123 651.5,-123 651.5,-93 526.5,-93"/>
<text text-anchor="start" x="534.5" y="-111" font-family="Helvetica,sans-Serif" font-size="10.00">pocketmine\level\Level</text>
<text text-anchor="middle" x="589" y="-100" font-family="Helvetica,sans-Serif" font-size="10.00">\checkTime</text>
</a>
</g>
</g>
<!-- Node8&#45;&gt;Node9 -->
<g id="edge8" class="edge"><title>Node8&#45;&gt;Node9</title>
<path fill="none" stroke="midnightblue" d="M500.061,-105.252C508.822,-105.526 517.712,-105.804 526.304,-106.072"/>
<polygon fill="midnightblue" stroke="midnightblue" points="499.965,-101.747 489.86,-104.933 499.746,-108.744 499.965,-101.747"/>
</g>
<!-- Node8&#45;&gt;Node10 -->
<g id="edge10" class="edge"><title>Node8&#45;&gt;Node10</title>
<path fill="none" stroke="midnightblue" d="M492.374,-85.2971C505.961,-81.5608 520.173,-77.6525 533.359,-74.0262"/>
<polygon fill="midnightblue" stroke="midnightblue" points="491.329,-81.9544 482.615,-87.9808 493.186,-88.7038 491.329,-81.9544"/>
</g>
<!-- Node12 -->
<g id="node12" class="node"><title>Node12</title>
<g id="a_node12"><a xlink:href="../../d3/d4b/classpocketmine_1_1level_1_1_level.html#a3346679b5fe84b0fb3ae4bc27d99e18f" target="_top" xlink:title="pocketmine\\level\\Level\l\\useItemOn">
<polygon fill="white" stroke="black" points="364.5,-0 364.5,-30 489.5,-30 489.5,-0 364.5,-0"/>
<text text-anchor="start" x="372.5" y="-18" font-family="Helvetica,sans-Serif" font-size="10.00">pocketmine\level\Level</text>
<text text-anchor="middle" x="427" y="-7" font-family="Helvetica,sans-Serif" font-size="10.00">\useItemOn</text>
</a>
</g>
</g>
<!-- Node11&#45;&gt;Node12 -->
<g id="edge13" class="edge"><title>Node11&#45;&gt;Node12</title>
<path fill="none" stroke="midnightblue" d="M333.676,-26.259C343.914,-25.0104 354.371,-23.7352 364.394,-22.513"/>
<polygon fill="midnightblue" stroke="midnightblue" points="333.037,-22.8109 323.534,-27.4958 333.884,-29.7595 333.037,-22.8109"/>
</g>
</g>
</svg>
