<?xml version="1.0" encoding="UTF-8" standalone="no"?>
<!DOCTYPE svg PUBLIC "-//W3C//DTD SVG 1.1//EN"
 "http://www.w3.org/Graphics/SVG/1.1/DTD/svg11.dtd">
<!-- Generated by graphviz version 2.26.3 (20100126.1600)
 -->
<!-- Title: pocketmine\Server\broadcastPacket Pages: 1 -->
<svg width="314pt" height="94pt"
 viewBox="0.00 0.00 314.00 94.00" xmlns="http://www.w3.org/2000/svg" xmlns:xlink="http://www.w3.org/1999/xlink">
<g id="graph1" class="graph" transform="scale(1 1) rotate(0) translate(4 90)">
<title>pocketmine\Server\broadcastPacket</title>
<polygon fill="white" stroke="white" points="-4,5 -4,-90 311,-90 311,5 -4,5"/>
<!-- Node1 -->
<g id="node1" class="node"><title>Node1</title>
<polygon fill="#bfbfbf" stroke="black" points="0,-26 0,-60 144,-60 144,-26 0,-26"/>
<text text-anchor="start" x="8" y="-47" font-family="Helvetica,sans-Serif" font-size="10.00">pocketmine\Server\broadcast</text>
<text text-anchor="middle" x="72" y="-34" font-family="Helvetica,sans-Serif" font-size="10.00">Packet</text>
</g>
<!-- Node2 -->
<g id="node3" class="node"><title>Node2</title>
<a xlink:href="../../d3/dd8/classpocketmine_1_1inventory_1_1_chest_inventory.html#affd188f523d964cb81d7edb052ada726" target="_top" xlink:title="pocketmine\\inventory\l\\ChestInventory\\onClose">
<polygon fill="white" stroke="black" points="180.5,-52 180.5,-86 305.5,-86 305.5,-52 180.5,-52"/>
<text text-anchor="start" x="188.5" y="-73" font-family="Helvetica,sans-Serif" font-size="10.00">pocketmine\inventory</text>
<text text-anchor="middle" x="243" y="-60" font-family="Helvetica,sans-Serif" font-size="10.00">\ChestInventory\onClose</text>
</a>
</g>
<!-- Node1&#45;&gt;Node2 -->
<g id="edge2" class="edge"><title>Node1&#45;&gt;Node2</title>
<path fill="none" stroke="midnightblue" d="M153.969,-55.4631C162.815,-56.8081 171.711,-58.1607 180.278,-59.4633"/>
<polygon fill="midnightblue" stroke="midnightblue" points="154.436,-51.994 144.024,-53.951 153.384,-58.9145 154.436,-51.994"/>
</g>
<!-- Node3 -->
<g id="node5" class="node"><title>Node3</title>
<a xlink:href="../../d3/dd8/classpocketmine_1_1inventory_1_1_chest_inventory.html#a481f71f9f51ed8bb690ed492006c30f2" target="_top" xlink:title="pocketmine\\inventory\l\\ChestInventory\\onOpen">
<polygon fill="white" stroke="black" points="181.5,-0 181.5,-34 304.5,-34 304.5,-0 181.5,-0"/>
<text text-anchor="start" x="189.5" y="-21" font-family="Helvetica,sans-Serif" font-size="10.00">pocketmine\inventory</text>
<text text-anchor="middle" x="243" y="-8" font-family="Helvetica,sans-Serif" font-size="10.00">\ChestInventory\onOpen</text>
</a>
</g>
<!-- Node1&#45;&gt;Node3 -->
<g id="edge4" class="edge"><title>Node1&#45;&gt;Node3</title>
<path fill="none" stroke="midnightblue" d="M153.978,-30.5355C163.19,-29.1349 172.456,-27.726 181.348,-26.374"/>
<polygon fill="midnightblue" stroke="midnightblue" points="153.384,-27.0855 144.024,-32.049 154.436,-34.006 153.384,-27.0855"/>
</g>
</g>
</svg>
