<?xml version="1.0" encoding="UTF-8" standalone="no"?>
<!DOCTYPE svg PUBLIC "-//W3C//DTD SVG 1.1//EN"
 "http://www.w3.org/Graphics/SVG/1.1/DTD/svg11.dtd">
<!-- Generated by graphviz version 2.36.0 (20140111.2315)
 -->
<!-- Title: pocketmine\Server\dispatchCommand Pages: 1 -->
<svg width="370pt" height="38pt"
 viewBox="0.00 0.00 370.00 38.00" xmlns="http://www.w3.org/2000/svg" xmlns:xlink="http://www.w3.org/1999/xlink">
<g id="graph0" class="graph" transform="scale(1 1) rotate(0) translate(4 34)">
<title>pocketmine\Server\dispatchCommand</title>
<polygon fill="white" stroke="none" points="-4,4 -4,-34 366,-34 366,4 -4,4"/>
<!-- Node1 -->
<g id="node1" class="node"><title>Node1</title>
<polygon fill="#bfbfbf" stroke="black" points="0.5,-0 0.5,-30 151.5,-30 151.5,-0 0.5,-0"/>
<text text-anchor="start" x="8.5" y="-18" font-family="Helvetica,sans-Serif" font-size="10.00">pocketmine\Server\dispatch</text>
<text text-anchor="middle" x="76" y="-7" font-family="Helvetica,sans-Serif" font-size="10.00">Command</text>
</g>
<!-- Node2 -->
<g id="node2" class="node"><title>Node2</title>
<g id="a_node2"><a xlink:href="../../d6/d9d/interfacepocketmine_1_1command_1_1_command_sender.html#a84dfc3ca6b3d6aec33ca38b9ff39af1e" target="_top" xlink:title="pocketmine\\command\l\\CommandSender\\sendMessage">
<polygon fill="white" stroke="black" points="188.5,-0 188.5,-30 361.5,-30 361.5,-0 188.5,-0"/>
<text text-anchor="start" x="196.5" y="-18" font-family="Helvetica,sans-Serif" font-size="10.00">pocketmine\command</text>
<text text-anchor="middle" x="275" y="-7" font-family="Helvetica,sans-Serif" font-size="10.00">\CommandSender\sendMessage</text>
</a>
</g>
</g>
<!-- Node1&#45;&gt;Node2 -->
<g id="edge1" class="edge"><title>Node1&#45;&gt;Node2</title>
<path fill="none" stroke="midnightblue" d="M151.758,-15C160.457,-15 169.419,-15 178.35,-15"/>
<polygon fill="midnightblue" stroke="midnightblue" points="178.404,-18.5001 188.404,-15 178.404,-11.5001 178.404,-18.5001"/>
</g>
</g>
</svg>
