<?xml version="1.0" encoding="UTF-8" standalone="no"?>
<!DOCTYPE svg PUBLIC "-//W3C//DTD SVG 1.1//EN"
 "http://www.w3.org/Graphics/SVG/1.1/DTD/svg11.dtd">
<!-- Generated by graphviz version 2.26.3 (20100126.1600)
 -->
<!-- Title: G Pages: 1 -->
<svg width="356pt" height="110pt"
 viewBox="0.00 0.00 356.00 110.00" xmlns="http://www.w3.org/2000/svg" xmlns:xlink="http://www.w3.org/1999/xlink">
<g id="graph1" class="graph" transform="scale(1 1) rotate(0) translate(4 106)">
<title>G</title>
<polygon fill="white" stroke="white" points="-4,5 -4,-106 353,-106 353,5 -4,5"/>
<!-- Node1 -->
<g id="node1" class="node"><title>Node1</title>
<polygon fill="#bfbfbf" stroke="black" points="0.5,-40.5 0.5,-61.5 161.5,-61.5 161.5,-40.5 0.5,-40.5"/>
<text text-anchor="middle" x="81" y="-48.5" font-family="Helvetica,sans-Serif" font-size="10.00">pocketmine\Server\removePlayer</text>
</g>
<!-- Node2 -->
<g id="node3" class="node"><title>Node2</title>
<a xlink:href="../../df/d2c/classpocketmine_1_1_player.html#a813a79221b9f51a6ef6f2b5de416735f" target="_top" xlink:title="pocketmine\\Player\\getAddress">
<polygon fill="white" stroke="black" points="198,-80.5 198,-101.5 348,-101.5 348,-80.5 198,-80.5"/>
<text text-anchor="middle" x="273" y="-88.5" font-family="Helvetica,sans-Serif" font-size="10.00">pocketmine\Player\getAddress</text>
</a>
</g>
<!-- Node1&#45;&gt;Node2 -->
<g id="edge2" class="edge"><title>Node1&#45;&gt;Node2</title>
<path fill="none" stroke="midnightblue" d="M131.446,-61.5095C156.371,-66.7023 186.63,-73.0064 212.764,-78.4508"/>
<polygon fill="midnightblue" stroke="midnightblue" points="212.055,-81.8781 222.558,-80.4913 213.482,-75.0252 212.055,-81.8781"/>
</g>
<!-- Node3 -->
<g id="node5" class="node"><title>Node3</title>
<a xlink:href="../../df/d2c/classpocketmine_1_1_player.html#a5697e068c73b84615dcae1cc02ed8354" target="_top" xlink:title="pocketmine\\Player\\getPort">
<polygon fill="white" stroke="black" points="207,-40.5 207,-61.5 339,-61.5 339,-40.5 207,-40.5"/>
<text text-anchor="middle" x="273" y="-48.5" font-family="Helvetica,sans-Serif" font-size="10.00">pocketmine\Player\getPort</text>
</a>
</g>
<!-- Node1&#45;&gt;Node3 -->
<g id="edge4" class="edge"><title>Node1&#45;&gt;Node3</title>
<path fill="none" stroke="midnightblue" d="M161.591,-51C173.258,-51 185.238,-51 196.816,-51"/>
<polygon fill="midnightblue" stroke="midnightblue" points="196.868,-54.5001 206.868,-51 196.868,-47.5001 196.868,-54.5001"/>
</g>
<!-- Node4 -->
<g id="node7" class="node"><title>Node4</title>
<a xlink:href="../../df/d2c/classpocketmine_1_1_player.html#ad129342e283c32902a928e413a11a136" target="_top" xlink:title="pocketmine\\Player\\isOnline">
<polygon fill="white" stroke="black" points="205,-0.5 205,-21.5 341,-21.5 341,-0.5 205,-0.5"/>
<text text-anchor="middle" x="273" y="-8.5" font-family="Helvetica,sans-Serif" font-size="10.00">pocketmine\Player\isOnline</text>
</a>
</g>
<!-- Node1&#45;&gt;Node4 -->
<g id="edge6" class="edge"><title>Node1&#45;&gt;Node4</title>
<path fill="none" stroke="midnightblue" d="M131.446,-40.4905C156.371,-35.2977 186.63,-28.9936 212.764,-23.5492"/>
<polygon fill="midnightblue" stroke="midnightblue" points="213.482,-26.9748 222.558,-21.5087 212.055,-20.1219 213.482,-26.9748"/>
</g>
</g>
</svg>
