<?xml version="1.0" encoding="UTF-8" standalone="no"?>
<!DOCTYPE svg PUBLIC "-//W3C//DTD SVG 1.1//EN"
 "http://www.w3.org/Graphics/SVG/1.1/DTD/svg11.dtd">
<!-- Generated by graphviz version 2.26.3 (20100126.1600)
 -->
<!-- Title: G Pages: 1 -->
<!--zoomable 1262 -->
<svg id="main" version="1.1" xmlns="http://www.w3.org/2000/svg" xmlns:xlink="http://www.w3.org/1999/xlink" xml:space="preserve" onload="init(evt)">
        <defs>
                <circle id="rim" cx="0" cy="0" r="7"/>
                <circle id="rim2" cx="0" cy="0" r="3.5"/>
                <g id="zoomPlus">
                        <use xlink:href="#rim" fill="#404040">
                                <set attributeName="fill" to="#808080" begin="zoomplus.mouseover" end="zoomplus.mouseout"/>
                        </use>
                        <path d="M-4,0h8M0,-4v8" fill="none" stroke="white" stroke-width="1.5" pointer-events="none"/>
                </g>
                <g id="zoomMin">
                        <use xlink:href="#rim" fill="#404040">
                                <set attributeName="fill" to="#808080" begin="zoomminus.mouseover" end="zoomminus.mouseout"/>
                        </use>
                        <path d="M-4,0h8" fill="none" stroke="white" stroke-width="1.5" pointer-events="none"/>
                </g>
                <g id="dirArrow">
                        <path fill="none" stroke="white" stroke-width="1.5" d="M0,-3.0v7 M-2.5,-0.5L0,-3.0L2.5,-0.5"/>
                </g>
               <g id="resetDef">
                       <use xlink:href="#rim2" fill="#404040">
                               <set attributeName="fill" to="#808080" begin="reset.mouseover" end="reset.mouseout"/>
                       </use>
               </g>
        </defs>

<script type="text/javascript">
var viewWidth = 1727;
var viewHeight = 1262;
var sectionId = 'dynsection-0';
</script>
<script xlink:href="../../svgpan.js"/>
<svg id="graph" class="graph">
<g id="viewport">
<title>G</title>
<polygon fill="white" stroke="white" points="-4,5 -4,-1258 1724,-1258 1724,5 -4,5"/>
<!-- Node1 -->
<g id="node1" class="node"><title>Node1</title>
<polygon fill="#bfbfbf" stroke="black" points="1142,-530.5 1142,-671.5 1264,-671.5 1264,-530.5 1142,-530.5"/>
<text text-anchor="middle" x="1203" y="-658.5" font-family="Helvetica,sans-Serif" font-size="10.00">pocketmine\entity\Living</text>
<polyline fill="none" stroke="black" points="1142,-650.5 1264,-650.5 "/>
<text text-anchor="start" x="1150" y="-637.5" font-family="Helvetica,sans-Serif" font-size="10.00"># $gravity</text>
<text text-anchor="start" x="1150" y="-624.5" font-family="Helvetica,sans-Serif" font-size="10.00"># $drag</text>
<polyline fill="none" stroke="black" points="1142,-616.5 1264,-616.5 "/>
<text text-anchor="start" x="1150" y="-603.5" font-family="Helvetica,sans-Serif" font-size="10.00">+ getName()</text>
<text text-anchor="start" x="1150" y="-590.5" font-family="Helvetica,sans-Serif" font-size="10.00">+ attack()</text>
<text text-anchor="start" x="1150" y="-577.5" font-family="Helvetica,sans-Serif" font-size="10.00">+ heal()</text>
<text text-anchor="start" x="1150" y="-564.5" font-family="Helvetica,sans-Serif" font-size="10.00">+ kill()</text>
<text text-anchor="start" x="1150" y="-551.5" font-family="Helvetica,sans-Serif" font-size="10.00">+ getDrops()</text>
<text text-anchor="start" x="1150" y="-538.5" font-family="Helvetica,sans-Serif" font-size="10.00"># initEntity()</text>
</g>
<!-- Node4 -->
<g id="node7" class="node"><title>Node4</title>
<a xlink:href="../../d1/db7/classpocketmine_1_1entity_1_1_creature.html" target="_top" xlink:title="{pocketmine\\entity\\Creature\n||}">
<polygon fill="white" stroke="black" points="1063,-430.5 1063,-493.5 1197,-493.5 1197,-430.5 1063,-430.5"/>
<text text-anchor="middle" x="1130" y="-480.5" font-family="Helvetica,sans-Serif" font-size="10.00">pocketmine\entity\Creature</text>
<polyline fill="none" stroke="black" points="1063,-472.5 1197,-472.5 "/>
<text text-anchor="middle" x="1130" y="-459.5" font-family="Helvetica,sans-Serif" font-size="10.00"> </text>
<polyline fill="none" stroke="black" points="1063,-451.5 1197,-451.5 "/>
<text text-anchor="middle" x="1130" y="-438.5" font-family="Helvetica,sans-Serif" font-size="10.00"> </text>
</a>
</g>
<!-- Node1&#45;&gt;Node4 -->
<g id="edge6" class="edge"><title>Node1&#45;&gt;Node4</title>
<path fill="none" stroke="midnightblue" d="M1161.12,-521.256C1155.99,-511.492 1151.01,-502.004 1146.59,-493.585"/>
<polygon fill="none" stroke="midnightblue" points="1158.11,-523.052 1165.86,-530.278 1164.31,-519.798 1158.11,-523.052"/>
</g>
<!-- Node22 -->
<g id="node43" class="node"><title>Node22</title>
<a xlink:href="../../d2/d19/classpocketmine_1_1entity_1_1_slime.html" target="_top" xlink:title="{pocketmine\\entity\\Slime\n||}">
<polygon fill="white" stroke="black" points="1215,-430.5 1215,-493.5 1337,-493.5 1337,-430.5 1215,-430.5"/>
<text text-anchor="middle" x="1276" y="-480.5" font-family="Helvetica,sans-Serif" font-size="10.00">pocketmine\entity\Slime</text>
<polyline fill="none" stroke="black" points="1215,-472.5 1337,-472.5 "/>
<text text-anchor="middle" x="1276" y="-459.5" font-family="Helvetica,sans-Serif" font-size="10.00"> </text>
<polyline fill="none" stroke="black" points="1215,-451.5 1337,-451.5 "/>
<text text-anchor="middle" x="1276" y="-438.5" font-family="Helvetica,sans-Serif" font-size="10.00"> </text>
</a>
</g>
<!-- Node1&#45;&gt;Node22 -->
<g id="edge42" class="edge"><title>Node1&#45;&gt;Node22</title>
<path fill="none" stroke="midnightblue" d="M1244.88,-521.256C1250.01,-511.492 1254.99,-502.004 1259.41,-493.585"/>
<polygon fill="none" stroke="midnightblue" points="1241.69,-519.798 1240.14,-530.278 1247.89,-523.052 1241.69,-519.798"/>
</g>
<!-- Node2 -->
<g id="node2" class="node"><title>Node2</title>
<a xlink:href="../../d2/d3c/classpocketmine_1_1entity_1_1_entity.html" target="_top" xlink:title="{pocketmine\\entity\\Entity\n|+ $passenger\l+ $vehicle\l+ $chunkX\l+ $chunkZ\l+ $chunk\l+ $lastX\l+ $lastY\l+ $lastZ\l+ $motionX\l+ $motionY\land 25 more...+ $entityCount\l+ $needUpdate\l# $hasSpawned\l# $id\l# $lastDamageCause\l# $age\l# $isStatic\l# $isColliding\l# $inWater\l# $fireProof\l# $spawnTime\l# $gravity\l# $drag\l# $server\l|+ __construct()\l+ saveNBT()\l+ getViewers()\l+ spawnTo()\l+ despawnFrom()\l+ attack()\l+ heal()\l+ getHealth()\l+ setHealth()\l+ setLastDamageCause()\land 40 more...# initEntity()\l# checkObstruction()\l# updateFallState()\l# switchLevel()\l# checkBlockCollision()\l}">
<polygon fill="white" stroke="black" points="1048,-709 1048,-1253 1192,-1253 1192,-709 1048,-709"/>
<text text-anchor="middle" x="1120" y="-1240" font-family="Helvetica,sans-Serif" font-size="10.00">pocketmine\entity\Entity</text>
<polyline fill="none" stroke="black" points="1048,-1232 1192,-1232 "/>
<text text-anchor="start" x="1056" y="-1219" font-family="Helvetica,sans-Serif" font-size="10.00">+ $passenger</text>
<text text-anchor="start" x="1056" y="-1206" font-family="Helvetica,sans-Serif" font-size="10.00">+ $vehicle</text>
<text text-anchor="start" x="1056" y="-1193" font-family="Helvetica,sans-Serif" font-size="10.00">+ $chunkX</text>
<text text-anchor="start" x="1056" y="-1180" font-family="Helvetica,sans-Serif" font-size="10.00">+ $chunkZ</text>
<text text-anchor="start" x="1056" y="-1167" font-family="Helvetica,sans-Serif" font-size="10.00">+ $chunk</text>
<text text-anchor="start" x="1056" y="-1154" font-family="Helvetica,sans-Serif" font-size="10.00">+ $lastX</text>
<text text-anchor="start" x="1056" y="-1141" font-family="Helvetica,sans-Serif" font-size="10.00">+ $lastY</text>
<text text-anchor="start" x="1056" y="-1128" font-family="Helvetica,sans-Serif" font-size="10.00">+ $lastZ</text>
<text text-anchor="start" x="1056" y="-1115" font-family="Helvetica,sans-Serif" font-size="10.00">+ $motionX</text>
<text text-anchor="start" x="1056" y="-1102" font-family="Helvetica,sans-Serif" font-size="10.00">+ $motionY</text>
<text text-anchor="start" x="1056" y="-1089" font-family="Helvetica,sans-Serif" font-size="10.00">and 25 more...+ $entityCount</text>
<text text-anchor="start" x="1056" y="-1076" font-family="Helvetica,sans-Serif" font-size="10.00">+ $needUpdate</text>
<text text-anchor="start" x="1056" y="-1063" font-family="Helvetica,sans-Serif" font-size="10.00"># $hasSpawned</text>
<text text-anchor="start" x="1056" y="-1050" font-family="Helvetica,sans-Serif" font-size="10.00"># $id</text>
<text text-anchor="start" x="1056" y="-1037" font-family="Helvetica,sans-Serif" font-size="10.00"># $lastDamageCause</text>
<text text-anchor="start" x="1056" y="-1024" font-family="Helvetica,sans-Serif" font-size="10.00"># $age</text>
<text text-anchor="start" x="1056" y="-1011" font-family="Helvetica,sans-Serif" font-size="10.00"># $isStatic</text>
<text text-anchor="start" x="1056" y="-998" font-family="Helvetica,sans-Serif" font-size="10.00"># $isColliding</text>
<text text-anchor="start" x="1056" y="-985" font-family="Helvetica,sans-Serif" font-size="10.00"># $inWater</text>
<text text-anchor="start" x="1056" y="-972" font-family="Helvetica,sans-Serif" font-size="10.00"># $fireProof</text>
<text text-anchor="start" x="1056" y="-959" font-family="Helvetica,sans-Serif" font-size="10.00"># $spawnTime</text>
<text text-anchor="start" x="1056" y="-946" font-family="Helvetica,sans-Serif" font-size="10.00"># $gravity</text>
<text text-anchor="start" x="1056" y="-933" font-family="Helvetica,sans-Serif" font-size="10.00"># $drag</text>
<text text-anchor="start" x="1056" y="-920" font-family="Helvetica,sans-Serif" font-size="10.00"># $server</text>
<polyline fill="none" stroke="black" points="1048,-912 1192,-912 "/>
<text text-anchor="start" x="1056" y="-899" font-family="Helvetica,sans-Serif" font-size="10.00">+ __construct()</text>
<text text-anchor="start" x="1056" y="-886" font-family="Helvetica,sans-Serif" font-size="10.00">+ saveNBT()</text>
<text text-anchor="start" x="1056" y="-873" font-family="Helvetica,sans-Serif" font-size="10.00">+ getViewers()</text>
<text text-anchor="start" x="1056" y="-860" font-family="Helvetica,sans-Serif" font-size="10.00">+ spawnTo()</text>
<text text-anchor="start" x="1056" y="-847" font-family="Helvetica,sans-Serif" font-size="10.00">+ despawnFrom()</text>
<text text-anchor="start" x="1056" y="-834" font-family="Helvetica,sans-Serif" font-size="10.00">+ attack()</text>
<text text-anchor="start" x="1056" y="-821" font-family="Helvetica,sans-Serif" font-size="10.00">+ heal()</text>
<text text-anchor="start" x="1056" y="-808" font-family="Helvetica,sans-Serif" font-size="10.00">+ getHealth()</text>
<text text-anchor="start" x="1056" y="-795" font-family="Helvetica,sans-Serif" font-size="10.00">+ setHealth()</text>
<text text-anchor="start" x="1056" y="-782" font-family="Helvetica,sans-Serif" font-size="10.00">+ setLastDamageCause()</text>
<text text-anchor="start" x="1056" y="-769" font-family="Helvetica,sans-Serif" font-size="10.00">and 40 more...# initEntity()</text>
<text text-anchor="start" x="1056" y="-756" font-family="Helvetica,sans-Serif" font-size="10.00"># checkObstruction()</text>
<text text-anchor="start" x="1056" y="-743" font-family="Helvetica,sans-Serif" font-size="10.00"># updateFallState()</text>
<text text-anchor="start" x="1056" y="-730" font-family="Helvetica,sans-Serif" font-size="10.00"># switchLevel()</text>
<text text-anchor="start" x="1056" y="-717" font-family="Helvetica,sans-Serif" font-size="10.00"># checkBlockCollision()</text>
</a>
</g>
<!-- Node2&#45;&gt;Node1 -->
<g id="edge2" class="edge"><title>Node2&#45;&gt;Node1</title>
<path fill="none" stroke="midnightblue" d="M1181.57,-699.101C1183.68,-689.458 1185.69,-680.232 1187.59,-671.564"/>
<polygon fill="none" stroke="midnightblue" points="1178.15,-698.36 1179.44,-708.876 1184.99,-699.854 1178.15,-698.36"/>
</g>
<!-- Node3 -->
<g id="node4" class="node"><title>Node3</title>
<a xlink:href="../../d7/da6/interfacepocketmine_1_1entity_1_1_damageable.html" target="_top" xlink:title="{pocketmine\\entity\\Damageable\n||}">
<polygon fill="white" stroke="black" points="1210,-949.5 1210,-1012.5 1362,-1012.5 1362,-949.5 1210,-949.5"/>
<text text-anchor="middle" x="1286" y="-999.5" font-family="Helvetica,sans-Serif" font-size="10.00">pocketmine\entity\Damageable</text>
<polyline fill="none" stroke="black" points="1210,-991.5 1362,-991.5 "/>
<text text-anchor="middle" x="1286" y="-978.5" font-family="Helvetica,sans-Serif" font-size="10.00"> </text>
<polyline fill="none" stroke="black" points="1210,-970.5 1362,-970.5 "/>
<text text-anchor="middle" x="1286" y="-957.5" font-family="Helvetica,sans-Serif" font-size="10.00"> </text>
</a>
</g>
<!-- Node3&#45;&gt;Node1 -->
<g id="edge4" class="edge"><title>Node3&#45;&gt;Node1</title>
<path fill="none" stroke="midnightblue" d="M1276.92,-939.452C1262.86,-875.042 1235.62,-750.329 1218.42,-671.601"/>
<polygon fill="none" stroke="midnightblue" points="1273.51,-940.232 1279.07,-949.255 1280.35,-938.738 1273.51,-940.232"/>
</g>
<!-- Node5 -->
<g id="node9" class="node"><title>Node5</title>
<a xlink:href="../../d9/d0a/classpocketmine_1_1entity_1_1_animal.html" target="_top" xlink:title="{pocketmine\\entity\\Animal\n||}">
<polygon fill="white" stroke="black" points="417.5,-265.5 417.5,-328.5 544.5,-328.5 544.5,-265.5 417.5,-265.5"/>
<text text-anchor="middle" x="481" y="-315.5" font-family="Helvetica,sans-Serif" font-size="10.00">pocketmine\entity\Animal</text>
<polyline fill="none" stroke="black" points="417.5,-307.5 544.5,-307.5 "/>
<text text-anchor="middle" x="481" y="-294.5" font-family="Helvetica,sans-Serif" font-size="10.00"> </text>
<polyline fill="none" stroke="black" points="417.5,-286.5 544.5,-286.5 "/>
<text text-anchor="middle" x="481" y="-273.5" font-family="Helvetica,sans-Serif" font-size="10.00"> </text>
</a>
</g>
<!-- Node4&#45;&gt;Node5 -->
<g id="edge8" class="edge"><title>Node4&#45;&gt;Node5</title>
<path fill="none" stroke="midnightblue" d="M1053.15,-442.461C923.743,-409.562 664.772,-343.722 544.763,-313.211"/>
<polygon fill="none" stroke="midnightblue" points="1052.44,-445.892 1062.99,-444.964 1054.16,-439.107 1052.44,-445.892"/>
</g>
<!-- Node12 -->
<g id="node23" class="node"><title>Node12</title>
<a xlink:href="../../d4/ddf/classpocketmine_1_1entity_1_1_human.html" target="_top" xlink:title="{pocketmine\\entity\\Human\n|+ $width\l+ $length\l+ $height\l# $nameTag\l# $inventory\l|+ getInventory()\l+ getName()\l+ saveNBT()\l+ spawnTo()\l+ despawnFrom()\l+ getData()\l# initEntity()\l}">
<polygon fill="white" stroke="black" points="992,-200.5 992,-393.5 1120,-393.5 1120,-200.5 992,-200.5"/>
<text text-anchor="middle" x="1056" y="-380.5" font-family="Helvetica,sans-Serif" font-size="10.00">pocketmine\entity\Human</text>
<polyline fill="none" stroke="black" points="992,-372.5 1120,-372.5 "/>
<text text-anchor="start" x="1000" y="-359.5" font-family="Helvetica,sans-Serif" font-size="10.00">+ $width</text>
<text text-anchor="start" x="1000" y="-346.5" font-family="Helvetica,sans-Serif" font-size="10.00">+ $length</text>
<text text-anchor="start" x="1000" y="-333.5" font-family="Helvetica,sans-Serif" font-size="10.00">+ $height</text>
<text text-anchor="start" x="1000" y="-320.5" font-family="Helvetica,sans-Serif" font-size="10.00"># $nameTag</text>
<text text-anchor="start" x="1000" y="-307.5" font-family="Helvetica,sans-Serif" font-size="10.00"># $inventory</text>
<polyline fill="none" stroke="black" points="992,-299.5 1120,-299.5 "/>
<text text-anchor="start" x="1000" y="-286.5" font-family="Helvetica,sans-Serif" font-size="10.00">+ getInventory()</text>
<text text-anchor="start" x="1000" y="-273.5" font-family="Helvetica,sans-Serif" font-size="10.00">+ getName()</text>
<text text-anchor="start" x="1000" y="-260.5" font-family="Helvetica,sans-Serif" font-size="10.00">+ saveNBT()</text>
<text text-anchor="start" x="1000" y="-247.5" font-family="Helvetica,sans-Serif" font-size="10.00">+ spawnTo()</text>
<text text-anchor="start" x="1000" y="-234.5" font-family="Helvetica,sans-Serif" font-size="10.00">+ despawnFrom()</text>
<text text-anchor="start" x="1000" y="-221.5" font-family="Helvetica,sans-Serif" font-size="10.00">+ getData()</text>
<text text-anchor="start" x="1000" y="-208.5" font-family="Helvetica,sans-Serif" font-size="10.00"># initEntity()</text>
</a>
</g>
<!-- Node4&#45;&gt;Node12 -->
<g id="edge22" class="edge"><title>Node4&#45;&gt;Node12</title>
<path fill="none" stroke="midnightblue" d="M1111.59,-420.958C1107.78,-412.462 1103.62,-403.172 1099.33,-393.623"/>
<polygon fill="none" stroke="midnightblue" points="1108.45,-422.494 1115.73,-430.186 1114.83,-419.63 1108.45,-422.494"/>
</g>
<!-- Node13 -->
<g id="node25" class="node"><title>Node13</title>
<a xlink:href="../../d5/d2b/classpocketmine_1_1entity_1_1_monster.html" target="_top" xlink:title="{pocketmine\\entity\\Monster\n||}">
<polygon fill="white" stroke="black" points="1138,-265.5 1138,-328.5 1270,-328.5 1270,-265.5 1138,-265.5"/>
<text text-anchor="middle" x="1204" y="-315.5" font-family="Helvetica,sans-Serif" font-size="10.00">pocketmine\entity\Monster</text>
<polyline fill="none" stroke="black" points="1138,-307.5 1270,-307.5 "/>
<text text-anchor="middle" x="1204" y="-294.5" font-family="Helvetica,sans-Serif" font-size="10.00"> </text>
<polyline fill="none" stroke="black" points="1138,-286.5 1270,-286.5 "/>
<text text-anchor="middle" x="1204" y="-273.5" font-family="Helvetica,sans-Serif" font-size="10.00"> </text>
</a>
</g>
<!-- Node4&#45;&gt;Node13 -->
<g id="edge24" class="edge"><title>Node4&#45;&gt;Node13</title>
<path fill="none" stroke="midnightblue" d="M1148.44,-420.885C1161.23,-392.364 1178.02,-354.939 1189.78,-328.716"/>
<polygon fill="none" stroke="midnightblue" points="1145.17,-419.63 1144.27,-430.186 1151.55,-422.494 1145.17,-419.63"/>
</g>
<!-- Node21 -->
<g id="node41" class="node"><title>Node21</title>
<a xlink:href="../../d9/d6b/classpocketmine_1_1entity_1_1_villager.html" target="_top" xlink:title="{pocketmine\\entity\\Villager\n|+ FARMER\l+ LIBRARIAN\l+ PRIEST\l+ BLACKSMITH\l+ BUTCHER\l|+ setProfession()\l}">
<polygon fill="white" stroke="black" points="1287.5,-239.5 1287.5,-354.5 1416.5,-354.5 1416.5,-239.5 1287.5,-239.5"/>
<text text-anchor="middle" x="1352" y="-341.5" font-family="Helvetica,sans-Serif" font-size="10.00">pocketmine\entity\Villager</text>
<polyline fill="none" stroke="black" points="1287.5,-333.5 1416.5,-333.5 "/>
<text text-anchor="start" x="1295.5" y="-320.5" font-family="Helvetica,sans-Serif" font-size="10.00">+ FARMER</text>
<text text-anchor="start" x="1295.5" y="-307.5" font-family="Helvetica,sans-Serif" font-size="10.00">+ LIBRARIAN</text>
<text text-anchor="start" x="1295.5" y="-294.5" font-family="Helvetica,sans-Serif" font-size="10.00">+ PRIEST</text>
<text text-anchor="start" x="1295.5" y="-281.5" font-family="Helvetica,sans-Serif" font-size="10.00">+ BLACKSMITH</text>
<text text-anchor="start" x="1295.5" y="-268.5" font-family="Helvetica,sans-Serif" font-size="10.00">+ BUTCHER</text>
<polyline fill="none" stroke="black" points="1287.5,-260.5 1416.5,-260.5 "/>
<text text-anchor="start" x="1295.5" y="-247.5" font-family="Helvetica,sans-Serif" font-size="10.00">+ setProfession()</text>
</a>
</g>
<!-- Node4&#45;&gt;Node21 -->
<g id="edge40" class="edge"><title>Node4&#45;&gt;Node21</title>
<path fill="none" stroke="midnightblue" d="M1206.44,-429.077C1239.59,-414.437 1272.39,-399.311 1279,-394 1292.8,-382.911 1305.4,-368.655 1316.11,-354.505"/>
<polygon fill="none" stroke="midnightblue" points="1204.85,-425.955 1197.1,-433.185 1207.67,-432.362 1204.85,-425.955"/>
</g>
<!-- Node6 -->
<g id="node11" class="node"><title>Node6</title>
<a xlink:href="../../d9/d0b/classpocketmine_1_1entity_1_1_chicken.html" target="_top" xlink:title="{pocketmine\\entity\\Chicken\n||}">
<polygon fill="white" stroke="black" points="-0.5,-100.5 -0.5,-163.5 132.5,-163.5 132.5,-100.5 -0.5,-100.5"/>
<text text-anchor="middle" x="66" y="-150.5" font-family="Helvetica,sans-Serif" font-size="10.00">pocketmine\entity\Chicken</text>
<polyline fill="none" stroke="black" points="-0.5,-142.5 132.5,-142.5 "/>
<text text-anchor="middle" x="66" y="-129.5" font-family="Helvetica,sans-Serif" font-size="10.00"> </text>
<polyline fill="none" stroke="black" points="-0.5,-121.5 132.5,-121.5 "/>
<text text-anchor="middle" x="66" y="-108.5" font-family="Helvetica,sans-Serif" font-size="10.00"> </text>
</a>
</g>
<!-- Node5&#45;&gt;Node6 -->
<g id="edge10" class="edge"><title>Node5&#45;&gt;Node6</title>
<path fill="none" stroke="midnightblue" d="M407.994,-269.179C338.97,-242.702 232.616,-201.454 141,-164 138.248,-162.875 135.443,-161.719 132.612,-160.545"/>
<polygon fill="none" stroke="midnightblue" points="406.891,-272.504 417.481,-272.815 409.396,-265.968 406.891,-272.504"/>
</g>
<!-- Node7 -->
<g id="node13" class="node"><title>Node7</title>
<a xlink:href="../../d4/d80/classpocketmine_1_1entity_1_1_cow.html" target="_top" xlink:title="{pocketmine\\entity\\Cow\n||}">
<polygon fill="white" stroke="black" points="149.5,-100.5 149.5,-163.5 266.5,-163.5 266.5,-100.5 149.5,-100.5"/>
<text text-anchor="middle" x="208" y="-150.5" font-family="Helvetica,sans-Serif" font-size="10.00">pocketmine\entity\Cow</text>
<polyline fill="none" stroke="black" points="149.5,-142.5 266.5,-142.5 "/>
<text text-anchor="middle" x="208" y="-129.5" font-family="Helvetica,sans-Serif" font-size="10.00"> </text>
<polyline fill="none" stroke="black" points="149.5,-121.5 266.5,-121.5 "/>
<text text-anchor="middle" x="208" y="-108.5" font-family="Helvetica,sans-Serif" font-size="10.00"> </text>
</a>
</g>
<!-- Node5&#45;&gt;Node7 -->
<g id="edge12" class="edge"><title>Node5&#45;&gt;Node7</title>
<path fill="none" stroke="midnightblue" d="M419.938,-260.094C371.905,-231.064 305.704,-191.052 260.137,-163.511"/>
<polygon fill="none" stroke="midnightblue" points="418.317,-263.204 428.686,-265.382 421.938,-257.214 418.317,-263.204"/>
</g>
<!-- Node8 -->
<g id="node15" class="node"><title>Node8</title>
<a xlink:href="../../d3/d91/classpocketmine_1_1entity_1_1_ocelot.html" target="_top" xlink:title="{pocketmine\\entity\\Ocelot\n||}">
<polygon fill="white" stroke="black" points="283.5,-100.5 283.5,-163.5 408.5,-163.5 408.5,-100.5 283.5,-100.5"/>
<text text-anchor="middle" x="346" y="-150.5" font-family="Helvetica,sans-Serif" font-size="10.00">pocketmine\entity\Ocelot</text>
<polyline fill="none" stroke="black" points="283.5,-142.5 408.5,-142.5 "/>
<text text-anchor="middle" x="346" y="-129.5" font-family="Helvetica,sans-Serif" font-size="10.00"> </text>
<polyline fill="none" stroke="black" points="283.5,-121.5 408.5,-121.5 "/>
<text text-anchor="middle" x="346" y="-108.5" font-family="Helvetica,sans-Serif" font-size="10.00"> </text>
</a>
</g>
<!-- Node5&#45;&gt;Node8 -->
<g id="edge14" class="edge"><title>Node5&#45;&gt;Node8</title>
<path fill="none" stroke="midnightblue" d="M448.571,-257.364C425.093,-228.669 393.777,-190.395 371.949,-163.716"/>
<polygon fill="none" stroke="midnightblue" points="445.929,-259.663 454.971,-265.186 451.347,-255.23 445.929,-259.663"/>
</g>
<!-- Node9 -->
<g id="node17" class="node"><title>Node9</title>
<a xlink:href="../../d8/d3e/classpocketmine_1_1entity_1_1_pig.html" target="_top" xlink:title="{pocketmine\\entity\\Pig\n||}">
<polygon fill="white" stroke="black" points="425.5,-100.5 425.5,-163.5 536.5,-163.5 536.5,-100.5 425.5,-100.5"/>
<text text-anchor="middle" x="481" y="-150.5" font-family="Helvetica,sans-Serif" font-size="10.00">pocketmine\entity\Pig</text>
<polyline fill="none" stroke="black" points="425.5,-142.5 536.5,-142.5 "/>
<text text-anchor="middle" x="481" y="-129.5" font-family="Helvetica,sans-Serif" font-size="10.00"> </text>
<polyline fill="none" stroke="black" points="425.5,-121.5 536.5,-121.5 "/>
<text text-anchor="middle" x="481" y="-108.5" font-family="Helvetica,sans-Serif" font-size="10.00"> </text>
</a>
</g>
<!-- Node5&#45;&gt;Node9 -->
<g id="edge16" class="edge"><title>Node5&#45;&gt;Node9</title>
<path fill="none" stroke="midnightblue" d="M481,-255.139C481,-226.714 481,-189.711 481,-163.716"/>
<polygon fill="none" stroke="midnightblue" points="477.5,-255.186 481,-265.186 484.5,-255.186 477.5,-255.186"/>
</g>
<!-- Node10 -->
<g id="node19" class="node"><title>Node10</title>
<a xlink:href="../../d4/d1e/classpocketmine_1_1entity_1_1_sheep.html" target="_top" xlink:title="{pocketmine\\entity\\Sheep\n||}">
<polygon fill="white" stroke="black" points="553.5,-100.5 553.5,-163.5 678.5,-163.5 678.5,-100.5 553.5,-100.5"/>
<text text-anchor="middle" x="616" y="-150.5" font-family="Helvetica,sans-Serif" font-size="10.00">pocketmine\entity\Sheep</text>
<polyline fill="none" stroke="black" points="553.5,-142.5 678.5,-142.5 "/>
<text text-anchor="middle" x="616" y="-129.5" font-family="Helvetica,sans-Serif" font-size="10.00"> </text>
<polyline fill="none" stroke="black" points="553.5,-121.5 678.5,-121.5 "/>
<text text-anchor="middle" x="616" y="-108.5" font-family="Helvetica,sans-Serif" font-size="10.00"> </text>
</a>
</g>
<!-- Node5&#45;&gt;Node10 -->
<g id="edge18" class="edge"><title>Node5&#45;&gt;Node10</title>
<path fill="none" stroke="midnightblue" d="M513.429,-257.364C536.907,-228.669 568.223,-190.395 590.051,-163.716"/>
<polygon fill="none" stroke="midnightblue" points="510.653,-255.23 507.029,-265.186 516.071,-259.663 510.653,-255.23"/>
</g>
<!-- Node11 -->
<g id="node21" class="node"><title>Node11</title>
<a xlink:href="../../d1/d54/classpocketmine_1_1entity_1_1_wolf.html" target="_top" xlink:title="{pocketmine\\entity\\Wolf\n||}">
<polygon fill="white" stroke="black" points="695.5,-100.5 695.5,-163.5 812.5,-163.5 812.5,-100.5 695.5,-100.5"/>
<text text-anchor="middle" x="754" y="-150.5" font-family="Helvetica,sans-Serif" font-size="10.00">pocketmine\entity\Wolf</text>
<polyline fill="none" stroke="black" points="695.5,-142.5 812.5,-142.5 "/>
<text text-anchor="middle" x="754" y="-129.5" font-family="Helvetica,sans-Serif" font-size="10.00"> </text>
<polyline fill="none" stroke="black" points="695.5,-121.5 812.5,-121.5 "/>
<text text-anchor="middle" x="754" y="-108.5" font-family="Helvetica,sans-Serif" font-size="10.00"> </text>
</a>
</g>
<!-- Node5&#45;&gt;Node11 -->
<g id="edge20" class="edge"><title>Node5&#45;&gt;Node11</title>
<path fill="none" stroke="midnightblue" d="M542.062,-260.094C590.095,-231.064 656.296,-191.052 701.863,-163.511"/>
<polygon fill="none" stroke="midnightblue" points="540.062,-257.214 533.314,-265.382 543.683,-263.204 540.062,-257.214"/>
</g>
<!-- Node14 -->
<g id="node27" class="node"><title>Node14</title>
<a xlink:href="../../de/d3d/classpocketmine_1_1entity_1_1_creeper.html" target="_top" xlink:title="{pocketmine\\entity\\Creeper\n||}">
<polygon fill="white" stroke="black" points="829.5,-100.5 829.5,-163.5 960.5,-163.5 960.5,-100.5 829.5,-100.5"/>
<text text-anchor="middle" x="895" y="-150.5" font-family="Helvetica,sans-Serif" font-size="10.00">pocketmine\entity\Creeper</text>
<polyline fill="none" stroke="black" points="829.5,-142.5 960.5,-142.5 "/>
<text text-anchor="middle" x="895" y="-129.5" font-family="Helvetica,sans-Serif" font-size="10.00"> </text>
<polyline fill="none" stroke="black" points="829.5,-121.5 960.5,-121.5 "/>
<text text-anchor="middle" x="895" y="-108.5" font-family="Helvetica,sans-Serif" font-size="10.00"> </text>
</a>
</g>
<!-- Node13&#45;&gt;Node14 -->
<g id="edge26" class="edge"><title>Node13&#45;&gt;Node14</title>
<path fill="none" stroke="midnightblue" d="M1181.86,-256.534C1168.95,-236.614 1150.9,-213.943 1129,-200 1067.52,-160.853 1038.31,-186.564 969,-164 966.205,-163.09 963.371,-162.114 960.522,-161.089"/>
<polygon fill="none" stroke="midnightblue" points="1178.98,-258.531 1187.24,-265.159 1184.91,-254.823 1178.98,-258.531"/>
</g>
<!-- Node15 -->
<g id="node29" class="node"><title>Node15</title>
<a xlink:href="../../d4/d3e/classpocketmine_1_1entity_1_1_enderman.html" target="_top" xlink:title="{pocketmine\\entity\\Enderman\n||}">
<polygon fill="white" stroke="black" points="977.5,-100.5 977.5,-163.5 1118.5,-163.5 1118.5,-100.5 977.5,-100.5"/>
<text text-anchor="middle" x="1048" y="-150.5" font-family="Helvetica,sans-Serif" font-size="10.00">pocketmine\entity\Enderman</text>
<polyline fill="none" stroke="black" points="977.5,-142.5 1118.5,-142.5 "/>
<text text-anchor="middle" x="1048" y="-129.5" font-family="Helvetica,sans-Serif" font-size="10.00"> </text>
<polyline fill="none" stroke="black" points="977.5,-121.5 1118.5,-121.5 "/>
<text text-anchor="middle" x="1048" y="-108.5" font-family="Helvetica,sans-Serif" font-size="10.00"> </text>
</a>
</g>
<!-- Node13&#45;&gt;Node15 -->
<g id="edge28" class="edge"><title>Node13&#45;&gt;Node15</title>
<path fill="none" stroke="midnightblue" d="M1176.36,-257.363C1162.91,-239.147 1146.01,-217.706 1129,-200 1116.79,-187.288 1102.35,-174.548 1089.06,-163.588"/>
<polygon fill="none" stroke="midnightblue" points="1173.56,-259.464 1182.28,-265.481 1179.21,-255.339 1173.56,-259.464"/>
</g>
<!-- Node16 -->
<g id="node31" class="node"><title>Node16</title>
<a xlink:href="../../d8/d41/classpocketmine_1_1entity_1_1_silverfish.html" target="_top" xlink:title="{pocketmine\\entity\\Silverfish\n||}">
<polygon fill="white" stroke="black" points="1135.5,-100.5 1135.5,-163.5 1272.5,-163.5 1272.5,-100.5 1135.5,-100.5"/>
<text text-anchor="middle" x="1204" y="-150.5" font-family="Helvetica,sans-Serif" font-size="10.00">pocketmine\entity\Silverfish</text>
<polyline fill="none" stroke="black" points="1135.5,-142.5 1272.5,-142.5 "/>
<text text-anchor="middle" x="1204" y="-129.5" font-family="Helvetica,sans-Serif" font-size="10.00"> </text>
<polyline fill="none" stroke="black" points="1135.5,-121.5 1272.5,-121.5 "/>
<text text-anchor="middle" x="1204" y="-108.5" font-family="Helvetica,sans-Serif" font-size="10.00"> </text>
</a>
</g>
<!-- Node13&#45;&gt;Node16 -->
<g id="edge30" class="edge"><title>Node13&#45;&gt;Node16</title>
<path fill="none" stroke="midnightblue" d="M1204,-255.139C1204,-226.714 1204,-189.711 1204,-163.716"/>
<polygon fill="none" stroke="midnightblue" points="1200.5,-255.186 1204,-265.186 1207.5,-255.186 1200.5,-255.186"/>
</g>
<!-- Node17 -->
<g id="node33" class="node"><title>Node17</title>
<a xlink:href="../../d7/d19/classpocketmine_1_1entity_1_1_skeleton.html" target="_top" xlink:title="{pocketmine\\entity\\Skeleton\n||}">
<polygon fill="white" stroke="black" points="1289.5,-100.5 1289.5,-163.5 1424.5,-163.5 1424.5,-100.5 1289.5,-100.5"/>
<text text-anchor="middle" x="1357" y="-150.5" font-family="Helvetica,sans-Serif" font-size="10.00">pocketmine\entity\Skeleton</text>
<polyline fill="none" stroke="black" points="1289.5,-142.5 1424.5,-142.5 "/>
<text text-anchor="middle" x="1357" y="-129.5" font-family="Helvetica,sans-Serif" font-size="10.00"> </text>
<polyline fill="none" stroke="black" points="1289.5,-121.5 1424.5,-121.5 "/>
<text text-anchor="middle" x="1357" y="-108.5" font-family="Helvetica,sans-Serif" font-size="10.00"> </text>
</a>
</g>
<!-- Node13&#45;&gt;Node17 -->
<g id="edge32" class="edge"><title>Node13&#45;&gt;Node17</title>
<path fill="none" stroke="midnightblue" d="M1232.1,-257.095C1245.52,-238.997 1262.28,-217.729 1279,-200 1290.83,-187.451 1304.76,-174.752 1317.54,-163.779"/>
<polygon fill="none" stroke="midnightblue" points="1229.27,-255.03 1226.18,-265.163 1234.91,-259.172 1229.27,-255.03"/>
</g>
<!-- Node18 -->
<g id="node35" class="node"><title>Node18</title>
<a xlink:href="../../d8/d2d/classpocketmine_1_1entity_1_1_spider.html" target="_top" xlink:title="{pocketmine\\entity\\Spider\n||}">
<polygon fill="white" stroke="black" points="1441.5,-100.5 1441.5,-163.5 1566.5,-163.5 1566.5,-100.5 1441.5,-100.5"/>
<text text-anchor="middle" x="1504" y="-150.5" font-family="Helvetica,sans-Serif" font-size="10.00">pocketmine\entity\Spider</text>
<polyline fill="none" stroke="black" points="1441.5,-142.5 1566.5,-142.5 "/>
<text text-anchor="middle" x="1504" y="-129.5" font-family="Helvetica,sans-Serif" font-size="10.00"> </text>
<polyline fill="none" stroke="black" points="1441.5,-121.5 1566.5,-121.5 "/>
<text text-anchor="middle" x="1504" y="-108.5" font-family="Helvetica,sans-Serif" font-size="10.00"> </text>
</a>
</g>
<!-- Node13&#45;&gt;Node18 -->
<g id="edge34" class="edge"><title>Node13&#45;&gt;Node18</title>
<path fill="none" stroke="midnightblue" d="M1226.19,-256.609C1239.11,-236.709 1257.16,-214.034 1279,-200 1338.13,-162.003 1366.42,-186.547 1433,-164 1435.69,-163.089 1438.42,-162.113 1441.15,-161.087"/>
<polygon fill="none" stroke="midnightblue" points="1223.14,-254.89 1220.8,-265.224 1229.07,-258.605 1223.14,-254.89"/>
</g>
<!-- Node19 -->
<g id="node37" class="node"><title>Node19</title>
<a xlink:href="../../d0/da7/classpocketmine_1_1entity_1_1_zombie.html" target="_top" xlink:title="{pocketmine\\entity\\Zombie\n||}">
<polygon fill="white" stroke="black" points="1583.5,-100.5 1583.5,-163.5 1712.5,-163.5 1712.5,-100.5 1583.5,-100.5"/>
<text text-anchor="middle" x="1648" y="-150.5" font-family="Helvetica,sans-Serif" font-size="10.00">pocketmine\entity\Zombie</text>
<polyline fill="none" stroke="black" points="1583.5,-142.5 1712.5,-142.5 "/>
<text text-anchor="middle" x="1648" y="-129.5" font-family="Helvetica,sans-Serif" font-size="10.00"> </text>
<polyline fill="none" stroke="black" points="1583.5,-121.5 1712.5,-121.5 "/>
<text text-anchor="middle" x="1648" y="-108.5" font-family="Helvetica,sans-Serif" font-size="10.00"> </text>
</a>
</g>
<!-- Node13&#45;&gt;Node19 -->
<g id="edge36" class="edge"><title>Node13&#45;&gt;Node19</title>
<path fill="none" stroke="midnightblue" d="M1225.05,-256.48C1237.83,-236.095 1256.11,-213.011 1279,-200 1394.22,-134.517 1447.17,-198.975 1575,-164 1577.8,-163.233 1580.64,-162.377 1583.48,-161.451"/>
<polygon fill="none" stroke="midnightblue" points="1221.89,-254.937 1219.74,-265.311 1227.89,-258.544 1221.89,-254.937"/>
</g>
<!-- Node20 -->
<g id="node39" class="node"><title>Node20</title>
<a xlink:href="../../db/d86/classpocketmine_1_1entity_1_1_pig_zombie.html" target="_top" xlink:title="{pocketmine\\entity\\PigZombie\n||}">
<polygon fill="white" stroke="black" points="1576.5,-0.5 1576.5,-63.5 1719.5,-63.5 1719.5,-0.5 1576.5,-0.5"/>
<text text-anchor="middle" x="1648" y="-50.5" font-family="Helvetica,sans-Serif" font-size="10.00">pocketmine\entity\PigZombie</text>
<polyline fill="none" stroke="black" points="1576.5,-42.5 1719.5,-42.5 "/>
<text text-anchor="middle" x="1648" y="-29.5" font-family="Helvetica,sans-Serif" font-size="10.00"> </text>
<polyline fill="none" stroke="black" points="1576.5,-21.5 1719.5,-21.5 "/>
<text text-anchor="middle" x="1648" y="-8.5" font-family="Helvetica,sans-Serif" font-size="10.00"> </text>
</a>
</g>
<!-- Node19&#45;&gt;Node20 -->
<g id="edge38" class="edge"><title>Node19&#45;&gt;Node20</title>
<path fill="none" stroke="midnightblue" d="M1648,-90.2111C1648,-81.37 1648,-72.1767 1648,-63.778"/>
<polygon fill="none" stroke="midnightblue" points="1644.5,-90.3593 1648,-100.359 1651.5,-90.3594 1644.5,-90.3593"/>
</g>
</g>
</svg>
        <g id="navigator" transform="translate(0 0)" fill="#404254">
                <rect fill="#f2f5e9" fill-opacity="0.5" stroke="#606060" stroke-width=".5" x="0" y="0" width="60" height="60"/>
                <use id="zoomplus" xlink:href="#zoomPlus" x="17" y="9" onmousedown="handleZoom(evt,'in')"/>
                <use id="zoomminus" xlink:href="#zoomMin" x="42" y="9" onmousedown="handleZoom(evt,'out')"/>
                <use id="reset" xlink:href="#resetDef" x="30" y="36" onmousedown="handleReset()"/>
                <g id="arrowUp" xlink:href="#dirArrow" transform="translate(30 24)" onmousedown="handlePan(0,-1)">
                  <use xlink:href="#rim" fill="#404040">
                        <set attributeName="fill" to="#808080" begin="arrowUp.mouseover" end="arrowUp.mouseout"/>
                  </use>
                  <path fill="none" stroke="white" stroke-width="1.5" d="M0,-3.0v7 M-2.5,-0.5L0,-3.0L2.5,-0.5"/>
                </g>
                <g id="arrowRight" xlink:href="#dirArrow" transform="rotate(90) translate(36 -43)" onmousedown="handlePan(1,0)">
                  <use xlink:href="#rim" fill="#404040">
                        <set attributeName="fill" to="#808080" begin="arrowRight.mouseover" end="arrowRight.mouseout"/>
                  </use>
                  <path fill="none" stroke="white" stroke-width="1.5" d="M0,-3.0v7 M-2.5,-0.5L0,-3.0L2.5,-0.5"/>
                </g>
                <g id="arrowDown" xlink:href="#dirArrow" transform="rotate(180) translate(-30 -48)" onmousedown="handlePan(0,1)">
                  <use xlink:href="#rim" fill="#404040">
                        <set attributeName="fill" to="#808080" begin="arrowDown.mouseover" end="arrowDown.mouseout"/>
                  </use>
                  <path fill="none" stroke="white" stroke-width="1.5" d="M0,-3.0v7 M-2.5,-0.5L0,-3.0L2.5,-0.5"/>
                </g>
                <g id="arrowLeft" xlink:href="#dirArrow" transform="rotate(270) translate(-36 17)" onmousedown="handlePan(-1,0)">
                  <use xlink:href="#rim" fill="#404040">
                        <set attributeName="fill" to="#808080" begin="arrowLeft.mouseover" end="arrowLeft.mouseout"/>
                  </use>
                  <path fill="none" stroke="white" stroke-width="1.5" d="M0,-3.0v7 M-2.5,-0.5L0,-3.0L2.5,-0.5"/>
                </g>
        </g>
</svg>
