<?xml version="1.0" encoding="UTF-8" standalone="no"?>
<!DOCTYPE svg PUBLIC "-//W3C//DTD SVG 1.1//EN"
 "http://www.w3.org/Graphics/SVG/1.1/DTD/svg11.dtd">
<!-- Generated by graphviz version 2.36.0 (20140111.2315)
 -->
<!-- Title: pocketmine\inventory\FurnaceRecipe\getInput Pages: 1 -->
<svg width="558pt" height="48pt"
 viewBox="0.00 0.00 558.00 48.00" xmlns="http://www.w3.org/2000/svg" xmlns:xlink="http://www.w3.org/1999/xlink">
<g id="graph0" class="graph" transform="scale(1 1) rotate(0) translate(4 44)">
<title>pocketmine\inventory\FurnaceRecipe\getInput</title>
<polygon fill="white" stroke="none" points="-4,4 -4,-44 554,-44 554,4 -4,4"/>
<!-- Node1 -->
<g id="node1" class="node"><title>Node1</title>
<polygon fill="#bfbfbf" stroke="black" points="0.5,-5 0.5,-35 131.5,-35 131.5,-5 0.5,-5"/>
<text text-anchor="start" x="8.5" y="-23" font-family="Helvetica,sans-Serif" font-size="10.00">pocketmine\inventory</text>
<text text-anchor="middle" x="66" y="-12" font-family="Helvetica,sans-Serif" font-size="10.00">\FurnaceRecipe\getInput</text>
</g>
<!-- Node2 -->
<g id="node2" class="node"><title>Node2</title>
<g id="a_node2"><a xlink:href="../../d3/d9f/classpocketmine_1_1inventory_1_1_crafting_manager.html#af87cd02a84b7610b1d680a7fb9d8229a" target="_top" xlink:title="pocketmine\\inventory\l\\CraftingManager\\registerFurnace\lRecipe">
<polygon fill="white" stroke="black" points="168,0.5 168,-40.5 344,-40.5 344,0.5 168,0.5"/>
<text text-anchor="start" x="176" y="-28.5" font-family="Helvetica,sans-Serif" font-size="10.00">pocketmine\inventory</text>
<text text-anchor="start" x="176" y="-17.5" font-family="Helvetica,sans-Serif" font-size="10.00">\CraftingManager\registerFurnace</text>
<text text-anchor="middle" x="256" y="-6.5" font-family="Helvetica,sans-Serif" font-size="10.00">Recipe</text>
</a>
</g>
</g>
<!-- Node1&#45;&gt;Node2 -->
<g id="edge1" class="edge"><title>Node1&#45;&gt;Node2</title>
<path fill="none" stroke="midnightblue" d="M141.979,-20C150.512,-20 159.263,-20 167.935,-20"/>
<polygon fill="midnightblue" stroke="midnightblue" points="141.699,-16.5001 131.699,-20 141.699,-23.5001 141.699,-16.5001"/>
</g>
<!-- Node3 -->
<g id="node3" class="node"><title>Node3</title>
<g id="a_node3"><a xlink:href="../../d3/d9f/classpocketmine_1_1inventory_1_1_crafting_manager.html#acf24041256484327762a81dd2826dca5" target="_top" xlink:title="pocketmine\\inventory\l\\CraftingManager\\registerRecipe">
<polygon fill="white" stroke="black" points="380,-5 380,-35 550,-35 550,-5 380,-5"/>
<text text-anchor="start" x="388" y="-23" font-family="Helvetica,sans-Serif" font-size="10.00">pocketmine\inventory</text>
<text text-anchor="middle" x="465" y="-12" font-family="Helvetica,sans-Serif" font-size="10.00">\CraftingManager\registerRecipe</text>
</a>
</g>
</g>
<!-- Node2&#45;&gt;Node3 -->
<g id="edge2" class="edge"><title>Node2&#45;&gt;Node3</title>
<path fill="none" stroke="midnightblue" d="M354.217,-20C362.796,-20 371.433,-20 379.89,-20"/>
<polygon fill="midnightblue" stroke="midnightblue" points="354.187,-16.5001 344.187,-20 354.187,-23.5001 354.187,-16.5001"/>
</g>
</g>
</svg>
