<?xml version="1.0" encoding="UTF-8" standalone="no"?>
<!DOCTYPE svg PUBLIC "-//W3C//DTD SVG 1.1//EN"
 "http://www.w3.org/Graphics/SVG/1.1/DTD/svg11.dtd">
<!-- Generated by graphviz version 2.26.3 (20100126.1600)
 -->
<!-- Title: pocketmine\command\CommandSender\sendMessage Pages: 1 -->
<svg width="400pt" height="146pt"
 viewBox="0.00 0.00 400.00 146.00" xmlns="http://www.w3.org/2000/svg" xmlns:xlink="http://www.w3.org/1999/xlink">
<g id="graph1" class="graph" transform="scale(1 1) rotate(0) translate(4 142)">
<title>pocketmine\command\CommandSender\sendMessage</title>
<polygon fill="white" stroke="white" points="-4,5 -4,-142 397,-142 397,5 -4,5"/>
<!-- Node1 -->
<g id="node1" class="node"><title>Node1</title>
<polygon fill="#bfbfbf" stroke="black" points="0.5,-52 0.5,-86 159.5,-86 159.5,-52 0.5,-52"/>
<text text-anchor="start" x="8.5" y="-73" font-family="Helvetica,sans-Serif" font-size="10.00">pocketmine\command</text>
<text text-anchor="middle" x="80" y="-60" font-family="Helvetica,sans-Serif" font-size="10.00">\CommandSender\sendMessage</text>
</g>
<!-- Node2 -->
<g id="node3" class="node"><title>Node2</title>
<a xlink:href="../../d6/df1/classpocketmine_1_1command_1_1_command.html#a073c7631b60f7760565da0147a7c85ef" target="_top" xlink:title="pocketmine\\command\l\\Command\\broadcastCommandMessage">
<polygon fill="white" stroke="black" points="196.5,-104 196.5,-138 391.5,-138 391.5,-104 196.5,-104"/>
<text text-anchor="start" x="204.5" y="-125" font-family="Helvetica,sans-Serif" font-size="10.00">pocketmine\command</text>
<text text-anchor="middle" x="294" y="-112" font-family="Helvetica,sans-Serif" font-size="10.00">\Command\broadcastCommandMessage</text>
</a>
</g>
<!-- Node1&#45;&gt;Node2 -->
<g id="edge2" class="edge"><title>Node1&#45;&gt;Node2</title>
<path fill="none" stroke="midnightblue" d="M159.911,-88.4176C180.885,-93.5141 203.346,-98.9718 223.771,-103.935"/>
<polygon fill="midnightblue" stroke="midnightblue" points="160.615,-84.987 150.072,-86.0267 158.962,-91.7891 160.615,-84.987"/>
</g>
<!-- Node3 -->
<g id="node5" class="node"><title>Node3</title>
<a xlink:href="../../d5/df7/classpocketmine_1_1_server.html#a5dcbe6191809a32aa98358e68c115197" target="_top" xlink:title="pocketmine\\Server\\dispatch\lCommand">
<polygon fill="white" stroke="black" points="225,-52 225,-86 363,-86 363,-52 225,-52"/>
<text text-anchor="start" x="233" y="-73" font-family="Helvetica,sans-Serif" font-size="10.00">pocketmine\Server\dispatch</text>
<text text-anchor="middle" x="294" y="-60" font-family="Helvetica,sans-Serif" font-size="10.00">Command</text>
</a>
</g>
<!-- Node1&#45;&gt;Node3 -->
<g id="edge4" class="edge"><title>Node1&#45;&gt;Node3</title>
<path fill="none" stroke="midnightblue" d="M169.812,-69C188.195,-69 207.272,-69 224.797,-69"/>
<polygon fill="midnightblue" stroke="midnightblue" points="169.686,-65.5001 159.686,-69 169.686,-72.5001 169.686,-65.5001"/>
</g>
<!-- Node4 -->
<g id="node7" class="node"><title>Node4</title>
<a xlink:href="../../d6/df1/classpocketmine_1_1command_1_1_command.html#a26a56d9c918a77a565e9591ed0386928" target="_top" xlink:title="pocketmine\\command\l\\Command\\testPermission">
<polygon fill="white" stroke="black" points="227.5,-0 227.5,-34 360.5,-34 360.5,-0 227.5,-0"/>
<text text-anchor="start" x="235.5" y="-21" font-family="Helvetica,sans-Serif" font-size="10.00">pocketmine\command</text>
<text text-anchor="middle" x="294" y="-8" font-family="Helvetica,sans-Serif" font-size="10.00">\Command\testPermission</text>
</a>
</g>
<!-- Node1&#45;&gt;Node4 -->
<g id="edge6" class="edge"><title>Node1&#45;&gt;Node4</title>
<path fill="none" stroke="midnightblue" d="M159.826,-49.6031C182.076,-44.1964 206.006,-38.3818 227.407,-33.1814"/>
<polygon fill="midnightblue" stroke="midnightblue" points="158.962,-46.2109 150.072,-51.9733 160.615,-53.013 158.962,-46.2109"/>
</g>
</g>
</svg>
