<?xml version="1.0" encoding="UTF-8" standalone="no"?>
<!DOCTYPE svg PUBLIC "-//W3C//DTD SVG 1.1//EN"
 "http://www.w3.org/Graphics/SVG/1.1/DTD/svg11.dtd">
<!-- Generated by graphviz version 2.26.3 (20100126.1600)
 -->
<!-- Title: G Pages: 1 -->
<!--zoomable 1230 -->
<svg id="main" version="1.1" xmlns="http://www.w3.org/2000/svg" xmlns:xlink="http://www.w3.org/1999/xlink" xml:space="preserve" onload="init(evt)">
        <defs>
                <circle id="rim" cx="0" cy="0" r="7"/>
                <circle id="rim2" cx="0" cy="0" r="3.5"/>
                <g id="zoomPlus">
                        <use xlink:href="#rim" fill="#404040">
                                <set attributeName="fill" to="#808080" begin="zoomplus.mouseover" end="zoomplus.mouseout"/>
                        </use>
                        <path d="M-4,0h8M0,-4v8" fill="none" stroke="white" stroke-width="1.5" pointer-events="none"/>
                </g>
                <g id="zoomMin">
                        <use xlink:href="#rim" fill="#404040">
                                <set attributeName="fill" to="#808080" begin="zoomminus.mouseover" end="zoomminus.mouseout"/>
                        </use>
                        <path d="M-4,0h8" fill="none" stroke="white" stroke-width="1.5" pointer-events="none"/>
                </g>
                <g id="dirArrow">
                        <path fill="none" stroke="white" stroke-width="1.5" d="M0,-3.0v7 M-2.5,-0.5L0,-3.0L2.5,-0.5"/>
                </g>
               <g id="resetDef">
                       <use xlink:href="#rim2" fill="#404040">
                               <set attributeName="fill" to="#808080" begin="reset.mouseover" end="reset.mouseout"/>
                       </use>
               </g>
        </defs>

<script type="text/javascript">
var viewWidth = 618;
var viewHeight = 1230;
var sectionId = 'dynsection-3';
</script>
<script xlink:href="../../svgpan.js"/>
<svg id="graph" class="graph">
<g id="viewport">
<title>G</title>
<polygon fill="white" stroke="white" points="-4,5 -4,-1226 615,-1226 615,5 -4,5"/>
<!-- Node1 -->
<g id="node1" class="node"><title>Node1</title>
<polygon fill="#bfbfbf" stroke="black" points="0.5,-600.5 0.5,-621.5 255.5,-621.5 255.5,-600.5 0.5,-600.5"/>
<text text-anchor="middle" x="128" y="-608.5" font-family="Helvetica,sans-Serif" font-size="10.00">pocketmine\command\CommandSender\sendMessage</text>
</g>
<!-- Node2 -->
<g id="node3" class="node"><title>Node2</title>
<a xlink:href="../../d6/df1/classpocketmine_1_1command_1_1_command.html#a073c7631b60f7760565da0147a7c85ef" target="_top" xlink:title="pocketmine\\command\\Command\\broadcastCommandMessage">
<polygon fill="white" stroke="black" points="305.5,-1200.5 305.5,-1221.5 596.5,-1221.5 596.5,-1200.5 305.5,-1200.5"/>
<text text-anchor="middle" x="451" y="-1208.5" font-family="Helvetica,sans-Serif" font-size="10.00">pocketmine\command\Command\broadcastCommandMessage</text>
</a>
</g>
<!-- Node1&#45;&gt;Node2 -->
<g id="edge2" class="edge"><title>Node1&#45;&gt;Node2</title>
<path fill="none" stroke="midnightblue" d="M130.814,-631.858C144.022,-726.526 202.984,-1114.46 292,-1191 296.114,-1194.54 300.523,-1197.65 305.16,-1200.39"/>
<polygon fill="midnightblue" stroke="midnightblue" points="134.262,-631.237 129.431,-621.808 127.327,-632.191 134.262,-631.237"/>
</g>
<!-- Node3 -->
<g id="node5" class="node"><title>Node3</title>
<a xlink:href="../../d7/d21/classpocketmine_1_1command_1_1defaults_1_1_ban_list_command.html#a078cacba26435f6567f359159bef45d5" target="_top" xlink:title="pocketmine\\command\\defaults\\BanListCommand\\execute">
<polygon fill="white" stroke="black" points="316.5,-1160.5 316.5,-1181.5 585.5,-1181.5 585.5,-1160.5 316.5,-1160.5"/>
<text text-anchor="middle" x="451" y="-1168.5" font-family="Helvetica,sans-Serif" font-size="10.00">pocketmine\command\defaults\BanListCommand\execute</text>
</a>
</g>
<!-- Node1&#45;&gt;Node3 -->
<g id="edge4" class="edge"><title>Node1&#45;&gt;Node3</title>
<path fill="none" stroke="midnightblue" d="M131.222,-631.556C145.776,-721.667 208.316,-1080.44 292,-1151 299.338,-1157.19 307.586,-1162.07 316.365,-1165.89"/>
<polygon fill="midnightblue" stroke="midnightblue" points="134.652,-630.835 129.62,-621.511 127.739,-631.938 134.652,-630.835"/>
</g>
<!-- Node4 -->
<g id="node7" class="node"><title>Node4</title>
<a xlink:href="../../db/dce/classpocketmine_1_1command_1_1defaults_1_1_status_command.html#a1fd91f2951da71eba05bf8ca170ee4fa" target="_top" xlink:title="pocketmine\\command\\defaults\\StatusCommand\\execute">
<polygon fill="white" stroke="black" points="319,-1120.5 319,-1141.5 583,-1141.5 583,-1120.5 319,-1120.5"/>
<text text-anchor="middle" x="451" y="-1128.5" font-family="Helvetica,sans-Serif" font-size="10.00">pocketmine\command\defaults\StatusCommand\execute</text>
</a>
</g>
<!-- Node1&#45;&gt;Node4 -->
<g id="edge6" class="edge"><title>Node1&#45;&gt;Node4</title>
<path fill="none" stroke="midnightblue" d="M131.763,-631.666C147.868,-717.765 213.748,-1046.48 292,-1111 300.05,-1117.64 309.153,-1122.76 318.829,-1126.67"/>
<polygon fill="midnightblue" stroke="midnightblue" points="135.158,-630.779 129.898,-621.582 128.275,-632.052 135.158,-630.779"/>
</g>
<!-- Node5 -->
<g id="node9" class="node"><title>Node5</title>
<a xlink:href="../../d0/d74/classpocketmine_1_1command_1_1defaults_1_1_difficulty_command.html#a6d6a9984b551070927d91fa5db881cc9" target="_top" xlink:title="pocketmine\\command\\defaults\\DifficultyCommand\\execute">
<polygon fill="white" stroke="black" points="313.5,-1080.5 313.5,-1101.5 588.5,-1101.5 588.5,-1080.5 313.5,-1080.5"/>
<text text-anchor="middle" x="451" y="-1088.5" font-family="Helvetica,sans-Serif" font-size="10.00">pocketmine\command\defaults\DifficultyCommand\execute</text>
</a>
</g>
<!-- Node1&#45;&gt;Node5 -->
<g id="edge8" class="edge"><title>Node1&#45;&gt;Node5</title>
<path fill="none" stroke="midnightblue" d="M132.353,-631.57C150.042,-713.163 219.083,-1012.43 292,-1071 298.507,-1076.23 305.673,-1080.5 313.253,-1083.98"/>
<polygon fill="midnightblue" stroke="midnightblue" points="135.723,-630.592 130.202,-621.549 128.878,-632.061 135.723,-630.592"/>
</g>
<!-- Node6 -->
<g id="node11" class="node"><title>Node6</title>
<a xlink:href="../../d7/d87/classpocketmine_1_1command_1_1defaults_1_1_me_command.html#a013d1266e540b1eb98d612ada8654d76" target="_top" xlink:title="pocketmine\\command\\defaults\\MeCommand\\execute">
<polygon fill="white" stroke="black" points="326.5,-1040.5 326.5,-1061.5 575.5,-1061.5 575.5,-1040.5 326.5,-1040.5"/>
<text text-anchor="middle" x="451" y="-1048.5" font-family="Helvetica,sans-Serif" font-size="10.00">pocketmine\command\defaults\MeCommand\execute</text>
</a>
</g>
<!-- Node1&#45;&gt;Node6 -->
<g id="edge10" class="edge"><title>Node1&#45;&gt;Node6</title>
<path fill="none" stroke="midnightblue" d="M129.054,-631.881C133.791,-701.567 159.216,-927.556 292,-1031 302.206,-1038.95 313.95,-1044.67 326.337,-1048.71"/>
<polygon fill="midnightblue" stroke="midnightblue" points="132.538,-631.514 128.44,-621.744 125.551,-631.937 132.538,-631.514"/>
</g>
<!-- Node7 -->
<g id="node13" class="node"><title>Node7</title>
<a xlink:href="../../d7/d80/classpocketmine_1_1command_1_1_formatted_command_alias.html#ada93d8ea76108bd8d7a0cc54c835b963" target="_top" xlink:title="pocketmine\\command\\FormattedCommandAlias\\execute">
<polygon fill="white" stroke="black" points="319,-1000.5 319,-1021.5 583,-1021.5 583,-1000.5 319,-1000.5"/>
<text text-anchor="middle" x="451" y="-1008.5" font-family="Helvetica,sans-Serif" font-size="10.00">pocketmine\command\FormattedCommandAlias\execute</text>
</a>
</g>
<!-- Node1&#45;&gt;Node7 -->
<g id="edge12" class="edge"><title>Node1&#45;&gt;Node7</title>
<path fill="none" stroke="midnightblue" d="M129.998,-632.033C137.441,-697.572 169.786,-899.197 292,-991 300.119,-997.099 309.156,-1001.87 318.682,-1005.56"/>
<polygon fill="midnightblue" stroke="midnightblue" points="133.443,-631.33 128.912,-621.752 126.482,-632.065 133.443,-631.33"/>
</g>
<!-- Node8 -->
<g id="node15" class="node"><title>Node8</title>
<a xlink:href="../../d2/dea/classpocketmine_1_1command_1_1defaults_1_1_pardon_command.html#a7b850c1148fcb11098cdd89585f8825d" target="_top" xlink:title="pocketmine\\command\\defaults\\PardonCommand\\execute">
<polygon fill="white" stroke="black" points="318,-960.5 318,-981.5 584,-981.5 584,-960.5 318,-960.5"/>
<text text-anchor="middle" x="451" y="-968.5" font-family="Helvetica,sans-Serif" font-size="10.00">pocketmine\command\defaults\PardonCommand\execute</text>
</a>
</g>
<!-- Node1&#45;&gt;Node8 -->
<g id="edge14" class="edge"><title>Node1&#45;&gt;Node8</title>
<path fill="none" stroke="midnightblue" d="M131.094,-631.827C141.321,-692.602 180.017,-870.504 292,-951 299.907,-956.684 308.624,-961.187 317.781,-964.726"/>
<polygon fill="midnightblue" stroke="midnightblue" points="134.493,-630.916 129.459,-621.593 127.581,-632.02 134.493,-630.916"/>
</g>
<!-- Node9 -->
<g id="node17" class="node"><title>Node9</title>
<a xlink:href="../../dc/da7/classpocketmine_1_1command_1_1defaults_1_1_pardon_ip_command.html#a8283d77e816c6d3ed50e7f17f28a3df3" target="_top" xlink:title="pocketmine\\command\\defaults\\PardonIpCommand\\execute">
<polygon fill="white" stroke="black" points="313.5,-920.5 313.5,-941.5 588.5,-941.5 588.5,-920.5 313.5,-920.5"/>
<text text-anchor="middle" x="451" y="-928.5" font-family="Helvetica,sans-Serif" font-size="10.00">pocketmine\command\defaults\PardonIpCommand\execute</text>
</a>
</g>
<!-- Node1&#45;&gt;Node9 -->
<g id="edge16" class="edge"><title>Node1&#45;&gt;Node9</title>
<path fill="none" stroke="midnightblue" d="M132.43,-631.604C145.597,-687.353 190.101,-841.612 292,-911 298.669,-915.541 305.867,-919.31 313.39,-922.424"/>
<polygon fill="midnightblue" stroke="midnightblue" points="135.773,-630.522 130.146,-621.545 128.947,-632.072 135.773,-630.522"/>
</g>
<!-- Node10 -->
<g id="node19" class="node"><title>Node10</title>
<a xlink:href="../../d8/d56/classpocketmine_1_1command_1_1defaults_1_1_plugins_command.html#a3c4651a53577906b54157ce4fc503f27" target="_top" xlink:title="pocketmine\\command\\defaults\\PluginsCommand\\execute">
<polygon fill="white" stroke="black" points="317,-880.5 317,-901.5 585,-901.5 585,-880.5 317,-880.5"/>
<text text-anchor="middle" x="451" y="-888.5" font-family="Helvetica,sans-Serif" font-size="10.00">pocketmine\command\defaults\PluginsCommand\execute</text>
</a>
</g>
<!-- Node1&#45;&gt;Node10 -->
<g id="edge18" class="edge"><title>Node1&#45;&gt;Node10</title>
<path fill="none" stroke="midnightblue" d="M134.062,-631.224C150.3,-681.524 199.918,-812.42 292,-871 299.746,-875.928 308.138,-879.918 316.879,-883.13"/>
<polygon fill="midnightblue" stroke="midnightblue" points="137.35,-630.013 131.023,-621.514 130.67,-632.103 137.35,-630.013"/>
</g>
<!-- Node11 -->
<g id="node21" class="node"><title>Node11</title>
<a xlink:href="../../d3/da8/classpocketmine_1_1command_1_1defaults_1_1_seed_command.html#aed7f21e1f79e0dc3a1cb66e371021101" target="_top" xlink:title="pocketmine\\command\\defaults\\SeedCommand\\execute">
<polygon fill="white" stroke="black" points="322,-840.5 322,-861.5 580,-861.5 580,-840.5 322,-840.5"/>
<text text-anchor="middle" x="451" y="-848.5" font-family="Helvetica,sans-Serif" font-size="10.00">pocketmine\command\defaults\SeedCommand\execute</text>
</a>
</g>
<!-- Node1&#45;&gt;Node11 -->
<g id="edge20" class="edge"><title>Node1&#45;&gt;Node11</title>
<path fill="none" stroke="midnightblue" d="M136.302,-631.11C155.905,-675.767 209.694,-783.033 292,-831 301.254,-836.393 311.321,-840.617 321.747,-843.9"/>
<polygon fill="midnightblue" stroke="midnightblue" points="139.401,-629.457 132.249,-621.64 132.965,-632.211 139.401,-629.457"/>
</g>
<!-- Node12 -->
<g id="node23" class="node"><title>Node12</title>
<a xlink:href="../../d5/d93/classpocketmine_1_1command_1_1defaults_1_1_default_gamemode_command.html#a9d8a4a83ef8a5e2ea439cffb162c2df4" target="_top" xlink:title="pocketmine\\command\\defaults\\DefaultGamemodeCommand\\execute">
<polygon fill="white" stroke="black" points="292.5,-800.5 292.5,-821.5 609.5,-821.5 609.5,-800.5 292.5,-800.5"/>
<text text-anchor="middle" x="451" y="-808.5" font-family="Helvetica,sans-Serif" font-size="10.00">pocketmine\command\defaults\DefaultGamemodeCommand\execute</text>
</a>
</g>
<!-- Node1&#45;&gt;Node12 -->
<g id="edge22" class="edge"><title>Node1&#45;&gt;Node12</title>
<path fill="none" stroke="midnightblue" d="M139.204,-630.609C162.253,-668.892 219.003,-753.136 292,-791 299.162,-794.715 306.742,-797.845 314.553,-800.475"/>
<polygon fill="midnightblue" stroke="midnightblue" points="142.176,-628.758 134.081,-621.923 136.146,-632.314 142.176,-628.758"/>
</g>
<!-- Node13 -->
<g id="node25" class="node"><title>Node13</title>
<a xlink:href="../../d3/d0a/classpocketmine_1_1command_1_1defaults_1_1_list_command.html#a6e4d427aba02b726d4e9b71f6c34e220" target="_top" xlink:title="pocketmine\\command\\defaults\\ListCommand\\execute">
<polygon fill="white" stroke="black" points="325.5,-760.5 325.5,-781.5 576.5,-781.5 576.5,-760.5 325.5,-760.5"/>
<text text-anchor="middle" x="451" y="-768.5" font-family="Helvetica,sans-Serif" font-size="10.00">pocketmine\command\defaults\ListCommand\execute</text>
</a>
</g>
<!-- Node1&#45;&gt;Node13 -->
<g id="edge24" class="edge"><title>Node1&#45;&gt;Node13</title>
<path fill="none" stroke="midnightblue" d="M143.2,-629.674C169.734,-660.8 227.831,-722.661 292,-751 302.562,-755.664 313.878,-759.342 325.426,-762.231"/>
<polygon fill="midnightblue" stroke="midnightblue" points="145.679,-627.183 136.575,-621.764 140.313,-631.677 145.679,-627.183"/>
</g>
<!-- Node14 -->
<g id="node27" class="node"><title>Node14</title>
<a xlink:href="../../dc/d55/classpocketmine_1_1command_1_1defaults_1_1_time_command.html#a20caeb35beb5b0f41a5ef0d6e4c549cd" target="_top" xlink:title="pocketmine\\command\\defaults\\TimeCommand\\execute">
<polygon fill="white" stroke="black" points="322.5,-720.5 322.5,-741.5 579.5,-741.5 579.5,-720.5 322.5,-720.5"/>
<text text-anchor="middle" x="451" y="-728.5" font-family="Helvetica,sans-Serif" font-size="10.00">pocketmine\command\defaults\TimeCommand\execute</text>
</a>
</g>
<!-- Node1&#45;&gt;Node14 -->
<g id="edge26" class="edge"><title>Node1&#45;&gt;Node14</title>
<path fill="none" stroke="midnightblue" d="M149.053,-627.939C178.903,-650.953 236.131,-691.466 292,-711 302.899,-714.811 314.443,-717.911 326.136,-720.432"/>
<polygon fill="midnightblue" stroke="midnightblue" points="151.074,-625.076 141.041,-621.672 146.761,-630.59 151.074,-625.076"/>
</g>
<!-- Node15 -->
<g id="node29" class="node"><title>Node15</title>
<a xlink:href="../../d5/d43/classpocketmine_1_1command_1_1defaults_1_1_whitelist_command.html#a82fec0ce2bb31895740686b570bda73c" target="_top" xlink:title="pocketmine\\command\\defaults\\WhitelistCommand\\execute">
<polygon fill="white" stroke="black" points="314,-680.5 314,-701.5 588,-701.5 588,-680.5 314,-680.5"/>
<text text-anchor="middle" x="451" y="-688.5" font-family="Helvetica,sans-Serif" font-size="10.00">pocketmine\command\defaults\WhitelistCommand\execute</text>
</a>
</g>
<!-- Node1&#45;&gt;Node15 -->
<g id="edge28" class="edge"><title>Node1&#45;&gt;Node15</title>
<path fill="none" stroke="midnightblue" d="M161.146,-625.646C193.795,-639.465 245.406,-659.7 292,-671 307.682,-674.803 324.42,-677.91 340.93,-680.44"/>
<polygon fill="midnightblue" stroke="midnightblue" points="162.22,-622.298 151.649,-621.58 159.465,-628.733 162.22,-622.298"/>
</g>
<!-- Node16 -->
<g id="node31" class="node"><title>Node16</title>
<a xlink:href="../../dc/dd8/classpocketmine_1_1command_1_1defaults_1_1_deop_command.html#aa675014e6fe1b79f68803ccdb156e438" target="_top" xlink:title="pocketmine\\command\\defaults\\DeopCommand\\execute">
<polygon fill="white" stroke="black" points="321.5,-640.5 321.5,-661.5 580.5,-661.5 580.5,-640.5 321.5,-640.5"/>
<text text-anchor="middle" x="451" y="-648.5" font-family="Helvetica,sans-Serif" font-size="10.00">pocketmine\command\defaults\DeopCommand\execute</text>
</a>
</g>
<!-- Node1&#45;&gt;Node16 -->
<g id="edge30" class="edge"><title>Node1&#45;&gt;Node16</title>
<path fill="none" stroke="midnightblue" d="M223.001,-622.765C268.352,-628.381 322.179,-635.047 366.142,-640.491"/>
<polygon fill="midnightblue" stroke="midnightblue" points="223.219,-619.265 212.864,-621.51 222.358,-626.212 223.219,-619.265"/>
</g>
<!-- Node17 -->
<g id="node33" class="node"><title>Node17</title>
<a xlink:href="../../df/d64/classpocketmine_1_1command_1_1defaults_1_1_op_command.html#accb0972a60ce1d83d1b79cdefa26695c" target="_top" xlink:title="pocketmine\\command\\defaults\\OpCommand\\execute">
<polygon fill="white" stroke="black" points="327,-600.5 327,-621.5 575,-621.5 575,-600.5 327,-600.5"/>
<text text-anchor="middle" x="451" y="-608.5" font-family="Helvetica,sans-Serif" font-size="10.00">pocketmine\command\defaults\OpCommand\execute</text>
</a>
</g>
<!-- Node1&#45;&gt;Node17 -->
<g id="edge32" class="edge"><title>Node1&#45;&gt;Node17</title>
<path fill="none" stroke="midnightblue" d="M265.883,-611C286.155,-611 306.935,-611 326.906,-611"/>
<polygon fill="midnightblue" stroke="midnightblue" points="265.658,-607.5 255.658,-611 265.658,-614.5 265.658,-607.5"/>
</g>
<!-- Node18 -->
<g id="node35" class="node"><title>Node18</title>
<a xlink:href="../../dc/d6e/classpocketmine_1_1command_1_1defaults_1_1_kill_command.html#acd6c78f74d8652cb2dd46579e0fd0894" target="_top" xlink:title="pocketmine\\command\\defaults\\KillCommand\\execute">
<polygon fill="white" stroke="black" points="326.5,-560.5 326.5,-581.5 575.5,-581.5 575.5,-560.5 326.5,-560.5"/>
<text text-anchor="middle" x="451" y="-568.5" font-family="Helvetica,sans-Serif" font-size="10.00">pocketmine\command\defaults\KillCommand\execute</text>
</a>
</g>
<!-- Node1&#45;&gt;Node18 -->
<g id="edge34" class="edge"><title>Node1&#45;&gt;Node18</title>
<path fill="none" stroke="midnightblue" d="M223.001,-599.235C268.352,-593.619 322.179,-586.953 366.142,-581.509"/>
<polygon fill="midnightblue" stroke="midnightblue" points="222.358,-595.788 212.864,-600.49 223.219,-602.735 222.358,-595.788"/>
</g>
<!-- Node19 -->
<g id="node37" class="node"><title>Node19</title>
<a xlink:href="../../d1/d73/classpocketmine_1_1command_1_1defaults_1_1_ban_ip_command.html#a6c82afb911e9998fbdc08c3a570ad84b" target="_top" xlink:title="pocketmine\\command\\defaults\\BanIpCommand\\execute">
<polygon fill="white" stroke="black" points="320.5,-520.5 320.5,-541.5 581.5,-541.5 581.5,-520.5 320.5,-520.5"/>
<text text-anchor="middle" x="451" y="-528.5" font-family="Helvetica,sans-Serif" font-size="10.00">pocketmine\command\defaults\BanIpCommand\execute</text>
</a>
</g>
<!-- Node1&#45;&gt;Node19 -->
<g id="edge36" class="edge"><title>Node1&#45;&gt;Node19</title>
<path fill="none" stroke="midnightblue" d="M161.146,-596.354C193.795,-582.535 245.406,-562.3 292,-551 307.682,-547.197 324.42,-544.09 340.93,-541.56"/>
<polygon fill="midnightblue" stroke="midnightblue" points="159.465,-593.267 151.649,-600.42 162.22,-599.702 159.465,-593.267"/>
</g>
<!-- Node20 -->
<g id="node39" class="node"><title>Node20</title>
<a xlink:href="../../d5/d3c/classpocketmine_1_1command_1_1defaults_1_1_say_command.html#a9c0da35a72d17c3bfc04da0dc9b7bd6e" target="_top" xlink:title="pocketmine\\command\\defaults\\SayCommand\\execute">
<polygon fill="white" stroke="black" points="324.5,-480.5 324.5,-501.5 577.5,-501.5 577.5,-480.5 324.5,-480.5"/>
<text text-anchor="middle" x="451" y="-488.5" font-family="Helvetica,sans-Serif" font-size="10.00">pocketmine\command\defaults\SayCommand\execute</text>
</a>
</g>
<!-- Node1&#45;&gt;Node20 -->
<g id="edge38" class="edge"><title>Node1&#45;&gt;Node20</title>
<path fill="none" stroke="midnightblue" d="M149.053,-594.061C178.903,-571.047 236.131,-530.534 292,-511 302.899,-507.189 314.443,-504.089 326.136,-501.568"/>
<polygon fill="midnightblue" stroke="midnightblue" points="146.761,-591.41 141.041,-600.328 151.074,-596.924 146.761,-591.41"/>
</g>
<!-- Node21 -->
<g id="node41" class="node"><title>Node21</title>
<a xlink:href="../../d7/dce/classpocketmine_1_1command_1_1defaults_1_1_kick_command.html#af534396b397410abe92f6c44aca06f88" target="_top" xlink:title="pocketmine\\command\\defaults\\KickCommand\\execute">
<polygon fill="white" stroke="black" points="323.5,-440.5 323.5,-461.5 578.5,-461.5 578.5,-440.5 323.5,-440.5"/>
<text text-anchor="middle" x="451" y="-448.5" font-family="Helvetica,sans-Serif" font-size="10.00">pocketmine\command\defaults\KickCommand\execute</text>
</a>
</g>
<!-- Node1&#45;&gt;Node21 -->
<g id="edge40" class="edge"><title>Node1&#45;&gt;Node21</title>
<path fill="none" stroke="midnightblue" d="M143.2,-592.326C169.734,-561.2 227.831,-499.339 292,-471 301.926,-466.617 312.517,-463.105 323.341,-460.3"/>
<polygon fill="midnightblue" stroke="midnightblue" points="140.313,-590.323 136.575,-600.236 145.679,-594.817 140.313,-590.323"/>
</g>
<!-- Node22 -->
<g id="node43" class="node"><title>Node22</title>
<a xlink:href="../../d7/d4c/classpocketmine_1_1command_1_1defaults_1_1_tell_command.html#abc7ab52cd728fde2465bbaf36805250c" target="_top" xlink:title="pocketmine\\command\\defaults\\TellCommand\\execute">
<polygon fill="white" stroke="black" points="325.5,-400.5 325.5,-421.5 576.5,-421.5 576.5,-400.5 325.5,-400.5"/>
<text text-anchor="middle" x="451" y="-408.5" font-family="Helvetica,sans-Serif" font-size="10.00">pocketmine\command\defaults\TellCommand\execute</text>
</a>
</g>
<!-- Node1&#45;&gt;Node22 -->
<g id="edge42" class="edge"><title>Node1&#45;&gt;Node22</title>
<path fill="none" stroke="midnightblue" d="M139.204,-591.391C162.253,-553.108 219.003,-468.864 292,-431 302.373,-425.62 313.622,-421.466 325.18,-418.282"/>
<polygon fill="midnightblue" stroke="midnightblue" points="136.146,-589.686 134.081,-600.077 142.176,-593.242 136.146,-589.686"/>
</g>
<!-- Node23 -->
<g id="node45" class="node"><title>Node23</title>
<a xlink:href="../../da/d23/classpocketmine_1_1command_1_1defaults_1_1_ban_command.html#a66deff18b9dcbdbf709d68a8c249f16f" target="_top" xlink:title="pocketmine\\command\\defaults\\BanCommand\\execute">
<polygon fill="white" stroke="black" points="324.5,-360.5 324.5,-381.5 577.5,-381.5 577.5,-360.5 324.5,-360.5"/>
<text text-anchor="middle" x="451" y="-368.5" font-family="Helvetica,sans-Serif" font-size="10.00">pocketmine\command\defaults\BanCommand\execute</text>
</a>
</g>
<!-- Node1&#45;&gt;Node23 -->
<g id="edge44" class="edge"><title>Node1&#45;&gt;Node23</title>
<path fill="none" stroke="midnightblue" d="M136.302,-590.89C155.905,-546.233 209.694,-438.967 292,-391 301.976,-385.186 312.895,-380.732 324.191,-377.349"/>
<polygon fill="midnightblue" stroke="midnightblue" points="132.965,-589.789 132.249,-600.36 139.401,-592.543 132.965,-589.789"/>
</g>
<!-- Node24 -->
<g id="node47" class="node"><title>Node24</title>
<a xlink:href="../../df/d66/classpocketmine_1_1command_1_1defaults_1_1_set_world_spawn_command.html#ae5a37595aa4d031cbea3ef4de479831a" target="_top" xlink:title="pocketmine\\command\\defaults\\SetWorldSpawnCommand\\execute">
<polygon fill="white" stroke="black" points="298,-320.5 298,-341.5 604,-341.5 604,-320.5 298,-320.5"/>
<text text-anchor="middle" x="451" y="-328.5" font-family="Helvetica,sans-Serif" font-size="10.00">pocketmine\command\defaults\SetWorldSpawnCommand\execute</text>
</a>
</g>
<!-- Node1&#45;&gt;Node24 -->
<g id="edge46" class="edge"><title>Node1&#45;&gt;Node24</title>
<path fill="none" stroke="midnightblue" d="M134.062,-590.776C150.3,-540.476 199.918,-409.58 292,-351 297.751,-347.341 303.858,-344.2 310.199,-341.51"/>
<polygon fill="midnightblue" stroke="midnightblue" points="130.67,-589.897 131.023,-600.486 137.35,-591.987 130.67,-589.897"/>
</g>
<!-- Node25 -->
<g id="node49" class="node"><title>Node25</title>
<a xlink:href="../../d1/d1c/classpocketmine_1_1command_1_1defaults_1_1_version_command.html#a4f59f946974e5a7010dac1cecc6a6302" target="_top" xlink:title="pocketmine\\command\\defaults\\VersionCommand\\execute">
<polygon fill="white" stroke="black" points="316.5,-280.5 316.5,-301.5 585.5,-301.5 585.5,-280.5 316.5,-280.5"/>
<text text-anchor="middle" x="451" y="-288.5" font-family="Helvetica,sans-Serif" font-size="10.00">pocketmine\command\defaults\VersionCommand\execute</text>
</a>
</g>
<!-- Node1&#45;&gt;Node25 -->
<g id="edge48" class="edge"><title>Node1&#45;&gt;Node25</title>
<path fill="none" stroke="midnightblue" d="M132.43,-590.396C145.597,-534.647 190.101,-380.388 292,-311 299.474,-305.911 307.613,-301.791 316.127,-298.478"/>
<polygon fill="midnightblue" stroke="midnightblue" points="128.947,-589.928 130.146,-600.455 135.773,-591.478 128.947,-589.928"/>
</g>
<!-- Node26 -->
<g id="node51" class="node"><title>Node26</title>
<a xlink:href="../../d0/d2f/classpocketmine_1_1command_1_1defaults_1_1_spawnpoint_command.html#ac85d21f18b0e16b0c68d11fffd1abfce" target="_top" xlink:title="pocketmine\\command\\defaults\\SpawnpointCommand\\execute">
<polygon fill="white" stroke="black" points="307.5,-240.5 307.5,-261.5 594.5,-261.5 594.5,-240.5 307.5,-240.5"/>
<text text-anchor="middle" x="451" y="-248.5" font-family="Helvetica,sans-Serif" font-size="10.00">pocketmine\command\defaults\SpawnpointCommand\execute</text>
</a>
</g>
<!-- Node1&#45;&gt;Node26 -->
<g id="edge50" class="edge"><title>Node1&#45;&gt;Node26</title>
<path fill="none" stroke="midnightblue" d="M131.094,-590.173C141.321,-529.398 180.017,-351.496 292,-271 296.97,-267.427 302.26,-264.321 307.778,-261.628"/>
<polygon fill="midnightblue" stroke="midnightblue" points="127.581,-589.98 129.459,-600.407 134.493,-591.084 127.581,-589.98"/>
</g>
<!-- Node27 -->
<g id="node53" class="node"><title>Node27</title>
<a xlink:href="../../d8/d3e/classpocketmine_1_1command_1_1defaults_1_1_give_command.html#ae534bc7f08639dd58e1c4352bc0a4690" target="_top" xlink:title="pocketmine\\command\\defaults\\GiveCommand\\execute">
<polygon fill="white" stroke="black" points="323,-200.5 323,-221.5 579,-221.5 579,-200.5 323,-200.5"/>
<text text-anchor="middle" x="451" y="-208.5" font-family="Helvetica,sans-Serif" font-size="10.00">pocketmine\command\defaults\GiveCommand\execute</text>
</a>
</g>
<!-- Node1&#45;&gt;Node27 -->
<g id="edge52" class="edge"><title>Node1&#45;&gt;Node27</title>
<path fill="none" stroke="midnightblue" d="M129.998,-589.967C137.441,-524.428 169.786,-322.803 292,-231 301.232,-224.066 311.649,-218.854 322.624,-214.988"/>
<polygon fill="midnightblue" stroke="midnightblue" points="126.482,-589.935 128.912,-600.248 133.443,-590.67 126.482,-589.935"/>
</g>
<!-- Node28 -->
<g id="node55" class="node"><title>Node28</title>
<a xlink:href="../../d7/de4/classpocketmine_1_1command_1_1defaults_1_1_gamemode_command.html#ab9bc857fdbb0e8affc63127db3608d15" target="_top" xlink:title="pocketmine\\command\\defaults\\GamemodeCommand\\execute">
<polygon fill="white" stroke="black" points="308,-160.5 308,-181.5 594,-181.5 594,-160.5 308,-160.5"/>
<text text-anchor="middle" x="451" y="-168.5" font-family="Helvetica,sans-Serif" font-size="10.00">pocketmine\command\defaults\GamemodeCommand\execute</text>
</a>
</g>
<!-- Node1&#45;&gt;Node28 -->
<g id="edge54" class="edge"><title>Node1&#45;&gt;Node28</title>
<path fill="none" stroke="midnightblue" d="M129.054,-590.119C133.791,-520.433 159.216,-294.444 292,-191 296.938,-187.153 302.237,-183.828 307.794,-180.962"/>
<polygon fill="midnightblue" stroke="midnightblue" points="125.551,-590.063 128.44,-600.256 132.538,-590.486 125.551,-590.063"/>
</g>
<!-- Node29 -->
<g id="node57" class="node"><title>Node29</title>
<a xlink:href="../../da/d3a/classpocketmine_1_1command_1_1defaults_1_1_help_command.html#ac5ab34b69ac2d49775598b82200a3edc" target="_top" xlink:title="pocketmine\\command\\defaults\\HelpCommand\\execute">
<polygon fill="white" stroke="black" points="323,-120.5 323,-141.5 579,-141.5 579,-120.5 323,-120.5"/>
<text text-anchor="middle" x="451" y="-128.5" font-family="Helvetica,sans-Serif" font-size="10.00">pocketmine\command\defaults\HelpCommand\execute</text>
</a>
</g>
<!-- Node1&#45;&gt;Node29 -->
<g id="edge56" class="edge"><title>Node1&#45;&gt;Node29</title>
<path fill="none" stroke="midnightblue" d="M132.353,-590.43C150.042,-508.837 219.083,-209.571 292,-151 301.218,-143.595 311.758,-138.098 322.927,-134.078"/>
<polygon fill="midnightblue" stroke="midnightblue" points="128.878,-589.939 130.202,-600.451 135.723,-591.408 128.878,-589.939"/>
</g>
<!-- Node30 -->
<g id="node59" class="node"><title>Node30</title>
<a xlink:href="../../d3/d02/classpocketmine_1_1command_1_1defaults_1_1_teleport_command.html#ae22cb93e0624b0a76caa8d2dc36f32ed" target="_top" xlink:title="pocketmine\\command\\defaults\\TeleportCommand\\execute">
<polygon fill="white" stroke="black" points="315.5,-80.5 315.5,-101.5 586.5,-101.5 586.5,-80.5 315.5,-80.5"/>
<text text-anchor="middle" x="451" y="-88.5" font-family="Helvetica,sans-Serif" font-size="10.00">pocketmine\command\defaults\TeleportCommand\execute</text>
</a>
</g>
<!-- Node1&#45;&gt;Node30 -->
<g id="edge58" class="edge"><title>Node1&#45;&gt;Node30</title>
<path fill="none" stroke="midnightblue" d="M131.763,-590.334C147.868,-504.235 213.748,-175.517 292,-111 299.084,-105.159 306.984,-100.492 315.371,-96.7932"/>
<polygon fill="midnightblue" stroke="midnightblue" points="128.275,-589.948 129.898,-600.418 135.158,-591.221 128.275,-589.948"/>
</g>
<!-- Node31 -->
<g id="node61" class="node"><title>Node31</title>
<a xlink:href="../../d7/d63/classpocketmine_1_1command_1_1_plugin_command.html#a906768fa3429c833e3fc910c394d3426" target="_top" xlink:title="pocketmine\\command\\PluginCommand\\execute">
<polygon fill="white" stroke="black" points="338.5,-40.5 338.5,-61.5 563.5,-61.5 563.5,-40.5 338.5,-40.5"/>
<text text-anchor="middle" x="451" y="-48.5" font-family="Helvetica,sans-Serif" font-size="10.00">pocketmine\command\PluginCommand\execute</text>
</a>
</g>
<!-- Node1&#45;&gt;Node31 -->
<g id="edge60" class="edge"><title>Node1&#45;&gt;Node31</title>
<path fill="none" stroke="midnightblue" d="M131.222,-590.444C145.776,-500.333 208.316,-141.563 292,-71 305.187,-59.8805 321.313,-52.9739 338.18,-48.8918"/>
<polygon fill="midnightblue" stroke="midnightblue" points="127.739,-590.062 129.62,-600.489 134.652,-591.165 127.739,-590.062"/>
</g>
<!-- Node32 -->
<g id="node63" class="node"><title>Node32</title>
<a xlink:href="../../d6/df1/classpocketmine_1_1command_1_1_command.html#a26a56d9c918a77a565e9591ed0386928" target="_top" xlink:title="pocketmine\\command\\Command\\testPermission">
<polygon fill="white" stroke="black" points="336.5,-0.5 336.5,-21.5 565.5,-21.5 565.5,-0.5 336.5,-0.5"/>
<text text-anchor="middle" x="451" y="-8.5" font-family="Helvetica,sans-Serif" font-size="10.00">pocketmine\command\Command\testPermission</text>
</a>
</g>
<!-- Node1&#45;&gt;Node32 -->
<g id="edge62" class="edge"><title>Node1&#45;&gt;Node32</title>
<path fill="none" stroke="midnightblue" d="M130.814,-590.142C144.022,-495.474 202.984,-107.54 292,-31 304.657,-20.1166 320.116,-13.2362 336.367,-9.08022"/>
<polygon fill="midnightblue" stroke="midnightblue" points="127.327,-589.809 129.431,-600.192 134.262,-590.763 127.327,-589.809"/>
</g>
</g>
</svg>
        <g id="navigator" transform="translate(0 0)" fill="#404254">
                <rect fill="#f2f5e9" fill-opacity="0.5" stroke="#606060" stroke-width=".5" x="0" y="0" width="60" height="60"/>
                <use id="zoomplus" xlink:href="#zoomPlus" x="17" y="9" onmousedown="handleZoom(evt,'in')"/>
                <use id="zoomminus" xlink:href="#zoomMin" x="42" y="9" onmousedown="handleZoom(evt,'out')"/>
                <use id="reset" xlink:href="#resetDef" x="30" y="36" onmousedown="handleReset()"/>
                <g id="arrowUp" xlink:href="#dirArrow" transform="translate(30 24)" onmousedown="handlePan(0,-1)">
                  <use xlink:href="#rim" fill="#404040">
                        <set attributeName="fill" to="#808080" begin="arrowUp.mouseover" end="arrowUp.mouseout"/>
                  </use>
                  <path fill="none" stroke="white" stroke-width="1.5" d="M0,-3.0v7 M-2.5,-0.5L0,-3.0L2.5,-0.5"/>
                </g>
                <g id="arrowRight" xlink:href="#dirArrow" transform="rotate(90) translate(36 -43)" onmousedown="handlePan(1,0)">
                  <use xlink:href="#rim" fill="#404040">
                        <set attributeName="fill" to="#808080" begin="arrowRight.mouseover" end="arrowRight.mouseout"/>
                  </use>
                  <path fill="none" stroke="white" stroke-width="1.5" d="M0,-3.0v7 M-2.5,-0.5L0,-3.0L2.5,-0.5"/>
                </g>
                <g id="arrowDown" xlink:href="#dirArrow" transform="rotate(180) translate(-30 -48)" onmousedown="handlePan(0,1)">
                  <use xlink:href="#rim" fill="#404040">
                        <set attributeName="fill" to="#808080" begin="arrowDown.mouseover" end="arrowDown.mouseout"/>
                  </use>
                  <path fill="none" stroke="white" stroke-width="1.5" d="M0,-3.0v7 M-2.5,-0.5L0,-3.0L2.5,-0.5"/>
                </g>
                <g id="arrowLeft" xlink:href="#dirArrow" transform="rotate(270) translate(-36 17)" onmousedown="handlePan(-1,0)">
                  <use xlink:href="#rim" fill="#404040">
                        <set attributeName="fill" to="#808080" begin="arrowLeft.mouseover" end="arrowLeft.mouseout"/>
                  </use>
                  <path fill="none" stroke="white" stroke-width="1.5" d="M0,-3.0v7 M-2.5,-0.5L0,-3.0L2.5,-0.5"/>
                </g>
        </g>
</svg>
