<?xml version="1.0" encoding="UTF-8" standalone="no"?>
<!DOCTYPE svg PUBLIC "-//W3C//DTD SVG 1.1//EN"
 "http://www.w3.org/Graphics/SVG/1.1/DTD/svg11.dtd">
<!-- Generated by graphviz version 2.26.3 (20100126.1600)
 -->
<!-- Title: Thread\start Pages: 1 -->
<svg width="256pt" height="94pt"
 viewBox="0.00 0.00 256.00 94.00" xmlns="http://www.w3.org/2000/svg" xmlns:xlink="http://www.w3.org/1999/xlink">
<g id="graph1" class="graph" transform="scale(1 1) rotate(0) translate(4 90)">
<title>Thread\start</title>
<polygon fill="white" stroke="white" points="-4,5 -4,-90 253,-90 253,5 -4,5"/>
<!-- Node1 -->
<g id="node1" class="node"><title>Node1</title>
<polygon fill="#bfbfbf" stroke="black" points="0.5,-32.5 0.5,-53.5 69.5,-53.5 69.5,-32.5 0.5,-32.5"/>
<text text-anchor="middle" x="35" y="-40.5" font-family="Helvetica,sans-Serif" font-size="10.00">Thread\start</text>
</g>
<!-- Node2 -->
<g id="node3" class="node"><title>Node2</title>
<a xlink:href="../../d1/d8d/classraklib_1_1server_1_1_rak_lib_server.html#a30a90e040b38f37f43f1db81050f3a19" target="_top" xlink:title="raklib\\server\\RakLibServer\l\\__construct">
<polygon fill="white" stroke="black" points="111,-52 111,-86 243,-86 243,-52 111,-52"/>
<text text-anchor="start" x="119" y="-73" font-family="Helvetica,sans-Serif" font-size="10.00">raklib\server\RakLibServer</text>
<text text-anchor="middle" x="177" y="-60" font-family="Helvetica,sans-Serif" font-size="10.00">\__construct</text>
</a>
</g>
<!-- Node1&#45;&gt;Node2 -->
<g id="edge2" class="edge"><title>Node1&#45;&gt;Node2</title>
<path fill="none" stroke="midnightblue" d="M79.7577,-51.1951C89.6883,-53.0133 100.416,-54.9776 110.995,-56.9146"/>
<polygon fill="midnightblue" stroke="midnightblue" points="80.204,-47.7187 69.7371,-49.3603 78.9432,-54.6042 80.204,-47.7187"/>
</g>
<!-- Node3 -->
<g id="node5" class="node"><title>Node3</title>
<a xlink:href="../../d9/d27/classpocketmine_1_1utils_1_1_main_logger.html#a25c4e4f88074f82462517f746bbd7470" target="_top" xlink:title="pocketmine\\utils\\MainLogger\l\\__construct">
<polygon fill="white" stroke="black" points="106.5,-0 106.5,-34 247.5,-34 247.5,-0 106.5,-0"/>
<text text-anchor="start" x="114.5" y="-21" font-family="Helvetica,sans-Serif" font-size="10.00">pocketmine\utils\MainLogger</text>
<text text-anchor="middle" x="177" y="-8" font-family="Helvetica,sans-Serif" font-size="10.00">\__construct</text>
</a>
</g>
<!-- Node1&#45;&gt;Node3 -->
<g id="edge4" class="edge"><title>Node1&#45;&gt;Node3</title>
<path fill="none" stroke="midnightblue" d="M79.7907,-34.7989C88.3033,-33.2402 97.4008,-31.5745 106.488,-29.9107"/>
<polygon fill="midnightblue" stroke="midnightblue" points="78.9432,-31.3958 69.7371,-36.6397 80.204,-38.2813 78.9432,-31.3958"/>
</g>
</g>
</svg>
