<?xml version="1.0" encoding="UTF-8" standalone="no"?>
<!DOCTYPE svg PUBLIC "-//W3C//DTD SVG 1.1//EN"
 "http://www.w3.org/Graphics/SVG/1.1/DTD/svg11.dtd">
<!-- Generated by graphviz version 2.26.3 (20100126.1600)
 -->
<!-- Title: pocketmine\inventory\CraftingManager\registerShapelessRecipe Pages: 1 -->
<svg width="376pt" height="56pt"
 viewBox="0.00 0.00 376.00 56.00" xmlns="http://www.w3.org/2000/svg" xmlns:xlink="http://www.w3.org/1999/xlink">
<g id="graph1" class="graph" transform="scale(1 1) rotate(0) translate(4 52)">
<title>pocketmine\inventory\CraftingManager\registerShapelessRecipe</title>
<polygon fill="white" stroke="white" points="-4,5 -4,-52 373,-52 373,5 -4,5"/>
<!-- Node1 -->
<g id="node1" class="node"><title>Node1</title>
<polygon fill="#bfbfbf" stroke="black" points="0.5,-0.5 0.5,-47.5 173.5,-47.5 173.5,-0.5 0.5,-0.5"/>
<text text-anchor="start" x="8.5" y="-34.5" font-family="Helvetica,sans-Serif" font-size="10.00">pocketmine\inventory</text>
<text text-anchor="start" x="8.5" y="-21.5" font-family="Helvetica,sans-Serif" font-size="10.00">\CraftingManager\registerShapeless</text>
<text text-anchor="middle" x="87" y="-8.5" font-family="Helvetica,sans-Serif" font-size="10.00">Recipe</text>
</g>
<!-- Node2 -->
<g id="node3" class="node"><title>Node2</title>
<a xlink:href="../../d3/d9f/classpocketmine_1_1inventory_1_1_crafting_manager.html#acf24041256484327762a81dd2826dca5" target="_top" xlink:title="pocketmine\\inventory\l\\CraftingManager\\registerRecipe">
<polygon fill="white" stroke="black" points="210,-7 210,-41 368,-41 368,-7 210,-7"/>
<text text-anchor="start" x="218" y="-28" font-family="Helvetica,sans-Serif" font-size="10.00">pocketmine\inventory</text>
<text text-anchor="middle" x="289" y="-15" font-family="Helvetica,sans-Serif" font-size="10.00">\CraftingManager\registerRecipe</text>
</a>
</g>
<!-- Node1&#45;&gt;Node2 -->
<g id="edge2" class="edge"><title>Node1&#45;&gt;Node2</title>
<path fill="none" stroke="midnightblue" d="M183.806,-24C192.577,-24 201.39,-24 209.98,-24"/>
<polygon fill="midnightblue" stroke="midnightblue" points="183.545,-20.5001 173.545,-24 183.545,-27.5001 183.545,-20.5001"/>
</g>
</g>
</svg>
