<?xml version="1.0" encoding="UTF-8" standalone="no"?>
<!DOCTYPE svg PUBLIC "-//W3C//DTD SVG 1.1//EN"
 "http://www.w3.org/Graphics/SVG/1.1/DTD/svg11.dtd">
<!-- Generated by graphviz version 2.36.0 (20140111.2315)
 -->
<!-- Title: pocketmine\inventory\CraftingManager\registerShapedRecipe Pages: 1 -->
<svg width="390pt" height="48pt"
 viewBox="0.00 0.00 390.00 48.00" xmlns="http://www.w3.org/2000/svg" xmlns:xlink="http://www.w3.org/1999/xlink">
<g id="graph0" class="graph" transform="scale(1 1) rotate(0) translate(4 44)">
<title>pocketmine\inventory\CraftingManager\registerShapedRecipe</title>
<polygon fill="white" stroke="none" points="-4,4 -4,-44 386,-44 386,4 -4,4"/>
<!-- Node1 -->
<g id="node1" class="node"><title>Node1</title>
<polygon fill="#bfbfbf" stroke="black" points="0,0.5 0,-40.5 176,-40.5 176,0.5 0,0.5"/>
<text text-anchor="start" x="8" y="-28.5" font-family="Helvetica,sans-Serif" font-size="10.00">pocketmine\inventory</text>
<text text-anchor="start" x="8" y="-17.5" font-family="Helvetica,sans-Serif" font-size="10.00">\CraftingManager\registerShaped</text>
<text text-anchor="middle" x="88" y="-6.5" font-family="Helvetica,sans-Serif" font-size="10.00">Recipe</text>
</g>
<!-- Node2 -->
<g id="node2" class="node"><title>Node2</title>
<g id="a_node2"><a xlink:href="../../d3/d9f/classpocketmine_1_1inventory_1_1_crafting_manager.html#acf24041256484327762a81dd2826dca5" target="_top" xlink:title="pocketmine\\inventory\l\\CraftingManager\\registerRecipe">
<polygon fill="white" stroke="black" points="212,-5 212,-35 382,-35 382,-5 212,-5"/>
<text text-anchor="start" x="220" y="-23" font-family="Helvetica,sans-Serif" font-size="10.00">pocketmine\inventory</text>
<text text-anchor="middle" x="297" y="-12" font-family="Helvetica,sans-Serif" font-size="10.00">\CraftingManager\registerRecipe</text>
</a>
</g>
</g>
<!-- Node1&#45;&gt;Node2 -->
<g id="edge1" class="edge"><title>Node1&#45;&gt;Node2</title>
<path fill="none" stroke="midnightblue" d="M186.217,-20C194.796,-20 203.433,-20 211.89,-20"/>
<polygon fill="midnightblue" stroke="midnightblue" points="186.187,-16.5001 176.187,-20 186.187,-23.5001 186.187,-16.5001"/>
</g>
</g>
</svg>
