<?xml version="1.0" encoding="UTF-8" standalone="no"?>
<!DOCTYPE svg PUBLIC "-//W3C//DTD SVG 1.1//EN"
 "http://www.w3.org/Graphics/SVG/1.1/DTD/svg11.dtd">
<!-- Generated by graphviz version 2.36.0 (20140111.2315)
 -->
<!-- Title: pocketmine\inventory\CraftingManager\registerShapelessRecipe Pages: 1 -->
<svg width="416pt" height="87pt"
 viewBox="0.00 0.00 416.00 87.00" xmlns="http://www.w3.org/2000/svg" xmlns:xlink="http://www.w3.org/1999/xlink">
<g id="graph0" class="graph" transform="scale(1 1) rotate(0) translate(4 83)">
<title>pocketmine\inventory\CraftingManager\registerShapelessRecipe</title>
<polygon fill="white" stroke="none" points="-4,4 -4,-83 412,-83 412,4 -4,4"/>
<!-- Node1 -->
<g id="node1" class="node"><title>Node1</title>
<polygon fill="#bfbfbf" stroke="black" points="0,-18.5 0,-59.5 188,-59.5 188,-18.5 0,-18.5"/>
<text text-anchor="start" x="8" y="-47.5" font-family="Helvetica,sans-Serif" font-size="10.00">pocketmine\inventory</text>
<text text-anchor="start" x="8" y="-36.5" font-family="Helvetica,sans-Serif" font-size="10.00">\CraftingManager\registerShapeless</text>
<text text-anchor="middle" x="94" y="-25.5" font-family="Helvetica,sans-Serif" font-size="10.00">Recipe</text>
</g>
<!-- Node2 -->
<g id="node2" class="node"><title>Node2</title>
<g id="a_node2"><a xlink:href="../../d6/d74/classpocketmine_1_1inventory_1_1_shapeless_recipe.html#a4ce98da29ce6698ccaf130599660d66f" target="_top" xlink:title="pocketmine\\inventory\l\\ShapelessRecipe\\getIngredientList">
<polygon fill="white" stroke="black" points="224.5,-49 224.5,-79 407.5,-79 407.5,-49 224.5,-49"/>
<text text-anchor="start" x="232.5" y="-67" font-family="Helvetica,sans-Serif" font-size="10.00">pocketmine\inventory</text>
<text text-anchor="middle" x="316" y="-56" font-family="Helvetica,sans-Serif" font-size="10.00">\ShapelessRecipe\getIngredientList</text>
</a>
</g>
</g>
<!-- Node1&#45;&gt;Node2 -->
<g id="edge1" class="edge"><title>Node1&#45;&gt;Node2</title>
<path fill="none" stroke="midnightblue" d="M188.3,-49.6023C196.886,-50.5779 205.61,-51.5693 214.258,-52.5521"/>
<polygon fill="midnightblue" stroke="midnightblue" points="214.03,-56.0486 224.362,-53.7002 214.821,-49.0934 214.03,-56.0486"/>
</g>
<!-- Node3 -->
<g id="node3" class="node"><title>Node3</title>
<g id="a_node3"><a xlink:href="../../d6/d74/classpocketmine_1_1inventory_1_1_shapeless_recipe.html#a0761d21cb967948e1a2c7a7f996e6463" target="_top" xlink:title="pocketmine\\inventory\l\\ShapelessRecipe\\getResult">
<polygon fill="white" stroke="black" points="242.5,-0 242.5,-30 389.5,-30 389.5,-0 242.5,-0"/>
<text text-anchor="start" x="250.5" y="-18" font-family="Helvetica,sans-Serif" font-size="10.00">pocketmine\inventory</text>
<text text-anchor="middle" x="316" y="-7" font-family="Helvetica,sans-Serif" font-size="10.00">\ShapelessRecipe\getResult</text>
</a>
</g>
</g>
<!-- Node1&#45;&gt;Node3 -->
<g id="edge2" class="edge"><title>Node1&#45;&gt;Node3</title>
<path fill="none" stroke="midnightblue" d="M188.3,-28.8218C202.812,-27.2386 217.722,-25.6121 231.987,-24.056"/>
<polygon fill="midnightblue" stroke="midnightblue" points="232.683,-27.5009 242.244,-22.937 231.924,-20.5422 232.683,-27.5009"/>
</g>
</g>
</svg>
