<?xml version="1.0" encoding="UTF-8" standalone="no"?>
<!DOCTYPE svg PUBLIC "-//W3C//DTD SVG 1.1//EN"
 "http://www.w3.org/Graphics/SVG/1.1/DTD/svg11.dtd">
<!-- Generated by graphviz version 2.26.3 (20100126.1600)
 -->
<!-- Title: pocketmine\inventory\CraftingManager\registerFurnaceRecipe Pages: 1 -->
<svg width="330pt" height="56pt"
 viewBox="0.00 0.00 330.00 56.00" xmlns="http://www.w3.org/2000/svg" xmlns:xlink="http://www.w3.org/1999/xlink">
<g id="graph1" class="graph" transform="scale(1 1) rotate(0) translate(4 52)">
<title>pocketmine\inventory\CraftingManager\registerFurnaceRecipe</title>
<polygon fill="white" stroke="white" points="-4,5 -4,-52 327,-52 327,5 -4,5"/>
<!-- Node1 -->
<g id="node1" class="node"><title>Node1</title>
<polygon fill="#bfbfbf" stroke="black" points="0,-0.5 0,-47.5 162,-47.5 162,-0.5 0,-0.5"/>
<text text-anchor="start" x="8" y="-34.5" font-family="Helvetica,sans-Serif" font-size="10.00">pocketmine\inventory</text>
<text text-anchor="start" x="8" y="-21.5" font-family="Helvetica,sans-Serif" font-size="10.00">\CraftingManager\registerFurnace</text>
<text text-anchor="middle" x="81" y="-8.5" font-family="Helvetica,sans-Serif" font-size="10.00">Recipe</text>
</g>
<!-- Node2 -->
<g id="node3" class="node"><title>Node2</title>
<a xlink:href="../../db/db2/classpocketmine_1_1inventory_1_1_furnace_recipe.html#a9a843b094fbc18003707dfad17537124" target="_top" xlink:title="pocketmine\\inventory\l\\FurnaceRecipe\\getInput">
<polygon fill="white" stroke="black" points="198,-7 198,-41 322,-41 322,-7 198,-7"/>
<text text-anchor="start" x="206" y="-28" font-family="Helvetica,sans-Serif" font-size="10.00">pocketmine\inventory</text>
<text text-anchor="middle" x="260" y="-15" font-family="Helvetica,sans-Serif" font-size="10.00">\FurnaceRecipe\getInput</text>
</a>
</g>
<!-- Node1&#45;&gt;Node2 -->
<g id="edge2" class="edge"><title>Node1&#45;&gt;Node2</title>
<path fill="none" stroke="midnightblue" d="M162.12,-24C170.67,-24 179.322,-24 187.761,-24"/>
<polygon fill="midnightblue" stroke="midnightblue" points="187.928,-27.5001 197.928,-24 187.928,-20.5001 187.928,-27.5001"/>
</g>
</g>
</svg>
