<?xml version="1.0" encoding="UTF-8" standalone="no"?>
<!DOCTYPE svg PUBLIC "-//W3C//DTD SVG 1.1//EN"
 "http://www.w3.org/Graphics/SVG/1.1/DTD/svg11.dtd">
<!-- Generated by graphviz version 2.36.0 (20140111.2315)
 -->
<!-- Title: pocketmine\inventory\CraftingManager\registerRecipe Pages: 1 -->
<!--zoomable 188 -->
<svg id="main" version="1.1" xmlns="http://www.w3.org/2000/svg" xmlns:xlink="http://www.w3.org/1999/xlink" xml:space="preserve" onload="init(evt)">
<style type="text/css"><![CDATA[
.edge:hover path { stroke: red; }
.edge:hover polygon { stroke: red; fill: red; }
]]></style>
<script type="text/javascript"><![CDATA[
var edges = document.getElementsByTagName('g');
if (edges && edges.length) {
  for (var i=0;i<edges.length;i++) {
    if (edges[i].id.substr(0,4)=='edge') {
      edges[i].setAttribute('class','edge');
    }
  }
}
]]></script>
        <defs>
                <circle id="rim" cx="0" cy="0" r="7"/>
                <circle id="rim2" cx="0" cy="0" r="3.5"/>
                <g id="zoomPlus">
                        <use xlink:href="#rim" fill="#404040">
                                <set attributeName="fill" to="#808080" begin="zoomplus.mouseover" end="zoomplus.mouseout"/>
                        </use>
                        <path d="M-4,0h8M0,-4v8" fill="none" stroke="white" stroke-width="1.5" pointer-events="none"/>
                </g>
                <g id="zoomMin">
                        <use xlink:href="#rim" fill="#404040">
                                <set attributeName="fill" to="#808080" begin="zoomminus.mouseover" end="zoomminus.mouseout"/>
                        </use>
                        <path d="M-4,0h8" fill="none" stroke="white" stroke-width="1.5" pointer-events="none"/>
                </g>
                <g id="dirArrow">
                        <path fill="none" stroke="white" stroke-width="1.5" d="M0,-3.0v7 M-2.5,-0.5L0,-3.0L2.5,-0.5"/>
                </g>
               <g id="resetDef">
                       <use xlink:href="#rim2" fill="#404040">
                               <set attributeName="fill" to="#808080" begin="reset.mouseover" end="reset.mouseout"/>
                       </use>
               </g>
        </defs>

<script type="text/javascript">
var viewWidth = 622;
var viewHeight = 188;
var sectionId = 'dynsection-4';
</script>
<script xlink:href="../../svgpan.js"/>
<svg id="graph" class="graph">
<g id="viewport">
<title>pocketmine\inventory\CraftingManager\registerRecipe</title>
<polygon fill="white" stroke="none" points="-4,4 -4,-184 618,-184 618,4 -4,4"/>
<!-- Node1 -->
<g id="node1" class="node"><title>Node1</title>
<polygon fill="#bfbfbf" stroke="black" points="0,-84 0,-114 170,-114 170,-84 0,-84"/>
<text text-anchor="start" x="8" y="-102" font-family="Helvetica,sans-Serif" font-size="10.00">pocketmine\inventory</text>
<text text-anchor="middle" x="85" y="-91" font-family="Helvetica,sans-Serif" font-size="10.00">\CraftingManager\registerRecipe</text>
</g>
<!-- Node2 -->
<g id="node2" class="node"><title>Node2</title>
<g id="a_node2"><a xlink:href="../../d3/d9f/classpocketmine_1_1inventory_1_1_crafting_manager.html#af87cd02a84b7610b1d680a7fb9d8229a" target="_top" xlink:title="pocketmine\\inventory\l\\CraftingManager\\registerFurnace\lRecipe">
<polygon fill="white" stroke="black" points="212,-138.5 212,-179.5 388,-179.5 388,-138.5 212,-138.5"/>
<text text-anchor="start" x="220" y="-167.5" font-family="Helvetica,sans-Serif" font-size="10.00">pocketmine\inventory</text>
<text text-anchor="start" x="220" y="-156.5" font-family="Helvetica,sans-Serif" font-size="10.00">\CraftingManager\registerFurnace</text>
<text text-anchor="middle" x="300" y="-145.5" font-family="Helvetica,sans-Serif" font-size="10.00">Recipe</text>
</a>
</g>
</g>
<!-- Node1&#45;&gt;Node2 -->
<g id="edge1" class="edge"><title>Node1&#45;&gt;Node2</title>
<path fill="none" stroke="midnightblue" d="M139.474,-114.063C162.749,-120.619 190.56,-128.454 216.394,-135.731"/>
<polygon fill="midnightblue" stroke="midnightblue" points="215.61,-139.146 226.185,-138.489 217.508,-132.408 215.61,-139.146"/>
</g>
<!-- Node4 -->
<g id="node4" class="node"><title>Node4</title>
<g id="a_node4"><a xlink:href="../../d3/d9f/classpocketmine_1_1inventory_1_1_crafting_manager.html#ab3cec4a792e29c221a33fe91b8e9ba24" target="_top" xlink:title="pocketmine\\inventory\l\\CraftingManager\\registerShaped\lRecipe">
<polygon fill="white" stroke="black" points="212,-78.5 212,-119.5 388,-119.5 388,-78.5 212,-78.5"/>
<text text-anchor="start" x="220" y="-107.5" font-family="Helvetica,sans-Serif" font-size="10.00">pocketmine\inventory</text>
<text text-anchor="start" x="220" y="-96.5" font-family="Helvetica,sans-Serif" font-size="10.00">\CraftingManager\registerShaped</text>
<text text-anchor="middle" x="300" y="-85.5" font-family="Helvetica,sans-Serif" font-size="10.00">Recipe</text>
</a>
</g>
</g>
<!-- Node1&#45;&gt;Node4 -->
<g id="edge3" class="edge"><title>Node1&#45;&gt;Node4</title>
<path fill="none" stroke="midnightblue" d="M170.183,-99C180.582,-99 191.277,-99 201.849,-99"/>
<polygon fill="midnightblue" stroke="midnightblue" points="201.933,-102.5 211.933,-99 201.933,-95.5001 201.933,-102.5"/>
</g>
<!-- Node5 -->
<g id="node5" class="node"><title>Node5</title>
<g id="a_node5"><a xlink:href="../../d3/d9f/classpocketmine_1_1inventory_1_1_crafting_manager.html#a884706392d061eeed0ac39161e0993a9" target="_top" xlink:title="pocketmine\\inventory\l\\CraftingManager\\registerShapeless\lRecipe">
<polygon fill="white" stroke="black" points="206,-18.5 206,-59.5 394,-59.5 394,-18.5 206,-18.5"/>
<text text-anchor="start" x="214" y="-47.5" font-family="Helvetica,sans-Serif" font-size="10.00">pocketmine\inventory</text>
<text text-anchor="start" x="214" y="-36.5" font-family="Helvetica,sans-Serif" font-size="10.00">\CraftingManager\registerShapeless</text>
<text text-anchor="middle" x="300" y="-25.5" font-family="Helvetica,sans-Serif" font-size="10.00">Recipe</text>
</a>
</g>
</g>
<!-- Node1&#45;&gt;Node5 -->
<g id="edge4" class="edge"><title>Node1&#45;&gt;Node5</title>
<path fill="none" stroke="midnightblue" d="M139.474,-83.9369C162.749,-77.3806 190.56,-69.5464 216.394,-62.2693"/>
<polygon fill="midnightblue" stroke="midnightblue" points="217.508,-65.5918 226.185,-59.5114 215.61,-58.854 217.508,-65.5918"/>
</g>
<!-- Node3 -->
<g id="node3" class="node"><title>Node3</title>
<g id="a_node3"><a xlink:href="../../db/db2/classpocketmine_1_1inventory_1_1_furnace_recipe.html#a9a843b094fbc18003707dfad17537124" target="_top" xlink:title="pocketmine\\inventory\l\\FurnaceRecipe\\getInput">
<polygon fill="white" stroke="black" points="456.5,-144 456.5,-174 587.5,-174 587.5,-144 456.5,-144"/>
<text text-anchor="start" x="464.5" y="-162" font-family="Helvetica,sans-Serif" font-size="10.00">pocketmine\inventory</text>
<text text-anchor="middle" x="522" y="-151" font-family="Helvetica,sans-Serif" font-size="10.00">\FurnaceRecipe\getInput</text>
</a>
</g>
</g>
<!-- Node2&#45;&gt;Node3 -->
<g id="edge2" class="edge"><title>Node2&#45;&gt;Node3</title>
<path fill="none" stroke="midnightblue" d="M388.266,-159C407.397,-159 427.487,-159 446.083,-159"/>
<polygon fill="midnightblue" stroke="midnightblue" points="446.245,-162.5 456.245,-159 446.245,-155.5 446.245,-162.5"/>
</g>
<!-- Node6 -->
<g id="node6" class="node"><title>Node6</title>
<g id="a_node6"><a xlink:href="../../d6/d74/classpocketmine_1_1inventory_1_1_shapeless_recipe.html#a0761d21cb967948e1a2c7a7f996e6463" target="_top" xlink:title="pocketmine\\inventory\l\\ShapelessRecipe\\getResult">
<polygon fill="white" stroke="black" points="448.5,-49 448.5,-79 595.5,-79 595.5,-49 448.5,-49"/>
<text text-anchor="start" x="456.5" y="-67" font-family="Helvetica,sans-Serif" font-size="10.00">pocketmine\inventory</text>
<text text-anchor="middle" x="522" y="-56" font-family="Helvetica,sans-Serif" font-size="10.00">\ShapelessRecipe\getResult</text>
</a>
</g>
</g>
<!-- Node5&#45;&gt;Node6 -->
<g id="edge5" class="edge"><title>Node5&#45;&gt;Node6</title>
<path fill="none" stroke="midnightblue" d="M394.3,-49.6023C408.812,-51.2514 423.722,-52.9457 437.987,-54.5667"/>
<polygon fill="midnightblue" stroke="midnightblue" points="437.913,-58.0808 448.244,-55.7323 438.704,-51.1255 437.913,-58.0808"/>
</g>
<!-- Node7 -->
<g id="node7" class="node"><title>Node7</title>
<g id="a_node7"><a xlink:href="../../d6/d74/classpocketmine_1_1inventory_1_1_shapeless_recipe.html#a4ce98da29ce6698ccaf130599660d66f" target="_top" xlink:title="pocketmine\\inventory\l\\ShapelessRecipe\\getIngredientList">
<polygon fill="white" stroke="black" points="430.5,-0 430.5,-30 613.5,-30 613.5,-0 430.5,-0"/>
<text text-anchor="start" x="438.5" y="-18" font-family="Helvetica,sans-Serif" font-size="10.00">pocketmine\inventory</text>
<text text-anchor="middle" x="522" y="-7" font-family="Helvetica,sans-Serif" font-size="10.00">\ShapelessRecipe\getIngredientList</text>
</a>
</g>
</g>
<!-- Node5&#45;&gt;Node7 -->
<g id="edge6" class="edge"><title>Node5&#45;&gt;Node7</title>
<path fill="none" stroke="midnightblue" d="M394.3,-28.8218C402.886,-27.8852 411.61,-26.9334 420.258,-25.99"/>
<polygon fill="midnightblue" stroke="midnightblue" points="420.8,-29.4517 430.362,-24.8878 420.041,-22.493 420.8,-29.4517"/>
</g>
</g>
</svg>
        <g id="navigator" transform="translate(0 0)" fill="#404254">
                <rect fill="#f2f5e9" fill-opacity="0.5" stroke="#606060" stroke-width=".5" x="0" y="0" width="60" height="60"/>
                <use id="zoomplus" xlink:href="#zoomPlus" x="17" y="9" onmousedown="handleZoom(evt,'in')"/>
                <use id="zoomminus" xlink:href="#zoomMin" x="42" y="9" onmousedown="handleZoom(evt,'out')"/>
                <use id="reset" xlink:href="#resetDef" x="30" y="36" onmousedown="handleReset()"/>
                <g id="arrowUp" xlink:href="#dirArrow" transform="translate(30 24)" onmousedown="handlePan(0,-1)">
                  <use xlink:href="#rim" fill="#404040">
                        <set attributeName="fill" to="#808080" begin="arrowUp.mouseover" end="arrowUp.mouseout"/>
                  </use>
                  <path fill="none" stroke="white" stroke-width="1.5" d="M0,-3.0v7 M-2.5,-0.5L0,-3.0L2.5,-0.5"/>
                </g>
                <g id="arrowRight" xlink:href="#dirArrow" transform="rotate(90) translate(36 -43)" onmousedown="handlePan(1,0)">
                  <use xlink:href="#rim" fill="#404040">
                        <set attributeName="fill" to="#808080" begin="arrowRight.mouseover" end="arrowRight.mouseout"/>
                  </use>
                  <path fill="none" stroke="white" stroke-width="1.5" d="M0,-3.0v7 M-2.5,-0.5L0,-3.0L2.5,-0.5"/>
                </g>
                <g id="arrowDown" xlink:href="#dirArrow" transform="rotate(180) translate(-30 -48)" onmousedown="handlePan(0,1)">
                  <use xlink:href="#rim" fill="#404040">
                        <set attributeName="fill" to="#808080" begin="arrowDown.mouseover" end="arrowDown.mouseout"/>
                  </use>
                  <path fill="none" stroke="white" stroke-width="1.5" d="M0,-3.0v7 M-2.5,-0.5L0,-3.0L2.5,-0.5"/>
                </g>
                <g id="arrowLeft" xlink:href="#dirArrow" transform="rotate(270) translate(-36 17)" onmousedown="handlePan(-1,0)">
                  <use xlink:href="#rim" fill="#404040">
                        <set attributeName="fill" to="#808080" begin="arrowLeft.mouseover" end="arrowLeft.mouseout"/>
                  </use>
                  <path fill="none" stroke="white" stroke-width="1.5" d="M0,-3.0v7 M-2.5,-0.5L0,-3.0L2.5,-0.5"/>
                </g>
        </g>
        <svg viewBox="0 0 15 15" width="100%" height="30px" preserveAspectRatio="xMaxYMin meet">
         <g id="arrow_out" transform="scale(0.3 0.3)">
          <a xlink:href="classpocketmine_1_1inventory_1_1_crafting_manager_acf24041256484327762a81dd2826dca5_cgraph_org.svg" target="_base">
           <rect id="button" ry="5" rx="5" y="6" x="6" height="38" width="38"
                fill="#f2f5e9" fill-opacity="0.5" stroke="#606060" stroke-width="1.0"/>
           <path id="arrow"
             d="M 11.500037,31.436501 C 11.940474,20.09759 22.043105,11.32322 32.158766,21.979434 L 37.068811,17.246167 C 37.068811,17.246167 37.088388,32 37.088388,32 L 22.160133,31.978069 C 22.160133,31.978069 26.997745,27.140456 26.997745,27.140456 C 18.528582,18.264221 13.291696,25.230495 11.500037,31.436501 z"
             style="fill:#404040;"/>
          </a>
         </g>
        </svg>
</svg>
