<?xml version="1.0" encoding="UTF-8" standalone="no"?>
<!DOCTYPE svg PUBLIC "-//W3C//DTD SVG 1.1//EN"
 "http://www.w3.org/Graphics/SVG/1.1/DTD/svg11.dtd">
<!-- Generated by graphviz version 2.36.0 (20140111.2315)
 -->
<!-- Title: pocketmine\event\level\ChunkEvent Pages: 1 -->
<svg width="140pt" height="310pt"
 viewBox="0.00 0.00 140.00 310.00" xmlns="http://www.w3.org/2000/svg" xmlns:xlink="http://www.w3.org/1999/xlink">
<g id="graph0" class="graph" transform="scale(1 1) rotate(0) translate(4 306)">
<title>pocketmine\event\level\ChunkEvent</title>
<polygon fill="white" stroke="none" points="-4,4 -4,-306 136,-306 136,4 -4,4"/>
<!-- Node1 -->
<g id="node1" class="node"><title>Node1</title>
<polygon fill="#bfbfbf" stroke="black" points="2,-0.5 2,-79.5 130,-79.5 130,-0.5 2,-0.5"/>
<text text-anchor="start" x="10" y="-67.5" font-family="Helvetica,sans-Serif" font-size="10.00">pocketmine\event\level</text>
<text text-anchor="middle" x="66" y="-56.5" font-family="Helvetica,sans-Serif" font-size="10.00">\ChunkEvent</text>
<polyline fill="none" stroke="black" points="2,-49.5 130,-49.5 "/>
<text text-anchor="middle" x="66" y="-37.5" font-family="Helvetica,sans-Serif" font-size="10.00"> </text>
<polyline fill="none" stroke="black" points="2,-30.5 130,-30.5 "/>
<text text-anchor="start" x="10" y="-18.5" font-family="Helvetica,sans-Serif" font-size="10.00">+ __construct()</text>
<text text-anchor="start" x="10" y="-7.5" font-family="Helvetica,sans-Serif" font-size="10.00">+ getChunk()</text>
</g>
<!-- Node2 -->
<g id="node2" class="node"><title>Node2</title>
<g id="a_node2"><a xlink:href="../../d5/dbb/classpocketmine_1_1event_1_1level_1_1_level_event.html" target="_top" xlink:title="{pocketmine\\event\\level\l\\LevelEvent\n||+ __construct()\l+ getLevel()\l}">
<polygon fill="white" stroke="black" points="2,-116.5 2,-195.5 130,-195.5 130,-116.5 2,-116.5"/>
<text text-anchor="start" x="10" y="-183.5" font-family="Helvetica,sans-Serif" font-size="10.00">pocketmine\event\level</text>
<text text-anchor="middle" x="66" y="-172.5" font-family="Helvetica,sans-Serif" font-size="10.00">\LevelEvent</text>
<polyline fill="none" stroke="black" points="2,-165.5 130,-165.5 "/>
<text text-anchor="middle" x="66" y="-153.5" font-family="Helvetica,sans-Serif" font-size="10.00"> </text>
<polyline fill="none" stroke="black" points="2,-146.5 130,-146.5 "/>
<text text-anchor="start" x="10" y="-134.5" font-family="Helvetica,sans-Serif" font-size="10.00">+ __construct()</text>
<text text-anchor="start" x="10" y="-123.5" font-family="Helvetica,sans-Serif" font-size="10.00">+ getLevel()</text>
</a>
</g>
</g>
<!-- Node2&#45;&gt;Node1 -->
<g id="edge1" class="edge"><title>Node2&#45;&gt;Node1</title>
<path fill="none" stroke="midnightblue" d="M66,-106.146C66,-97.256 66,-88.0961 66,-79.5555"/>
<polygon fill="none" stroke="midnightblue" points="62.5001,-106.405 66,-116.405 69.5001,-106.405 62.5001,-106.405"/>
</g>
<!-- Node3 -->
<g id="node3" class="node"><title>Node3</title>
<g id="a_node3"><a xlink:href="../../d1/d2f/classpocketmine_1_1event_1_1_event.html" target="_top" xlink:title="{pocketmine\\event\\Event\n|# $eventName\l|+ getEventName()\l+ getHandlers()\l}">
<polygon fill="white" stroke="black" points="-0.5,-233 -0.5,-301 132.5,-301 132.5,-233 -0.5,-233"/>
<text text-anchor="middle" x="66" y="-289" font-family="Helvetica,sans-Serif" font-size="10.00">pocketmine\event\Event</text>
<polyline fill="none" stroke="black" points="-0.5,-282 132.5,-282 "/>
<text text-anchor="start" x="7.5" y="-270" font-family="Helvetica,sans-Serif" font-size="10.00"># $eventName</text>
<polyline fill="none" stroke="black" points="-0.5,-263 132.5,-263 "/>
<text text-anchor="start" x="7.5" y="-251" font-family="Helvetica,sans-Serif" font-size="10.00">+ getEventName()</text>
<text text-anchor="start" x="7.5" y="-240" font-family="Helvetica,sans-Serif" font-size="10.00">+ getHandlers()</text>
</a>
</g>
</g>
<!-- Node3&#45;&gt;Node2 -->
<g id="edge2" class="edge"><title>Node3&#45;&gt;Node2</title>
<path fill="none" stroke="midnightblue" d="M66,-222.575C66,-213.737 66,-204.493 66,-195.827"/>
<polygon fill="none" stroke="midnightblue" points="62.5001,-222.704 66,-232.704 69.5001,-222.704 62.5001,-222.704"/>
</g>
</g>
</svg>
