<?xml version="1.0" encoding="UTF-8" standalone="no"?>
<!DOCTYPE svg PUBLIC "-//W3C//DTD SVG 1.1//EN"
 "http://www.w3.org/Graphics/SVG/1.1/DTD/svg11.dtd">
<!-- Generated by graphviz version 2.26.3 (20100126.1600)
 -->
<!-- Title: pocketmine\network\protocol\PlayerEquipmentPacket Pages: 1 -->
<svg width="170pt" height="558pt"
 viewBox="0.00 0.00 170.00 558.00" xmlns="http://www.w3.org/2000/svg" xmlns:xlink="http://www.w3.org/1999/xlink">
<g id="graph1" class="graph" transform="scale(1 1) rotate(0) translate(4 554)">
<title>pocketmine\network\protocol\PlayerEquipmentPacket</title>
<polygon fill="white" stroke="white" points="-4,5 -4,-554 167,-554 167,5 -4,5"/>
<!-- Node1 -->
<g id="node1" class="node"><title>Node1</title>
<polygon fill="#bfbfbf" stroke="black" points="0,-0.5 0,-141.5 162,-141.5 162,-0.5 0,-0.5"/>
<text text-anchor="start" x="8" y="-128.5" font-family="Helvetica,sans-Serif" font-size="10.00">pocketmine\network</text>
<text text-anchor="middle" x="81" y="-115.5" font-family="Helvetica,sans-Serif" font-size="10.00">\protocol\PlayerEquipmentPacket</text>
<polyline fill="none" stroke="black" points="0,-107.5 162,-107.5 "/>
<text text-anchor="start" x="8" y="-94.5" font-family="Helvetica,sans-Serif" font-size="10.00">+ $eid</text>
<text text-anchor="start" x="8" y="-81.5" font-family="Helvetica,sans-Serif" font-size="10.00">+ $item</text>
<text text-anchor="start" x="8" y="-68.5" font-family="Helvetica,sans-Serif" font-size="10.00">+ $meta</text>
<text text-anchor="start" x="8" y="-55.5" font-family="Helvetica,sans-Serif" font-size="10.00">+ $slot</text>
<polyline fill="none" stroke="black" points="0,-47.5 162,-47.5 "/>
<text text-anchor="start" x="8" y="-34.5" font-family="Helvetica,sans-Serif" font-size="10.00">+ pid()</text>
<text text-anchor="start" x="8" y="-21.5" font-family="Helvetica,sans-Serif" font-size="10.00">+ decode()</text>
<text text-anchor="start" x="8" y="-8.5" font-family="Helvetica,sans-Serif" font-size="10.00">+ encode()</text>
</g>
<!-- Node2 -->
<g id="node2" class="node"><title>Node2</title>
<a xlink:href="../../d0/d90/classpocketmine_1_1network_1_1protocol_1_1_data_packet.html" target="_top" xlink:title="{pocketmine\\network\l\\protocol\\DataPacket\n|+ $buffer\l|+ pid()\l+ encode()\l+ decode()\l+ setBuffer()\l+ getBuffer()\l# reset()\l# get()\l# put()\l# getLong()\l# putLong()\l# getInt()\l# putInt()\l# getShort()\l# putShort()\l# getFloat()\land 14 more...\l}">
<polygon fill="white" stroke="black" points="26.5,-178.5 26.5,-449.5 135.5,-449.5 135.5,-178.5 26.5,-178.5"/>
<text text-anchor="start" x="34.5" y="-436.5" font-family="Helvetica,sans-Serif" font-size="10.00">pocketmine\network</text>
<text text-anchor="middle" x="81" y="-423.5" font-family="Helvetica,sans-Serif" font-size="10.00">\protocol\DataPacket</text>
<polyline fill="none" stroke="black" points="26.5,-415.5 135.5,-415.5 "/>
<text text-anchor="start" x="34.5" y="-402.5" font-family="Helvetica,sans-Serif" font-size="10.00">+ $buffer</text>
<polyline fill="none" stroke="black" points="26.5,-394.5 135.5,-394.5 "/>
<text text-anchor="start" x="34.5" y="-381.5" font-family="Helvetica,sans-Serif" font-size="10.00">+ pid()</text>
<text text-anchor="start" x="34.5" y="-368.5" font-family="Helvetica,sans-Serif" font-size="10.00">+ encode()</text>
<text text-anchor="start" x="34.5" y="-355.5" font-family="Helvetica,sans-Serif" font-size="10.00">+ decode()</text>
<text text-anchor="start" x="34.5" y="-342.5" font-family="Helvetica,sans-Serif" font-size="10.00">+ setBuffer()</text>
<text text-anchor="start" x="34.5" y="-329.5" font-family="Helvetica,sans-Serif" font-size="10.00">+ getBuffer()</text>
<text text-anchor="start" x="34.5" y="-316.5" font-family="Helvetica,sans-Serif" font-size="10.00"># reset()</text>
<text text-anchor="start" x="34.5" y="-303.5" font-family="Helvetica,sans-Serif" font-size="10.00"># get()</text>
<text text-anchor="start" x="34.5" y="-290.5" font-family="Helvetica,sans-Serif" font-size="10.00"># put()</text>
<text text-anchor="start" x="34.5" y="-277.5" font-family="Helvetica,sans-Serif" font-size="10.00"># getLong()</text>
<text text-anchor="start" x="34.5" y="-264.5" font-family="Helvetica,sans-Serif" font-size="10.00"># putLong()</text>
<text text-anchor="start" x="34.5" y="-251.5" font-family="Helvetica,sans-Serif" font-size="10.00"># getInt()</text>
<text text-anchor="start" x="34.5" y="-238.5" font-family="Helvetica,sans-Serif" font-size="10.00"># putInt()</text>
<text text-anchor="start" x="34.5" y="-225.5" font-family="Helvetica,sans-Serif" font-size="10.00"># getShort()</text>
<text text-anchor="start" x="34.5" y="-212.5" font-family="Helvetica,sans-Serif" font-size="10.00"># putShort()</text>
<text text-anchor="start" x="34.5" y="-199.5" font-family="Helvetica,sans-Serif" font-size="10.00"># getFloat()</text>
<text text-anchor="start" x="34.5" y="-186.5" font-family="Helvetica,sans-Serif" font-size="10.00">and 14 more...</text>
</a>
</g>
<!-- Node2&#45;&gt;Node1 -->
<g id="edge2" class="edge"><title>Node2&#45;&gt;Node1</title>
<path fill="none" stroke="midnightblue" d="M81,-168.004C81,-158.953 81,-150.092 81,-141.632"/>
<polygon fill="none" stroke="midnightblue" points="77.5001,-168.291 81,-178.291 84.5001,-168.291 77.5001,-168.291"/>
</g>
<!-- Node3 -->
<g id="node4" class="node"><title>Node3</title>
<polygon fill="white" stroke="#bfbfbf" points="53,-486.5 53,-549.5 109,-549.5 109,-486.5 53,-486.5"/>
<text text-anchor="middle" x="81" y="-536.5" font-family="Helvetica,sans-Serif" font-size="10.00">stdClass</text>
<polyline fill="none" stroke="#bfbfbf" points="53,-528.5 109,-528.5 "/>
<text text-anchor="middle" x="81" y="-515.5" font-family="Helvetica,sans-Serif" font-size="10.00"> </text>
<polyline fill="none" stroke="#bfbfbf" points="53,-507.5 109,-507.5 "/>
<text text-anchor="middle" x="81" y="-494.5" font-family="Helvetica,sans-Serif" font-size="10.00"> </text>
</g>
<!-- Node3&#45;&gt;Node2 -->
<g id="edge4" class="edge"><title>Node3&#45;&gt;Node2</title>
<path fill="none" stroke="midnightblue" d="M81,-475.988C81,-467.913 81,-459.06 81,-449.787"/>
<polygon fill="none" stroke="midnightblue" points="77.5001,-476.125 81,-486.125 84.5001,-476.125 77.5001,-476.125"/>
</g>
</g>
</svg>
