<?xml version="1.0" encoding="UTF-8" standalone="no"?>
<!DOCTYPE svg PUBLIC "-//W3C//DTD SVG 1.1//EN"
 "http://www.w3.org/Graphics/SVG/1.1/DTD/svg11.dtd">
<!-- Generated by graphviz version 2.26.3 (20100126.1600)
 -->
<!-- Title: G Pages: 1 -->
<!--zoomable 648 -->
<svg id="main" version="1.1" xmlns="http://www.w3.org/2000/svg" xmlns:xlink="http://www.w3.org/1999/xlink" xml:space="preserve" onload="init(evt)">
        <defs>
                <circle id="rim" cx="0" cy="0" r="7"/>
                <circle id="rim2" cx="0" cy="0" r="3.5"/>
                <g id="zoomPlus">
                        <use xlink:href="#rim" fill="#404040">
                                <set attributeName="fill" to="#808080" begin="zoomplus.mouseover" end="zoomplus.mouseout"/>
                        </use>
                        <path d="M-4,0h8M0,-4v8" fill="none" stroke="white" stroke-width="1.5" pointer-events="none"/>
                </g>
                <g id="zoomMin">
                        <use xlink:href="#rim" fill="#404040">
                                <set attributeName="fill" to="#808080" begin="zoomminus.mouseover" end="zoomminus.mouseout"/>
                        </use>
                        <path d="M-4,0h8" fill="none" stroke="white" stroke-width="1.5" pointer-events="none"/>
                </g>
                <g id="dirArrow">
                        <path fill="none" stroke="white" stroke-width="1.5" d="M0,-3.0v7 M-2.5,-0.5L0,-3.0L2.5,-0.5"/>
                </g>
               <g id="resetDef">
                       <use xlink:href="#rim2" fill="#404040">
                               <set attributeName="fill" to="#808080" begin="reset.mouseover" end="reset.mouseout"/>
                       </use>
               </g>
        </defs>

<script type="text/javascript">
var viewWidth = 348;
var viewHeight = 648;
var sectionId = 'dynsection-0';
</script>
<script xlink:href="../../svgpan.js"/>
<svg id="graph" class="graph">
<g id="viewport">
<title>G</title>
<polygon fill="white" stroke="white" points="-4,5 -4,-644 345,-644 345,5 -4,5"/>
<!-- Node1 -->
<g id="node1" class="node"><title>Node1</title>
<polygon fill="#bfbfbf" stroke="black" points="51.5,-1 51.5,-77 300.5,-77 300.5,-1 51.5,-1"/>
<text text-anchor="middle" x="176" y="-64" font-family="Helvetica,sans-Serif" font-size="10.00">pocketmine\event\entity\EntityDamageByEntityEvent</text>
<polyline fill="none" stroke="black" points="51.5,-56 300.5,-56 "/>
<text text-anchor="start" x="59.5" y="-43" font-family="Helvetica,sans-Serif" font-size="10.00">+ $handlerList</text>
<polyline fill="none" stroke="black" points="51.5,-35 300.5,-35 "/>
<text text-anchor="start" x="59.5" y="-22" font-family="Helvetica,sans-Serif" font-size="10.00">+ __construct()</text>
<text text-anchor="start" x="59.5" y="-9" font-family="Helvetica,sans-Serif" font-size="10.00">+ getDamager()</text>
</g>
<!-- Node2 -->
<g id="node2" class="node"><title>Node2</title>
<a xlink:href="../../d5/de3/classpocketmine_1_1event_1_1entity_1_1_entity_damage_event.html" target="_top" xlink:title="{pocketmine\\event\\entity\\EntityDamageEvent\n|+ MODIFIER_BASE\l+ MODIFIER_ARMOR\l+ CAUSE_CONTACT\l+ CAUSE_ENTITY_ATTACK\l+ CAUSE_PROJECTILE\l+ CAUSE_SUFFOCATION\l+ CAUSE_FALL\l+ CAUSE_FIRE\l+ CAUSE_FIRE_TICK\l+ CAUSE_LAVA\land 6 more...+ $handlerList\l|+ __construct()\l+ getCause()\l+ getOriginalDamage()\l+ getDamage()\l+ setDamage()\l+ isApplicable()\l+ getFinalDamage()\l}">
<polygon fill="white" stroke="black" points="70,-114.5 70,-385.5 282,-385.5 282,-114.5 70,-114.5"/>
<text text-anchor="middle" x="176" y="-372.5" font-family="Helvetica,sans-Serif" font-size="10.00">pocketmine\event\entity\EntityDamageEvent</text>
<polyline fill="none" stroke="black" points="70,-364.5 282,-364.5 "/>
<text text-anchor="start" x="78" y="-351.5" font-family="Helvetica,sans-Serif" font-size="10.00">+ MODIFIER_BASE</text>
<text text-anchor="start" x="78" y="-338.5" font-family="Helvetica,sans-Serif" font-size="10.00">+ MODIFIER_ARMOR</text>
<text text-anchor="start" x="78" y="-325.5" font-family="Helvetica,sans-Serif" font-size="10.00">+ CAUSE_CONTACT</text>
<text text-anchor="start" x="78" y="-312.5" font-family="Helvetica,sans-Serif" font-size="10.00">+ CAUSE_ENTITY_ATTACK</text>
<text text-anchor="start" x="78" y="-299.5" font-family="Helvetica,sans-Serif" font-size="10.00">+ CAUSE_PROJECTILE</text>
<text text-anchor="start" x="78" y="-286.5" font-family="Helvetica,sans-Serif" font-size="10.00">+ CAUSE_SUFFOCATION</text>
<text text-anchor="start" x="78" y="-273.5" font-family="Helvetica,sans-Serif" font-size="10.00">+ CAUSE_FALL</text>
<text text-anchor="start" x="78" y="-260.5" font-family="Helvetica,sans-Serif" font-size="10.00">+ CAUSE_FIRE</text>
<text text-anchor="start" x="78" y="-247.5" font-family="Helvetica,sans-Serif" font-size="10.00">+ CAUSE_FIRE_TICK</text>
<text text-anchor="start" x="78" y="-234.5" font-family="Helvetica,sans-Serif" font-size="10.00">+ CAUSE_LAVA</text>
<text text-anchor="start" x="78" y="-221.5" font-family="Helvetica,sans-Serif" font-size="10.00">and 6 more...+ $handlerList</text>
<polyline fill="none" stroke="black" points="70,-213.5 282,-213.5 "/>
<text text-anchor="start" x="78" y="-200.5" font-family="Helvetica,sans-Serif" font-size="10.00">+ __construct()</text>
<text text-anchor="start" x="78" y="-187.5" font-family="Helvetica,sans-Serif" font-size="10.00">+ getCause()</text>
<text text-anchor="start" x="78" y="-174.5" font-family="Helvetica,sans-Serif" font-size="10.00">+ getOriginalDamage()</text>
<text text-anchor="start" x="78" y="-161.5" font-family="Helvetica,sans-Serif" font-size="10.00">+ getDamage()</text>
<text text-anchor="start" x="78" y="-148.5" font-family="Helvetica,sans-Serif" font-size="10.00">+ setDamage()</text>
<text text-anchor="start" x="78" y="-135.5" font-family="Helvetica,sans-Serif" font-size="10.00">+ isApplicable()</text>
<text text-anchor="start" x="78" y="-122.5" font-family="Helvetica,sans-Serif" font-size="10.00">+ getFinalDamage()</text>
</a>
</g>
<!-- Node2&#45;&gt;Node1 -->
<g id="edge2" class="edge"><title>Node2&#45;&gt;Node1</title>
<path fill="none" stroke="midnightblue" d="M176,-104.047C176,-94.3934 176,-85.2728 176,-77.0845"/>
<polygon fill="none" stroke="midnightblue" points="172.5,-104.282 176,-114.282 179.5,-104.282 172.5,-104.282"/>
</g>
<!-- Node3 -->
<g id="node4" class="node"><title>Node3</title>
<a xlink:href="../../de/d84/classpocketmine_1_1event_1_1entity_1_1_entity_event.html" target="_top" xlink:title="{pocketmine\\event\\entity\\EntityEvent\n|# $entity\l|+ getEntity()\l}">
<polygon fill="white" stroke="black" points="-0.5,-429.5 -0.5,-492.5 174.5,-492.5 174.5,-429.5 -0.5,-429.5"/>
<text text-anchor="middle" x="87" y="-479.5" font-family="Helvetica,sans-Serif" font-size="10.00">pocketmine\event\entity\EntityEvent</text>
<polyline fill="none" stroke="black" points="-0.5,-471.5 174.5,-471.5 "/>
<text text-anchor="start" x="7.5" y="-458.5" font-family="Helvetica,sans-Serif" font-size="10.00"># $entity</text>
<polyline fill="none" stroke="black" points="-0.5,-450.5 174.5,-450.5 "/>
<text text-anchor="start" x="7.5" y="-437.5" font-family="Helvetica,sans-Serif" font-size="10.00">+ getEntity()</text>
</a>
</g>
<!-- Node3&#45;&gt;Node2 -->
<g id="edge4" class="edge"><title>Node3&#45;&gt;Node2</title>
<path fill="none" stroke="midnightblue" d="M104.323,-419.931C108.684,-409.591 113.611,-397.912 118.787,-385.639"/>
<polygon fill="none" stroke="midnightblue" points="100.986,-418.837 100.324,-429.411 107.436,-421.558 100.986,-418.837"/>
</g>
<!-- Node4 -->
<g id="node6" class="node"><title>Node4</title>
<a xlink:href="../../d1/d2f/classpocketmine_1_1event_1_1_event.html" target="_top" xlink:title="{pocketmine\\event\\Event\n|# $eventName\l|+ getEventName()\l+ isCancelled()\l+ setCancelled()\l+ getHandlers()\l}">
<polygon fill="white" stroke="black" points="26,-537 26,-639 148,-639 148,-537 26,-537"/>
<text text-anchor="middle" x="87" y="-626" font-family="Helvetica,sans-Serif" font-size="10.00">pocketmine\event\Event</text>
<polyline fill="none" stroke="black" points="26,-618 148,-618 "/>
<text text-anchor="start" x="34" y="-605" font-family="Helvetica,sans-Serif" font-size="10.00"># $eventName</text>
<polyline fill="none" stroke="black" points="26,-597 148,-597 "/>
<text text-anchor="start" x="34" y="-584" font-family="Helvetica,sans-Serif" font-size="10.00">+ getEventName()</text>
<text text-anchor="start" x="34" y="-571" font-family="Helvetica,sans-Serif" font-size="10.00">+ isCancelled()</text>
<text text-anchor="start" x="34" y="-558" font-family="Helvetica,sans-Serif" font-size="10.00">+ setCancelled()</text>
<text text-anchor="start" x="34" y="-545" font-family="Helvetica,sans-Serif" font-size="10.00">+ getHandlers()</text>
</a>
</g>
<!-- Node4&#45;&gt;Node3 -->
<g id="edge6" class="edge"><title>Node4&#45;&gt;Node3</title>
<path fill="none" stroke="midnightblue" d="M87,-526.5C87,-514.81 87,-503.03 87,-492.745"/>
<polygon fill="none" stroke="midnightblue" points="83.5001,-526.71 87,-536.71 90.5001,-526.71 83.5001,-526.71"/>
</g>
<!-- Node5 -->
<g id="node8" class="node"><title>Node5</title>
<a xlink:href="../../db/d62/interfacepocketmine_1_1event_1_1_cancellable.html" target="_top" xlink:title="{pocketmine\\event\\Cancellable\n||+ isCancelled()\l+ setCancelled()\l}">
<polygon fill="white" stroke="black" points="192,-423 192,-499 340,-499 340,-423 192,-423"/>
<text text-anchor="middle" x="266" y="-486" font-family="Helvetica,sans-Serif" font-size="10.00">pocketmine\event\Cancellable</text>
<polyline fill="none" stroke="black" points="192,-478 340,-478 "/>
<text text-anchor="middle" x="266" y="-465" font-family="Helvetica,sans-Serif" font-size="10.00"> </text>
<polyline fill="none" stroke="black" points="192,-457 340,-457 "/>
<text text-anchor="start" x="200" y="-444" font-family="Helvetica,sans-Serif" font-size="10.00">+ isCancelled()</text>
<text text-anchor="start" x="200" y="-431" font-family="Helvetica,sans-Serif" font-size="10.00">+ setCancelled()</text>
</a>
</g>
<!-- Node5&#45;&gt;Node2 -->
<g id="edge8" class="edge"><title>Node5&#45;&gt;Node2</title>
<path fill="none" stroke="midnightblue" d="M245.684,-413.371C241.998,-404.728 237.992,-395.336 233.825,-385.568"/>
<polygon fill="none" stroke="midnightblue" points="242.559,-414.964 249.702,-422.789 248.998,-412.218 242.559,-414.964"/>
</g>
</g>
</svg>
        <g id="navigator" transform="translate(0 0)" fill="#404254">
                <rect fill="#f2f5e9" fill-opacity="0.5" stroke="#606060" stroke-width=".5" x="0" y="0" width="60" height="60"/>
                <use id="zoomplus" xlink:href="#zoomPlus" x="17" y="9" onmousedown="handleZoom(evt,'in')"/>
                <use id="zoomminus" xlink:href="#zoomMin" x="42" y="9" onmousedown="handleZoom(evt,'out')"/>
                <use id="reset" xlink:href="#resetDef" x="30" y="36" onmousedown="handleReset()"/>
                <g id="arrowUp" xlink:href="#dirArrow" transform="translate(30 24)" onmousedown="handlePan(0,-1)">
                  <use xlink:href="#rim" fill="#404040">
                        <set attributeName="fill" to="#808080" begin="arrowUp.mouseover" end="arrowUp.mouseout"/>
                  </use>
                  <path fill="none" stroke="white" stroke-width="1.5" d="M0,-3.0v7 M-2.5,-0.5L0,-3.0L2.5,-0.5"/>
                </g>
                <g id="arrowRight" xlink:href="#dirArrow" transform="rotate(90) translate(36 -43)" onmousedown="handlePan(1,0)">
                  <use xlink:href="#rim" fill="#404040">
                        <set attributeName="fill" to="#808080" begin="arrowRight.mouseover" end="arrowRight.mouseout"/>
                  </use>
                  <path fill="none" stroke="white" stroke-width="1.5" d="M0,-3.0v7 M-2.5,-0.5L0,-3.0L2.5,-0.5"/>
                </g>
                <g id="arrowDown" xlink:href="#dirArrow" transform="rotate(180) translate(-30 -48)" onmousedown="handlePan(0,1)">
                  <use xlink:href="#rim" fill="#404040">
                        <set attributeName="fill" to="#808080" begin="arrowDown.mouseover" end="arrowDown.mouseout"/>
                  </use>
                  <path fill="none" stroke="white" stroke-width="1.5" d="M0,-3.0v7 M-2.5,-0.5L0,-3.0L2.5,-0.5"/>
                </g>
                <g id="arrowLeft" xlink:href="#dirArrow" transform="rotate(270) translate(-36 17)" onmousedown="handlePan(-1,0)">
                  <use xlink:href="#rim" fill="#404040">
                        <set attributeName="fill" to="#808080" begin="arrowLeft.mouseover" end="arrowLeft.mouseout"/>
                  </use>
                  <path fill="none" stroke="white" stroke-width="1.5" d="M0,-3.0v7 M-2.5,-0.5L0,-3.0L2.5,-0.5"/>
                </g>
        </g>
</svg>
