<?xml version="1.0" encoding="UTF-8" standalone="no"?>
<!DOCTYPE svg PUBLIC "-//W3C//DTD SVG 1.1//EN"
 "http://www.w3.org/Graphics/SVG/1.1/DTD/svg11.dtd">
<!-- Generated by graphviz version 2.36.0 (20140111.2315)
 -->
<!-- Title: pocketmine\level\format\generic\BaseChunk\setBlockData Pages: 1 -->
<svg width="358pt" height="109pt"
 viewBox="0.00 0.00 358.00 109.00" xmlns="http://www.w3.org/2000/svg" xmlns:xlink="http://www.w3.org/1999/xlink">
<g id="graph0" class="graph" transform="scale(1 1) rotate(0) translate(4 105)">
<title>pocketmine\level\format\generic\BaseChunk\setBlockData</title>
<polygon fill="white" stroke="none" points="-4,4 -4,-105 354,-105 354,4 -4,4"/>
<!-- Node1 -->
<g id="node1" class="node"><title>Node1</title>
<polygon fill="#bfbfbf" stroke="black" points="0.5,-35 0.5,-65 179.5,-65 179.5,-35 0.5,-35"/>
<text text-anchor="start" x="8.5" y="-53" font-family="Helvetica,sans-Serif" font-size="10.00">pocketmine\level\format</text>
<text text-anchor="middle" x="90" y="-42" font-family="Helvetica,sans-Serif" font-size="10.00">\generic\BaseChunk\setBlockData</text>
</g>
<!-- Node2 -->
<g id="node2" class="node"><title>Node2</title>
<g id="a_node2"><a xlink:href="../../da/d9a/classpocketmine_1_1level_1_1format_1_1generic_1_1_base_full_chunk.html#a0fb118fe67d326822e163bfeaaf1114b" target="_top" xlink:title="pocketmine\\level\\format\l\\generic\\BaseFullChunk\l\\getProvider">
<polygon fill="white" stroke="black" points="216.5,-59.5 216.5,-100.5 349.5,-100.5 349.5,-59.5 216.5,-59.5"/>
<text text-anchor="start" x="224.5" y="-88.5" font-family="Helvetica,sans-Serif" font-size="10.00">pocketmine\level\format</text>
<text text-anchor="start" x="224.5" y="-77.5" font-family="Helvetica,sans-Serif" font-size="10.00">\generic\BaseFullChunk</text>
<text text-anchor="middle" x="283" y="-66.5" font-family="Helvetica,sans-Serif" font-size="10.00">\getProvider</text>
</a>
</g>
</g>
<!-- Node1&#45;&gt;Node2 -->
<g id="edge1" class="edge"><title>Node1&#45;&gt;Node2</title>
<path fill="none" stroke="midnightblue" d="M179.511,-63.9022C188.418,-65.3013 197.407,-66.7132 206.166,-68.0888"/>
<polygon fill="midnightblue" stroke="midnightblue" points="205.9,-71.59 216.322,-69.6841 206.987,-64.6748 205.9,-71.59"/>
</g>
<!-- Node3 -->
<g id="node3" class="node"><title>Node3</title>
<g id="a_node3"><a xlink:href="../../da/d9a/classpocketmine_1_1level_1_1format_1_1generic_1_1_base_full_chunk.html#af66cc6951f866ad4d7359010a9e452c1" target="_top" xlink:title="pocketmine\\level\\format\l\\generic\\BaseFullChunk\l\\hasChanged">
<polygon fill="white" stroke="black" points="216.5,0.5 216.5,-40.5 349.5,-40.5 349.5,0.5 216.5,0.5"/>
<text text-anchor="start" x="224.5" y="-28.5" font-family="Helvetica,sans-Serif" font-size="10.00">pocketmine\level\format</text>
<text text-anchor="start" x="224.5" y="-17.5" font-family="Helvetica,sans-Serif" font-size="10.00">\generic\BaseFullChunk</text>
<text text-anchor="middle" x="283" y="-6.5" font-family="Helvetica,sans-Serif" font-size="10.00">\hasChanged</text>
</a>
</g>
</g>
<!-- Node1&#45;&gt;Node3 -->
<g id="edge2" class="edge"><title>Node1&#45;&gt;Node3</title>
<path fill="none" stroke="midnightblue" d="M179.511,-36.0978C188.418,-34.6987 197.407,-33.2868 206.166,-31.9112"/>
<polygon fill="midnightblue" stroke="midnightblue" points="206.987,-35.3252 216.322,-30.3159 205.9,-28.41 206.987,-35.3252"/>
</g>
</g>
</svg>
