<?xml version="1.0" encoding="UTF-8" standalone="no"?>
<!DOCTYPE svg PUBLIC "-//W3C//DTD SVG 1.1//EN"
 "http://www.w3.org/Graphics/SVG/1.1/DTD/svg11.dtd">
<!-- Generated by graphviz version 2.26.3 (20100126.1600)
 -->
<!-- Title: pocketmine\level\format\generic\BaseChunk\setBlockSkyLight Pages: 1 -->
<svg width="352pt" height="56pt"
 viewBox="0.00 0.00 352.00 56.00" xmlns="http://www.w3.org/2000/svg" xmlns:xlink="http://www.w3.org/1999/xlink">
<g id="graph1" class="graph" transform="scale(1 1) rotate(0) translate(4 52)">
<title>pocketmine\level\format\generic\BaseChunk\setBlockSkyLight</title>
<polygon fill="white" stroke="white" points="-4,5 -4,-52 349,-52 349,5 -4,5"/>
<!-- Node1 -->
<g id="node1" class="node"><title>Node1</title>
<polygon fill="#bfbfbf" stroke="black" points="0.5,-7 0.5,-41 185.5,-41 185.5,-7 0.5,-7"/>
<text text-anchor="start" x="8.5" y="-28" font-family="Helvetica,sans-Serif" font-size="10.00">pocketmine\level\format</text>
<text text-anchor="middle" x="93" y="-15" font-family="Helvetica,sans-Serif" font-size="10.00">\generic\BaseChunk\setBlockSkyLight</text>
</g>
<!-- Node2 -->
<g id="node3" class="node"><title>Node2</title>
<a xlink:href="../../da/d9a/classpocketmine_1_1level_1_1format_1_1generic_1_1_base_full_chunk.html#a0fb118fe67d326822e163bfeaaf1114b" target="_top" xlink:title="pocketmine\\level\\format\l\\generic\\BaseFullChunk\l\\getProvider">
<polygon fill="white" stroke="black" points="222.5,-0.5 222.5,-47.5 343.5,-47.5 343.5,-0.5 222.5,-0.5"/>
<text text-anchor="start" x="230.5" y="-34.5" font-family="Helvetica,sans-Serif" font-size="10.00">pocketmine\level\format</text>
<text text-anchor="start" x="230.5" y="-21.5" font-family="Helvetica,sans-Serif" font-size="10.00">\generic\BaseFullChunk</text>
<text text-anchor="middle" x="283" y="-8.5" font-family="Helvetica,sans-Serif" font-size="10.00">\getProvider</text>
</a>
</g>
<!-- Node1&#45;&gt;Node2 -->
<g id="edge2" class="edge"><title>Node1&#45;&gt;Node2</title>
<path fill="none" stroke="midnightblue" d="M185.774,-24C194.711,-24 203.674,-24 212.348,-24"/>
<polygon fill="midnightblue" stroke="midnightblue" points="212.377,-27.5001 222.377,-24 212.377,-20.5001 212.377,-27.5001"/>
</g>
</g>
</svg>
