<?xml version="1.0" encoding="UTF-8" standalone="no"?>
<!DOCTYPE svg PUBLIC "-//W3C//DTD SVG 1.1//EN"
 "http://www.w3.org/Graphics/SVG/1.1/DTD/svg11.dtd">
<!-- Generated by graphviz version 2.36.0 (20140111.2315)
 -->
<!-- Title: pocketmine\level\format\generic\BaseChunk\load Pages: 1 -->
<svg width="334pt" height="147pt"
 viewBox="0.00 0.00 334.00 147.00" xmlns="http://www.w3.org/2000/svg" xmlns:xlink="http://www.w3.org/1999/xlink">
<g id="graph0" class="graph" transform="scale(1 1) rotate(0) translate(4 143)">
<title>pocketmine\level\format\generic\BaseChunk\load</title>
<polygon fill="white" stroke="none" points="-4,4 -4,-143 330,-143 330,4 -4,4"/>
<!-- Node1 -->
<g id="node1" class="node"><title>Node1</title>
<polygon fill="#bfbfbf" stroke="black" points="0.5,-49 0.5,-79 135.5,-79 135.5,-49 0.5,-49"/>
<text text-anchor="start" x="8.5" y="-67" font-family="Helvetica,sans-Serif" font-size="10.00">pocketmine\level\format</text>
<text text-anchor="middle" x="68" y="-56" font-family="Helvetica,sans-Serif" font-size="10.00">\generic\BaseChunk\load</text>
</g>
<!-- Node2 -->
<g id="node2" class="node"><title>Node2</title>
<g id="a_node2"><a xlink:href="../../da/d9a/classpocketmine_1_1level_1_1format_1_1generic_1_1_base_full_chunk.html#a0fb118fe67d326822e163bfeaaf1114b" target="_top" xlink:title="pocketmine\\level\\format\l\\generic\\BaseFullChunk\l\\getProvider">
<polygon fill="white" stroke="black" points="182.5,-97.5 182.5,-138.5 315.5,-138.5 315.5,-97.5 182.5,-97.5"/>
<text text-anchor="start" x="190.5" y="-126.5" font-family="Helvetica,sans-Serif" font-size="10.00">pocketmine\level\format</text>
<text text-anchor="start" x="190.5" y="-115.5" font-family="Helvetica,sans-Serif" font-size="10.00">\generic\BaseFullChunk</text>
<text text-anchor="middle" x="249" y="-104.5" font-family="Helvetica,sans-Serif" font-size="10.00">\getProvider</text>
</a>
</g>
</g>
<!-- Node1&#45;&gt;Node2 -->
<g id="edge1" class="edge"><title>Node1&#45;&gt;Node2</title>
<path fill="none" stroke="midnightblue" d="M118.861,-79.042C135.522,-84.0681 154.479,-89.787 172.639,-95.2655"/>
<polygon fill="midnightblue" stroke="midnightblue" points="171.751,-98.6532 182.336,-98.1906 173.773,-91.9515 171.751,-98.6532"/>
</g>
<!-- Node3 -->
<g id="node3" class="node"><title>Node3</title>
<g id="a_node3"><a xlink:href="../../da/d9a/classpocketmine_1_1level_1_1format_1_1generic_1_1_base_full_chunk.html#a7d105e7bd1e1f502689ecb52b32b2313" target="_top" xlink:title="pocketmine\\level\\format\l\\generic\\BaseFullChunk\\getX">
<polygon fill="white" stroke="black" points="173,-49 173,-79 325,-79 325,-49 173,-49"/>
<text text-anchor="start" x="181" y="-67" font-family="Helvetica,sans-Serif" font-size="10.00">pocketmine\level\format</text>
<text text-anchor="middle" x="249" y="-56" font-family="Helvetica,sans-Serif" font-size="10.00">\generic\BaseFullChunk\getX</text>
</a>
</g>
</g>
<!-- Node1&#45;&gt;Node3 -->
<g id="edge2" class="edge"><title>Node1&#45;&gt;Node3</title>
<path fill="none" stroke="midnightblue" d="M135.653,-64C144.464,-64 153.591,-64 162.661,-64"/>
<polygon fill="midnightblue" stroke="midnightblue" points="162.858,-67.5001 172.858,-64 162.858,-60.5001 162.858,-67.5001"/>
</g>
<!-- Node4 -->
<g id="node4" class="node"><title>Node4</title>
<g id="a_node4"><a xlink:href="../../da/d9a/classpocketmine_1_1level_1_1format_1_1generic_1_1_base_full_chunk.html#accb52bc772db27ca758128ecfbd5228d" target="_top" xlink:title="pocketmine\\level\\format\l\\generic\\BaseFullChunk\\getZ">
<polygon fill="white" stroke="black" points="172.5,-0 172.5,-30 325.5,-30 325.5,-0 172.5,-0"/>
<text text-anchor="start" x="180.5" y="-18" font-family="Helvetica,sans-Serif" font-size="10.00">pocketmine\level\format</text>
<text text-anchor="middle" x="249" y="-7" font-family="Helvetica,sans-Serif" font-size="10.00">\generic\BaseFullChunk\getZ</text>
</a>
</g>
</g>
<!-- Node1&#45;&gt;Node4 -->
<g id="edge3" class="edge"><title>Node1&#45;&gt;Node4</title>
<path fill="none" stroke="midnightblue" d="M124.166,-48.8986C142.884,-43.7747 163.963,-38.0044 183.353,-32.6968"/>
<polygon fill="midnightblue" stroke="midnightblue" points="184.295,-36.0677 193.016,-30.0516 182.446,-29.3161 184.295,-36.0677"/>
</g>
</g>
</svg>
