<?xml version="1.0" encoding="UTF-8" standalone="no"?>
<!DOCTYPE svg PUBLIC "-//W3C//DTD SVG 1.1//EN"
 "http://www.w3.org/Graphics/SVG/1.1/DTD/svg11.dtd">
<!-- Generated by graphviz version 2.36.0 (20140111.2315)
 -->
<!-- Title: pocketmine\network\RakLibInterface Pages: 1 -->
<svg width="251pt" height="348pt"
 viewBox="0.00 0.00 251.00 348.00" xmlns="http://www.w3.org/2000/svg" xmlns:xlink="http://www.w3.org/1999/xlink">
<g id="graph0" class="graph" transform="scale(1 1) rotate(0) translate(4 344)">
<title>pocketmine\network\RakLibInterface</title>
<polygon fill="white" stroke="none" points="-4,4 -4,-344 247,-344 247,4 -4,4"/>
<!-- Node1 -->
<g id="node1" class="node"><title>Node1</title>
<polygon fill="#bfbfbf" stroke="black" points="40.5,-1 40.5,-179 177.5,-179 177.5,-1 40.5,-1"/>
<text text-anchor="start" x="48.5" y="-167" font-family="Helvetica,sans-Serif" font-size="10.00">pocketmine\network</text>
<text text-anchor="middle" x="109" y="-156" font-family="Helvetica,sans-Serif" font-size="10.00">\RakLibInterface</text>
<polyline fill="none" stroke="black" points="40.5,-149 177.5,-149 "/>
<text text-anchor="middle" x="109" y="-137" font-family="Helvetica,sans-Serif" font-size="10.00"> </text>
<polyline fill="none" stroke="black" points="40.5,-130 177.5,-130 "/>
<text text-anchor="start" x="48.5" y="-118" font-family="Helvetica,sans-Serif" font-size="10.00">+ __construct()</text>
<text text-anchor="start" x="48.5" y="-107" font-family="Helvetica,sans-Serif" font-size="10.00">+ doTick()</text>
<text text-anchor="start" x="48.5" y="-96" font-family="Helvetica,sans-Serif" font-size="10.00">+ process()</text>
<text text-anchor="start" x="48.5" y="-85" font-family="Helvetica,sans-Serif" font-size="10.00">+ closeSession()</text>
<text text-anchor="start" x="48.5" y="-74" font-family="Helvetica,sans-Serif" font-size="10.00">+ close()</text>
<text text-anchor="start" x="48.5" y="-63" font-family="Helvetica,sans-Serif" font-size="10.00">+ shutdown()</text>
<text text-anchor="start" x="48.5" y="-52" font-family="Helvetica,sans-Serif" font-size="10.00">+ emergencyShutdown()</text>
<text text-anchor="start" x="48.5" y="-41" font-family="Helvetica,sans-Serif" font-size="10.00">+ openSession()</text>
<text text-anchor="start" x="48.5" y="-30" font-family="Helvetica,sans-Serif" font-size="10.00">+ handleEncapsulated()</text>
<text text-anchor="start" x="48.5" y="-19" font-family="Helvetica,sans-Serif" font-size="10.00">+ blockAddress()</text>
<text text-anchor="start" x="48.5" y="-8" font-family="Helvetica,sans-Serif" font-size="10.00">and 10 more...</text>
</g>
<!-- Node2 -->
<g id="node2" class="node"><title>Node2</title>
<polygon fill="white" stroke="#bfbfbf" points="-0.5,-249.5 -0.5,-306.5 88.5,-306.5 88.5,-249.5 -0.5,-249.5"/>
<text text-anchor="middle" x="44" y="-294.5" font-family="Helvetica,sans-Serif" font-size="10.00">ServerInstance</text>
<polyline fill="none" stroke="#bfbfbf" points="-0.5,-287.5 88.5,-287.5 "/>
<text text-anchor="middle" x="44" y="-275.5" font-family="Helvetica,sans-Serif" font-size="10.00"> </text>
<polyline fill="none" stroke="#bfbfbf" points="-0.5,-268.5 88.5,-268.5 "/>
<text text-anchor="middle" x="44" y="-256.5" font-family="Helvetica,sans-Serif" font-size="10.00"> </text>
</g>
<!-- Node2&#45;&gt;Node1 -->
<g id="edge1" class="edge"><title>Node2&#45;&gt;Node1</title>
<path fill="none" stroke="midnightblue" d="M57.1446,-239.386C63.2425,-221.937 70.7705,-200.395 78.1816,-179.188"/>
<polygon fill="none" stroke="midnightblue" points="53.7261,-238.559 53.7312,-249.154 60.3343,-240.868 53.7261,-238.559"/>
</g>
<!-- Node3 -->
<g id="node3" class="node"><title>Node3</title>
<g id="a_node3"><a xlink:href="../../dc/d93/interfacepocketmine_1_1network_1_1_source_interface.html" target="_top" xlink:title="{pocketmine\\network\l\\SourceInterface\n||+ putPacket()\l+ close()\l+ setName()\l+ process()\l+ shutdown()\l+ emergencyShutdown()\l}">
<polygon fill="white" stroke="black" points="106.5,-216.5 106.5,-339.5 243.5,-339.5 243.5,-216.5 106.5,-216.5"/>
<text text-anchor="start" x="114.5" y="-327.5" font-family="Helvetica,sans-Serif" font-size="10.00">pocketmine\network</text>
<text text-anchor="middle" x="175" y="-316.5" font-family="Helvetica,sans-Serif" font-size="10.00">\SourceInterface</text>
<polyline fill="none" stroke="black" points="106.5,-309.5 243.5,-309.5 "/>
<text text-anchor="middle" x="175" y="-297.5" font-family="Helvetica,sans-Serif" font-size="10.00"> </text>
<polyline fill="none" stroke="black" points="106.5,-290.5 243.5,-290.5 "/>
<text text-anchor="start" x="114.5" y="-278.5" font-family="Helvetica,sans-Serif" font-size="10.00">+ putPacket()</text>
<text text-anchor="start" x="114.5" y="-267.5" font-family="Helvetica,sans-Serif" font-size="10.00">+ close()</text>
<text text-anchor="start" x="114.5" y="-256.5" font-family="Helvetica,sans-Serif" font-size="10.00">+ setName()</text>
<text text-anchor="start" x="114.5" y="-245.5" font-family="Helvetica,sans-Serif" font-size="10.00">+ process()</text>
<text text-anchor="start" x="114.5" y="-234.5" font-family="Helvetica,sans-Serif" font-size="10.00">+ shutdown()</text>
<text text-anchor="start" x="114.5" y="-223.5" font-family="Helvetica,sans-Serif" font-size="10.00">+ emergencyShutdown()</text>
</a>
</g>
</g>
<!-- Node3&#45;&gt;Node1 -->
<g id="edge2" class="edge"><title>Node3&#45;&gt;Node1</title>
<path fill="none" stroke="midnightblue" d="M150.069,-206.739C146.88,-197.754 143.585,-188.467 140.312,-179.242"/>
<polygon fill="none" stroke="midnightblue" points="146.838,-208.1 153.48,-216.354 153.435,-205.759 146.838,-208.1"/>
</g>
</g>
</svg>
