<?xml version="1.0" encoding="UTF-8" standalone="no"?>
<!DOCTYPE svg PUBLIC "-//W3C//DTD SVG 1.1//EN"
 "http://www.w3.org/Graphics/SVG/1.1/DTD/svg11.dtd">
<!-- Generated by graphviz version 2.26.3 (20100126.1600)
 -->
<!-- Title: pocketmine\entity\Human Pages: 1 -->
<svg width="568pt" height="1616pt"
 viewBox="0.00 0.00 568.00 1616.00" xmlns="http://www.w3.org/2000/svg" xmlns:xlink="http://www.w3.org/1999/xlink">
<g id="graph1" class="graph" transform="scale(1 1) rotate(0) translate(4 1612)">
<title>pocketmine\entity\Human</title>
<polygon fill="white" stroke="white" points="-4,5 -4,-1612 565,-1612 565,5 -4,5"/>
<!-- Node1 -->
<g id="node1" class="node"><title>Node1</title>
<polygon fill="#bfbfbf" stroke="black" points="300,-1 300,-207 428,-207 428,-1 300,-1"/>
<text text-anchor="middle" x="364" y="-194" font-family="Helvetica,sans-Serif" font-size="10.00">pocketmine\entity\Human</text>
<polyline fill="none" stroke="black" points="300,-186 428,-186 "/>
<text text-anchor="start" x="308" y="-173" font-family="Helvetica,sans-Serif" font-size="10.00">+ $width</text>
<text text-anchor="start" x="308" y="-160" font-family="Helvetica,sans-Serif" font-size="10.00">+ $length</text>
<text text-anchor="start" x="308" y="-147" font-family="Helvetica,sans-Serif" font-size="10.00">+ $height</text>
<text text-anchor="start" x="308" y="-134" font-family="Helvetica,sans-Serif" font-size="10.00"># $nameTag</text>
<text text-anchor="start" x="308" y="-121" font-family="Helvetica,sans-Serif" font-size="10.00"># $inventory</text>
<polyline fill="none" stroke="black" points="300,-113 428,-113 "/>
<text text-anchor="start" x="308" y="-100" font-family="Helvetica,sans-Serif" font-size="10.00">+ getInventory()</text>
<text text-anchor="start" x="308" y="-87" font-family="Helvetica,sans-Serif" font-size="10.00">+ getName()</text>
<text text-anchor="start" x="308" y="-74" font-family="Helvetica,sans-Serif" font-size="10.00">+ getDrops()</text>
<text text-anchor="start" x="308" y="-61" font-family="Helvetica,sans-Serif" font-size="10.00">+ saveNBT()</text>
<text text-anchor="start" x="308" y="-48" font-family="Helvetica,sans-Serif" font-size="10.00">+ spawnTo()</text>
<text text-anchor="start" x="308" y="-35" font-family="Helvetica,sans-Serif" font-size="10.00">+ despawnFrom()</text>
<text text-anchor="start" x="308" y="-22" font-family="Helvetica,sans-Serif" font-size="10.00">+ getData()</text>
<text text-anchor="start" x="308" y="-9" font-family="Helvetica,sans-Serif" font-size="10.00"># initEntity()</text>
</g>
<!-- Node2 -->
<g id="node2" class="node"><title>Node2</title>
<a xlink:href="../../d1/db7/classpocketmine_1_1entity_1_1_creature.html" target="_top" xlink:title="{pocketmine\\entity\\Creature\n||}">
<polygon fill="white" stroke="black" points="144,-251.5 144,-314.5 278,-314.5 278,-251.5 144,-251.5"/>
<text text-anchor="middle" x="211" y="-301.5" font-family="Helvetica,sans-Serif" font-size="10.00">pocketmine\entity\Creature</text>
<polyline fill="none" stroke="black" points="144,-293.5 278,-293.5 "/>
<text text-anchor="middle" x="211" y="-280.5" font-family="Helvetica,sans-Serif" font-size="10.00"> </text>
<polyline fill="none" stroke="black" points="144,-272.5 278,-272.5 "/>
<text text-anchor="middle" x="211" y="-259.5" font-family="Helvetica,sans-Serif" font-size="10.00"> </text>
</a>
</g>
<!-- Node2&#45;&gt;Node1 -->
<g id="edge2" class="edge"><title>Node2&#45;&gt;Node1</title>
<path fill="none" stroke="midnightblue" d="M244.694,-243.58C260.882,-224.641 280.842,-201.289 299.772,-179.142"/>
<polygon fill="none" stroke="midnightblue" points="241.838,-241.535 238.001,-251.41 247.159,-246.083 241.838,-241.535"/>
</g>
<!-- Node3 -->
<g id="node4" class="node"><title>Node3</title>
<a xlink:href="../../df/d0c/classpocketmine_1_1entity_1_1_living.html" target="_top" xlink:title="{pocketmine\\entity\\Living\n|# $gravity\l# $drag\l|+ saveNBT()\l+ getName()\l+ attack()\l+ heal()\l+ kill()\l+ entityBaseTick()\l+ getDrops()\l# initEntity()\l}">
<polygon fill="white" stroke="black" points="150,-358.5 150,-525.5 272,-525.5 272,-358.5 150,-358.5"/>
<text text-anchor="middle" x="211" y="-512.5" font-family="Helvetica,sans-Serif" font-size="10.00">pocketmine\entity\Living</text>
<polyline fill="none" stroke="black" points="150,-504.5 272,-504.5 "/>
<text text-anchor="start" x="158" y="-491.5" font-family="Helvetica,sans-Serif" font-size="10.00"># $gravity</text>
<text text-anchor="start" x="158" y="-478.5" font-family="Helvetica,sans-Serif" font-size="10.00"># $drag</text>
<polyline fill="none" stroke="black" points="150,-470.5 272,-470.5 "/>
<text text-anchor="start" x="158" y="-457.5" font-family="Helvetica,sans-Serif" font-size="10.00">+ saveNBT()</text>
<text text-anchor="start" x="158" y="-444.5" font-family="Helvetica,sans-Serif" font-size="10.00">+ getName()</text>
<text text-anchor="start" x="158" y="-431.5" font-family="Helvetica,sans-Serif" font-size="10.00">+ attack()</text>
<text text-anchor="start" x="158" y="-418.5" font-family="Helvetica,sans-Serif" font-size="10.00">+ heal()</text>
<text text-anchor="start" x="158" y="-405.5" font-family="Helvetica,sans-Serif" font-size="10.00">+ kill()</text>
<text text-anchor="start" x="158" y="-392.5" font-family="Helvetica,sans-Serif" font-size="10.00">+ entityBaseTick()</text>
<text text-anchor="start" x="158" y="-379.5" font-family="Helvetica,sans-Serif" font-size="10.00">+ getDrops()</text>
<text text-anchor="start" x="158" y="-366.5" font-family="Helvetica,sans-Serif" font-size="10.00"># initEntity()</text>
</a>
</g>
<!-- Node3&#45;&gt;Node2 -->
<g id="edge4" class="edge"><title>Node3&#45;&gt;Node2</title>
<path fill="none" stroke="midnightblue" d="M211,-348.153C211,-336.158 211,-324.615 211,-314.663"/>
<polygon fill="none" stroke="midnightblue" points="207.5,-348.309 211,-358.309 214.5,-348.309 207.5,-348.309"/>
</g>
<!-- Node4 -->
<g id="node6" class="node"><title>Node4</title>
<a xlink:href="../../d2/d3c/classpocketmine_1_1entity_1_1_entity.html" target="_top" xlink:title="{pocketmine\\entity\\Entity\n|+ NETWORK_ID\l+ $passenger\l+ $vehicle\l+ $chunkX\l+ $chunkZ\l+ $chunk\l+ $lastX\l+ $lastY\l+ $lastZ\l+ $motionX\land 27 more...\l+ $entityCount\l+ $needUpdate\l# $hasSpawned\l# $id\l# $lastDamageCause\l# $age\l# $isStatic\l# $isColliding\l# $inWater\l# $fireProof\l# $spawnTime\l# $gravity\l# $drag\l# $server\l|+ __construct()\l+ saveNBT()\l+ getViewers()\l+ spawnTo()\l+ despawnFrom()\l+ attack()\l+ heal()\l+ getHealth()\l+ setHealth()\l+ setLastDamageCause()\land 42 more...\l# initEntity()\l# checkObstruction()\l# updateFallState()\l# switchLevel()\l# checkBlockCollision()\l}">
<polygon fill="white" stroke="black" points="67.5,-563 67.5,-1133 196.5,-1133 196.5,-563 67.5,-563"/>
<text text-anchor="middle" x="132" y="-1120" font-family="Helvetica,sans-Serif" font-size="10.00">pocketmine\entity\Entity</text>
<polyline fill="none" stroke="black" points="67.5,-1112 196.5,-1112 "/>
<text text-anchor="start" x="75.5" y="-1099" font-family="Helvetica,sans-Serif" font-size="10.00">+ NETWORK_ID</text>
<text text-anchor="start" x="75.5" y="-1086" font-family="Helvetica,sans-Serif" font-size="10.00">+ $passenger</text>
<text text-anchor="start" x="75.5" y="-1073" font-family="Helvetica,sans-Serif" font-size="10.00">+ $vehicle</text>
<text text-anchor="start" x="75.5" y="-1060" font-family="Helvetica,sans-Serif" font-size="10.00">+ $chunkX</text>
<text text-anchor="start" x="75.5" y="-1047" font-family="Helvetica,sans-Serif" font-size="10.00">+ $chunkZ</text>
<text text-anchor="start" x="75.5" y="-1034" font-family="Helvetica,sans-Serif" font-size="10.00">+ $chunk</text>
<text text-anchor="start" x="75.5" y="-1021" font-family="Helvetica,sans-Serif" font-size="10.00">+ $lastX</text>
<text text-anchor="start" x="75.5" y="-1008" font-family="Helvetica,sans-Serif" font-size="10.00">+ $lastY</text>
<text text-anchor="start" x="75.5" y="-995" font-family="Helvetica,sans-Serif" font-size="10.00">+ $lastZ</text>
<text text-anchor="start" x="75.5" y="-982" font-family="Helvetica,sans-Serif" font-size="10.00">+ $motionX</text>
<text text-anchor="start" x="75.5" y="-969" font-family="Helvetica,sans-Serif" font-size="10.00">and 27 more...</text>
<text text-anchor="start" x="75.5" y="-956" font-family="Helvetica,sans-Serif" font-size="10.00">+ $entityCount</text>
<text text-anchor="start" x="75.5" y="-943" font-family="Helvetica,sans-Serif" font-size="10.00">+ $needUpdate</text>
<text text-anchor="start" x="75.5" y="-930" font-family="Helvetica,sans-Serif" font-size="10.00"># $hasSpawned</text>
<text text-anchor="start" x="75.5" y="-917" font-family="Helvetica,sans-Serif" font-size="10.00"># $id</text>
<text text-anchor="start" x="75.5" y="-904" font-family="Helvetica,sans-Serif" font-size="10.00"># $lastDamageCause</text>
<text text-anchor="start" x="75.5" y="-891" font-family="Helvetica,sans-Serif" font-size="10.00"># $age</text>
<text text-anchor="start" x="75.5" y="-878" font-family="Helvetica,sans-Serif" font-size="10.00"># $isStatic</text>
<text text-anchor="start" x="75.5" y="-865" font-family="Helvetica,sans-Serif" font-size="10.00"># $isColliding</text>
<text text-anchor="start" x="75.5" y="-852" font-family="Helvetica,sans-Serif" font-size="10.00"># $inWater</text>
<text text-anchor="start" x="75.5" y="-839" font-family="Helvetica,sans-Serif" font-size="10.00"># $fireProof</text>
<text text-anchor="start" x="75.5" y="-826" font-family="Helvetica,sans-Serif" font-size="10.00"># $spawnTime</text>
<text text-anchor="start" x="75.5" y="-813" font-family="Helvetica,sans-Serif" font-size="10.00"># $gravity</text>
<text text-anchor="start" x="75.5" y="-800" font-family="Helvetica,sans-Serif" font-size="10.00"># $drag</text>
<text text-anchor="start" x="75.5" y="-787" font-family="Helvetica,sans-Serif" font-size="10.00"># $server</text>
<polyline fill="none" stroke="black" points="67.5,-779 196.5,-779 "/>
<text text-anchor="start" x="75.5" y="-766" font-family="Helvetica,sans-Serif" font-size="10.00">+ __construct()</text>
<text text-anchor="start" x="75.5" y="-753" font-family="Helvetica,sans-Serif" font-size="10.00">+ saveNBT()</text>
<text text-anchor="start" x="75.5" y="-740" font-family="Helvetica,sans-Serif" font-size="10.00">+ getViewers()</text>
<text text-anchor="start" x="75.5" y="-727" font-family="Helvetica,sans-Serif" font-size="10.00">+ spawnTo()</text>
<text text-anchor="start" x="75.5" y="-714" font-family="Helvetica,sans-Serif" font-size="10.00">+ despawnFrom()</text>
<text text-anchor="start" x="75.5" y="-701" font-family="Helvetica,sans-Serif" font-size="10.00">+ attack()</text>
<text text-anchor="start" x="75.5" y="-688" font-family="Helvetica,sans-Serif" font-size="10.00">+ heal()</text>
<text text-anchor="start" x="75.5" y="-675" font-family="Helvetica,sans-Serif" font-size="10.00">+ getHealth()</text>
<text text-anchor="start" x="75.5" y="-662" font-family="Helvetica,sans-Serif" font-size="10.00">+ setHealth()</text>
<text text-anchor="start" x="75.5" y="-649" font-family="Helvetica,sans-Serif" font-size="10.00">+ setLastDamageCause()</text>
<text text-anchor="start" x="75.5" y="-636" font-family="Helvetica,sans-Serif" font-size="10.00">and 42 more...</text>
<text text-anchor="start" x="75.5" y="-623" font-family="Helvetica,sans-Serif" font-size="10.00"># initEntity()</text>
<text text-anchor="start" x="75.5" y="-610" font-family="Helvetica,sans-Serif" font-size="10.00"># checkObstruction()</text>
<text text-anchor="start" x="75.5" y="-597" font-family="Helvetica,sans-Serif" font-size="10.00"># updateFallState()</text>
<text text-anchor="start" x="75.5" y="-584" font-family="Helvetica,sans-Serif" font-size="10.00"># switchLevel()</text>
<text text-anchor="start" x="75.5" y="-571" font-family="Helvetica,sans-Serif" font-size="10.00"># checkBlockCollision()</text>
</a>
</g>
<!-- Node4&#45;&gt;Node3 -->
<g id="edge6" class="edge"><title>Node4&#45;&gt;Node3</title>
<path fill="none" stroke="midnightblue" d="M189.41,-552.958C191.261,-543.446 193.045,-534.276 194.74,-525.563"/>
<polygon fill="none" stroke="midnightblue" points="185.932,-552.504 187.458,-562.989 192.803,-553.841 185.932,-552.504"/>
</g>
<!-- Node5 -->
<g id="node8" class="node"><title>Node5</title>
<a xlink:href="../../db/d9b/classpocketmine_1_1level_1_1_position.html" target="_top" xlink:title="{pocketmine\\level\\Position\n|+ $level\l|+ __construct()\l+ getLevel()\l+ setLevel()\l+ isValid()\l+ setStrong()\l+ setWeak()\l+ getSide()\l+ distance()\l+ __toString()\l+ fromObject()\l}">
<polygon fill="white" stroke="black" points="0,-1171 0,-1351 128,-1351 128,-1171 0,-1171"/>
<text text-anchor="middle" x="64" y="-1338" font-family="Helvetica,sans-Serif" font-size="10.00">pocketmine\level\Position</text>
<polyline fill="none" stroke="black" points="0,-1330 128,-1330 "/>
<text text-anchor="start" x="8" y="-1317" font-family="Helvetica,sans-Serif" font-size="10.00">+ $level</text>
<polyline fill="none" stroke="black" points="0,-1309 128,-1309 "/>
<text text-anchor="start" x="8" y="-1296" font-family="Helvetica,sans-Serif" font-size="10.00">+ __construct()</text>
<text text-anchor="start" x="8" y="-1283" font-family="Helvetica,sans-Serif" font-size="10.00">+ getLevel()</text>
<text text-anchor="start" x="8" y="-1270" font-family="Helvetica,sans-Serif" font-size="10.00">+ setLevel()</text>
<text text-anchor="start" x="8" y="-1257" font-family="Helvetica,sans-Serif" font-size="10.00">+ isValid()</text>
<text text-anchor="start" x="8" y="-1244" font-family="Helvetica,sans-Serif" font-size="10.00">+ setStrong()</text>
<text text-anchor="start" x="8" y="-1231" font-family="Helvetica,sans-Serif" font-size="10.00">+ setWeak()</text>
<text text-anchor="start" x="8" y="-1218" font-family="Helvetica,sans-Serif" font-size="10.00">+ getSide()</text>
<text text-anchor="start" x="8" y="-1205" font-family="Helvetica,sans-Serif" font-size="10.00">+ distance()</text>
<text text-anchor="start" x="8" y="-1192" font-family="Helvetica,sans-Serif" font-size="10.00">+ __toString()</text>
<text text-anchor="start" x="8" y="-1179" font-family="Helvetica,sans-Serif" font-size="10.00">+ fromObject()</text>
</a>
</g>
<!-- Node5&#45;&gt;Node4 -->
<g id="edge8" class="edge"><title>Node5&#45;&gt;Node4</title>
<path fill="none" stroke="midnightblue" d="M80.4689,-1160.98C81.9361,-1152.06 83.4631,-1142.79 85.0336,-1133.25"/>
<polygon fill="none" stroke="midnightblue" points="77.0101,-1160.44 78.8389,-1170.88 83.9171,-1161.58 77.0101,-1160.44"/>
</g>
<!-- Node6 -->
<g id="node10" class="node"><title>Node6</title>
<a xlink:href="../../d2/d90/classpocketmine_1_1math_1_1_vector3.html" target="_top" xlink:title="{pocketmine\\math\\Vector3\n|+ $x\l+ $y\l+ $z\l|+ __construct()\l+ getX()\l+ getY()\l+ getZ()\l+ getFloorX()\l+ getFloorY()\l+ getFloorZ()\l+ getRight()\l+ getUp()\l+ getForward()\land 20 more...\l}">
<polygon fill="white" stroke="black" points="0,-1388.5 0,-1607.5 128,-1607.5 128,-1388.5 0,-1388.5"/>
<text text-anchor="middle" x="64" y="-1594.5" font-family="Helvetica,sans-Serif" font-size="10.00">pocketmine\math\Vector3</text>
<polyline fill="none" stroke="black" points="0,-1586.5 128,-1586.5 "/>
<text text-anchor="start" x="8" y="-1573.5" font-family="Helvetica,sans-Serif" font-size="10.00">+ $x</text>
<text text-anchor="start" x="8" y="-1560.5" font-family="Helvetica,sans-Serif" font-size="10.00">+ $y</text>
<text text-anchor="start" x="8" y="-1547.5" font-family="Helvetica,sans-Serif" font-size="10.00">+ $z</text>
<polyline fill="none" stroke="black" points="0,-1539.5 128,-1539.5 "/>
<text text-anchor="start" x="8" y="-1526.5" font-family="Helvetica,sans-Serif" font-size="10.00">+ __construct()</text>
<text text-anchor="start" x="8" y="-1513.5" font-family="Helvetica,sans-Serif" font-size="10.00">+ getX()</text>
<text text-anchor="start" x="8" y="-1500.5" font-family="Helvetica,sans-Serif" font-size="10.00">+ getY()</text>
<text text-anchor="start" x="8" y="-1487.5" font-family="Helvetica,sans-Serif" font-size="10.00">+ getZ()</text>
<text text-anchor="start" x="8" y="-1474.5" font-family="Helvetica,sans-Serif" font-size="10.00">+ getFloorX()</text>
<text text-anchor="start" x="8" y="-1461.5" font-family="Helvetica,sans-Serif" font-size="10.00">+ getFloorY()</text>
<text text-anchor="start" x="8" y="-1448.5" font-family="Helvetica,sans-Serif" font-size="10.00">+ getFloorZ()</text>
<text text-anchor="start" x="8" y="-1435.5" font-family="Helvetica,sans-Serif" font-size="10.00">+ getRight()</text>
<text text-anchor="start" x="8" y="-1422.5" font-family="Helvetica,sans-Serif" font-size="10.00">+ getUp()</text>
<text text-anchor="start" x="8" y="-1409.5" font-family="Helvetica,sans-Serif" font-size="10.00">+ getForward()</text>
<text text-anchor="start" x="8" y="-1396.5" font-family="Helvetica,sans-Serif" font-size="10.00">and 20 more...</text>
</a>
</g>
<!-- Node6&#45;&gt;Node5 -->
<g id="edge10" class="edge"><title>Node6&#45;&gt;Node5</title>
<path fill="none" stroke="midnightblue" d="M64,-1378.02C64,-1369.03 64,-1360.05 64,-1351.28"/>
<polygon fill="none" stroke="midnightblue" points="60.5001,-1378.17 64,-1388.17 67.5001,-1378.17 60.5001,-1378.17"/>
</g>
<!-- Node7 -->
<g id="node12" class="node"><title>Node7</title>
<a xlink:href="../../d8/d0b/interfacepocketmine_1_1metadata_1_1_metadatable.html" target="_top" xlink:title="{pocketmine\\metadata\l\\Metadatable\n||+ setMetadata()\l+ getMetadata()\l+ hasMetadata()\l+ removeMetadata()\l}">
<polygon fill="white" stroke="black" points="146,-1203.5 146,-1318.5 256,-1318.5 256,-1203.5 146,-1203.5"/>
<text text-anchor="start" x="154" y="-1305.5" font-family="Helvetica,sans-Serif" font-size="10.00">pocketmine\metadata</text>
<text text-anchor="middle" x="201" y="-1292.5" font-family="Helvetica,sans-Serif" font-size="10.00">\Metadatable</text>
<polyline fill="none" stroke="black" points="146,-1284.5 256,-1284.5 "/>
<text text-anchor="middle" x="201" y="-1271.5" font-family="Helvetica,sans-Serif" font-size="10.00"> </text>
<polyline fill="none" stroke="black" points="146,-1263.5 256,-1263.5 "/>
<text text-anchor="start" x="154" y="-1250.5" font-family="Helvetica,sans-Serif" font-size="10.00">+ setMetadata()</text>
<text text-anchor="start" x="154" y="-1237.5" font-family="Helvetica,sans-Serif" font-size="10.00">+ getMetadata()</text>
<text text-anchor="start" x="154" y="-1224.5" font-family="Helvetica,sans-Serif" font-size="10.00">+ hasMetadata()</text>
<text text-anchor="start" x="154" y="-1211.5" font-family="Helvetica,sans-Serif" font-size="10.00">+ removeMetadata()</text>
</a>
</g>
<!-- Node7&#45;&gt;Node4 -->
<g id="edge12" class="edge"><title>Node7&#45;&gt;Node4</title>
<path fill="none" stroke="midnightblue" d="M189.638,-1193C186.675,-1175.26 183.288,-1154.99 179.675,-1133.36"/>
<polygon fill="none" stroke="midnightblue" points="186.233,-1193.85 191.333,-1203.14 193.137,-1192.7 186.233,-1193.85"/>
</g>
<!-- Node8 -->
<g id="node14" class="node"><title>Node8</title>
<a xlink:href="../../d7/da6/interfacepocketmine_1_1entity_1_1_damageable.html" target="_top" xlink:title="{pocketmine\\entity\\Damageable\n||}">
<polygon fill="white" stroke="black" points="214,-816.5 214,-879.5 366,-879.5 366,-816.5 214,-816.5"/>
<text text-anchor="middle" x="290" y="-866.5" font-family="Helvetica,sans-Serif" font-size="10.00">pocketmine\entity\Damageable</text>
<polyline fill="none" stroke="black" points="214,-858.5 366,-858.5 "/>
<text text-anchor="middle" x="290" y="-845.5" font-family="Helvetica,sans-Serif" font-size="10.00"> </text>
<polyline fill="none" stroke="black" points="214,-837.5 366,-837.5 "/>
<text text-anchor="middle" x="290" y="-824.5" font-family="Helvetica,sans-Serif" font-size="10.00"> </text>
</a>
</g>
<!-- Node8&#45;&gt;Node3 -->
<g id="edge14" class="edge"><title>Node8&#45;&gt;Node3</title>
<path fill="none" stroke="midnightblue" d="M281.923,-806.491C269.131,-740.749 243.956,-611.37 227.302,-525.782"/>
<polygon fill="none" stroke="midnightblue" points="278.521,-807.332 283.867,-816.48 285.392,-805.995 278.521,-807.332"/>
</g>
<!-- Node9 -->
<g id="node16" class="node"><title>Node9</title>
<a xlink:href="../../de/d83/interfacepocketmine_1_1entity_1_1_projectile_source.html" target="_top" xlink:title="{pocketmine\\entity\\Projectile\lSource\n||}">
<polygon fill="white" stroke="black" points="295.5,-245 295.5,-321 432.5,-321 432.5,-245 295.5,-245"/>
<text text-anchor="start" x="303.5" y="-308" font-family="Helvetica,sans-Serif" font-size="10.00">pocketmine\entity\Projectile</text>
<text text-anchor="middle" x="364" y="-295" font-family="Helvetica,sans-Serif" font-size="10.00">Source</text>
<polyline fill="none" stroke="black" points="295.5,-287 432.5,-287 "/>
<text text-anchor="middle" x="364" y="-274" font-family="Helvetica,sans-Serif" font-size="10.00"> </text>
<polyline fill="none" stroke="black" points="295.5,-266 432.5,-266 "/>
<text text-anchor="middle" x="364" y="-253" font-family="Helvetica,sans-Serif" font-size="10.00"> </text>
</a>
</g>
<!-- Node9&#45;&gt;Node1 -->
<g id="edge16" class="edge"><title>Node9&#45;&gt;Node1</title>
<path fill="none" stroke="midnightblue" d="M364,-234.421C364,-225.788 364,-216.508 364,-207.021"/>
<polygon fill="none" stroke="midnightblue" points="360.5,-234.6 364,-244.6 367.5,-234.6 360.5,-234.6"/>
</g>
<!-- Node10 -->
<g id="node18" class="node"><title>Node10</title>
<a xlink:href="../../d2/d91/interfacepocketmine_1_1inventory_1_1_inventory_holder.html" target="_top" xlink:title="{pocketmine\\inventory\l\\InventoryHolder\n||+ getInventory()\l}">
<polygon fill="white" stroke="black" points="450,-245 450,-321 560,-321 560,-245 450,-245"/>
<text text-anchor="start" x="458" y="-308" font-family="Helvetica,sans-Serif" font-size="10.00">pocketmine\inventory</text>
<text text-anchor="middle" x="505" y="-295" font-family="Helvetica,sans-Serif" font-size="10.00">\InventoryHolder</text>
<polyline fill="none" stroke="black" points="450,-287 560,-287 "/>
<text text-anchor="middle" x="505" y="-274" font-family="Helvetica,sans-Serif" font-size="10.00"> </text>
<polyline fill="none" stroke="black" points="450,-266 560,-266 "/>
<text text-anchor="start" x="458" y="-253" font-family="Helvetica,sans-Serif" font-size="10.00">+ getInventory()</text>
</a>
</g>
<!-- Node10&#45;&gt;Node1 -->
<g id="edge18" class="edge"><title>Node10&#45;&gt;Node1</title>
<path fill="none" stroke="midnightblue" d="M468.473,-236.629C456.125,-220.953 441.949,-202.957 428.106,-185.383"/>
<polygon fill="none" stroke="midnightblue" points="465.815,-238.91 474.752,-244.6 471.313,-234.579 465.815,-238.91"/>
</g>
</g>
</svg>
