<?xml version="1.0" encoding="UTF-8" standalone="no"?>
<!DOCTYPE svg PUBLIC "-//W3C//DTD SVG 1.1//EN"
 "http://www.w3.org/Graphics/SVG/1.1/DTD/svg11.dtd">
<!-- Generated by graphviz version 2.36.0 (20140111.2315)
 -->
<!-- Title: pocketmine\Thread Pages: 1 -->
<svg width="436pt" height="408pt"
 viewBox="0.00 0.00 436.00 408.00" xmlns="http://www.w3.org/2000/svg" xmlns:xlink="http://www.w3.org/1999/xlink">
<g id="graph0" class="graph" transform="scale(1 1) rotate(0) translate(4 404)">
<title>pocketmine\Thread</title>
<polygon fill="white" stroke="none" points="-4,4 -4,-404 432,-404 432,4 -4,4"/>
<!-- Node1 -->
<g id="node1" class="node"><title>Node1</title>
<polygon fill="#bfbfbf" stroke="black" points="165.5,-248.5 165.5,-305.5 274.5,-305.5 274.5,-248.5 165.5,-248.5"/>
<text text-anchor="middle" x="220" y="-293.5" font-family="Helvetica,sans-Serif" font-size="10.00">pocketmine\Thread</text>
<polyline fill="none" stroke="black" points="165.5,-286.5 274.5,-286.5 "/>
<text text-anchor="middle" x="220" y="-274.5" font-family="Helvetica,sans-Serif" font-size="10.00"> </text>
<polyline fill="none" stroke="black" points="165.5,-267.5 274.5,-267.5 "/>
<text text-anchor="start" x="173.5" y="-255.5" font-family="Helvetica,sans-Serif" font-size="10.00">+ start()</text>
</g>
<!-- Node3 -->
<g id="node3" class="node"><title>Node3</title>
<g id="a_node3"><a xlink:href="../../dd/de2/classpocketmine_1_1command_1_1_command_reader.html" target="_top" xlink:title="{pocketmine\\command\l\\CommandReader\n|# $buffer\l|+ __construct()\l+ getLine()\l+ run()\l}">
<polygon fill="white" stroke="black" points="-0.5,-61 -0.5,-151 124.5,-151 124.5,-61 -0.5,-61"/>
<text text-anchor="start" x="7.5" y="-139" font-family="Helvetica,sans-Serif" font-size="10.00">pocketmine\command</text>
<text text-anchor="middle" x="62" y="-128" font-family="Helvetica,sans-Serif" font-size="10.00">\CommandReader</text>
<polyline fill="none" stroke="black" points="-0.5,-121 124.5,-121 "/>
<text text-anchor="start" x="7.5" y="-109" font-family="Helvetica,sans-Serif" font-size="10.00"># $buffer</text>
<polyline fill="none" stroke="black" points="-0.5,-102 124.5,-102 "/>
<text text-anchor="start" x="7.5" y="-90" font-family="Helvetica,sans-Serif" font-size="10.00">+ __construct()</text>
<text text-anchor="start" x="7.5" y="-79" font-family="Helvetica,sans-Serif" font-size="10.00">+ getLine()</text>
<text text-anchor="start" x="7.5" y="-68" font-family="Helvetica,sans-Serif" font-size="10.00">+ run()</text>
</a>
</g>
</g>
<!-- Node1&#45;&gt;Node3 -->
<g id="edge2" class="edge"><title>Node1&#45;&gt;Node3</title>
<path fill="none" stroke="midnightblue" d="M168.116,-242.328C155.924,-233.234 143.451,-222.875 133,-212 115.54,-193.834 99.4957,-170.913 87.0929,-151.125"/>
<polygon fill="none" stroke="midnightblue" points="166.338,-245.362 176.484,-248.413 170.455,-239.701 166.338,-245.362"/>
</g>
<!-- Node4 -->
<g id="node4" class="node"><title>Node4</title>
<g id="a_node4"><a xlink:href="../../d6/de7/classpocketmine_1_1level_1_1generator_1_1_generation_thread.html" target="_top" xlink:title="{pocketmine\\level\\generator\l\\GenerationThread\n|# $loadPaths\l# $loader\l# $logger\l# $externalQueue\l# $internalQueue\l|+ getInternalQueue()\l+ getExternalQueue()\l+ pushMainToThreadPacket()\l+ readMainToThreadPacket()\l+ pushThreadToMainPacket()\l+ readThreadToMainPacket()\l+ getLogger()\l+ __construct()\l+ run()\l# addDependency()\l}">
<polygon fill="white" stroke="black" points="142.5,-0.5 142.5,-211.5 297.5,-211.5 297.5,-0.5 142.5,-0.5"/>
<text text-anchor="start" x="150.5" y="-199.5" font-family="Helvetica,sans-Serif" font-size="10.00">pocketmine\level\generator</text>
<text text-anchor="middle" x="220" y="-188.5" font-family="Helvetica,sans-Serif" font-size="10.00">\GenerationThread</text>
<polyline fill="none" stroke="black" points="142.5,-181.5 297.5,-181.5 "/>
<text text-anchor="start" x="150.5" y="-169.5" font-family="Helvetica,sans-Serif" font-size="10.00"># $loadPaths</text>
<text text-anchor="start" x="150.5" y="-158.5" font-family="Helvetica,sans-Serif" font-size="10.00"># $loader</text>
<text text-anchor="start" x="150.5" y="-147.5" font-family="Helvetica,sans-Serif" font-size="10.00"># $logger</text>
<text text-anchor="start" x="150.5" y="-136.5" font-family="Helvetica,sans-Serif" font-size="10.00"># $externalQueue</text>
<text text-anchor="start" x="150.5" y="-125.5" font-family="Helvetica,sans-Serif" font-size="10.00"># $internalQueue</text>
<polyline fill="none" stroke="black" points="142.5,-118.5 297.5,-118.5 "/>
<text text-anchor="start" x="150.5" y="-106.5" font-family="Helvetica,sans-Serif" font-size="10.00">+ getInternalQueue()</text>
<text text-anchor="start" x="150.5" y="-95.5" font-family="Helvetica,sans-Serif" font-size="10.00">+ getExternalQueue()</text>
<text text-anchor="start" x="150.5" y="-84.5" font-family="Helvetica,sans-Serif" font-size="10.00">+ pushMainToThreadPacket()</text>
<text text-anchor="start" x="150.5" y="-73.5" font-family="Helvetica,sans-Serif" font-size="10.00">+ readMainToThreadPacket()</text>
<text text-anchor="start" x="150.5" y="-62.5" font-family="Helvetica,sans-Serif" font-size="10.00">+ pushThreadToMainPacket()</text>
<text text-anchor="start" x="150.5" y="-51.5" font-family="Helvetica,sans-Serif" font-size="10.00">+ readThreadToMainPacket()</text>
<text text-anchor="start" x="150.5" y="-40.5" font-family="Helvetica,sans-Serif" font-size="10.00">+ getLogger()</text>
<text text-anchor="start" x="150.5" y="-29.5" font-family="Helvetica,sans-Serif" font-size="10.00">+ __construct()</text>
<text text-anchor="start" x="150.5" y="-18.5" font-family="Helvetica,sans-Serif" font-size="10.00">+ run()</text>
<text text-anchor="start" x="150.5" y="-7.5" font-family="Helvetica,sans-Serif" font-size="10.00"># addDependency()</text>
</a>
</g>
</g>
<!-- Node1&#45;&gt;Node4 -->
<g id="edge3" class="edge"><title>Node1&#45;&gt;Node4</title>
<path fill="none" stroke="midnightblue" d="M220,-238.233C220,-230.038 220,-220.987 220,-211.584"/>
<polygon fill="none" stroke="midnightblue" points="216.5,-238.471 220,-248.471 223.5,-238.471 216.5,-238.471"/>
</g>
<!-- Node5 -->
<g id="node5" class="node"><title>Node5</title>
<g id="a_node5"><a xlink:href="../../d3/d92/classpocketmine_1_1network_1_1rcon_1_1_r_c_o_n_instance.html" target="_top" xlink:title="{pocketmine\\network\l\\rcon\\RCONInstance\n|+ $stop\l+ $cmd\l+ $response\l|+ __construct()\l+ close()\l+ run()\l}">
<polygon fill="white" stroke="black" points="315.5,-50 315.5,-162 428.5,-162 428.5,-50 315.5,-50"/>
<text text-anchor="start" x="323.5" y="-150" font-family="Helvetica,sans-Serif" font-size="10.00">pocketmine\network</text>
<text text-anchor="middle" x="372" y="-139" font-family="Helvetica,sans-Serif" font-size="10.00">\rcon\RCONInstance</text>
<polyline fill="none" stroke="black" points="315.5,-132 428.5,-132 "/>
<text text-anchor="start" x="323.5" y="-120" font-family="Helvetica,sans-Serif" font-size="10.00">+ $stop</text>
<text text-anchor="start" x="323.5" y="-109" font-family="Helvetica,sans-Serif" font-size="10.00">+ $cmd</text>
<text text-anchor="start" x="323.5" y="-98" font-family="Helvetica,sans-Serif" font-size="10.00">+ $response</text>
<polyline fill="none" stroke="black" points="315.5,-91 428.5,-91 "/>
<text text-anchor="start" x="323.5" y="-79" font-family="Helvetica,sans-Serif" font-size="10.00">+ __construct()</text>
<text text-anchor="start" x="323.5" y="-68" font-family="Helvetica,sans-Serif" font-size="10.00">+ close()</text>
<text text-anchor="start" x="323.5" y="-57" font-family="Helvetica,sans-Serif" font-size="10.00">+ run()</text>
</a>
</g>
</g>
<!-- Node1&#45;&gt;Node5 -->
<g id="edge4" class="edge"><title>Node1&#45;&gt;Node5</title>
<path fill="none" stroke="midnightblue" d="M271.892,-242.22C283.82,-233.187 295.941,-222.882 306,-212 319.738,-197.137 332.286,-179.033 342.665,-162.071"/>
<polygon fill="none" stroke="midnightblue" points="269.667,-239.512 263.693,-248.262 273.819,-245.147 269.667,-239.512"/>
</g>
<!-- Node2 -->
<g id="node2" class="node"><title>Node2</title>
<polygon fill="white" stroke="#bfbfbf" points="195,-342.5 195,-399.5 245,-399.5 245,-342.5 195,-342.5"/>
<text text-anchor="middle" x="220" y="-387.5" font-family="Helvetica,sans-Serif" font-size="10.00">Thread</text>
<polyline fill="none" stroke="#bfbfbf" points="195,-380.5 245,-380.5 "/>
<text text-anchor="middle" x="220" y="-368.5" font-family="Helvetica,sans-Serif" font-size="10.00"> </text>
<polyline fill="none" stroke="#bfbfbf" points="195,-361.5 245,-361.5 "/>
<text text-anchor="middle" x="220" y="-349.5" font-family="Helvetica,sans-Serif" font-size="10.00"> </text>
</g>
<!-- Node2&#45;&gt;Node1 -->
<g id="edge1" class="edge"><title>Node2&#45;&gt;Node1</title>
<path fill="none" stroke="midnightblue" d="M220,-332.209C220,-323.293 220,-313.951 220,-305.584"/>
<polygon fill="none" stroke="midnightblue" points="216.5,-332.397 220,-342.397 223.5,-332.397 216.5,-332.397"/>
</g>
</g>
</svg>
