<?xml version="1.0" encoding="UTF-8" standalone="no"?>
<!DOCTYPE svg PUBLIC "-//W3C//DTD SVG 1.1//EN"
 "http://www.w3.org/Graphics/SVG/1.1/DTD/svg11.dtd">
<!-- Generated by graphviz version 2.26.3 (20100126.1600)
 -->
<!-- Title: pocketmine\Thread Pages: 1 -->
<!--zoomable 862 -->
<svg id="main" version="1.1" xmlns="http://www.w3.org/2000/svg" xmlns:xlink="http://www.w3.org/1999/xlink" xml:space="preserve" onload="init(evt)">
<style type="text/css"><![CDATA[
.edge:hover path { stroke: red; }
.edge:hover polygon { stroke: red; fill: red; }
]]></style>
<script type="text/javascript"><![CDATA[
var edges = document.getElementsByTagName('g');
if (edges && edges.length) {
  for (var i=0;i<edges.length;i++) {
    if (edges[i].id.substr(0,4)=='edge') {
      edges[i].setAttribute('class','edge');
    }
  }
}
]]></script>
        <defs>
                <circle id="rim" cx="0" cy="0" r="7"/>
                <circle id="rim2" cx="0" cy="0" r="3.5"/>
                <g id="zoomPlus">
                        <use xlink:href="#rim" fill="#404040">
                                <set attributeName="fill" to="#808080" begin="zoomplus.mouseover" end="zoomplus.mouseout"/>
                        </use>
                        <path d="M-4,0h8M0,-4v8" fill="none" stroke="white" stroke-width="1.5" pointer-events="none"/>
                </g>
                <g id="zoomMin">
                        <use xlink:href="#rim" fill="#404040">
                                <set attributeName="fill" to="#808080" begin="zoomminus.mouseover" end="zoomminus.mouseout"/>
                        </use>
                        <path d="M-4,0h8" fill="none" stroke="white" stroke-width="1.5" pointer-events="none"/>
                </g>
                <g id="dirArrow">
                        <path fill="none" stroke="white" stroke-width="1.5" d="M0,-3.0v7 M-2.5,-0.5L0,-3.0L2.5,-0.5"/>
                </g>
               <g id="resetDef">
                       <use xlink:href="#rim2" fill="#404040">
                               <set attributeName="fill" to="#808080" begin="reset.mouseover" end="reset.mouseout"/>
                       </use>
               </g>
        </defs>

<script type="text/javascript">
var viewWidth = 272;
var viewHeight = 862;
var sectionId = 'dynsection-0';
</script>
<script xlink:href="../../svgpan.js"/>
<svg id="graph" class="graph">
<g id="viewport">
<title>pocketmine\Thread</title>
<polygon fill="white" stroke="white" points="-4,5 -4,-858 269,-858 269,5 -4,5"/>
<!-- Node1 -->
<g id="node1" class="node"><title>Node1</title>
<polygon fill="#bfbfbf" stroke="black" points="76,-230.5 76,-293.5 176,-293.5 176,-230.5 76,-230.5"/>
<text text-anchor="middle" x="126" y="-280.5" font-family="Helvetica,sans-Serif" font-size="10.00">pocketmine\Thread</text>
<polyline fill="none" stroke="black" points="76,-272.5 176,-272.5 "/>
<text text-anchor="middle" x="126" y="-259.5" font-family="Helvetica,sans-Serif" font-size="10.00"> </text>
<polyline fill="none" stroke="black" points="76,-251.5 176,-251.5 "/>
<text text-anchor="start" x="84" y="-238.5" font-family="Helvetica,sans-Serif" font-size="10.00">+ start()</text>
</g>
<!-- Node7 -->
<g id="node13" class="node"><title>Node7</title>
<a xlink:href="../../dd/de2/classpocketmine_1_1command_1_1_command_reader.html" target="_top" xlink:title="{pocketmine\\command\l\\CommandReader\n||+ __construct()\l+ getLine()\l+ run()\l}">
<polygon fill="white" stroke="black" points="-0.5,-46 -0.5,-148 112.5,-148 112.5,-46 -0.5,-46"/>
<text text-anchor="start" x="7.5" y="-135" font-family="Helvetica,sans-Serif" font-size="10.00">pocketmine\command</text>
<text text-anchor="middle" x="56" y="-122" font-family="Helvetica,sans-Serif" font-size="10.00">\CommandReader</text>
<polyline fill="none" stroke="black" points="-0.5,-114 112.5,-114 "/>
<text text-anchor="middle" x="56" y="-101" font-family="Helvetica,sans-Serif" font-size="10.00"> </text>
<polyline fill="none" stroke="black" points="-0.5,-93 112.5,-93 "/>
<text text-anchor="start" x="7.5" y="-80" font-family="Helvetica,sans-Serif" font-size="10.00">+ __construct()</text>
<text text-anchor="start" x="7.5" y="-67" font-family="Helvetica,sans-Serif" font-size="10.00">+ getLine()</text>
<text text-anchor="start" x="7.5" y="-54" font-family="Helvetica,sans-Serif" font-size="10.00">+ run()</text>
</a>
</g>
<!-- Node1&#45;&gt;Node7 -->
<g id="edge12" class="edge"><title>Node1&#45;&gt;Node7</title>
<path fill="none" stroke="midnightblue" d="M108.521,-220.799C99.1899,-198.805 87.6203,-171.534 77.7169,-148.19"/>
<polygon fill="none" stroke="midnightblue" points="105.376,-222.347 112.503,-230.186 111.82,-219.614 105.376,-222.347"/>
</g>
<!-- Node8 -->
<g id="node15" class="node"><title>Node8</title>
<a xlink:href="../../d6/de7/classpocketmine_1_1level_1_1generator_1_1_generation_thread.html" target="_top" xlink:title="{pocketmine\\level\\generator\l\\GenerationThread\n|# $loadPaths\l# $loader\l# $logger\l# $externalSocket\l# $internalSocket\l|+ getExternalSocket()\l+ getInternalSocket()\l+ getLogger()\l+ __construct()\l+ run()\l# addDependency()\l}">
<polygon fill="white" stroke="black" points="130,-0.5 130,-193.5 264,-193.5 264,-0.5 130,-0.5"/>
<text text-anchor="start" x="138" y="-180.5" font-family="Helvetica,sans-Serif" font-size="10.00">pocketmine\level\generator</text>
<text text-anchor="middle" x="197" y="-167.5" font-family="Helvetica,sans-Serif" font-size="10.00">\GenerationThread</text>
<polyline fill="none" stroke="black" points="130,-159.5 264,-159.5 "/>
<text text-anchor="start" x="138" y="-146.5" font-family="Helvetica,sans-Serif" font-size="10.00"># $loadPaths</text>
<text text-anchor="start" x="138" y="-133.5" font-family="Helvetica,sans-Serif" font-size="10.00"># $loader</text>
<text text-anchor="start" x="138" y="-120.5" font-family="Helvetica,sans-Serif" font-size="10.00"># $logger</text>
<text text-anchor="start" x="138" y="-107.5" font-family="Helvetica,sans-Serif" font-size="10.00"># $externalSocket</text>
<text text-anchor="start" x="138" y="-94.5" font-family="Helvetica,sans-Serif" font-size="10.00"># $internalSocket</text>
<polyline fill="none" stroke="black" points="130,-86.5 264,-86.5 "/>
<text text-anchor="start" x="138" y="-73.5" font-family="Helvetica,sans-Serif" font-size="10.00">+ getExternalSocket()</text>
<text text-anchor="start" x="138" y="-60.5" font-family="Helvetica,sans-Serif" font-size="10.00">+ getInternalSocket()</text>
<text text-anchor="start" x="138" y="-47.5" font-family="Helvetica,sans-Serif" font-size="10.00">+ getLogger()</text>
<text text-anchor="start" x="138" y="-34.5" font-family="Helvetica,sans-Serif" font-size="10.00">+ __construct()</text>
<text text-anchor="start" x="138" y="-21.5" font-family="Helvetica,sans-Serif" font-size="10.00">+ run()</text>
<text text-anchor="start" x="138" y="-8.5" font-family="Helvetica,sans-Serif" font-size="10.00"># addDependency()</text>
</a>
</g>
<!-- Node1&#45;&gt;Node8 -->
<g id="edge14" class="edge"><title>Node1&#45;&gt;Node8</title>
<path fill="none" stroke="midnightblue" d="M143.66,-220.958C147.316,-212.462 151.314,-203.172 155.423,-193.623"/>
<polygon fill="none" stroke="midnightblue" points="140.427,-219.617 139.69,-230.186 146.857,-222.384 140.427,-219.617"/>
</g>
<!-- Node2 -->
<g id="node2" class="node"><title>Node2</title>
<a xlink:href="../../d8/d18/class_thread.html" target="_top" xlink:title="{Thread\n||+ detach()\l+ getCreatorId()\l+ getThreadId()\l+ isJoined()\l+ isStarted()\l+ join()\l+ kill()\l+ start()\l+ getCurrentThread()\l+ getCurrentThreadId()\l+ globally()\l}">
<polygon fill="white" stroke="black" points="68,-330.5 68,-523.5 184,-523.5 184,-330.5 68,-330.5"/>
<text text-anchor="middle" x="126" y="-510.5" font-family="Helvetica,sans-Serif" font-size="10.00">Thread</text>
<polyline fill="none" stroke="black" points="68,-502.5 184,-502.5 "/>
<text text-anchor="middle" x="126" y="-489.5" font-family="Helvetica,sans-Serif" font-size="10.00"> </text>
<polyline fill="none" stroke="black" points="68,-481.5 184,-481.5 "/>
<text text-anchor="start" x="76" y="-468.5" font-family="Helvetica,sans-Serif" font-size="10.00">+ detach()</text>
<text text-anchor="start" x="76" y="-455.5" font-family="Helvetica,sans-Serif" font-size="10.00">+ getCreatorId()</text>
<text text-anchor="start" x="76" y="-442.5" font-family="Helvetica,sans-Serif" font-size="10.00">+ getThreadId()</text>
<text text-anchor="start" x="76" y="-429.5" font-family="Helvetica,sans-Serif" font-size="10.00">+ isJoined()</text>
<text text-anchor="start" x="76" y="-416.5" font-family="Helvetica,sans-Serif" font-size="10.00">+ isStarted()</text>
<text text-anchor="start" x="76" y="-403.5" font-family="Helvetica,sans-Serif" font-size="10.00">+ join()</text>
<text text-anchor="start" x="76" y="-390.5" font-family="Helvetica,sans-Serif" font-size="10.00">+ kill()</text>
<text text-anchor="start" x="76" y="-377.5" font-family="Helvetica,sans-Serif" font-size="10.00">+ start()</text>
<text text-anchor="start" x="76" y="-364.5" font-family="Helvetica,sans-Serif" font-size="10.00">+ getCurrentThread()</text>
<text text-anchor="start" x="76" y="-351.5" font-family="Helvetica,sans-Serif" font-size="10.00">+ getCurrentThreadId()</text>
<text text-anchor="start" x="76" y="-338.5" font-family="Helvetica,sans-Serif" font-size="10.00">+ globally()</text>
</a>
</g>
<!-- Node2&#45;&gt;Node1 -->
<g id="edge2" class="edge"><title>Node2&#45;&gt;Node1</title>
<path fill="none" stroke="midnightblue" d="M126,-319.798C126,-310.481 126,-301.626 126,-293.774"/>
<polygon fill="none" stroke="midnightblue" points="122.5,-320.064 126,-330.064 129.5,-320.064 122.5,-320.064"/>
</g>
<!-- Node3 -->
<g id="node4" class="node"><title>Node3</title>
<a xlink:href="../../d0/d82/class_threaded.html" target="_top" xlink:title="{Threaded\n||+ chunk()\l+ count()\l+ getTerminationInfo()\l+ isRunning()\l+ isTerminated()\l+ isWaiting()\l+ lock()\l+ merge()\l+ notify()\l+ offsetGet()\land 9 more...\l}">
<polygon fill="white" stroke="black" points="69.5,-560.5 69.5,-753.5 182.5,-753.5 182.5,-560.5 69.5,-560.5"/>
<text text-anchor="middle" x="126" y="-740.5" font-family="Helvetica,sans-Serif" font-size="10.00">Threaded</text>
<polyline fill="none" stroke="black" points="69.5,-732.5 182.5,-732.5 "/>
<text text-anchor="middle" x="126" y="-719.5" font-family="Helvetica,sans-Serif" font-size="10.00"> </text>
<polyline fill="none" stroke="black" points="69.5,-711.5 182.5,-711.5 "/>
<text text-anchor="start" x="77.5" y="-698.5" font-family="Helvetica,sans-Serif" font-size="10.00">+ chunk()</text>
<text text-anchor="start" x="77.5" y="-685.5" font-family="Helvetica,sans-Serif" font-size="10.00">+ count()</text>
<text text-anchor="start" x="77.5" y="-672.5" font-family="Helvetica,sans-Serif" font-size="10.00">+ getTerminationInfo()</text>
<text text-anchor="start" x="77.5" y="-659.5" font-family="Helvetica,sans-Serif" font-size="10.00">+ isRunning()</text>
<text text-anchor="start" x="77.5" y="-646.5" font-family="Helvetica,sans-Serif" font-size="10.00">+ isTerminated()</text>
<text text-anchor="start" x="77.5" y="-633.5" font-family="Helvetica,sans-Serif" font-size="10.00">+ isWaiting()</text>
<text text-anchor="start" x="77.5" y="-620.5" font-family="Helvetica,sans-Serif" font-size="10.00">+ lock()</text>
<text text-anchor="start" x="77.5" y="-607.5" font-family="Helvetica,sans-Serif" font-size="10.00">+ merge()</text>
<text text-anchor="start" x="77.5" y="-594.5" font-family="Helvetica,sans-Serif" font-size="10.00">+ notify()</text>
<text text-anchor="start" x="77.5" y="-581.5" font-family="Helvetica,sans-Serif" font-size="10.00">+ offsetGet()</text>
<text text-anchor="start" x="77.5" y="-568.5" font-family="Helvetica,sans-Serif" font-size="10.00">and 9 more...</text>
</a>
</g>
<!-- Node3&#45;&gt;Node2 -->
<g id="edge4" class="edge"><title>Node3&#45;&gt;Node2</title>
<path fill="none" stroke="midnightblue" d="M126,-550.423C126,-541.499 126,-532.507 126,-523.663"/>
<polygon fill="none" stroke="midnightblue" points="122.5,-550.459 126,-560.459 129.5,-550.459 122.5,-550.459"/>
</g>
<!-- Node4 -->
<g id="node6" class="node"><title>Node4</title>
<polygon fill="white" stroke="#bfbfbf" points="10,-790.5 10,-853.5 78,-853.5 78,-790.5 10,-790.5"/>
<text text-anchor="middle" x="44" y="-840.5" font-family="Helvetica,sans-Serif" font-size="10.00">Traversable</text>
<polyline fill="none" stroke="#bfbfbf" points="10,-832.5 78,-832.5 "/>
<text text-anchor="middle" x="44" y="-819.5" font-family="Helvetica,sans-Serif" font-size="10.00"> </text>
<polyline fill="none" stroke="#bfbfbf" points="10,-811.5 78,-811.5 "/>
<text text-anchor="middle" x="44" y="-798.5" font-family="Helvetica,sans-Serif" font-size="10.00"> </text>
</g>
<!-- Node4&#45;&gt;Node3 -->
<g id="edge6" class="edge"><title>Node4&#45;&gt;Node3</title>
<path fill="none" stroke="midnightblue" d="M64.3964,-780.958C68.619,-772.462 73.2356,-763.172 77.9815,-753.623"/>
<polygon fill="none" stroke="midnightblue" points="61.1266,-779.674 59.8104,-790.186 67.3952,-782.789 61.1266,-779.674"/>
</g>
<!-- Node5 -->
<g id="node8" class="node"><title>Node5</title>
<polygon fill="white" stroke="#bfbfbf" points="95.5,-790.5 95.5,-853.5 156.5,-853.5 156.5,-790.5 95.5,-790.5"/>
<text text-anchor="middle" x="126" y="-840.5" font-family="Helvetica,sans-Serif" font-size="10.00">Countable</text>
<polyline fill="none" stroke="#bfbfbf" points="95.5,-832.5 156.5,-832.5 "/>
<text text-anchor="middle" x="126" y="-819.5" font-family="Helvetica,sans-Serif" font-size="10.00"> </text>
<polyline fill="none" stroke="#bfbfbf" points="95.5,-811.5 156.5,-811.5 "/>
<text text-anchor="middle" x="126" y="-798.5" font-family="Helvetica,sans-Serif" font-size="10.00"> </text>
</g>
<!-- Node5&#45;&gt;Node3 -->
<g id="edge8" class="edge"><title>Node5&#45;&gt;Node3</title>
<path fill="none" stroke="midnightblue" d="M126,-780.134C126,-771.862 126,-762.864 126,-753.623"/>
<polygon fill="none" stroke="midnightblue" points="122.5,-780.186 126,-790.186 129.5,-780.186 122.5,-780.186"/>
</g>
<!-- Node6 -->
<g id="node10" class="node"><title>Node6</title>
<polygon fill="white" stroke="#bfbfbf" points="173.5,-790.5 173.5,-853.5 246.5,-853.5 246.5,-790.5 173.5,-790.5"/>
<text text-anchor="middle" x="210" y="-840.5" font-family="Helvetica,sans-Serif" font-size="10.00">ArrayAccess</text>
<polyline fill="none" stroke="#bfbfbf" points="173.5,-832.5 246.5,-832.5 "/>
<text text-anchor="middle" x="210" y="-819.5" font-family="Helvetica,sans-Serif" font-size="10.00"> </text>
<polyline fill="none" stroke="#bfbfbf" points="173.5,-811.5 246.5,-811.5 "/>
<text text-anchor="middle" x="210" y="-798.5" font-family="Helvetica,sans-Serif" font-size="10.00"> </text>
</g>
<!-- Node6&#45;&gt;Node3 -->
<g id="edge10" class="edge"><title>Node6&#45;&gt;Node3</title>
<path fill="none" stroke="midnightblue" d="M189.246,-781.232C184.882,-772.661 180.104,-763.275 175.19,-753.623"/>
<polygon fill="none" stroke="midnightblue" points="186.148,-782.863 193.804,-790.186 192.386,-779.687 186.148,-782.863"/>
</g>
</g>
</svg>
        <g id="navigator" transform="translate(0 0)" fill="#404254">
                <rect fill="#f2f5e9" fill-opacity="0.5" stroke="#606060" stroke-width=".5" x="0" y="0" width="60" height="60"/>
                <use id="zoomplus" xlink:href="#zoomPlus" x="17" y="9" onmousedown="handleZoom(evt,'in')"/>
                <use id="zoomminus" xlink:href="#zoomMin" x="42" y="9" onmousedown="handleZoom(evt,'out')"/>
                <use id="reset" xlink:href="#resetDef" x="30" y="36" onmousedown="handleReset()"/>
                <g id="arrowUp" xlink:href="#dirArrow" transform="translate(30 24)" onmousedown="handlePan(0,-1)">
                  <use xlink:href="#rim" fill="#404040">
                        <set attributeName="fill" to="#808080" begin="arrowUp.mouseover" end="arrowUp.mouseout"/>
                  </use>
                  <path fill="none" stroke="white" stroke-width="1.5" d="M0,-3.0v7 M-2.5,-0.5L0,-3.0L2.5,-0.5"/>
                </g>
                <g id="arrowRight" xlink:href="#dirArrow" transform="rotate(90) translate(36 -43)" onmousedown="handlePan(1,0)">
                  <use xlink:href="#rim" fill="#404040">
                        <set attributeName="fill" to="#808080" begin="arrowRight.mouseover" end="arrowRight.mouseout"/>
                  </use>
                  <path fill="none" stroke="white" stroke-width="1.5" d="M0,-3.0v7 M-2.5,-0.5L0,-3.0L2.5,-0.5"/>
                </g>
                <g id="arrowDown" xlink:href="#dirArrow" transform="rotate(180) translate(-30 -48)" onmousedown="handlePan(0,1)">
                  <use xlink:href="#rim" fill="#404040">
                        <set attributeName="fill" to="#808080" begin="arrowDown.mouseover" end="arrowDown.mouseout"/>
                  </use>
                  <path fill="none" stroke="white" stroke-width="1.5" d="M0,-3.0v7 M-2.5,-0.5L0,-3.0L2.5,-0.5"/>
                </g>
                <g id="arrowLeft" xlink:href="#dirArrow" transform="rotate(270) translate(-36 17)" onmousedown="handlePan(-1,0)">
                  <use xlink:href="#rim" fill="#404040">
                        <set attributeName="fill" to="#808080" begin="arrowLeft.mouseover" end="arrowLeft.mouseout"/>
                  </use>
                  <path fill="none" stroke="white" stroke-width="1.5" d="M0,-3.0v7 M-2.5,-0.5L0,-3.0L2.5,-0.5"/>
                </g>
        </g>
        <svg viewBox="0 0 15 15" width="100%" height="30px" preserveAspectRatio="xMaxYMin meet">
         <g id="arrow_out" transform="scale(0.3 0.3)">
          <a xlink:href="classpocketmine_1_1_thread__inherit__graph_org.svg" target="_base">
           <rect id="button" ry="5" rx="5" y="6" x="6" height="38" width="38"
                fill="#f2f5e9" fill-opacity="0.5" stroke="#606060" stroke-width="1.0"/>
           <path id="arrow"
             d="M 11.500037,31.436501 C 11.940474,20.09759 22.043105,11.32322 32.158766,21.979434 L 37.068811,17.246167 C 37.068811,17.246167 37.088388,32 37.088388,32 L 22.160133,31.978069 C 22.160133,31.978069 26.997745,27.140456 26.997745,27.140456 C 18.528582,18.264221 13.291696,25.230495 11.500037,31.436501 z"
             style="fill:#404040;"/>
          </a>
         </g>
        </svg>
</svg>
