<?xml version="1.0" encoding="UTF-8" standalone="no"?>
<!DOCTYPE svg PUBLIC "-//W3C//DTD SVG 1.1//EN"
 "http://www.w3.org/Graphics/SVG/1.1/DTD/svg11.dtd">
<!-- Generated by graphviz version 2.26.3 (20100126.1600)
 -->
<!-- Title: G Pages: 1 -->
<svg width="466pt" height="364pt"
 viewBox="0.00 0.00 466.00 364.00" xmlns="http://www.w3.org/2000/svg" xmlns:xlink="http://www.w3.org/1999/xlink">
<g id="graph1" class="graph" transform="scale(1 1) rotate(0) translate(4 360)">
<title>G</title>
<polygon fill="white" stroke="white" points="-4,5 -4,-360 463,-360 463,5 -4,5"/>
<!-- Node1 -->
<g id="node1" class="node"><title>Node1</title>
<polygon fill="#bfbfbf" stroke="black" points="125.5,-100.5 125.5,-241.5 314.5,-241.5 314.5,-100.5 125.5,-100.5"/>
<text text-anchor="middle" x="220" y="-228.5" font-family="Helvetica,sans-Serif" font-size="10.00">pocketmine\inventory\ShapelessRecipe</text>
<polyline fill="none" stroke="black" points="125.5,-220.5 314.5,-220.5 "/>
<text text-anchor="middle" x="220" y="-207.5" font-family="Helvetica,sans-Serif" font-size="10.00"> </text>
<polyline fill="none" stroke="black" points="125.5,-199.5 314.5,-199.5 "/>
<text text-anchor="start" x="133.5" y="-186.5" font-family="Helvetica,sans-Serif" font-size="10.00">+ __construct()</text>
<text text-anchor="start" x="133.5" y="-173.5" font-family="Helvetica,sans-Serif" font-size="10.00">+ getResult()</text>
<text text-anchor="start" x="133.5" y="-160.5" font-family="Helvetica,sans-Serif" font-size="10.00">+ addIngredient()</text>
<text text-anchor="start" x="133.5" y="-147.5" font-family="Helvetica,sans-Serif" font-size="10.00">+ removeIngredient()</text>
<text text-anchor="start" x="133.5" y="-134.5" font-family="Helvetica,sans-Serif" font-size="10.00">+ getIngredientList()</text>
<text text-anchor="start" x="133.5" y="-121.5" font-family="Helvetica,sans-Serif" font-size="10.00">+ getIngredientCount()</text>
<text text-anchor="start" x="133.5" y="-108.5" font-family="Helvetica,sans-Serif" font-size="10.00">+ registerToCraftingManager()</text>
</g>
<!-- Node3 -->
<g id="node5" class="node"><title>Node3</title>
<a xlink:href="../../d8/d7b/classpocketmine_1_1inventory_1_1_big_shapeless_recipe.html" target="_top" xlink:title="{pocketmine\\inventory\\BigShapelessRecipe\n||}">
<polygon fill="white" stroke="black" points="-0.5,-0.5 -0.5,-63.5 202.5,-63.5 202.5,-0.5 -0.5,-0.5"/>
<text text-anchor="middle" x="101" y="-50.5" font-family="Helvetica,sans-Serif" font-size="10.00">pocketmine\inventory\BigShapelessRecipe</text>
<polyline fill="none" stroke="black" points="-0.5,-42.5 202.5,-42.5 "/>
<text text-anchor="middle" x="101" y="-29.5" font-family="Helvetica,sans-Serif" font-size="10.00"> </text>
<polyline fill="none" stroke="black" points="-0.5,-21.5 202.5,-21.5 "/>
<text text-anchor="middle" x="101" y="-8.5" font-family="Helvetica,sans-Serif" font-size="10.00"> </text>
</a>
</g>
<!-- Node1&#45;&gt;Node3 -->
<g id="edge4" class="edge"><title>Node1&#45;&gt;Node3</title>
<path fill="none" stroke="midnightblue" d="M152.755,-92.4533C144.036,-82.2684 135.542,-72.3472 128.04,-63.5847"/>
<polygon fill="none" stroke="midnightblue" points="150.292,-94.9581 159.454,-100.278 155.609,-90.4057 150.292,-94.9581"/>
</g>
<!-- Node4 -->
<g id="node7" class="node"><title>Node4</title>
<a xlink:href="../../d5/da2/classpocketmine_1_1inventory_1_1_stonecutter_shapeless_recipe.html" target="_top" xlink:title="{pocketmine\\inventory\\StonecutterShapelessRecipe\n||}">
<polygon fill="white" stroke="black" points="219.5,-0.5 219.5,-63.5 458.5,-63.5 458.5,-0.5 219.5,-0.5"/>
<text text-anchor="middle" x="339" y="-50.5" font-family="Helvetica,sans-Serif" font-size="10.00">pocketmine\inventory\StonecutterShapelessRecipe</text>
<polyline fill="none" stroke="black" points="219.5,-42.5 458.5,-42.5 "/>
<text text-anchor="middle" x="339" y="-29.5" font-family="Helvetica,sans-Serif" font-size="10.00"> </text>
<polyline fill="none" stroke="black" points="219.5,-21.5 458.5,-21.5 "/>
<text text-anchor="middle" x="339" y="-8.5" font-family="Helvetica,sans-Serif" font-size="10.00"> </text>
</a>
</g>
<!-- Node1&#45;&gt;Node4 -->
<g id="edge6" class="edge"><title>Node1&#45;&gt;Node4</title>
<path fill="none" stroke="midnightblue" d="M287.245,-92.4533C295.964,-82.2684 304.458,-72.3472 311.96,-63.5847"/>
<polygon fill="none" stroke="midnightblue" points="284.391,-90.4057 280.546,-100.278 289.708,-94.9581 284.391,-90.4057"/>
</g>
<!-- Node2 -->
<g id="node2" class="node"><title>Node2</title>
<a xlink:href="../../d7/d3c/interfacepocketmine_1_1inventory_1_1_recipe.html" target="_top" xlink:title="{pocketmine\\inventory\\Recipe\n||+ getResult()\l+ registerToCraftingManager()\l}">
<polygon fill="white" stroke="black" points="146.5,-279 146.5,-355 293.5,-355 293.5,-279 146.5,-279"/>
<text text-anchor="middle" x="220" y="-342" font-family="Helvetica,sans-Serif" font-size="10.00">pocketmine\inventory\Recipe</text>
<polyline fill="none" stroke="black" points="146.5,-334 293.5,-334 "/>
<text text-anchor="middle" x="220" y="-321" font-family="Helvetica,sans-Serif" font-size="10.00"> </text>
<polyline fill="none" stroke="black" points="146.5,-313 293.5,-313 "/>
<text text-anchor="start" x="154.5" y="-300" font-family="Helvetica,sans-Serif" font-size="10.00">+ getResult()</text>
<text text-anchor="start" x="154.5" y="-287" font-family="Helvetica,sans-Serif" font-size="10.00">+ registerToCraftingManager()</text>
</a>
</g>
<!-- Node2&#45;&gt;Node1 -->
<g id="edge2" class="edge"><title>Node2&#45;&gt;Node1</title>
<path fill="none" stroke="midnightblue" d="M220,-268.419C220,-259.8 220,-250.667 220,-241.584"/>
<polygon fill="none" stroke="midnightblue" points="216.5,-268.64 220,-278.64 223.5,-268.64 216.5,-268.64"/>
</g>
</g>
</svg>
