<?xml version="1.0" encoding="UTF-8" standalone="no"?>
<!DOCTYPE svg PUBLIC "-//W3C//DTD SVG 1.1//EN"
 "http://www.w3.org/Graphics/SVG/1.1/DTD/svg11.dtd">
<!-- Generated by graphviz version 2.26.3 (20100126.1600)
 -->
<!-- Title: pocketmine\plugin\PharPluginLoader\disablePlugin Pages: 1 -->
<svg width="316pt" height="42pt"
 viewBox="0.00 0.00 316.00 42.00" xmlns="http://www.w3.org/2000/svg" xmlns:xlink="http://www.w3.org/1999/xlink">
<g id="graph1" class="graph" transform="scale(1 1) rotate(0) translate(4 38)">
<title>pocketmine\plugin\PharPluginLoader\disablePlugin</title>
<polygon fill="white" stroke="white" points="-4,5 -4,-38 313,-38 313,5 -4,5"/>
<!-- Node1 -->
<g id="node1" class="node"><title>Node1</title>
<polygon fill="#bfbfbf" stroke="black" points="0,-0 0,-34 146,-34 146,-0 0,-0"/>
<text text-anchor="start" x="8" y="-21" font-family="Helvetica,sans-Serif" font-size="10.00">pocketmine\plugin\PharPlugin</text>
<text text-anchor="middle" x="73" y="-8" font-family="Helvetica,sans-Serif" font-size="10.00">Loader\disablePlugin</text>
</g>
<!-- Node2 -->
<g id="node3" class="node"><title>Node2</title>
<a xlink:href="../../d4/d92/interfacepocketmine_1_1plugin_1_1_plugin.html#ab7ef321b514dbd4462709e5b23278b64" target="_top" xlink:title="pocketmine\\plugin\\Plugin\l\\getDescription">
<polygon fill="white" stroke="black" points="182.5,-0 182.5,-34 307.5,-34 307.5,-0 182.5,-0"/>
<text text-anchor="start" x="190.5" y="-21" font-family="Helvetica,sans-Serif" font-size="10.00">pocketmine\plugin\Plugin</text>
<text text-anchor="middle" x="245" y="-8" font-family="Helvetica,sans-Serif" font-size="10.00">\getDescription</text>
</a>
</g>
<!-- Node1&#45;&gt;Node2 -->
<g id="edge2" class="edge"><title>Node1&#45;&gt;Node2</title>
<path fill="none" stroke="midnightblue" d="M146.442,-17C154.946,-17 163.617,-17 172.113,-17"/>
<polygon fill="midnightblue" stroke="midnightblue" points="172.367,-20.5001 182.367,-17 172.367,-13.5001 172.367,-20.5001"/>
</g>
</g>
</svg>
