<?xml version="1.0" encoding="UTF-8" standalone="no"?>
<!DOCTYPE svg PUBLIC "-//W3C//DTD SVG 1.1//EN"
 "http://www.w3.org/Graphics/SVG/1.1/DTD/svg11.dtd">
<!-- Generated by graphviz version 2.26.3 (20100126.1600)
 -->
<!-- Title: pocketmine\plugin\PharPluginLoader\getPluginDescription Pages: 1 -->
<svg width="336pt" height="42pt"
 viewBox="0.00 0.00 336.00 42.00" xmlns="http://www.w3.org/2000/svg" xmlns:xlink="http://www.w3.org/1999/xlink">
<g id="graph1" class="graph" transform="scale(1 1) rotate(0) translate(4 38)">
<title>pocketmine\plugin\PharPluginLoader\getPluginDescription</title>
<polygon fill="white" stroke="white" points="-4,5 -4,-38 333,-38 333,5 -4,5"/>
<!-- Node1 -->
<g id="node1" class="node"><title>Node1</title>
<polygon fill="#bfbfbf" stroke="black" points="0,-0 0,-34 146,-34 146,-0 0,-0"/>
<text text-anchor="start" x="8" y="-21" font-family="Helvetica,sans-Serif" font-size="10.00">pocketmine\plugin\PharPlugin</text>
<text text-anchor="middle" x="73" y="-8" font-family="Helvetica,sans-Serif" font-size="10.00">Loader\getPluginDescription</text>
</g>
<!-- Node2 -->
<g id="node3" class="node"><title>Node2</title>
<a xlink:href="../../d5/dbf/classpocketmine_1_1plugin_1_1_phar_plugin_loader.html#ad5b933ba51f59db95082c38beb7ae747" target="_top" xlink:title="pocketmine\\plugin\\PharPlugin\lLoader\\loadPlugin">
<polygon fill="white" stroke="black" points="182,-0 182,-34 328,-34 328,-0 182,-0"/>
<text text-anchor="start" x="190" y="-21" font-family="Helvetica,sans-Serif" font-size="10.00">pocketmine\plugin\PharPlugin</text>
<text text-anchor="middle" x="255" y="-8" font-family="Helvetica,sans-Serif" font-size="10.00">Loader\loadPlugin</text>
</a>
</g>
<!-- Node1&#45;&gt;Node2 -->
<g id="edge2" class="edge"><title>Node1&#45;&gt;Node2</title>
<path fill="none" stroke="midnightblue" d="M156.516,-17C164.992,-17 173.556,-17 181.91,-17"/>
<polygon fill="midnightblue" stroke="midnightblue" points="156.24,-13.5001 146.24,-17 156.24,-20.5001 156.24,-13.5001"/>
</g>
</g>
</svg>
