<?xml version="1.0" encoding="UTF-8" standalone="no"?>
<!DOCTYPE svg PUBLIC "-//W3C//DTD SVG 1.1//EN"
 "http://www.w3.org/Graphics/SVG/1.1/DTD/svg11.dtd">
<!-- Generated by graphviz version 2.36.0 (20140111.2315)
 -->
<!-- Title: pocketmine\level\generator\populator\Pond Pages: 1 -->
<svg width="156pt" height="216pt"
 viewBox="0.00 0.00 156.00 216.00" xmlns="http://www.w3.org/2000/svg" xmlns:xlink="http://www.w3.org/1999/xlink">
<g id="graph0" class="graph" transform="scale(1 1) rotate(0) translate(4 212)">
<title>pocketmine\level\generator\populator\Pond</title>
<polygon fill="white" stroke="none" points="-4,4 -4,-212 152,-212 152,4 -4,4"/>
<!-- Node1 -->
<g id="node1" class="node"><title>Node1</title>
<polygon fill="#bfbfbf" stroke="black" points="0,-0.5 0,-101.5 148,-101.5 148,-0.5 0,-0.5"/>
<text text-anchor="start" x="8" y="-89.5" font-family="Helvetica,sans-Serif" font-size="10.00">pocketmine\level\generator</text>
<text text-anchor="middle" x="74" y="-78.5" font-family="Helvetica,sans-Serif" font-size="10.00">\populator\Pond</text>
<polyline fill="none" stroke="black" points="0,-71.5 148,-71.5 "/>
<text text-anchor="middle" x="74" y="-59.5" font-family="Helvetica,sans-Serif" font-size="10.00"> </text>
<polyline fill="none" stroke="black" points="0,-52.5 148,-52.5 "/>
<text text-anchor="start" x="8" y="-40.5" font-family="Helvetica,sans-Serif" font-size="10.00">+ populate()</text>
<text text-anchor="start" x="8" y="-29.5" font-family="Helvetica,sans-Serif" font-size="10.00">+ setWaterOdd()</text>
<text text-anchor="start" x="8" y="-18.5" font-family="Helvetica,sans-Serif" font-size="10.00">+ setLavaOdd()</text>
<text text-anchor="start" x="8" y="-7.5" font-family="Helvetica,sans-Serif" font-size="10.00">+ setLavaSurfaceOdd()</text>
</g>
<!-- Node2 -->
<g id="node2" class="node"><title>Node2</title>
<g id="a_node2"><a xlink:href="../../db/de9/classpocketmine_1_1level_1_1generator_1_1populator_1_1_populator.html" target="_top" xlink:title="{pocketmine\\level\\generator\l\\populator\\Populator\n||+ populate()\l}">
<polygon fill="white" stroke="black" points="0,-139 0,-207 148,-207 148,-139 0,-139"/>
<text text-anchor="start" x="8" y="-195" font-family="Helvetica,sans-Serif" font-size="10.00">pocketmine\level\generator</text>
<text text-anchor="middle" x="74" y="-184" font-family="Helvetica,sans-Serif" font-size="10.00">\populator\Populator</text>
<polyline fill="none" stroke="black" points="0,-177 148,-177 "/>
<text text-anchor="middle" x="74" y="-165" font-family="Helvetica,sans-Serif" font-size="10.00"> </text>
<polyline fill="none" stroke="black" points="0,-158 148,-158 "/>
<text text-anchor="start" x="8" y="-146" font-family="Helvetica,sans-Serif" font-size="10.00">+ populate()</text>
</a>
</g>
</g>
<!-- Node2&#45;&gt;Node1 -->
<g id="edge1" class="edge"><title>Node2&#45;&gt;Node1</title>
<path fill="none" stroke="midnightblue" d="M74,-128.831C74,-120.01 74,-110.661 74,-101.636"/>
<polygon fill="none" stroke="midnightblue" points="70.5001,-128.892 74,-138.892 77.5001,-128.892 70.5001,-128.892"/>
</g>
</g>
</svg>
