<?xml version="1.0" encoding="UTF-8" standalone="no"?>
<!DOCTYPE svg PUBLIC "-//W3C//DTD SVG 1.1//EN"
 "http://www.w3.org/Graphics/SVG/1.1/DTD/svg11.dtd">
<!-- Generated by graphviz version 2.26.3 (20100126.1600)
 -->
<!-- Title: level Pages: 1 -->
<svg width="332pt" height="113pt"
 viewBox="0.00 0.00 332.00 113.00" xmlns="http://www.w3.org/2000/svg" xmlns:xlink="http://www.w3.org/1999/xlink">
<g id="graph1" class="graph" transform="scale(1 1) rotate(0) translate(4 109)">
<title>level</title>
<polygon fill="white" stroke="white" points="-4,5 -4,-109 329,-109 329,5 -4,5"/>
<g id="graph2" class="cluster"><title>clusterdir_a7b4ba6007d53b13eb8268d4af6bc970</title>
<a xlink:href="dir_a7b4ba6007d53b13eb8268d4af6bc970.html" target="_top" xlink:title="pocketmine">
<polygon fill="#ddddee" stroke="black" points="8,-8 8,-97 316,-97 316,-8 8,-8"/>
<text text-anchor="middle" x="162" y="-84" font-family="Helvetica,sans-Serif" font-size="10.00">pocketmine</text>
</a>
</g>
<g id="graph3" class="cluster"><title>clusterdir_a287ac9274d6ad8d17595f034a4f5bab</title>
<a xlink:href="dir_a287ac9274d6ad8d17595f034a4f5bab.html" target="_top">
<polygon fill="#eeeeff" stroke="black" points="16,-16 16,-68 308,-68 308,-16 16,-16"/>
</a>
</g>
<!-- dir_a287ac9274d6ad8d17595f034a4f5bab -->
<g id="node3" class="node"><title>dir_a287ac9274d6ad8d17595f034a4f5bab</title>
<text text-anchor="middle" x="273" y="-39.5" font-family="Helvetica,sans-Serif" font-size="10.00">level</text>
</g>
<!-- dir_46c31ac919fa9b5df43dd7da5c93ab41 -->
<g id="node4" class="node"><title>dir_46c31ac919fa9b5df43dd7da5c93ab41</title>
<a xlink:href="dir_46c31ac919fa9b5df43dd7da5c93ab41.html" target="_top" xlink:title="conversor">
<polygon fill="white" stroke="red" points="228,-60 170,-60 170,-24 228,-24 228,-60"/>
<text text-anchor="middle" x="199" y="-39.5" font-family="Helvetica,sans-Serif" font-size="10.00">conversor</text>
</a>
</g>
<!-- dir_fa1ca92a253fddb53afffe9aad74dd6d -->
<g id="node5" class="node"><title>dir_fa1ca92a253fddb53afffe9aad74dd6d</title>
<a xlink:href="dir_fa1ca92a253fddb53afffe9aad74dd6d.html" target="_top" xlink:title="format">
<polygon fill="white" stroke="red" points="152,-60 98,-60 98,-24 152,-24 152,-60"/>
<text text-anchor="middle" x="125" y="-39.5" font-family="Helvetica,sans-Serif" font-size="10.00">format</text>
</a>
</g>
<!-- dir_97dbd08f246e0eea421a4a9290c28066 -->
<g id="node6" class="node"><title>dir_97dbd08f246e0eea421a4a9290c28066</title>
<a xlink:href="dir_97dbd08f246e0eea421a4a9290c28066.html" target="_top" xlink:title="generator">
<polygon fill="white" stroke="red" points="80,-60 24,-60 24,-24 80,-24 80,-60"/>
<text text-anchor="middle" x="52" y="-39.5" font-family="Helvetica,sans-Serif" font-size="10.00">generator</text>
</a>
</g>
</g>
</svg>
