<?xml version="1.0" encoding="UTF-8" standalone="no"?>
<!DOCTYPE svg PUBLIC "-//W3C//DTD SVG 1.1//EN"
 "http://www.w3.org/Graphics/SVG/1.1/DTD/svg11.dtd">
<!-- Generated by graphviz version 2.26.3 (20100126.1600)
 -->
<!-- Title: format Pages: 1 -->
<svg width="328pt" height="113pt"
 viewBox="0.00 0.00 328.00 113.00" xmlns="http://www.w3.org/2000/svg" xmlns:xlink="http://www.w3.org/1999/xlink">
<g id="graph1" class="graph" transform="scale(1 1) rotate(0) translate(4 109)">
<title>format</title>
<polygon fill="white" stroke="white" points="-4,5 -4,-109 325,-109 325,5 -4,5"/>
<g id="graph2" class="cluster"><title>clusterdir_a287ac9274d6ad8d17595f034a4f5bab</title>
<a xlink:href="dir_a287ac9274d6ad8d17595f034a4f5bab.html" target="_top" xlink:title="level">
<polygon fill="#ddddee" stroke="black" points="8,-8 8,-97 312,-97 312,-8 8,-8"/>
<text text-anchor="middle" x="160" y="-84" font-family="Helvetica,sans-Serif" font-size="10.00">level</text>
</a>
</g>
<g id="graph3" class="cluster"><title>clusterdir_fa1ca92a253fddb53afffe9aad74dd6d</title>
<a xlink:href="dir_fa1ca92a253fddb53afffe9aad74dd6d.html" target="_top">
<polygon fill="#eeeeff" stroke="black" points="16,-16 16,-68 304,-68 304,-16 16,-16"/>
</a>
</g>
<!-- dir_fa1ca92a253fddb53afffe9aad74dd6d -->
<g id="node3" class="node"><title>dir_fa1ca92a253fddb53afffe9aad74dd6d</title>
<text text-anchor="middle" x="269" y="-39.5" font-family="Helvetica,sans-Serif" font-size="10.00">format</text>
</g>
<!-- dir_edd37f8597ae377d7dcb0fbd38eb5800 -->
<g id="node4" class="node"><title>dir_edd37f8597ae377d7dcb0fbd38eb5800</title>
<a xlink:href="dir_edd37f8597ae377d7dcb0fbd38eb5800.html" target="_top" xlink:title="anvil">
<polygon fill="white" stroke="black" points="224,-60 170,-60 170,-24 224,-24 224,-60"/>
<text text-anchor="middle" x="197" y="-39.5" font-family="Helvetica,sans-Serif" font-size="10.00">anvil</text>
</a>
</g>
<!-- dir_6df9e3d3a44a7c10dc96630aa05f0f27 -->
<g id="node5" class="node"><title>dir_6df9e3d3a44a7c10dc96630aa05f0f27</title>
<a xlink:href="dir_6df9e3d3a44a7c10dc96630aa05f0f27.html" target="_top" xlink:title="generic">
<polygon fill="white" stroke="black" points="152,-60 98,-60 98,-24 152,-24 152,-60"/>
<text text-anchor="middle" x="125" y="-39.5" font-family="Helvetica,sans-Serif" font-size="10.00">generic</text>
</a>
</g>
<!-- dir_ac2e1a144c21d6e8c5805637c5390036 -->
<g id="node6" class="node"><title>dir_ac2e1a144c21d6e8c5805637c5390036</title>
<a xlink:href="dir_ac2e1a144c21d6e8c5805637c5390036.html" target="_top" xlink:title="mcregion">
<polygon fill="white" stroke="black" points="80,-60 24,-60 24,-24 80,-24 80,-60"/>
<text text-anchor="middle" x="52" y="-39.5" font-family="Helvetica,sans-Serif" font-size="10.00">mcregion</text>
</a>
</g>
</g>
</svg>
