<?xml version="1.0" encoding="UTF-8" standalone="no"?>
<!DOCTYPE svg PUBLIC "-//W3C//DTD SVG 1.1//EN"
 "http://www.w3.org/Graphics/SVG/1.1/DTD/svg11.dtd">
<!-- Generated by graphviz version 2.36.0 (20140111.2315)
 -->
<!-- Title: pocketmine Pages: 1 -->
<svg width="1482pt" height="111pt"
 viewBox="0.00 0.00 1482.00 111.00" xmlns="http://www.w3.org/2000/svg" xmlns:xlink="http://www.w3.org/1999/xlink">
<g id="graph0" class="graph" transform="scale(1 1) rotate(0) translate(4 107)">
<title>pocketmine</title>
<polygon fill="white" stroke="none" points="-4,4 -4,-107 1478,-107 1478,4 -4,4"/>
<g id="clust1" class="cluster"><title>clusterdir_68267d1309a1af8e8297ef4c3efbcdba</title>
<g id="a_clust1"><a xlink:href="dir_68267d1309a1af8e8297ef4c3efbcdba.html" target="_top" xlink:title="src">
<polygon fill="#ddddee" stroke="black" points="8,-8 8,-95 1466,-95 1466,-8 8,-8"/>
<text text-anchor="middle" x="737" y="-83" font-family="Helvetica,sans-Serif" font-size="10.00">src</text>
</a>
</g>
</g>
<g id="clust2" class="cluster"><title>clusterdir_a7b4ba6007d53b13eb8268d4af6bc970</title>
<g id="a_clust2"><a xlink:href="dir_a7b4ba6007d53b13eb8268d4af6bc970.html" target="_top">
<polygon fill="#eeeeff" stroke="black" points="16,-16 16,-68 1458,-68 1458,-16 16,-16"/>
</a>
</g>
</g>
<!-- dir_a7b4ba6007d53b13eb8268d4af6bc970 -->
<g id="node1" class="node"><title>dir_a7b4ba6007d53b13eb8268d4af6bc970</title>
<text text-anchor="middle" x="1413" y="-39.5" font-family="Helvetica,sans-Serif" font-size="10.00">pocketmine</text>
</g>
<!-- dir_c64b94882ad94a9ded92e9532f994d5c -->
<g id="node2" class="node"><title>dir_c64b94882ad94a9ded92e9532f994d5c</title>
<g id="a_node2"><a xlink:href="dir_c64b94882ad94a9ded92e9532f994d5c.html" target="_top" xlink:title="block">
<polygon fill="white" stroke="black" points="1358,-60 1304,-60 1304,-24 1358,-24 1358,-60"/>
<text text-anchor="middle" x="1331" y="-39.5" font-family="Helvetica,sans-Serif" font-size="10.00">block</text>
</a>
</g>
</g>
<!-- dir_787fca10a63f167331ccdabeba4b8988 -->
<g id="node3" class="node"><title>dir_787fca10a63f167331ccdabeba4b8988</title>
<g id="a_node3"><a xlink:href="dir_787fca10a63f167331ccdabeba4b8988.html" target="_top" xlink:title="command">
<polygon fill="white" stroke="red" points="1285.25,-60 1220.75,-60 1220.75,-24 1285.25,-24 1285.25,-60"/>
<text text-anchor="middle" x="1253" y="-39.5" font-family="Helvetica,sans-Serif" font-size="10.00">command</text>
</a>
</g>
</g>
<!-- dir_5108ecf9d265097fec44d195d3b4a0bd -->
<g id="node4" class="node"><title>dir_5108ecf9d265097fec44d195d3b4a0bd</title>
<g id="a_node4"><a xlink:href="dir_5108ecf9d265097fec44d195d3b4a0bd.html" target="_top" xlink:title="entity">
<polygon fill="white" stroke="black" points="1202,-60 1148,-60 1148,-24 1202,-24 1202,-60"/>
<text text-anchor="middle" x="1175" y="-39.5" font-family="Helvetica,sans-Serif" font-size="10.00">entity</text>
</a>
</g>
</g>
<!-- dir_3261a0844a72e0fdcae5259b46dea427 -->
<g id="node5" class="node"><title>dir_3261a0844a72e0fdcae5259b46dea427</title>
<g id="a_node5"><a xlink:href="dir_3261a0844a72e0fdcae5259b46dea427.html" target="_top" xlink:title="event">
<polygon fill="white" stroke="red" points="1130,-60 1076,-60 1076,-24 1130,-24 1130,-60"/>
<text text-anchor="middle" x="1103" y="-39.5" font-family="Helvetica,sans-Serif" font-size="10.00">event</text>
</a>
</g>
</g>
<!-- dir_739f8c87fc059b47fd131dad49aafdc3 -->
<g id="node6" class="node"><title>dir_739f8c87fc059b47fd131dad49aafdc3</title>
<g id="a_node6"><a xlink:href="dir_739f8c87fc059b47fd131dad49aafdc3.html" target="_top" xlink:title="inventory">
<polygon fill="white" stroke="black" points="1057.25,-60 996.75,-60 996.75,-24 1057.25,-24 1057.25,-60"/>
<text text-anchor="middle" x="1027" y="-39.5" font-family="Helvetica,sans-Serif" font-size="10.00">inventory</text>
</a>
</g>
</g>
<!-- dir_cecb6fd2cad7523d62a10123b60d4ae2 -->
<g id="node7" class="node"><title>dir_cecb6fd2cad7523d62a10123b60d4ae2</title>
<g id="a_node7"><a xlink:href="dir_cecb6fd2cad7523d62a10123b60d4ae2.html" target="_top" xlink:title="item">
<polygon fill="white" stroke="black" points="978,-60 924,-60 924,-24 978,-24 978,-60"/>
<text text-anchor="middle" x="951" y="-39.5" font-family="Helvetica,sans-Serif" font-size="10.00">item</text>
</a>
</g>
</g>
<!-- dir_a287ac9274d6ad8d17595f034a4f5bab -->
<g id="node8" class="node"><title>dir_a287ac9274d6ad8d17595f034a4f5bab</title>
<g id="a_node8"><a xlink:href="dir_a287ac9274d6ad8d17595f034a4f5bab.html" target="_top" xlink:title="level">
<polygon fill="white" stroke="red" points="906,-60 852,-60 852,-24 906,-24 906,-60"/>
<text text-anchor="middle" x="879" y="-39.5" font-family="Helvetica,sans-Serif" font-size="10.00">level</text>
</a>
</g>
</g>
<!-- dir_88b84bd3d0b42e1d7aeb7604a4ac65f7 -->
<g id="node9" class="node"><title>dir_88b84bd3d0b42e1d7aeb7604a4ac65f7</title>
<g id="a_node9"><a xlink:href="dir_88b84bd3d0b42e1d7aeb7604a4ac65f7.html" target="_top" xlink:title="math">
<polygon fill="white" stroke="black" points="834,-60 780,-60 780,-24 834,-24 834,-60"/>
<text text-anchor="middle" x="807" y="-39.5" font-family="Helvetica,sans-Serif" font-size="10.00">math</text>
</a>
</g>
</g>
<!-- dir_9986bf6b1392dfed93d253165b581051 -->
<g id="node10" class="node"><title>dir_9986bf6b1392dfed93d253165b581051</title>
<g id="a_node10"><a xlink:href="dir_9986bf6b1392dfed93d253165b581051.html" target="_top" xlink:title="metadata">
<polygon fill="white" stroke="black" points="762,-60 698,-60 698,-24 762,-24 762,-60"/>
<text text-anchor="middle" x="730" y="-39.5" font-family="Helvetica,sans-Serif" font-size="10.00">metadata</text>
</a>
</g>
</g>
<!-- dir_011ffaed65ddeba5d3bc971725f52e48 -->
<g id="node11" class="node"><title>dir_011ffaed65ddeba5d3bc971725f52e48</title>
<g id="a_node11"><a xlink:href="dir_011ffaed65ddeba5d3bc971725f52e48.html" target="_top" xlink:title="nbt">
<polygon fill="white" stroke="red" points="680,-60 626,-60 626,-24 680,-24 680,-60"/>
<text text-anchor="middle" x="653" y="-39.5" font-family="Helvetica,sans-Serif" font-size="10.00">nbt</text>
</a>
</g>
</g>
<!-- dir_ca85be83024ceea8efd81d7d78862023 -->
<g id="node12" class="node"><title>dir_ca85be83024ceea8efd81d7d78862023</title>
<g id="a_node12"><a xlink:href="dir_ca85be83024ceea8efd81d7d78862023.html" target="_top" xlink:title="network">
<polygon fill="white" stroke="red" points="608,-60 554,-60 554,-24 608,-24 608,-60"/>
<text text-anchor="middle" x="581" y="-39.5" font-family="Helvetica,sans-Serif" font-size="10.00">network</text>
</a>
</g>
</g>
<!-- dir_0d2d1d25755be62fe509e0f03008509b -->
<g id="node13" class="node"><title>dir_0d2d1d25755be62fe509e0f03008509b</title>
<g id="a_node13"><a xlink:href="dir_0d2d1d25755be62fe509e0f03008509b.html" target="_top" xlink:title="permission">
<polygon fill="white" stroke="black" points="535.25,-60 466.75,-60 466.75,-24 535.25,-24 535.25,-60"/>
<text text-anchor="middle" x="501" y="-39.5" font-family="Helvetica,sans-Serif" font-size="10.00">permission</text>
</a>
</g>
</g>
<!-- dir_fac3a7ebe7d7ec17b72a2f418efceeec -->
<g id="node14" class="node"><title>dir_fac3a7ebe7d7ec17b72a2f418efceeec</title>
<g id="a_node14"><a xlink:href="dir_fac3a7ebe7d7ec17b72a2f418efceeec.html" target="_top" xlink:title="plugin">
<polygon fill="white" stroke="black" points="448,-60 394,-60 394,-24 448,-24 448,-60"/>
<text text-anchor="middle" x="421" y="-39.5" font-family="Helvetica,sans-Serif" font-size="10.00">plugin</text>
</a>
</g>
</g>
<!-- dir_4371ed5c3cab7b9babfb9c7410f3ddb4 -->
<g id="node15" class="node"><title>dir_4371ed5c3cab7b9babfb9c7410f3ddb4</title>
<g id="a_node15"><a xlink:href="dir_4371ed5c3cab7b9babfb9c7410f3ddb4.html" target="_top" xlink:title="scheduler">
<polygon fill="white" stroke="black" points="375.25,-60 312.75,-60 312.75,-24 375.25,-24 375.25,-60"/>
<text text-anchor="middle" x="344" y="-39.5" font-family="Helvetica,sans-Serif" font-size="10.00">scheduler</text>
</a>
</g>
</g>
<!-- dir_ee058289f7b2bb3a091c9cb950989e0e -->
<g id="node16" class="node"><title>dir_ee058289f7b2bb3a091c9cb950989e0e</title>
<g id="a_node16"><a xlink:href="dir_ee058289f7b2bb3a091c9cb950989e0e.html" target="_top" xlink:title="tile">
<polygon fill="white" stroke="black" points="294,-60 240,-60 240,-24 294,-24 294,-60"/>
<text text-anchor="middle" x="267" y="-39.5" font-family="Helvetica,sans-Serif" font-size="10.00">tile</text>
</a>
</g>
</g>
<!-- dir_65663c03934f42f32f44dc883851b51e -->
<g id="node17" class="node"><title>dir_65663c03934f42f32f44dc883851b51e</title>
<g id="a_node17"><a xlink:href="dir_65663c03934f42f32f44dc883851b51e.html" target="_top" xlink:title="updater">
<polygon fill="white" stroke="black" points="222,-60 168,-60 168,-24 222,-24 222,-60"/>
<text text-anchor="middle" x="195" y="-39.5" font-family="Helvetica,sans-Serif" font-size="10.00">updater</text>
</a>
</g>
</g>
<!-- dir_597d705f6d64a8f257cfc7542aac129f -->
<g id="node18" class="node"><title>dir_597d705f6d64a8f257cfc7542aac129f</title>
<g id="a_node18"><a xlink:href="dir_597d705f6d64a8f257cfc7542aac129f.html" target="_top" xlink:title="utils">
<polygon fill="white" stroke="black" points="150,-60 96,-60 96,-24 150,-24 150,-60"/>
<text text-anchor="middle" x="123" y="-39.5" font-family="Helvetica,sans-Serif" font-size="10.00">utils</text>
</a>
</g>
</g>
<!-- dir_f9022ac9d57ed9ff4e3d176be6ea2ff8 -->
<g id="node19" class="node"><title>dir_f9022ac9d57ed9ff4e3d176be6ea2ff8</title>
<g id="a_node19"><a xlink:href="dir_f9022ac9d57ed9ff4e3d176be6ea2ff8.html" target="_top" xlink:title="wizard">
<polygon fill="white" stroke="black" points="78,-60 24,-60 24,-24 78,-24 78,-60"/>
<text text-anchor="middle" x="51" y="-39.5" font-family="Helvetica,sans-Serif" font-size="10.00">wizard</text>
</a>
</g>
</g>
</g>
</svg>
