<?xml version="1.0" encoding="UTF-8" standalone="no"?>
<!DOCTYPE svg PUBLIC "-//W3C//DTD SVG 1.1//EN"
 "http://www.w3.org/Graphics/SVG/1.1/DTD/svg11.dtd">
<!-- Generated by graphviz version 2.26.3 (20100126.1600)
 -->
<!-- Title: pocketmine Pages: 1 -->
<!--zoomable 113 -->
<svg id="main" version="1.1" xmlns="http://www.w3.org/2000/svg" xmlns:xlink="http://www.w3.org/1999/xlink" xml:space="preserve" onload="init(evt)">
<style type="text/css"><![CDATA[
.edge:hover path { stroke: red; }
.edge:hover polygon { stroke: red; fill: red; }
]]></style>
<script type="text/javascript"><![CDATA[
var edges = document.getElementsByTagName('g');
if (edges && edges.length) {
  for (var i=0;i<edges.length;i++) {
    if (edges[i].id.substr(0,4)=='edge') {
      edges[i].setAttribute('class','edge');
    }
  }
}
]]></script>
        <defs>
                <circle id="rim" cx="0" cy="0" r="7"/>
                <circle id="rim2" cx="0" cy="0" r="3.5"/>
                <g id="zoomPlus">
                        <use xlink:href="#rim" fill="#404040">
                                <set attributeName="fill" to="#808080" begin="zoomplus.mouseover" end="zoomplus.mouseout"/>
                        </use>
                        <path d="M-4,0h8M0,-4v8" fill="none" stroke="white" stroke-width="1.5" pointer-events="none"/>
                </g>
                <g id="zoomMin">
                        <use xlink:href="#rim" fill="#404040">
                                <set attributeName="fill" to="#808080" begin="zoomminus.mouseover" end="zoomminus.mouseout"/>
                        </use>
                        <path d="M-4,0h8" fill="none" stroke="white" stroke-width="1.5" pointer-events="none"/>
                </g>
                <g id="dirArrow">
                        <path fill="none" stroke="white" stroke-width="1.5" d="M0,-3.0v7 M-2.5,-0.5L0,-3.0L2.5,-0.5"/>
                </g>
               <g id="resetDef">
                       <use xlink:href="#rim2" fill="#404040">
                               <set attributeName="fill" to="#808080" begin="reset.mouseover" end="reset.mouseout"/>
                       </use>
               </g>
        </defs>

<script type="text/javascript">
var viewWidth = 1512;
var viewHeight = 113;
var sectionId = 'dynsection-0';
</script>
<script xlink:href="svgpan.js"/>
<svg id="graph" class="graph">
<g id="viewport">
<title>pocketmine</title>
<polygon fill="white" stroke="white" points="-4,5 -4,-109 1509,-109 1509,5 -4,5"/>
<g id="graph2" class="cluster"><title>clusterdir_68267d1309a1af8e8297ef4c3efbcdba</title>
<a xlink:href="dir_68267d1309a1af8e8297ef4c3efbcdba.html" target="_top" xlink:title="src">
<polygon fill="#ddddee" stroke="black" points="8,-8 8,-97 1496,-97 1496,-8 8,-8"/>
<text text-anchor="middle" x="752" y="-84" font-family="Helvetica,sans-Serif" font-size="10.00">src</text>
</a>
</g>
<g id="graph3" class="cluster"><title>clusterdir_a7b4ba6007d53b13eb8268d4af6bc970</title>
<a xlink:href="dir_a7b4ba6007d53b13eb8268d4af6bc970.html" target="_top">
<polygon fill="#eeeeff" stroke="black" points="16,-16 16,-68 1488,-68 1488,-16 16,-16"/>
</a>
</g>
<!-- dir_a7b4ba6007d53b13eb8268d4af6bc970 -->
<g id="node3" class="node"><title>dir_a7b4ba6007d53b13eb8268d4af6bc970</title>
<text text-anchor="middle" x="1447" y="-39.5" font-family="Helvetica,sans-Serif" font-size="10.00">pocketmine</text>
</g>
<!-- dir_c64b94882ad94a9ded92e9532f994d5c -->
<g id="node4" class="node"><title>dir_c64b94882ad94a9ded92e9532f994d5c</title>
<a xlink:href="dir_c64b94882ad94a9ded92e9532f994d5c.html" target="_top" xlink:title="block">
<polygon fill="white" stroke="black" points="1396,-60 1342,-60 1342,-24 1396,-24 1396,-60"/>
<text text-anchor="middle" x="1369" y="-39.5" font-family="Helvetica,sans-Serif" font-size="10.00">block</text>
</a>
</g>
<!-- dir_787fca10a63f167331ccdabeba4b8988 -->
<g id="node5" class="node"><title>dir_787fca10a63f167331ccdabeba4b8988</title>
<a xlink:href="dir_787fca10a63f167331ccdabeba4b8988.html" target="_top" xlink:title="command">
<polygon fill="white" stroke="red" points="1324,-60 1266,-60 1266,-24 1324,-24 1324,-60"/>
<text text-anchor="middle" x="1295" y="-39.5" font-family="Helvetica,sans-Serif" font-size="10.00">command</text>
</a>
</g>
<!-- dir_5108ecf9d265097fec44d195d3b4a0bd -->
<g id="node6" class="node"><title>dir_5108ecf9d265097fec44d195d3b4a0bd</title>
<a xlink:href="dir_5108ecf9d265097fec44d195d3b4a0bd.html" target="_top" xlink:title="entity">
<polygon fill="white" stroke="black" points="1248,-60 1194,-60 1194,-24 1248,-24 1248,-60"/>
<text text-anchor="middle" x="1221" y="-39.5" font-family="Helvetica,sans-Serif" font-size="10.00">entity</text>
</a>
</g>
<!-- dir_3261a0844a72e0fdcae5259b46dea427 -->
<g id="node7" class="node"><title>dir_3261a0844a72e0fdcae5259b46dea427</title>
<a xlink:href="dir_3261a0844a72e0fdcae5259b46dea427.html" target="_top" xlink:title="event">
<polygon fill="white" stroke="red" points="1176,-60 1122,-60 1122,-24 1176,-24 1176,-60"/>
<text text-anchor="middle" x="1149" y="-39.5" font-family="Helvetica,sans-Serif" font-size="10.00">event</text>
</a>
</g>
<!-- dir_ffb37628932de70417edf8c5b05f47a5 -->
<g id="node8" class="node"><title>dir_ffb37628932de70417edf8c5b05f47a5</title>
<a xlink:href="dir_ffb37628932de70417edf8c5b05f47a5.html" target="_top" xlink:title="gui">
<polygon fill="white" stroke="black" points="1104,-60 1050,-60 1050,-24 1104,-24 1104,-60"/>
<text text-anchor="middle" x="1077" y="-39.5" font-family="Helvetica,sans-Serif" font-size="10.00">gui</text>
</a>
</g>
<!-- dir_739f8c87fc059b47fd131dad49aafdc3 -->
<g id="node9" class="node"><title>dir_739f8c87fc059b47fd131dad49aafdc3</title>
<a xlink:href="dir_739f8c87fc059b47fd131dad49aafdc3.html" target="_top" xlink:title="inventory">
<polygon fill="white" stroke="black" points="1032,-60 976,-60 976,-24 1032,-24 1032,-60"/>
<text text-anchor="middle" x="1004" y="-39.5" font-family="Helvetica,sans-Serif" font-size="10.00">inventory</text>
</a>
</g>
<!-- dir_cecb6fd2cad7523d62a10123b60d4ae2 -->
<g id="node10" class="node"><title>dir_cecb6fd2cad7523d62a10123b60d4ae2</title>
<a xlink:href="dir_cecb6fd2cad7523d62a10123b60d4ae2.html" target="_top" xlink:title="item">
<polygon fill="white" stroke="black" points="958,-60 904,-60 904,-24 958,-24 958,-60"/>
<text text-anchor="middle" x="931" y="-39.5" font-family="Helvetica,sans-Serif" font-size="10.00">item</text>
</a>
</g>
<!-- dir_a287ac9274d6ad8d17595f034a4f5bab -->
<g id="node11" class="node"><title>dir_a287ac9274d6ad8d17595f034a4f5bab</title>
<a xlink:href="dir_a287ac9274d6ad8d17595f034a4f5bab.html" target="_top" xlink:title="level">
<polygon fill="white" stroke="red" points="886,-60 832,-60 832,-24 886,-24 886,-60"/>
<text text-anchor="middle" x="859" y="-39.5" font-family="Helvetica,sans-Serif" font-size="10.00">level</text>
</a>
</g>
<!-- dir_88b84bd3d0b42e1d7aeb7604a4ac65f7 -->
<g id="node12" class="node"><title>dir_88b84bd3d0b42e1d7aeb7604a4ac65f7</title>
<a xlink:href="dir_88b84bd3d0b42e1d7aeb7604a4ac65f7.html" target="_top" xlink:title="math">
<polygon fill="white" stroke="black" points="814,-60 760,-60 760,-24 814,-24 814,-60"/>
<text text-anchor="middle" x="787" y="-39.5" font-family="Helvetica,sans-Serif" font-size="10.00">math</text>
</a>
</g>
<!-- dir_9986bf6b1392dfed93d253165b581051 -->
<g id="node13" class="node"><title>dir_9986bf6b1392dfed93d253165b581051</title>
<a xlink:href="dir_9986bf6b1392dfed93d253165b581051.html" target="_top" xlink:title="metadata">
<polygon fill="white" stroke="black" points="742,-60 686,-60 686,-24 742,-24 742,-60"/>
<text text-anchor="middle" x="714" y="-39.5" font-family="Helvetica,sans-Serif" font-size="10.00">metadata</text>
</a>
</g>
<!-- dir_011ffaed65ddeba5d3bc971725f52e48 -->
<g id="node14" class="node"><title>dir_011ffaed65ddeba5d3bc971725f52e48</title>
<a xlink:href="dir_011ffaed65ddeba5d3bc971725f52e48.html" target="_top" xlink:title="nbt">
<polygon fill="white" stroke="red" points="668,-60 614,-60 614,-24 668,-24 668,-60"/>
<text text-anchor="middle" x="641" y="-39.5" font-family="Helvetica,sans-Serif" font-size="10.00">nbt</text>
</a>
</g>
<!-- dir_ca85be83024ceea8efd81d7d78862023 -->
<g id="node15" class="node"><title>dir_ca85be83024ceea8efd81d7d78862023</title>
<a xlink:href="dir_ca85be83024ceea8efd81d7d78862023.html" target="_top" xlink:title="network">
<polygon fill="white" stroke="red" points="596,-60 542,-60 542,-24 596,-24 596,-60"/>
<text text-anchor="middle" x="569" y="-39.5" font-family="Helvetica,sans-Serif" font-size="10.00">network</text>
</a>
</g>
<!-- dir_0d2d1d25755be62fe509e0f03008509b -->
<g id="node16" class="node"><title>dir_0d2d1d25755be62fe509e0f03008509b</title>
<a xlink:href="dir_0d2d1d25755be62fe509e0f03008509b.html" target="_top" xlink:title="permission">
<polygon fill="white" stroke="black" points="524,-60 460,-60 460,-24 524,-24 524,-60"/>
<text text-anchor="middle" x="492" y="-39.5" font-family="Helvetica,sans-Serif" font-size="10.00">permission</text>
</a>
</g>
<!-- dir_fac3a7ebe7d7ec17b72a2f418efceeec -->
<g id="node17" class="node"><title>dir_fac3a7ebe7d7ec17b72a2f418efceeec</title>
<a xlink:href="dir_fac3a7ebe7d7ec17b72a2f418efceeec.html" target="_top" xlink:title="plugin">
<polygon fill="white" stroke="black" points="442,-60 388,-60 388,-24 442,-24 442,-60"/>
<text text-anchor="middle" x="415" y="-39.5" font-family="Helvetica,sans-Serif" font-size="10.00">plugin</text>
</a>
</g>
<!-- dir_4371ed5c3cab7b9babfb9c7410f3ddb4 -->
<g id="node18" class="node"><title>dir_4371ed5c3cab7b9babfb9c7410f3ddb4</title>
<a xlink:href="dir_4371ed5c3cab7b9babfb9c7410f3ddb4.html" target="_top" xlink:title="scheduler">
<polygon fill="white" stroke="black" points="370,-60 312,-60 312,-24 370,-24 370,-60"/>
<text text-anchor="middle" x="341" y="-39.5" font-family="Helvetica,sans-Serif" font-size="10.00">scheduler</text>
</a>
</g>
<!-- dir_ee058289f7b2bb3a091c9cb950989e0e -->
<g id="node19" class="node"><title>dir_ee058289f7b2bb3a091c9cb950989e0e</title>
<a xlink:href="dir_ee058289f7b2bb3a091c9cb950989e0e.html" target="_top" xlink:title="tile">
<polygon fill="white" stroke="black" points="294,-60 240,-60 240,-24 294,-24 294,-60"/>
<text text-anchor="middle" x="267" y="-39.5" font-family="Helvetica,sans-Serif" font-size="10.00">tile</text>
</a>
</g>
<!-- dir_65663c03934f42f32f44dc883851b51e -->
<g id="node20" class="node"><title>dir_65663c03934f42f32f44dc883851b51e</title>
<a xlink:href="dir_65663c03934f42f32f44dc883851b51e.html" target="_top" xlink:title="updater">
<polygon fill="white" stroke="black" points="222,-60 168,-60 168,-24 222,-24 222,-60"/>
<text text-anchor="middle" x="195" y="-39.5" font-family="Helvetica,sans-Serif" font-size="10.00">updater</text>
</a>
</g>
<!-- dir_597d705f6d64a8f257cfc7542aac129f -->
<g id="node21" class="node"><title>dir_597d705f6d64a8f257cfc7542aac129f</title>
<a xlink:href="dir_597d705f6d64a8f257cfc7542aac129f.html" target="_top" xlink:title="utils">
<polygon fill="white" stroke="black" points="150,-60 96,-60 96,-24 150,-24 150,-60"/>
<text text-anchor="middle" x="123" y="-39.5" font-family="Helvetica,sans-Serif" font-size="10.00">utils</text>
</a>
</g>
<!-- dir_f9022ac9d57ed9ff4e3d176be6ea2ff8 -->
<g id="node22" class="node"><title>dir_f9022ac9d57ed9ff4e3d176be6ea2ff8</title>
<a xlink:href="dir_f9022ac9d57ed9ff4e3d176be6ea2ff8.html" target="_top" xlink:title="wizard">
<polygon fill="white" stroke="black" points="78,-60 24,-60 24,-24 78,-24 78,-60"/>
<text text-anchor="middle" x="51" y="-39.5" font-family="Helvetica,sans-Serif" font-size="10.00">wizard</text>
</a>
</g>
</g>
</svg>
        <g id="navigator" transform="translate(0 0)" fill="#404254">
                <rect fill="#f2f5e9" fill-opacity="0.5" stroke="#606060" stroke-width=".5" x="0" y="0" width="60" height="60"/>
                <use id="zoomplus" xlink:href="#zoomPlus" x="17" y="9" onmousedown="handleZoom(evt,'in')"/>
                <use id="zoomminus" xlink:href="#zoomMin" x="42" y="9" onmousedown="handleZoom(evt,'out')"/>
                <use id="reset" xlink:href="#resetDef" x="30" y="36" onmousedown="handleReset()"/>
                <g id="arrowUp" xlink:href="#dirArrow" transform="translate(30 24)" onmousedown="handlePan(0,-1)">
                  <use xlink:href="#rim" fill="#404040">
                        <set attributeName="fill" to="#808080" begin="arrowUp.mouseover" end="arrowUp.mouseout"/>
                  </use>
                  <path fill="none" stroke="white" stroke-width="1.5" d="M0,-3.0v7 M-2.5,-0.5L0,-3.0L2.5,-0.5"/>
                </g>
                <g id="arrowRight" xlink:href="#dirArrow" transform="rotate(90) translate(36 -43)" onmousedown="handlePan(1,0)">
                  <use xlink:href="#rim" fill="#404040">
                        <set attributeName="fill" to="#808080" begin="arrowRight.mouseover" end="arrowRight.mouseout"/>
                  </use>
                  <path fill="none" stroke="white" stroke-width="1.5" d="M0,-3.0v7 M-2.5,-0.5L0,-3.0L2.5,-0.5"/>
                </g>
                <g id="arrowDown" xlink:href="#dirArrow" transform="rotate(180) translate(-30 -48)" onmousedown="handlePan(0,1)">
                  <use xlink:href="#rim" fill="#404040">
                        <set attributeName="fill" to="#808080" begin="arrowDown.mouseover" end="arrowDown.mouseout"/>
                  </use>
                  <path fill="none" stroke="white" stroke-width="1.5" d="M0,-3.0v7 M-2.5,-0.5L0,-3.0L2.5,-0.5"/>
                </g>
                <g id="arrowLeft" xlink:href="#dirArrow" transform="rotate(270) translate(-36 17)" onmousedown="handlePan(-1,0)">
                  <use xlink:href="#rim" fill="#404040">
                        <set attributeName="fill" to="#808080" begin="arrowLeft.mouseover" end="arrowLeft.mouseout"/>
                  </use>
                  <path fill="none" stroke="white" stroke-width="1.5" d="M0,-3.0v7 M-2.5,-0.5L0,-3.0L2.5,-0.5"/>
                </g>
        </g>
        <svg viewBox="0 0 15 15" width="100%" height="30px" preserveAspectRatio="xMaxYMin meet">
         <g id="arrow_out" transform="scale(0.3 0.3)">
          <a xlink:href="dir_a7b4ba6007d53b13eb8268d4af6bc970_dep_org.svg" target="_base">
           <rect id="button" ry="5" rx="5" y="6" x="6" height="38" width="38"
                fill="#f2f5e9" fill-opacity="0.5" stroke="#606060" stroke-width="1.0"/>
           <path id="arrow"
             d="M 11.500037,31.436501 C 11.940474,20.09759 22.043105,11.32322 32.158766,21.979434 L 37.068811,17.246167 C 37.068811,17.246167 37.088388,32 37.088388,32 L 22.160133,31.978069 C 22.160133,31.978069 26.997745,27.140456 26.997745,27.140456 C 18.528582,18.264221 13.291696,25.230495 11.500037,31.436501 z"
             style="fill:#404040;"/>
          </a>
         </g>
        </svg>
</svg>
