<?xml version="1.0" encoding="UTF-8" standalone="no"?>
<!DOCTYPE svg PUBLIC "-//W3C//DTD SVG 1.1//EN"
 "http://www.w3.org/Graphics/SVG/1.1/DTD/svg11.dtd">
<!-- Generated by graphviz version 2.36.0 (20140111.2315)
 -->
<!-- Title: network Pages: 1 -->
<svg width="400pt" height="111pt"
 viewBox="0.00 0.00 400.00 111.00" xmlns="http://www.w3.org/2000/svg" xmlns:xlink="http://www.w3.org/1999/xlink">
<g id="graph0" class="graph" transform="scale(1 1) rotate(0) translate(4 107)">
<title>network</title>
<polygon fill="white" stroke="none" points="-4,4 -4,-107 396,-107 396,4 -4,4"/>
<g id="clust1" class="cluster"><title>clusterdir_a7b4ba6007d53b13eb8268d4af6bc970</title>
<g id="a_clust1"><a xlink:href="dir_a7b4ba6007d53b13eb8268d4af6bc970.html" target="_top" xlink:title="pocketmine">
<polygon fill="#ddddee" stroke="black" points="8,-8 8,-95 384,-95 384,-8 8,-8"/>
<text text-anchor="middle" x="196" y="-83" font-family="Helvetica,sans-Serif" font-size="10.00">pocketmine</text>
</a>
</g>
</g>
<g id="clust2" class="cluster"><title>clusterdir_ca85be83024ceea8efd81d7d78862023</title>
<g id="a_clust2"><a xlink:href="dir_ca85be83024ceea8efd81d7d78862023.html" target="_top">
<polygon fill="#eeeeff" stroke="black" points="16,-16 16,-68 376,-68 376,-16 16,-16"/>
</a>
</g>
</g>
<!-- dir_ca85be83024ceea8efd81d7d78862023 -->
<g id="node1" class="node"><title>dir_ca85be83024ceea8efd81d7d78862023</title>
<text text-anchor="middle" x="341" y="-39.5" font-family="Helvetica,sans-Serif" font-size="10.00">network</text>
</g>
<!-- dir_807304fc10b7ba7a00f04813b0cf01e3 -->
<g id="node2" class="node"><title>dir_807304fc10b7ba7a00f04813b0cf01e3</title>
<g id="a_node2"><a xlink:href="dir_807304fc10b7ba7a00f04813b0cf01e3.html" target="_top" xlink:title="protocol">
<polygon fill="white" stroke="black" points="295.5,-60 240.5,-60 240.5,-24 295.5,-24 295.5,-60"/>
<text text-anchor="middle" x="268" y="-39.5" font-family="Helvetica,sans-Serif" font-size="10.00">protocol</text>
</a>
</g>
</g>
<!-- dir_db35b3209a85fb2063e2e85173a2cf9f -->
<g id="node3" class="node"><title>dir_db35b3209a85fb2063e2e85173a2cf9f</title>
<g id="a_node3"><a xlink:href="dir_db35b3209a85fb2063e2e85173a2cf9f.html" target="_top" xlink:title="query">
<polygon fill="white" stroke="black" points="222,-60 168,-60 168,-24 222,-24 222,-60"/>
<text text-anchor="middle" x="195" y="-39.5" font-family="Helvetica,sans-Serif" font-size="10.00">query</text>
</a>
</g>
</g>
<!-- dir_c76c2dbb742bee6d7e7101c863271947 -->
<g id="node4" class="node"><title>dir_c76c2dbb742bee6d7e7101c863271947</title>
<g id="a_node4"><a xlink:href="dir_c76c2dbb742bee6d7e7101c863271947.html" target="_top" xlink:title="rcon">
<polygon fill="white" stroke="black" points="150,-60 96,-60 96,-24 150,-24 150,-60"/>
<text text-anchor="middle" x="123" y="-39.5" font-family="Helvetica,sans-Serif" font-size="10.00">rcon</text>
</a>
</g>
</g>
<!-- dir_dcc65c5b7f35ad381192ddb32106922b -->
<g id="node5" class="node"><title>dir_dcc65c5b7f35ad381192ddb32106922b</title>
<g id="a_node5"><a xlink:href="dir_dcc65c5b7f35ad381192ddb32106922b.html" target="_top" xlink:title="upnp">
<polygon fill="white" stroke="black" points="78,-60 24,-60 24,-24 78,-24 78,-60"/>
<text text-anchor="middle" x="51" y="-39.5" font-family="Helvetica,sans-Serif" font-size="10.00">upnp</text>
</a>
</g>
</g>
</g>
</svg>
