<?xml version="1.0" encoding="UTF-8" standalone="no"?>
<!DOCTYPE svg PUBLIC "-//W3C//DTD SVG 1.1//EN"
 "http://www.w3.org/Graphics/SVG/1.1/DTD/svg11.dtd">
<!-- Generated by graphviz version 2.26.3 (20100126.1600)
 -->
<!-- Title: Graphical Class Hierarchy Pages: 1 -->
<svg width="518pt" height="1582pt"
 viewBox="0.00 0.00 518.00 1582.00" xmlns="http://www.w3.org/2000/svg" xmlns:xlink="http://www.w3.org/1999/xlink">
<g id="graph1" class="graph" transform="scale(1 1) rotate(0) translate(4 1578)">
<title>Graphical Class Hierarchy</title>
<polygon fill="white" stroke="white" points="-4,5 -4,-1578 515,-1578 515,5 -4,5"/>
<!-- Node1 -->
<g id="node1" class="node"><title>Node1</title>
<a xlink:href="d5/d8a/classpocketmine_1_1item_1_1_item.html" target="_top" xlink:title="pocketmine\\item\\Item">
<polygon fill="white" stroke="black" points="0.5,-1000.5 0.5,-1021.5 111.5,-1021.5 111.5,-1000.5 0.5,-1000.5"/>
<text text-anchor="middle" x="56" y="-1008.5" font-family="Helvetica,sans-Serif" font-size="10.00">pocketmine\item\Item</text>
</a>
</g>
<!-- Node2 -->
<g id="node3" class="node"><title>Node2</title>
<a xlink:href="dd/dd1/classpocketmine_1_1item_1_1_apple.html" target="_top" xlink:title="pocketmine\\item\\Apple">
<polygon fill="white" stroke="black" points="170,-1552.5 170,-1573.5 286,-1573.5 286,-1552.5 170,-1552.5"/>
<text text-anchor="middle" x="228" y="-1560.5" font-family="Helvetica,sans-Serif" font-size="10.00">pocketmine\item\Apple</text>
</a>
</g>
<!-- Node1&#45;&gt;Node2 -->
<g id="edge2" class="edge"><title>Node1&#45;&gt;Node2</title>
<path fill="none" stroke="midnightblue" d="M56.6578,-1031.74C59.893,-1120.39 76.9577,-1466.52 148,-1543 153.943,-1549.4 161.597,-1553.88 169.807,-1557"/>
<polygon fill="midnightblue" stroke="midnightblue" points="60.1512,-1031.48 56.3088,-1021.61 53.1553,-1031.72 60.1512,-1031.48"/>
</g>
<!-- Node3 -->
<g id="node5" class="node"><title>Node3</title>
<a xlink:href="da/d64/classpocketmine_1_1item_1_1_bed.html" target="_top" xlink:title="pocketmine\\item\\Bed">
<polygon fill="white" stroke="black" points="173.5,-1512.5 173.5,-1533.5 282.5,-1533.5 282.5,-1512.5 173.5,-1512.5"/>
<text text-anchor="middle" x="228" y="-1520.5" font-family="Helvetica,sans-Serif" font-size="10.00">pocketmine\item\Bed</text>
</a>
</g>
<!-- Node1&#45;&gt;Node3 -->
<g id="edge4" class="edge"><title>Node1&#45;&gt;Node3</title>
<path fill="none" stroke="midnightblue" d="M56.9779,-1031.78C61.3761,-1116.29 82.0768,-1432.99 148,-1503 154.772,-1510.19 163.705,-1514.96 173.143,-1518.09"/>
<polygon fill="midnightblue" stroke="midnightblue" points="60.4663,-1031.46 56.472,-1021.64 53.475,-1031.81 60.4663,-1031.46"/>
</g>
<!-- Node4 -->
<g id="node7" class="node"><title>Node4</title>
<a xlink:href="df/da9/classpocketmine_1_1item_1_1_beetroot_seeds.html" target="_top" xlink:title="pocketmine\\item\\Beetroot\lSeeds">
<polygon fill="white" stroke="black" points="164,-1460 164,-1494 292,-1494 292,-1460 164,-1460"/>
<text text-anchor="start" x="172" y="-1481" font-family="Helvetica,sans-Serif" font-size="10.00">pocketmine\item\Beetroot</text>
<text text-anchor="middle" x="228" y="-1468" font-family="Helvetica,sans-Serif" font-size="10.00">Seeds</text>
</a>
</g>
<!-- Node1&#45;&gt;Node4 -->
<g id="edge6" class="edge"><title>Node1&#45;&gt;Node4</title>
<path fill="none" stroke="midnightblue" d="M57.6138,-1031.7C64.121,-1110.06 90.8704,-1387.33 148,-1451 152.487,-1456 157.944,-1460.04 163.878,-1463.31"/>
<polygon fill="midnightblue" stroke="midnightblue" points="61.0942,-1031.31 56.7994,-1021.63 54.117,-1031.88 61.0942,-1031.31"/>
</g>
<!-- Node5 -->
<g id="node9" class="node"><title>Node5</title>
<a xlink:href="df/d75/classpocketmine_1_1item_1_1_beetroot_soup.html" target="_top" xlink:title="pocketmine\\item\\BeetrootSoup">
<polygon fill="white" stroke="black" points="152.5,-1420.5 152.5,-1441.5 303.5,-1441.5 303.5,-1420.5 152.5,-1420.5"/>
<text text-anchor="middle" x="228" y="-1428.5" font-family="Helvetica,sans-Serif" font-size="10.00">pocketmine\item\BeetrootSoup</text>
</a>
</g>
<!-- Node1&#45;&gt;Node5 -->
<g id="edge8" class="edge"><title>Node1&#45;&gt;Node5</title>
<path fill="none" stroke="midnightblue" d="M57.9498,-1031.83C65.3073,-1105.99 93.7642,-1355.73 148,-1411 151.71,-1414.78 156.019,-1417.89 160.676,-1420.43"/>
<polygon fill="midnightblue" stroke="midnightblue" points="61.4307,-1031.46 56.9829,-1021.84 54.4633,-1032.13 61.4307,-1031.46"/>
</g>
<!-- Node6 -->
<g id="node11" class="node"><title>Node6</title>
<a xlink:href="d5/d6a/classpocketmine_1_1item_1_1_block.html" target="_top" xlink:title="pocketmine\\item\\Block">
<polygon fill="white" stroke="black" points="170,-1380.5 170,-1401.5 286,-1401.5 286,-1380.5 170,-1380.5"/>
<text text-anchor="middle" x="228" y="-1388.5" font-family="Helvetica,sans-Serif" font-size="10.00">pocketmine\item\Block</text>
</a>
</g>
<!-- Node1&#45;&gt;Node6 -->
<g id="edge10" class="edge"><title>Node1&#45;&gt;Node6</title>
<path fill="none" stroke="midnightblue" d="M58.5368,-1031.95C67.3527,-1101.35 98.8299,-1322.09 148,-1371 154.09,-1377.06 161.719,-1381.37 169.833,-1384.43"/>
<polygon fill="midnightblue" stroke="midnightblue" points="61.9846,-1031.32 57.276,-1021.82 55.0382,-1032.18 61.9846,-1031.32"/>
</g>
<!-- Node7 -->
<g id="node13" class="node"><title>Node7</title>
<a xlink:href="db/d8c/classpocketmine_1_1item_1_1_bowl.html" target="_top" xlink:title="pocketmine\\item\\Bowl">
<polygon fill="white" stroke="black" points="171.5,-1340.5 171.5,-1361.5 284.5,-1361.5 284.5,-1340.5 171.5,-1340.5"/>
<text text-anchor="middle" x="228" y="-1348.5" font-family="Helvetica,sans-Serif" font-size="10.00">pocketmine\item\Bowl</text>
</a>
</g>
<!-- Node1&#45;&gt;Node7 -->
<g id="edge12" class="edge"><title>Node1&#45;&gt;Node7</title>
<path fill="none" stroke="midnightblue" d="M59.206,-1031.68C69.5209,-1095.6 103.77,-1288.29 148,-1331 154.488,-1337.27 162.628,-1341.66 171.213,-1344.72"/>
<polygon fill="midnightblue" stroke="midnightblue" points="62.6336,-1030.94 57.61,-1021.62 55.7201,-1032.04 62.6336,-1030.94"/>
</g>
<!-- Node8 -->
<g id="node15" class="node"><title>Node8</title>
<a xlink:href="d0/d39/classpocketmine_1_1item_1_1_brick.html" target="_top" xlink:title="pocketmine\\item\\Brick">
<polygon fill="white" stroke="black" points="171,-1300.5 171,-1321.5 285,-1321.5 285,-1300.5 171,-1300.5"/>
<text text-anchor="middle" x="228" y="-1308.5" font-family="Helvetica,sans-Serif" font-size="10.00">pocketmine\item\Brick</text>
</a>
</g>
<!-- Node1&#45;&gt;Node8 -->
<g id="edge14" class="edge"><title>Node1&#45;&gt;Node8</title>
<path fill="none" stroke="midnightblue" d="M60.0386,-1031.36C71.9649,-1089.49 108.664,-1254.42 148,-1291 154.395,-1296.95 162.284,-1301.2 170.593,-1304.22"/>
<polygon fill="midnightblue" stroke="midnightblue" points="63.4603,-1030.62 58.0473,-1021.51 56.5992,-1032.01 63.4603,-1030.62"/>
</g>
<!-- Node9 -->
<g id="node17" class="node"><title>Node9</title>
<a xlink:href="d9/d64/classpocketmine_1_1item_1_1_bucket.html" target="_top" xlink:title="pocketmine\\item\\Bucket">
<polygon fill="white" stroke="black" points="167,-1260.5 167,-1281.5 289,-1281.5 289,-1260.5 167,-1260.5"/>
<text text-anchor="middle" x="228" y="-1268.5" font-family="Helvetica,sans-Serif" font-size="10.00">pocketmine\item\Bucket</text>
</a>
</g>
<!-- Node1&#45;&gt;Node9 -->
<g id="edge16" class="edge"><title>Node1&#45;&gt;Node9</title>
<path fill="none" stroke="midnightblue" d="M57.6557,-1031.61C62.5315,-1078.09 81.0337,-1191.69 148,-1251 153.466,-1255.84 159.929,-1259.55 166.775,-1262.38"/>
<polygon fill="midnightblue" stroke="midnightblue" points="61.1303,-1031.17 56.708,-1021.54 54.1611,-1031.83 61.1303,-1031.17"/>
</g>
<!-- Node10 -->
<g id="node19" class="node"><title>Node10</title>
<a xlink:href="df/dfa/classpocketmine_1_1item_1_1_cake.html" target="_top" xlink:title="pocketmine\\item\\Cake">
<polygon fill="white" stroke="black" points="170.5,-1220.5 170.5,-1241.5 285.5,-1241.5 285.5,-1220.5 170.5,-1220.5"/>
<text text-anchor="middle" x="228" y="-1228.5" font-family="Helvetica,sans-Serif" font-size="10.00">pocketmine\item\Cake</text>
</a>
</g>
<!-- Node1&#45;&gt;Node10 -->
<g id="edge18" class="edge"><title>Node1&#45;&gt;Node10</title>
<path fill="none" stroke="midnightblue" d="M59.3959,-1031.48C67.2533,-1072.18 90.5976,-1163.4 148,-1211 154.502,-1216.39 162.256,-1220.36 170.34,-1223.28"/>
<polygon fill="midnightblue" stroke="midnightblue" points="62.8384,-1030.85 57.6109,-1021.63 55.9506,-1032.1 62.8384,-1030.85"/>
</g>
<!-- Node11 -->
<g id="node21" class="node"><title>Node11</title>
<a xlink:href="d4/d82/classpocketmine_1_1item_1_1_carrot.html" target="_top" xlink:title="pocketmine\\item\\Carrot">
<polygon fill="white" stroke="black" points="168.5,-1180.5 168.5,-1201.5 287.5,-1201.5 287.5,-1180.5 168.5,-1180.5"/>
<text text-anchor="middle" x="228" y="-1188.5" font-family="Helvetica,sans-Serif" font-size="10.00">pocketmine\item\Carrot</text>
</a>
</g>
<!-- Node1&#45;&gt;Node11 -->
<g id="edge20" class="edge"><title>Node1&#45;&gt;Node11</title>
<path fill="none" stroke="midnightblue" d="M61.906,-1031.35C72.9388,-1065.65 100.014,-1134.75 148,-1171 154.054,-1175.57 161.031,-1179.11 168.288,-1181.84"/>
<polygon fill="midnightblue" stroke="midnightblue" points="65.1684,-1030.06 58.8815,-1021.53 58.4782,-1032.12 65.1684,-1030.06"/>
</g>
<!-- Node12 -->
<g id="node23" class="node"><title>Node12</title>
<a xlink:href="d6/d5a/classpocketmine_1_1item_1_1_coal.html" target="_top" xlink:title="pocketmine\\item\\Coal">
<polygon fill="white" stroke="black" points="172,-1140.5 172,-1161.5 284,-1161.5 284,-1140.5 172,-1140.5"/>
<text text-anchor="middle" x="228" y="-1148.5" font-family="Helvetica,sans-Serif" font-size="10.00">pocketmine\item\Coal</text>
</a>
</g>
<!-- Node1&#45;&gt;Node12 -->
<g id="edge22" class="edge"><title>Node1&#45;&gt;Node12</title>
<path fill="none" stroke="midnightblue" d="M65.6957,-1030.79C79.9325,-1057.71 109.08,-1105.45 148,-1131 155.181,-1135.71 163.391,-1139.32 171.752,-1142.07"/>
<polygon fill="midnightblue" stroke="midnightblue" points="68.6529,-1028.88 60.98,-1021.58 62.4221,-1032.07 68.6529,-1028.88"/>
</g>
<!-- Node13 -->
<g id="node25" class="node"><title>Node13</title>
<a xlink:href="d9/da8/classpocketmine_1_1item_1_1_diamond.html" target="_top" xlink:title="pocketmine\\item\\Diamond">
<polygon fill="white" stroke="black" points="162.5,-1100.5 162.5,-1121.5 293.5,-1121.5 293.5,-1100.5 162.5,-1100.5"/>
<text text-anchor="middle" x="228" y="-1108.5" font-family="Helvetica,sans-Serif" font-size="10.00">pocketmine\item\Diamond</text>
</a>
</g>
<!-- Node1&#45;&gt;Node13 -->
<g id="edge24" class="edge"><title>Node1&#45;&gt;Node13</title>
<path fill="none" stroke="midnightblue" d="M72.0255,-1029.27C89.0767,-1047.57 117.723,-1075.22 148,-1091 155.237,-1094.77 163.217,-1097.85 171.251,-1100.37"/>
<polygon fill="midnightblue" stroke="midnightblue" points="74.3615,-1026.63 65.0429,-1021.59 69.1839,-1031.34 74.3615,-1026.63"/>
</g>
<!-- Node14 -->
<g id="node27" class="node"><title>Node14</title>
<a xlink:href="db/df0/classpocketmine_1_1item_1_1_feather.html" target="_top" xlink:title="pocketmine\\item\\Feather">
<polygon fill="white" stroke="black" points="165.5,-1060.5 165.5,-1081.5 290.5,-1081.5 290.5,-1060.5 165.5,-1060.5"/>
<text text-anchor="middle" x="228" y="-1068.5" font-family="Helvetica,sans-Serif" font-size="10.00">pocketmine\item\Feather</text>
</a>
</g>
<!-- Node1&#45;&gt;Node14 -->
<g id="edge26" class="edge"><title>Node1&#45;&gt;Node14</title>
<path fill="none" stroke="midnightblue" d="M86.7681,-1025.9C104.408,-1034.05 127.129,-1043.91 148,-1051 158.302,-1054.5 169.538,-1057.69 180.245,-1060.43"/>
<polygon fill="midnightblue" stroke="midnightblue" points="88.075,-1022.65 77.5347,-1021.57 85.1048,-1028.98 88.075,-1022.65"/>
</g>
<!-- Node15 -->
<g id="node29" class="node"><title>Node15</title>
<a xlink:href="d4/d10/classpocketmine_1_1item_1_1_gold_ingot.html" target="_top" xlink:title="pocketmine\\item\\GoldIngot">
<polygon fill="white" stroke="black" points="161,-1020.5 161,-1041.5 295,-1041.5 295,-1020.5 161,-1020.5"/>
<text text-anchor="middle" x="228" y="-1028.5" font-family="Helvetica,sans-Serif" font-size="10.00">pocketmine\item\GoldIngot</text>
</a>
</g>
<!-- Node1&#45;&gt;Node15 -->
<g id="edge28" class="edge"><title>Node1&#45;&gt;Node15</title>
<path fill="none" stroke="midnightblue" d="M121.892,-1018.66C134.618,-1020.14 147.965,-1021.69 160.733,-1023.18"/>
<polygon fill="midnightblue" stroke="midnightblue" points="122.181,-1015.17 111.843,-1017.49 121.372,-1022.13 122.181,-1015.17"/>
</g>
<!-- Node16 -->
<g id="node31" class="node"><title>Node16</title>
<a xlink:href="d0/d2a/classpocketmine_1_1item_1_1_iron_door.html" target="_top" xlink:title="pocketmine\\item\\IronDoor">
<polygon fill="white" stroke="black" points="163.5,-980.5 163.5,-1001.5 292.5,-1001.5 292.5,-980.5 163.5,-980.5"/>
<text text-anchor="middle" x="228" y="-988.5" font-family="Helvetica,sans-Serif" font-size="10.00">pocketmine\item\IronDoor</text>
</a>
</g>
<!-- Node1&#45;&gt;Node16 -->
<g id="edge30" class="edge"><title>Node1&#45;&gt;Node16</title>
<path fill="none" stroke="midnightblue" d="M122.071,-1003.32C135.656,-1001.74 149.942,-1000.08 163.472,-998.503"/>
<polygon fill="midnightblue" stroke="midnightblue" points="121.372,-999.875 111.843,-1004.51 122.181,-1006.83 121.372,-999.875"/>
</g>
<!-- Node17 -->
<g id="node33" class="node"><title>Node17</title>
<a xlink:href="d2/d9c/classpocketmine_1_1item_1_1_iron_ingot.html" target="_top" xlink:title="pocketmine\\item\\IronIngot">
<polygon fill="white" stroke="black" points="163,-940.5 163,-961.5 293,-961.5 293,-940.5 163,-940.5"/>
<text text-anchor="middle" x="228" y="-948.5" font-family="Helvetica,sans-Serif" font-size="10.00">pocketmine\item\IronIngot</text>
</a>
</g>
<!-- Node1&#45;&gt;Node17 -->
<g id="edge32" class="edge"><title>Node1&#45;&gt;Node17</title>
<path fill="none" stroke="midnightblue" d="M86.7681,-996.102C104.408,-987.948 127.129,-978.092 148,-971 158.302,-967.499 169.538,-964.315 180.245,-961.567"/>
<polygon fill="midnightblue" stroke="midnightblue" points="85.1048,-993.016 77.5347,-1000.43 88.075,-999.355 85.1048,-993.016"/>
</g>
<!-- Node18 -->
<g id="node35" class="node"><title>Node18</title>
<a xlink:href="de/da4/classpocketmine_1_1item_1_1_melon_seeds.html" target="_top" xlink:title="pocketmine\\item\\MelonSeeds">
<polygon fill="white" stroke="black" points="155,-900.5 155,-921.5 301,-921.5 301,-900.5 155,-900.5"/>
<text text-anchor="middle" x="228" y="-908.5" font-family="Helvetica,sans-Serif" font-size="10.00">pocketmine\item\MelonSeeds</text>
</a>
</g>
<!-- Node1&#45;&gt;Node18 -->
<g id="edge34" class="edge"><title>Node1&#45;&gt;Node18</title>
<path fill="none" stroke="midnightblue" d="M72.0255,-992.733C89.0767,-974.431 117.723,-946.776 148,-931 155.237,-927.229 163.217,-924.146 171.251,-921.631"/>
<polygon fill="midnightblue" stroke="midnightblue" points="69.1839,-990.655 65.0429,-1000.41 74.3615,-995.366 69.1839,-990.655"/>
</g>
<!-- Node19 -->
<g id="node37" class="node"><title>Node19</title>
<a xlink:href="dd/d02/classpocketmine_1_1item_1_1_mushroom_stew.html" target="_top" xlink:title="pocketmine\\item\\MushroomStew">
<polygon fill="white" stroke="black" points="148,-860.5 148,-881.5 308,-881.5 308,-860.5 148,-860.5"/>
<text text-anchor="middle" x="228" y="-868.5" font-family="Helvetica,sans-Serif" font-size="10.00">pocketmine\item\MushroomStew</text>
</a>
</g>
<!-- Node1&#45;&gt;Node19 -->
<g id="edge36" class="edge"><title>Node1&#45;&gt;Node19</title>
<path fill="none" stroke="midnightblue" d="M65.6957,-991.211C79.9325,-964.286 109.08,-916.546 148,-891 153.865,-887.151 160.415,-884.042 167.174,-881.532"/>
<polygon fill="midnightblue" stroke="midnightblue" points="62.4221,-989.925 60.98,-1000.42 68.6529,-993.115 62.4221,-989.925"/>
</g>
<!-- Node20 -->
<g id="node39" class="node"><title>Node20</title>
<a xlink:href="d1/df6/classpocketmine_1_1item_1_1_painting.html" target="_top" xlink:title="pocketmine\\item\\Painting">
<polygon fill="white" stroke="black" points="164.5,-820.5 164.5,-841.5 291.5,-841.5 291.5,-820.5 164.5,-820.5"/>
<text text-anchor="middle" x="228" y="-828.5" font-family="Helvetica,sans-Serif" font-size="10.00">pocketmine\item\Painting</text>
</a>
</g>
<!-- Node1&#45;&gt;Node20 -->
<g id="edge38" class="edge"><title>Node1&#45;&gt;Node20</title>
<path fill="none" stroke="midnightblue" d="M61.906,-990.645C72.9388,-956.349 100.014,-887.25 148,-851 153.026,-847.203 158.688,-844.12 164.618,-841.619"/>
<polygon fill="midnightblue" stroke="midnightblue" points="58.4782,-989.884 58.8815,-1000.47 65.1684,-991.944 58.4782,-989.884"/>
</g>
<!-- Node21 -->
<g id="node41" class="node"><title>Node21</title>
<a xlink:href="db/d9d/classpocketmine_1_1item_1_1_potato.html" target="_top" xlink:title="pocketmine\\item\\Potato">
<polygon fill="white" stroke="black" points="168,-780.5 168,-801.5 288,-801.5 288,-780.5 168,-780.5"/>
<text text-anchor="middle" x="228" y="-788.5" font-family="Helvetica,sans-Serif" font-size="10.00">pocketmine\item\Potato</text>
</a>
</g>
<!-- Node1&#45;&gt;Node21 -->
<g id="edge40" class="edge"><title>Node1&#45;&gt;Node21</title>
<path fill="none" stroke="midnightblue" d="M59.3959,-990.518C67.2533,-949.819 90.5976,-858.6 148,-811 153.841,-806.157 160.692,-802.461 167.885,-799.647"/>
<polygon fill="midnightblue" stroke="midnightblue" points="55.9506,-989.902 57.6109,-1000.37 62.8384,-991.15 55.9506,-989.902"/>
</g>
<!-- Node22 -->
<g id="node43" class="node"><title>Node22</title>
<a xlink:href="d5/dad/classpocketmine_1_1item_1_1_pumpkin_seeds.html" target="_top" xlink:title="pocketmine\\item\\PumpkinSeeds">
<polygon fill="white" stroke="black" points="149,-740.5 149,-761.5 307,-761.5 307,-740.5 149,-740.5"/>
<text text-anchor="middle" x="228" y="-748.5" font-family="Helvetica,sans-Serif" font-size="10.00">pocketmine\item\PumpkinSeeds</text>
</a>
</g>
<!-- Node1&#45;&gt;Node22 -->
<g id="edge42" class="edge"><title>Node1&#45;&gt;Node22</title>
<path fill="none" stroke="midnightblue" d="M57.6557,-990.394C62.5315,-943.906 81.0337,-830.312 148,-771 152.287,-767.203 157.187,-764.105 162.405,-761.579"/>
<polygon fill="midnightblue" stroke="midnightblue" points="54.1611,-990.173 56.708,-1000.46 61.1303,-990.829 54.1611,-990.173"/>
</g>
<!-- Node23 -->
<g id="node45" class="node"><title>Node23</title>
<a xlink:href="de/d78/classpocketmine_1_1item_1_1_sign.html" target="_top" xlink:title="pocketmine\\item\\Sign">
<polygon fill="white" stroke="black" points="172.5,-700.5 172.5,-721.5 283.5,-721.5 283.5,-700.5 172.5,-700.5"/>
<text text-anchor="middle" x="228" y="-708.5" font-family="Helvetica,sans-Serif" font-size="10.00">pocketmine\item\Sign</text>
</a>
</g>
<!-- Node1&#45;&gt;Node23 -->
<g id="edge44" class="edge"><title>Node1&#45;&gt;Node23</title>
<path fill="none" stroke="midnightblue" d="M60.0386,-990.645C71.9649,-932.514 108.664,-767.583 148,-731 154.814,-724.663 163.325,-720.254 172.233,-717.204"/>
<polygon fill="midnightblue" stroke="midnightblue" points="56.5992,-989.995 58.0473,-1000.49 63.4603,-991.383 56.5992,-989.995"/>
</g>
<!-- Node24 -->
<g id="node47" class="node"><title>Node24</title>
<a xlink:href="d9/d7d/classpocketmine_1_1item_1_1_spawn_egg.html" target="_top" xlink:title="pocketmine\\item\\SpawnEgg">
<polygon fill="white" stroke="black" points="158.5,-660.5 158.5,-681.5 297.5,-681.5 297.5,-660.5 158.5,-660.5"/>
<text text-anchor="middle" x="228" y="-668.5" font-family="Helvetica,sans-Serif" font-size="10.00">pocketmine\item\SpawnEgg</text>
</a>
</g>
<!-- Node1&#45;&gt;Node24 -->
<g id="edge46" class="edge"><title>Node1&#45;&gt;Node24</title>
<path fill="none" stroke="midnightblue" d="M59.206,-990.323C69.5209,-926.401 103.77,-733.709 148,-691 151.913,-687.221 156.428,-684.123 161.278,-681.588"/>
<polygon fill="midnightblue" stroke="midnightblue" points="55.7201,-989.959 57.61,-1000.38 62.6336,-991.055 55.7201,-989.959"/>
</g>
<!-- Node25 -->
<g id="node49" class="node"><title>Node25</title>
<a xlink:href="db/db5/classpocketmine_1_1item_1_1_stick.html" target="_top" xlink:title="pocketmine\\item\\Stick">
<polygon fill="white" stroke="black" points="171,-620.5 171,-641.5 285,-641.5 285,-620.5 171,-620.5"/>
<text text-anchor="middle" x="228" y="-628.5" font-family="Helvetica,sans-Serif" font-size="10.00">pocketmine\item\Stick</text>
</a>
</g>
<!-- Node1&#45;&gt;Node25 -->
<g id="edge48" class="edge"><title>Node1&#45;&gt;Node25</title>
<path fill="none" stroke="midnightblue" d="M58.5368,-990.048C67.3527,-920.647 98.8299,-699.914 148,-651 154.293,-644.74 162.23,-640.339 170.646,-637.264"/>
<polygon fill="midnightblue" stroke="midnightblue" points="55.0382,-989.82 57.276,-1000.18 61.9846,-990.684 55.0382,-989.82"/>
</g>
<!-- Node26 -->
<g id="node51" class="node"><title>Node26</title>
<a xlink:href="da/d01/classpocketmine_1_1item_1_1_sugarcane.html" target="_top" xlink:title="pocketmine\\item\\Sugarcane">
<polygon fill="white" stroke="black" points="159,-580.5 159,-601.5 297,-601.5 297,-580.5 159,-580.5"/>
<text text-anchor="middle" x="228" y="-588.5" font-family="Helvetica,sans-Serif" font-size="10.00">pocketmine\item\Sugarcane</text>
</a>
</g>
<!-- Node1&#45;&gt;Node26 -->
<g id="edge50" class="edge"><title>Node1&#45;&gt;Node26</title>
<path fill="none" stroke="midnightblue" d="M57.9498,-990.173C65.3073,-916.01 93.7642,-666.271 148,-611 151.71,-607.219 156.019,-604.113 160.676,-601.567"/>
<polygon fill="midnightblue" stroke="midnightblue" points="54.4633,-989.865 56.9829,-1000.16 61.4307,-990.54 54.4633,-989.865"/>
</g>
<!-- Node27 -->
<g id="node53" class="node"><title>Node27</title>
<a xlink:href="da/de7/classpocketmine_1_1item_1_1_tool.html" target="_top" xlink:title="pocketmine\\item\\Tool">
<polygon fill="white" stroke="black" points="173,-540.5 173,-561.5 283,-561.5 283,-540.5 173,-540.5"/>
<text text-anchor="middle" x="228" y="-548.5" font-family="Helvetica,sans-Serif" font-size="10.00">pocketmine\item\Tool</text>
</a>
</g>
<!-- Node1&#45;&gt;Node27 -->
<g id="edge52" class="edge"><title>Node1&#45;&gt;Node27</title>
<path fill="none" stroke="midnightblue" d="M57.4794,-990.179C63.4975,-911.363 88.7005,-632.65 148,-571 154.749,-563.984 163.557,-559.284 172.854,-556.165"/>
<polygon fill="midnightblue" stroke="midnightblue" points="53.9775,-990.076 56.7289,-1000.31 60.9584,-990.594 53.9775,-990.076"/>
</g>
<!-- Node56 -->
<g id="node111" class="node"><title>Node56</title>
<a xlink:href="d4/d0e/classpocketmine_1_1item_1_1_wheat_seeds.html" target="_top" xlink:title="pocketmine\\item\\WheatSeeds">
<polygon fill="white" stroke="black" points="154,-500.5 154,-521.5 302,-521.5 302,-500.5 154,-500.5"/>
<text text-anchor="middle" x="228" y="-508.5" font-family="Helvetica,sans-Serif" font-size="10.00">pocketmine\item\WheatSeeds</text>
</a>
</g>
<!-- Node1&#45;&gt;Node56 -->
<g id="edge110" class="edge"><title>Node1&#45;&gt;Node56</title>
<path fill="none" stroke="midnightblue" d="M57.0856,-990.186C61.849,-906.925 83.6149,-599.069 148,-531 151.542,-527.256 155.669,-524.169 160.148,-521.629"/>
<polygon fill="midnightblue" stroke="midnightblue" points="53.5895,-990.021 56.534,-1000.2 60.5789,-990.406 53.5895,-990.021"/>
</g>
<!-- Node57 -->
<g id="node113" class="node"><title>Node57</title>
<a xlink:href="dd/d44/classpocketmine_1_1item_1_1_wooden_door.html" target="_top" xlink:title="pocketmine\\item\\WoodenDoor">
<polygon fill="white" stroke="black" points="153.5,-460.5 153.5,-481.5 302.5,-481.5 302.5,-460.5 153.5,-460.5"/>
<text text-anchor="middle" x="228" y="-468.5" font-family="Helvetica,sans-Serif" font-size="10.00">pocketmine\item\WoodenDoor</text>
</a>
</g>
<!-- Node1&#45;&gt;Node57 -->
<g id="edge112" class="edge"><title>Node1&#45;&gt;Node57</title>
<path fill="none" stroke="midnightblue" d="M56.7523,-990.164C60.3377,-902.599 78.5181,-565.514 148,-491 151.515,-487.231 155.623,-484.126 160.089,-481.573"/>
<polygon fill="midnightblue" stroke="midnightblue" points="53.2534,-990.068 56.3618,-1000.2 60.2481,-990.341 53.2534,-990.068"/>
</g>
<!-- Node28 -->
<g id="node55" class="node"><title>Node28</title>
<a xlink:href="d5/dbc/classpocketmine_1_1item_1_1_bow.html" target="_top" xlink:title="pocketmine\\item\\Bow">
<polygon fill="white" stroke="black" points="371.5,-1080.5 371.5,-1101.5 482.5,-1101.5 482.5,-1080.5 371.5,-1080.5"/>
<text text-anchor="middle" x="427" y="-1088.5" font-family="Helvetica,sans-Serif" font-size="10.00">pocketmine\item\Bow</text>
</a>
</g>
<!-- Node27&#45;&gt;Node28 -->
<g id="edge54" class="edge"><title>Node27&#45;&gt;Node28</title>
<path fill="none" stroke="midnightblue" d="M292.65,-559.129C298.481,-562.093 303.769,-565.965 308,-571 379.667,-656.285 271.97,-986.021 344,-1071 350.996,-1079.25 360.752,-1084.43 371.123,-1087.6"/>
<polygon fill="midnightblue" stroke="midnightblue" points="293.695,-555.773 283.117,-555.181 291.017,-562.241 293.695,-555.773"/>
</g>
<!-- Node29 -->
<g id="node57" class="node"><title>Node29</title>
<a xlink:href="d3/dcb/classpocketmine_1_1item_1_1_diamond_axe.html" target="_top" xlink:title="pocketmine\\item\\DiamondAxe">
<polygon fill="white" stroke="black" points="353,-1040.5 353,-1061.5 501,-1061.5 501,-1040.5 353,-1040.5"/>
<text text-anchor="middle" x="427" y="-1048.5" font-family="Helvetica,sans-Serif" font-size="10.00">pocketmine\item\DiamondAxe</text>
</a>
</g>
<!-- Node27&#45;&gt;Node29 -->
<g id="edge56" class="edge"><title>Node27&#45;&gt;Node29</title>
<path fill="none" stroke="midnightblue" d="M292.619,-559.156C298.455,-562.115 303.753,-565.978 308,-571 374.208,-649.293 277.459,-952.99 344,-1031 347.174,-1034.72 350.909,-1037.82 355.008,-1040.38"/>
<polygon fill="midnightblue" stroke="midnightblue" points="293.657,-555.798 283.079,-555.213 290.984,-562.267 293.657,-555.798"/>
</g>
<!-- Node30 -->
<g id="node59" class="node"><title>Node30</title>
<a xlink:href="d7/dbd/classpocketmine_1_1item_1_1_diamond_hoe.html" target="_top" xlink:title="pocketmine\\item\\DiamondHoe">
<polygon fill="white" stroke="black" points="352.5,-1000.5 352.5,-1021.5 501.5,-1021.5 501.5,-1000.5 352.5,-1000.5"/>
<text text-anchor="middle" x="427" y="-1008.5" font-family="Helvetica,sans-Serif" font-size="10.00">pocketmine\item\DiamondHoe</text>
</a>
</g>
<!-- Node27&#45;&gt;Node30 -->
<g id="edge58" class="edge"><title>Node27&#45;&gt;Node30</title>
<path fill="none" stroke="midnightblue" d="M292.581,-559.187C298.424,-562.141 303.735,-565.994 308,-571 368.752,-642.304 282.945,-919.955 344,-991 347.188,-994.71 350.933,-997.795 355.039,-1000.36"/>
<polygon fill="midnightblue" stroke="midnightblue" points="293.613,-555.827 283.034,-555.251 290.945,-562.299 293.613,-555.827"/>
</g>
<!-- Node31 -->
<g id="node61" class="node"><title>Node31</title>
<a xlink:href="df/d0f/classpocketmine_1_1item_1_1_diamond_pickaxe.html" target="_top" xlink:title="pocketmine\\item\\DiamondPickaxe">
<polygon fill="white" stroke="black" points="344,-960.5 344,-981.5 510,-981.5 510,-960.5 344,-960.5"/>
<text text-anchor="middle" x="427" y="-968.5" font-family="Helvetica,sans-Serif" font-size="10.00">pocketmine\item\DiamondPickaxe</text>
</a>
</g>
<!-- Node27&#45;&gt;Node31 -->
<g id="edge60" class="edge"><title>Node27&#45;&gt;Node31</title>
<path fill="none" stroke="midnightblue" d="M292.786,-559.353C298.54,-562.282 303.774,-566.084 308,-571 363.299,-635.319 288.427,-886.918 344,-951 347.205,-954.695 350.962,-957.77 355.077,-960.323"/>
<polygon fill="midnightblue" stroke="midnightblue" points="293.966,-556.052 283.389,-555.434 291.271,-562.513 293.966,-556.052"/>
</g>
<!-- Node32 -->
<g id="node63" class="node"><title>Node32</title>
<a xlink:href="d3/da2/classpocketmine_1_1item_1_1_diamond_shovel.html" target="_top" xlink:title="pocketmine\\item\\DiamondShovel">
<polygon fill="white" stroke="black" points="346.5,-920.5 346.5,-941.5 507.5,-941.5 507.5,-920.5 346.5,-920.5"/>
<text text-anchor="middle" x="427" y="-928.5" font-family="Helvetica,sans-Serif" font-size="10.00">pocketmine\item\DiamondShovel</text>
</a>
</g>
<!-- Node27&#45;&gt;Node32 -->
<g id="edge62" class="edge"><title>Node27&#45;&gt;Node32</title>
<path fill="none" stroke="midnightblue" d="M292.731,-559.4C298.495,-562.321 303.747,-566.108 308,-571 407.7,-685.676 243.812,-796.75 344,-911 347.225,-914.678 350.998,-917.739 355.123,-920.283"/>
<polygon fill="midnightblue" stroke="midnightblue" points="293.9,-556.096 283.323,-555.491 291.214,-562.56 293.9,-556.096"/>
</g>
<!-- Node33 -->
<g id="node65" class="node"><title>Node33</title>
<a xlink:href="d8/dcd/classpocketmine_1_1item_1_1_diamond_sword.html" target="_top" xlink:title="pocketmine\\item\\DiamondSword">
<polygon fill="white" stroke="black" points="348,-880.5 348,-901.5 506,-901.5 506,-880.5 348,-880.5"/>
<text text-anchor="middle" x="427" y="-888.5" font-family="Helvetica,sans-Serif" font-size="10.00">pocketmine\item\DiamondSword</text>
</a>
</g>
<!-- Node27&#45;&gt;Node33 -->
<g id="edge64" class="edge"><title>Node27&#45;&gt;Node33</title>
<path fill="none" stroke="midnightblue" d="M292.662,-559.461C298.439,-562.37 303.713,-566.138 308,-571 396.813,-671.727 254.758,-770.652 344,-871 347.349,-874.766 351.272,-877.884 355.559,-880.46"/>
<polygon fill="midnightblue" stroke="midnightblue" points="293.818,-556.151 283.24,-555.564 291.143,-562.62 293.818,-556.151"/>
</g>
<!-- Node34 -->
<g id="node67" class="node"><title>Node34</title>
<a xlink:href="d5/db8/classpocketmine_1_1item_1_1_flint_steel.html" target="_top" xlink:title="pocketmine\\item\\FlintSteel">
<polygon fill="white" stroke="black" points="360.5,-840.5 360.5,-861.5 493.5,-861.5 493.5,-840.5 360.5,-840.5"/>
<text text-anchor="middle" x="427" y="-848.5" font-family="Helvetica,sans-Serif" font-size="10.00">pocketmine\item\FlintSteel</text>
</a>
</g>
<!-- Node27&#45;&gt;Node34 -->
<g id="edge66" class="edge"><title>Node27&#45;&gt;Node34</title>
<path fill="none" stroke="midnightblue" d="M292.573,-559.54C298.367,-562.434 303.669,-566.177 308,-571 385.944,-657.798 265.687,-744.535 344,-831 348.577,-836.054 354.189,-839.937 360.316,-842.907"/>
<polygon fill="midnightblue" stroke="midnightblue" points="293.712,-556.225 283.133,-555.659 291.051,-562.699 293.712,-556.225"/>
</g>
<!-- Node35 -->
<g id="node69" class="node"><title>Node35</title>
<a xlink:href="da/d8f/classpocketmine_1_1item_1_1_gold_axe.html" target="_top" xlink:title="pocketmine\\item\\GoldAxe">
<polygon fill="white" stroke="black" points="362.5,-800.5 362.5,-821.5 491.5,-821.5 491.5,-800.5 362.5,-800.5"/>
<text text-anchor="middle" x="427" y="-808.5" font-family="Helvetica,sans-Serif" font-size="10.00">pocketmine\item\GoldAxe</text>
</a>
</g>
<!-- Node27&#45;&gt;Node35 -->
<g id="edge68" class="edge"><title>Node27&#45;&gt;Node35</title>
<path fill="none" stroke="midnightblue" d="M292.706,-559.775C298.424,-562.63 303.673,-566.299 308,-571 375.1,-643.898 276.59,-718.389 344,-791 349.143,-796.54 355.531,-800.666 362.464,-803.723"/>
<polygon fill="midnightblue" stroke="midnightblue" points="293.977,-556.513 283.398,-555.928 291.303,-562.982 293.977,-556.513"/>
</g>
<!-- Node36 -->
<g id="node71" class="node"><title>Node36</title>
<a xlink:href="d3/d69/classpocketmine_1_1item_1_1_gold_hoe.html" target="_top" xlink:title="pocketmine\\item\\GoldHoe">
<polygon fill="white" stroke="black" points="362,-760.5 362,-781.5 492,-781.5 492,-760.5 362,-760.5"/>
<text text-anchor="middle" x="427" y="-768.5" font-family="Helvetica,sans-Serif" font-size="10.00">pocketmine\item\GoldHoe</text>
</a>
</g>
<!-- Node27&#45;&gt;Node36 -->
<g id="edge70" class="edge"><title>Node27&#45;&gt;Node36</title>
<path fill="none" stroke="midnightblue" d="M292.538,-559.932C298.289,-562.757 303.591,-566.376 308,-571 364.3,-630.045 287.449,-692.196 344,-751 349.034,-756.235 355.182,-760.199 361.833,-763.186"/>
<polygon fill="midnightblue" stroke="midnightblue" points="293.777,-556.658 283.196,-556.117 291.13,-563.138 293.777,-556.658"/>
</g>
<!-- Node37 -->
<g id="node73" class="node"><title>Node37</title>
<a xlink:href="db/deb/classpocketmine_1_1item_1_1_gold_pickaxe.html" target="_top" xlink:title="pocketmine\\item\\GoldPickaxe">
<polygon fill="white" stroke="black" points="353.5,-720.5 353.5,-741.5 500.5,-741.5 500.5,-720.5 353.5,-720.5"/>
<text text-anchor="middle" x="427" y="-728.5" font-family="Helvetica,sans-Serif" font-size="10.00">pocketmine\item\GoldPickaxe</text>
</a>
</g>
<!-- Node27&#45;&gt;Node37 -->
<g id="edge72" class="edge"><title>Node27&#45;&gt;Node37</title>
<path fill="none" stroke="midnightblue" d="M292.947,-560.502C298.494,-563.229 303.64,-566.67 308,-571 353.581,-616.276 298.226,-665.918 344,-711 347.802,-714.744 352.176,-717.831 356.885,-720.371"/>
<polygon fill="midnightblue" stroke="midnightblue" points="293.882,-557.103 283.301,-556.554 291.23,-563.581 293.882,-557.103"/>
</g>
<!-- Node38 -->
<g id="node75" class="node"><title>Node38</title>
<a xlink:href="db/d16/classpocketmine_1_1item_1_1_gold_shovel.html" target="_top" xlink:title="pocketmine\\item\\GoldShovel">
<polygon fill="white" stroke="black" points="356,-680.5 356,-701.5 498,-701.5 498,-680.5 356,-680.5"/>
<text text-anchor="middle" x="427" y="-688.5" font-family="Helvetica,sans-Serif" font-size="10.00">pocketmine\item\GoldShovel</text>
</a>
</g>
<!-- Node27&#45;&gt;Node38 -->
<g id="edge74" class="edge"><title>Node27&#45;&gt;Node38</title>
<path fill="none" stroke="midnightblue" d="M292.786,-561.055C298.321,-563.676 303.51,-566.94 308,-571 343.038,-602.68 308.827,-639.469 344,-671 348.194,-674.76 352.972,-677.844 358.067,-680.37"/>
<polygon fill="midnightblue" stroke="midnightblue" points="293.792,-557.688 283.208,-557.225 291.193,-564.188 293.792,-557.688"/>
</g>
<!-- Node39 -->
<g id="node77" class="node"><title>Node39</title>
<a xlink:href="d4/db7/classpocketmine_1_1item_1_1_gold_sword.html" target="_top" xlink:title="pocketmine\\item\\GoldSword">
<polygon fill="white" stroke="black" points="357,-640.5 357,-661.5 497,-661.5 497,-640.5 357,-640.5"/>
<text text-anchor="middle" x="427" y="-648.5" font-family="Helvetica,sans-Serif" font-size="10.00">pocketmine\item\GoldSword</text>
</a>
</g>
<!-- Node27&#45;&gt;Node39 -->
<g id="edge76" class="edge"><title>Node27&#45;&gt;Node39</title>
<path fill="none" stroke="midnightblue" d="M292.522,-562.231C298.026,-564.617 303.284,-567.506 308,-571 332.987,-589.514 318.934,-612.593 344,-631 349.137,-634.773 354.89,-637.842 360.907,-640.338"/>
<polygon fill="midnightblue" stroke="midnightblue" points="293.669,-558.923 283.077,-558.67 291.199,-565.473 293.669,-558.923"/>
</g>
<!-- Node40 -->
<g id="node79" class="node"><title>Node40</title>
<a xlink:href="d0/da0/classpocketmine_1_1item_1_1_iron_axe.html" target="_top" xlink:title="pocketmine\\item\\IronAxe">
<polygon fill="white" stroke="black" points="364.5,-600.5 364.5,-621.5 489.5,-621.5 489.5,-600.5 364.5,-600.5"/>
<text text-anchor="middle" x="427" y="-608.5" font-family="Helvetica,sans-Serif" font-size="10.00">pocketmine\item\IronAxe</text>
</a>
</g>
<!-- Node27&#45;&gt;Node40 -->
<g id="edge78" class="edge"><title>Node27&#45;&gt;Node40</title>
<path fill="none" stroke="midnightblue" d="M288.373,-564.28C295.076,-566.288 301.737,-568.527 308,-571 325.024,-577.722 326.947,-584.351 344,-591 353.39,-594.661 363.648,-597.789 373.651,-600.408"/>
<polygon fill="midnightblue" stroke="midnightblue" points="289.14,-560.86 278.565,-561.503 287.233,-567.595 289.14,-560.86"/>
</g>
<!-- Node41 -->
<g id="node81" class="node"><title>Node41</title>
<a xlink:href="d9/d07/classpocketmine_1_1item_1_1_iron_hoe.html" target="_top" xlink:title="pocketmine\\item\\IronHoe">
<polygon fill="white" stroke="black" points="364,-560.5 364,-581.5 490,-581.5 490,-560.5 364,-560.5"/>
<text text-anchor="middle" x="427" y="-568.5" font-family="Helvetica,sans-Serif" font-size="10.00">pocketmine\item\IronHoe</text>
</a>
</g>
<!-- Node27&#45;&gt;Node41 -->
<g id="edge80" class="edge"><title>Node27&#45;&gt;Node41</title>
<path fill="none" stroke="midnightblue" d="M293.389,-557.572C316.091,-559.853 341.488,-562.406 363.994,-564.668"/>
<polygon fill="midnightblue" stroke="midnightblue" points="293.468,-554.062 283.168,-556.545 292.768,-561.027 293.468,-554.062"/>
</g>
<!-- Node42 -->
<g id="node83" class="node"><title>Node42</title>
<a xlink:href="da/d73/classpocketmine_1_1item_1_1_iron_pickaxe.html" target="_top" xlink:title="pocketmine\\item\\IronPickaxe">
<polygon fill="white" stroke="black" points="355.5,-520.5 355.5,-541.5 498.5,-541.5 498.5,-520.5 355.5,-520.5"/>
<text text-anchor="middle" x="427" y="-528.5" font-family="Helvetica,sans-Serif" font-size="10.00">pocketmine\item\IronPickaxe</text>
</a>
</g>
<!-- Node27&#45;&gt;Node42 -->
<g id="edge82" class="edge"><title>Node27&#45;&gt;Node42</title>
<path fill="none" stroke="midnightblue" d="M293.333,-544.434C313.167,-542.44 335.064,-540.24 355.294,-538.207"/>
<polygon fill="midnightblue" stroke="midnightblue" points="292.768,-540.973 283.168,-545.455 293.468,-547.938 292.768,-540.973"/>
</g>
<!-- Node43 -->
<g id="node85" class="node"><title>Node43</title>
<a xlink:href="dd/df5/classpocketmine_1_1item_1_1_iron_shovel.html" target="_top" xlink:title="pocketmine\\item\\IronShovel">
<polygon fill="white" stroke="black" points="358,-480.5 358,-501.5 496,-501.5 496,-480.5 358,-480.5"/>
<text text-anchor="middle" x="427" y="-488.5" font-family="Helvetica,sans-Serif" font-size="10.00">pocketmine\item\IronShovel</text>
</a>
</g>
<!-- Node27&#45;&gt;Node43 -->
<g id="edge84" class="edge"><title>Node27&#45;&gt;Node43</title>
<path fill="none" stroke="midnightblue" d="M288.373,-537.72C295.076,-535.712 301.737,-533.473 308,-531 325.024,-524.278 326.947,-517.649 344,-511 353.39,-507.339 363.648,-504.211 373.651,-501.592"/>
<polygon fill="midnightblue" stroke="midnightblue" points="287.233,-534.405 278.565,-540.497 289.14,-541.14 287.233,-534.405"/>
</g>
<!-- Node44 -->
<g id="node87" class="node"><title>Node44</title>
<a xlink:href="d9/da3/classpocketmine_1_1item_1_1_iron_sword.html" target="_top" xlink:title="pocketmine\\item\\IronSword">
<polygon fill="white" stroke="black" points="359,-440.5 359,-461.5 495,-461.5 495,-440.5 359,-440.5"/>
<text text-anchor="middle" x="427" y="-448.5" font-family="Helvetica,sans-Serif" font-size="10.00">pocketmine\item\IronSword</text>
</a>
</g>
<!-- Node27&#45;&gt;Node44 -->
<g id="edge86" class="edge"><title>Node27&#45;&gt;Node44</title>
<path fill="none" stroke="midnightblue" d="M292.522,-539.769C298.026,-537.383 303.284,-534.494 308,-531 332.987,-512.486 318.934,-489.407 344,-471 349.137,-467.227 354.89,-464.158 360.907,-461.662"/>
<polygon fill="midnightblue" stroke="midnightblue" points="291.199,-536.527 283.077,-543.33 293.669,-543.077 291.199,-536.527"/>
</g>
<!-- Node45 -->
<g id="node89" class="node"><title>Node45</title>
<a xlink:href="dd/d7b/classpocketmine_1_1item_1_1_shears.html" target="_top" xlink:title="pocketmine\\item\\Shears">
<polygon fill="white" stroke="black" points="366,-400.5 366,-421.5 488,-421.5 488,-400.5 366,-400.5"/>
<text text-anchor="middle" x="427" y="-408.5" font-family="Helvetica,sans-Serif" font-size="10.00">pocketmine\item\Shears</text>
</a>
</g>
<!-- Node27&#45;&gt;Node45 -->
<g id="edge88" class="edge"><title>Node27&#45;&gt;Node45</title>
<path fill="none" stroke="midnightblue" d="M292.786,-540.945C298.321,-538.324 303.51,-535.06 308,-531 343.038,-499.32 308.827,-462.531 344,-431 350.291,-425.361 357.895,-421.241 365.916,-418.244"/>
<polygon fill="midnightblue" stroke="midnightblue" points="291.193,-537.812 283.208,-544.775 293.792,-544.312 291.193,-537.812"/>
</g>
<!-- Node46 -->
<g id="node91" class="node"><title>Node46</title>
<a xlink:href="d3/dfd/classpocketmine_1_1item_1_1_stone_axe.html" target="_top" xlink:title="pocketmine\\item\\StoneAxe">
<polygon fill="white" stroke="black" points="360,-360.5 360,-381.5 494,-381.5 494,-360.5 360,-360.5"/>
<text text-anchor="middle" x="427" y="-368.5" font-family="Helvetica,sans-Serif" font-size="10.00">pocketmine\item\StoneAxe</text>
</a>
</g>
<!-- Node27&#45;&gt;Node46 -->
<g id="edge90" class="edge"><title>Node27&#45;&gt;Node46</title>
<path fill="none" stroke="midnightblue" d="M292.947,-541.498C298.494,-538.771 303.64,-535.33 308,-531 353.581,-485.724 298.226,-436.082 344,-391 348.541,-386.528 353.898,-382.994 359.669,-380.209"/>
<polygon fill="midnightblue" stroke="midnightblue" points="291.23,-538.419 283.301,-545.446 293.882,-544.897 291.23,-538.419"/>
</g>
<!-- Node47 -->
<g id="node93" class="node"><title>Node47</title>
<a xlink:href="de/db3/classpocketmine_1_1item_1_1_stone_hoe.html" target="_top" xlink:title="pocketmine\\item\\StoneHoe">
<polygon fill="white" stroke="black" points="359.5,-320.5 359.5,-341.5 494.5,-341.5 494.5,-320.5 359.5,-320.5"/>
<text text-anchor="middle" x="427" y="-328.5" font-family="Helvetica,sans-Serif" font-size="10.00">pocketmine\item\StoneHoe</text>
</a>
</g>
<!-- Node27&#45;&gt;Node47 -->
<g id="edge92" class="edge"><title>Node27&#45;&gt;Node47</title>
<path fill="none" stroke="midnightblue" d="M292.538,-542.068C298.289,-539.243 303.591,-535.624 308,-531 364.3,-471.955 287.449,-409.804 344,-351 348.418,-346.406 353.693,-342.791 359.414,-339.956"/>
<polygon fill="midnightblue" stroke="midnightblue" points="291.13,-538.862 283.196,-545.883 293.777,-545.342 291.13,-538.862"/>
</g>
<!-- Node48 -->
<g id="node95" class="node"><title>Node48</title>
<a xlink:href="d0/dd6/classpocketmine_1_1item_1_1_stone_pickaxe.html" target="_top" xlink:title="pocketmine\\item\\StonePickaxe">
<polygon fill="white" stroke="black" points="351,-280.5 351,-301.5 503,-301.5 503,-280.5 351,-280.5"/>
<text text-anchor="middle" x="427" y="-288.5" font-family="Helvetica,sans-Serif" font-size="10.00">pocketmine\item\StonePickaxe</text>
</a>
</g>
<!-- Node27&#45;&gt;Node48 -->
<g id="edge94" class="edge"><title>Node27&#45;&gt;Node48</title>
<path fill="none" stroke="midnightblue" d="M292.706,-542.225C298.424,-539.37 303.673,-535.701 308,-531 375.1,-458.102 276.59,-383.611 344,-311 347.429,-307.307 351.411,-304.242 355.739,-301.703"/>
<polygon fill="midnightblue" stroke="midnightblue" points="291.303,-539.018 283.398,-546.072 293.977,-545.487 291.303,-539.018"/>
</g>
<!-- Node49 -->
<g id="node97" class="node"><title>Node49</title>
<a xlink:href="d8/d25/classpocketmine_1_1item_1_1_stone_shovel.html" target="_top" xlink:title="pocketmine\\item\\StoneShovel">
<polygon fill="white" stroke="black" points="353.5,-240.5 353.5,-261.5 500.5,-261.5 500.5,-240.5 353.5,-240.5"/>
<text text-anchor="middle" x="427" y="-248.5" font-family="Helvetica,sans-Serif" font-size="10.00">pocketmine\item\StoneShovel</text>
</a>
</g>
<!-- Node27&#45;&gt;Node49 -->
<g id="edge96" class="edge"><title>Node27&#45;&gt;Node49</title>
<path fill="none" stroke="midnightblue" d="M292.573,-542.46C298.367,-539.566 303.669,-535.823 308,-531 385.944,-444.202 265.687,-357.465 344,-271 347.383,-267.265 351.332,-264.169 355.636,-261.609"/>
<polygon fill="midnightblue" stroke="midnightblue" points="291.051,-539.301 283.133,-546.341 293.712,-545.775 291.051,-539.301"/>
</g>
<!-- Node50 -->
<g id="node99" class="node"><title>Node50</title>
<a xlink:href="d8/d74/classpocketmine_1_1item_1_1_stone_sword.html" target="_top" xlink:title="pocketmine\\item\\StoneSword">
<polygon fill="white" stroke="black" points="354.5,-200.5 354.5,-221.5 499.5,-221.5 499.5,-200.5 354.5,-200.5"/>
<text text-anchor="middle" x="427" y="-208.5" font-family="Helvetica,sans-Serif" font-size="10.00">pocketmine\item\StoneSword</text>
</a>
</g>
<!-- Node27&#45;&gt;Node50 -->
<g id="edge98" class="edge"><title>Node27&#45;&gt;Node50</title>
<path fill="none" stroke="midnightblue" d="M292.662,-542.539C298.439,-539.63 303.713,-535.862 308,-531 396.813,-430.273 254.758,-331.348 344,-231 347.349,-227.234 351.272,-224.116 355.559,-221.54"/>
<polygon fill="midnightblue" stroke="midnightblue" points="291.143,-539.38 283.24,-546.436 293.818,-545.849 291.143,-539.38"/>
</g>
<!-- Node51 -->
<g id="node101" class="node"><title>Node51</title>
<a xlink:href="d9/dce/classpocketmine_1_1item_1_1_wooden_axe.html" target="_top" xlink:title="pocketmine\\item\\WoodenAxe">
<polygon fill="white" stroke="black" points="354.5,-160.5 354.5,-181.5 499.5,-181.5 499.5,-160.5 354.5,-160.5"/>
<text text-anchor="middle" x="427" y="-168.5" font-family="Helvetica,sans-Serif" font-size="10.00">pocketmine\item\WoodenAxe</text>
</a>
</g>
<!-- Node27&#45;&gt;Node51 -->
<g id="edge100" class="edge"><title>Node27&#45;&gt;Node51</title>
<path fill="none" stroke="midnightblue" d="M292.731,-542.6C298.495,-539.679 303.747,-535.892 308,-531 407.7,-416.324 243.812,-305.25 344,-191 347.225,-187.322 350.998,-184.261 355.123,-181.717"/>
<polygon fill="midnightblue" stroke="midnightblue" points="291.214,-539.44 283.323,-546.509 293.9,-545.904 291.214,-539.44"/>
</g>
<!-- Node52 -->
<g id="node103" class="node"><title>Node52</title>
<a xlink:href="de/daf/classpocketmine_1_1item_1_1_wooden_hoe.html" target="_top" xlink:title="pocketmine\\item\\WoodenHoe">
<polygon fill="white" stroke="black" points="354,-120.5 354,-141.5 500,-141.5 500,-120.5 354,-120.5"/>
<text text-anchor="middle" x="427" y="-128.5" font-family="Helvetica,sans-Serif" font-size="10.00">pocketmine\item\WoodenHoe</text>
</a>
</g>
<!-- Node27&#45;&gt;Node52 -->
<g id="edge102" class="edge"><title>Node27&#45;&gt;Node52</title>
<path fill="none" stroke="midnightblue" d="M292.786,-542.647C298.54,-539.718 303.774,-535.916 308,-531 363.299,-466.681 288.427,-215.082 344,-151 347.205,-147.305 350.962,-144.23 355.077,-141.677"/>
<polygon fill="midnightblue" stroke="midnightblue" points="291.271,-539.487 283.389,-546.566 293.966,-545.948 291.271,-539.487"/>
</g>
<!-- Node53 -->
<g id="node105" class="node"><title>Node53</title>
<a xlink:href="db/dd0/classpocketmine_1_1item_1_1_wooden_pickaxe.html" target="_top" xlink:title="pocketmine\\item\\WoodenPickaxe">
<polygon fill="white" stroke="black" points="345.5,-80.5 345.5,-101.5 508.5,-101.5 508.5,-80.5 345.5,-80.5"/>
<text text-anchor="middle" x="427" y="-88.5" font-family="Helvetica,sans-Serif" font-size="10.00">pocketmine\item\WoodenPickaxe</text>
</a>
</g>
<!-- Node27&#45;&gt;Node53 -->
<g id="edge104" class="edge"><title>Node27&#45;&gt;Node53</title>
<path fill="none" stroke="midnightblue" d="M292.581,-542.813C298.424,-539.859 303.735,-536.006 308,-531 368.752,-459.696 282.945,-182.045 344,-111 347.188,-107.29 350.933,-104.205 355.039,-101.644"/>
<polygon fill="midnightblue" stroke="midnightblue" points="290.945,-539.701 283.034,-546.749 293.613,-546.173 290.945,-539.701"/>
</g>
<!-- Node54 -->
<g id="node107" class="node"><title>Node54</title>
<a xlink:href="d5/dd5/classpocketmine_1_1item_1_1_wooden_shovel.html" target="_top" xlink:title="pocketmine\\item\\WoodenShovel">
<polygon fill="white" stroke="black" points="348,-40.5 348,-61.5 506,-61.5 506,-40.5 348,-40.5"/>
<text text-anchor="middle" x="427" y="-48.5" font-family="Helvetica,sans-Serif" font-size="10.00">pocketmine\item\WoodenShovel</text>
</a>
</g>
<!-- Node27&#45;&gt;Node54 -->
<g id="edge106" class="edge"><title>Node27&#45;&gt;Node54</title>
<path fill="none" stroke="midnightblue" d="M292.619,-542.844C298.455,-539.885 303.753,-536.022 308,-531 374.208,-452.707 277.459,-149.01 344,-71 347.174,-67.2786 350.909,-64.1843 355.008,-61.6172"/>
<polygon fill="midnightblue" stroke="midnightblue" points="290.984,-539.733 283.079,-546.787 293.657,-546.202 290.984,-539.733"/>
</g>
<!-- Node55 -->
<g id="node109" class="node"><title>Node55</title>
<a xlink:href="d5/dd2/classpocketmine_1_1item_1_1_wooden_sword.html" target="_top" xlink:title="pocketmine\\item\\WoodenSword">
<polygon fill="white" stroke="black" points="349.5,-0.5 349.5,-21.5 504.5,-21.5 504.5,-0.5 349.5,-0.5"/>
<text text-anchor="middle" x="427" y="-8.5" font-family="Helvetica,sans-Serif" font-size="10.00">pocketmine\item\WoodenSword</text>
</a>
</g>
<!-- Node27&#45;&gt;Node55 -->
<g id="edge108" class="edge"><title>Node27&#45;&gt;Node55</title>
<path fill="none" stroke="midnightblue" d="M292.65,-542.871C298.481,-539.907 303.769,-536.035 308,-531 379.667,-445.715 271.97,-115.979 344,-31 347.163,-27.2687 350.889,-24.1671 354.982,-21.5948"/>
<polygon fill="midnightblue" stroke="midnightblue" points="291.017,-539.759 283.117,-546.819 293.695,-546.227 291.017,-539.759"/>
</g>
</g>
</svg>
