<?xml version="1.0" encoding="UTF-8" standalone="no"?>
<!DOCTYPE svg PUBLIC "-//W3C//DTD SVG 1.1//EN"
 "http://www.w3.org/Graphics/SVG/1.1/DTD/svg11.dtd">
<!-- Generated by graphviz version 2.26.3 (20100126.1600)
 -->
<!-- Title: G Pages: 1 -->
<svg width="654pt" height="130pt"
 viewBox="0.00 0.00 654.00 130.00" xmlns="http://www.w3.org/2000/svg" xmlns:xlink="http://www.w3.org/1999/xlink">
<g id="graph1" class="graph" transform="scale(1 1) rotate(0) translate(4 126)">
<title>G</title>
<polygon fill="white" stroke="white" points="-4,5 -4,-126 651,-126 651,5 -4,5"/>
<!-- Node1 -->
<g id="node1" class="node"><title>Node1</title>
<a xlink:href="d7/d3c/interfacepocketmine_1_1inventory_1_1_recipe.html" target="_top" xlink:title="pocketmine\\inventory\\Recipe">
<polygon fill="white" stroke="black" points="0.5,-60.5 0.5,-81.5 143.5,-81.5 143.5,-60.5 0.5,-60.5"/>
<text text-anchor="middle" x="72" y="-68.5" font-family="Helvetica,sans-Serif" font-size="10.00">pocketmine\inventory\Recipe</text>
</a>
</g>
<!-- Node2 -->
<g id="node3" class="node"><title>Node2</title>
<a xlink:href="db/db2/classpocketmine_1_1inventory_1_1_furnace_recipe.html" target="_top" xlink:title="pocketmine\\inventory\\FurnaceRecipe">
<polygon fill="white" stroke="black" points="185.5,-100.5 185.5,-121.5 364.5,-121.5 364.5,-100.5 185.5,-100.5"/>
<text text-anchor="middle" x="275" y="-108.5" font-family="Helvetica,sans-Serif" font-size="10.00">pocketmine\inventory\FurnaceRecipe</text>
</a>
</g>
<!-- Node1&#45;&gt;Node2 -->
<g id="edge2" class="edge"><title>Node1&#45;&gt;Node2</title>
<path fill="none" stroke="midnightblue" d="M135.326,-83.4781C163.041,-88.939 195.199,-95.2757 221.668,-100.491"/>
<polygon fill="midnightblue" stroke="midnightblue" points="135.824,-80.0089 125.336,-81.5095 134.471,-86.8768 135.824,-80.0089"/>
</g>
<!-- Node3 -->
<g id="node5" class="node"><title>Node3</title>
<a xlink:href="d7/d21/classpocketmine_1_1inventory_1_1_shaped_recipe.html" target="_top" xlink:title="pocketmine\\inventory\\ShapedRecipe">
<polygon fill="white" stroke="black" points="187,-60.5 187,-81.5 363,-81.5 363,-60.5 187,-60.5"/>
<text text-anchor="middle" x="275" y="-68.5" font-family="Helvetica,sans-Serif" font-size="10.00">pocketmine\inventory\ShapedRecipe</text>
</a>
</g>
<!-- Node1&#45;&gt;Node3 -->
<g id="edge4" class="edge"><title>Node1&#45;&gt;Node3</title>
<path fill="none" stroke="midnightblue" d="M153.902,-71C164.796,-71 176.003,-71 186.996,-71"/>
<polygon fill="midnightblue" stroke="midnightblue" points="153.57,-67.5001 143.57,-71 153.57,-74.5001 153.57,-67.5001"/>
</g>
<!-- Node4 -->
<g id="node7" class="node"><title>Node4</title>
<a xlink:href="d6/d74/classpocketmine_1_1inventory_1_1_shapeless_recipe.html" target="_top" xlink:title="pocketmine\\inventory\\ShapelessRecipe">
<polygon fill="white" stroke="black" points="180.5,-20.5 180.5,-41.5 369.5,-41.5 369.5,-20.5 180.5,-20.5"/>
<text text-anchor="middle" x="275" y="-28.5" font-family="Helvetica,sans-Serif" font-size="10.00">pocketmine\inventory\ShapelessRecipe</text>
</a>
</g>
<!-- Node1&#45;&gt;Node4 -->
<g id="edge6" class="edge"><title>Node1&#45;&gt;Node4</title>
<path fill="none" stroke="midnightblue" d="M135.326,-58.5219C163.041,-53.061 195.199,-46.7243 221.668,-41.5087"/>
<polygon fill="midnightblue" stroke="midnightblue" points="134.471,-55.1232 125.336,-60.4905 135.824,-61.9911 134.471,-55.1232"/>
</g>
<!-- Node5 -->
<g id="node9" class="node"><title>Node5</title>
<a xlink:href="d8/d7b/classpocketmine_1_1inventory_1_1_big_shapeless_recipe.html" target="_top" xlink:title="pocketmine\\inventory\\BigShapelessRecipe">
<polygon fill="white" stroke="black" points="424.5,-40.5 424.5,-61.5 627.5,-61.5 627.5,-40.5 424.5,-40.5"/>
<text text-anchor="middle" x="526" y="-48.5" font-family="Helvetica,sans-Serif" font-size="10.00">pocketmine\inventory\BigShapelessRecipe</text>
</a>
</g>
<!-- Node4&#45;&gt;Node5 -->
<g id="edge8" class="edge"><title>Node4&#45;&gt;Node5</title>
<path fill="none" stroke="midnightblue" d="M379.703,-39.3429C394.497,-40.5217 409.687,-41.7321 424.421,-42.9061"/>
<polygon fill="midnightblue" stroke="midnightblue" points="379.781,-35.8381 369.535,-38.5326 379.225,-42.816 379.781,-35.8381"/>
</g>
<!-- Node6 -->
<g id="node11" class="node"><title>Node6</title>
<a xlink:href="d5/da2/classpocketmine_1_1inventory_1_1_stonecutter_shapeless_recipe.html" target="_top" xlink:title="pocketmine\\inventory\\StonecutterShapelessRecipe">
<polygon fill="white" stroke="black" points="406.5,-0.5 406.5,-21.5 645.5,-21.5 645.5,-0.5 406.5,-0.5"/>
<text text-anchor="middle" x="526" y="-8.5" font-family="Helvetica,sans-Serif" font-size="10.00">pocketmine\inventory\StonecutterShapelessRecipe</text>
</a>
</g>
<!-- Node4&#45;&gt;Node6 -->
<g id="edge10" class="edge"><title>Node4&#45;&gt;Node6</title>
<path fill="none" stroke="midnightblue" d="M379.703,-22.6571C388.427,-21.962 397.29,-21.2558 406.115,-20.5526"/>
<polygon fill="midnightblue" stroke="midnightblue" points="379.225,-19.184 369.535,-23.4674 379.781,-26.1619 379.225,-19.184"/>
</g>
</g>
</svg>
