<?xml version="1.0" encoding="UTF-8" standalone="no"?>
<!DOCTYPE svg PUBLIC "-//W3C//DTD SVG 1.1//EN"
 "http://www.w3.org/Graphics/SVG/1.1/DTD/svg11.dtd">
<!-- Generated by graphviz version 2.36.0 (20140111.2315)
 -->
<!-- Title: Graphical Class Hierarchy Pages: 1 -->
<svg width="652pt" height="136pt"
 viewBox="0.00 0.00 652.00 136.00" xmlns="http://www.w3.org/2000/svg" xmlns:xlink="http://www.w3.org/1999/xlink">
<g id="graph0" class="graph" transform="scale(1 1) rotate(0) translate(4 132)">
<title>Graphical Class Hierarchy</title>
<polygon fill="white" stroke="none" points="-4,4 -4,-132 648,-132 648,4 -4,4"/>
<!-- Node1 -->
<g id="node1" class="node"><title>Node1</title>
<g id="a_node1"><a xlink:href="d6/d3d/interfacepocketmine_1_1level_1_1format_1_1_full_chunk.html" target="_top" xlink:title="pocketmine\\level\\format\l\\FullChunk">
<polygon fill="white" stroke="black" points="0.5,-73 0.5,-103 133.5,-103 133.5,-73 0.5,-73"/>
<text text-anchor="start" x="8.5" y="-91" font-family="Helvetica,sans-Serif" font-size="10.00">pocketmine\level\format</text>
<text text-anchor="middle" x="67" y="-80" font-family="Helvetica,sans-Serif" font-size="10.00">\FullChunk</text>
</a>
</g>
</g>
<!-- Node2 -->
<g id="node2" class="node"><title>Node2</title>
<g id="a_node2"><a xlink:href="d9/d48/interfacepocketmine_1_1level_1_1format_1_1_chunk.html" target="_top" xlink:title="pocketmine\\level\\format\l\\Chunk">
<polygon fill="white" stroke="black" points="170.5,-98 170.5,-128 303.5,-128 303.5,-98 170.5,-98"/>
<text text-anchor="start" x="178.5" y="-116" font-family="Helvetica,sans-Serif" font-size="10.00">pocketmine\level\format</text>
<text text-anchor="middle" x="237" y="-105" font-family="Helvetica,sans-Serif" font-size="10.00">\Chunk</text>
</a>
</g>
</g>
<!-- Node1&#45;&gt;Node2 -->
<g id="edge1" class="edge"><title>Node1&#45;&gt;Node2</title>
<path fill="none" stroke="midnightblue" d="M143.813,-99.2817C152.643,-100.596 161.595,-101.928 170.274,-103.219"/>
<polygon fill="midnightblue" stroke="midnightblue" points="144.322,-95.819 133.916,-97.8089 143.292,-102.743 144.322,-95.819"/>
</g>
<!-- Node5 -->
<g id="node5" class="node"><title>Node5</title>
<g id="a_node5"><a xlink:href="da/d9a/classpocketmine_1_1level_1_1format_1_1generic_1_1_base_full_chunk.html" target="_top" xlink:title="pocketmine\\level\\format\l\\generic\\BaseFullChunk">
<polygon fill="white" stroke="black" points="170.5,-49 170.5,-79 303.5,-79 303.5,-49 170.5,-49"/>
<text text-anchor="start" x="178.5" y="-67" font-family="Helvetica,sans-Serif" font-size="10.00">pocketmine\level\format</text>
<text text-anchor="middle" x="237" y="-56" font-family="Helvetica,sans-Serif" font-size="10.00">\generic\BaseFullChunk</text>
</a>
</g>
</g>
<!-- Node1&#45;&gt;Node5 -->
<g id="edge4" class="edge"><title>Node1&#45;&gt;Node5</title>
<path fill="none" stroke="midnightblue" d="M144.098,-77.1289C152.836,-75.8806 161.689,-74.6159 170.274,-73.3894"/>
<polygon fill="midnightblue" stroke="midnightblue" points="143.32,-73.7043 133.916,-78.5834 144.31,-80.634 143.32,-73.7043"/>
</g>
<!-- Node3 -->
<g id="node3" class="node"><title>Node3</title>
<g id="a_node3"><a xlink:href="dc/de8/classpocketmine_1_1level_1_1format_1_1generic_1_1_base_chunk.html" target="_top" xlink:title="pocketmine\\level\\format\l\\generic\\BaseChunk">
<polygon fill="white" stroke="black" points="340.5,-98 340.5,-128 473.5,-128 473.5,-98 340.5,-98"/>
<text text-anchor="start" x="348.5" y="-116" font-family="Helvetica,sans-Serif" font-size="10.00">pocketmine\level\format</text>
<text text-anchor="middle" x="407" y="-105" font-family="Helvetica,sans-Serif" font-size="10.00">\generic\BaseChunk</text>
</a>
</g>
</g>
<!-- Node2&#45;&gt;Node3 -->
<g id="edge2" class="edge"><title>Node2&#45;&gt;Node3</title>
<path fill="none" stroke="midnightblue" d="M314.098,-113C322.836,-113 331.689,-113 340.274,-113"/>
<polygon fill="midnightblue" stroke="midnightblue" points="313.916,-109.5 303.916,-113 313.916,-116.5 313.916,-109.5"/>
</g>
<!-- Node4 -->
<g id="node4" class="node"><title>Node4</title>
<g id="a_node4"><a xlink:href="de/d02/classpocketmine_1_1level_1_1format_1_1anvil_1_1_chunk.html" target="_top" xlink:title="pocketmine\\level\\format\l\\anvil\\Chunk">
<polygon fill="white" stroke="black" points="510.5,-98 510.5,-128 643.5,-128 643.5,-98 510.5,-98"/>
<text text-anchor="start" x="518.5" y="-116" font-family="Helvetica,sans-Serif" font-size="10.00">pocketmine\level\format</text>
<text text-anchor="middle" x="577" y="-105" font-family="Helvetica,sans-Serif" font-size="10.00">\anvil\Chunk</text>
</a>
</g>
</g>
<!-- Node3&#45;&gt;Node4 -->
<g id="edge3" class="edge"><title>Node3&#45;&gt;Node4</title>
<path fill="none" stroke="midnightblue" d="M484.098,-113C492.836,-113 501.689,-113 510.274,-113"/>
<polygon fill="midnightblue" stroke="midnightblue" points="483.916,-109.5 473.916,-113 483.916,-116.5 483.916,-109.5"/>
</g>
<!-- Node5&#45;&gt;Node3 -->
<g id="edge5" class="edge"><title>Node5&#45;&gt;Node3</title>
<path fill="none" stroke="midnightblue" d="M299.601,-81.967C317.601,-87.217 337.082,-92.8989 354.395,-97.9484"/>
<polygon fill="midnightblue" stroke="midnightblue" points="300.356,-78.5415 289.776,-79.1014 298.396,-85.2615 300.356,-78.5415"/>
</g>
<!-- Node6 -->
<g id="node6" class="node"><title>Node6</title>
<g id="a_node6"><a xlink:href="df/dbb/classpocketmine_1_1level_1_1format_1_1leveldb_1_1_chunk.html" target="_top" xlink:title="pocketmine\\level\\format\l\\leveldb\\Chunk">
<polygon fill="white" stroke="black" points="340.5,-49 340.5,-79 473.5,-79 473.5,-49 340.5,-49"/>
<text text-anchor="start" x="348.5" y="-67" font-family="Helvetica,sans-Serif" font-size="10.00">pocketmine\level\format</text>
<text text-anchor="middle" x="407" y="-56" font-family="Helvetica,sans-Serif" font-size="10.00">\leveldb\Chunk</text>
</a>
</g>
</g>
<!-- Node5&#45;&gt;Node6 -->
<g id="edge6" class="edge"><title>Node5&#45;&gt;Node6</title>
<path fill="none" stroke="midnightblue" d="M314.098,-64C322.836,-64 331.689,-64 340.274,-64"/>
<polygon fill="midnightblue" stroke="midnightblue" points="313.916,-60.5001 303.916,-64 313.916,-67.5001 313.916,-60.5001"/>
</g>
<!-- Node7 -->
<g id="node7" class="node"><title>Node7</title>
<g id="a_node7"><a xlink:href="dd/dcf/classpocketmine_1_1level_1_1format_1_1mcregion_1_1_chunk.html" target="_top" xlink:title="pocketmine\\level\\format\l\\mcregion\\Chunk">
<polygon fill="white" stroke="black" points="340.5,-0 340.5,-30 473.5,-30 473.5,-0 340.5,-0"/>
<text text-anchor="start" x="348.5" y="-18" font-family="Helvetica,sans-Serif" font-size="10.00">pocketmine\level\format</text>
<text text-anchor="middle" x="407" y="-7" font-family="Helvetica,sans-Serif" font-size="10.00">\mcregion\Chunk</text>
</a>
</g>
</g>
<!-- Node5&#45;&gt;Node7 -->
<g id="edge7" class="edge"><title>Node5&#45;&gt;Node7</title>
<path fill="none" stroke="midnightblue" d="M299.601,-46.033C317.601,-40.783 337.082,-35.1011 354.395,-30.0516"/>
<polygon fill="midnightblue" stroke="midnightblue" points="298.396,-42.7385 289.776,-48.8986 300.356,-49.4585 298.396,-42.7385"/>
</g>
</g>
</svg>
