<?xml version="1.0" encoding="UTF-8" standalone="no"?>
<!DOCTYPE svg PUBLIC "-//W3C//DTD SVG 1.1//EN"
 "http://www.w3.org/Graphics/SVG/1.1/DTD/svg11.dtd">
<!-- Generated by graphviz version 2.26.3 (20100126.1600)
 -->
<!-- Title: Graphical Class Hierarchy Pages: 1 -->
<svg width="288pt" height="42pt"
 viewBox="0.00 0.00 288.00 42.00" xmlns="http://www.w3.org/2000/svg" xmlns:xlink="http://www.w3.org/1999/xlink">
<g id="graph1" class="graph" transform="scale(1 1) rotate(0) translate(4 38)">
<title>Graphical Class Hierarchy</title>
<polygon fill="white" stroke="white" points="-4,5 -4,-38 285,-38 285,5 -4,5"/>
<!-- Node1 -->
<g id="node1" class="node"><title>Node1</title>
<a xlink:href="d3/d5d/classpocketmine_1_1level_1_1format_1_1mcregion_1_1_region_loader.html" target="_top" xlink:title="pocketmine\\level\\format\l\\mcregion\\RegionLoader">
<polygon fill="white" stroke="black" points="0,-0 0,-34 122,-34 122,-0 0,-0"/>
<text text-anchor="start" x="8" y="-21" font-family="Helvetica,sans-Serif" font-size="10.00">pocketmine\level\format</text>
<text text-anchor="middle" x="61" y="-8" font-family="Helvetica,sans-Serif" font-size="10.00">\mcregion\RegionLoader</text>
</a>
</g>
<!-- Node2 -->
<g id="node3" class="node"><title>Node2</title>
<a xlink:href="de/da6/classpocketmine_1_1level_1_1format_1_1anvil_1_1_region_loader.html" target="_top" xlink:title="pocketmine\\level\\format\l\\anvil\\RegionLoader">
<polygon fill="white" stroke="black" points="158.5,-0 158.5,-34 279.5,-34 279.5,-0 158.5,-0"/>
<text text-anchor="start" x="166.5" y="-21" font-family="Helvetica,sans-Serif" font-size="10.00">pocketmine\level\format</text>
<text text-anchor="middle" x="219" y="-8" font-family="Helvetica,sans-Serif" font-size="10.00">\anvil\RegionLoader</text>
</a>
</g>
<!-- Node1&#45;&gt;Node2 -->
<g id="edge2" class="edge"><title>Node1&#45;&gt;Node2</title>
<path fill="none" stroke="midnightblue" d="M132.235,-17C140.951,-17 149.795,-17 158.336,-17"/>
<polygon fill="midnightblue" stroke="midnightblue" points="132.087,-13.5001 122.087,-17 132.087,-20.5001 132.087,-13.5001"/>
</g>
</g>
</svg>
