<?xml version="1.0" encoding="UTF-8" standalone="no"?>
<!DOCTYPE svg PUBLIC "-//W3C//DTD SVG 1.1//EN"
 "http://www.w3.org/Graphics/SVG/1.1/DTD/svg11.dtd">
<!-- Generated by graphviz version 2.26.3 (20100126.1600)
 -->
<!-- Title: G Pages: 1 -->
<svg width="518pt" height="1870pt"
 viewBox="0.00 0.00 518.00 1870.00" xmlns="http://www.w3.org/2000/svg" xmlns:xlink="http://www.w3.org/1999/xlink">
<g id="graph1" class="graph" transform="scale(1 1) rotate(0) translate(4 1866)">
<title>G</title>
<polygon fill="white" stroke="white" points="-4,5 -4,-1866 515,-1866 515,5 -4,5"/>
<!-- Node1 -->
<g id="node1" class="node"><title>Node1</title>
<a xlink:href="d0/d90/classpocketmine_1_1network_1_1protocol_1_1_data_packet.html" target="_top" xlink:title="pocketmine\\network\\protocol\\DataPacket">
<polygon fill="white" stroke="black" points="0.5,-920.5 0.5,-941.5 197.5,-941.5 197.5,-920.5 0.5,-920.5"/>
<text text-anchor="middle" x="99" y="-928.5" font-family="Helvetica,sans-Serif" font-size="10.00">pocketmine\network\protocol\DataPacket</text>
</a>
</g>
<!-- Node2 -->
<g id="node3" class="node"><title>Node2</title>
<a xlink:href="db/d44/classpocketmine_1_1network_1_1protocol_1_1_add_entity_packet.html" target="_top" xlink:title="pocketmine\\network\\protocol\\AddEntityPacket">
<polygon fill="white" stroke="black" points="263,-1840.5 263,-1861.5 481,-1861.5 481,-1840.5 263,-1840.5"/>
<text text-anchor="middle" x="372" y="-1848.5" font-family="Helvetica,sans-Serif" font-size="10.00">pocketmine\network\protocol\AddEntityPacket</text>
</a>
</g>
<!-- Node1&#45;&gt;Node2 -->
<g id="edge2" class="edge"><title>Node1&#45;&gt;Node2</title>
<path fill="none" stroke="midnightblue" d="M100.657,-951.95C111.069,-1081.17 169.109,-1766.43 234,-1831 242.151,-1839.11 252.029,-1844.9 262.711,-1848.95"/>
<polygon fill="midnightblue" stroke="midnightblue" points="104.132,-951.492 99.8457,-941.802 97.154,-952.05 104.132,-951.492"/>
</g>
<!-- Node3 -->
<g id="node5" class="node"><title>Node3</title>
<a xlink:href="d3/d5a/classpocketmine_1_1network_1_1protocol_1_1_add_item_entity_packet.html" target="_top" xlink:title="pocketmine\\network\\protocol\\AddItemEntityPacket">
<polygon fill="white" stroke="black" points="253,-1800.5 253,-1821.5 491,-1821.5 491,-1800.5 253,-1800.5"/>
<text text-anchor="middle" x="372" y="-1808.5" font-family="Helvetica,sans-Serif" font-size="10.00">pocketmine\network\protocol\AddItemEntityPacket</text>
</a>
</g>
<!-- Node1&#45;&gt;Node3 -->
<g id="edge4" class="edge"><title>Node1&#45;&gt;Node3</title>
<path fill="none" stroke="midnightblue" d="M100.795,-951.79C111.81,-1077.21 171.846,-1729.57 234,-1791 239.596,-1796.53 245.995,-1800.98 252.904,-1804.53"/>
<polygon fill="midnightblue" stroke="midnightblue" points="104.263,-951.277 99.9078,-941.619 97.2897,-951.885 104.263,-951.277"/>
</g>
<!-- Node4 -->
<g id="node7" class="node"><title>Node4</title>
<a xlink:href="de/db2/classpocketmine_1_1network_1_1protocol_1_1_add_mob_packet.html" target="_top" xlink:title="pocketmine\\network\\protocol\\AddMobPacket">
<polygon fill="white" stroke="black" points="266,-1760.5 266,-1781.5 478,-1781.5 478,-1760.5 266,-1760.5"/>
<text text-anchor="middle" x="372" y="-1768.5" font-family="Helvetica,sans-Serif" font-size="10.00">pocketmine\network\protocol\AddMobPacket</text>
</a>
</g>
<!-- Node1&#45;&gt;Node4 -->
<g id="edge6" class="edge"><title>Node1&#45;&gt;Node4</title>
<path fill="none" stroke="midnightblue" d="M99.2385,-951.656C101.021,-1067.46 115.758,-1635.01 234,-1751 242.987,-1759.82 254.016,-1765.87 265.888,-1769.93"/>
<polygon fill="midnightblue" stroke="midnightblue" points="102.738,-951.574 99.1002,-941.623 95.7385,-951.671 102.738,-951.574"/>
</g>
<!-- Node5 -->
<g id="node9" class="node"><title>Node5</title>
<a xlink:href="da/db2/classpocketmine_1_1network_1_1protocol_1_1_add_painting_packet.html" target="_top" xlink:title="pocketmine\\network\\protocol\\AddPaintingPacket">
<polygon fill="white" stroke="black" points="258,-1720.5 258,-1741.5 486,-1741.5 486,-1720.5 258,-1720.5"/>
<text text-anchor="middle" x="372" y="-1728.5" font-family="Helvetica,sans-Serif" font-size="10.00">pocketmine\network\protocol\AddPaintingPacket</text>
</a>
</g>
<!-- Node1&#45;&gt;Node5 -->
<g id="edge8" class="edge"><title>Node1&#45;&gt;Node5</title>
<path fill="none" stroke="midnightblue" d="M99.4286,-951.701C102.203,-1064.23 121.269,-1601.32 234,-1711 240.941,-1717.75 249.081,-1722.88 257.878,-1726.73"/>
<polygon fill="midnightblue" stroke="midnightblue" points="102.926,-951.56 99.1973,-941.644 95.9282,-951.721 102.926,-951.56"/>
</g>
<!-- Node6 -->
<g id="node11" class="node"><title>Node6</title>
<a xlink:href="df/df5/classpocketmine_1_1network_1_1protocol_1_1_add_player_packet.html" target="_top" xlink:title="pocketmine\\network\\protocol\\AddPlayerPacket">
<polygon fill="white" stroke="black" points="261.5,-1680.5 261.5,-1701.5 482.5,-1701.5 482.5,-1680.5 261.5,-1680.5"/>
<text text-anchor="middle" x="372" y="-1688.5" font-family="Helvetica,sans-Serif" font-size="10.00">pocketmine\network\protocol\AddPlayerPacket</text>
</a>
</g>
<!-- Node1&#45;&gt;Node6 -->
<g id="edge10" class="edge"><title>Node1&#45;&gt;Node6</title>
<path fill="none" stroke="midnightblue" d="M99.6365,-951.661C103.436,-1060.64 126.742,-1567.59 234,-1671 241.843,-1678.56 251.192,-1684.08 261.276,-1688.05"/>
<polygon fill="midnightblue" stroke="midnightblue" points="103.133,-951.5 99.3036,-941.622 96.1371,-951.732 103.133,-951.5"/>
</g>
<!-- Node7 -->
<g id="node13" class="node"><title>Node7</title>
<a xlink:href="dd/d12/classpocketmine_1_1network_1_1protocol_1_1_adventure_settings_packet.html" target="_top" xlink:title="pocketmine\\network\\protocol\\AdventureSettingsPacket">
<polygon fill="white" stroke="black" points="244,-1640.5 244,-1661.5 500,-1661.5 500,-1640.5 244,-1640.5"/>
<text text-anchor="middle" x="372" y="-1648.5" font-family="Helvetica,sans-Serif" font-size="10.00">pocketmine\network\protocol\AdventureSettingsPacket</text>
</a>
</g>
<!-- Node1&#45;&gt;Node7 -->
<g id="edge12" class="edge"><title>Node1&#45;&gt;Node7</title>
<path fill="none" stroke="midnightblue" d="M99.8776,-951.855C104.774,-1057.67 132.278,-1533.91 234,-1631 237.765,-1634.59 241.871,-1637.72 246.234,-1640.45"/>
<polygon fill="midnightblue" stroke="midnightblue" points="103.36,-951.391 99.4195,-941.556 96.3674,-951.702 103.36,-951.391"/>
</g>
<!-- Node8 -->
<g id="node15" class="node"><title>Node8</title>
<a xlink:href="da/da3/classpocketmine_1_1network_1_1protocol_1_1_animate_packet.html" target="_top" xlink:title="pocketmine\\network\\protocol\\AnimatePacket">
<polygon fill="white" stroke="black" points="266,-1600.5 266,-1621.5 478,-1621.5 478,-1600.5 266,-1600.5"/>
<text text-anchor="middle" x="372" y="-1608.5" font-family="Helvetica,sans-Serif" font-size="10.00">pocketmine\network\protocol\AnimatePacket</text>
</a>
</g>
<!-- Node1&#45;&gt;Node8 -->
<g id="edge14" class="edge"><title>Node1&#45;&gt;Node8</title>
<path fill="none" stroke="midnightblue" d="M100.145,-951.949C106.182,-1054.26 137.767,-1500.18 234,-1591 243.067,-1599.56 254.071,-1605.48 265.865,-1609.48"/>
<polygon fill="midnightblue" stroke="midnightblue" points="103.624,-951.475 99.5587,-941.691 96.6351,-951.874 103.624,-951.475"/>
</g>
<!-- Node9 -->
<g id="node17" class="node"><title>Node9</title>
<a xlink:href="dc/dd2/classpocketmine_1_1network_1_1protocol_1_1_chat_packet.html" target="_top" xlink:title="pocketmine\\network\\protocol\\ChatPacket">
<polygon fill="white" stroke="black" points="273.5,-1560.5 273.5,-1581.5 470.5,-1581.5 470.5,-1560.5 273.5,-1560.5"/>
<text text-anchor="middle" x="372" y="-1568.5" font-family="Helvetica,sans-Serif" font-size="10.00">pocketmine\network\protocol\ChatPacket</text>
</a>
</g>
<!-- Node1&#45;&gt;Node9 -->
<g id="edge16" class="edge"><title>Node1&#45;&gt;Node9</title>
<path fill="none" stroke="midnightblue" d="M100.416,-951.609C107.578,-1049.5 143.106,-1466.3 234,-1551 244.981,-1561.23 258.737,-1567.68 273.28,-1571.58"/>
<polygon fill="midnightblue" stroke="midnightblue" points="103.899,-951.247 99.6972,-941.521 96.9171,-951.745 103.899,-951.247"/>
</g>
<!-- Node10 -->
<g id="node19" class="node"><title>Node10</title>
<a xlink:href="db/d83/classpocketmine_1_1network_1_1protocol_1_1_container_close_packet.html" target="_top" xlink:title="pocketmine\\network\\protocol\\ContainerClosePacket">
<polygon fill="white" stroke="black" points="250.5,-1520.5 250.5,-1541.5 493.5,-1541.5 493.5,-1520.5 250.5,-1520.5"/>
<text text-anchor="middle" x="372" y="-1528.5" font-family="Helvetica,sans-Serif" font-size="10.00">pocketmine\network\protocol\ContainerClosePacket</text>
</a>
</g>
<!-- Node1&#45;&gt;Node10 -->
<g id="edge18" class="edge"><title>Node1&#45;&gt;Node10</title>
<path fill="none" stroke="midnightblue" d="M100.761,-951.77C109.189,-1046.05 148.583,-1432.53 234,-1511 238.992,-1515.59 244.543,-1519.41 250.47,-1522.58"/>
<polygon fill="midnightblue" stroke="midnightblue" points="104.243,-951.418 99.8853,-941.761 97.27,-952.028 104.243,-951.418"/>
</g>
<!-- Node11 -->
<g id="node21" class="node"><title>Node11</title>
<a xlink:href="d9/dfc/classpocketmine_1_1network_1_1protocol_1_1_container_open_packet.html" target="_top" xlink:title="pocketmine\\network\\protocol\\ContainerOpenPacket">
<polygon fill="white" stroke="black" points="251.5,-1480.5 251.5,-1501.5 492.5,-1501.5 492.5,-1480.5 251.5,-1480.5"/>
<text text-anchor="middle" x="372" y="-1488.5" font-family="Helvetica,sans-Serif" font-size="10.00">pocketmine\network\protocol\ContainerOpenPacket</text>
</a>
</g>
<!-- Node1&#45;&gt;Node11 -->
<g id="edge20" class="edge"><title>Node1&#45;&gt;Node11</title>
<path fill="none" stroke="midnightblue" d="M101.171,-952.049C110.966,-1042.74 154.073,-1398.77 234,-1471 239.209,-1475.71 245.008,-1479.6 251.198,-1482.82"/>
<polygon fill="midnightblue" stroke="midnightblue" points="104.631,-951.487 100.097,-941.912 97.6703,-952.225 104.631,-951.487"/>
</g>
<!-- Node12 -->
<g id="node23" class="node"><title>Node12</title>
<a xlink:href="d6/dd0/classpocketmine_1_1network_1_1protocol_1_1_container_set_content_packet.html" target="_top" xlink:title="pocketmine\\network\\protocol\\ContainerSetContentPacket">
<polygon fill="white" stroke="black" points="238.5,-1440.5 238.5,-1461.5 505.5,-1461.5 505.5,-1440.5 238.5,-1440.5"/>
<text text-anchor="middle" x="372" y="-1448.5" font-family="Helvetica,sans-Serif" font-size="10.00">pocketmine\network\protocol\ContainerSetContentPacket</text>
</a>
</g>
<!-- Node1&#45;&gt;Node12 -->
<g id="edge22" class="edge"><title>Node1&#45;&gt;Node12</title>
<path fill="none" stroke="midnightblue" d="M101.555,-951.576C112.631,-1037.31 159.319,-1364.77 234,-1431 238.075,-1434.61 242.5,-1437.75 247.182,-1440.46"/>
<polygon fill="midnightblue" stroke="midnightblue" points="105.012,-951.014 100.28,-941.535 98.068,-951.896 105.012,-951.014"/>
</g>
<!-- Node13 -->
<g id="node25" class="node"><title>Node13</title>
<a xlink:href="d0/d67/classpocketmine_1_1network_1_1protocol_1_1_container_set_data_packet.html" target="_top" xlink:title="pocketmine\\network\\protocol\\ContainerSetDataPacket">
<polygon fill="white" stroke="black" points="245,-1400.5 245,-1421.5 499,-1421.5 499,-1400.5 245,-1400.5"/>
<text text-anchor="middle" x="372" y="-1408.5" font-family="Helvetica,sans-Serif" font-size="10.00">pocketmine\network\protocol\ContainerSetDataPacket</text>
</a>
</g>
<!-- Node1&#45;&gt;Node13 -->
<g id="edge24" class="edge"><title>Node1&#45;&gt;Node13</title>
<path fill="none" stroke="midnightblue" d="M102.049,-951.479C114.567,-1032.72 164.651,-1330.83 234,-1391 238.114,-1394.57 242.571,-1397.67 247.279,-1400.35"/>
<polygon fill="midnightblue" stroke="midnightblue" points="105.495,-950.863 100.534,-941.502 98.5747,-951.914 105.495,-950.863"/>
</g>
<!-- Node14 -->
<g id="node27" class="node"><title>Node14</title>
<a xlink:href="d7/d8e/classpocketmine_1_1network_1_1protocol_1_1_container_set_slot_packet.html" target="_top" xlink:title="pocketmine\\network\\protocol\\ContainerSetSlotPacket">
<polygon fill="white" stroke="black" points="247,-1360.5 247,-1381.5 497,-1381.5 497,-1360.5 247,-1360.5"/>
<text text-anchor="middle" x="372" y="-1368.5" font-family="Helvetica,sans-Serif" font-size="10.00">pocketmine\network\protocol\ContainerSetSlotPacket</text>
</a>
</g>
<!-- Node1&#45;&gt;Node14 -->
<g id="edge26" class="edge"><title>Node1&#45;&gt;Node14</title>
<path fill="none" stroke="midnightblue" d="M102.681,-951.662C116.816,-1028.61 170.031,-1296.92 234,-1351 238.252,-1354.59 242.854,-1357.71 247.708,-1360.39"/>
<polygon fill="midnightblue" stroke="midnightblue" points="106.111,-950.961 100.883,-941.746 99.2235,-952.21 106.111,-950.961"/>
</g>
<!-- Node15 -->
<g id="node29" class="node"><title>Node15</title>
<a xlink:href="d4/db8/classpocketmine_1_1network_1_1protocol_1_1_drop_item_packet.html" target="_top" xlink:title="pocketmine\\network\\protocol\\DropItemPacket">
<polygon fill="white" stroke="black" points="264,-1320.5 264,-1341.5 480,-1341.5 480,-1320.5 264,-1320.5"/>
<text text-anchor="middle" x="372" y="-1328.5" font-family="Helvetica,sans-Serif" font-size="10.00">pocketmine\network\protocol\DropItemPacket</text>
</a>
</g>
<!-- Node1&#45;&gt;Node15 -->
<g id="edge28" class="edge"><title>Node1&#45;&gt;Node15</title>
<path fill="none" stroke="midnightblue" d="M103.481,-951.996C119.4,-1024.56 175.41,-1262.97 234,-1311 242.799,-1318.21 253.019,-1323.45 263.841,-1327.2"/>
<polygon fill="midnightblue" stroke="midnightblue" points="106.816,-950.859 101.276,-941.827 99.9751,-952.342 106.816,-950.859"/>
</g>
<!-- Node16 -->
<g id="node31" class="node"><title>Node16</title>
<a xlink:href="d3/d24/classpocketmine_1_1network_1_1protocol_1_1_entity_data_packet.html" target="_top" xlink:title="pocketmine\\network\\protocol\\EntityDataPacket">
<polygon fill="white" stroke="black" points="261,-1280.5 261,-1301.5 483,-1301.5 483,-1280.5 261,-1280.5"/>
<text text-anchor="middle" x="372" y="-1288.5" font-family="Helvetica,sans-Serif" font-size="10.00">pocketmine\network\protocol\EntityDataPacket</text>
</a>
</g>
<!-- Node1&#45;&gt;Node16 -->
<g id="edge30" class="edge"><title>Node1&#45;&gt;Node16</title>
<path fill="none" stroke="midnightblue" d="M100.373,-952.01C105.547,-1012.56 129.342,-1188.36 234,-1271 242.075,-1277.38 251.272,-1282.19 260.996,-1285.77"/>
<polygon fill="midnightblue" stroke="midnightblue" points="103.844,-951.497 99.5885,-941.795 96.8649,-952.034 103.844,-951.497"/>
</g>
<!-- Node17 -->
<g id="node33" class="node"><title>Node17</title>
<a xlink:href="da/da5/classpocketmine_1_1network_1_1protocol_1_1_entity_event_packet.html" target="_top" xlink:title="pocketmine\\network\\protocol\\EntityEventPacket">
<polygon fill="white" stroke="black" points="258.5,-1240.5 258.5,-1261.5 485.5,-1261.5 485.5,-1240.5 258.5,-1240.5"/>
<text text-anchor="middle" x="372" y="-1248.5" font-family="Helvetica,sans-Serif" font-size="10.00">pocketmine\network\protocol\EntityEventPacket</text>
</a>
</g>
<!-- Node1&#45;&gt;Node17 -->
<g id="edge32" class="edge"><title>Node1&#45;&gt;Node17</title>
<path fill="none" stroke="midnightblue" d="M101.542,-951.763C109.529,-1007.28 139.49,-1159.76 234,-1231 241.346,-1236.54 249.552,-1240.87 258.2,-1244.24"/>
<polygon fill="midnightblue" stroke="midnightblue" points="104.994,-951.171 100.191,-941.728 98.0567,-952.106 104.994,-951.171"/>
</g>
<!-- Node18 -->
<g id="node35" class="node"><title>Node18</title>
<a xlink:href="d1/d8d/classpocketmine_1_1network_1_1protocol_1_1_explode_packet.html" target="_top" xlink:title="pocketmine\\network\\protocol\\ExplodePacket">
<polygon fill="white" stroke="black" points="266.5,-1200.5 266.5,-1221.5 477.5,-1221.5 477.5,-1200.5 266.5,-1200.5"/>
<text text-anchor="middle" x="372" y="-1208.5" font-family="Helvetica,sans-Serif" font-size="10.00">pocketmine\network\protocol\ExplodePacket</text>
</a>
</g>
<!-- Node1&#45;&gt;Node18 -->
<g id="edge34" class="edge"><title>Node1&#45;&gt;Node18</title>
<path fill="none" stroke="midnightblue" d="M103.044,-951.679C114.056,-1001.98 149.594,-1131.01 234,-1191 243.669,-1197.87 254.692,-1202.85 266.197,-1206.4"/>
<polygon fill="midnightblue" stroke="midnightblue" points="106.426,-950.753 100.955,-941.68 99.5737,-952.184 106.426,-950.753"/>
</g>
<!-- Node19 -->
<g id="node37" class="node"><title>Node19</title>
<a xlink:href="df/d7e/classpocketmine_1_1network_1_1protocol_1_1_full_chunk_data_packet.html" target="_top" xlink:title="pocketmine\\network\\protocol\\FullChunkDataPacket">
<polygon fill="white" stroke="black" points="251.5,-1160.5 251.5,-1181.5 492.5,-1181.5 492.5,-1160.5 251.5,-1160.5"/>
<text text-anchor="middle" x="372" y="-1168.5" font-family="Helvetica,sans-Serif" font-size="10.00">pocketmine\network\protocol\FullChunkDataPacket</text>
</a>
</g>
<!-- Node1&#45;&gt;Node19 -->
<g id="edge36" class="edge"><title>Node1&#45;&gt;Node19</title>
<path fill="none" stroke="midnightblue" d="M104.903,-951.204C119.034,-995.646 159.309,-1101.83 234,-1151 239.561,-1154.66 245.519,-1157.77 251.726,-1160.39"/>
<polygon fill="midnightblue" stroke="midnightblue" points="108.216,-950.07 101.936,-941.537 101.524,-952.124 108.216,-950.07"/>
</g>
<!-- Node20 -->
<g id="node39" class="node"><title>Node20</title>
<a xlink:href="dd/d8f/classpocketmine_1_1network_1_1protocol_1_1_hurt_armor_packet.html" target="_top" xlink:title="pocketmine\\network\\protocol\\HurtArmorPacket">
<polygon fill="white" stroke="black" points="261.5,-1120.5 261.5,-1141.5 482.5,-1141.5 482.5,-1120.5 261.5,-1120.5"/>
<text text-anchor="middle" x="372" y="-1128.5" font-family="Helvetica,sans-Serif" font-size="10.00">pocketmine\network\protocol\HurtArmorPacket</text>
</a>
</g>
<!-- Node1&#45;&gt;Node20 -->
<g id="edge38" class="edge"><title>Node1&#45;&gt;Node20</title>
<path fill="none" stroke="midnightblue" d="M107.761,-951.427C125.42,-989.869 169.212,-1072.55 234,-1111 242.431,-1116 251.649,-1119.93 261.193,-1122.98"/>
<polygon fill="midnightblue" stroke="midnightblue" points="110.75,-949.536 103.477,-941.831 104.358,-952.389 110.75,-949.536"/>
</g>
<!-- Node21 -->
<g id="node41" class="node"><title>Node21</title>
<a xlink:href="d4/db5/classpocketmine_1_1network_1_1protocol_1_1_interact_packet.html" target="_top" xlink:title="pocketmine\\network\\protocol\\InteractPacket">
<polygon fill="white" stroke="black" points="267.5,-1080.5 267.5,-1101.5 476.5,-1101.5 476.5,-1080.5 267.5,-1080.5"/>
<text text-anchor="middle" x="372" y="-1088.5" font-family="Helvetica,sans-Serif" font-size="10.00">pocketmine\network\protocol\InteractPacket</text>
</a>
</g>
<!-- Node1&#45;&gt;Node21 -->
<g id="edge40" class="edge"><title>Node1&#45;&gt;Node21</title>
<path fill="none" stroke="midnightblue" d="M111.3,-950.361C132.28,-981.569 178.18,-1042.38 234,-1071 244.34,-1076.3 255.655,-1080.32 267.214,-1083.35"/>
<polygon fill="midnightblue" stroke="midnightblue" points="114.022,-948.13 105.605,-941.695 108.172,-951.974 114.022,-948.13"/>
</g>
<!-- Node22 -->
<g id="node43" class="node"><title>Node22</title>
<a xlink:href="d7/df5/classpocketmine_1_1network_1_1protocol_1_1_level_event_packet.html" target="_top" xlink:title="pocketmine\\network\\protocol\\LevelEventPacket">
<polygon fill="white" stroke="black" points="260,-1040.5 260,-1061.5 484,-1061.5 484,-1040.5 260,-1040.5"/>
<text text-anchor="middle" x="372" y="-1048.5" font-family="Helvetica,sans-Serif" font-size="10.00">pocketmine\network\protocol\LevelEventPacket</text>
</a>
</g>
<!-- Node1&#45;&gt;Node22 -->
<g id="edge42" class="edge"><title>Node1&#45;&gt;Node22</title>
<path fill="none" stroke="midnightblue" d="M116.737,-948.783C140.946,-971.879 186.752,-1011.54 234,-1031 243.289,-1034.83 253.193,-1037.94 263.269,-1040.47"/>
<polygon fill="midnightblue" stroke="midnightblue" points="118.995,-946.096 109.384,-941.638 114.117,-951.117 118.995,-946.096"/>
</g>
<!-- Node23 -->
<g id="node45" class="node"><title>Node23</title>
<a xlink:href="d8/dac/classpocketmine_1_1network_1_1protocol_1_1_login_packet.html" target="_top" xlink:title="pocketmine\\network\\protocol\\LoginPacket">
<polygon fill="white" stroke="black" points="272.5,-1000.5 272.5,-1021.5 471.5,-1021.5 471.5,-1000.5 272.5,-1000.5"/>
<text text-anchor="middle" x="372" y="-1008.5" font-family="Helvetica,sans-Serif" font-size="10.00">pocketmine\network\protocol\LoginPacket</text>
</a>
</g>
<!-- Node1&#45;&gt;Node23 -->
<g id="edge44" class="edge"><title>Node1&#45;&gt;Node23</title>
<path fill="none" stroke="midnightblue" d="M127.64,-946.508C154.389,-960.311 195.813,-979.975 234,-991 247.257,-994.828 261.453,-997.942 275.511,-1000.47"/>
<polygon fill="midnightblue" stroke="midnightblue" points="128.965,-943.251 118.482,-941.714 125.719,-949.452 128.965,-943.251"/>
</g>
<!-- Node24 -->
<g id="node47" class="node"><title>Node24</title>
<a xlink:href="d3/df3/classpocketmine_1_1network_1_1protocol_1_1_login_status_packet.html" target="_top" xlink:title="pocketmine\\network\\protocol\\LoginStatusPacket">
<polygon fill="white" stroke="black" points="258.5,-960.5 258.5,-981.5 485.5,-981.5 485.5,-960.5 258.5,-960.5"/>
<text text-anchor="middle" x="372" y="-968.5" font-family="Helvetica,sans-Serif" font-size="10.00">pocketmine\network\protocol\LoginStatusPacket</text>
</a>
</g>
<!-- Node1&#45;&gt;Node24 -->
<g id="edge46" class="edge"><title>Node1&#45;&gt;Node24</title>
<path fill="none" stroke="midnightblue" d="M180.091,-943.056C197.853,-945.685 216.559,-948.444 234,-951 255.078,-954.089 277.972,-957.417 298.942,-960.456"/>
<polygon fill="midnightblue" stroke="midnightblue" points="180.163,-939.529 169.759,-941.526 179.138,-946.453 180.163,-939.529"/>
</g>
<!-- Node25 -->
<g id="node49" class="node"><title>Node25</title>
<a xlink:href="d7/d59/classpocketmine_1_1network_1_1protocol_1_1_message_packet.html" target="_top" xlink:title="pocketmine\\network\\protocol\\MessagePacket">
<polygon fill="white" stroke="black" points="264.5,-920.5 264.5,-941.5 479.5,-941.5 479.5,-920.5 264.5,-920.5"/>
<text text-anchor="middle" x="372" y="-928.5" font-family="Helvetica,sans-Serif" font-size="10.00">pocketmine\network\protocol\MessagePacket</text>
</a>
</g>
<!-- Node1&#45;&gt;Node25 -->
<g id="edge48" class="edge"><title>Node1&#45;&gt;Node25</title>
<path fill="none" stroke="midnightblue" d="M207.818,-931C226.432,-931 245.764,-931 264.348,-931"/>
<polygon fill="midnightblue" stroke="midnightblue" points="207.559,-927.5 197.559,-931 207.559,-934.5 207.559,-927.5"/>
</g>
<!-- Node26 -->
<g id="node51" class="node"><title>Node26</title>
<a xlink:href="d2/dd0/classpocketmine_1_1network_1_1protocol_1_1_move_entity_packet.html" target="_top" xlink:title="pocketmine\\network\\protocol\\MoveEntityPacket">
<polygon fill="white" stroke="black" points="259.5,-880.5 259.5,-901.5 484.5,-901.5 484.5,-880.5 259.5,-880.5"/>
<text text-anchor="middle" x="372" y="-888.5" font-family="Helvetica,sans-Serif" font-size="10.00">pocketmine\network\protocol\MoveEntityPacket</text>
</a>
</g>
<!-- Node1&#45;&gt;Node26 -->
<g id="edge50" class="edge"><title>Node1&#45;&gt;Node26</title>
<path fill="none" stroke="midnightblue" d="M180.091,-918.944C197.853,-916.315 216.559,-913.556 234,-911 255.078,-907.911 277.972,-904.583 298.942,-901.544"/>
<polygon fill="midnightblue" stroke="midnightblue" points="179.138,-915.547 169.759,-920.474 180.163,-922.471 179.138,-915.547"/>
</g>
<!-- Node27 -->
<g id="node53" class="node"><title>Node27</title>
<a xlink:href="d0/de4/classpocketmine_1_1network_1_1protocol_1_1_move_player_packet.html" target="_top" xlink:title="pocketmine\\network\\protocol\\MovePlayerPacket">
<polygon fill="white" stroke="black" points="258.5,-840.5 258.5,-861.5 485.5,-861.5 485.5,-840.5 258.5,-840.5"/>
<text text-anchor="middle" x="372" y="-848.5" font-family="Helvetica,sans-Serif" font-size="10.00">pocketmine\network\protocol\MovePlayerPacket</text>
</a>
</g>
<!-- Node1&#45;&gt;Node27 -->
<g id="edge52" class="edge"><title>Node1&#45;&gt;Node27</title>
<path fill="none" stroke="midnightblue" d="M127.64,-915.492C154.389,-901.689 195.813,-882.025 234,-871 247.257,-867.172 261.453,-864.058 275.511,-861.528"/>
<polygon fill="midnightblue" stroke="midnightblue" points="125.719,-912.548 118.482,-920.286 128.965,-918.749 125.719,-912.548"/>
</g>
<!-- Node28 -->
<g id="node55" class="node"><title>Node28</title>
<a xlink:href="df/db5/classpocketmine_1_1network_1_1protocol_1_1_player_action_packet.html" target="_top" xlink:title="pocketmine\\network\\protocol\\PlayerActionPacket">
<polygon fill="white" stroke="black" points="256.5,-800.5 256.5,-821.5 487.5,-821.5 487.5,-800.5 256.5,-800.5"/>
<text text-anchor="middle" x="372" y="-808.5" font-family="Helvetica,sans-Serif" font-size="10.00">pocketmine\network\protocol\PlayerActionPacket</text>
</a>
</g>
<!-- Node1&#45;&gt;Node28 -->
<g id="edge54" class="edge"><title>Node1&#45;&gt;Node28</title>
<path fill="none" stroke="midnightblue" d="M116.737,-913.217C140.946,-890.121 186.752,-850.462 234,-831 243.289,-827.174 253.193,-824.062 263.269,-821.534"/>
<polygon fill="midnightblue" stroke="midnightblue" points="114.117,-910.883 109.384,-920.362 118.995,-915.904 114.117,-910.883"/>
</g>
<!-- Node29 -->
<g id="node57" class="node"><title>Node29</title>
<a xlink:href="d1/daf/classpocketmine_1_1network_1_1protocol_1_1_player_armor_equipment_packet.html" target="_top" xlink:title="pocketmine\\network\\protocol\\PlayerArmorEquipmentPacket">
<polygon fill="white" stroke="black" points="234,-760.5 234,-781.5 510,-781.5 510,-760.5 234,-760.5"/>
<text text-anchor="middle" x="372" y="-768.5" font-family="Helvetica,sans-Serif" font-size="10.00">pocketmine\network\protocol\PlayerArmorEquipmentPacket</text>
</a>
</g>
<!-- Node1&#45;&gt;Node29 -->
<g id="edge56" class="edge"><title>Node1&#45;&gt;Node29</title>
<path fill="none" stroke="midnightblue" d="M111.3,-911.639C132.28,-880.431 178.18,-819.619 234,-791 241.324,-787.245 249.137,-784.134 257.18,-781.564"/>
<polygon fill="midnightblue" stroke="midnightblue" points="108.172,-910.026 105.605,-920.305 114.022,-913.87 108.172,-910.026"/>
</g>
<!-- Node30 -->
<g id="node59" class="node"><title>Node30</title>
<a xlink:href="db/d44/classpocketmine_1_1network_1_1protocol_1_1_player_equipment_packet.html" target="_top" xlink:title="pocketmine\\network\\protocol\\PlayerEquipmentPacket">
<polygon fill="white" stroke="black" points="247,-720.5 247,-741.5 497,-741.5 497,-720.5 247,-720.5"/>
<text text-anchor="middle" x="372" y="-728.5" font-family="Helvetica,sans-Serif" font-size="10.00">pocketmine\network\protocol\PlayerEquipmentPacket</text>
</a>
</g>
<!-- Node1&#45;&gt;Node30 -->
<g id="edge58" class="edge"><title>Node1&#45;&gt;Node30</title>
<path fill="none" stroke="midnightblue" d="M107.761,-910.573C125.42,-872.131 169.212,-789.45 234,-751 240.246,-747.293 246.922,-744.181 253.844,-741.574"/>
<polygon fill="midnightblue" stroke="midnightblue" points="104.358,-909.611 103.477,-920.169 110.75,-912.464 104.358,-909.611"/>
</g>
<!-- Node31 -->
<g id="node61" class="node"><title>Node31</title>
<a xlink:href="d4/d01/classpocketmine_1_1network_1_1protocol_1_1_remove_block_packet.html" target="_top" xlink:title="pocketmine\\network\\protocol\\RemoveBlockPacket">
<polygon fill="white" stroke="black" points="253.5,-680.5 253.5,-701.5 490.5,-701.5 490.5,-680.5 253.5,-680.5"/>
<text text-anchor="middle" x="372" y="-688.5" font-family="Helvetica,sans-Serif" font-size="10.00">pocketmine\network\protocol\RemoveBlockPacket</text>
</a>
</g>
<!-- Node1&#45;&gt;Node31 -->
<g id="edge60" class="edge"><title>Node1&#45;&gt;Node31</title>
<path fill="none" stroke="midnightblue" d="M104.903,-910.796C119.034,-866.354 159.309,-760.167 234,-711 240.066,-707.007 246.606,-703.675 253.425,-700.904"/>
<polygon fill="midnightblue" stroke="midnightblue" points="101.524,-909.876 101.936,-920.463 108.216,-911.93 101.524,-909.876"/>
</g>
<!-- Node32 -->
<g id="node63" class="node"><title>Node32</title>
<a xlink:href="d9/dc6/classpocketmine_1_1network_1_1protocol_1_1_remove_entity_packet.html" target="_top" xlink:title="pocketmine\\network\\protocol\\RemoveEntityPacket">
<polygon fill="white" stroke="black" points="253,-640.5 253,-661.5 491,-661.5 491,-640.5 253,-640.5"/>
<text text-anchor="middle" x="372" y="-648.5" font-family="Helvetica,sans-Serif" font-size="10.00">pocketmine\network\protocol\RemoveEntityPacket</text>
</a>
</g>
<!-- Node1&#45;&gt;Node32 -->
<g id="edge62" class="edge"><title>Node1&#45;&gt;Node32</title>
<path fill="none" stroke="midnightblue" d="M103.044,-910.321C114.056,-860.017 149.594,-730.992 234,-671 239.821,-666.863 246.133,-663.413 252.745,-660.548"/>
<polygon fill="midnightblue" stroke="midnightblue" points="99.5737,-909.816 100.955,-920.32 106.426,-911.247 99.5737,-909.816"/>
</g>
<!-- Node33 -->
<g id="node65" class="node"><title>Node33</title>
<a xlink:href="d4/de2/classpocketmine_1_1network_1_1protocol_1_1_remove_player_packet.html" target="_top" xlink:title="pocketmine\\network\\protocol\\RemovePlayerPacket">
<polygon fill="white" stroke="black" points="252,-600.5 252,-621.5 492,-621.5 492,-600.5 252,-600.5"/>
<text text-anchor="middle" x="372" y="-608.5" font-family="Helvetica,sans-Serif" font-size="10.00">pocketmine\network\protocol\RemovePlayerPacket</text>
</a>
</g>
<!-- Node1&#45;&gt;Node33 -->
<g id="edge64" class="edge"><title>Node1&#45;&gt;Node33</title>
<path fill="none" stroke="midnightblue" d="M101.542,-910.237C109.529,-854.719 139.49,-702.242 234,-631 239.509,-626.847 245.503,-623.371 251.803,-620.472"/>
<polygon fill="midnightblue" stroke="midnightblue" points="98.0567,-909.894 100.191,-920.272 104.994,-910.829 98.0567,-909.894"/>
</g>
<!-- Node34 -->
<g id="node67" class="node"><title>Node34</title>
<a xlink:href="d0/dc6/classpocketmine_1_1network_1_1protocol_1_1_respawn_packet.html" target="_top" xlink:title="pocketmine\\network\\protocol\\RespawnPacket">
<polygon fill="white" stroke="black" points="263.5,-560.5 263.5,-581.5 480.5,-581.5 480.5,-560.5 263.5,-560.5"/>
<text text-anchor="middle" x="372" y="-568.5" font-family="Helvetica,sans-Serif" font-size="10.00">pocketmine\network\protocol\RespawnPacket</text>
</a>
</g>
<!-- Node1&#45;&gt;Node34 -->
<g id="edge66" class="edge"><title>Node1&#45;&gt;Node34</title>
<path fill="none" stroke="midnightblue" d="M100.373,-909.99C105.547,-849.44 129.342,-673.64 234,-591 242.74,-584.099 252.794,-579.032 263.409,-575.363"/>
<polygon fill="midnightblue" stroke="midnightblue" points="96.8649,-909.966 99.5885,-920.205 103.844,-910.503 96.8649,-909.966"/>
</g>
<!-- Node35 -->
<g id="node69" class="node"><title>Node35</title>
<a xlink:href="de/df9/classpocketmine_1_1network_1_1protocol_1_1_rotate_head_packet.html" target="_top" xlink:title="pocketmine\\network\\protocol\\RotateHeadPacket">
<polygon fill="white" stroke="black" points="258,-520.5 258,-541.5 486,-541.5 486,-520.5 258,-520.5"/>
<text text-anchor="middle" x="372" y="-528.5" font-family="Helvetica,sans-Serif" font-size="10.00">pocketmine\network\protocol\RotateHeadPacket</text>
</a>
</g>
<!-- Node1&#45;&gt;Node35 -->
<g id="edge68" class="edge"><title>Node1&#45;&gt;Node35</title>
<path fill="none" stroke="midnightblue" d="M103.481,-910.004C119.4,-837.436 175.41,-599.03 234,-551 241.114,-545.168 249.157,-540.626 257.696,-537.121"/>
<polygon fill="midnightblue" stroke="midnightblue" points="99.9751,-909.658 101.276,-920.173 106.816,-911.141 99.9751,-909.658"/>
</g>
<!-- Node36 -->
<g id="node71" class="node"><title>Node36</title>
<a xlink:href="d4/d02/classpocketmine_1_1network_1_1protocol_1_1_send_inventory_packet.html" target="_top" xlink:title="pocketmine\\network\\protocol\\SendInventoryPacket">
<polygon fill="white" stroke="black" points="252.5,-480.5 252.5,-501.5 491.5,-501.5 491.5,-480.5 252.5,-480.5"/>
<text text-anchor="middle" x="372" y="-488.5" font-family="Helvetica,sans-Serif" font-size="10.00">pocketmine\network\protocol\SendInventoryPacket</text>
</a>
</g>
<!-- Node1&#45;&gt;Node36 -->
<g id="edge70" class="edge"><title>Node1&#45;&gt;Node36</title>
<path fill="none" stroke="midnightblue" d="M102.681,-910.338C116.816,-833.387 170.031,-565.084 234,-511 239.546,-506.311 245.687,-502.446 252.208,-499.277"/>
<polygon fill="midnightblue" stroke="midnightblue" points="99.2235,-909.79 100.883,-920.254 106.111,-911.039 99.2235,-909.79"/>
</g>
<!-- Node37 -->
<g id="node73" class="node"><title>Node37</title>
<a xlink:href="d9/d80/classpocketmine_1_1network_1_1protocol_1_1_set_entity_data_packet.html" target="_top" xlink:title="pocketmine\\network\\protocol\\SetEntityDataPacket">
<polygon fill="white" stroke="black" points="253.5,-440.5 253.5,-461.5 490.5,-461.5 490.5,-440.5 253.5,-440.5"/>
<text text-anchor="middle" x="372" y="-448.5" font-family="Helvetica,sans-Serif" font-size="10.00">pocketmine\network\protocol\SetEntityDataPacket</text>
</a>
</g>
<!-- Node1&#45;&gt;Node37 -->
<g id="edge72" class="edge"><title>Node1&#45;&gt;Node37</title>
<path fill="none" stroke="midnightblue" d="M102.049,-910.521C114.567,-829.278 164.651,-531.168 234,-471 239.851,-465.923 246.396,-461.803 253.37,-458.48"/>
<polygon fill="midnightblue" stroke="midnightblue" points="98.5747,-910.086 100.534,-920.498 105.495,-911.137 98.5747,-910.086"/>
</g>
<!-- Node38 -->
<g id="node75" class="node"><title>Node38</title>
<a xlink:href="da/dec/classpocketmine_1_1network_1_1protocol_1_1_set_entity_motion_packet.html" target="_top" xlink:title="pocketmine\\network\\protocol\\SetEntityMotionPacket">
<polygon fill="white" stroke="black" points="249.5,-400.5 249.5,-421.5 494.5,-421.5 494.5,-400.5 249.5,-400.5"/>
<text text-anchor="middle" x="372" y="-408.5" font-family="Helvetica,sans-Serif" font-size="10.00">pocketmine\network\protocol\SetEntityMotionPacket</text>
</a>
</g>
<!-- Node1&#45;&gt;Node38 -->
<g id="edge74" class="edge"><title>Node1&#45;&gt;Node38</title>
<path fill="none" stroke="midnightblue" d="M101.555,-910.424C112.631,-824.689 159.319,-497.231 234,-431 238.709,-426.824 243.885,-423.289 249.385,-420.31"/>
<polygon fill="midnightblue" stroke="midnightblue" points="98.068,-910.104 100.28,-920.465 105.012,-910.986 98.068,-910.104"/>
</g>
<!-- Node39 -->
<g id="node77" class="node"><title>Node39</title>
<a xlink:href="dc/df1/classpocketmine_1_1network_1_1protocol_1_1_set_health_packet.html" target="_top" xlink:title="pocketmine\\network\\protocol\\SetHealthPacket">
<polygon fill="white" stroke="black" points="262.5,-360.5 262.5,-381.5 481.5,-381.5 481.5,-360.5 262.5,-360.5"/>
<text text-anchor="middle" x="372" y="-368.5" font-family="Helvetica,sans-Serif" font-size="10.00">pocketmine\network\protocol\SetHealthPacket</text>
</a>
</g>
<!-- Node1&#45;&gt;Node39 -->
<g id="edge76" class="edge"><title>Node1&#45;&gt;Node39</title>
<path fill="none" stroke="midnightblue" d="M101.171,-909.951C110.966,-819.264 154.073,-463.233 234,-391 242.262,-383.533 252.01,-378.104 262.445,-374.222"/>
<polygon fill="midnightblue" stroke="midnightblue" points="97.6703,-909.775 100.097,-920.088 104.631,-910.513 97.6703,-909.775"/>
</g>
<!-- Node40 -->
<g id="node79" class="node"><title>Node40</title>
<a xlink:href="de/dee/classpocketmine_1_1network_1_1protocol_1_1_set_spawn_position_packet.html" target="_top" xlink:title="pocketmine\\network\\protocol\\SetSpawnPositionPacket">
<polygon fill="white" stroke="black" points="244,-320.5 244,-341.5 500,-341.5 500,-320.5 244,-320.5"/>
<text text-anchor="middle" x="372" y="-328.5" font-family="Helvetica,sans-Serif" font-size="10.00">pocketmine\network\protocol\SetSpawnPositionPacket</text>
</a>
</g>
<!-- Node1&#45;&gt;Node40 -->
<g id="edge78" class="edge"><title>Node1&#45;&gt;Node40</title>
<path fill="none" stroke="midnightblue" d="M100.761,-910.23C109.189,-815.951 148.583,-429.468 234,-351 237.922,-347.397 242.189,-344.265 246.713,-341.551"/>
<polygon fill="midnightblue" stroke="midnightblue" points="97.27,-909.972 99.8853,-920.239 104.243,-910.582 97.27,-909.972"/>
</g>
<!-- Node41 -->
<g id="node81" class="node"><title>Node41</title>
<a xlink:href="d5/da1/classpocketmine_1_1network_1_1protocol_1_1_set_time_packet.html" target="_top" xlink:title="pocketmine\\network\\protocol\\SetTimePacket">
<polygon fill="white" stroke="black" points="266,-280.5 266,-301.5 478,-301.5 478,-280.5 266,-280.5"/>
<text text-anchor="middle" x="372" y="-288.5" font-family="Helvetica,sans-Serif" font-size="10.00">pocketmine\network\protocol\SetTimePacket</text>
</a>
</g>
<!-- Node1&#45;&gt;Node41 -->
<g id="edge80" class="edge"><title>Node1&#45;&gt;Node41</title>
<path fill="none" stroke="midnightblue" d="M100.416,-910.391C107.578,-812.498 143.106,-395.705 234,-311 243.121,-302.5 254.157,-296.611 265.968,-292.626"/>
<polygon fill="midnightblue" stroke="midnightblue" points="96.9171,-910.255 99.6972,-920.479 103.899,-910.753 96.9171,-910.255"/>
</g>
<!-- Node42 -->
<g id="node83" class="node"><title>Node42</title>
<a xlink:href="da/d6b/classpocketmine_1_1network_1_1protocol_1_1_start_game_packet.html" target="_top" xlink:title="pocketmine\\network\\protocol\\StartGamePacket">
<polygon fill="white" stroke="black" points="260.5,-240.5 260.5,-261.5 483.5,-261.5 483.5,-240.5 260.5,-240.5"/>
<text text-anchor="middle" x="372" y="-248.5" font-family="Helvetica,sans-Serif" font-size="10.00">pocketmine\network\protocol\StartGamePacket</text>
</a>
</g>
<!-- Node1&#45;&gt;Node42 -->
<g id="edge82" class="edge"><title>Node1&#45;&gt;Node42</title>
<path fill="none" stroke="midnightblue" d="M100.145,-910.051C106.182,-807.737 137.767,-361.822 234,-271 241.659,-263.772 250.699,-258.423 260.43,-254.523"/>
<polygon fill="midnightblue" stroke="midnightblue" points="96.6351,-910.126 99.5587,-920.309 103.624,-910.525 96.6351,-910.126"/>
</g>
<!-- Node43 -->
<g id="node85" class="node"><title>Node43</title>
<a xlink:href="d8/dee/classpocketmine_1_1network_1_1protocol_1_1_take_item_entity_packet.html" target="_top" xlink:title="pocketmine\\network\\protocol\\TakeItemEntityPacket">
<polygon fill="white" stroke="black" points="251,-200.5 251,-221.5 493,-221.5 493,-200.5 251,-200.5"/>
<text text-anchor="middle" x="372" y="-208.5" font-family="Helvetica,sans-Serif" font-size="10.00">pocketmine\network\protocol\TakeItemEntityPacket</text>
</a>
</g>
<!-- Node1&#45;&gt;Node43 -->
<g id="edge84" class="edge"><title>Node1&#45;&gt;Node43</title>
<path fill="none" stroke="midnightblue" d="M99.8776,-910.145C104.774,-804.334 132.278,-328.09 234,-231 239.079,-226.153 244.777,-222.147 250.891,-218.854"/>
<polygon fill="midnightblue" stroke="midnightblue" points="96.3674,-910.298 99.4195,-920.444 103.36,-910.609 96.3674,-910.298"/>
</g>
<!-- Node44 -->
<g id="node87" class="node"><title>Node44</title>
<a xlink:href="db/d39/classpocketmine_1_1network_1_1protocol_1_1_tile_event_packet.html" target="_top" xlink:title="pocketmine\\network\\protocol\\TileEventPacket">
<polygon fill="white" stroke="black" points="263.5,-160.5 263.5,-181.5 480.5,-181.5 480.5,-160.5 263.5,-160.5"/>
<text text-anchor="middle" x="372" y="-168.5" font-family="Helvetica,sans-Serif" font-size="10.00">pocketmine\network\protocol\TileEventPacket</text>
</a>
</g>
<!-- Node1&#45;&gt;Node44 -->
<g id="edge86" class="edge"><title>Node1&#45;&gt;Node44</title>
<path fill="none" stroke="midnightblue" d="M99.6365,-910.339C103.436,-801.359 126.742,-294.41 234,-191 242.365,-182.935 252.445,-177.191 263.303,-173.181"/>
<polygon fill="midnightblue" stroke="midnightblue" points="96.1371,-910.268 99.3036,-920.378 103.133,-910.5 96.1371,-910.268"/>
</g>
<!-- Node45 -->
<g id="node89" class="node"><title>Node45</title>
<a xlink:href="d6/ddc/classpocketmine_1_1network_1_1protocol_1_1_unknown_packet.html" target="_top" xlink:title="pocketmine\\network\\protocol\\UnknownPacket">
<polygon fill="white" stroke="black" points="263.5,-120.5 263.5,-141.5 480.5,-141.5 480.5,-120.5 263.5,-120.5"/>
<text text-anchor="middle" x="372" y="-128.5" font-family="Helvetica,sans-Serif" font-size="10.00">pocketmine\network\protocol\UnknownPacket</text>
</a>
</g>
<!-- Node1&#45;&gt;Node45 -->
<g id="edge88" class="edge"><title>Node1&#45;&gt;Node45</title>
<path fill="none" stroke="midnightblue" d="M99.4286,-910.299C102.203,-797.771 121.269,-260.677 234,-151 242.329,-142.897 252.386,-137.129 263.23,-133.106"/>
<polygon fill="midnightblue" stroke="midnightblue" points="95.9282,-910.279 99.1973,-920.356 102.926,-910.44 95.9282,-910.279"/>
</g>
<!-- Node46 -->
<g id="node91" class="node"><title>Node46</title>
<a xlink:href="dd/df5/classpocketmine_1_1network_1_1protocol_1_1_unload_chunk_packet.html" target="_top" xlink:title="pocketmine\\network\\protocol\\UnloadChunkPacket">
<polygon fill="white" stroke="black" points="254.5,-80.5 254.5,-101.5 489.5,-101.5 489.5,-80.5 254.5,-80.5"/>
<text text-anchor="middle" x="372" y="-88.5" font-family="Helvetica,sans-Serif" font-size="10.00">pocketmine\network\protocol\UnloadChunkPacket</text>
</a>
</g>
<!-- Node1&#45;&gt;Node46 -->
<g id="edge90" class="edge"><title>Node1&#45;&gt;Node46</title>
<path fill="none" stroke="midnightblue" d="M99.2385,-910.344C101.021,-794.539 115.758,-226.988 234,-111 239.962,-105.151 246.824,-100.516 254.234,-96.8728"/>
<polygon fill="midnightblue" stroke="midnightblue" points="95.7385,-910.329 99.1002,-920.377 102.738,-910.426 95.7385,-910.329"/>
</g>
<!-- Node47 -->
<g id="node93" class="node"><title>Node47</title>
<a xlink:href="df/d27/classpocketmine_1_1network_1_1protocol_1_1_update_block_packet.html" target="_top" xlink:title="pocketmine\\network\\protocol\\UpdateBlockPacket">
<polygon fill="white" stroke="black" points="256,-40.5 256,-61.5 488,-61.5 488,-40.5 256,-40.5"/>
<text text-anchor="middle" x="372" y="-48.5" font-family="Helvetica,sans-Serif" font-size="10.00">pocketmine\network\protocol\UpdateBlockPacket</text>
</a>
</g>
<!-- Node1&#45;&gt;Node47 -->
<g id="edge92" class="edge"><title>Node1&#45;&gt;Node47</title>
<path fill="none" stroke="midnightblue" d="M100.795,-910.21C111.81,-784.793 171.846,-132.426 234,-71 240.371,-64.7037 247.783,-59.8097 255.802,-56.0441"/>
<polygon fill="midnightblue" stroke="midnightblue" points="97.2897,-910.115 99.9078,-920.381 104.263,-910.723 97.2897,-910.115"/>
</g>
<!-- Node48 -->
<g id="node95" class="node"><title>Node48</title>
<a xlink:href="d2/d97/classpocketmine_1_1network_1_1protocol_1_1_use_item_packet.html" target="_top" xlink:title="pocketmine\\network\\protocol\\UseItemPacket">
<polygon fill="white" stroke="black" points="265.5,-0.5 265.5,-21.5 478.5,-21.5 478.5,-0.5 265.5,-0.5"/>
<text text-anchor="middle" x="372" y="-8.5" font-family="Helvetica,sans-Serif" font-size="10.00">pocketmine\network\protocol\UseItemPacket</text>
</a>
</g>
<!-- Node1&#45;&gt;Node48 -->
<g id="edge94" class="edge"><title>Node1&#45;&gt;Node48</title>
<path fill="none" stroke="midnightblue" d="M100.657,-910.05C111.069,-780.832 169.109,-95.5693 234,-31 242.838,-22.2061 253.704,-16.141 265.426,-12.0626"/>
<polygon fill="midnightblue" stroke="midnightblue" points="97.154,-909.95 99.8457,-920.198 104.132,-910.508 97.154,-909.95"/>
</g>
</g>
</svg>
