<?xml version="1.0" encoding="UTF-8" standalone="no"?>
<!DOCTYPE svg PUBLIC "-//W3C//DTD SVG 1.1//EN"
 "http://www.w3.org/Graphics/SVG/1.1/DTD/svg11.dtd">
<!-- Generated by graphviz version 2.36.0 (20140111.2315)
 -->
<!-- Title: Graphical Class Hierarchy Pages: 1 -->
<svg width="502pt" height="38pt"
 viewBox="0.00 0.00 502.00 38.00" xmlns="http://www.w3.org/2000/svg" xmlns:xlink="http://www.w3.org/1999/xlink">
<g id="graph0" class="graph" transform="scale(1 1) rotate(0) translate(4 34)">
<title>Graphical Class Hierarchy</title>
<polygon fill="white" stroke="none" points="-4,4 -4,-34 498,-34 498,4 -4,4"/>
<!-- Node1 -->
<g id="node1" class="node"><title>Node1</title>
<g id="a_node1"><a xlink:href="d4/d5f/interfacepocketmine_1_1command_1_1_command_executor.html" target="_top" xlink:title="pocketmine\\command\l\\CommandExecutor">
<polygon fill="white" stroke="black" points="0.5,-0 0.5,-30 125.5,-30 125.5,-0 0.5,-0"/>
<text text-anchor="start" x="8.5" y="-18" font-family="Helvetica,sans-Serif" font-size="10.00">pocketmine\command</text>
<text text-anchor="middle" x="63" y="-7" font-family="Helvetica,sans-Serif" font-size="10.00">\CommandExecutor</text>
</a>
</g>
</g>
<!-- Node2 -->
<g id="node2" class="node"><title>Node2</title>
<g id="a_node2"><a xlink:href="d4/d92/interfacepocketmine_1_1plugin_1_1_plugin.html" target="_top" xlink:title="pocketmine\\plugin\\Plugin">
<polygon fill="white" stroke="black" points="162,-5.5 162,-24.5 298,-24.5 298,-5.5 162,-5.5"/>
<text text-anchor="middle" x="230" y="-12.5" font-family="Helvetica,sans-Serif" font-size="10.00">pocketmine\plugin\Plugin</text>
</a>
</g>
</g>
<!-- Node1&#45;&gt;Node2 -->
<g id="edge1" class="edge"><title>Node1&#45;&gt;Node2</title>
<path fill="none" stroke="midnightblue" d="M136.183,-15C144.686,-15 153.338,-15 161.769,-15"/>
<polygon fill="midnightblue" stroke="midnightblue" points="135.909,-11.5001 125.909,-15 135.909,-18.5001 135.909,-11.5001"/>
</g>
<!-- Node3 -->
<g id="node3" class="node"><title>Node3</title>
<g id="a_node3"><a xlink:href="d1/d8e/classpocketmine_1_1plugin_1_1_plugin_base.html" target="_top" xlink:title="pocketmine\\plugin\\PluginBase">
<polygon fill="white" stroke="black" points="334,-5.5 334,-24.5 494,-24.5 494,-5.5 334,-5.5"/>
<text text-anchor="middle" x="414" y="-12.5" font-family="Helvetica,sans-Serif" font-size="10.00">pocketmine\plugin\PluginBase</text>
</a>
</g>
</g>
<!-- Node2&#45;&gt;Node3 -->
<g id="edge2" class="edge"><title>Node2&#45;&gt;Node3</title>
<path fill="none" stroke="midnightblue" d="M308.381,-15C316.765,-15 325.306,-15 333.712,-15"/>
<polygon fill="midnightblue" stroke="midnightblue" points="308.253,-11.5001 298.253,-15 308.253,-18.5001 308.253,-11.5001"/>
</g>
</g>
</svg>
