<?xml version="1.0" encoding="UTF-8" standalone="no"?>
<!DOCTYPE svg PUBLIC "-//W3C//DTD SVG 1.1//EN"
 "http://www.w3.org/Graphics/SVG/1.1/DTD/svg11.dtd">
<!-- Generated by graphviz version 2.26.3 (20100126.1600)
 -->
<!-- Title: G Pages: 1 -->
<svg width="714pt" height="30pt"
 viewBox="0.00 0.00 714.00 30.00" xmlns="http://www.w3.org/2000/svg" xmlns:xlink="http://www.w3.org/1999/xlink">
<g id="graph1" class="graph" transform="scale(1 1) rotate(0) translate(4 26)">
<title>G</title>
<polygon fill="white" stroke="white" points="-4,5 -4,-26 711,-26 711,5 -4,5"/>
<!-- Node1 -->
<g id="node1" class="node"><title>Node1</title>
<a xlink:href="da/da3/interfacepocketmine_1_1inventory_1_1_transaction_group.html" target="_top" xlink:title="pocketmine\\inventory\\TransactionGroup">
<polygon fill="white" stroke="black" points="0,-0.5 0,-21.5 190,-21.5 190,-0.5 0,-0.5"/>
<text text-anchor="middle" x="95" y="-8.5" font-family="Helvetica,sans-Serif" font-size="10.00">pocketmine\inventory\TransactionGroup</text>
</a>
</g>
<!-- Node2 -->
<g id="node3" class="node"><title>Node2</title>
<a xlink:href="df/df1/classpocketmine_1_1inventory_1_1_simple_transaction_group.html" target="_top" xlink:title="pocketmine\\inventory\\SimpleTransactionGroup">
<polygon fill="white" stroke="black" points="226,-0.5 226,-21.5 446,-21.5 446,-0.5 226,-0.5"/>
<text text-anchor="middle" x="336" y="-8.5" font-family="Helvetica,sans-Serif" font-size="10.00">pocketmine\inventory\SimpleTransactionGroup</text>
</a>
</g>
<!-- Node1&#45;&gt;Node2 -->
<g id="edge2" class="edge"><title>Node1&#45;&gt;Node2</title>
<path fill="none" stroke="midnightblue" d="M200.476,-11C208.91,-11 217.444,-11 225.908,-11"/>
<polygon fill="midnightblue" stroke="midnightblue" points="200.25,-7.5001 190.25,-11 200.25,-14.5001 200.25,-7.5001"/>
</g>
<!-- Node3 -->
<g id="node5" class="node"><title>Node3</title>
<a xlink:href="d6/d42/classpocketmine_1_1inventory_1_1_crafting_transaction_group.html" target="_top" xlink:title="pocketmine\\inventory\\CraftingTransactionGroup">
<polygon fill="white" stroke="black" points="482,-0.5 482,-21.5 706,-21.5 706,-0.5 482,-0.5"/>
<text text-anchor="middle" x="594" y="-8.5" font-family="Helvetica,sans-Serif" font-size="10.00">pocketmine\inventory\CraftingTransactionGroup</text>
</a>
</g>
<!-- Node2&#45;&gt;Node3 -->
<g id="edge4" class="edge"><title>Node2&#45;&gt;Node3</title>
<path fill="none" stroke="midnightblue" d="M456.422,-11C464.86,-11 473.347,-11 481.737,-11"/>
<polygon fill="midnightblue" stroke="midnightblue" points="456.164,-7.5001 446.164,-11 456.164,-14.5001 456.164,-7.5001"/>
</g>
</g>
</svg>
