<?xml version="1.0" encoding="UTF-8" standalone="no"?>
<!DOCTYPE svg PUBLIC "-//W3C//DTD SVG 1.1//EN"
 "http://www.w3.org/Graphics/SVG/1.1/DTD/svg11.dtd">
<!-- Generated by graphviz version 2.26.3 (20100126.1600)
 -->
<!-- Title: G Pages: 1 -->
<svg width="1076pt" height="150pt"
 viewBox="0.00 0.00 1076.00 150.00" xmlns="http://www.w3.org/2000/svg" xmlns:xlink="http://www.w3.org/1999/xlink">
<g id="graph1" class="graph" transform="scale(1 1) rotate(0) translate(4 146)">
<title>G</title>
<polygon fill="white" stroke="white" points="-4,5 -4,-146 1073,-146 1073,5 -4,5"/>
<!-- Node1 -->
<g id="node1" class="node"><title>Node1</title>
<a xlink:href="db/d39/interfacepocketmine_1_1inventory_1_1_inventory.html" target="_top" xlink:title="pocketmine\\inventory\\Inventory">
<polygon fill="white" stroke="black" points="0.5,-40.5 0.5,-61.5 153.5,-61.5 153.5,-40.5 0.5,-40.5"/>
<text text-anchor="middle" x="77" y="-48.5" font-family="Helvetica,sans-Serif" font-size="10.00">pocketmine\inventory\Inventory</text>
</a>
</g>
<!-- Node2 -->
<g id="node3" class="node"><title>Node2</title>
<a xlink:href="d5/dc4/classpocketmine_1_1inventory_1_1_base_inventory.html" target="_top" xlink:title="pocketmine\\inventory\\BaseInventory">
<polygon fill="white" stroke="black" points="190,-40.5 190,-61.5 366,-61.5 366,-40.5 190,-40.5"/>
<text text-anchor="middle" x="278" y="-48.5" font-family="Helvetica,sans-Serif" font-size="10.00">pocketmine\inventory\BaseInventory</text>
</a>
</g>
<!-- Node1&#45;&gt;Node2 -->
<g id="edge2" class="edge"><title>Node1&#45;&gt;Node2</title>
<path fill="none" stroke="midnightblue" d="M163.675,-51C172.358,-51 181.181,-51 189.878,-51"/>
<polygon fill="midnightblue" stroke="midnightblue" points="163.563,-47.5001 153.563,-51 163.563,-54.5001 163.563,-47.5001"/>
</g>
<!-- Node3 -->
<g id="node5" class="node"><title>Node3</title>
<a xlink:href="dc/d02/classpocketmine_1_1inventory_1_1_container_inventory.html" target="_top" xlink:title="pocketmine\\inventory\\ContainerInventory">
<polygon fill="white" stroke="black" points="402.5,-80.5 402.5,-101.5 597.5,-101.5 597.5,-80.5 402.5,-80.5"/>
<text text-anchor="middle" x="500" y="-88.5" font-family="Helvetica,sans-Serif" font-size="10.00">pocketmine\inventory\ContainerInventory</text>
</a>
</g>
<!-- Node2&#45;&gt;Node3 -->
<g id="edge4" class="edge"><title>Node2&#45;&gt;Node3</title>
<path fill="none" stroke="midnightblue" d="M346.457,-63.3346C376.944,-68.8278 412.476,-75.23 441.677,-80.4913"/>
<polygon fill="midnightblue" stroke="midnightblue" points="346.79,-59.8383 336.328,-61.5095 345.549,-66.7274 346.79,-59.8383"/>
</g>
<!-- Node8 -->
<g id="node15" class="node"><title>Node8</title>
<a xlink:href="df/d13/classpocketmine_1_1inventory_1_1_crafting_inventory.html" target="_top" xlink:title="pocketmine\\inventory\\CraftingInventory">
<polygon fill="white" stroke="black" points="406,-40.5 406,-61.5 594,-61.5 594,-40.5 406,-40.5"/>
<text text-anchor="middle" x="500" y="-48.5" font-family="Helvetica,sans-Serif" font-size="10.00">pocketmine\inventory\CraftingInventory</text>
</a>
</g>
<!-- Node2&#45;&gt;Node8 -->
<g id="edge14" class="edge"><title>Node2&#45;&gt;Node8</title>
<path fill="none" stroke="midnightblue" d="M376.247,-51C386.082,-51 396.053,-51 405.844,-51"/>
<polygon fill="midnightblue" stroke="midnightblue" points="376.059,-47.5001 366.059,-51 376.059,-54.5001 376.059,-47.5001"/>
</g>
<!-- Node9 -->
<g id="node17" class="node"><title>Node9</title>
<a xlink:href="dc/d77/classpocketmine_1_1inventory_1_1_player_inventory.html" target="_top" xlink:title="pocketmine\\inventory\\PlayerInventory">
<polygon fill="white" stroke="black" points="409.5,-0.5 409.5,-21.5 590.5,-21.5 590.5,-0.5 409.5,-0.5"/>
<text text-anchor="middle" x="500" y="-8.5" font-family="Helvetica,sans-Serif" font-size="10.00">pocketmine\inventory\PlayerInventory</text>
</a>
</g>
<!-- Node2&#45;&gt;Node9 -->
<g id="edge16" class="edge"><title>Node2&#45;&gt;Node9</title>
<path fill="none" stroke="midnightblue" d="M346.457,-38.6654C376.944,-33.1722 412.476,-26.77 441.677,-21.5087"/>
<polygon fill="midnightblue" stroke="midnightblue" points="345.549,-35.2726 336.328,-40.4905 346.79,-42.1617 345.549,-35.2726"/>
</g>
<!-- Node4 -->
<g id="node7" class="node"><title>Node4</title>
<a xlink:href="d3/dd8/classpocketmine_1_1inventory_1_1_chest_inventory.html" target="_top" xlink:title="pocketmine\\inventory\\ChestInventory">
<polygon fill="white" stroke="black" points="638.5,-120.5 638.5,-141.5 817.5,-141.5 817.5,-120.5 638.5,-120.5"/>
<text text-anchor="middle" x="728" y="-128.5" font-family="Helvetica,sans-Serif" font-size="10.00">pocketmine\inventory\ChestInventory</text>
</a>
</g>
<!-- Node3&#45;&gt;Node4 -->
<g id="edge6" class="edge"><title>Node3&#45;&gt;Node4</title>
<path fill="none" stroke="midnightblue" d="M569.899,-103.263C601.301,-108.772 637.98,-115.207 668.1,-120.491"/>
<polygon fill="midnightblue" stroke="midnightblue" points="570.359,-99.7903 559.904,-101.51 569.149,-106.685 570.359,-99.7903"/>
</g>
<!-- Node6 -->
<g id="node11" class="node"><title>Node6</title>
<a xlink:href="d3/d01/classpocketmine_1_1inventory_1_1_custom_inventory.html" target="_top" xlink:title="pocketmine\\inventory\\CustomInventory">
<polygon fill="white" stroke="black" points="634,-80.5 634,-101.5 822,-101.5 822,-80.5 634,-80.5"/>
<text text-anchor="middle" x="728" y="-88.5" font-family="Helvetica,sans-Serif" font-size="10.00">pocketmine\inventory\CustomInventory</text>
</a>
</g>
<!-- Node3&#45;&gt;Node6 -->
<g id="edge10" class="edge"><title>Node3&#45;&gt;Node6</title>
<path fill="none" stroke="midnightblue" d="M607.827,-91C616.495,-91 625.212,-91 633.774,-91"/>
<polygon fill="midnightblue" stroke="midnightblue" points="607.685,-87.5001 597.685,-91 607.685,-94.5001 607.685,-87.5001"/>
</g>
<!-- Node7 -->
<g id="node13" class="node"><title>Node7</title>
<a xlink:href="dc/d34/classpocketmine_1_1inventory_1_1_furnace_inventory.html" target="_top" xlink:title="pocketmine\\inventory\\FurnaceInventory">
<polygon fill="white" stroke="black" points="634,-40.5 634,-61.5 822,-61.5 822,-40.5 634,-40.5"/>
<text text-anchor="middle" x="728" y="-48.5" font-family="Helvetica,sans-Serif" font-size="10.00">pocketmine\inventory\FurnaceInventory</text>
</a>
</g>
<!-- Node3&#45;&gt;Node7 -->
<g id="edge12" class="edge"><title>Node3&#45;&gt;Node7</title>
<path fill="none" stroke="midnightblue" d="M569.899,-78.737C601.301,-73.2279 637.98,-66.7929 668.1,-61.5087"/>
<polygon fill="midnightblue" stroke="midnightblue" points="569.149,-75.315 559.904,-80.4905 570.359,-82.2097 569.149,-75.315"/>
</g>
<!-- Node5 -->
<g id="node9" class="node"><title>Node5</title>
<a xlink:href="d6/d3e/classpocketmine_1_1inventory_1_1_double_chest_inventory.html" target="_top" xlink:title="pocketmine\\inventory\\DoubleChestInventory">
<polygon fill="white" stroke="black" points="858,-60.5 858,-81.5 1068,-81.5 1068,-60.5 858,-60.5"/>
<text text-anchor="middle" x="963" y="-68.5" font-family="Helvetica,sans-Serif" font-size="10.00">pocketmine\inventory\DoubleChestInventory</text>
</a>
</g>
<!-- Node4&#45;&gt;Node5 -->
<g id="edge8" class="edge"><title>Node4&#45;&gt;Node5</title>
<path fill="none" stroke="midnightblue" d="M790.761,-118.255C801.22,-115.957 811.937,-113.495 822,-111 858.552,-101.938 899.967,-89.9844 928.405,-81.5119"/>
<polygon fill="midnightblue" stroke="midnightblue" points="789.873,-114.866 780.841,-120.404 791.355,-121.708 789.873,-114.866"/>
</g>
<!-- Node10 -->
<g id="node18" class="node"><title>Node10</title>
<a xlink:href="d2/d91/interfacepocketmine_1_1inventory_1_1_inventory_holder.html" target="_top" xlink:title="pocketmine\\inventory\\InventoryHolder">
<polygon fill="white" stroke="black" points="637,-0.5 637,-21.5 819,-21.5 819,-0.5 637,-0.5"/>
<text text-anchor="middle" x="728" y="-8.5" font-family="Helvetica,sans-Serif" font-size="10.00">pocketmine\inventory\InventoryHolder</text>
</a>
</g>
<!-- Node10&#45;&gt;Node5 -->
<g id="edge18" class="edge"><title>Node10&#45;&gt;Node5</title>
<path fill="none" stroke="midnightblue" d="M790.761,-23.7445C801.22,-26.0428 811.937,-28.505 822,-31 858.552,-40.0625 899.967,-52.0156 928.405,-60.4881"/>
<polygon fill="midnightblue" stroke="midnightblue" points="791.355,-20.2922 780.841,-21.5955 789.873,-27.1335 791.355,-20.2922"/>
</g>
</g>
</svg>
