<?xml version="1.0" encoding="UTF-8" standalone="no"?>
<!DOCTYPE svg PUBLIC "-//W3C//DTD SVG 1.1//EN"
 "http://www.w3.org/Graphics/SVG/1.1/DTD/svg11.dtd">
<!-- Generated by graphviz version 2.36.0 (20140111.2315)
 -->
<!-- Title: Graphical Class Hierarchy Pages: 1 -->
<svg width="476pt" height="38pt"
 viewBox="0.00 0.00 476.00 38.00" xmlns="http://www.w3.org/2000/svg" xmlns:xlink="http://www.w3.org/1999/xlink">
<g id="graph0" class="graph" transform="scale(1 1) rotate(0) translate(4 34)">
<title>Graphical Class Hierarchy</title>
<polygon fill="white" stroke="none" points="-4,4 -4,-34 472,-34 472,4 -4,4"/>
<!-- Node1 -->
<g id="node1" class="node"><title>Node1</title>
<g id="a_node1"><a xlink:href="da/da3/interfacepocketmine_1_1inventory_1_1_transaction_group.html" target="_top" xlink:title="pocketmine\\inventory\l\\TransactionGroup">
<polygon fill="white" stroke="black" points="0,-0 0,-30 120,-30 120,-0 0,-0"/>
<text text-anchor="start" x="8" y="-18" font-family="Helvetica,sans-Serif" font-size="10.00">pocketmine\inventory</text>
<text text-anchor="middle" x="60" y="-7" font-family="Helvetica,sans-Serif" font-size="10.00">\TransactionGroup</text>
</a>
</g>
</g>
<!-- Node2 -->
<g id="node2" class="node"><title>Node2</title>
<g id="a_node2"><a xlink:href="df/df1/classpocketmine_1_1inventory_1_1_simple_transaction_group.html" target="_top" xlink:title="pocketmine\\inventory\l\\SimpleTransactionGroup">
<polygon fill="white" stroke="black" points="156,-0 156,-30 292,-30 292,-0 156,-0"/>
<text text-anchor="start" x="164" y="-18" font-family="Helvetica,sans-Serif" font-size="10.00">pocketmine\inventory</text>
<text text-anchor="middle" x="224" y="-7" font-family="Helvetica,sans-Serif" font-size="10.00">\SimpleTransactionGroup</text>
</a>
</g>
</g>
<!-- Node1&#45;&gt;Node2 -->
<g id="edge1" class="edge"><title>Node1&#45;&gt;Node2</title>
<path fill="none" stroke="midnightblue" d="M130.56,-15C138.976,-15 147.56,-15 155.939,-15"/>
<polygon fill="midnightblue" stroke="midnightblue" points="130.403,-11.5001 120.403,-15 130.403,-18.5001 130.403,-11.5001"/>
</g>
<!-- Node3 -->
<g id="node3" class="node"><title>Node3</title>
<g id="a_node3"><a xlink:href="d6/d42/classpocketmine_1_1inventory_1_1_crafting_transaction_group.html" target="_top" xlink:title="pocketmine\\inventory\l\\CraftingTransactionGroup">
<polygon fill="white" stroke="black" points="328,-0 328,-30 468,-30 468,-0 328,-0"/>
<text text-anchor="start" x="336" y="-18" font-family="Helvetica,sans-Serif" font-size="10.00">pocketmine\inventory</text>
<text text-anchor="middle" x="398" y="-7" font-family="Helvetica,sans-Serif" font-size="10.00">\CraftingTransactionGroup</text>
</a>
</g>
</g>
<!-- Node2&#45;&gt;Node3 -->
<g id="edge2" class="edge"><title>Node2&#45;&gt;Node3</title>
<path fill="none" stroke="midnightblue" d="M302.62,-15C310.99,-15 319.467,-15 327.729,-15"/>
<polygon fill="midnightblue" stroke="midnightblue" points="302.485,-11.5001 292.485,-15 302.485,-18.5001 302.485,-11.5001"/>
</g>
</g>
</svg>
