<?xml version="1.0" encoding="UTF-8" standalone="no"?>
<!DOCTYPE svg PUBLIC "-//W3C//DTD SVG 1.1//EN"
 "http://www.w3.org/Graphics/SVG/1.1/DTD/svg11.dtd">
<!-- Generated by graphviz version 2.26.3 (20100126.1600)
 -->
<!-- Title: G Pages: 1 -->
<svg width="824pt" height="1270pt"
 viewBox="0.00 0.00 824.00 1270.00" xmlns="http://www.w3.org/2000/svg" xmlns:xlink="http://www.w3.org/1999/xlink">
<g id="graph1" class="graph" transform="scale(1 1) rotate(0) translate(4 1266)">
<title>G</title>
<polygon fill="white" stroke="white" points="-4,5 -4,-1266 821,-1266 821,5 -4,5"/>
<!-- Node1 -->
<g id="node1" class="node"><title>Node1</title>
<a xlink:href="d6/df1/classpocketmine_1_1command_1_1_command.html" target="_top" xlink:title="pocketmine\\command\\Command">
<polygon fill="white" stroke="black" points="37.5,-580.5 37.5,-601.5 198.5,-601.5 198.5,-580.5 37.5,-580.5"/>
<text text-anchor="middle" x="118" y="-588.5" font-family="Helvetica,sans-Serif" font-size="10.00">pocketmine\command\Command</text>
</a>
</g>
<!-- Node2 -->
<g id="node3" class="node"><title>Node2</title>
<a xlink:href="d5/dfa/classpocketmine_1_1command_1_1defaults_1_1_vanilla_command.html" target="_top" xlink:title="pocketmine\\command\\defaults\\VanillaCommand">
<polygon fill="white" stroke="black" points="272.5,-620.5 272.5,-641.5 499.5,-641.5 499.5,-620.5 272.5,-620.5"/>
<text text-anchor="middle" x="386" y="-628.5" font-family="Helvetica,sans-Serif" font-size="10.00">pocketmine\command\defaults\VanillaCommand</text>
</a>
</g>
<!-- Node1&#45;&gt;Node2 -->
<g id="edge2" class="edge"><title>Node1&#45;&gt;Node2</title>
<path fill="none" stroke="midnightblue" d="M198.727,-603.049C235.952,-608.605 279.728,-615.138 315.592,-620.491"/>
<polygon fill="midnightblue" stroke="midnightblue" points="198.821,-599.524 188.414,-601.51 197.788,-606.447 198.821,-599.524"/>
</g>
<!-- Node35 -->
<g id="node69" class="node"><title>Node35</title>
<a xlink:href="d7/d80/classpocketmine_1_1command_1_1_formatted_command_alias.html" target="_top" xlink:title="pocketmine\\command\\FormattedCommandAlias">
<polygon fill="white" stroke="black" points="272.5,-580.5 272.5,-601.5 499.5,-601.5 499.5,-580.5 272.5,-580.5"/>
<text text-anchor="middle" x="386" y="-588.5" font-family="Helvetica,sans-Serif" font-size="10.00">pocketmine\command\FormattedCommandAlias</text>
</a>
</g>
<!-- Node1&#45;&gt;Node35 -->
<g id="edge68" class="edge"><title>Node1&#45;&gt;Node35</title>
<path fill="none" stroke="midnightblue" d="M208.944,-591C229.283,-591 251.103,-591 272.236,-591"/>
<polygon fill="midnightblue" stroke="midnightblue" points="208.772,-587.5 198.772,-591 208.772,-594.5 208.772,-587.5"/>
</g>
<!-- Node36 -->
<g id="node71" class="node"><title>Node36</title>
<a xlink:href="d7/d63/classpocketmine_1_1command_1_1_plugin_command.html" target="_top" xlink:title="pocketmine\\command\\PluginCommand">
<polygon fill="white" stroke="black" points="292,-540.5 292,-561.5 480,-561.5 480,-540.5 292,-540.5"/>
<text text-anchor="middle" x="386" y="-548.5" font-family="Helvetica,sans-Serif" font-size="10.00">pocketmine\command\PluginCommand</text>
</a>
</g>
<!-- Node1&#45;&gt;Node36 -->
<g id="edge70" class="edge"><title>Node1&#45;&gt;Node36</title>
<path fill="none" stroke="midnightblue" d="M198.727,-578.951C235.952,-573.395 279.728,-566.862 315.592,-561.509"/>
<polygon fill="midnightblue" stroke="midnightblue" points="197.788,-575.553 188.414,-580.49 198.821,-582.476 197.788,-575.553"/>
</g>
<!-- Node3 -->
<g id="node5" class="node"><title>Node3</title>
<a xlink:href="da/d23/classpocketmine_1_1command_1_1defaults_1_1_ban_command.html" target="_top" xlink:title="pocketmine\\command\\defaults\\BanCommand">
<polygon fill="white" stroke="black" points="568.5,-1240.5 568.5,-1261.5 783.5,-1261.5 783.5,-1240.5 568.5,-1240.5"/>
<text text-anchor="middle" x="676" y="-1248.5" font-family="Helvetica,sans-Serif" font-size="10.00">pocketmine\command\defaults\BanCommand</text>
</a>
</g>
<!-- Node2&#45;&gt;Node3 -->
<g id="edge4" class="edge"><title>Node2&#45;&gt;Node3</title>
<path fill="none" stroke="midnightblue" d="M388.139,-651.886C398.464,-748.424 446.355,-1150.15 536,-1231 545.299,-1239.39 556.449,-1245.22 568.343,-1249.2"/>
<polygon fill="midnightblue" stroke="midnightblue" points="391.592,-651.247 387.066,-641.668 384.63,-651.979 391.592,-651.247"/>
</g>
<!-- Node4 -->
<g id="node7" class="node"><title>Node4</title>
<a xlink:href="d1/d73/classpocketmine_1_1command_1_1defaults_1_1_ban_ip_command.html" target="_top" xlink:title="pocketmine\\command\\defaults\\BanIpCommand">
<polygon fill="white" stroke="black" points="564,-1200.5 564,-1221.5 788,-1221.5 788,-1200.5 564,-1200.5"/>
<text text-anchor="middle" x="676" y="-1208.5" font-family="Helvetica,sans-Serif" font-size="10.00">pocketmine\command\defaults\BanIpCommand</text>
</a>
</g>
<!-- Node2&#45;&gt;Node4 -->
<g id="edge6" class="edge"><title>Node2&#45;&gt;Node4</title>
<path fill="none" stroke="midnightblue" d="M388.543,-651.964C400.223,-744.646 451.784,-1116.31 536,-1191 544.174,-1198.25 553.737,-1203.58 563.959,-1207.45"/>
<polygon fill="midnightblue" stroke="midnightblue" points="391.995,-651.358 387.29,-641.865 385.048,-652.219 391.995,-651.358"/>
</g>
<!-- Node5 -->
<g id="node9" class="node"><title>Node5</title>
<a xlink:href="d7/d21/classpocketmine_1_1command_1_1defaults_1_1_ban_list_command.html" target="_top" xlink:title="pocketmine\\command\\defaults\\BanListCommand">
<polygon fill="white" stroke="black" points="560.5,-1160.5 560.5,-1181.5 791.5,-1181.5 791.5,-1160.5 560.5,-1160.5"/>
<text text-anchor="middle" x="676" y="-1168.5" font-family="Helvetica,sans-Serif" font-size="10.00">pocketmine\command\defaults\BanListCommand</text>
</a>
</g>
<!-- Node2&#45;&gt;Node5 -->
<g id="edge8" class="edge"><title>Node2&#45;&gt;Node5</title>
<path fill="none" stroke="midnightblue" d="M388.941,-651.578C401.931,-739.505 457.05,-1082.32 536,-1151 543.224,-1157.28 551.497,-1162.12 560.33,-1165.8"/>
<polygon fill="midnightblue" stroke="midnightblue" points="392.382,-650.92 387.477,-641.529 385.455,-651.929 392.382,-650.92"/>
</g>
<!-- Node6 -->
<g id="node11" class="node"><title>Node6</title>
<a xlink:href="d5/d93/classpocketmine_1_1command_1_1defaults_1_1_default_gamemode_command.html" target="_top" xlink:title="pocketmine\\command\\defaults\\DefaultGamemodeCommand">
<polygon fill="white" stroke="black" points="536,-1120.5 536,-1141.5 816,-1141.5 816,-1120.5 536,-1120.5"/>
<text text-anchor="middle" x="676" y="-1128.5" font-family="Helvetica,sans-Serif" font-size="10.00">pocketmine\command\defaults\DefaultGamemodeCommand</text>
</a>
</g>
<!-- Node2&#45;&gt;Node6 -->
<g id="edge10" class="edge"><title>Node2&#45;&gt;Node6</title>
<path fill="none" stroke="midnightblue" d="M389.46,-651.586C403.946,-735.261 462.409,-1048.4 536,-1111 540.208,-1114.58 544.757,-1117.68 549.556,-1120.37"/>
<polygon fill="midnightblue" stroke="midnightblue" points="392.879,-650.815 387.744,-641.548 385.979,-651.995 392.879,-650.815"/>
</g>
<!-- Node7 -->
<g id="node13" class="node"><title>Node7</title>
<a xlink:href="dc/dd8/classpocketmine_1_1command_1_1defaults_1_1_deop_command.html" target="_top" xlink:title="pocketmine\\command\\defaults\\DeopCommand">
<polygon fill="white" stroke="black" points="565.5,-1080.5 565.5,-1101.5 786.5,-1101.5 786.5,-1080.5 565.5,-1080.5"/>
<text text-anchor="middle" x="676" y="-1088.5" font-family="Helvetica,sans-Serif" font-size="10.00">pocketmine\command\defaults\DeopCommand</text>
</a>
</g>
<!-- Node2&#45;&gt;Node7 -->
<g id="edge12" class="edge"><title>Node2&#45;&gt;Node7</title>
<path fill="none" stroke="midnightblue" d="M390.182,-652.143C406.435,-732.132 467.891,-1014.55 536,-1071 544.696,-1078.21 554.786,-1083.47 565.49,-1087.25"/>
<polygon fill="midnightblue" stroke="midnightblue" points="393.517,-650.976 388.116,-641.861 386.654,-652.355 393.517,-650.976"/>
</g>
<!-- Node8 -->
<g id="node15" class="node"><title>Node8</title>
<a xlink:href="d0/d74/classpocketmine_1_1command_1_1defaults_1_1_difficulty_command.html" target="_top" xlink:title="pocketmine\\command\\defaults\\DifficultyCommand">
<polygon fill="white" stroke="black" points="557.5,-1040.5 557.5,-1061.5 794.5,-1061.5 794.5,-1040.5 557.5,-1040.5"/>
<text text-anchor="middle" x="676" y="-1048.5" font-family="Helvetica,sans-Serif" font-size="10.00">pocketmine\command\defaults\DifficultyCommand</text>
</a>
</g>
<!-- Node2&#45;&gt;Node8 -->
<g id="edge14" class="edge"><title>Node2&#45;&gt;Node8</title>
<path fill="none" stroke="midnightblue" d="M386.792,-651.632C390.564,-718.634 412.218,-931.523 536,-1031 542.507,-1036.23 549.755,-1040.42 557.432,-1043.76"/>
<polygon fill="midnightblue" stroke="midnightblue" points="390.281,-651.337 386.3,-641.518 383.29,-651.677 390.281,-651.337"/>
</g>
<!-- Node9 -->
<g id="node17" class="node"><title>Node9</title>
<a xlink:href="d7/de4/classpocketmine_1_1command_1_1defaults_1_1_gamemode_command.html" target="_top" xlink:title="pocketmine\\command\\defaults\\GamemodeCommand">
<polygon fill="white" stroke="black" points="552,-1000.5 552,-1021.5 800,-1021.5 800,-1000.5 552,-1000.5"/>
<text text-anchor="middle" x="676" y="-1008.5" font-family="Helvetica,sans-Serif" font-size="10.00">pocketmine\command\defaults\GamemodeCommand</text>
</a>
</g>
<!-- Node2&#45;&gt;Node9 -->
<g id="edge16" class="edge"><title>Node2&#45;&gt;Node9</title>
<path fill="none" stroke="midnightblue" d="M387.772,-652.041C394.296,-715.07 422.861,-903.382 536,-991 540.95,-994.833 546.303,-998.102 551.93,-1000.88"/>
<polygon fill="midnightblue" stroke="midnightblue" points="391.228,-651.406 386.796,-641.783 384.259,-652.07 391.228,-651.406"/>
</g>
<!-- Node10 -->
<g id="node19" class="node"><title>Node10</title>
<a xlink:href="d8/d3e/classpocketmine_1_1command_1_1defaults_1_1_give_command.html" target="_top" xlink:title="pocketmine\\command\\defaults\\GiveCommand">
<polygon fill="white" stroke="black" points="567,-960.5 567,-981.5 785,-981.5 785,-960.5 567,-960.5"/>
<text text-anchor="middle" x="676" y="-968.5" font-family="Helvetica,sans-Serif" font-size="10.00">pocketmine\command\defaults\GiveCommand</text>
</a>
</g>
<!-- Node2&#45;&gt;Node10 -->
<g id="edge18" class="edge"><title>Node2&#45;&gt;Node10</title>
<path fill="none" stroke="midnightblue" d="M388.881,-651.631C398.155,-709.602 432.897,-874.687 536,-951 545.275,-957.865 555.864,-962.884 566.97,-966.502"/>
<polygon fill="midnightblue" stroke="midnightblue" points="392.308,-650.888 387.353,-641.523 385.387,-651.934 392.308,-650.888"/>
</g>
<!-- Node11 -->
<g id="node21" class="node"><title>Node11</title>
<a xlink:href="da/d3a/classpocketmine_1_1command_1_1defaults_1_1_help_command.html" target="_top" xlink:title="pocketmine\\command\\defaults\\HelpCommand">
<polygon fill="white" stroke="black" points="567,-920.5 567,-941.5 785,-941.5 785,-920.5 567,-920.5"/>
<text text-anchor="middle" x="676" y="-928.5" font-family="Helvetica,sans-Serif" font-size="10.00">pocketmine\command\defaults\HelpCommand</text>
</a>
</g>
<!-- Node2&#45;&gt;Node11 -->
<g id="edge20" class="edge"><title>Node2&#45;&gt;Node11</title>
<path fill="none" stroke="midnightblue" d="M390.304,-651.528C402.566,-704.452 442.979,-845.924 536,-911 545.355,-917.544 555.93,-922.371 566.974,-925.889"/>
<polygon fill="midnightblue" stroke="midnightblue" points="393.692,-650.641 388.105,-641.639 386.859,-652.16 393.692,-650.641"/>
</g>
<!-- Node12 -->
<g id="node23" class="node"><title>Node12</title>
<a xlink:href="d7/dce/classpocketmine_1_1command_1_1defaults_1_1_kick_command.html" target="_top" xlink:title="pocketmine\\command\\defaults\\KickCommand">
<polygon fill="white" stroke="black" points="567,-880.5 567,-901.5 785,-901.5 785,-880.5 567,-880.5"/>
<text text-anchor="middle" x="676" y="-888.5" font-family="Helvetica,sans-Serif" font-size="10.00">pocketmine\command\defaults\KickCommand</text>
</a>
</g>
<!-- Node2&#45;&gt;Node12 -->
<g id="edge22" class="edge"><title>Node2&#45;&gt;Node12</title>
<path fill="none" stroke="midnightblue" d="M392.153,-651.457C407.612,-698.982 452.908,-816.911 536,-871 545.362,-877.095 555.819,-881.654 566.686,-885.033"/>
<polygon fill="midnightblue" stroke="midnightblue" points="395.422,-650.183 389.08,-641.696 388.745,-652.285 395.422,-650.183"/>
</g>
<!-- Node13 -->
<g id="node25" class="node"><title>Node13</title>
<a xlink:href="dc/d6e/classpocketmine_1_1command_1_1defaults_1_1_kill_command.html" target="_top" xlink:title="pocketmine\\command\\defaults\\KillCommand">
<polygon fill="white" stroke="black" points="570,-840.5 570,-861.5 782,-861.5 782,-840.5 570,-840.5"/>
<text text-anchor="middle" x="676" y="-848.5" font-family="Helvetica,sans-Serif" font-size="10.00">pocketmine\command\defaults\KillCommand</text>
</a>
</g>
<!-- Node2&#45;&gt;Node13 -->
<g id="edge24" class="edge"><title>Node2&#45;&gt;Node13</title>
<path fill="none" stroke="midnightblue" d="M394.426,-650.854C413.12,-692.213 462.321,-787.374 536,-831 546.352,-837.13 557.87,-841.645 569.729,-844.941"/>
<polygon fill="midnightblue" stroke="midnightblue" points="397.567,-649.304 390.334,-641.562 391.161,-652.125 397.567,-649.304"/>
</g>
<!-- Node14 -->
<g id="node27" class="node"><title>Node14</title>
<a xlink:href="d3/d0a/classpocketmine_1_1command_1_1defaults_1_1_list_command.html" target="_top" xlink:title="pocketmine\\command\\defaults\\ListCommand">
<polygon fill="white" stroke="black" points="569,-800.5 569,-821.5 783,-821.5 783,-800.5 569,-800.5"/>
<text text-anchor="middle" x="676" y="-808.5" font-family="Helvetica,sans-Serif" font-size="10.00">pocketmine\command\defaults\ListCommand</text>
</a>
</g>
<!-- Node2&#45;&gt;Node14 -->
<g id="edge26" class="edge"><title>Node2&#45;&gt;Node14</title>
<path fill="none" stroke="midnightblue" d="M397.929,-650.693C420.215,-685.553 471.781,-757.586 536,-791 546.237,-796.326 557.434,-800.371 568.893,-803.425"/>
<polygon fill="midnightblue" stroke="midnightblue" points="400.704,-648.531 392.433,-641.91 394.77,-652.244 400.704,-648.531"/>
</g>
<!-- Node15 -->
<g id="node29" class="node"><title>Node15</title>
<a xlink:href="d7/d87/classpocketmine_1_1command_1_1defaults_1_1_me_command.html" target="_top" xlink:title="pocketmine\\command\\defaults\\MeCommand">
<polygon fill="white" stroke="black" points="570,-760.5 570,-781.5 782,-781.5 782,-760.5 570,-760.5"/>
<text text-anchor="middle" x="676" y="-768.5" font-family="Helvetica,sans-Serif" font-size="10.00">pocketmine\command\defaults\MeCommand</text>
</a>
</g>
<!-- Node2&#45;&gt;Node15 -->
<g id="edge28" class="edge"><title>Node2&#45;&gt;Node15</title>
<path fill="none" stroke="midnightblue" d="M402.325,-649.173C427.89,-676.328 480.246,-726.879 536,-751 546.704,-755.631 558.255,-759.232 569.971,-762.025"/>
<polygon fill="midnightblue" stroke="midnightblue" points="404.636,-646.517 395.277,-641.551 399.497,-651.269 404.636,-646.517"/>
</g>
<!-- Node16 -->
<g id="node31" class="node"><title>Node16</title>
<a xlink:href="df/d64/classpocketmine_1_1command_1_1defaults_1_1_op_command.html" target="_top" xlink:title="pocketmine\\command\\defaults\\OpCommand">
<polygon fill="white" stroke="black" points="570.5,-720.5 570.5,-741.5 781.5,-741.5 781.5,-720.5 570.5,-720.5"/>
<text text-anchor="middle" x="676" y="-728.5" font-family="Helvetica,sans-Serif" font-size="10.00">pocketmine\command\defaults\OpCommand</text>
</a>
</g>
<!-- Node2&#45;&gt;Node16 -->
<g id="edge30" class="edge"><title>Node2&#45;&gt;Node16</title>
<path fill="none" stroke="midnightblue" d="M409.904,-647.155C438.561,-665.695 488.663,-695.527 536,-711 547.785,-714.852 560.369,-717.963 572.977,-720.475"/>
<polygon fill="midnightblue" stroke="midnightblue" points="411.665,-644.125 401.384,-641.565 407.825,-649.977 411.665,-644.125"/>
</g>
<!-- Node17 -->
<g id="node33" class="node"><title>Node17</title>
<a xlink:href="d2/dea/classpocketmine_1_1command_1_1defaults_1_1_pardon_command.html" target="_top" xlink:title="pocketmine\\command\\defaults\\PardonCommand">
<polygon fill="white" stroke="black" points="561.5,-680.5 561.5,-701.5 790.5,-701.5 790.5,-680.5 561.5,-680.5"/>
<text text-anchor="middle" x="676" y="-688.5" font-family="Helvetica,sans-Serif" font-size="10.00">pocketmine\command\defaults\PardonCommand</text>
</a>
</g>
<!-- Node2&#45;&gt;Node17 -->
<g id="edge32" class="edge"><title>Node2&#45;&gt;Node17</title>
<path fill="none" stroke="midnightblue" d="M430.524,-644.361C460.194,-652.895 500.174,-663.691 536,-671 553.682,-674.607 572.751,-677.792 590.953,-680.499"/>
<polygon fill="midnightblue" stroke="midnightblue" points="431.457,-640.988 420.878,-641.562 429.506,-647.71 431.457,-640.988"/>
</g>
<!-- Node18 -->
<g id="node35" class="node"><title>Node18</title>
<a xlink:href="dc/da7/classpocketmine_1_1command_1_1defaults_1_1_pardon_ip_command.html" target="_top" xlink:title="pocketmine\\command\\defaults\\PardonIpCommand">
<polygon fill="white" stroke="black" points="557.5,-640.5 557.5,-661.5 794.5,-661.5 794.5,-640.5 557.5,-640.5"/>
<text text-anchor="middle" x="676" y="-648.5" font-family="Helvetica,sans-Serif" font-size="10.00">pocketmine\command\defaults\PardonIpCommand</text>
</a>
</g>
<!-- Node2&#45;&gt;Node18 -->
<g id="edge34" class="edge"><title>Node2&#45;&gt;Node18</title>
<path fill="none" stroke="midnightblue" d="M510.026,-639.554C525.699,-640.634 541.705,-641.738 557.293,-642.813"/>
<polygon fill="midnightblue" stroke="midnightblue" points="510,-636.044 499.783,-638.847 509.519,-643.027 510,-636.044"/>
</g>
<!-- Node19 -->
<g id="node37" class="node"><title>Node19</title>
<a xlink:href="d8/d56/classpocketmine_1_1command_1_1defaults_1_1_plugins_command.html" target="_top" xlink:title="pocketmine\\command\\defaults\\PluginsCommand">
<polygon fill="white" stroke="black" points="561,-600.5 561,-621.5 791,-621.5 791,-600.5 561,-600.5"/>
<text text-anchor="middle" x="676" y="-608.5" font-family="Helvetica,sans-Serif" font-size="10.00">pocketmine\command\defaults\PluginsCommand</text>
</a>
</g>
<!-- Node2&#45;&gt;Node19 -->
<g id="edge36" class="edge"><title>Node2&#45;&gt;Node19</title>
<path fill="none" stroke="midnightblue" d="M510.158,-622.437C526.913,-621.282 544.046,-620.1 560.639,-618.956"/>
<polygon fill="midnightblue" stroke="midnightblue" points="509.519,-618.973 499.783,-623.153 510,-625.956 509.519,-618.973"/>
</g>
<!-- Node20 -->
<g id="node39" class="node"><title>Node20</title>
<a xlink:href="d6/db3/classpocketmine_1_1command_1_1defaults_1_1_reload_command.html" target="_top" xlink:title="pocketmine\\command\\defaults\\ReloadCommand">
<polygon fill="white" stroke="black" points="561.5,-560.5 561.5,-581.5 790.5,-581.5 790.5,-560.5 561.5,-560.5"/>
<text text-anchor="middle" x="676" y="-568.5" font-family="Helvetica,sans-Serif" font-size="10.00">pocketmine\command\defaults\ReloadCommand</text>
</a>
</g>
<!-- Node2&#45;&gt;Node20 -->
<g id="edge38" class="edge"><title>Node2&#45;&gt;Node20</title>
<path fill="none" stroke="midnightblue" d="M475.751,-618.19C484.044,-616.129 492.24,-613.748 500,-611 517.253,-604.889 518.652,-596.836 536,-591 547.403,-587.164 559.57,-584.064 571.79,-581.559"/>
<polygon fill="midnightblue" stroke="midnightblue" points="474.935,-614.786 465.99,-620.465 476.524,-621.603 474.935,-614.786"/>
</g>
<!-- Node21 -->
<g id="node41" class="node"><title>Node21</title>
<a xlink:href="d6/ddd/classpocketmine_1_1command_1_1defaults_1_1_save_command.html" target="_top" xlink:title="pocketmine\\command\\defaults\\SaveCommand">
<polygon fill="white" stroke="black" points="565.5,-520.5 565.5,-541.5 786.5,-541.5 786.5,-520.5 565.5,-520.5"/>
<text text-anchor="middle" x="676" y="-528.5" font-family="Helvetica,sans-Serif" font-size="10.00">pocketmine\command\defaults\SaveCommand</text>
</a>
</g>
<!-- Node2&#45;&gt;Node21 -->
<g id="edge40" class="edge"><title>Node2&#45;&gt;Node21</title>
<path fill="none" stroke="midnightblue" d="M491.465,-616.169C494.413,-614.596 497.267,-612.878 500,-611 525.631,-593.389 510.092,-568.202 536,-551 544.898,-545.092 554.814,-540.615 565.145,-537.252"/>
<polygon fill="midnightblue" stroke="midnightblue" points="489.917,-613.029 482.364,-620.46 492.902,-619.361 489.917,-613.029"/>
</g>
<!-- Node22 -->
<g id="node43" class="node"><title>Node22</title>
<a xlink:href="d7/daf/classpocketmine_1_1command_1_1defaults_1_1_save_off_command.html" target="_top" xlink:title="pocketmine\\command\\defaults\\SaveOffCommand">
<polygon fill="white" stroke="black" points="559,-480.5 559,-501.5 793,-501.5 793,-480.5 559,-480.5"/>
<text text-anchor="middle" x="676" y="-488.5" font-family="Helvetica,sans-Serif" font-size="10.00">pocketmine\command\defaults\SaveOffCommand</text>
</a>
</g>
<!-- Node2&#45;&gt;Node22 -->
<g id="edge42" class="edge"><title>Node2&#45;&gt;Node22</title>
<path fill="none" stroke="midnightblue" d="M494.453,-615.215C496.367,-613.901 498.22,-612.498 500,-611 536.145,-580.589 499.376,-540.833 536,-511 542.853,-505.418 550.547,-501.01 558.71,-497.557"/>
<polygon fill="midnightblue" stroke="midnightblue" points="492.5,-612.304 485.694,-620.424 496.078,-618.321 492.5,-612.304"/>
</g>
<!-- Node23 -->
<g id="node45" class="node"><title>Node23</title>
<a xlink:href="d7/d8d/classpocketmine_1_1command_1_1defaults_1_1_save_on_command.html" target="_top" xlink:title="pocketmine\\command\\defaults\\SaveOnCommand">
<polygon fill="white" stroke="black" points="559.5,-440.5 559.5,-461.5 792.5,-461.5 792.5,-440.5 559.5,-440.5"/>
<text text-anchor="middle" x="676" y="-448.5" font-family="Helvetica,sans-Serif" font-size="10.00">pocketmine\command\defaults\SaveOnCommand</text>
</a>
</g>
<!-- Node2&#45;&gt;Node23 -->
<g id="edge44" class="edge"><title>Node2&#45;&gt;Node23</title>
<path fill="none" stroke="midnightblue" d="M495.346,-614.914C496.953,-613.685 498.506,-612.381 500,-611 547.166,-567.377 488.147,-513.868 536,-471 542.949,-464.775 550.92,-459.957 559.456,-456.266"/>
<polygon fill="midnightblue" stroke="midnightblue" points="493.336,-612.047 486.902,-620.464 497.181,-617.896 493.336,-612.047"/>
</g>
<!-- Node24 -->
<g id="node47" class="node"><title>Node24</title>
<a xlink:href="d5/d3c/classpocketmine_1_1command_1_1defaults_1_1_say_command.html" target="_top" xlink:title="pocketmine\\command\\defaults\\SayCommand">
<polygon fill="white" stroke="black" points="568.5,-400.5 568.5,-421.5 783.5,-421.5 783.5,-400.5 568.5,-400.5"/>
<text text-anchor="middle" x="676" y="-408.5" font-family="Helvetica,sans-Serif" font-size="10.00">pocketmine\command\defaults\SayCommand</text>
</a>
</g>
<!-- Node2&#45;&gt;Node24 -->
<g id="edge46" class="edge"><title>Node2&#45;&gt;Node24</title>
<path fill="none" stroke="midnightblue" d="M496.003,-614.577C497.381,-613.446 498.715,-612.255 500,-611 558.369,-554 476.733,-487.066 536,-431 545.186,-422.311 556.341,-416.308 568.303,-412.263"/>
<polygon fill="midnightblue" stroke="midnightblue" points="493.846,-611.815 487.66,-620.416 497.86,-617.55 493.846,-611.815"/>
</g>
<!-- Node25 -->
<g id="node49" class="node"><title>Node25</title>
<a xlink:href="d3/da8/classpocketmine_1_1command_1_1defaults_1_1_seed_command.html" target="_top" xlink:title="pocketmine\\command\\defaults\\SeedCommand">
<polygon fill="white" stroke="black" points="565.5,-360.5 565.5,-381.5 786.5,-381.5 786.5,-360.5 565.5,-360.5"/>
<text text-anchor="middle" x="676" y="-368.5" font-family="Helvetica,sans-Serif" font-size="10.00">pocketmine\command\defaults\SeedCommand</text>
</a>
</g>
<!-- Node2&#45;&gt;Node25 -->
<g id="edge48" class="edge"><title>Node2&#45;&gt;Node25</title>
<path fill="none" stroke="midnightblue" d="M496.505,-614.264C497.708,-613.226 498.874,-612.139 500,-611 569.656,-540.54 465.234,-460.344 536,-391 544.33,-382.838 554.388,-377.016 565.247,-372.947"/>
<polygon fill="midnightblue" stroke="midnightblue" points="494.086,-611.696 488.071,-620.418 498.212,-617.351 494.086,-611.696"/>
</g>
<!-- Node26 -->
<g id="node51" class="node"><title>Node26</title>
<a xlink:href="df/d66/classpocketmine_1_1command_1_1defaults_1_1_set_world_spawn_command.html" target="_top" xlink:title="pocketmine\\command\\defaults\\SetWorldSpawnCommand">
<polygon fill="white" stroke="black" points="541.5,-320.5 541.5,-341.5 810.5,-341.5 810.5,-320.5 541.5,-320.5"/>
<text text-anchor="middle" x="676" y="-328.5" font-family="Helvetica,sans-Serif" font-size="10.00">pocketmine\command\defaults\SetWorldSpawnCommand</text>
</a>
</g>
<!-- Node2&#45;&gt;Node26 -->
<g id="edge50" class="edge"><title>Node2&#45;&gt;Node26</title>
<path fill="none" stroke="midnightblue" d="M496.615,-614.241C497.781,-613.209 498.91,-612.13 500,-611 580.988,-527.036 453.688,-433.667 536,-351 539.551,-347.433 543.432,-344.31 547.566,-341.581"/>
<polygon fill="midnightblue" stroke="midnightblue" points="494.34,-611.572 488.432,-620.367 498.535,-617.176 494.34,-611.572"/>
</g>
<!-- Node27 -->
<g id="node53" class="node"><title>Node27</title>
<a xlink:href="d0/d2f/classpocketmine_1_1command_1_1defaults_1_1_spawnpoint_command.html" target="_top" xlink:title="pocketmine\\command\\defaults\\SpawnpointCommand">
<polygon fill="white" stroke="black" points="551.5,-280.5 551.5,-301.5 800.5,-301.5 800.5,-280.5 551.5,-280.5"/>
<text text-anchor="middle" x="676" y="-288.5" font-family="Helvetica,sans-Serif" font-size="10.00">pocketmine\command\defaults\SpawnpointCommand</text>
</a>
</g>
<!-- Node2&#45;&gt;Node27 -->
<g id="edge52" class="edge"><title>Node2&#45;&gt;Node27</title>
<path fill="none" stroke="midnightblue" d="M496.644,-614.268C497.801,-613.229 498.92,-612.14 500,-611 592.347,-513.503 442.115,-407.018 536,-311 540.635,-306.26 545.849,-302.298 551.469,-299.001"/>
<polygon fill="midnightblue" stroke="midnightblue" points="494.36,-611.608 488.513,-620.444 498.593,-617.183 494.36,-611.608"/>
</g>
<!-- Node28 -->
<g id="node55" class="node"><title>Node28</title>
<a xlink:href="db/dce/classpocketmine_1_1command_1_1defaults_1_1_status_command.html" target="_top" xlink:title="pocketmine\\command\\defaults\\StatusCommand">
<polygon fill="white" stroke="black" points="562.5,-240.5 562.5,-261.5 789.5,-261.5 789.5,-240.5 562.5,-240.5"/>
<text text-anchor="middle" x="676" y="-248.5" font-family="Helvetica,sans-Serif" font-size="10.00">pocketmine\command\defaults\StatusCommand</text>
</a>
</g>
<!-- Node2&#45;&gt;Node28 -->
<g id="edge54" class="edge"><title>Node2&#45;&gt;Node28</title>
<path fill="none" stroke="midnightblue" d="M497.133,-613.86C498.118,-612.944 499.074,-611.991 500,-611 603.724,-499.951 430.525,-380.387 536,-271 543.499,-263.223 552.555,-257.529 562.413,-253.431"/>
<polygon fill="midnightblue" stroke="midnightblue" points="494.784,-611.255 489.071,-620.178 499.101,-616.764 494.784,-611.255"/>
</g>
<!-- Node29 -->
<g id="node57" class="node"><title>Node29</title>
<a xlink:href="d2/d16/classpocketmine_1_1command_1_1defaults_1_1_stop_command.html" target="_top" xlink:title="pocketmine\\command\\defaults\\StopCommand">
<polygon fill="white" stroke="black" points="567,-200.5 567,-221.5 785,-221.5 785,-200.5 567,-200.5"/>
<text text-anchor="middle" x="676" y="-208.5" font-family="Helvetica,sans-Serif" font-size="10.00">pocketmine\command\defaults\StopCommand</text>
</a>
</g>
<!-- Node2&#45;&gt;Node29 -->
<g id="edge56" class="edge"><title>Node2&#45;&gt;Node29</title>
<path fill="none" stroke="midnightblue" d="M497.149,-613.874C498.129,-612.954 499.08,-611.996 500,-611 557.557,-548.693 477.461,-292.384 536,-231 544.557,-222.027 555.186,-215.816 566.736,-211.626"/>
<polygon fill="midnightblue" stroke="midnightblue" points="494.793,-611.275 489.119,-620.222 499.135,-616.766 494.793,-611.275"/>
</g>
<!-- Node30 -->
<g id="node59" class="node"><title>Node30</title>
<a xlink:href="d3/d02/classpocketmine_1_1command_1_1defaults_1_1_teleport_command.html" target="_top" xlink:title="pocketmine\\command\\defaults\\TeleportCommand">
<polygon fill="white" stroke="black" points="559.5,-160.5 559.5,-181.5 792.5,-181.5 792.5,-160.5 559.5,-160.5"/>
<text text-anchor="middle" x="676" y="-168.5" font-family="Helvetica,sans-Serif" font-size="10.00">pocketmine\command\defaults\TeleportCommand</text>
</a>
</g>
<!-- Node2&#45;&gt;Node30 -->
<g id="edge58" class="edge"><title>Node2&#45;&gt;Node30</title>
<path fill="none" stroke="midnightblue" d="M497.162,-613.886C498.137,-612.962 499.084,-612 500,-611 563.255,-541.907 471.655,-259.08 536,-191 542.662,-183.952 550.6,-178.602 559.264,-174.595"/>
<polygon fill="midnightblue" stroke="midnightblue" points="494.801,-611.291 489.159,-620.258 499.162,-616.768 494.801,-611.291"/>
</g>
<!-- Node31 -->
<g id="node61" class="node"><title>Node31</title>
<a xlink:href="d7/d4c/classpocketmine_1_1command_1_1defaults_1_1_tell_command.html" target="_top" xlink:title="pocketmine\\command\\defaults\\TellCommand">
<polygon fill="white" stroke="black" points="569,-120.5 569,-141.5 783,-141.5 783,-120.5 569,-120.5"/>
<text text-anchor="middle" x="676" y="-128.5" font-family="Helvetica,sans-Serif" font-size="10.00">pocketmine\command\defaults\TellCommand</text>
</a>
</g>
<!-- Node2&#45;&gt;Node31 -->
<g id="edge60" class="edge"><title>Node2&#45;&gt;Node31</title>
<path fill="none" stroke="midnightblue" d="M497.172,-613.896C498.145,-612.969 499.088,-612.004 500,-611 568.957,-535.116 465.846,-225.778 536,-151 544.987,-141.42 556.333,-134.971 568.658,-130.762"/>
<polygon fill="midnightblue" stroke="midnightblue" points="494.808,-611.305 489.191,-620.288 499.184,-616.768 494.808,-611.305"/>
</g>
<!-- Node32 -->
<g id="node63" class="node"><title>Node32</title>
<a xlink:href="dc/d55/classpocketmine_1_1command_1_1defaults_1_1_time_command.html" target="_top" xlink:title="pocketmine\\command\\defaults\\TimeCommand">
<polygon fill="white" stroke="black" points="566,-80.5 566,-101.5 786,-101.5 786,-80.5 566,-80.5"/>
<text text-anchor="middle" x="676" y="-88.5" font-family="Helvetica,sans-Serif" font-size="10.00">pocketmine\command\defaults\TimeCommand</text>
</a>
</g>
<!-- Node2&#45;&gt;Node32 -->
<g id="edge62" class="edge"><title>Node2&#45;&gt;Node32</title>
<path fill="none" stroke="midnightblue" d="M497.181,-613.904C498.151,-612.974 499.091,-612.007 500,-611 574.661,-528.324 460.035,-192.48 536,-111 544.288,-102.111 554.605,-95.9113 565.856,-91.6939"/>
<polygon fill="midnightblue" stroke="midnightblue" points="494.814,-611.316 489.218,-620.313 499.203,-616.769 494.814,-611.316"/>
</g>
<!-- Node33 -->
<g id="node65" class="node"><title>Node33</title>
<a xlink:href="d1/d1c/classpocketmine_1_1command_1_1defaults_1_1_version_command.html" target="_top" xlink:title="pocketmine\\command\\defaults\\VersionCommand">
<polygon fill="white" stroke="black" points="560.5,-40.5 560.5,-61.5 791.5,-61.5 791.5,-40.5 560.5,-40.5"/>
<text text-anchor="middle" x="676" y="-48.5" font-family="Helvetica,sans-Serif" font-size="10.00">pocketmine\command\defaults\VersionCommand</text>
</a>
</g>
<!-- Node2&#45;&gt;Node33 -->
<g id="edge64" class="edge"><title>Node2&#45;&gt;Node33</title>
<path fill="none" stroke="midnightblue" d="M497.189,-613.911C498.156,-612.979 499.094,-612.009 500,-611 580.367,-521.529 454.221,-159.183 536,-71 542.928,-63.5289 551.29,-57.9546 560.437,-53.8582"/>
<polygon fill="midnightblue" stroke="midnightblue" points="494.819,-611.326 489.242,-620.334 499.219,-616.77 494.819,-611.326"/>
</g>
<!-- Node34 -->
<g id="node67" class="node"><title>Node34</title>
<a xlink:href="d5/d43/classpocketmine_1_1command_1_1defaults_1_1_whitelist_command.html" target="_top" xlink:title="pocketmine\\command\\defaults\\WhitelistCommand">
<polygon fill="white" stroke="black" points="558,-0.5 558,-21.5 794,-21.5 794,-0.5 558,-0.5"/>
<text text-anchor="middle" x="676" y="-8.5" font-family="Helvetica,sans-Serif" font-size="10.00">pocketmine\command\defaults\WhitelistCommand</text>
</a>
</g>
<!-- Node2&#45;&gt;Node34 -->
<g id="edge66" class="edge"><title>Node2&#45;&gt;Node34</title>
<path fill="none" stroke="midnightblue" d="M497.195,-613.916C498.16,-612.983 499.096,-612.011 500,-611 586.075,-514.732 448.407,-125.888 536,-31 542.245,-24.2347 549.665,-19.0223 557.781,-15.053"/>
<polygon fill="midnightblue" stroke="midnightblue" points="494.823,-611.334 489.262,-620.352 499.233,-616.77 494.823,-611.334"/>
</g>
<!-- Node37 -->
<g id="node72" class="node"><title>Node37</title>
<a xlink:href="d4/d58/interfacepocketmine_1_1command_1_1_plugin_identifiable_command.html" target="_top" xlink:title="pocketmine\\command\\PluginIdentifiableCommand">
<polygon fill="white" stroke="black" points="0.5,-540.5 0.5,-561.5 235.5,-561.5 235.5,-540.5 0.5,-540.5"/>
<text text-anchor="middle" x="118" y="-548.5" font-family="Helvetica,sans-Serif" font-size="10.00">pocketmine\command\PluginIdentifiableCommand</text>
</a>
</g>
<!-- Node37&#45;&gt;Node36 -->
<g id="edge72" class="edge"><title>Node37&#45;&gt;Node36</title>
<path fill="none" stroke="midnightblue" d="M245.742,-551C261.291,-551 276.953,-551 291.887,-551"/>
<polygon fill="midnightblue" stroke="midnightblue" points="245.549,-547.5 235.549,-551 245.549,-554.5 245.549,-547.5"/>
</g>
</g>
</svg>
