<?xml version="1.0" encoding="UTF-8" standalone="no"?>
<!DOCTYPE svg PUBLIC "-//W3C//DTD SVG 1.1//EN"
 "http://www.w3.org/Graphics/SVG/1.1/DTD/svg11.dtd">
<!-- Generated by graphviz version 2.26.3 (20100126.1600)
 -->
<!-- Title: Graphical Class Hierarchy Pages: 1 -->
<svg width="294pt" height="94pt"
 viewBox="0.00 0.00 294.00 94.00" xmlns="http://www.w3.org/2000/svg" xmlns:xlink="http://www.w3.org/1999/xlink">
<g id="graph1" class="graph" transform="scale(1 1) rotate(0) translate(4 90)">
<title>Graphical Class Hierarchy</title>
<polygon fill="white" stroke="white" points="-4,5 -4,-90 291,-90 291,5 -4,5"/>
<!-- Node1 -->
<g id="node1" class="node"><title>Node1</title>
<a xlink:href="df/d5e/classpocketmine_1_1scheduler_1_1_task.html" target="_top" xlink:title="pocketmine\\scheduler\\Task">
<polygon fill="white" stroke="black" points="0.5,-32.5 0.5,-53.5 137.5,-53.5 137.5,-32.5 0.5,-32.5"/>
<text text-anchor="middle" x="69" y="-40.5" font-family="Helvetica,sans-Serif" font-size="10.00">pocketmine\scheduler\Task</text>
</a>
</g>
<!-- Node2 -->
<g id="node3" class="node"><title>Node2</title>
<a xlink:href="df/d63/classpocketmine_1_1scheduler_1_1_callback_task.html" target="_top" xlink:title="pocketmine\\scheduler\l\\CallbackTask">
<polygon fill="white" stroke="black" points="174,-52 174,-86 286,-86 286,-52 174,-52"/>
<text text-anchor="start" x="182" y="-73" font-family="Helvetica,sans-Serif" font-size="10.00">pocketmine\scheduler</text>
<text text-anchor="middle" x="230" y="-60" font-family="Helvetica,sans-Serif" font-size="10.00">\CallbackTask</text>
</a>
</g>
<!-- Node1&#45;&gt;Node2 -->
<g id="edge2" class="edge"><title>Node1&#45;&gt;Node2</title>
<path fill="none" stroke="midnightblue" d="M143.989,-55.11C154.019,-56.7297 164.163,-58.3679 173.795,-59.9234"/>
<polygon fill="midnightblue" stroke="midnightblue" points="144.451,-51.6394 134.021,-53.5003 143.335,-58.5498 144.451,-51.6394"/>
</g>
<!-- Node3 -->
<g id="node5" class="node"><title>Node3</title>
<a xlink:href="d5/d2e/classpocketmine_1_1scheduler_1_1_plugin_task.html" target="_top" xlink:title="pocketmine\\scheduler\l\\PluginTask">
<polygon fill="white" stroke="black" points="174,-0 174,-34 286,-34 286,-0 174,-0"/>
<text text-anchor="start" x="182" y="-21" font-family="Helvetica,sans-Serif" font-size="10.00">pocketmine\scheduler</text>
<text text-anchor="middle" x="230" y="-8" font-family="Helvetica,sans-Serif" font-size="10.00">\PluginTask</text>
</a>
</g>
<!-- Node1&#45;&gt;Node3 -->
<g id="edge4" class="edge"><title>Node1&#45;&gt;Node3</title>
<path fill="none" stroke="midnightblue" d="M143.989,-30.89C154.019,-29.2703 164.163,-27.6321 173.795,-26.0766"/>
<polygon fill="midnightblue" stroke="midnightblue" points="143.335,-27.4502 134.021,-32.4997 144.451,-34.3606 143.335,-27.4502"/>
</g>
</g>
</svg>
