<?xml version="1.0" encoding="UTF-8" standalone="no"?>
<!DOCTYPE svg PUBLIC "-//W3C//DTD SVG 1.1//EN"
 "http://www.w3.org/Graphics/SVG/1.1/DTD/svg11.dtd">
<!-- Generated by graphviz version 2.36.0 (20140111.2315)
 -->
<!-- Title: Graphical Class Hierarchy Pages: 1 -->
<svg width="478pt" height="160pt"
 viewBox="0.00 0.00 478.00 160.00" xmlns="http://www.w3.org/2000/svg" xmlns:xlink="http://www.w3.org/1999/xlink">
<g id="graph0" class="graph" transform="scale(1 1) rotate(0) translate(4 156)">
<title>Graphical Class Hierarchy</title>
<polygon fill="white" stroke="none" points="-4,4 -4,-156 474,-156 474,4 -4,4"/>
<!-- Node1 -->
<g id="node1" class="node"><title>Node1</title>
<g id="a_node1"><a xlink:href="d7/d3c/interfacepocketmine_1_1inventory_1_1_recipe.html" target="_top" xlink:title="pocketmine\\inventory\l\\Recipe">
<polygon fill="white" stroke="black" points="0,-73 0,-103 120,-103 120,-73 0,-73"/>
<text text-anchor="start" x="8" y="-91" font-family="Helvetica,sans-Serif" font-size="10.00">pocketmine\inventory</text>
<text text-anchor="middle" x="60" y="-80" font-family="Helvetica,sans-Serif" font-size="10.00">\Recipe</text>
</a>
</g>
</g>
<!-- Node2 -->
<g id="node2" class="node"><title>Node2</title>
<g id="a_node2"><a xlink:href="db/db2/classpocketmine_1_1inventory_1_1_furnace_recipe.html" target="_top" xlink:title="pocketmine\\inventory\l\\FurnaceRecipe">
<polygon fill="white" stroke="black" points="156,-122 156,-152 276,-152 276,-122 156,-122"/>
<text text-anchor="start" x="164" y="-140" font-family="Helvetica,sans-Serif" font-size="10.00">pocketmine\inventory</text>
<text text-anchor="middle" x="216" y="-129" font-family="Helvetica,sans-Serif" font-size="10.00">\FurnaceRecipe</text>
</a>
</g>
</g>
<!-- Node1&#45;&gt;Node2 -->
<g id="edge1" class="edge"><title>Node1&#45;&gt;Node2</title>
<path fill="none" stroke="midnightblue" d="M118.386,-106.259C134.629,-111.427 152.119,-116.992 167.695,-121.948"/>
<polygon fill="midnightblue" stroke="midnightblue" points="119.052,-102.798 108.462,-103.101 116.93,-109.469 119.052,-102.798"/>
</g>
<!-- Node3 -->
<g id="node3" class="node"><title>Node3</title>
<g id="a_node3"><a xlink:href="d7/d21/classpocketmine_1_1inventory_1_1_shaped_recipe.html" target="_top" xlink:title="pocketmine\\inventory\l\\ShapedRecipe">
<polygon fill="white" stroke="black" points="156,-73 156,-103 276,-103 276,-73 156,-73"/>
<text text-anchor="start" x="164" y="-91" font-family="Helvetica,sans-Serif" font-size="10.00">pocketmine\inventory</text>
<text text-anchor="middle" x="216" y="-80" font-family="Helvetica,sans-Serif" font-size="10.00">\ShapedRecipe</text>
</a>
</g>
</g>
<!-- Node1&#45;&gt;Node3 -->
<g id="edge2" class="edge"><title>Node1&#45;&gt;Node3</title>
<path fill="none" stroke="midnightblue" d="M130.369,-88C138.862,-88 147.48,-88 155.804,-88"/>
<polygon fill="midnightblue" stroke="midnightblue" points="130.1,-84.5001 120.1,-88 130.1,-91.5001 130.1,-84.5001"/>
</g>
<!-- Node4 -->
<g id="node4" class="node"><title>Node4</title>
<g id="a_node4"><a xlink:href="d6/d74/classpocketmine_1_1inventory_1_1_shapeless_recipe.html" target="_top" xlink:title="pocketmine\\inventory\l\\ShapelessRecipe">
<polygon fill="white" stroke="black" points="156,-24 156,-54 276,-54 276,-24 156,-24"/>
<text text-anchor="start" x="164" y="-42" font-family="Helvetica,sans-Serif" font-size="10.00">pocketmine\inventory</text>
<text text-anchor="middle" x="216" y="-31" font-family="Helvetica,sans-Serif" font-size="10.00">\ShapelessRecipe</text>
</a>
</g>
</g>
<!-- Node1&#45;&gt;Node4 -->
<g id="edge3" class="edge"><title>Node1&#45;&gt;Node4</title>
<path fill="none" stroke="midnightblue" d="M118.386,-69.7409C134.629,-64.5727 152.119,-59.0076 167.695,-54.0516"/>
<polygon fill="midnightblue" stroke="midnightblue" points="116.93,-66.5312 108.462,-72.8986 119.052,-73.2017 116.93,-66.5312"/>
</g>
<!-- Node5 -->
<g id="node5" class="node"><title>Node5</title>
<g id="a_node5"><a xlink:href="d8/d7b/classpocketmine_1_1inventory_1_1_big_shapeless_recipe.html" target="_top" xlink:title="pocketmine\\inventory\l\\BigShapelessRecipe">
<polygon fill="white" stroke="black" points="331,-49 331,-79 451,-79 451,-49 331,-49"/>
<text text-anchor="start" x="339" y="-67" font-family="Helvetica,sans-Serif" font-size="10.00">pocketmine\inventory</text>
<text text-anchor="middle" x="391" y="-56" font-family="Helvetica,sans-Serif" font-size="10.00">\BigShapelessRecipe</text>
</a>
</g>
</g>
<!-- Node4&#45;&gt;Node5 -->
<g id="edge4" class="edge"><title>Node4&#45;&gt;Node5</title>
<path fill="none" stroke="midnightblue" d="M286.177,-48.9967C300.996,-51.1382 316.523,-53.382 330.92,-55.4624"/>
<polygon fill="midnightblue" stroke="midnightblue" points="286.451,-45.5 276.053,-47.5337 285.45,-52.428 286.451,-45.5"/>
</g>
<!-- Node6 -->
<g id="node6" class="node"><title>Node6</title>
<g id="a_node6"><a xlink:href="d5/da2/classpocketmine_1_1inventory_1_1_stonecutter_shapeless_recipe.html" target="_top" xlink:title="pocketmine\\inventory\l\\StonecutterShapelessRecipe">
<polygon fill="white" stroke="black" points="312.5,-0 312.5,-30 469.5,-30 469.5,-0 312.5,-0"/>
<text text-anchor="start" x="320.5" y="-18" font-family="Helvetica,sans-Serif" font-size="10.00">pocketmine\inventory</text>
<text text-anchor="middle" x="391" y="-7" font-family="Helvetica,sans-Serif" font-size="10.00">\StonecutterShapelessRecipe</text>
</a>
</g>
</g>
<!-- Node4&#45;&gt;Node6 -->
<g id="edge5" class="edge"><title>Node4&#45;&gt;Node6</title>
<path fill="none" stroke="midnightblue" d="M286.035,-29.4229C294.652,-28.2275 303.509,-26.9987 312.246,-25.7866"/>
<polygon fill="midnightblue" stroke="midnightblue" points="285.477,-25.9667 276.053,-30.8077 286.439,-32.9003 285.477,-25.9667"/>
</g>
</g>
</svg>
