<?xml version="1.0" encoding="UTF-8" standalone="no"?>
<!DOCTYPE svg PUBLIC "-//W3C//DTD SVG 1.1//EN"
 "http://www.w3.org/Graphics/SVG/1.1/DTD/svg11.dtd">
<!-- Generated by graphviz version 2.26.3 (20100126.1600)
 -->
<!-- Title: Graphical Class Hierarchy Pages: 1 -->
<svg width="618pt" height="42pt"
 viewBox="0.00 0.00 618.00 42.00" xmlns="http://www.w3.org/2000/svg" xmlns:xlink="http://www.w3.org/1999/xlink">
<g id="graph1" class="graph" transform="scale(1 1) rotate(0) translate(4 38)">
<title>Graphical Class Hierarchy</title>
<polygon fill="white" stroke="white" points="-4,5 -4,-38 615,-38 615,5 -4,5"/>
<!-- Node1 -->
<g id="node1" class="node"><title>Node1</title>
<a xlink:href="d8/d8f/interfacepocketmine_1_1level_1_1format_1_1_level_provider.html" target="_top" xlink:title="pocketmine\\level\\format\l\\LevelProvider">
<polygon fill="white" stroke="black" points="0.5,-0 0.5,-34 121.5,-34 121.5,-0 0.5,-0"/>
<text text-anchor="start" x="8.5" y="-21" font-family="Helvetica,sans-Serif" font-size="10.00">pocketmine\level\format</text>
<text text-anchor="middle" x="61" y="-8" font-family="Helvetica,sans-Serif" font-size="10.00">\LevelProvider</text>
</a>
</g>
<!-- Node2 -->
<g id="node3" class="node"><title>Node2</title>
<a xlink:href="d5/d41/classpocketmine_1_1level_1_1format_1_1generic_1_1_base_level_provider.html" target="_top" xlink:title="pocketmine\\level\\format\l\\generic\\BaseLevelProvider">
<polygon fill="white" stroke="black" points="158,-0 158,-34 294,-34 294,-0 158,-0"/>
<text text-anchor="start" x="166" y="-21" font-family="Helvetica,sans-Serif" font-size="10.00">pocketmine\level\format</text>
<text text-anchor="middle" x="226" y="-8" font-family="Helvetica,sans-Serif" font-size="10.00">\generic\BaseLevelProvider</text>
</a>
</g>
<!-- Node1&#45;&gt;Node2 -->
<g id="edge2" class="edge"><title>Node1&#45;&gt;Node2</title>
<path fill="none" stroke="midnightblue" d="M131.645,-17C140.376,-17 149.288,-17 157.978,-17"/>
<polygon fill="midnightblue" stroke="midnightblue" points="131.503,-13.5001 121.503,-17 131.503,-20.5001 131.503,-13.5001"/>
</g>
<!-- Node3 -->
<g id="node5" class="node"><title>Node3</title>
<a xlink:href="d7/d67/classpocketmine_1_1level_1_1format_1_1mcregion_1_1_mc_region.html" target="_top" xlink:title="pocketmine\\level\\format\l\\mcregion\\McRegion">
<polygon fill="white" stroke="black" points="330.5,-0 330.5,-34 451.5,-34 451.5,-0 330.5,-0"/>
<text text-anchor="start" x="338.5" y="-21" font-family="Helvetica,sans-Serif" font-size="10.00">pocketmine\level\format</text>
<text text-anchor="middle" x="391" y="-8" font-family="Helvetica,sans-Serif" font-size="10.00">\mcregion\McRegion</text>
</a>
</g>
<!-- Node2&#45;&gt;Node3 -->
<g id="edge4" class="edge"><title>Node2&#45;&gt;Node3</title>
<path fill="none" stroke="midnightblue" d="M304.328,-17C313.116,-17 321.968,-17 330.482,-17"/>
<polygon fill="midnightblue" stroke="midnightblue" points="304.064,-13.5001 294.064,-17 304.064,-20.5001 304.064,-13.5001"/>
</g>
<!-- Node4 -->
<g id="node7" class="node"><title>Node4</title>
<a xlink:href="db/dbb/classpocketmine_1_1level_1_1format_1_1anvil_1_1_anvil.html" target="_top" xlink:title="pocketmine\\level\\format\l\\anvil\\Anvil">
<polygon fill="white" stroke="black" points="488.5,-0 488.5,-34 609.5,-34 609.5,-0 488.5,-0"/>
<text text-anchor="start" x="496.5" y="-21" font-family="Helvetica,sans-Serif" font-size="10.00">pocketmine\level\format</text>
<text text-anchor="middle" x="549" y="-8" font-family="Helvetica,sans-Serif" font-size="10.00">\anvil\Anvil</text>
</a>
</g>
<!-- Node3&#45;&gt;Node4 -->
<g id="edge6" class="edge"><title>Node3&#45;&gt;Node4</title>
<path fill="none" stroke="midnightblue" d="M461.884,-17C470.69,-17 479.632,-17 488.266,-17"/>
<polygon fill="midnightblue" stroke="midnightblue" points="461.635,-13.5001 451.635,-17 461.635,-20.5001 461.635,-13.5001"/>
</g>
</g>
</svg>
