<?xml version="1.0" encoding="UTF-8" standalone="no"?>
<!DOCTYPE svg PUBLIC "-//W3C//DTD SVG 1.1//EN"
 "http://www.w3.org/Graphics/SVG/1.1/DTD/svg11.dtd">
<!-- Generated by graphviz version 2.26.3 (20100126.1600)
 -->
<!-- Title: Graphical Class Hierarchy Pages: 1 -->
<svg width="446pt" height="172pt"
 viewBox="0.00 0.00 446.00 172.00" xmlns="http://www.w3.org/2000/svg" xmlns:xlink="http://www.w3.org/1999/xlink">
<g id="graph1" class="graph" transform="scale(1 1) rotate(0) translate(4 168)">
<title>Graphical Class Hierarchy</title>
<polygon fill="white" stroke="white" points="-4,5 -4,-168 443,-168 443,5 -4,5"/>
<!-- Node1 -->
<g id="node1" class="node"><title>Node1</title>
<a xlink:href="d7/d3c/interfacepocketmine_1_1inventory_1_1_recipe.html" target="_top" xlink:title="pocketmine\\inventory\l\\Recipe">
<polygon fill="white" stroke="black" points="0,-78 0,-112 110,-112 110,-78 0,-78"/>
<text text-anchor="start" x="8" y="-99" font-family="Helvetica,sans-Serif" font-size="10.00">pocketmine\inventory</text>
<text text-anchor="middle" x="55" y="-86" font-family="Helvetica,sans-Serif" font-size="10.00">\Recipe</text>
</a>
</g>
<!-- Node2 -->
<g id="node3" class="node"><title>Node2</title>
<a xlink:href="db/db2/classpocketmine_1_1inventory_1_1_furnace_recipe.html" target="_top" xlink:title="pocketmine\\inventory\l\\FurnaceRecipe">
<polygon fill="white" stroke="black" points="146,-130 146,-164 256,-164 256,-130 146,-130"/>
<text text-anchor="start" x="154" y="-151" font-family="Helvetica,sans-Serif" font-size="10.00">pocketmine\inventory</text>
<text text-anchor="middle" x="201" y="-138" font-family="Helvetica,sans-Serif" font-size="10.00">\FurnaceRecipe</text>
</a>
</g>
<!-- Node1&#45;&gt;Node2 -->
<g id="edge2" class="edge"><title>Node1&#45;&gt;Node2</title>
<path fill="none" stroke="midnightblue" d="M112.446,-115.46C125.902,-120.253 140.097,-125.309 153.087,-129.935"/>
<polygon fill="midnightblue" stroke="midnightblue" points="113.401,-112.085 102.806,-112.027 111.052,-118.679 113.401,-112.085"/>
</g>
<!-- Node3 -->
<g id="node5" class="node"><title>Node3</title>
<a xlink:href="d7/d21/classpocketmine_1_1inventory_1_1_shaped_recipe.html" target="_top" xlink:title="pocketmine\\inventory\l\\ShapedRecipe">
<polygon fill="white" stroke="black" points="146,-78 146,-112 256,-112 256,-78 146,-78"/>
<text text-anchor="start" x="154" y="-99" font-family="Helvetica,sans-Serif" font-size="10.00">pocketmine\inventory</text>
<text text-anchor="middle" x="201" y="-86" font-family="Helvetica,sans-Serif" font-size="10.00">\ShapedRecipe</text>
</a>
</g>
<!-- Node1&#45;&gt;Node3 -->
<g id="edge4" class="edge"><title>Node1&#45;&gt;Node3</title>
<path fill="none" stroke="midnightblue" d="M120.41,-95C128.865,-95 137.457,-95 145.726,-95"/>
<polygon fill="midnightblue" stroke="midnightblue" points="120.196,-91.5001 110.196,-95 120.196,-98.5001 120.196,-91.5001"/>
</g>
<!-- Node4 -->
<g id="node7" class="node"><title>Node4</title>
<a xlink:href="d6/d74/classpocketmine_1_1inventory_1_1_shapeless_recipe.html" target="_top" xlink:title="pocketmine\\inventory\l\\ShapelessRecipe">
<polygon fill="white" stroke="black" points="146,-26 146,-60 256,-60 256,-26 146,-26"/>
<text text-anchor="start" x="154" y="-47" font-family="Helvetica,sans-Serif" font-size="10.00">pocketmine\inventory</text>
<text text-anchor="middle" x="201" y="-34" font-family="Helvetica,sans-Serif" font-size="10.00">\ShapelessRecipe</text>
</a>
</g>
<!-- Node1&#45;&gt;Node4 -->
<g id="edge6" class="edge"><title>Node1&#45;&gt;Node4</title>
<path fill="none" stroke="midnightblue" d="M112.446,-74.5399C125.902,-69.7473 140.097,-64.6913 153.087,-60.065"/>
<polygon fill="midnightblue" stroke="midnightblue" points="111.052,-71.3209 102.806,-77.9733 113.401,-77.9151 111.052,-71.3209"/>
</g>
<!-- Node5 -->
<g id="node9" class="node"><title>Node5</title>
<a xlink:href="d8/d7b/classpocketmine_1_1inventory_1_1_big_shapeless_recipe.html" target="_top" xlink:title="pocketmine\\inventory\l\\BigShapelessRecipe">
<polygon fill="white" stroke="black" points="310,-52 310,-86 420,-86 420,-52 310,-52"/>
<text text-anchor="start" x="318" y="-73" font-family="Helvetica,sans-Serif" font-size="10.00">pocketmine\inventory</text>
<text text-anchor="middle" x="365" y="-60" font-family="Helvetica,sans-Serif" font-size="10.00">\BigShapelessRecipe</text>
</a>
</g>
<!-- Node4&#45;&gt;Node5 -->
<g id="edge8" class="edge"><title>Node4&#45;&gt;Node5</title>
<path fill="none" stroke="midnightblue" d="M265.968,-53.2998C280.477,-55.6 295.73,-58.0182 309.8,-60.2488"/>
<polygon fill="midnightblue" stroke="midnightblue" points="266.491,-49.839 256.066,-51.73 265.394,-56.7527 266.491,-49.839"/>
</g>
<!-- Node6 -->
<g id="node11" class="node"><title>Node6</title>
<a xlink:href="d5/da2/classpocketmine_1_1inventory_1_1_stonecutter_shapeless_recipe.html" target="_top" xlink:title="pocketmine\\inventory\l\\StonecutterShapelessRecipe">
<polygon fill="white" stroke="black" points="292,-0 292,-34 438,-34 438,-0 292,-0"/>
<text text-anchor="start" x="300" y="-21" font-family="Helvetica,sans-Serif" font-size="10.00">pocketmine\inventory</text>
<text text-anchor="middle" x="365" y="-8" font-family="Helvetica,sans-Serif" font-size="10.00">\StonecutterShapelessRecipe</text>
</a>
</g>
<!-- Node4&#45;&gt;Node6 -->
<g id="edge10" class="edge"><title>Node4&#45;&gt;Node6</title>
<path fill="none" stroke="midnightblue" d="M266.164,-32.6692C274.563,-31.3376 283.208,-29.967 291.727,-28.6165"/>
<polygon fill="midnightblue" stroke="midnightblue" points="265.394,-29.2473 256.066,-34.27 266.491,-36.161 265.394,-29.2473"/>
</g>
</g>
</svg>
