<?xml version="1.0" encoding="UTF-8" standalone="no"?>
<!DOCTYPE svg PUBLIC "-//W3C//DTD SVG 1.1//EN"
 "http://www.w3.org/Graphics/SVG/1.1/DTD/svg11.dtd">
<!-- Generated by graphviz version 2.26.3 (20100126.1600)
 -->
<!-- Title: Graphical Class Hierarchy Pages: 1 -->
<svg width="450pt" height="42pt"
 viewBox="0.00 0.00 450.00 42.00" xmlns="http://www.w3.org/2000/svg" xmlns:xlink="http://www.w3.org/1999/xlink">
<g id="graph1" class="graph" transform="scale(1 1) rotate(0) translate(4 38)">
<title>Graphical Class Hierarchy</title>
<polygon fill="white" stroke="white" points="-4,5 -4,-38 447,-38 447,5 -4,5"/>
<!-- Node1 -->
<g id="node1" class="node"><title>Node1</title>
<a xlink:href="da/da3/interfacepocketmine_1_1inventory_1_1_transaction_group.html" target="_top" xlink:title="pocketmine\\inventory\l\\TransactionGroup">
<polygon fill="white" stroke="black" points="0,-0 0,-34 110,-34 110,-0 0,-0"/>
<text text-anchor="start" x="8" y="-21" font-family="Helvetica,sans-Serif" font-size="10.00">pocketmine\inventory</text>
<text text-anchor="middle" x="55" y="-8" font-family="Helvetica,sans-Serif" font-size="10.00">\TransactionGroup</text>
</a>
</g>
<!-- Node2 -->
<g id="node3" class="node"><title>Node2</title>
<a xlink:href="df/df1/classpocketmine_1_1inventory_1_1_simple_transaction_group.html" target="_top" xlink:title="pocketmine\\inventory\l\\SimpleTransactionGroup">
<polygon fill="white" stroke="black" points="146.5,-0 146.5,-34 273.5,-34 273.5,-0 146.5,-0"/>
<text text-anchor="start" x="154.5" y="-21" font-family="Helvetica,sans-Serif" font-size="10.00">pocketmine\inventory</text>
<text text-anchor="middle" x="210" y="-8" font-family="Helvetica,sans-Serif" font-size="10.00">\SimpleTransactionGroup</text>
</a>
</g>
<!-- Node1&#45;&gt;Node2 -->
<g id="edge2" class="edge"><title>Node1&#45;&gt;Node2</title>
<path fill="none" stroke="midnightblue" d="M120.147,-17C128.825,-17 137.715,-17 146.367,-17"/>
<polygon fill="midnightblue" stroke="midnightblue" points="120.084,-13.5001 110.084,-17 120.084,-20.5001 120.084,-13.5001"/>
</g>
<!-- Node3 -->
<g id="node5" class="node"><title>Node3</title>
<a xlink:href="d6/d42/classpocketmine_1_1inventory_1_1_crafting_transaction_group.html" target="_top" xlink:title="pocketmine\\inventory\l\\CraftingTransactionGroup">
<polygon fill="white" stroke="black" points="310.5,-0 310.5,-34 441.5,-34 441.5,-0 310.5,-0"/>
<text text-anchor="start" x="318.5" y="-21" font-family="Helvetica,sans-Serif" font-size="10.00">pocketmine\inventory</text>
<text text-anchor="middle" x="376" y="-8" font-family="Helvetica,sans-Serif" font-size="10.00">\CraftingTransactionGroup</text>
</a>
</g>
<!-- Node2&#45;&gt;Node3 -->
<g id="edge4" class="edge"><title>Node2&#45;&gt;Node3</title>
<path fill="none" stroke="midnightblue" d="M283.922,-17C292.699,-17 301.613,-17 310.266,-17"/>
<polygon fill="midnightblue" stroke="midnightblue" points="283.705,-13.5001 273.705,-17 283.705,-20.5001 283.705,-13.5001"/>
</g>
</g>
</svg>
