<?xml version="1.0" encoding="UTF-8" standalone="no"?>
<!DOCTYPE svg PUBLIC "-//W3C//DTD SVG 1.1//EN"
 "http://www.w3.org/Graphics/SVG/1.1/DTD/svg11.dtd">
<!-- Generated by graphviz version 2.36.0 (20140111.2315)
 -->
<!-- Title: Graphical Class Hierarchy Pages: 1 -->
<svg width="340pt" height="234pt"
 viewBox="0.00 0.00 340.00 234.00" xmlns="http://www.w3.org/2000/svg" xmlns:xlink="http://www.w3.org/1999/xlink">
<g id="graph0" class="graph" transform="scale(1 1) rotate(0) translate(4 230)">
<title>Graphical Class Hierarchy</title>
<polygon fill="white" stroke="none" points="-4,4 -4,-230 336,-230 336,4 -4,4"/>
<!-- Node1 -->
<g id="node1" class="node"><title>Node1</title>
<g id="a_node1"><a xlink:href="db/de9/classpocketmine_1_1level_1_1generator_1_1populator_1_1_populator.html" target="_top" xlink:title="pocketmine\\level\\generator\l\\populator\\Populator">
<polygon fill="white" stroke="black" points="0,-98 0,-128 148,-128 148,-98 0,-98"/>
<text text-anchor="start" x="8" y="-116" font-family="Helvetica,sans-Serif" font-size="10.00">pocketmine\level\generator</text>
<text text-anchor="middle" x="74" y="-105" font-family="Helvetica,sans-Serif" font-size="10.00">\populator\Populator</text>
</a>
</g>
</g>
<!-- Node2 -->
<g id="node2" class="node"><title>Node2</title>
<g id="a_node2"><a xlink:href="dc/d88/classpocketmine_1_1level_1_1generator_1_1populator_1_1_mineshaft.html" target="_top" xlink:title="pocketmine\\level\\generator\l\\populator\\Mineshaft">
<polygon fill="white" stroke="black" points="184,-196 184,-226 332,-226 332,-196 184,-196"/>
<text text-anchor="start" x="192" y="-214" font-family="Helvetica,sans-Serif" font-size="10.00">pocketmine\level\generator</text>
<text text-anchor="middle" x="258" y="-203" font-family="Helvetica,sans-Serif" font-size="10.00">\populator\Mineshaft</text>
</a>
</g>
</g>
<!-- Node1&#45;&gt;Node2 -->
<g id="edge1" class="edge"><title>Node1&#45;&gt;Node2</title>
<path fill="none" stroke="midnightblue" d="M102.397,-134.284C123.738,-150.12 154.584,-171.425 184,-186 191.322,-189.628 199.3,-192.947 207.204,-195.897"/>
<polygon fill="midnightblue" stroke="midnightblue" points="104.243,-131.293 94.1466,-128.082 100.037,-136.889 104.243,-131.293"/>
</g>
<!-- Node3 -->
<g id="node3" class="node"><title>Node3</title>
<g id="a_node3"><a xlink:href="d4/d19/classpocketmine_1_1level_1_1generator_1_1populator_1_1_ore.html" target="_top" xlink:title="pocketmine\\level\\generator\l\\populator\\Ore">
<polygon fill="white" stroke="black" points="184,-147 184,-177 332,-177 332,-147 184,-147"/>
<text text-anchor="start" x="192" y="-165" font-family="Helvetica,sans-Serif" font-size="10.00">pocketmine\level\generator</text>
<text text-anchor="middle" x="258" y="-154" font-family="Helvetica,sans-Serif" font-size="10.00">\populator\Ore</text>
</a>
</g>
</g>
<!-- Node1&#45;&gt;Node3 -->
<g id="edge2" class="edge"><title>Node1&#45;&gt;Node3</title>
<path fill="none" stroke="midnightblue" d="M140.923,-130.748C160.648,-136.059 182.078,-141.829 201.094,-146.948"/>
<polygon fill="midnightblue" stroke="midnightblue" points="141.657,-127.322 131.091,-128.101 139.837,-134.081 141.657,-127.322"/>
</g>
<!-- Node4 -->
<g id="node4" class="node"><title>Node4</title>
<g id="a_node4"><a xlink:href="df/dd0/classpocketmine_1_1level_1_1generator_1_1populator_1_1_pond.html" target="_top" xlink:title="pocketmine\\level\\generator\l\\populator\\Pond">
<polygon fill="white" stroke="black" points="184,-98 184,-128 332,-128 332,-98 184,-98"/>
<text text-anchor="start" x="192" y="-116" font-family="Helvetica,sans-Serif" font-size="10.00">pocketmine\level\generator</text>
<text text-anchor="middle" x="258" y="-105" font-family="Helvetica,sans-Serif" font-size="10.00">\populator\Pond</text>
</a>
</g>
</g>
<!-- Node1&#45;&gt;Node4 -->
<g id="edge3" class="edge"><title>Node1&#45;&gt;Node4</title>
<path fill="none" stroke="midnightblue" d="M158.516,-113C166.992,-113 175.556,-113 183.91,-113"/>
<polygon fill="midnightblue" stroke="midnightblue" points="158.24,-109.5 148.24,-113 158.24,-116.5 158.24,-109.5"/>
</g>
<!-- Node5 -->
<g id="node5" class="node"><title>Node5</title>
<g id="a_node5"><a xlink:href="d5/d9e/classpocketmine_1_1level_1_1generator_1_1populator_1_1_tall_grass.html" target="_top" xlink:title="pocketmine\\level\\generator\l\\populator\\TallGrass">
<polygon fill="white" stroke="black" points="184,-49 184,-79 332,-79 332,-49 184,-49"/>
<text text-anchor="start" x="192" y="-67" font-family="Helvetica,sans-Serif" font-size="10.00">pocketmine\level\generator</text>
<text text-anchor="middle" x="258" y="-56" font-family="Helvetica,sans-Serif" font-size="10.00">\populator\TallGrass</text>
</a>
</g>
</g>
<!-- Node1&#45;&gt;Node5 -->
<g id="edge4" class="edge"><title>Node1&#45;&gt;Node5</title>
<path fill="none" stroke="midnightblue" d="M140.923,-95.2515C160.648,-89.9409 182.078,-84.1712 201.094,-79.0516"/>
<polygon fill="midnightblue" stroke="midnightblue" points="139.837,-91.9191 131.091,-97.8986 141.657,-98.6784 139.837,-91.9191"/>
</g>
<!-- Node6 -->
<g id="node6" class="node"><title>Node6</title>
<g id="a_node6"><a xlink:href="d5/d35/classpocketmine_1_1level_1_1generator_1_1populator_1_1_tree.html" target="_top" xlink:title="pocketmine\\level\\generator\l\\populator\\Tree">
<polygon fill="white" stroke="black" points="184,-0 184,-30 332,-30 332,-0 184,-0"/>
<text text-anchor="start" x="192" y="-18" font-family="Helvetica,sans-Serif" font-size="10.00">pocketmine\level\generator</text>
<text text-anchor="middle" x="258" y="-7" font-family="Helvetica,sans-Serif" font-size="10.00">\populator\Tree</text>
</a>
</g>
</g>
<!-- Node1&#45;&gt;Node6 -->
<g id="edge5" class="edge"><title>Node1&#45;&gt;Node6</title>
<path fill="none" stroke="midnightblue" d="M102.397,-91.7157C123.738,-75.8801 154.584,-54.5752 184,-40 191.322,-36.372 199.3,-33.0535 207.204,-30.103"/>
<polygon fill="midnightblue" stroke="midnightblue" points="100.037,-89.1113 94.1466,-97.9177 104.243,-94.7067 100.037,-89.1113"/>
</g>
</g>
</svg>
