<?xml version="1.0" encoding="UTF-8" standalone="no"?>
<!DOCTYPE svg PUBLIC "-//W3C//DTD SVG 1.1//EN"
 "http://www.w3.org/Graphics/SVG/1.1/DTD/svg11.dtd">
<!-- Generated by graphviz version 2.26.3 (20100126.1600)
 -->
<!-- Title: G Pages: 1 -->
<svg width="672pt" height="30pt"
 viewBox="0.00 0.00 672.00 30.00" xmlns="http://www.w3.org/2000/svg" xmlns:xlink="http://www.w3.org/1999/xlink">
<g id="graph1" class="graph" transform="scale(1 1) rotate(0) translate(4 26)">
<title>G</title>
<polygon fill="white" stroke="white" points="-4,5 -4,-26 669,-26 669,5 -4,5"/>
<!-- Node1 -->
<g id="node1" class="node"><title>Node1</title>
<a xlink:href="d8/db5/classpocketmine_1_1level_1_1generator_1_1noise_1_1_generator.html" target="_top" xlink:title="pocketmine\\level\\generator\\noise\\Generator">
<polygon fill="white" stroke="black" points="0,-0.5 0,-21.5 206,-21.5 206,-0.5 0,-0.5"/>
<text text-anchor="middle" x="103" y="-8.5" font-family="Helvetica,sans-Serif" font-size="10.00">pocketmine\level\generator\noise\Generator</text>
</a>
</g>
<!-- Node2 -->
<g id="node3" class="node"><title>Node2</title>
<a xlink:href="dd/dc3/classpocketmine_1_1level_1_1generator_1_1noise_1_1_perlin.html" target="_top" xlink:title="pocketmine\\level\\generator\\noise\\Perlin">
<polygon fill="white" stroke="black" points="242,-0.5 242,-21.5 430,-21.5 430,-0.5 242,-0.5"/>
<text text-anchor="middle" x="336" y="-8.5" font-family="Helvetica,sans-Serif" font-size="10.00">pocketmine\level\generator\noise\Perlin</text>
</a>
</g>
<!-- Node1&#45;&gt;Node2 -->
<g id="edge2" class="edge"><title>Node1&#45;&gt;Node2</title>
<path fill="none" stroke="midnightblue" d="M216.488,-11C224.929,-11 233.391,-11 241.696,-11"/>
<polygon fill="midnightblue" stroke="midnightblue" points="216.215,-7.5001 206.215,-11 216.215,-14.5001 216.215,-7.5001"/>
</g>
<!-- Node3 -->
<g id="node5" class="node"><title>Node3</title>
<a xlink:href="db/d37/classpocketmine_1_1level_1_1generator_1_1noise_1_1_simplex.html" target="_top" xlink:title="pocketmine\\level\\generator\\noise\\Simplex">
<polygon fill="white" stroke="black" points="466,-0.5 466,-21.5 664,-21.5 664,-0.5 466,-0.5"/>
<text text-anchor="middle" x="565" y="-8.5" font-family="Helvetica,sans-Serif" font-size="10.00">pocketmine\level\generator\noise\Simplex</text>
</a>
</g>
<!-- Node2&#45;&gt;Node3 -->
<g id="edge4" class="edge"><title>Node2&#45;&gt;Node3</title>
<path fill="none" stroke="midnightblue" d="M440.359,-11C448.781,-11 457.277,-11 465.662,-11"/>
<polygon fill="midnightblue" stroke="midnightblue" points="440.134,-7.5001 430.134,-11 440.134,-14.5001 440.134,-7.5001"/>
</g>
</g>
</svg>
