<?xml version="1.0" encoding="UTF-8" standalone="no"?>
<!DOCTYPE svg PUBLIC "-//W3C//DTD SVG 1.1//EN"
 "http://www.w3.org/Graphics/SVG/1.1/DTD/svg11.dtd">
<!-- Generated by graphviz version 2.26.3 (20100126.1600)
 -->
<!-- Title: G Pages: 1 -->
<svg width="446pt" height="150pt"
 viewBox="0.00 0.00 446.00 150.00" xmlns="http://www.w3.org/2000/svg" xmlns:xlink="http://www.w3.org/1999/xlink">
<g id="graph1" class="graph" transform="scale(1 1) rotate(0) translate(4 146)">
<title>G</title>
<polygon fill="white" stroke="white" points="-4,5 -4,-146 443,-146 443,5 -4,5"/>
<!-- Node1 -->
<g id="node1" class="node"><title>Node1</title>
<a xlink:href="d6/dd0/classpocketmine_1_1level_1_1generator_1_1object_1_1_tree.html" target="_top" xlink:title="pocketmine\\level\\generator\\object\\Tree">
<polygon fill="white" stroke="black" points="0.5,-60.5 0.5,-81.5 185.5,-81.5 185.5,-60.5 0.5,-60.5"/>
<text text-anchor="middle" x="93" y="-68.5" font-family="Helvetica,sans-Serif" font-size="10.00">pocketmine\level\generator\object\Tree</text>
</a>
</g>
<!-- Node2 -->
<g id="node3" class="node"><title>Node2</title>
<a xlink:href="d1/d75/classpocketmine_1_1level_1_1generator_1_1object_1_1_big_tree.html" target="_top" xlink:title="pocketmine\\level\\generator\\object\\BigTree">
<polygon fill="white" stroke="black" points="230,-120.5 230,-141.5 430,-141.5 430,-120.5 230,-120.5"/>
<text text-anchor="middle" x="330" y="-128.5" font-family="Helvetica,sans-Serif" font-size="10.00">pocketmine\level\generator\object\BigTree</text>
</a>
</g>
<!-- Node1&#45;&gt;Node2 -->
<g id="edge2" class="edge"><title>Node1&#45;&gt;Node2</title>
<path fill="none" stroke="midnightblue" d="M133.085,-84.7645C158.379,-93.1163 191.854,-103.562 222,-111 236.255,-114.517 251.706,-117.728 266.343,-120.498"/>
<polygon fill="midnightblue" stroke="midnightblue" points="134.065,-81.4019 123.471,-81.5611 131.852,-88.043 134.065,-81.4019"/>
</g>
<!-- Node3 -->
<g id="node5" class="node"><title>Node3</title>
<a xlink:href="d6/d86/classpocketmine_1_1level_1_1generator_1_1object_1_1_pine_tree.html" target="_top" xlink:title="pocketmine\\level\\generator\\object\\PineTree">
<polygon fill="white" stroke="black" points="227.5,-80.5 227.5,-101.5 432.5,-101.5 432.5,-80.5 227.5,-80.5"/>
<text text-anchor="middle" x="330" y="-88.5" font-family="Helvetica,sans-Serif" font-size="10.00">pocketmine\level\generator\object\PineTree</text>
</a>
</g>
<!-- Node1&#45;&gt;Node3 -->
<g id="edge4" class="edge"><title>Node1&#45;&gt;Node3</title>
<path fill="none" stroke="midnightblue" d="M195.627,-79.6605C206.099,-80.5442 216.74,-81.4422 227.214,-82.326"/>
<polygon fill="midnightblue" stroke="midnightblue" points="195.908,-76.1718 185.649,-78.8185 195.319,-83.147 195.908,-76.1718"/>
</g>
<!-- Node4 -->
<g id="node7" class="node"><title>Node4</title>
<a xlink:href="d9/d33/classpocketmine_1_1level_1_1generator_1_1object_1_1_small_tree.html" target="_top" xlink:title="pocketmine\\level\\generator\\object\\SmallTree">
<polygon fill="white" stroke="black" points="225,-40.5 225,-61.5 435,-61.5 435,-40.5 225,-40.5"/>
<text text-anchor="middle" x="330" y="-48.5" font-family="Helvetica,sans-Serif" font-size="10.00">pocketmine\level\generator\object\SmallTree</text>
</a>
</g>
<!-- Node1&#45;&gt;Node4 -->
<g id="edge6" class="edge"><title>Node1&#45;&gt;Node4</title>
<path fill="none" stroke="midnightblue" d="M195.664,-62.3364C205.334,-61.5203 215.148,-60.6921 224.841,-59.8741"/>
<polygon fill="midnightblue" stroke="midnightblue" points="195.319,-58.853 185.649,-63.1815 195.908,-65.8282 195.319,-58.853"/>
</g>
<!-- Node5 -->
<g id="node9" class="node"><title>Node5</title>
<a xlink:href="dc/dbc/classpocketmine_1_1level_1_1generator_1_1object_1_1_spruce_tree.html" target="_top" xlink:title="pocketmine\\level\\generator\\object\\SpruceTree">
<polygon fill="white" stroke="black" points="222,-0.5 222,-21.5 438,-21.5 438,-0.5 222,-0.5"/>
<text text-anchor="middle" x="330" y="-8.5" font-family="Helvetica,sans-Serif" font-size="10.00">pocketmine\level\generator\object\SpruceTree</text>
</a>
</g>
<!-- Node1&#45;&gt;Node5 -->
<g id="edge8" class="edge"><title>Node1&#45;&gt;Node5</title>
<path fill="none" stroke="midnightblue" d="M133.085,-57.2355C158.379,-48.8837 191.854,-38.4378 222,-31 236.255,-27.4828 251.706,-24.2721 266.343,-21.5016"/>
<polygon fill="midnightblue" stroke="midnightblue" points="131.852,-53.957 123.471,-60.4389 134.065,-60.5981 131.852,-53.957"/>
</g>
</g>
</svg>
