<?xml version="1.0" encoding="UTF-8" standalone="no"?>
<!DOCTYPE svg PUBLIC "-//W3C//DTD SVG 1.1//EN"
 "http://www.w3.org/Graphics/SVG/1.1/DTD/svg11.dtd">
<!-- Generated by graphviz version 2.36.0 (20140111.2315)
 -->
<!-- Title: Graphical Class Hierarchy Pages: 1 -->
<svg width="406pt" height="87pt"
 viewBox="0.00 0.00 406.00 87.00" xmlns="http://www.w3.org/2000/svg" xmlns:xlink="http://www.w3.org/1999/xlink">
<g id="graph0" class="graph" transform="scale(1 1) rotate(0) translate(4 83)">
<title>Graphical Class Hierarchy</title>
<polygon fill="white" stroke="none" points="-4,4 -4,-83 402,-83 402,4 -4,4"/>
<!-- Node1 -->
<g id="node1" class="node"><title>Node1</title>
<polygon fill="white" stroke="#bfbfbf" points="0.5,-29.5 0.5,-48.5 69.5,-48.5 69.5,-29.5 0.5,-29.5"/>
<text text-anchor="middle" x="35" y="-36.5" font-family="Helvetica,sans-Serif" font-size="10.00">Collectable</text>
</g>
<!-- Node2 -->
<g id="node2" class="node"><title>Node2</title>
<g id="a_node2"><a xlink:href="df/dfa/classpocketmine_1_1scheduler_1_1_async_task.html" target="_top" xlink:title="pocketmine\\scheduler\l\\AsyncTask">
<polygon fill="white" stroke="black" points="106,-24 106,-54 228,-54 228,-24 106,-24"/>
<text text-anchor="start" x="114" y="-42" font-family="Helvetica,sans-Serif" font-size="10.00">pocketmine\scheduler</text>
<text text-anchor="middle" x="167" y="-31" font-family="Helvetica,sans-Serif" font-size="10.00">\AsyncTask</text>
</a>
</g>
</g>
<!-- Node1&#45;&gt;Node2 -->
<g id="edge1" class="edge"><title>Node1&#45;&gt;Node2</title>
<path fill="none" stroke="midnightblue" d="M80.0358,-39C88.3579,-39 97.1934,-39 105.911,-39"/>
<polygon fill="midnightblue" stroke="midnightblue" points="79.8166,-35.5001 69.8166,-39 79.8166,-42.5001 79.8166,-35.5001"/>
</g>
<!-- Node3 -->
<g id="node3" class="node"><title>Node3</title>
<g id="a_node3"><a xlink:href="d8/da8/classpocketmine_1_1level_1_1format_1_1anvil_1_1_chunk_request_task.html" target="_top" xlink:title="pocketmine\\level\\format\l\\anvil\\ChunkRequestTask">
<polygon fill="white" stroke="black" points="264.5,-49 264.5,-79 397.5,-79 397.5,-49 264.5,-49"/>
<text text-anchor="start" x="272.5" y="-67" font-family="Helvetica,sans-Serif" font-size="10.00">pocketmine\level\format</text>
<text text-anchor="middle" x="331" y="-56" font-family="Helvetica,sans-Serif" font-size="10.00">\anvil\ChunkRequestTask</text>
</a>
</g>
</g>
<!-- Node2&#45;&gt;Node3 -->
<g id="edge2" class="edge"><title>Node2&#45;&gt;Node3</title>
<path fill="none" stroke="midnightblue" d="M238.39,-49.8627C247.051,-51.1993 255.877,-52.5613 264.462,-53.8862"/>
<polygon fill="midnightblue" stroke="midnightblue" points="238.74,-46.3753 228.323,-48.3091 237.672,-53.2934 238.74,-46.3753"/>
</g>
<!-- Node4 -->
<g id="node4" class="node"><title>Node4</title>
<g id="a_node4"><a xlink:href="da/d91/classpocketmine_1_1scheduler_1_1_send_usage_task.html" target="_top" xlink:title="pocketmine\\scheduler\l\\SendUsageTask">
<polygon fill="white" stroke="black" points="270,-0 270,-30 392,-30 392,-0 270,-0"/>
<text text-anchor="start" x="278" y="-18" font-family="Helvetica,sans-Serif" font-size="10.00">pocketmine\scheduler</text>
<text text-anchor="middle" x="331" y="-7" font-family="Helvetica,sans-Serif" font-size="10.00">\SendUsageTask</text>
</a>
</g>
</g>
<!-- Node2&#45;&gt;Node4 -->
<g id="edge3" class="edge"><title>Node2&#45;&gt;Node4</title>
<path fill="none" stroke="midnightblue" d="M238.315,-28.583C248.84,-27.0238 259.609,-25.4282 269.897,-23.9042"/>
<polygon fill="midnightblue" stroke="midnightblue" points="237.702,-25.1355 228.323,-30.0633 238.728,-32.0599 237.702,-25.1355"/>
</g>
</g>
</svg>
