<?xml version="1.0" encoding="UTF-8" standalone="no"?>
<!DOCTYPE svg PUBLIC "-//W3C//DTD SVG 1.1//EN"
 "http://www.w3.org/Graphics/SVG/1.1/DTD/svg11.dtd">
<!-- Generated by graphviz version 2.26.3 (20100126.1600)
 -->
<!-- Title: Graphical Class Hierarchy Pages: 1 -->
<svg width="604pt" height="94pt"
 viewBox="0.00 0.00 604.00 94.00" xmlns="http://www.w3.org/2000/svg" xmlns:xlink="http://www.w3.org/1999/xlink">
<g id="graph1" class="graph" transform="scale(1 1) rotate(0) translate(4 90)">
<title>Graphical Class Hierarchy</title>
<polygon fill="white" stroke="white" points="-4,5 -4,-90 601,-90 601,5 -4,5"/>
<!-- Node1 -->
<g id="node1" class="node"><title>Node1</title>
<a xlink:href="d6/d3d/interfacepocketmine_1_1level_1_1format_1_1_full_chunk.html" target="_top" xlink:title="pocketmine\\level\\format\l\\FullChunk">
<polygon fill="white" stroke="black" points="0.5,-26 0.5,-60 121.5,-60 121.5,-26 0.5,-26"/>
<text text-anchor="start" x="8.5" y="-47" font-family="Helvetica,sans-Serif" font-size="10.00">pocketmine\level\format</text>
<text text-anchor="middle" x="61" y="-34" font-family="Helvetica,sans-Serif" font-size="10.00">\FullChunk</text>
</a>
</g>
<!-- Node2 -->
<g id="node3" class="node"><title>Node2</title>
<a xlink:href="d9/d48/interfacepocketmine_1_1level_1_1format_1_1_chunk.html" target="_top" xlink:title="pocketmine\\level\\format\l\\Chunk">
<polygon fill="white" stroke="black" points="158.5,-52 158.5,-86 279.5,-86 279.5,-52 158.5,-52"/>
<text text-anchor="start" x="166.5" y="-73" font-family="Helvetica,sans-Serif" font-size="10.00">pocketmine\level\format</text>
<text text-anchor="middle" x="219" y="-60" font-family="Helvetica,sans-Serif" font-size="10.00">\Chunk</text>
</a>
</g>
<!-- Node1&#45;&gt;Node2 -->
<g id="edge2" class="edge"><title>Node1&#45;&gt;Node2</title>
<path fill="none" stroke="midnightblue" d="M131.597,-54.6172C140.495,-56.0815 149.538,-57.5696 158.266,-59.0058"/>
<polygon fill="midnightblue" stroke="midnightblue" points="132.071,-51.1482 121.635,-52.9779 130.934,-58.0553 132.071,-51.1482"/>
</g>
<!-- Node5 -->
<g id="node9" class="node"><title>Node5</title>
<a xlink:href="da/d9a/classpocketmine_1_1level_1_1format_1_1generic_1_1_base_full_chunk.html" target="_top" xlink:title="pocketmine\\level\\format\l\\generic\\BaseFullChunk">
<polygon fill="white" stroke="black" points="158.5,-0 158.5,-34 279.5,-34 279.5,-0 158.5,-0"/>
<text text-anchor="start" x="166.5" y="-21" font-family="Helvetica,sans-Serif" font-size="10.00">pocketmine\level\format</text>
<text text-anchor="middle" x="219" y="-8" font-family="Helvetica,sans-Serif" font-size="10.00">\generic\BaseFullChunk</text>
</a>
</g>
<!-- Node1&#45;&gt;Node5 -->
<g id="edge8" class="edge"><title>Node1&#45;&gt;Node5</title>
<path fill="none" stroke="midnightblue" d="M131.597,-31.3828C140.495,-29.9185 149.538,-28.4304 158.266,-26.9942"/>
<polygon fill="midnightblue" stroke="midnightblue" points="130.934,-27.9447 121.635,-33.0221 132.071,-34.8518 130.934,-27.9447"/>
</g>
<!-- Node3 -->
<g id="node5" class="node"><title>Node3</title>
<a xlink:href="dc/de8/classpocketmine_1_1level_1_1format_1_1generic_1_1_base_chunk.html" target="_top" xlink:title="pocketmine\\level\\format\l\\generic\\BaseChunk">
<polygon fill="white" stroke="black" points="316.5,-52 316.5,-86 437.5,-86 437.5,-52 316.5,-52"/>
<text text-anchor="start" x="324.5" y="-73" font-family="Helvetica,sans-Serif" font-size="10.00">pocketmine\level\format</text>
<text text-anchor="middle" x="377" y="-60" font-family="Helvetica,sans-Serif" font-size="10.00">\generic\BaseChunk</text>
</a>
</g>
<!-- Node2&#45;&gt;Node3 -->
<g id="edge4" class="edge"><title>Node2&#45;&gt;Node3</title>
<path fill="none" stroke="midnightblue" d="M289.884,-69C298.69,-69 307.632,-69 316.266,-69"/>
<polygon fill="midnightblue" stroke="midnightblue" points="289.635,-65.5001 279.635,-69 289.635,-72.5001 289.635,-65.5001"/>
</g>
<!-- Node4 -->
<g id="node7" class="node"><title>Node4</title>
<a xlink:href="de/d02/classpocketmine_1_1level_1_1format_1_1anvil_1_1_chunk.html" target="_top" xlink:title="pocketmine\\level\\format\l\\anvil\\Chunk">
<polygon fill="white" stroke="black" points="474.5,-52 474.5,-86 595.5,-86 595.5,-52 474.5,-52"/>
<text text-anchor="start" x="482.5" y="-73" font-family="Helvetica,sans-Serif" font-size="10.00">pocketmine\level\format</text>
<text text-anchor="middle" x="535" y="-60" font-family="Helvetica,sans-Serif" font-size="10.00">\anvil\Chunk</text>
</a>
</g>
<!-- Node3&#45;&gt;Node4 -->
<g id="edge6" class="edge"><title>Node3&#45;&gt;Node4</title>
<path fill="none" stroke="midnightblue" d="M447.884,-69C456.69,-69 465.632,-69 474.266,-69"/>
<polygon fill="midnightblue" stroke="midnightblue" points="447.635,-65.5001 437.635,-69 447.635,-72.5001 447.635,-65.5001"/>
</g>
<!-- Node5&#45;&gt;Node3 -->
<g id="edge10" class="edge"><title>Node5&#45;&gt;Node3</title>
<path fill="none" stroke="midnightblue" d="M280.32,-37.1812C295.132,-42.0562 310.819,-47.2189 325.149,-51.935"/>
<polygon fill="midnightblue" stroke="midnightblue" points="281.328,-33.8284 270.735,-34.0267 279.14,-40.4776 281.328,-33.8284"/>
</g>
<!-- Node6 -->
<g id="node12" class="node"><title>Node6</title>
<a xlink:href="dd/dcf/classpocketmine_1_1level_1_1format_1_1mcregion_1_1_chunk.html" target="_top" xlink:title="pocketmine\\level\\format\l\\mcregion\\Chunk">
<polygon fill="white" stroke="black" points="316.5,-0 316.5,-34 437.5,-34 437.5,-0 316.5,-0"/>
<text text-anchor="start" x="324.5" y="-21" font-family="Helvetica,sans-Serif" font-size="10.00">pocketmine\level\format</text>
<text text-anchor="middle" x="377" y="-8" font-family="Helvetica,sans-Serif" font-size="10.00">\mcregion\Chunk</text>
</a>
</g>
<!-- Node5&#45;&gt;Node6 -->
<g id="edge12" class="edge"><title>Node5&#45;&gt;Node6</title>
<path fill="none" stroke="midnightblue" d="M289.884,-17C298.69,-17 307.632,-17 316.266,-17"/>
<polygon fill="midnightblue" stroke="midnightblue" points="289.635,-13.5001 279.635,-17 289.635,-20.5001 289.635,-13.5001"/>
</g>
</g>
</svg>
