<?xml version="1.0" encoding="UTF-8" standalone="no"?>
<!DOCTYPE svg PUBLIC "-//W3C//DTD SVG 1.1//EN"
 "http://www.w3.org/Graphics/SVG/1.1/DTD/svg11.dtd">
<!-- Generated by graphviz version 2.26.3 (20100126.1600)
 -->
<!-- Title: G Pages: 1 -->
<svg width="478pt" height="110pt"
 viewBox="0.00 0.00 478.00 110.00" xmlns="http://www.w3.org/2000/svg" xmlns:xlink="http://www.w3.org/1999/xlink">
<g id="graph1" class="graph" transform="scale(1 1) rotate(0) translate(4 106)">
<title>G</title>
<polygon fill="white" stroke="white" points="-4,5 -4,-106 475,-106 475,5 -4,5"/>
<!-- Node1 -->
<g id="node1" class="node"><title>Node1</title>
<a xlink:href="d1/da6/interfacepocketmine_1_1level_1_1format_1_1_chunk_section.html" target="_top" xlink:title="pocketmine\\level\\format\\ChunkSection">
<polygon fill="white" stroke="black" points="0.5,-40.5 0.5,-61.5 185.5,-61.5 185.5,-40.5 0.5,-40.5"/>
<text text-anchor="middle" x="93" y="-48.5" font-family="Helvetica,sans-Serif" font-size="10.00">pocketmine\level\format\ChunkSection</text>
</a>
</g>
<!-- Node2 -->
<g id="node3" class="node"><title>Node2</title>
<a xlink:href="d3/db6/classpocketmine_1_1level_1_1format_1_1anvil_1_1_chunk_section.html" target="_top" xlink:title="pocketmine\\level\\format\\anvil\\ChunkSection">
<polygon fill="white" stroke="black" points="241.5,-80.5 241.5,-101.5 450.5,-101.5 450.5,-80.5 241.5,-80.5"/>
<text text-anchor="middle" x="346" y="-88.5" font-family="Helvetica,sans-Serif" font-size="10.00">pocketmine\level\format\anvil\ChunkSection</text>
</a>
</g>
<!-- Node1&#45;&gt;Node2 -->
<g id="edge2" class="edge"><title>Node1&#45;&gt;Node2</title>
<path fill="none" stroke="midnightblue" d="M169.66,-63.1201C204.703,-68.6606 245.82,-75.1613 279.532,-80.4913"/>
<polygon fill="midnightblue" stroke="midnightblue" points="169.897,-59.6142 159.473,-61.5095 168.803,-66.5283 169.897,-59.6142"/>
</g>
<!-- Node3 -->
<g id="node5" class="node"><title>Node3</title>
<a xlink:href="d8/df0/classpocketmine_1_1level_1_1format_1_1generic_1_1_empty_chunk_section.html" target="_top" xlink:title="pocketmine\\level\\format\\generic\\EmptyChunkSection">
<polygon fill="white" stroke="black" points="222,-40.5 222,-61.5 470,-61.5 470,-40.5 222,-40.5"/>
<text text-anchor="middle" x="346" y="-48.5" font-family="Helvetica,sans-Serif" font-size="10.00">pocketmine\level\format\generic\EmptyChunkSection</text>
</a>
</g>
<!-- Node1&#45;&gt;Node3 -->
<g id="edge4" class="edge"><title>Node1&#45;&gt;Node3</title>
<path fill="none" stroke="midnightblue" d="M196.015,-51C204.482,-51 213.093,-51 221.692,-51"/>
<polygon fill="midnightblue" stroke="midnightblue" points="195.771,-47.5001 185.771,-51 195.771,-54.5001 195.771,-47.5001"/>
</g>
<!-- Node4 -->
<g id="node7" class="node"><title>Node4</title>
<a xlink:href="dc/de4/classpocketmine_1_1level_1_1format_1_1pmf_1_1_chunk_section.html" target="_top" xlink:title="pocketmine\\level\\format\\pmf\\ChunkSection">
<polygon fill="white" stroke="black" points="243.5,-0.5 243.5,-21.5 448.5,-21.5 448.5,-0.5 243.5,-0.5"/>
<text text-anchor="middle" x="346" y="-8.5" font-family="Helvetica,sans-Serif" font-size="10.00">pocketmine\level\format\pmf\ChunkSection</text>
</a>
</g>
<!-- Node1&#45;&gt;Node4 -->
<g id="edge6" class="edge"><title>Node1&#45;&gt;Node4</title>
<path fill="none" stroke="midnightblue" d="M169.66,-38.8799C204.703,-33.3394 245.82,-26.8387 279.532,-21.5087"/>
<polygon fill="midnightblue" stroke="midnightblue" points="168.803,-35.4717 159.473,-40.4905 169.897,-42.3858 168.803,-35.4717"/>
</g>
</g>
</svg>
