<?xml version="1.0" encoding="UTF-8" standalone="no"?>
<!DOCTYPE svg PUBLIC "-//W3C//DTD SVG 1.1//EN"
 "http://www.w3.org/Graphics/SVG/1.1/DTD/svg11.dtd">
<!-- Generated by graphviz version 2.26.3 (20100126.1600)
 -->
<!-- Title: Graphical Class Hierarchy Pages: 1 -->
<svg width="316pt" height="42pt"
 viewBox="0.00 0.00 316.00 42.00" xmlns="http://www.w3.org/2000/svg" xmlns:xlink="http://www.w3.org/1999/xlink">
<g id="graph1" class="graph" transform="scale(1 1) rotate(0) translate(4 38)">
<title>Graphical Class Hierarchy</title>
<polygon fill="white" stroke="white" points="-4,5 -4,-38 313,-38 313,5 -4,5"/>
<!-- Node1 -->
<g id="node1" class="node"><title>Node1</title>
<a xlink:href="d5/d36/interfacepocketmine_1_1plugin_1_1_plugin_loader.html" target="_top" xlink:title="pocketmine\\plugin\\Plugin\lLoader">
<polygon fill="white" stroke="black" points="0.5,-0 0.5,-34 125.5,-34 125.5,-0 0.5,-0"/>
<text text-anchor="start" x="8.5" y="-21" font-family="Helvetica,sans-Serif" font-size="10.00">pocketmine\plugin\Plugin</text>
<text text-anchor="middle" x="63" y="-8" font-family="Helvetica,sans-Serif" font-size="10.00">Loader</text>
</a>
</g>
<!-- Node2 -->
<g id="node3" class="node"><title>Node2</title>
<a xlink:href="d5/dbf/classpocketmine_1_1plugin_1_1_phar_plugin_loader.html" target="_top" xlink:title="pocketmine\\plugin\\PharPlugin\lLoader">
<polygon fill="white" stroke="black" points="162,-0 162,-34 308,-34 308,-0 162,-0"/>
<text text-anchor="start" x="170" y="-21" font-family="Helvetica,sans-Serif" font-size="10.00">pocketmine\plugin\PharPlugin</text>
<text text-anchor="middle" x="235" y="-8" font-family="Helvetica,sans-Serif" font-size="10.00">Loader</text>
</a>
</g>
<!-- Node1&#45;&gt;Node2 -->
<g id="edge2" class="edge"><title>Node1&#45;&gt;Node2</title>
<path fill="none" stroke="midnightblue" d="M135.68,-17C144.374,-17 153.254,-17 161.952,-17"/>
<polygon fill="midnightblue" stroke="midnightblue" points="135.583,-13.5001 125.583,-17 135.582,-20.5001 135.583,-13.5001"/>
</g>
</g>
</svg>
