<?xml version="1.0" encoding="UTF-8" standalone="no"?>
<!DOCTYPE svg PUBLIC "-//W3C//DTD SVG 1.1//EN"
 "http://www.w3.org/Graphics/SVG/1.1/DTD/svg11.dtd">
<!-- Generated by graphviz version 2.26.3 (20100126.1600)
 -->
<!-- Title: G Pages: 1 -->
<svg width="454pt" height="99pt"
 viewBox="0.00 0.00 454.00 99.00" xmlns="http://www.w3.org/2000/svg" xmlns:xlink="http://www.w3.org/1999/xlink">
<g id="graph1" class="graph" transform="scale(1 1) rotate(0) translate(4 95)">
<title>G</title>
<polygon fill="white" stroke="white" points="-4,5 -4,-95 451,-95 451,5 -4,5"/>
<!-- Node1 -->
<g id="node1" class="node"><title>Node1</title>
<a xlink:href="de/df5/interfacepocketmine_1_1tile_1_1_container.html" target="_top" xlink:title="pocketmine\\tile\\Container">
<polygon fill="white" stroke="black" points="0,-69.5 0,-90.5 128,-90.5 128,-69.5 0,-69.5"/>
<text text-anchor="middle" x="64" y="-77.5" font-family="Helvetica,sans-Serif" font-size="10.00">pocketmine\tile\Container</text>
</a>
</g>
<!-- Node2 -->
<g id="node3" class="node"><title>Node2</title>
<a xlink:href="dd/dba/classpocketmine_1_1tile_1_1_chest.html" target="_top" xlink:title="pocketmine\\tile\\Chest">
<polygon fill="white" stroke="black" points="334,-59.5 334,-80.5 446,-80.5 446,-59.5 334,-59.5"/>
<text text-anchor="middle" x="390" y="-67.5" font-family="Helvetica,sans-Serif" font-size="10.00">pocketmine\tile\Chest</text>
</a>
</g>
<!-- Node1&#45;&gt;Node2 -->
<g id="edge2" class="edge"><title>Node1&#45;&gt;Node2</title>
<path fill="none" stroke="midnightblue" d="M138.092,-77.7272C197.508,-75.9047 279.631,-73.3855 333.743,-71.7257"/>
<polygon fill="midnightblue" stroke="midnightblue" points="137.906,-74.2312 128.018,-78.0363 138.121,-81.2279 137.906,-74.2312"/>
</g>
<!-- Node3 -->
<g id="node5" class="node"><title>Node3</title>
<a xlink:href="d7/d7c/classpocketmine_1_1tile_1_1_furnace.html" target="_top" xlink:title="pocketmine\\tile\\Furnace">
<polygon fill="white" stroke="black" points="170.5,-40.5 170.5,-61.5 291.5,-61.5 291.5,-40.5 170.5,-40.5"/>
<text text-anchor="middle" x="231" y="-48.5" font-family="Helvetica,sans-Serif" font-size="10.00">pocketmine\tile\Furnace</text>
</a>
</g>
<!-- Node1&#45;&gt;Node3 -->
<g id="edge4" class="edge"><title>Node1&#45;&gt;Node3</title>
<path fill="none" stroke="midnightblue" d="M134.621,-67.7364C146.483,-65.6767 158.699,-63.5553 170.282,-61.5438"/>
<polygon fill="midnightblue" stroke="midnightblue" points="134.017,-64.2889 124.763,-69.4483 135.215,-71.1857 134.017,-64.2889"/>
</g>
<!-- Node4 -->
<g id="node6" class="node"><title>Node4</title>
<a xlink:href="da/d5b/classpocketmine_1_1tile_1_1_tile.html" target="_top" xlink:title="pocketmine\\tile\\Tile">
<polygon fill="white" stroke="black" points="13.5,-19.5 13.5,-40.5 114.5,-40.5 114.5,-19.5 13.5,-19.5"/>
<text text-anchor="middle" x="64" y="-27.5" font-family="Helvetica,sans-Serif" font-size="10.00">pocketmine\tile\Tile</text>
</a>
</g>
<!-- Node4&#45;&gt;Node3 -->
<g id="edge6" class="edge"><title>Node4&#45;&gt;Node3</title>
<path fill="none" stroke="midnightblue" d="M124.659,-37.6278C139.528,-39.4975 155.443,-41.4989 170.313,-43.3687"/>
<polygon fill="midnightblue" stroke="midnightblue" points="124.917,-34.1328 114.559,-36.3577 124.044,-41.0781 124.917,-34.1328"/>
</g>
<!-- Node5 -->
<g id="node9" class="node"><title>Node5</title>
<a xlink:href="d7/d8c/classpocketmine_1_1tile_1_1_spawnable.html" target="_top" xlink:title="pocketmine\\tile\\Spawnable">
<polygon fill="white" stroke="black" points="164,-0.5 164,-21.5 298,-21.5 298,-0.5 164,-0.5"/>
<text text-anchor="middle" x="231" y="-8.5" font-family="Helvetica,sans-Serif" font-size="10.00">pocketmine\tile\Spawnable</text>
</a>
</g>
<!-- Node4&#45;&gt;Node5 -->
<g id="edge8" class="edge"><title>Node4&#45;&gt;Node5</title>
<path fill="none" stroke="midnightblue" d="M124.617,-23.1034C137.398,-21.6493 150.954,-20.107 163.956,-18.6277"/>
<polygon fill="midnightblue" stroke="midnightblue" points="124.099,-19.6397 114.559,-24.2478 124.89,-26.5949 124.099,-19.6397"/>
</g>
<!-- Node5&#45;&gt;Node2 -->
<g id="edge10" class="edge"><title>Node5&#45;&gt;Node2</title>
<path fill="none" stroke="midnightblue" d="M279.098,-24.6549C285.49,-26.6744 291.929,-28.8146 298,-31 321.831,-39.5783 348.404,-51.0569 366.839,-59.3376"/>
<polygon fill="midnightblue" stroke="midnightblue" points="279.739,-21.1903 269.152,-21.5917 277.679,-27.8802 279.739,-21.1903"/>
</g>
<!-- Node6 -->
<g id="node12" class="node"><title>Node6</title>
<a xlink:href="dc/de2/classpocketmine_1_1tile_1_1_sign.html" target="_top" xlink:title="pocketmine\\tile\\Sign">
<polygon fill="white" stroke="black" points="337.5,-0.5 337.5,-21.5 442.5,-21.5 442.5,-0.5 337.5,-0.5"/>
<text text-anchor="middle" x="390" y="-8.5" font-family="Helvetica,sans-Serif" font-size="10.00">pocketmine\tile\Sign</text>
</a>
</g>
<!-- Node5&#45;&gt;Node6 -->
<g id="edge12" class="edge"><title>Node5&#45;&gt;Node6</title>
<path fill="none" stroke="midnightblue" d="M308.575,-11C318.348,-11 328.159,-11 337.418,-11"/>
<polygon fill="midnightblue" stroke="midnightblue" points="308.43,-7.5001 298.43,-11 308.43,-14.5001 308.43,-7.5001"/>
</g>
</g>
</svg>
