<?xml version="1.0" encoding="UTF-8" standalone="no"?>
<!DOCTYPE svg PUBLIC "-//W3C//DTD SVG 1.1//EN"
 "http://www.w3.org/Graphics/SVG/1.1/DTD/svg11.dtd">
<!-- Generated by graphviz version 2.36.0 (20140111.2315)
 -->
<!-- Title: pocketmine\event\inventory\InventoryPickupItemEvent Pages: 1 -->
<svg width="337pt" height="344pt"
 viewBox="0.00 0.00 337.00 344.00" xmlns="http://www.w3.org/2000/svg" xmlns:xlink="http://www.w3.org/1999/xlink">
<g id="graph0" class="graph" transform="scale(1 1) rotate(0) translate(4 340)">
<title>pocketmine\event\inventory\InventoryPickupItemEvent</title>
<polygon fill="white" stroke="none" points="-4,4 -4,-340 333,-340 333,4 -4,4"/>
<!-- Node1 -->
<g id="node1" class="node"><title>Node1</title>
<polygon fill="#bfbfbf" stroke="black" points="87,-0.5 87,-101.5 237,-101.5 237,-0.5 87,-0.5"/>
<text text-anchor="start" x="95" y="-89.5" font-family="Helvetica,sans-Serif" font-size="10.00">pocketmine\event\inventory</text>
<text text-anchor="middle" x="162" y="-78.5" font-family="Helvetica,sans-Serif" font-size="10.00">\InventoryPickupItemEvent</text>
<polyline fill="none" stroke="black" points="87,-71.5 237,-71.5 "/>
<text text-anchor="start" x="95" y="-59.5" font-family="Helvetica,sans-Serif" font-size="10.00">+ $handlerList</text>
<text text-anchor="start" x="95" y="-48.5" font-family="Helvetica,sans-Serif" font-size="10.00">+ $eventPool</text>
<text text-anchor="start" x="95" y="-37.5" font-family="Helvetica,sans-Serif" font-size="10.00">+ $nextEvent</text>
<polyline fill="none" stroke="black" points="87,-30.5 237,-30.5 "/>
<text text-anchor="start" x="95" y="-18.5" font-family="Helvetica,sans-Serif" font-size="10.00">+ __construct()</text>
<text text-anchor="start" x="95" y="-7.5" font-family="Helvetica,sans-Serif" font-size="10.00">+ getItem()</text>
</g>
<!-- Node2 -->
<g id="node2" class="node"><title>Node2</title>
<g id="a_node2"><a xlink:href="../../db/dbc/classpocketmine_1_1event_1_1inventory_1_1_inventory_event.html" target="_top" xlink:title="{pocketmine\\event\\inventory\l\\InventoryEvent\n|# $inventory\l|+ __construct()\l+ getInventory()\l+ getViewers()\l}">
<polygon fill="white" stroke="black" points="0,-139 0,-229 150,-229 150,-139 0,-139"/>
<text text-anchor="start" x="8" y="-217" font-family="Helvetica,sans-Serif" font-size="10.00">pocketmine\event\inventory</text>
<text text-anchor="middle" x="75" y="-206" font-family="Helvetica,sans-Serif" font-size="10.00">\InventoryEvent</text>
<polyline fill="none" stroke="black" points="0,-199 150,-199 "/>
<text text-anchor="start" x="8" y="-187" font-family="Helvetica,sans-Serif" font-size="10.00"># $inventory</text>
<polyline fill="none" stroke="black" points="0,-180 150,-180 "/>
<text text-anchor="start" x="8" y="-168" font-family="Helvetica,sans-Serif" font-size="10.00">+ __construct()</text>
<text text-anchor="start" x="8" y="-157" font-family="Helvetica,sans-Serif" font-size="10.00">+ getInventory()</text>
<text text-anchor="start" x="8" y="-146" font-family="Helvetica,sans-Serif" font-size="10.00">+ getViewers()</text>
</a>
</g>
</g>
<!-- Node2&#45;&gt;Node1 -->
<g id="edge1" class="edge"><title>Node2&#45;&gt;Node1</title>
<path fill="none" stroke="midnightblue" d="M110.098,-130.151C116.334,-120.761 122.809,-111.011 128.985,-101.712"/>
<polygon fill="none" stroke="midnightblue" points="107.071,-128.383 104.454,-138.649 112.902,-132.255 107.071,-128.383"/>
</g>
<!-- Node3 -->
<g id="node3" class="node"><title>Node3</title>
<g id="a_node3"><a xlink:href="../../d1/d2f/classpocketmine_1_1event_1_1_event.html" target="_top" xlink:title="{pocketmine\\event\\Event\n|# $eventName\l|+ getEventName()\l+ getHandlers()\l}">
<polygon fill="white" stroke="black" points="8.5,-267 8.5,-335 141.5,-335 141.5,-267 8.5,-267"/>
<text text-anchor="middle" x="75" y="-323" font-family="Helvetica,sans-Serif" font-size="10.00">pocketmine\event\Event</text>
<polyline fill="none" stroke="black" points="8.5,-316 141.5,-316 "/>
<text text-anchor="start" x="16.5" y="-304" font-family="Helvetica,sans-Serif" font-size="10.00"># $eventName</text>
<polyline fill="none" stroke="black" points="8.5,-297 141.5,-297 "/>
<text text-anchor="start" x="16.5" y="-285" font-family="Helvetica,sans-Serif" font-size="10.00">+ getEventName()</text>
<text text-anchor="start" x="16.5" y="-274" font-family="Helvetica,sans-Serif" font-size="10.00">+ getHandlers()</text>
</a>
</g>
</g>
<!-- Node3&#45;&gt;Node2 -->
<g id="edge2" class="edge"><title>Node3&#45;&gt;Node2</title>
<path fill="none" stroke="midnightblue" d="M75,-256.555C75,-247.646 75,-238.257 75,-229.318"/>
<polygon fill="none" stroke="midnightblue" points="71.5001,-256.737 75,-266.737 78.5001,-256.737 71.5001,-256.737"/>
</g>
<!-- Node4 -->
<g id="node4" class="node"><title>Node4</title>
<g id="a_node4"><a xlink:href="../../db/d62/interfacepocketmine_1_1event_1_1_cancellable.html" target="_top" xlink:title="{pocketmine\\event\\Cancellable\n||+ isCancelled()\l+ setCancelled()\l}">
<polygon fill="white" stroke="black" points="168.5,-150 168.5,-218 329.5,-218 329.5,-150 168.5,-150"/>
<text text-anchor="middle" x="249" y="-206" font-family="Helvetica,sans-Serif" font-size="10.00">pocketmine\event\Cancellable</text>
<polyline fill="none" stroke="black" points="168.5,-199 329.5,-199 "/>
<text text-anchor="middle" x="249" y="-187" font-family="Helvetica,sans-Serif" font-size="10.00"> </text>
<polyline fill="none" stroke="black" points="168.5,-180 329.5,-180 "/>
<text text-anchor="start" x="176.5" y="-168" font-family="Helvetica,sans-Serif" font-size="10.00">+ isCancelled()</text>
<text text-anchor="start" x="176.5" y="-157" font-family="Helvetica,sans-Serif" font-size="10.00">+ setCancelled()</text>
</a>
</g>
</g>
<!-- Node4&#45;&gt;Node1 -->
<g id="edge3" class="edge"><title>Node4&#45;&gt;Node1</title>
<path fill="none" stroke="midnightblue" d="M221.398,-141.438C213,-128.794 203.687,-114.769 194.972,-101.648"/>
<polygon fill="none" stroke="midnightblue" points="218.598,-143.549 227.046,-149.943 224.429,-139.677 218.598,-143.549"/>
</g>
</g>
</svg>
