<?xml version="1.0" encoding="UTF-8" standalone="no"?>
<!DOCTYPE svg PUBLIC "-//W3C//DTD SVG 1.1//EN"
 "http://www.w3.org/Graphics/SVG/1.1/DTD/svg11.dtd">
<!-- Generated by graphviz version 2.36.0 (20140111.2315)
 -->
<!-- Title: pocketmine\network\protocol\InteractPacket Pages: 1 -->
<svg width="138pt" height="530pt"
 viewBox="0.00 0.00 138.00 530.00" xmlns="http://www.w3.org/2000/svg" xmlns:xlink="http://www.w3.org/1999/xlink">
<g id="graph0" class="graph" transform="scale(1 1) rotate(0) translate(4 526)">
<title>pocketmine\network\protocol\InteractPacket</title>
<polygon fill="white" stroke="none" points="-4,4 -4,-526 134,-526 134,4 -4,4"/>
<!-- Node1 -->
<g id="node1" class="node"><title>Node1</title>
<polygon fill="#bfbfbf" stroke="black" points="0,-1 0,-135 130,-135 130,-1 0,-1"/>
<text text-anchor="start" x="8" y="-123" font-family="Helvetica,sans-Serif" font-size="10.00">pocketmine\network</text>
<text text-anchor="middle" x="65" y="-112" font-family="Helvetica,sans-Serif" font-size="10.00">\protocol\InteractPacket</text>
<polyline fill="none" stroke="black" points="0,-105 130,-105 "/>
<text text-anchor="start" x="8" y="-93" font-family="Helvetica,sans-Serif" font-size="10.00">+ $action</text>
<text text-anchor="start" x="8" y="-82" font-family="Helvetica,sans-Serif" font-size="10.00">+ $eid</text>
<text text-anchor="start" x="8" y="-71" font-family="Helvetica,sans-Serif" font-size="10.00">+ $target</text>
<text text-anchor="start" x="8" y="-60" font-family="Helvetica,sans-Serif" font-size="10.00">+ $pool</text>
<text text-anchor="start" x="8" y="-49" font-family="Helvetica,sans-Serif" font-size="10.00">+ $next</text>
<polyline fill="none" stroke="black" points="0,-42 130,-42 "/>
<text text-anchor="start" x="8" y="-30" font-family="Helvetica,sans-Serif" font-size="10.00">+ pid()</text>
<text text-anchor="start" x="8" y="-19" font-family="Helvetica,sans-Serif" font-size="10.00">+ decode()</text>
<text text-anchor="start" x="8" y="-8" font-family="Helvetica,sans-Serif" font-size="10.00">+ encode()</text>
</g>
<!-- Node2 -->
<g id="node2" class="node"><title>Node2</title>
<g id="a_node2"><a xlink:href="../../d0/d90/classpocketmine_1_1network_1_1protocol_1_1_data_packet.html" target="_top" xlink:title="{pocketmine\\network\l\\protocol\\DataPacket\n|+ $buffer\l+ $isEncoded\l|+ pid()\l+ encode()\l+ decode()\l+ setBuffer()\l+ getBuffer()\l+ clean()\l# reset()\l# get()\l# put()\l# getLong()\l# putLong()\l# getInt()\l# putInt()\l# getShort()\l# putShort()\l# getFloat()\land 14 more...\l}">
<polygon fill="white" stroke="black" points="7,-172.5 7,-427.5 123,-427.5 123,-172.5 7,-172.5"/>
<text text-anchor="start" x="15" y="-415.5" font-family="Helvetica,sans-Serif" font-size="10.00">pocketmine\network</text>
<text text-anchor="middle" x="65" y="-404.5" font-family="Helvetica,sans-Serif" font-size="10.00">\protocol\DataPacket</text>
<polyline fill="none" stroke="black" points="7,-397.5 123,-397.5 "/>
<text text-anchor="start" x="15" y="-385.5" font-family="Helvetica,sans-Serif" font-size="10.00">+ $buffer</text>
<text text-anchor="start" x="15" y="-374.5" font-family="Helvetica,sans-Serif" font-size="10.00">+ $isEncoded</text>
<polyline fill="none" stroke="black" points="7,-367.5 123,-367.5 "/>
<text text-anchor="start" x="15" y="-355.5" font-family="Helvetica,sans-Serif" font-size="10.00">+ pid()</text>
<text text-anchor="start" x="15" y="-344.5" font-family="Helvetica,sans-Serif" font-size="10.00">+ encode()</text>
<text text-anchor="start" x="15" y="-333.5" font-family="Helvetica,sans-Serif" font-size="10.00">+ decode()</text>
<text text-anchor="start" x="15" y="-322.5" font-family="Helvetica,sans-Serif" font-size="10.00">+ setBuffer()</text>
<text text-anchor="start" x="15" y="-311.5" font-family="Helvetica,sans-Serif" font-size="10.00">+ getBuffer()</text>
<text text-anchor="start" x="15" y="-300.5" font-family="Helvetica,sans-Serif" font-size="10.00">+ clean()</text>
<text text-anchor="start" x="15" y="-289.5" font-family="Helvetica,sans-Serif" font-size="10.00"># reset()</text>
<text text-anchor="start" x="15" y="-278.5" font-family="Helvetica,sans-Serif" font-size="10.00"># get()</text>
<text text-anchor="start" x="15" y="-267.5" font-family="Helvetica,sans-Serif" font-size="10.00"># put()</text>
<text text-anchor="start" x="15" y="-256.5" font-family="Helvetica,sans-Serif" font-size="10.00"># getLong()</text>
<text text-anchor="start" x="15" y="-245.5" font-family="Helvetica,sans-Serif" font-size="10.00"># putLong()</text>
<text text-anchor="start" x="15" y="-234.5" font-family="Helvetica,sans-Serif" font-size="10.00"># getInt()</text>
<text text-anchor="start" x="15" y="-223.5" font-family="Helvetica,sans-Serif" font-size="10.00"># putInt()</text>
<text text-anchor="start" x="15" y="-212.5" font-family="Helvetica,sans-Serif" font-size="10.00"># getShort()</text>
<text text-anchor="start" x="15" y="-201.5" font-family="Helvetica,sans-Serif" font-size="10.00"># putShort()</text>
<text text-anchor="start" x="15" y="-190.5" font-family="Helvetica,sans-Serif" font-size="10.00"># getFloat()</text>
<text text-anchor="start" x="15" y="-179.5" font-family="Helvetica,sans-Serif" font-size="10.00">and 14 more...</text>
</a>
</g>
</g>
<!-- Node2&#45;&gt;Node1 -->
<g id="edge1" class="edge"><title>Node2&#45;&gt;Node1</title>
<path fill="none" stroke="midnightblue" d="M65,-162.073C65,-152.776 65,-143.679 65,-135.035"/>
<polygon fill="none" stroke="midnightblue" points="61.5001,-162.226 65,-172.226 68.5001,-162.226 61.5001,-162.226"/>
</g>
<!-- Node3 -->
<g id="node3" class="node"><title>Node3</title>
<polygon fill="white" stroke="#bfbfbf" points="36.5,-464.5 36.5,-521.5 93.5,-521.5 93.5,-464.5 36.5,-464.5"/>
<text text-anchor="middle" x="65" y="-509.5" font-family="Helvetica,sans-Serif" font-size="10.00">stdClass</text>
<polyline fill="none" stroke="#bfbfbf" points="36.5,-502.5 93.5,-502.5 "/>
<text text-anchor="middle" x="65" y="-490.5" font-family="Helvetica,sans-Serif" font-size="10.00"> </text>
<polyline fill="none" stroke="#bfbfbf" points="36.5,-483.5 93.5,-483.5 "/>
<text text-anchor="middle" x="65" y="-471.5" font-family="Helvetica,sans-Serif" font-size="10.00"> </text>
</g>
<!-- Node3&#45;&gt;Node2 -->
<g id="edge2" class="edge"><title>Node3&#45;&gt;Node2</title>
<path fill="none" stroke="midnightblue" d="M65,-454.196C65,-446.157 65,-437.246 65,-427.881"/>
<polygon fill="none" stroke="midnightblue" points="61.5001,-454.227 65,-464.227 68.5001,-454.227 61.5001,-454.227"/>
</g>
</g>
</svg>
