<?xml version="1.0" encoding="UTF-8" standalone="no"?>
<!DOCTYPE svg PUBLIC "-//W3C//DTD SVG 1.1//EN"
 "http://www.w3.org/Graphics/SVG/1.1/DTD/svg11.dtd">
<!-- Generated by graphviz version 2.36.0 (20140111.2315)
 -->
<!-- Title: pocketmine\tile\Chest\getSlotIndex Pages: 1 -->
<svg width="288pt" height="87pt"
 viewBox="0.00 0.00 288.00 87.00" xmlns="http://www.w3.org/2000/svg" xmlns:xlink="http://www.w3.org/1999/xlink">
<g id="graph0" class="graph" transform="scale(1 1) rotate(0) translate(4 83)">
<title>pocketmine\tile\Chest\getSlotIndex</title>
<polygon fill="white" stroke="none" points="-4,4 -4,-83 284,-83 284,4 -4,4"/>
<!-- Node1 -->
<g id="node1" class="node"><title>Node1</title>
<polygon fill="#bfbfbf" stroke="black" points="0.5,-24 0.5,-54 121.5,-54 121.5,-24 0.5,-24"/>
<text text-anchor="start" x="8.5" y="-42" font-family="Helvetica,sans-Serif" font-size="10.00">pocketmine\tile\Chest</text>
<text text-anchor="middle" x="61" y="-31" font-family="Helvetica,sans-Serif" font-size="10.00">\getSlotIndex</text>
</g>
<!-- Node2 -->
<g id="node2" class="node"><title>Node2</title>
<g id="a_node2"><a xlink:href="../../dd/dba/classpocketmine_1_1tile_1_1_chest.html#ad176b83284ea99332e95b2d08acaff13" target="_top" xlink:title="pocketmine\\tile\\Chest\l\\getItem">
<polygon fill="white" stroke="black" points="158.5,-49 158.5,-79 279.5,-79 279.5,-49 158.5,-49"/>
<text text-anchor="start" x="166.5" y="-67" font-family="Helvetica,sans-Serif" font-size="10.00">pocketmine\tile\Chest</text>
<text text-anchor="middle" x="219" y="-56" font-family="Helvetica,sans-Serif" font-size="10.00">\getItem</text>
</a>
</g>
</g>
<!-- Node1&#45;&gt;Node2 -->
<g id="edge1" class="edge"><title>Node1&#45;&gt;Node2</title>
<path fill="none" stroke="midnightblue" d="M131.775,-50.1819C140.625,-51.6002 149.619,-53.0415 158.293,-54.4315"/>
<polygon fill="midnightblue" stroke="midnightblue" points="132.295,-46.7207 121.868,-48.5942 131.188,-53.6325 132.295,-46.7207"/>
</g>
<!-- Node3 -->
<g id="node3" class="node"><title>Node3</title>
<g id="a_node3"><a xlink:href="../../dd/dba/classpocketmine_1_1tile_1_1_chest.html#a0498518064195ef981b846d96d2f683b" target="_top" xlink:title="pocketmine\\tile\\Chest\l\\setItem">
<polygon fill="white" stroke="black" points="158.5,-0 158.5,-30 279.5,-30 279.5,-0 158.5,-0"/>
<text text-anchor="start" x="166.5" y="-18" font-family="Helvetica,sans-Serif" font-size="10.00">pocketmine\tile\Chest</text>
<text text-anchor="middle" x="219" y="-7" font-family="Helvetica,sans-Serif" font-size="10.00">\setItem</text>
</a>
</g>
</g>
<!-- Node1&#45;&gt;Node3 -->
<g id="edge2" class="edge"><title>Node1&#45;&gt;Node3</title>
<path fill="none" stroke="midnightblue" d="M131.775,-28.2654C140.625,-26.9038 149.619,-25.5202 158.293,-24.1857"/>
<polygon fill="midnightblue" stroke="midnightblue" points="131.219,-24.8097 121.868,-29.7896 132.283,-31.7283 131.219,-24.8097"/>
</g>
</g>
</svg>
