<?xml version="1.0" encoding="UTF-8" standalone="no"?>
<!DOCTYPE svg PUBLIC "-//W3C//DTD SVG 1.1//EN"
 "http://www.w3.org/Graphics/SVG/1.1/DTD/svg11.dtd">
<!-- Generated by graphviz version 2.36.0 (20140111.2315)
 -->
<!-- Title: pocketmine\tile\Chest\getItem Pages: 1 -->
<svg width="288pt" height="38pt"
 viewBox="0.00 0.00 288.00 38.00" xmlns="http://www.w3.org/2000/svg" xmlns:xlink="http://www.w3.org/1999/xlink">
<g id="graph0" class="graph" transform="scale(1 1) rotate(0) translate(4 34)">
<title>pocketmine\tile\Chest\getItem</title>
<polygon fill="white" stroke="none" points="-4,4 -4,-34 284,-34 284,4 -4,4"/>
<!-- Node1 -->
<g id="node1" class="node"><title>Node1</title>
<polygon fill="#bfbfbf" stroke="black" points="0.5,-0 0.5,-30 121.5,-30 121.5,-0 0.5,-0"/>
<text text-anchor="start" x="8.5" y="-18" font-family="Helvetica,sans-Serif" font-size="10.00">pocketmine\tile\Chest</text>
<text text-anchor="middle" x="61" y="-7" font-family="Helvetica,sans-Serif" font-size="10.00">\getItem</text>
</g>
<!-- Node2 -->
<g id="node2" class="node"><title>Node2</title>
<g id="a_node2"><a xlink:href="../../dd/dba/classpocketmine_1_1tile_1_1_chest.html#a1567078b7c43db9ec1abfad3f7ce73bc" target="_top" xlink:title="pocketmine\\tile\\Chest\l\\getSlotIndex">
<polygon fill="white" stroke="black" points="158.5,-0 158.5,-30 279.5,-30 279.5,-0 158.5,-0"/>
<text text-anchor="start" x="166.5" y="-18" font-family="Helvetica,sans-Serif" font-size="10.00">pocketmine\tile\Chest</text>
<text text-anchor="middle" x="219" y="-7" font-family="Helvetica,sans-Serif" font-size="10.00">\getSlotIndex</text>
</a>
</g>
</g>
<!-- Node1&#45;&gt;Node2 -->
<g id="edge1" class="edge"><title>Node1&#45;&gt;Node2</title>
<path fill="none" stroke="midnightblue" d="M121.868,-15C130.452,-15 139.346,-15 148.103,-15"/>
<polygon fill="midnightblue" stroke="midnightblue" points="148.293,-18.5001 158.293,-15 148.293,-11.5001 148.293,-18.5001"/>
</g>
</g>
</svg>
