<?xml version="1.0" encoding="UTF-8" standalone="no"?>
<!DOCTYPE svg PUBLIC "-//W3C//DTD SVG 1.1//EN"
 "http://www.w3.org/Graphics/SVG/1.1/DTD/svg11.dtd">
<!-- Generated by graphviz version 2.26.3 (20100126.1600)
 -->
<!-- Title: pocketmine\block\Dandelion Pages: 1 -->
<!--zoomable 1416 -->
<svg id="main" version="1.1" xmlns="http://www.w3.org/2000/svg" xmlns:xlink="http://www.w3.org/1999/xlink" xml:space="preserve" onload="init(evt)">
<style type="text/css"><![CDATA[
.edge:hover path { stroke: red; }
.edge:hover polygon { stroke: red; fill: red; }
]]></style>
<script type="text/javascript"><![CDATA[
var edges = document.getElementsByTagName('g');
if (edges && edges.length) {
  for (var i=0;i<edges.length;i++) {
    if (edges[i].id.substr(0,4)=='edge') {
      edges[i].setAttribute('class','edge');
    }
  }
}
]]></script>
        <defs>
                <circle id="rim" cx="0" cy="0" r="7"/>
                <circle id="rim2" cx="0" cy="0" r="3.5"/>
                <g id="zoomPlus">
                        <use xlink:href="#rim" fill="#404040">
                                <set attributeName="fill" to="#808080" begin="zoomplus.mouseover" end="zoomplus.mouseout"/>
                        </use>
                        <path d="M-4,0h8M0,-4v8" fill="none" stroke="white" stroke-width="1.5" pointer-events="none"/>
                </g>
                <g id="zoomMin">
                        <use xlink:href="#rim" fill="#404040">
                                <set attributeName="fill" to="#808080" begin="zoomminus.mouseover" end="zoomminus.mouseout"/>
                        </use>
                        <path d="M-4,0h8" fill="none" stroke="white" stroke-width="1.5" pointer-events="none"/>
                </g>
                <g id="dirArrow">
                        <path fill="none" stroke="white" stroke-width="1.5" d="M0,-3.0v7 M-2.5,-0.5L0,-3.0L2.5,-0.5"/>
                </g>
               <g id="resetDef">
                       <use xlink:href="#rim2" fill="#404040">
                               <set attributeName="fill" to="#808080" begin="reset.mouseover" end="reset.mouseout"/>
                       </use>
               </g>
        </defs>

<script type="text/javascript">
var viewWidth = 264;
var viewHeight = 1416;
var sectionId = 'dynsection-1';
</script>
<script xlink:href="../../svgpan.js"/>
<svg id="graph" class="graph">
<g id="viewport">
<title>pocketmine\block\Dandelion</title>
<polygon fill="white" stroke="white" points="-4,5 -4,-1412 261,-1412 261,5 -4,5"/>
<!-- Node1 -->
<g id="node1" class="node"><title>Node1</title>
<polygon fill="#bfbfbf" stroke="black" points="62,-0.5 62,-89.5 202,-89.5 202,-0.5 62,-0.5"/>
<text text-anchor="middle" x="132" y="-76.5" font-family="Helvetica,sans-Serif" font-size="10.00">pocketmine\block\Dandelion</text>
<polyline fill="none" stroke="black" points="62,-68.5 202,-68.5 "/>
<text text-anchor="middle" x="132" y="-55.5" font-family="Helvetica,sans-Serif" font-size="10.00"> </text>
<polyline fill="none" stroke="black" points="62,-47.5 202,-47.5 "/>
<text text-anchor="start" x="70" y="-34.5" font-family="Helvetica,sans-Serif" font-size="10.00">+ __construct()</text>
<text text-anchor="start" x="70" y="-21.5" font-family="Helvetica,sans-Serif" font-size="10.00">+ place()</text>
<text text-anchor="start" x="70" y="-8.5" font-family="Helvetica,sans-Serif" font-size="10.00">+ onUpdate()</text>
</g>
<!-- Node2 -->
<g id="node2" class="node"><title>Node2</title>
<a xlink:href="../../d3/d1e/classpocketmine_1_1block_1_1_flowable.html" target="_top" xlink:title="{pocketmine\\block\\Flowable\n||+ __construct()\l}">
<polygon fill="white" stroke="black" points="64.5,-126.5 64.5,-189.5 199.5,-189.5 199.5,-126.5 64.5,-126.5"/>
<text text-anchor="middle" x="132" y="-176.5" font-family="Helvetica,sans-Serif" font-size="10.00">pocketmine\block\Flowable</text>
<polyline fill="none" stroke="black" points="64.5,-168.5 199.5,-168.5 "/>
<text text-anchor="middle" x="132" y="-155.5" font-family="Helvetica,sans-Serif" font-size="10.00"> </text>
<polyline fill="none" stroke="black" points="64.5,-147.5 199.5,-147.5 "/>
<text text-anchor="start" x="72.5" y="-134.5" font-family="Helvetica,sans-Serif" font-size="10.00">+ __construct()</text>
</a>
</g>
<!-- Node2&#45;&gt;Node1 -->
<g id="edge2" class="edge"><title>Node2&#45;&gt;Node1</title>
<path fill="none" stroke="midnightblue" d="M132,-116.015C132,-107.403 132,-98.3072 132,-89.6061"/>
<polygon fill="none" stroke="midnightblue" points="128.5,-116.222 132,-126.222 135.5,-116.223 128.5,-116.222"/>
</g>
<!-- Node3 -->
<g id="node4" class="node"><title>Node3</title>
<a xlink:href="../../d5/d1b/classpocketmine_1_1block_1_1_transparent.html" target="_top" xlink:title="{pocketmine\\block\\Transparent\n||+ __construct()\l}">
<polygon fill="white" stroke="black" points="58,-226.5 58,-289.5 206,-289.5 206,-226.5 58,-226.5"/>
<text text-anchor="middle" x="132" y="-276.5" font-family="Helvetica,sans-Serif" font-size="10.00">pocketmine\block\Transparent</text>
<polyline fill="none" stroke="black" points="58,-268.5 206,-268.5 "/>
<text text-anchor="middle" x="132" y="-255.5" font-family="Helvetica,sans-Serif" font-size="10.00"> </text>
<polyline fill="none" stroke="black" points="58,-247.5 206,-247.5 "/>
<text text-anchor="start" x="66" y="-234.5" font-family="Helvetica,sans-Serif" font-size="10.00">+ __construct()</text>
</a>
</g>
<!-- Node3&#45;&gt;Node2 -->
<g id="edge4" class="edge"><title>Node3&#45;&gt;Node2</title>
<path fill="none" stroke="midnightblue" d="M132,-216.211C132,-207.37 132,-198.177 132,-189.778"/>
<polygon fill="none" stroke="midnightblue" points="128.5,-216.359 132,-226.359 135.5,-216.359 128.5,-216.359"/>
</g>
<!-- Node4 -->
<g id="node6" class="node"><title>Node4</title>
<a xlink:href="../../d0/d81/classpocketmine_1_1block_1_1_generic.html" target="_top" xlink:title="{pocketmine\\block\\Generic\n||+ __construct()\l+ place()\l+ isBreakable()\l+ onBreak()\l+ onUpdate()\l+ onActivate()\l}">
<polygon fill="white" stroke="black" points="67,-327 67,-455 197,-455 197,-327 67,-327"/>
<text text-anchor="middle" x="132" y="-442" font-family="Helvetica,sans-Serif" font-size="10.00">pocketmine\block\Generic</text>
<polyline fill="none" stroke="black" points="67,-434 197,-434 "/>
<text text-anchor="middle" x="132" y="-421" font-family="Helvetica,sans-Serif" font-size="10.00"> </text>
<polyline fill="none" stroke="black" points="67,-413 197,-413 "/>
<text text-anchor="start" x="75" y="-400" font-family="Helvetica,sans-Serif" font-size="10.00">+ __construct()</text>
<text text-anchor="start" x="75" y="-387" font-family="Helvetica,sans-Serif" font-size="10.00">+ place()</text>
<text text-anchor="start" x="75" y="-374" font-family="Helvetica,sans-Serif" font-size="10.00">+ isBreakable()</text>
<text text-anchor="start" x="75" y="-361" font-family="Helvetica,sans-Serif" font-size="10.00">+ onBreak()</text>
<text text-anchor="start" x="75" y="-348" font-family="Helvetica,sans-Serif" font-size="10.00">+ onUpdate()</text>
<text text-anchor="start" x="75" y="-335" font-family="Helvetica,sans-Serif" font-size="10.00">+ onActivate()</text>
</a>
</g>
<!-- Node4&#45;&gt;Node3 -->
<g id="edge6" class="edge"><title>Node4&#45;&gt;Node3</title>
<path fill="none" stroke="midnightblue" d="M132,-316.58C132,-307.171 132,-297.976 132,-289.764"/>
<polygon fill="none" stroke="midnightblue" points="128.5,-316.837 132,-326.837 135.5,-316.837 128.5,-316.837"/>
</g>
<!-- Node5 -->
<g id="node8" class="node"><title>Node5</title>
<a xlink:href="../../d7/d27/classpocketmine_1_1block_1_1_block.html" target="_top" xlink:title="{pocketmine\\block\\Block\n|+ AIR\l+ STONE\l+ GRASS\l+ DIRT\l+ COBBLESTONE\l+ COBBLE\l+ PLANK\l+ PLANKS\l+ WOODEN_PLANK\l+ WOODEN_PLANKS\land 169 more...\l+ $creative\l+ $list\l# $id\l# $meta\l# $name\l# $breakTime\l# $hardness\l|+ __construct()\l+ getHardness()\l+ getName()\l+ getID()\l+ getDamage()\l+ setDamage()\l+ position()\l+ getDrops()\l+ getBreakTime()\l+ getSide()\land 12 more...\l+ init()\l+ get()\l}">
<polygon fill="white" stroke="black" points="71.5,-493 71.5,-933 192.5,-933 192.5,-493 71.5,-493"/>
<text text-anchor="middle" x="132" y="-920" font-family="Helvetica,sans-Serif" font-size="10.00">pocketmine\block\Block</text>
<polyline fill="none" stroke="black" points="71.5,-912 192.5,-912 "/>
<text text-anchor="start" x="79.5" y="-899" font-family="Helvetica,sans-Serif" font-size="10.00">+ AIR</text>
<text text-anchor="start" x="79.5" y="-886" font-family="Helvetica,sans-Serif" font-size="10.00">+ STONE</text>
<text text-anchor="start" x="79.5" y="-873" font-family="Helvetica,sans-Serif" font-size="10.00">+ GRASS</text>
<text text-anchor="start" x="79.5" y="-860" font-family="Helvetica,sans-Serif" font-size="10.00">+ DIRT</text>
<text text-anchor="start" x="79.5" y="-847" font-family="Helvetica,sans-Serif" font-size="10.00">+ COBBLESTONE</text>
<text text-anchor="start" x="79.5" y="-834" font-family="Helvetica,sans-Serif" font-size="10.00">+ COBBLE</text>
<text text-anchor="start" x="79.5" y="-821" font-family="Helvetica,sans-Serif" font-size="10.00">+ PLANK</text>
<text text-anchor="start" x="79.5" y="-808" font-family="Helvetica,sans-Serif" font-size="10.00">+ PLANKS</text>
<text text-anchor="start" x="79.5" y="-795" font-family="Helvetica,sans-Serif" font-size="10.00">+ WOODEN_PLANK</text>
<text text-anchor="start" x="79.5" y="-782" font-family="Helvetica,sans-Serif" font-size="10.00">+ WOODEN_PLANKS</text>
<text text-anchor="start" x="79.5" y="-769" font-family="Helvetica,sans-Serif" font-size="10.00">and 169 more...</text>
<text text-anchor="start" x="79.5" y="-756" font-family="Helvetica,sans-Serif" font-size="10.00">+ $creative</text>
<text text-anchor="start" x="79.5" y="-743" font-family="Helvetica,sans-Serif" font-size="10.00">+ $list</text>
<text text-anchor="start" x="79.5" y="-730" font-family="Helvetica,sans-Serif" font-size="10.00"># $id</text>
<text text-anchor="start" x="79.5" y="-717" font-family="Helvetica,sans-Serif" font-size="10.00"># $meta</text>
<text text-anchor="start" x="79.5" y="-704" font-family="Helvetica,sans-Serif" font-size="10.00"># $name</text>
<text text-anchor="start" x="79.5" y="-691" font-family="Helvetica,sans-Serif" font-size="10.00"># $breakTime</text>
<text text-anchor="start" x="79.5" y="-678" font-family="Helvetica,sans-Serif" font-size="10.00"># $hardness</text>
<polyline fill="none" stroke="black" points="71.5,-670 192.5,-670 "/>
<text text-anchor="start" x="79.5" y="-657" font-family="Helvetica,sans-Serif" font-size="10.00">+ __construct()</text>
<text text-anchor="start" x="79.5" y="-644" font-family="Helvetica,sans-Serif" font-size="10.00">+ getHardness()</text>
<text text-anchor="start" x="79.5" y="-631" font-family="Helvetica,sans-Serif" font-size="10.00">+ getName()</text>
<text text-anchor="start" x="79.5" y="-618" font-family="Helvetica,sans-Serif" font-size="10.00">+ getID()</text>
<text text-anchor="start" x="79.5" y="-605" font-family="Helvetica,sans-Serif" font-size="10.00">+ getDamage()</text>
<text text-anchor="start" x="79.5" y="-592" font-family="Helvetica,sans-Serif" font-size="10.00">+ setDamage()</text>
<text text-anchor="start" x="79.5" y="-579" font-family="Helvetica,sans-Serif" font-size="10.00">+ position()</text>
<text text-anchor="start" x="79.5" y="-566" font-family="Helvetica,sans-Serif" font-size="10.00">+ getDrops()</text>
<text text-anchor="start" x="79.5" y="-553" font-family="Helvetica,sans-Serif" font-size="10.00">+ getBreakTime()</text>
<text text-anchor="start" x="79.5" y="-540" font-family="Helvetica,sans-Serif" font-size="10.00">+ getSide()</text>
<text text-anchor="start" x="79.5" y="-527" font-family="Helvetica,sans-Serif" font-size="10.00">and 12 more...</text>
<text text-anchor="start" x="79.5" y="-514" font-family="Helvetica,sans-Serif" font-size="10.00">+ init()</text>
<text text-anchor="start" x="79.5" y="-501" font-family="Helvetica,sans-Serif" font-size="10.00">+ get()</text>
</a>
</g>
<!-- Node5&#45;&gt;Node4 -->
<g id="edge8" class="edge"><title>Node5&#45;&gt;Node4</title>
<path fill="none" stroke="midnightblue" d="M132,-482.671C132,-473.007 132,-463.755 132,-455.098"/>
<polygon fill="none" stroke="midnightblue" points="128.5,-482.883 132,-492.883 135.5,-482.883 128.5,-482.883"/>
</g>
<!-- Node6 -->
<g id="node10" class="node"><title>Node6</title>
<a xlink:href="../../db/d9b/classpocketmine_1_1level_1_1_position.html" target="_top" xlink:title="{pocketmine\\level\\Position\n|+ $level\l|+ __construct()\l+ getLevel()\l+ setLevel()\l+ isValid()\l+ setStrong()\l+ setWeak()\l+ getSide()\l+ distance()\l+ __toString()\l+ fromObject()\l}">
<polygon fill="white" stroke="black" points="0,-971 0,-1151 128,-1151 128,-971 0,-971"/>
<text text-anchor="middle" x="64" y="-1138" font-family="Helvetica,sans-Serif" font-size="10.00">pocketmine\level\Position</text>
<polyline fill="none" stroke="black" points="0,-1130 128,-1130 "/>
<text text-anchor="start" x="8" y="-1117" font-family="Helvetica,sans-Serif" font-size="10.00">+ $level</text>
<polyline fill="none" stroke="black" points="0,-1109 128,-1109 "/>
<text text-anchor="start" x="8" y="-1096" font-family="Helvetica,sans-Serif" font-size="10.00">+ __construct()</text>
<text text-anchor="start" x="8" y="-1083" font-family="Helvetica,sans-Serif" font-size="10.00">+ getLevel()</text>
<text text-anchor="start" x="8" y="-1070" font-family="Helvetica,sans-Serif" font-size="10.00">+ setLevel()</text>
<text text-anchor="start" x="8" y="-1057" font-family="Helvetica,sans-Serif" font-size="10.00">+ isValid()</text>
<text text-anchor="start" x="8" y="-1044" font-family="Helvetica,sans-Serif" font-size="10.00">+ setStrong()</text>
<text text-anchor="start" x="8" y="-1031" font-family="Helvetica,sans-Serif" font-size="10.00">+ setWeak()</text>
<text text-anchor="start" x="8" y="-1018" font-family="Helvetica,sans-Serif" font-size="10.00">+ getSide()</text>
<text text-anchor="start" x="8" y="-1005" font-family="Helvetica,sans-Serif" font-size="10.00">+ distance()</text>
<text text-anchor="start" x="8" y="-992" font-family="Helvetica,sans-Serif" font-size="10.00">+ __toString()</text>
<text text-anchor="start" x="8" y="-979" font-family="Helvetica,sans-Serif" font-size="10.00">+ fromObject()</text>
</a>
</g>
<!-- Node6&#45;&gt;Node5 -->
<g id="edge10" class="edge"><title>Node6&#45;&gt;Node5</title>
<path fill="none" stroke="midnightblue" d="M83.5501,-960.949C85.3021,-951.983 87.117,-942.695 88.9704,-933.21"/>
<polygon fill="none" stroke="midnightblue" points="80.0829,-960.443 81.6001,-970.929 86.953,-961.786 80.0829,-960.443"/>
</g>
<!-- Node7 -->
<g id="node12" class="node"><title>Node7</title>
<a xlink:href="../../d2/d90/classpocketmine_1_1math_1_1_vector3.html" target="_top" xlink:title="{pocketmine\\math\\Vector3\n|+ $x\l+ $y\l+ $z\l|+ __construct()\l+ getX()\l+ getY()\l+ getZ()\l+ getFloorX()\l+ getFloorY()\l+ getFloorZ()\l+ getRight()\l+ getUp()\l+ getForward()\land 20 more...\l}">
<polygon fill="white" stroke="black" points="0,-1188.5 0,-1407.5 128,-1407.5 128,-1188.5 0,-1188.5"/>
<text text-anchor="middle" x="64" y="-1394.5" font-family="Helvetica,sans-Serif" font-size="10.00">pocketmine\math\Vector3</text>
<polyline fill="none" stroke="black" points="0,-1386.5 128,-1386.5 "/>
<text text-anchor="start" x="8" y="-1373.5" font-family="Helvetica,sans-Serif" font-size="10.00">+ $x</text>
<text text-anchor="start" x="8" y="-1360.5" font-family="Helvetica,sans-Serif" font-size="10.00">+ $y</text>
<text text-anchor="start" x="8" y="-1347.5" font-family="Helvetica,sans-Serif" font-size="10.00">+ $z</text>
<polyline fill="none" stroke="black" points="0,-1339.5 128,-1339.5 "/>
<text text-anchor="start" x="8" y="-1326.5" font-family="Helvetica,sans-Serif" font-size="10.00">+ __construct()</text>
<text text-anchor="start" x="8" y="-1313.5" font-family="Helvetica,sans-Serif" font-size="10.00">+ getX()</text>
<text text-anchor="start" x="8" y="-1300.5" font-family="Helvetica,sans-Serif" font-size="10.00">+ getY()</text>
<text text-anchor="start" x="8" y="-1287.5" font-family="Helvetica,sans-Serif" font-size="10.00">+ getZ()</text>
<text text-anchor="start" x="8" y="-1274.5" font-family="Helvetica,sans-Serif" font-size="10.00">+ getFloorX()</text>
<text text-anchor="start" x="8" y="-1261.5" font-family="Helvetica,sans-Serif" font-size="10.00">+ getFloorY()</text>
<text text-anchor="start" x="8" y="-1248.5" font-family="Helvetica,sans-Serif" font-size="10.00">+ getFloorZ()</text>
<text text-anchor="start" x="8" y="-1235.5" font-family="Helvetica,sans-Serif" font-size="10.00">+ getRight()</text>
<text text-anchor="start" x="8" y="-1222.5" font-family="Helvetica,sans-Serif" font-size="10.00">+ getUp()</text>
<text text-anchor="start" x="8" y="-1209.5" font-family="Helvetica,sans-Serif" font-size="10.00">+ getForward()</text>
<text text-anchor="start" x="8" y="-1196.5" font-family="Helvetica,sans-Serif" font-size="10.00">and 20 more...</text>
</a>
</g>
<!-- Node7&#45;&gt;Node6 -->
<g id="edge12" class="edge"><title>Node7&#45;&gt;Node6</title>
<path fill="none" stroke="midnightblue" d="M64,-1178.02C64,-1169.03 64,-1160.05 64,-1151.28"/>
<polygon fill="none" stroke="midnightblue" points="60.5001,-1178.17 64,-1188.17 67.5001,-1178.17 60.5001,-1178.17"/>
</g>
<!-- Node8 -->
<g id="node14" class="node"><title>Node8</title>
<a xlink:href="../../d8/d0b/interfacepocketmine_1_1metadata_1_1_metadatable.html" target="_top" xlink:title="{pocketmine\\metadata\l\\Metadatable\n||+ setMetadata()\l+ getMetadata()\l+ hasMetadata()\l+ removeMetadata()\l}">
<polygon fill="white" stroke="black" points="146,-1003.5 146,-1118.5 256,-1118.5 256,-1003.5 146,-1003.5"/>
<text text-anchor="start" x="154" y="-1105.5" font-family="Helvetica,sans-Serif" font-size="10.00">pocketmine\metadata</text>
<text text-anchor="middle" x="201" y="-1092.5" font-family="Helvetica,sans-Serif" font-size="10.00">\Metadatable</text>
<polyline fill="none" stroke="black" points="146,-1084.5 256,-1084.5 "/>
<text text-anchor="middle" x="201" y="-1071.5" font-family="Helvetica,sans-Serif" font-size="10.00"> </text>
<polyline fill="none" stroke="black" points="146,-1063.5 256,-1063.5 "/>
<text text-anchor="start" x="154" y="-1050.5" font-family="Helvetica,sans-Serif" font-size="10.00">+ setMetadata()</text>
<text text-anchor="start" x="154" y="-1037.5" font-family="Helvetica,sans-Serif" font-size="10.00">+ getMetadata()</text>
<text text-anchor="start" x="154" y="-1024.5" font-family="Helvetica,sans-Serif" font-size="10.00">+ hasMetadata()</text>
<text text-anchor="start" x="154" y="-1011.5" font-family="Helvetica,sans-Serif" font-size="10.00">+ removeMetadata()</text>
</a>
</g>
<!-- Node8&#45;&gt;Node5 -->
<g id="edge14" class="edge"><title>Node8&#45;&gt;Node5</title>
<path fill="none" stroke="midnightblue" d="M187.538,-993.105C183.962,-975.071 179.899,-954.577 175.635,-933.071"/>
<polygon fill="none" stroke="midnightblue" points="184.15,-994.016 189.529,-1003.14 191.017,-992.654 184.15,-994.016"/>
</g>
</g>
</svg>
        <g id="navigator" transform="translate(0 0)" fill="#404254">
                <rect fill="#f2f5e9" fill-opacity="0.5" stroke="#606060" stroke-width=".5" x="0" y="0" width="60" height="60"/>
                <use id="zoomplus" xlink:href="#zoomPlus" x="17" y="9" onmousedown="handleZoom(evt,'in')"/>
                <use id="zoomminus" xlink:href="#zoomMin" x="42" y="9" onmousedown="handleZoom(evt,'out')"/>
                <use id="reset" xlink:href="#resetDef" x="30" y="36" onmousedown="handleReset()"/>
                <g id="arrowUp" xlink:href="#dirArrow" transform="translate(30 24)" onmousedown="handlePan(0,-1)">
                  <use xlink:href="#rim" fill="#404040">
                        <set attributeName="fill" to="#808080" begin="arrowUp.mouseover" end="arrowUp.mouseout"/>
                  </use>
                  <path fill="none" stroke="white" stroke-width="1.5" d="M0,-3.0v7 M-2.5,-0.5L0,-3.0L2.5,-0.5"/>
                </g>
                <g id="arrowRight" xlink:href="#dirArrow" transform="rotate(90) translate(36 -43)" onmousedown="handlePan(1,0)">
                  <use xlink:href="#rim" fill="#404040">
                        <set attributeName="fill" to="#808080" begin="arrowRight.mouseover" end="arrowRight.mouseout"/>
                  </use>
                  <path fill="none" stroke="white" stroke-width="1.5" d="M0,-3.0v7 M-2.5,-0.5L0,-3.0L2.5,-0.5"/>
                </g>
                <g id="arrowDown" xlink:href="#dirArrow" transform="rotate(180) translate(-30 -48)" onmousedown="handlePan(0,1)">
                  <use xlink:href="#rim" fill="#404040">
                        <set attributeName="fill" to="#808080" begin="arrowDown.mouseover" end="arrowDown.mouseout"/>
                  </use>
                  <path fill="none" stroke="white" stroke-width="1.5" d="M0,-3.0v7 M-2.5,-0.5L0,-3.0L2.5,-0.5"/>
                </g>
                <g id="arrowLeft" xlink:href="#dirArrow" transform="rotate(270) translate(-36 17)" onmousedown="handlePan(-1,0)">
                  <use xlink:href="#rim" fill="#404040">
                        <set attributeName="fill" to="#808080" begin="arrowLeft.mouseover" end="arrowLeft.mouseout"/>
                  </use>
                  <path fill="none" stroke="white" stroke-width="1.5" d="M0,-3.0v7 M-2.5,-0.5L0,-3.0L2.5,-0.5"/>
                </g>
        </g>
        <svg viewBox="0 0 15 15" width="100%" height="30px" preserveAspectRatio="xMaxYMin meet">
         <g id="arrow_out" transform="scale(0.3 0.3)">
          <a xlink:href="classpocketmine_1_1block_1_1_dandelion__coll__graph_org.svg" target="_base">
           <rect id="button" ry="5" rx="5" y="6" x="6" height="38" width="38"
                fill="#f2f5e9" fill-opacity="0.5" stroke="#606060" stroke-width="1.0"/>
           <path id="arrow"
             d="M 11.500037,31.436501 C 11.940474,20.09759 22.043105,11.32322 32.158766,21.979434 L 37.068811,17.246167 C 37.068811,17.246167 37.088388,32 37.088388,32 L 22.160133,31.978069 C 22.160133,31.978069 26.997745,27.140456 26.997745,27.140456 C 18.528582,18.264221 13.291696,25.230495 11.500037,31.436501 z"
             style="fill:#404040;"/>
          </a>
         </g>
        </svg>
</svg>
