<?xml version="1.0" encoding="UTF-8" standalone="no"?>
<!DOCTYPE svg PUBLIC "-//W3C//DTD SVG 1.1//EN"
 "http://www.w3.org/Graphics/SVG/1.1/DTD/svg11.dtd">
<!-- Generated by graphviz version 2.26.3 (20100126.1600)
 -->
<!-- Title: pocketmine\nbt\tag\NamedTag Pages: 1 -->
<svg width="126pt" height="378pt"
 viewBox="0.00 0.00 126.00 378.00" xmlns="http://www.w3.org/2000/svg" xmlns:xlink="http://www.w3.org/1999/xlink">
<g id="graph1" class="graph" transform="scale(1 1) rotate(0) translate(4 374)">
<title>pocketmine\nbt\tag\NamedTag</title>
<polygon fill="white" stroke="white" points="-4,5 -4,-374 123,-374 123,5 -4,5"/>
<!-- Node1 -->
<g id="node1" class="node"><title>Node1</title>
<polygon fill="#bfbfbf" stroke="black" points="9,-1 9,-103 109,-103 109,-1 9,-1"/>
<text text-anchor="start" x="17" y="-90" font-family="Helvetica,sans-Serif" font-size="10.00">pocketmine\nbt\tag</text>
<text text-anchor="middle" x="59" y="-77" font-family="Helvetica,sans-Serif" font-size="10.00">\NamedTag</text>
<polyline fill="none" stroke="black" points="9,-69 109,-69 "/>
<text text-anchor="start" x="17" y="-56" font-family="Helvetica,sans-Serif" font-size="10.00"># $name</text>
<polyline fill="none" stroke="black" points="9,-48 109,-48 "/>
<text text-anchor="start" x="17" y="-35" font-family="Helvetica,sans-Serif" font-size="10.00">+ __construct()</text>
<text text-anchor="start" x="17" y="-22" font-family="Helvetica,sans-Serif" font-size="10.00">+ getName()</text>
<text text-anchor="start" x="17" y="-9" font-family="Helvetica,sans-Serif" font-size="10.00">+ setName()</text>
</g>
<!-- Node2 -->
<g id="node2" class="node"><title>Node2</title>
<a xlink:href="../../dc/d26/classpocketmine_1_1nbt_1_1tag_1_1_tag.html" target="_top" xlink:title="{pocketmine\\nbt\\tag\\Tag\n|# $value\l|+ getValue()\l+ getType()\l+ setValue()\l+ write()\l+ read()\l+ __toString()\l}">
<polygon fill="white" stroke="black" points="-0.5,-141 -0.5,-269 118.5,-269 118.5,-141 -0.5,-141"/>
<text text-anchor="middle" x="59" y="-256" font-family="Helvetica,sans-Serif" font-size="10.00">pocketmine\nbt\tag\Tag</text>
<polyline fill="none" stroke="black" points="-0.5,-248 118.5,-248 "/>
<text text-anchor="start" x="7.5" y="-235" font-family="Helvetica,sans-Serif" font-size="10.00"># $value</text>
<polyline fill="none" stroke="black" points="-0.5,-227 118.5,-227 "/>
<text text-anchor="start" x="7.5" y="-214" font-family="Helvetica,sans-Serif" font-size="10.00">+ getValue()</text>
<text text-anchor="start" x="7.5" y="-201" font-family="Helvetica,sans-Serif" font-size="10.00">+ getType()</text>
<text text-anchor="start" x="7.5" y="-188" font-family="Helvetica,sans-Serif" font-size="10.00">+ setValue()</text>
<text text-anchor="start" x="7.5" y="-175" font-family="Helvetica,sans-Serif" font-size="10.00">+ write()</text>
<text text-anchor="start" x="7.5" y="-162" font-family="Helvetica,sans-Serif" font-size="10.00">+ read()</text>
<text text-anchor="start" x="7.5" y="-149" font-family="Helvetica,sans-Serif" font-size="10.00">+ __toString()</text>
</a>
</g>
<!-- Node2&#45;&gt;Node1 -->
<g id="edge2" class="edge"><title>Node2&#45;&gt;Node1</title>
<path fill="none" stroke="midnightblue" d="M59,-130.305C59,-121.187 59,-112.034 59,-103.366"/>
<polygon fill="none" stroke="midnightblue" points="55.5001,-130.558 59,-140.558 62.5001,-130.558 55.5001,-130.558"/>
</g>
<!-- Node3 -->
<g id="node4" class="node"><title>Node3</title>
<polygon fill="white" stroke="#bfbfbf" points="31,-306.5 31,-369.5 87,-369.5 87,-306.5 31,-306.5"/>
<text text-anchor="middle" x="59" y="-356.5" font-family="Helvetica,sans-Serif" font-size="10.00">stdClass</text>
<polyline fill="none" stroke="#bfbfbf" points="31,-348.5 87,-348.5 "/>
<text text-anchor="middle" x="59" y="-335.5" font-family="Helvetica,sans-Serif" font-size="10.00"> </text>
<polyline fill="none" stroke="#bfbfbf" points="31,-327.5 87,-327.5 "/>
<text text-anchor="middle" x="59" y="-314.5" font-family="Helvetica,sans-Serif" font-size="10.00"> </text>
</g>
<!-- Node3&#45;&gt;Node2 -->
<g id="edge4" class="edge"><title>Node3&#45;&gt;Node2</title>
<path fill="none" stroke="midnightblue" d="M59,-296.338C59,-287.719 59,-278.45 59,-269.239"/>
<polygon fill="none" stroke="midnightblue" points="55.5001,-296.481 59,-306.481 62.5001,-296.481 55.5001,-296.481"/>
</g>
</g>
</svg>
