<?xml version="1.0" encoding="UTF-8" standalone="no"?>
<!DOCTYPE svg PUBLIC "-//W3C//DTD SVG 1.1//EN"
 "http://www.w3.org/Graphics/SVG/1.1/DTD/svg11.dtd">
<!-- Generated by graphviz version 2.36.0 (20140111.2315)
 -->
<!-- Title: pocketmine\nbt\tag\NamedTag Pages: 1 -->
<svg width="136pt" height="344pt"
 viewBox="0.00 0.00 136.00 344.00" xmlns="http://www.w3.org/2000/svg" xmlns:xlink="http://www.w3.org/1999/xlink">
<g id="graph0" class="graph" transform="scale(1 1) rotate(0) translate(4 340)">
<title>pocketmine\nbt\tag\NamedTag</title>
<polygon fill="white" stroke="none" points="-4,4 -4,-340 132,-340 132,4 -4,4"/>
<!-- Node1 -->
<g id="node1" class="node"><title>Node1</title>
<polygon fill="#bfbfbf" stroke="black" points="9,-1 9,-91 119,-91 119,-1 9,-1"/>
<text text-anchor="start" x="17" y="-79" font-family="Helvetica,sans-Serif" font-size="10.00">pocketmine\nbt\tag</text>
<text text-anchor="middle" x="64" y="-68" font-family="Helvetica,sans-Serif" font-size="10.00">\NamedTag</text>
<polyline fill="none" stroke="black" points="9,-61 119,-61 "/>
<text text-anchor="start" x="17" y="-49" font-family="Helvetica,sans-Serif" font-size="10.00"># $name</text>
<polyline fill="none" stroke="black" points="9,-42 119,-42 "/>
<text text-anchor="start" x="17" y="-30" font-family="Helvetica,sans-Serif" font-size="10.00">+ __construct()</text>
<text text-anchor="start" x="17" y="-19" font-family="Helvetica,sans-Serif" font-size="10.00">+ getName()</text>
<text text-anchor="start" x="17" y="-8" font-family="Helvetica,sans-Serif" font-size="10.00">+ setName()</text>
</g>
<!-- Node2 -->
<g id="node2" class="node"><title>Node2</title>
<g id="a_node2"><a xlink:href="../../dc/d26/classpocketmine_1_1nbt_1_1tag_1_1_tag.html" target="_top" xlink:title="{pocketmine\\nbt\\tag\\Tag\n|# $value\l|+ getValue()\l+ getType()\l+ setValue()\l+ write()\l+ read()\l+ __toString()\l}">
<polygon fill="white" stroke="black" points="-0.5,-129 -0.5,-241 128.5,-241 128.5,-129 -0.5,-129"/>
<text text-anchor="middle" x="64" y="-229" font-family="Helvetica,sans-Serif" font-size="10.00">pocketmine\nbt\tag\Tag</text>
<polyline fill="none" stroke="black" points="-0.5,-222 128.5,-222 "/>
<text text-anchor="start" x="7.5" y="-210" font-family="Helvetica,sans-Serif" font-size="10.00"># $value</text>
<polyline fill="none" stroke="black" points="-0.5,-203 128.5,-203 "/>
<text text-anchor="start" x="7.5" y="-191" font-family="Helvetica,sans-Serif" font-size="10.00">+ getValue()</text>
<text text-anchor="start" x="7.5" y="-180" font-family="Helvetica,sans-Serif" font-size="10.00">+ getType()</text>
<text text-anchor="start" x="7.5" y="-169" font-family="Helvetica,sans-Serif" font-size="10.00">+ setValue()</text>
<text text-anchor="start" x="7.5" y="-158" font-family="Helvetica,sans-Serif" font-size="10.00">+ write()</text>
<text text-anchor="start" x="7.5" y="-147" font-family="Helvetica,sans-Serif" font-size="10.00">+ read()</text>
<text text-anchor="start" x="7.5" y="-136" font-family="Helvetica,sans-Serif" font-size="10.00">+ __toString()</text>
</a>
</g>
</g>
<!-- Node2&#45;&gt;Node1 -->
<g id="edge1" class="edge"><title>Node2&#45;&gt;Node1</title>
<path fill="none" stroke="midnightblue" d="M64,-118.634C64,-109.326 64,-99.9403 64,-91.1667"/>
<polygon fill="none" stroke="midnightblue" points="60.5001,-118.672 64,-128.672 67.5001,-118.672 60.5001,-118.672"/>
</g>
<!-- Node3 -->
<g id="node3" class="node"><title>Node3</title>
<polygon fill="white" stroke="#bfbfbf" points="35.5,-278.5 35.5,-335.5 92.5,-335.5 92.5,-278.5 35.5,-278.5"/>
<text text-anchor="middle" x="64" y="-323.5" font-family="Helvetica,sans-Serif" font-size="10.00">stdClass</text>
<polyline fill="none" stroke="#bfbfbf" points="35.5,-316.5 92.5,-316.5 "/>
<text text-anchor="middle" x="64" y="-304.5" font-family="Helvetica,sans-Serif" font-size="10.00"> </text>
<polyline fill="none" stroke="#bfbfbf" points="35.5,-297.5 92.5,-297.5 "/>
<text text-anchor="middle" x="64" y="-285.5" font-family="Helvetica,sans-Serif" font-size="10.00"> </text>
</g>
<!-- Node3&#45;&gt;Node2 -->
<g id="edge2" class="edge"><title>Node3&#45;&gt;Node2</title>
<path fill="none" stroke="midnightblue" d="M64,-268.398C64,-259.802 64,-250.49 64,-241.324"/>
<polygon fill="none" stroke="midnightblue" points="60.5001,-268.47 64,-278.47 67.5001,-268.47 60.5001,-268.47"/>
</g>
</g>
</svg>
