<?xml version="1.0" encoding="UTF-8" standalone="no"?>
<!DOCTYPE svg PUBLIC "-//W3C//DTD SVG 1.1//EN"
 "http://www.w3.org/Graphics/SVG/1.1/DTD/svg11.dtd">
<!-- Generated by graphviz version 2.36.0 (20140111.2315)
 -->
<!-- Title: pocketmine\command\ConsoleCommandSender\sendMessage Pages: 1 -->
<svg width="342pt" height="48pt"
 viewBox="0.00 0.00 342.00 48.00" xmlns="http://www.w3.org/2000/svg" xmlns:xlink="http://www.w3.org/1999/xlink">
<g id="graph0" class="graph" transform="scale(1 1) rotate(0) translate(4 44)">
<title>pocketmine\command\ConsoleCommandSender\sendMessage</title>
<polygon fill="white" stroke="none" points="-4,4 -4,-44 338,-44 338,4 -4,4"/>
<!-- Node1 -->
<g id="node1" class="node"><title>Node1</title>
<polygon fill="#bfbfbf" stroke="black" points="0.5,0.5 0.5,-40.5 143.5,-40.5 143.5,0.5 0.5,0.5"/>
<text text-anchor="start" x="8.5" y="-28.5" font-family="Helvetica,sans-Serif" font-size="10.00">pocketmine\command</text>
<text text-anchor="start" x="8.5" y="-17.5" font-family="Helvetica,sans-Serif" font-size="10.00">\ConsoleCommandSender</text>
<text text-anchor="middle" x="72" y="-6.5" font-family="Helvetica,sans-Serif" font-size="10.00">\sendMessage</text>
</g>
<!-- Node2 -->
<g id="node2" class="node"><title>Node2</title>
<g id="a_node2"><a xlink:href="../../d9/d27/classpocketmine_1_1utils_1_1_main_logger.html#a0d73a23fd08dff6e329725b9ea14e8a9" target="_top" xlink:title="pocketmine\\utils\\MainLogger\l\\getLogger">
<polygon fill="white" stroke="black" points="180,-5 180,-35 334,-35 334,-5 180,-5"/>
<text text-anchor="start" x="188" y="-23" font-family="Helvetica,sans-Serif" font-size="10.00">pocketmine\utils\MainLogger</text>
<text text-anchor="middle" x="257" y="-12" font-family="Helvetica,sans-Serif" font-size="10.00">\getLogger</text>
</a>
</g>
</g>
<!-- Node1&#45;&gt;Node2 -->
<g id="edge1" class="edge"><title>Node1&#45;&gt;Node2</title>
<path fill="none" stroke="midnightblue" d="M143.753,-20C152.283,-20 161.067,-20 169.787,-20"/>
<polygon fill="midnightblue" stroke="midnightblue" points="169.975,-23.5001 179.975,-20 169.975,-16.5001 169.975,-23.5001"/>
</g>
</g>
</svg>
