<?xml version="1.0" encoding="UTF-8" standalone="no"?>
<!DOCTYPE svg PUBLIC "-//W3C//DTD SVG 1.1//EN"
 "http://www.w3.org/Graphics/SVG/1.1/DTD/svg11.dtd">
<!-- Generated by graphviz version 2.26.3 (20100126.1600)
 -->
<!-- Title: pocketmine\command\ConsoleCommandSender\sendMessage Pages: 1 -->
<svg width="318pt" height="56pt"
 viewBox="0.00 0.00 318.00 56.00" xmlns="http://www.w3.org/2000/svg" xmlns:xlink="http://www.w3.org/1999/xlink">
<g id="graph1" class="graph" transform="scale(1 1) rotate(0) translate(4 52)">
<title>pocketmine\command\ConsoleCommandSender\sendMessage</title>
<polygon fill="white" stroke="white" points="-4,5 -4,-52 315,-52 315,5 -4,5"/>
<!-- Node1 -->
<g id="node1" class="node"><title>Node1</title>
<polygon fill="#bfbfbf" stroke="black" points="0.5,-0.5 0.5,-47.5 131.5,-47.5 131.5,-0.5 0.5,-0.5"/>
<text text-anchor="start" x="8.5" y="-34.5" font-family="Helvetica,sans-Serif" font-size="10.00">pocketmine\command</text>
<text text-anchor="start" x="8.5" y="-21.5" font-family="Helvetica,sans-Serif" font-size="10.00">\ConsoleCommandSender</text>
<text text-anchor="middle" x="66" y="-8.5" font-family="Helvetica,sans-Serif" font-size="10.00">\sendMessage</text>
</g>
<!-- Node2 -->
<g id="node3" class="node"><title>Node2</title>
<a xlink:href="../../d9/d27/classpocketmine_1_1utils_1_1_main_logger.html#a0d73a23fd08dff6e329725b9ea14e8a9" target="_top" xlink:title="pocketmine\\utils\\MainLogger\l\\getLogger">
<polygon fill="white" stroke="black" points="168.5,-7 168.5,-41 309.5,-41 309.5,-7 168.5,-7"/>
<text text-anchor="start" x="176.5" y="-28" font-family="Helvetica,sans-Serif" font-size="10.00">pocketmine\utils\MainLogger</text>
<text text-anchor="middle" x="239" y="-15" font-family="Helvetica,sans-Serif" font-size="10.00">\getLogger</text>
</a>
</g>
<!-- Node1&#45;&gt;Node2 -->
<g id="edge2" class="edge"><title>Node1&#45;&gt;Node2</title>
<path fill="none" stroke="midnightblue" d="M131.897,-24C140.476,-24 149.342,-24 158.131,-24"/>
<polygon fill="midnightblue" stroke="midnightblue" points="158.39,-27.5001 168.39,-24 158.39,-20.5001 158.39,-27.5001"/>
</g>
</g>
</svg>
