<?xml version="1.0" encoding="UTF-8" standalone="no"?>
<!DOCTYPE svg PUBLIC "-//W3C//DTD SVG 1.1//EN"
 "http://www.w3.org/Graphics/SVG/1.1/DTD/svg11.dtd">
<!-- Generated by graphviz version 2.26.3 (20100126.1600)
 -->
<!-- Title: AttachableThreadedLogger\removeAttachment Pages: 1 -->
<svg width="316pt" height="94pt"
 viewBox="0.00 0.00 316.00 94.00" xmlns="http://www.w3.org/2000/svg" xmlns:xlink="http://www.w3.org/1999/xlink">
<g id="graph1" class="graph" transform="scale(1 1) rotate(0) translate(4 90)">
<title>AttachableThreadedLogger\removeAttachment</title>
<polygon fill="white" stroke="white" points="-4,5 -4,-90 313,-90 313,5 -4,5"/>
<!-- Node1 -->
<g id="node1" class="node"><title>Node1</title>
<polygon fill="#bfbfbf" stroke="black" points="0.5,-26 0.5,-60 133.5,-60 133.5,-26 0.5,-26"/>
<text text-anchor="start" x="8.5" y="-47" font-family="Helvetica,sans-Serif" font-size="10.00">AttachableThreadedLogger</text>
<text text-anchor="middle" x="67" y="-34" font-family="Helvetica,sans-Serif" font-size="10.00">\removeAttachment</text>
</g>
<!-- Node2 -->
<g id="node3" class="node"><title>Node2</title>
<a xlink:href="../../d3/db3/class_attachable_threaded_logger.html#aa1708104839ddb7d124cc63e0903f734" target="_top" xlink:title="AttachableThreadedLogger\l\\addAttachment">
<polygon fill="white" stroke="black" points="172.5,-52 172.5,-86 305.5,-86 305.5,-52 172.5,-52"/>
<text text-anchor="start" x="180.5" y="-73" font-family="Helvetica,sans-Serif" font-size="10.00">AttachableThreadedLogger</text>
<text text-anchor="middle" x="239" y="-60" font-family="Helvetica,sans-Serif" font-size="10.00">\addAttachment</text>
</a>
</g>
<!-- Node1&#45;&gt;Node2 -->
<g id="edge2" class="edge"><title>Node1&#45;&gt;Node2</title>
<path fill="none" stroke="midnightblue" d="M133.992,-53.1267C143.274,-54.5299 152.868,-55.98 162.309,-57.4072"/>
<polygon fill="midnightblue" stroke="midnightblue" points="162.063,-60.9096 172.473,-58.9437 163.109,-53.9882 162.063,-60.9096"/>
</g>
<!-- Node3 -->
<g id="node5" class="node"><title>Node3</title>
<a xlink:href="../../d2/d6c/class_threaded_logger_attachment.html#aad59352d1678b055c5b45727175a6bec" target="_top" xlink:title="ThreadedLoggerAttachment\l\\getAttachments">
<polygon fill="white" stroke="black" points="170.5,-0 170.5,-34 307.5,-34 307.5,-0 170.5,-0"/>
<text text-anchor="start" x="178.5" y="-21" font-family="Helvetica,sans-Serif" font-size="10.00">ThreadedLoggerAttachment</text>
<text text-anchor="middle" x="239" y="-8" font-family="Helvetica,sans-Serif" font-size="10.00">\getAttachments</text>
</a>
</g>
<!-- Node1&#45;&gt;Node3 -->
<g id="edge4" class="edge"><title>Node1&#45;&gt;Node3</title>
<path fill="none" stroke="midnightblue" d="M133.992,-32.8733C142.696,-31.5576 151.673,-30.2006 160.542,-28.8599"/>
<polygon fill="midnightblue" stroke="midnightblue" points="161.126,-32.3116 170.49,-27.3561 160.079,-25.3902 161.126,-32.3116"/>
</g>
</g>
</svg>
