<?xml version="1.0" encoding="UTF-8" standalone="no"?>
<!DOCTYPE svg PUBLIC "-//W3C//DTD SVG 1.1//EN"
 "http://www.w3.org/Graphics/SVG/1.1/DTD/svg11.dtd">
<!-- Generated by graphviz version 2.26.3 (20100126.1600)
 -->
<!-- Title: G Pages: 1 -->
<!--zoomable 768 -->
<svg id="main" version="1.1" xmlns="http://www.w3.org/2000/svg" xmlns:xlink="http://www.w3.org/1999/xlink" xml:space="preserve" onload="init(evt)">
        <defs>
                <circle id="rim" cx="0" cy="0" r="7"/>
                <circle id="rim2" cx="0" cy="0" r="3.5"/>
                <g id="zoomPlus">
                        <use xlink:href="#rim" fill="#404040">
                                <set attributeName="fill" to="#808080" begin="zoomplus.mouseover" end="zoomplus.mouseout"/>
                        </use>
                        <path d="M-4,0h8M0,-4v8" fill="none" stroke="white" stroke-width="1.5" pointer-events="none"/>
                </g>
                <g id="zoomMin">
                        <use xlink:href="#rim" fill="#404040">
                                <set attributeName="fill" to="#808080" begin="zoomminus.mouseover" end="zoomminus.mouseout"/>
                        </use>
                        <path d="M-4,0h8" fill="none" stroke="white" stroke-width="1.5" pointer-events="none"/>
                </g>
                <g id="dirArrow">
                        <path fill="none" stroke="white" stroke-width="1.5" d="M0,-3.0v7 M-2.5,-0.5L0,-3.0L2.5,-0.5"/>
                </g>
               <g id="resetDef">
                       <use xlink:href="#rim2" fill="#404040">
                               <set attributeName="fill" to="#808080" begin="reset.mouseover" end="reset.mouseout"/>
                       </use>
               </g>
        </defs>

<script type="text/javascript">
var viewWidth = 4464;
var viewHeight = 768;
var sectionId = 'dynsection-0';
</script>
<script xlink:href="../../svgpan.js"/>
<svg id="graph" class="graph">
<g id="viewport">
<title>G</title>
<polygon fill="white" stroke="white" points="-4,5 -4,-764 4461,-764 4461,5 -4,5"/>
<!-- Node1 -->
<g id="node1" class="node"><title>Node1</title>
<polygon fill="#bfbfbf" stroke="black" points="2150,-115 2150,-295 2260,-295 2260,-115 2150,-115"/>
<text text-anchor="middle" x="2205" y="-282" font-family="Helvetica,sans-Serif" font-size="10.00">pocketmine\item\Tool</text>
<polyline fill="none" stroke="black" points="2150,-274 2260,-274 "/>
<text text-anchor="middle" x="2205" y="-261" font-family="Helvetica,sans-Serif" font-size="10.00"> </text>
<polyline fill="none" stroke="black" points="2150,-253 2260,-253 "/>
<text text-anchor="start" x="2158" y="-240" font-family="Helvetica,sans-Serif" font-size="10.00">+ __construct()</text>
<text text-anchor="start" x="2158" y="-227" font-family="Helvetica,sans-Serif" font-size="10.00">+ useOn()</text>
<text text-anchor="start" x="2158" y="-214" font-family="Helvetica,sans-Serif" font-size="10.00">+ getMaxDurability()</text>
<text text-anchor="start" x="2158" y="-201" font-family="Helvetica,sans-Serif" font-size="10.00">+ isPickaxe()</text>
<text text-anchor="start" x="2158" y="-188" font-family="Helvetica,sans-Serif" font-size="10.00">+ isAxe()</text>
<text text-anchor="start" x="2158" y="-175" font-family="Helvetica,sans-Serif" font-size="10.00">+ isSword()</text>
<text text-anchor="start" x="2158" y="-162" font-family="Helvetica,sans-Serif" font-size="10.00">+ isShovel()</text>
<text text-anchor="start" x="2158" y="-149" font-family="Helvetica,sans-Serif" font-size="10.00">+ isHoe()</text>
<text text-anchor="start" x="2158" y="-136" font-family="Helvetica,sans-Serif" font-size="10.00">+ isShears()</text>
<text text-anchor="start" x="2158" y="-123" font-family="Helvetica,sans-Serif" font-size="10.00">+ isTool()</text>
</g>
<!-- Node3 -->
<g id="node5" class="node"><title>Node3</title>
<a xlink:href="../../d5/dbc/classpocketmine_1_1item_1_1_bow.html" target="_top" xlink:title="{pocketmine\\item\\Bow\n||+ __construct()\l}">
<polygon fill="white" stroke="black" points="-0.5,-7.5 -0.5,-70.5 110.5,-70.5 110.5,-7.5 -0.5,-7.5"/>
<text text-anchor="middle" x="55" y="-57.5" font-family="Helvetica,sans-Serif" font-size="10.00">pocketmine\item\Bow</text>
<polyline fill="none" stroke="black" points="-0.5,-49.5 110.5,-49.5 "/>
<text text-anchor="middle" x="55" y="-36.5" font-family="Helvetica,sans-Serif" font-size="10.00"> </text>
<polyline fill="none" stroke="black" points="-0.5,-28.5 110.5,-28.5 "/>
<text text-anchor="start" x="7.5" y="-15.5" font-family="Helvetica,sans-Serif" font-size="10.00">+ __construct()</text>
</a>
</g>
<!-- Node1&#45;&gt;Node3 -->
<g id="edge4" class="edge"><title>Node1&#45;&gt;Node3</title>
<path fill="none" stroke="midnightblue" d="M2139.56,-202.894C1807.37,-191.952 315.702,-139.72 119,-78 112.917,-76.0912 106.818,-73.4844 100.931,-70.5165"/>
<polygon fill="none" stroke="midnightblue" points="2139.86,-206.406 2149.97,-203.236 2140.09,-199.409 2139.86,-206.406"/>
</g>
<!-- Node4 -->
<g id="node7" class="node"><title>Node4</title>
<a xlink:href="../../d3/dcb/classpocketmine_1_1item_1_1_diamond_axe.html" target="_top" xlink:title="{pocketmine\\item\\DiamondAxe\n||+ __construct()\l}">
<polygon fill="white" stroke="black" points="128,-7.5 128,-70.5 276,-70.5 276,-7.5 128,-7.5"/>
<text text-anchor="middle" x="202" y="-57.5" font-family="Helvetica,sans-Serif" font-size="10.00">pocketmine\item\DiamondAxe</text>
<polyline fill="none" stroke="black" points="128,-49.5 276,-49.5 "/>
<text text-anchor="middle" x="202" y="-36.5" font-family="Helvetica,sans-Serif" font-size="10.00"> </text>
<polyline fill="none" stroke="black" points="128,-28.5 276,-28.5 "/>
<text text-anchor="start" x="136" y="-15.5" font-family="Helvetica,sans-Serif" font-size="10.00">+ __construct()</text>
</a>
</g>
<!-- Node1&#45;&gt;Node4 -->
<g id="edge6" class="edge"><title>Node1&#45;&gt;Node4</title>
<path fill="none" stroke="midnightblue" d="M2139.85,-203.934C1846.56,-198.639 647.421,-171.567 285,-78 277.6,-76.0896 270.058,-73.5246 262.686,-70.6175"/>
<polygon fill="none" stroke="midnightblue" points="2139.83,-207.434 2149.89,-204.113 2139.96,-200.435 2139.83,-207.434"/>
</g>
<!-- Node5 -->
<g id="node9" class="node"><title>Node5</title>
<a xlink:href="../../d7/dbd/classpocketmine_1_1item_1_1_diamond_hoe.html" target="_top" xlink:title="{pocketmine\\item\\DiamondHoe\n||+ __construct()\l}">
<polygon fill="white" stroke="black" points="293.5,-7.5 293.5,-70.5 442.5,-70.5 442.5,-7.5 293.5,-7.5"/>
<text text-anchor="middle" x="368" y="-57.5" font-family="Helvetica,sans-Serif" font-size="10.00">pocketmine\item\DiamondHoe</text>
<polyline fill="none" stroke="black" points="293.5,-49.5 442.5,-49.5 "/>
<text text-anchor="middle" x="368" y="-36.5" font-family="Helvetica,sans-Serif" font-size="10.00"> </text>
<polyline fill="none" stroke="black" points="293.5,-28.5 442.5,-28.5 "/>
<text text-anchor="start" x="301.5" y="-15.5" font-family="Helvetica,sans-Serif" font-size="10.00">+ __construct()</text>
</a>
</g>
<!-- Node1&#45;&gt;Node5 -->
<g id="edge8" class="edge"><title>Node1&#45;&gt;Node5</title>
<path fill="none" stroke="midnightblue" d="M2139.69,-203.461C1862.12,-196.43 779.629,-163.936 451,-78 443.606,-76.0666 436.067,-73.4871 428.698,-70.5718"/>
<polygon fill="none" stroke="midnightblue" points="2139.91,-206.967 2149.99,-203.719 2140.08,-199.969 2139.91,-206.967"/>
</g>
<!-- Node6 -->
<g id="node11" class="node"><title>Node6</title>
<a xlink:href="../../df/d0f/classpocketmine_1_1item_1_1_diamond_pickaxe.html" target="_top" xlink:title="{pocketmine\\item\\DiamondPickaxe\n||+ __construct()\l}">
<polygon fill="white" stroke="black" points="460,-7.5 460,-70.5 626,-70.5 626,-7.5 460,-7.5"/>
<text text-anchor="middle" x="543" y="-57.5" font-family="Helvetica,sans-Serif" font-size="10.00">pocketmine\item\DiamondPickaxe</text>
<polyline fill="none" stroke="black" points="460,-49.5 626,-49.5 "/>
<text text-anchor="middle" x="543" y="-36.5" font-family="Helvetica,sans-Serif" font-size="10.00"> </text>
<polyline fill="none" stroke="black" points="460,-28.5 626,-28.5 "/>
<text text-anchor="start" x="468" y="-15.5" font-family="Helvetica,sans-Serif" font-size="10.00">+ __construct()</text>
</a>
</g>
<!-- Node1&#45;&gt;Node6 -->
<g id="edge10" class="edge"><title>Node1&#45;&gt;Node6</title>
<path fill="none" stroke="midnightblue" d="M2139.5,-202.491C1880.48,-192.142 927.714,-149.891 635,-78 626.997,-76.0346 618.797,-73.4558 610.748,-70.559"/>
<polygon fill="none" stroke="midnightblue" points="2139.73,-206.003 2149.86,-202.903 2140.01,-199.009 2139.73,-206.003"/>
</g>
<!-- Node7 -->
<g id="node13" class="node"><title>Node7</title>
<a xlink:href="../../d3/da2/classpocketmine_1_1item_1_1_diamond_shovel.html" target="_top" xlink:title="{pocketmine\\item\\DiamondShovel\n||+ __construct()\l}">
<polygon fill="white" stroke="black" points="643.5,-7.5 643.5,-70.5 804.5,-70.5 804.5,-7.5 643.5,-7.5"/>
<text text-anchor="middle" x="724" y="-57.5" font-family="Helvetica,sans-Serif" font-size="10.00">pocketmine\item\DiamondShovel</text>
<polyline fill="none" stroke="black" points="643.5,-49.5 804.5,-49.5 "/>
<text text-anchor="middle" x="724" y="-36.5" font-family="Helvetica,sans-Serif" font-size="10.00"> </text>
<polyline fill="none" stroke="black" points="643.5,-28.5 804.5,-28.5 "/>
<text text-anchor="start" x="651.5" y="-15.5" font-family="Helvetica,sans-Serif" font-size="10.00">+ __construct()</text>
</a>
</g>
<!-- Node1&#45;&gt;Node7 -->
<g id="edge12" class="edge"><title>Node1&#45;&gt;Node7</title>
<path fill="none" stroke="midnightblue" d="M2139.46,-201.817C1899.47,-189.73 1069.31,-143.991 813,-78 805.322,-76.0231 797.463,-73.4575 789.748,-70.5861"/>
<polygon fill="none" stroke="midnightblue" points="2139.61,-205.329 2149.77,-202.334 2139.96,-198.338 2139.61,-205.329"/>
</g>
<!-- Node8 -->
<g id="node15" class="node"><title>Node8</title>
<a xlink:href="../../d8/dcd/classpocketmine_1_1item_1_1_diamond_sword.html" target="_top" xlink:title="{pocketmine\\item\\DiamondSword\n||+ __construct()\l}">
<polygon fill="white" stroke="black" points="822,-7.5 822,-70.5 980,-70.5 980,-7.5 822,-7.5"/>
<text text-anchor="middle" x="901" y="-57.5" font-family="Helvetica,sans-Serif" font-size="10.00">pocketmine\item\DiamondSword</text>
<polyline fill="none" stroke="black" points="822,-49.5 980,-49.5 "/>
<text text-anchor="middle" x="901" y="-36.5" font-family="Helvetica,sans-Serif" font-size="10.00"> </text>
<polyline fill="none" stroke="black" points="822,-28.5 980,-28.5 "/>
<text text-anchor="start" x="830" y="-15.5" font-family="Helvetica,sans-Serif" font-size="10.00">+ __construct()</text>
</a>
</g>
<!-- Node1&#45;&gt;Node8 -->
<g id="edge14" class="edge"><title>Node1&#45;&gt;Node8</title>
<path fill="none" stroke="midnightblue" d="M2139.78,-200.886C1920.31,-186.621 1209.94,-136.921 989,-78 981.573,-76.0192 973.973,-73.4911 966.503,-70.6762"/>
<polygon fill="none" stroke="midnightblue" points="2139.65,-204.385 2149.86,-201.538 2140.11,-197.4 2139.65,-204.385"/>
</g>
<!-- Node9 -->
<g id="node17" class="node"><title>Node9</title>
<a xlink:href="../../d5/db8/classpocketmine_1_1item_1_1_flint_steel.html" target="_top" xlink:title="{pocketmine\\item\\FlintSteel\n||+ __construct()\l+ onActivate()\l}">
<polygon fill="white" stroke="black" points="997.5,-1 997.5,-77 1130.5,-77 1130.5,-1 997.5,-1"/>
<text text-anchor="middle" x="1064" y="-64" font-family="Helvetica,sans-Serif" font-size="10.00">pocketmine\item\FlintSteel</text>
<polyline fill="none" stroke="black" points="997.5,-56 1130.5,-56 "/>
<text text-anchor="middle" x="1064" y="-43" font-family="Helvetica,sans-Serif" font-size="10.00"> </text>
<polyline fill="none" stroke="black" points="997.5,-35 1130.5,-35 "/>
<text text-anchor="start" x="1005.5" y="-22" font-family="Helvetica,sans-Serif" font-size="10.00">+ __construct()</text>
<text text-anchor="start" x="1005.5" y="-9" font-family="Helvetica,sans-Serif" font-size="10.00">+ onActivate()</text>
</a>
</g>
<!-- Node1&#45;&gt;Node9 -->
<g id="edge16" class="edge"><title>Node1&#45;&gt;Node9</title>
<path fill="none" stroke="midnightblue" d="M2139.67,-200.31C1938.13,-185.359 1328.29,-136.356 1139,-78 1136.2,-77.1353 1133.37,-76.1676 1130.55,-75.1184"/>
<polygon fill="none" stroke="midnightblue" points="2139.58,-203.813 2149.81,-201.059 2140.09,-196.832 2139.58,-203.813"/>
</g>
<!-- Node10 -->
<g id="node19" class="node"><title>Node10</title>
<a xlink:href="../../da/d8f/classpocketmine_1_1item_1_1_gold_axe.html" target="_top" xlink:title="{pocketmine\\item\\GoldAxe\n||+ __construct()\l}">
<polygon fill="white" stroke="black" points="1147.5,-7.5 1147.5,-70.5 1276.5,-70.5 1276.5,-7.5 1147.5,-7.5"/>
<text text-anchor="middle" x="1212" y="-57.5" font-family="Helvetica,sans-Serif" font-size="10.00">pocketmine\item\GoldAxe</text>
<polyline fill="none" stroke="black" points="1147.5,-49.5 1276.5,-49.5 "/>
<text text-anchor="middle" x="1212" y="-36.5" font-family="Helvetica,sans-Serif" font-size="10.00"> </text>
<polyline fill="none" stroke="black" points="1147.5,-28.5 1276.5,-28.5 "/>
<text text-anchor="start" x="1155.5" y="-15.5" font-family="Helvetica,sans-Serif" font-size="10.00">+ __construct()</text>
</a>
</g>
<!-- Node1&#45;&gt;Node10 -->
<g id="edge18" class="edge"><title>Node1&#45;&gt;Node10</title>
<path fill="none" stroke="midnightblue" d="M2140.01,-199.033C1957.88,-181.837 1445.39,-130.072 1285,-78 1278.71,-75.959 1272.33,-73.3922 1266.08,-70.5546"/>
<polygon fill="none" stroke="midnightblue" points="2139.69,-202.519 2149.98,-199.971 2140.35,-195.55 2139.69,-202.519"/>
</g>
<!-- Node11 -->
<g id="node21" class="node"><title>Node11</title>
<a xlink:href="../../d3/d69/classpocketmine_1_1item_1_1_gold_hoe.html" target="_top" xlink:title="{pocketmine\\item\\GoldHoe\n||+ __construct()\l}">
<polygon fill="white" stroke="black" points="1294,-7.5 1294,-70.5 1424,-70.5 1424,-7.5 1294,-7.5"/>
<text text-anchor="middle" x="1359" y="-57.5" font-family="Helvetica,sans-Serif" font-size="10.00">pocketmine\item\GoldHoe</text>
<polyline fill="none" stroke="black" points="1294,-49.5 1424,-49.5 "/>
<text text-anchor="middle" x="1359" y="-36.5" font-family="Helvetica,sans-Serif" font-size="10.00"> </text>
<polyline fill="none" stroke="black" points="1294,-28.5 1424,-28.5 "/>
<text text-anchor="start" x="1302" y="-15.5" font-family="Helvetica,sans-Serif" font-size="10.00">+ __construct()</text>
</a>
</g>
<!-- Node1&#45;&gt;Node11 -->
<g id="edge20" class="edge"><title>Node1&#45;&gt;Node11</title>
<path fill="none" stroke="midnightblue" d="M2139.54,-201.33C2004.29,-192.221 1685.55,-162.827 1433,-78 1426.81,-75.9193 1420.5,-73.365 1414.32,-70.5679"/>
<polygon fill="none" stroke="midnightblue" points="2139.52,-204.836 2149.73,-202.001 2139.98,-197.851 2139.52,-204.836"/>
</g>
<!-- Node12 -->
<g id="node23" class="node"><title>Node12</title>
<a xlink:href="../../db/deb/classpocketmine_1_1item_1_1_gold_pickaxe.html" target="_top" xlink:title="{pocketmine\\item\\GoldPickaxe\n||+ __construct()\l}">
<polygon fill="white" stroke="black" points="1441.5,-7.5 1441.5,-70.5 1588.5,-70.5 1588.5,-7.5 1441.5,-7.5"/>
<text text-anchor="middle" x="1515" y="-57.5" font-family="Helvetica,sans-Serif" font-size="10.00">pocketmine\item\GoldPickaxe</text>
<polyline fill="none" stroke="black" points="1441.5,-49.5 1588.5,-49.5 "/>
<text text-anchor="middle" x="1515" y="-36.5" font-family="Helvetica,sans-Serif" font-size="10.00"> </text>
<polyline fill="none" stroke="black" points="1441.5,-28.5 1588.5,-28.5 "/>
<text text-anchor="start" x="1449.5" y="-15.5" font-family="Helvetica,sans-Serif" font-size="10.00">+ __construct()</text>
</a>
</g>
<!-- Node1&#45;&gt;Node12 -->
<g id="edge22" class="edge"><title>Node1&#45;&gt;Node12</title>
<path fill="none" stroke="midnightblue" d="M2139.55,-196.549C2026.67,-180.827 1789,-142.68 1597,-78 1590.58,-75.836 1584,-73.2986 1577.5,-70.5743"/>
<polygon fill="none" stroke="midnightblue" points="2139.37,-200.056 2149.75,-197.955 2140.33,-193.122 2139.37,-200.056"/>
</g>
<!-- Node13 -->
<g id="node25" class="node"><title>Node13</title>
<a xlink:href="../../db/d16/classpocketmine_1_1item_1_1_gold_shovel.html" target="_top" xlink:title="{pocketmine\\item\\GoldShovel\n||+ __construct()\l}">
<polygon fill="white" stroke="black" points="1606,-7.5 1606,-70.5 1748,-70.5 1748,-7.5 1606,-7.5"/>
<text text-anchor="middle" x="1677" y="-57.5" font-family="Helvetica,sans-Serif" font-size="10.00">pocketmine\item\GoldShovel</text>
<polyline fill="none" stroke="black" points="1606,-49.5 1748,-49.5 "/>
<text text-anchor="middle" x="1677" y="-36.5" font-family="Helvetica,sans-Serif" font-size="10.00"> </text>
<polyline fill="none" stroke="black" points="1606,-28.5 1748,-28.5 "/>
<text text-anchor="start" x="1614" y="-15.5" font-family="Helvetica,sans-Serif" font-size="10.00">+ __construct()</text>
</a>
</g>
<!-- Node1&#45;&gt;Node13 -->
<g id="edge24" class="edge"><title>Node1&#45;&gt;Node13</title>
<path fill="none" stroke="midnightblue" d="M2139.99,-190.409C2051.76,-169.748 1889.89,-128.768 1757,-78 1751.08,-75.7392 1745.01,-73.2022 1738.98,-70.5355"/>
<polygon fill="none" stroke="midnightblue" points="2139.32,-193.847 2149.85,-192.707 2140.91,-187.03 2139.32,-193.847"/>
</g>
<!-- Node14 -->
<g id="node27" class="node"><title>Node14</title>
<a xlink:href="../../d4/db7/classpocketmine_1_1item_1_1_gold_sword.html" target="_top" xlink:title="{pocketmine\\item\\GoldSword\n||+ __construct()\l}">
<polygon fill="white" stroke="black" points="1766,-7.5 1766,-70.5 1906,-70.5 1906,-7.5 1766,-7.5"/>
<text text-anchor="middle" x="1836" y="-57.5" font-family="Helvetica,sans-Serif" font-size="10.00">pocketmine\item\GoldSword</text>
<polyline fill="none" stroke="black" points="1766,-49.5 1906,-49.5 "/>
<text text-anchor="middle" x="1836" y="-36.5" font-family="Helvetica,sans-Serif" font-size="10.00"> </text>
<polyline fill="none" stroke="black" points="1766,-28.5 1906,-28.5 "/>
<text text-anchor="start" x="1774" y="-15.5" font-family="Helvetica,sans-Serif" font-size="10.00">+ __construct()</text>
</a>
</g>
<!-- Node1&#45;&gt;Node14 -->
<g id="edge26" class="edge"><title>Node1&#45;&gt;Node14</title>
<path fill="none" stroke="midnightblue" d="M2140.68,-177.832C2081.66,-152.668 1991.98,-113.834 1915,-78 1909.87,-75.6116 1904.57,-73.099 1899.26,-70.5479"/>
<polygon fill="none" stroke="midnightblue" points="2139.31,-181.053 2149.88,-181.75 2142.05,-174.612 2139.31,-181.053"/>
</g>
<!-- Node15 -->
<g id="node29" class="node"><title>Node15</title>
<a xlink:href="../../d0/da0/classpocketmine_1_1item_1_1_iron_axe.html" target="_top" xlink:title="{pocketmine\\item\\IronAxe\n||+ __construct()\l}">
<polygon fill="white" stroke="black" points="1923.5,-7.5 1923.5,-70.5 2048.5,-70.5 2048.5,-7.5 1923.5,-7.5"/>
<text text-anchor="middle" x="1986" y="-57.5" font-family="Helvetica,sans-Serif" font-size="10.00">pocketmine\item\IronAxe</text>
<polyline fill="none" stroke="black" points="1923.5,-49.5 2048.5,-49.5 "/>
<text text-anchor="middle" x="1986" y="-36.5" font-family="Helvetica,sans-Serif" font-size="10.00"> </text>
<polyline fill="none" stroke="black" points="1923.5,-28.5 2048.5,-28.5 "/>
<text text-anchor="start" x="1931.5" y="-15.5" font-family="Helvetica,sans-Serif" font-size="10.00">+ __construct()</text>
</a>
</g>
<!-- Node1&#45;&gt;Node15 -->
<g id="edge28" class="edge"><title>Node1&#45;&gt;Node15</title>
<path fill="none" stroke="midnightblue" d="M2141.58,-156.93C2104.97,-129.175 2059.94,-95.0457 2027.76,-70.6569"/>
<polygon fill="none" stroke="midnightblue" points="2139.65,-159.86 2149.74,-163.111 2143.88,-154.281 2139.65,-159.86"/>
</g>
<!-- Node16 -->
<g id="node31" class="node"><title>Node16</title>
<a xlink:href="../../d9/d07/classpocketmine_1_1item_1_1_iron_hoe.html" target="_top" xlink:title="{pocketmine\\item\\IronHoe\n||+ __construct()\l}">
<polygon fill="white" stroke="black" points="2066,-7.5 2066,-70.5 2192,-70.5 2192,-7.5 2066,-7.5"/>
<text text-anchor="middle" x="2129" y="-57.5" font-family="Helvetica,sans-Serif" font-size="10.00">pocketmine\item\IronHoe</text>
<polyline fill="none" stroke="black" points="2066,-49.5 2192,-49.5 "/>
<text text-anchor="middle" x="2129" y="-36.5" font-family="Helvetica,sans-Serif" font-size="10.00"> </text>
<polyline fill="none" stroke="black" points="2066,-28.5 2192,-28.5 "/>
<text text-anchor="start" x="2074" y="-15.5" font-family="Helvetica,sans-Serif" font-size="10.00">+ __construct()</text>
</a>
</g>
<!-- Node1&#45;&gt;Node16 -->
<g id="edge30" class="edge"><title>Node1&#45;&gt;Node16</title>
<path fill="none" stroke="midnightblue" d="M2159.45,-105.504C2153.7,-92.9589 2148.2,-80.9381 2143.49,-70.6508"/>
<polygon fill="none" stroke="midnightblue" points="2156.32,-107.078 2163.66,-114.713 2162.68,-104.164 2156.32,-107.078"/>
</g>
<!-- Node17 -->
<g id="node33" class="node"><title>Node17</title>
<a xlink:href="../../da/d73/classpocketmine_1_1item_1_1_iron_pickaxe.html" target="_top" xlink:title="{pocketmine\\item\\IronPickaxe\n||+ __construct()\l}">
<polygon fill="white" stroke="black" points="2209.5,-7.5 2209.5,-70.5 2352.5,-70.5 2352.5,-7.5 2209.5,-7.5"/>
<text text-anchor="middle" x="2281" y="-57.5" font-family="Helvetica,sans-Serif" font-size="10.00">pocketmine\item\IronPickaxe</text>
<polyline fill="none" stroke="black" points="2209.5,-49.5 2352.5,-49.5 "/>
<text text-anchor="middle" x="2281" y="-36.5" font-family="Helvetica,sans-Serif" font-size="10.00"> </text>
<polyline fill="none" stroke="black" points="2209.5,-28.5 2352.5,-28.5 "/>
<text text-anchor="start" x="2217.5" y="-15.5" font-family="Helvetica,sans-Serif" font-size="10.00">+ __construct()</text>
</a>
</g>
<!-- Node1&#45;&gt;Node17 -->
<g id="edge32" class="edge"><title>Node1&#45;&gt;Node17</title>
<path fill="none" stroke="midnightblue" d="M2250.55,-105.504C2256.3,-92.9589 2261.8,-80.9381 2266.51,-70.6508"/>
<polygon fill="none" stroke="midnightblue" points="2247.32,-104.164 2246.34,-114.713 2253.68,-107.078 2247.32,-104.164"/>
</g>
<!-- Node18 -->
<g id="node35" class="node"><title>Node18</title>
<a xlink:href="../../dd/df5/classpocketmine_1_1item_1_1_iron_shovel.html" target="_top" xlink:title="{pocketmine\\item\\IronShovel\n||+ __construct()\l}">
<polygon fill="white" stroke="black" points="2370,-7.5 2370,-70.5 2508,-70.5 2508,-7.5 2370,-7.5"/>
<text text-anchor="middle" x="2439" y="-57.5" font-family="Helvetica,sans-Serif" font-size="10.00">pocketmine\item\IronShovel</text>
<polyline fill="none" stroke="black" points="2370,-49.5 2508,-49.5 "/>
<text text-anchor="middle" x="2439" y="-36.5" font-family="Helvetica,sans-Serif" font-size="10.00"> </text>
<polyline fill="none" stroke="black" points="2370,-28.5 2508,-28.5 "/>
<text text-anchor="start" x="2378" y="-15.5" font-family="Helvetica,sans-Serif" font-size="10.00">+ __construct()</text>
</a>
</g>
<!-- Node1&#45;&gt;Node18 -->
<g id="edge34" class="edge"><title>Node1&#45;&gt;Node18</title>
<path fill="none" stroke="midnightblue" d="M2268.49,-159.958C2308.34,-131.687 2358.75,-95.9277 2394.39,-70.6435"/>
<polygon fill="none" stroke="midnightblue" points="2266.29,-157.23 2260.16,-165.871 2270.34,-162.939 2266.29,-157.23"/>
</g>
<!-- Node19 -->
<g id="node37" class="node"><title>Node19</title>
<a xlink:href="../../d9/da3/classpocketmine_1_1item_1_1_iron_sword.html" target="_top" xlink:title="{pocketmine\\item\\IronSword\n||+ __construct()\l}">
<polygon fill="white" stroke="black" points="2526,-7.5 2526,-70.5 2662,-70.5 2662,-7.5 2526,-7.5"/>
<text text-anchor="middle" x="2594" y="-57.5" font-family="Helvetica,sans-Serif" font-size="10.00">pocketmine\item\IronSword</text>
<polyline fill="none" stroke="black" points="2526,-49.5 2662,-49.5 "/>
<text text-anchor="middle" x="2594" y="-36.5" font-family="Helvetica,sans-Serif" font-size="10.00"> </text>
<polyline fill="none" stroke="black" points="2526,-28.5 2662,-28.5 "/>
<text text-anchor="start" x="2534" y="-15.5" font-family="Helvetica,sans-Serif" font-size="10.00">+ __construct()</text>
</a>
</g>
<!-- Node1&#45;&gt;Node19 -->
<g id="edge36" class="edge"><title>Node1&#45;&gt;Node19</title>
<path fill="none" stroke="midnightblue" d="M2269.75,-180.437C2333.32,-155.905 2432.72,-116.416 2517,-78 2522.18,-75.6381 2527.52,-73.1181 2532.86,-70.539"/>
<polygon fill="none" stroke="midnightblue" points="2268.33,-177.235 2260.25,-184.095 2270.84,-183.768 2268.33,-177.235"/>
</g>
<!-- Node20 -->
<g id="node39" class="node"><title>Node20</title>
<a xlink:href="../../dd/d7b/classpocketmine_1_1item_1_1_shears.html" target="_top" xlink:title="{pocketmine\\item\\Shears\n||+ __construct()\l}">
<polygon fill="white" stroke="black" points="2680,-7.5 2680,-70.5 2802,-70.5 2802,-7.5 2680,-7.5"/>
<text text-anchor="middle" x="2741" y="-57.5" font-family="Helvetica,sans-Serif" font-size="10.00">pocketmine\item\Shears</text>
<polyline fill="none" stroke="black" points="2680,-49.5 2802,-49.5 "/>
<text text-anchor="middle" x="2741" y="-36.5" font-family="Helvetica,sans-Serif" font-size="10.00"> </text>
<polyline fill="none" stroke="black" points="2680,-28.5 2802,-28.5 "/>
<text text-anchor="start" x="2688" y="-15.5" font-family="Helvetica,sans-Serif" font-size="10.00">+ __construct()</text>
</a>
</g>
<!-- Node1&#45;&gt;Node20 -->
<g id="edge38" class="edge"><title>Node1&#45;&gt;Node20</title>
<path fill="none" stroke="midnightblue" d="M2270.19,-192.458C2361.81,-173.669 2532.92,-134.306 2671,-78 2676.41,-75.7938 2681.93,-73.2617 2687.38,-70.5702"/>
<polygon fill="none" stroke="midnightblue" points="2269.32,-189.061 2260.22,-194.484 2270.72,-195.921 2269.32,-189.061"/>
</g>
<!-- Node21 -->
<g id="node41" class="node"><title>Node21</title>
<a xlink:href="../../d3/dfd/classpocketmine_1_1item_1_1_stone_axe.html" target="_top" xlink:title="{pocketmine\\item\\StoneAxe\n||+ __construct()\l}">
<polygon fill="white" stroke="black" points="2820,-7.5 2820,-70.5 2954,-70.5 2954,-7.5 2820,-7.5"/>
<text text-anchor="middle" x="2887" y="-57.5" font-family="Helvetica,sans-Serif" font-size="10.00">pocketmine\item\StoneAxe</text>
<polyline fill="none" stroke="black" points="2820,-49.5 2954,-49.5 "/>
<text text-anchor="middle" x="2887" y="-36.5" font-family="Helvetica,sans-Serif" font-size="10.00"> </text>
<polyline fill="none" stroke="black" points="2820,-28.5 2954,-28.5 "/>
<text text-anchor="start" x="2828" y="-15.5" font-family="Helvetica,sans-Serif" font-size="10.00">+ __construct()</text>
</a>
</g>
<!-- Node1&#45;&gt;Node21 -->
<g id="edge40" class="edge"><title>Node1&#45;&gt;Node21</title>
<path fill="none" stroke="midnightblue" d="M2270.44,-197.13C2383.27,-182.285 2620.62,-145.419 2811,-78 2817.01,-75.8712 2823.15,-73.3573 2829.2,-70.6476"/>
<polygon fill="none" stroke="midnightblue" points="2269.71,-193.696 2260.25,-198.457 2270.61,-200.638 2269.71,-193.696"/>
</g>
<!-- Node22 -->
<g id="node43" class="node"><title>Node22</title>
<a xlink:href="../../de/db3/classpocketmine_1_1item_1_1_stone_hoe.html" target="_top" xlink:title="{pocketmine\\item\\StoneHoe\n||+ __construct()\l}">
<polygon fill="white" stroke="black" points="2971.5,-7.5 2971.5,-70.5 3106.5,-70.5 3106.5,-7.5 2971.5,-7.5"/>
<text text-anchor="middle" x="3039" y="-57.5" font-family="Helvetica,sans-Serif" font-size="10.00">pocketmine\item\StoneHoe</text>
<polyline fill="none" stroke="black" points="2971.5,-49.5 3106.5,-49.5 "/>
<text text-anchor="middle" x="3039" y="-36.5" font-family="Helvetica,sans-Serif" font-size="10.00"> </text>
<polyline fill="none" stroke="black" points="2971.5,-28.5 3106.5,-28.5 "/>
<text text-anchor="start" x="2979.5" y="-15.5" font-family="Helvetica,sans-Serif" font-size="10.00">+ __construct()</text>
</a>
</g>
<!-- Node1&#45;&gt;Node22 -->
<g id="edge42" class="edge"><title>Node1&#45;&gt;Node22</title>
<path fill="none" stroke="midnightblue" d="M2270.19,-200.848C2403.42,-190.906 2715.2,-160.137 2963,-78 2969.33,-75.9003 2975.79,-73.3337 2982.13,-70.5293"/>
<polygon fill="none" stroke="midnightblue" points="2269.87,-197.363 2260.15,-201.583 2270.38,-204.344 2269.87,-197.363"/>
</g>
<!-- Node23 -->
<g id="node45" class="node"><title>Node23</title>
<a xlink:href="../../d0/dd6/classpocketmine_1_1item_1_1_stone_pickaxe.html" target="_top" xlink:title="{pocketmine\\item\\StonePickaxe\n||+ __construct()\l}">
<polygon fill="white" stroke="black" points="3124,-7.5 3124,-70.5 3276,-70.5 3276,-7.5 3124,-7.5"/>
<text text-anchor="middle" x="3200" y="-57.5" font-family="Helvetica,sans-Serif" font-size="10.00">pocketmine\item\StonePickaxe</text>
<polyline fill="none" stroke="black" points="3124,-49.5 3276,-49.5 "/>
<text text-anchor="middle" x="3200" y="-36.5" font-family="Helvetica,sans-Serif" font-size="10.00"> </text>
<polyline fill="none" stroke="black" points="3124,-28.5 3276,-28.5 "/>
<text text-anchor="start" x="3132" y="-15.5" font-family="Helvetica,sans-Serif" font-size="10.00">+ __construct()</text>
</a>
</g>
<!-- Node1&#45;&gt;Node23 -->
<g id="edge44" class="edge"><title>Node1&#45;&gt;Node23</title>
<path fill="none" stroke="midnightblue" d="M2270.06,-202.405C2421.28,-194.984 2807.05,-168.025 3115,-78 3122.01,-75.9499 3129.19,-73.4155 3136.25,-70.6303"/>
<polygon fill="none" stroke="midnightblue" points="2269.83,-198.912 2260.01,-202.886 2270.16,-205.904 2269.83,-198.912"/>
</g>
<!-- Node24 -->
<g id="node47" class="node"><title>Node24</title>
<a xlink:href="../../d8/d25/classpocketmine_1_1item_1_1_stone_shovel.html" target="_top" xlink:title="{pocketmine\\item\\StoneShovel\n||+ __construct()\l}">
<polygon fill="white" stroke="black" points="3293.5,-7.5 3293.5,-70.5 3440.5,-70.5 3440.5,-7.5 3293.5,-7.5"/>
<text text-anchor="middle" x="3367" y="-57.5" font-family="Helvetica,sans-Serif" font-size="10.00">pocketmine\item\StoneShovel</text>
<polyline fill="none" stroke="black" points="3293.5,-49.5 3440.5,-49.5 "/>
<text text-anchor="middle" x="3367" y="-36.5" font-family="Helvetica,sans-Serif" font-size="10.00"> </text>
<polyline fill="none" stroke="black" points="3293.5,-28.5 3440.5,-28.5 "/>
<text text-anchor="start" x="3301.5" y="-15.5" font-family="Helvetica,sans-Serif" font-size="10.00">+ __construct()</text>
</a>
</g>
<!-- Node1&#45;&gt;Node24 -->
<g id="edge46" class="edge"><title>Node1&#45;&gt;Node24</title>
<path fill="none" stroke="midnightblue" d="M2270.39,-200.122C2473.6,-184.522 3091.98,-133.609 3285,-78 3291.97,-75.9925 3299.08,-73.4472 3306.06,-70.6223"/>
<polygon fill="none" stroke="midnightblue" points="2269.88,-196.651 2260.18,-200.903 2270.41,-203.63 2269.88,-196.651"/>
</g>
<!-- Node25 -->
<g id="node49" class="node"><title>Node25</title>
<a xlink:href="../../d8/d74/classpocketmine_1_1item_1_1_stone_sword.html" target="_top" xlink:title="{pocketmine\\item\\StoneSword\n||+ __construct()\l}">
<polygon fill="white" stroke="black" points="3457.5,-7.5 3457.5,-70.5 3602.5,-70.5 3602.5,-7.5 3457.5,-7.5"/>
<text text-anchor="middle" x="3530" y="-57.5" font-family="Helvetica,sans-Serif" font-size="10.00">pocketmine\item\StoneSword</text>
<polyline fill="none" stroke="black" points="3457.5,-49.5 3602.5,-49.5 "/>
<text text-anchor="middle" x="3530" y="-36.5" font-family="Helvetica,sans-Serif" font-size="10.00"> </text>
<polyline fill="none" stroke="black" points="3457.5,-28.5 3602.5,-28.5 "/>
<text text-anchor="start" x="3465.5" y="-15.5" font-family="Helvetica,sans-Serif" font-size="10.00">+ __construct()</text>
</a>
</g>
<!-- Node1&#45;&gt;Node25 -->
<g id="edge48" class="edge"><title>Node1&#45;&gt;Node25</title>
<path fill="none" stroke="midnightblue" d="M2270.26,-201.325C2493.22,-188.303 3223.42,-141.704 3449,-78 3456.06,-76.0064 3463.26,-73.4303 3470.3,-70.5527"/>
<polygon fill="none" stroke="midnightblue" points="2269.81,-197.845 2260.03,-201.919 2270.22,-204.833 2269.81,-197.845"/>
</g>
<!-- Node26 -->
<g id="node51" class="node"><title>Node26</title>
<a xlink:href="../../d9/dce/classpocketmine_1_1item_1_1_wooden_axe.html" target="_top" xlink:title="{pocketmine\\item\\WoodenAxe\n||+ __construct()\l}">
<polygon fill="white" stroke="black" points="3619.5,-7.5 3619.5,-70.5 3764.5,-70.5 3764.5,-7.5 3619.5,-7.5"/>
<text text-anchor="middle" x="3692" y="-57.5" font-family="Helvetica,sans-Serif" font-size="10.00">pocketmine\item\WoodenAxe</text>
<polyline fill="none" stroke="black" points="3619.5,-49.5 3764.5,-49.5 "/>
<text text-anchor="middle" x="3692" y="-36.5" font-family="Helvetica,sans-Serif" font-size="10.00"> </text>
<polyline fill="none" stroke="black" points="3619.5,-28.5 3764.5,-28.5 "/>
<text text-anchor="start" x="3627.5" y="-15.5" font-family="Helvetica,sans-Serif" font-size="10.00">+ __construct()</text>
</a>
</g>
<!-- Node1&#45;&gt;Node26 -->
<g id="edge50" class="edge"><title>Node1&#45;&gt;Node26</title>
<path fill="none" stroke="midnightblue" d="M2270.1,-202.209C2511.23,-191.392 3352.91,-149.262 3611,-78 3618.07,-76.0476 3625.28,-73.4975 3632.33,-70.6351"/>
<polygon fill="none" stroke="midnightblue" points="2269.92,-198.713 2260.08,-202.655 2270.23,-205.706 2269.92,-198.713"/>
</g>
<!-- Node27 -->
<g id="node53" class="node"><title>Node27</title>
<a xlink:href="../../de/daf/classpocketmine_1_1item_1_1_wooden_hoe.html" target="_top" xlink:title="{pocketmine\\item\\WoodenHoe\n||+ __construct()\l}">
<polygon fill="white" stroke="black" points="3782,-7.5 3782,-70.5 3928,-70.5 3928,-7.5 3782,-7.5"/>
<text text-anchor="middle" x="3855" y="-57.5" font-family="Helvetica,sans-Serif" font-size="10.00">pocketmine\item\WoodenHoe</text>
<polyline fill="none" stroke="black" points="3782,-49.5 3928,-49.5 "/>
<text text-anchor="middle" x="3855" y="-36.5" font-family="Helvetica,sans-Serif" font-size="10.00"> </text>
<polyline fill="none" stroke="black" points="3782,-28.5 3928,-28.5 "/>
<text text-anchor="start" x="3790" y="-15.5" font-family="Helvetica,sans-Serif" font-size="10.00">+ __construct()</text>
</a>
</g>
<!-- Node1&#45;&gt;Node27 -->
<g id="edge52" class="edge"><title>Node1&#45;&gt;Node27</title>
<path fill="none" stroke="midnightblue" d="M2270.51,-202.85C2529.55,-193.862 3482.27,-156.082 3773,-78 3780.31,-76.0373 3787.76,-73.4395 3795.04,-70.5138"/>
<polygon fill="none" stroke="midnightblue" points="2270.02,-199.364 2260.15,-203.207 2270.26,-206.36 2270.02,-199.364"/>
</g>
<!-- Node28 -->
<g id="node55" class="node"><title>Node28</title>
<a xlink:href="../../db/dd0/classpocketmine_1_1item_1_1_wooden_pickaxe.html" target="_top" xlink:title="{pocketmine\\item\\WoodenPickaxe\n||+ __construct()\l}">
<polygon fill="white" stroke="black" points="3945.5,-7.5 3945.5,-70.5 4108.5,-70.5 4108.5,-7.5 3945.5,-7.5"/>
<text text-anchor="middle" x="4027" y="-57.5" font-family="Helvetica,sans-Serif" font-size="10.00">pocketmine\item\WoodenPickaxe</text>
<polyline fill="none" stroke="black" points="3945.5,-49.5 4108.5,-49.5 "/>
<text text-anchor="middle" x="4027" y="-36.5" font-family="Helvetica,sans-Serif" font-size="10.00"> </text>
<polyline fill="none" stroke="black" points="3945.5,-28.5 4108.5,-28.5 "/>
<text text-anchor="start" x="3953.5" y="-15.5" font-family="Helvetica,sans-Serif" font-size="10.00">+ __construct()</text>
</a>
</g>
<!-- Node1&#45;&gt;Node28 -->
<g id="edge54" class="edge"><title>Node1&#45;&gt;Node28</title>
<path fill="none" stroke="midnightblue" d="M2270.34,-203.132C2545.63,-194.816 3611.62,-157.989 3937,-78 3944.94,-76.0487 3953.06,-73.458 3961.03,-70.5364"/>
<polygon fill="none" stroke="midnightblue" points="2270.01,-199.641 2260.12,-203.439 2270.22,-206.638 2270.01,-199.641"/>
</g>
<!-- Node29 -->
<g id="node57" class="node"><title>Node29</title>
<a xlink:href="../../d5/dd5/classpocketmine_1_1item_1_1_wooden_shovel.html" target="_top" xlink:title="{pocketmine\\item\\WoodenShovel\n||+ __construct()\l}">
<polygon fill="white" stroke="black" points="4126,-7.5 4126,-70.5 4284,-70.5 4284,-7.5 4126,-7.5"/>
<text text-anchor="middle" x="4205" y="-57.5" font-family="Helvetica,sans-Serif" font-size="10.00">pocketmine\item\WoodenShovel</text>
<polyline fill="none" stroke="black" points="4126,-49.5 4284,-49.5 "/>
<text text-anchor="middle" x="4205" y="-36.5" font-family="Helvetica,sans-Serif" font-size="10.00"> </text>
<polyline fill="none" stroke="black" points="4126,-28.5 4284,-28.5 "/>
<text text-anchor="start" x="4134" y="-15.5" font-family="Helvetica,sans-Serif" font-size="10.00">+ __construct()</text>
</a>
</g>
<!-- Node1&#45;&gt;Node29 -->
<g id="edge56" class="edge"><title>Node1&#45;&gt;Node29</title>
<path fill="none" stroke="midnightblue" d="M2270.32,-203.722C2563.01,-197.526 3755.29,-167.187 4117,-78 4124.79,-76.0797 4132.75,-73.5085 4140.54,-70.5978"/>
<polygon fill="none" stroke="midnightblue" points="2270.21,-200.223 2260.29,-203.932 2270.36,-207.221 2270.21,-200.223"/>
</g>
<!-- Node30 -->
<g id="node59" class="node"><title>Node30</title>
<a xlink:href="../../d5/dd2/classpocketmine_1_1item_1_1_wooden_sword.html" target="_top" xlink:title="{pocketmine\\item\\WoodenSword\n||+ __construct()\l}">
<polygon fill="white" stroke="black" points="4301.5,-7.5 4301.5,-70.5 4456.5,-70.5 4456.5,-7.5 4301.5,-7.5"/>
<text text-anchor="middle" x="4379" y="-57.5" font-family="Helvetica,sans-Serif" font-size="10.00">pocketmine\item\WoodenSword</text>
<polyline fill="none" stroke="black" points="4301.5,-49.5 4456.5,-49.5 "/>
<text text-anchor="middle" x="4379" y="-36.5" font-family="Helvetica,sans-Serif" font-size="10.00"> </text>
<polyline fill="none" stroke="black" points="4301.5,-28.5 4456.5,-28.5 "/>
<text text-anchor="start" x="4309.5" y="-15.5" font-family="Helvetica,sans-Serif" font-size="10.00">+ __construct()</text>
</a>
</g>
<!-- Node1&#45;&gt;Node30 -->
<g id="edge58" class="edge"><title>Node1&#45;&gt;Node30</title>
<path fill="none" stroke="midnightblue" d="M2270.18,-204.218C2578.9,-200.029 3895.69,-176.599 4293,-78 4300.64,-76.1046 4308.43,-73.549 4316.06,-70.6472"/>
<polygon fill="none" stroke="midnightblue" points="2270,-200.72 2260.05,-204.353 2270.1,-207.719 2270,-200.72"/>
</g>
<!-- Node2 -->
<g id="node2" class="node"><title>Node2</title>
<a xlink:href="../../d5/d8a/classpocketmine_1_1item_1_1_item.html" target="_top" xlink:title="{pocketmine\\item\\Item\n|+ AIR\l+ STONE\l+ GRASS\l+ DIRT\l+ COBBLESTONE\l+ COBBLE\l+ PLANK\l+ PLANKS\l+ WOODEN_PLANK\l+ WOODEN_PLANKS\land 279 more...+ $list\l# $block\l# $id\l# $meta\l# $maxStackSize\l# $durability\l# $name\l|+ __construct()\l+ getCount()\l+ setCount()\l+ getName()\l+ isPlaceable()\l+ getBlock()\l+ getID()\l+ getDamage()\l+ setDamage()\l+ getMaxStackSize()\land 13 more...+ init()\l+ get()\l+ fromString()\l}">
<polygon fill="white" stroke="black" points="2146.5,-332.5 2146.5,-759.5 2263.5,-759.5 2263.5,-332.5 2146.5,-332.5"/>
<text text-anchor="middle" x="2205" y="-746.5" font-family="Helvetica,sans-Serif" font-size="10.00">pocketmine\item\Item</text>
<polyline fill="none" stroke="black" points="2146.5,-738.5 2263.5,-738.5 "/>
<text text-anchor="start" x="2154.5" y="-725.5" font-family="Helvetica,sans-Serif" font-size="10.00">+ AIR</text>
<text text-anchor="start" x="2154.5" y="-712.5" font-family="Helvetica,sans-Serif" font-size="10.00">+ STONE</text>
<text text-anchor="start" x="2154.5" y="-699.5" font-family="Helvetica,sans-Serif" font-size="10.00">+ GRASS</text>
<text text-anchor="start" x="2154.5" y="-686.5" font-family="Helvetica,sans-Serif" font-size="10.00">+ DIRT</text>
<text text-anchor="start" x="2154.5" y="-673.5" font-family="Helvetica,sans-Serif" font-size="10.00">+ COBBLESTONE</text>
<text text-anchor="start" x="2154.5" y="-660.5" font-family="Helvetica,sans-Serif" font-size="10.00">+ COBBLE</text>
<text text-anchor="start" x="2154.5" y="-647.5" font-family="Helvetica,sans-Serif" font-size="10.00">+ PLANK</text>
<text text-anchor="start" x="2154.5" y="-634.5" font-family="Helvetica,sans-Serif" font-size="10.00">+ PLANKS</text>
<text text-anchor="start" x="2154.5" y="-621.5" font-family="Helvetica,sans-Serif" font-size="10.00">+ WOODEN_PLANK</text>
<text text-anchor="start" x="2154.5" y="-608.5" font-family="Helvetica,sans-Serif" font-size="10.00">+ WOODEN_PLANKS</text>
<text text-anchor="start" x="2154.5" y="-595.5" font-family="Helvetica,sans-Serif" font-size="10.00">and 279 more...+ $list</text>
<text text-anchor="start" x="2154.5" y="-582.5" font-family="Helvetica,sans-Serif" font-size="10.00"># $block</text>
<text text-anchor="start" x="2154.5" y="-569.5" font-family="Helvetica,sans-Serif" font-size="10.00"># $id</text>
<text text-anchor="start" x="2154.5" y="-556.5" font-family="Helvetica,sans-Serif" font-size="10.00"># $meta</text>
<text text-anchor="start" x="2154.5" y="-543.5" font-family="Helvetica,sans-Serif" font-size="10.00"># $maxStackSize</text>
<text text-anchor="start" x="2154.5" y="-530.5" font-family="Helvetica,sans-Serif" font-size="10.00"># $durability</text>
<text text-anchor="start" x="2154.5" y="-517.5" font-family="Helvetica,sans-Serif" font-size="10.00"># $name</text>
<polyline fill="none" stroke="black" points="2146.5,-509.5 2263.5,-509.5 "/>
<text text-anchor="start" x="2154.5" y="-496.5" font-family="Helvetica,sans-Serif" font-size="10.00">+ __construct()</text>
<text text-anchor="start" x="2154.5" y="-483.5" font-family="Helvetica,sans-Serif" font-size="10.00">+ getCount()</text>
<text text-anchor="start" x="2154.5" y="-470.5" font-family="Helvetica,sans-Serif" font-size="10.00">+ setCount()</text>
<text text-anchor="start" x="2154.5" y="-457.5" font-family="Helvetica,sans-Serif" font-size="10.00">+ getName()</text>
<text text-anchor="start" x="2154.5" y="-444.5" font-family="Helvetica,sans-Serif" font-size="10.00">+ isPlaceable()</text>
<text text-anchor="start" x="2154.5" y="-431.5" font-family="Helvetica,sans-Serif" font-size="10.00">+ getBlock()</text>
<text text-anchor="start" x="2154.5" y="-418.5" font-family="Helvetica,sans-Serif" font-size="10.00">+ getID()</text>
<text text-anchor="start" x="2154.5" y="-405.5" font-family="Helvetica,sans-Serif" font-size="10.00">+ getDamage()</text>
<text text-anchor="start" x="2154.5" y="-392.5" font-family="Helvetica,sans-Serif" font-size="10.00">+ setDamage()</text>
<text text-anchor="start" x="2154.5" y="-379.5" font-family="Helvetica,sans-Serif" font-size="10.00">+ getMaxStackSize()</text>
<text text-anchor="start" x="2154.5" y="-366.5" font-family="Helvetica,sans-Serif" font-size="10.00">and 13 more...+ init()</text>
<text text-anchor="start" x="2154.5" y="-353.5" font-family="Helvetica,sans-Serif" font-size="10.00">+ get()</text>
<text text-anchor="start" x="2154.5" y="-340.5" font-family="Helvetica,sans-Serif" font-size="10.00">+ fromString()</text>
</a>
</g>
<!-- Node2&#45;&gt;Node1 -->
<g id="edge2" class="edge"><title>Node2&#45;&gt;Node1</title>
<path fill="none" stroke="midnightblue" d="M2205,-322.273C2205,-312.964 2205,-303.89 2205,-295.179"/>
<polygon fill="none" stroke="midnightblue" points="2201.5,-322.461 2205,-332.461 2208.5,-322.461 2201.5,-322.461"/>
</g>
</g>
</svg>
        <g id="navigator" transform="translate(0 0)" fill="#404254">
                <rect fill="#f2f5e9" fill-opacity="0.5" stroke="#606060" stroke-width=".5" x="0" y="0" width="60" height="60"/>
                <use id="zoomplus" xlink:href="#zoomPlus" x="17" y="9" onmousedown="handleZoom(evt,'in')"/>
                <use id="zoomminus" xlink:href="#zoomMin" x="42" y="9" onmousedown="handleZoom(evt,'out')"/>
                <use id="reset" xlink:href="#resetDef" x="30" y="36" onmousedown="handleReset()"/>
                <g id="arrowUp" xlink:href="#dirArrow" transform="translate(30 24)" onmousedown="handlePan(0,-1)">
                  <use xlink:href="#rim" fill="#404040">
                        <set attributeName="fill" to="#808080" begin="arrowUp.mouseover" end="arrowUp.mouseout"/>
                  </use>
                  <path fill="none" stroke="white" stroke-width="1.5" d="M0,-3.0v7 M-2.5,-0.5L0,-3.0L2.5,-0.5"/>
                </g>
                <g id="arrowRight" xlink:href="#dirArrow" transform="rotate(90) translate(36 -43)" onmousedown="handlePan(1,0)">
                  <use xlink:href="#rim" fill="#404040">
                        <set attributeName="fill" to="#808080" begin="arrowRight.mouseover" end="arrowRight.mouseout"/>
                  </use>
                  <path fill="none" stroke="white" stroke-width="1.5" d="M0,-3.0v7 M-2.5,-0.5L0,-3.0L2.5,-0.5"/>
                </g>
                <g id="arrowDown" xlink:href="#dirArrow" transform="rotate(180) translate(-30 -48)" onmousedown="handlePan(0,1)">
                  <use xlink:href="#rim" fill="#404040">
                        <set attributeName="fill" to="#808080" begin="arrowDown.mouseover" end="arrowDown.mouseout"/>
                  </use>
                  <path fill="none" stroke="white" stroke-width="1.5" d="M0,-3.0v7 M-2.5,-0.5L0,-3.0L2.5,-0.5"/>
                </g>
                <g id="arrowLeft" xlink:href="#dirArrow" transform="rotate(270) translate(-36 17)" onmousedown="handlePan(-1,0)">
                  <use xlink:href="#rim" fill="#404040">
                        <set attributeName="fill" to="#808080" begin="arrowLeft.mouseover" end="arrowLeft.mouseout"/>
                  </use>
                  <path fill="none" stroke="white" stroke-width="1.5" d="M0,-3.0v7 M-2.5,-0.5L0,-3.0L2.5,-0.5"/>
                </g>
        </g>
</svg>
