<?xml version="1.0" encoding="UTF-8" standalone="no"?>
<!DOCTYPE svg PUBLIC "-//W3C//DTD SVG 1.1//EN"
 "http://www.w3.org/Graphics/SVG/1.1/DTD/svg11.dtd">
<!-- Generated by graphviz version 2.26.3 (20100126.1600)
 -->
<!-- Title: pocketmine\command\Command\testPermission Pages: 1 -->
<svg width="512pt" height="94pt"
 viewBox="0.00 0.00 512.00 94.00" xmlns="http://www.w3.org/2000/svg" xmlns:xlink="http://www.w3.org/1999/xlink">
<g id="graph1" class="graph" transform="scale(1 1) rotate(0) translate(4 90)">
<title>pocketmine\command\Command\testPermission</title>
<polygon fill="white" stroke="white" points="-4,5 -4,-90 509,-90 509,5 -4,5"/>
<!-- Node1 -->
<g id="node1" class="node"><title>Node1</title>
<polygon fill="#bfbfbf" stroke="black" points="0.5,-26 0.5,-60 133.5,-60 133.5,-26 0.5,-26"/>
<text text-anchor="start" x="8.5" y="-47" font-family="Helvetica,sans-Serif" font-size="10.00">pocketmine\command</text>
<text text-anchor="middle" x="67" y="-34" font-family="Helvetica,sans-Serif" font-size="10.00">\Command\testPermission</text>
</g>
<!-- Node2 -->
<g id="node3" class="node"><title>Node2</title>
<a xlink:href="../../d6/d9d/interfacepocketmine_1_1command_1_1_command_sender.html#a84dfc3ca6b3d6aec33ca38b9ff39af1e" target="_top" xlink:title="pocketmine\\command\l\\CommandSender\\sendMessage">
<polygon fill="white" stroke="black" points="170.5,-52 170.5,-86 329.5,-86 329.5,-52 170.5,-52"/>
<text text-anchor="start" x="178.5" y="-73" font-family="Helvetica,sans-Serif" font-size="10.00">pocketmine\command</text>
<text text-anchor="middle" x="250" y="-60" font-family="Helvetica,sans-Serif" font-size="10.00">\CommandSender\sendMessage</text>
</a>
</g>
<!-- Node1&#45;&gt;Node2 -->
<g id="edge2" class="edge"><title>Node1&#45;&gt;Node2</title>
<path fill="none" stroke="midnightblue" d="M133.585,-52.4601C142.272,-53.6944 151.284,-54.9748 160.273,-56.2519"/>
<polygon fill="midnightblue" stroke="midnightblue" points="160.001,-59.7483 170.394,-57.6898 160.985,-52.8179 160.001,-59.7483"/>
</g>
<!-- Node3 -->
<g id="node5" class="node"><title>Node3</title>
<a xlink:href="../../d6/df1/classpocketmine_1_1command_1_1_command.html#a7805631da5bffb60c7b19ce4105bb1c8" target="_top" xlink:title="pocketmine\\command\l\\Command\\testPermissionSilent">
<polygon fill="white" stroke="black" points="171,-0 171,-34 329,-34 329,-0 171,-0"/>
<text text-anchor="start" x="179" y="-21" font-family="Helvetica,sans-Serif" font-size="10.00">pocketmine\command</text>
<text text-anchor="middle" x="250" y="-8" font-family="Helvetica,sans-Serif" font-size="10.00">\Command\testPermissionSilent</text>
</a>
</g>
<!-- Node1&#45;&gt;Node3 -->
<g id="edge4" class="edge"><title>Node1&#45;&gt;Node3</title>
<path fill="none" stroke="midnightblue" d="M133.585,-33.5399C142.441,-32.2816 151.634,-30.9755 160.796,-29.6738"/>
<polygon fill="midnightblue" stroke="midnightblue" points="161.3,-33.1374 170.709,-28.2655 160.316,-26.207 161.3,-33.1374"/>
</g>
<!-- Node4 -->
<g id="node7" class="node"><title>Node4</title>
<a xlink:href="../../de/da0/interfacepocketmine_1_1permission_1_1_permissible.html#a0b17ec85f4333bbbc4fe759e3f16be8f" target="_top" xlink:title="pocketmine\\permission\l\\Permissible\\hasPermission">
<polygon fill="white" stroke="black" points="366,-0 366,-34 504,-34 504,-0 366,-0"/>
<text text-anchor="start" x="374" y="-21" font-family="Helvetica,sans-Serif" font-size="10.00">pocketmine\permission</text>
<text text-anchor="middle" x="435" y="-8" font-family="Helvetica,sans-Serif" font-size="10.00">\Permissible\hasPermission</text>
</a>
</g>
<!-- Node3&#45;&gt;Node4 -->
<g id="edge6" class="edge"><title>Node3&#45;&gt;Node4</title>
<path fill="none" stroke="midnightblue" d="M329.262,-17C338.002,-17 346.904,-17 355.646,-17"/>
<polygon fill="midnightblue" stroke="midnightblue" points="355.815,-20.5001 365.815,-17 355.815,-13.5001 355.815,-20.5001"/>
</g>
</g>
</svg>
