<?xml version="1.0" encoding="UTF-8" standalone="no"?>
<!DOCTYPE svg PUBLIC "-//W3C//DTD SVG 1.1//EN"
 "http://www.w3.org/Graphics/SVG/1.1/DTD/svg11.dtd">
<!-- Generated by graphviz version 2.36.0 (20140111.2315)
 -->
<!-- Title: pocketmine\command\Command\broadcastCommandMessage Pages: 1 -->
<svg width="432pt" height="126pt"
 viewBox="0.00 0.00 432.00 126.00" xmlns="http://www.w3.org/2000/svg" xmlns:xlink="http://www.w3.org/1999/xlink">
<g id="graph0" class="graph" transform="scale(1 1) rotate(0) translate(4 122)">
<title>pocketmine\command\Command\broadcastCommandMessage</title>
<polygon fill="white" stroke="none" points="-4,4 -4,-122 428,-122 428,4 -4,4"/>
<!-- Node1 -->
<g id="node1" class="node"><title>Node1</title>
<polygon fill="#bfbfbf" stroke="black" points="0,-49 0,-79 214,-79 214,-49 0,-49"/>
<text text-anchor="start" x="8" y="-67" font-family="Helvetica,sans-Serif" font-size="10.00">pocketmine\command</text>
<text text-anchor="middle" x="107" y="-56" font-family="Helvetica,sans-Serif" font-size="10.00">\Command\broadcastCommandMessage</text>
</g>
<!-- Node2 -->
<g id="node2" class="node"><title>Node2</title>
<g id="a_node2"><a xlink:href="../../d5/df7/classpocketmine_1_1_server.html#a8d9b9873eb3c7efce048f10f803c2b2e" target="_top" xlink:title="pocketmine\\Server\\getInstance">
<polygon fill="white" stroke="black" points="253.5,-98.5 253.5,-117.5 420.5,-117.5 420.5,-98.5 253.5,-98.5"/>
<text text-anchor="middle" x="337" y="-105.5" font-family="Helvetica,sans-Serif" font-size="10.00">pocketmine\Server\getInstance</text>
</a>
</g>
</g>
<!-- Node1&#45;&gt;Node2 -->
<g id="edge1" class="edge"><title>Node1&#45;&gt;Node2</title>
<path fill="none" stroke="midnightblue" d="M185.827,-79.0192C215.584,-84.7619 249.01,-91.2125 276.759,-96.5676"/>
<polygon fill="midnightblue" stroke="midnightblue" points="276.226,-100.029 286.708,-98.4876 277.553,-93.156 276.226,-100.029"/>
</g>
<!-- Node3 -->
<g id="node3" class="node"><title>Node3</title>
<g id="a_node3"><a xlink:href="../../d6/d9d/interfacepocketmine_1_1command_1_1_command_sender.html#a2a6455b053f0cd7d4684de964c4f5fc7" target="_top" xlink:title="pocketmine\\command\l\\CommandSender\\getName">
<polygon fill="white" stroke="black" points="261,-49 261,-79 413,-79 413,-49 261,-49"/>
<text text-anchor="start" x="269" y="-67" font-family="Helvetica,sans-Serif" font-size="10.00">pocketmine\command</text>
<text text-anchor="middle" x="337" y="-56" font-family="Helvetica,sans-Serif" font-size="10.00">\CommandSender\getName</text>
</a>
</g>
</g>
<!-- Node1&#45;&gt;Node3 -->
<g id="edge2" class="edge"><title>Node1&#45;&gt;Node3</title>
<path fill="none" stroke="midnightblue" d="M214.324,-64C226.445,-64 238.684,-64 250.486,-64"/>
<polygon fill="midnightblue" stroke="midnightblue" points="250.733,-67.5001 260.733,-64 250.733,-60.5001 250.733,-67.5001"/>
</g>
<!-- Node4 -->
<g id="node4" class="node"><title>Node4</title>
<g id="a_node4"><a xlink:href="../../d6/d9d/interfacepocketmine_1_1command_1_1_command_sender.html#a84dfc3ca6b3d6aec33ca38b9ff39af1e" target="_top" xlink:title="pocketmine\\command\l\\CommandSender\\sendMessage">
<polygon fill="white" stroke="black" points="250.5,-0 250.5,-30 423.5,-30 423.5,-0 250.5,-0"/>
<text text-anchor="start" x="258.5" y="-18" font-family="Helvetica,sans-Serif" font-size="10.00">pocketmine\command</text>
<text text-anchor="middle" x="337" y="-7" font-family="Helvetica,sans-Serif" font-size="10.00">\CommandSender\sendMessage</text>
</a>
</g>
</g>
<!-- Node1&#45;&gt;Node4 -->
<g id="edge3" class="edge"><title>Node1&#45;&gt;Node4</title>
<path fill="none" stroke="midnightblue" d="M177.957,-48.9654C202.687,-43.6506 230.685,-37.6335 256.172,-32.156"/>
<polygon fill="midnightblue" stroke="midnightblue" points="257.134,-35.5293 266.175,-30.0062 255.663,-28.6855 257.134,-35.5293"/>
</g>
</g>
</svg>
