<?xml version="1.0" encoding="UTF-8" standalone="no"?>
<!DOCTYPE svg PUBLIC "-//W3C//DTD SVG 1.1//EN"
 "http://www.w3.org/Graphics/SVG/1.1/DTD/svg11.dtd">
<!-- Generated by graphviz version 2.36.0 (20140111.2315)
 -->
<!-- Title: pocketmine\command\Command\testPermission Pages: 1 -->
<svg width="546pt" height="87pt"
 viewBox="0.00 0.00 546.00 87.00" xmlns="http://www.w3.org/2000/svg" xmlns:xlink="http://www.w3.org/1999/xlink">
<g id="graph0" class="graph" transform="scale(1 1) rotate(0) translate(4 83)">
<title>pocketmine\command\Command\testPermission</title>
<polygon fill="white" stroke="none" points="-4,4 -4,-83 542,-83 542,4 -4,4"/>
<!-- Node1 -->
<g id="node1" class="node"><title>Node1</title>
<polygon fill="#bfbfbf" stroke="black" points="0,-24 0,-54 144,-54 144,-24 0,-24"/>
<text text-anchor="start" x="8" y="-42" font-family="Helvetica,sans-Serif" font-size="10.00">pocketmine\command</text>
<text text-anchor="middle" x="72" y="-31" font-family="Helvetica,sans-Serif" font-size="10.00">\Command\testPermission</text>
</g>
<!-- Node2 -->
<g id="node2" class="node"><title>Node2</title>
<g id="a_node2"><a xlink:href="../../d6/d9d/interfacepocketmine_1_1command_1_1_command_sender.html#a84dfc3ca6b3d6aec33ca38b9ff39af1e" target="_top" xlink:title="pocketmine\\command\l\\CommandSender\\sendMessage">
<polygon fill="white" stroke="black" points="180.5,-49 180.5,-79 353.5,-79 353.5,-49 180.5,-49"/>
<text text-anchor="start" x="188.5" y="-67" font-family="Helvetica,sans-Serif" font-size="10.00">pocketmine\command</text>
<text text-anchor="middle" x="267" y="-56" font-family="Helvetica,sans-Serif" font-size="10.00">\CommandSender\sendMessage</text>
</a>
</g>
</g>
<!-- Node1&#45;&gt;Node2 -->
<g id="edge1" class="edge"><title>Node1&#45;&gt;Node2</title>
<path fill="none" stroke="midnightblue" d="M144.044,-48.2026C152.634,-49.3153 161.514,-50.4655 170.384,-51.6145"/>
<polygon fill="midnightblue" stroke="midnightblue" points="170.011,-55.0954 180.378,-52.9091 170.911,-48.1534 170.011,-55.0954"/>
</g>
<!-- Node3 -->
<g id="node3" class="node"><title>Node3</title>
<g id="a_node3"><a xlink:href="../../d6/df1/classpocketmine_1_1command_1_1_command.html#a7805631da5bffb60c7b19ce4105bb1c8" target="_top" xlink:title="pocketmine\\command\l\\Command\\testPermissionSilent">
<polygon fill="white" stroke="black" points="181.5,-0 181.5,-30 352.5,-30 352.5,-0 181.5,-0"/>
<text text-anchor="start" x="189.5" y="-18" font-family="Helvetica,sans-Serif" font-size="10.00">pocketmine\command</text>
<text text-anchor="middle" x="267" y="-7" font-family="Helvetica,sans-Serif" font-size="10.00">\Command\testPermissionSilent</text>
</a>
</g>
</g>
<!-- Node1&#45;&gt;Node3 -->
<g id="edge2" class="edge"><title>Node1&#45;&gt;Node3</title>
<path fill="none" stroke="midnightblue" d="M144.044,-30.1655C152.963,-29.0564 162.195,-27.9084 171.404,-26.7633"/>
<polygon fill="midnightblue" stroke="midnightblue" points="171.879,-30.2312 181.371,-25.5238 171.015,-23.2847 171.879,-30.2312"/>
</g>
<!-- Node4 -->
<g id="node4" class="node"><title>Node4</title>
<g id="a_node4"><a xlink:href="../../de/da0/interfacepocketmine_1_1permission_1_1_permissible.html#a0b17ec85f4333bbbc4fe759e3f16be8f" target="_top" xlink:title="pocketmine\\permission\l\\Permissible\\hasPermission">
<polygon fill="white" stroke="black" points="390.5,-0 390.5,-30 537.5,-30 537.5,-0 390.5,-0"/>
<text text-anchor="start" x="398.5" y="-18" font-family="Helvetica,sans-Serif" font-size="10.00">pocketmine\permission</text>
<text text-anchor="middle" x="464" y="-7" font-family="Helvetica,sans-Serif" font-size="10.00">\Permissible\hasPermission</text>
</a>
</g>
</g>
<!-- Node3&#45;&gt;Node4 -->
<g id="edge3" class="edge"><title>Node3&#45;&gt;Node4</title>
<path fill="none" stroke="midnightblue" d="M352.679,-15C361.79,-15 371.053,-15 380.142,-15"/>
<polygon fill="midnightblue" stroke="midnightblue" points="380.312,-18.5001 390.312,-15 380.312,-11.5001 380.312,-18.5001"/>
</g>
</g>
</svg>
