<?xml version="1.0" encoding="UTF-8" standalone="no"?>
<!DOCTYPE svg PUBLIC "-//W3C//DTD SVG 1.1//EN"
 "http://www.w3.org/Graphics/SVG/1.1/DTD/svg11.dtd">
<!-- Generated by graphviz version 2.26.3 (20100126.1600)
 -->
<!-- Title: raklib\protocol\EncapsulatedPacket\fromBinary Pages: 1 -->
<svg width="320pt" height="42pt"
 viewBox="0.00 0.00 320.00 42.00" xmlns="http://www.w3.org/2000/svg" xmlns:xlink="http://www.w3.org/1999/xlink">
<g id="graph1" class="graph" transform="scale(1 1) rotate(0) translate(4 38)">
<title>raklib\protocol\EncapsulatedPacket\fromBinary</title>
<polygon fill="white" stroke="white" points="-4,5 -4,-38 317,-38 317,5 -4,5"/>
<!-- Node1 -->
<g id="node1" class="node"><title>Node1</title>
<polygon fill="#bfbfbf" stroke="black" points="0,-0 0,-34 140,-34 140,-0 0,-0"/>
<text text-anchor="start" x="8" y="-21" font-family="Helvetica,sans-Serif" font-size="10.00">raklib\protocol\Encapsulated</text>
<text text-anchor="middle" x="70" y="-8" font-family="Helvetica,sans-Serif" font-size="10.00">Packet\fromBinary</text>
</g>
<!-- Node2 -->
<g id="node3" class="node"><title>Node2</title>
<a xlink:href="../../d2/d6e/classraklib_1_1server_1_1_server_handler.html#ac27b9238307c42c8713c7d623e3b9d4f" target="_top" xlink:title="raklib\\server\\ServerHandler\l\\handlePacket">
<polygon fill="white" stroke="black" points="176.5,-0 176.5,-34 311.5,-34 311.5,-0 176.5,-0"/>
<text text-anchor="start" x="184.5" y="-21" font-family="Helvetica,sans-Serif" font-size="10.00">raklib\server\ServerHandler</text>
<text text-anchor="middle" x="244" y="-8" font-family="Helvetica,sans-Serif" font-size="10.00">\handlePacket</text>
</a>
</g>
<!-- Node1&#45;&gt;Node2 -->
<g id="edge2" class="edge"><title>Node1&#45;&gt;Node2</title>
<path fill="none" stroke="midnightblue" d="M150.224,-17C158.971,-17 167.809,-17 176.383,-17"/>
<polygon fill="midnightblue" stroke="midnightblue" points="150.02,-13.5001 140.02,-17 150.02,-20.5001 150.02,-13.5001"/>
</g>
</g>
</svg>
