<?xml version="1.0" encoding="UTF-8" standalone="no"?>
<!DOCTYPE svg PUBLIC "-//W3C//DTD SVG 1.1//EN"
 "http://www.w3.org/Graphics/SVG/1.1/DTD/svg11.dtd">
<!-- Generated by graphviz version 2.36.0 (20140111.2315)
 -->
<!-- Title: pocketmine\event\entity\EntityDamageByBlockEvent Pages: 1 -->
<svg width="319pt" height="626pt"
 viewBox="0.00 0.00 319.00 626.00" xmlns="http://www.w3.org/2000/svg" xmlns:xlink="http://www.w3.org/1999/xlink">
<g id="graph0" class="graph" transform="scale(1 1) rotate(0) translate(4 622)">
<title>pocketmine\event\entity\EntityDamageByBlockEvent</title>
<polygon fill="white" stroke="none" points="-4,4 -4,-622 315,-622 315,4 -4,4"/>
<!-- Node1 -->
<g id="node1" class="node"><title>Node1</title>
<polygon fill="#bfbfbf" stroke="black" points="72,-1 72,-91 224,-91 224,-1 72,-1"/>
<text text-anchor="start" x="80" y="-79" font-family="Helvetica,sans-Serif" font-size="10.00">pocketmine\event\entity</text>
<text text-anchor="middle" x="148" y="-68" font-family="Helvetica,sans-Serif" font-size="10.00">\EntityDamageByBlockEvent</text>
<polyline fill="none" stroke="black" points="72,-61 224,-61 "/>
<text text-anchor="start" x="80" y="-49" font-family="Helvetica,sans-Serif" font-size="10.00">+ $eventPool</text>
<text text-anchor="start" x="80" y="-38" font-family="Helvetica,sans-Serif" font-size="10.00">+ $nextEvent</text>
<polyline fill="none" stroke="black" points="72,-31 224,-31 "/>
<text text-anchor="start" x="80" y="-19" font-family="Helvetica,sans-Serif" font-size="10.00">+ __construct()</text>
<text text-anchor="start" x="80" y="-8" font-family="Helvetica,sans-Serif" font-size="10.00">+ getDamager()</text>
</g>
<!-- Node2 -->
<g id="node2" class="node"><title>Node2</title>
<g id="a_node2"><a xlink:href="../../d5/de3/classpocketmine_1_1event_1_1entity_1_1_entity_damage_event.html" target="_top" xlink:title="{pocketmine\\event\\entity\l\\EntityDamageEvent\n|+ MODIFIER_BASE\l+ MODIFIER_ARMOR\l+ CAUSE_CONTACT\l+ CAUSE_ENTITY_ATTACK\l+ CAUSE_PROJECTILE\l+ CAUSE_SUFFOCATION\l+ CAUSE_FALL\l+ CAUSE_FIRE\l+ CAUSE_FIRE_TICK\l+ CAUSE_LAVA\land 7 more...\l+ $handlerList\l+ $eventPool\l+ $nextEvent\l|+ __construct()\l+ getCause()\l+ getOriginalDamage()\l+ getDamage()\l+ setDamage()\l+ isApplicable()\l+ getFinalDamage()\l}">
<polygon fill="white" stroke="black" points="78.5,-128.5 78.5,-405.5 217.5,-405.5 217.5,-128.5 78.5,-128.5"/>
<text text-anchor="start" x="86.5" y="-393.5" font-family="Helvetica,sans-Serif" font-size="10.00">pocketmine\event\entity</text>
<text text-anchor="middle" x="148" y="-382.5" font-family="Helvetica,sans-Serif" font-size="10.00">\EntityDamageEvent</text>
<polyline fill="none" stroke="black" points="78.5,-375.5 217.5,-375.5 "/>
<text text-anchor="start" x="86.5" y="-363.5" font-family="Helvetica,sans-Serif" font-size="10.00">+ MODIFIER_BASE</text>
<text text-anchor="start" x="86.5" y="-352.5" font-family="Helvetica,sans-Serif" font-size="10.00">+ MODIFIER_ARMOR</text>
<text text-anchor="start" x="86.5" y="-341.5" font-family="Helvetica,sans-Serif" font-size="10.00">+ CAUSE_CONTACT</text>
<text text-anchor="start" x="86.5" y="-330.5" font-family="Helvetica,sans-Serif" font-size="10.00">+ CAUSE_ENTITY_ATTACK</text>
<text text-anchor="start" x="86.5" y="-319.5" font-family="Helvetica,sans-Serif" font-size="10.00">+ CAUSE_PROJECTILE</text>
<text text-anchor="start" x="86.5" y="-308.5" font-family="Helvetica,sans-Serif" font-size="10.00">+ CAUSE_SUFFOCATION</text>
<text text-anchor="start" x="86.5" y="-297.5" font-family="Helvetica,sans-Serif" font-size="10.00">+ CAUSE_FALL</text>
<text text-anchor="start" x="86.5" y="-286.5" font-family="Helvetica,sans-Serif" font-size="10.00">+ CAUSE_FIRE</text>
<text text-anchor="start" x="86.5" y="-275.5" font-family="Helvetica,sans-Serif" font-size="10.00">+ CAUSE_FIRE_TICK</text>
<text text-anchor="start" x="86.5" y="-264.5" font-family="Helvetica,sans-Serif" font-size="10.00">+ CAUSE_LAVA</text>
<text text-anchor="start" x="86.5" y="-253.5" font-family="Helvetica,sans-Serif" font-size="10.00">and 7 more...</text>
<text text-anchor="start" x="86.5" y="-242.5" font-family="Helvetica,sans-Serif" font-size="10.00">+ $handlerList</text>
<text text-anchor="start" x="86.5" y="-231.5" font-family="Helvetica,sans-Serif" font-size="10.00">+ $eventPool</text>
<text text-anchor="start" x="86.5" y="-220.5" font-family="Helvetica,sans-Serif" font-size="10.00">+ $nextEvent</text>
<polyline fill="none" stroke="black" points="78.5,-213.5 217.5,-213.5 "/>
<text text-anchor="start" x="86.5" y="-201.5" font-family="Helvetica,sans-Serif" font-size="10.00">+ __construct()</text>
<text text-anchor="start" x="86.5" y="-190.5" font-family="Helvetica,sans-Serif" font-size="10.00">+ getCause()</text>
<text text-anchor="start" x="86.5" y="-179.5" font-family="Helvetica,sans-Serif" font-size="10.00">+ getOriginalDamage()</text>
<text text-anchor="start" x="86.5" y="-168.5" font-family="Helvetica,sans-Serif" font-size="10.00">+ getDamage()</text>
<text text-anchor="start" x="86.5" y="-157.5" font-family="Helvetica,sans-Serif" font-size="10.00">+ setDamage()</text>
<text text-anchor="start" x="86.5" y="-146.5" font-family="Helvetica,sans-Serif" font-size="10.00">+ isApplicable()</text>
<text text-anchor="start" x="86.5" y="-135.5" font-family="Helvetica,sans-Serif" font-size="10.00">+ getFinalDamage()</text>
</a>
</g>
</g>
<!-- Node2&#45;&gt;Node1 -->
<g id="edge1" class="edge"><title>Node2&#45;&gt;Node1</title>
<path fill="none" stroke="midnightblue" d="M148,-118.163C148,-108.637 148,-99.5538 148,-91.2572"/>
<polygon fill="none" stroke="midnightblue" points="144.5,-118.236 148,-128.236 151.5,-118.236 144.5,-118.236"/>
</g>
<!-- Node3 -->
<g id="node3" class="node"><title>Node3</title>
<g id="a_node3"><a xlink:href="../../de/d84/classpocketmine_1_1event_1_1entity_1_1_entity_event.html" target="_top" xlink:title="{pocketmine\\event\\entity\l\\EntityEvent\n|# $entity\l|+ getEntity()\l}">
<polygon fill="white" stroke="black" points="-0.5,-443 -0.5,-511 132.5,-511 132.5,-443 -0.5,-443"/>
<text text-anchor="start" x="7.5" y="-499" font-family="Helvetica,sans-Serif" font-size="10.00">pocketmine\event\entity</text>
<text text-anchor="middle" x="66" y="-488" font-family="Helvetica,sans-Serif" font-size="10.00">\EntityEvent</text>
<polyline fill="none" stroke="black" points="-0.5,-481 132.5,-481 "/>
<text text-anchor="start" x="7.5" y="-469" font-family="Helvetica,sans-Serif" font-size="10.00"># $entity</text>
<polyline fill="none" stroke="black" points="-0.5,-462 132.5,-462 "/>
<text text-anchor="start" x="7.5" y="-450" font-family="Helvetica,sans-Serif" font-size="10.00">+ getEntity()</text>
</a>
</g>
</g>
<!-- Node3&#45;&gt;Node2 -->
<g id="edge2" class="edge"><title>Node3&#45;&gt;Node2</title>
<path fill="none" stroke="midnightblue" d="M82.9357,-433.041C86.2766,-424.567 89.9475,-415.255 93.7918,-405.504"/>
<polygon fill="none" stroke="midnightblue" points="79.5863,-431.994 79.1747,-442.581 86.0985,-434.562 79.5863,-431.994"/>
</g>
<!-- Node4 -->
<g id="node4" class="node"><title>Node4</title>
<g id="a_node4"><a xlink:href="../../d1/d2f/classpocketmine_1_1event_1_1_event.html" target="_top" xlink:title="{pocketmine\\event\\Event\n|# $eventName\l|+ getEventName()\l+ getHandlers()\l}">
<polygon fill="white" stroke="black" points="-0.5,-549 -0.5,-617 132.5,-617 132.5,-549 -0.5,-549"/>
<text text-anchor="middle" x="66" y="-605" font-family="Helvetica,sans-Serif" font-size="10.00">pocketmine\event\Event</text>
<polyline fill="none" stroke="black" points="-0.5,-598 132.5,-598 "/>
<text text-anchor="start" x="7.5" y="-586" font-family="Helvetica,sans-Serif" font-size="10.00"># $eventName</text>
<polyline fill="none" stroke="black" points="-0.5,-579 132.5,-579 "/>
<text text-anchor="start" x="7.5" y="-567" font-family="Helvetica,sans-Serif" font-size="10.00">+ getEventName()</text>
<text text-anchor="start" x="7.5" y="-556" font-family="Helvetica,sans-Serif" font-size="10.00">+ getHandlers()</text>
</a>
</g>
</g>
<!-- Node4&#45;&gt;Node3 -->
<g id="edge3" class="edge"><title>Node4&#45;&gt;Node3</title>
<path fill="none" stroke="midnightblue" d="M66,-538.674C66,-529.502 66,-519.961 66,-511.234"/>
<polygon fill="none" stroke="midnightblue" points="62.5001,-538.808 66,-548.808 69.5001,-538.808 62.5001,-538.808"/>
</g>
<!-- Node5 -->
<g id="node5" class="node"><title>Node5</title>
<g id="a_node5"><a xlink:href="../../db/d62/interfacepocketmine_1_1event_1_1_cancellable.html" target="_top" xlink:title="{pocketmine\\event\\Cancellable\n||+ isCancelled()\l+ setCancelled()\l}">
<polygon fill="white" stroke="black" points="150.5,-443 150.5,-511 311.5,-511 311.5,-443 150.5,-443"/>
<text text-anchor="middle" x="231" y="-499" font-family="Helvetica,sans-Serif" font-size="10.00">pocketmine\event\Cancellable</text>
<polyline fill="none" stroke="black" points="150.5,-492 311.5,-492 "/>
<text text-anchor="middle" x="231" y="-480" font-family="Helvetica,sans-Serif" font-size="10.00"> </text>
<polyline fill="none" stroke="black" points="150.5,-473 311.5,-473 "/>
<text text-anchor="start" x="158.5" y="-461" font-family="Helvetica,sans-Serif" font-size="10.00">+ isCancelled()</text>
<text text-anchor="start" x="158.5" y="-450" font-family="Helvetica,sans-Serif" font-size="10.00">+ setCancelled()</text>
</a>
</g>
</g>
<!-- Node5&#45;&gt;Node2 -->
<g id="edge4" class="edge"><title>Node5&#45;&gt;Node2</title>
<path fill="none" stroke="midnightblue" d="M213.858,-433.041C210.476,-424.567 206.76,-415.255 202.869,-405.504"/>
<polygon fill="none" stroke="midnightblue" points="210.708,-434.591 217.665,-442.581 217.209,-431.996 210.708,-434.591"/>
</g>
</g>
</svg>
