<?xml version="1.0" encoding="UTF-8" standalone="no"?>
<!DOCTYPE svg PUBLIC "-//W3C//DTD SVG 1.1//EN"
 "http://www.w3.org/Graphics/SVG/1.1/DTD/svg11.dtd">
<!-- Generated by graphviz version 2.36.0 (20140111.2315)
 -->
<!-- Title: pocketmine\utils\ReversePriorityQueue Pages: 1 -->
<svg width="144pt" height="172pt"
 viewBox="0.00 0.00 144.00 172.00" xmlns="http://www.w3.org/2000/svg" xmlns:xlink="http://www.w3.org/1999/xlink">
<g id="graph0" class="graph" transform="scale(1 1) rotate(0) translate(4 168)">
<title>pocketmine\utils\ReversePriorityQueue</title>
<polygon fill="white" stroke="none" points="-4,4 -4,-168 140,-168 140,4 -4,4"/>
<!-- Node1 -->
<g id="node1" class="node"><title>Node1</title>
<polygon fill="#bfbfbf" stroke="black" points="0,-1 0,-69 136,-69 136,-1 0,-1"/>
<text text-anchor="start" x="8" y="-57" font-family="Helvetica,sans-Serif" font-size="10.00">pocketmine\utils\Reverse</text>
<text text-anchor="middle" x="68" y="-46" font-family="Helvetica,sans-Serif" font-size="10.00">PriorityQueue</text>
<polyline fill="none" stroke="black" points="0,-39 136,-39 "/>
<text text-anchor="middle" x="68" y="-27" font-family="Helvetica,sans-Serif" font-size="10.00"> </text>
<polyline fill="none" stroke="black" points="0,-20 136,-20 "/>
<text text-anchor="start" x="8" y="-8" font-family="Helvetica,sans-Serif" font-size="10.00">+ compare()</text>
</g>
<!-- Node2 -->
<g id="node2" class="node"><title>Node2</title>
<polygon fill="white" stroke="#bfbfbf" points="20,-106.5 20,-163.5 116,-163.5 116,-106.5 20,-106.5"/>
<text text-anchor="middle" x="68" y="-151.5" font-family="Helvetica,sans-Serif" font-size="10.00">SplPriorityQueue</text>
<polyline fill="none" stroke="#bfbfbf" points="20,-144.5 116,-144.5 "/>
<text text-anchor="middle" x="68" y="-132.5" font-family="Helvetica,sans-Serif" font-size="10.00"> </text>
<polyline fill="none" stroke="#bfbfbf" points="20,-125.5 116,-125.5 "/>
<text text-anchor="middle" x="68" y="-113.5" font-family="Helvetica,sans-Serif" font-size="10.00"> </text>
</g>
<!-- Node2&#45;&gt;Node1 -->
<g id="edge1" class="edge"><title>Node2&#45;&gt;Node1</title>
<path fill="none" stroke="midnightblue" d="M68,-96.3023C68,-87.3951 68,-77.9608 68,-69.2659"/>
<polygon fill="none" stroke="midnightblue" points="64.5001,-96.4407 68,-106.441 71.5001,-96.4408 64.5001,-96.4407"/>
</g>
</g>
</svg>
