<?xml version="1.0" encoding="UTF-8" standalone="no"?>
<!DOCTYPE svg PUBLIC "-//W3C//DTD SVG 1.1//EN"
 "http://www.w3.org/Graphics/SVG/1.1/DTD/svg11.dtd">
<!-- Generated by graphviz version 2.26.3 (20100126.1600)
 -->
<!-- Title: pocketmine\event\entity\EntityExplodeEvent Pages: 1 -->
<svg width="295pt" height="444pt"
 viewBox="0.00 0.00 295.00 444.00" xmlns="http://www.w3.org/2000/svg" xmlns:xlink="http://www.w3.org/1999/xlink">
<g id="graph1" class="graph" transform="scale(1 1) rotate(0) translate(4 440)">
<title>pocketmine\event\entity\EntityExplodeEvent</title>
<polygon fill="white" stroke="white" points="-4,5 -4,-440 292,-440 292,5 -4,5"/>
<!-- Node1 -->
<g id="node1" class="node"><title>Node1</title>
<polygon fill="#bfbfbf" stroke="black" points="76.5,-1 76.5,-181 197.5,-181 197.5,-1 76.5,-1"/>
<text text-anchor="start" x="84.5" y="-168" font-family="Helvetica,sans-Serif" font-size="10.00">pocketmine\event\entity</text>
<text text-anchor="middle" x="137" y="-155" font-family="Helvetica,sans-Serif" font-size="10.00">\EntityExplodeEvent</text>
<polyline fill="none" stroke="black" points="76.5,-147 197.5,-147 "/>
<text text-anchor="start" x="84.5" y="-134" font-family="Helvetica,sans-Serif" font-size="10.00">+ $handlerList</text>
<text text-anchor="start" x="84.5" y="-121" font-family="Helvetica,sans-Serif" font-size="10.00"># $position</text>
<text text-anchor="start" x="84.5" y="-108" font-family="Helvetica,sans-Serif" font-size="10.00"># $blocks</text>
<text text-anchor="start" x="84.5" y="-95" font-family="Helvetica,sans-Serif" font-size="10.00"># $yield</text>
<polyline fill="none" stroke="black" points="76.5,-87 197.5,-87 "/>
<text text-anchor="start" x="84.5" y="-74" font-family="Helvetica,sans-Serif" font-size="10.00">+ __construct()</text>
<text text-anchor="start" x="84.5" y="-61" font-family="Helvetica,sans-Serif" font-size="10.00">+ getPosition()</text>
<text text-anchor="start" x="84.5" y="-48" font-family="Helvetica,sans-Serif" font-size="10.00">+ getBlockList()</text>
<text text-anchor="start" x="84.5" y="-35" font-family="Helvetica,sans-Serif" font-size="10.00">+ setBlockList()</text>
<text text-anchor="start" x="84.5" y="-22" font-family="Helvetica,sans-Serif" font-size="10.00">+ getYield()</text>
<text text-anchor="start" x="84.5" y="-9" font-family="Helvetica,sans-Serif" font-size="10.00">+ setYield()</text>
</g>
<!-- Node2 -->
<g id="node2" class="node"><title>Node2</title>
<a xlink:href="../../de/d84/classpocketmine_1_1event_1_1entity_1_1_entity_event.html" target="_top" xlink:title="{pocketmine\\event\\entity\l\\EntityEvent\n|# $entity\l|+ getEntity()\l}">
<polygon fill="white" stroke="black" points="0.5,-219 0.5,-295 121.5,-295 121.5,-219 0.5,-219"/>
<text text-anchor="start" x="8.5" y="-282" font-family="Helvetica,sans-Serif" font-size="10.00">pocketmine\event\entity</text>
<text text-anchor="middle" x="61" y="-269" font-family="Helvetica,sans-Serif" font-size="10.00">\EntityEvent</text>
<polyline fill="none" stroke="black" points="0.5,-261 121.5,-261 "/>
<text text-anchor="start" x="8.5" y="-248" font-family="Helvetica,sans-Serif" font-size="10.00"># $entity</text>
<polyline fill="none" stroke="black" points="0.5,-240 121.5,-240 "/>
<text text-anchor="start" x="8.5" y="-227" font-family="Helvetica,sans-Serif" font-size="10.00">+ getEntity()</text>
</a>
</g>
<!-- Node2&#45;&gt;Node1 -->
<g id="edge2" class="edge"><title>Node2&#45;&gt;Node1</title>
<path fill="none" stroke="midnightblue" d="M82.6062,-209.808C86.7288,-200.803 91.17,-191.102 95.6739,-181.265"/>
<polygon fill="none" stroke="midnightblue" points="79.4164,-208.367 78.4359,-218.916 85.7811,-211.281 79.4164,-208.367"/>
</g>
<!-- Node3 -->
<g id="node4" class="node"><title>Node3</title>
<a xlink:href="../../d1/d2f/classpocketmine_1_1event_1_1_event.html" target="_top" xlink:title="{pocketmine\\event\\Event\n|# $eventName\l|+ getEventName()\l+ isCancelled()\l+ setCancelled()\l+ getHandlers()\l}">
<polygon fill="white" stroke="black" points="0,-333 0,-435 122,-435 122,-333 0,-333"/>
<text text-anchor="middle" x="61" y="-422" font-family="Helvetica,sans-Serif" font-size="10.00">pocketmine\event\Event</text>
<polyline fill="none" stroke="black" points="0,-414 122,-414 "/>
<text text-anchor="start" x="8" y="-401" font-family="Helvetica,sans-Serif" font-size="10.00"># $eventName</text>
<polyline fill="none" stroke="black" points="0,-393 122,-393 "/>
<text text-anchor="start" x="8" y="-380" font-family="Helvetica,sans-Serif" font-size="10.00">+ getEventName()</text>
<text text-anchor="start" x="8" y="-367" font-family="Helvetica,sans-Serif" font-size="10.00">+ isCancelled()</text>
<text text-anchor="start" x="8" y="-354" font-family="Helvetica,sans-Serif" font-size="10.00">+ setCancelled()</text>
<text text-anchor="start" x="8" y="-341" font-family="Helvetica,sans-Serif" font-size="10.00">+ getHandlers()</text>
</a>
</g>
<!-- Node3&#45;&gt;Node2 -->
<g id="edge4" class="edge"><title>Node3&#45;&gt;Node2</title>
<path fill="none" stroke="midnightblue" d="M61,-322.625C61,-313.273 61,-303.859 61,-295.197"/>
<polygon fill="none" stroke="midnightblue" points="57.5001,-322.71 61,-332.71 64.5001,-322.71 57.5001,-322.71"/>
</g>
<!-- Node4 -->
<g id="node6" class="node"><title>Node4</title>
<a xlink:href="../../db/d62/interfacepocketmine_1_1event_1_1_cancellable.html" target="_top" xlink:title="{pocketmine\\event\\Cancellable\n||+ isCancelled()\l+ setCancelled()\l}">
<polygon fill="white" stroke="black" points="139,-219 139,-295 287,-295 287,-219 139,-219"/>
<text text-anchor="middle" x="213" y="-282" font-family="Helvetica,sans-Serif" font-size="10.00">pocketmine\event\Cancellable</text>
<polyline fill="none" stroke="black" points="139,-274 287,-274 "/>
<text text-anchor="middle" x="213" y="-261" font-family="Helvetica,sans-Serif" font-size="10.00"> </text>
<polyline fill="none" stroke="black" points="139,-253 287,-253 "/>
<text text-anchor="start" x="147" y="-240" font-family="Helvetica,sans-Serif" font-size="10.00">+ isCancelled()</text>
<text text-anchor="start" x="147" y="-227" font-family="Helvetica,sans-Serif" font-size="10.00">+ setCancelled()</text>
</a>
</g>
<!-- Node4&#45;&gt;Node1 -->
<g id="edge6" class="edge"><title>Node4&#45;&gt;Node1</title>
<path fill="none" stroke="midnightblue" d="M191.394,-209.808C187.271,-200.803 182.83,-191.102 178.326,-181.265"/>
<polygon fill="none" stroke="midnightblue" points="188.219,-211.281 195.564,-218.916 194.584,-208.367 188.219,-211.281"/>
</g>
</g>
</svg>
