<?xml version="1.0" encoding="UTF-8" standalone="no"?>
<!DOCTYPE svg PUBLIC "-//W3C//DTD SVG 1.1//EN"
 "http://www.w3.org/Graphics/SVG/1.1/DTD/svg11.dtd">
<!-- Generated by graphviz version 2.26.3 (20100126.1600)
 -->
<!-- Title: G Pages: 1 -->
<svg width="234pt" height="354pt"
 viewBox="0.00 0.00 234.00 354.00" xmlns="http://www.w3.org/2000/svg" xmlns:xlink="http://www.w3.org/1999/xlink">
<g id="graph1" class="graph" transform="scale(1 1) rotate(0) translate(4 350)">
<title>G</title>
<polygon fill="white" stroke="white" points="-4,5 -4,-350 231,-350 231,5 -4,5"/>
<!-- Node1 -->
<g id="node1" class="node"><title>Node1</title>
<polygon fill="#bfbfbf" stroke="black" points="48.5,-0.5 48.5,-115.5 185.5,-115.5 185.5,-0.5 48.5,-0.5"/>
<text text-anchor="middle" x="117" y="-102.5" font-family="Helvetica,sans-Serif" font-size="10.00">ThreadedLoggerAttachment</text>
<polyline fill="none" stroke="black" points="48.5,-94.5 185.5,-94.5 "/>
<text text-anchor="start" x="56.5" y="-81.5" font-family="Helvetica,sans-Serif" font-size="10.00"># $attachment</text>
<polyline fill="none" stroke="black" points="48.5,-73.5 185.5,-73.5 "/>
<text text-anchor="start" x="56.5" y="-60.5" font-family="Helvetica,sans-Serif" font-size="10.00">+ call()</text>
<text text-anchor="start" x="56.5" y="-47.5" font-family="Helvetica,sans-Serif" font-size="10.00">+ addAttachment()</text>
<text text-anchor="start" x="56.5" y="-34.5" font-family="Helvetica,sans-Serif" font-size="10.00">+ removeAttachment()</text>
<text text-anchor="start" x="56.5" y="-21.5" font-family="Helvetica,sans-Serif" font-size="10.00">+ removeAttachments()</text>
<text text-anchor="start" x="56.5" y="-8.5" font-family="Helvetica,sans-Serif" font-size="10.00">+ getAttachments()</text>
</g>
<!-- Node2 -->
<g id="node2" class="node"><title>Node2</title>
<a xlink:href="../../d0/d82/class_threaded.html" target="_top" xlink:title="{Threaded\n||+ chunk()\l+ count()\l+ getTerminationInfo()\l+ isRunning()\l+ isTerminated()\l+ isWaiting()\l+ lock()\l+ merge()\l+ notify()\l+ offsetGet()\land 8 more...}">
<polygon fill="white" stroke="black" points="-0.5,-152.5 -0.5,-345.5 112.5,-345.5 112.5,-152.5 -0.5,-152.5"/>
<text text-anchor="middle" x="56" y="-332.5" font-family="Helvetica,sans-Serif" font-size="10.00">Threaded</text>
<polyline fill="none" stroke="black" points="-0.5,-324.5 112.5,-324.5 "/>
<text text-anchor="middle" x="56" y="-311.5" font-family="Helvetica,sans-Serif" font-size="10.00"> </text>
<polyline fill="none" stroke="black" points="-0.5,-303.5 112.5,-303.5 "/>
<text text-anchor="start" x="7.5" y="-290.5" font-family="Helvetica,sans-Serif" font-size="10.00">+ chunk()</text>
<text text-anchor="start" x="7.5" y="-277.5" font-family="Helvetica,sans-Serif" font-size="10.00">+ count()</text>
<text text-anchor="start" x="7.5" y="-264.5" font-family="Helvetica,sans-Serif" font-size="10.00">+ getTerminationInfo()</text>
<text text-anchor="start" x="7.5" y="-251.5" font-family="Helvetica,sans-Serif" font-size="10.00">+ isRunning()</text>
<text text-anchor="start" x="7.5" y="-238.5" font-family="Helvetica,sans-Serif" font-size="10.00">+ isTerminated()</text>
<text text-anchor="start" x="7.5" y="-225.5" font-family="Helvetica,sans-Serif" font-size="10.00">+ isWaiting()</text>
<text text-anchor="start" x="7.5" y="-212.5" font-family="Helvetica,sans-Serif" font-size="10.00">+ lock()</text>
<text text-anchor="start" x="7.5" y="-199.5" font-family="Helvetica,sans-Serif" font-size="10.00">+ merge()</text>
<text text-anchor="start" x="7.5" y="-186.5" font-family="Helvetica,sans-Serif" font-size="10.00">+ notify()</text>
<text text-anchor="start" x="7.5" y="-173.5" font-family="Helvetica,sans-Serif" font-size="10.00">+ offsetGet()</text>
<text text-anchor="middle" x="56" y="-160.5" font-family="Helvetica,sans-Serif" font-size="10.00">and 8 more...</text>
</a>
</g>
<!-- Node2&#45;&gt;Node1 -->
<g id="edge2" class="edge"><title>Node2&#45;&gt;Node1</title>
<path fill="none" stroke="midnightblue" d="M89.9593,-142.668C92.9252,-133.382 95.8468,-124.234 98.6101,-115.582"/>
<polygon fill="none" stroke="midnightblue" points="86.5657,-141.79 86.8574,-152.381 93.2339,-143.92 86.5657,-141.79"/>
</g>
<!-- Node3 -->
<g id="node4" class="node"><title>Node3</title>
<a xlink:href="../../d9/d7d/interface_logger_attachment.html" target="_top" xlink:title="{LoggerAttachment\n||+ log()\l}">
<polygon fill="white" stroke="black" points="130,-217.5 130,-280.5 226,-280.5 226,-217.5 130,-217.5"/>
<text text-anchor="middle" x="178" y="-267.5" font-family="Helvetica,sans-Serif" font-size="10.00">LoggerAttachment</text>
<polyline fill="none" stroke="black" points="130,-259.5 226,-259.5 "/>
<text text-anchor="middle" x="178" y="-246.5" font-family="Helvetica,sans-Serif" font-size="10.00"> </text>
<polyline fill="none" stroke="black" points="130,-238.5 226,-238.5 "/>
<text text-anchor="start" x="138" y="-225.5" font-family="Helvetica,sans-Serif" font-size="10.00">+ log()</text>
</a>
</g>
<!-- Node3&#45;&gt;Node1 -->
<g id="edge4" class="edge"><title>Node3&#45;&gt;Node1</title>
<path fill="none" stroke="midnightblue" d="M164.785,-207.622C156.215,-180.787 144.926,-145.44 135.473,-115.841"/>
<polygon fill="none" stroke="midnightblue" points="161.551,-208.999 167.927,-217.46 168.219,-206.869 161.551,-208.999"/>
</g>
</g>
</svg>
