<?xml version="1.0" encoding="UTF-8" standalone="no"?>
<!DOCTYPE svg PUBLIC "-//W3C//DTD SVG 1.1//EN"
 "http://www.w3.org/Graphics/SVG/1.1/DTD/svg11.dtd">
<!-- Generated by graphviz version 2.36.0 (20140111.2315)
 -->
<!-- Title: pocketmine\command\defaults\TellCommand Pages: 1 -->
<svg width="182pt" height="486pt"
 viewBox="0.00 0.00 182.00 486.00" xmlns="http://www.w3.org/2000/svg" xmlns:xlink="http://www.w3.org/1999/xlink">
<g id="graph0" class="graph" transform="scale(1 1) rotate(0) translate(4 482)">
<title>pocketmine\command\defaults\TellCommand</title>
<polygon fill="white" stroke="none" points="-4,4 -4,-482 178,-482 178,4 -4,4"/>
<!-- Node1 -->
<g id="node1" class="node"><title>Node1</title>
<polygon fill="#bfbfbf" stroke="black" points="24.5,-0.5 24.5,-79.5 149.5,-79.5 149.5,-0.5 24.5,-0.5"/>
<text text-anchor="start" x="32.5" y="-67.5" font-family="Helvetica,sans-Serif" font-size="10.00">pocketmine\command</text>
<text text-anchor="middle" x="87" y="-56.5" font-family="Helvetica,sans-Serif" font-size="10.00">\defaults\TellCommand</text>
<polyline fill="none" stroke="black" points="24.5,-49.5 149.5,-49.5 "/>
<text text-anchor="middle" x="87" y="-37.5" font-family="Helvetica,sans-Serif" font-size="10.00"> </text>
<polyline fill="none" stroke="black" points="24.5,-30.5 149.5,-30.5 "/>
<text text-anchor="start" x="32.5" y="-18.5" font-family="Helvetica,sans-Serif" font-size="10.00">+ __construct()</text>
<text text-anchor="start" x="32.5" y="-7.5" font-family="Helvetica,sans-Serif" font-size="10.00">+ execute()</text>
</g>
<!-- Node2 -->
<g id="node2" class="node"><title>Node2</title>
<g id="a_node2"><a xlink:href="../../d5/dfa/classpocketmine_1_1command_1_1defaults_1_1_vanilla_command.html" target="_top" xlink:title="{pocketmine\\command\l\\defaults\\VanillaCommand\n|+ MAX_COORD\l+ MIN_COORD\l|+ __construct()\l# getInteger()\l# getRelativeDouble()\l# getDouble()\l}">
<polygon fill="white" stroke="black" points="16,-117 16,-229 158,-229 158,-117 16,-117"/>
<text text-anchor="start" x="24" y="-217" font-family="Helvetica,sans-Serif" font-size="10.00">pocketmine\command</text>
<text text-anchor="middle" x="87" y="-206" font-family="Helvetica,sans-Serif" font-size="10.00">\defaults\VanillaCommand</text>
<polyline fill="none" stroke="black" points="16,-199 158,-199 "/>
<text text-anchor="start" x="24" y="-187" font-family="Helvetica,sans-Serif" font-size="10.00">+ MAX_COORD</text>
<text text-anchor="start" x="24" y="-176" font-family="Helvetica,sans-Serif" font-size="10.00">+ MIN_COORD</text>
<polyline fill="none" stroke="black" points="16,-169 158,-169 "/>
<text text-anchor="start" x="24" y="-157" font-family="Helvetica,sans-Serif" font-size="10.00">+ __construct()</text>
<text text-anchor="start" x="24" y="-146" font-family="Helvetica,sans-Serif" font-size="10.00"># getInteger()</text>
<text text-anchor="start" x="24" y="-135" font-family="Helvetica,sans-Serif" font-size="10.00"># getRelativeDouble()</text>
<text text-anchor="start" x="24" y="-124" font-family="Helvetica,sans-Serif" font-size="10.00"># getDouble()</text>
</a>
</g>
</g>
<!-- Node2&#45;&gt;Node1 -->
<g id="edge1" class="edge"><title>Node2&#45;&gt;Node1</title>
<path fill="none" stroke="midnightblue" d="M87,-106.537C87,-97.3924 87,-88.2465 87,-79.8127"/>
<polygon fill="none" stroke="midnightblue" points="83.5001,-106.824 87,-116.824 90.5001,-106.824 83.5001,-106.824"/>
</g>
<!-- Node3 -->
<g id="node3" class="node"><title>Node3</title>
<g id="a_node3"><a xlink:href="../../d6/df1/classpocketmine_1_1command_1_1_command.html" target="_top" xlink:title="{pocketmine\\command\l\\Command\n|+ $timings\l# $description\l# $usageMessage\l|+ __construct()\l+ execute()\l+ getName()\l+ getPermission()\l+ setPermission()\l+ testPermission()\l+ testPermissionSilent()\l+ getLabel()\l+ setLabel()\l+ register()\land 11 more...\l+ broadcastCommandMessage()\l}">
<polygon fill="white" stroke="black" points="-1,-266.5 -1,-477.5 175,-477.5 175,-266.5 -1,-266.5"/>
<text text-anchor="start" x="7" y="-465.5" font-family="Helvetica,sans-Serif" font-size="10.00">pocketmine\command</text>
<text text-anchor="middle" x="87" y="-454.5" font-family="Helvetica,sans-Serif" font-size="10.00">\Command</text>
<polyline fill="none" stroke="black" points="-1,-447.5 175,-447.5 "/>
<text text-anchor="start" x="7" y="-435.5" font-family="Helvetica,sans-Serif" font-size="10.00">+ $timings</text>
<text text-anchor="start" x="7" y="-424.5" font-family="Helvetica,sans-Serif" font-size="10.00"># $description</text>
<text text-anchor="start" x="7" y="-413.5" font-family="Helvetica,sans-Serif" font-size="10.00"># $usageMessage</text>
<polyline fill="none" stroke="black" points="-1,-406.5 175,-406.5 "/>
<text text-anchor="start" x="7" y="-394.5" font-family="Helvetica,sans-Serif" font-size="10.00">+ __construct()</text>
<text text-anchor="start" x="7" y="-383.5" font-family="Helvetica,sans-Serif" font-size="10.00">+ execute()</text>
<text text-anchor="start" x="7" y="-372.5" font-family="Helvetica,sans-Serif" font-size="10.00">+ getName()</text>
<text text-anchor="start" x="7" y="-361.5" font-family="Helvetica,sans-Serif" font-size="10.00">+ getPermission()</text>
<text text-anchor="start" x="7" y="-350.5" font-family="Helvetica,sans-Serif" font-size="10.00">+ setPermission()</text>
<text text-anchor="start" x="7" y="-339.5" font-family="Helvetica,sans-Serif" font-size="10.00">+ testPermission()</text>
<text text-anchor="start" x="7" y="-328.5" font-family="Helvetica,sans-Serif" font-size="10.00">+ testPermissionSilent()</text>
<text text-anchor="start" x="7" y="-317.5" font-family="Helvetica,sans-Serif" font-size="10.00">+ getLabel()</text>
<text text-anchor="start" x="7" y="-306.5" font-family="Helvetica,sans-Serif" font-size="10.00">+ setLabel()</text>
<text text-anchor="start" x="7" y="-295.5" font-family="Helvetica,sans-Serif" font-size="10.00">+ register()</text>
<text text-anchor="start" x="7" y="-284.5" font-family="Helvetica,sans-Serif" font-size="10.00">and 11 more...</text>
<text text-anchor="start" x="7" y="-273.5" font-family="Helvetica,sans-Serif" font-size="10.00">+ broadcastCommandMessage()</text>
</a>
</g>
</g>
<!-- Node3&#45;&gt;Node2 -->
<g id="edge2" class="edge"><title>Node3&#45;&gt;Node2</title>
<path fill="none" stroke="midnightblue" d="M87,-256.215C87,-246.848 87,-237.682 87,-229.07"/>
<polygon fill="none" stroke="midnightblue" points="83.5001,-256.443 87,-266.443 90.5001,-256.443 83.5001,-256.443"/>
</g>
</g>
</svg>
