<?xml version="1.0" encoding="UTF-8" standalone="no"?>
<!DOCTYPE svg PUBLIC "-//W3C//DTD SVG 1.1//EN"
 "http://www.w3.org/Graphics/SVG/1.1/DTD/svg11.dtd">
<!-- Generated by graphviz version 2.36.0 (20140111.2315)
 -->
<!-- Title: pocketmine\command\SimpleCommandMap\getCommand Pages: 1 -->
<svg width="404pt" height="97pt"
 viewBox="0.00 0.00 404.00 97.00" xmlns="http://www.w3.org/2000/svg" xmlns:xlink="http://www.w3.org/1999/xlink">
<g id="graph0" class="graph" transform="scale(1 1) rotate(0) translate(4 93)">
<title>pocketmine\command\SimpleCommandMap\getCommand</title>
<polygon fill="white" stroke="none" points="-4,4 -4,-93 400,-93 400,4 -4,4"/>
<!-- Node1 -->
<g id="node1" class="node"><title>Node1</title>
<polygon fill="#bfbfbf" stroke="black" points="0,-32 0,-62 192,-62 192,-32 0,-32"/>
<text text-anchor="start" x="8" y="-50" font-family="Helvetica,sans-Serif" font-size="10.00">pocketmine\command</text>
<text text-anchor="middle" x="96" y="-39" font-family="Helvetica,sans-Serif" font-size="10.00">\SimpleCommandMap\getCommand</text>
</g>
<!-- Node2 -->
<g id="node2" class="node"><title>Node2</title>
<g id="a_node2"><a xlink:href="../../d9/dce/classpocketmine_1_1command_1_1_simple_command_map.html#a9a281c05b213ede1c92da2aa452ae338" target="_top" xlink:title="pocketmine\\command\l\\SimpleCommandMap\\dispatch">
<polygon fill="white" stroke="black" points="228.5,-59 228.5,-89 395.5,-89 395.5,-59 228.5,-59"/>
<text text-anchor="start" x="236.5" y="-77" font-family="Helvetica,sans-Serif" font-size="10.00">pocketmine\command</text>
<text text-anchor="middle" x="312" y="-66" font-family="Helvetica,sans-Serif" font-size="10.00">\SimpleCommandMap\dispatch</text>
</a>
</g>
</g>
<!-- Node1&#45;&gt;Node2 -->
<g id="edge1" class="edge"><title>Node1&#45;&gt;Node2</title>
<path fill="none" stroke="midnightblue" d="M202.032,-60.2518C210.839,-61.3629 219.663,-62.4762 228.267,-63.5617"/>
<polygon fill="midnightblue" stroke="midnightblue" points="202.469,-56.7792 192.11,-58.9998 201.593,-63.7241 202.469,-56.7792"/>
</g>
<!-- Node3 -->
<g id="node3" class="node"><title>Node3</title>
<g id="a_node3"><a xlink:href="../../d9/dce/classpocketmine_1_1command_1_1_simple_command_map.html#ab0b0a76f03cad6e7203e5e84e700a5f3" target="_top" xlink:title="pocketmine\\command\l\\SimpleCommandMap\\register\lServerAliases">
<polygon fill="white" stroke="black" points="230.5,0.5 230.5,-40.5 393.5,-40.5 393.5,0.5 230.5,0.5"/>
<text text-anchor="start" x="238.5" y="-28.5" font-family="Helvetica,sans-Serif" font-size="10.00">pocketmine\command</text>
<text text-anchor="start" x="238.5" y="-17.5" font-family="Helvetica,sans-Serif" font-size="10.00">\SimpleCommandMap\register</text>
<text text-anchor="middle" x="312" y="-6.5" font-family="Helvetica,sans-Serif" font-size="10.00">ServerAliases</text>
</a>
</g>
</g>
<!-- Node1&#45;&gt;Node3 -->
<g id="edge2" class="edge"><title>Node1&#45;&gt;Node3</title>
<path fill="none" stroke="midnightblue" d="M202.285,-33.7164C211.681,-32.5309 221.095,-31.3432 230.236,-30.1898"/>
<polygon fill="midnightblue" stroke="midnightblue" points="201.593,-30.2759 192.11,-35.0002 202.469,-37.2208 201.593,-30.2759"/>
</g>
</g>
</svg>
