<?xml version="1.0" encoding="UTF-8" standalone="no"?>
<!DOCTYPE svg PUBLIC "-//W3C//DTD SVG 1.1//EN"
 "http://www.w3.org/Graphics/SVG/1.1/DTD/svg11.dtd">
<!-- Generated by graphviz version 2.36.0 (20140111.2315)
 -->
<!-- Title: pocketmine\command\SimpleCommandMap\dispatch Pages: 1 -->
<svg width="404pt" height="87pt"
 viewBox="0.00 0.00 404.00 87.00" xmlns="http://www.w3.org/2000/svg" xmlns:xlink="http://www.w3.org/1999/xlink">
<g id="graph0" class="graph" transform="scale(1 1) rotate(0) translate(4 83)">
<title>pocketmine\command\SimpleCommandMap\dispatch</title>
<polygon fill="white" stroke="none" points="-4,4 -4,-83 400,-83 400,4 -4,4"/>
<!-- Node1 -->
<g id="node1" class="node"><title>Node1</title>
<polygon fill="#bfbfbf" stroke="black" points="0.5,-24 0.5,-54 167.5,-54 167.5,-24 0.5,-24"/>
<text text-anchor="start" x="8.5" y="-42" font-family="Helvetica,sans-Serif" font-size="10.00">pocketmine\command</text>
<text text-anchor="middle" x="84" y="-31" font-family="Helvetica,sans-Serif" font-size="10.00">\SimpleCommandMap\dispatch</text>
</g>
<!-- Node2 -->
<g id="node2" class="node"><title>Node2</title>
<g id="a_node2"><a xlink:href="../../d9/dce/classpocketmine_1_1command_1_1_simple_command_map.html#a28023f90e3629ea5fb2ab1d421fa2d15" target="_top" xlink:title="pocketmine\\command\l\\SimpleCommandMap\\getCommand">
<polygon fill="white" stroke="black" points="204,-49 204,-79 396,-79 396,-49 204,-49"/>
<text text-anchor="start" x="212" y="-67" font-family="Helvetica,sans-Serif" font-size="10.00">pocketmine\command</text>
<text text-anchor="middle" x="300" y="-56" font-family="Helvetica,sans-Serif" font-size="10.00">\SimpleCommandMap\getCommand</text>
</a>
</g>
</g>
<!-- Node1&#45;&gt;Node2 -->
<g id="edge1" class="edge"><title>Node1&#45;&gt;Node2</title>
<path fill="none" stroke="midnightblue" d="M167.738,-48.6657C176.192,-49.6532 184.859,-50.6657 193.512,-51.6767"/>
<polygon fill="midnightblue" stroke="midnightblue" points="193.313,-55.1771 203.652,-52.8612 194.125,-48.2244 193.313,-55.1771"/>
</g>
<!-- Node3 -->
<g id="node3" class="node"><title>Node3</title>
<g id="a_node3"><a xlink:href="../../d6/d9d/interfacepocketmine_1_1command_1_1_command_sender.html#a8bb53bed657cba2c76d0d9402bffe292" target="_top" xlink:title="pocketmine\\command\l\\CommandSender\\getServer">
<polygon fill="white" stroke="black" points="222.5,-0 222.5,-30 377.5,-30 377.5,-0 222.5,-0"/>
<text text-anchor="start" x="230.5" y="-18" font-family="Helvetica,sans-Serif" font-size="10.00">pocketmine\command</text>
<text text-anchor="middle" x="300" y="-7" font-family="Helvetica,sans-Serif" font-size="10.00">\CommandSender\getServer</text>
</a>
</g>
</g>
<!-- Node1&#45;&gt;Node3 -->
<g id="edge2" class="edge"><title>Node1&#45;&gt;Node3</title>
<path fill="none" stroke="midnightblue" d="M167.738,-29.721C182.359,-28.0812 197.618,-26.3699 212.344,-24.7184"/>
<polygon fill="midnightblue" stroke="midnightblue" points="212.891,-28.1791 222.439,-23.5863 212.111,-21.2227 212.891,-28.1791"/>
</g>
</g>
</svg>
