<?xml version="1.0" encoding="UTF-8" standalone="no"?>
<!DOCTYPE svg PUBLIC "-//W3C//DTD SVG 1.1//EN"
 "http://www.w3.org/Graphics/SVG/1.1/DTD/svg11.dtd">
<!-- Generated by graphviz version 2.36.0 (20140111.2315)
 -->
<!-- Title: pocketmine\utils\ServerException Pages: 1 -->
<svg width="182pt" height="160pt"
 viewBox="0.00 0.00 182.00 160.00" xmlns="http://www.w3.org/2000/svg" xmlns:xlink="http://www.w3.org/1999/xlink">
<g id="graph0" class="graph" transform="scale(1 1) rotate(0) translate(4 156)">
<title>pocketmine\utils\ServerException</title>
<polygon fill="white" stroke="none" points="-4,4 -4,-156 178,-156 178,4 -4,4"/>
<!-- Node1 -->
<g id="node1" class="node"><title>Node1</title>
<polygon fill="#bfbfbf" stroke="black" points="-1,-0.5 -1,-57.5 175,-57.5 175,-0.5 -1,-0.5"/>
<text text-anchor="middle" x="87" y="-45.5" font-family="Helvetica,sans-Serif" font-size="10.00">pocketmine\utils\ServerException</text>
<polyline fill="none" stroke="black" points="-1,-38.5 175,-38.5 "/>
<text text-anchor="middle" x="87" y="-26.5" font-family="Helvetica,sans-Serif" font-size="10.00"> </text>
<polyline fill="none" stroke="black" points="-1,-19.5 175,-19.5 "/>
<text text-anchor="middle" x="87" y="-7.5" font-family="Helvetica,sans-Serif" font-size="10.00"> </text>
</g>
<!-- Node2 -->
<g id="node2" class="node"><title>Node2</title>
<polygon fill="white" stroke="#bfbfbf" points="36,-94.5 36,-151.5 138,-151.5 138,-94.5 36,-94.5"/>
<text text-anchor="middle" x="87" y="-139.5" font-family="Helvetica,sans-Serif" font-size="10.00">RuntimeException</text>
<polyline fill="none" stroke="#bfbfbf" points="36,-132.5 138,-132.5 "/>
<text text-anchor="middle" x="87" y="-120.5" font-family="Helvetica,sans-Serif" font-size="10.00"> </text>
<polyline fill="none" stroke="#bfbfbf" points="36,-113.5 138,-113.5 "/>
<text text-anchor="middle" x="87" y="-101.5" font-family="Helvetica,sans-Serif" font-size="10.00"> </text>
</g>
<!-- Node2&#45;&gt;Node1 -->
<g id="edge1" class="edge"><title>Node2&#45;&gt;Node1</title>
<path fill="none" stroke="midnightblue" d="M87,-84.2092C87,-75.2929 87,-65.9513 87,-57.5836"/>
<polygon fill="none" stroke="midnightblue" points="83.5001,-84.3969 87,-94.397 90.5001,-84.397 83.5001,-84.3969"/>
</g>
</g>
</svg>
