<?xml version="1.0" encoding="UTF-8" standalone="no"?>
<!DOCTYPE svg PUBLIC "-//W3C//DTD SVG 1.1//EN"
 "http://www.w3.org/Graphics/SVG/1.1/DTD/svg11.dtd">
<!-- Generated by graphviz version 2.26.3 (20100126.1600)
 -->
<!-- Title: pocketmine\scheduler\ServerScheduler\cancelTasks Pages: 1 -->
<svg width="308pt" height="42pt"
 viewBox="0.00 0.00 308.00 42.00" xmlns="http://www.w3.org/2000/svg" xmlns:xlink="http://www.w3.org/1999/xlink">
<g id="graph1" class="graph" transform="scale(1 1) rotate(0) translate(4 38)">
<title>pocketmine\scheduler\ServerScheduler\cancelTasks</title>
<polygon fill="white" stroke="white" points="-4,5 -4,-38 305,-38 305,5 -4,5"/>
<!-- Node1 -->
<g id="node1" class="node"><title>Node1</title>
<polygon fill="#bfbfbf" stroke="black" points="0,-0 0,-34 150,-34 150,-0 0,-0"/>
<text text-anchor="start" x="8" y="-21" font-family="Helvetica,sans-Serif" font-size="10.00">pocketmine\scheduler</text>
<text text-anchor="middle" x="75" y="-8" font-family="Helvetica,sans-Serif" font-size="10.00">\ServerScheduler\cancelTasks</text>
</g>
<!-- Node2 -->
<g id="node3" class="node"><title>Node2</title>
<a xlink:href="../../d5/d2e/classpocketmine_1_1scheduler_1_1_plugin_task.html#a5ae8fe2dd6644393048c4b749ee19830" target="_top" xlink:title="pocketmine\\scheduler\l\\PluginTask\\getOwner">
<polygon fill="white" stroke="black" points="186.5,-0 186.5,-34 299.5,-34 299.5,-0 186.5,-0"/>
<text text-anchor="start" x="194.5" y="-21" font-family="Helvetica,sans-Serif" font-size="10.00">pocketmine\scheduler</text>
<text text-anchor="middle" x="243" y="-8" font-family="Helvetica,sans-Serif" font-size="10.00">\PluginTask\getOwner</text>
</a>
</g>
<!-- Node1&#45;&gt;Node2 -->
<g id="edge2" class="edge"><title>Node1&#45;&gt;Node2</title>
<path fill="none" stroke="midnightblue" d="M150.155,-17C158.789,-17 167.548,-17 176.063,-17"/>
<polygon fill="midnightblue" stroke="midnightblue" points="176.304,-20.5001 186.304,-17 176.304,-13.5001 176.304,-20.5001"/>
</g>
</g>
</svg>
