<?xml version="1.0" encoding="UTF-8" standalone="no"?>
<!DOCTYPE svg PUBLIC "-//W3C//DTD SVG 1.1//EN"
 "http://www.w3.org/Graphics/SVG/1.1/DTD/svg11.dtd">
<!-- Generated by graphviz version 2.26.3 (20100126.1600)
 -->
<!-- Title: raklib\protocol\DataPacket Pages: 1 -->
<svg width="1974pt" height="508pt"
 viewBox="0.00 0.00 1974.00 508.00" xmlns="http://www.w3.org/2000/svg" xmlns:xlink="http://www.w3.org/1999/xlink">
<g id="graph1" class="graph" transform="scale(1 1) rotate(0) translate(4 504)">
<title>raklib\protocol\DataPacket</title>
<polygon fill="white" stroke="white" points="-4,5 -4,-504 1971,-504 1971,5 -4,5"/>
<!-- Node1 -->
<g id="node1" class="node"><title>Node1</title>
<polygon fill="#bfbfbf" stroke="black" points="917,-115 917,-217 1049,-217 1049,-115 917,-115"/>
<text text-anchor="middle" x="983" y="-204" font-family="Helvetica,sans-Serif" font-size="10.00">raklib\protocol\DataPacket</text>
<polyline fill="none" stroke="black" points="917,-196 1049,-196 "/>
<text text-anchor="start" x="925" y="-183" font-family="Helvetica,sans-Serif" font-size="10.00">+ $packets</text>
<text text-anchor="start" x="925" y="-170" font-family="Helvetica,sans-Serif" font-size="10.00">+ $seqNumber</text>
<polyline fill="none" stroke="black" points="917,-162 1049,-162 "/>
<text text-anchor="start" x="925" y="-149" font-family="Helvetica,sans-Serif" font-size="10.00">+ encode()</text>
<text text-anchor="start" x="925" y="-136" font-family="Helvetica,sans-Serif" font-size="10.00">+ length()</text>
<text text-anchor="start" x="925" y="-123" font-family="Helvetica,sans-Serif" font-size="10.00">+ decode()</text>
</g>
<!-- Node3 -->
<g id="node5" class="node"><title>Node3</title>
<a xlink:href="../../de/dc2/classraklib_1_1protocol_1_1_d_a_t_a___p_a_c_k_e_t__0.html" target="_top" xlink:title="{raklib\\protocol\\DATA\l_PACKET_0\n|+ $ID\l|}">
<polygon fill="white" stroke="black" points="-0.5,-1 -0.5,-77 106.5,-77 106.5,-1 -0.5,-1"/>
<text text-anchor="start" x="7.5" y="-64" font-family="Helvetica,sans-Serif" font-size="10.00">raklib\protocol\DATA</text>
<text text-anchor="middle" x="53" y="-51" font-family="Helvetica,sans-Serif" font-size="10.00">_PACKET_0</text>
<polyline fill="none" stroke="black" points="-0.5,-43 106.5,-43 "/>
<text text-anchor="start" x="7.5" y="-30" font-family="Helvetica,sans-Serif" font-size="10.00">+ $ID</text>
<polyline fill="none" stroke="black" points="-0.5,-22 106.5,-22 "/>
<text text-anchor="middle" x="53" y="-9" font-family="Helvetica,sans-Serif" font-size="10.00"> </text>
</a>
</g>
<!-- Node1&#45;&gt;Node3 -->
<g id="edge4" class="edge"><title>Node1&#45;&gt;Node3</title>
<path fill="none" stroke="midnightblue" d="M906.586,-162.727C722.832,-154.142 260.67,-128.102 115,-78 112.234,-77.0488 109.465,-75.9536 106.715,-74.7482"/>
<polygon fill="none" stroke="midnightblue" points="906.554,-166.229 916.705,-163.195 906.878,-159.237 906.554,-166.229"/>
</g>
<!-- Node4 -->
<g id="node7" class="node"><title>Node4</title>
<a xlink:href="../../d9/d17/classraklib_1_1protocol_1_1_d_a_t_a___p_a_c_k_e_t__1.html" target="_top" xlink:title="{raklib\\protocol\\DATA\l_PACKET_1\n|+ $ID\l|}">
<polygon fill="white" stroke="black" points="123.5,-1 123.5,-77 230.5,-77 230.5,-1 123.5,-1"/>
<text text-anchor="start" x="131.5" y="-64" font-family="Helvetica,sans-Serif" font-size="10.00">raklib\protocol\DATA</text>
<text text-anchor="middle" x="177" y="-51" font-family="Helvetica,sans-Serif" font-size="10.00">_PACKET_1</text>
<polyline fill="none" stroke="black" points="123.5,-43 230.5,-43 "/>
<text text-anchor="start" x="131.5" y="-30" font-family="Helvetica,sans-Serif" font-size="10.00">+ $ID</text>
<polyline fill="none" stroke="black" points="123.5,-22 230.5,-22 "/>
<text text-anchor="middle" x="177" y="-9" font-family="Helvetica,sans-Serif" font-size="10.00"> </text>
</a>
</g>
<!-- Node1&#45;&gt;Node4 -->
<g id="edge6" class="edge"><title>Node1&#45;&gt;Node4</title>
<path fill="none" stroke="midnightblue" d="M906.82,-161.26C742.755,-150.361 361,-121.103 239,-78 236.242,-77.0257 233.48,-75.9117 230.735,-74.6909"/>
<polygon fill="none" stroke="midnightblue" points="906.626,-164.755 916.834,-161.92 907.086,-157.77 906.626,-164.755"/>
</g>
<!-- Node5 -->
<g id="node9" class="node"><title>Node5</title>
<a xlink:href="../../d0/ddd/classraklib_1_1protocol_1_1_d_a_t_a___p_a_c_k_e_t__2.html" target="_top" xlink:title="{raklib\\protocol\\DATA\l_PACKET_2\n|+ $ID\l|}">
<polygon fill="white" stroke="black" points="247.5,-1 247.5,-77 354.5,-77 354.5,-1 247.5,-1"/>
<text text-anchor="start" x="255.5" y="-64" font-family="Helvetica,sans-Serif" font-size="10.00">raklib\protocol\DATA</text>
<text text-anchor="middle" x="301" y="-51" font-family="Helvetica,sans-Serif" font-size="10.00">_PACKET_2</text>
<polyline fill="none" stroke="black" points="247.5,-43 354.5,-43 "/>
<text text-anchor="start" x="255.5" y="-30" font-family="Helvetica,sans-Serif" font-size="10.00">+ $ID</text>
<polyline fill="none" stroke="black" points="247.5,-22 354.5,-22 "/>
<text text-anchor="middle" x="301" y="-9" font-family="Helvetica,sans-Serif" font-size="10.00"> </text>
</a>
</g>
<!-- Node1&#45;&gt;Node5 -->
<g id="edge8" class="edge"><title>Node1&#45;&gt;Node5</title>
<path fill="none" stroke="midnightblue" d="M906.988,-159.217C764.237,-145.821 461.566,-114.118 363,-78 360.254,-76.9937 357.501,-75.8534 354.764,-74.6113"/>
<polygon fill="none" stroke="midnightblue" points="906.703,-162.706 916.985,-160.15 907.354,-155.736 906.703,-162.706"/>
</g>
<!-- Node6 -->
<g id="node11" class="node"><title>Node6</title>
<a xlink:href="../../da/d26/classraklib_1_1protocol_1_1_d_a_t_a___p_a_c_k_e_t__3.html" target="_top" xlink:title="{raklib\\protocol\\DATA\l_PACKET_3\n|+ $ID\l|}">
<polygon fill="white" stroke="black" points="371.5,-1 371.5,-77 478.5,-77 478.5,-1 371.5,-1"/>
<text text-anchor="start" x="379.5" y="-64" font-family="Helvetica,sans-Serif" font-size="10.00">raklib\protocol\DATA</text>
<text text-anchor="middle" x="425" y="-51" font-family="Helvetica,sans-Serif" font-size="10.00">_PACKET_3</text>
<polyline fill="none" stroke="black" points="371.5,-43 478.5,-43 "/>
<text text-anchor="start" x="379.5" y="-30" font-family="Helvetica,sans-Serif" font-size="10.00">+ $ID</text>
<polyline fill="none" stroke="black" points="371.5,-22 478.5,-22 "/>
<text text-anchor="middle" x="425" y="-9" font-family="Helvetica,sans-Serif" font-size="10.00"> </text>
</a>
</g>
<!-- Node1&#45;&gt;Node6 -->
<g id="edge10" class="edge"><title>Node1&#45;&gt;Node6</title>
<path fill="none" stroke="midnightblue" d="M906.666,-161.575C807.128,-153.779 628.974,-132.829 487,-78 484.272,-76.9463 481.533,-75.7672 478.808,-74.4936"/>
<polygon fill="none" stroke="midnightblue" points="906.403,-165.065 916.639,-162.332 906.933,-158.085 906.403,-165.065"/>
</g>
<!-- Node7 -->
<g id="node13" class="node"><title>Node7</title>
<a xlink:href="../../db/d37/classraklib_1_1protocol_1_1_d_a_t_a___p_a_c_k_e_t__4.html" target="_top" xlink:title="{raklib\\protocol\\DATA\l_PACKET_4\n|+ $ID\l|}">
<polygon fill="white" stroke="black" points="495.5,-1 495.5,-77 602.5,-77 602.5,-1 495.5,-1"/>
<text text-anchor="start" x="503.5" y="-64" font-family="Helvetica,sans-Serif" font-size="10.00">raklib\protocol\DATA</text>
<text text-anchor="middle" x="549" y="-51" font-family="Helvetica,sans-Serif" font-size="10.00">_PACKET_4</text>
<polyline fill="none" stroke="black" points="495.5,-43 602.5,-43 "/>
<text text-anchor="start" x="503.5" y="-30" font-family="Helvetica,sans-Serif" font-size="10.00">+ $ID</text>
<polyline fill="none" stroke="black" points="495.5,-22 602.5,-22 "/>
<text text-anchor="middle" x="549" y="-9" font-family="Helvetica,sans-Serif" font-size="10.00"> </text>
</a>
</g>
<!-- Node1&#45;&gt;Node7 -->
<g id="edge12" class="edge"><title>Node1&#45;&gt;Node7</title>
<path fill="none" stroke="midnightblue" d="M906.703,-155.487C829.857,-143.179 708.97,-119.063 611,-78 608.185,-76.8203 605.353,-75.519 602.532,-74.1292"/>
<polygon fill="none" stroke="midnightblue" points="906.359,-158.976 916.781,-157.074 907.448,-152.061 906.359,-158.976"/>
</g>
<!-- Node8 -->
<g id="node15" class="node"><title>Node8</title>
<a xlink:href="../../d4/d14/classraklib_1_1protocol_1_1_d_a_t_a___p_a_c_k_e_t__5.html" target="_top" xlink:title="{raklib\\protocol\\DATA\l_PACKET_5\n|+ $ID\l|}">
<polygon fill="white" stroke="black" points="619.5,-1 619.5,-77 726.5,-77 726.5,-1 619.5,-1"/>
<text text-anchor="start" x="627.5" y="-64" font-family="Helvetica,sans-Serif" font-size="10.00">raklib\protocol\DATA</text>
<text text-anchor="middle" x="673" y="-51" font-family="Helvetica,sans-Serif" font-size="10.00">_PACKET_5</text>
<polyline fill="none" stroke="black" points="619.5,-43 726.5,-43 "/>
<text text-anchor="start" x="627.5" y="-30" font-family="Helvetica,sans-Serif" font-size="10.00">+ $ID</text>
<polyline fill="none" stroke="black" points="619.5,-22 726.5,-22 "/>
<text text-anchor="middle" x="673" y="-9" font-family="Helvetica,sans-Serif" font-size="10.00"> </text>
</a>
</g>
<!-- Node1&#45;&gt;Node8 -->
<g id="edge14" class="edge"><title>Node1&#45;&gt;Node8</title>
<path fill="none" stroke="midnightblue" d="M907.139,-143.877C857.121,-128.136 790.792,-105.036 735,-78 732.254,-76.6691 729.477,-75.245 726.701,-73.7568"/>
<polygon fill="none" stroke="midnightblue" points="906.329,-147.29 916.917,-146.926 908.412,-140.607 906.329,-147.29"/>
</g>
<!-- Node9 -->
<g id="node17" class="node"><title>Node9</title>
<a xlink:href="../../d2/d4c/classraklib_1_1protocol_1_1_d_a_t_a___p_a_c_k_e_t__6.html" target="_top" xlink:title="{raklib\\protocol\\DATA\l_PACKET_6\n|+ $ID\l|}">
<polygon fill="white" stroke="black" points="743.5,-1 743.5,-77 850.5,-77 850.5,-1 743.5,-1"/>
<text text-anchor="start" x="751.5" y="-64" font-family="Helvetica,sans-Serif" font-size="10.00">raklib\protocol\DATA</text>
<text text-anchor="middle" x="797" y="-51" font-family="Helvetica,sans-Serif" font-size="10.00">_PACKET_6</text>
<polyline fill="none" stroke="black" points="743.5,-43 850.5,-43 "/>
<text text-anchor="start" x="751.5" y="-30" font-family="Helvetica,sans-Serif" font-size="10.00">+ $ID</text>
<polyline fill="none" stroke="black" points="743.5,-22 850.5,-22 "/>
<text text-anchor="middle" x="797" y="-9" font-family="Helvetica,sans-Serif" font-size="10.00"> </text>
</a>
</g>
<!-- Node1&#45;&gt;Node9 -->
<g id="edge16" class="edge"><title>Node1&#45;&gt;Node9</title>
<path fill="none" stroke="midnightblue" d="M908.405,-115.067C889.082,-101.873 868.655,-87.9257 850.643,-75.6271"/>
<polygon fill="none" stroke="midnightblue" points="906.667,-118.119 916.9,-120.867 910.615,-112.338 906.667,-118.119"/>
</g>
<!-- Node10 -->
<g id="node19" class="node"><title>Node10</title>
<a xlink:href="../../d2/d63/classraklib_1_1protocol_1_1_d_a_t_a___p_a_c_k_e_t__7.html" target="_top" xlink:title="{raklib\\protocol\\DATA\l_PACKET_7\n|+ $ID\l|}">
<polygon fill="white" stroke="black" points="867.5,-1 867.5,-77 974.5,-77 974.5,-1 867.5,-1"/>
<text text-anchor="start" x="875.5" y="-64" font-family="Helvetica,sans-Serif" font-size="10.00">raklib\protocol\DATA</text>
<text text-anchor="middle" x="921" y="-51" font-family="Helvetica,sans-Serif" font-size="10.00">_PACKET_7</text>
<polyline fill="none" stroke="black" points="867.5,-43 974.5,-43 "/>
<text text-anchor="start" x="875.5" y="-30" font-family="Helvetica,sans-Serif" font-size="10.00">+ $ID</text>
<polyline fill="none" stroke="black" points="867.5,-22 974.5,-22 "/>
<text text-anchor="middle" x="921" y="-9" font-family="Helvetica,sans-Serif" font-size="10.00"> </text>
</a>
</g>
<!-- Node1&#45;&gt;Node10 -->
<g id="edge18" class="edge"><title>Node1&#45;&gt;Node10</title>
<path fill="none" stroke="midnightblue" d="M953.474,-105.52C948.766,-95.8746 944.011,-86.1359 939.647,-77.197"/>
<polygon fill="none" stroke="midnightblue" points="950.429,-107.259 957.961,-114.71 956.719,-104.188 950.429,-107.259"/>
</g>
<!-- Node11 -->
<g id="node21" class="node"><title>Node11</title>
<a xlink:href="../../d0/dc3/classraklib_1_1protocol_1_1_d_a_t_a___p_a_c_k_e_t__8.html" target="_top" xlink:title="{raklib\\protocol\\DATA\l_PACKET_8\n|+ $ID\l|}">
<polygon fill="white" stroke="black" points="991.5,-1 991.5,-77 1098.5,-77 1098.5,-1 991.5,-1"/>
<text text-anchor="start" x="999.5" y="-64" font-family="Helvetica,sans-Serif" font-size="10.00">raklib\protocol\DATA</text>
<text text-anchor="middle" x="1045" y="-51" font-family="Helvetica,sans-Serif" font-size="10.00">_PACKET_8</text>
<polyline fill="none" stroke="black" points="991.5,-43 1098.5,-43 "/>
<text text-anchor="start" x="999.5" y="-30" font-family="Helvetica,sans-Serif" font-size="10.00">+ $ID</text>
<polyline fill="none" stroke="black" points="991.5,-22 1098.5,-22 "/>
<text text-anchor="middle" x="1045" y="-9" font-family="Helvetica,sans-Serif" font-size="10.00"> </text>
</a>
</g>
<!-- Node1&#45;&gt;Node11 -->
<g id="edge20" class="edge"><title>Node1&#45;&gt;Node11</title>
<path fill="none" stroke="midnightblue" d="M1012.53,-105.52C1017.23,-95.8746 1021.99,-86.1359 1026.35,-77.197"/>
<polygon fill="none" stroke="midnightblue" points="1009.28,-104.188 1008.04,-114.71 1015.57,-107.259 1009.28,-104.188"/>
</g>
<!-- Node12 -->
<g id="node23" class="node"><title>Node12</title>
<a xlink:href="../../dd/dfb/classraklib_1_1protocol_1_1_d_a_t_a___p_a_c_k_e_t__9.html" target="_top" xlink:title="{raklib\\protocol\\DATA\l_PACKET_9\n|+ $ID\l|}">
<polygon fill="white" stroke="black" points="1115.5,-1 1115.5,-77 1222.5,-77 1222.5,-1 1115.5,-1"/>
<text text-anchor="start" x="1123.5" y="-64" font-family="Helvetica,sans-Serif" font-size="10.00">raklib\protocol\DATA</text>
<text text-anchor="middle" x="1169" y="-51" font-family="Helvetica,sans-Serif" font-size="10.00">_PACKET_9</text>
<polyline fill="none" stroke="black" points="1115.5,-43 1222.5,-43 "/>
<text text-anchor="start" x="1123.5" y="-30" font-family="Helvetica,sans-Serif" font-size="10.00">+ $ID</text>
<polyline fill="none" stroke="black" points="1115.5,-22 1222.5,-22 "/>
<text text-anchor="middle" x="1169" y="-9" font-family="Helvetica,sans-Serif" font-size="10.00"> </text>
</a>
</g>
<!-- Node1&#45;&gt;Node12 -->
<g id="edge22" class="edge"><title>Node1&#45;&gt;Node12</title>
<path fill="none" stroke="midnightblue" d="M1057.59,-115.067C1076.92,-101.873 1097.35,-87.9257 1115.36,-75.6271"/>
<polygon fill="none" stroke="midnightblue" points="1055.39,-112.338 1049.1,-120.867 1059.33,-118.119 1055.39,-112.338"/>
</g>
<!-- Node13 -->
<g id="node25" class="node"><title>Node13</title>
<a xlink:href="../../d4/db9/classraklib_1_1protocol_1_1_d_a_t_a___p_a_c_k_e_t___a.html" target="_top" xlink:title="{raklib\\protocol\\DATA\l_PACKET_A\n|+ $ID\l|}">
<polygon fill="white" stroke="black" points="1239.5,-1 1239.5,-77 1346.5,-77 1346.5,-1 1239.5,-1"/>
<text text-anchor="start" x="1247.5" y="-64" font-family="Helvetica,sans-Serif" font-size="10.00">raklib\protocol\DATA</text>
<text text-anchor="middle" x="1293" y="-51" font-family="Helvetica,sans-Serif" font-size="10.00">_PACKET_A</text>
<polyline fill="none" stroke="black" points="1239.5,-43 1346.5,-43 "/>
<text text-anchor="start" x="1247.5" y="-30" font-family="Helvetica,sans-Serif" font-size="10.00">+ $ID</text>
<polyline fill="none" stroke="black" points="1239.5,-22 1346.5,-22 "/>
<text text-anchor="middle" x="1293" y="-9" font-family="Helvetica,sans-Serif" font-size="10.00"> </text>
</a>
</g>
<!-- Node1&#45;&gt;Node13 -->
<g id="edge24" class="edge"><title>Node1&#45;&gt;Node13</title>
<path fill="none" stroke="midnightblue" d="M1058.86,-143.877C1108.88,-128.136 1175.21,-105.036 1231,-78 1233.75,-76.6691 1236.52,-75.245 1239.3,-73.7568"/>
<polygon fill="none" stroke="midnightblue" points="1057.59,-140.607 1049.08,-146.926 1059.67,-147.29 1057.59,-140.607"/>
</g>
<!-- Node14 -->
<g id="node27" class="node"><title>Node14</title>
<a xlink:href="../../de/d1c/classraklib_1_1protocol_1_1_d_a_t_a___p_a_c_k_e_t___b.html" target="_top" xlink:title="{raklib\\protocol\\DATA\l_PACKET_B\n|+ $ID\l|}">
<polygon fill="white" stroke="black" points="1363.5,-1 1363.5,-77 1470.5,-77 1470.5,-1 1363.5,-1"/>
<text text-anchor="start" x="1371.5" y="-64" font-family="Helvetica,sans-Serif" font-size="10.00">raklib\protocol\DATA</text>
<text text-anchor="middle" x="1417" y="-51" font-family="Helvetica,sans-Serif" font-size="10.00">_PACKET_B</text>
<polyline fill="none" stroke="black" points="1363.5,-43 1470.5,-43 "/>
<text text-anchor="start" x="1371.5" y="-30" font-family="Helvetica,sans-Serif" font-size="10.00">+ $ID</text>
<polyline fill="none" stroke="black" points="1363.5,-22 1470.5,-22 "/>
<text text-anchor="middle" x="1417" y="-9" font-family="Helvetica,sans-Serif" font-size="10.00"> </text>
</a>
</g>
<!-- Node1&#45;&gt;Node14 -->
<g id="edge26" class="edge"><title>Node1&#45;&gt;Node14</title>
<path fill="none" stroke="midnightblue" d="M1059.3,-155.487C1136.14,-143.179 1257.03,-119.063 1355,-78 1357.81,-76.8203 1360.65,-75.519 1363.47,-74.1292"/>
<polygon fill="none" stroke="midnightblue" points="1058.55,-152.061 1049.22,-157.074 1059.64,-158.976 1058.55,-152.061"/>
</g>
<!-- Node15 -->
<g id="node29" class="node"><title>Node15</title>
<a xlink:href="../../dd/d3e/classraklib_1_1protocol_1_1_d_a_t_a___p_a_c_k_e_t___c.html" target="_top" xlink:title="{raklib\\protocol\\DATA\l_PACKET_C\n|+ $ID\l|}">
<polygon fill="white" stroke="black" points="1487.5,-1 1487.5,-77 1594.5,-77 1594.5,-1 1487.5,-1"/>
<text text-anchor="start" x="1495.5" y="-64" font-family="Helvetica,sans-Serif" font-size="10.00">raklib\protocol\DATA</text>
<text text-anchor="middle" x="1541" y="-51" font-family="Helvetica,sans-Serif" font-size="10.00">_PACKET_C</text>
<polyline fill="none" stroke="black" points="1487.5,-43 1594.5,-43 "/>
<text text-anchor="start" x="1495.5" y="-30" font-family="Helvetica,sans-Serif" font-size="10.00">+ $ID</text>
<polyline fill="none" stroke="black" points="1487.5,-22 1594.5,-22 "/>
<text text-anchor="middle" x="1541" y="-9" font-family="Helvetica,sans-Serif" font-size="10.00"> </text>
</a>
</g>
<!-- Node1&#45;&gt;Node15 -->
<g id="edge28" class="edge"><title>Node1&#45;&gt;Node15</title>
<path fill="none" stroke="midnightblue" d="M1059.33,-161.575C1158.87,-153.779 1337.03,-132.829 1479,-78 1481.73,-76.9463 1484.47,-75.7672 1487.19,-74.4936"/>
<polygon fill="none" stroke="midnightblue" points="1059.07,-158.085 1049.36,-162.332 1059.6,-165.065 1059.07,-158.085"/>
</g>
<!-- Node16 -->
<g id="node31" class="node"><title>Node16</title>
<a xlink:href="../../db/d9b/classraklib_1_1protocol_1_1_d_a_t_a___p_a_c_k_e_t___d.html" target="_top" xlink:title="{raklib\\protocol\\DATA\l_PACKET_D\n|+ $ID\l|}">
<polygon fill="white" stroke="black" points="1611.5,-1 1611.5,-77 1718.5,-77 1718.5,-1 1611.5,-1"/>
<text text-anchor="start" x="1619.5" y="-64" font-family="Helvetica,sans-Serif" font-size="10.00">raklib\protocol\DATA</text>
<text text-anchor="middle" x="1665" y="-51" font-family="Helvetica,sans-Serif" font-size="10.00">_PACKET_D</text>
<polyline fill="none" stroke="black" points="1611.5,-43 1718.5,-43 "/>
<text text-anchor="start" x="1619.5" y="-30" font-family="Helvetica,sans-Serif" font-size="10.00">+ $ID</text>
<polyline fill="none" stroke="black" points="1611.5,-22 1718.5,-22 "/>
<text text-anchor="middle" x="1665" y="-9" font-family="Helvetica,sans-Serif" font-size="10.00"> </text>
</a>
</g>
<!-- Node1&#45;&gt;Node16 -->
<g id="edge30" class="edge"><title>Node1&#45;&gt;Node16</title>
<path fill="none" stroke="midnightblue" d="M1059.01,-159.217C1201.76,-145.821 1504.43,-114.118 1603,-78 1605.75,-76.9937 1608.5,-75.8534 1611.24,-74.6113"/>
<polygon fill="none" stroke="midnightblue" points="1058.65,-155.736 1049.01,-160.15 1059.3,-162.706 1058.65,-155.736"/>
</g>
<!-- Node17 -->
<g id="node33" class="node"><title>Node17</title>
<a xlink:href="../../d1/d91/classraklib_1_1protocol_1_1_d_a_t_a___p_a_c_k_e_t___e.html" target="_top" xlink:title="{raklib\\protocol\\DATA\l_PACKET_E\n|+ $ID\l|}">
<polygon fill="white" stroke="black" points="1735.5,-1 1735.5,-77 1842.5,-77 1842.5,-1 1735.5,-1"/>
<text text-anchor="start" x="1743.5" y="-64" font-family="Helvetica,sans-Serif" font-size="10.00">raklib\protocol\DATA</text>
<text text-anchor="middle" x="1789" y="-51" font-family="Helvetica,sans-Serif" font-size="10.00">_PACKET_E</text>
<polyline fill="none" stroke="black" points="1735.5,-43 1842.5,-43 "/>
<text text-anchor="start" x="1743.5" y="-30" font-family="Helvetica,sans-Serif" font-size="10.00">+ $ID</text>
<polyline fill="none" stroke="black" points="1735.5,-22 1842.5,-22 "/>
<text text-anchor="middle" x="1789" y="-9" font-family="Helvetica,sans-Serif" font-size="10.00"> </text>
</a>
</g>
<!-- Node1&#45;&gt;Node17 -->
<g id="edge32" class="edge"><title>Node1&#45;&gt;Node17</title>
<path fill="none" stroke="midnightblue" d="M1059.18,-161.26C1223.24,-150.361 1605,-121.103 1727,-78 1729.76,-77.0257 1732.52,-75.9117 1735.26,-74.6909"/>
<polygon fill="none" stroke="midnightblue" points="1058.91,-157.77 1049.17,-161.92 1059.37,-164.755 1058.91,-157.77"/>
</g>
<!-- Node18 -->
<g id="node35" class="node"><title>Node18</title>
<a xlink:href="../../dd/d66/classraklib_1_1protocol_1_1_d_a_t_a___p_a_c_k_e_t___f.html" target="_top" xlink:title="{raklib\\protocol\\DATA\l_PACKET_F\n|+ $ID\l|}">
<polygon fill="white" stroke="black" points="1859.5,-1 1859.5,-77 1966.5,-77 1966.5,-1 1859.5,-1"/>
<text text-anchor="start" x="1867.5" y="-64" font-family="Helvetica,sans-Serif" font-size="10.00">raklib\protocol\DATA</text>
<text text-anchor="middle" x="1913" y="-51" font-family="Helvetica,sans-Serif" font-size="10.00">_PACKET_F</text>
<polyline fill="none" stroke="black" points="1859.5,-43 1966.5,-43 "/>
<text text-anchor="start" x="1867.5" y="-30" font-family="Helvetica,sans-Serif" font-size="10.00">+ $ID</text>
<polyline fill="none" stroke="black" points="1859.5,-22 1966.5,-22 "/>
<text text-anchor="middle" x="1913" y="-9" font-family="Helvetica,sans-Serif" font-size="10.00"> </text>
</a>
</g>
<!-- Node1&#45;&gt;Node18 -->
<g id="edge34" class="edge"><title>Node1&#45;&gt;Node18</title>
<path fill="none" stroke="midnightblue" d="M1059.41,-162.727C1243.17,-154.142 1705.33,-128.102 1851,-78 1853.77,-77.0488 1856.53,-75.9536 1859.28,-74.7482"/>
<polygon fill="none" stroke="midnightblue" points="1059.12,-159.237 1049.29,-163.195 1059.45,-166.229 1059.12,-159.237"/>
</g>
<!-- Node2 -->
<g id="node2" class="node"><title>Node2</title>
<a xlink:href="../../d6/d53/classraklib_1_1protocol_1_1_packet.html" target="_top" xlink:title="{raklib\\protocol\\Packet\n|+ $buffer\l+ $ID\l# $offset\l|+ encode()\l+ decode()\l# get()\l# getLong()\l# getInt()\l# getShort()\l# getTriad()\l# getLTriad()\l# getByte()\l# getString()\l# feof()\l# put()\land 7 more...\l}">
<polygon fill="white" stroke="black" points="927.5,-254.5 927.5,-499.5 1038.5,-499.5 1038.5,-254.5 927.5,-254.5"/>
<text text-anchor="middle" x="983" y="-486.5" font-family="Helvetica,sans-Serif" font-size="10.00">raklib\protocol\Packet</text>
<polyline fill="none" stroke="black" points="927.5,-478.5 1038.5,-478.5 "/>
<text text-anchor="start" x="935.5" y="-465.5" font-family="Helvetica,sans-Serif" font-size="10.00">+ $buffer</text>
<text text-anchor="start" x="935.5" y="-452.5" font-family="Helvetica,sans-Serif" font-size="10.00">+ $ID</text>
<text text-anchor="start" x="935.5" y="-439.5" font-family="Helvetica,sans-Serif" font-size="10.00"># $offset</text>
<polyline fill="none" stroke="black" points="927.5,-431.5 1038.5,-431.5 "/>
<text text-anchor="start" x="935.5" y="-418.5" font-family="Helvetica,sans-Serif" font-size="10.00">+ encode()</text>
<text text-anchor="start" x="935.5" y="-405.5" font-family="Helvetica,sans-Serif" font-size="10.00">+ decode()</text>
<text text-anchor="start" x="935.5" y="-392.5" font-family="Helvetica,sans-Serif" font-size="10.00"># get()</text>
<text text-anchor="start" x="935.5" y="-379.5" font-family="Helvetica,sans-Serif" font-size="10.00"># getLong()</text>
<text text-anchor="start" x="935.5" y="-366.5" font-family="Helvetica,sans-Serif" font-size="10.00"># getInt()</text>
<text text-anchor="start" x="935.5" y="-353.5" font-family="Helvetica,sans-Serif" font-size="10.00"># getShort()</text>
<text text-anchor="start" x="935.5" y="-340.5" font-family="Helvetica,sans-Serif" font-size="10.00"># getTriad()</text>
<text text-anchor="start" x="935.5" y="-327.5" font-family="Helvetica,sans-Serif" font-size="10.00"># getLTriad()</text>
<text text-anchor="start" x="935.5" y="-314.5" font-family="Helvetica,sans-Serif" font-size="10.00"># getByte()</text>
<text text-anchor="start" x="935.5" y="-301.5" font-family="Helvetica,sans-Serif" font-size="10.00"># getString()</text>
<text text-anchor="start" x="935.5" y="-288.5" font-family="Helvetica,sans-Serif" font-size="10.00"># feof()</text>
<text text-anchor="start" x="935.5" y="-275.5" font-family="Helvetica,sans-Serif" font-size="10.00"># put()</text>
<text text-anchor="start" x="935.5" y="-262.5" font-family="Helvetica,sans-Serif" font-size="10.00">and 7 more...</text>
</a>
</g>
<!-- Node2&#45;&gt;Node1 -->
<g id="edge2" class="edge"><title>Node2&#45;&gt;Node1</title>
<path fill="none" stroke="midnightblue" d="M983,-244.249C983,-234.739 983,-225.547 983,-217.01"/>
<polygon fill="none" stroke="midnightblue" points="979.5,-244.26 983,-254.26 986.5,-244.26 979.5,-244.26"/>
</g>
</g>
</svg>
