<?xml version="1.0" encoding="UTF-8" standalone="no"?>
<!DOCTYPE svg PUBLIC "-//W3C//DTD SVG 1.1//EN"
 "http://www.w3.org/Graphics/SVG/1.1/DTD/svg11.dtd">
<!-- Generated by graphviz version 2.36.0 (20140111.2315)
 -->
<!-- Title: pocketmine\level\format\anvil\ChunkSection\getFullBlock Pages: 1 -->
<svg width="370pt" height="38pt"
 viewBox="0.00 0.00 370.00 38.00" xmlns="http://www.w3.org/2000/svg" xmlns:xlink="http://www.w3.org/1999/xlink">
<g id="graph0" class="graph" transform="scale(1 1) rotate(0) translate(4 34)">
<title>pocketmine\level\format\anvil\ChunkSection\getFullBlock</title>
<polygon fill="white" stroke="none" points="-4,4 -4,-34 366,-34 366,4 -4,4"/>
<!-- Node1 -->
<g id="node1" class="node"><title>Node1</title>
<polygon fill="#bfbfbf" stroke="black" points="0,-0 0,-30 170,-30 170,-0 0,-0"/>
<text text-anchor="start" x="8" y="-18" font-family="Helvetica,sans-Serif" font-size="10.00">pocketmine\level\format</text>
<text text-anchor="middle" x="85" y="-7" font-family="Helvetica,sans-Serif" font-size="10.00">\anvil\ChunkSection\getFullBlock</text>
</g>
<!-- Node2 -->
<g id="node2" class="node"><title>Node2</title>
<g id="a_node2"><a xlink:href="../../d3/db6/classpocketmine_1_1level_1_1format_1_1anvil_1_1_chunk_section.html#ae40dff2da56991ac8796bec09781ca65" target="_top" xlink:title="pocketmine\\level\\format\l\\anvil\\ChunkSection\\getBlock">
<polygon fill="white" stroke="black" points="206.5,-0 206.5,-30 361.5,-30 361.5,-0 206.5,-0"/>
<text text-anchor="start" x="214.5" y="-18" font-family="Helvetica,sans-Serif" font-size="10.00">pocketmine\level\format</text>
<text text-anchor="middle" x="284" y="-7" font-family="Helvetica,sans-Serif" font-size="10.00">\anvil\ChunkSection\getBlock</text>
</a>
</g>
</g>
<!-- Node1&#45;&gt;Node2 -->
<g id="edge1" class="edge"><title>Node1&#45;&gt;Node2</title>
<path fill="none" stroke="midnightblue" d="M180.317,-15C189.038,-15 197.802,-15 206.336,-15"/>
<polygon fill="midnightblue" stroke="midnightblue" points="180.117,-11.5001 170.117,-15 180.117,-18.5001 180.117,-11.5001"/>
</g>
</g>
</svg>
