<?xml version="1.0" encoding="UTF-8" standalone="no"?>
<!DOCTYPE svg PUBLIC "-//W3C//DTD SVG 1.1//EN"
 "http://www.w3.org/Graphics/SVG/1.1/DTD/svg11.dtd">
<!-- Generated by graphviz version 2.36.0 (20140111.2315)
 -->
<!-- Title: pocketmine\event\entity\ItemSpawnEvent Pages: 1 -->
<svg width="140pt" height="322pt"
 viewBox="0.00 0.00 140.00 322.00" xmlns="http://www.w3.org/2000/svg" xmlns:xlink="http://www.w3.org/1999/xlink">
<g id="graph0" class="graph" transform="scale(1 1) rotate(0) translate(4 318)">
<title>pocketmine\event\entity\ItemSpawnEvent</title>
<polygon fill="white" stroke="none" points="-4,4 -4,-318 136,-318 136,4 -4,4"/>
<!-- Node1 -->
<g id="node1" class="node"><title>Node1</title>
<polygon fill="#bfbfbf" stroke="black" points="-0.5,-0.5 -0.5,-101.5 132.5,-101.5 132.5,-0.5 -0.5,-0.5"/>
<text text-anchor="start" x="7.5" y="-89.5" font-family="Helvetica,sans-Serif" font-size="10.00">pocketmine\event\entity</text>
<text text-anchor="middle" x="66" y="-78.5" font-family="Helvetica,sans-Serif" font-size="10.00">\ItemSpawnEvent</text>
<polyline fill="none" stroke="black" points="-0.5,-71.5 132.5,-71.5 "/>
<text text-anchor="start" x="7.5" y="-59.5" font-family="Helvetica,sans-Serif" font-size="10.00">+ $handlerList</text>
<text text-anchor="start" x="7.5" y="-48.5" font-family="Helvetica,sans-Serif" font-size="10.00">+ $eventPool</text>
<text text-anchor="start" x="7.5" y="-37.5" font-family="Helvetica,sans-Serif" font-size="10.00">+ $nextEvent</text>
<polyline fill="none" stroke="black" points="-0.5,-30.5 132.5,-30.5 "/>
<text text-anchor="start" x="7.5" y="-18.5" font-family="Helvetica,sans-Serif" font-size="10.00">+ __construct()</text>
<text text-anchor="start" x="7.5" y="-7.5" font-family="Helvetica,sans-Serif" font-size="10.00">+ getEntity()</text>
</g>
<!-- Node2 -->
<g id="node2" class="node"><title>Node2</title>
<g id="a_node2"><a xlink:href="../../de/d84/classpocketmine_1_1event_1_1entity_1_1_entity_event.html" target="_top" xlink:title="{pocketmine\\event\\entity\l\\EntityEvent\n|# $entity\l|+ getEntity()\l}">
<polygon fill="white" stroke="black" points="-0.5,-139 -0.5,-207 132.5,-207 132.5,-139 -0.5,-139"/>
<text text-anchor="start" x="7.5" y="-195" font-family="Helvetica,sans-Serif" font-size="10.00">pocketmine\event\entity</text>
<text text-anchor="middle" x="66" y="-184" font-family="Helvetica,sans-Serif" font-size="10.00">\EntityEvent</text>
<polyline fill="none" stroke="black" points="-0.5,-177 132.5,-177 "/>
<text text-anchor="start" x="7.5" y="-165" font-family="Helvetica,sans-Serif" font-size="10.00"># $entity</text>
<polyline fill="none" stroke="black" points="-0.5,-158 132.5,-158 "/>
<text text-anchor="start" x="7.5" y="-146" font-family="Helvetica,sans-Serif" font-size="10.00">+ getEntity()</text>
</a>
</g>
</g>
<!-- Node2&#45;&gt;Node1 -->
<g id="edge1" class="edge"><title>Node2&#45;&gt;Node1</title>
<path fill="none" stroke="midnightblue" d="M66,-128.831C66,-120.01 66,-110.661 66,-101.636"/>
<polygon fill="none" stroke="midnightblue" points="62.5001,-128.892 66,-138.892 69.5001,-128.892 62.5001,-128.892"/>
</g>
<!-- Node3 -->
<g id="node3" class="node"><title>Node3</title>
<g id="a_node3"><a xlink:href="../../d1/d2f/classpocketmine_1_1event_1_1_event.html" target="_top" xlink:title="{pocketmine\\event\\Event\n|# $eventName\l|+ getEventName()\l+ getHandlers()\l}">
<polygon fill="white" stroke="black" points="-0.5,-245 -0.5,-313 132.5,-313 132.5,-245 -0.5,-245"/>
<text text-anchor="middle" x="66" y="-301" font-family="Helvetica,sans-Serif" font-size="10.00">pocketmine\event\Event</text>
<polyline fill="none" stroke="black" points="-0.5,-294 132.5,-294 "/>
<text text-anchor="start" x="7.5" y="-282" font-family="Helvetica,sans-Serif" font-size="10.00"># $eventName</text>
<polyline fill="none" stroke="black" points="-0.5,-275 132.5,-275 "/>
<text text-anchor="start" x="7.5" y="-263" font-family="Helvetica,sans-Serif" font-size="10.00">+ getEventName()</text>
<text text-anchor="start" x="7.5" y="-252" font-family="Helvetica,sans-Serif" font-size="10.00">+ getHandlers()</text>
</a>
</g>
</g>
<!-- Node3&#45;&gt;Node2 -->
<g id="edge2" class="edge"><title>Node3&#45;&gt;Node2</title>
<path fill="none" stroke="midnightblue" d="M66,-234.674C66,-225.502 66,-215.961 66,-207.234"/>
<polygon fill="none" stroke="midnightblue" points="62.5001,-234.808 66,-244.808 69.5001,-234.808 62.5001,-234.808"/>
</g>
</g>
</svg>
