<?xml version="1.0" encoding="UTF-8" standalone="no"?>
<!DOCTYPE svg PUBLIC "-//W3C//DTD SVG 1.1//EN"
 "http://www.w3.org/Graphics/SVG/1.1/DTD/svg11.dtd">
<!-- Generated by graphviz version 2.26.3 (20100126.1600)
 -->
<!-- Title: G Pages: 1 -->
<svg width="158pt" height="390pt"
 viewBox="0.00 0.00 158.00 390.00" xmlns="http://www.w3.org/2000/svg" xmlns:xlink="http://www.w3.org/1999/xlink">
<g id="graph1" class="graph" transform="scale(1 1) rotate(0) translate(4 386)">
<title>G</title>
<polygon fill="white" stroke="white" points="-4,5 -4,-386 155,-386 155,5 -4,5"/>
<!-- Node1 -->
<g id="node1" class="node"><title>Node1</title>
<polygon fill="#bfbfbf" stroke="black" points="12.5,-0.5 12.5,-89.5 137.5,-89.5 137.5,-0.5 12.5,-0.5"/>
<text text-anchor="middle" x="75" y="-76.5" font-family="Helvetica,sans-Serif" font-size="10.00">pocketmine\nbt\tag\Float</text>
<polyline fill="none" stroke="black" points="12.5,-68.5 137.5,-68.5 "/>
<text text-anchor="middle" x="75" y="-55.5" font-family="Helvetica,sans-Serif" font-size="10.00"> </text>
<polyline fill="none" stroke="black" points="12.5,-47.5 137.5,-47.5 "/>
<text text-anchor="start" x="20.5" y="-34.5" font-family="Helvetica,sans-Serif" font-size="10.00">+ getType()</text>
<text text-anchor="start" x="20.5" y="-21.5" font-family="Helvetica,sans-Serif" font-size="10.00">+ read()</text>
<text text-anchor="start" x="20.5" y="-8.5" font-family="Helvetica,sans-Serif" font-size="10.00">+ write()</text>
</g>
<!-- Node2 -->
<g id="node2" class="node"><title>Node2</title>
<a xlink:href="../../d9/dc5/classpocketmine_1_1nbt_1_1tag_1_1_named_tag.html" target="_top" xlink:title="{pocketmine\\nbt\\tag\\NamedTag\n|# $name\l|+ __construct()\l+ getName()\l+ setName()\l}">
<polygon fill="white" stroke="black" points="-0.5,-126.5 -0.5,-215.5 150.5,-215.5 150.5,-126.5 -0.5,-126.5"/>
<text text-anchor="middle" x="75" y="-202.5" font-family="Helvetica,sans-Serif" font-size="10.00">pocketmine\nbt\tag\NamedTag</text>
<polyline fill="none" stroke="black" points="-0.5,-194.5 150.5,-194.5 "/>
<text text-anchor="start" x="7.5" y="-181.5" font-family="Helvetica,sans-Serif" font-size="10.00"># $name</text>
<polyline fill="none" stroke="black" points="-0.5,-173.5 150.5,-173.5 "/>
<text text-anchor="start" x="7.5" y="-160.5" font-family="Helvetica,sans-Serif" font-size="10.00">+ __construct()</text>
<text text-anchor="start" x="7.5" y="-147.5" font-family="Helvetica,sans-Serif" font-size="10.00">+ getName()</text>
<text text-anchor="start" x="7.5" y="-134.5" font-family="Helvetica,sans-Serif" font-size="10.00">+ setName()</text>
</a>
</g>
<!-- Node2&#45;&gt;Node1 -->
<g id="edge2" class="edge"><title>Node2&#45;&gt;Node1</title>
<path fill="none" stroke="midnightblue" d="M75,-116.013C75,-107.198 75,-98.1691 75,-89.6335"/>
<polygon fill="none" stroke="midnightblue" points="71.5001,-116.222 75,-126.222 78.5001,-116.222 71.5001,-116.222"/>
</g>
<!-- Node3 -->
<g id="node4" class="node"><title>Node3</title>
<a xlink:href="../../dc/d26/classpocketmine_1_1nbt_1_1tag_1_1_tag.html" target="_top" xlink:title="{pocketmine\\nbt\\tag\\Tag\n|# $value\l|+ getValue()\l+ getType()\l+ setValue()\l+ write()\l+ read()\l+ __toString()\l}">
<polygon fill="white" stroke="black" points="15.5,-253 15.5,-381 134.5,-381 134.5,-253 15.5,-253"/>
<text text-anchor="middle" x="75" y="-368" font-family="Helvetica,sans-Serif" font-size="10.00">pocketmine\nbt\tag\Tag</text>
<polyline fill="none" stroke="black" points="15.5,-360 134.5,-360 "/>
<text text-anchor="start" x="23.5" y="-347" font-family="Helvetica,sans-Serif" font-size="10.00"># $value</text>
<polyline fill="none" stroke="black" points="15.5,-339 134.5,-339 "/>
<text text-anchor="start" x="23.5" y="-326" font-family="Helvetica,sans-Serif" font-size="10.00">+ getValue()</text>
<text text-anchor="start" x="23.5" y="-313" font-family="Helvetica,sans-Serif" font-size="10.00">+ getType()</text>
<text text-anchor="start" x="23.5" y="-300" font-family="Helvetica,sans-Serif" font-size="10.00">+ setValue()</text>
<text text-anchor="start" x="23.5" y="-287" font-family="Helvetica,sans-Serif" font-size="10.00">+ write()</text>
<text text-anchor="start" x="23.5" y="-274" font-family="Helvetica,sans-Serif" font-size="10.00">+ read()</text>
<text text-anchor="start" x="23.5" y="-261" font-family="Helvetica,sans-Serif" font-size="10.00">+ __toString()</text>
</a>
</g>
<!-- Node3&#45;&gt;Node2 -->
<g id="edge4" class="edge"><title>Node3&#45;&gt;Node2</title>
<path fill="none" stroke="midnightblue" d="M75,-242.902C75,-233.612 75,-224.347 75,-215.707"/>
<polygon fill="none" stroke="midnightblue" points="71.5001,-242.962 75,-252.962 78.5001,-242.962 71.5001,-242.962"/>
</g>
</g>
</svg>
