<?xml version="1.0" encoding="UTF-8" standalone="no"?>
<!DOCTYPE svg PUBLIC "-//W3C//DTD SVG 1.1//EN"
 "http://www.w3.org/Graphics/SVG/1.1/DTD/svg11.dtd">
<!-- Generated by graphviz version 2.26.3 (20100126.1600)
 -->
<!-- Title: Logger Pages: 1 -->
<svg width="286pt" height="946pt"
 viewBox="0.00 0.00 286.00 946.00" xmlns="http://www.w3.org/2000/svg" xmlns:xlink="http://www.w3.org/1999/xlink">
<g id="graph1" class="graph" transform="scale(1 1) rotate(0) translate(4 942)">
<title>Logger</title>
<polygon fill="white" stroke="white" points="-4,5 -4,-942 283,-942 283,5 -4,5"/>
<!-- Node1 -->
<g id="node1" class="node"><title>Node1</title>
<polygon fill="#bfbfbf" stroke="black" points="98,-770.5 98,-937.5 178,-937.5 178,-770.5 98,-770.5"/>
<text text-anchor="middle" x="138" y="-924.5" font-family="Helvetica,sans-Serif" font-size="10.00">Logger</text>
<polyline fill="none" stroke="black" points="98,-916.5 178,-916.5 "/>
<text text-anchor="middle" x="138" y="-903.5" font-family="Helvetica,sans-Serif" font-size="10.00"> </text>
<polyline fill="none" stroke="black" points="98,-895.5 178,-895.5 "/>
<text text-anchor="start" x="106" y="-882.5" font-family="Helvetica,sans-Serif" font-size="10.00">+ emergency()</text>
<text text-anchor="start" x="106" y="-869.5" font-family="Helvetica,sans-Serif" font-size="10.00">+ alert()</text>
<text text-anchor="start" x="106" y="-856.5" font-family="Helvetica,sans-Serif" font-size="10.00">+ critical()</text>
<text text-anchor="start" x="106" y="-843.5" font-family="Helvetica,sans-Serif" font-size="10.00">+ error()</text>
<text text-anchor="start" x="106" y="-830.5" font-family="Helvetica,sans-Serif" font-size="10.00">+ warning()</text>
<text text-anchor="start" x="106" y="-817.5" font-family="Helvetica,sans-Serif" font-size="10.00">+ notice()</text>
<text text-anchor="start" x="106" y="-804.5" font-family="Helvetica,sans-Serif" font-size="10.00">+ info()</text>
<text text-anchor="start" x="106" y="-791.5" font-family="Helvetica,sans-Serif" font-size="10.00">+ debug()</text>
<text text-anchor="start" x="106" y="-778.5" font-family="Helvetica,sans-Serif" font-size="10.00">+ log()</text>
</g>
<!-- Node2 -->
<g id="node3" class="node"><title>Node2</title>
<a xlink:href="../../d9/d4f/interface_attachable_logger.html" target="_top" xlink:title="{AttachableLogger\n||+ addAttachment()\l+ removeAttachment()\l+ removeAttachments()\l+ getAttachments()\l}">
<polygon fill="white" stroke="black" points="15.5,-631 15.5,-733 134.5,-733 134.5,-631 15.5,-631"/>
<text text-anchor="middle" x="75" y="-720" font-family="Helvetica,sans-Serif" font-size="10.00">AttachableLogger</text>
<polyline fill="none" stroke="black" points="15.5,-712 134.5,-712 "/>
<text text-anchor="middle" x="75" y="-699" font-family="Helvetica,sans-Serif" font-size="10.00"> </text>
<polyline fill="none" stroke="black" points="15.5,-691 134.5,-691 "/>
<text text-anchor="start" x="23.5" y="-678" font-family="Helvetica,sans-Serif" font-size="10.00">+ addAttachment()</text>
<text text-anchor="start" x="23.5" y="-665" font-family="Helvetica,sans-Serif" font-size="10.00">+ removeAttachment()</text>
<text text-anchor="start" x="23.5" y="-652" font-family="Helvetica,sans-Serif" font-size="10.00">+ removeAttachments()</text>
<text text-anchor="start" x="23.5" y="-639" font-family="Helvetica,sans-Serif" font-size="10.00">+ getAttachments()</text>
</a>
</g>
<!-- Node1&#45;&gt;Node2 -->
<g id="edge2" class="edge"><title>Node1&#45;&gt;Node2</title>
<path fill="none" stroke="midnightblue" d="M103.859,-760.789C100.395,-751.333 96.9743,-741.993 93.7655,-733.233"/>
<polygon fill="none" stroke="midnightblue" points="100.605,-762.081 107.33,-770.267 107.178,-759.674 100.605,-762.081"/>
</g>
<!-- Node4 -->
<g id="node7" class="node"><title>Node4</title>
<a xlink:href="../../d0/d55/class_threaded_logger.html" target="_top" xlink:title="{ThreadedLogger\n||}">
<polygon fill="white" stroke="black" points="158,-650.5 158,-713.5 244,-713.5 244,-650.5 158,-650.5"/>
<text text-anchor="middle" x="201" y="-700.5" font-family="Helvetica,sans-Serif" font-size="10.00">ThreadedLogger</text>
<polyline fill="none" stroke="black" points="158,-692.5 244,-692.5 "/>
<text text-anchor="middle" x="201" y="-679.5" font-family="Helvetica,sans-Serif" font-size="10.00"> </text>
<polyline fill="none" stroke="black" points="158,-671.5 244,-671.5 "/>
<text text-anchor="middle" x="201" y="-658.5" font-family="Helvetica,sans-Serif" font-size="10.00"> </text>
</a>
</g>
<!-- Node1&#45;&gt;Node4 -->
<g id="edge6" class="edge"><title>Node1&#45;&gt;Node4</title>
<path fill="none" stroke="midnightblue" d="M172.13,-760.821C178.343,-743.856 184.42,-727.267 189.382,-713.718"/>
<polygon fill="none" stroke="midnightblue" points="168.822,-759.674 168.67,-770.267 175.395,-762.081 168.822,-759.674"/>
</g>
<!-- Node3 -->
<g id="node5" class="node"><title>Node3</title>
<a xlink:href="../../de/dc8/classpocketmine_1_1plugin_1_1_plugin_logger.html" target="_top" xlink:title="{pocketmine\\plugin\\Plugin\lLogger\n||+ addAttachment()\l+ removeAttachment()\l+ removeAttachments()\l+ getAttachments()\l+ __construct()\l+ emergency()\l+ alert()\l+ critical()\l+ error()\l+ warning()\l+ notice()\l+ info()\l+ debug()\l+ log()\l}">
<polygon fill="white" stroke="black" points="-0.5,-348.5 -0.5,-593.5 124.5,-593.5 124.5,-348.5 -0.5,-348.5"/>
<text text-anchor="start" x="7.5" y="-580.5" font-family="Helvetica,sans-Serif" font-size="10.00">pocketmine\plugin\Plugin</text>
<text text-anchor="middle" x="62" y="-567.5" font-family="Helvetica,sans-Serif" font-size="10.00">Logger</text>
<polyline fill="none" stroke="black" points="-0.5,-559.5 124.5,-559.5 "/>
<text text-anchor="middle" x="62" y="-546.5" font-family="Helvetica,sans-Serif" font-size="10.00"> </text>
<polyline fill="none" stroke="black" points="-0.5,-538.5 124.5,-538.5 "/>
<text text-anchor="start" x="7.5" y="-525.5" font-family="Helvetica,sans-Serif" font-size="10.00">+ addAttachment()</text>
<text text-anchor="start" x="7.5" y="-512.5" font-family="Helvetica,sans-Serif" font-size="10.00">+ removeAttachment()</text>
<text text-anchor="start" x="7.5" y="-499.5" font-family="Helvetica,sans-Serif" font-size="10.00">+ removeAttachments()</text>
<text text-anchor="start" x="7.5" y="-486.5" font-family="Helvetica,sans-Serif" font-size="10.00">+ getAttachments()</text>
<text text-anchor="start" x="7.5" y="-473.5" font-family="Helvetica,sans-Serif" font-size="10.00">+ __construct()</text>
<text text-anchor="start" x="7.5" y="-460.5" font-family="Helvetica,sans-Serif" font-size="10.00">+ emergency()</text>
<text text-anchor="start" x="7.5" y="-447.5" font-family="Helvetica,sans-Serif" font-size="10.00">+ alert()</text>
<text text-anchor="start" x="7.5" y="-434.5" font-family="Helvetica,sans-Serif" font-size="10.00">+ critical()</text>
<text text-anchor="start" x="7.5" y="-421.5" font-family="Helvetica,sans-Serif" font-size="10.00">+ error()</text>
<text text-anchor="start" x="7.5" y="-408.5" font-family="Helvetica,sans-Serif" font-size="10.00">+ warning()</text>
<text text-anchor="start" x="7.5" y="-395.5" font-family="Helvetica,sans-Serif" font-size="10.00">+ notice()</text>
<text text-anchor="start" x="7.5" y="-382.5" font-family="Helvetica,sans-Serif" font-size="10.00">+ info()</text>
<text text-anchor="start" x="7.5" y="-369.5" font-family="Helvetica,sans-Serif" font-size="10.00">+ debug()</text>
<text text-anchor="start" x="7.5" y="-356.5" font-family="Helvetica,sans-Serif" font-size="10.00">+ log()</text>
</a>
</g>
<!-- Node2&#45;&gt;Node3 -->
<g id="edge4" class="edge"><title>Node2&#45;&gt;Node3</title>
<path fill="none" stroke="midnightblue" d="M71.2235,-620.705C70.6944,-612.117 70.136,-603.053 69.5663,-593.806"/>
<polygon fill="none" stroke="midnightblue" points="67.7446,-621.157 71.8531,-630.923 74.7314,-620.726 67.7446,-621.157"/>
</g>
<!-- Node5 -->
<g id="node9" class="node"><title>Node5</title>
<a xlink:href="../../d3/db3/class_attachable_threaded_logger.html" target="_top" xlink:title="{AttachableThreadedLogger\n|# $attachment\l|+ addAttachment()\l+ removeAttachment()\l+ removeAttachments()\l+ getAttachments()\l}">
<polygon fill="white" stroke="black" points="141.5,-420 141.5,-522 274.5,-522 274.5,-420 141.5,-420"/>
<text text-anchor="middle" x="208" y="-509" font-family="Helvetica,sans-Serif" font-size="10.00">AttachableThreadedLogger</text>
<polyline fill="none" stroke="black" points="141.5,-501 274.5,-501 "/>
<text text-anchor="start" x="149.5" y="-488" font-family="Helvetica,sans-Serif" font-size="10.00"># $attachment</text>
<polyline fill="none" stroke="black" points="141.5,-480 274.5,-480 "/>
<text text-anchor="start" x="149.5" y="-467" font-family="Helvetica,sans-Serif" font-size="10.00">+ addAttachment()</text>
<text text-anchor="start" x="149.5" y="-454" font-family="Helvetica,sans-Serif" font-size="10.00">+ removeAttachment()</text>
<text text-anchor="start" x="149.5" y="-441" font-family="Helvetica,sans-Serif" font-size="10.00">+ removeAttachments()</text>
<text text-anchor="start" x="149.5" y="-428" font-family="Helvetica,sans-Serif" font-size="10.00">+ getAttachments()</text>
</a>
</g>
<!-- Node4&#45;&gt;Node5 -->
<g id="edge8" class="edge"><title>Node4&#45;&gt;Node5</title>
<path fill="none" stroke="midnightblue" d="M202.381,-640.361C203.507,-606.424 205.102,-558.352 206.305,-522.089"/>
<polygon fill="none" stroke="midnightblue" points="198.882,-640.301 202.048,-650.411 205.878,-640.533 198.882,-640.301"/>
</g>
<!-- Node6 -->
<g id="node11" class="node"><title>Node6</title>
<a xlink:href="../../d9/d27/classpocketmine_1_1utils_1_1_main_logger.html" target="_top" xlink:title="{pocketmine\\utils\\MainLogger\n|+ $logger\l# $logFile\l# $logStream\l# $shutdown\l# $hasANSI\l# $logDebug\l|+ __construct()\l+ emergency()\l+ alert()\l+ critical()\l+ error()\l+ warning()\l+ notice()\l+ info()\l+ debug()\l+ setLogDebug()\l+ log()\l+ shutdown()\l+ run()\l+ getLogger()\l# send()\l}">
<polygon fill="white" stroke="black" points="137.5,-1 137.5,-311 278.5,-311 278.5,-1 137.5,-1"/>
<text text-anchor="middle" x="208" y="-298" font-family="Helvetica,sans-Serif" font-size="10.00">pocketmine\utils\MainLogger</text>
<polyline fill="none" stroke="black" points="137.5,-290 278.5,-290 "/>
<text text-anchor="start" x="145.5" y="-277" font-family="Helvetica,sans-Serif" font-size="10.00">+ $logger</text>
<text text-anchor="start" x="145.5" y="-264" font-family="Helvetica,sans-Serif" font-size="10.00"># $logFile</text>
<text text-anchor="start" x="145.5" y="-251" font-family="Helvetica,sans-Serif" font-size="10.00"># $logStream</text>
<text text-anchor="start" x="145.5" y="-238" font-family="Helvetica,sans-Serif" font-size="10.00"># $shutdown</text>
<text text-anchor="start" x="145.5" y="-225" font-family="Helvetica,sans-Serif" font-size="10.00"># $hasANSI</text>
<text text-anchor="start" x="145.5" y="-212" font-family="Helvetica,sans-Serif" font-size="10.00"># $logDebug</text>
<polyline fill="none" stroke="black" points="137.5,-204 278.5,-204 "/>
<text text-anchor="start" x="145.5" y="-191" font-family="Helvetica,sans-Serif" font-size="10.00">+ __construct()</text>
<text text-anchor="start" x="145.5" y="-178" font-family="Helvetica,sans-Serif" font-size="10.00">+ emergency()</text>
<text text-anchor="start" x="145.5" y="-165" font-family="Helvetica,sans-Serif" font-size="10.00">+ alert()</text>
<text text-anchor="start" x="145.5" y="-152" font-family="Helvetica,sans-Serif" font-size="10.00">+ critical()</text>
<text text-anchor="start" x="145.5" y="-139" font-family="Helvetica,sans-Serif" font-size="10.00">+ error()</text>
<text text-anchor="start" x="145.5" y="-126" font-family="Helvetica,sans-Serif" font-size="10.00">+ warning()</text>
<text text-anchor="start" x="145.5" y="-113" font-family="Helvetica,sans-Serif" font-size="10.00">+ notice()</text>
<text text-anchor="start" x="145.5" y="-100" font-family="Helvetica,sans-Serif" font-size="10.00">+ info()</text>
<text text-anchor="start" x="145.5" y="-87" font-family="Helvetica,sans-Serif" font-size="10.00">+ debug()</text>
<text text-anchor="start" x="145.5" y="-74" font-family="Helvetica,sans-Serif" font-size="10.00">+ setLogDebug()</text>
<text text-anchor="start" x="145.5" y="-61" font-family="Helvetica,sans-Serif" font-size="10.00">+ log()</text>
<text text-anchor="start" x="145.5" y="-48" font-family="Helvetica,sans-Serif" font-size="10.00">+ shutdown()</text>
<text text-anchor="start" x="145.5" y="-35" font-family="Helvetica,sans-Serif" font-size="10.00">+ run()</text>
<text text-anchor="start" x="145.5" y="-22" font-family="Helvetica,sans-Serif" font-size="10.00">+ getLogger()</text>
<text text-anchor="start" x="145.5" y="-9" font-family="Helvetica,sans-Serif" font-size="10.00"># send()</text>
</a>
</g>
<!-- Node5&#45;&gt;Node6 -->
<g id="edge10" class="edge"><title>Node5&#45;&gt;Node6</title>
<path fill="none" stroke="midnightblue" d="M208,-409.548C208,-381.162 208,-346.043 208,-311.082"/>
<polygon fill="none" stroke="midnightblue" points="204.5,-409.689 208,-419.689 211.5,-409.689 204.5,-409.689"/>
</g>
</g>
</svg>
