<?xml version="1.0" encoding="UTF-8" standalone="no"?>
<!DOCTYPE svg PUBLIC "-//W3C//DTD SVG 1.1//EN"
 "http://www.w3.org/Graphics/SVG/1.1/DTD/svg11.dtd">
<!-- Generated by graphviz version 2.26.3 (20100126.1600)
 -->
<!-- Title: pocketmine\permission\Permission\addParent Pages: 1 -->
<svg width="314pt" height="82pt"
 viewBox="0.00 0.00 314.00 82.00" xmlns="http://www.w3.org/2000/svg" xmlns:xlink="http://www.w3.org/1999/xlink">
<g id="graph1" class="graph" transform="scale(1 1) rotate(0) translate(4 78)">
<title>pocketmine\permission\Permission\addParent</title>
<polygon fill="white" stroke="white" points="-4,5 -4,-78 311,-78 311,5 -4,5"/>
<!-- Node1 -->
<g id="node1" class="node"><title>Node1</title>
<polygon fill="#bfbfbf" stroke="black" points="0.5,-23 0.5,-57 117.5,-57 117.5,-23 0.5,-23"/>
<text text-anchor="start" x="8.5" y="-44" font-family="Helvetica,sans-Serif" font-size="10.00">pocketmine\permission</text>
<text text-anchor="middle" x="59" y="-31" font-family="Helvetica,sans-Serif" font-size="10.00">\Permission\addParent</text>
</g>
<!-- Node2 -->
<g id="node3" class="node"><title>Node2</title>
<a xlink:href="../../d5/df7/classpocketmine_1_1_server.html#a8d9b9873eb3c7efce048f10f803c2b2e" target="_top" xlink:title="pocketmine\\Server\\getInstance">
<polygon fill="white" stroke="black" points="154,-52.5 154,-73.5 306,-73.5 306,-52.5 154,-52.5"/>
<text text-anchor="middle" x="230" y="-60.5" font-family="Helvetica,sans-Serif" font-size="10.00">pocketmine\Server\getInstance</text>
</a>
</g>
<!-- Node1&#45;&gt;Node2 -->
<g id="edge2" class="edge"><title>Node1&#45;&gt;Node2</title>
<path fill="none" stroke="midnightblue" d="M117.848,-47.9153C126.272,-49.0482 135.078,-50.2327 143.893,-51.4184"/>
<polygon fill="midnightblue" stroke="midnightblue" points="143.452,-54.8905 153.83,-52.7549 144.386,-47.953 143.452,-54.8905"/>
</g>
<!-- Node3 -->
<g id="node5" class="node"><title>Node3</title>
<a xlink:href="../../db/dc3/classpocketmine_1_1permission_1_1_permission.html#a7d2c3cc786d1bba634bb234a8f593a32" target="_top" xlink:title="pocketmine\\permission\l\\Permission\\getName">
<polygon fill="white" stroke="black" points="171.5,-0 171.5,-34 288.5,-34 288.5,-0 171.5,-0"/>
<text text-anchor="start" x="179.5" y="-21" font-family="Helvetica,sans-Serif" font-size="10.00">pocketmine\permission</text>
<text text-anchor="middle" x="230" y="-8" font-family="Helvetica,sans-Serif" font-size="10.00">\Permission\getName</text>
</a>
</g>
<!-- Node1&#45;&gt;Node3 -->
<g id="edge4" class="edge"><title>Node1&#45;&gt;Node3</title>
<path fill="none" stroke="midnightblue" d="M117.848,-32.0847C131.764,-30.213 146.726,-28.2006 161.045,-26.2747"/>
<polygon fill="midnightblue" stroke="midnightblue" points="161.889,-29.6928 171.333,-24.8909 160.955,-22.7553 161.889,-29.6928"/>
</g>
</g>
</svg>
