<?xml version="1.0" encoding="UTF-8" standalone="no"?>
<!DOCTYPE svg PUBLIC "-//W3C//DTD SVG 1.1//EN"
 "http://www.w3.org/Graphics/SVG/1.1/DTD/svg11.dtd">
<!-- Generated by graphviz version 2.36.0 (20140111.2315)
 -->
<!-- Title: pocketmine\permission\Permission\getName Pages: 1 -->
<!--zoomable 375 -->
<svg id="main" version="1.1" xmlns="http://www.w3.org/2000/svg" xmlns:xlink="http://www.w3.org/1999/xlink" xml:space="preserve" onload="init(evt)">
<style type="text/css"><![CDATA[
.edge:hover path { stroke: red; }
.edge:hover polygon { stroke: red; fill: red; }
]]></style>
<script type="text/javascript"><![CDATA[
var edges = document.getElementsByTagName('g');
if (edges && edges.length) {
  for (var i=0;i<edges.length;i++) {
    if (edges[i].id.substr(0,4)=='edge') {
      edges[i].setAttribute('class','edge');
    }
  }
}
]]></script>
        <defs>
                <circle id="rim" cx="0" cy="0" r="7"/>
                <circle id="rim2" cx="0" cy="0" r="3.5"/>
                <g id="zoomPlus">
                        <use xlink:href="#rim" fill="#404040">
                                <set attributeName="fill" to="#808080" begin="zoomplus.mouseover" end="zoomplus.mouseout"/>
                        </use>
                        <path d="M-4,0h8M0,-4v8" fill="none" stroke="white" stroke-width="1.5" pointer-events="none"/>
                </g>
                <g id="zoomMin">
                        <use xlink:href="#rim" fill="#404040">
                                <set attributeName="fill" to="#808080" begin="zoomminus.mouseover" end="zoomminus.mouseout"/>
                        </use>
                        <path d="M-4,0h8" fill="none" stroke="white" stroke-width="1.5" pointer-events="none"/>
                </g>
                <g id="dirArrow">
                        <path fill="none" stroke="white" stroke-width="1.5" d="M0,-3.0v7 M-2.5,-0.5L0,-3.0L2.5,-0.5"/>
                </g>
               <g id="resetDef">
                       <use xlink:href="#rim2" fill="#404040">
                               <set attributeName="fill" to="#808080" begin="reset.mouseover" end="reset.mouseout"/>
                       </use>
               </g>
        </defs>

<script type="text/javascript">
var viewWidth = 558;
var viewHeight = 375;
var sectionId = 'dynsection-3';
</script>
<script xlink:href="../../svgpan.js"/>
<svg id="graph" class="graph">
<g id="viewport">
<title>pocketmine\permission\Permission\getName</title>
<polygon fill="white" stroke="none" points="-4,4 -4,-371 554,-371 554,4 -4,4"/>
<!-- Node1 -->
<g id="node1" class="node"><title>Node1</title>
<polygon fill="#bfbfbf" stroke="black" points="0,-185 0,-215 128,-215 128,-185 0,-185"/>
<text text-anchor="start" x="8" y="-203" font-family="Helvetica,sans-Serif" font-size="10.00">pocketmine\permission</text>
<text text-anchor="middle" x="64" y="-192" font-family="Helvetica,sans-Serif" font-size="10.00">\Permission\getName</text>
</g>
<!-- Node2 -->
<g id="node2" class="node"><title>Node2</title>
<g id="a_node2"><a xlink:href="../../db/dc3/classpocketmine_1_1permission_1_1_permission.html#ad3f473c124830cbecf584fd180a411a0" target="_top" xlink:title="pocketmine\\permission\l\\Permission\\addParent">
<polygon fill="white" stroke="black" points="189,-337 189,-367 317,-367 317,-337 189,-337"/>
<text text-anchor="start" x="197" y="-355" font-family="Helvetica,sans-Serif" font-size="10.00">pocketmine\permission</text>
<text text-anchor="middle" x="253" y="-344" font-family="Helvetica,sans-Serif" font-size="10.00">\Permission\addParent</text>
</a>
</g>
</g>
<!-- Node1&#45;&gt;Node2 -->
<g id="edge1" class="edge"><title>Node1&#45;&gt;Node2</title>
<path fill="none" stroke="midnightblue" d="M77.4653,-224.023C93.6047,-252.766 124.418,-300.341 164,-327 171.509,-332.057 180.036,-336.102 188.757,-339.334"/>
<polygon fill="midnightblue" stroke="midnightblue" points="80.4306,-222.151 72.563,-215.055 74.2883,-225.508 80.4306,-222.151"/>
</g>
<!-- Node3 -->
<g id="node3" class="node"><title>Node3</title>
<g id="a_node3"><a xlink:href="../../db/d14/classpocketmine_1_1plugin_1_1_plugin_manager.html#a96891cf3bb78422c19f7e12477d99b15" target="_top" xlink:title="pocketmine\\plugin\\Plugin\lManager\\addPermission">
<polygon fill="white" stroke="black" points="185,-288 185,-318 321,-318 321,-288 185,-288"/>
<text text-anchor="start" x="193" y="-306" font-family="Helvetica,sans-Serif" font-size="10.00">pocketmine\plugin\Plugin</text>
<text text-anchor="middle" x="253" y="-295" font-family="Helvetica,sans-Serif" font-size="10.00">Manager\addPermission</text>
</a>
</g>
</g>
<!-- Node1&#45;&gt;Node3 -->
<g id="edge2" class="edge"><title>Node1&#45;&gt;Node3</title>
<path fill="none" stroke="midnightblue" d="M87.6409,-222.115C106.624,-239.546 135.182,-263.287 164,-278 171.497,-281.828 179.662,-285.142 187.896,-287.991"/>
<polygon fill="midnightblue" stroke="midnightblue" points="89.8119,-219.354 80.1188,-215.076 85.029,-224.465 89.8119,-219.354"/>
</g>
<!-- Node5 -->
<g id="node5" class="node"><title>Node5</title>
<g id="a_node5"><a xlink:href="../../da/dbf/classpocketmine_1_1permission_1_1_permissible_base.html#ad519cc1b25de3684253dfd13c9b13054" target="_top" xlink:title="pocketmine\\permission\l\\PermissibleBase\\isPermissionSet">
<polygon fill="white" stroke="black" points="164,-239 164,-269 342,-269 342,-239 164,-239"/>
<text text-anchor="start" x="172" y="-257" font-family="Helvetica,sans-Serif" font-size="10.00">pocketmine\permission</text>
<text text-anchor="middle" x="253" y="-246" font-family="Helvetica,sans-Serif" font-size="10.00">\PermissibleBase\isPermissionSet</text>
</a>
</g>
</g>
<!-- Node1&#45;&gt;Node5 -->
<g id="edge4" class="edge"><title>Node1&#45;&gt;Node5</title>
<path fill="none" stroke="midnightblue" d="M126.021,-217.96C138.576,-221.631 151.712,-225.455 164,-229 175.292,-232.258 187.409,-235.721 198.931,-238.999"/>
<polygon fill="midnightblue" stroke="midnightblue" points="126.685,-214.507 116.105,-215.056 124.718,-221.225 126.685,-214.507"/>
</g>
<!-- Node7 -->
<g id="node7" class="node"><title>Node7</title>
<g id="a_node7"><a xlink:href="../../db/d14/classpocketmine_1_1plugin_1_1_plugin_manager.html#af9b19ddca0fd9f6718e7db70f48a1682" target="_top" xlink:title="pocketmine\\plugin\\Plugin\lManager\\recalculatePermission\lDefaults">
<polygon fill="white" stroke="black" points="169.5,-179.5 169.5,-220.5 336.5,-220.5 336.5,-179.5 169.5,-179.5"/>
<text text-anchor="start" x="177.5" y="-208.5" font-family="Helvetica,sans-Serif" font-size="10.00">pocketmine\plugin\Plugin</text>
<text text-anchor="start" x="177.5" y="-197.5" font-family="Helvetica,sans-Serif" font-size="10.00">Manager\recalculatePermission</text>
<text text-anchor="middle" x="253" y="-186.5" font-family="Helvetica,sans-Serif" font-size="10.00">Defaults</text>
</a>
</g>
</g>
<!-- Node1&#45;&gt;Node7 -->
<g id="edge6" class="edge"><title>Node1&#45;&gt;Node7</title>
<path fill="none" stroke="midnightblue" d="M138.142,-200C148.368,-200 158.936,-200 169.323,-200"/>
<polygon fill="midnightblue" stroke="midnightblue" points="138.049,-196.5 128.049,-200 138.049,-203.5 138.049,-196.5"/>
</g>
<!-- Node8 -->
<g id="node8" class="node"><title>Node8</title>
<g id="a_node8"><a xlink:href="../../d3/dc9/classpocketmine_1_1permission_1_1_default_permissions.html#a46af15d6a349ae5a21c231f33744088b" target="_top" xlink:title="pocketmine\\permission\l\\DefaultPermissions\\register\lPermission">
<polygon fill="white" stroke="black" points="177,-119.5 177,-160.5 329,-160.5 329,-119.5 177,-119.5"/>
<text text-anchor="start" x="185" y="-148.5" font-family="Helvetica,sans-Serif" font-size="10.00">pocketmine\permission</text>
<text text-anchor="start" x="185" y="-137.5" font-family="Helvetica,sans-Serif" font-size="10.00">\DefaultPermissions\register</text>
<text text-anchor="middle" x="253" y="-126.5" font-family="Helvetica,sans-Serif" font-size="10.00">Permission</text>
</a>
</g>
</g>
<!-- Node1&#45;&gt;Node8 -->
<g id="edge7" class="edge"><title>Node1&#45;&gt;Node8</title>
<path fill="none" stroke="midnightblue" d="M121.855,-181.758C142.701,-175.069 166.434,-167.454 187.874,-160.575"/>
<polygon fill="midnightblue" stroke="midnightblue" points="120.641,-178.472 112.188,-184.859 122.779,-185.137 120.641,-178.472"/>
</g>
<!-- Node9 -->
<g id="node9" class="node"><title>Node9</title>
<g id="a_node9"><a xlink:href="../../d0/d95/classpocketmine_1_1permission_1_1_permission_attachment.html#a892b0574dd2afa489cd6c2037e8ce86f" target="_top" xlink:title="pocketmine\\permission\l\\PermissionAttachment\l\\setPermission">
<polygon fill="white" stroke="black" points="188.5,-59.5 188.5,-100.5 317.5,-100.5 317.5,-59.5 188.5,-59.5"/>
<text text-anchor="start" x="196.5" y="-88.5" font-family="Helvetica,sans-Serif" font-size="10.00">pocketmine\permission</text>
<text text-anchor="start" x="196.5" y="-77.5" font-family="Helvetica,sans-Serif" font-size="10.00">\PermissionAttachment</text>
<text text-anchor="middle" x="253" y="-66.5" font-family="Helvetica,sans-Serif" font-size="10.00">\setPermission</text>
</a>
</g>
</g>
<!-- Node1&#45;&gt;Node9 -->
<g id="edge8" class="edge"><title>Node1&#45;&gt;Node9</title>
<path fill="none" stroke="midnightblue" d="M84.7751,-177.374C103.436,-157.242 133.095,-128.24 164,-110 171.506,-105.57 179.761,-101.674 188.116,-98.2835"/>
<polygon fill="midnightblue" stroke="midnightblue" points="82.0897,-175.125 77.9477,-184.877 87.2668,-179.836 82.0897,-175.125"/>
</g>
<!-- Node10 -->
<g id="node10" class="node"><title>Node10</title>
<g id="a_node10"><a xlink:href="../../d0/d95/classpocketmine_1_1permission_1_1_permission_attachment.html#afa403fb17f8641856b010de450a048b0" target="_top" xlink:title="pocketmine\\permission\l\\PermissionAttachment\l\\unsetPermission">
<polygon fill="white" stroke="black" points="188.5,0.5 188.5,-40.5 317.5,-40.5 317.5,0.5 188.5,0.5"/>
<text text-anchor="start" x="196.5" y="-28.5" font-family="Helvetica,sans-Serif" font-size="10.00">pocketmine\permission</text>
<text text-anchor="start" x="196.5" y="-17.5" font-family="Helvetica,sans-Serif" font-size="10.00">\PermissionAttachment</text>
<text text-anchor="middle" x="253" y="-6.5" font-family="Helvetica,sans-Serif" font-size="10.00">\unsetPermission</text>
</a>
</g>
</g>
<!-- Node1&#45;&gt;Node10 -->
<g id="edge9" class="edge"><title>Node1&#45;&gt;Node10</title>
<path fill="none" stroke="midnightblue" d="M75.0509,-175.454C89.8014,-142.364 120.372,-83.7197 164,-50 171.28,-44.3737 179.68,-39.7655 188.342,-36.0011"/>
<polygon fill="midnightblue" stroke="midnightblue" points="71.7456,-174.279 70.9842,-184.846 78.1693,-177.06 71.7456,-174.279"/>
</g>
<!-- Node4 -->
<g id="node4" class="node"><title>Node4</title>
<g id="a_node4"><a xlink:href="../../db/d14/classpocketmine_1_1plugin_1_1_plugin_manager.html#a09c0b6fc8f7e5ff24c345d874eab9350" target="_top" xlink:title="pocketmine\\plugin\\Plugin\lManager\\enablePlugin">
<polygon fill="white" stroke="black" points="396,-288 396,-318 532,-318 532,-288 396,-288"/>
<text text-anchor="start" x="404" y="-306" font-family="Helvetica,sans-Serif" font-size="10.00">pocketmine\plugin\Plugin</text>
<text text-anchor="middle" x="464" y="-295" font-family="Helvetica,sans-Serif" font-size="10.00">Manager\enablePlugin</text>
</a>
</g>
</g>
<!-- Node3&#45;&gt;Node4 -->
<g id="edge3" class="edge"><title>Node3&#45;&gt;Node4</title>
<path fill="none" stroke="midnightblue" d="M331.508,-303C352.637,-303 375.346,-303 395.847,-303"/>
<polygon fill="midnightblue" stroke="midnightblue" points="331.279,-299.5 321.279,-303 331.279,-306.5 331.279,-299.5"/>
</g>
<!-- Node6 -->
<g id="node6" class="node"><title>Node6</title>
<g id="a_node6"><a xlink:href="../../da/dbf/classpocketmine_1_1permission_1_1_permissible_base.html#a3eebd704b7bca7f878a88eadbefacc2d" target="_top" xlink:title="pocketmine\\permission\l\\PermissibleBase\\hasPermission">
<polygon fill="white" stroke="black" points="378.5,-239 378.5,-269 549.5,-269 549.5,-239 378.5,-239"/>
<text text-anchor="start" x="386.5" y="-257" font-family="Helvetica,sans-Serif" font-size="10.00">pocketmine\permission</text>
<text text-anchor="middle" x="464" y="-246" font-family="Helvetica,sans-Serif" font-size="10.00">\PermissibleBase\hasPermission</text>
</a>
</g>
</g>
<!-- Node5&#45;&gt;Node6 -->
<g id="edge5" class="edge"><title>Node5&#45;&gt;Node6</title>
<path fill="none" stroke="midnightblue" d="M352.251,-254C360.995,-254 369.796,-254 378.411,-254"/>
<polygon fill="midnightblue" stroke="midnightblue" points="352.029,-250.5 342.029,-254 352.029,-257.5 352.029,-250.5"/>
</g>
</g>
</svg>
        <g id="navigator" transform="translate(0 0)" fill="#404254">
                <rect fill="#f2f5e9" fill-opacity="0.5" stroke="#606060" stroke-width=".5" x="0" y="0" width="60" height="60"/>
                <use id="zoomplus" xlink:href="#zoomPlus" x="17" y="9" onmousedown="handleZoom(evt,'in')"/>
                <use id="zoomminus" xlink:href="#zoomMin" x="42" y="9" onmousedown="handleZoom(evt,'out')"/>
                <use id="reset" xlink:href="#resetDef" x="30" y="36" onmousedown="handleReset()"/>
                <g id="arrowUp" xlink:href="#dirArrow" transform="translate(30 24)" onmousedown="handlePan(0,-1)">
                  <use xlink:href="#rim" fill="#404040">
                        <set attributeName="fill" to="#808080" begin="arrowUp.mouseover" end="arrowUp.mouseout"/>
                  </use>
                  <path fill="none" stroke="white" stroke-width="1.5" d="M0,-3.0v7 M-2.5,-0.5L0,-3.0L2.5,-0.5"/>
                </g>
                <g id="arrowRight" xlink:href="#dirArrow" transform="rotate(90) translate(36 -43)" onmousedown="handlePan(1,0)">
                  <use xlink:href="#rim" fill="#404040">
                        <set attributeName="fill" to="#808080" begin="arrowRight.mouseover" end="arrowRight.mouseout"/>
                  </use>
                  <path fill="none" stroke="white" stroke-width="1.5" d="M0,-3.0v7 M-2.5,-0.5L0,-3.0L2.5,-0.5"/>
                </g>
                <g id="arrowDown" xlink:href="#dirArrow" transform="rotate(180) translate(-30 -48)" onmousedown="handlePan(0,1)">
                  <use xlink:href="#rim" fill="#404040">
                        <set attributeName="fill" to="#808080" begin="arrowDown.mouseover" end="arrowDown.mouseout"/>
                  </use>
                  <path fill="none" stroke="white" stroke-width="1.5" d="M0,-3.0v7 M-2.5,-0.5L0,-3.0L2.5,-0.5"/>
                </g>
                <g id="arrowLeft" xlink:href="#dirArrow" transform="rotate(270) translate(-36 17)" onmousedown="handlePan(-1,0)">
                  <use xlink:href="#rim" fill="#404040">
                        <set attributeName="fill" to="#808080" begin="arrowLeft.mouseover" end="arrowLeft.mouseout"/>
                  </use>
                  <path fill="none" stroke="white" stroke-width="1.5" d="M0,-3.0v7 M-2.5,-0.5L0,-3.0L2.5,-0.5"/>
                </g>
        </g>
        <svg viewBox="0 0 15 15" width="100%" height="30px" preserveAspectRatio="xMaxYMin meet">
         <g id="arrow_out" transform="scale(0.3 0.3)">
          <a xlink:href="classpocketmine_1_1permission_1_1_permission_a7d2c3cc786d1bba634bb234a8f593a32_icgraph_org.svg" target="_base">
           <rect id="button" ry="5" rx="5" y="6" x="6" height="38" width="38"
                fill="#f2f5e9" fill-opacity="0.5" stroke="#606060" stroke-width="1.0"/>
           <path id="arrow"
             d="M 11.500037,31.436501 C 11.940474,20.09759 22.043105,11.32322 32.158766,21.979434 L 37.068811,17.246167 C 37.068811,17.246167 37.088388,32 37.088388,32 L 22.160133,31.978069 C 22.160133,31.978069 26.997745,27.140456 26.997745,27.140456 C 18.528582,18.264221 13.291696,25.230495 11.500037,31.436501 z"
             style="fill:#404040;"/>
          </a>
         </g>
        </svg>
</svg>
