<?xml version="1.0" encoding="UTF-8" standalone="no"?>
<!DOCTYPE svg PUBLIC "-//W3C//DTD SVG 1.1//EN"
 "http://www.w3.org/Graphics/SVG/1.1/DTD/svg11.dtd">
<!-- Generated by graphviz version 2.26.3 (20100126.1600)
 -->
<!-- Title: G Pages: 1 -->
<!--zoomable 150 -->
<svg id="main" version="1.1" xmlns="http://www.w3.org/2000/svg" xmlns:xlink="http://www.w3.org/1999/xlink" xml:space="preserve" onload="init(evt)">
        <defs>
                <circle id="rim" cx="0" cy="0" r="7"/>
                <circle id="rim2" cx="0" cy="0" r="3.5"/>
                <g id="zoomPlus">
                        <use xlink:href="#rim" fill="#404040">
                                <set attributeName="fill" to="#808080" begin="zoomplus.mouseover" end="zoomplus.mouseout"/>
                        </use>
                        <path d="M-4,0h8M0,-4v8" fill="none" stroke="white" stroke-width="1.5" pointer-events="none"/>
                </g>
                <g id="zoomMin">
                        <use xlink:href="#rim" fill="#404040">
                                <set attributeName="fill" to="#808080" begin="zoomminus.mouseover" end="zoomminus.mouseout"/>
                        </use>
                        <path d="M-4,0h8" fill="none" stroke="white" stroke-width="1.5" pointer-events="none"/>
                </g>
                <g id="dirArrow">
                        <path fill="none" stroke="white" stroke-width="1.5" d="M0,-3.0v7 M-2.5,-0.5L0,-3.0L2.5,-0.5"/>
                </g>
               <g id="resetDef">
                       <use xlink:href="#rim2" fill="#404040">
                               <set attributeName="fill" to="#808080" begin="reset.mouseover" end="reset.mouseout"/>
                       </use>
               </g>
        </defs>

<script type="text/javascript">
var viewWidth = 552;
var viewHeight = 150;
var sectionId = 'dynsection-0';
</script>
<script xlink:href="../../svgpan.js"/>
<svg id="graph" class="graph">
<g id="viewport">
<title>G</title>
<polygon fill="white" stroke="white" points="-4,5 -4,-146 549,-146 549,5 -4,5"/>
<!-- Node1 -->
<g id="node1" class="node"><title>Node1</title>
<polygon fill="#bfbfbf" stroke="black" points="0,-60.5 0,-81.5 212,-81.5 212,-60.5 0,-60.5"/>
<text text-anchor="middle" x="106" y="-68.5" font-family="Helvetica,sans-Serif" font-size="10.00">pocketmine\permission\Permission\getName</text>
</g>
<!-- Node2 -->
<g id="node3" class="node"><title>Node2</title>
<a xlink:href="../../da/dbf/classpocketmine_1_1permission_1_1_permissible_base.html#ad519cc1b25de3684253dfd13c9b13054" target="_top" xlink:title="pocketmine\\permission\\PermissibleBase\\isPermissionSet">
<polygon fill="white" stroke="black" points="262,-120.5 262,-141.5 530,-141.5 530,-120.5 262,-120.5"/>
<text text-anchor="middle" x="396" y="-128.5" font-family="Helvetica,sans-Serif" font-size="10.00">pocketmine\permission\PermissibleBase\isPermissionSet</text>
</a>
</g>
<!-- Node1&#45;&gt;Node2 -->
<g id="edge2" class="edge"><title>Node1&#45;&gt;Node2</title>
<path fill="none" stroke="midnightblue" d="M148.257,-84.5847C176.297,-93.1806 214.05,-103.961 248,-111 265.645,-114.659 284.617,-117.805 302.896,-120.447"/>
<polygon fill="midnightblue" stroke="midnightblue" points="148.979,-81.1443 138.392,-81.5275 146.907,-87.8306 148.979,-81.1443"/>
</g>
<!-- Node3 -->
<g id="node5" class="node"><title>Node3</title>
<a xlink:href="../../d3/dc9/classpocketmine_1_1permission_1_1_default_permissions.html#a46af15d6a349ae5a21c231f33744088b" target="_top" xlink:title="pocketmine\\permission\\DefaultPermissions\\registerPermission">
<polygon fill="white" stroke="black" points="251,-80.5 251,-101.5 541,-101.5 541,-80.5 251,-80.5"/>
<text text-anchor="middle" x="396" y="-88.5" font-family="Helvetica,sans-Serif" font-size="10.00">pocketmine\permission\DefaultPermissions\registerPermission</text>
</a>
</g>
<!-- Node1&#45;&gt;Node3 -->
<g id="edge4" class="edge"><title>Node1&#45;&gt;Node3</title>
<path fill="none" stroke="midnightblue" d="M222.402,-79.0277C231.743,-79.6719 241.249,-80.3275 250.756,-80.9832"/>
<polygon fill="midnightblue" stroke="midnightblue" points="222.556,-75.5301 212.339,-78.3337 222.074,-82.5135 222.556,-75.5301"/>
</g>
<!-- Node4 -->
<g id="node7" class="node"><title>Node4</title>
<a xlink:href="../../d0/d95/classpocketmine_1_1permission_1_1_permission_attachment.html#a892b0574dd2afa489cd6c2037e8ce86f" target="_top" xlink:title="pocketmine\\permission\\PermissionAttachment\\setPermission">
<polygon fill="white" stroke="black" points="254,-40.5 254,-61.5 538,-61.5 538,-40.5 254,-40.5"/>
<text text-anchor="middle" x="396" y="-48.5" font-family="Helvetica,sans-Serif" font-size="10.00">pocketmine\permission\PermissionAttachment\setPermission</text>
</a>
</g>
<!-- Node1&#45;&gt;Node4 -->
<g id="edge6" class="edge"><title>Node1&#45;&gt;Node4</title>
<path fill="none" stroke="midnightblue" d="M222.544,-62.9625C232.824,-62.2535 243.303,-61.5308 253.763,-60.8095"/>
<polygon fill="midnightblue" stroke="midnightblue" points="222.074,-59.4865 212.339,-63.6663 222.556,-66.4699 222.074,-59.4865"/>
</g>
<!-- Node5 -->
<g id="node9" class="node"><title>Node5</title>
<a xlink:href="../../d0/d95/classpocketmine_1_1permission_1_1_permission_attachment.html#afa403fb17f8641856b010de450a048b0" target="_top" xlink:title="pocketmine\\permission\\PermissionAttachment\\unsetPermission">
<polygon fill="white" stroke="black" points="248.5,-0.5 248.5,-21.5 543.5,-21.5 543.5,-0.5 248.5,-0.5"/>
<text text-anchor="middle" x="396" y="-8.5" font-family="Helvetica,sans-Serif" font-size="10.00">pocketmine\permission\PermissionAttachment\unsetPermission</text>
</a>
</g>
<!-- Node1&#45;&gt;Node5 -->
<g id="edge8" class="edge"><title>Node1&#45;&gt;Node5</title>
<path fill="none" stroke="midnightblue" d="M148.257,-57.4153C176.297,-48.8194 214.05,-38.0395 248,-31 265.645,-27.3415 284.617,-24.1953 302.896,-21.553"/>
<polygon fill="midnightblue" stroke="midnightblue" points="146.907,-54.1694 138.392,-60.4725 148.979,-60.8557 146.907,-54.1694"/>
</g>
</g>
</svg>
        <g id="navigator" transform="translate(0 0)" fill="#404254">
                <rect fill="#f2f5e9" fill-opacity="0.5" stroke="#606060" stroke-width=".5" x="0" y="0" width="60" height="60"/>
                <use id="zoomplus" xlink:href="#zoomPlus" x="17" y="9" onmousedown="handleZoom(evt,'in')"/>
                <use id="zoomminus" xlink:href="#zoomMin" x="42" y="9" onmousedown="handleZoom(evt,'out')"/>
                <use id="reset" xlink:href="#resetDef" x="30" y="36" onmousedown="handleReset()"/>
                <g id="arrowUp" xlink:href="#dirArrow" transform="translate(30 24)" onmousedown="handlePan(0,-1)">
                  <use xlink:href="#rim" fill="#404040">
                        <set attributeName="fill" to="#808080" begin="arrowUp.mouseover" end="arrowUp.mouseout"/>
                  </use>
                  <path fill="none" stroke="white" stroke-width="1.5" d="M0,-3.0v7 M-2.5,-0.5L0,-3.0L2.5,-0.5"/>
                </g>
                <g id="arrowRight" xlink:href="#dirArrow" transform="rotate(90) translate(36 -43)" onmousedown="handlePan(1,0)">
                  <use xlink:href="#rim" fill="#404040">
                        <set attributeName="fill" to="#808080" begin="arrowRight.mouseover" end="arrowRight.mouseout"/>
                  </use>
                  <path fill="none" stroke="white" stroke-width="1.5" d="M0,-3.0v7 M-2.5,-0.5L0,-3.0L2.5,-0.5"/>
                </g>
                <g id="arrowDown" xlink:href="#dirArrow" transform="rotate(180) translate(-30 -48)" onmousedown="handlePan(0,1)">
                  <use xlink:href="#rim" fill="#404040">
                        <set attributeName="fill" to="#808080" begin="arrowDown.mouseover" end="arrowDown.mouseout"/>
                  </use>
                  <path fill="none" stroke="white" stroke-width="1.5" d="M0,-3.0v7 M-2.5,-0.5L0,-3.0L2.5,-0.5"/>
                </g>
                <g id="arrowLeft" xlink:href="#dirArrow" transform="rotate(270) translate(-36 17)" onmousedown="handlePan(-1,0)">
                  <use xlink:href="#rim" fill="#404040">
                        <set attributeName="fill" to="#808080" begin="arrowLeft.mouseover" end="arrowLeft.mouseout"/>
                  </use>
                  <path fill="none" stroke="white" stroke-width="1.5" d="M0,-3.0v7 M-2.5,-0.5L0,-3.0L2.5,-0.5"/>
                </g>
        </g>
</svg>
