<?xml version="1.0" encoding="UTF-8" standalone="no"?>
<!DOCTYPE svg PUBLIC "-//W3C//DTD SVG 1.1//EN"
 "http://www.w3.org/Graphics/SVG/1.1/DTD/svg11.dtd">
<!-- Generated by graphviz version 2.26.3 (20100126.1600)
 -->
<!-- Title: pocketmine\permission\Permission\getByName Pages: 1 -->
<svg width="306pt" height="42pt"
 viewBox="0.00 0.00 306.00 42.00" xmlns="http://www.w3.org/2000/svg" xmlns:xlink="http://www.w3.org/1999/xlink">
<g id="graph1" class="graph" transform="scale(1 1) rotate(0) translate(4 38)">
<title>pocketmine\permission\Permission\getByName</title>
<polygon fill="white" stroke="white" points="-4,5 -4,-38 303,-38 303,5 -4,5"/>
<!-- Node1 -->
<g id="node1" class="node"><title>Node1</title>
<polygon fill="#bfbfbf" stroke="black" points="0.5,-0 0.5,-34 123.5,-34 123.5,-0 0.5,-0"/>
<text text-anchor="start" x="8.5" y="-21" font-family="Helvetica,sans-Serif" font-size="10.00">pocketmine\permission</text>
<text text-anchor="middle" x="62" y="-8" font-family="Helvetica,sans-Serif" font-size="10.00">\Permission\getByName</text>
</g>
<!-- Node2 -->
<g id="node3" class="node"><title>Node2</title>
<a xlink:href="../../db/dc3/classpocketmine_1_1permission_1_1_permission.html#a8cc2ad67d57edd4f60952dbdb54cf4ea" target="_top" xlink:title="pocketmine\\permission\l\\Permission\\loadPermission">
<polygon fill="white" stroke="black" points="160,-0 160,-34 298,-34 298,-0 160,-0"/>
<text text-anchor="start" x="168" y="-21" font-family="Helvetica,sans-Serif" font-size="10.00">pocketmine\permission</text>
<text text-anchor="middle" x="229" y="-8" font-family="Helvetica,sans-Serif" font-size="10.00">\Permission\loadPermission</text>
</a>
</g>
<!-- Node1&#45;&gt;Node2 -->
<g id="edge2" class="edge"><title>Node1&#45;&gt;Node2</title>
<path fill="none" stroke="midnightblue" d="M133.792,-17C142.466,-17 151.313,-17 159.947,-17"/>
<polygon fill="midnightblue" stroke="midnightblue" points="133.71,-13.5001 123.71,-17 133.71,-20.5001 133.71,-13.5001"/>
</g>
</g>
</svg>
