<?xml version="1.0" encoding="UTF-8" standalone="no"?>
<!DOCTYPE svg PUBLIC "-//W3C//DTD SVG 1.1//EN"
 "http://www.w3.org/Graphics/SVG/1.1/DTD/svg11.dtd">
<!-- Generated by graphviz version 2.26.3 (20100126.1600)
 -->
<!-- Title: pocketmine\permission\Permission\getName Pages: 1 -->
<!--zoomable 410 -->
<svg id="main" version="1.1" xmlns="http://www.w3.org/2000/svg" xmlns:xlink="http://www.w3.org/1999/xlink" xml:space="preserve" onload="init(evt)">
<style type="text/css"><![CDATA[
.edge:hover path { stroke: red; }
.edge:hover polygon { stroke: red; fill: red; }
]]></style>
<script type="text/javascript"><![CDATA[
var edges = document.getElementsByTagName('g');
if (edges && edges.length) {
  for (var i=0;i<edges.length;i++) {
    if (edges[i].id.substr(0,4)=='edge') {
      edges[i].setAttribute('class','edge');
    }
  }
}
]]></script>
        <defs>
                <circle id="rim" cx="0" cy="0" r="7"/>
                <circle id="rim2" cx="0" cy="0" r="3.5"/>
                <g id="zoomPlus">
                        <use xlink:href="#rim" fill="#404040">
                                <set attributeName="fill" to="#808080" begin="zoomplus.mouseover" end="zoomplus.mouseout"/>
                        </use>
                        <path d="M-4,0h8M0,-4v8" fill="none" stroke="white" stroke-width="1.5" pointer-events="none"/>
                </g>
                <g id="zoomMin">
                        <use xlink:href="#rim" fill="#404040">
                                <set attributeName="fill" to="#808080" begin="zoomminus.mouseover" end="zoomminus.mouseout"/>
                        </use>
                        <path d="M-4,0h8" fill="none" stroke="white" stroke-width="1.5" pointer-events="none"/>
                </g>
                <g id="dirArrow">
                        <path fill="none" stroke="white" stroke-width="1.5" d="M0,-3.0v7 M-2.5,-0.5L0,-3.0L2.5,-0.5"/>
                </g>
               <g id="resetDef">
                       <use xlink:href="#rim2" fill="#404040">
                               <set attributeName="fill" to="#808080" begin="reset.mouseover" end="reset.mouseout"/>
                       </use>
               </g>
        </defs>

<script type="text/javascript">
var viewWidth = 528;
var viewHeight = 410;
var sectionId = 'dynsection-3';
</script>
<script xlink:href="../../svgpan.js"/>
<svg id="graph" class="graph">
<g id="viewport">
<title>pocketmine\permission\Permission\getName</title>
<polygon fill="white" stroke="white" points="-4,5 -4,-406 525,-406 525,5 -4,5"/>
<!-- Node1 -->
<g id="node1" class="node"><title>Node1</title>
<polygon fill="#bfbfbf" stroke="black" points="0.5,-205 0.5,-239 117.5,-239 117.5,-205 0.5,-205"/>
<text text-anchor="start" x="8.5" y="-226" font-family="Helvetica,sans-Serif" font-size="10.00">pocketmine\permission</text>
<text text-anchor="middle" x="59" y="-213" font-family="Helvetica,sans-Serif" font-size="10.00">\Permission\getName</text>
</g>
<!-- Node2 -->
<g id="node3" class="node"><title>Node2</title>
<a xlink:href="../../db/dc3/classpocketmine_1_1permission_1_1_permission.html#ad3f473c124830cbecf584fd180a411a0" target="_top" xlink:title="pocketmine\\permission\l\\Permission\\addParent">
<polygon fill="white" stroke="black" points="179.5,-368 179.5,-402 296.5,-402 296.5,-368 179.5,-368"/>
<text text-anchor="start" x="187.5" y="-389" font-family="Helvetica,sans-Serif" font-size="10.00">pocketmine\permission</text>
<text text-anchor="middle" x="238" y="-376" font-family="Helvetica,sans-Serif" font-size="10.00">\Permission\addParent</text>
</a>
</g>
<!-- Node1&#45;&gt;Node2 -->
<g id="edge2" class="edge"><title>Node1&#45;&gt;Node2</title>
<path fill="none" stroke="midnightblue" d="M70.6172,-248.346C85.562,-279.262 114.393,-329.98 154,-359 161.512,-364.504 170.213,-368.861 179.11,-372.305"/>
<polygon fill="midnightblue" stroke="midnightblue" points="73.6743,-246.621 66.2569,-239.056 67.3377,-249.596 73.6743,-246.621"/>
</g>
<!-- Node3 -->
<g id="node5" class="node"><title>Node3</title>
<a xlink:href="../../db/d14/classpocketmine_1_1plugin_1_1_plugin_manager.html#a96891cf3bb78422c19f7e12477d99b15" target="_top" xlink:title="pocketmine\\plugin\\Plugin\lManager\\addPermission">
<polygon fill="white" stroke="black" points="175.5,-316 175.5,-350 300.5,-350 300.5,-316 175.5,-316"/>
<text text-anchor="start" x="183.5" y="-337" font-family="Helvetica,sans-Serif" font-size="10.00">pocketmine\plugin\Plugin</text>
<text text-anchor="middle" x="238" y="-324" font-family="Helvetica,sans-Serif" font-size="10.00">Manager\addPermission</text>
</a>
</g>
<!-- Node1&#45;&gt;Node3 -->
<g id="edge4" class="edge"><title>Node1&#45;&gt;Node3</title>
<path fill="none" stroke="midnightblue" d="M80.6849,-246.477C98.6482,-265.405 125.73,-291 154,-307 160.643,-310.76 167.895,-314.043 175.265,-316.892"/>
<polygon fill="midnightblue" stroke="midnightblue" points="83.1738,-244.014 73.8001,-239.076 78.0485,-248.782 83.1738,-244.014"/>
</g>
<!-- Node5 -->
<g id="node9" class="node"><title>Node5</title>
<a xlink:href="../../da/dbf/classpocketmine_1_1permission_1_1_permissible_base.html#ad519cc1b25de3684253dfd13c9b13054" target="_top" xlink:title="pocketmine\\permission\l\\PermissibleBase\\isPermissionSet">
<polygon fill="white" stroke="black" points="154.5,-264 154.5,-298 321.5,-298 321.5,-264 154.5,-264"/>
<text text-anchor="start" x="162.5" y="-285" font-family="Helvetica,sans-Serif" font-size="10.00">pocketmine\permission</text>
<text text-anchor="middle" x="238" y="-272" font-family="Helvetica,sans-Serif" font-size="10.00">\PermissibleBase\isPermissionSet</text>
</a>
</g>
<!-- Node1&#45;&gt;Node5 -->
<g id="edge8" class="edge"><title>Node1&#45;&gt;Node5</title>
<path fill="none" stroke="midnightblue" d="M116.872,-242.456C129.106,-246.681 141.958,-251.046 154,-255 162.993,-257.953 172.556,-261 181.887,-263.923"/>
<polygon fill="midnightblue" stroke="midnightblue" points="117.816,-239.079 107.221,-239.108 115.522,-245.692 117.816,-239.079"/>
</g>
<!-- Node7 -->
<g id="node13" class="node"><title>Node7</title>
<a xlink:href="../../db/d14/classpocketmine_1_1plugin_1_1_plugin_manager.html#af9b19ddca0fd9f6718e7db70f48a1682" target="_top" xlink:title="pocketmine\\plugin\\Plugin\lManager\\recalculatePermission\lDefaults">
<polygon fill="white" stroke="black" points="161.5,-198.5 161.5,-245.5 314.5,-245.5 314.5,-198.5 161.5,-198.5"/>
<text text-anchor="start" x="169.5" y="-232.5" font-family="Helvetica,sans-Serif" font-size="10.00">pocketmine\plugin\Plugin</text>
<text text-anchor="start" x="169.5" y="-219.5" font-family="Helvetica,sans-Serif" font-size="10.00">Manager\recalculatePermission</text>
<text text-anchor="middle" x="238" y="-206.5" font-family="Helvetica,sans-Serif" font-size="10.00">Defaults</text>
</a>
</g>
<!-- Node1&#45;&gt;Node7 -->
<g id="edge12" class="edge"><title>Node1&#45;&gt;Node7</title>
<path fill="none" stroke="midnightblue" d="M127.939,-222C138.873,-222 150.239,-222 161.337,-222"/>
<polygon fill="midnightblue" stroke="midnightblue" points="127.611,-218.5 117.611,-222 127.611,-225.5 127.611,-218.5"/>
</g>
<!-- Node8 -->
<g id="node15" class="node"><title>Node8</title>
<a xlink:href="../../d3/dc9/classpocketmine_1_1permission_1_1_default_permissions.html#a46af15d6a349ae5a21c231f33744088b" target="_top" xlink:title="pocketmine\\permission\l\\DefaultPermissions\\register\lPermission">
<polygon fill="white" stroke="black" points="168,-132.5 168,-179.5 308,-179.5 308,-132.5 168,-132.5"/>
<text text-anchor="start" x="176" y="-166.5" font-family="Helvetica,sans-Serif" font-size="10.00">pocketmine\permission</text>
<text text-anchor="start" x="176" y="-153.5" font-family="Helvetica,sans-Serif" font-size="10.00">\DefaultPermissions\register</text>
<text text-anchor="middle" x="238" y="-140.5" font-family="Helvetica,sans-Serif" font-size="10.00">Permission</text>
</a>
</g>
<!-- Node1&#45;&gt;Node8 -->
<g id="edge14" class="edge"><title>Node1&#45;&gt;Node8</title>
<path fill="none" stroke="midnightblue" d="M115.131,-201.304C133.865,-194.396 154.876,-186.649 174.153,-179.541"/>
<polygon fill="midnightblue" stroke="midnightblue" points="113.735,-198.088 105.563,-204.832 116.156,-204.656 113.735,-198.088"/>
</g>
<!-- Node9 -->
<g id="node17" class="node"><title>Node9</title>
<a xlink:href="../../d0/d95/classpocketmine_1_1permission_1_1_permission_attachment.html#a892b0574dd2afa489cd6c2037e8ce86f" target="_top" xlink:title="pocketmine\\permission\l\\PermissionAttachment\l\\setPermission">
<polygon fill="white" stroke="black" points="178.5,-66.5 178.5,-113.5 297.5,-113.5 297.5,-66.5 178.5,-66.5"/>
<text text-anchor="start" x="186.5" y="-100.5" font-family="Helvetica,sans-Serif" font-size="10.00">pocketmine\permission</text>
<text text-anchor="start" x="186.5" y="-87.5" font-family="Helvetica,sans-Serif" font-size="10.00">\PermissionAttachment</text>
<text text-anchor="middle" x="238" y="-74.5" font-family="Helvetica,sans-Serif" font-size="10.00">\setPermission</text>
</a>
</g>
<!-- Node1&#45;&gt;Node9 -->
<g id="edge16" class="edge"><title>Node1&#45;&gt;Node9</title>
<path fill="none" stroke="midnightblue" d="M77.9163,-196.841C95.5527,-174.848 123.64,-143.336 154,-123 161.42,-118.03 169.701,-113.637 178.09,-109.811"/>
<polygon fill="midnightblue" stroke="midnightblue" points="75.1182,-194.737 71.6857,-204.76 80.6197,-199.065 75.1182,-194.737"/>
</g>
<!-- Node10 -->
<g id="node19" class="node"><title>Node10</title>
<a xlink:href="../../d0/d95/classpocketmine_1_1permission_1_1_permission_attachment.html#afa403fb17f8641856b010de450a048b0" target="_top" xlink:title="pocketmine\\permission\l\\PermissionAttachment\l\\unsetPermission">
<polygon fill="white" stroke="black" points="178.5,-0.5 178.5,-47.5 297.5,-47.5 297.5,-0.5 178.5,-0.5"/>
<text text-anchor="start" x="186.5" y="-34.5" font-family="Helvetica,sans-Serif" font-size="10.00">pocketmine\permission</text>
<text text-anchor="start" x="186.5" y="-21.5" font-family="Helvetica,sans-Serif" font-size="10.00">\PermissionAttachment</text>
<text text-anchor="middle" x="238" y="-8.5" font-family="Helvetica,sans-Serif" font-size="10.00">\unsetPermission</text>
</a>
</g>
<!-- Node1&#45;&gt;Node10 -->
<g id="edge18" class="edge"><title>Node1&#45;&gt;Node10</title>
<path fill="none" stroke="midnightblue" d="M68.0971,-194.929C81.5188,-158.81 109.904,-95.0061 154,-57 161.121,-50.8624 169.518,-45.789 178.202,-41.6182"/>
<polygon fill="midnightblue" stroke="midnightblue" points="64.6506,-194.17 64.5592,-204.765 71.2375,-196.54 64.6506,-194.17"/>
</g>
<!-- Node4 -->
<g id="node7" class="node"><title>Node4</title>
<a xlink:href="../../db/d14/classpocketmine_1_1plugin_1_1_plugin_manager.html#a09c0b6fc8f7e5ff24c345d874eab9350" target="_top" xlink:title="pocketmine\\plugin\\Plugin\lManager\\enablePlugin">
<polygon fill="white" stroke="black" points="376.5,-316 376.5,-350 501.5,-350 501.5,-316 376.5,-316"/>
<text text-anchor="start" x="384.5" y="-337" font-family="Helvetica,sans-Serif" font-size="10.00">pocketmine\plugin\Plugin</text>
<text text-anchor="middle" x="439" y="-324" font-family="Helvetica,sans-Serif" font-size="10.00">Manager\enablePlugin</text>
</a>
</g>
<!-- Node3&#45;&gt;Node4 -->
<g id="edge6" class="edge"><title>Node3&#45;&gt;Node4</title>
<path fill="none" stroke="midnightblue" d="M310.817,-333C332.288,-333 355.588,-333 376.36,-333"/>
<polygon fill="midnightblue" stroke="midnightblue" points="310.771,-329.5 300.771,-333 310.771,-336.5 310.771,-329.5"/>
</g>
<!-- Node6 -->
<g id="node11" class="node"><title>Node6</title>
<a xlink:href="../../da/dbf/classpocketmine_1_1permission_1_1_permissible_base.html#a3eebd704b7bca7f878a88eadbefacc2d" target="_top" xlink:title="pocketmine\\permission\l\\PermissibleBase\\hasPermission">
<polygon fill="white" stroke="black" points="358.5,-264 358.5,-298 519.5,-298 519.5,-264 358.5,-264"/>
<text text-anchor="start" x="366.5" y="-285" font-family="Helvetica,sans-Serif" font-size="10.00">pocketmine\permission</text>
<text text-anchor="middle" x="439" y="-272" font-family="Helvetica,sans-Serif" font-size="10.00">\PermissibleBase\hasPermission</text>
</a>
</g>
<!-- Node5&#45;&gt;Node6 -->
<g id="edge10" class="edge"><title>Node5&#45;&gt;Node6</title>
<path fill="none" stroke="midnightblue" d="M332.028,-281C340.792,-281 349.622,-281 358.25,-281"/>
<polygon fill="midnightblue" stroke="midnightblue" points="331.787,-277.5 321.787,-281 331.787,-284.5 331.787,-277.5"/>
</g>
</g>
</svg>
        <g id="navigator" transform="translate(0 0)" fill="#404254">
                <rect fill="#f2f5e9" fill-opacity="0.5" stroke="#606060" stroke-width=".5" x="0" y="0" width="60" height="60"/>
                <use id="zoomplus" xlink:href="#zoomPlus" x="17" y="9" onmousedown="handleZoom(evt,'in')"/>
                <use id="zoomminus" xlink:href="#zoomMin" x="42" y="9" onmousedown="handleZoom(evt,'out')"/>
                <use id="reset" xlink:href="#resetDef" x="30" y="36" onmousedown="handleReset()"/>
                <g id="arrowUp" xlink:href="#dirArrow" transform="translate(30 24)" onmousedown="handlePan(0,-1)">
                  <use xlink:href="#rim" fill="#404040">
                        <set attributeName="fill" to="#808080" begin="arrowUp.mouseover" end="arrowUp.mouseout"/>
                  </use>
                  <path fill="none" stroke="white" stroke-width="1.5" d="M0,-3.0v7 M-2.5,-0.5L0,-3.0L2.5,-0.5"/>
                </g>
                <g id="arrowRight" xlink:href="#dirArrow" transform="rotate(90) translate(36 -43)" onmousedown="handlePan(1,0)">
                  <use xlink:href="#rim" fill="#404040">
                        <set attributeName="fill" to="#808080" begin="arrowRight.mouseover" end="arrowRight.mouseout"/>
                  </use>
                  <path fill="none" stroke="white" stroke-width="1.5" d="M0,-3.0v7 M-2.5,-0.5L0,-3.0L2.5,-0.5"/>
                </g>
                <g id="arrowDown" xlink:href="#dirArrow" transform="rotate(180) translate(-30 -48)" onmousedown="handlePan(0,1)">
                  <use xlink:href="#rim" fill="#404040">
                        <set attributeName="fill" to="#808080" begin="arrowDown.mouseover" end="arrowDown.mouseout"/>
                  </use>
                  <path fill="none" stroke="white" stroke-width="1.5" d="M0,-3.0v7 M-2.5,-0.5L0,-3.0L2.5,-0.5"/>
                </g>
                <g id="arrowLeft" xlink:href="#dirArrow" transform="rotate(270) translate(-36 17)" onmousedown="handlePan(-1,0)">
                  <use xlink:href="#rim" fill="#404040">
                        <set attributeName="fill" to="#808080" begin="arrowLeft.mouseover" end="arrowLeft.mouseout"/>
                  </use>
                  <path fill="none" stroke="white" stroke-width="1.5" d="M0,-3.0v7 M-2.5,-0.5L0,-3.0L2.5,-0.5"/>
                </g>
        </g>
        <svg viewBox="0 0 15 15" width="100%" height="30px" preserveAspectRatio="xMaxYMin meet">
         <g id="arrow_out" transform="scale(0.3 0.3)">
          <a xlink:href="classpocketmine_1_1permission_1_1_permission_a7d2c3cc786d1bba634bb234a8f593a32_icgraph_org.svg" target="_base">
           <rect id="button" ry="5" rx="5" y="6" x="6" height="38" width="38"
                fill="#f2f5e9" fill-opacity="0.5" stroke="#606060" stroke-width="1.0"/>
           <path id="arrow"
             d="M 11.500037,31.436501 C 11.940474,20.09759 22.043105,11.32322 32.158766,21.979434 L 37.068811,17.246167 C 37.068811,17.246167 37.088388,32 37.088388,32 L 22.160133,31.978069 C 22.160133,31.978069 26.997745,27.140456 26.997745,27.140456 C 18.528582,18.264221 13.291696,25.230495 11.500037,31.436501 z"
             style="fill:#404040;"/>
          </a>
         </g>
        </svg>
</svg>
