<?xml version="1.0" encoding="UTF-8" standalone="no"?>
<!DOCTYPE svg PUBLIC "-//W3C//DTD SVG 1.1//EN"
 "http://www.w3.org/Graphics/SVG/1.1/DTD/svg11.dtd">
<!-- Generated by graphviz version 2.26.3 (20100126.1600)
 -->
<!-- Title: G Pages: 1 -->
<svg width="352pt" height="340pt"
 viewBox="0.00 0.00 352.00 340.00" xmlns="http://www.w3.org/2000/svg" xmlns:xlink="http://www.w3.org/1999/xlink">
<g id="graph1" class="graph" transform="scale(1 1) rotate(0) translate(4 336)">
<title>G</title>
<polygon fill="white" stroke="white" points="-4,5 -4,-336 349,-336 349,5 -4,5"/>
<!-- Node1 -->
<g id="node1" class="node"><title>Node1</title>
<polygon fill="#bfbfbf" stroke="black" points="69,-1 69,-77 289,-77 289,-1 69,-1"/>
<text text-anchor="middle" x="179" y="-64" font-family="Helvetica,sans-Serif" font-size="10.00">pocketmine\event\player\PlayerDropItemEvent</text>
<polyline fill="none" stroke="black" points="69,-56 289,-56 "/>
<text text-anchor="start" x="77" y="-43" font-family="Helvetica,sans-Serif" font-size="10.00">+ $handlerList</text>
<polyline fill="none" stroke="black" points="69,-35 289,-35 "/>
<text text-anchor="start" x="77" y="-22" font-family="Helvetica,sans-Serif" font-size="10.00">+ __construct()</text>
<text text-anchor="start" x="77" y="-9" font-family="Helvetica,sans-Serif" font-size="10.00">+ getItem()</text>
</g>
<!-- Node2 -->
<g id="node2" class="node"><title>Node2</title>
<a xlink:href="../../d1/db1/classpocketmine_1_1event_1_1player_1_1_player_event.html" target="_top" xlink:title="{pocketmine\\event\\player\\PlayerEvent\n|# $player\l|+ getPlayer()\l}">
<polygon fill="white" stroke="black" points="-0.5,-121.5 -0.5,-184.5 178.5,-184.5 178.5,-121.5 -0.5,-121.5"/>
<text text-anchor="middle" x="89" y="-171.5" font-family="Helvetica,sans-Serif" font-size="10.00">pocketmine\event\player\PlayerEvent</text>
<polyline fill="none" stroke="black" points="-0.5,-163.5 178.5,-163.5 "/>
<text text-anchor="start" x="7.5" y="-150.5" font-family="Helvetica,sans-Serif" font-size="10.00"># $player</text>
<polyline fill="none" stroke="black" points="-0.5,-142.5 178.5,-142.5 "/>
<text text-anchor="start" x="7.5" y="-129.5" font-family="Helvetica,sans-Serif" font-size="10.00">+ getPlayer()</text>
</a>
</g>
<!-- Node2&#45;&gt;Node1 -->
<g id="edge2" class="edge"><title>Node2&#45;&gt;Node1</title>
<path fill="none" stroke="midnightblue" d="M120.336,-113.307C129.618,-101.551 139.756,-88.7096 148.953,-77.0594"/>
<polygon fill="none" stroke="midnightblue" points="117.519,-111.227 114.07,-121.245 123.014,-115.565 117.519,-111.227"/>
</g>
<!-- Node3 -->
<g id="node4" class="node"><title>Node3</title>
<a xlink:href="../../d1/d2f/classpocketmine_1_1event_1_1_event.html" target="_top" xlink:title="{pocketmine\\event\\Event\n|# $eventName\l|+ getEventName()\l+ isCancelled()\l+ setCancelled()\l+ getHandlers()\l}">
<polygon fill="white" stroke="black" points="28,-229 28,-331 150,-331 150,-229 28,-229"/>
<text text-anchor="middle" x="89" y="-318" font-family="Helvetica,sans-Serif" font-size="10.00">pocketmine\event\Event</text>
<polyline fill="none" stroke="black" points="28,-310 150,-310 "/>
<text text-anchor="start" x="36" y="-297" font-family="Helvetica,sans-Serif" font-size="10.00"># $eventName</text>
<polyline fill="none" stroke="black" points="28,-289 150,-289 "/>
<text text-anchor="start" x="36" y="-276" font-family="Helvetica,sans-Serif" font-size="10.00">+ getEventName()</text>
<text text-anchor="start" x="36" y="-263" font-family="Helvetica,sans-Serif" font-size="10.00">+ isCancelled()</text>
<text text-anchor="start" x="36" y="-250" font-family="Helvetica,sans-Serif" font-size="10.00">+ setCancelled()</text>
<text text-anchor="start" x="36" y="-237" font-family="Helvetica,sans-Serif" font-size="10.00">+ getHandlers()</text>
</a>
</g>
<!-- Node3&#45;&gt;Node2 -->
<g id="edge4" class="edge"><title>Node3&#45;&gt;Node2</title>
<path fill="none" stroke="midnightblue" d="M89,-218.5C89,-206.81 89,-195.03 89,-184.745"/>
<polygon fill="none" stroke="midnightblue" points="85.5001,-218.71 89,-228.71 92.5001,-218.71 85.5001,-218.71"/>
</g>
<!-- Node4 -->
<g id="node6" class="node"><title>Node4</title>
<a xlink:href="../../db/d62/interfacepocketmine_1_1event_1_1_cancellable.html" target="_top" xlink:title="{pocketmine\\event\\Cancellable\n||+ isCancelled()\l+ setCancelled()\l}">
<polygon fill="white" stroke="black" points="196,-115 196,-191 344,-191 344,-115 196,-115"/>
<text text-anchor="middle" x="270" y="-178" font-family="Helvetica,sans-Serif" font-size="10.00">pocketmine\event\Cancellable</text>
<polyline fill="none" stroke="black" points="196,-170 344,-170 "/>
<text text-anchor="middle" x="270" y="-157" font-family="Helvetica,sans-Serif" font-size="10.00"> </text>
<polyline fill="none" stroke="black" points="196,-149 344,-149 "/>
<text text-anchor="start" x="204" y="-136" font-family="Helvetica,sans-Serif" font-size="10.00">+ isCancelled()</text>
<text text-anchor="start" x="204" y="-123" font-family="Helvetica,sans-Serif" font-size="10.00">+ setCancelled()</text>
</a>
</g>
<!-- Node4&#45;&gt;Node1 -->
<g id="edge6" class="edge"><title>Node4&#45;&gt;Node1</title>
<path fill="none" stroke="midnightblue" d="M233.02,-106.673C225.25,-96.9395 217.136,-86.7749 209.629,-77.3705"/>
<polygon fill="none" stroke="midnightblue" points="230.471,-109.091 239.445,-114.723 235.942,-104.724 230.471,-109.091"/>
</g>
</g>
</svg>
