<?xml version="1.0" encoding="UTF-8" standalone="no"?>
<!DOCTYPE svg PUBLIC "-//W3C//DTD SVG 1.1//EN"
 "http://www.w3.org/Graphics/SVG/1.1/DTD/svg11.dtd">
<!-- Generated by graphviz version 2.26.3 (20100126.1600)
 -->
<!-- Title: raklib\server\Session\addEncapsulatedToQueue Pages: 1 -->
<svg width="286pt" height="42pt"
 viewBox="0.00 0.00 286.00 42.00" xmlns="http://www.w3.org/2000/svg" xmlns:xlink="http://www.w3.org/1999/xlink">
<g id="graph1" class="graph" transform="scale(1 1) rotate(0) translate(4 38)">
<title>raklib\server\Session\addEncapsulatedToQueue</title>
<polygon fill="white" stroke="white" points="-4,5 -4,-38 283,-38 283,5 -4,5"/>
<!-- Node1 -->
<g id="node1" class="node"><title>Node1</title>
<polygon fill="#bfbfbf" stroke="black" points="0,-0 0,-34 134,-34 134,-0 0,-0"/>
<text text-anchor="start" x="8" y="-21" font-family="Helvetica,sans-Serif" font-size="10.00">raklib\server\Session</text>
<text text-anchor="middle" x="67" y="-8" font-family="Helvetica,sans-Serif" font-size="10.00">\addEncapsulatedToQueue</text>
</g>
<!-- Node2 -->
<g id="node3" class="node"><title>Node2</title>
<a xlink:href="../../d6/d53/classraklib_1_1server_1_1_session.html#a49790e2ee9fb755d394297a34ccbeeda" target="_top" xlink:title="raklib\\server\\Session\l\\addToQueue">
<polygon fill="white" stroke="black" points="170,-0 170,-34 278,-34 278,-0 170,-0"/>
<text text-anchor="start" x="178" y="-21" font-family="Helvetica,sans-Serif" font-size="10.00">raklib\server\Session</text>
<text text-anchor="middle" x="224" y="-8" font-family="Helvetica,sans-Serif" font-size="10.00">\addToQueue</text>
</a>
</g>
<!-- Node1&#45;&gt;Node2 -->
<g id="edge2" class="edge"><title>Node1&#45;&gt;Node2</title>
<path fill="none" stroke="midnightblue" d="M134.038,-17C142.57,-17 151.287,-17 159.774,-17"/>
<polygon fill="midnightblue" stroke="midnightblue" points="159.983,-20.5001 169.983,-17 159.983,-13.5001 159.983,-20.5001"/>
</g>
</g>
</svg>
