<?xml version="1.0" encoding="UTF-8" standalone="no"?>
<!DOCTYPE svg PUBLIC "-//W3C//DTD SVG 1.1//EN"
 "http://www.w3.org/Graphics/SVG/1.1/DTD/svg11.dtd">
<!-- Generated by graphviz version 2.36.0 (20140111.2315)
 -->
<!-- Title: pocketmine\event\entity\EntityCombustByEntityEvent Pages: 1 -->
<svg width="319pt" height="482pt"
 viewBox="0.00 0.00 319.00 482.00" xmlns="http://www.w3.org/2000/svg" xmlns:xlink="http://www.w3.org/1999/xlink">
<g id="graph0" class="graph" transform="scale(1 1) rotate(0) translate(4 478)">
<title>pocketmine\event\entity\EntityCombustByEntityEvent</title>
<polygon fill="white" stroke="none" points="-4,4 -4,-478 315,-478 315,4 -4,4"/>
<!-- Node1 -->
<g id="node1" class="node"><title>Node1</title>
<polygon fill="#bfbfbf" stroke="black" points="70,-0.5 70,-101.5 226,-101.5 226,-0.5 70,-0.5"/>
<text text-anchor="start" x="78" y="-89.5" font-family="Helvetica,sans-Serif" font-size="10.00">pocketmine\event\entity</text>
<text text-anchor="middle" x="148" y="-78.5" font-family="Helvetica,sans-Serif" font-size="10.00">\EntityCombustByEntityEvent</text>
<polyline fill="none" stroke="black" points="70,-71.5 226,-71.5 "/>
<text text-anchor="start" x="78" y="-59.5" font-family="Helvetica,sans-Serif" font-size="10.00">+ $eventPool</text>
<text text-anchor="start" x="78" y="-48.5" font-family="Helvetica,sans-Serif" font-size="10.00">+ $nextEvent</text>
<text text-anchor="start" x="78" y="-37.5" font-family="Helvetica,sans-Serif" font-size="10.00"># $combuster</text>
<polyline fill="none" stroke="black" points="70,-30.5 226,-30.5 "/>
<text text-anchor="start" x="78" y="-18.5" font-family="Helvetica,sans-Serif" font-size="10.00">+ __construct()</text>
<text text-anchor="start" x="78" y="-7.5" font-family="Helvetica,sans-Serif" font-size="10.00">+ getCombuster()</text>
</g>
<!-- Node2 -->
<g id="node2" class="node"><title>Node2</title>
<g id="a_node2"><a xlink:href="../../dd/de3/classpocketmine_1_1event_1_1entity_1_1_entity_combust_event.html" target="_top" xlink:title="{pocketmine\\event\\entity\l\\EntityCombustEvent\n|+ $handlerList\l+ $eventPool\l+ $nextEvent\l# $duration\l|+ __construct()\l+ getDuration()\l+ setDuration()\l}">
<polygon fill="white" stroke="black" points="81.5,-138.5 81.5,-261.5 214.5,-261.5 214.5,-138.5 81.5,-138.5"/>
<text text-anchor="start" x="89.5" y="-249.5" font-family="Helvetica,sans-Serif" font-size="10.00">pocketmine\event\entity</text>
<text text-anchor="middle" x="148" y="-238.5" font-family="Helvetica,sans-Serif" font-size="10.00">\EntityCombustEvent</text>
<polyline fill="none" stroke="black" points="81.5,-231.5 214.5,-231.5 "/>
<text text-anchor="start" x="89.5" y="-219.5" font-family="Helvetica,sans-Serif" font-size="10.00">+ $handlerList</text>
<text text-anchor="start" x="89.5" y="-208.5" font-family="Helvetica,sans-Serif" font-size="10.00">+ $eventPool</text>
<text text-anchor="start" x="89.5" y="-197.5" font-family="Helvetica,sans-Serif" font-size="10.00">+ $nextEvent</text>
<text text-anchor="start" x="89.5" y="-186.5" font-family="Helvetica,sans-Serif" font-size="10.00"># $duration</text>
<polyline fill="none" stroke="black" points="81.5,-179.5 214.5,-179.5 "/>
<text text-anchor="start" x="89.5" y="-167.5" font-family="Helvetica,sans-Serif" font-size="10.00">+ __construct()</text>
<text text-anchor="start" x="89.5" y="-156.5" font-family="Helvetica,sans-Serif" font-size="10.00">+ getDuration()</text>
<text text-anchor="start" x="89.5" y="-145.5" font-family="Helvetica,sans-Serif" font-size="10.00">+ setDuration()</text>
</a>
</g>
</g>
<!-- Node2&#45;&gt;Node1 -->
<g id="edge1" class="edge"><title>Node2&#45;&gt;Node1</title>
<path fill="none" stroke="midnightblue" d="M148,-128.289C148,-119.323 148,-110.301 148,-101.758"/>
<polygon fill="none" stroke="midnightblue" points="144.5,-128.361 148,-138.361 151.5,-128.361 144.5,-128.361"/>
</g>
<!-- Node3 -->
<g id="node3" class="node"><title>Node3</title>
<g id="a_node3"><a xlink:href="../../de/d84/classpocketmine_1_1event_1_1entity_1_1_entity_event.html" target="_top" xlink:title="{pocketmine\\event\\entity\l\\EntityEvent\n|# $entity\l|+ getEntity()\l}">
<polygon fill="white" stroke="black" points="-0.5,-299 -0.5,-367 132.5,-367 132.5,-299 -0.5,-299"/>
<text text-anchor="start" x="7.5" y="-355" font-family="Helvetica,sans-Serif" font-size="10.00">pocketmine\event\entity</text>
<text text-anchor="middle" x="66" y="-344" font-family="Helvetica,sans-Serif" font-size="10.00">\EntityEvent</text>
<polyline fill="none" stroke="black" points="-0.5,-337 132.5,-337 "/>
<text text-anchor="start" x="7.5" y="-325" font-family="Helvetica,sans-Serif" font-size="10.00"># $entity</text>
<polyline fill="none" stroke="black" points="-0.5,-318 132.5,-318 "/>
<text text-anchor="start" x="7.5" y="-306" font-family="Helvetica,sans-Serif" font-size="10.00">+ getEntity()</text>
</a>
</g>
</g>
<!-- Node3&#45;&gt;Node2 -->
<g id="edge2" class="edge"><title>Node3&#45;&gt;Node2</title>
<path fill="none" stroke="midnightblue" d="M92.0372,-290.404C97.7757,-281.236 103.967,-271.345 110.068,-261.599"/>
<polygon fill="none" stroke="midnightblue" points="89.0312,-288.61 86.6921,-298.943 94.9646,-292.324 89.0312,-288.61"/>
</g>
<!-- Node4 -->
<g id="node4" class="node"><title>Node4</title>
<g id="a_node4"><a xlink:href="../../d1/d2f/classpocketmine_1_1event_1_1_event.html" target="_top" xlink:title="{pocketmine\\event\\Event\n|# $eventName\l|+ getEventName()\l+ getHandlers()\l}">
<polygon fill="white" stroke="black" points="-0.5,-405 -0.5,-473 132.5,-473 132.5,-405 -0.5,-405"/>
<text text-anchor="middle" x="66" y="-461" font-family="Helvetica,sans-Serif" font-size="10.00">pocketmine\event\Event</text>
<polyline fill="none" stroke="black" points="-0.5,-454 132.5,-454 "/>
<text text-anchor="start" x="7.5" y="-442" font-family="Helvetica,sans-Serif" font-size="10.00"># $eventName</text>
<polyline fill="none" stroke="black" points="-0.5,-435 132.5,-435 "/>
<text text-anchor="start" x="7.5" y="-423" font-family="Helvetica,sans-Serif" font-size="10.00">+ getEventName()</text>
<text text-anchor="start" x="7.5" y="-412" font-family="Helvetica,sans-Serif" font-size="10.00">+ getHandlers()</text>
</a>
</g>
</g>
<!-- Node4&#45;&gt;Node3 -->
<g id="edge3" class="edge"><title>Node4&#45;&gt;Node3</title>
<path fill="none" stroke="midnightblue" d="M66,-394.674C66,-385.502 66,-375.961 66,-367.234"/>
<polygon fill="none" stroke="midnightblue" points="62.5001,-394.808 66,-404.808 69.5001,-394.808 62.5001,-394.808"/>
</g>
<!-- Node5 -->
<g id="node5" class="node"><title>Node5</title>
<g id="a_node5"><a xlink:href="../../db/d62/interfacepocketmine_1_1event_1_1_cancellable.html" target="_top" xlink:title="{pocketmine\\event\\Cancellable\n||+ isCancelled()\l+ setCancelled()\l}">
<polygon fill="white" stroke="black" points="150.5,-299 150.5,-367 311.5,-367 311.5,-299 150.5,-299"/>
<text text-anchor="middle" x="231" y="-355" font-family="Helvetica,sans-Serif" font-size="10.00">pocketmine\event\Cancellable</text>
<polyline fill="none" stroke="black" points="150.5,-348 311.5,-348 "/>
<text text-anchor="middle" x="231" y="-336" font-family="Helvetica,sans-Serif" font-size="10.00"> </text>
<polyline fill="none" stroke="black" points="150.5,-329 311.5,-329 "/>
<text text-anchor="start" x="158.5" y="-317" font-family="Helvetica,sans-Serif" font-size="10.00">+ isCancelled()</text>
<text text-anchor="start" x="158.5" y="-306" font-family="Helvetica,sans-Serif" font-size="10.00">+ setCancelled()</text>
</a>
</g>
</g>
<!-- Node5&#45;&gt;Node2 -->
<g id="edge4" class="edge"><title>Node5&#45;&gt;Node2</title>
<path fill="none" stroke="midnightblue" d="M204.645,-290.404C198.837,-281.236 192.57,-271.345 186.395,-261.599"/>
<polygon fill="none" stroke="midnightblue" points="201.747,-292.369 210.056,-298.943 207.66,-288.623 201.747,-292.369"/>
</g>
</g>
</svg>
