<?xml version="1.0" encoding="UTF-8" standalone="no"?>
<!DOCTYPE svg PUBLIC "-//W3C//DTD SVG 1.1//EN"
 "http://www.w3.org/Graphics/SVG/1.1/DTD/svg11.dtd">
<!-- Generated by graphviz version 2.36.0 (20140111.2315)
 -->
<!-- Title: pocketmine\utils\Binary\writeShort Pages: 1 -->
<svg width="326pt" height="48pt"
 viewBox="0.00 0.00 326.00 48.00" xmlns="http://www.w3.org/2000/svg" xmlns:xlink="http://www.w3.org/1999/xlink">
<g id="graph0" class="graph" transform="scale(1 1) rotate(0) translate(4 44)">
<title>pocketmine\utils\Binary\writeShort</title>
<polygon fill="white" stroke="none" points="-4,4 -4,-44 322,-44 322,4 -4,4"/>
<!-- Node1 -->
<g id="node1" class="node"><title>Node1</title>
<polygon fill="#bfbfbf" stroke="black" points="0,-5 0,-35 128,-35 128,-5 0,-5"/>
<text text-anchor="start" x="8" y="-23" font-family="Helvetica,sans-Serif" font-size="10.00">pocketmine\utils\Binary</text>
<text text-anchor="middle" x="64" y="-12" font-family="Helvetica,sans-Serif" font-size="10.00">\writeShort</text>
</g>
<!-- Node2 -->
<g id="node2" class="node"><title>Node2</title>
<g id="a_node2"><a xlink:href="../../d4/dc0/classpocketmine_1_1level_1_1generator_1_1_generation_request_manager.html#aa0213bc69d54b594d7501b1de5137552" target="_top" xlink:title="pocketmine\\level\\generator\l\\GenerationRequestManager\l\\openLevel">
<polygon fill="white" stroke="black" points="164.5,0.5 164.5,-40.5 317.5,-40.5 317.5,0.5 164.5,0.5"/>
<text text-anchor="start" x="172.5" y="-28.5" font-family="Helvetica,sans-Serif" font-size="10.00">pocketmine\level\generator</text>
<text text-anchor="start" x="172.5" y="-17.5" font-family="Helvetica,sans-Serif" font-size="10.00">\GenerationRequestManager</text>
<text text-anchor="middle" x="241" y="-6.5" font-family="Helvetica,sans-Serif" font-size="10.00">\openLevel</text>
</a>
</g>
</g>
<!-- Node1&#45;&gt;Node2 -->
<g id="edge1" class="edge"><title>Node1&#45;&gt;Node2</title>
<path fill="none" stroke="midnightblue" d="M138.222,-20C146.869,-20 155.708,-20 164.387,-20"/>
<polygon fill="midnightblue" stroke="midnightblue" points="138.179,-16.5001 128.179,-20 138.179,-23.5001 138.179,-16.5001"/>
</g>
</g>
</svg>
