<?xml version="1.0" encoding="UTF-8" standalone="no"?>
<!DOCTYPE svg PUBLIC "-//W3C//DTD SVG 1.1//EN"
 "http://www.w3.org/Graphics/SVG/1.1/DTD/svg11.dtd">
<!-- Generated by graphviz version 2.26.3 (20100126.1600)
 -->
<!-- Title: pocketmine\plugin\PluginLoader Pages: 1 -->
<svg width="154pt" height="316pt"
 viewBox="0.00 0.00 154.00 316.00" xmlns="http://www.w3.org/2000/svg" xmlns:xlink="http://www.w3.org/1999/xlink">
<g id="graph1" class="graph" transform="scale(1 1) rotate(0) translate(4 312)">
<title>pocketmine\plugin\PluginLoader</title>
<polygon fill="white" stroke="white" points="-4,5 -4,-312 151,-312 151,5 -4,5"/>
<!-- Node1 -->
<g id="node1" class="node"><title>Node1</title>
<polygon fill="#bfbfbf" stroke="black" points="10.5,-179 10.5,-307 135.5,-307 135.5,-179 10.5,-179"/>
<text text-anchor="start" x="18.5" y="-294" font-family="Helvetica,sans-Serif" font-size="10.00">pocketmine\plugin\Plugin</text>
<text text-anchor="middle" x="73" y="-281" font-family="Helvetica,sans-Serif" font-size="10.00">Loader</text>
<polyline fill="none" stroke="black" points="10.5,-273 135.5,-273 "/>
<text text-anchor="middle" x="73" y="-260" font-family="Helvetica,sans-Serif" font-size="10.00"> </text>
<polyline fill="none" stroke="black" points="10.5,-252 135.5,-252 "/>
<text text-anchor="start" x="18.5" y="-239" font-family="Helvetica,sans-Serif" font-size="10.00">+ loadPlugin()</text>
<text text-anchor="start" x="18.5" y="-226" font-family="Helvetica,sans-Serif" font-size="10.00">+ getPluginDescription()</text>
<text text-anchor="start" x="18.5" y="-213" font-family="Helvetica,sans-Serif" font-size="10.00">+ getPluginFilters()</text>
<text text-anchor="start" x="18.5" y="-200" font-family="Helvetica,sans-Serif" font-size="10.00">+ enablePlugin()</text>
<text text-anchor="start" x="18.5" y="-187" font-family="Helvetica,sans-Serif" font-size="10.00">+ disablePlugin()</text>
</g>
<!-- Node2 -->
<g id="node3" class="node"><title>Node2</title>
<a xlink:href="../../d5/dbf/classpocketmine_1_1plugin_1_1_phar_plugin_loader.html" target="_top" xlink:title="{pocketmine\\plugin\\PharPlugin\lLoader\n||+ __construct()\l+ loadPlugin()\l+ getPluginDescription()\l+ getPluginFilters()\l+ enablePlugin()\l+ disablePlugin()\l}">
<polygon fill="white" stroke="black" points="0,-0.5 0,-141.5 146,-141.5 146,-0.5 0,-0.5"/>
<text text-anchor="start" x="8" y="-128.5" font-family="Helvetica,sans-Serif" font-size="10.00">pocketmine\plugin\PharPlugin</text>
<text text-anchor="middle" x="73" y="-115.5" font-family="Helvetica,sans-Serif" font-size="10.00">Loader</text>
<polyline fill="none" stroke="black" points="0,-107.5 146,-107.5 "/>
<text text-anchor="middle" x="73" y="-94.5" font-family="Helvetica,sans-Serif" font-size="10.00"> </text>
<polyline fill="none" stroke="black" points="0,-86.5 146,-86.5 "/>
<text text-anchor="start" x="8" y="-73.5" font-family="Helvetica,sans-Serif" font-size="10.00">+ __construct()</text>
<text text-anchor="start" x="8" y="-60.5" font-family="Helvetica,sans-Serif" font-size="10.00">+ loadPlugin()</text>
<text text-anchor="start" x="8" y="-47.5" font-family="Helvetica,sans-Serif" font-size="10.00">+ getPluginDescription()</text>
<text text-anchor="start" x="8" y="-34.5" font-family="Helvetica,sans-Serif" font-size="10.00">+ getPluginFilters()</text>
<text text-anchor="start" x="8" y="-21.5" font-family="Helvetica,sans-Serif" font-size="10.00">+ enablePlugin()</text>
<text text-anchor="start" x="8" y="-8.5" font-family="Helvetica,sans-Serif" font-size="10.00">+ disablePlugin()</text>
</a>
</g>
<!-- Node1&#45;&gt;Node2 -->
<g id="edge2" class="edge"><title>Node1&#45;&gt;Node2</title>
<path fill="none" stroke="midnightblue" d="M73,-168.885C73,-159.881 73,-150.7 73,-141.746"/>
<polygon fill="none" stroke="midnightblue" points="69.5001,-168.954 73,-178.954 76.5001,-168.954 69.5001,-168.954"/>
</g>
</g>
</svg>
