<?xml version="1.0" encoding="UTF-8" standalone="no"?>
<!DOCTYPE svg PUBLIC "-//W3C//DTD SVG 1.1//EN"
 "http://www.w3.org/Graphics/SVG/1.1/DTD/svg11.dtd">
<!-- Generated by graphviz version 2.36.0 (20140111.2315)
 -->
<!-- Title: pocketmine\event\player\PlayerBucketEmptyEvent Pages: 1 -->
<svg width="321pt" height="462pt"
 viewBox="0.00 0.00 321.00 462.00" xmlns="http://www.w3.org/2000/svg" xmlns:xlink="http://www.w3.org/1999/xlink">
<g id="graph0" class="graph" transform="scale(1 1) rotate(0) translate(4 458)">
<title>pocketmine\event\player\PlayerBucketEmptyEvent</title>
<polygon fill="white" stroke="none" points="-4,4 -4,-458 317,-458 317,4 -4,4"/>
<!-- Node1 -->
<g id="node1" class="node"><title>Node1</title>
<polygon fill="#bfbfbf" stroke="black" points="80,-1 80,-91 220,-91 220,-1 80,-1"/>
<text text-anchor="start" x="88" y="-79" font-family="Helvetica,sans-Serif" font-size="10.00">pocketmine\event\player</text>
<text text-anchor="middle" x="150" y="-68" font-family="Helvetica,sans-Serif" font-size="10.00">\PlayerBucketEmptyEvent</text>
<polyline fill="none" stroke="black" points="80,-61 220,-61 "/>
<text text-anchor="start" x="88" y="-49" font-family="Helvetica,sans-Serif" font-size="10.00">+ $handlerList</text>
<text text-anchor="start" x="88" y="-38" font-family="Helvetica,sans-Serif" font-size="10.00">+ $eventPool</text>
<text text-anchor="start" x="88" y="-27" font-family="Helvetica,sans-Serif" font-size="10.00">+ $nextEvent</text>
<polyline fill="none" stroke="black" points="80,-20 220,-20 "/>
<text text-anchor="start" x="88" y="-8" font-family="Helvetica,sans-Serif" font-size="10.00">+ __construct()</text>
</g>
<!-- Node2 -->
<g id="node2" class="node"><title>Node2</title>
<g id="a_node2"><a xlink:href="../../d2/d55/classpocketmine_1_1event_1_1player_1_1_player_bucket_event.html" target="_top" xlink:title="{pocketmine\\event\\player\l\\PlayerBucketEvent\n||+ __construct()\l+ getBucket()\l+ getItem()\l+ setItem()\l+ getBlockClicked()\l}">
<polygon fill="white" stroke="black" points="82.5,-129 82.5,-241 217.5,-241 217.5,-129 82.5,-129"/>
<text text-anchor="start" x="90.5" y="-229" font-family="Helvetica,sans-Serif" font-size="10.00">pocketmine\event\player</text>
<text text-anchor="middle" x="150" y="-218" font-family="Helvetica,sans-Serif" font-size="10.00">\PlayerBucketEvent</text>
<polyline fill="none" stroke="black" points="82.5,-211 217.5,-211 "/>
<text text-anchor="middle" x="150" y="-199" font-family="Helvetica,sans-Serif" font-size="10.00"> </text>
<polyline fill="none" stroke="black" points="82.5,-192 217.5,-192 "/>
<text text-anchor="start" x="90.5" y="-180" font-family="Helvetica,sans-Serif" font-size="10.00">+ __construct()</text>
<text text-anchor="start" x="90.5" y="-169" font-family="Helvetica,sans-Serif" font-size="10.00">+ getBucket()</text>
<text text-anchor="start" x="90.5" y="-158" font-family="Helvetica,sans-Serif" font-size="10.00">+ getItem()</text>
<text text-anchor="start" x="90.5" y="-147" font-family="Helvetica,sans-Serif" font-size="10.00">+ setItem()</text>
<text text-anchor="start" x="90.5" y="-136" font-family="Helvetica,sans-Serif" font-size="10.00">+ getBlockClicked()</text>
</a>
</g>
</g>
<!-- Node2&#45;&gt;Node1 -->
<g id="edge1" class="edge"><title>Node2&#45;&gt;Node1</title>
<path fill="none" stroke="midnightblue" d="M150,-118.634C150,-109.326 150,-99.9403 150,-91.1667"/>
<polygon fill="none" stroke="midnightblue" points="146.5,-118.672 150,-128.672 153.5,-118.672 146.5,-118.672"/>
</g>
<!-- Node3 -->
<g id="node3" class="node"><title>Node3</title>
<g id="a_node3"><a xlink:href="../../d1/db1/classpocketmine_1_1event_1_1player_1_1_player_event.html" target="_top" xlink:title="{pocketmine\\event\\player\l\\PlayerEvent\n|# $player\l|+ getPlayer()\l}">
<polygon fill="white" stroke="black" points="-0.5,-279 -0.5,-347 134.5,-347 134.5,-279 -0.5,-279"/>
<text text-anchor="start" x="7.5" y="-335" font-family="Helvetica,sans-Serif" font-size="10.00">pocketmine\event\player</text>
<text text-anchor="middle" x="67" y="-324" font-family="Helvetica,sans-Serif" font-size="10.00">\PlayerEvent</text>
<polyline fill="none" stroke="black" points="-0.5,-317 134.5,-317 "/>
<text text-anchor="start" x="7.5" y="-305" font-family="Helvetica,sans-Serif" font-size="10.00"># $player</text>
<polyline fill="none" stroke="black" points="-0.5,-298 134.5,-298 "/>
<text text-anchor="start" x="7.5" y="-286" font-family="Helvetica,sans-Serif" font-size="10.00">+ getPlayer()</text>
</a>
</g>
</g>
<!-- Node3&#45;&gt;Node2 -->
<g id="edge2" class="edge"><title>Node3&#45;&gt;Node2</title>
<path fill="none" stroke="midnightblue" d="M94.3132,-270.537C100.474,-261.184 107.108,-251.113 113.576,-241.294"/>
<polygon fill="none" stroke="midnightblue" points="91.3855,-268.619 88.8073,-278.895 97.2312,-272.469 91.3855,-268.619"/>
</g>
<!-- Node4 -->
<g id="node4" class="node"><title>Node4</title>
<g id="a_node4"><a xlink:href="../../d1/d2f/classpocketmine_1_1event_1_1_event.html" target="_top" xlink:title="{pocketmine\\event\\Event\n|# $eventName\l|+ getEventName()\l+ getHandlers()\l}">
<polygon fill="white" stroke="black" points="0.5,-385 0.5,-453 133.5,-453 133.5,-385 0.5,-385"/>
<text text-anchor="middle" x="67" y="-441" font-family="Helvetica,sans-Serif" font-size="10.00">pocketmine\event\Event</text>
<polyline fill="none" stroke="black" points="0.5,-434 133.5,-434 "/>
<text text-anchor="start" x="8.5" y="-422" font-family="Helvetica,sans-Serif" font-size="10.00"># $eventName</text>
<polyline fill="none" stroke="black" points="0.5,-415 133.5,-415 "/>
<text text-anchor="start" x="8.5" y="-403" font-family="Helvetica,sans-Serif" font-size="10.00">+ getEventName()</text>
<text text-anchor="start" x="8.5" y="-392" font-family="Helvetica,sans-Serif" font-size="10.00">+ getHandlers()</text>
</a>
</g>
</g>
<!-- Node4&#45;&gt;Node3 -->
<g id="edge3" class="edge"><title>Node4&#45;&gt;Node3</title>
<path fill="none" stroke="midnightblue" d="M67,-374.674C67,-365.502 67,-355.961 67,-347.234"/>
<polygon fill="none" stroke="midnightblue" points="63.5001,-374.808 67,-384.808 70.5001,-374.808 63.5001,-374.808"/>
</g>
<!-- Node5 -->
<g id="node5" class="node"><title>Node5</title>
<g id="a_node5"><a xlink:href="../../db/d62/interfacepocketmine_1_1event_1_1_cancellable.html" target="_top" xlink:title="{pocketmine\\event\\Cancellable\n||+ isCancelled()\l+ setCancelled()\l}">
<polygon fill="white" stroke="black" points="152.5,-279 152.5,-347 313.5,-347 313.5,-279 152.5,-279"/>
<text text-anchor="middle" x="233" y="-335" font-family="Helvetica,sans-Serif" font-size="10.00">pocketmine\event\Cancellable</text>
<polyline fill="none" stroke="black" points="152.5,-328 313.5,-328 "/>
<text text-anchor="middle" x="233" y="-316" font-family="Helvetica,sans-Serif" font-size="10.00"> </text>
<polyline fill="none" stroke="black" points="152.5,-309 313.5,-309 "/>
<text text-anchor="start" x="160.5" y="-297" font-family="Helvetica,sans-Serif" font-size="10.00">+ isCancelled()</text>
<text text-anchor="start" x="160.5" y="-286" font-family="Helvetica,sans-Serif" font-size="10.00">+ setCancelled()</text>
</a>
</g>
</g>
<!-- Node5&#45;&gt;Node2 -->
<g id="edge4" class="edge"><title>Node5&#45;&gt;Node2</title>
<path fill="none" stroke="midnightblue" d="M205.687,-270.537C199.526,-261.184 192.892,-251.113 186.424,-241.294"/>
<polygon fill="none" stroke="midnightblue" points="202.769,-272.469 211.193,-278.895 208.614,-268.619 202.769,-272.469"/>
</g>
</g>
</svg>
