<?xml version="1.0" encoding="UTF-8" standalone="no"?>
<!DOCTYPE svg PUBLIC "-//W3C//DTD SVG 1.1//EN"
 "http://www.w3.org/Graphics/SVG/1.1/DTD/svg11.dtd">
<!-- Generated by graphviz version 2.26.3 (20100126.1600)
 -->
<!-- Title: pocketmine\math\Vector3\add Pages: 1 -->
<svg width="320pt" height="94pt"
 viewBox="0.00 0.00 320.00 94.00" xmlns="http://www.w3.org/2000/svg" xmlns:xlink="http://www.w3.org/1999/xlink">
<g id="graph1" class="graph" transform="scale(1 1) rotate(0) translate(4 90)">
<title>pocketmine\math\Vector3\add</title>
<polygon fill="white" stroke="white" points="-4,5 -4,-90 317,-90 317,5 -4,5"/>
<!-- Node1 -->
<g id="node1" class="node"><title>Node1</title>
<polygon fill="#bfbfbf" stroke="black" points="0.5,-32.5 0.5,-53.5 147.5,-53.5 147.5,-32.5 0.5,-32.5"/>
<text text-anchor="middle" x="74" y="-40.5" font-family="Helvetica,sans-Serif" font-size="10.00">pocketmine\math\Vector3\add</text>
</g>
<!-- Node2 -->
<g id="node3" class="node"><title>Node2</title>
<a xlink:href="../../d2/d90/classpocketmine_1_1math_1_1_vector3.html#afd165b183dba2c814e2c4a0ce5755533" target="_top" xlink:title="pocketmine\\math\\Vector3\l\\subtract">
<polygon fill="white" stroke="black" points="184,-52 184,-86 312,-86 312,-52 184,-52"/>
<text text-anchor="start" x="192" y="-73" font-family="Helvetica,sans-Serif" font-size="10.00">pocketmine\math\Vector3</text>
<text text-anchor="middle" x="248" y="-60" font-family="Helvetica,sans-Serif" font-size="10.00">\subtract</text>
</a>
</g>
<!-- Node1&#45;&gt;Node2 -->
<g id="edge2" class="edge"><title>Node1&#45;&gt;Node2</title>
<path fill="none" stroke="midnightblue" d="M154.183,-54.9813C164.154,-56.4714 174.246,-57.9793 183.93,-59.4263"/>
<polygon fill="midnightblue" stroke="midnightblue" points="154.678,-51.5166 144.271,-53.5003 153.644,-58.4398 154.678,-51.5166"/>
</g>
<!-- Node3 -->
<g id="node5" class="node"><title>Node3</title>
<a xlink:href="../../d3/d4b/classpocketmine_1_1level_1_1_level.html#adbfdb8014d3364de28dd7909a7577d0d" target="_top" xlink:title="pocketmine\\level\\Level\l\\useBreakOn">
<polygon fill="white" stroke="black" points="190,-0 190,-34 306,-34 306,-0 190,-0"/>
<text text-anchor="start" x="198" y="-21" font-family="Helvetica,sans-Serif" font-size="10.00">pocketmine\level\Level</text>
<text text-anchor="middle" x="248" y="-8" font-family="Helvetica,sans-Serif" font-size="10.00">\useBreakOn</text>
</a>
</g>
<!-- Node1&#45;&gt;Node3 -->
<g id="edge4" class="edge"><title>Node1&#45;&gt;Node3</title>
<path fill="none" stroke="midnightblue" d="M154.255,-31.0079C166.212,-29.2212 178.34,-27.409 189.728,-25.7073"/>
<polygon fill="midnightblue" stroke="midnightblue" points="153.644,-27.5603 144.271,-32.4997 154.678,-34.4834 153.644,-27.5603"/>
</g>
</g>
</svg>
