<?xml version="1.0" encoding="UTF-8" standalone="no"?>
<!DOCTYPE svg PUBLIC "-//W3C//DTD SVG 1.1//EN"
 "http://www.w3.org/Graphics/SVG/1.1/DTD/svg11.dtd">
<!-- Generated by graphviz version 2.26.3 (20100126.1600)
 -->
<!-- Title: pocketmine\event\Event\isCancelled Pages: 1 -->
<svg width="312pt" height="94pt"
 viewBox="0.00 0.00 312.00 94.00" xmlns="http://www.w3.org/2000/svg" xmlns:xlink="http://www.w3.org/1999/xlink">
<g id="graph1" class="graph" transform="scale(1 1) rotate(0) translate(4 90)">
<title>pocketmine\event\Event\isCancelled</title>
<polygon fill="white" stroke="white" points="-4,5 -4,-90 309,-90 309,5 -4,5"/>
<!-- Node1 -->
<g id="node1" class="node"><title>Node1</title>
<polygon fill="#bfbfbf" stroke="black" points="0,-26 0,-60 122,-60 122,-26 0,-26"/>
<text text-anchor="start" x="8" y="-47" font-family="Helvetica,sans-Serif" font-size="10.00">pocketmine\event\Event</text>
<text text-anchor="middle" x="61" y="-34" font-family="Helvetica,sans-Serif" font-size="10.00">\isCancelled</text>
</g>
<!-- Node2 -->
<g id="node3" class="node"><title>Node2</title>
<a xlink:href="../../d9/d40/classpocketmine_1_1plugin_1_1_registered_listener.html#a18be48bb14def35fd8b0a24602cea1b9" target="_top" xlink:title="pocketmine\\plugin\\Registered\lListener\\callEvent">
<polygon fill="white" stroke="black" points="158,-52 158,-86 304,-86 304,-52 158,-52"/>
<text text-anchor="start" x="166" y="-73" font-family="Helvetica,sans-Serif" font-size="10.00">pocketmine\plugin\Registered</text>
<text text-anchor="middle" x="231" y="-60" font-family="Helvetica,sans-Serif" font-size="10.00">Listener\callEvent</text>
</a>
</g>
<!-- Node1&#45;&gt;Node2 -->
<g id="edge2" class="edge"><title>Node1&#45;&gt;Node2</title>
<path fill="none" stroke="midnightblue" d="M132.488,-53.9335C140.872,-55.2156 149.435,-56.5254 157.841,-57.811"/>
<polygon fill="midnightblue" stroke="midnightblue" points="132.788,-50.4387 122.374,-52.3866 131.73,-57.3583 132.788,-50.4387"/>
</g>
<!-- Node3 -->
<g id="node5" class="node"><title>Node3</title>
<a xlink:href="../../d1/d2f/classpocketmine_1_1event_1_1_event.html#a693b19eb500c69ab9f9dd9f207e5029a" target="_top" xlink:title="pocketmine\\event\\Event\l\\setCancelled">
<polygon fill="white" stroke="black" points="170,-0 170,-34 292,-34 292,-0 170,-0"/>
<text text-anchor="start" x="178" y="-21" font-family="Helvetica,sans-Serif" font-size="10.00">pocketmine\event\Event</text>
<text text-anchor="middle" x="231" y="-8" font-family="Helvetica,sans-Serif" font-size="10.00">\setCancelled</text>
</a>
</g>
<!-- Node1&#45;&gt;Node3 -->
<g id="edge4" class="edge"><title>Node1&#45;&gt;Node3</title>
<path fill="none" stroke="midnightblue" d="M132.623,-32.0459C144.96,-30.1591 157.683,-28.2132 169.716,-26.3728"/>
<polygon fill="midnightblue" stroke="midnightblue" points="131.73,-28.6417 122.374,-33.6134 132.788,-35.5613 131.73,-28.6417"/>
</g>
</g>
</svg>
