<?xml version="1.0" encoding="UTF-8" standalone="no"?>
<!DOCTYPE svg PUBLIC "-//W3C//DTD SVG 1.1//EN"
 "http://www.w3.org/Graphics/SVG/1.1/DTD/svg11.dtd">
<!-- Generated by graphviz version 2.26.3 (20100126.1600)
 -->
<!-- Title: pocketmine\level\format\generic\BaseLevelProvider\__construct Pages: 1 -->
<svg width="316pt" height="56pt"
 viewBox="0.00 0.00 316.00 56.00" xmlns="http://www.w3.org/2000/svg" xmlns:xlink="http://www.w3.org/1999/xlink">
<g id="graph1" class="graph" transform="scale(1 1) rotate(0) translate(4 52)">
<title>pocketmine\level\format\generic\BaseLevelProvider\__construct</title>
<polygon fill="white" stroke="white" points="-4,5 -4,-52 313,-52 313,5 -4,5"/>
<!-- Node1 -->
<g id="node1" class="node"><title>Node1</title>
<polygon fill="#bfbfbf" stroke="black" points="0,-0.5 0,-47.5 136,-47.5 136,-0.5 0,-0.5"/>
<text text-anchor="start" x="8" y="-34.5" font-family="Helvetica,sans-Serif" font-size="10.00">pocketmine\level\format</text>
<text text-anchor="start" x="8" y="-21.5" font-family="Helvetica,sans-Serif" font-size="10.00">\generic\BaseLevelProvider</text>
<text text-anchor="middle" x="68" y="-8.5" font-family="Helvetica,sans-Serif" font-size="10.00">\__construct</text>
</g>
<!-- Node2 -->
<g id="node3" class="node"><title>Node2</title>
<a xlink:href="../../d5/d41/classpocketmine_1_1level_1_1format_1_1generic_1_1_base_level_provider.html#a92956cea8b934965dd079603833b7af2" target="_top" xlink:title="pocketmine\\level\\format\l\\generic\\BaseLevelProvider\l\\getPath">
<polygon fill="white" stroke="black" points="172,-0.5 172,-47.5 308,-47.5 308,-0.5 172,-0.5"/>
<text text-anchor="start" x="180" y="-34.5" font-family="Helvetica,sans-Serif" font-size="10.00">pocketmine\level\format</text>
<text text-anchor="start" x="180" y="-21.5" font-family="Helvetica,sans-Serif" font-size="10.00">\generic\BaseLevelProvider</text>
<text text-anchor="middle" x="240" y="-8.5" font-family="Helvetica,sans-Serif" font-size="10.00">\getPath</text>
</a>
</g>
<!-- Node1&#45;&gt;Node2 -->
<g id="edge2" class="edge"><title>Node1&#45;&gt;Node2</title>
<path fill="none" stroke="midnightblue" d="M136.473,-24C144.732,-24 153.216,-24 161.602,-24"/>
<polygon fill="midnightblue" stroke="midnightblue" points="161.762,-27.5001 171.762,-24 161.762,-20.5001 161.762,-27.5001"/>
</g>
</g>
</svg>
