<?xml version="1.0" encoding="UTF-8" standalone="no"?>
<!DOCTYPE svg PUBLIC "-//W3C//DTD SVG 1.1//EN"
 "http://www.w3.org/Graphics/SVG/1.1/DTD/svg11.dtd">
<!-- Generated by graphviz version 2.26.3 (20100126.1600)
 -->
<!-- Title: raklib\protocol\UNCONNECTED_PING Pages: 1 -->
<svg width="198pt" height="494pt"
 viewBox="0.00 0.00 198.00 494.00" xmlns="http://www.w3.org/2000/svg" xmlns:xlink="http://www.w3.org/1999/xlink">
<g id="graph1" class="graph" transform="scale(1 1) rotate(0) translate(4 490)">
<title>raklib\protocol\UNCONNECTED_PING</title>
<polygon fill="white" stroke="white" points="-4,5 -4,-490 195,-490 195,5 -4,5"/>
<!-- Node1 -->
<g id="node1" class="node"><title>Node1</title>
<polygon fill="#bfbfbf" stroke="black" points="0,-114.5 0,-203.5 190,-203.5 190,-114.5 0,-114.5"/>
<text text-anchor="middle" x="95" y="-190.5" font-family="Helvetica,sans-Serif" font-size="10.00">raklib\protocol\UNCONNECTED_PING</text>
<polyline fill="none" stroke="black" points="0,-182.5 190,-182.5 "/>
<text text-anchor="start" x="8" y="-169.5" font-family="Helvetica,sans-Serif" font-size="10.00">+ $pingID</text>
<text text-anchor="start" x="8" y="-156.5" font-family="Helvetica,sans-Serif" font-size="10.00">+ $ID</text>
<polyline fill="none" stroke="black" points="0,-148.5 190,-148.5 "/>
<text text-anchor="start" x="8" y="-135.5" font-family="Helvetica,sans-Serif" font-size="10.00">+ encode()</text>
<text text-anchor="start" x="8" y="-122.5" font-family="Helvetica,sans-Serif" font-size="10.00">+ decode()</text>
</g>
<!-- Node3 -->
<g id="node5" class="node"><title>Node3</title>
<a xlink:href="../../d2/d7f/classraklib_1_1protocol_1_1_u_n_c_o_n_n_e_c_t_e_d___p_i_n_g___o_p_e_n___c_o_n_n_e_c_t_i_o_n_s.html" target="_top" xlink:title="{raklib\\protocol\\UNCONNECTED\l_PING_OPEN_CONNECTIONS\n|+ $ID\l|}">
<polygon fill="white" stroke="black" points="14.5,-1 14.5,-77 175.5,-77 175.5,-1 14.5,-1"/>
<text text-anchor="start" x="22.5" y="-64" font-family="Helvetica,sans-Serif" font-size="10.00">raklib\protocol\UNCONNECTED</text>
<text text-anchor="middle" x="95" y="-51" font-family="Helvetica,sans-Serif" font-size="10.00">_PING_OPEN_CONNECTIONS</text>
<polyline fill="none" stroke="black" points="14.5,-43 175.5,-43 "/>
<text text-anchor="start" x="22.5" y="-30" font-family="Helvetica,sans-Serif" font-size="10.00">+ $ID</text>
<polyline fill="none" stroke="black" points="14.5,-22 175.5,-22 "/>
<text text-anchor="middle" x="95" y="-9" font-family="Helvetica,sans-Serif" font-size="10.00"> </text>
</a>
</g>
<!-- Node1&#45;&gt;Node3 -->
<g id="edge4" class="edge"><title>Node1&#45;&gt;Node3</title>
<path fill="none" stroke="midnightblue" d="M95,-104.099C95,-94.9492 95,-85.6398 95,-77.0306"/>
<polygon fill="none" stroke="midnightblue" points="91.5001,-104.316 95,-114.316 98.5001,-104.316 91.5001,-104.316"/>
</g>
<!-- Node2 -->
<g id="node2" class="node"><title>Node2</title>
<a xlink:href="../../d6/d53/classraklib_1_1protocol_1_1_packet.html" target="_top" xlink:title="{raklib\\protocol\\Packet\n|+ $buffer\l+ $ID\l# $offset\l|+ encode()\l+ decode()\l# get()\l# getLong()\l# getInt()\l# getShort()\l# getTriad()\l# getLTriad()\l# getByte()\l# getString()\l# feof()\l# put()\land 7 more...\l}">
<polygon fill="white" stroke="black" points="39.5,-240.5 39.5,-485.5 150.5,-485.5 150.5,-240.5 39.5,-240.5"/>
<text text-anchor="middle" x="95" y="-472.5" font-family="Helvetica,sans-Serif" font-size="10.00">raklib\protocol\Packet</text>
<polyline fill="none" stroke="black" points="39.5,-464.5 150.5,-464.5 "/>
<text text-anchor="start" x="47.5" y="-451.5" font-family="Helvetica,sans-Serif" font-size="10.00">+ $buffer</text>
<text text-anchor="start" x="47.5" y="-438.5" font-family="Helvetica,sans-Serif" font-size="10.00">+ $ID</text>
<text text-anchor="start" x="47.5" y="-425.5" font-family="Helvetica,sans-Serif" font-size="10.00"># $offset</text>
<polyline fill="none" stroke="black" points="39.5,-417.5 150.5,-417.5 "/>
<text text-anchor="start" x="47.5" y="-404.5" font-family="Helvetica,sans-Serif" font-size="10.00">+ encode()</text>
<text text-anchor="start" x="47.5" y="-391.5" font-family="Helvetica,sans-Serif" font-size="10.00">+ decode()</text>
<text text-anchor="start" x="47.5" y="-378.5" font-family="Helvetica,sans-Serif" font-size="10.00"># get()</text>
<text text-anchor="start" x="47.5" y="-365.5" font-family="Helvetica,sans-Serif" font-size="10.00"># getLong()</text>
<text text-anchor="start" x="47.5" y="-352.5" font-family="Helvetica,sans-Serif" font-size="10.00"># getInt()</text>
<text text-anchor="start" x="47.5" y="-339.5" font-family="Helvetica,sans-Serif" font-size="10.00"># getShort()</text>
<text text-anchor="start" x="47.5" y="-326.5" font-family="Helvetica,sans-Serif" font-size="10.00"># getTriad()</text>
<text text-anchor="start" x="47.5" y="-313.5" font-family="Helvetica,sans-Serif" font-size="10.00"># getLTriad()</text>
<text text-anchor="start" x="47.5" y="-300.5" font-family="Helvetica,sans-Serif" font-size="10.00"># getByte()</text>
<text text-anchor="start" x="47.5" y="-287.5" font-family="Helvetica,sans-Serif" font-size="10.00"># getString()</text>
<text text-anchor="start" x="47.5" y="-274.5" font-family="Helvetica,sans-Serif" font-size="10.00"># feof()</text>
<text text-anchor="start" x="47.5" y="-261.5" font-family="Helvetica,sans-Serif" font-size="10.00"># put()</text>
<text text-anchor="start" x="47.5" y="-248.5" font-family="Helvetica,sans-Serif" font-size="10.00">and 7 more...</text>
</a>
</g>
<!-- Node2&#45;&gt;Node1 -->
<g id="edge2" class="edge"><title>Node2&#45;&gt;Node1</title>
<path fill="none" stroke="midnightblue" d="M95,-229.973C95,-220.66 95,-211.727 95,-203.53"/>
<polygon fill="none" stroke="midnightblue" points="91.5001,-230.212 95,-240.212 98.5001,-230.212 91.5001,-230.212"/>
</g>
</g>
</svg>
