<?xml version="1.0" encoding="UTF-8" standalone="no"?>
<!DOCTYPE svg PUBLIC "-//W3C//DTD SVG 1.1//EN"
 "http://www.w3.org/Graphics/SVG/1.1/DTD/svg11.dtd">
<!-- Generated by graphviz version 2.36.0 (20140111.2315)
 -->
<!-- Title: pocketmine\Worker Pages: 1 -->
<svg width="130pt" height="266pt"
 viewBox="0.00 0.00 130.00 266.00" xmlns="http://www.w3.org/2000/svg" xmlns:xlink="http://www.w3.org/1999/xlink">
<g id="graph0" class="graph" transform="scale(1 1) rotate(0) translate(4 262)">
<title>pocketmine\Worker</title>
<polygon fill="white" stroke="none" points="-4,4 -4,-262 126,-262 126,4 -4,4"/>
<!-- Node1 -->
<g id="node1" class="node"><title>Node1</title>
<polygon fill="#bfbfbf" stroke="black" points="7,-106.5 7,-163.5 115,-163.5 115,-106.5 7,-106.5"/>
<text text-anchor="middle" x="61" y="-151.5" font-family="Helvetica,sans-Serif" font-size="10.00">pocketmine\Worker</text>
<polyline fill="none" stroke="black" points="7,-144.5 115,-144.5 "/>
<text text-anchor="middle" x="61" y="-132.5" font-family="Helvetica,sans-Serif" font-size="10.00"> </text>
<polyline fill="none" stroke="black" points="7,-125.5 115,-125.5 "/>
<text text-anchor="start" x="15" y="-113.5" font-family="Helvetica,sans-Serif" font-size="10.00">+ start()</text>
</g>
<!-- Node3 -->
<g id="node3" class="node"><title>Node3</title>
<g id="a_node3"><a xlink:href="../../d1/d4e/classpocketmine_1_1scheduler_1_1_async_worker.html" target="_top" xlink:title="{pocketmine\\scheduler\l\\AsyncWorker\n||+ run()\l}">
<polygon fill="white" stroke="black" points="0,-1 0,-69 122,-69 122,-1 0,-1"/>
<text text-anchor="start" x="8" y="-57" font-family="Helvetica,sans-Serif" font-size="10.00">pocketmine\scheduler</text>
<text text-anchor="middle" x="61" y="-46" font-family="Helvetica,sans-Serif" font-size="10.00">\AsyncWorker</text>
<polyline fill="none" stroke="black" points="0,-39 122,-39 "/>
<text text-anchor="middle" x="61" y="-27" font-family="Helvetica,sans-Serif" font-size="10.00"> </text>
<polyline fill="none" stroke="black" points="0,-20 122,-20 "/>
<text text-anchor="start" x="8" y="-8" font-family="Helvetica,sans-Serif" font-size="10.00">+ run()</text>
</a>
</g>
</g>
<!-- Node1&#45;&gt;Node3 -->
<g id="edge2" class="edge"><title>Node1&#45;&gt;Node3</title>
<path fill="none" stroke="midnightblue" d="M61,-96.3023C61,-87.3951 61,-77.9608 61,-69.2659"/>
<polygon fill="none" stroke="midnightblue" points="57.5001,-96.4407 61,-106.441 64.5001,-96.4408 57.5001,-96.4407"/>
</g>
<!-- Node2 -->
<g id="node2" class="node"><title>Node2</title>
<polygon fill="white" stroke="#bfbfbf" points="36.5,-200.5 36.5,-257.5 85.5,-257.5 85.5,-200.5 36.5,-200.5"/>
<text text-anchor="middle" x="61" y="-245.5" font-family="Helvetica,sans-Serif" font-size="10.00">Worker</text>
<polyline fill="none" stroke="#bfbfbf" points="36.5,-238.5 85.5,-238.5 "/>
<text text-anchor="middle" x="61" y="-226.5" font-family="Helvetica,sans-Serif" font-size="10.00"> </text>
<polyline fill="none" stroke="#bfbfbf" points="36.5,-219.5 85.5,-219.5 "/>
<text text-anchor="middle" x="61" y="-207.5" font-family="Helvetica,sans-Serif" font-size="10.00"> </text>
</g>
<!-- Node2&#45;&gt;Node1 -->
<g id="edge1" class="edge"><title>Node2&#45;&gt;Node1</title>
<path fill="none" stroke="midnightblue" d="M61,-190.209C61,-181.293 61,-171.951 61,-163.584"/>
<polygon fill="none" stroke="midnightblue" points="57.5001,-190.397 61,-200.397 64.5001,-190.397 57.5001,-190.397"/>
</g>
</g>
</svg>
