<?xml version="1.0" encoding="UTF-8" standalone="no"?>
<!DOCTYPE svg PUBLIC "-//W3C//DTD SVG 1.1//EN"
 "http://www.w3.org/Graphics/SVG/1.1/DTD/svg11.dtd">
<!-- Generated by graphviz version 2.36.0 (20140111.2315)
 -->
<!-- Title: pocketmine\entity\Ageable Pages: 1 -->
<svg width="885pt" height="408pt"
 viewBox="0.00 0.00 885.00 408.00" xmlns="http://www.w3.org/2000/svg" xmlns:xlink="http://www.w3.org/1999/xlink">
<g id="graph0" class="graph" transform="scale(1 1) rotate(0) translate(4 404)">
<title>pocketmine\entity\Ageable</title>
<polygon fill="white" stroke="none" points="-4,4 -4,-404 881,-404 881,4 -4,4"/>
<!-- Node1 -->
<g id="node1" class="node"><title>Node1</title>
<polygon fill="#bfbfbf" stroke="black" points="455.5,-342.5 455.5,-399.5 600.5,-399.5 600.5,-342.5 455.5,-342.5"/>
<text text-anchor="middle" x="528" y="-387.5" font-family="Helvetica,sans-Serif" font-size="10.00">pocketmine\entity\Ageable</text>
<polyline fill="none" stroke="black" points="455.5,-380.5 600.5,-380.5 "/>
<text text-anchor="middle" x="528" y="-368.5" font-family="Helvetica,sans-Serif" font-size="10.00"> </text>
<polyline fill="none" stroke="black" points="455.5,-361.5 600.5,-361.5 "/>
<text text-anchor="middle" x="528" y="-349.5" font-family="Helvetica,sans-Serif" font-size="10.00"> </text>
</g>
<!-- Node2 -->
<g id="node2" class="node"><title>Node2</title>
<g id="a_node2"><a xlink:href="../../d9/d0a/classpocketmine_1_1entity_1_1_animal.html" target="_top" xlink:title="{pocketmine\\entity\\Animal\n||}">
<polygon fill="white" stroke="black" points="375.5,-171.5 375.5,-228.5 514.5,-228.5 514.5,-171.5 375.5,-171.5"/>
<text text-anchor="middle" x="445" y="-216.5" font-family="Helvetica,sans-Serif" font-size="10.00">pocketmine\entity\Animal</text>
<polyline fill="none" stroke="black" points="375.5,-209.5 514.5,-209.5 "/>
<text text-anchor="middle" x="445" y="-197.5" font-family="Helvetica,sans-Serif" font-size="10.00"> </text>
<polyline fill="none" stroke="black" points="375.5,-190.5 514.5,-190.5 "/>
<text text-anchor="middle" x="445" y="-178.5" font-family="Helvetica,sans-Serif" font-size="10.00"> </text>
</a>
</g>
</g>
<!-- Node1&#45;&gt;Node2 -->
<g id="edge1" class="edge"><title>Node1&#45;&gt;Node2</title>
<path fill="none" stroke="midnightblue" d="M509.9,-333.146C494.424,-301.635 472.5,-256.993 458.514,-228.517"/>
<polygon fill="none" stroke="midnightblue" points="506.93,-335.038 514.48,-342.471 513.213,-331.952 506.93,-335.038"/>
</g>
<!-- Node9 -->
<g id="node9" class="node"><title>Node9</title>
<g id="a_node9"><a xlink:href="../../d9/d6b/classpocketmine_1_1entity_1_1_villager.html" target="_top" xlink:title="{pocketmine\\entity\\Villager\n|+ PROFESSION_FARMER\l+ PROFESSION_LIBRARIAN\l+ PROFESSION_PRIEST\l+ PROFESSION_BLACKSMITH\l+ PROFESSION_BUTCHER\l+ PROFESSION_GENERIC\l+ NETWORK_ID\l+ $width\l+ $length\l+ $height\l|+ getName()\l+ spawnTo()\l+ getData()\l+ setProfession()\l+ getProfession()\l# initEntity()\l}">
<polygon fill="white" stroke="black" points="533,-94.5 533,-305.5 689,-305.5 689,-94.5 533,-94.5"/>
<text text-anchor="middle" x="611" y="-293.5" font-family="Helvetica,sans-Serif" font-size="10.00">pocketmine\entity\Villager</text>
<polyline fill="none" stroke="black" points="533,-286.5 689,-286.5 "/>
<text text-anchor="start" x="541" y="-274.5" font-family="Helvetica,sans-Serif" font-size="10.00">+ PROFESSION_FARMER</text>
<text text-anchor="start" x="541" y="-263.5" font-family="Helvetica,sans-Serif" font-size="10.00">+ PROFESSION_LIBRARIAN</text>
<text text-anchor="start" x="541" y="-252.5" font-family="Helvetica,sans-Serif" font-size="10.00">+ PROFESSION_PRIEST</text>
<text text-anchor="start" x="541" y="-241.5" font-family="Helvetica,sans-Serif" font-size="10.00">+ PROFESSION_BLACKSMITH</text>
<text text-anchor="start" x="541" y="-230.5" font-family="Helvetica,sans-Serif" font-size="10.00">+ PROFESSION_BUTCHER</text>
<text text-anchor="start" x="541" y="-219.5" font-family="Helvetica,sans-Serif" font-size="10.00">+ PROFESSION_GENERIC</text>
<text text-anchor="start" x="541" y="-208.5" font-family="Helvetica,sans-Serif" font-size="10.00">+ NETWORK_ID</text>
<text text-anchor="start" x="541" y="-197.5" font-family="Helvetica,sans-Serif" font-size="10.00">+ $width</text>
<text text-anchor="start" x="541" y="-186.5" font-family="Helvetica,sans-Serif" font-size="10.00">+ $length</text>
<text text-anchor="start" x="541" y="-175.5" font-family="Helvetica,sans-Serif" font-size="10.00">+ $height</text>
<polyline fill="none" stroke="black" points="533,-168.5 689,-168.5 "/>
<text text-anchor="start" x="541" y="-156.5" font-family="Helvetica,sans-Serif" font-size="10.00">+ getName()</text>
<text text-anchor="start" x="541" y="-145.5" font-family="Helvetica,sans-Serif" font-size="10.00">+ spawnTo()</text>
<text text-anchor="start" x="541" y="-134.5" font-family="Helvetica,sans-Serif" font-size="10.00">+ getData()</text>
<text text-anchor="start" x="541" y="-123.5" font-family="Helvetica,sans-Serif" font-size="10.00">+ setProfession()</text>
<text text-anchor="start" x="541" y="-112.5" font-family="Helvetica,sans-Serif" font-size="10.00">+ getProfession()</text>
<text text-anchor="start" x="541" y="-101.5" font-family="Helvetica,sans-Serif" font-size="10.00"># initEntity()</text>
</a>
</g>
</g>
<!-- Node1&#45;&gt;Node9 -->
<g id="edge8" class="edge"><title>Node1&#45;&gt;Node9</title>
<path fill="none" stroke="midnightblue" d="M546.008,-333.333C550.174,-324.85 554.811,-315.409 559.636,-305.584"/>
<polygon fill="none" stroke="midnightblue" points="542.787,-331.952 541.52,-342.471 549.07,-335.038 542.787,-331.952"/>
</g>
<!-- Node3 -->
<g id="node3" class="node"><title>Node3</title>
<g id="a_node3"><a xlink:href="../../d9/d0b/classpocketmine_1_1entity_1_1_chicken.html" target="_top" xlink:title="{pocketmine\\entity\\Chicken\n||}">
<polygon fill="white" stroke="black" points="-0.5,-0.5 -0.5,-57.5 142.5,-57.5 142.5,-0.5 -0.5,-0.5"/>
<text text-anchor="middle" x="71" y="-45.5" font-family="Helvetica,sans-Serif" font-size="10.00">pocketmine\entity\Chicken</text>
<polyline fill="none" stroke="black" points="-0.5,-38.5 142.5,-38.5 "/>
<text text-anchor="middle" x="71" y="-26.5" font-family="Helvetica,sans-Serif" font-size="10.00"> </text>
<polyline fill="none" stroke="black" points="-0.5,-19.5 142.5,-19.5 "/>
<text text-anchor="middle" x="71" y="-7.5" font-family="Helvetica,sans-Serif" font-size="10.00"> </text>
</a>
</g>
</g>
<!-- Node2&#45;&gt;Node3 -->
<g id="edge2" class="edge"><title>Node2&#45;&gt;Node3</title>
<path fill="none" stroke="midnightblue" d="M374.879,-167.314C304.892,-135.689 198.445,-87.5886 131.896,-57.5171"/>
<polygon fill="none" stroke="midnightblue" points="373.524,-170.543 384.078,-171.471 376.406,-164.164 373.524,-170.543"/>
</g>
<!-- Node4 -->
<g id="node4" class="node"><title>Node4</title>
<g id="a_node4"><a xlink:href="../../d4/d80/classpocketmine_1_1entity_1_1_cow.html" target="_top" xlink:title="{pocketmine\\entity\\Cow\n||}">
<polygon fill="white" stroke="black" points="160.5,-0.5 160.5,-57.5 285.5,-57.5 285.5,-0.5 160.5,-0.5"/>
<text text-anchor="middle" x="223" y="-45.5" font-family="Helvetica,sans-Serif" font-size="10.00">pocketmine\entity\Cow</text>
<polyline fill="none" stroke="black" points="160.5,-38.5 285.5,-38.5 "/>
<text text-anchor="middle" x="223" y="-26.5" font-family="Helvetica,sans-Serif" font-size="10.00"> </text>
<polyline fill="none" stroke="black" points="160.5,-19.5 285.5,-19.5 "/>
<text text-anchor="middle" x="223" y="-7.5" font-family="Helvetica,sans-Serif" font-size="10.00"> </text>
</a>
</g>
</g>
<!-- Node2&#45;&gt;Node4 -->
<g id="edge3" class="edge"><title>Node2&#45;&gt;Node4</title>
<path fill="none" stroke="midnightblue" d="M400.807,-165.358C359.265,-133.733 297.843,-86.9749 259.147,-57.5171"/>
<polygon fill="none" stroke="midnightblue" points="398.761,-168.199 408.838,-171.471 403.001,-162.629 398.761,-168.199"/>
</g>
<!-- Node5 -->
<g id="node5" class="node"><title>Node5</title>
<g id="a_node5"><a xlink:href="../../de/d7f/classpocketmine_1_1entity_1_1_ozelot.html" target="_top" xlink:title="{pocketmine\\entity\\Ozelot\n||}">
<polygon fill="white" stroke="black" points="303.5,-0.5 303.5,-57.5 440.5,-57.5 440.5,-0.5 303.5,-0.5"/>
<text text-anchor="middle" x="372" y="-45.5" font-family="Helvetica,sans-Serif" font-size="10.00">pocketmine\entity\Ozelot</text>
<polyline fill="none" stroke="black" points="303.5,-38.5 440.5,-38.5 "/>
<text text-anchor="middle" x="372" y="-26.5" font-family="Helvetica,sans-Serif" font-size="10.00"> </text>
<polyline fill="none" stroke="black" points="303.5,-19.5 440.5,-19.5 "/>
<text text-anchor="middle" x="372" y="-7.5" font-family="Helvetica,sans-Serif" font-size="10.00"> </text>
</a>
</g>
</g>
<!-- Node2&#45;&gt;Node5 -->
<g id="edge4" class="edge"><title>Node2&#45;&gt;Node5</title>
<path fill="none" stroke="midnightblue" d="M429.081,-162.146C415.47,-130.635 396.186,-85.993 383.886,-57.5171"/>
<polygon fill="none" stroke="midnightblue" points="425.93,-163.679 433.109,-171.471 432.356,-160.903 425.93,-163.679"/>
</g>
<!-- Node6 -->
<g id="node6" class="node"><title>Node6</title>
<g id="a_node6"><a xlink:href="../../d8/d3e/classpocketmine_1_1entity_1_1_pig.html" target="_top" xlink:title="{pocketmine\\entity\\Pig\n||}">
<polygon fill="white" stroke="black" points="459,-0.5 459,-57.5 579,-57.5 579,-0.5 459,-0.5"/>
<text text-anchor="middle" x="519" y="-45.5" font-family="Helvetica,sans-Serif" font-size="10.00">pocketmine\entity\Pig</text>
<polyline fill="none" stroke="black" points="459,-38.5 579,-38.5 "/>
<text text-anchor="middle" x="519" y="-26.5" font-family="Helvetica,sans-Serif" font-size="10.00"> </text>
<polyline fill="none" stroke="black" points="459,-19.5 579,-19.5 "/>
<text text-anchor="middle" x="519" y="-7.5" font-family="Helvetica,sans-Serif" font-size="10.00"> </text>
</a>
</g>
</g>
<!-- Node2&#45;&gt;Node6 -->
<g id="edge5" class="edge"><title>Node2&#45;&gt;Node6</title>
<path fill="none" stroke="midnightblue" d="M461.137,-162.146C474.935,-130.635 494.482,-85.993 506.951,-57.5171"/>
<polygon fill="none" stroke="midnightblue" points="457.859,-160.907 457.054,-171.471 464.271,-163.715 457.859,-160.907"/>
</g>
<!-- Node7 -->
<g id="node7" class="node"><title>Node7</title>
<g id="a_node7"><a xlink:href="../../d4/d1e/classpocketmine_1_1entity_1_1_sheep.html" target="_top" xlink:title="{pocketmine\\entity\\Sheep\n||}">
<polygon fill="white" stroke="black" points="597.5,-0.5 597.5,-57.5 734.5,-57.5 734.5,-0.5 597.5,-0.5"/>
<text text-anchor="middle" x="666" y="-45.5" font-family="Helvetica,sans-Serif" font-size="10.00">pocketmine\entity\Sheep</text>
<polyline fill="none" stroke="black" points="597.5,-38.5 734.5,-38.5 "/>
<text text-anchor="middle" x="666" y="-26.5" font-family="Helvetica,sans-Serif" font-size="10.00"> </text>
<polyline fill="none" stroke="black" points="597.5,-19.5 734.5,-19.5 "/>
<text text-anchor="middle" x="666" y="-7.5" font-family="Helvetica,sans-Serif" font-size="10.00"> </text>
</a>
</g>
</g>
<!-- Node2&#45;&gt;Node7 -->
<g id="edge6" class="edge"><title>Node2&#45;&gt;Node7</title>
<path fill="none" stroke="midnightblue" d="M465.68,-162.851C479.814,-140.678 500.251,-112.994 524,-94 536.407,-84.0774 567.339,-69.7808 597.177,-57.2157"/>
<polygon fill="none" stroke="midnightblue" points="462.699,-161.016 460.391,-171.356 468.644,-164.712 462.699,-161.016"/>
</g>
<!-- Node8 -->
<g id="node8" class="node"><title>Node8</title>
<g id="a_node8"><a xlink:href="../../d1/d54/classpocketmine_1_1entity_1_1_wolf.html" target="_top" xlink:title="{pocketmine\\entity\\Wolf\n||}">
<polygon fill="white" stroke="black" points="752.5,-0.5 752.5,-57.5 877.5,-57.5 877.5,-0.5 752.5,-0.5"/>
<text text-anchor="middle" x="815" y="-45.5" font-family="Helvetica,sans-Serif" font-size="10.00">pocketmine\entity\Wolf</text>
<polyline fill="none" stroke="black" points="752.5,-38.5 877.5,-38.5 "/>
<text text-anchor="middle" x="815" y="-26.5" font-family="Helvetica,sans-Serif" font-size="10.00"> </text>
<polyline fill="none" stroke="black" points="752.5,-19.5 877.5,-19.5 "/>
<text text-anchor="middle" x="815" y="-7.5" font-family="Helvetica,sans-Serif" font-size="10.00"> </text>
</a>
</g>
</g>
<!-- Node2&#45;&gt;Node8 -->
<g id="edge7" class="edge"><title>Node2&#45;&gt;Node8</title>
<path fill="none" stroke="midnightblue" d="M463.058,-162.436C476.569,-139.049 497.296,-110.165 524,-94 608.383,-42.9183 647.853,-84.0163 743,-58 746.105,-57.151 749.26,-56.2151 752.43,-55.2161"/>
<polygon fill="none" stroke="midnightblue" points="459.865,-160.975 458.062,-171.416 465.982,-164.379 459.865,-160.975"/>
</g>
</g>
</svg>
