<?xml version="1.0" encoding="UTF-8" standalone="no"?>
<!DOCTYPE svg PUBLIC "-//W3C//DTD SVG 1.1//EN"
 "http://www.w3.org/Graphics/SVG/1.1/DTD/svg11.dtd">
<!-- Generated by graphviz version 2.26.3 (20100126.1600)
 -->
<!-- Title: pocketmine\entity\Ageable Pages: 1 -->
<!--zoomable 454 -->
<svg id="main" version="1.1" xmlns="http://www.w3.org/2000/svg" xmlns:xlink="http://www.w3.org/1999/xlink" xml:space="preserve" onload="init(evt)">
<style type="text/css"><![CDATA[
.edge:hover path { stroke: red; }
.edge:hover polygon { stroke: red; fill: red; }
]]></style>
<script type="text/javascript"><![CDATA[
var edges = document.getElementsByTagName('g');
if (edges && edges.length) {
  for (var i=0;i<edges.length;i++) {
    if (edges[i].id.substr(0,4)=='edge') {
      edges[i].setAttribute('class','edge');
    }
  }
}
]]></script>
        <defs>
                <circle id="rim" cx="0" cy="0" r="7"/>
                <circle id="rim2" cx="0" cy="0" r="3.5"/>
                <g id="zoomPlus">
                        <use xlink:href="#rim" fill="#404040">
                                <set attributeName="fill" to="#808080" begin="zoomplus.mouseover" end="zoomplus.mouseout"/>
                        </use>
                        <path d="M-4,0h8M0,-4v8" fill="none" stroke="white" stroke-width="1.5" pointer-events="none"/>
                </g>
                <g id="zoomMin">
                        <use xlink:href="#rim" fill="#404040">
                                <set attributeName="fill" to="#808080" begin="zoomminus.mouseover" end="zoomminus.mouseout"/>
                        </use>
                        <path d="M-4,0h8" fill="none" stroke="white" stroke-width="1.5" pointer-events="none"/>
                </g>
                <g id="dirArrow">
                        <path fill="none" stroke="white" stroke-width="1.5" d="M0,-3.0v7 M-2.5,-0.5L0,-3.0L2.5,-0.5"/>
                </g>
               <g id="resetDef">
                       <use xlink:href="#rim2" fill="#404040">
                               <set attributeName="fill" to="#808080" begin="reset.mouseover" end="reset.mouseout"/>
                       </use>
               </g>
        </defs>

<script type="text/javascript">
var viewWidth = 820;
var viewHeight = 454;
var sectionId = 'dynsection-0';
</script>
<script xlink:href="../../svgpan.js"/>
<svg id="graph" class="graph">
<g id="viewport">
<title>pocketmine\entity\Ageable</title>
<polygon fill="white" stroke="white" points="-4,5 -4,-450 817,-450 817,5 -4,5"/>
<!-- Node1 -->
<g id="node1" class="node"><title>Node1</title>
<polygon fill="#bfbfbf" stroke="black" points="427,-382.5 427,-445.5 559,-445.5 559,-382.5 427,-382.5"/>
<text text-anchor="middle" x="493" y="-432.5" font-family="Helvetica,sans-Serif" font-size="10.00">pocketmine\entity\Ageable</text>
<polyline fill="none" stroke="black" points="427,-424.5 559,-424.5 "/>
<text text-anchor="middle" x="493" y="-411.5" font-family="Helvetica,sans-Serif" font-size="10.00"> </text>
<polyline fill="none" stroke="black" points="427,-403.5 559,-403.5 "/>
<text text-anchor="middle" x="493" y="-390.5" font-family="Helvetica,sans-Serif" font-size="10.00"> </text>
</g>
<!-- Node2 -->
<g id="node3" class="node"><title>Node2</title>
<a xlink:href="../../d9/d0a/classpocketmine_1_1entity_1_1_animal.html" target="_top" xlink:title="{pocketmine\\entity\\Animal\n||}">
<polygon fill="white" stroke="black" points="349.5,-191.5 349.5,-254.5 476.5,-254.5 476.5,-191.5 349.5,-191.5"/>
<text text-anchor="middle" x="413" y="-241.5" font-family="Helvetica,sans-Serif" font-size="10.00">pocketmine\entity\Animal</text>
<polyline fill="none" stroke="black" points="349.5,-233.5 476.5,-233.5 "/>
<text text-anchor="middle" x="413" y="-220.5" font-family="Helvetica,sans-Serif" font-size="10.00"> </text>
<polyline fill="none" stroke="black" points="349.5,-212.5 476.5,-212.5 "/>
<text text-anchor="middle" x="413" y="-199.5" font-family="Helvetica,sans-Serif" font-size="10.00"> </text>
</a>
</g>
<!-- Node1&#45;&gt;Node2 -->
<g id="edge2" class="edge"><title>Node1&#45;&gt;Node2</title>
<path fill="none" stroke="midnightblue" d="M475.778,-372.883C460.925,-337.421 439.786,-286.952 426.23,-254.587"/>
<polygon fill="none" stroke="midnightblue" points="472.698,-374.589 479.79,-382.46 479.155,-371.884 472.698,-374.589"/>
</g>
<!-- Node9 -->
<g id="node17" class="node"><title>Node9</title>
<a xlink:href="../../d9/d6b/classpocketmine_1_1entity_1_1_villager.html" target="_top" xlink:title="{pocketmine\\entity\\Villager\n|+ PROFESSION_FARMER\l+ PROFESSION_LIBRARIAN\l+ PROFESSION_PRIEST\l+ PROFESSION_BLACKSMITH\l+ PROFESSION_BUTCHER\l+ PROFESSION_GENERIC\l+ NETWORK_ID\l+ $width\l+ $length\l+ $height\l|+ getName()\l+ spawnTo()\l+ getData()\l+ setProfession()\l+ getProfession()\l# initEntity()\l}">
<polygon fill="white" stroke="black" points="493.5,-100.5 493.5,-345.5 654.5,-345.5 654.5,-100.5 493.5,-100.5"/>
<text text-anchor="middle" x="574" y="-332.5" font-family="Helvetica,sans-Serif" font-size="10.00">pocketmine\entity\Villager</text>
<polyline fill="none" stroke="black" points="493.5,-324.5 654.5,-324.5 "/>
<text text-anchor="start" x="501.5" y="-311.5" font-family="Helvetica,sans-Serif" font-size="10.00">+ PROFESSION_FARMER</text>
<text text-anchor="start" x="501.5" y="-298.5" font-family="Helvetica,sans-Serif" font-size="10.00">+ PROFESSION_LIBRARIAN</text>
<text text-anchor="start" x="501.5" y="-285.5" font-family="Helvetica,sans-Serif" font-size="10.00">+ PROFESSION_PRIEST</text>
<text text-anchor="start" x="501.5" y="-272.5" font-family="Helvetica,sans-Serif" font-size="10.00">+ PROFESSION_BLACKSMITH</text>
<text text-anchor="start" x="501.5" y="-259.5" font-family="Helvetica,sans-Serif" font-size="10.00">+ PROFESSION_BUTCHER</text>
<text text-anchor="start" x="501.5" y="-246.5" font-family="Helvetica,sans-Serif" font-size="10.00">+ PROFESSION_GENERIC</text>
<text text-anchor="start" x="501.5" y="-233.5" font-family="Helvetica,sans-Serif" font-size="10.00">+ NETWORK_ID</text>
<text text-anchor="start" x="501.5" y="-220.5" font-family="Helvetica,sans-Serif" font-size="10.00">+ $width</text>
<text text-anchor="start" x="501.5" y="-207.5" font-family="Helvetica,sans-Serif" font-size="10.00">+ $length</text>
<text text-anchor="start" x="501.5" y="-194.5" font-family="Helvetica,sans-Serif" font-size="10.00">+ $height</text>
<polyline fill="none" stroke="black" points="493.5,-186.5 654.5,-186.5 "/>
<text text-anchor="start" x="501.5" y="-173.5" font-family="Helvetica,sans-Serif" font-size="10.00">+ getName()</text>
<text text-anchor="start" x="501.5" y="-160.5" font-family="Helvetica,sans-Serif" font-size="10.00">+ spawnTo()</text>
<text text-anchor="start" x="501.5" y="-147.5" font-family="Helvetica,sans-Serif" font-size="10.00">+ getData()</text>
<text text-anchor="start" x="501.5" y="-134.5" font-family="Helvetica,sans-Serif" font-size="10.00">+ setProfession()</text>
<text text-anchor="start" x="501.5" y="-121.5" font-family="Helvetica,sans-Serif" font-size="10.00">+ getProfession()</text>
<text text-anchor="start" x="501.5" y="-108.5" font-family="Helvetica,sans-Serif" font-size="10.00"># initEntity()</text>
</a>
</g>
<!-- Node1&#45;&gt;Node9 -->
<g id="edge16" class="edge"><title>Node1&#45;&gt;Node9</title>
<path fill="none" stroke="midnightblue" d="M510.393,-372.987C513.966,-364.562 517.9,-355.286 522.005,-345.605"/>
<polygon fill="none" stroke="midnightblue" points="507.058,-371.887 506.376,-382.46 513.502,-374.62 507.058,-371.887"/>
</g>
<!-- Node3 -->
<g id="node5" class="node"><title>Node3</title>
<a xlink:href="../../d9/d0b/classpocketmine_1_1entity_1_1_chicken.html" target="_top" xlink:title="{pocketmine\\entity\\Chicken\n||}">
<polygon fill="white" stroke="black" points="-0.5,-0.5 -0.5,-63.5 132.5,-63.5 132.5,-0.5 -0.5,-0.5"/>
<text text-anchor="middle" x="66" y="-50.5" font-family="Helvetica,sans-Serif" font-size="10.00">pocketmine\entity\Chicken</text>
<polyline fill="none" stroke="black" points="-0.5,-42.5 132.5,-42.5 "/>
<text text-anchor="middle" x="66" y="-29.5" font-family="Helvetica,sans-Serif" font-size="10.00"> </text>
<polyline fill="none" stroke="black" points="-0.5,-21.5 132.5,-21.5 "/>
<text text-anchor="middle" x="66" y="-8.5" font-family="Helvetica,sans-Serif" font-size="10.00"> </text>
</a>
</g>
<!-- Node2&#45;&gt;Node3 -->
<g id="edge4" class="edge"><title>Node2&#45;&gt;Node3</title>
<path fill="none" stroke="midnightblue" d="M346.804,-186.564C282.17,-150.987 184.824,-97.4044 123.385,-63.5866"/>
<polygon fill="none" stroke="midnightblue" points="345.252,-189.704 355.7,-191.46 348.627,-183.572 345.252,-189.704"/>
</g>
<!-- Node4 -->
<g id="node7" class="node"><title>Node4</title>
<a xlink:href="../../d4/d80/classpocketmine_1_1entity_1_1_cow.html" target="_top" xlink:title="{pocketmine\\entity\\Cow\n||}">
<polygon fill="white" stroke="black" points="149.5,-0.5 149.5,-63.5 266.5,-63.5 266.5,-0.5 149.5,-0.5"/>
<text text-anchor="middle" x="208" y="-50.5" font-family="Helvetica,sans-Serif" font-size="10.00">pocketmine\entity\Cow</text>
<polyline fill="none" stroke="black" points="149.5,-42.5 266.5,-42.5 "/>
<text text-anchor="middle" x="208" y="-29.5" font-family="Helvetica,sans-Serif" font-size="10.00"> </text>
<polyline fill="none" stroke="black" points="149.5,-21.5 266.5,-21.5 "/>
<text text-anchor="middle" x="208" y="-8.5" font-family="Helvetica,sans-Serif" font-size="10.00"> </text>
</a>
</g>
<!-- Node2&#45;&gt;Node4 -->
<g id="edge6" class="edge"><title>Node2&#45;&gt;Node4</title>
<path fill="none" stroke="midnightblue" d="M371.765,-184.581C333.599,-149.021 277.53,-96.782 241.902,-63.5866"/>
<polygon fill="none" stroke="midnightblue" points="369.446,-187.204 379.148,-191.46 374.218,-182.083 369.446,-187.204"/>
</g>
<!-- Node5 -->
<g id="node9" class="node"><title>Node5</title>
<a xlink:href="../../d3/d91/classpocketmine_1_1entity_1_1_ocelot.html" target="_top" xlink:title="{pocketmine\\entity\\Ocelot\n||}">
<polygon fill="white" stroke="black" points="283.5,-0.5 283.5,-63.5 408.5,-63.5 408.5,-0.5 283.5,-0.5"/>
<text text-anchor="middle" x="346" y="-50.5" font-family="Helvetica,sans-Serif" font-size="10.00">pocketmine\entity\Ocelot</text>
<polyline fill="none" stroke="black" points="283.5,-42.5 408.5,-42.5 "/>
<text text-anchor="middle" x="346" y="-29.5" font-family="Helvetica,sans-Serif" font-size="10.00"> </text>
<polyline fill="none" stroke="black" points="283.5,-21.5 408.5,-21.5 "/>
<text text-anchor="middle" x="346" y="-8.5" font-family="Helvetica,sans-Serif" font-size="10.00"> </text>
</a>
</g>
<!-- Node2&#45;&gt;Node5 -->
<g id="edge8" class="edge"><title>Node2&#45;&gt;Node5</title>
<path fill="none" stroke="midnightblue" d="M398.577,-181.883C386.137,-146.421 368.433,-95.9521 357.08,-63.5866"/>
<polygon fill="none" stroke="midnightblue" points="395.323,-183.183 401.936,-191.46 401.929,-180.865 395.323,-183.183"/>
</g>
<!-- Node6 -->
<g id="node11" class="node"><title>Node6</title>
<a xlink:href="../../d8/d3e/classpocketmine_1_1entity_1_1_pig.html" target="_top" xlink:title="{pocketmine\\entity\\Pig\n||}">
<polygon fill="white" stroke="black" points="425.5,-0.5 425.5,-63.5 536.5,-63.5 536.5,-0.5 425.5,-0.5"/>
<text text-anchor="middle" x="481" y="-50.5" font-family="Helvetica,sans-Serif" font-size="10.00">pocketmine\entity\Pig</text>
<polyline fill="none" stroke="black" points="425.5,-42.5 536.5,-42.5 "/>
<text text-anchor="middle" x="481" y="-29.5" font-family="Helvetica,sans-Serif" font-size="10.00"> </text>
<polyline fill="none" stroke="black" points="425.5,-21.5 536.5,-21.5 "/>
<text text-anchor="middle" x="481" y="-8.5" font-family="Helvetica,sans-Serif" font-size="10.00"> </text>
</a>
</g>
<!-- Node2&#45;&gt;Node6 -->
<g id="edge10" class="edge"><title>Node2&#45;&gt;Node6</title>
<path fill="none" stroke="midnightblue" d="M427.638,-181.883C440.264,-146.421 458.232,-95.9521 469.755,-63.5866"/>
<polygon fill="none" stroke="midnightblue" points="424.286,-180.866 424.229,-191.46 430.88,-183.213 424.286,-180.866"/>
</g>
<!-- Node7 -->
<g id="node13" class="node"><title>Node7</title>
<a xlink:href="../../d4/d1e/classpocketmine_1_1entity_1_1_sheep.html" target="_top" xlink:title="{pocketmine\\entity\\Sheep\n||}">
<polygon fill="white" stroke="black" points="553.5,-0.5 553.5,-63.5 678.5,-63.5 678.5,-0.5 553.5,-0.5"/>
<text text-anchor="middle" x="616" y="-50.5" font-family="Helvetica,sans-Serif" font-size="10.00">pocketmine\entity\Sheep</text>
<polyline fill="none" stroke="black" points="553.5,-42.5 678.5,-42.5 "/>
<text text-anchor="middle" x="616" y="-29.5" font-family="Helvetica,sans-Serif" font-size="10.00"> </text>
<polyline fill="none" stroke="black" points="553.5,-21.5 678.5,-21.5 "/>
<text text-anchor="middle" x="616" y="-8.5" font-family="Helvetica,sans-Serif" font-size="10.00"> </text>
</a>
</g>
<!-- Node2&#45;&gt;Node7 -->
<g id="edge12" class="edge"><title>Node2&#45;&gt;Node7</title>
<path fill="none" stroke="midnightblue" d="M429.72,-182.18C441.985,-156.143 460.72,-123.077 485,-100 496.098,-89.4521 525.379,-73.9345 553.451,-60.3853"/>
<polygon fill="none" stroke="midnightblue" points="426.469,-180.873 425.496,-191.423 432.836,-183.783 426.469,-180.873"/>
</g>
<!-- Node8 -->
<g id="node15" class="node"><title>Node8</title>
<a xlink:href="../../d1/d54/classpocketmine_1_1entity_1_1_wolf.html" target="_top" xlink:title="{pocketmine\\entity\\Wolf\n||}">
<polygon fill="white" stroke="black" points="695.5,-0.5 695.5,-63.5 812.5,-63.5 812.5,-0.5 695.5,-0.5"/>
<text text-anchor="middle" x="754" y="-50.5" font-family="Helvetica,sans-Serif" font-size="10.00">pocketmine\entity\Wolf</text>
<polyline fill="none" stroke="black" points="695.5,-42.5 812.5,-42.5 "/>
<text text-anchor="middle" x="754" y="-29.5" font-family="Helvetica,sans-Serif" font-size="10.00"> </text>
<polyline fill="none" stroke="black" points="695.5,-21.5 812.5,-21.5 "/>
<text text-anchor="middle" x="754" y="-8.5" font-family="Helvetica,sans-Serif" font-size="10.00"> </text>
</a>
</g>
<!-- Node2&#45;&gt;Node8 -->
<g id="edge14" class="edge"><title>Node2&#45;&gt;Node8</title>
<path fill="none" stroke="midnightblue" d="M426.558,-182.058C437.836,-154.513 456.674,-119.746 485,-100 559.809,-47.8496 600.182,-91.9034 687,-64 689.7,-63.1323 692.431,-62.1773 695.167,-61.1566"/>
<polygon fill="none" stroke="midnightblue" points="423.262,-180.875 422.881,-191.463 429.782,-183.424 423.262,-180.875"/>
</g>
</g>
</svg>
        <g id="navigator" transform="translate(0 0)" fill="#404254">
                <rect fill="#f2f5e9" fill-opacity="0.5" stroke="#606060" stroke-width=".5" x="0" y="0" width="60" height="60"/>
                <use id="zoomplus" xlink:href="#zoomPlus" x="17" y="9" onmousedown="handleZoom(evt,'in')"/>
                <use id="zoomminus" xlink:href="#zoomMin" x="42" y="9" onmousedown="handleZoom(evt,'out')"/>
                <use id="reset" xlink:href="#resetDef" x="30" y="36" onmousedown="handleReset()"/>
                <g id="arrowUp" xlink:href="#dirArrow" transform="translate(30 24)" onmousedown="handlePan(0,-1)">
                  <use xlink:href="#rim" fill="#404040">
                        <set attributeName="fill" to="#808080" begin="arrowUp.mouseover" end="arrowUp.mouseout"/>
                  </use>
                  <path fill="none" stroke="white" stroke-width="1.5" d="M0,-3.0v7 M-2.5,-0.5L0,-3.0L2.5,-0.5"/>
                </g>
                <g id="arrowRight" xlink:href="#dirArrow" transform="rotate(90) translate(36 -43)" onmousedown="handlePan(1,0)">
                  <use xlink:href="#rim" fill="#404040">
                        <set attributeName="fill" to="#808080" begin="arrowRight.mouseover" end="arrowRight.mouseout"/>
                  </use>
                  <path fill="none" stroke="white" stroke-width="1.5" d="M0,-3.0v7 M-2.5,-0.5L0,-3.0L2.5,-0.5"/>
                </g>
                <g id="arrowDown" xlink:href="#dirArrow" transform="rotate(180) translate(-30 -48)" onmousedown="handlePan(0,1)">
                  <use xlink:href="#rim" fill="#404040">
                        <set attributeName="fill" to="#808080" begin="arrowDown.mouseover" end="arrowDown.mouseout"/>
                  </use>
                  <path fill="none" stroke="white" stroke-width="1.5" d="M0,-3.0v7 M-2.5,-0.5L0,-3.0L2.5,-0.5"/>
                </g>
                <g id="arrowLeft" xlink:href="#dirArrow" transform="rotate(270) translate(-36 17)" onmousedown="handlePan(-1,0)">
                  <use xlink:href="#rim" fill="#404040">
                        <set attributeName="fill" to="#808080" begin="arrowLeft.mouseover" end="arrowLeft.mouseout"/>
                  </use>
                  <path fill="none" stroke="white" stroke-width="1.5" d="M0,-3.0v7 M-2.5,-0.5L0,-3.0L2.5,-0.5"/>
                </g>
        </g>
        <svg viewBox="0 0 15 15" width="100%" height="30px" preserveAspectRatio="xMaxYMin meet">
         <g id="arrow_out" transform="scale(0.3 0.3)">
          <a xlink:href="interfacepocketmine_1_1entity_1_1_ageable__inherit__graph_org.svg" target="_base">
           <rect id="button" ry="5" rx="5" y="6" x="6" height="38" width="38"
                fill="#f2f5e9" fill-opacity="0.5" stroke="#606060" stroke-width="1.0"/>
           <path id="arrow"
             d="M 11.500037,31.436501 C 11.940474,20.09759 22.043105,11.32322 32.158766,21.979434 L 37.068811,17.246167 C 37.068811,17.246167 37.088388,32 37.088388,32 L 22.160133,31.978069 C 22.160133,31.978069 26.997745,27.140456 26.997745,27.140456 C 18.528582,18.264221 13.291696,25.230495 11.500037,31.436501 z"
             style="fill:#404040;"/>
          </a>
         </g>
        </svg>
</svg>
