<?xml version="1.0" encoding="UTF-8" standalone="no"?>
<!DOCTYPE svg PUBLIC "-//W3C//DTD SVG 1.1//EN"
 "http://www.w3.org/Graphics/SVG/1.1/DTD/svg11.dtd">
<!-- Generated by graphviz version 2.26.3 (20100126.1600)
 -->
<!-- Title: pocketmine\block\Liquid Pages: 1 -->
<svg width="424pt" height="1556pt"
 viewBox="0.00 0.00 424.00 1556.00" xmlns="http://www.w3.org/2000/svg" xmlns:xlink="http://www.w3.org/1999/xlink">
<g id="graph1" class="graph" transform="scale(1 1) rotate(0) translate(4 1552)">
<title>pocketmine\block\Liquid</title>
<polygon fill="white" stroke="white" points="-4,5 -4,-1552 421,-1552 421,5 -4,5"/>
<!-- Node1 -->
<g id="node1" class="node"><title>Node1</title>
<polygon fill="#bfbfbf" stroke="black" points="140,-266.5 140,-329.5 262,-329.5 262,-266.5 140,-266.5"/>
<text text-anchor="middle" x="201" y="-316.5" font-family="Helvetica,sans-Serif" font-size="10.00">pocketmine\block\Liquid</text>
<polyline fill="none" stroke="black" points="140,-308.5 262,-308.5 "/>
<text text-anchor="middle" x="201" y="-295.5" font-family="Helvetica,sans-Serif" font-size="10.00"> </text>
<polyline fill="none" stroke="black" points="140,-287.5 262,-287.5 "/>
<text text-anchor="start" x="148" y="-274.5" font-family="Helvetica,sans-Serif" font-size="10.00">+ __construct()</text>
</g>
<!-- Node8 -->
<g id="node15" class="node"><title>Node8</title>
<a xlink:href="../../d1/d7b/classpocketmine_1_1block_1_1_lava.html" target="_top" xlink:title="{pocketmine\\block\\Lava\n||+ __construct()\l+ place()\l+ getSourceCount()\l+ checkWater()\l+ getFrom()\l+ onUpdate()\l}">
<polygon fill="white" stroke="black" points="-0.5,-101 -0.5,-229 116.5,-229 116.5,-101 -0.5,-101"/>
<text text-anchor="middle" x="58" y="-216" font-family="Helvetica,sans-Serif" font-size="10.00">pocketmine\block\Lava</text>
<polyline fill="none" stroke="black" points="-0.5,-208 116.5,-208 "/>
<text text-anchor="middle" x="58" y="-195" font-family="Helvetica,sans-Serif" font-size="10.00"> </text>
<polyline fill="none" stroke="black" points="-0.5,-187 116.5,-187 "/>
<text text-anchor="start" x="7.5" y="-174" font-family="Helvetica,sans-Serif" font-size="10.00">+ __construct()</text>
<text text-anchor="start" x="7.5" y="-161" font-family="Helvetica,sans-Serif" font-size="10.00">+ place()</text>
<text text-anchor="start" x="7.5" y="-148" font-family="Helvetica,sans-Serif" font-size="10.00">+ getSourceCount()</text>
<text text-anchor="start" x="7.5" y="-135" font-family="Helvetica,sans-Serif" font-size="10.00">+ checkWater()</text>
<text text-anchor="start" x="7.5" y="-122" font-family="Helvetica,sans-Serif" font-size="10.00">+ getFrom()</text>
<text text-anchor="start" x="7.5" y="-109" font-family="Helvetica,sans-Serif" font-size="10.00">+ onUpdate()</text>
</a>
</g>
<!-- Node1&#45;&gt;Node8 -->
<g id="edge14" class="edge"><title>Node1&#45;&gt;Node8</title>
<path fill="none" stroke="midnightblue" d="M157.508,-259.63C146.803,-250.037 135.424,-239.712 125,-230 122.273,-227.459 119.495,-224.85 116.697,-222.206"/>
<polygon fill="none" stroke="midnightblue" points="155.371,-262.415 165.161,-266.467 160.035,-257.194 155.371,-262.415"/>
</g>
<!-- Node9 -->
<g id="node17" class="node"><title>Node9</title>
<a xlink:href="../../da/dbd/classpocketmine_1_1block_1_1_still_lava.html" target="_top" xlink:title="{pocketmine\\block\\StillLava\n||+ __construct()\l}">
<polygon fill="white" stroke="black" points="134,-133.5 134,-196.5 268,-196.5 268,-133.5 134,-133.5"/>
<text text-anchor="middle" x="201" y="-183.5" font-family="Helvetica,sans-Serif" font-size="10.00">pocketmine\block\StillLava</text>
<polyline fill="none" stroke="black" points="134,-175.5 268,-175.5 "/>
<text text-anchor="middle" x="201" y="-162.5" font-family="Helvetica,sans-Serif" font-size="10.00"> </text>
<polyline fill="none" stroke="black" points="134,-154.5 268,-154.5 "/>
<text text-anchor="start" x="142" y="-141.5" font-family="Helvetica,sans-Serif" font-size="10.00">+ __construct()</text>
</a>
</g>
<!-- Node1&#45;&gt;Node9 -->
<g id="edge16" class="edge"><title>Node1&#45;&gt;Node9</title>
<path fill="none" stroke="midnightblue" d="M201,-256.452C201,-237.179 201,-214.636 201,-196.754"/>
<polygon fill="none" stroke="midnightblue" points="197.5,-256.481 201,-266.481 204.5,-256.481 197.5,-256.481"/>
</g>
<!-- Node10 -->
<g id="node19" class="node"><title>Node10</title>
<a xlink:href="../../d2/d3e/classpocketmine_1_1block_1_1_water.html" target="_top" xlink:title="{pocketmine\\block\\Water\n||+ __construct()\l+ place()\l+ getSourceCount()\l+ checkLava()\l+ getFrom()\l+ onUpdate()\l}">
<polygon fill="white" stroke="black" points="286,-101 286,-229 408,-229 408,-101 286,-101"/>
<text text-anchor="middle" x="347" y="-216" font-family="Helvetica,sans-Serif" font-size="10.00">pocketmine\block\Water</text>
<polyline fill="none" stroke="black" points="286,-208 408,-208 "/>
<text text-anchor="middle" x="347" y="-195" font-family="Helvetica,sans-Serif" font-size="10.00"> </text>
<polyline fill="none" stroke="black" points="286,-187 408,-187 "/>
<text text-anchor="start" x="294" y="-174" font-family="Helvetica,sans-Serif" font-size="10.00">+ __construct()</text>
<text text-anchor="start" x="294" y="-161" font-family="Helvetica,sans-Serif" font-size="10.00">+ place()</text>
<text text-anchor="start" x="294" y="-148" font-family="Helvetica,sans-Serif" font-size="10.00">+ getSourceCount()</text>
<text text-anchor="start" x="294" y="-135" font-family="Helvetica,sans-Serif" font-size="10.00">+ checkLava()</text>
<text text-anchor="start" x="294" y="-122" font-family="Helvetica,sans-Serif" font-size="10.00">+ getFrom()</text>
<text text-anchor="start" x="294" y="-109" font-family="Helvetica,sans-Serif" font-size="10.00">+ onUpdate()</text>
</a>
</g>
<!-- Node1&#45;&gt;Node10 -->
<g id="edge18" class="edge"><title>Node1&#45;&gt;Node10</title>
<path fill="none" stroke="midnightblue" d="M244.343,-259.469C255.052,-249.88 266.471,-239.597 277,-230 279.942,-227.319 282.947,-224.569 285.978,-221.787"/>
<polygon fill="none" stroke="midnightblue" points="241.815,-257.034 236.693,-266.308 246.481,-262.252 241.815,-257.034"/>
</g>
<!-- Node2 -->
<g id="node2" class="node"><title>Node2</title>
<a xlink:href="../../d5/d1b/classpocketmine_1_1block_1_1_transparent.html" target="_top" xlink:title="{pocketmine\\block\\Transparent\n||+ __construct()\l}">
<polygon fill="white" stroke="black" points="127,-366.5 127,-429.5 275,-429.5 275,-366.5 127,-366.5"/>
<text text-anchor="middle" x="201" y="-416.5" font-family="Helvetica,sans-Serif" font-size="10.00">pocketmine\block\Transparent</text>
<polyline fill="none" stroke="black" points="127,-408.5 275,-408.5 "/>
<text text-anchor="middle" x="201" y="-395.5" font-family="Helvetica,sans-Serif" font-size="10.00"> </text>
<polyline fill="none" stroke="black" points="127,-387.5 275,-387.5 "/>
<text text-anchor="start" x="135" y="-374.5" font-family="Helvetica,sans-Serif" font-size="10.00">+ __construct()</text>
</a>
</g>
<!-- Node2&#45;&gt;Node1 -->
<g id="edge2" class="edge"><title>Node2&#45;&gt;Node1</title>
<path fill="none" stroke="midnightblue" d="M201,-356.211C201,-347.37 201,-338.177 201,-329.778"/>
<polygon fill="none" stroke="midnightblue" points="197.5,-356.359 201,-366.359 204.5,-356.359 197.5,-356.359"/>
</g>
<!-- Node3 -->
<g id="node4" class="node"><title>Node3</title>
<a xlink:href="../../d0/d81/classpocketmine_1_1block_1_1_generic.html" target="_top" xlink:title="{pocketmine\\block\\Generic\n||+ __construct()\l+ place()\l+ isBreakable()\l+ onBreak()\l+ onUpdate()\l+ onActivate()\l}">
<polygon fill="white" stroke="black" points="136,-467 136,-595 266,-595 266,-467 136,-467"/>
<text text-anchor="middle" x="201" y="-582" font-family="Helvetica,sans-Serif" font-size="10.00">pocketmine\block\Generic</text>
<polyline fill="none" stroke="black" points="136,-574 266,-574 "/>
<text text-anchor="middle" x="201" y="-561" font-family="Helvetica,sans-Serif" font-size="10.00"> </text>
<polyline fill="none" stroke="black" points="136,-553 266,-553 "/>
<text text-anchor="start" x="144" y="-540" font-family="Helvetica,sans-Serif" font-size="10.00">+ __construct()</text>
<text text-anchor="start" x="144" y="-527" font-family="Helvetica,sans-Serif" font-size="10.00">+ place()</text>
<text text-anchor="start" x="144" y="-514" font-family="Helvetica,sans-Serif" font-size="10.00">+ isBreakable()</text>
<text text-anchor="start" x="144" y="-501" font-family="Helvetica,sans-Serif" font-size="10.00">+ onBreak()</text>
<text text-anchor="start" x="144" y="-488" font-family="Helvetica,sans-Serif" font-size="10.00">+ onUpdate()</text>
<text text-anchor="start" x="144" y="-475" font-family="Helvetica,sans-Serif" font-size="10.00">+ onActivate()</text>
</a>
</g>
<!-- Node3&#45;&gt;Node2 -->
<g id="edge4" class="edge"><title>Node3&#45;&gt;Node2</title>
<path fill="none" stroke="midnightblue" d="M201,-456.58C201,-447.171 201,-437.976 201,-429.764"/>
<polygon fill="none" stroke="midnightblue" points="197.5,-456.837 201,-466.837 204.5,-456.837 197.5,-456.837"/>
</g>
<!-- Node4 -->
<g id="node6" class="node"><title>Node4</title>
<a xlink:href="../../d7/d27/classpocketmine_1_1block_1_1_block.html" target="_top" xlink:title="{pocketmine\\block\\Block\n|+ AIR\l+ STONE\l+ GRASS\l+ DIRT\l+ COBBLESTONE\l+ COBBLE\l+ PLANK\l+ PLANKS\l+ WOODEN_PLANK\l+ WOODEN_PLANKS\land 169 more...\l+ $creative\l+ $list\l# $id\l# $meta\l# $name\l# $breakTime\l# $hardness\l|+ __construct()\l+ getHardness()\l+ getName()\l+ getID()\l+ getDamage()\l+ setDamage()\l+ position()\l+ getDrops()\l+ getBreakTime()\l+ getSide()\land 12 more...\l+ init()\l+ get()\l}">
<polygon fill="white" stroke="black" points="140.5,-633 140.5,-1073 261.5,-1073 261.5,-633 140.5,-633"/>
<text text-anchor="middle" x="201" y="-1060" font-family="Helvetica,sans-Serif" font-size="10.00">pocketmine\block\Block</text>
<polyline fill="none" stroke="black" points="140.5,-1052 261.5,-1052 "/>
<text text-anchor="start" x="148.5" y="-1039" font-family="Helvetica,sans-Serif" font-size="10.00">+ AIR</text>
<text text-anchor="start" x="148.5" y="-1026" font-family="Helvetica,sans-Serif" font-size="10.00">+ STONE</text>
<text text-anchor="start" x="148.5" y="-1013" font-family="Helvetica,sans-Serif" font-size="10.00">+ GRASS</text>
<text text-anchor="start" x="148.5" y="-1000" font-family="Helvetica,sans-Serif" font-size="10.00">+ DIRT</text>
<text text-anchor="start" x="148.5" y="-987" font-family="Helvetica,sans-Serif" font-size="10.00">+ COBBLESTONE</text>
<text text-anchor="start" x="148.5" y="-974" font-family="Helvetica,sans-Serif" font-size="10.00">+ COBBLE</text>
<text text-anchor="start" x="148.5" y="-961" font-family="Helvetica,sans-Serif" font-size="10.00">+ PLANK</text>
<text text-anchor="start" x="148.5" y="-948" font-family="Helvetica,sans-Serif" font-size="10.00">+ PLANKS</text>
<text text-anchor="start" x="148.5" y="-935" font-family="Helvetica,sans-Serif" font-size="10.00">+ WOODEN_PLANK</text>
<text text-anchor="start" x="148.5" y="-922" font-family="Helvetica,sans-Serif" font-size="10.00">+ WOODEN_PLANKS</text>
<text text-anchor="start" x="148.5" y="-909" font-family="Helvetica,sans-Serif" font-size="10.00">and 169 more...</text>
<text text-anchor="start" x="148.5" y="-896" font-family="Helvetica,sans-Serif" font-size="10.00">+ $creative</text>
<text text-anchor="start" x="148.5" y="-883" font-family="Helvetica,sans-Serif" font-size="10.00">+ $list</text>
<text text-anchor="start" x="148.5" y="-870" font-family="Helvetica,sans-Serif" font-size="10.00"># $id</text>
<text text-anchor="start" x="148.5" y="-857" font-family="Helvetica,sans-Serif" font-size="10.00"># $meta</text>
<text text-anchor="start" x="148.5" y="-844" font-family="Helvetica,sans-Serif" font-size="10.00"># $name</text>
<text text-anchor="start" x="148.5" y="-831" font-family="Helvetica,sans-Serif" font-size="10.00"># $breakTime</text>
<text text-anchor="start" x="148.5" y="-818" font-family="Helvetica,sans-Serif" font-size="10.00"># $hardness</text>
<polyline fill="none" stroke="black" points="140.5,-810 261.5,-810 "/>
<text text-anchor="start" x="148.5" y="-797" font-family="Helvetica,sans-Serif" font-size="10.00">+ __construct()</text>
<text text-anchor="start" x="148.5" y="-784" font-family="Helvetica,sans-Serif" font-size="10.00">+ getHardness()</text>
<text text-anchor="start" x="148.5" y="-771" font-family="Helvetica,sans-Serif" font-size="10.00">+ getName()</text>
<text text-anchor="start" x="148.5" y="-758" font-family="Helvetica,sans-Serif" font-size="10.00">+ getID()</text>
<text text-anchor="start" x="148.5" y="-745" font-family="Helvetica,sans-Serif" font-size="10.00">+ getDamage()</text>
<text text-anchor="start" x="148.5" y="-732" font-family="Helvetica,sans-Serif" font-size="10.00">+ setDamage()</text>
<text text-anchor="start" x="148.5" y="-719" font-family="Helvetica,sans-Serif" font-size="10.00">+ position()</text>
<text text-anchor="start" x="148.5" y="-706" font-family="Helvetica,sans-Serif" font-size="10.00">+ getDrops()</text>
<text text-anchor="start" x="148.5" y="-693" font-family="Helvetica,sans-Serif" font-size="10.00">+ getBreakTime()</text>
<text text-anchor="start" x="148.5" y="-680" font-family="Helvetica,sans-Serif" font-size="10.00">+ getSide()</text>
<text text-anchor="start" x="148.5" y="-667" font-family="Helvetica,sans-Serif" font-size="10.00">and 12 more...</text>
<text text-anchor="start" x="148.5" y="-654" font-family="Helvetica,sans-Serif" font-size="10.00">+ init()</text>
<text text-anchor="start" x="148.5" y="-641" font-family="Helvetica,sans-Serif" font-size="10.00">+ get()</text>
</a>
</g>
<!-- Node4&#45;&gt;Node3 -->
<g id="edge6" class="edge"><title>Node4&#45;&gt;Node3</title>
<path fill="none" stroke="midnightblue" d="M201,-622.671C201,-613.007 201,-603.755 201,-595.098"/>
<polygon fill="none" stroke="midnightblue" points="197.5,-622.883 201,-632.883 204.5,-622.883 197.5,-622.883"/>
</g>
<!-- Node5 -->
<g id="node8" class="node"><title>Node5</title>
<a xlink:href="../../db/d9b/classpocketmine_1_1level_1_1_position.html" target="_top" xlink:title="{pocketmine\\level\\Position\n|+ $level\l|+ __construct()\l+ getLevel()\l+ setLevel()\l+ isValid()\l+ setStrong()\l+ setWeak()\l+ getSide()\l+ distance()\l+ __toString()\l+ fromObject()\l}">
<polygon fill="white" stroke="black" points="69,-1111 69,-1291 197,-1291 197,-1111 69,-1111"/>
<text text-anchor="middle" x="133" y="-1278" font-family="Helvetica,sans-Serif" font-size="10.00">pocketmine\level\Position</text>
<polyline fill="none" stroke="black" points="69,-1270 197,-1270 "/>
<text text-anchor="start" x="77" y="-1257" font-family="Helvetica,sans-Serif" font-size="10.00">+ $level</text>
<polyline fill="none" stroke="black" points="69,-1249 197,-1249 "/>
<text text-anchor="start" x="77" y="-1236" font-family="Helvetica,sans-Serif" font-size="10.00">+ __construct()</text>
<text text-anchor="start" x="77" y="-1223" font-family="Helvetica,sans-Serif" font-size="10.00">+ getLevel()</text>
<text text-anchor="start" x="77" y="-1210" font-family="Helvetica,sans-Serif" font-size="10.00">+ setLevel()</text>
<text text-anchor="start" x="77" y="-1197" font-family="Helvetica,sans-Serif" font-size="10.00">+ isValid()</text>
<text text-anchor="start" x="77" y="-1184" font-family="Helvetica,sans-Serif" font-size="10.00">+ setStrong()</text>
<text text-anchor="start" x="77" y="-1171" font-family="Helvetica,sans-Serif" font-size="10.00">+ setWeak()</text>
<text text-anchor="start" x="77" y="-1158" font-family="Helvetica,sans-Serif" font-size="10.00">+ getSide()</text>
<text text-anchor="start" x="77" y="-1145" font-family="Helvetica,sans-Serif" font-size="10.00">+ distance()</text>
<text text-anchor="start" x="77" y="-1132" font-family="Helvetica,sans-Serif" font-size="10.00">+ __toString()</text>
<text text-anchor="start" x="77" y="-1119" font-family="Helvetica,sans-Serif" font-size="10.00">+ fromObject()</text>
</a>
</g>
<!-- Node5&#45;&gt;Node4 -->
<g id="edge8" class="edge"><title>Node5&#45;&gt;Node4</title>
<path fill="none" stroke="midnightblue" d="M152.55,-1100.95C154.302,-1091.98 156.117,-1082.7 157.97,-1073.21"/>
<polygon fill="none" stroke="midnightblue" points="149.083,-1100.44 150.6,-1110.93 155.953,-1101.79 149.083,-1100.44"/>
</g>
<!-- Node6 -->
<g id="node10" class="node"><title>Node6</title>
<a xlink:href="../../d2/d90/classpocketmine_1_1math_1_1_vector3.html" target="_top" xlink:title="{pocketmine\\math\\Vector3\n|+ $x\l+ $y\l+ $z\l|+ __construct()\l+ getX()\l+ getY()\l+ getZ()\l+ getFloorX()\l+ getFloorY()\l+ getFloorZ()\l+ getRight()\l+ getUp()\l+ getForward()\land 20 more...\l}">
<polygon fill="white" stroke="black" points="69,-1328.5 69,-1547.5 197,-1547.5 197,-1328.5 69,-1328.5"/>
<text text-anchor="middle" x="133" y="-1534.5" font-family="Helvetica,sans-Serif" font-size="10.00">pocketmine\math\Vector3</text>
<polyline fill="none" stroke="black" points="69,-1526.5 197,-1526.5 "/>
<text text-anchor="start" x="77" y="-1513.5" font-family="Helvetica,sans-Serif" font-size="10.00">+ $x</text>
<text text-anchor="start" x="77" y="-1500.5" font-family="Helvetica,sans-Serif" font-size="10.00">+ $y</text>
<text text-anchor="start" x="77" y="-1487.5" font-family="Helvetica,sans-Serif" font-size="10.00">+ $z</text>
<polyline fill="none" stroke="black" points="69,-1479.5 197,-1479.5 "/>
<text text-anchor="start" x="77" y="-1466.5" font-family="Helvetica,sans-Serif" font-size="10.00">+ __construct()</text>
<text text-anchor="start" x="77" y="-1453.5" font-family="Helvetica,sans-Serif" font-size="10.00">+ getX()</text>
<text text-anchor="start" x="77" y="-1440.5" font-family="Helvetica,sans-Serif" font-size="10.00">+ getY()</text>
<text text-anchor="start" x="77" y="-1427.5" font-family="Helvetica,sans-Serif" font-size="10.00">+ getZ()</text>
<text text-anchor="start" x="77" y="-1414.5" font-family="Helvetica,sans-Serif" font-size="10.00">+ getFloorX()</text>
<text text-anchor="start" x="77" y="-1401.5" font-family="Helvetica,sans-Serif" font-size="10.00">+ getFloorY()</text>
<text text-anchor="start" x="77" y="-1388.5" font-family="Helvetica,sans-Serif" font-size="10.00">+ getFloorZ()</text>
<text text-anchor="start" x="77" y="-1375.5" font-family="Helvetica,sans-Serif" font-size="10.00">+ getRight()</text>
<text text-anchor="start" x="77" y="-1362.5" font-family="Helvetica,sans-Serif" font-size="10.00">+ getUp()</text>
<text text-anchor="start" x="77" y="-1349.5" font-family="Helvetica,sans-Serif" font-size="10.00">+ getForward()</text>
<text text-anchor="start" x="77" y="-1336.5" font-family="Helvetica,sans-Serif" font-size="10.00">and 20 more...</text>
</a>
</g>
<!-- Node6&#45;&gt;Node5 -->
<g id="edge10" class="edge"><title>Node6&#45;&gt;Node5</title>
<path fill="none" stroke="midnightblue" d="M133,-1318.02C133,-1309.03 133,-1300.05 133,-1291.28"/>
<polygon fill="none" stroke="midnightblue" points="129.5,-1318.17 133,-1328.17 136.5,-1318.17 129.5,-1318.17"/>
</g>
<!-- Node7 -->
<g id="node12" class="node"><title>Node7</title>
<a xlink:href="../../d8/d0b/interfacepocketmine_1_1metadata_1_1_metadatable.html" target="_top" xlink:title="{pocketmine\\metadata\l\\Metadatable\n||+ setMetadata()\l+ getMetadata()\l+ hasMetadata()\l+ removeMetadata()\l}">
<polygon fill="white" stroke="black" points="215,-1143.5 215,-1258.5 325,-1258.5 325,-1143.5 215,-1143.5"/>
<text text-anchor="start" x="223" y="-1245.5" font-family="Helvetica,sans-Serif" font-size="10.00">pocketmine\metadata</text>
<text text-anchor="middle" x="270" y="-1232.5" font-family="Helvetica,sans-Serif" font-size="10.00">\Metadatable</text>
<polyline fill="none" stroke="black" points="215,-1224.5 325,-1224.5 "/>
<text text-anchor="middle" x="270" y="-1211.5" font-family="Helvetica,sans-Serif" font-size="10.00"> </text>
<polyline fill="none" stroke="black" points="215,-1203.5 325,-1203.5 "/>
<text text-anchor="start" x="223" y="-1190.5" font-family="Helvetica,sans-Serif" font-size="10.00">+ setMetadata()</text>
<text text-anchor="start" x="223" y="-1177.5" font-family="Helvetica,sans-Serif" font-size="10.00">+ getMetadata()</text>
<text text-anchor="start" x="223" y="-1164.5" font-family="Helvetica,sans-Serif" font-size="10.00">+ hasMetadata()</text>
<text text-anchor="start" x="223" y="-1151.5" font-family="Helvetica,sans-Serif" font-size="10.00">+ removeMetadata()</text>
</a>
</g>
<!-- Node7&#45;&gt;Node4 -->
<g id="edge12" class="edge"><title>Node7&#45;&gt;Node4</title>
<path fill="none" stroke="midnightblue" d="M256.538,-1133.11C252.962,-1115.07 248.899,-1094.58 244.635,-1073.07"/>
<polygon fill="none" stroke="midnightblue" points="253.15,-1134.02 258.529,-1143.14 260.017,-1132.65 253.15,-1134.02"/>
</g>
<!-- Node11 -->
<g id="node21" class="node"><title>Node11</title>
<a xlink:href="../../db/db0/classpocketmine_1_1block_1_1_still_water.html" target="_top" xlink:title="{pocketmine\\block\\StillWater\n||+ __construct()\l}">
<polygon fill="white" stroke="black" points="277.5,-0.5 277.5,-63.5 416.5,-63.5 416.5,-0.5 277.5,-0.5"/>
<text text-anchor="middle" x="347" y="-50.5" font-family="Helvetica,sans-Serif" font-size="10.00">pocketmine\block\StillWater</text>
<polyline fill="none" stroke="black" points="277.5,-42.5 416.5,-42.5 "/>
<text text-anchor="middle" x="347" y="-29.5" font-family="Helvetica,sans-Serif" font-size="10.00"> </text>
<polyline fill="none" stroke="black" points="277.5,-21.5 416.5,-21.5 "/>
<text text-anchor="start" x="285.5" y="-8.5" font-family="Helvetica,sans-Serif" font-size="10.00">+ __construct()</text>
</a>
</g>
<!-- Node10&#45;&gt;Node11 -->
<g id="edge20" class="edge"><title>Node10&#45;&gt;Node11</title>
<path fill="none" stroke="midnightblue" d="M347,-90.5798C347,-81.1708 347,-71.9763 347,-63.7644"/>
<polygon fill="none" stroke="midnightblue" points="343.5,-90.8374 347,-100.837 350.5,-90.8375 343.5,-90.8374"/>
</g>
</g>
</svg>
