<?xml version="1.0" encoding="UTF-8" standalone="no"?>
<!DOCTYPE svg PUBLIC "-//W3C//DTD SVG 1.1//EN"
 "http://www.w3.org/Graphics/SVG/1.1/DTD/svg11.dtd">
<!-- Generated by graphviz version 2.26.3 (20100126.1600)
 -->
<!-- Title: G Pages: 1 -->
<!--zoomable 1056 -->
<svg id="main" version="1.1" xmlns="http://www.w3.org/2000/svg" xmlns:xlink="http://www.w3.org/1999/xlink" xml:space="preserve" onload="init(evt)">
        <defs>
                <circle id="rim" cx="0" cy="0" r="7"/>
                <circle id="rim2" cx="0" cy="0" r="3.5"/>
                <g id="zoomPlus">
                        <use xlink:href="#rim" fill="#404040">
                                <set attributeName="fill" to="#808080" begin="zoomplus.mouseover" end="zoomplus.mouseout"/>
                        </use>
                        <path d="M-4,0h8M0,-4v8" fill="none" stroke="white" stroke-width="1.5" pointer-events="none"/>
                </g>
                <g id="zoomMin">
                        <use xlink:href="#rim" fill="#404040">
                                <set attributeName="fill" to="#808080" begin="zoomminus.mouseover" end="zoomminus.mouseout"/>
                        </use>
                        <path d="M-4,0h8" fill="none" stroke="white" stroke-width="1.5" pointer-events="none"/>
                </g>
                <g id="dirArrow">
                        <path fill="none" stroke="white" stroke-width="1.5" d="M0,-3.0v7 M-2.5,-0.5L0,-3.0L2.5,-0.5"/>
                </g>
               <g id="resetDef">
                       <use xlink:href="#rim2" fill="#404040">
                               <set attributeName="fill" to="#808080" begin="reset.mouseover" end="reset.mouseout"/>
                       </use>
               </g>
        </defs>

<script type="text/javascript">
var viewWidth = 424;
var viewHeight = 1056;
var sectionId = 'dynsection-0';
</script>
<script xlink:href="../../svgpan.js"/>
<svg id="graph" class="graph">
<g id="viewport">
<title>G</title>
<polygon fill="white" stroke="white" points="-4,5 -4,-1052 421,-1052 421,5 -4,5"/>
<!-- Node1 -->
<g id="node1" class="node"><title>Node1</title>
<polygon fill="#bfbfbf" stroke="black" points="140,-266.5 140,-329.5 262,-329.5 262,-266.5 140,-266.5"/>
<text text-anchor="middle" x="201" y="-316.5" font-family="Helvetica,sans-Serif" font-size="10.00">pocketmine\block\Liquid</text>
<polyline fill="none" stroke="black" points="140,-308.5 262,-308.5 "/>
<text text-anchor="middle" x="201" y="-295.5" font-family="Helvetica,sans-Serif" font-size="10.00"> </text>
<polyline fill="none" stroke="black" points="140,-287.5 262,-287.5 "/>
<text text-anchor="start" x="148" y="-274.5" font-family="Helvetica,sans-Serif" font-size="10.00">+ __construct()</text>
</g>
<!-- Node5 -->
<g id="node9" class="node"><title>Node5</title>
<a xlink:href="../../d1/d7b/classpocketmine_1_1block_1_1_lava.html" target="_top" xlink:title="{pocketmine\\block\\Lava\n||+ __construct()\l+ place()\l+ getSourceCount()\l+ checkWater()\l+ getFrom()\l+ onUpdate()\l}">
<polygon fill="white" stroke="black" points="-0.5,-101 -0.5,-229 116.5,-229 116.5,-101 -0.5,-101"/>
<text text-anchor="middle" x="58" y="-216" font-family="Helvetica,sans-Serif" font-size="10.00">pocketmine\block\Lava</text>
<polyline fill="none" stroke="black" points="-0.5,-208 116.5,-208 "/>
<text text-anchor="middle" x="58" y="-195" font-family="Helvetica,sans-Serif" font-size="10.00"> </text>
<polyline fill="none" stroke="black" points="-0.5,-187 116.5,-187 "/>
<text text-anchor="start" x="7.5" y="-174" font-family="Helvetica,sans-Serif" font-size="10.00">+ __construct()</text>
<text text-anchor="start" x="7.5" y="-161" font-family="Helvetica,sans-Serif" font-size="10.00">+ place()</text>
<text text-anchor="start" x="7.5" y="-148" font-family="Helvetica,sans-Serif" font-size="10.00">+ getSourceCount()</text>
<text text-anchor="start" x="7.5" y="-135" font-family="Helvetica,sans-Serif" font-size="10.00">+ checkWater()</text>
<text text-anchor="start" x="7.5" y="-122" font-family="Helvetica,sans-Serif" font-size="10.00">+ getFrom()</text>
<text text-anchor="start" x="7.5" y="-109" font-family="Helvetica,sans-Serif" font-size="10.00">+ onUpdate()</text>
</a>
</g>
<!-- Node1&#45;&gt;Node5 -->
<g id="edge8" class="edge"><title>Node1&#45;&gt;Node5</title>
<path fill="none" stroke="midnightblue" d="M157.508,-259.63C146.803,-250.037 135.424,-239.712 125,-230 122.273,-227.459 119.495,-224.85 116.697,-222.206"/>
<polygon fill="none" stroke="midnightblue" points="155.371,-262.415 165.161,-266.467 160.035,-257.194 155.371,-262.415"/>
</g>
<!-- Node6 -->
<g id="node11" class="node"><title>Node6</title>
<a xlink:href="../../da/dbd/classpocketmine_1_1block_1_1_still_lava.html" target="_top" xlink:title="{pocketmine\\block\\StillLava\n||+ __construct()\l}">
<polygon fill="white" stroke="black" points="134,-133.5 134,-196.5 268,-196.5 268,-133.5 134,-133.5"/>
<text text-anchor="middle" x="201" y="-183.5" font-family="Helvetica,sans-Serif" font-size="10.00">pocketmine\block\StillLava</text>
<polyline fill="none" stroke="black" points="134,-175.5 268,-175.5 "/>
<text text-anchor="middle" x="201" y="-162.5" font-family="Helvetica,sans-Serif" font-size="10.00"> </text>
<polyline fill="none" stroke="black" points="134,-154.5 268,-154.5 "/>
<text text-anchor="start" x="142" y="-141.5" font-family="Helvetica,sans-Serif" font-size="10.00">+ __construct()</text>
</a>
</g>
<!-- Node1&#45;&gt;Node6 -->
<g id="edge10" class="edge"><title>Node1&#45;&gt;Node6</title>
<path fill="none" stroke="midnightblue" d="M201,-256.452C201,-237.179 201,-214.636 201,-196.754"/>
<polygon fill="none" stroke="midnightblue" points="197.5,-256.481 201,-266.481 204.5,-256.481 197.5,-256.481"/>
</g>
<!-- Node7 -->
<g id="node13" class="node"><title>Node7</title>
<a xlink:href="../../d2/d3e/classpocketmine_1_1block_1_1_water.html" target="_top" xlink:title="{pocketmine\\block\\Water\n||+ __construct()\l+ place()\l+ getSourceCount()\l+ checkLava()\l+ getFrom()\l+ onUpdate()\l}">
<polygon fill="white" stroke="black" points="286,-101 286,-229 408,-229 408,-101 286,-101"/>
<text text-anchor="middle" x="347" y="-216" font-family="Helvetica,sans-Serif" font-size="10.00">pocketmine\block\Water</text>
<polyline fill="none" stroke="black" points="286,-208 408,-208 "/>
<text text-anchor="middle" x="347" y="-195" font-family="Helvetica,sans-Serif" font-size="10.00"> </text>
<polyline fill="none" stroke="black" points="286,-187 408,-187 "/>
<text text-anchor="start" x="294" y="-174" font-family="Helvetica,sans-Serif" font-size="10.00">+ __construct()</text>
<text text-anchor="start" x="294" y="-161" font-family="Helvetica,sans-Serif" font-size="10.00">+ place()</text>
<text text-anchor="start" x="294" y="-148" font-family="Helvetica,sans-Serif" font-size="10.00">+ getSourceCount()</text>
<text text-anchor="start" x="294" y="-135" font-family="Helvetica,sans-Serif" font-size="10.00">+ checkLava()</text>
<text text-anchor="start" x="294" y="-122" font-family="Helvetica,sans-Serif" font-size="10.00">+ getFrom()</text>
<text text-anchor="start" x="294" y="-109" font-family="Helvetica,sans-Serif" font-size="10.00">+ onUpdate()</text>
</a>
</g>
<!-- Node1&#45;&gt;Node7 -->
<g id="edge12" class="edge"><title>Node1&#45;&gt;Node7</title>
<path fill="none" stroke="midnightblue" d="M244.343,-259.469C255.052,-249.88 266.471,-239.597 277,-230 279.942,-227.319 282.947,-224.569 285.978,-221.787"/>
<polygon fill="none" stroke="midnightblue" points="241.815,-257.034 236.693,-266.308 246.481,-262.252 241.815,-257.034"/>
</g>
<!-- Node2 -->
<g id="node2" class="node"><title>Node2</title>
<a xlink:href="../../d5/d1b/classpocketmine_1_1block_1_1_transparent.html" target="_top" xlink:title="{pocketmine\\block\\Transparent\n||+ __construct()\l}">
<polygon fill="white" stroke="black" points="127,-366.5 127,-429.5 275,-429.5 275,-366.5 127,-366.5"/>
<text text-anchor="middle" x="201" y="-416.5" font-family="Helvetica,sans-Serif" font-size="10.00">pocketmine\block\Transparent</text>
<polyline fill="none" stroke="black" points="127,-408.5 275,-408.5 "/>
<text text-anchor="middle" x="201" y="-395.5" font-family="Helvetica,sans-Serif" font-size="10.00"> </text>
<polyline fill="none" stroke="black" points="127,-387.5 275,-387.5 "/>
<text text-anchor="start" x="135" y="-374.5" font-family="Helvetica,sans-Serif" font-size="10.00">+ __construct()</text>
</a>
</g>
<!-- Node2&#45;&gt;Node1 -->
<g id="edge2" class="edge"><title>Node2&#45;&gt;Node1</title>
<path fill="none" stroke="midnightblue" d="M201,-356.211C201,-347.37 201,-338.177 201,-329.778"/>
<polygon fill="none" stroke="midnightblue" points="197.5,-356.359 201,-366.359 204.5,-356.359 197.5,-356.359"/>
</g>
<!-- Node3 -->
<g id="node4" class="node"><title>Node3</title>
<a xlink:href="../../d0/d81/classpocketmine_1_1block_1_1_generic.html" target="_top" xlink:title="{pocketmine\\block\\Generic\n||+ __construct()\l+ place()\l+ isBreakable()\l+ onBreak()\l+ onUpdate()\l+ onActivate()\l}">
<polygon fill="white" stroke="black" points="136,-467 136,-595 266,-595 266,-467 136,-467"/>
<text text-anchor="middle" x="201" y="-582" font-family="Helvetica,sans-Serif" font-size="10.00">pocketmine\block\Generic</text>
<polyline fill="none" stroke="black" points="136,-574 266,-574 "/>
<text text-anchor="middle" x="201" y="-561" font-family="Helvetica,sans-Serif" font-size="10.00"> </text>
<polyline fill="none" stroke="black" points="136,-553 266,-553 "/>
<text text-anchor="start" x="144" y="-540" font-family="Helvetica,sans-Serif" font-size="10.00">+ __construct()</text>
<text text-anchor="start" x="144" y="-527" font-family="Helvetica,sans-Serif" font-size="10.00">+ place()</text>
<text text-anchor="start" x="144" y="-514" font-family="Helvetica,sans-Serif" font-size="10.00">+ isBreakable()</text>
<text text-anchor="start" x="144" y="-501" font-family="Helvetica,sans-Serif" font-size="10.00">+ onBreak()</text>
<text text-anchor="start" x="144" y="-488" font-family="Helvetica,sans-Serif" font-size="10.00">+ onUpdate()</text>
<text text-anchor="start" x="144" y="-475" font-family="Helvetica,sans-Serif" font-size="10.00">+ onActivate()</text>
</a>
</g>
<!-- Node3&#45;&gt;Node2 -->
<g id="edge4" class="edge"><title>Node3&#45;&gt;Node2</title>
<path fill="none" stroke="midnightblue" d="M201,-456.58C201,-447.171 201,-437.976 201,-429.764"/>
<polygon fill="none" stroke="midnightblue" points="197.5,-456.837 201,-466.837 204.5,-456.837 197.5,-456.837"/>
</g>
<!-- Node4 -->
<g id="node6" class="node"><title>Node4</title>
<a xlink:href="../../d7/d27/classpocketmine_1_1block_1_1_block.html" target="_top" xlink:title="{pocketmine\\block\\Block\n|+ AIR\l+ STONE\l+ GRASS\l+ DIRT\l+ COBBLESTONE\l+ COBBLE\l+ PLANK\l+ PLANKS\l+ WOODEN_PLANK\l+ WOODEN_PLANKS\land 163 more...+ $creative\l+ $list\l# $id\l# $meta\l# $name\l# $breakTime\l# $hardness\l|+ __construct()\l+ getHardness()\l+ getName()\l+ getID()\l+ getDamage()\l+ setDamage()\l+ position()\l+ getDrops()\l+ getBreakTime()\l+ getSide()\land 11 more...+ init()\l+ get()\l}">
<polygon fill="white" stroke="black" points="134,-633 134,-1047 268,-1047 268,-633 134,-633"/>
<text text-anchor="middle" x="201" y="-1034" font-family="Helvetica,sans-Serif" font-size="10.00">pocketmine\block\Block</text>
<polyline fill="none" stroke="black" points="134,-1026 268,-1026 "/>
<text text-anchor="start" x="142" y="-1013" font-family="Helvetica,sans-Serif" font-size="10.00">+ AIR</text>
<text text-anchor="start" x="142" y="-1000" font-family="Helvetica,sans-Serif" font-size="10.00">+ STONE</text>
<text text-anchor="start" x="142" y="-987" font-family="Helvetica,sans-Serif" font-size="10.00">+ GRASS</text>
<text text-anchor="start" x="142" y="-974" font-family="Helvetica,sans-Serif" font-size="10.00">+ DIRT</text>
<text text-anchor="start" x="142" y="-961" font-family="Helvetica,sans-Serif" font-size="10.00">+ COBBLESTONE</text>
<text text-anchor="start" x="142" y="-948" font-family="Helvetica,sans-Serif" font-size="10.00">+ COBBLE</text>
<text text-anchor="start" x="142" y="-935" font-family="Helvetica,sans-Serif" font-size="10.00">+ PLANK</text>
<text text-anchor="start" x="142" y="-922" font-family="Helvetica,sans-Serif" font-size="10.00">+ PLANKS</text>
<text text-anchor="start" x="142" y="-909" font-family="Helvetica,sans-Serif" font-size="10.00">+ WOODEN_PLANK</text>
<text text-anchor="start" x="142" y="-896" font-family="Helvetica,sans-Serif" font-size="10.00">+ WOODEN_PLANKS</text>
<text text-anchor="start" x="142" y="-883" font-family="Helvetica,sans-Serif" font-size="10.00">and 163 more...+ $creative</text>
<text text-anchor="start" x="142" y="-870" font-family="Helvetica,sans-Serif" font-size="10.00">+ $list</text>
<text text-anchor="start" x="142" y="-857" font-family="Helvetica,sans-Serif" font-size="10.00"># $id</text>
<text text-anchor="start" x="142" y="-844" font-family="Helvetica,sans-Serif" font-size="10.00"># $meta</text>
<text text-anchor="start" x="142" y="-831" font-family="Helvetica,sans-Serif" font-size="10.00"># $name</text>
<text text-anchor="start" x="142" y="-818" font-family="Helvetica,sans-Serif" font-size="10.00"># $breakTime</text>
<text text-anchor="start" x="142" y="-805" font-family="Helvetica,sans-Serif" font-size="10.00"># $hardness</text>
<polyline fill="none" stroke="black" points="134,-797 268,-797 "/>
<text text-anchor="start" x="142" y="-784" font-family="Helvetica,sans-Serif" font-size="10.00">+ __construct()</text>
<text text-anchor="start" x="142" y="-771" font-family="Helvetica,sans-Serif" font-size="10.00">+ getHardness()</text>
<text text-anchor="start" x="142" y="-758" font-family="Helvetica,sans-Serif" font-size="10.00">+ getName()</text>
<text text-anchor="start" x="142" y="-745" font-family="Helvetica,sans-Serif" font-size="10.00">+ getID()</text>
<text text-anchor="start" x="142" y="-732" font-family="Helvetica,sans-Serif" font-size="10.00">+ getDamage()</text>
<text text-anchor="start" x="142" y="-719" font-family="Helvetica,sans-Serif" font-size="10.00">+ setDamage()</text>
<text text-anchor="start" x="142" y="-706" font-family="Helvetica,sans-Serif" font-size="10.00">+ position()</text>
<text text-anchor="start" x="142" y="-693" font-family="Helvetica,sans-Serif" font-size="10.00">+ getDrops()</text>
<text text-anchor="start" x="142" y="-680" font-family="Helvetica,sans-Serif" font-size="10.00">+ getBreakTime()</text>
<text text-anchor="start" x="142" y="-667" font-family="Helvetica,sans-Serif" font-size="10.00">+ getSide()</text>
<text text-anchor="start" x="142" y="-654" font-family="Helvetica,sans-Serif" font-size="10.00">and 11 more...+ init()</text>
<text text-anchor="start" x="142" y="-641" font-family="Helvetica,sans-Serif" font-size="10.00">+ get()</text>
</a>
</g>
<!-- Node4&#45;&gt;Node3 -->
<g id="edge6" class="edge"><title>Node4&#45;&gt;Node3</title>
<path fill="none" stroke="midnightblue" d="M201,-622.479C201,-612.889 201,-603.69 201,-595.071"/>
<polygon fill="none" stroke="midnightblue" points="197.5,-622.606 201,-632.606 204.5,-622.606 197.5,-622.606"/>
</g>
<!-- Node8 -->
<g id="node15" class="node"><title>Node8</title>
<a xlink:href="../../db/db0/classpocketmine_1_1block_1_1_still_water.html" target="_top" xlink:title="{pocketmine\\block\\StillWater\n||+ __construct()\l}">
<polygon fill="white" stroke="black" points="277.5,-0.5 277.5,-63.5 416.5,-63.5 416.5,-0.5 277.5,-0.5"/>
<text text-anchor="middle" x="347" y="-50.5" font-family="Helvetica,sans-Serif" font-size="10.00">pocketmine\block\StillWater</text>
<polyline fill="none" stroke="black" points="277.5,-42.5 416.5,-42.5 "/>
<text text-anchor="middle" x="347" y="-29.5" font-family="Helvetica,sans-Serif" font-size="10.00"> </text>
<polyline fill="none" stroke="black" points="277.5,-21.5 416.5,-21.5 "/>
<text text-anchor="start" x="285.5" y="-8.5" font-family="Helvetica,sans-Serif" font-size="10.00">+ __construct()</text>
</a>
</g>
<!-- Node7&#45;&gt;Node8 -->
<g id="edge14" class="edge"><title>Node7&#45;&gt;Node8</title>
<path fill="none" stroke="midnightblue" d="M347,-90.5798C347,-81.1708 347,-71.9763 347,-63.7644"/>
<polygon fill="none" stroke="midnightblue" points="343.5,-90.8374 347,-100.837 350.5,-90.8375 343.5,-90.8374"/>
</g>
</g>
</svg>
        <g id="navigator" transform="translate(0 0)" fill="#404254">
                <rect fill="#f2f5e9" fill-opacity="0.5" stroke="#606060" stroke-width=".5" x="0" y="0" width="60" height="60"/>
                <use id="zoomplus" xlink:href="#zoomPlus" x="17" y="9" onmousedown="handleZoom(evt,'in')"/>
                <use id="zoomminus" xlink:href="#zoomMin" x="42" y="9" onmousedown="handleZoom(evt,'out')"/>
                <use id="reset" xlink:href="#resetDef" x="30" y="36" onmousedown="handleReset()"/>
                <g id="arrowUp" xlink:href="#dirArrow" transform="translate(30 24)" onmousedown="handlePan(0,-1)">
                  <use xlink:href="#rim" fill="#404040">
                        <set attributeName="fill" to="#808080" begin="arrowUp.mouseover" end="arrowUp.mouseout"/>
                  </use>
                  <path fill="none" stroke="white" stroke-width="1.5" d="M0,-3.0v7 M-2.5,-0.5L0,-3.0L2.5,-0.5"/>
                </g>
                <g id="arrowRight" xlink:href="#dirArrow" transform="rotate(90) translate(36 -43)" onmousedown="handlePan(1,0)">
                  <use xlink:href="#rim" fill="#404040">
                        <set attributeName="fill" to="#808080" begin="arrowRight.mouseover" end="arrowRight.mouseout"/>
                  </use>
                  <path fill="none" stroke="white" stroke-width="1.5" d="M0,-3.0v7 M-2.5,-0.5L0,-3.0L2.5,-0.5"/>
                </g>
                <g id="arrowDown" xlink:href="#dirArrow" transform="rotate(180) translate(-30 -48)" onmousedown="handlePan(0,1)">
                  <use xlink:href="#rim" fill="#404040">
                        <set attributeName="fill" to="#808080" begin="arrowDown.mouseover" end="arrowDown.mouseout"/>
                  </use>
                  <path fill="none" stroke="white" stroke-width="1.5" d="M0,-3.0v7 M-2.5,-0.5L0,-3.0L2.5,-0.5"/>
                </g>
                <g id="arrowLeft" xlink:href="#dirArrow" transform="rotate(270) translate(-36 17)" onmousedown="handlePan(-1,0)">
                  <use xlink:href="#rim" fill="#404040">
                        <set attributeName="fill" to="#808080" begin="arrowLeft.mouseover" end="arrowLeft.mouseout"/>
                  </use>
                  <path fill="none" stroke="white" stroke-width="1.5" d="M0,-3.0v7 M-2.5,-0.5L0,-3.0L2.5,-0.5"/>
                </g>
        </g>
</svg>
