<?xml version="1.0" encoding="UTF-8" standalone="no"?>
<!DOCTYPE svg PUBLIC "-//W3C//DTD SVG 1.1//EN"
 "http://www.w3.org/Graphics/SVG/1.1/DTD/svg11.dtd">
<!-- Generated by graphviz version 2.26.3 (20100126.1600)
 -->
<!-- Title: pocketmine\plugin\PluginLogger\alert Pages: 1 -->
<svg width="484pt" height="42pt"
 viewBox="0.00 0.00 484.00 42.00" xmlns="http://www.w3.org/2000/svg" xmlns:xlink="http://www.w3.org/1999/xlink">
<g id="graph1" class="graph" transform="scale(1 1) rotate(0) translate(4 38)">
<title>pocketmine\plugin\PluginLogger\alert</title>
<polygon fill="white" stroke="white" points="-4,5 -4,-38 481,-38 481,5 -4,5"/>
<!-- Node1 -->
<g id="node1" class="node"><title>Node1</title>
<polygon fill="#bfbfbf" stroke="black" points="0.5,-0 0.5,-34 125.5,-34 125.5,-0 0.5,-0"/>
<text text-anchor="start" x="8.5" y="-21" font-family="Helvetica,sans-Serif" font-size="10.00">pocketmine\plugin\Plugin</text>
<text text-anchor="middle" x="63" y="-8" font-family="Helvetica,sans-Serif" font-size="10.00">Logger\alert</text>
</g>
<!-- Node2 -->
<g id="node3" class="node"><title>Node2</title>
<a xlink:href="../../de/dc8/classpocketmine_1_1plugin_1_1_plugin_logger.html#a56f3d1b20f18c5489f7d3b9aa67af62b" target="_top" xlink:title="pocketmine\\plugin\\Plugin\lLogger\\log">
<polygon fill="white" stroke="black" points="162.5,-0 162.5,-34 287.5,-34 287.5,-0 162.5,-0"/>
<text text-anchor="start" x="170.5" y="-21" font-family="Helvetica,sans-Serif" font-size="10.00">pocketmine\plugin\Plugin</text>
<text text-anchor="middle" x="225" y="-8" font-family="Helvetica,sans-Serif" font-size="10.00">Logger\log</text>
</a>
</g>
<!-- Node1&#45;&gt;Node2 -->
<g id="edge2" class="edge"><title>Node1&#45;&gt;Node2</title>
<path fill="none" stroke="midnightblue" d="M125.633,-17C134.273,-17 143.206,-17 152.012,-17"/>
<polygon fill="midnightblue" stroke="midnightblue" points="152.266,-20.5001 162.266,-17 152.266,-13.5001 152.266,-20.5001"/>
</g>
<!-- Node3 -->
<g id="node5" class="node"><title>Node3</title>
<a xlink:href="../../d5/df7/classpocketmine_1_1_server.html#a8d9b9873eb3c7efce048f10f803c2b2e" target="_top" xlink:title="pocketmine\\Server\\getInstance">
<polygon fill="white" stroke="black" points="324,-6.5 324,-27.5 476,-27.5 476,-6.5 324,-6.5"/>
<text text-anchor="middle" x="400" y="-14.5" font-family="Helvetica,sans-Serif" font-size="10.00">pocketmine\Server\getInstance</text>
</a>
</g>
<!-- Node2&#45;&gt;Node3 -->
<g id="edge4" class="edge"><title>Node2&#45;&gt;Node3</title>
<path fill="none" stroke="midnightblue" d="M287.685,-17C296.144,-17 304.94,-17 313.72,-17"/>
<polygon fill="midnightblue" stroke="midnightblue" points="313.998,-20.5001 323.998,-17 313.998,-13.5001 313.998,-20.5001"/>
</g>
</g>
</svg>
