<?xml version="1.0" encoding="UTF-8" standalone="no"?>
<!DOCTYPE svg PUBLIC "-//W3C//DTD SVG 1.1//EN"
 "http://www.w3.org/Graphics/SVG/1.1/DTD/svg11.dtd">
<!-- Generated by graphviz version 2.26.3 (20100126.1600)
 -->
<!-- Title: pocketmine\plugin\PluginLogger\log Pages: 1 -->
<svg width="296pt" height="406pt"
 viewBox="0.00 0.00 296.00 406.00" xmlns="http://www.w3.org/2000/svg" xmlns:xlink="http://www.w3.org/1999/xlink">
<g id="graph1" class="graph" transform="scale(1 1) rotate(0) translate(4 402)">
<title>pocketmine\plugin\PluginLogger\log</title>
<polygon fill="white" stroke="white" points="-4,5 -4,-402 293,-402 293,5 -4,5"/>
<!-- Node1 -->
<g id="node1" class="node"><title>Node1</title>
<polygon fill="#bfbfbf" stroke="black" points="0.5,-182 0.5,-216 125.5,-216 125.5,-182 0.5,-182"/>
<text text-anchor="start" x="8.5" y="-203" font-family="Helvetica,sans-Serif" font-size="10.00">pocketmine\plugin\Plugin</text>
<text text-anchor="middle" x="63" y="-190" font-family="Helvetica,sans-Serif" font-size="10.00">Logger\log</text>
</g>
<!-- Node2 -->
<g id="node3" class="node"><title>Node2</title>
<a xlink:href="../../de/dc8/classpocketmine_1_1plugin_1_1_plugin_logger.html#a72a76e0beb99e268fc057fa26535014c" target="_top" xlink:title="pocketmine\\plugin\\Plugin\lLogger\\alert">
<polygon fill="white" stroke="black" points="162.5,-364 162.5,-398 287.5,-398 287.5,-364 162.5,-364"/>
<text text-anchor="start" x="170.5" y="-385" font-family="Helvetica,sans-Serif" font-size="10.00">pocketmine\plugin\Plugin</text>
<text text-anchor="middle" x="225" y="-372" font-family="Helvetica,sans-Serif" font-size="10.00">Logger\alert</text>
</a>
</g>
<!-- Node1&#45;&gt;Node2 -->
<g id="edge2" class="edge"><title>Node1&#45;&gt;Node2</title>
<path fill="none" stroke="midnightblue" d="M73.7309,-225.544C88.7764,-259.742 119.18,-319.053 162,-355 165.987,-358.347 170.465,-361.312 175.147,-363.927"/>
<polygon fill="midnightblue" stroke="midnightblue" points="76.8821,-224.011 69.7272,-216.197 70.4476,-226.767 76.8821,-224.011"/>
</g>
<!-- Node3 -->
<g id="node5" class="node"><title>Node3</title>
<a xlink:href="../../de/dc8/classpocketmine_1_1plugin_1_1_plugin_logger.html#a313500a7dd45ae488b9d4a32f38482fd" target="_top" xlink:title="pocketmine\\plugin\\Plugin\lLogger\\critical">
<polygon fill="white" stroke="black" points="162.5,-312 162.5,-346 287.5,-346 287.5,-312 162.5,-312"/>
<text text-anchor="start" x="170.5" y="-333" font-family="Helvetica,sans-Serif" font-size="10.00">pocketmine\plugin\Plugin</text>
<text text-anchor="middle" x="225" y="-320" font-family="Helvetica,sans-Serif" font-size="10.00">Logger\critical</text>
</a>
</g>
<!-- Node1&#45;&gt;Node3 -->
<g id="edge4" class="edge"><title>Node1&#45;&gt;Node3</title>
<path fill="none" stroke="midnightblue" d="M81.8815,-224.21C100.229,-247.269 129.949,-281.039 162,-303 166.783,-306.277 172.043,-309.252 177.422,-311.921"/>
<polygon fill="midnightblue" stroke="midnightblue" points="84.5689,-221.965 75.6533,-216.241 79.0534,-226.275 84.5689,-221.965"/>
</g>
<!-- Node4 -->
<g id="node7" class="node"><title>Node4</title>
<a xlink:href="../../de/dc8/classpocketmine_1_1plugin_1_1_plugin_logger.html#aef401cc346061b0d988eadf6359410a4" target="_top" xlink:title="pocketmine\\plugin\\Plugin\lLogger\\debug">
<polygon fill="white" stroke="black" points="162.5,-260 162.5,-294 287.5,-294 287.5,-260 162.5,-260"/>
<text text-anchor="start" x="170.5" y="-281" font-family="Helvetica,sans-Serif" font-size="10.00">pocketmine\plugin\Plugin</text>
<text text-anchor="middle" x="225" y="-268" font-family="Helvetica,sans-Serif" font-size="10.00">Logger\debug</text>
</a>
</g>
<!-- Node1&#45;&gt;Node4 -->
<g id="edge6" class="edge"><title>Node1&#45;&gt;Node4</title>
<path fill="none" stroke="midnightblue" d="M102.843,-221C120.738,-230.602 142.233,-241.754 162,-251 168.431,-254.008 175.308,-257.034 182.068,-259.905"/>
<polygon fill="midnightblue" stroke="midnightblue" points="104.304,-217.812 93.842,-216.139 100.978,-223.971 104.304,-217.812"/>
</g>
<!-- Node5 -->
<g id="node9" class="node"><title>Node5</title>
<a xlink:href="../../de/dc8/classpocketmine_1_1plugin_1_1_plugin_logger.html#aff7e3118aebe7734df9d4f1a98cf6ec0" target="_top" xlink:title="pocketmine\\plugin\\Plugin\lLogger\\emergency">
<polygon fill="white" stroke="black" points="162.5,-208 162.5,-242 287.5,-242 287.5,-208 162.5,-208"/>
<text text-anchor="start" x="170.5" y="-229" font-family="Helvetica,sans-Serif" font-size="10.00">pocketmine\plugin\Plugin</text>
<text text-anchor="middle" x="225" y="-216" font-family="Helvetica,sans-Serif" font-size="10.00">Logger\emergency</text>
</a>
</g>
<!-- Node1&#45;&gt;Node5 -->
<g id="edge8" class="edge"><title>Node1&#45;&gt;Node5</title>
<path fill="none" stroke="midnightblue" d="M135.598,-210.652C144.496,-212.08 153.531,-213.53 162.266,-214.932"/>
<polygon fill="midnightblue" stroke="midnightblue" points="136.062,-207.181 125.633,-209.052 134.952,-214.093 136.062,-207.181"/>
</g>
<!-- Node6 -->
<g id="node11" class="node"><title>Node6</title>
<a xlink:href="../../de/dc8/classpocketmine_1_1plugin_1_1_plugin_logger.html#aa89e176d3ecf02810d8c5909541c6040" target="_top" xlink:title="pocketmine\\plugin\\Plugin\lLogger\\error">
<polygon fill="white" stroke="black" points="162.5,-156 162.5,-190 287.5,-190 287.5,-156 162.5,-156"/>
<text text-anchor="start" x="170.5" y="-177" font-family="Helvetica,sans-Serif" font-size="10.00">pocketmine\plugin\Plugin</text>
<text text-anchor="middle" x="225" y="-164" font-family="Helvetica,sans-Serif" font-size="10.00">Logger\error</text>
</a>
</g>
<!-- Node1&#45;&gt;Node6 -->
<g id="edge10" class="edge"><title>Node1&#45;&gt;Node6</title>
<path fill="none" stroke="midnightblue" d="M135.598,-187.348C144.496,-185.92 153.531,-184.47 162.266,-183.068"/>
<polygon fill="midnightblue" stroke="midnightblue" points="134.952,-183.907 125.633,-188.948 136.062,-190.819 134.952,-183.907"/>
</g>
<!-- Node7 -->
<g id="node13" class="node"><title>Node7</title>
<a xlink:href="../../de/dc8/classpocketmine_1_1plugin_1_1_plugin_logger.html#a1a5a9cdcdd30b5563946c03aaca92588" target="_top" xlink:title="pocketmine\\plugin\\Plugin\lLogger\\info">
<polygon fill="white" stroke="black" points="162.5,-104 162.5,-138 287.5,-138 287.5,-104 162.5,-104"/>
<text text-anchor="start" x="170.5" y="-125" font-family="Helvetica,sans-Serif" font-size="10.00">pocketmine\plugin\Plugin</text>
<text text-anchor="middle" x="225" y="-112" font-family="Helvetica,sans-Serif" font-size="10.00">Logger\info</text>
</a>
</g>
<!-- Node1&#45;&gt;Node7 -->
<g id="edge12" class="edge"><title>Node1&#45;&gt;Node7</title>
<path fill="none" stroke="midnightblue" d="M102.843,-177C120.738,-167.398 142.233,-156.246 162,-147 168.431,-143.992 175.308,-140.966 182.068,-138.095"/>
<polygon fill="midnightblue" stroke="midnightblue" points="100.978,-174.029 93.842,-181.861 104.304,-180.188 100.978,-174.029"/>
</g>
<!-- Node8 -->
<g id="node15" class="node"><title>Node8</title>
<a xlink:href="../../de/dc8/classpocketmine_1_1plugin_1_1_plugin_logger.html#ac805e84a4f25446fbeea8fbf01c6b8fc" target="_top" xlink:title="pocketmine\\plugin\\Plugin\lLogger\\notice">
<polygon fill="white" stroke="black" points="162.5,-52 162.5,-86 287.5,-86 287.5,-52 162.5,-52"/>
<text text-anchor="start" x="170.5" y="-73" font-family="Helvetica,sans-Serif" font-size="10.00">pocketmine\plugin\Plugin</text>
<text text-anchor="middle" x="225" y="-60" font-family="Helvetica,sans-Serif" font-size="10.00">Logger\notice</text>
</a>
</g>
<!-- Node1&#45;&gt;Node8 -->
<g id="edge14" class="edge"><title>Node1&#45;&gt;Node8</title>
<path fill="none" stroke="midnightblue" d="M81.8815,-173.79C100.229,-150.731 129.949,-116.961 162,-95 166.783,-91.7229 172.043,-88.7477 177.422,-86.079"/>
<polygon fill="midnightblue" stroke="midnightblue" points="79.0534,-171.725 75.6533,-181.759 84.5689,-176.035 79.0534,-171.725"/>
</g>
<!-- Node9 -->
<g id="node17" class="node"><title>Node9</title>
<a xlink:href="../../de/dc8/classpocketmine_1_1plugin_1_1_plugin_logger.html#a31b77df0f24d1c3cc8c9d88a755f181d" target="_top" xlink:title="pocketmine\\plugin\\Plugin\lLogger\\warning">
<polygon fill="white" stroke="black" points="162.5,-0 162.5,-34 287.5,-34 287.5,-0 162.5,-0"/>
<text text-anchor="start" x="170.5" y="-21" font-family="Helvetica,sans-Serif" font-size="10.00">pocketmine\plugin\Plugin</text>
<text text-anchor="middle" x="225" y="-8" font-family="Helvetica,sans-Serif" font-size="10.00">Logger\warning</text>
</a>
</g>
<!-- Node1&#45;&gt;Node9 -->
<g id="edge16" class="edge"><title>Node1&#45;&gt;Node9</title>
<path fill="none" stroke="midnightblue" d="M73.7309,-172.456C88.7764,-138.258 119.18,-78.9468 162,-43 165.987,-39.6526 170.465,-36.6878 175.147,-34.073"/>
<polygon fill="midnightblue" stroke="midnightblue" points="70.4476,-171.233 69.7272,-181.803 76.8821,-173.989 70.4476,-171.233"/>
</g>
</g>
</svg>
