<?xml version="1.0" encoding="UTF-8" standalone="no"?>
<!DOCTYPE svg PUBLIC "-//W3C//DTD SVG 1.1//EN"
 "http://www.w3.org/Graphics/SVG/1.1/DTD/svg11.dtd">
<!-- Generated by graphviz version 2.36.0 (20140111.2315)
 -->
<!-- Title: pocketmine\network\protocol\AddEntityPacket Pages: 1 -->
<svg width="146pt" height="596pt"
 viewBox="0.00 0.00 146.00 596.00" xmlns="http://www.w3.org/2000/svg" xmlns:xlink="http://www.w3.org/1999/xlink">
<g id="graph0" class="graph" transform="scale(1 1) rotate(0) translate(4 592)">
<title>pocketmine\network\protocol\AddEntityPacket</title>
<polygon fill="white" stroke="none" points="-4,4 -4,-592 142,-592 142,4 -4,4"/>
<!-- Node1 -->
<g id="node1" class="node"><title>Node1</title>
<polygon fill="#bfbfbf" stroke="black" points="-0.5,-1 -0.5,-201 138.5,-201 138.5,-1 -0.5,-1"/>
<text text-anchor="start" x="7.5" y="-189" font-family="Helvetica,sans-Serif" font-size="10.00">pocketmine\network</text>
<text text-anchor="middle" x="69" y="-178" font-family="Helvetica,sans-Serif" font-size="10.00">\protocol\AddEntityPacket</text>
<polyline fill="none" stroke="black" points="-0.5,-171 138.5,-171 "/>
<text text-anchor="start" x="7.5" y="-159" font-family="Helvetica,sans-Serif" font-size="10.00">+ $eid</text>
<text text-anchor="start" x="7.5" y="-148" font-family="Helvetica,sans-Serif" font-size="10.00">+ $type</text>
<text text-anchor="start" x="7.5" y="-137" font-family="Helvetica,sans-Serif" font-size="10.00">+ $x</text>
<text text-anchor="start" x="7.5" y="-126" font-family="Helvetica,sans-Serif" font-size="10.00">+ $y</text>
<text text-anchor="start" x="7.5" y="-115" font-family="Helvetica,sans-Serif" font-size="10.00">+ $z</text>
<text text-anchor="start" x="7.5" y="-104" font-family="Helvetica,sans-Serif" font-size="10.00">+ $did</text>
<text text-anchor="start" x="7.5" y="-93" font-family="Helvetica,sans-Serif" font-size="10.00">+ $speedX</text>
<text text-anchor="start" x="7.5" y="-82" font-family="Helvetica,sans-Serif" font-size="10.00">+ $speedY</text>
<text text-anchor="start" x="7.5" y="-71" font-family="Helvetica,sans-Serif" font-size="10.00">+ $speedZ</text>
<text text-anchor="start" x="7.5" y="-60" font-family="Helvetica,sans-Serif" font-size="10.00">+ $pool</text>
<text text-anchor="start" x="7.5" y="-49" font-family="Helvetica,sans-Serif" font-size="10.00">+ $next</text>
<polyline fill="none" stroke="black" points="-0.5,-42 138.5,-42 "/>
<text text-anchor="start" x="7.5" y="-30" font-family="Helvetica,sans-Serif" font-size="10.00">+ pid()</text>
<text text-anchor="start" x="7.5" y="-19" font-family="Helvetica,sans-Serif" font-size="10.00">+ decode()</text>
<text text-anchor="start" x="7.5" y="-8" font-family="Helvetica,sans-Serif" font-size="10.00">+ encode()</text>
</g>
<!-- Node2 -->
<g id="node2" class="node"><title>Node2</title>
<g id="a_node2"><a xlink:href="../../d0/d90/classpocketmine_1_1network_1_1protocol_1_1_data_packet.html" target="_top" xlink:title="{pocketmine\\network\l\\protocol\\DataPacket\n|+ $buffer\l+ $isEncoded\l|+ pid()\l+ encode()\l+ decode()\l+ setBuffer()\l+ getBuffer()\l+ clean()\l# reset()\l# get()\l# put()\l# getLong()\l# putLong()\l# getInt()\l# putInt()\l# getShort()\l# putShort()\l# getFloat()\land 14 more...\l}">
<polygon fill="white" stroke="black" points="11,-238.5 11,-493.5 127,-493.5 127,-238.5 11,-238.5"/>
<text text-anchor="start" x="19" y="-481.5" font-family="Helvetica,sans-Serif" font-size="10.00">pocketmine\network</text>
<text text-anchor="middle" x="69" y="-470.5" font-family="Helvetica,sans-Serif" font-size="10.00">\protocol\DataPacket</text>
<polyline fill="none" stroke="black" points="11,-463.5 127,-463.5 "/>
<text text-anchor="start" x="19" y="-451.5" font-family="Helvetica,sans-Serif" font-size="10.00">+ $buffer</text>
<text text-anchor="start" x="19" y="-440.5" font-family="Helvetica,sans-Serif" font-size="10.00">+ $isEncoded</text>
<polyline fill="none" stroke="black" points="11,-433.5 127,-433.5 "/>
<text text-anchor="start" x="19" y="-421.5" font-family="Helvetica,sans-Serif" font-size="10.00">+ pid()</text>
<text text-anchor="start" x="19" y="-410.5" font-family="Helvetica,sans-Serif" font-size="10.00">+ encode()</text>
<text text-anchor="start" x="19" y="-399.5" font-family="Helvetica,sans-Serif" font-size="10.00">+ decode()</text>
<text text-anchor="start" x="19" y="-388.5" font-family="Helvetica,sans-Serif" font-size="10.00">+ setBuffer()</text>
<text text-anchor="start" x="19" y="-377.5" font-family="Helvetica,sans-Serif" font-size="10.00">+ getBuffer()</text>
<text text-anchor="start" x="19" y="-366.5" font-family="Helvetica,sans-Serif" font-size="10.00">+ clean()</text>
<text text-anchor="start" x="19" y="-355.5" font-family="Helvetica,sans-Serif" font-size="10.00"># reset()</text>
<text text-anchor="start" x="19" y="-344.5" font-family="Helvetica,sans-Serif" font-size="10.00"># get()</text>
<text text-anchor="start" x="19" y="-333.5" font-family="Helvetica,sans-Serif" font-size="10.00"># put()</text>
<text text-anchor="start" x="19" y="-322.5" font-family="Helvetica,sans-Serif" font-size="10.00"># getLong()</text>
<text text-anchor="start" x="19" y="-311.5" font-family="Helvetica,sans-Serif" font-size="10.00"># putLong()</text>
<text text-anchor="start" x="19" y="-300.5" font-family="Helvetica,sans-Serif" font-size="10.00"># getInt()</text>
<text text-anchor="start" x="19" y="-289.5" font-family="Helvetica,sans-Serif" font-size="10.00"># putInt()</text>
<text text-anchor="start" x="19" y="-278.5" font-family="Helvetica,sans-Serif" font-size="10.00"># getShort()</text>
<text text-anchor="start" x="19" y="-267.5" font-family="Helvetica,sans-Serif" font-size="10.00"># putShort()</text>
<text text-anchor="start" x="19" y="-256.5" font-family="Helvetica,sans-Serif" font-size="10.00"># getFloat()</text>
<text text-anchor="start" x="19" y="-245.5" font-family="Helvetica,sans-Serif" font-size="10.00">and 14 more...</text>
</a>
</g>
</g>
<!-- Node2&#45;&gt;Node1 -->
<g id="edge1" class="edge"><title>Node2&#45;&gt;Node1</title>
<path fill="none" stroke="midnightblue" d="M69,-227.99C69,-219.021 69,-210.086 69,-201.353"/>
<polygon fill="none" stroke="midnightblue" points="65.5001,-228.122 69,-238.122 72.5001,-228.122 65.5001,-228.122"/>
</g>
<!-- Node3 -->
<g id="node3" class="node"><title>Node3</title>
<polygon fill="white" stroke="#bfbfbf" points="40.5,-530.5 40.5,-587.5 97.5,-587.5 97.5,-530.5 40.5,-530.5"/>
<text text-anchor="middle" x="69" y="-575.5" font-family="Helvetica,sans-Serif" font-size="10.00">stdClass</text>
<polyline fill="none" stroke="#bfbfbf" points="40.5,-568.5 97.5,-568.5 "/>
<text text-anchor="middle" x="69" y="-556.5" font-family="Helvetica,sans-Serif" font-size="10.00"> </text>
<polyline fill="none" stroke="#bfbfbf" points="40.5,-549.5 97.5,-549.5 "/>
<text text-anchor="middle" x="69" y="-537.5" font-family="Helvetica,sans-Serif" font-size="10.00"> </text>
</g>
<!-- Node3&#45;&gt;Node2 -->
<g id="edge2" class="edge"><title>Node3&#45;&gt;Node2</title>
<path fill="none" stroke="midnightblue" d="M69,-520.196C69,-512.157 69,-503.246 69,-493.881"/>
<polygon fill="none" stroke="midnightblue" points="65.5001,-520.227 69,-530.227 72.5001,-520.227 65.5001,-520.227"/>
</g>
</g>
</svg>
