<?xml version="1.0" encoding="UTF-8" standalone="no"?>
<!DOCTYPE svg PUBLIC "-//W3C//DTD SVG 1.1//EN"
 "http://www.w3.org/Graphics/SVG/1.1/DTD/svg11.dtd">
<!-- Generated by graphviz version 2.26.3 (20100126.1600)
 -->
<!-- Title: pocketmine\network\protocol\AddEntityPacket Pages: 1 -->
<svg width="138pt" height="624pt"
 viewBox="0.00 0.00 138.00 624.00" xmlns="http://www.w3.org/2000/svg" xmlns:xlink="http://www.w3.org/1999/xlink">
<g id="graph1" class="graph" transform="scale(1 1) rotate(0) translate(4 620)">
<title>pocketmine\network\protocol\AddEntityPacket</title>
<polygon fill="white" stroke="white" points="-4,5 -4,-620 135,-620 135,5 -4,5"/>
<!-- Node1 -->
<g id="node1" class="node"><title>Node1</title>
<polygon fill="#bfbfbf" stroke="black" points="-0.5,-1 -0.5,-207 130.5,-207 130.5,-1 -0.5,-1"/>
<text text-anchor="start" x="7.5" y="-194" font-family="Helvetica,sans-Serif" font-size="10.00">pocketmine\network</text>
<text text-anchor="middle" x="65" y="-181" font-family="Helvetica,sans-Serif" font-size="10.00">\protocol\AddEntityPacket</text>
<polyline fill="none" stroke="black" points="-0.5,-173 130.5,-173 "/>
<text text-anchor="start" x="7.5" y="-160" font-family="Helvetica,sans-Serif" font-size="10.00">+ $eid</text>
<text text-anchor="start" x="7.5" y="-147" font-family="Helvetica,sans-Serif" font-size="10.00">+ $type</text>
<text text-anchor="start" x="7.5" y="-134" font-family="Helvetica,sans-Serif" font-size="10.00">+ $x</text>
<text text-anchor="start" x="7.5" y="-121" font-family="Helvetica,sans-Serif" font-size="10.00">+ $y</text>
<text text-anchor="start" x="7.5" y="-108" font-family="Helvetica,sans-Serif" font-size="10.00">+ $z</text>
<text text-anchor="start" x="7.5" y="-95" font-family="Helvetica,sans-Serif" font-size="10.00">+ $did</text>
<text text-anchor="start" x="7.5" y="-82" font-family="Helvetica,sans-Serif" font-size="10.00">+ $speedX</text>
<text text-anchor="start" x="7.5" y="-69" font-family="Helvetica,sans-Serif" font-size="10.00">+ $speedY</text>
<text text-anchor="start" x="7.5" y="-56" font-family="Helvetica,sans-Serif" font-size="10.00">+ $speedZ</text>
<polyline fill="none" stroke="black" points="-0.5,-48 130.5,-48 "/>
<text text-anchor="start" x="7.5" y="-35" font-family="Helvetica,sans-Serif" font-size="10.00">+ pid()</text>
<text text-anchor="start" x="7.5" y="-22" font-family="Helvetica,sans-Serif" font-size="10.00">+ decode()</text>
<text text-anchor="start" x="7.5" y="-9" font-family="Helvetica,sans-Serif" font-size="10.00">+ encode()</text>
</g>
<!-- Node2 -->
<g id="node2" class="node"><title>Node2</title>
<a xlink:href="../../d0/d90/classpocketmine_1_1network_1_1protocol_1_1_data_packet.html" target="_top" xlink:title="{pocketmine\\network\l\\protocol\\DataPacket\n|+ $buffer\l|+ pid()\l+ encode()\l+ decode()\l+ setBuffer()\l+ getBuffer()\l# reset()\l# get()\l# put()\l# getLong()\l# putLong()\l# getInt()\l# putInt()\l# getShort()\l# putShort()\l# getFloat()\land 14 more...\l}">
<polygon fill="white" stroke="black" points="10.5,-244.5 10.5,-515.5 119.5,-515.5 119.5,-244.5 10.5,-244.5"/>
<text text-anchor="start" x="18.5" y="-502.5" font-family="Helvetica,sans-Serif" font-size="10.00">pocketmine\network</text>
<text text-anchor="middle" x="65" y="-489.5" font-family="Helvetica,sans-Serif" font-size="10.00">\protocol\DataPacket</text>
<polyline fill="none" stroke="black" points="10.5,-481.5 119.5,-481.5 "/>
<text text-anchor="start" x="18.5" y="-468.5" font-family="Helvetica,sans-Serif" font-size="10.00">+ $buffer</text>
<polyline fill="none" stroke="black" points="10.5,-460.5 119.5,-460.5 "/>
<text text-anchor="start" x="18.5" y="-447.5" font-family="Helvetica,sans-Serif" font-size="10.00">+ pid()</text>
<text text-anchor="start" x="18.5" y="-434.5" font-family="Helvetica,sans-Serif" font-size="10.00">+ encode()</text>
<text text-anchor="start" x="18.5" y="-421.5" font-family="Helvetica,sans-Serif" font-size="10.00">+ decode()</text>
<text text-anchor="start" x="18.5" y="-408.5" font-family="Helvetica,sans-Serif" font-size="10.00">+ setBuffer()</text>
<text text-anchor="start" x="18.5" y="-395.5" font-family="Helvetica,sans-Serif" font-size="10.00">+ getBuffer()</text>
<text text-anchor="start" x="18.5" y="-382.5" font-family="Helvetica,sans-Serif" font-size="10.00"># reset()</text>
<text text-anchor="start" x="18.5" y="-369.5" font-family="Helvetica,sans-Serif" font-size="10.00"># get()</text>
<text text-anchor="start" x="18.5" y="-356.5" font-family="Helvetica,sans-Serif" font-size="10.00"># put()</text>
<text text-anchor="start" x="18.5" y="-343.5" font-family="Helvetica,sans-Serif" font-size="10.00"># getLong()</text>
<text text-anchor="start" x="18.5" y="-330.5" font-family="Helvetica,sans-Serif" font-size="10.00"># putLong()</text>
<text text-anchor="start" x="18.5" y="-317.5" font-family="Helvetica,sans-Serif" font-size="10.00"># getInt()</text>
<text text-anchor="start" x="18.5" y="-304.5" font-family="Helvetica,sans-Serif" font-size="10.00"># putInt()</text>
<text text-anchor="start" x="18.5" y="-291.5" font-family="Helvetica,sans-Serif" font-size="10.00"># getShort()</text>
<text text-anchor="start" x="18.5" y="-278.5" font-family="Helvetica,sans-Serif" font-size="10.00"># putShort()</text>
<text text-anchor="start" x="18.5" y="-265.5" font-family="Helvetica,sans-Serif" font-size="10.00"># getFloat()</text>
<text text-anchor="start" x="18.5" y="-252.5" font-family="Helvetica,sans-Serif" font-size="10.00">and 14 more...</text>
</a>
</g>
<!-- Node2&#45;&gt;Node1 -->
<g id="edge2" class="edge"><title>Node2&#45;&gt;Node1</title>
<path fill="none" stroke="midnightblue" d="M65,-234.14C65,-225.039 65,-215.984 65,-207.134"/>
<polygon fill="none" stroke="midnightblue" points="61.5001,-234.426 65,-244.426 68.5001,-234.426 61.5001,-234.426"/>
</g>
<!-- Node3 -->
<g id="node4" class="node"><title>Node3</title>
<polygon fill="white" stroke="#bfbfbf" points="37,-552.5 37,-615.5 93,-615.5 93,-552.5 37,-552.5"/>
<text text-anchor="middle" x="65" y="-602.5" font-family="Helvetica,sans-Serif" font-size="10.00">stdClass</text>
<polyline fill="none" stroke="#bfbfbf" points="37,-594.5 93,-594.5 "/>
<text text-anchor="middle" x="65" y="-581.5" font-family="Helvetica,sans-Serif" font-size="10.00"> </text>
<polyline fill="none" stroke="#bfbfbf" points="37,-573.5 93,-573.5 "/>
<text text-anchor="middle" x="65" y="-560.5" font-family="Helvetica,sans-Serif" font-size="10.00"> </text>
</g>
<!-- Node3&#45;&gt;Node2 -->
<g id="edge4" class="edge"><title>Node3&#45;&gt;Node2</title>
<path fill="none" stroke="midnightblue" d="M65,-541.988C65,-533.913 65,-525.06 65,-515.787"/>
<polygon fill="none" stroke="midnightblue" points="61.5001,-542.125 65,-552.125 68.5001,-542.125 61.5001,-542.125"/>
</g>
</g>
</svg>
