<?xml version="1.0" encoding="UTF-8" standalone="no"?>
<!DOCTYPE svg PUBLIC "-//W3C//DTD SVG 1.1//EN"
 "http://www.w3.org/Graphics/SVG/1.1/DTD/svg11.dtd">
<!-- Generated by graphviz version 2.26.3 (20100126.1600)
 -->
<!-- Title: G Pages: 1 -->
<svg width="184pt" height="382pt"
 viewBox="0.00 0.00 184.00 382.00" xmlns="http://www.w3.org/2000/svg" xmlns:xlink="http://www.w3.org/1999/xlink">
<g id="graph1" class="graph" transform="scale(1 1) rotate(0) translate(4 378)">
<title>G</title>
<polygon fill="white" stroke="white" points="-4,5 -4,-378 181,-378 181,5 -4,5"/>
<!-- Node1 -->
<g id="node1" class="node"><title>Node1</title>
<polygon fill="#bfbfbf" stroke="black" points="0,-245 0,-373 176,-373 176,-245 0,-245"/>
<text text-anchor="middle" x="88" y="-360" font-family="Helvetica,sans-Serif" font-size="10.00">pocketmine\network\SourceInterface</text>
<polyline fill="none" stroke="black" points="0,-352 176,-352 "/>
<text text-anchor="middle" x="88" y="-339" font-family="Helvetica,sans-Serif" font-size="10.00"> </text>
<polyline fill="none" stroke="black" points="0,-331 176,-331 "/>
<text text-anchor="start" x="8" y="-318" font-family="Helvetica,sans-Serif" font-size="10.00">+ putPacket()</text>
<text text-anchor="start" x="8" y="-305" font-family="Helvetica,sans-Serif" font-size="10.00">+ close()</text>
<text text-anchor="start" x="8" y="-292" font-family="Helvetica,sans-Serif" font-size="10.00">+ setName()</text>
<text text-anchor="start" x="8" y="-279" font-family="Helvetica,sans-Serif" font-size="10.00">+ process()</text>
<text text-anchor="start" x="8" y="-266" font-family="Helvetica,sans-Serif" font-size="10.00">+ shutdown()</text>
<text text-anchor="start" x="8" y="-253" font-family="Helvetica,sans-Serif" font-size="10.00">+ emergencyShutdown()</text>
</g>
<!-- Node2 -->
<g id="node3" class="node"><title>Node2</title>
<a xlink:href="../../db/dd5/classpocketmine_1_1network_1_1_rak_lib_interface.html" target="_top" xlink:title="{pocketmine\\network\\RakLibInterface\n||+ __construct()\l+ process()\l+ closeSession()\l+ close()\l+ shutdown()\l+ emergencyShutdown()\l+ openSession()\l+ handleEncapsulated()\l+ notifyACK()\l+ setName()\l+ handleOption()\l+ putPacket()\l}">
<polygon fill="white" stroke="black" points="0,-1 0,-207 176,-207 176,-1 0,-1"/>
<text text-anchor="middle" x="88" y="-194" font-family="Helvetica,sans-Serif" font-size="10.00">pocketmine\network\RakLibInterface</text>
<polyline fill="none" stroke="black" points="0,-186 176,-186 "/>
<text text-anchor="middle" x="88" y="-173" font-family="Helvetica,sans-Serif" font-size="10.00"> </text>
<polyline fill="none" stroke="black" points="0,-165 176,-165 "/>
<text text-anchor="start" x="8" y="-152" font-family="Helvetica,sans-Serif" font-size="10.00">+ __construct()</text>
<text text-anchor="start" x="8" y="-139" font-family="Helvetica,sans-Serif" font-size="10.00">+ process()</text>
<text text-anchor="start" x="8" y="-126" font-family="Helvetica,sans-Serif" font-size="10.00">+ closeSession()</text>
<text text-anchor="start" x="8" y="-113" font-family="Helvetica,sans-Serif" font-size="10.00">+ close()</text>
<text text-anchor="start" x="8" y="-100" font-family="Helvetica,sans-Serif" font-size="10.00">+ shutdown()</text>
<text text-anchor="start" x="8" y="-87" font-family="Helvetica,sans-Serif" font-size="10.00">+ emergencyShutdown()</text>
<text text-anchor="start" x="8" y="-74" font-family="Helvetica,sans-Serif" font-size="10.00">+ openSession()</text>
<text text-anchor="start" x="8" y="-61" font-family="Helvetica,sans-Serif" font-size="10.00">+ handleEncapsulated()</text>
<text text-anchor="start" x="8" y="-48" font-family="Helvetica,sans-Serif" font-size="10.00">+ notifyACK()</text>
<text text-anchor="start" x="8" y="-35" font-family="Helvetica,sans-Serif" font-size="10.00">+ setName()</text>
<text text-anchor="start" x="8" y="-22" font-family="Helvetica,sans-Serif" font-size="10.00">+ handleOption()</text>
<text text-anchor="start" x="8" y="-9" font-family="Helvetica,sans-Serif" font-size="10.00">+ putPacket()</text>
</a>
</g>
<!-- Node1&#45;&gt;Node2 -->
<g id="edge2" class="edge"><title>Node1&#45;&gt;Node2</title>
<path fill="none" stroke="midnightblue" d="M88,-234.692C88,-225.794 88,-216.587 88,-207.372"/>
<polygon fill="none" stroke="midnightblue" points="84.5001,-234.98 88,-244.98 91.5001,-234.98 84.5001,-234.98"/>
</g>
</g>
</svg>
