<?xml version="1.0" encoding="UTF-8" standalone="no"?>
<!DOCTYPE svg PUBLIC "-//W3C//DTD SVG 1.1//EN"
 "http://www.w3.org/Graphics/SVG/1.1/DTD/svg11.dtd">
<!-- Generated by graphviz version 2.26.3 (20100126.1600)
 -->
<!-- Title: pocketmine\event\player\PlayerChatEvent Pages: 1 -->
<!--zoomable 470 -->
<svg id="main" version="1.1" xmlns="http://www.w3.org/2000/svg" xmlns:xlink="http://www.w3.org/1999/xlink" xml:space="preserve" onload="init(evt)">
<style type="text/css"><![CDATA[
.edge:hover path { stroke: red; }
.edge:hover polygon { stroke: red; fill: red; }
]]></style>
<script type="text/javascript"><![CDATA[
var edges = document.getElementsByTagName('g');
if (edges && edges.length) {
  for (var i=0;i<edges.length;i++) {
    if (edges[i].id.substr(0,4)=='edge') {
      edges[i].setAttribute('class','edge');
    }
  }
}
]]></script>
        <defs>
                <circle id="rim" cx="0" cy="0" r="7"/>
                <circle id="rim2" cx="0" cy="0" r="3.5"/>
                <g id="zoomPlus">
                        <use xlink:href="#rim" fill="#404040">
                                <set attributeName="fill" to="#808080" begin="zoomplus.mouseover" end="zoomplus.mouseout"/>
                        </use>
                        <path d="M-4,0h8M0,-4v8" fill="none" stroke="white" stroke-width="1.5" pointer-events="none"/>
                </g>
                <g id="zoomMin">
                        <use xlink:href="#rim" fill="#404040">
                                <set attributeName="fill" to="#808080" begin="zoomminus.mouseover" end="zoomminus.mouseout"/>
                        </use>
                        <path d="M-4,0h8" fill="none" stroke="white" stroke-width="1.5" pointer-events="none"/>
                </g>
                <g id="dirArrow">
                        <path fill="none" stroke="white" stroke-width="1.5" d="M0,-3.0v7 M-2.5,-0.5L0,-3.0L2.5,-0.5"/>
                </g>
               <g id="resetDef">
                       <use xlink:href="#rim2" fill="#404040">
                               <set attributeName="fill" to="#808080" begin="reset.mouseover" end="reset.mouseout"/>
                       </use>
               </g>
        </defs>

<script type="text/javascript">
var viewWidth = 296;
var viewHeight = 470;
var sectionId = 'dynsection-1';
</script>
<script xlink:href="../../svgpan.js"/>
<svg id="graph" class="graph">
<g id="viewport">
<title>pocketmine\event\player\PlayerChatEvent</title>
<polygon fill="white" stroke="white" points="-4,5 -4,-466 293,-466 293,5 -4,5"/>
<!-- Node1 -->
<g id="node1" class="node"><title>Node1</title>
<polygon fill="#bfbfbf" stroke="black" points="75.5,-1 75.5,-207 198.5,-207 198.5,-1 75.5,-1"/>
<text text-anchor="start" x="83.5" y="-194" font-family="Helvetica,sans-Serif" font-size="10.00">pocketmine\event\player</text>
<text text-anchor="middle" x="137" y="-181" font-family="Helvetica,sans-Serif" font-size="10.00">\PlayerChatEvent</text>
<polyline fill="none" stroke="black" points="75.5,-173 198.5,-173 "/>
<text text-anchor="start" x="83.5" y="-160" font-family="Helvetica,sans-Serif" font-size="10.00">+ $handlerList</text>
<text text-anchor="start" x="83.5" y="-147" font-family="Helvetica,sans-Serif" font-size="10.00"># $message</text>
<text text-anchor="start" x="83.5" y="-134" font-family="Helvetica,sans-Serif" font-size="10.00"># $format</text>
<text text-anchor="start" x="83.5" y="-121" font-family="Helvetica,sans-Serif" font-size="10.00"># $recipients</text>
<polyline fill="none" stroke="black" points="75.5,-113 198.5,-113 "/>
<text text-anchor="start" x="83.5" y="-100" font-family="Helvetica,sans-Serif" font-size="10.00">+ __construct()</text>
<text text-anchor="start" x="83.5" y="-87" font-family="Helvetica,sans-Serif" font-size="10.00">+ getMessage()</text>
<text text-anchor="start" x="83.5" y="-74" font-family="Helvetica,sans-Serif" font-size="10.00">+ setMessage()</text>
<text text-anchor="start" x="83.5" y="-61" font-family="Helvetica,sans-Serif" font-size="10.00">+ setPlayer()</text>
<text text-anchor="start" x="83.5" y="-48" font-family="Helvetica,sans-Serif" font-size="10.00">+ getFormat()</text>
<text text-anchor="start" x="83.5" y="-35" font-family="Helvetica,sans-Serif" font-size="10.00">+ setFormat()</text>
<text text-anchor="start" x="83.5" y="-22" font-family="Helvetica,sans-Serif" font-size="10.00">+ getRecipients()</text>
<text text-anchor="start" x="83.5" y="-9" font-family="Helvetica,sans-Serif" font-size="10.00">+ setRecipients()</text>
</g>
<!-- Node2 -->
<g id="node2" class="node"><title>Node2</title>
<a xlink:href="../../d1/db1/classpocketmine_1_1event_1_1player_1_1_player_event.html" target="_top" xlink:title="{pocketmine\\event\\player\l\\PlayerEvent\n|# $player\l|+ getPlayer()\l}">
<polygon fill="white" stroke="black" points="-0.5,-245 -0.5,-321 122.5,-321 122.5,-245 -0.5,-245"/>
<text text-anchor="start" x="7.5" y="-308" font-family="Helvetica,sans-Serif" font-size="10.00">pocketmine\event\player</text>
<text text-anchor="middle" x="61" y="-295" font-family="Helvetica,sans-Serif" font-size="10.00">\PlayerEvent</text>
<polyline fill="none" stroke="black" points="-0.5,-287 122.5,-287 "/>
<text text-anchor="start" x="7.5" y="-274" font-family="Helvetica,sans-Serif" font-size="10.00"># $player</text>
<polyline fill="none" stroke="black" points="-0.5,-266 122.5,-266 "/>
<text text-anchor="start" x="7.5" y="-253" font-family="Helvetica,sans-Serif" font-size="10.00">+ getPlayer()</text>
</a>
</g>
<!-- Node2&#45;&gt;Node1 -->
<g id="edge2" class="edge"><title>Node2&#45;&gt;Node1</title>
<path fill="none" stroke="midnightblue" d="M81.2642,-235.272C85.0314,-226.4 89.0983,-216.821 93.2592,-207.021"/>
<polygon fill="none" stroke="midnightblue" points="77.9905,-234.027 77.3039,-244.6 84.4338,-236.763 77.9905,-234.027"/>
</g>
<!-- Node3 -->
<g id="node4" class="node"><title>Node3</title>
<a xlink:href="../../d1/d2f/classpocketmine_1_1event_1_1_event.html" target="_top" xlink:title="{pocketmine\\event\\Event\n|# $eventName\l|+ getEventName()\l+ isCancelled()\l+ setCancelled()\l+ getHandlers()\l}">
<polygon fill="white" stroke="black" points="0,-359 0,-461 122,-461 122,-359 0,-359"/>
<text text-anchor="middle" x="61" y="-448" font-family="Helvetica,sans-Serif" font-size="10.00">pocketmine\event\Event</text>
<polyline fill="none" stroke="black" points="0,-440 122,-440 "/>
<text text-anchor="start" x="8" y="-427" font-family="Helvetica,sans-Serif" font-size="10.00"># $eventName</text>
<polyline fill="none" stroke="black" points="0,-419 122,-419 "/>
<text text-anchor="start" x="8" y="-406" font-family="Helvetica,sans-Serif" font-size="10.00">+ getEventName()</text>
<text text-anchor="start" x="8" y="-393" font-family="Helvetica,sans-Serif" font-size="10.00">+ isCancelled()</text>
<text text-anchor="start" x="8" y="-380" font-family="Helvetica,sans-Serif" font-size="10.00">+ setCancelled()</text>
<text text-anchor="start" x="8" y="-367" font-family="Helvetica,sans-Serif" font-size="10.00">+ getHandlers()</text>
</a>
</g>
<!-- Node3&#45;&gt;Node2 -->
<g id="edge4" class="edge"><title>Node3&#45;&gt;Node2</title>
<path fill="none" stroke="midnightblue" d="M61,-348.625C61,-339.273 61,-329.859 61,-321.197"/>
<polygon fill="none" stroke="midnightblue" points="57.5001,-348.71 61,-358.71 64.5001,-348.71 57.5001,-348.71"/>
</g>
<!-- Node4 -->
<g id="node6" class="node"><title>Node4</title>
<a xlink:href="../../db/d62/interfacepocketmine_1_1event_1_1_cancellable.html" target="_top" xlink:title="{pocketmine\\event\\Cancellable\n||+ isCancelled()\l+ setCancelled()\l}">
<polygon fill="white" stroke="black" points="140,-245 140,-321 288,-321 288,-245 140,-245"/>
<text text-anchor="middle" x="214" y="-308" font-family="Helvetica,sans-Serif" font-size="10.00">pocketmine\event\Cancellable</text>
<polyline fill="none" stroke="black" points="140,-300 288,-300 "/>
<text text-anchor="middle" x="214" y="-287" font-family="Helvetica,sans-Serif" font-size="10.00"> </text>
<polyline fill="none" stroke="black" points="140,-279 288,-279 "/>
<text text-anchor="start" x="148" y="-266" font-family="Helvetica,sans-Serif" font-size="10.00">+ isCancelled()</text>
<text text-anchor="start" x="148" y="-253" font-family="Helvetica,sans-Serif" font-size="10.00">+ setCancelled()</text>
</a>
</g>
<!-- Node4&#45;&gt;Node1 -->
<g id="edge6" class="edge"><title>Node4&#45;&gt;Node1</title>
<path fill="none" stroke="midnightblue" d="M193.469,-235.272C189.652,-226.4 185.532,-216.821 181.316,-207.021"/>
<polygon fill="none" stroke="midnightblue" points="190.315,-236.797 197.482,-244.6 196.745,-234.031 190.315,-236.797"/>
</g>
</g>
</svg>
        <g id="navigator" transform="translate(0 0)" fill="#404254">
                <rect fill="#f2f5e9" fill-opacity="0.5" stroke="#606060" stroke-width=".5" x="0" y="0" width="60" height="60"/>
                <use id="zoomplus" xlink:href="#zoomPlus" x="17" y="9" onmousedown="handleZoom(evt,'in')"/>
                <use id="zoomminus" xlink:href="#zoomMin" x="42" y="9" onmousedown="handleZoom(evt,'out')"/>
                <use id="reset" xlink:href="#resetDef" x="30" y="36" onmousedown="handleReset()"/>
                <g id="arrowUp" xlink:href="#dirArrow" transform="translate(30 24)" onmousedown="handlePan(0,-1)">
                  <use xlink:href="#rim" fill="#404040">
                        <set attributeName="fill" to="#808080" begin="arrowUp.mouseover" end="arrowUp.mouseout"/>
                  </use>
                  <path fill="none" stroke="white" stroke-width="1.5" d="M0,-3.0v7 M-2.5,-0.5L0,-3.0L2.5,-0.5"/>
                </g>
                <g id="arrowRight" xlink:href="#dirArrow" transform="rotate(90) translate(36 -43)" onmousedown="handlePan(1,0)">
                  <use xlink:href="#rim" fill="#404040">
                        <set attributeName="fill" to="#808080" begin="arrowRight.mouseover" end="arrowRight.mouseout"/>
                  </use>
                  <path fill="none" stroke="white" stroke-width="1.5" d="M0,-3.0v7 M-2.5,-0.5L0,-3.0L2.5,-0.5"/>
                </g>
                <g id="arrowDown" xlink:href="#dirArrow" transform="rotate(180) translate(-30 -48)" onmousedown="handlePan(0,1)">
                  <use xlink:href="#rim" fill="#404040">
                        <set attributeName="fill" to="#808080" begin="arrowDown.mouseover" end="arrowDown.mouseout"/>
                  </use>
                  <path fill="none" stroke="white" stroke-width="1.5" d="M0,-3.0v7 M-2.5,-0.5L0,-3.0L2.5,-0.5"/>
                </g>
                <g id="arrowLeft" xlink:href="#dirArrow" transform="rotate(270) translate(-36 17)" onmousedown="handlePan(-1,0)">
                  <use xlink:href="#rim" fill="#404040">
                        <set attributeName="fill" to="#808080" begin="arrowLeft.mouseover" end="arrowLeft.mouseout"/>
                  </use>
                  <path fill="none" stroke="white" stroke-width="1.5" d="M0,-3.0v7 M-2.5,-0.5L0,-3.0L2.5,-0.5"/>
                </g>
        </g>
        <svg viewBox="0 0 15 15" width="100%" height="30px" preserveAspectRatio="xMaxYMin meet">
         <g id="arrow_out" transform="scale(0.3 0.3)">
          <a xlink:href="classpocketmine_1_1event_1_1player_1_1_player_chat_event__coll__graph_org.svg" target="_base">
           <rect id="button" ry="5" rx="5" y="6" x="6" height="38" width="38"
                fill="#f2f5e9" fill-opacity="0.5" stroke="#606060" stroke-width="1.0"/>
           <path id="arrow"
             d="M 11.500037,31.436501 C 11.940474,20.09759 22.043105,11.32322 32.158766,21.979434 L 37.068811,17.246167 C 37.068811,17.246167 37.088388,32 37.088388,32 L 22.160133,31.978069 C 22.160133,31.978069 26.997745,27.140456 26.997745,27.140456 C 18.528582,18.264221 13.291696,25.230495 11.500037,31.436501 z"
             style="fill:#404040;"/>
          </a>
         </g>
        </svg>
</svg>
