<?xml version="1.0" encoding="UTF-8" standalone="no"?>
<!DOCTYPE svg PUBLIC "-//W3C//DTD SVG 1.1//EN"
 "http://www.w3.org/Graphics/SVG/1.1/DTD/svg11.dtd">
<!-- Generated by graphviz version 2.26.3 (20100126.1600)
 -->
<!-- Title: pocketmine\level\format\mcregion\McRegion\setChunk Pages: 1 -->
<svg width="956pt" height="283pt"
 viewBox="0.00 0.00 956.00 283.23" xmlns="http://www.w3.org/2000/svg" xmlns:xlink="http://www.w3.org/1999/xlink">
<g id="graph1" class="graph" transform="scale(1 1) rotate(0) translate(4 279.234)">
<title>pocketmine\level\format\mcregion\McRegion\setChunk</title>
<polygon fill="white" stroke="white" points="-4,5 -4,-279.234 953,-279.234 953,5 -4,5"/>
<!-- Node1 -->
<g id="node1" class="node"><title>Node1</title>
<polygon fill="#bfbfbf" stroke="black" points="0,-90 0,-124 152,-124 152,-90 0,-90"/>
<text text-anchor="start" x="8" y="-111" font-family="Helvetica,sans-Serif" font-size="10.00">pocketmine\level\format</text>
<text text-anchor="middle" x="76" y="-98" font-family="Helvetica,sans-Serif" font-size="10.00">\mcregion\McRegion\setChunk</text>
</g>
<!-- Node2 -->
<g id="node3" class="node"><title>Node2</title>
<a xlink:href="../../d3/d4b/classpocketmine_1_1level_1_1_level.html#a4be83538c608928a193884ea26010d96" target="_top" xlink:title="pocketmine\\level\\Level\l\\chunkHash">
<polygon fill="white" stroke="black" points="813,-180 813,-214 929,-214 929,-180 813,-180"/>
<text text-anchor="start" x="821" y="-201" font-family="Helvetica,sans-Serif" font-size="10.00">pocketmine\level\Level</text>
<text text-anchor="middle" x="871" y="-188" font-family="Helvetica,sans-Serif" font-size="10.00">\chunkHash</text>
</a>
</g>
<!-- Node1&#45;&gt;Node2 -->
<g id="edge2" class="edge"><title>Node1&#45;&gt;Node2</title>
<path fill="none" stroke="midnightblue" d="M90.6307,-124.364C110.281,-146.355 147.45,-183.488 188,-201 421.088,-301.663 508.113,-283.937 758,-239 781.117,-234.843 805.683,-226.259 825.984,-217.928"/>
<polygon fill="midnightblue" stroke="midnightblue" points="827.43,-221.117 835.285,-214.008 824.711,-214.667 827.43,-221.117"/>
</g>
<!-- Node3 -->
<g id="node5" class="node"><title>Node3</title>
<a xlink:href="../../d7/d67/classpocketmine_1_1level_1_1format_1_1mcregion_1_1_mc_region.html#a75f2b90d7bf8615fab30508983c0d020" target="_top" xlink:title="pocketmine\\level\\format\l\\mcregion\\McRegion\\getRegion">
<polygon fill="white" stroke="black" points="794,-67 794,-101 948,-101 948,-67 794,-67"/>
<text text-anchor="start" x="802" y="-88" font-family="Helvetica,sans-Serif" font-size="10.00">pocketmine\level\format</text>
<text text-anchor="middle" x="871" y="-75" font-family="Helvetica,sans-Serif" font-size="10.00">\mcregion\McRegion\getRegion</text>
</a>
</g>
<!-- Node1&#45;&gt;Node3 -->
<g id="edge4" class="edge"><title>Node1&#45;&gt;Node3</title>
<path fill="none" stroke="midnightblue" d="M152.372,-101.832C251.067,-95.4367 428.255,-84.9115 580,-81 659.085,-78.9615 678.896,-79.9501 758,-81 766.321,-81.1104 774.987,-81.2666 783.654,-81.4503"/>
<polygon fill="midnightblue" stroke="midnightblue" points="783.732,-84.9529 793.808,-81.6776 783.889,-77.9546 783.732,-84.9529"/>
</g>
<!-- Node4 -->
<g id="node7" class="node"><title>Node4</title>
<a xlink:href="../../d7/d67/classpocketmine_1_1level_1_1format_1_1mcregion_1_1_mc_region.html#adb792b4875655b069461ff49c2854e62" target="_top" xlink:title="pocketmine\\level\\format\l\\mcregion\\McRegion\\loadChunk">
<polygon fill="white" stroke="black" points="591,-90 591,-124 747,-124 747,-90 591,-90"/>
<text text-anchor="start" x="599" y="-111" font-family="Helvetica,sans-Serif" font-size="10.00">pocketmine\level\format</text>
<text text-anchor="middle" x="669" y="-98" font-family="Helvetica,sans-Serif" font-size="10.00">\mcregion\McRegion\loadChunk</text>
</a>
</g>
<!-- Node1&#45;&gt;Node4 -->
<g id="edge6" class="edge"><title>Node1&#45;&gt;Node4</title>
<path fill="none" stroke="midnightblue" d="M152.008,-107C261.676,-107 463.865,-107 580.239,-107"/>
<polygon fill="midnightblue" stroke="midnightblue" points="580.536,-110.5 590.536,-107 580.536,-103.5 580.536,-110.5"/>
</g>
<!-- Node5 -->
<g id="node11" class="node"><title>Node5</title>
<a xlink:href="../../d6/d3d/interfacepocketmine_1_1level_1_1format_1_1_full_chunk.html#af8849c78c6b531c91b7a15a00c1d8393" target="_top" xlink:title="pocketmine\\level\\format\l\\FullChunk\\setProvider">
<polygon fill="white" stroke="black" points="211.5,-0 211.5,-34 332.5,-34 332.5,-0 211.5,-0"/>
<text text-anchor="start" x="219.5" y="-21" font-family="Helvetica,sans-Serif" font-size="10.00">pocketmine\level\format</text>
<text text-anchor="middle" x="272" y="-8" font-family="Helvetica,sans-Serif" font-size="10.00">\FullChunk\setProvider</text>
</a>
</g>
<!-- Node1&#45;&gt;Node5 -->
<g id="edge12" class="edge"><title>Node1&#45;&gt;Node5</title>
<path fill="none" stroke="midnightblue" d="M105.891,-89.8773C128.152,-77.4661 159.494,-60.7024 188,-48 195.944,-44.4603 204.427,-40.9872 212.835,-37.7206"/>
<polygon fill="midnightblue" stroke="midnightblue" points="214.164,-40.9595 222.263,-34.1278 211.672,-34.4184 214.164,-40.9595"/>
</g>
<!-- Node6 -->
<g id="node13" class="node"><title>Node6</title>
<a xlink:href="../../d7/d67/classpocketmine_1_1level_1_1format_1_1mcregion_1_1_mc_region.html#a9bb6e27addea14e16814b160f2b274ea" target="_top" xlink:title="pocketmine\\level\\format\l\\mcregion\\McRegion\\unloadChunk">
<polygon fill="white" stroke="black" points="188.5,-158 188.5,-192 355.5,-192 355.5,-158 188.5,-158"/>
<text text-anchor="start" x="196.5" y="-179" font-family="Helvetica,sans-Serif" font-size="10.00">pocketmine\level\format</text>
<text text-anchor="middle" x="272" y="-166" font-family="Helvetica,sans-Serif" font-size="10.00">\mcregion\McRegion\unloadChunk</text>
</a>
</g>
<!-- Node1&#45;&gt;Node6 -->
<g id="edge14" class="edge"><title>Node1&#45;&gt;Node6</title>
<path fill="none" stroke="midnightblue" d="M125.206,-124.071C151.884,-133.327 185.039,-144.83 213.085,-154.56"/>
<polygon fill="midnightblue" stroke="midnightblue" points="212.179,-157.95 222.774,-157.921 214.473,-151.337 212.179,-157.95"/>
</g>
<!-- Node4&#45;&gt;Node2 -->
<g id="edge8" class="edge"><title>Node4&#45;&gt;Node2</title>
<path fill="none" stroke="midnightblue" d="M722.198,-124.105C734.106,-128.327 746.587,-133.064 758,-138 783.239,-148.915 810.597,-163.133 832.072,-174.877"/>
<polygon fill="midnightblue" stroke="midnightblue" points="830.446,-177.977 840.892,-179.742 833.826,-171.847 830.446,-177.977"/>
</g>
<!-- Node4&#45;&gt;Node3 -->
<g id="edge10" class="edge"><title>Node4&#45;&gt;Node3</title>
<path fill="none" stroke="midnightblue" d="M747.098,-98.1076C759.068,-96.7447 771.49,-95.3303 783.644,-93.9464"/>
<polygon fill="midnightblue" stroke="midnightblue" points="784.235,-97.4019 793.775,-92.793 783.443,-90.4469 784.235,-97.4019"/>
</g>
<!-- Node6&#45;&gt;Node2 -->
<g id="edge16" class="edge"><title>Node6&#45;&gt;Node2</title>
<path fill="none" stroke="midnightblue" d="M346.175,-192.084C441.549,-211.811 612.258,-239.551 758,-223 772.627,-221.339 788.117,-218.506 802.785,-215.305"/>
<polygon fill="midnightblue" stroke="midnightblue" points="803.807,-218.662 812.787,-213.04 802.261,-211.835 803.807,-218.662"/>
</g>
<!-- Node7 -->
<g id="node16" class="node"><title>Node7</title>
<a xlink:href="../../d7/d67/classpocketmine_1_1level_1_1format_1_1mcregion_1_1_mc_region.html#a27e010e8d3d98672b3613fc7c0a4e5c2" target="_top" xlink:title="pocketmine\\level\\format\l\\mcregion\\McRegion\\getChunk">
<polygon fill="white" stroke="black" points="392,-135 392,-169 544,-169 544,-135 392,-135"/>
<text text-anchor="start" x="400" y="-156" font-family="Helvetica,sans-Serif" font-size="10.00">pocketmine\level\format</text>
<text text-anchor="middle" x="468" y="-143" font-family="Helvetica,sans-Serif" font-size="10.00">\mcregion\McRegion\getChunk</text>
</a>
</g>
<!-- Node6&#45;&gt;Node7 -->
<g id="edge18" class="edge"><title>Node6&#45;&gt;Node7</title>
<path fill="none" stroke="midnightblue" d="M355.69,-165.179C364.29,-164.17 373.041,-163.143 381.669,-162.131"/>
<polygon fill="midnightblue" stroke="midnightblue" points="382.201,-165.592 391.725,-160.951 381.385,-158.64 382.201,-165.592"/>
</g>
<!-- Node8 -->
<g id="node20" class="node"><title>Node8</title>
<a xlink:href="../../d7/d67/classpocketmine_1_1level_1_1format_1_1mcregion_1_1_mc_region.html#ad400b0201e4b7997e568fea566827086" target="_top" xlink:title="pocketmine\\level\\format\l\\mcregion\\McRegion\\isChunkLoaded">
<polygon fill="white" stroke="black" points="580.5,-180 580.5,-214 757.5,-214 757.5,-180 580.5,-180"/>
<text text-anchor="start" x="588.5" y="-201" font-family="Helvetica,sans-Serif" font-size="10.00">pocketmine\level\format</text>
<text text-anchor="middle" x="669" y="-188" font-family="Helvetica,sans-Serif" font-size="10.00">\mcregion\McRegion\isChunkLoaded</text>
</a>
</g>
<!-- Node6&#45;&gt;Node8 -->
<g id="edge24" class="edge"><title>Node6&#45;&gt;Node8</title>
<path fill="none" stroke="midnightblue" d="M355.708,-179.639C418.351,-183.11 504.233,-187.869 570.237,-191.527"/>
<polygon fill="midnightblue" stroke="midnightblue" points="570.061,-195.022 580.239,-192.081 570.448,-188.033 570.061,-195.022"/>
</g>
<!-- Node7&#45;&gt;Node2 -->
<g id="edge20" class="edge"><title>Node7&#45;&gt;Node2</title>
<path fill="none" stroke="midnightblue" d="M544.066,-153.646C602.768,-155.72 685.866,-160.409 758,-171 772.645,-173.15 788.2,-176.21 802.934,-179.48"/>
<polygon fill="midnightblue" stroke="midnightblue" points="802.454,-182.961 812.981,-181.769 804.009,-176.135 802.454,-182.961"/>
</g>
<!-- Node7&#45;&gt;Node4 -->
<g id="edge22" class="edge"><title>Node7&#45;&gt;Node4</title>
<path fill="none" stroke="midnightblue" d="M543.989,-134.987C556.746,-132.131 570.064,-129.15 583.051,-126.242"/>
<polygon fill="midnightblue" stroke="midnightblue" points="583.909,-129.637 592.903,-124.037 582.38,-122.806 583.909,-129.637"/>
</g>
<!-- Node8&#45;&gt;Node2 -->
<g id="edge26" class="edge"><title>Node8&#45;&gt;Node2</title>
<path fill="none" stroke="midnightblue" d="M757.6,-197C772.698,-197 788.172,-197 802.644,-197"/>
<polygon fill="midnightblue" stroke="midnightblue" points="802.985,-200.5 812.985,-197 802.985,-193.5 802.985,-200.5"/>
</g>
</g>
</svg>
