<?xml version="1.0" encoding="UTF-8" standalone="no"?>
<!DOCTYPE svg PUBLIC "-//W3C//DTD SVG 1.1//EN"
 "http://www.w3.org/Graphics/SVG/1.1/DTD/svg11.dtd">
<!-- Generated by graphviz version 2.36.0 (20140111.2315)
 -->
<!-- Title: pocketmine\level\format\mcregion\McRegion\isChunkPopulated Pages: 1 -->
<svg width="972pt" height="98pt"
 viewBox="0.00 0.00 972.00 98.00" xmlns="http://www.w3.org/2000/svg" xmlns:xlink="http://www.w3.org/1999/xlink">
<g id="graph0" class="graph" transform="scale(1 1) rotate(0) translate(4 94)">
<title>pocketmine\level\format\mcregion\McRegion\isChunkPopulated</title>
<polygon fill="white" stroke="none" points="-4,4 -4,-94 968,-94 968,4 -4,4"/>
<!-- Node1 -->
<g id="node1" class="node"><title>Node1</title>
<polygon fill="#bfbfbf" stroke="black" points="0.5,-60 0.5,-90 201.5,-90 201.5,-60 0.5,-60"/>
<text text-anchor="start" x="8.5" y="-78" font-family="Helvetica,sans-Serif" font-size="10.00">pocketmine\level\format</text>
<text text-anchor="middle" x="101" y="-67" font-family="Helvetica,sans-Serif" font-size="10.00">\mcregion\McRegion\isChunkPopulated</text>
</g>
<!-- Node2 -->
<g id="node2" class="node"><title>Node2</title>
<g id="a_node2"><a xlink:href="../../d7/d67/classpocketmine_1_1level_1_1format_1_1mcregion_1_1_mc_region.html#a27e010e8d3d98672b3613fc7c0a4e5c2" target="_top" xlink:title="pocketmine\\level\\format\l\\mcregion\\McRegion\\getChunk">
<polygon fill="white" stroke="black" points="238.5,-60 238.5,-90 399.5,-90 399.5,-60 238.5,-60"/>
<text text-anchor="start" x="246.5" y="-78" font-family="Helvetica,sans-Serif" font-size="10.00">pocketmine\level\format</text>
<text text-anchor="middle" x="319" y="-67" font-family="Helvetica,sans-Serif" font-size="10.00">\mcregion\McRegion\getChunk</text>
</a>
</g>
</g>
<!-- Node1&#45;&gt;Node2 -->
<g id="edge1" class="edge"><title>Node1&#45;&gt;Node2</title>
<path fill="none" stroke="midnightblue" d="M201.781,-75C210.599,-75 219.492,-75 228.221,-75"/>
<polygon fill="midnightblue" stroke="midnightblue" points="228.378,-78.5001 238.378,-75 228.378,-71.5001 228.378,-78.5001"/>
</g>
<!-- Node3 -->
<g id="node3" class="node"><title>Node3</title>
<g id="a_node3"><a xlink:href="../../d3/d4b/classpocketmine_1_1level_1_1_level.html#a4be83538c608928a193884ea26010d96" target="_top" xlink:title="pocketmine\\level\\Level\l\\chunkHash">
<polygon fill="white" stroke="black" points="838.5,-44 838.5,-74 963.5,-74 963.5,-44 838.5,-44"/>
<text text-anchor="start" x="846.5" y="-62" font-family="Helvetica,sans-Serif" font-size="10.00">pocketmine\level\Level</text>
<text text-anchor="middle" x="901" y="-51" font-family="Helvetica,sans-Serif" font-size="10.00">\chunkHash</text>
</a>
</g>
</g>
<!-- Node2&#45;&gt;Node3 -->
<g id="edge2" class="edge"><title>Node2&#45;&gt;Node3</title>
<path fill="none" stroke="midnightblue" d="M399.558,-76.5531C411.762,-76.7388 424.217,-76.8984 436,-77 598.682,-78.4023 639.78,-83.3389 802,-71 810.568,-70.3483 819.539,-69.4916 828.426,-68.5352"/>
<polygon fill="midnightblue" stroke="midnightblue" points="828.85,-72.0097 838.398,-67.4187 828.071,-65.0532 828.85,-72.0097"/>
</g>
<!-- Node4 -->
<g id="node4" class="node"><title>Node4</title>
<g id="a_node4"><a xlink:href="../../d7/d67/classpocketmine_1_1level_1_1format_1_1mcregion_1_1_mc_region.html#adb792b4875655b069461ff49c2854e62" target="_top" xlink:title="pocketmine\\level\\format\l\\mcregion\\McRegion\\loadChunk">
<polygon fill="white" stroke="black" points="436,-38 436,-68 602,-68 602,-38 436,-38"/>
<text text-anchor="start" x="444" y="-56" font-family="Helvetica,sans-Serif" font-size="10.00">pocketmine\level\format</text>
<text text-anchor="middle" x="519" y="-45" font-family="Helvetica,sans-Serif" font-size="10.00">\mcregion\McRegion\loadChunk</text>
</a>
</g>
</g>
<!-- Node2&#45;&gt;Node4 -->
<g id="edge3" class="edge"><title>Node2&#45;&gt;Node4</title>
<path fill="none" stroke="midnightblue" d="M399.678,-66.1469C408.252,-65.1943 417.026,-64.2193 425.73,-63.2522"/>
<polygon fill="midnightblue" stroke="midnightblue" points="426.348,-66.7051 435.901,-62.1221 425.575,-59.748 426.348,-66.7051"/>
</g>
<!-- Node4&#45;&gt;Node3 -->
<g id="edge4" class="edge"><title>Node4&#45;&gt;Node3</title>
<path fill="none" stroke="midnightblue" d="M602.454,-54.3019C669.794,-55.3652 764.007,-56.8527 828.263,-57.8673"/>
<polygon fill="midnightblue" stroke="midnightblue" points="828.255,-61.3675 838.309,-58.0259 828.366,-54.3684 828.255,-61.3675"/>
</g>
<!-- Node5 -->
<g id="node5" class="node"><title>Node5</title>
<g id="a_node5"><a xlink:href="../../d7/d67/classpocketmine_1_1level_1_1format_1_1mcregion_1_1_mc_region.html#a75f2b90d7bf8615fab30508983c0d020" target="_top" xlink:title="pocketmine\\level\\format\l\\mcregion\\McRegion\\getRegion">
<polygon fill="white" stroke="black" points="638.5,-0 638.5,-30 801.5,-30 801.5,-0 638.5,-0"/>
<text text-anchor="start" x="646.5" y="-18" font-family="Helvetica,sans-Serif" font-size="10.00">pocketmine\level\format</text>
<text text-anchor="middle" x="720" y="-7" font-family="Helvetica,sans-Serif" font-size="10.00">\mcregion\McRegion\getRegion</text>
</a>
</g>
</g>
<!-- Node4&#45;&gt;Node5 -->
<g id="edge5" class="edge"><title>Node4&#45;&gt;Node5</title>
<path fill="none" stroke="midnightblue" d="M598.65,-37.9814C609.024,-36.0005 619.714,-33.9592 630.241,-31.9489"/>
<polygon fill="midnightblue" stroke="midnightblue" points="631.104,-35.3476 640.27,-30.034 629.791,-28.4718 631.104,-35.3476"/>
</g>
<!-- Node5&#45;&gt;Node3 -->
<g id="edge6" class="edge"><title>Node5&#45;&gt;Node3</title>
<path fill="none" stroke="midnightblue" d="M782.101,-30.0192C797.139,-33.7156 813.369,-37.7053 828.837,-41.5074"/>
<polygon fill="midnightblue" stroke="midnightblue" points="828.324,-44.9855 838.871,-43.9738 829.995,-38.1879 828.324,-44.9855"/>
</g>
</g>
</svg>
