<?xml version="1.0" encoding="UTF-8" standalone="no"?>
<!DOCTYPE svg PUBLIC "-//W3C//DTD SVG 1.1//EN"
 "http://www.w3.org/Graphics/SVG/1.1/DTD/svg11.dtd">
<!-- Generated by graphviz version 2.36.0 (20140111.2315)
 -->
<!-- Title: pocketmine\level\format\mcregion\McRegion\saveChunk Pages: 1 -->
<!--zoomable 145 -->
<svg id="main" version="1.1" xmlns="http://www.w3.org/2000/svg" xmlns:xlink="http://www.w3.org/1999/xlink" xml:space="preserve" onload="init(evt)">
<style type="text/css"><![CDATA[
.edge:hover path { stroke: red; }
.edge:hover polygon { stroke: red; fill: red; }
]]></style>
<script type="text/javascript"><![CDATA[
var edges = document.getElementsByTagName('g');
if (edges && edges.length) {
  for (var i=0;i<edges.length;i++) {
    if (edges[i].id.substr(0,4)=='edge') {
      edges[i].setAttribute('class','edge');
    }
  }
}
]]></script>
        <defs>
                <circle id="rim" cx="0" cy="0" r="7"/>
                <circle id="rim2" cx="0" cy="0" r="3.5"/>
                <g id="zoomPlus">
                        <use xlink:href="#rim" fill="#404040">
                                <set attributeName="fill" to="#808080" begin="zoomplus.mouseover" end="zoomplus.mouseout"/>
                        </use>
                        <path d="M-4,0h8M0,-4v8" fill="none" stroke="white" stroke-width="1.5" pointer-events="none"/>
                </g>
                <g id="zoomMin">
                        <use xlink:href="#rim" fill="#404040">
                                <set attributeName="fill" to="#808080" begin="zoomminus.mouseover" end="zoomminus.mouseout"/>
                        </use>
                        <path d="M-4,0h8" fill="none" stroke="white" stroke-width="1.5" pointer-events="none"/>
                </g>
                <g id="dirArrow">
                        <path fill="none" stroke="white" stroke-width="1.5" d="M0,-3.0v7 M-2.5,-0.5L0,-3.0L2.5,-0.5"/>
                </g>
               <g id="resetDef">
                       <use xlink:href="#rim2" fill="#404040">
                               <set attributeName="fill" to="#808080" begin="reset.mouseover" end="reset.mouseout"/>
                       </use>
               </g>
        </defs>

<script type="text/javascript">
var viewWidth = 960;
var viewHeight = 145;
var sectionId = 'dynsection-14';
</script>
<script xlink:href="../../svgpan.js"/>
<svg id="graph" class="graph">
<g id="viewport">
<title>pocketmine\level\format\mcregion\McRegion\saveChunk</title>
<polygon fill="white" stroke="none" points="-4,4 -4,-140.653 956,-140.653 956,4 -4,4"/>
<!-- Node1 -->
<g id="node1" class="node"><title>Node1</title>
<polygon fill="#bfbfbf" stroke="black" points="0,-44 0,-74 168,-74 168,-44 0,-44"/>
<text text-anchor="start" x="8" y="-62" font-family="Helvetica,sans-Serif" font-size="10.00">pocketmine\level\format</text>
<text text-anchor="middle" x="84" y="-51" font-family="Helvetica,sans-Serif" font-size="10.00">\mcregion\McRegion\saveChunk</text>
</g>
<!-- Node2 -->
<g id="node2" class="node"><title>Node2</title>
<g id="a_node2"><a xlink:href="../../d7/d67/classpocketmine_1_1level_1_1format_1_1mcregion_1_1_mc_region.html#a27e010e8d3d98672b3613fc7c0a4e5c2" target="_top" xlink:title="pocketmine\\level\\format\l\\mcregion\\McRegion\\getChunk">
<polygon fill="white" stroke="black" points="204.5,-88 204.5,-118 365.5,-118 365.5,-88 204.5,-88"/>
<text text-anchor="start" x="212.5" y="-106" font-family="Helvetica,sans-Serif" font-size="10.00">pocketmine\level\format</text>
<text text-anchor="middle" x="285" y="-95" font-family="Helvetica,sans-Serif" font-size="10.00">\mcregion\McRegion\getChunk</text>
</a>
</g>
</g>
<!-- Node1&#45;&gt;Node2 -->
<g id="edge1" class="edge"><title>Node1&#45;&gt;Node2</title>
<path fill="none" stroke="midnightblue" d="M152.928,-74.0192C169.964,-77.786 188.378,-81.8574 205.867,-85.7244"/>
<polygon fill="midnightblue" stroke="midnightblue" points="205.521,-89.2323 216.041,-87.9738 207.032,-82.3973 205.521,-89.2323"/>
</g>
<!-- Node5 -->
<g id="node5" class="node"><title>Node5</title>
<g id="a_node5"><a xlink:href="../../d7/d67/classpocketmine_1_1level_1_1format_1_1mcregion_1_1_mc_region.html#a75f2b90d7bf8615fab30508983c0d020" target="_top" xlink:title="pocketmine\\level\\format\l\\mcregion\\McRegion\\getRegion">
<polygon fill="white" stroke="black" points="626.5,-44 626.5,-74 789.5,-74 789.5,-44 626.5,-44"/>
<text text-anchor="start" x="634.5" y="-62" font-family="Helvetica,sans-Serif" font-size="10.00">pocketmine\level\format</text>
<text text-anchor="middle" x="708" y="-51" font-family="Helvetica,sans-Serif" font-size="10.00">\mcregion\McRegion\getRegion</text>
</a>
</g>
</g>
<!-- Node1&#45;&gt;Node5 -->
<g id="edge7" class="edge"><title>Node1&#45;&gt;Node5</title>
<path fill="none" stroke="midnightblue" d="M168.24,-59C284.681,-59 495.414,-59 615.923,-59"/>
<polygon fill="midnightblue" stroke="midnightblue" points="616.225,-62.5001 626.225,-59 616.225,-55.5001 616.225,-62.5001"/>
</g>
<!-- Node6 -->
<g id="node6" class="node"><title>Node6</title>
<g id="a_node6"><a xlink:href="../../d7/d67/classpocketmine_1_1level_1_1format_1_1mcregion_1_1_mc_region.html#ad400b0201e4b7997e568fea566827086" target="_top" xlink:title="pocketmine\\level\\format\l\\mcregion\\McRegion\\isChunkLoaded">
<polygon fill="white" stroke="black" points="402,-0 402,-30 590,-30 590,-0 402,-0"/>
<text text-anchor="start" x="410" y="-18" font-family="Helvetica,sans-Serif" font-size="10.00">pocketmine\level\format</text>
<text text-anchor="middle" x="496" y="-7" font-family="Helvetica,sans-Serif" font-size="10.00">\mcregion\McRegion\isChunkLoaded</text>
</a>
</g>
</g>
<!-- Node1&#45;&gt;Node6 -->
<g id="edge8" class="edge"><title>Node1&#45;&gt;Node6</title>
<path fill="none" stroke="midnightblue" d="M168.207,-49.0566C180.214,-47.6666 192.421,-46.2779 204,-45 266.257,-38.1291 336.063,-30.916 391.697,-25.285"/>
<polygon fill="midnightblue" stroke="midnightblue" points="392.318,-28.7402 401.915,-24.2524 391.614,-21.7757 392.318,-28.7402"/>
</g>
<!-- Node3 -->
<g id="node3" class="node"><title>Node3</title>
<g id="a_node3"><a xlink:href="../../d3/d4b/classpocketmine_1_1level_1_1_level.html#a4be83538c608928a193884ea26010d96" target="_top" xlink:title="pocketmine\\level\\Level\l\\chunkHash">
<polygon fill="white" stroke="black" points="826.5,-66 826.5,-96 951.5,-96 951.5,-66 826.5,-66"/>
<text text-anchor="start" x="834.5" y="-84" font-family="Helvetica,sans-Serif" font-size="10.00">pocketmine\level\Level</text>
<text text-anchor="middle" x="889" y="-73" font-family="Helvetica,sans-Serif" font-size="10.00">\chunkHash</text>
</a>
</g>
</g>
<!-- Node2&#45;&gt;Node3 -->
<g id="edge2" class="edge"><title>Node2&#45;&gt;Node3</title>
<path fill="none" stroke="midnightblue" d="M347.042,-118.061C364.663,-121.745 383.997,-125.157 402,-127 573.799,-144.586 620.007,-136.441 790,-106 801.363,-103.965 813.353,-101.327 824.898,-98.529"/>
<polygon fill="midnightblue" stroke="midnightblue" points="826.043,-101.851 834.902,-96.0404 824.353,-95.0579 826.043,-101.851"/>
</g>
<!-- Node4 -->
<g id="node4" class="node"><title>Node4</title>
<g id="a_node4"><a xlink:href="../../d7/d67/classpocketmine_1_1level_1_1format_1_1mcregion_1_1_mc_region.html#adb792b4875655b069461ff49c2854e62" target="_top" xlink:title="pocketmine\\level\\format\l\\mcregion\\McRegion\\loadChunk">
<polygon fill="white" stroke="black" points="413,-88 413,-118 579,-118 579,-88 413,-88"/>
<text text-anchor="start" x="421" y="-106" font-family="Helvetica,sans-Serif" font-size="10.00">pocketmine\level\format</text>
<text text-anchor="middle" x="496" y="-95" font-family="Helvetica,sans-Serif" font-size="10.00">\mcregion\McRegion\loadChunk</text>
</a>
</g>
</g>
<!-- Node2&#45;&gt;Node4 -->
<g id="edge3" class="edge"><title>Node2&#45;&gt;Node4</title>
<path fill="none" stroke="midnightblue" d="M365.61,-103C377.687,-103 390.234,-103 402.555,-103"/>
<polygon fill="midnightblue" stroke="midnightblue" points="402.836,-106.5 412.836,-103 402.836,-99.5001 402.836,-106.5"/>
</g>
<!-- Node4&#45;&gt;Node3 -->
<g id="edge4" class="edge"><title>Node4&#45;&gt;Node3</title>
<path fill="none" stroke="midnightblue" d="M579.443,-98.3612C649.664,-94.4102 749.534,-88.7909 816.442,-85.0263"/>
<polygon fill="midnightblue" stroke="midnightblue" points="816.69,-88.518 826.477,-84.4616 816.297,-81.529 816.69,-88.518"/>
</g>
<!-- Node4&#45;&gt;Node5 -->
<g id="edge5" class="edge"><title>Node4&#45;&gt;Node5</title>
<path fill="none" stroke="midnightblue" d="M568.683,-87.9808C586.913,-84.1612 606.637,-80.0284 625.324,-76.1131"/>
<polygon fill="midnightblue" stroke="midnightblue" points="626.214,-79.5026 635.284,-74.0262 624.779,-72.6514 626.214,-79.5026"/>
</g>
<!-- Node5&#45;&gt;Node3 -->
<g id="edge6" class="edge"><title>Node5&#45;&gt;Node3</title>
<path fill="none" stroke="midnightblue" d="M789.598,-68.9059C798.469,-69.9962 807.457,-71.1009 816.21,-72.1767"/>
<polygon fill="midnightblue" stroke="midnightblue" points="816.004,-75.6776 826.356,-73.4237 816.858,-68.7299 816.004,-75.6776"/>
</g>
<!-- Node6&#45;&gt;Node3 -->
<g id="edge9" class="edge"><title>Node6&#45;&gt;Node3</title>
<path fill="none" stroke="midnightblue" d="M590.157,-12.0597C648.465,-12.4107 724.659,-16.8994 790,-34 812.487,-39.8852 836.025,-50.9896 854.395,-60.9274"/>
<polygon fill="midnightblue" stroke="midnightblue" points="852.792,-64.0403 863.234,-65.8337 856.189,-57.92 852.792,-64.0403"/>
</g>
</g>
</svg>
        <g id="navigator" transform="translate(0 0)" fill="#404254">
                <rect fill="#f2f5e9" fill-opacity="0.5" stroke="#606060" stroke-width=".5" x="0" y="0" width="60" height="60"/>
                <use id="zoomplus" xlink:href="#zoomPlus" x="17" y="9" onmousedown="handleZoom(evt,'in')"/>
                <use id="zoomminus" xlink:href="#zoomMin" x="42" y="9" onmousedown="handleZoom(evt,'out')"/>
                <use id="reset" xlink:href="#resetDef" x="30" y="36" onmousedown="handleReset()"/>
                <g id="arrowUp" xlink:href="#dirArrow" transform="translate(30 24)" onmousedown="handlePan(0,-1)">
                  <use xlink:href="#rim" fill="#404040">
                        <set attributeName="fill" to="#808080" begin="arrowUp.mouseover" end="arrowUp.mouseout"/>
                  </use>
                  <path fill="none" stroke="white" stroke-width="1.5" d="M0,-3.0v7 M-2.5,-0.5L0,-3.0L2.5,-0.5"/>
                </g>
                <g id="arrowRight" xlink:href="#dirArrow" transform="rotate(90) translate(36 -43)" onmousedown="handlePan(1,0)">
                  <use xlink:href="#rim" fill="#404040">
                        <set attributeName="fill" to="#808080" begin="arrowRight.mouseover" end="arrowRight.mouseout"/>
                  </use>
                  <path fill="none" stroke="white" stroke-width="1.5" d="M0,-3.0v7 M-2.5,-0.5L0,-3.0L2.5,-0.5"/>
                </g>
                <g id="arrowDown" xlink:href="#dirArrow" transform="rotate(180) translate(-30 -48)" onmousedown="handlePan(0,1)">
                  <use xlink:href="#rim" fill="#404040">
                        <set attributeName="fill" to="#808080" begin="arrowDown.mouseover" end="arrowDown.mouseout"/>
                  </use>
                  <path fill="none" stroke="white" stroke-width="1.5" d="M0,-3.0v7 M-2.5,-0.5L0,-3.0L2.5,-0.5"/>
                </g>
                <g id="arrowLeft" xlink:href="#dirArrow" transform="rotate(270) translate(-36 17)" onmousedown="handlePan(-1,0)">
                  <use xlink:href="#rim" fill="#404040">
                        <set attributeName="fill" to="#808080" begin="arrowLeft.mouseover" end="arrowLeft.mouseout"/>
                  </use>
                  <path fill="none" stroke="white" stroke-width="1.5" d="M0,-3.0v7 M-2.5,-0.5L0,-3.0L2.5,-0.5"/>
                </g>
        </g>
        <svg viewBox="0 0 15 15" width="100%" height="30px" preserveAspectRatio="xMaxYMin meet">
         <g id="arrow_out" transform="scale(0.3 0.3)">
          <a xlink:href="classpocketmine_1_1level_1_1format_1_1mcregion_1_1_mc_region_ac0e8d5940e4d6227858940e7a62f3890_cgraph_org.svg" target="_base">
           <rect id="button" ry="5" rx="5" y="6" x="6" height="38" width="38"
                fill="#f2f5e9" fill-opacity="0.5" stroke="#606060" stroke-width="1.0"/>
           <path id="arrow"
             d="M 11.500037,31.436501 C 11.940474,20.09759 22.043105,11.32322 32.158766,21.979434 L 37.068811,17.246167 C 37.068811,17.246167 37.088388,32 37.088388,32 L 22.160133,31.978069 C 22.160133,31.978069 26.997745,27.140456 26.997745,27.140456 C 18.528582,18.264221 13.291696,25.230495 11.500037,31.436501 z"
             style="fill:#404040;"/>
          </a>
         </g>
        </svg>
</svg>
