<?xml version="1.0" encoding="UTF-8" standalone="no"?>
<!DOCTYPE svg PUBLIC "-//W3C//DTD SVG 1.1//EN"
 "http://www.w3.org/Graphics/SVG/1.1/DTD/svg11.dtd">
<!-- Generated by graphviz version 2.26.3 (20100126.1600)
 -->
<!-- Title: pocketmine\level\format\mcregion\McRegion\saveChunk Pages: 1 -->
<svg width="760pt" height="158pt"
 viewBox="0.00 0.00 760.00 158.00" xmlns="http://www.w3.org/2000/svg" xmlns:xlink="http://www.w3.org/1999/xlink">
<g id="graph1" class="graph" transform="scale(1 1) rotate(0) translate(4 154)">
<title>pocketmine\level\format\mcregion\McRegion\saveChunk</title>
<polygon fill="white" stroke="white" points="-4,5 -4,-154 757,-154 757,5 -4,5"/>
<!-- Node1 -->
<g id="node1" class="node"><title>Node1</title>
<polygon fill="#bfbfbf" stroke="black" points="0.5,-37 0.5,-71 159.5,-71 159.5,-37 0.5,-37"/>
<text text-anchor="start" x="8.5" y="-58" font-family="Helvetica,sans-Serif" font-size="10.00">pocketmine\level\format</text>
<text text-anchor="middle" x="80" y="-45" font-family="Helvetica,sans-Serif" font-size="10.00">\mcregion\McRegion\saveChunk</text>
</g>
<!-- Node2 -->
<g id="node3" class="node"><title>Node2</title>
<a xlink:href="../../d7/d67/classpocketmine_1_1level_1_1format_1_1mcregion_1_1_mc_region.html#a27e010e8d3d98672b3613fc7c0a4e5c2" target="_top" xlink:title="pocketmine\\level\\format\l\\mcregion\\McRegion\\getChunk">
<polygon fill="white" stroke="black" points="196,-37 196,-71 348,-71 348,-37 196,-37"/>
<text text-anchor="start" x="204" y="-58" font-family="Helvetica,sans-Serif" font-size="10.00">pocketmine\level\format</text>
<text text-anchor="middle" x="272" y="-45" font-family="Helvetica,sans-Serif" font-size="10.00">\mcregion\McRegion\getChunk</text>
</a>
</g>
<!-- Node1&#45;&gt;Node2 -->
<g id="edge2" class="edge"><title>Node1&#45;&gt;Node2</title>
<path fill="none" stroke="midnightblue" d="M159.757,-54C168.347,-54 177.116,-54 185.778,-54"/>
<polygon fill="midnightblue" stroke="midnightblue" points="185.88,-57.5001 195.88,-54 185.88,-50.5001 185.88,-57.5001"/>
</g>
<!-- Node5 -->
<g id="node10" class="node"><title>Node5</title>
<a xlink:href="../../d7/d67/classpocketmine_1_1level_1_1format_1_1mcregion_1_1_mc_region.html#a75f2b90d7bf8615fab30508983c0d020" target="_top" xlink:title="pocketmine\\level\\format\l\\mcregion\\McRegion\\getRegion">
<polygon fill="white" stroke="black" points="598,-0 598,-34 752,-34 752,-0 598,-0"/>
<text text-anchor="start" x="606" y="-21" font-family="Helvetica,sans-Serif" font-size="10.00">pocketmine\level\format</text>
<text text-anchor="middle" x="675" y="-8" font-family="Helvetica,sans-Serif" font-size="10.00">\mcregion\McRegion\getRegion</text>
</a>
</g>
<!-- Node1&#45;&gt;Node5 -->
<g id="edge12" class="edge"><title>Node1&#45;&gt;Node5</title>
<path fill="none" stroke="midnightblue" d="M147.441,-36.949C163.28,-33.4837 180.16,-30.2236 196,-28 331.709,-8.94918 491.125,-9.86279 587.532,-12.9347"/>
<polygon fill="midnightblue" stroke="midnightblue" points="587.704,-16.4423 597.816,-13.2783 587.938,-9.44624 587.704,-16.4423"/>
</g>
<!-- Node6 -->
<g id="node13" class="node"><title>Node6</title>
<a xlink:href="../../d7/d67/classpocketmine_1_1level_1_1format_1_1mcregion_1_1_mc_region.html#ad400b0201e4b7997e568fea566827086" target="_top" xlink:title="pocketmine\\level\\format\l\\mcregion\\McRegion\\isChunkLoaded">
<polygon fill="white" stroke="black" points="384.5,-116 384.5,-150 561.5,-150 561.5,-116 384.5,-116"/>
<text text-anchor="start" x="392.5" y="-137" font-family="Helvetica,sans-Serif" font-size="10.00">pocketmine\level\format</text>
<text text-anchor="middle" x="473" y="-124" font-family="Helvetica,sans-Serif" font-size="10.00">\mcregion\McRegion\isChunkLoaded</text>
</a>
</g>
<!-- Node1&#45;&gt;Node6 -->
<g id="edge14" class="edge"><title>Node1&#45;&gt;Node6</title>
<path fill="none" stroke="midnightblue" d="M154.494,-71.0605C168.278,-74.1138 182.562,-77.2092 196,-80 254.999,-92.253 321.288,-104.974 374.224,-114.881"/>
<polygon fill="midnightblue" stroke="midnightblue" points="373.814,-118.365 384.287,-116.76 375.1,-111.484 373.814,-118.365"/>
</g>
<!-- Node3 -->
<g id="node5" class="node"><title>Node3</title>
<a xlink:href="../../d3/d4b/classpocketmine_1_1level_1_1_level.html#a4be83538c608928a193884ea26010d96" target="_top" xlink:title="pocketmine\\level\\Level\l\\chunkHash">
<polygon fill="white" stroke="black" points="617,-71 617,-105 733,-105 733,-71 617,-71"/>
<text text-anchor="start" x="625" y="-92" font-family="Helvetica,sans-Serif" font-size="10.00">pocketmine\level\Level</text>
<text text-anchor="middle" x="675" y="-79" font-family="Helvetica,sans-Serif" font-size="10.00">\chunkHash</text>
</a>
</g>
<!-- Node2&#45;&gt;Node3 -->
<g id="edge4" class="edge"><title>Node2&#45;&gt;Node3</title>
<path fill="none" stroke="midnightblue" d="M348.131,-64.9031C360.118,-66.4156 372.385,-67.8443 384,-69 460.042,-76.5657 547.575,-81.8149 606.614,-84.8491"/>
<polygon fill="midnightblue" stroke="midnightblue" points="606.768,-88.3613 616.932,-85.3717 607.122,-81.3702 606.768,-88.3613"/>
</g>
<!-- Node4 -->
<g id="node7" class="node"><title>Node4</title>
<a xlink:href="../../d7/d67/classpocketmine_1_1level_1_1format_1_1mcregion_1_1_mc_region.html#adb792b4875655b069461ff49c2854e62" target="_top" xlink:title="pocketmine\\level\\format\l\\mcregion\\McRegion\\loadChunk">
<polygon fill="white" stroke="black" points="395,-26 395,-60 551,-60 551,-26 395,-26"/>
<text text-anchor="start" x="403" y="-47" font-family="Helvetica,sans-Serif" font-size="10.00">pocketmine\level\format</text>
<text text-anchor="middle" x="473" y="-34" font-family="Helvetica,sans-Serif" font-size="10.00">\mcregion\McRegion\loadChunk</text>
</a>
</g>
<!-- Node2&#45;&gt;Node4 -->
<g id="edge6" class="edge"><title>Node2&#45;&gt;Node4</title>
<path fill="none" stroke="midnightblue" d="M348.276,-49.8257C360.163,-49.1752 372.53,-48.4984 384.658,-47.8347"/>
<polygon fill="midnightblue" stroke="midnightblue" points="384.979,-51.3224 394.773,-47.2811 384.596,-44.3329 384.979,-51.3224"/>
</g>
<!-- Node4&#45;&gt;Node3 -->
<g id="edge8" class="edge"><title>Node4&#45;&gt;Node3</title>
<path fill="none" stroke="midnightblue" d="M549.368,-60.0126C568.308,-64.232 588.48,-68.7257 606.991,-72.8494"/>
<polygon fill="midnightblue" stroke="midnightblue" points="606.272,-76.275 616.793,-75.0332 607.794,-69.4424 606.272,-76.275"/>
</g>
<!-- Node4&#45;&gt;Node5 -->
<g id="edge10" class="edge"><title>Node4&#45;&gt;Node5</title>
<path fill="none" stroke="midnightblue" d="M551.098,-32.9477C563.068,-31.4071 575.49,-29.8082 587.644,-28.2438"/>
<polygon fill="midnightblue" stroke="midnightblue" points="588.303,-31.688 597.775,-26.9399 587.41,-24.7452 588.303,-31.688"/>
</g>
<!-- Node6&#45;&gt;Node3 -->
<g id="edge16" class="edge"><title>Node6&#45;&gt;Node3</title>
<path fill="none" stroke="midnightblue" d="M549.368,-115.987C568.308,-111.768 588.48,-107.274 606.991,-103.151"/>
<polygon fill="midnightblue" stroke="midnightblue" points="607.794,-106.558 616.793,-100.967 606.272,-99.725 607.794,-106.558"/>
</g>
</g>
</svg>
