<?xml version="1.0" encoding="UTF-8" standalone="no"?>
<!DOCTYPE svg PUBLIC "-//W3C//DTD SVG 1.1//EN"
 "http://www.w3.org/Graphics/SVG/1.1/DTD/svg11.dtd">
<!-- Generated by graphviz version 2.26.3 (20100126.1600)
 -->
<!-- Title: pocketmine\level\format\mcregion\McRegion\isChunkPopulated Pages: 1 -->
<svg width="768pt" height="94pt"
 viewBox="0.00 0.00 768.00 94.00" xmlns="http://www.w3.org/2000/svg" xmlns:xlink="http://www.w3.org/1999/xlink">
<g id="graph1" class="graph" transform="scale(1 1) rotate(0) translate(4 90)">
<title>pocketmine\level\format\mcregion\McRegion\isChunkPopulated</title>
<polygon fill="white" stroke="white" points="-4,5 -4,-90 765,-90 765,5 -4,5"/>
<!-- Node1 -->
<g id="node1" class="node"><title>Node1</title>
<polygon fill="#bfbfbf" stroke="black" points="0.5,-29 0.5,-63 189.5,-63 189.5,-29 0.5,-29"/>
<text text-anchor="start" x="8.5" y="-50" font-family="Helvetica,sans-Serif" font-size="10.00">pocketmine\level\format</text>
<text text-anchor="middle" x="95" y="-37" font-family="Helvetica,sans-Serif" font-size="10.00">\mcregion\McRegion\isChunkPopulated</text>
</g>
<!-- Node2 -->
<g id="node3" class="node"><title>Node2</title>
<a xlink:href="../../d7/d67/classpocketmine_1_1level_1_1format_1_1mcregion_1_1_mc_region.html#a27e010e8d3d98672b3613fc7c0a4e5c2" target="_top" xlink:title="pocketmine\\level\\format\l\\mcregion\\McRegion\\getChunk">
<polygon fill="white" stroke="black" points="226,-29 226,-63 378,-63 378,-29 226,-29"/>
<text text-anchor="start" x="234" y="-50" font-family="Helvetica,sans-Serif" font-size="10.00">pocketmine\level\format</text>
<text text-anchor="middle" x="302" y="-37" font-family="Helvetica,sans-Serif" font-size="10.00">\mcregion\McRegion\getChunk</text>
</a>
</g>
<!-- Node1&#45;&gt;Node2 -->
<g id="edge2" class="edge"><title>Node1&#45;&gt;Node2</title>
<path fill="none" stroke="midnightblue" d="M189.716,-46C198.439,-46 207.245,-46 215.886,-46"/>
<polygon fill="midnightblue" stroke="midnightblue" points="215.937,-49.5001 225.937,-46 215.937,-42.5001 215.937,-49.5001"/>
</g>
<!-- Node3 -->
<g id="node5" class="node"><title>Node3</title>
<a xlink:href="../../d3/d4b/classpocketmine_1_1level_1_1_level.html#a4be83538c608928a193884ea26010d96" target="_top" xlink:title="pocketmine\\level\\Level\l\\chunkHash">
<polygon fill="white" stroke="black" points="625,-52 625,-86 741,-86 741,-52 625,-52"/>
<text text-anchor="start" x="633" y="-73" font-family="Helvetica,sans-Serif" font-size="10.00">pocketmine\level\Level</text>
<text text-anchor="middle" x="683" y="-60" font-family="Helvetica,sans-Serif" font-size="10.00">\chunkHash</text>
</a>
</g>
<!-- Node2&#45;&gt;Node3 -->
<g id="edge4" class="edge"><title>Node2&#45;&gt;Node3</title>
<path fill="none" stroke="midnightblue" d="M378.185,-50.5991C447.239,-54.7677 548.094,-60.8561 614.613,-64.8716"/>
<polygon fill="midnightblue" stroke="midnightblue" points="614.791,-68.3887 624.984,-65.4977 615.213,-61.4014 614.791,-68.3887"/>
</g>
<!-- Node4 -->
<g id="node7" class="node"><title>Node4</title>
<a xlink:href="../../d7/d67/classpocketmine_1_1level_1_1format_1_1mcregion_1_1_mc_region.html#adb792b4875655b069461ff49c2854e62" target="_top" xlink:title="pocketmine\\level\\format\l\\mcregion\\McRegion\\loadChunk">
<polygon fill="white" stroke="black" points="414,-7 414,-41 570,-41 570,-7 414,-7"/>
<text text-anchor="start" x="422" y="-28" font-family="Helvetica,sans-Serif" font-size="10.00">pocketmine\level\format</text>
<text text-anchor="middle" x="492" y="-15" font-family="Helvetica,sans-Serif" font-size="10.00">\mcregion\McRegion\loadChunk</text>
</a>
</g>
<!-- Node2&#45;&gt;Node4 -->
<g id="edge6" class="edge"><title>Node2&#45;&gt;Node4</title>
<path fill="none" stroke="midnightblue" d="M378.185,-37.1785C386.645,-36.199 395.311,-35.1955 403.902,-34.2008"/>
<polygon fill="midnightblue" stroke="midnightblue" points="404.405,-37.6661 413.936,-33.039 403.6,-30.7125 404.405,-37.6661"/>
</g>
<!-- Node4&#45;&gt;Node3 -->
<g id="edge8" class="edge"><title>Node4&#45;&gt;Node3</title>
<path fill="none" stroke="midnightblue" d="M564.209,-41.0126C580.831,-44.9287 598.455,-49.0811 614.896,-52.9546"/>
<polygon fill="midnightblue" stroke="midnightblue" points="614.424,-56.4392 624.96,-55.3258 616.03,-49.6257 614.424,-56.4392"/>
</g>
<!-- Node5 -->
<g id="node10" class="node"><title>Node5</title>
<a xlink:href="../../d7/d67/classpocketmine_1_1level_1_1format_1_1mcregion_1_1_mc_region.html#a75f2b90d7bf8615fab30508983c0d020" target="_top" xlink:title="pocketmine\\level\\format\l\\mcregion\\McRegion\\getRegion">
<polygon fill="white" stroke="black" points="606,-0 606,-34 760,-34 760,-0 606,-0"/>
<text text-anchor="start" x="614" y="-21" font-family="Helvetica,sans-Serif" font-size="10.00">pocketmine\level\format</text>
<text text-anchor="middle" x="683" y="-8" font-family="Helvetica,sans-Serif" font-size="10.00">\mcregion\McRegion\getRegion</text>
</a>
</g>
<!-- Node4&#45;&gt;Node5 -->
<g id="edge10" class="edge"><title>Node4&#45;&gt;Node5</title>
<path fill="none" stroke="midnightblue" d="M570.238,-21.1326C578.588,-20.8266 587.119,-20.5139 595.566,-20.2044"/>
<polygon fill="midnightblue" stroke="midnightblue" points="595.945,-23.693 605.81,-19.829 595.688,-16.6976 595.945,-23.693"/>
</g>
</g>
</svg>
