<?xml version="1.0" encoding="UTF-8" standalone="no"?>
<!DOCTYPE svg PUBLIC "-//W3C//DTD SVG 1.1//EN"
 "http://www.w3.org/Graphics/SVG/1.1/DTD/svg11.dtd">
<!-- Generated by graphviz version 2.26.3 (20100126.1600)
 -->
<!-- Title: pocketmine\level\format\mcregion\McRegion\getRegion Pages: 1 -->
<!--zoomable 362 -->
<svg id="main" version="1.1" xmlns="http://www.w3.org/2000/svg" xmlns:xlink="http://www.w3.org/1999/xlink" xml:space="preserve" onload="init(evt)">
<style type="text/css"><![CDATA[
.edge:hover path { stroke: red; }
.edge:hover polygon { stroke: red; fill: red; }
]]></style>
<script type="text/javascript"><![CDATA[
var edges = document.getElementsByTagName('g');
if (edges && edges.length) {
  for (var i=0;i<edges.length;i++) {
    if (edges[i].id.substr(0,4)=='edge') {
      edges[i].setAttribute('class','edge');
    }
  }
}
]]></script>
        <defs>
                <circle id="rim" cx="0" cy="0" r="7"/>
                <circle id="rim2" cx="0" cy="0" r="3.5"/>
                <g id="zoomPlus">
                        <use xlink:href="#rim" fill="#404040">
                                <set attributeName="fill" to="#808080" begin="zoomplus.mouseover" end="zoomplus.mouseout"/>
                        </use>
                        <path d="M-4,0h8M0,-4v8" fill="none" stroke="white" stroke-width="1.5" pointer-events="none"/>
                </g>
                <g id="zoomMin">
                        <use xlink:href="#rim" fill="#404040">
                                <set attributeName="fill" to="#808080" begin="zoomminus.mouseover" end="zoomminus.mouseout"/>
                        </use>
                        <path d="M-4,0h8" fill="none" stroke="white" stroke-width="1.5" pointer-events="none"/>
                </g>
                <g id="dirArrow">
                        <path fill="none" stroke="white" stroke-width="1.5" d="M0,-3.0v7 M-2.5,-0.5L0,-3.0L2.5,-0.5"/>
                </g>
               <g id="resetDef">
                       <use xlink:href="#rim2" fill="#404040">
                               <set attributeName="fill" to="#808080" begin="reset.mouseover" end="reset.mouseout"/>
                       </use>
               </g>
        </defs>

<script type="text/javascript">
var viewWidth = 958;
var viewHeight = 362;
var sectionId = 'dynsection-6';
</script>
<script xlink:href="../../svgpan.js"/>
<svg id="graph" class="graph">
<g id="viewport">
<title>pocketmine\level\format\mcregion\McRegion\getRegion</title>
<polygon fill="white" stroke="white" points="-4,5 -4,-357.893 955,-357.893 955,5 -4,5"/>
<!-- Node1 -->
<g id="node1" class="node"><title>Node1</title>
<polygon fill="#bfbfbf" stroke="black" points="0,-72.893 0,-106.893 154,-106.893 154,-72.893 0,-72.893"/>
<text text-anchor="start" x="8" y="-93.893" font-family="Helvetica,sans-Serif" font-size="10.00">pocketmine\level\format</text>
<text text-anchor="middle" x="77" y="-80.893" font-family="Helvetica,sans-Serif" font-size="10.00">\mcregion\McRegion\getRegion</text>
</g>
<!-- Node2 -->
<g id="node3" class="node"><title>Node2</title>
<a xlink:href="../../d7/d67/classpocketmine_1_1level_1_1format_1_1mcregion_1_1_mc_region.html#a5980b79610938297b9c1d5e20c70c083" target="_top" xlink:title="pocketmine\\level\\format\l\\mcregion\\McRegion\\isChunkGenerated">
<polygon fill="white" stroke="black" points="570.5,-319.893 570.5,-353.893 761.5,-353.893 761.5,-319.893 570.5,-319.893"/>
<text text-anchor="start" x="578.5" y="-340.893" font-family="Helvetica,sans-Serif" font-size="10.00">pocketmine\level\format</text>
<text text-anchor="middle" x="666" y="-327.893" font-family="Helvetica,sans-Serif" font-size="10.00">\mcregion\McRegion\isChunkGenerated</text>
</a>
</g>
<!-- Node1&#45;&gt;Node2 -->
<g id="edge2" class="edge"><title>Node1&#45;&gt;Node2</title>
<path fill="none" stroke="midnightblue" d="M117.386,-111.697C138.873,-123.206 165.788,-137.478 190,-149.893 274.72,-193.333 293.811,-209.016 382,-244.893 457.132,-275.458 546.54,-303.035 604.691,-319.854"/>
<polygon fill="midnightblue" stroke="midnightblue" points="119,-108.591 108.533,-106.947 115.69,-114.759 119,-108.591"/>
</g>
<!-- Node3 -->
<g id="node5" class="node"><title>Node3</title>
<a xlink:href="../../d7/d67/classpocketmine_1_1level_1_1format_1_1mcregion_1_1_mc_region.html#adb792b4875655b069461ff49c2854e62" target="_top" xlink:title="pocketmine\\level\\format\l\\mcregion\\McRegion\\loadChunk">
<polygon fill="white" stroke="black" points="190,-106.893 190,-140.893 346,-140.893 346,-106.893 190,-106.893"/>
<text text-anchor="start" x="198" y="-127.893" font-family="Helvetica,sans-Serif" font-size="10.00">pocketmine\level\format</text>
<text text-anchor="middle" x="268" y="-114.893" font-family="Helvetica,sans-Serif" font-size="10.00">\mcregion\McRegion\loadChunk</text>
</a>
</g>
<!-- Node1&#45;&gt;Node3 -->
<g id="edge4" class="edge"><title>Node1&#45;&gt;Node3</title>
<path fill="none" stroke="midnightblue" d="M164.171,-105.41C172.768,-106.941 181.456,-108.487 189.954,-110"/>
<polygon fill="midnightblue" stroke="midnightblue" points="164.595,-101.931 154.136,-103.624 163.368,-108.823 164.595,-101.931"/>
</g>
<!-- Node7 -->
<g id="node14" class="node"><title>Node7</title>
<a xlink:href="../../d7/d67/classpocketmine_1_1level_1_1format_1_1mcregion_1_1_mc_region.html#ac0e8d5940e4d6227858940e7a62f3890" target="_top" xlink:title="pocketmine\\level\\format\l\\mcregion\\McRegion\\saveChunk">
<polygon fill="white" stroke="black" points="586.5,-35.893 586.5,-69.893 745.5,-69.893 745.5,-35.893 586.5,-35.893"/>
<text text-anchor="start" x="594.5" y="-56.893" font-family="Helvetica,sans-Serif" font-size="10.00">pocketmine\level\format</text>
<text text-anchor="middle" x="666" y="-43.893" font-family="Helvetica,sans-Serif" font-size="10.00">\mcregion\McRegion\saveChunk</text>
</a>
</g>
<!-- Node1&#45;&gt;Node7 -->
<g id="edge26" class="edge"><title>Node1&#45;&gt;Node7</title>
<path fill="none" stroke="midnightblue" d="M164.08,-84.4228C277.978,-77.2679 475.953,-64.8315 586.153,-57.9088"/>
<polygon fill="midnightblue" stroke="midnightblue" points="163.762,-80.9357 154.001,-85.0559 164.201,-87.922 163.762,-80.9357"/>
</g>
<!-- Node10 -->
<g id="node20" class="node"><title>Node10</title>
<a xlink:href="../../d7/d67/classpocketmine_1_1level_1_1format_1_1mcregion_1_1_mc_region.html#a6af3f40ad4eff7971dd4704180b8e127" target="_top" xlink:title="pocketmine\\level\\format\l\\mcregion\\McRegion\\setChunk">
<polygon fill="white" stroke="black" points="798,-80.893 798,-114.893 950,-114.893 950,-80.893 798,-80.893"/>
<text text-anchor="start" x="806" y="-101.893" font-family="Helvetica,sans-Serif" font-size="10.00">pocketmine\level\format</text>
<text text-anchor="middle" x="874" y="-88.893" font-family="Helvetica,sans-Serif" font-size="10.00">\mcregion\McRegion\setChunk</text>
</a>
</g>
<!-- Node1&#45;&gt;Node10 -->
<g id="edge28" class="edge"><title>Node1&#45;&gt;Node10</title>
<path fill="none" stroke="midnightblue" d="M137.016,-69.8193C257.919,-32.5226 538.331,38.0292 762,-26.893 798.039,-37.3536 833.591,-63.2775 854.665,-80.7322"/>
<polygon fill="midnightblue" stroke="midnightblue" points="135.706,-66.5617 127.202,-72.8822 137.791,-73.2438 135.706,-66.5617"/>
</g>
<!-- Node4 -->
<g id="node7" class="node"><title>Node4</title>
<a xlink:href="../../d7/d67/classpocketmine_1_1level_1_1format_1_1mcregion_1_1_mc_region.html#a27e010e8d3d98672b3613fc7c0a4e5c2" target="_top" xlink:title="pocketmine\\level\\format\l\\mcregion\\McRegion\\getChunk">
<polygon fill="white" stroke="black" points="382,-154.893 382,-188.893 534,-188.893 534,-154.893 382,-154.893"/>
<text text-anchor="start" x="390" y="-175.893" font-family="Helvetica,sans-Serif" font-size="10.00">pocketmine\level\format</text>
<text text-anchor="middle" x="458" y="-162.893" font-family="Helvetica,sans-Serif" font-size="10.00">\mcregion\McRegion\getChunk</text>
</a>
</g>
<!-- Node3&#45;&gt;Node4 -->
<g id="edge6" class="edge"><title>Node3&#45;&gt;Node4</title>
<path fill="none" stroke="midnightblue" d="M345.303,-143.422C360.347,-147.223 376.006,-151.179 390.696,-154.89"/>
<polygon fill="midnightblue" stroke="midnightblue" points="346.075,-140.007 335.522,-140.951 344.36,-146.794 346.075,-140.007"/>
</g>
<!-- Node9 -->
<g id="node18" class="node"><title>Node9</title>
<a xlink:href="../../db/dbb/classpocketmine_1_1level_1_1format_1_1anvil_1_1_anvil.html#aec1968f7e79949d34922e1d707a2ca3c" target="_top" xlink:title="pocketmine\\level\\format\l\\anvil\\Anvil\\setChunk">
<polygon fill="white" stroke="black" points="813.5,-251.893 813.5,-285.893 934.5,-285.893 934.5,-251.893 813.5,-251.893"/>
<text text-anchor="start" x="821.5" y="-272.893" font-family="Helvetica,sans-Serif" font-size="10.00">pocketmine\level\format</text>
<text text-anchor="middle" x="874" y="-259.893" font-family="Helvetica,sans-Serif" font-size="10.00">\anvil\Anvil\setChunk</text>
</a>
</g>
<!-- Node3&#45;&gt;Node9 -->
<g id="edge22" class="edge"><title>Node3&#45;&gt;Node9</title>
<path fill="none" stroke="midnightblue" d="M299.724,-146.818C352.576,-183.268 463.401,-252.415 570,-272.893 653.194,-288.875 751.564,-283.245 813.38,-276.82"/>
<polygon fill="midnightblue" stroke="midnightblue" points="301.652,-143.895 291.447,-141.048 297.649,-149.638 301.652,-143.895"/>
</g>
<!-- Node3&#45;&gt;Node10 -->
<g id="edge24" class="edge"><title>Node3&#45;&gt;Node10</title>
<path fill="none" stroke="midnightblue" d="M356.469,-120.097C475.555,-114.988 685.416,-105.984 797.835,-101.161"/>
<polygon fill="midnightblue" stroke="midnightblue" points="356.133,-116.608 346.293,-120.534 356.434,-123.602 356.133,-116.608"/>
</g>
<!-- Node4&#45;&gt;Node2 -->
<g id="edge8" class="edge"><title>Node4&#45;&gt;Node2</title>
<path fill="none" stroke="midnightblue" d="M482.848,-196.232C504.957,-217.409 538.567,-248.452 570,-272.893 591.98,-289.984 618.394,-307.383 637.946,-319.717"/>
<polygon fill="midnightblue" stroke="midnightblue" points="485.159,-193.598 475.53,-189.179 480.302,-198.639 485.159,-193.598"/>
</g>
<!-- Node5 -->
<g id="node10" class="node"><title>Node5</title>
<a xlink:href="../../d7/d67/classpocketmine_1_1level_1_1format_1_1mcregion_1_1_mc_region.html#a744c6a65ba9ea1f25ae45d63b704419b" target="_top" xlink:title="pocketmine\\level\\format\l\\mcregion\\McRegion\\isChunkPopulated">
<polygon fill="white" stroke="black" points="571.5,-125.893 571.5,-159.893 760.5,-159.893 760.5,-125.893 571.5,-125.893"/>
<text text-anchor="start" x="579.5" y="-146.893" font-family="Helvetica,sans-Serif" font-size="10.00">pocketmine\level\format</text>
<text text-anchor="middle" x="666" y="-133.893" font-family="Helvetica,sans-Serif" font-size="10.00">\mcregion\McRegion\isChunkPopulated</text>
</a>
</g>
<!-- Node4&#45;&gt;Node5 -->
<g id="edge10" class="edge"><title>Node4&#45;&gt;Node5</title>
<path fill="none" stroke="midnightblue" d="M544.268,-159.865C553.203,-158.62 562.318,-157.349 571.339,-156.091"/>
<polygon fill="midnightblue" stroke="midnightblue" points="543.691,-156.412 534.27,-161.259 544.658,-163.345 543.691,-156.412"/>
</g>
<!-- Node6 -->
<g id="node12" class="node"><title>Node6</title>
<a xlink:href="../../d7/d67/classpocketmine_1_1level_1_1format_1_1mcregion_1_1_mc_region.html#af166601a69942266fec195f2a9364bdc" target="_top" xlink:title="pocketmine\\level\\format\l\\mcregion\\McRegion\\requestChunkTask">
<polygon fill="white" stroke="black" points="570,-177.893 570,-211.893 762,-211.893 762,-177.893 570,-177.893"/>
<text text-anchor="start" x="578" y="-198.893" font-family="Helvetica,sans-Serif" font-size="10.00">pocketmine\level\format</text>
<text text-anchor="middle" x="666" y="-185.893" font-family="Helvetica,sans-Serif" font-size="10.00">\mcregion\McRegion\requestChunkTask</text>
</a>
</g>
<!-- Node4&#45;&gt;Node6 -->
<g id="edge12" class="edge"><title>Node4&#45;&gt;Node6</title>
<path fill="none" stroke="midnightblue" d="M544.434,-181.451C552.843,-182.38 561.41,-183.328 569.906,-184.267"/>
<polygon fill="midnightblue" stroke="midnightblue" points="544.595,-177.947 534.27,-180.327 543.825,-184.905 544.595,-177.947"/>
</g>
<!-- Node4&#45;&gt;Node7 -->
<g id="edge14" class="edge"><title>Node4&#45;&gt;Node7</title>
<path fill="none" stroke="midnightblue" d="M496.564,-149.83C536.954,-126.722 599.519,-90.9276 636.254,-69.9112"/>
<polygon fill="midnightblue" stroke="midnightblue" points="494.743,-146.839 487.801,-154.843 498.219,-152.915 494.743,-146.839"/>
</g>
<!-- Node8 -->
<g id="node16" class="node"><title>Node8</title>
<a xlink:href="../../d7/d67/classpocketmine_1_1level_1_1format_1_1mcregion_1_1_mc_region.html#a9bb6e27addea14e16814b160f2b274ea" target="_top" xlink:title="pocketmine\\level\\format\l\\mcregion\\McRegion\\unloadChunk">
<polygon fill="white" stroke="black" points="582.5,-229.893 582.5,-263.893 749.5,-263.893 749.5,-229.893 582.5,-229.893"/>
<text text-anchor="start" x="590.5" y="-250.893" font-family="Helvetica,sans-Serif" font-size="10.00">pocketmine\level\format</text>
<text text-anchor="middle" x="666" y="-237.893" font-family="Helvetica,sans-Serif" font-size="10.00">\mcregion\McRegion\unloadChunk</text>
</a>
</g>
<!-- Node4&#45;&gt;Node8 -->
<g id="edge16" class="edge"><title>Node4&#45;&gt;Node8</title>
<path fill="none" stroke="midnightblue" d="M502.574,-193.204C522.866,-202.433 547.36,-212.924 570,-220.893 579.04,-224.075 588.672,-227.099 598.215,-229.885"/>
<polygon fill="midnightblue" stroke="midnightblue" points="503.821,-189.925 493.273,-188.929 500.898,-196.286 503.821,-189.925"/>
</g>
<!-- Node8&#45;&gt;Node9 -->
<g id="edge18" class="edge"><title>Node8&#45;&gt;Node9</title>
<path fill="none" stroke="midnightblue" d="M759.776,-256.812C778.012,-258.74 796.672,-260.714 813.484,-262.492"/>
<polygon fill="midnightblue" stroke="midnightblue" points="760.015,-253.317 749.702,-255.746 759.279,-260.279 760.015,-253.317"/>
</g>
<!-- Node8&#45;&gt;Node10 -->
<g id="edge20" class="edge"><title>Node8&#45;&gt;Node10</title>
<path fill="none" stroke="midnightblue" d="M753.293,-225.699C756.287,-224.203 759.2,-222.603 762,-220.893 807.35,-193.193 845.369,-141.77 863.167,-115.035"/>
<polygon fill="midnightblue" stroke="midnightblue" points="751.752,-222.554 744.101,-229.882 754.652,-228.925 751.752,-222.554"/>
</g>
</g>
</svg>
        <g id="navigator" transform="translate(0 0)" fill="#404254">
                <rect fill="#f2f5e9" fill-opacity="0.5" stroke="#606060" stroke-width=".5" x="0" y="0" width="60" height="60"/>
                <use id="zoomplus" xlink:href="#zoomPlus" x="17" y="9" onmousedown="handleZoom(evt,'in')"/>
                <use id="zoomminus" xlink:href="#zoomMin" x="42" y="9" onmousedown="handleZoom(evt,'out')"/>
                <use id="reset" xlink:href="#resetDef" x="30" y="36" onmousedown="handleReset()"/>
                <g id="arrowUp" xlink:href="#dirArrow" transform="translate(30 24)" onmousedown="handlePan(0,-1)">
                  <use xlink:href="#rim" fill="#404040">
                        <set attributeName="fill" to="#808080" begin="arrowUp.mouseover" end="arrowUp.mouseout"/>
                  </use>
                  <path fill="none" stroke="white" stroke-width="1.5" d="M0,-3.0v7 M-2.5,-0.5L0,-3.0L2.5,-0.5"/>
                </g>
                <g id="arrowRight" xlink:href="#dirArrow" transform="rotate(90) translate(36 -43)" onmousedown="handlePan(1,0)">
                  <use xlink:href="#rim" fill="#404040">
                        <set attributeName="fill" to="#808080" begin="arrowRight.mouseover" end="arrowRight.mouseout"/>
                  </use>
                  <path fill="none" stroke="white" stroke-width="1.5" d="M0,-3.0v7 M-2.5,-0.5L0,-3.0L2.5,-0.5"/>
                </g>
                <g id="arrowDown" xlink:href="#dirArrow" transform="rotate(180) translate(-30 -48)" onmousedown="handlePan(0,1)">
                  <use xlink:href="#rim" fill="#404040">
                        <set attributeName="fill" to="#808080" begin="arrowDown.mouseover" end="arrowDown.mouseout"/>
                  </use>
                  <path fill="none" stroke="white" stroke-width="1.5" d="M0,-3.0v7 M-2.5,-0.5L0,-3.0L2.5,-0.5"/>
                </g>
                <g id="arrowLeft" xlink:href="#dirArrow" transform="rotate(270) translate(-36 17)" onmousedown="handlePan(-1,0)">
                  <use xlink:href="#rim" fill="#404040">
                        <set attributeName="fill" to="#808080" begin="arrowLeft.mouseover" end="arrowLeft.mouseout"/>
                  </use>
                  <path fill="none" stroke="white" stroke-width="1.5" d="M0,-3.0v7 M-2.5,-0.5L0,-3.0L2.5,-0.5"/>
                </g>
        </g>
        <svg viewBox="0 0 15 15" width="100%" height="30px" preserveAspectRatio="xMaxYMin meet">
         <g id="arrow_out" transform="scale(0.3 0.3)">
          <a xlink:href="classpocketmine_1_1level_1_1format_1_1mcregion_1_1_mc_region_a75f2b90d7bf8615fab30508983c0d020_icgraph_org.svg" target="_base">
           <rect id="button" ry="5" rx="5" y="6" x="6" height="38" width="38"
                fill="#f2f5e9" fill-opacity="0.5" stroke="#606060" stroke-width="1.0"/>
           <path id="arrow"
             d="M 11.500037,31.436501 C 11.940474,20.09759 22.043105,11.32322 32.158766,21.979434 L 37.068811,17.246167 C 37.068811,17.246167 37.088388,32 37.088388,32 L 22.160133,31.978069 C 22.160133,31.978069 26.997745,27.140456 26.997745,27.140456 C 18.528582,18.264221 13.291696,25.230495 11.500037,31.436501 z"
             style="fill:#404040;"/>
          </a>
         </g>
        </svg>
</svg>
