<?xml version="1.0" encoding="UTF-8" standalone="no"?>
<!DOCTYPE svg PUBLIC "-//W3C//DTD SVG 1.1//EN"
 "http://www.w3.org/Graphics/SVG/1.1/DTD/svg11.dtd">
<!-- Generated by graphviz version 2.26.3 (20100126.1600)
 -->
<!-- Title: pocketmine\level\format\mcregion\McRegion\unloadChunk Pages: 1 -->
<svg width="364pt" height="94pt"
 viewBox="0.00 0.00 364.00 94.00" xmlns="http://www.w3.org/2000/svg" xmlns:xlink="http://www.w3.org/1999/xlink">
<g id="graph1" class="graph" transform="scale(1 1) rotate(0) translate(4 90)">
<title>pocketmine\level\format\mcregion\McRegion\unloadChunk</title>
<polygon fill="white" stroke="white" points="-4,5 -4,-90 361,-90 361,5 -4,5"/>
<!-- Node1 -->
<g id="node1" class="node"><title>Node1</title>
<polygon fill="#bfbfbf" stroke="black" points="0.5,-26 0.5,-60 167.5,-60 167.5,-26 0.5,-26"/>
<text text-anchor="start" x="8.5" y="-47" font-family="Helvetica,sans-Serif" font-size="10.00">pocketmine\level\format</text>
<text text-anchor="middle" x="84" y="-34" font-family="Helvetica,sans-Serif" font-size="10.00">\mcregion\McRegion\unloadChunk</text>
</g>
<!-- Node2 -->
<g id="node3" class="node"><title>Node2</title>
<a xlink:href="../../db/dbb/classpocketmine_1_1level_1_1format_1_1anvil_1_1_anvil.html#aec1968f7e79949d34922e1d707a2ca3c" target="_top" xlink:title="pocketmine\\level\\format\l\\anvil\\Anvil\\setChunk">
<polygon fill="white" stroke="black" points="219.5,-52 219.5,-86 340.5,-86 340.5,-52 219.5,-52"/>
<text text-anchor="start" x="227.5" y="-73" font-family="Helvetica,sans-Serif" font-size="10.00">pocketmine\level\format</text>
<text text-anchor="middle" x="280" y="-60" font-family="Helvetica,sans-Serif" font-size="10.00">\anvil\Anvil\setChunk</text>
</a>
</g>
<!-- Node1&#45;&gt;Node2 -->
<g id="edge2" class="edge"><title>Node1&#45;&gt;Node2</title>
<path fill="none" stroke="midnightblue" d="M177.925,-55.4594C192.031,-57.3306 206.249,-59.2168 219.409,-60.9625"/>
<polygon fill="midnightblue" stroke="midnightblue" points="178.064,-51.9472 167.69,-54.1018 177.143,-58.8865 178.064,-51.9472"/>
</g>
<!-- Node3 -->
<g id="node5" class="node"><title>Node3</title>
<a xlink:href="../../d7/d67/classpocketmine_1_1level_1_1format_1_1mcregion_1_1_mc_region.html#a6af3f40ad4eff7971dd4704180b8e127" target="_top" xlink:title="pocketmine\\level\\format\l\\mcregion\\McRegion\\setChunk">
<polygon fill="white" stroke="black" points="204,-0 204,-34 356,-34 356,-0 204,-0"/>
<text text-anchor="start" x="212" y="-21" font-family="Helvetica,sans-Serif" font-size="10.00">pocketmine\level\format</text>
<text text-anchor="middle" x="280" y="-8" font-family="Helvetica,sans-Serif" font-size="10.00">\mcregion\McRegion\setChunk</text>
</a>
</g>
<!-- Node1&#45;&gt;Node3 -->
<g id="edge4" class="edge"><title>Node1&#45;&gt;Node3</title>
<path fill="none" stroke="midnightblue" d="M177.839,-30.552C186.515,-29.4011 195.234,-28.2444 203.725,-27.1181"/>
<polygon fill="midnightblue" stroke="midnightblue" points="177.143,-27.1135 167.69,-31.8982 178.064,-34.0528 177.143,-27.1135"/>
</g>
</g>
</svg>
