<?xml version="1.0" encoding="UTF-8" standalone="no"?>
<!DOCTYPE svg PUBLIC "-//W3C//DTD SVG 1.1//EN"
 "http://www.w3.org/Graphics/SVG/1.1/DTD/svg11.dtd">
<!-- Generated by graphviz version 2.36.0 (20140111.2315)
 -->
<!-- Title: pocketmine\level\format\mcregion\McRegion\loadChunk Pages: 1 -->
<svg width="536pt" height="60pt"
 viewBox="0.00 0.00 536.00 60.00" xmlns="http://www.w3.org/2000/svg" xmlns:xlink="http://www.w3.org/1999/xlink">
<g id="graph0" class="graph" transform="scale(1 1) rotate(0) translate(4 56)">
<title>pocketmine\level\format\mcregion\McRegion\loadChunk</title>
<polygon fill="white" stroke="none" points="-4,4 -4,-56 532,-56 532,4 -4,4"/>
<!-- Node1 -->
<g id="node1" class="node"><title>Node1</title>
<polygon fill="#bfbfbf" stroke="black" points="0,-22 0,-52 166,-52 166,-22 0,-22"/>
<text text-anchor="start" x="8" y="-40" font-family="Helvetica,sans-Serif" font-size="10.00">pocketmine\level\format</text>
<text text-anchor="middle" x="83" y="-29" font-family="Helvetica,sans-Serif" font-size="10.00">\mcregion\McRegion\loadChunk</text>
</g>
<!-- Node2 -->
<g id="node2" class="node"><title>Node2</title>
<g id="a_node2"><a xlink:href="../../d3/d4b/classpocketmine_1_1level_1_1_level.html#a4be83538c608928a193884ea26010d96" target="_top" xlink:title="pocketmine\\level\\Level\l\\chunkHash">
<polygon fill="white" stroke="black" points="402.5,-22 402.5,-52 527.5,-52 527.5,-22 402.5,-22"/>
<text text-anchor="start" x="410.5" y="-40" font-family="Helvetica,sans-Serif" font-size="10.00">pocketmine\level\Level</text>
<text text-anchor="middle" x="465" y="-29" font-family="Helvetica,sans-Serif" font-size="10.00">\chunkHash</text>
</a>
</g>
</g>
<!-- Node1&#45;&gt;Node2 -->
<g id="edge1" class="edge"><title>Node1&#45;&gt;Node2</title>
<path fill="none" stroke="midnightblue" d="M166.204,-38.572C178.21,-38.7497 190.424,-38.9019 202,-39 274.886,-39.6176 293.115,-39.7436 366,-39 374.439,-38.9139 383.286,-38.7861 392.067,-38.636"/>
<polygon fill="midnightblue" stroke="midnightblue" points="392.38,-42.131 402.316,-38.4507 392.254,-35.1321 392.38,-42.131"/>
</g>
<!-- Node3 -->
<g id="node3" class="node"><title>Node3</title>
<g id="a_node3"><a xlink:href="../../d7/d67/classpocketmine_1_1level_1_1format_1_1mcregion_1_1_mc_region.html#a75f2b90d7bf8615fab30508983c0d020" target="_top" xlink:title="pocketmine\\level\\format\l\\mcregion\\McRegion\\getRegion">
<polygon fill="white" stroke="black" points="202.5,-0 202.5,-30 365.5,-30 365.5,-0 202.5,-0"/>
<text text-anchor="start" x="210.5" y="-18" font-family="Helvetica,sans-Serif" font-size="10.00">pocketmine\level\format</text>
<text text-anchor="middle" x="284" y="-7" font-family="Helvetica,sans-Serif" font-size="10.00">\mcregion\McRegion\getRegion</text>
</a>
</g>
</g>
<!-- Node1&#45;&gt;Node3 -->
<g id="edge2" class="edge"><title>Node1&#45;&gt;Node3</title>
<path fill="none" stroke="midnightblue" d="M166.09,-27.9247C174.708,-26.9719 183.507,-25.9992 192.216,-25.0364"/>
<polygon fill="midnightblue" stroke="midnightblue" points="192.827,-28.4903 202.382,-23.9126 192.058,-21.5327 192.827,-28.4903"/>
</g>
<!-- Node3&#45;&gt;Node2 -->
<g id="edge3" class="edge"><title>Node3&#45;&gt;Node2</title>
<path fill="none" stroke="midnightblue" d="M365.598,-24.9059C374.469,-25.9962 383.457,-27.1009 392.21,-28.1767"/>
<polygon fill="midnightblue" stroke="midnightblue" points="392.004,-31.6776 402.356,-29.4237 392.858,-24.7299 392.004,-31.6776"/>
</g>
</g>
</svg>
