<?xml version="1.0" encoding="UTF-8" standalone="no"?>
<!DOCTYPE svg PUBLIC "-//W3C//DTD SVG 1.1//EN"
 "http://www.w3.org/Graphics/SVG/1.1/DTD/svg11.dtd">
<!-- Generated by graphviz version 2.26.3 (20100126.1600)
 -->
<!-- Title: pocketmine\level\format\mcregion\McRegion\loadChunk Pages: 1 -->
<svg width="768pt" height="300pt"
 viewBox="0.00 0.00 768.00 300.06" xmlns="http://www.w3.org/2000/svg" xmlns:xlink="http://www.w3.org/1999/xlink">
<g id="graph1" class="graph" transform="scale(1 1) rotate(0) translate(4 296.061)">
<title>pocketmine\level\format\mcregion\McRegion\loadChunk</title>
<polygon fill="white" stroke="white" points="-4,5 -4,-296.061 765,-296.061 765,5 -4,5"/>
<!-- Node1 -->
<g id="node1" class="node"><title>Node1</title>
<polygon fill="#bfbfbf" stroke="black" points="0,-127 0,-161 156,-161 156,-127 0,-127"/>
<text text-anchor="start" x="8" y="-148" font-family="Helvetica,sans-Serif" font-size="10.00">pocketmine\level\format</text>
<text text-anchor="middle" x="78" y="-135" font-family="Helvetica,sans-Serif" font-size="10.00">\mcregion\McRegion\loadChunk</text>
</g>
<!-- Node2 -->
<g id="node3" class="node"><title>Node2</title>
<a xlink:href="../../d7/d67/classpocketmine_1_1level_1_1format_1_1mcregion_1_1_mc_region.html#a27e010e8d3d98672b3613fc7c0a4e5c2" target="_top" xlink:title="pocketmine\\level\\format\l\\mcregion\\McRegion\\getChunk">
<polygon fill="white" stroke="black" points="192,-127 192,-161 344,-161 344,-127 192,-127"/>
<text text-anchor="start" x="200" y="-148" font-family="Helvetica,sans-Serif" font-size="10.00">pocketmine\level\format</text>
<text text-anchor="middle" x="268" y="-135" font-family="Helvetica,sans-Serif" font-size="10.00">\mcregion\McRegion\getChunk</text>
</a>
</g>
<!-- Node1&#45;&gt;Node2 -->
<g id="edge2" class="edge"><title>Node1&#45;&gt;Node2</title>
<path fill="none" stroke="midnightblue" d="M166.381,-144C174.852,-144 183.393,-144 191.733,-144"/>
<polygon fill="midnightblue" stroke="midnightblue" points="166.103,-140.5 156.103,-144 166.103,-147.5 166.103,-140.5"/>
</g>
<!-- Node8 -->
<g id="node15" class="node"><title>Node8</title>
<a xlink:href="../../db/dbb/classpocketmine_1_1level_1_1format_1_1anvil_1_1_anvil.html#aec1968f7e79949d34922e1d707a2ca3c" target="_top" xlink:title="pocketmine\\level\\format\l\\anvil\\Anvil\\setChunk">
<polygon fill="white" stroke="black" points="623.5,-164 623.5,-198 744.5,-198 744.5,-164 623.5,-164"/>
<text text-anchor="start" x="631.5" y="-185" font-family="Helvetica,sans-Serif" font-size="10.00">pocketmine\level\format</text>
<text text-anchor="middle" x="684" y="-172" font-family="Helvetica,sans-Serif" font-size="10.00">\anvil\Anvil\setChunk</text>
</a>
</g>
<!-- Node1&#45;&gt;Node8 -->
<g id="edge18" class="edge"><title>Node1&#45;&gt;Node8</title>
<path fill="none" stroke="midnightblue" d="M115.457,-166.096C170.969,-197.428 279.378,-253.263 380,-274 463.577,-291.224 491.738,-302.979 572,-274 613.839,-258.894 651.087,-220.602 670.281,-198.144"/>
<polygon fill="midnightblue" stroke="midnightblue" points="117.11,-163.01 106.688,-161.102 113.645,-169.092 117.11,-163.01"/>
</g>
<!-- Node9 -->
<g id="node17" class="node"><title>Node9</title>
<a xlink:href="../../d7/d67/classpocketmine_1_1level_1_1format_1_1mcregion_1_1_mc_region.html#a6af3f40ad4eff7971dd4704180b8e127" target="_top" xlink:title="pocketmine\\level\\format\l\\mcregion\\McRegion\\setChunk">
<polygon fill="white" stroke="black" points="608,-0 608,-34 760,-34 760,-0 608,-0"/>
<text text-anchor="start" x="616" y="-21" font-family="Helvetica,sans-Serif" font-size="10.00">pocketmine\level\format</text>
<text text-anchor="middle" x="684" y="-8" font-family="Helvetica,sans-Serif" font-size="10.00">\mcregion\McRegion\setChunk</text>
</a>
</g>
<!-- Node1&#45;&gt;Node9 -->
<g id="edge20" class="edge"><title>Node1&#45;&gt;Node9</title>
<path fill="none" stroke="midnightblue" d="M115.457,-121.904C170.969,-90.5719 279.378,-34.7371 380,-14 456.378,1.74072 545.855,-1.68732 607.87,-7.40093"/>
<polygon fill="midnightblue" stroke="midnightblue" points="113.645,-118.908 106.688,-126.898 117.11,-124.99 113.645,-118.908"/>
</g>
<!-- Node3 -->
<g id="node5" class="node"><title>Node3</title>
<a xlink:href="../../d7/d67/classpocketmine_1_1level_1_1format_1_1mcregion_1_1_mc_region.html#a5980b79610938297b9c1d5e20c70c083" target="_top" xlink:title="pocketmine\\level\\format\l\\mcregion\\McRegion\\isChunkGenerated">
<polygon fill="white" stroke="black" points="380.5,-179 380.5,-213 571.5,-213 571.5,-179 380.5,-179"/>
<text text-anchor="start" x="388.5" y="-200" font-family="Helvetica,sans-Serif" font-size="10.00">pocketmine\level\format</text>
<text text-anchor="middle" x="476" y="-187" font-family="Helvetica,sans-Serif" font-size="10.00">\mcregion\McRegion\isChunkGenerated</text>
</a>
</g>
<!-- Node2&#45;&gt;Node3 -->
<g id="edge4" class="edge"><title>Node2&#45;&gt;Node3</title>
<path fill="none" stroke="midnightblue" d="M345.947,-163.487C366.254,-168.563 387.977,-173.994 407.74,-178.935"/>
<polygon fill="midnightblue" stroke="midnightblue" points="346.657,-160.057 336.107,-161.027 344.96,-166.848 346.657,-160.057"/>
</g>
<!-- Node4 -->
<g id="node7" class="node"><title>Node4</title>
<a xlink:href="../../d7/d67/classpocketmine_1_1level_1_1format_1_1mcregion_1_1_mc_region.html#a744c6a65ba9ea1f25ae45d63b704419b" target="_top" xlink:title="pocketmine\\level\\format\l\\mcregion\\McRegion\\isChunkPopulated">
<polygon fill="white" stroke="black" points="381.5,-127 381.5,-161 570.5,-161 570.5,-127 381.5,-127"/>
<text text-anchor="start" x="389.5" y="-148" font-family="Helvetica,sans-Serif" font-size="10.00">pocketmine\level\format</text>
<text text-anchor="middle" x="476" y="-135" font-family="Helvetica,sans-Serif" font-size="10.00">\mcregion\McRegion\isChunkPopulated</text>
</a>
</g>
<!-- Node2&#45;&gt;Node4 -->
<g id="edge6" class="edge"><title>Node2&#45;&gt;Node4</title>
<path fill="none" stroke="midnightblue" d="M354.556,-144C363.399,-144 372.415,-144 381.339,-144"/>
<polygon fill="midnightblue" stroke="midnightblue" points="354.27,-140.5 344.27,-144 354.27,-147.5 354.27,-140.5"/>
</g>
<!-- Node5 -->
<g id="node9" class="node"><title>Node5</title>
<a xlink:href="../../d7/d67/classpocketmine_1_1level_1_1format_1_1mcregion_1_1_mc_region.html#af166601a69942266fec195f2a9364bdc" target="_top" xlink:title="pocketmine\\level\\format\l\\mcregion\\McRegion\\requestChunkTask">
<polygon fill="white" stroke="black" points="380,-75 380,-109 572,-109 572,-75 380,-75"/>
<text text-anchor="start" x="388" y="-96" font-family="Helvetica,sans-Serif" font-size="10.00">pocketmine\level\format</text>
<text text-anchor="middle" x="476" y="-83" font-family="Helvetica,sans-Serif" font-size="10.00">\mcregion\McRegion\requestChunkTask</text>
</a>
</g>
<!-- Node2&#45;&gt;Node5 -->
<g id="edge8" class="edge"><title>Node2&#45;&gt;Node5</title>
<path fill="none" stroke="midnightblue" d="M345.947,-124.513C366.254,-119.437 387.977,-114.006 407.74,-109.065"/>
<polygon fill="midnightblue" stroke="midnightblue" points="344.96,-121.152 336.107,-126.973 346.657,-127.943 344.96,-121.152"/>
</g>
<!-- Node6 -->
<g id="node11" class="node"><title>Node6</title>
<a xlink:href="../../d7/d67/classpocketmine_1_1level_1_1format_1_1mcregion_1_1_mc_region.html#ac0e8d5940e4d6227858940e7a62f3890" target="_top" xlink:title="pocketmine\\level\\format\l\\mcregion\\McRegion\\saveChunk">
<polygon fill="white" stroke="black" points="396.5,-231 396.5,-265 555.5,-265 555.5,-231 396.5,-231"/>
<text text-anchor="start" x="404.5" y="-252" font-family="Helvetica,sans-Serif" font-size="10.00">pocketmine\level\format</text>
<text text-anchor="middle" x="476" y="-239" font-family="Helvetica,sans-Serif" font-size="10.00">\mcregion\McRegion\saveChunk</text>
</a>
</g>
<!-- Node2&#45;&gt;Node6 -->
<g id="edge10" class="edge"><title>Node2&#45;&gt;Node6</title>
<path fill="none" stroke="midnightblue" d="M295.957,-167.57C317.659,-184.812 349.152,-207.613 380,-222 387.198,-225.357 394.91,-228.348 402.717,-230.994"/>
<polygon fill="midnightblue" stroke="midnightblue" points="298.121,-164.819 288.141,-161.264 293.726,-170.267 298.121,-164.819"/>
</g>
<!-- Node7 -->
<g id="node13" class="node"><title>Node7</title>
<a xlink:href="../../d7/d67/classpocketmine_1_1level_1_1format_1_1mcregion_1_1_mc_region.html#a9bb6e27addea14e16814b160f2b274ea" target="_top" xlink:title="pocketmine\\level\\format\l\\mcregion\\McRegion\\unloadChunk">
<polygon fill="white" stroke="black" points="392.5,-23 392.5,-57 559.5,-57 559.5,-23 392.5,-23"/>
<text text-anchor="start" x="400.5" y="-44" font-family="Helvetica,sans-Serif" font-size="10.00">pocketmine\level\format</text>
<text text-anchor="middle" x="476" y="-31" font-family="Helvetica,sans-Serif" font-size="10.00">\mcregion\McRegion\unloadChunk</text>
</a>
</g>
<!-- Node2&#45;&gt;Node7 -->
<g id="edge12" class="edge"><title>Node2&#45;&gt;Node7</title>
<path fill="none" stroke="midnightblue" d="M295.957,-120.43C317.659,-103.188 349.152,-80.3873 380,-66 387.198,-62.6427 394.91,-59.6524 402.717,-57.0057"/>
<polygon fill="midnightblue" stroke="midnightblue" points="293.726,-117.733 288.141,-126.736 298.121,-123.181 293.726,-117.733"/>
</g>
<!-- Node7&#45;&gt;Node8 -->
<g id="edge14" class="edge"><title>Node7&#45;&gt;Node8</title>
<path fill="none" stroke="midnightblue" d="M562.692,-61.0608C565.891,-62.5961 569.007,-64.24 572,-66 615.483,-91.5683 653.467,-138.469 671.99,-163.756"/>
<polygon fill="midnightblue" stroke="midnightblue" points="564.045,-57.8326 553.482,-57.0159 561.23,-64.2417 564.045,-57.8326"/>
</g>
<!-- Node7&#45;&gt;Node9 -->
<g id="edge16" class="edge"><title>Node7&#45;&gt;Node9</title>
<path fill="none" stroke="midnightblue" d="M569.848,-29.6225C582.572,-28.2156 595.501,-26.786 607.863,-25.419"/>
<polygon fill="midnightblue" stroke="midnightblue" points="569.257,-26.1665 559.702,-30.7444 570.027,-33.1241 569.257,-26.1665"/>
</g>
</g>
</svg>
