<?xml version="1.0" encoding="UTF-8" standalone="no"?>
<!DOCTYPE svg PUBLIC "-//W3C//DTD SVG 1.1//EN"
 "http://www.w3.org/Graphics/SVG/1.1/DTD/svg11.dtd">
<!-- Generated by graphviz version 2.36.0 (20140111.2315)
 -->
<!-- Title: pocketmine\level\format\mcregion\McRegion\isChunkGenerated Pages: 1 -->
<svg width="974pt" height="97pt"
 viewBox="0.00 0.00 974.00 96.82" xmlns="http://www.w3.org/2000/svg" xmlns:xlink="http://www.w3.org/1999/xlink">
<g id="graph0" class="graph" transform="scale(1 1) rotate(0) translate(4 92.8212)">
<title>pocketmine\level\format\mcregion\McRegion\isChunkGenerated</title>
<polygon fill="white" stroke="none" points="-4,4 -4,-92.8212 970,-92.8212 970,4 -4,4"/>
<!-- Node1 -->
<g id="node1" class="node"><title>Node1</title>
<polygon fill="#bfbfbf" stroke="black" points="0,-19 0,-49 204,-49 204,-19 0,-19"/>
<text text-anchor="start" x="8" y="-37" font-family="Helvetica,sans-Serif" font-size="10.00">pocketmine\level\format</text>
<text text-anchor="middle" x="102" y="-26" font-family="Helvetica,sans-Serif" font-size="10.00">\mcregion\McRegion\isChunkGenerated</text>
</g>
<!-- Node2 -->
<g id="node2" class="node"><title>Node2</title>
<g id="a_node2"><a xlink:href="../../d7/d67/classpocketmine_1_1level_1_1format_1_1mcregion_1_1_mc_region.html#a27e010e8d3d98672b3613fc7c0a4e5c2" target="_top" xlink:title="pocketmine\\level\\format\l\\mcregion\\McRegion\\getChunk">
<polygon fill="white" stroke="black" points="240.5,-41 240.5,-71 401.5,-71 401.5,-41 240.5,-41"/>
<text text-anchor="start" x="248.5" y="-59" font-family="Helvetica,sans-Serif" font-size="10.00">pocketmine\level\format</text>
<text text-anchor="middle" x="321" y="-48" font-family="Helvetica,sans-Serif" font-size="10.00">\mcregion\McRegion\getChunk</text>
</a>
</g>
</g>
<!-- Node1&#45;&gt;Node2 -->
<g id="edge1" class="edge"><title>Node1&#45;&gt;Node2</title>
<path fill="none" stroke="midnightblue" d="M204.194,-44.2593C212.93,-45.145 221.729,-46.0371 230.364,-46.9125"/>
<polygon fill="midnightblue" stroke="midnightblue" points="230.109,-50.4045 240.411,-47.9311 230.815,-43.4402 230.109,-50.4045"/>
</g>
<!-- Node5 -->
<g id="node5" class="node"><title>Node5</title>
<g id="a_node5"><a xlink:href="../../d7/d67/classpocketmine_1_1level_1_1format_1_1mcregion_1_1_mc_region.html#a75f2b90d7bf8615fab30508983c0d020" target="_top" xlink:title="pocketmine\\level\\format\l\\mcregion\\McRegion\\getRegion">
<polygon fill="white" stroke="black" points="640.5,-0 640.5,-30 803.5,-30 803.5,-0 640.5,-0"/>
<text text-anchor="start" x="648.5" y="-18" font-family="Helvetica,sans-Serif" font-size="10.00">pocketmine\level\format</text>
<text text-anchor="middle" x="722" y="-7" font-family="Helvetica,sans-Serif" font-size="10.00">\mcregion\McRegion\getRegion</text>
</a>
</g>
</g>
<!-- Node1&#45;&gt;Node5 -->
<g id="edge7" class="edge"><title>Node1&#45;&gt;Node5</title>
<path fill="none" stroke="midnightblue" d="M204.013,-30.8944C322.277,-27.2585 516.41,-21.29 630.123,-17.794"/>
<polygon fill="midnightblue" stroke="midnightblue" points="630.307,-21.29 640.195,-17.4843 630.092,-14.2933 630.307,-21.29"/>
</g>
<!-- Node3 -->
<g id="node3" class="node"><title>Node3</title>
<g id="a_node3"><a xlink:href="../../d3/d4b/classpocketmine_1_1level_1_1_level.html#a4be83538c608928a193884ea26010d96" target="_top" xlink:title="pocketmine\\level\\Level\l\\chunkHash">
<polygon fill="white" stroke="black" points="840.5,-44 840.5,-74 965.5,-74 965.5,-44 840.5,-44"/>
<text text-anchor="start" x="848.5" y="-62" font-family="Helvetica,sans-Serif" font-size="10.00">pocketmine\level\Level</text>
<text text-anchor="middle" x="903" y="-51" font-family="Helvetica,sans-Serif" font-size="10.00">\chunkHash</text>
</a>
</g>
</g>
<!-- Node2&#45;&gt;Node3 -->
<g id="edge2" class="edge"><title>Node2&#45;&gt;Node3</title>
<path fill="none" stroke="midnightblue" d="M383.042,-71.0609C400.663,-74.7452 419.997,-78.1571 438,-80 599.86,-96.5687 641.895,-85.9642 804,-72 812.573,-71.2615 821.546,-70.3138 830.434,-69.267"/>
<polygon fill="midnightblue" stroke="midnightblue" points="830.905,-72.7355 840.407,-68.0489 830.057,-65.7871 830.905,-72.7355"/>
</g>
<!-- Node4 -->
<g id="node4" class="node"><title>Node4</title>
<g id="a_node4"><a xlink:href="../../d7/d67/classpocketmine_1_1level_1_1format_1_1mcregion_1_1_mc_region.html#adb792b4875655b069461ff49c2854e62" target="_top" xlink:title="pocketmine\\level\\format\l\\mcregion\\McRegion\\loadChunk">
<polygon fill="white" stroke="black" points="438,-41 438,-71 604,-71 604,-41 438,-41"/>
<text text-anchor="start" x="446" y="-59" font-family="Helvetica,sans-Serif" font-size="10.00">pocketmine\level\format</text>
<text text-anchor="middle" x="521" y="-48" font-family="Helvetica,sans-Serif" font-size="10.00">\mcregion\McRegion\loadChunk</text>
</a>
</g>
</g>
<!-- Node2&#45;&gt;Node4 -->
<g id="edge3" class="edge"><title>Node2&#45;&gt;Node4</title>
<path fill="none" stroke="midnightblue" d="M401.678,-56C410.252,-56 419.026,-56 427.73,-56"/>
<polygon fill="midnightblue" stroke="midnightblue" points="427.901,-59.5001 437.901,-56 427.901,-52.5001 427.901,-59.5001"/>
</g>
<!-- Node4&#45;&gt;Node3 -->
<g id="edge4" class="edge"><title>Node4&#45;&gt;Node3</title>
<path fill="none" stroke="midnightblue" d="M604.454,-56.651C671.794,-57.1826 766.007,-57.9264 830.263,-58.4337"/>
<polygon fill="midnightblue" stroke="midnightblue" points="830.282,-61.9338 840.309,-58.513 830.337,-54.934 830.282,-61.9338"/>
</g>
<!-- Node4&#45;&gt;Node5 -->
<g id="edge5" class="edge"><title>Node4&#45;&gt;Node5</title>
<path fill="none" stroke="midnightblue" d="M594.97,-40.9659C609.03,-38.0691 623.853,-35.0153 638.198,-32.0596"/>
<polygon fill="midnightblue" stroke="midnightblue" points="638.951,-35.4783 648.039,-30.0323 637.538,-28.6223 638.951,-35.4783"/>
</g>
<!-- Node5&#45;&gt;Node3 -->
<g id="edge6" class="edge"><title>Node5&#45;&gt;Node3</title>
<path fill="none" stroke="midnightblue" d="M784.101,-30.0192C799.139,-33.7156 815.369,-37.7053 830.837,-41.5074"/>
<polygon fill="midnightblue" stroke="midnightblue" points="830.324,-44.9855 840.871,-43.9738 831.995,-38.1879 830.324,-44.9855"/>
</g>
</g>
</svg>
