<?xml version="1.0" encoding="UTF-8" standalone="no"?>
<!DOCTYPE svg PUBLIC "-//W3C//DTD SVG 1.1//EN"
 "http://www.w3.org/Graphics/SVG/1.1/DTD/svg11.dtd">
<!-- Generated by graphviz version 2.26.3 (20100126.1600)
 -->
<!-- Title: pocketmine\level\format\mcregion\McRegion\unloadChunk Pages: 1 -->
<svg width="768pt" height="170pt"
 viewBox="0.00 0.00 768.00 170.00" xmlns="http://www.w3.org/2000/svg" xmlns:xlink="http://www.w3.org/1999/xlink">
<g id="graph1" class="graph" transform="scale(1 1) rotate(0) translate(4 166)">
<title>pocketmine\level\format\mcregion\McRegion\unloadChunk</title>
<polygon fill="white" stroke="white" points="-4,5 -4,-166 765,-166 765,5 -4,5"/>
<!-- Node1 -->
<g id="node1" class="node"><title>Node1</title>
<polygon fill="#bfbfbf" stroke="black" points="0.5,-83 0.5,-117 167.5,-117 167.5,-83 0.5,-83"/>
<text text-anchor="start" x="8.5" y="-104" font-family="Helvetica,sans-Serif" font-size="10.00">pocketmine\level\format</text>
<text text-anchor="middle" x="84" y="-91" font-family="Helvetica,sans-Serif" font-size="10.00">\mcregion\McRegion\unloadChunk</text>
</g>
<!-- Node2 -->
<g id="node3" class="node"><title>Node2</title>
<a xlink:href="../../d3/d4b/classpocketmine_1_1level_1_1_level.html#a4be83538c608928a193884ea26010d96" target="_top" xlink:title="pocketmine\\level\\Level\l\\chunkHash">
<polygon fill="white" stroke="black" points="625,-67 625,-101 741,-101 741,-67 625,-67"/>
<text text-anchor="start" x="633" y="-88" font-family="Helvetica,sans-Serif" font-size="10.00">pocketmine\level\Level</text>
<text text-anchor="middle" x="683" y="-75" font-family="Helvetica,sans-Serif" font-size="10.00">\chunkHash</text>
</a>
</g>
<!-- Node1&#45;&gt;Node2 -->
<g id="edge2" class="edge"><title>Node1&#45;&gt;Node2</title>
<path fill="none" stroke="midnightblue" d="M167.604,-97.7669C287.093,-94.5752 504.432,-88.7698 614.784,-85.8221"/>
<polygon fill="midnightblue" stroke="midnightblue" points="614.897,-89.3205 624.8,-85.5546 614.71,-82.323 614.897,-89.3205"/>
</g>
<!-- Node3 -->
<g id="node5" class="node"><title>Node3</title>
<a xlink:href="../../d7/d67/classpocketmine_1_1level_1_1format_1_1mcregion_1_1_mc_region.html#a27e010e8d3d98672b3613fc7c0a4e5c2" target="_top" xlink:title="pocketmine\\level\\format\l\\mcregion\\McRegion\\getChunk">
<polygon fill="white" stroke="black" points="204,-38 204,-72 356,-72 356,-38 204,-38"/>
<text text-anchor="start" x="212" y="-59" font-family="Helvetica,sans-Serif" font-size="10.00">pocketmine\level\format</text>
<text text-anchor="middle" x="280" y="-46" font-family="Helvetica,sans-Serif" font-size="10.00">\mcregion\McRegion\getChunk</text>
</a>
</g>
<!-- Node1&#45;&gt;Node3 -->
<g id="edge4" class="edge"><title>Node1&#45;&gt;Node3</title>
<path fill="none" stroke="midnightblue" d="M158.099,-82.9874C170.417,-80.1594 183.271,-77.2082 195.817,-74.3278"/>
<polygon fill="midnightblue" stroke="midnightblue" points="196.833,-77.6856 205.796,-72.0366 195.266,-70.8632 196.833,-77.6856"/>
</g>
<!-- Node6 -->
<g id="node13" class="node"><title>Node6</title>
<a xlink:href="../../d7/d67/classpocketmine_1_1level_1_1format_1_1mcregion_1_1_mc_region.html#ad400b0201e4b7997e568fea566827086" target="_top" xlink:title="pocketmine\\level\\format\l\\mcregion\\McRegion\\isChunkLoaded">
<polygon fill="white" stroke="black" points="392.5,-128 392.5,-162 569.5,-162 569.5,-128 392.5,-128"/>
<text text-anchor="start" x="400.5" y="-149" font-family="Helvetica,sans-Serif" font-size="10.00">pocketmine\level\format</text>
<text text-anchor="middle" x="481" y="-136" font-family="Helvetica,sans-Serif" font-size="10.00">\mcregion\McRegion\isChunkLoaded</text>
</a>
</g>
<!-- Node1&#45;&gt;Node6 -->
<g id="edge14" class="edge"><title>Node1&#45;&gt;Node6</title>
<path fill="none" stroke="midnightblue" d="M167.593,-109.804C179.804,-111.221 192.226,-112.654 204,-114 263.168,-120.762 329.464,-128.187 382.361,-134.075"/>
<polygon fill="midnightblue" stroke="midnightblue" points="382.09,-137.566 392.416,-135.193 382.864,-130.609 382.09,-137.566"/>
</g>
<!-- Node3&#45;&gt;Node2 -->
<g id="edge6" class="edge"><title>Node3&#45;&gt;Node2</title>
<path fill="none" stroke="midnightblue" d="M356.275,-60.4888C430.767,-65.8492 543.088,-73.9319 614.718,-79.0864"/>
<polygon fill="midnightblue" stroke="midnightblue" points="614.756,-82.5981 624.981,-79.825 615.258,-75.6161 614.756,-82.5981"/>
</g>
<!-- Node4 -->
<g id="node8" class="node"><title>Node4</title>
<a xlink:href="../../d7/d67/classpocketmine_1_1level_1_1format_1_1mcregion_1_1_mc_region.html#adb792b4875655b069461ff49c2854e62" target="_top" xlink:title="pocketmine\\level\\format\l\\mcregion\\McRegion\\loadChunk">
<polygon fill="white" stroke="black" points="403,-0 403,-34 559,-34 559,-0 403,-0"/>
<text text-anchor="start" x="411" y="-21" font-family="Helvetica,sans-Serif" font-size="10.00">pocketmine\level\format</text>
<text text-anchor="middle" x="481" y="-8" font-family="Helvetica,sans-Serif" font-size="10.00">\mcregion\McRegion\loadChunk</text>
</a>
</g>
<!-- Node3&#45;&gt;Node4 -->
<g id="edge8" class="edge"><title>Node3&#45;&gt;Node4</title>
<path fill="none" stroke="midnightblue" d="M356.276,-40.5796C368.163,-38.3324 380.53,-35.9943 392.658,-33.7015"/>
<polygon fill="midnightblue" stroke="midnightblue" points="393.597,-37.086 402.773,-31.7892 392.297,-30.2079 393.597,-37.086"/>
</g>
<!-- Node4&#45;&gt;Node2 -->
<g id="edge10" class="edge"><title>Node4&#45;&gt;Node2</title>
<path fill="none" stroke="midnightblue" d="M532.496,-34.0803C559.682,-43.0974 593.225,-54.2232 621.74,-63.6812"/>
<polygon fill="midnightblue" stroke="midnightblue" points="621.005,-67.1247 631.598,-66.9509 623.209,-60.4806 621.005,-67.1247"/>
</g>
<!-- Node5 -->
<g id="node11" class="node"><title>Node5</title>
<a xlink:href="../../d7/d67/classpocketmine_1_1level_1_1format_1_1mcregion_1_1_mc_region.html#a75f2b90d7bf8615fab30508983c0d020" target="_top" xlink:title="pocketmine\\level\\format\l\\mcregion\\McRegion\\getRegion">
<polygon fill="white" stroke="black" points="606,-0 606,-34 760,-34 760,-0 606,-0"/>
<text text-anchor="start" x="614" y="-21" font-family="Helvetica,sans-Serif" font-size="10.00">pocketmine\level\format</text>
<text text-anchor="middle" x="683" y="-8" font-family="Helvetica,sans-Serif" font-size="10.00">\mcregion\McRegion\getRegion</text>
</a>
</g>
<!-- Node4&#45;&gt;Node5 -->
<g id="edge12" class="edge"><title>Node4&#45;&gt;Node5</title>
<path fill="none" stroke="midnightblue" d="M559.098,-17C571.068,-17 583.49,-17 595.644,-17"/>
<polygon fill="midnightblue" stroke="midnightblue" points="595.775,-20.5001 605.775,-17 595.775,-13.5001 595.775,-20.5001"/>
</g>
<!-- Node6&#45;&gt;Node2 -->
<g id="edge16" class="edge"><title>Node6&#45;&gt;Node2</title>
<path fill="none" stroke="midnightblue" d="M537.537,-127.927C562.169,-120.489 591.208,-111.719 616.837,-103.98"/>
<polygon fill="midnightblue" stroke="midnightblue" points="617.916,-107.31 626.477,-101.069 615.892,-100.609 617.916,-107.31"/>
</g>
</g>
</svg>
