<?xml version="1.0" encoding="UTF-8" standalone="no"?>
<!DOCTYPE svg PUBLIC "-//W3C//DTD SVG 1.1//EN"
 "http://www.w3.org/Graphics/SVG/1.1/DTD/svg11.dtd">
<!-- Generated by graphviz version 2.26.3 (20100126.1600)
 -->
<!-- Title: pocketmine\level\format\mcregion\McRegion\isChunkLoaded Pages: 1 -->
<svg width="338pt" height="42pt"
 viewBox="0.00 0.00 338.00 42.00" xmlns="http://www.w3.org/2000/svg" xmlns:xlink="http://www.w3.org/1999/xlink">
<g id="graph1" class="graph" transform="scale(1 1) rotate(0) translate(4 38)">
<title>pocketmine\level\format\mcregion\McRegion\isChunkLoaded</title>
<polygon fill="white" stroke="white" points="-4,5 -4,-38 335,-38 335,5 -4,5"/>
<!-- Node1 -->
<g id="node1" class="node"><title>Node1</title>
<polygon fill="#bfbfbf" stroke="black" points="0.5,-0 0.5,-34 177.5,-34 177.5,-0 0.5,-0"/>
<text text-anchor="start" x="8.5" y="-21" font-family="Helvetica,sans-Serif" font-size="10.00">pocketmine\level\format</text>
<text text-anchor="middle" x="89" y="-8" font-family="Helvetica,sans-Serif" font-size="10.00">\mcregion\McRegion\isChunkLoaded</text>
</g>
<!-- Node2 -->
<g id="node3" class="node"><title>Node2</title>
<a xlink:href="../../d3/d4b/classpocketmine_1_1level_1_1_level.html#a4be83538c608928a193884ea26010d96" target="_top" xlink:title="pocketmine\\level\\Level\l\\chunkHash">
<polygon fill="white" stroke="black" points="214,-0 214,-34 330,-34 330,-0 214,-0"/>
<text text-anchor="start" x="222" y="-21" font-family="Helvetica,sans-Serif" font-size="10.00">pocketmine\level\Level</text>
<text text-anchor="middle" x="272" y="-8" font-family="Helvetica,sans-Serif" font-size="10.00">\chunkHash</text>
</a>
</g>
<!-- Node1&#45;&gt;Node2 -->
<g id="edge2" class="edge"><title>Node1&#45;&gt;Node2</title>
<path fill="none" stroke="midnightblue" d="M177.552,-17C186.308,-17 195.1,-17 203.607,-17"/>
<polygon fill="midnightblue" stroke="midnightblue" points="203.821,-20.5001 213.821,-17 203.821,-13.5001 203.821,-20.5001"/>
</g>
</g>
</svg>
