<?xml version="1.0" encoding="UTF-8" standalone="no"?>
<!DOCTYPE svg PUBLIC "-//W3C//DTD SVG 1.1//EN"
 "http://www.w3.org/Graphics/SVG/1.1/DTD/svg11.dtd">
<!-- Generated by graphviz version 2.26.3 (20100126.1600)
 -->
<!-- Title: pocketmine\nbt\tag\End Pages: 1 -->
<svg width="128pt" height="364pt"
 viewBox="0.00 0.00 128.00 364.00" xmlns="http://www.w3.org/2000/svg" xmlns:xlink="http://www.w3.org/1999/xlink">
<g id="graph1" class="graph" transform="scale(1 1) rotate(0) translate(4 360)">
<title>pocketmine\nbt\tag\End</title>
<polygon fill="white" stroke="white" points="-4,5 -4,-360 125,-360 125,5 -4,5"/>
<!-- Node1 -->
<g id="node1" class="node"><title>Node1</title>
<polygon fill="#bfbfbf" stroke="black" points="0,-0.5 0,-89.5 120,-89.5 120,-0.5 0,-0.5"/>
<text text-anchor="middle" x="60" y="-76.5" font-family="Helvetica,sans-Serif" font-size="10.00">pocketmine\nbt\tag\End</text>
<polyline fill="none" stroke="black" points="0,-68.5 120,-68.5 "/>
<text text-anchor="middle" x="60" y="-55.5" font-family="Helvetica,sans-Serif" font-size="10.00"> </text>
<polyline fill="none" stroke="black" points="0,-47.5 120,-47.5 "/>
<text text-anchor="start" x="8" y="-34.5" font-family="Helvetica,sans-Serif" font-size="10.00">+ getType()</text>
<text text-anchor="start" x="8" y="-21.5" font-family="Helvetica,sans-Serif" font-size="10.00">+ read()</text>
<text text-anchor="start" x="8" y="-8.5" font-family="Helvetica,sans-Serif" font-size="10.00">+ write()</text>
</g>
<!-- Node2 -->
<g id="node2" class="node"><title>Node2</title>
<a xlink:href="../../dc/d26/classpocketmine_1_1nbt_1_1tag_1_1_tag.html" target="_top" xlink:title="{pocketmine\\nbt\\tag\\Tag\n|# $value\l|+ getValue()\l+ getType()\l+ setValue()\l+ write()\l+ read()\l+ __toString()\l}">
<polygon fill="white" stroke="black" points="0.5,-127 0.5,-255 119.5,-255 119.5,-127 0.5,-127"/>
<text text-anchor="middle" x="60" y="-242" font-family="Helvetica,sans-Serif" font-size="10.00">pocketmine\nbt\tag\Tag</text>
<polyline fill="none" stroke="black" points="0.5,-234 119.5,-234 "/>
<text text-anchor="start" x="8.5" y="-221" font-family="Helvetica,sans-Serif" font-size="10.00"># $value</text>
<polyline fill="none" stroke="black" points="0.5,-213 119.5,-213 "/>
<text text-anchor="start" x="8.5" y="-200" font-family="Helvetica,sans-Serif" font-size="10.00">+ getValue()</text>
<text text-anchor="start" x="8.5" y="-187" font-family="Helvetica,sans-Serif" font-size="10.00">+ getType()</text>
<text text-anchor="start" x="8.5" y="-174" font-family="Helvetica,sans-Serif" font-size="10.00">+ setValue()</text>
<text text-anchor="start" x="8.5" y="-161" font-family="Helvetica,sans-Serif" font-size="10.00">+ write()</text>
<text text-anchor="start" x="8.5" y="-148" font-family="Helvetica,sans-Serif" font-size="10.00">+ read()</text>
<text text-anchor="start" x="8.5" y="-135" font-family="Helvetica,sans-Serif" font-size="10.00">+ __toString()</text>
</a>
</g>
<!-- Node2&#45;&gt;Node1 -->
<g id="edge2" class="edge"><title>Node2&#45;&gt;Node1</title>
<path fill="none" stroke="midnightblue" d="M60,-116.902C60,-107.612 60,-98.3468 60,-89.7069"/>
<polygon fill="none" stroke="midnightblue" points="56.5001,-116.962 60,-126.962 63.5001,-116.962 56.5001,-116.962"/>
</g>
<!-- Node3 -->
<g id="node4" class="node"><title>Node3</title>
<polygon fill="white" stroke="#bfbfbf" points="32,-292.5 32,-355.5 88,-355.5 88,-292.5 32,-292.5"/>
<text text-anchor="middle" x="60" y="-342.5" font-family="Helvetica,sans-Serif" font-size="10.00">stdClass</text>
<polyline fill="none" stroke="#bfbfbf" points="32,-334.5 88,-334.5 "/>
<text text-anchor="middle" x="60" y="-321.5" font-family="Helvetica,sans-Serif" font-size="10.00"> </text>
<polyline fill="none" stroke="#bfbfbf" points="32,-313.5 88,-313.5 "/>
<text text-anchor="middle" x="60" y="-300.5" font-family="Helvetica,sans-Serif" font-size="10.00"> </text>
</g>
<!-- Node3&#45;&gt;Node2 -->
<g id="edge4" class="edge"><title>Node3&#45;&gt;Node2</title>
<path fill="none" stroke="midnightblue" d="M60,-282.338C60,-273.719 60,-264.45 60,-255.239"/>
<polygon fill="none" stroke="midnightblue" points="56.5001,-282.481 60,-292.481 63.5001,-282.481 56.5001,-282.481"/>
</g>
</g>
</svg>
