<?xml version="1.0" encoding="UTF-8" standalone="no"?>
<!DOCTYPE svg PUBLIC "-//W3C//DTD SVG 1.1//EN"
 "http://www.w3.org/Graphics/SVG/1.1/DTD/svg11.dtd">
<!-- Generated by graphviz version 2.36.0 (20140111.2315)
 -->
<!-- Title: pocketmine\entity\Living\getTargetBlock Pages: 1 -->
<svg width="482pt" height="38pt"
 viewBox="0.00 0.00 482.00 38.00" xmlns="http://www.w3.org/2000/svg" xmlns:xlink="http://www.w3.org/1999/xlink">
<g id="graph0" class="graph" transform="scale(1 1) rotate(0) translate(4 34)">
<title>pocketmine\entity\Living\getTargetBlock</title>
<polygon fill="white" stroke="none" points="-4,4 -4,-34 478,-34 478,4 -4,4"/>
<!-- Node1 -->
<g id="node1" class="node"><title>Node1</title>
<polygon fill="#bfbfbf" stroke="black" points="0.5,-0 0.5,-30 133.5,-30 133.5,-0 0.5,-0"/>
<text text-anchor="start" x="8.5" y="-18" font-family="Helvetica,sans-Serif" font-size="10.00">pocketmine\entity\Living</text>
<text text-anchor="middle" x="67" y="-7" font-family="Helvetica,sans-Serif" font-size="10.00">\getTargetBlock</text>
</g>
<!-- Node2 -->
<g id="node2" class="node"><title>Node2</title>
<g id="a_node2"><a xlink:href="../../df/d0c/classpocketmine_1_1entity_1_1_living.html#ad2a7d93e9ca3a8221f483ba96a0f3726" target="_top" xlink:title="pocketmine\\entity\\Living\l\\getLineOfSight">
<polygon fill="white" stroke="black" points="170.5,-0 170.5,-30 303.5,-30 303.5,-0 170.5,-0"/>
<text text-anchor="start" x="178.5" y="-18" font-family="Helvetica,sans-Serif" font-size="10.00">pocketmine\entity\Living</text>
<text text-anchor="middle" x="237" y="-7" font-family="Helvetica,sans-Serif" font-size="10.00">\getLineOfSight</text>
</a>
</g>
</g>
<!-- Node1&#45;&gt;Node2 -->
<g id="edge1" class="edge"><title>Node1&#45;&gt;Node2</title>
<path fill="none" stroke="midnightblue" d="M133.916,-15C142.505,-15 151.359,-15 160.096,-15"/>
<polygon fill="midnightblue" stroke="midnightblue" points="160.274,-18.5001 170.274,-15 160.274,-11.5001 160.274,-18.5001"/>
</g>
<!-- Node3 -->
<g id="node3" class="node"><title>Node3</title>
<g id="a_node3"><a xlink:href="../../d2/d3c/classpocketmine_1_1entity_1_1_entity.html#abacf7fc4f84e0ad112ba17638dc5cd1d" target="_top" xlink:title="pocketmine\\entity\\Entity\l\\getDirectionVector">
<polygon fill="white" stroke="black" points="340.5,-0 340.5,-30 473.5,-30 473.5,-0 340.5,-0"/>
<text text-anchor="start" x="348.5" y="-18" font-family="Helvetica,sans-Serif" font-size="10.00">pocketmine\entity\Entity</text>
<text text-anchor="middle" x="407" y="-7" font-family="Helvetica,sans-Serif" font-size="10.00">\getDirectionVector</text>
</a>
</g>
</g>
<!-- Node2&#45;&gt;Node3 -->
<g id="edge2" class="edge"><title>Node2&#45;&gt;Node3</title>
<path fill="none" stroke="midnightblue" d="M303.916,-15C312.505,-15 321.359,-15 330.096,-15"/>
<polygon fill="midnightblue" stroke="midnightblue" points="330.274,-18.5001 340.274,-15 330.274,-11.5001 330.274,-18.5001"/>
</g>
</g>
</svg>
