<?xml version="1.0" encoding="UTF-8" standalone="no"?>
<!DOCTYPE svg PUBLIC "-//W3C//DTD SVG 1.1//EN"
 "http://www.w3.org/Graphics/SVG/1.1/DTD/svg11.dtd">
<!-- Generated by graphviz version 2.36.0 (20140111.2315)
 -->
<!-- Title: pocketmine\plugin\PluginManager\callEvent Pages: 1 -->
<svg width="314pt" height="87pt"
 viewBox="0.00 0.00 314.00 87.00" xmlns="http://www.w3.org/2000/svg" xmlns:xlink="http://www.w3.org/1999/xlink">
<g id="graph0" class="graph" transform="scale(1 1) rotate(0) translate(4 83)">
<title>pocketmine\plugin\PluginManager\callEvent</title>
<polygon fill="white" stroke="none" points="-4,4 -4,-83 310,-83 310,4 -4,4"/>
<!-- Node1 -->
<g id="node1" class="node"><title>Node1</title>
<polygon fill="#bfbfbf" stroke="black" points="0,-24 0,-54 136,-54 136,-24 0,-24"/>
<text text-anchor="start" x="8" y="-42" font-family="Helvetica,sans-Serif" font-size="10.00">pocketmine\plugin\Plugin</text>
<text text-anchor="middle" x="68" y="-31" font-family="Helvetica,sans-Serif" font-size="10.00">Manager\callEvent</text>
</g>
<!-- Node2 -->
<g id="node2" class="node"><title>Node2</title>
<g id="a_node2"><a xlink:href="../../d1/d2f/classpocketmine_1_1event_1_1_event.html#a73a70783b4051bd081607b90445bab9e" target="_top" xlink:title="pocketmine\\event\\Event\l\\getEventName">
<polygon fill="white" stroke="black" points="172.5,-49 172.5,-79 305.5,-79 305.5,-49 172.5,-49"/>
<text text-anchor="start" x="180.5" y="-67" font-family="Helvetica,sans-Serif" font-size="10.00">pocketmine\event\Event</text>
<text text-anchor="middle" x="239" y="-56" font-family="Helvetica,sans-Serif" font-size="10.00">\getEventName</text>
</a>
</g>
</g>
<!-- Node1&#45;&gt;Node2 -->
<g id="edge1" class="edge"><title>Node1&#45;&gt;Node2</title>
<path fill="none" stroke="midnightblue" d="M136.279,-48.9525C144.813,-50.215 153.593,-51.5137 162.248,-52.7941"/>
<polygon fill="midnightblue" stroke="midnightblue" points="161.926,-56.2844 172.33,-54.2856 162.95,-49.3598 161.926,-56.2844"/>
</g>
<!-- Node3 -->
<g id="node3" class="node"><title>Node3</title>
<g id="a_node3"><a xlink:href="../../d1/d2f/classpocketmine_1_1event_1_1_event.html#a9afc92a81412fb62149ed949b0193547" target="_top" xlink:title="pocketmine\\event\\Event\l\\getHandlers">
<polygon fill="white" stroke="black" points="172.5,-0 172.5,-30 305.5,-30 305.5,-0 172.5,-0"/>
<text text-anchor="start" x="180.5" y="-18" font-family="Helvetica,sans-Serif" font-size="10.00">pocketmine\event\Event</text>
<text text-anchor="middle" x="239" y="-7" font-family="Helvetica,sans-Serif" font-size="10.00">\getHandlers</text>
</a>
</g>
</g>
<!-- Node1&#45;&gt;Node3 -->
<g id="edge2" class="edge"><title>Node1&#45;&gt;Node3</title>
<path fill="none" stroke="midnightblue" d="M136.279,-29.4456C144.813,-28.2336 153.593,-26.9868 162.248,-25.7576"/>
<polygon fill="midnightblue" stroke="midnightblue" points="162.922,-29.1972 172.33,-24.3259 161.938,-22.2667 162.922,-29.1972"/>
</g>
</g>
</svg>
