<?xml version="1.0" encoding="UTF-8" standalone="no"?>
<!DOCTYPE svg PUBLIC "-//W3C//DTD SVG 1.1//EN"
 "http://www.w3.org/Graphics/SVG/1.1/DTD/svg11.dtd">
<!-- Generated by graphviz version 2.26.3 (20100126.1600)
 -->
<!-- Title: pocketmine\plugin\PluginManager\loadPlugin Pages: 1 -->
<svg width="486pt" height="42pt"
 viewBox="0.00 0.00 486.00 42.00" xmlns="http://www.w3.org/2000/svg" xmlns:xlink="http://www.w3.org/1999/xlink">
<g id="graph1" class="graph" transform="scale(1 1) rotate(0) translate(4 38)">
<title>pocketmine\plugin\PluginManager\loadPlugin</title>
<polygon fill="white" stroke="white" points="-4,5 -4,-38 483,-38 483,5 -4,5"/>
<!-- Node1 -->
<g id="node1" class="node"><title>Node1</title>
<polygon fill="#bfbfbf" stroke="black" points="0.5,-0 0.5,-34 125.5,-34 125.5,-0 0.5,-0"/>
<text text-anchor="start" x="8.5" y="-21" font-family="Helvetica,sans-Serif" font-size="10.00">pocketmine\plugin\Plugin</text>
<text text-anchor="middle" x="63" y="-8" font-family="Helvetica,sans-Serif" font-size="10.00">Manager\loadPlugin</text>
</g>
<!-- Node2 -->
<g id="node3" class="node"><title>Node2</title>
<a xlink:href="../../db/d14/classpocketmine_1_1plugin_1_1_plugin_manager.html#ae9b60788bece074ae0b35205cd0a2a3e" target="_top" xlink:title="pocketmine\\plugin\\Plugin\lManager\\parseYamlCommands">
<polygon fill="white" stroke="black" points="162,-0 162,-34 316,-34 316,-0 162,-0"/>
<text text-anchor="start" x="170" y="-21" font-family="Helvetica,sans-Serif" font-size="10.00">pocketmine\plugin\Plugin</text>
<text text-anchor="middle" x="239" y="-8" font-family="Helvetica,sans-Serif" font-size="10.00">Manager\parseYamlCommands</text>
</a>
</g>
<!-- Node1&#45;&gt;Node2 -->
<g id="edge2" class="edge"><title>Node1&#45;&gt;Node2</title>
<path fill="none" stroke="midnightblue" d="M125.547,-17C134.089,-17 142.982,-17 151.863,-17"/>
<polygon fill="midnightblue" stroke="midnightblue" points="151.866,-20.5001 161.866,-17 151.866,-13.5001 151.866,-20.5001"/>
</g>
<!-- Node3 -->
<g id="node5" class="node"><title>Node3</title>
<a xlink:href="../../d4/d92/interfacepocketmine_1_1plugin_1_1_plugin.html#ab7ef321b514dbd4462709e5b23278b64" target="_top" xlink:title="pocketmine\\plugin\\Plugin\l\\getDescription">
<polygon fill="white" stroke="black" points="352.5,-0 352.5,-34 477.5,-34 477.5,-0 352.5,-0"/>
<text text-anchor="start" x="360.5" y="-21" font-family="Helvetica,sans-Serif" font-size="10.00">pocketmine\plugin\Plugin</text>
<text text-anchor="middle" x="415" y="-8" font-family="Helvetica,sans-Serif" font-size="10.00">\getDescription</text>
</a>
</g>
<!-- Node2&#45;&gt;Node3 -->
<g id="edge4" class="edge"><title>Node2&#45;&gt;Node3</title>
<path fill="none" stroke="midnightblue" d="M316.196,-17C324.893,-17 333.732,-17 342.367,-17"/>
<polygon fill="midnightblue" stroke="midnightblue" points="342.39,-20.5001 352.39,-17 342.39,-13.5001 342.39,-20.5001"/>
</g>
</g>
</svg>
