<?xml version="1.0" encoding="UTF-8" standalone="no"?>
<!DOCTYPE svg PUBLIC "-//W3C//DTD SVG 1.1//EN"
 "http://www.w3.org/Graphics/SVG/1.1/DTD/svg11.dtd">
<!-- Generated by graphviz version 2.36.0 (20140111.2315)
 -->
<!-- Title: pocketmine\plugin\PluginManager\loadPlugins Pages: 1 -->
<svg width="690pt" height="87pt"
 viewBox="0.00 0.00 690.00 87.00" xmlns="http://www.w3.org/2000/svg" xmlns:xlink="http://www.w3.org/1999/xlink">
<g id="graph0" class="graph" transform="scale(1 1) rotate(0) translate(4 83)">
<title>pocketmine\plugin\PluginManager\loadPlugins</title>
<polygon fill="white" stroke="none" points="-4,4 -4,-83 686,-83 686,4 -4,4"/>
<!-- Node1 -->
<g id="node1" class="node"><title>Node1</title>
<polygon fill="#bfbfbf" stroke="black" points="0,-24 0,-54 136,-54 136,-24 0,-24"/>
<text text-anchor="start" x="8" y="-42" font-family="Helvetica,sans-Serif" font-size="10.00">pocketmine\plugin\Plugin</text>
<text text-anchor="middle" x="68" y="-31" font-family="Helvetica,sans-Serif" font-size="10.00">Manager\loadPlugins</text>
</g>
<!-- Node2 -->
<g id="node2" class="node"><title>Node2</title>
<g id="a_node2"><a xlink:href="../../db/d14/classpocketmine_1_1plugin_1_1_plugin_manager.html#a60c056861e722e07a5d1a20b7e1ecd78" target="_top" xlink:title="pocketmine\\plugin\\Plugin\lManager\\getPlugin">
<polygon fill="white" stroke="black" points="172,-49 172,-79 308,-79 308,-49 172,-49"/>
<text text-anchor="start" x="180" y="-67" font-family="Helvetica,sans-Serif" font-size="10.00">pocketmine\plugin\Plugin</text>
<text text-anchor="middle" x="240" y="-56" font-family="Helvetica,sans-Serif" font-size="10.00">Manager\getPlugin</text>
</a>
</g>
</g>
<!-- Node1&#45;&gt;Node2 -->
<g id="edge1" class="edge"><title>Node1&#45;&gt;Node2</title>
<path fill="none" stroke="midnightblue" d="M136.189,-48.8807C144.593,-50.1167 153.242,-51.3885 161.784,-52.6447"/>
<polygon fill="midnightblue" stroke="midnightblue" points="161.34,-56.117 171.743,-54.1092 162.359,-49.1915 161.34,-56.117"/>
</g>
<!-- Node3 -->
<g id="node3" class="node"><title>Node3</title>
<g id="a_node3"><a xlink:href="../../db/d14/classpocketmine_1_1plugin_1_1_plugin_manager.html#a759d1aaaad5d7d951f174dfe9e0d18ea" target="_top" xlink:title="pocketmine\\plugin\\Plugin\lManager\\loadPlugin">
<polygon fill="white" stroke="black" points="172,-0 172,-30 308,-30 308,-0 172,-0"/>
<text text-anchor="start" x="180" y="-18" font-family="Helvetica,sans-Serif" font-size="10.00">pocketmine\plugin\Plugin</text>
<text text-anchor="middle" x="240" y="-7" font-family="Helvetica,sans-Serif" font-size="10.00">Manager\loadPlugin</text>
</a>
</g>
</g>
<!-- Node1&#45;&gt;Node3 -->
<g id="edge2" class="edge"><title>Node1&#45;&gt;Node3</title>
<path fill="none" stroke="midnightblue" d="M136.189,-29.5146C144.593,-28.328 153.242,-27.1071 161.784,-25.9011"/>
<polygon fill="midnightblue" stroke="midnightblue" points="162.33,-29.3588 171.743,-24.4951 161.352,-22.4275 162.33,-29.3588"/>
</g>
<!-- Node4 -->
<g id="node4" class="node"><title>Node4</title>
<g id="a_node4"><a xlink:href="../../db/d14/classpocketmine_1_1plugin_1_1_plugin_manager.html#ae9b60788bece074ae0b35205cd0a2a3e" target="_top" xlink:title="pocketmine\\plugin\\Plugin\lManager\\parseYamlCommands">
<polygon fill="white" stroke="black" points="344,-0 344,-30 510,-30 510,-0 344,-0"/>
<text text-anchor="start" x="352" y="-18" font-family="Helvetica,sans-Serif" font-size="10.00">pocketmine\plugin\Plugin</text>
<text text-anchor="middle" x="427" y="-7" font-family="Helvetica,sans-Serif" font-size="10.00">Manager\parseYamlCommands</text>
</a>
</g>
</g>
<!-- Node3&#45;&gt;Node4 -->
<g id="edge3" class="edge"><title>Node3&#45;&gt;Node4</title>
<path fill="none" stroke="midnightblue" d="M308.051,-15C316.375,-15 324.997,-15 333.618,-15"/>
<polygon fill="midnightblue" stroke="midnightblue" points="333.72,-18.5001 343.72,-15 333.72,-11.5001 333.72,-18.5001"/>
</g>
<!-- Node5 -->
<g id="node5" class="node"><title>Node5</title>
<g id="a_node5"><a xlink:href="../../d4/d92/interfacepocketmine_1_1plugin_1_1_plugin.html#ab7ef321b514dbd4462709e5b23278b64" target="_top" xlink:title="pocketmine\\plugin\\Plugin\l\\getDescription">
<polygon fill="white" stroke="black" points="546,-0 546,-30 682,-30 682,-0 546,-0"/>
<text text-anchor="start" x="554" y="-18" font-family="Helvetica,sans-Serif" font-size="10.00">pocketmine\plugin\Plugin</text>
<text text-anchor="middle" x="614" y="-7" font-family="Helvetica,sans-Serif" font-size="10.00">\getDescription</text>
</a>
</g>
</g>
<!-- Node4&#45;&gt;Node5 -->
<g id="edge4" class="edge"><title>Node4&#45;&gt;Node5</title>
<path fill="none" stroke="midnightblue" d="M510.221,-15C518.66,-15 527.214,-15 535.598,-15"/>
<polygon fill="midnightblue" stroke="midnightblue" points="535.721,-18.5001 545.721,-15 535.721,-11.5001 535.721,-18.5001"/>
</g>
</g>
</svg>
