<?xml version="1.0" encoding="UTF-8" standalone="no"?>
<!DOCTYPE svg PUBLIC "-//W3C//DTD SVG 1.1//EN"
 "http://www.w3.org/Graphics/SVG/1.1/DTD/svg11.dtd">
<!-- Generated by graphviz version 2.36.0 (20140111.2315)
 -->
<!-- Title: pocketmine\plugin\PluginManager\enablePlugin Pages: 1 -->
<!--zoomable 273 -->
<svg id="main" version="1.1" xmlns="http://www.w3.org/2000/svg" xmlns:xlink="http://www.w3.org/1999/xlink" xml:space="preserve" onload="init(evt)">
<style type="text/css"><![CDATA[
.edge:hover path { stroke: red; }
.edge:hover polygon { stroke: red; fill: red; }
]]></style>
<script type="text/javascript"><![CDATA[
var edges = document.getElementsByTagName('g');
if (edges && edges.length) {
  for (var i=0;i<edges.length;i++) {
    if (edges[i].id.substr(0,4)=='edge') {
      edges[i].setAttribute('class','edge');
    }
  }
}
]]></script>
        <defs>
                <circle id="rim" cx="0" cy="0" r="7"/>
                <circle id="rim2" cx="0" cy="0" r="3.5"/>
                <g id="zoomPlus">
                        <use xlink:href="#rim" fill="#404040">
                                <set attributeName="fill" to="#808080" begin="zoomplus.mouseover" end="zoomplus.mouseout"/>
                        </use>
                        <path d="M-4,0h8M0,-4v8" fill="none" stroke="white" stroke-width="1.5" pointer-events="none"/>
                </g>
                <g id="zoomMin">
                        <use xlink:href="#rim" fill="#404040">
                                <set attributeName="fill" to="#808080" begin="zoomminus.mouseover" end="zoomminus.mouseout"/>
                        </use>
                        <path d="M-4,0h8" fill="none" stroke="white" stroke-width="1.5" pointer-events="none"/>
                </g>
                <g id="dirArrow">
                        <path fill="none" stroke="white" stroke-width="1.5" d="M0,-3.0v7 M-2.5,-0.5L0,-3.0L2.5,-0.5"/>
                </g>
               <g id="resetDef">
                       <use xlink:href="#rim2" fill="#404040">
                               <set attributeName="fill" to="#808080" begin="reset.mouseover" end="reset.mouseout"/>
                       </use>
               </g>
        </defs>

<script type="text/javascript">
var viewWidth = 520;
var viewHeight = 273;
var sectionId = 'dynsection-6';
</script>
<script xlink:href="../../svgpan.js"/>
<svg id="graph" class="graph">
<g id="viewport">
<title>pocketmine\plugin\PluginManager\enablePlugin</title>
<polygon fill="white" stroke="none" points="-4,4 -4,-269 516,-269 516,4 -4,4"/>
<!-- Node1 -->
<g id="node1" class="node"><title>Node1</title>
<polygon fill="#bfbfbf" stroke="black" points="0,-142 0,-172 136,-172 136,-142 0,-142"/>
<text text-anchor="start" x="8" y="-160" font-family="Helvetica,sans-Serif" font-size="10.00">pocketmine\plugin\Plugin</text>
<text text-anchor="middle" x="68" y="-149" font-family="Helvetica,sans-Serif" font-size="10.00">Manager\enablePlugin</text>
</g>
<!-- Node2 -->
<g id="node2" class="node"><title>Node2</title>
<g id="a_node2"><a xlink:href="../../db/d14/classpocketmine_1_1plugin_1_1_plugin_manager.html#a96891cf3bb78422c19f7e12477d99b15" target="_top" xlink:title="pocketmine\\plugin\\Plugin\lManager\\addPermission">
<polygon fill="white" stroke="black" points="172,-231 172,-261 308,-261 308,-231 172,-231"/>
<text text-anchor="start" x="180" y="-249" font-family="Helvetica,sans-Serif" font-size="10.00">pocketmine\plugin\Plugin</text>
<text text-anchor="middle" x="240" y="-238" font-family="Helvetica,sans-Serif" font-size="10.00">Manager\addPermission</text>
</a>
</g>
</g>
<!-- Node1&#45;&gt;Node2 -->
<g id="edge1" class="edge"><title>Node1&#45;&gt;Node2</title>
<path fill="none" stroke="midnightblue" d="M96.895,-172.098C117.569,-183.238 146.468,-198.707 172,-212 181.024,-216.699 190.769,-221.69 199.958,-226.36"/>
<polygon fill="midnightblue" stroke="midnightblue" points="198.412,-229.501 208.914,-230.9 201.577,-223.257 198.412,-229.501"/>
</g>
<!-- Node4 -->
<g id="node4" class="node"><title>Node4</title>
<g id="a_node4"><a xlink:href="../../db/d14/classpocketmine_1_1plugin_1_1_plugin_manager.html#a18d858c73a7983a070c729894529f8f1" target="_top" xlink:title="pocketmine\\plugin\\Plugin\lManager\\disablePlugin">
<polygon fill="white" stroke="black" points="172,-98 172,-128 308,-128 308,-98 172,-98"/>
<text text-anchor="start" x="180" y="-116" font-family="Helvetica,sans-Serif" font-size="10.00">pocketmine\plugin\Plugin</text>
<text text-anchor="middle" x="240" y="-105" font-family="Helvetica,sans-Serif" font-size="10.00">Manager\disablePlugin</text>
</a>
</g>
</g>
<!-- Node1&#45;&gt;Node4 -->
<g id="edge3" class="edge"><title>Node1&#45;&gt;Node4</title>
<path fill="none" stroke="midnightblue" d="M127.029,-141.981C141.174,-138.32 156.432,-134.371 170.995,-130.601"/>
<polygon fill="midnightblue" stroke="midnightblue" points="172.14,-133.92 180.944,-128.026 170.386,-127.144 172.14,-133.92"/>
</g>
<!-- Node5 -->
<g id="node5" class="node"><title>Node5</title>
<g id="a_node5"><a xlink:href="../../d4/d92/interfacepocketmine_1_1plugin_1_1_plugin.html#ab7ef321b514dbd4462709e5b23278b64" target="_top" xlink:title="pocketmine\\plugin\\Plugin\l\\getDescription">
<polygon fill="white" stroke="black" points="360,-186 360,-216 496,-216 496,-186 360,-186"/>
<text text-anchor="start" x="368" y="-204" font-family="Helvetica,sans-Serif" font-size="10.00">pocketmine\plugin\Plugin</text>
<text text-anchor="middle" x="428" y="-193" font-family="Helvetica,sans-Serif" font-size="10.00">\getDescription</text>
</a>
</g>
</g>
<!-- Node1&#45;&gt;Node5 -->
<g id="edge9" class="edge"><title>Node1&#45;&gt;Node5</title>
<path fill="none" stroke="midnightblue" d="M136.018,-166.287C147.995,-167.896 160.363,-169.525 172,-171 231.576,-178.553 299.067,-186.464 349.644,-192.265"/>
<polygon fill="midnightblue" stroke="midnightblue" points="349.515,-195.773 359.848,-193.434 350.311,-188.819 349.515,-195.773"/>
</g>
<!-- Node6 -->
<g id="node6" class="node"><title>Node6</title>
<g id="a_node6"><a xlink:href="../../d5/df7/classpocketmine_1_1_server.html#a8d9b9873eb3c7efce048f10f803c2b2e" target="_top" xlink:title="pocketmine\\Server\\getInstance">
<polygon fill="white" stroke="black" points="344.5,-147.5 344.5,-166.5 511.5,-166.5 511.5,-147.5 344.5,-147.5"/>
<text text-anchor="middle" x="428" y="-154.5" font-family="Helvetica,sans-Serif" font-size="10.00">pocketmine\Server\getInstance</text>
</a>
</g>
</g>
<!-- Node1&#45;&gt;Node6 -->
<g id="edge10" class="edge"><title>Node1&#45;&gt;Node6</title>
<path fill="none" stroke="midnightblue" d="M136.337,-157C192.17,-157 272.135,-157 334.064,-157"/>
<polygon fill="midnightblue" stroke="midnightblue" points="334.232,-160.5 344.232,-157 334.232,-153.5 334.232,-160.5"/>
</g>
<!-- Node7 -->
<g id="node7" class="node"><title>Node7</title>
<g id="a_node7"><a xlink:href="../../d4/d92/interfacepocketmine_1_1plugin_1_1_plugin.html#aa0435b65492626cefe758fb86b2e6372" target="_top" xlink:title="pocketmine\\plugin\\Plugin\l\\getPluginLoader">
<polygon fill="white" stroke="black" points="360,-0 360,-30 496,-30 496,-0 360,-0"/>
<text text-anchor="start" x="368" y="-18" font-family="Helvetica,sans-Serif" font-size="10.00">pocketmine\plugin\Plugin</text>
<text text-anchor="middle" x="428" y="-7" font-family="Helvetica,sans-Serif" font-size="10.00">\getPluginLoader</text>
</a>
</g>
</g>
<!-- Node1&#45;&gt;Node7 -->
<g id="edge11" class="edge"><title>Node1&#45;&gt;Node7</title>
<path fill="none" stroke="midnightblue" d="M87.6702,-141.86C107.527,-126.411 140.372,-102.679 172,-88 229.291,-61.4102 298.392,-42.3576 350.202,-30.3984"/>
<polygon fill="midnightblue" stroke="midnightblue" points="351.019,-33.802 359.996,-28.1744 349.469,-26.9758 351.019,-33.802"/>
</g>
<!-- Node3 -->
<g id="node3" class="node"><title>Node3</title>
<g id="a_node3"><a xlink:href="../../db/dc3/classpocketmine_1_1permission_1_1_permission.html#a7d2c3cc786d1bba634bb234a8f593a32" target="_top" xlink:title="pocketmine\\permission\l\\Permission\\getName">
<polygon fill="white" stroke="black" points="364,-235 364,-265 492,-265 492,-235 364,-235"/>
<text text-anchor="start" x="372" y="-253" font-family="Helvetica,sans-Serif" font-size="10.00">pocketmine\permission</text>
<text text-anchor="middle" x="428" y="-242" font-family="Helvetica,sans-Serif" font-size="10.00">\Permission\getName</text>
</a>
</g>
</g>
<!-- Node2&#45;&gt;Node3 -->
<g id="edge2" class="edge"><title>Node2&#45;&gt;Node3</title>
<path fill="none" stroke="midnightblue" d="M308.15,-247.444C322.946,-247.762 338.69,-248.101 353.714,-248.424"/>
<polygon fill="midnightblue" stroke="midnightblue" points="353.907,-251.929 363.98,-248.645 354.058,-244.93 353.907,-251.929"/>
</g>
<!-- Node4&#45;&gt;Node5 -->
<g id="edge4" class="edge"><title>Node4&#45;&gt;Node5</title>
<path fill="none" stroke="midnightblue" d="M262.208,-128.215C282.433,-142.171 314.152,-162.644 344,-176 349.28,-178.363 354.846,-180.579 360.492,-182.641"/>
<polygon fill="midnightblue" stroke="midnightblue" points="359.44,-185.981 370.035,-185.962 361.741,-179.369 359.44,-185.981"/>
</g>
<!-- Node4&#45;&gt;Node6 -->
<g id="edge5" class="edge"><title>Node4&#45;&gt;Node6</title>
<path fill="none" stroke="midnightblue" d="M304.49,-128.019C328.127,-133.611 354.602,-139.874 376.875,-145.143"/>
<polygon fill="midnightblue" stroke="midnightblue" points="376.251,-148.591 386.788,-147.488 377.863,-141.779 376.251,-148.591"/>
</g>
<!-- Node4&#45;&gt;Node7 -->
<g id="edge6" class="edge"><title>Node4&#45;&gt;Node7</title>
<path fill="none" stroke="midnightblue" d="M258.05,-97.9147C277.575,-81.3452 311.124,-54.972 344,-39 347.978,-37.0674 352.141,-35.2616 356.393,-33.579"/>
<polygon fill="midnightblue" stroke="midnightblue" points="357.646,-36.8473 365.807,-30.091 355.214,-30.2833 357.646,-36.8473"/>
</g>
<!-- Node8 -->
<g id="node8" class="node"><title>Node8</title>
<g id="a_node8"><a xlink:href="../../db/d14/classpocketmine_1_1plugin_1_1_plugin_manager.html#a1a33c91160e0c4a7ff272bee7a9aca8b" target="_top" xlink:title="pocketmine\\plugin\\Plugin\lManager\\removePermission">
<polygon fill="white" stroke="black" points="352.5,-98 352.5,-128 503.5,-128 503.5,-98 352.5,-98"/>
<text text-anchor="start" x="360.5" y="-116" font-family="Helvetica,sans-Serif" font-size="10.00">pocketmine\plugin\Plugin</text>
<text text-anchor="middle" x="428" y="-105" font-family="Helvetica,sans-Serif" font-size="10.00">Manager\removePermission</text>
</a>
</g>
</g>
<!-- Node4&#45;&gt;Node8 -->
<g id="edge7" class="edge"><title>Node4&#45;&gt;Node8</title>
<path fill="none" stroke="midnightblue" d="M308.15,-113C319.257,-113 330.898,-113 342.367,-113"/>
<polygon fill="midnightblue" stroke="midnightblue" points="342.385,-116.5 352.385,-113 342.385,-109.5 342.385,-116.5"/>
</g>
<!-- Node9 -->
<g id="node9" class="node"><title>Node9</title>
<g id="a_node9"><a xlink:href="../../d0/d8a/classpocketmine_1_1event_1_1_handler_list.html#ab34429e4764d2bd5ea2d118b134217aa" target="_top" xlink:title="pocketmine\\event\\Handler\lList\\unregisterAll">
<polygon fill="white" stroke="black" points="356.5,-49 356.5,-79 499.5,-79 499.5,-49 356.5,-49"/>
<text text-anchor="start" x="364.5" y="-67" font-family="Helvetica,sans-Serif" font-size="10.00">pocketmine\event\Handler</text>
<text text-anchor="middle" x="428" y="-56" font-family="Helvetica,sans-Serif" font-size="10.00">List\unregisterAll</text>
</a>
</g>
</g>
<!-- Node4&#45;&gt;Node9 -->
<g id="edge8" class="edge"><title>Node4&#45;&gt;Node9</title>
<path fill="none" stroke="midnightblue" d="M298.07,-97.9654C317.709,-92.7917 339.874,-86.9525 360.217,-81.5934"/>
<polygon fill="midnightblue" stroke="midnightblue" points="361.259,-84.9383 370.038,-79.0062 359.476,-78.1692 361.259,-84.9383"/>
</g>
</g>
</svg>
        <g id="navigator" transform="translate(0 0)" fill="#404254">
                <rect fill="#f2f5e9" fill-opacity="0.5" stroke="#606060" stroke-width=".5" x="0" y="0" width="60" height="60"/>
                <use id="zoomplus" xlink:href="#zoomPlus" x="17" y="9" onmousedown="handleZoom(evt,'in')"/>
                <use id="zoomminus" xlink:href="#zoomMin" x="42" y="9" onmousedown="handleZoom(evt,'out')"/>
                <use id="reset" xlink:href="#resetDef" x="30" y="36" onmousedown="handleReset()"/>
                <g id="arrowUp" xlink:href="#dirArrow" transform="translate(30 24)" onmousedown="handlePan(0,-1)">
                  <use xlink:href="#rim" fill="#404040">
                        <set attributeName="fill" to="#808080" begin="arrowUp.mouseover" end="arrowUp.mouseout"/>
                  </use>
                  <path fill="none" stroke="white" stroke-width="1.5" d="M0,-3.0v7 M-2.5,-0.5L0,-3.0L2.5,-0.5"/>
                </g>
                <g id="arrowRight" xlink:href="#dirArrow" transform="rotate(90) translate(36 -43)" onmousedown="handlePan(1,0)">
                  <use xlink:href="#rim" fill="#404040">
                        <set attributeName="fill" to="#808080" begin="arrowRight.mouseover" end="arrowRight.mouseout"/>
                  </use>
                  <path fill="none" stroke="white" stroke-width="1.5" d="M0,-3.0v7 M-2.5,-0.5L0,-3.0L2.5,-0.5"/>
                </g>
                <g id="arrowDown" xlink:href="#dirArrow" transform="rotate(180) translate(-30 -48)" onmousedown="handlePan(0,1)">
                  <use xlink:href="#rim" fill="#404040">
                        <set attributeName="fill" to="#808080" begin="arrowDown.mouseover" end="arrowDown.mouseout"/>
                  </use>
                  <path fill="none" stroke="white" stroke-width="1.5" d="M0,-3.0v7 M-2.5,-0.5L0,-3.0L2.5,-0.5"/>
                </g>
                <g id="arrowLeft" xlink:href="#dirArrow" transform="rotate(270) translate(-36 17)" onmousedown="handlePan(-1,0)">
                  <use xlink:href="#rim" fill="#404040">
                        <set attributeName="fill" to="#808080" begin="arrowLeft.mouseover" end="arrowLeft.mouseout"/>
                  </use>
                  <path fill="none" stroke="white" stroke-width="1.5" d="M0,-3.0v7 M-2.5,-0.5L0,-3.0L2.5,-0.5"/>
                </g>
        </g>
        <svg viewBox="0 0 15 15" width="100%" height="30px" preserveAspectRatio="xMaxYMin meet">
         <g id="arrow_out" transform="scale(0.3 0.3)">
          <a xlink:href="classpocketmine_1_1plugin_1_1_plugin_manager_a09c0b6fc8f7e5ff24c345d874eab9350_cgraph_org.svg" target="_base">
           <rect id="button" ry="5" rx="5" y="6" x="6" height="38" width="38"
                fill="#f2f5e9" fill-opacity="0.5" stroke="#606060" stroke-width="1.0"/>
           <path id="arrow"
             d="M 11.500037,31.436501 C 11.940474,20.09759 22.043105,11.32322 32.158766,21.979434 L 37.068811,17.246167 C 37.068811,17.246167 37.088388,32 37.088388,32 L 22.160133,31.978069 C 22.160133,31.978069 26.997745,27.140456 26.997745,27.140456 C 18.528582,18.264221 13.291696,25.230495 11.500037,31.436501 z"
             style="fill:#404040;"/>
          </a>
         </g>
        </svg>
</svg>
