<?xml version="1.0" encoding="UTF-8" standalone="no"?>
<!DOCTYPE svg PUBLIC "-//W3C//DTD SVG 1.1//EN"
 "http://www.w3.org/Graphics/SVG/1.1/DTD/svg11.dtd">
<!-- Generated by graphviz version 2.26.3 (20100126.1600)
 -->
<!-- Title: pocketmine\plugin\PluginManager\disablePlugin Pages: 1 -->
<svg width="308pt" height="198pt"
 viewBox="0.00 0.00 308.00 198.00" xmlns="http://www.w3.org/2000/svg" xmlns:xlink="http://www.w3.org/1999/xlink">
<g id="graph1" class="graph" transform="scale(1 1) rotate(0) translate(4 194)">
<title>pocketmine\plugin\PluginManager\disablePlugin</title>
<polygon fill="white" stroke="white" points="-4,5 -4,-194 305,-194 305,5 -4,5"/>
<!-- Node1 -->
<g id="node1" class="node"><title>Node1</title>
<polygon fill="#bfbfbf" stroke="black" points="0.5,-78 0.5,-112 125.5,-112 125.5,-78 0.5,-78"/>
<text text-anchor="start" x="8.5" y="-99" font-family="Helvetica,sans-Serif" font-size="10.00">pocketmine\plugin\Plugin</text>
<text text-anchor="middle" x="63" y="-86" font-family="Helvetica,sans-Serif" font-size="10.00">Manager\disablePlugin</text>
</g>
<!-- Node2 -->
<g id="node3" class="node"><title>Node2</title>
<a xlink:href="../../d4/d92/interfacepocketmine_1_1plugin_1_1_plugin.html#ab7ef321b514dbd4462709e5b23278b64" target="_top" xlink:title="pocketmine\\plugin\\Plugin\l\\getDescription">
<polygon fill="white" stroke="black" points="168.5,-156 168.5,-190 293.5,-190 293.5,-156 168.5,-156"/>
<text text-anchor="start" x="176.5" y="-177" font-family="Helvetica,sans-Serif" font-size="10.00">pocketmine\plugin\Plugin</text>
<text text-anchor="middle" x="231" y="-164" font-family="Helvetica,sans-Serif" font-size="10.00">\getDescription</text>
</a>
</g>
<!-- Node1&#45;&gt;Node2 -->
<g id="edge2" class="edge"><title>Node1&#45;&gt;Node2</title>
<path fill="none" stroke="midnightblue" d="M93.2876,-112.153C112.643,-122.802 138.444,-136.424 162,-147 165.81,-148.711 169.77,-150.408 173.779,-152.066"/>
<polygon fill="midnightblue" stroke="midnightblue" points="172.593,-155.362 183.176,-155.857 175.211,-148.87 172.593,-155.362"/>
</g>
<!-- Node3 -->
<g id="node5" class="node"><title>Node3</title>
<a xlink:href="../../d4/d92/interfacepocketmine_1_1plugin_1_1_plugin.html#aa0435b65492626cefe758fb86b2e6372" target="_top" xlink:title="pocketmine\\plugin\\Plugin\l\\getPluginLoader">
<polygon fill="white" stroke="black" points="168.5,-104 168.5,-138 293.5,-138 293.5,-104 168.5,-104"/>
<text text-anchor="start" x="176.5" y="-125" font-family="Helvetica,sans-Serif" font-size="10.00">pocketmine\plugin\Plugin</text>
<text text-anchor="middle" x="231" y="-112" font-family="Helvetica,sans-Serif" font-size="10.00">\getPluginLoader</text>
</a>
</g>
<!-- Node1&#45;&gt;Node3 -->
<g id="edge4" class="edge"><title>Node1&#45;&gt;Node3</title>
<path fill="none" stroke="midnightblue" d="M125.557,-104.681C136.271,-106.34 147.483,-108.075 158.432,-109.769"/>
<polygon fill="midnightblue" stroke="midnightblue" points="157.973,-113.24 168.391,-111.31 159.044,-106.322 157.973,-113.24"/>
</g>
<!-- Node4 -->
<g id="node7" class="node"><title>Node4</title>
<a xlink:href="../../db/d14/classpocketmine_1_1plugin_1_1_plugin_manager.html#a1a33c91160e0c4a7ff272bee7a9aca8b" target="_top" xlink:title="pocketmine\\plugin\\Plugin\lManager\\removePermission">
<polygon fill="white" stroke="black" points="162,-52 162,-86 300,-86 300,-52 162,-52"/>
<text text-anchor="start" x="170" y="-73" font-family="Helvetica,sans-Serif" font-size="10.00">pocketmine\plugin\Plugin</text>
<text text-anchor="middle" x="231" y="-60" font-family="Helvetica,sans-Serif" font-size="10.00">Manager\removePermission</text>
</a>
</g>
<!-- Node1&#45;&gt;Node4 -->
<g id="edge6" class="edge"><title>Node1&#45;&gt;Node4</title>
<path fill="none" stroke="midnightblue" d="M125.557,-85.3186C134.165,-83.9863 143.095,-82.6043 151.952,-81.2336"/>
<polygon fill="midnightblue" stroke="midnightblue" points="152.552,-84.6825 161.899,-79.6942 151.481,-77.7649 152.552,-84.6825"/>
</g>
<!-- Node5 -->
<g id="node9" class="node"><title>Node5</title>
<a xlink:href="../../d0/d8a/classpocketmine_1_1event_1_1_handler_list.html#ab34429e4764d2bd5ea2d118b134217aa" target="_top" xlink:title="pocketmine\\event\\Handler\lList\\unregisterAll">
<polygon fill="white" stroke="black" points="165.5,-0 165.5,-34 296.5,-34 296.5,-0 165.5,-0"/>
<text text-anchor="start" x="173.5" y="-21" font-family="Helvetica,sans-Serif" font-size="10.00">pocketmine\event\Handler</text>
<text text-anchor="middle" x="231" y="-8" font-family="Helvetica,sans-Serif" font-size="10.00">List\unregisterAll</text>
</a>
</g>
<!-- Node1&#45;&gt;Node5 -->
<g id="edge8" class="edge"><title>Node1&#45;&gt;Node5</title>
<path fill="none" stroke="midnightblue" d="M93.2876,-77.847C112.643,-67.1982 138.444,-53.5759 162,-43 165.81,-41.2894 169.77,-39.5925 173.779,-37.9336"/>
<polygon fill="midnightblue" stroke="midnightblue" points="175.211,-41.1298 183.176,-34.1433 172.593,-34.638 175.211,-41.1298"/>
</g>
</g>
</svg>
