<?xml version="1.0" encoding="UTF-8" standalone="no"?>
<!DOCTYPE svg PUBLIC "-//W3C//DTD SVG 1.1//EN"
 "http://www.w3.org/Graphics/SVG/1.1/DTD/svg11.dtd">
<!-- Generated by graphviz version 2.26.3 (20100126.1600)
 -->
<!-- Title: pocketmine\plugin\PluginManager\parseYamlCommands Pages: 1 -->
<svg width="486pt" height="42pt"
 viewBox="0.00 0.00 486.00 42.00" xmlns="http://www.w3.org/2000/svg" xmlns:xlink="http://www.w3.org/1999/xlink">
<g id="graph1" class="graph" transform="scale(1 1) rotate(0) translate(4 38)">
<title>pocketmine\plugin\PluginManager\parseYamlCommands</title>
<polygon fill="white" stroke="white" points="-4,5 -4,-38 483,-38 483,5 -4,5"/>
<!-- Node1 -->
<g id="node1" class="node"><title>Node1</title>
<polygon fill="#bfbfbf" stroke="black" points="0,-0 0,-34 154,-34 154,-0 0,-0"/>
<text text-anchor="start" x="8" y="-21" font-family="Helvetica,sans-Serif" font-size="10.00">pocketmine\plugin\Plugin</text>
<text text-anchor="middle" x="77" y="-8" font-family="Helvetica,sans-Serif" font-size="10.00">Manager\parseYamlCommands</text>
</g>
<!-- Node2 -->
<g id="node3" class="node"><title>Node2</title>
<a xlink:href="../../db/d14/classpocketmine_1_1plugin_1_1_plugin_manager.html#a759d1aaaad5d7d951f174dfe9e0d18ea" target="_top" xlink:title="pocketmine\\plugin\\Plugin\lManager\\loadPlugin">
<polygon fill="white" stroke="black" points="190.5,-0 190.5,-34 315.5,-34 315.5,-0 190.5,-0"/>
<text text-anchor="start" x="198.5" y="-21" font-family="Helvetica,sans-Serif" font-size="10.00">pocketmine\plugin\Plugin</text>
<text text-anchor="middle" x="253" y="-8" font-family="Helvetica,sans-Serif" font-size="10.00">Manager\loadPlugin</text>
</a>
</g>
<!-- Node1&#45;&gt;Node2 -->
<g id="edge2" class="edge"><title>Node1&#45;&gt;Node2</title>
<path fill="none" stroke="midnightblue" d="M164.45,-17C173.205,-17 181.967,-17 190.39,-17"/>
<polygon fill="midnightblue" stroke="midnightblue" points="164.196,-13.5001 154.196,-17 164.196,-20.5001 164.196,-13.5001"/>
</g>
<!-- Node3 -->
<g id="node5" class="node"><title>Node3</title>
<a xlink:href="../../db/d14/classpocketmine_1_1plugin_1_1_plugin_manager.html#a0a41876c6cd79a0b4fbab54d03da8ccd" target="_top" xlink:title="pocketmine\\plugin\\Plugin\lManager\\loadPlugins">
<polygon fill="white" stroke="black" points="352.5,-0 352.5,-34 477.5,-34 477.5,-0 352.5,-0"/>
<text text-anchor="start" x="360.5" y="-21" font-family="Helvetica,sans-Serif" font-size="10.00">pocketmine\plugin\Plugin</text>
<text text-anchor="middle" x="415" y="-8" font-family="Helvetica,sans-Serif" font-size="10.00">Manager\loadPlugins</text>
</a>
</g>
<!-- Node2&#45;&gt;Node3 -->
<g id="edge4" class="edge"><title>Node2&#45;&gt;Node3</title>
<path fill="none" stroke="midnightblue" d="M325.885,-17C334.69,-17 343.624,-17 352.266,-17"/>
<polygon fill="midnightblue" stroke="midnightblue" points="325.633,-13.5001 315.633,-17 325.633,-20.5001 325.633,-13.5001"/>
</g>
</g>
</svg>
