<?xml version="1.0" encoding="UTF-8" standalone="no"?>
<!DOCTYPE svg PUBLIC "-//W3C//DTD SVG 1.1//EN"
 "http://www.w3.org/Graphics/SVG/1.1/DTD/svg11.dtd">
<!-- Generated by graphviz version 2.36.0 (20140111.2315)
 -->
<!-- Title: pocketmine\plugin\PluginManager\registerEvent Pages: 1 -->
<svg width="316pt" height="38pt"
 viewBox="0.00 0.00 316.00 38.00" xmlns="http://www.w3.org/2000/svg" xmlns:xlink="http://www.w3.org/1999/xlink">
<g id="graph0" class="graph" transform="scale(1 1) rotate(0) translate(4 34)">
<title>pocketmine\plugin\PluginManager\registerEvent</title>
<polygon fill="white" stroke="none" points="-4,4 -4,-34 312,-34 312,4 -4,4"/>
<!-- Node1 -->
<g id="node1" class="node"><title>Node1</title>
<polygon fill="#bfbfbf" stroke="black" points="0,-0 0,-30 136,-30 136,-0 0,-0"/>
<text text-anchor="start" x="8" y="-18" font-family="Helvetica,sans-Serif" font-size="10.00">pocketmine\plugin\Plugin</text>
<text text-anchor="middle" x="68" y="-7" font-family="Helvetica,sans-Serif" font-size="10.00">Manager\registerEvent</text>
</g>
<!-- Node2 -->
<g id="node2" class="node"><title>Node2</title>
<g id="a_node2"><a xlink:href="../../db/d14/classpocketmine_1_1plugin_1_1_plugin_manager.html#af2a946f184c8eb8c092f53c097373857" target="_top" xlink:title="pocketmine\\plugin\\Plugin\lManager\\registerEvents">
<polygon fill="white" stroke="black" points="172,-0 172,-30 308,-30 308,-0 172,-0"/>
<text text-anchor="start" x="180" y="-18" font-family="Helvetica,sans-Serif" font-size="10.00">pocketmine\plugin\Plugin</text>
<text text-anchor="middle" x="240" y="-7" font-family="Helvetica,sans-Serif" font-size="10.00">Manager\registerEvents</text>
</a>
</g>
</g>
<!-- Node1&#45;&gt;Node2 -->
<g id="edge1" class="edge"><title>Node1&#45;&gt;Node2</title>
<path fill="none" stroke="midnightblue" d="M146.425,-15C154.876,-15 163.428,-15 171.743,-15"/>
<polygon fill="midnightblue" stroke="midnightblue" points="146.189,-11.5001 136.189,-15 146.188,-18.5001 146.189,-11.5001"/>
</g>
</g>
</svg>
