<?xml version="1.0" encoding="UTF-8" standalone="no"?>
<!DOCTYPE svg PUBLIC "-//W3C//DTD SVG 1.1//EN"
 "http://www.w3.org/Graphics/SVG/1.1/DTD/svg11.dtd">
<!-- Generated by graphviz version 2.26.3 (20100126.1600)
 -->
<!-- Title: pocketmine\event\block\SignChangeEvent Pages: 1 -->
<svg width="295pt" height="404pt"
 viewBox="0.00 0.00 295.00 404.00" xmlns="http://www.w3.org/2000/svg" xmlns:xlink="http://www.w3.org/1999/xlink">
<g id="graph1" class="graph" transform="scale(1 1) rotate(0) translate(4 400)">
<title>pocketmine\event\block\SignChangeEvent</title>
<polygon fill="white" stroke="white" points="-4,5 -4,-400 292,-400 292,5 -4,5"/>
<!-- Node1 -->
<g id="node1" class="node"><title>Node1</title>
<polygon fill="#bfbfbf" stroke="black" points="77,-1 77,-129 197,-129 197,-1 77,-1"/>
<text text-anchor="start" x="85" y="-116" font-family="Helvetica,sans-Serif" font-size="10.00">pocketmine\event\block</text>
<text text-anchor="middle" x="137" y="-103" font-family="Helvetica,sans-Serif" font-size="10.00">\SignChangeEvent</text>
<polyline fill="none" stroke="black" points="77,-95 197,-95 "/>
<text text-anchor="start" x="85" y="-82" font-family="Helvetica,sans-Serif" font-size="10.00">+ $handlerList</text>
<polyline fill="none" stroke="black" points="77,-74 197,-74 "/>
<text text-anchor="start" x="85" y="-61" font-family="Helvetica,sans-Serif" font-size="10.00">+ __construct()</text>
<text text-anchor="start" x="85" y="-48" font-family="Helvetica,sans-Serif" font-size="10.00">+ getPlayer()</text>
<text text-anchor="start" x="85" y="-35" font-family="Helvetica,sans-Serif" font-size="10.00">+ getLines()</text>
<text text-anchor="start" x="85" y="-22" font-family="Helvetica,sans-Serif" font-size="10.00">+ getLine()</text>
<text text-anchor="start" x="85" y="-9" font-family="Helvetica,sans-Serif" font-size="10.00">+ setLine()</text>
</g>
<!-- Node2 -->
<g id="node2" class="node"><title>Node2</title>
<a xlink:href="../../df/d69/classpocketmine_1_1event_1_1block_1_1_block_event.html" target="_top" xlink:title="{pocketmine\\event\\block\l\\BlockEvent\n|# $block\l|+ getBlock()\l# __construct()\l}">
<polygon fill="white" stroke="black" points="1,-166.5 1,-255.5 121,-255.5 121,-166.5 1,-166.5"/>
<text text-anchor="start" x="9" y="-242.5" font-family="Helvetica,sans-Serif" font-size="10.00">pocketmine\event\block</text>
<text text-anchor="middle" x="61" y="-229.5" font-family="Helvetica,sans-Serif" font-size="10.00">\BlockEvent</text>
<polyline fill="none" stroke="black" points="1,-221.5 121,-221.5 "/>
<text text-anchor="start" x="9" y="-208.5" font-family="Helvetica,sans-Serif" font-size="10.00"># $block</text>
<polyline fill="none" stroke="black" points="1,-200.5 121,-200.5 "/>
<text text-anchor="start" x="9" y="-187.5" font-family="Helvetica,sans-Serif" font-size="10.00">+ getBlock()</text>
<text text-anchor="start" x="9" y="-174.5" font-family="Helvetica,sans-Serif" font-size="10.00"># __construct()</text>
</a>
</g>
<!-- Node2&#45;&gt;Node1 -->
<g id="edge2" class="edge"><title>Node2&#45;&gt;Node1</title>
<path fill="none" stroke="midnightblue" d="M88.9,-157.403C93.6733,-148.233 98.6759,-138.623 103.575,-129.21"/>
<polygon fill="none" stroke="midnightblue" points="85.7283,-155.916 84.2155,-166.402 91.9374,-159.148 85.7283,-155.916"/>
</g>
<!-- Node3 -->
<g id="node4" class="node"><title>Node3</title>
<a xlink:href="../../d1/d2f/classpocketmine_1_1event_1_1_event.html" target="_top" xlink:title="{pocketmine\\event\\Event\n|# $eventName\l|+ getEventName()\l+ isCancelled()\l+ setCancelled()\l+ getHandlers()\l}">
<polygon fill="white" stroke="black" points="0,-293 0,-395 122,-395 122,-293 0,-293"/>
<text text-anchor="middle" x="61" y="-382" font-family="Helvetica,sans-Serif" font-size="10.00">pocketmine\event\Event</text>
<polyline fill="none" stroke="black" points="0,-374 122,-374 "/>
<text text-anchor="start" x="8" y="-361" font-family="Helvetica,sans-Serif" font-size="10.00"># $eventName</text>
<polyline fill="none" stroke="black" points="0,-353 122,-353 "/>
<text text-anchor="start" x="8" y="-340" font-family="Helvetica,sans-Serif" font-size="10.00">+ getEventName()</text>
<text text-anchor="start" x="8" y="-327" font-family="Helvetica,sans-Serif" font-size="10.00">+ isCancelled()</text>
<text text-anchor="start" x="8" y="-314" font-family="Helvetica,sans-Serif" font-size="10.00">+ setCancelled()</text>
<text text-anchor="start" x="8" y="-301" font-family="Helvetica,sans-Serif" font-size="10.00">+ getHandlers()</text>
</a>
</g>
<!-- Node3&#45;&gt;Node2 -->
<g id="edge4" class="edge"><title>Node3&#45;&gt;Node2</title>
<path fill="none" stroke="midnightblue" d="M61,-282.733C61,-273.593 61,-264.32 61,-255.611"/>
<polygon fill="none" stroke="midnightblue" points="57.5001,-282.959 61,-292.959 64.5001,-282.959 57.5001,-282.959"/>
</g>
<!-- Node4 -->
<g id="node6" class="node"><title>Node4</title>
<a xlink:href="../../db/d62/interfacepocketmine_1_1event_1_1_cancellable.html" target="_top" xlink:title="{pocketmine\\event\\Cancellable\n||+ isCancelled()\l+ setCancelled()\l}">
<polygon fill="white" stroke="black" points="139,-173 139,-249 287,-249 287,-173 139,-173"/>
<text text-anchor="middle" x="213" y="-236" font-family="Helvetica,sans-Serif" font-size="10.00">pocketmine\event\Cancellable</text>
<polyline fill="none" stroke="black" points="139,-228 287,-228 "/>
<text text-anchor="middle" x="213" y="-215" font-family="Helvetica,sans-Serif" font-size="10.00"> </text>
<polyline fill="none" stroke="black" points="139,-207 287,-207 "/>
<text text-anchor="start" x="147" y="-194" font-family="Helvetica,sans-Serif" font-size="10.00">+ isCancelled()</text>
<text text-anchor="start" x="147" y="-181" font-family="Helvetica,sans-Serif" font-size="10.00">+ setCancelled()</text>
</a>
</g>
<!-- Node4&#45;&gt;Node1 -->
<g id="edge6" class="edge"><title>Node4&#45;&gt;Node1</title>
<path fill="none" stroke="midnightblue" d="M188.335,-163.617C182.597,-152.595 176.395,-140.68 170.352,-129.071"/>
<polygon fill="none" stroke="midnightblue" points="185.31,-165.386 193.032,-172.64 191.519,-162.154 185.31,-165.386"/>
</g>
</g>
</svg>
