<?xml version="1.0" encoding="UTF-8" standalone="no"?>
<!DOCTYPE svg PUBLIC "-//W3C//DTD SVG 1.1//EN"
 "http://www.w3.org/Graphics/SVG/1.1/DTD/svg11.dtd">
<!-- Generated by graphviz version 2.36.0 (20140111.2315)
 -->
<!-- Title: pocketmine\level\format\mcregion\Chunk\setBlockId Pages: 1 -->
<svg width="328pt" height="48pt"
 viewBox="0.00 0.00 328.00 48.00" xmlns="http://www.w3.org/2000/svg" xmlns:xlink="http://www.w3.org/1999/xlink">
<g id="graph0" class="graph" transform="scale(1 1) rotate(0) translate(4 44)">
<title>pocketmine\level\format\mcregion\Chunk\setBlockId</title>
<polygon fill="white" stroke="none" points="-4,4 -4,-44 324,-44 324,4 -4,4"/>
<!-- Node1 -->
<g id="node1" class="node"><title>Node1</title>
<polygon fill="#bfbfbf" stroke="black" points="0.5,-5 0.5,-35 149.5,-35 149.5,-5 0.5,-5"/>
<text text-anchor="start" x="8.5" y="-23" font-family="Helvetica,sans-Serif" font-size="10.00">pocketmine\level\format</text>
<text text-anchor="middle" x="75" y="-12" font-family="Helvetica,sans-Serif" font-size="10.00">\mcregion\Chunk\setBlockId</text>
</g>
<!-- Node2 -->
<g id="node2" class="node"><title>Node2</title>
<g id="a_node2"><a xlink:href="../../da/d9a/classpocketmine_1_1level_1_1format_1_1generic_1_1_base_full_chunk.html#af66cc6951f866ad4d7359010a9e452c1" target="_top" xlink:title="pocketmine\\level\\format\l\\generic\\BaseFullChunk\l\\hasChanged">
<polygon fill="white" stroke="black" points="186.5,0.5 186.5,-40.5 319.5,-40.5 319.5,0.5 186.5,0.5"/>
<text text-anchor="start" x="194.5" y="-28.5" font-family="Helvetica,sans-Serif" font-size="10.00">pocketmine\level\format</text>
<text text-anchor="start" x="194.5" y="-17.5" font-family="Helvetica,sans-Serif" font-size="10.00">\generic\BaseFullChunk</text>
<text text-anchor="middle" x="253" y="-6.5" font-family="Helvetica,sans-Serif" font-size="10.00">\hasChanged</text>
</a>
</g>
</g>
<!-- Node1&#45;&gt;Node2 -->
<g id="edge1" class="edge"><title>Node1&#45;&gt;Node2</title>
<path fill="none" stroke="midnightblue" d="M149.62,-20C158.354,-20 167.282,-20 176.047,-20"/>
<polygon fill="midnightblue" stroke="midnightblue" points="176.241,-23.5001 186.241,-20 176.241,-16.5001 176.241,-23.5001"/>
</g>
</g>
</svg>
