<?xml version="1.0" encoding="UTF-8" standalone="no"?>
<!DOCTYPE svg PUBLIC "-//W3C//DTD SVG 1.1//EN"
 "http://www.w3.org/Graphics/SVG/1.1/DTD/svg11.dtd">
<!-- Generated by graphviz version 2.26.3 (20100126.1600)
 -->
<!-- Title: G Pages: 1 -->
<svg width="198pt" height="326pt"
 viewBox="0.00 0.00 198.00 326.00" xmlns="http://www.w3.org/2000/svg" xmlns:xlink="http://www.w3.org/1999/xlink">
<g id="graph1" class="graph" transform="scale(1 1) rotate(0) translate(4 322)">
<title>G</title>
<polygon fill="white" stroke="white" points="-4,5 -4,-322 195,-322 195,5 -4,5"/>
<!-- Node1 -->
<g id="node1" class="node"><title>Node1</title>
<polygon fill="#bfbfbf" stroke="black" points="-0.5,-0.5 -0.5,-63.5 190.5,-63.5 190.5,-0.5 -0.5,-0.5"/>
<text text-anchor="middle" x="95" y="-50.5" font-family="Helvetica,sans-Serif" font-size="10.00">pocketmine\event\level\LevelSaveEvent</text>
<polyline fill="none" stroke="black" points="-0.5,-42.5 190.5,-42.5 "/>
<text text-anchor="start" x="7.5" y="-29.5" font-family="Helvetica,sans-Serif" font-size="10.00">+ $handlerList</text>
<polyline fill="none" stroke="black" points="-0.5,-21.5 190.5,-21.5 "/>
<text text-anchor="middle" x="95" y="-8.5" font-family="Helvetica,sans-Serif" font-size="10.00"> </text>
</g>
<!-- Node2 -->
<g id="node2" class="node"><title>Node2</title>
<a xlink:href="../../d5/dbb/classpocketmine_1_1event_1_1level_1_1_level_event.html" target="_top" xlink:title="{pocketmine\\event\\level\\LevelEvent\n||+ __construct()\l+ getLevel()\l}">
<polygon fill="white" stroke="black" points="10.5,-101 10.5,-177 179.5,-177 179.5,-101 10.5,-101"/>
<text text-anchor="middle" x="95" y="-164" font-family="Helvetica,sans-Serif" font-size="10.00">pocketmine\event\level\LevelEvent</text>
<polyline fill="none" stroke="black" points="10.5,-156 179.5,-156 "/>
<text text-anchor="middle" x="95" y="-143" font-family="Helvetica,sans-Serif" font-size="10.00"> </text>
<polyline fill="none" stroke="black" points="10.5,-135 179.5,-135 "/>
<text text-anchor="start" x="18.5" y="-122" font-family="Helvetica,sans-Serif" font-size="10.00">+ __construct()</text>
<text text-anchor="start" x="18.5" y="-109" font-family="Helvetica,sans-Serif" font-size="10.00">+ getLevel()</text>
</a>
</g>
<!-- Node2&#45;&gt;Node1 -->
<g id="edge2" class="edge"><title>Node2&#45;&gt;Node1</title>
<path fill="none" stroke="midnightblue" d="M95,-90.7158C95,-81.4987 95,-72.0731 95,-63.5474"/>
<polygon fill="none" stroke="midnightblue" points="91.5001,-90.9745 95,-100.975 98.5001,-90.9746 91.5001,-90.9745"/>
</g>
<!-- Node3 -->
<g id="node4" class="node"><title>Node3</title>
<a xlink:href="../../d1/d2f/classpocketmine_1_1event_1_1_event.html" target="_top" xlink:title="{pocketmine\\event\\Event\n|# $eventName\l|+ getEventName()\l+ isCancelled()\l+ setCancelled()\l+ getHandlers()\l}">
<polygon fill="white" stroke="black" points="34,-215 34,-317 156,-317 156,-215 34,-215"/>
<text text-anchor="middle" x="95" y="-304" font-family="Helvetica,sans-Serif" font-size="10.00">pocketmine\event\Event</text>
<polyline fill="none" stroke="black" points="34,-296 156,-296 "/>
<text text-anchor="start" x="42" y="-283" font-family="Helvetica,sans-Serif" font-size="10.00"># $eventName</text>
<polyline fill="none" stroke="black" points="34,-275 156,-275 "/>
<text text-anchor="start" x="42" y="-262" font-family="Helvetica,sans-Serif" font-size="10.00">+ getEventName()</text>
<text text-anchor="start" x="42" y="-249" font-family="Helvetica,sans-Serif" font-size="10.00">+ isCancelled()</text>
<text text-anchor="start" x="42" y="-236" font-family="Helvetica,sans-Serif" font-size="10.00">+ setCancelled()</text>
<text text-anchor="start" x="42" y="-223" font-family="Helvetica,sans-Serif" font-size="10.00">+ getHandlers()</text>
</a>
</g>
<!-- Node3&#45;&gt;Node2 -->
<g id="edge4" class="edge"><title>Node3&#45;&gt;Node2</title>
<path fill="none" stroke="midnightblue" d="M95,-204.625C95,-195.273 95,-185.859 95,-177.197"/>
<polygon fill="none" stroke="midnightblue" points="91.5001,-204.71 95,-214.71 98.5001,-204.71 91.5001,-204.71"/>
</g>
</g>
</svg>
