<?xml version="1.0" encoding="UTF-8" standalone="no"?>
<!DOCTYPE svg PUBLIC "-//W3C//DTD SVG 1.1//EN"
 "http://www.w3.org/Graphics/SVG/1.1/DTD/svg11.dtd">
<!-- Generated by graphviz version 2.36.0 (20140111.2315)
 -->
<!-- Title: pocketmine\event\level\ChunkLoadEvent Pages: 1 -->
<svg width="140pt" height="448pt"
 viewBox="0.00 0.00 140.00 448.00" xmlns="http://www.w3.org/2000/svg" xmlns:xlink="http://www.w3.org/1999/xlink">
<g id="graph0" class="graph" transform="scale(1 1) rotate(0) translate(4 444)">
<title>pocketmine\event\level\ChunkLoadEvent</title>
<polygon fill="white" stroke="none" points="-4,4 -4,-444 136,-444 136,4 -4,4"/>
<!-- Node1 -->
<g id="node1" class="node"><title>Node1</title>
<polygon fill="#bfbfbf" stroke="black" points="2,-0.5 2,-101.5 130,-101.5 130,-0.5 2,-0.5"/>
<text text-anchor="start" x="10" y="-89.5" font-family="Helvetica,sans-Serif" font-size="10.00">pocketmine\event\level</text>
<text text-anchor="middle" x="66" y="-78.5" font-family="Helvetica,sans-Serif" font-size="10.00">\ChunkLoadEvent</text>
<polyline fill="none" stroke="black" points="2,-71.5 130,-71.5 "/>
<text text-anchor="start" x="10" y="-59.5" font-family="Helvetica,sans-Serif" font-size="10.00">+ $handlerList</text>
<text text-anchor="start" x="10" y="-48.5" font-family="Helvetica,sans-Serif" font-size="10.00">+ $eventPool</text>
<text text-anchor="start" x="10" y="-37.5" font-family="Helvetica,sans-Serif" font-size="10.00">+ $nextEvent</text>
<polyline fill="none" stroke="black" points="2,-30.5 130,-30.5 "/>
<text text-anchor="start" x="10" y="-18.5" font-family="Helvetica,sans-Serif" font-size="10.00">+ __construct()</text>
<text text-anchor="start" x="10" y="-7.5" font-family="Helvetica,sans-Serif" font-size="10.00">+ isNewChunk()</text>
</g>
<!-- Node2 -->
<g id="node2" class="node"><title>Node2</title>
<g id="a_node2"><a xlink:href="../../d1/dbc/classpocketmine_1_1event_1_1level_1_1_chunk_event.html" target="_top" xlink:title="{pocketmine\\event\\level\l\\ChunkEvent\n||+ __construct()\l+ getChunk()\l}">
<polygon fill="white" stroke="black" points="2,-138.5 2,-217.5 130,-217.5 130,-138.5 2,-138.5"/>
<text text-anchor="start" x="10" y="-205.5" font-family="Helvetica,sans-Serif" font-size="10.00">pocketmine\event\level</text>
<text text-anchor="middle" x="66" y="-194.5" font-family="Helvetica,sans-Serif" font-size="10.00">\ChunkEvent</text>
<polyline fill="none" stroke="black" points="2,-187.5 130,-187.5 "/>
<text text-anchor="middle" x="66" y="-175.5" font-family="Helvetica,sans-Serif" font-size="10.00"> </text>
<polyline fill="none" stroke="black" points="2,-168.5 130,-168.5 "/>
<text text-anchor="start" x="10" y="-156.5" font-family="Helvetica,sans-Serif" font-size="10.00">+ __construct()</text>
<text text-anchor="start" x="10" y="-145.5" font-family="Helvetica,sans-Serif" font-size="10.00">+ getChunk()</text>
</a>
</g>
</g>
<!-- Node2&#45;&gt;Node1 -->
<g id="edge1" class="edge"><title>Node2&#45;&gt;Node1</title>
<path fill="none" stroke="midnightblue" d="M66,-128.406C66,-119.639 66,-110.488 66,-101.691"/>
<polygon fill="none" stroke="midnightblue" points="62.5001,-128.476 66,-138.476 69.5001,-128.476 62.5001,-128.476"/>
</g>
<!-- Node3 -->
<g id="node3" class="node"><title>Node3</title>
<g id="a_node3"><a xlink:href="../../d5/dbb/classpocketmine_1_1event_1_1level_1_1_level_event.html" target="_top" xlink:title="{pocketmine\\event\\level\l\\LevelEvent\n||+ __construct()\l+ getLevel()\l}">
<polygon fill="white" stroke="black" points="2,-254.5 2,-333.5 130,-333.5 130,-254.5 2,-254.5"/>
<text text-anchor="start" x="10" y="-321.5" font-family="Helvetica,sans-Serif" font-size="10.00">pocketmine\event\level</text>
<text text-anchor="middle" x="66" y="-310.5" font-family="Helvetica,sans-Serif" font-size="10.00">\LevelEvent</text>
<polyline fill="none" stroke="black" points="2,-303.5 130,-303.5 "/>
<text text-anchor="middle" x="66" y="-291.5" font-family="Helvetica,sans-Serif" font-size="10.00"> </text>
<polyline fill="none" stroke="black" points="2,-284.5 130,-284.5 "/>
<text text-anchor="start" x="10" y="-272.5" font-family="Helvetica,sans-Serif" font-size="10.00">+ __construct()</text>
<text text-anchor="start" x="10" y="-261.5" font-family="Helvetica,sans-Serif" font-size="10.00">+ getLevel()</text>
</a>
</g>
</g>
<!-- Node3&#45;&gt;Node2 -->
<g id="edge2" class="edge"><title>Node3&#45;&gt;Node2</title>
<path fill="none" stroke="midnightblue" d="M66,-244.146C66,-235.256 66,-226.096 66,-217.555"/>
<polygon fill="none" stroke="midnightblue" points="62.5001,-244.405 66,-254.405 69.5001,-244.405 62.5001,-244.405"/>
</g>
<!-- Node4 -->
<g id="node4" class="node"><title>Node4</title>
<g id="a_node4"><a xlink:href="../../d1/d2f/classpocketmine_1_1event_1_1_event.html" target="_top" xlink:title="{pocketmine\\event\\Event\n|# $eventName\l|+ getEventName()\l+ getHandlers()\l}">
<polygon fill="white" stroke="black" points="-0.5,-371 -0.5,-439 132.5,-439 132.5,-371 -0.5,-371"/>
<text text-anchor="middle" x="66" y="-427" font-family="Helvetica,sans-Serif" font-size="10.00">pocketmine\event\Event</text>
<polyline fill="none" stroke="black" points="-0.5,-420 132.5,-420 "/>
<text text-anchor="start" x="7.5" y="-408" font-family="Helvetica,sans-Serif" font-size="10.00"># $eventName</text>
<polyline fill="none" stroke="black" points="-0.5,-401 132.5,-401 "/>
<text text-anchor="start" x="7.5" y="-389" font-family="Helvetica,sans-Serif" font-size="10.00">+ getEventName()</text>
<text text-anchor="start" x="7.5" y="-378" font-family="Helvetica,sans-Serif" font-size="10.00">+ getHandlers()</text>
</a>
</g>
</g>
<!-- Node4&#45;&gt;Node3 -->
<g id="edge3" class="edge"><title>Node4&#45;&gt;Node3</title>
<path fill="none" stroke="midnightblue" d="M66,-360.575C66,-351.737 66,-342.493 66,-333.827"/>
<polygon fill="none" stroke="midnightblue" points="62.5001,-360.704 66,-370.704 69.5001,-360.704 62.5001,-360.704"/>
</g>
</g>
</svg>
