<?xml version="1.0" encoding="UTF-8" standalone="no"?>
<!DOCTYPE svg PUBLIC "-//W3C//DTD SVG 1.1//EN"
 "http://www.w3.org/Graphics/SVG/1.1/DTD/svg11.dtd">
<!-- Generated by graphviz version 2.26.3 (20100126.1600)
 -->
<!-- Title: pocketmine\nbt\tag\IntArray Pages: 1 -->
<svg width="126pt" height="518pt"
 viewBox="0.00 0.00 126.00 518.00" xmlns="http://www.w3.org/2000/svg" xmlns:xlink="http://www.w3.org/1999/xlink">
<g id="graph1" class="graph" transform="scale(1 1) rotate(0) translate(4 514)">
<title>pocketmine\nbt\tag\IntArray</title>
<polygon fill="white" stroke="white" points="-4,5 -4,-514 123,-514 123,5 -4,5"/>
<!-- Node1 -->
<g id="node1" class="node"><title>Node1</title>
<polygon fill="#bfbfbf" stroke="black" points="9,-1 9,-103 109,-103 109,-1 9,-1"/>
<text text-anchor="start" x="17" y="-90" font-family="Helvetica,sans-Serif" font-size="10.00">pocketmine\nbt\tag</text>
<text text-anchor="middle" x="59" y="-77" font-family="Helvetica,sans-Serif" font-size="10.00">\IntArray</text>
<polyline fill="none" stroke="black" points="9,-69 109,-69 "/>
<text text-anchor="middle" x="59" y="-56" font-family="Helvetica,sans-Serif" font-size="10.00"> </text>
<polyline fill="none" stroke="black" points="9,-48 109,-48 "/>
<text text-anchor="start" x="17" y="-35" font-family="Helvetica,sans-Serif" font-size="10.00">+ getType()</text>
<text text-anchor="start" x="17" y="-22" font-family="Helvetica,sans-Serif" font-size="10.00">+ read()</text>
<text text-anchor="start" x="17" y="-9" font-family="Helvetica,sans-Serif" font-size="10.00">+ write()</text>
</g>
<!-- Node2 -->
<g id="node2" class="node"><title>Node2</title>
<a xlink:href="../../d9/dc5/classpocketmine_1_1nbt_1_1tag_1_1_named_tag.html" target="_top" xlink:title="{pocketmine\\nbt\\tag\l\\NamedTag\n|# $name\l|+ __construct()\l+ getName()\l+ setName()\l}">
<polygon fill="white" stroke="black" points="9,-141 9,-243 109,-243 109,-141 9,-141"/>
<text text-anchor="start" x="17" y="-230" font-family="Helvetica,sans-Serif" font-size="10.00">pocketmine\nbt\tag</text>
<text text-anchor="middle" x="59" y="-217" font-family="Helvetica,sans-Serif" font-size="10.00">\NamedTag</text>
<polyline fill="none" stroke="black" points="9,-209 109,-209 "/>
<text text-anchor="start" x="17" y="-196" font-family="Helvetica,sans-Serif" font-size="10.00"># $name</text>
<polyline fill="none" stroke="black" points="9,-188 109,-188 "/>
<text text-anchor="start" x="17" y="-175" font-family="Helvetica,sans-Serif" font-size="10.00">+ __construct()</text>
<text text-anchor="start" x="17" y="-162" font-family="Helvetica,sans-Serif" font-size="10.00">+ getName()</text>
<text text-anchor="start" x="17" y="-149" font-family="Helvetica,sans-Serif" font-size="10.00">+ setName()</text>
</a>
</g>
<!-- Node2&#45;&gt;Node1 -->
<g id="edge2" class="edge"><title>Node2&#45;&gt;Node1</title>
<path fill="none" stroke="midnightblue" d="M59,-130.529C59,-121.449 59,-112.175 59,-103.33"/>
<polygon fill="none" stroke="midnightblue" points="55.5001,-130.664 59,-140.664 62.5001,-130.664 55.5001,-130.664"/>
</g>
<!-- Node3 -->
<g id="node4" class="node"><title>Node3</title>
<a xlink:href="../../dc/d26/classpocketmine_1_1nbt_1_1tag_1_1_tag.html" target="_top" xlink:title="{pocketmine\\nbt\\tag\\Tag\n|# $value\l|+ getValue()\l+ getType()\l+ setValue()\l+ write()\l+ read()\l+ __toString()\l}">
<polygon fill="white" stroke="black" points="-0.5,-281 -0.5,-409 118.5,-409 118.5,-281 -0.5,-281"/>
<text text-anchor="middle" x="59" y="-396" font-family="Helvetica,sans-Serif" font-size="10.00">pocketmine\nbt\tag\Tag</text>
<polyline fill="none" stroke="black" points="-0.5,-388 118.5,-388 "/>
<text text-anchor="start" x="7.5" y="-375" font-family="Helvetica,sans-Serif" font-size="10.00"># $value</text>
<polyline fill="none" stroke="black" points="-0.5,-367 118.5,-367 "/>
<text text-anchor="start" x="7.5" y="-354" font-family="Helvetica,sans-Serif" font-size="10.00">+ getValue()</text>
<text text-anchor="start" x="7.5" y="-341" font-family="Helvetica,sans-Serif" font-size="10.00">+ getType()</text>
<text text-anchor="start" x="7.5" y="-328" font-family="Helvetica,sans-Serif" font-size="10.00">+ setValue()</text>
<text text-anchor="start" x="7.5" y="-315" font-family="Helvetica,sans-Serif" font-size="10.00">+ write()</text>
<text text-anchor="start" x="7.5" y="-302" font-family="Helvetica,sans-Serif" font-size="10.00">+ read()</text>
<text text-anchor="start" x="7.5" y="-289" font-family="Helvetica,sans-Serif" font-size="10.00">+ __toString()</text>
</a>
</g>
<!-- Node3&#45;&gt;Node2 -->
<g id="edge4" class="edge"><title>Node3&#45;&gt;Node2</title>
<path fill="none" stroke="midnightblue" d="M59,-270.305C59,-261.187 59,-252.034 59,-243.366"/>
<polygon fill="none" stroke="midnightblue" points="55.5001,-270.558 59,-280.558 62.5001,-270.558 55.5001,-270.558"/>
</g>
<!-- Node4 -->
<g id="node6" class="node"><title>Node4</title>
<polygon fill="white" stroke="#bfbfbf" points="31,-446.5 31,-509.5 87,-509.5 87,-446.5 31,-446.5"/>
<text text-anchor="middle" x="59" y="-496.5" font-family="Helvetica,sans-Serif" font-size="10.00">stdClass</text>
<polyline fill="none" stroke="#bfbfbf" points="31,-488.5 87,-488.5 "/>
<text text-anchor="middle" x="59" y="-475.5" font-family="Helvetica,sans-Serif" font-size="10.00"> </text>
<polyline fill="none" stroke="#bfbfbf" points="31,-467.5 87,-467.5 "/>
<text text-anchor="middle" x="59" y="-454.5" font-family="Helvetica,sans-Serif" font-size="10.00"> </text>
</g>
<!-- Node4&#45;&gt;Node3 -->
<g id="edge6" class="edge"><title>Node4&#45;&gt;Node3</title>
<path fill="none" stroke="midnightblue" d="M59,-436.338C59,-427.719 59,-418.45 59,-409.239"/>
<polygon fill="none" stroke="midnightblue" points="55.5001,-436.481 59,-446.481 62.5001,-436.481 55.5001,-436.481"/>
</g>
</g>
</svg>
