<?xml version="1.0" encoding="UTF-8" standalone="no"?>
<!DOCTYPE svg PUBLIC "-//W3C//DTD SVG 1.1//EN"
 "http://www.w3.org/Graphics/SVG/1.1/DTD/svg11.dtd">
<!-- Generated by graphviz version 2.26.3 (20100126.1600)
 -->
<!-- Title: pocketmine\plugin\PluginLogger Pages: 1 -->
<svg width="132pt" height="598pt"
 viewBox="0.00 0.00 132.00 598.00" xmlns="http://www.w3.org/2000/svg" xmlns:xlink="http://www.w3.org/1999/xlink">
<g id="graph1" class="graph" transform="scale(1 1) rotate(0) translate(4 594)">
<title>pocketmine\plugin\PluginLogger</title>
<polygon fill="white" stroke="white" points="-4,5 -4,-594 129,-594 129,5 -4,5"/>
<!-- Node1 -->
<g id="node1" class="node"><title>Node1</title>
<polygon fill="#bfbfbf" stroke="black" points="-0.5,-0.5 -0.5,-245.5 124.5,-245.5 124.5,-0.5 -0.5,-0.5"/>
<text text-anchor="start" x="7.5" y="-232.5" font-family="Helvetica,sans-Serif" font-size="10.00">pocketmine\plugin\Plugin</text>
<text text-anchor="middle" x="62" y="-219.5" font-family="Helvetica,sans-Serif" font-size="10.00">Logger</text>
<polyline fill="none" stroke="black" points="-0.5,-211.5 124.5,-211.5 "/>
<text text-anchor="middle" x="62" y="-198.5" font-family="Helvetica,sans-Serif" font-size="10.00"> </text>
<polyline fill="none" stroke="black" points="-0.5,-190.5 124.5,-190.5 "/>
<text text-anchor="start" x="7.5" y="-177.5" font-family="Helvetica,sans-Serif" font-size="10.00">+ addAttachment()</text>
<text text-anchor="start" x="7.5" y="-164.5" font-family="Helvetica,sans-Serif" font-size="10.00">+ removeAttachment()</text>
<text text-anchor="start" x="7.5" y="-151.5" font-family="Helvetica,sans-Serif" font-size="10.00">+ removeAttachments()</text>
<text text-anchor="start" x="7.5" y="-138.5" font-family="Helvetica,sans-Serif" font-size="10.00">+ getAttachments()</text>
<text text-anchor="start" x="7.5" y="-125.5" font-family="Helvetica,sans-Serif" font-size="10.00">+ __construct()</text>
<text text-anchor="start" x="7.5" y="-112.5" font-family="Helvetica,sans-Serif" font-size="10.00">+ emergency()</text>
<text text-anchor="start" x="7.5" y="-99.5" font-family="Helvetica,sans-Serif" font-size="10.00">+ alert()</text>
<text text-anchor="start" x="7.5" y="-86.5" font-family="Helvetica,sans-Serif" font-size="10.00">+ critical()</text>
<text text-anchor="start" x="7.5" y="-73.5" font-family="Helvetica,sans-Serif" font-size="10.00">+ error()</text>
<text text-anchor="start" x="7.5" y="-60.5" font-family="Helvetica,sans-Serif" font-size="10.00">+ warning()</text>
<text text-anchor="start" x="7.5" y="-47.5" font-family="Helvetica,sans-Serif" font-size="10.00">+ notice()</text>
<text text-anchor="start" x="7.5" y="-34.5" font-family="Helvetica,sans-Serif" font-size="10.00">+ info()</text>
<text text-anchor="start" x="7.5" y="-21.5" font-family="Helvetica,sans-Serif" font-size="10.00">+ debug()</text>
<text text-anchor="start" x="7.5" y="-8.5" font-family="Helvetica,sans-Serif" font-size="10.00">+ log()</text>
</g>
<!-- Node2 -->
<g id="node2" class="node"><title>Node2</title>
<a xlink:href="../../d9/d4f/interface_attachable_logger.html" target="_top" xlink:title="{AttachableLogger\n||+ addAttachment()\l+ removeAttachment()\l+ removeAttachments()\l+ getAttachments()\l}">
<polygon fill="white" stroke="black" points="2.5,-283 2.5,-385 121.5,-385 121.5,-283 2.5,-283"/>
<text text-anchor="middle" x="62" y="-372" font-family="Helvetica,sans-Serif" font-size="10.00">AttachableLogger</text>
<polyline fill="none" stroke="black" points="2.5,-364 121.5,-364 "/>
<text text-anchor="middle" x="62" y="-351" font-family="Helvetica,sans-Serif" font-size="10.00"> </text>
<polyline fill="none" stroke="black" points="2.5,-343 121.5,-343 "/>
<text text-anchor="start" x="10.5" y="-330" font-family="Helvetica,sans-Serif" font-size="10.00">+ addAttachment()</text>
<text text-anchor="start" x="10.5" y="-317" font-family="Helvetica,sans-Serif" font-size="10.00">+ removeAttachment()</text>
<text text-anchor="start" x="10.5" y="-304" font-family="Helvetica,sans-Serif" font-size="10.00">+ removeAttachments()</text>
<text text-anchor="start" x="10.5" y="-291" font-family="Helvetica,sans-Serif" font-size="10.00">+ getAttachments()</text>
</a>
</g>
<!-- Node2&#45;&gt;Node1 -->
<g id="edge2" class="edge"><title>Node2&#45;&gt;Node1</title>
<path fill="none" stroke="midnightblue" d="M62,-272.705C62,-264.117 62,-255.053 62,-245.806"/>
<polygon fill="none" stroke="midnightblue" points="58.5001,-272.923 62,-282.923 65.5001,-272.923 58.5001,-272.923"/>
</g>
<!-- Node3 -->
<g id="node4" class="node"><title>Node3</title>
<a xlink:href="../../d4/d00/interface_logger.html" target="_top" xlink:title="{Logger\n||+ emergency()\l+ alert()\l+ critical()\l+ error()\l+ warning()\l+ notice()\l+ info()\l+ debug()\l+ log()\l}">
<polygon fill="white" stroke="black" points="22,-422.5 22,-589.5 102,-589.5 102,-422.5 22,-422.5"/>
<text text-anchor="middle" x="62" y="-576.5" font-family="Helvetica,sans-Serif" font-size="10.00">Logger</text>
<polyline fill="none" stroke="black" points="22,-568.5 102,-568.5 "/>
<text text-anchor="middle" x="62" y="-555.5" font-family="Helvetica,sans-Serif" font-size="10.00"> </text>
<polyline fill="none" stroke="black" points="22,-547.5 102,-547.5 "/>
<text text-anchor="start" x="30" y="-534.5" font-family="Helvetica,sans-Serif" font-size="10.00">+ emergency()</text>
<text text-anchor="start" x="30" y="-521.5" font-family="Helvetica,sans-Serif" font-size="10.00">+ alert()</text>
<text text-anchor="start" x="30" y="-508.5" font-family="Helvetica,sans-Serif" font-size="10.00">+ critical()</text>
<text text-anchor="start" x="30" y="-495.5" font-family="Helvetica,sans-Serif" font-size="10.00">+ error()</text>
<text text-anchor="start" x="30" y="-482.5" font-family="Helvetica,sans-Serif" font-size="10.00">+ warning()</text>
<text text-anchor="start" x="30" y="-469.5" font-family="Helvetica,sans-Serif" font-size="10.00">+ notice()</text>
<text text-anchor="start" x="30" y="-456.5" font-family="Helvetica,sans-Serif" font-size="10.00">+ info()</text>
<text text-anchor="start" x="30" y="-443.5" font-family="Helvetica,sans-Serif" font-size="10.00">+ debug()</text>
<text text-anchor="start" x="30" y="-430.5" font-family="Helvetica,sans-Serif" font-size="10.00">+ log()</text>
</a>
</g>
<!-- Node3&#45;&gt;Node2 -->
<g id="edge4" class="edge"><title>Node3&#45;&gt;Node2</title>
<path fill="none" stroke="midnightblue" d="M62,-412.198C62,-402.944 62,-393.811 62,-385.233"/>
<polygon fill="none" stroke="midnightblue" points="58.5001,-412.267 62,-422.267 65.5001,-412.267 58.5001,-412.267"/>
</g>
</g>
</svg>
