<?xml version="1.0" encoding="UTF-8" standalone="no"?>
<!DOCTYPE svg PUBLIC "-//W3C//DTD SVG 1.1//EN"
 "http://www.w3.org/Graphics/SVG/1.1/DTD/svg11.dtd">
<!-- Generated by graphviz version 2.26.3 (20100126.1600)
 -->
<!-- Title: G Pages: 1 -->
<svg width="178pt" height="368pt"
 viewBox="0.00 0.00 178.00 368.00" xmlns="http://www.w3.org/2000/svg" xmlns:xlink="http://www.w3.org/1999/xlink">
<g id="graph1" class="graph" transform="scale(1 1) rotate(0) translate(4 364)">
<title>G</title>
<polygon fill="white" stroke="white" points="-4,5 -4,-364 175,-364 175,5 -4,5"/>
<!-- Node1 -->
<g id="node1" class="node"><title>Node1</title>
<polygon fill="#bfbfbf" stroke="black" points="0,-1 0,-77 170,-77 170,-1 0,-1"/>
<text text-anchor="middle" x="85" y="-64" font-family="Helvetica,sans-Serif" font-size="10.00">raklib\protocol\AcknowledgePacket</text>
<polyline fill="none" stroke="black" points="0,-56 170,-56 "/>
<text text-anchor="start" x="8" y="-43" font-family="Helvetica,sans-Serif" font-size="10.00">+ $packets</text>
<polyline fill="none" stroke="black" points="0,-35 170,-35 "/>
<text text-anchor="start" x="8" y="-22" font-family="Helvetica,sans-Serif" font-size="10.00">+ encode()</text>
<text text-anchor="start" x="8" y="-9" font-family="Helvetica,sans-Serif" font-size="10.00">+ decode()</text>
</g>
<!-- Node2 -->
<g id="node2" class="node"><title>Node2</title>
<a xlink:href="../../d6/d53/classraklib_1_1protocol_1_1_packet.html" target="_top" xlink:title="{raklib\\protocol\\Packet\n|+ $buffer\l+ $ID\l# $offset\l|+ encode()\l+ decode()\l# get()\l# getLong()\l# getInt()\l# getShort()\l# getTriad()\l# getLTriad()\l# getByte()\l# getString()\l# feof()\l# put()\land 6 more...}">
<polygon fill="white" stroke="black" points="29.5,-114.5 29.5,-359.5 140.5,-359.5 140.5,-114.5 29.5,-114.5"/>
<text text-anchor="middle" x="85" y="-346.5" font-family="Helvetica,sans-Serif" font-size="10.00">raklib\protocol\Packet</text>
<polyline fill="none" stroke="black" points="29.5,-338.5 140.5,-338.5 "/>
<text text-anchor="start" x="37.5" y="-325.5" font-family="Helvetica,sans-Serif" font-size="10.00">+ $buffer</text>
<text text-anchor="start" x="37.5" y="-312.5" font-family="Helvetica,sans-Serif" font-size="10.00">+ $ID</text>
<text text-anchor="start" x="37.5" y="-299.5" font-family="Helvetica,sans-Serif" font-size="10.00"># $offset</text>
<polyline fill="none" stroke="black" points="29.5,-291.5 140.5,-291.5 "/>
<text text-anchor="start" x="37.5" y="-278.5" font-family="Helvetica,sans-Serif" font-size="10.00">+ encode()</text>
<text text-anchor="start" x="37.5" y="-265.5" font-family="Helvetica,sans-Serif" font-size="10.00">+ decode()</text>
<text text-anchor="start" x="37.5" y="-252.5" font-family="Helvetica,sans-Serif" font-size="10.00"># get()</text>
<text text-anchor="start" x="37.5" y="-239.5" font-family="Helvetica,sans-Serif" font-size="10.00"># getLong()</text>
<text text-anchor="start" x="37.5" y="-226.5" font-family="Helvetica,sans-Serif" font-size="10.00"># getInt()</text>
<text text-anchor="start" x="37.5" y="-213.5" font-family="Helvetica,sans-Serif" font-size="10.00"># getShort()</text>
<text text-anchor="start" x="37.5" y="-200.5" font-family="Helvetica,sans-Serif" font-size="10.00"># getTriad()</text>
<text text-anchor="start" x="37.5" y="-187.5" font-family="Helvetica,sans-Serif" font-size="10.00"># getLTriad()</text>
<text text-anchor="start" x="37.5" y="-174.5" font-family="Helvetica,sans-Serif" font-size="10.00"># getByte()</text>
<text text-anchor="start" x="37.5" y="-161.5" font-family="Helvetica,sans-Serif" font-size="10.00"># getString()</text>
<text text-anchor="start" x="37.5" y="-148.5" font-family="Helvetica,sans-Serif" font-size="10.00"># feof()</text>
<text text-anchor="start" x="37.5" y="-135.5" font-family="Helvetica,sans-Serif" font-size="10.00"># put()</text>
<text text-anchor="middle" x="85" y="-122.5" font-family="Helvetica,sans-Serif" font-size="10.00">and 6 more...</text>
</a>
</g>
<!-- Node2&#45;&gt;Node1 -->
<g id="edge2" class="edge"><title>Node2&#45;&gt;Node1</title>
<path fill="none" stroke="midnightblue" d="M85,-104.278C85,-94.6953 85,-85.5911 85,-77.3891"/>
<polygon fill="none" stroke="midnightblue" points="81.5001,-104.42 85,-114.42 88.5001,-104.42 81.5001,-104.42"/>
</g>
</g>
</svg>
