<?xml version="1.0" encoding="UTF-8" standalone="no"?>
<!DOCTYPE svg PUBLIC "-//W3C//DTD SVG 1.1//EN"
 "http://www.w3.org/Graphics/SVG/1.1/DTD/svg11.dtd">
<!-- Generated by graphviz version 2.26.3 (20100126.1600)
 -->
<!-- Title: raklib\protocol\AcknowledgePacket Pages: 1 -->
<svg width="146pt" height="380pt"
 viewBox="0.00 0.00 146.00 380.00" xmlns="http://www.w3.org/2000/svg" xmlns:xlink="http://www.w3.org/1999/xlink">
<g id="graph1" class="graph" transform="scale(1 1) rotate(0) translate(4 376)">
<title>raklib\protocol\AcknowledgePacket</title>
<polygon fill="white" stroke="white" points="-4,5 -4,-376 143,-376 143,5 -4,5"/>
<!-- Node1 -->
<g id="node1" class="node"><title>Node1</title>
<polygon fill="#bfbfbf" stroke="black" points="-0.5,-0.5 -0.5,-89.5 138.5,-89.5 138.5,-0.5 -0.5,-0.5"/>
<text text-anchor="start" x="7.5" y="-76.5" font-family="Helvetica,sans-Serif" font-size="10.00">raklib\protocol\Acknowledge</text>
<text text-anchor="middle" x="69" y="-63.5" font-family="Helvetica,sans-Serif" font-size="10.00">Packet</text>
<polyline fill="none" stroke="black" points="-0.5,-55.5 138.5,-55.5 "/>
<text text-anchor="start" x="7.5" y="-42.5" font-family="Helvetica,sans-Serif" font-size="10.00">+ $packets</text>
<polyline fill="none" stroke="black" points="-0.5,-34.5 138.5,-34.5 "/>
<text text-anchor="start" x="7.5" y="-21.5" font-family="Helvetica,sans-Serif" font-size="10.00">+ encode()</text>
<text text-anchor="start" x="7.5" y="-8.5" font-family="Helvetica,sans-Serif" font-size="10.00">+ decode()</text>
</g>
<!-- Node2 -->
<g id="node2" class="node"><title>Node2</title>
<a xlink:href="../../d6/d53/classraklib_1_1protocol_1_1_packet.html" target="_top" xlink:title="{raklib\\protocol\\Packet\n|+ $buffer\l+ $ID\l# $offset\l|+ encode()\l+ decode()\l# get()\l# getLong()\l# getInt()\l# getShort()\l# getTriad()\l# getLTriad()\l# getByte()\l# getString()\l# feof()\l# put()\land 7 more...\l}">
<polygon fill="white" stroke="black" points="13.5,-126.5 13.5,-371.5 124.5,-371.5 124.5,-126.5 13.5,-126.5"/>
<text text-anchor="middle" x="69" y="-358.5" font-family="Helvetica,sans-Serif" font-size="10.00">raklib\protocol\Packet</text>
<polyline fill="none" stroke="black" points="13.5,-350.5 124.5,-350.5 "/>
<text text-anchor="start" x="21.5" y="-337.5" font-family="Helvetica,sans-Serif" font-size="10.00">+ $buffer</text>
<text text-anchor="start" x="21.5" y="-324.5" font-family="Helvetica,sans-Serif" font-size="10.00">+ $ID</text>
<text text-anchor="start" x="21.5" y="-311.5" font-family="Helvetica,sans-Serif" font-size="10.00"># $offset</text>
<polyline fill="none" stroke="black" points="13.5,-303.5 124.5,-303.5 "/>
<text text-anchor="start" x="21.5" y="-290.5" font-family="Helvetica,sans-Serif" font-size="10.00">+ encode()</text>
<text text-anchor="start" x="21.5" y="-277.5" font-family="Helvetica,sans-Serif" font-size="10.00">+ decode()</text>
<text text-anchor="start" x="21.5" y="-264.5" font-family="Helvetica,sans-Serif" font-size="10.00"># get()</text>
<text text-anchor="start" x="21.5" y="-251.5" font-family="Helvetica,sans-Serif" font-size="10.00"># getLong()</text>
<text text-anchor="start" x="21.5" y="-238.5" font-family="Helvetica,sans-Serif" font-size="10.00"># getInt()</text>
<text text-anchor="start" x="21.5" y="-225.5" font-family="Helvetica,sans-Serif" font-size="10.00"># getShort()</text>
<text text-anchor="start" x="21.5" y="-212.5" font-family="Helvetica,sans-Serif" font-size="10.00"># getTriad()</text>
<text text-anchor="start" x="21.5" y="-199.5" font-family="Helvetica,sans-Serif" font-size="10.00"># getLTriad()</text>
<text text-anchor="start" x="21.5" y="-186.5" font-family="Helvetica,sans-Serif" font-size="10.00"># getByte()</text>
<text text-anchor="start" x="21.5" y="-173.5" font-family="Helvetica,sans-Serif" font-size="10.00"># getString()</text>
<text text-anchor="start" x="21.5" y="-160.5" font-family="Helvetica,sans-Serif" font-size="10.00"># feof()</text>
<text text-anchor="start" x="21.5" y="-147.5" font-family="Helvetica,sans-Serif" font-size="10.00"># put()</text>
<text text-anchor="start" x="21.5" y="-134.5" font-family="Helvetica,sans-Serif" font-size="10.00">and 7 more...</text>
</a>
</g>
<!-- Node2&#45;&gt;Node1 -->
<g id="edge2" class="edge"><title>Node2&#45;&gt;Node1</title>
<path fill="none" stroke="midnightblue" d="M69,-115.973C69,-106.66 69,-97.7274 69,-89.5304"/>
<polygon fill="none" stroke="midnightblue" points="65.5001,-116.212 69,-126.212 72.5001,-116.212 65.5001,-116.212"/>
</g>
</g>
</svg>
