<?xml version="1.0" encoding="UTF-8" standalone="no"?>
<!DOCTYPE svg PUBLIC "-//W3C//DTD SVG 1.1//EN"
 "http://www.w3.org/Graphics/SVG/1.1/DTD/svg11.dtd">
<!-- Generated by graphviz version 2.26.3 (20100126.1600)
 -->
<!-- Title: pocketmine\event\level\ChunkLoadEvent Pages: 1 -->
<svg width="130pt" height="490pt"
 viewBox="0.00 0.00 130.00 490.00" xmlns="http://www.w3.org/2000/svg" xmlns:xlink="http://www.w3.org/1999/xlink">
<g id="graph1" class="graph" transform="scale(1 1) rotate(0) translate(4 486)">
<title>pocketmine\event\level\ChunkLoadEvent</title>
<polygon fill="white" stroke="white" points="-4,5 -4,-486 127,-486 127,5 -4,5"/>
<!-- Node1 -->
<g id="node1" class="node"><title>Node1</title>
<polygon fill="#bfbfbf" stroke="black" points="2.5,-0.5 2.5,-89.5 119.5,-89.5 119.5,-0.5 2.5,-0.5"/>
<text text-anchor="start" x="10.5" y="-76.5" font-family="Helvetica,sans-Serif" font-size="10.00">pocketmine\event\level</text>
<text text-anchor="middle" x="61" y="-63.5" font-family="Helvetica,sans-Serif" font-size="10.00">\ChunkLoadEvent</text>
<polyline fill="none" stroke="black" points="2.5,-55.5 119.5,-55.5 "/>
<text text-anchor="start" x="10.5" y="-42.5" font-family="Helvetica,sans-Serif" font-size="10.00">+ $handlerList</text>
<polyline fill="none" stroke="black" points="2.5,-34.5 119.5,-34.5 "/>
<text text-anchor="start" x="10.5" y="-21.5" font-family="Helvetica,sans-Serif" font-size="10.00">+ __construct()</text>
<text text-anchor="start" x="10.5" y="-8.5" font-family="Helvetica,sans-Serif" font-size="10.00">+ isNewChunk()</text>
</g>
<!-- Node2 -->
<g id="node2" class="node"><title>Node2</title>
<a xlink:href="../../d1/dbc/classpocketmine_1_1event_1_1level_1_1_chunk_event.html" target="_top" xlink:title="{pocketmine\\event\\level\l\\ChunkEvent\n||+ __construct()\l+ getChunk()\l}">
<polygon fill="white" stroke="black" points="2.5,-126.5 2.5,-215.5 119.5,-215.5 119.5,-126.5 2.5,-126.5"/>
<text text-anchor="start" x="10.5" y="-202.5" font-family="Helvetica,sans-Serif" font-size="10.00">pocketmine\event\level</text>
<text text-anchor="middle" x="61" y="-189.5" font-family="Helvetica,sans-Serif" font-size="10.00">\ChunkEvent</text>
<polyline fill="none" stroke="black" points="2.5,-181.5 119.5,-181.5 "/>
<text text-anchor="middle" x="61" y="-168.5" font-family="Helvetica,sans-Serif" font-size="10.00"> </text>
<polyline fill="none" stroke="black" points="2.5,-160.5 119.5,-160.5 "/>
<text text-anchor="start" x="10.5" y="-147.5" font-family="Helvetica,sans-Serif" font-size="10.00">+ __construct()</text>
<text text-anchor="start" x="10.5" y="-134.5" font-family="Helvetica,sans-Serif" font-size="10.00">+ getChunk()</text>
</a>
</g>
<!-- Node2&#45;&gt;Node1 -->
<g id="edge2" class="edge"><title>Node2&#45;&gt;Node1</title>
<path fill="none" stroke="midnightblue" d="M61,-116.013C61,-107.198 61,-98.1691 61,-89.6335"/>
<polygon fill="none" stroke="midnightblue" points="57.5001,-116.222 61,-126.222 64.5001,-116.222 57.5001,-116.222"/>
</g>
<!-- Node3 -->
<g id="node4" class="node"><title>Node3</title>
<a xlink:href="../../d5/dbb/classpocketmine_1_1event_1_1level_1_1_level_event.html" target="_top" xlink:title="{pocketmine\\event\\level\l\\LevelEvent\n||+ __construct()\l+ getLevel()\l}">
<polygon fill="white" stroke="black" points="2.5,-252.5 2.5,-341.5 119.5,-341.5 119.5,-252.5 2.5,-252.5"/>
<text text-anchor="start" x="10.5" y="-328.5" font-family="Helvetica,sans-Serif" font-size="10.00">pocketmine\event\level</text>
<text text-anchor="middle" x="61" y="-315.5" font-family="Helvetica,sans-Serif" font-size="10.00">\LevelEvent</text>
<polyline fill="none" stroke="black" points="2.5,-307.5 119.5,-307.5 "/>
<text text-anchor="middle" x="61" y="-294.5" font-family="Helvetica,sans-Serif" font-size="10.00"> </text>
<polyline fill="none" stroke="black" points="2.5,-286.5 119.5,-286.5 "/>
<text text-anchor="start" x="10.5" y="-273.5" font-family="Helvetica,sans-Serif" font-size="10.00">+ __construct()</text>
<text text-anchor="start" x="10.5" y="-260.5" font-family="Helvetica,sans-Serif" font-size="10.00">+ getLevel()</text>
</a>
</g>
<!-- Node3&#45;&gt;Node2 -->
<g id="edge4" class="edge"><title>Node3&#45;&gt;Node2</title>
<path fill="none" stroke="midnightblue" d="M61,-242.013C61,-233.198 61,-224.169 61,-215.633"/>
<polygon fill="none" stroke="midnightblue" points="57.5001,-242.222 61,-252.222 64.5001,-242.222 57.5001,-242.222"/>
</g>
<!-- Node4 -->
<g id="node6" class="node"><title>Node4</title>
<a xlink:href="../../d1/d2f/classpocketmine_1_1event_1_1_event.html" target="_top" xlink:title="{pocketmine\\event\\Event\n|# $eventName\l|+ getEventName()\l+ isCancelled()\l+ setCancelled()\l+ getHandlers()\l}">
<polygon fill="white" stroke="black" points="0,-379 0,-481 122,-481 122,-379 0,-379"/>
<text text-anchor="middle" x="61" y="-468" font-family="Helvetica,sans-Serif" font-size="10.00">pocketmine\event\Event</text>
<polyline fill="none" stroke="black" points="0,-460 122,-460 "/>
<text text-anchor="start" x="8" y="-447" font-family="Helvetica,sans-Serif" font-size="10.00"># $eventName</text>
<polyline fill="none" stroke="black" points="0,-439 122,-439 "/>
<text text-anchor="start" x="8" y="-426" font-family="Helvetica,sans-Serif" font-size="10.00">+ getEventName()</text>
<text text-anchor="start" x="8" y="-413" font-family="Helvetica,sans-Serif" font-size="10.00">+ isCancelled()</text>
<text text-anchor="start" x="8" y="-400" font-family="Helvetica,sans-Serif" font-size="10.00">+ setCancelled()</text>
<text text-anchor="start" x="8" y="-387" font-family="Helvetica,sans-Serif" font-size="10.00">+ getHandlers()</text>
</a>
</g>
<!-- Node4&#45;&gt;Node3 -->
<g id="edge6" class="edge"><title>Node4&#45;&gt;Node3</title>
<path fill="none" stroke="midnightblue" d="M61,-368.733C61,-359.593 61,-350.32 61,-341.611"/>
<polygon fill="none" stroke="midnightblue" points="57.5001,-368.959 61,-378.959 64.5001,-368.959 57.5001,-368.959"/>
</g>
</g>
</svg>
