<?xml version="1.0" encoding="UTF-8" standalone="no"?>
<!DOCTYPE svg PUBLIC "-//W3C//DTD SVG 1.1//EN"
 "http://www.w3.org/Graphics/SVG/1.1/DTD/svg11.dtd">
<!-- Generated by graphviz version 2.26.3 (20100126.1600)
 -->
<!-- Title: G Pages: 1 -->
<svg width="242pt" height="198pt"
 viewBox="0.00 0.00 242.00 198.00" xmlns="http://www.w3.org/2000/svg" xmlns:xlink="http://www.w3.org/1999/xlink">
<g id="graph1" class="graph" transform="scale(1 1) rotate(0) translate(4 194)">
<title>G</title>
<polygon fill="white" stroke="white" points="-4,5 -4,-194 239,-194 239,5 -4,5"/>
<!-- Node1 -->
<g id="node1" class="node"><title>Node1</title>
<polygon fill="#bfbfbf" stroke="black" points="-0.5,-126.5 -0.5,-189.5 234.5,-189.5 234.5,-126.5 -0.5,-126.5"/>
<text text-anchor="middle" x="117" y="-176.5" font-family="Helvetica,sans-Serif" font-size="10.00">pocketmine\command\PluginIdentifiableCommand</text>
<polyline fill="none" stroke="black" points="-0.5,-168.5 234.5,-168.5 "/>
<text text-anchor="middle" x="117" y="-155.5" font-family="Helvetica,sans-Serif" font-size="10.00"> </text>
<polyline fill="none" stroke="black" points="-0.5,-147.5 234.5,-147.5 "/>
<text text-anchor="start" x="7.5" y="-134.5" font-family="Helvetica,sans-Serif" font-size="10.00">+ getPlugin()</text>
</g>
<!-- Node2 -->
<g id="node3" class="node"><title>Node2</title>
<a xlink:href="../../d7/d63/classpocketmine_1_1command_1_1_plugin_command.html" target="_top" xlink:title="{pocketmine\\command\\PluginCommand\n||+ __construct()\l+ execute()\l+ getPlugin()\l}">
<polygon fill="white" stroke="black" points="23,-0.5 23,-89.5 211,-89.5 211,-0.5 23,-0.5"/>
<text text-anchor="middle" x="117" y="-76.5" font-family="Helvetica,sans-Serif" font-size="10.00">pocketmine\command\PluginCommand</text>
<polyline fill="none" stroke="black" points="23,-68.5 211,-68.5 "/>
<text text-anchor="middle" x="117" y="-55.5" font-family="Helvetica,sans-Serif" font-size="10.00"> </text>
<polyline fill="none" stroke="black" points="23,-47.5 211,-47.5 "/>
<text text-anchor="start" x="31" y="-34.5" font-family="Helvetica,sans-Serif" font-size="10.00">+ __construct()</text>
<text text-anchor="start" x="31" y="-21.5" font-family="Helvetica,sans-Serif" font-size="10.00">+ execute()</text>
<text text-anchor="start" x="31" y="-8.5" font-family="Helvetica,sans-Serif" font-size="10.00">+ getPlugin()</text>
</a>
</g>
<!-- Node1&#45;&gt;Node2 -->
<g id="edge2" class="edge"><title>Node1&#45;&gt;Node2</title>
<path fill="none" stroke="midnightblue" d="M117,-116.015C117,-107.403 117,-98.3072 117,-89.6061"/>
<polygon fill="none" stroke="midnightblue" points="113.5,-116.222 117,-126.222 120.5,-116.223 113.5,-116.222"/>
</g>
</g>
</svg>
