<?xml version="1.0" encoding="UTF-8" standalone="no"?>
<!DOCTYPE svg PUBLIC "-//W3C//DTD SVG 1.1//EN"
 "http://www.w3.org/Graphics/SVG/1.1/DTD/svg11.dtd">
<!-- Generated by graphviz version 2.36.0 (20140111.2315)
 -->
<!-- Title: pocketmine\entity\Tameable Pages: 1 -->
<svg width="287pt" height="160pt"
 viewBox="0.00 0.00 287.00 160.00" xmlns="http://www.w3.org/2000/svg" xmlns:xlink="http://www.w3.org/1999/xlink">
<g id="graph0" class="graph" transform="scale(1 1) rotate(0) translate(4 156)">
<title>pocketmine\entity\Tameable</title>
<polygon fill="white" stroke="none" points="-4,4 -4,-156 283,-156 283,4 -4,4"/>
<!-- Node1 -->
<g id="node1" class="node"><title>Node1</title>
<polygon fill="#bfbfbf" stroke="black" points="66,-94.5 66,-151.5 218,-151.5 218,-94.5 66,-94.5"/>
<text text-anchor="middle" x="142" y="-139.5" font-family="Helvetica,sans-Serif" font-size="10.00">pocketmine\entity\Tameable</text>
<polyline fill="none" stroke="black" points="66,-132.5 218,-132.5 "/>
<text text-anchor="middle" x="142" y="-120.5" font-family="Helvetica,sans-Serif" font-size="10.00"> </text>
<polyline fill="none" stroke="black" points="66,-113.5 218,-113.5 "/>
<text text-anchor="middle" x="142" y="-101.5" font-family="Helvetica,sans-Serif" font-size="10.00"> </text>
</g>
<!-- Node2 -->
<g id="node2" class="node"><title>Node2</title>
<g id="a_node2"><a xlink:href="../../de/d7f/classpocketmine_1_1entity_1_1_ozelot.html" target="_top" xlink:title="{pocketmine\\entity\\Ozelot\n||}">
<polygon fill="white" stroke="black" points="-0.5,-0.5 -0.5,-57.5 136.5,-57.5 136.5,-0.5 -0.5,-0.5"/>
<text text-anchor="middle" x="68" y="-45.5" font-family="Helvetica,sans-Serif" font-size="10.00">pocketmine\entity\Ozelot</text>
<polyline fill="none" stroke="black" points="-0.5,-38.5 136.5,-38.5 "/>
<text text-anchor="middle" x="68" y="-26.5" font-family="Helvetica,sans-Serif" font-size="10.00"> </text>
<polyline fill="none" stroke="black" points="-0.5,-19.5 136.5,-19.5 "/>
<text text-anchor="middle" x="68" y="-7.5" font-family="Helvetica,sans-Serif" font-size="10.00"> </text>
</a>
</g>
</g>
<!-- Node1&#45;&gt;Node2 -->
<g id="edge1" class="edge"><title>Node1&#45;&gt;Node2</title>
<path fill="none" stroke="midnightblue" d="M113.465,-86.5246C105.744,-76.9249 97.5026,-66.6789 90.1868,-57.5836"/>
<polygon fill="none" stroke="midnightblue" points="110.803,-88.7985 119.798,-94.397 116.257,-84.4111 110.803,-88.7985"/>
</g>
<!-- Node3 -->
<g id="node3" class="node"><title>Node3</title>
<g id="a_node3"><a xlink:href="../../d1/d54/classpocketmine_1_1entity_1_1_wolf.html" target="_top" xlink:title="{pocketmine\\entity\\Wolf\n||}">
<polygon fill="white" stroke="black" points="154.5,-0.5 154.5,-57.5 279.5,-57.5 279.5,-0.5 154.5,-0.5"/>
<text text-anchor="middle" x="217" y="-45.5" font-family="Helvetica,sans-Serif" font-size="10.00">pocketmine\entity\Wolf</text>
<polyline fill="none" stroke="black" points="154.5,-38.5 279.5,-38.5 "/>
<text text-anchor="middle" x="217" y="-26.5" font-family="Helvetica,sans-Serif" font-size="10.00"> </text>
<polyline fill="none" stroke="black" points="154.5,-19.5 279.5,-19.5 "/>
<text text-anchor="middle" x="217" y="-7.5" font-family="Helvetica,sans-Serif" font-size="10.00"> </text>
</a>
</g>
</g>
<!-- Node1&#45;&gt;Node3 -->
<g id="edge2" class="edge"><title>Node1&#45;&gt;Node3</title>
<path fill="none" stroke="midnightblue" d="M170.92,-86.5246C178.746,-76.9249 187.099,-66.6789 194.513,-57.5836"/>
<polygon fill="none" stroke="midnightblue" points="168.108,-84.4346 164.502,-94.397 173.534,-88.8576 168.108,-84.4346"/>
</g>
</g>
</svg>
