<?xml version="1.0" encoding="UTF-8" standalone="no"?>
<!DOCTYPE svg PUBLIC "-//W3C//DTD SVG 1.1//EN"
 "http://www.w3.org/Graphics/SVG/1.1/DTD/svg11.dtd">
<!-- Generated by graphviz version 2.26.3 (20100126.1600)
 -->
<!-- Title: pocketmine\metadata\PlayerMetadataStore Pages: 1 -->
<svg width="118pt" height="252pt"
 viewBox="0.00 0.00 118.00 252.00" xmlns="http://www.w3.org/2000/svg" xmlns:xlink="http://www.w3.org/1999/xlink">
<g id="graph1" class="graph" transform="scale(1 1) rotate(0) translate(4 248)">
<title>pocketmine\metadata\PlayerMetadataStore</title>
<polygon fill="white" stroke="white" points="-4,5 -4,-248 115,-248 115,5 -4,5"/>
<!-- Node1 -->
<g id="node1" class="node"><title>Node1</title>
<polygon fill="#bfbfbf" stroke="black" points="-0.5,-1 -0.5,-77 110.5,-77 110.5,-1 -0.5,-1"/>
<text text-anchor="start" x="7.5" y="-64" font-family="Helvetica,sans-Serif" font-size="10.00">pocketmine\metadata</text>
<text text-anchor="middle" x="55" y="-51" font-family="Helvetica,sans-Serif" font-size="10.00">\PlayerMetadataStore</text>
<polyline fill="none" stroke="black" points="-0.5,-43 110.5,-43 "/>
<text text-anchor="middle" x="55" y="-30" font-family="Helvetica,sans-Serif" font-size="10.00"> </text>
<polyline fill="none" stroke="black" points="-0.5,-22 110.5,-22 "/>
<text text-anchor="start" x="7.5" y="-9" font-family="Helvetica,sans-Serif" font-size="10.00">+ disambiguate()</text>
</g>
<!-- Node2 -->
<g id="node2" class="node"><title>Node2</title>
<a xlink:href="../../db/dfc/classpocketmine_1_1metadata_1_1_metadata_store.html" target="_top" xlink:title="{pocketmine\\metadata\l\\MetadataStore\n||+ setMetadata()\l+ getMetadata()\l+ hasMetadata()\l+ removeMetadata()\l+ disambiguate()\l}">
<polygon fill="white" stroke="black" points="0,-115 0,-243 110,-243 110,-115 0,-115"/>
<text text-anchor="start" x="8" y="-230" font-family="Helvetica,sans-Serif" font-size="10.00">pocketmine\metadata</text>
<text text-anchor="middle" x="55" y="-217" font-family="Helvetica,sans-Serif" font-size="10.00">\MetadataStore</text>
<polyline fill="none" stroke="black" points="0,-209 110,-209 "/>
<text text-anchor="middle" x="55" y="-196" font-family="Helvetica,sans-Serif" font-size="10.00"> </text>
<polyline fill="none" stroke="black" points="0,-188 110,-188 "/>
<text text-anchor="start" x="8" y="-175" font-family="Helvetica,sans-Serif" font-size="10.00">+ setMetadata()</text>
<text text-anchor="start" x="8" y="-162" font-family="Helvetica,sans-Serif" font-size="10.00">+ getMetadata()</text>
<text text-anchor="start" x="8" y="-149" font-family="Helvetica,sans-Serif" font-size="10.00">+ hasMetadata()</text>
<text text-anchor="start" x="8" y="-136" font-family="Helvetica,sans-Serif" font-size="10.00">+ removeMetadata()</text>
<text text-anchor="start" x="8" y="-123" font-family="Helvetica,sans-Serif" font-size="10.00">+ disambiguate()</text>
</a>
</g>
<!-- Node2&#45;&gt;Node1 -->
<g id="edge2" class="edge"><title>Node2&#45;&gt;Node1</title>
<path fill="none" stroke="midnightblue" d="M55,-104.518C55,-95.111 55,-85.812 55,-77.3048"/>
<polygon fill="none" stroke="midnightblue" points="51.5001,-104.736 55,-114.736 58.5001,-104.736 51.5001,-104.736"/>
</g>
</g>
</svg>
