<?xml version="1.0" encoding="UTF-8" standalone="no"?>
<!DOCTYPE svg PUBLIC "-//W3C//DTD SVG 1.1//EN"
 "http://www.w3.org/Graphics/SVG/1.1/DTD/svg11.dtd">
<!-- Generated by graphviz version 2.36.0 (20140111.2315)
 -->
<!-- Title: pocketmine\plugin\EventExecutor Pages: 1 -->
<svg width="182pt" height="194pt"
 viewBox="0.00 0.00 182.00 194.00" xmlns="http://www.w3.org/2000/svg" xmlns:xlink="http://www.w3.org/1999/xlink">
<g id="graph0" class="graph" transform="scale(1 1) rotate(0) translate(4 190)">
<title>pocketmine\plugin\EventExecutor</title>
<polygon fill="white" stroke="none" points="-4,4 -4,-190 178,-190 178,4 -4,4"/>
<!-- Node1 -->
<g id="node1" class="node"><title>Node1</title>
<polygon fill="#bfbfbf" stroke="black" points="-1,-128.5 -1,-185.5 175,-185.5 175,-128.5 -1,-128.5"/>
<text text-anchor="middle" x="87" y="-173.5" font-family="Helvetica,sans-Serif" font-size="10.00">pocketmine\plugin\EventExecutor</text>
<polyline fill="none" stroke="black" points="-1,-166.5 175,-166.5 "/>
<text text-anchor="middle" x="87" y="-154.5" font-family="Helvetica,sans-Serif" font-size="10.00"> </text>
<polyline fill="none" stroke="black" points="-1,-147.5 175,-147.5 "/>
<text text-anchor="start" x="7" y="-135.5" font-family="Helvetica,sans-Serif" font-size="10.00">+ execute()</text>
</g>
<!-- Node2 -->
<g id="node2" class="node"><title>Node2</title>
<g id="a_node2"><a xlink:href="../../dc/d6e/classpocketmine_1_1plugin_1_1_method_event_executor.html" target="_top" xlink:title="{pocketmine\\plugin\\Method\lEventExecutor\n||+ __construct()\l+ execute()\l+ getMethod()\l}">
<polygon fill="white" stroke="black" points="15.5,-1 15.5,-91 158.5,-91 158.5,-1 15.5,-1"/>
<text text-anchor="start" x="23.5" y="-79" font-family="Helvetica,sans-Serif" font-size="10.00">pocketmine\plugin\Method</text>
<text text-anchor="middle" x="87" y="-68" font-family="Helvetica,sans-Serif" font-size="10.00">EventExecutor</text>
<polyline fill="none" stroke="black" points="15.5,-61 158.5,-61 "/>
<text text-anchor="middle" x="87" y="-49" font-family="Helvetica,sans-Serif" font-size="10.00"> </text>
<polyline fill="none" stroke="black" points="15.5,-42 158.5,-42 "/>
<text text-anchor="start" x="23.5" y="-30" font-family="Helvetica,sans-Serif" font-size="10.00">+ __construct()</text>
<text text-anchor="start" x="23.5" y="-19" font-family="Helvetica,sans-Serif" font-size="10.00">+ execute()</text>
<text text-anchor="start" x="23.5" y="-8" font-family="Helvetica,sans-Serif" font-size="10.00">+ getMethod()</text>
</a>
</g>
</g>
<!-- Node1&#45;&gt;Node2 -->
<g id="edge1" class="edge"><title>Node1&#45;&gt;Node2</title>
<path fill="none" stroke="midnightblue" d="M87,-118.484C87,-109.643 87,-100.139 87,-91.0399"/>
<polygon fill="none" stroke="midnightblue" points="83.5001,-118.495 87,-128.495 90.5001,-118.495 83.5001,-118.495"/>
</g>
</g>
</svg>
