<?xml version="1.0" encoding="UTF-8" standalone="no"?>
<!DOCTYPE svg PUBLIC "-//W3C//DTD SVG 1.1//EN"
 "http://www.w3.org/Graphics/SVG/1.1/DTD/svg11.dtd">
<!-- Generated by graphviz version 2.26.3 (20100126.1600)
 -->
<!-- Title: pocketmine\block\Stair Pages: 1 -->
<svg width="1962pt" height="1442pt"
 viewBox="0.00 0.00 1962.00 1442.00" xmlns="http://www.w3.org/2000/svg" xmlns:xlink="http://www.w3.org/1999/xlink">
<g id="graph1" class="graph" transform="scale(1 1) rotate(0) translate(4 1438)">
<title>pocketmine\block\Stair</title>
<polygon fill="white" stroke="white" points="-4,5 -4,-1438 1959,-1438 1959,5 -4,5"/>
<!-- Node1 -->
<g id="node1" class="node"><title>Node1</title>
<polygon fill="#bfbfbf" stroke="black" points="914,-126.5 914,-215.5 1030,-215.5 1030,-126.5 914,-126.5"/>
<text text-anchor="middle" x="972" y="-202.5" font-family="Helvetica,sans-Serif" font-size="10.00">pocketmine\block\Stair</text>
<polyline fill="none" stroke="black" points="914,-194.5 1030,-194.5 "/>
<text text-anchor="middle" x="972" y="-181.5" font-family="Helvetica,sans-Serif" font-size="10.00"> </text>
<polyline fill="none" stroke="black" points="914,-173.5 1030,-173.5 "/>
<text text-anchor="start" x="922" y="-160.5" font-family="Helvetica,sans-Serif" font-size="10.00">+ __construct()</text>
<text text-anchor="start" x="922" y="-147.5" font-family="Helvetica,sans-Serif" font-size="10.00">+ place()</text>
<text text-anchor="start" x="922" y="-134.5" font-family="Helvetica,sans-Serif" font-size="10.00">+ getDrops()</text>
</g>
<!-- Node8 -->
<g id="node15" class="node"><title>Node8</title>
<a xlink:href="../../d1/d40/classpocketmine_1_1block_1_1_acacia_wood_stairs.html" target="_top" xlink:title="{pocketmine\\block\\AcaciaWood\lStairs\n||+ __construct()\l+ getDrops()\l}">
<polygon fill="white" stroke="black" points="0,-0.5 0,-89.5 152,-89.5 152,-0.5 0,-0.5"/>
<text text-anchor="start" x="8" y="-76.5" font-family="Helvetica,sans-Serif" font-size="10.00">pocketmine\block\AcaciaWood</text>
<text text-anchor="middle" x="76" y="-63.5" font-family="Helvetica,sans-Serif" font-size="10.00">Stairs</text>
<polyline fill="none" stroke="black" points="0,-55.5 152,-55.5 "/>
<text text-anchor="middle" x="76" y="-42.5" font-family="Helvetica,sans-Serif" font-size="10.00"> </text>
<polyline fill="none" stroke="black" points="0,-34.5 152,-34.5 "/>
<text text-anchor="start" x="8" y="-21.5" font-family="Helvetica,sans-Serif" font-size="10.00">+ __construct()</text>
<text text-anchor="start" x="8" y="-8.5" font-family="Helvetica,sans-Serif" font-size="10.00">+ getDrops()</text>
</a>
</g>
<!-- Node1&#45;&gt;Node8 -->
<g id="edge14" class="edge"><title>Node1&#45;&gt;Node8</title>
<path fill="none" stroke="midnightblue" d="M903.734,-167.571C734.55,-158.532 299.555,-131.833 161,-90 158.123,-89.1313 155.23,-88.1623 152.338,-87.1113"/>
<polygon fill="none" stroke="midnightblue" points="903.594,-171.069 913.765,-168.103 903.964,-164.079 903.594,-171.069"/>
</g>
<!-- Node9 -->
<g id="node17" class="node"><title>Node9</title>
<a xlink:href="../../d0/d44/classpocketmine_1_1block_1_1_birch_wood_stairs.html" target="_top" xlink:title="{pocketmine\\block\\BirchWood\lStairs\n||+ __construct()\l+ getDrops()\l}">
<polygon fill="white" stroke="black" points="170,-0.5 170,-89.5 314,-89.5 314,-0.5 170,-0.5"/>
<text text-anchor="start" x="178" y="-76.5" font-family="Helvetica,sans-Serif" font-size="10.00">pocketmine\block\BirchWood</text>
<text text-anchor="middle" x="242" y="-63.5" font-family="Helvetica,sans-Serif" font-size="10.00">Stairs</text>
<polyline fill="none" stroke="black" points="170,-55.5 314,-55.5 "/>
<text text-anchor="middle" x="242" y="-42.5" font-family="Helvetica,sans-Serif" font-size="10.00"> </text>
<polyline fill="none" stroke="black" points="170,-34.5 314,-34.5 "/>
<text text-anchor="start" x="178" y="-21.5" font-family="Helvetica,sans-Serif" font-size="10.00">+ __construct()</text>
<text text-anchor="start" x="178" y="-8.5" font-family="Helvetica,sans-Serif" font-size="10.00">+ getDrops()</text>
</a>
</g>
<!-- Node1&#45;&gt;Node9 -->
<g id="edge16" class="edge"><title>Node1&#45;&gt;Node9</title>
<path fill="none" stroke="midnightblue" d="M903.872,-165.805C760.056,-154.302 429.924,-124.916 323,-90 320.094,-89.0512 317.174,-87.9954 314.257,-86.8536"/>
<polygon fill="none" stroke="midnightblue" points="903.653,-169.299 913.899,-166.602 904.208,-162.321 903.653,-169.299"/>
</g>
<!-- Node10 -->
<g id="node19" class="node"><title>Node10</title>
<a xlink:href="../../d1/d79/classpocketmine_1_1block_1_1_brick_stairs.html" target="_top" xlink:title="{pocketmine\\block\\BrickStairs\n||+ __construct()\l}">
<polygon fill="white" stroke="black" points="332,-13.5 332,-76.5 476,-76.5 476,-13.5 332,-13.5"/>
<text text-anchor="middle" x="404" y="-63.5" font-family="Helvetica,sans-Serif" font-size="10.00">pocketmine\block\BrickStairs</text>
<polyline fill="none" stroke="black" points="332,-55.5 476,-55.5 "/>
<text text-anchor="middle" x="404" y="-42.5" font-family="Helvetica,sans-Serif" font-size="10.00"> </text>
<polyline fill="none" stroke="black" points="332,-34.5 476,-34.5 "/>
<text text-anchor="start" x="340" y="-21.5" font-family="Helvetica,sans-Serif" font-size="10.00">+ __construct()</text>
</a>
</g>
<!-- Node1&#45;&gt;Node10 -->
<g id="edge18" class="edge"><title>Node1&#45;&gt;Node10</title>
<path fill="none" stroke="midnightblue" d="M903.665,-167.003C807.758,-159.76 628.851,-140.232 485,-90 474.824,-86.4467 464.427,-81.671 454.62,-76.5561"/>
<polygon fill="none" stroke="midnightblue" points="903.584,-170.507 913.813,-167.747 904.095,-163.525 903.584,-170.507"/>
</g>
<!-- Node11 -->
<g id="node21" class="node"><title>Node11</title>
<a xlink:href="../../de/d87/classpocketmine_1_1block_1_1_cobblestone_stairs.html" target="_top" xlink:title="{pocketmine\\block\\Cobblestone\lStairs\n||+ __construct()\l}">
<polygon fill="white" stroke="black" points="493.5,-7 493.5,-83 644.5,-83 644.5,-7 493.5,-7"/>
<text text-anchor="start" x="501.5" y="-70" font-family="Helvetica,sans-Serif" font-size="10.00">pocketmine\block\Cobblestone</text>
<text text-anchor="middle" x="569" y="-57" font-family="Helvetica,sans-Serif" font-size="10.00">Stairs</text>
<polyline fill="none" stroke="black" points="493.5,-49 644.5,-49 "/>
<text text-anchor="middle" x="569" y="-36" font-family="Helvetica,sans-Serif" font-size="10.00"> </text>
<polyline fill="none" stroke="black" points="493.5,-28 644.5,-28 "/>
<text text-anchor="start" x="501.5" y="-15" font-family="Helvetica,sans-Serif" font-size="10.00">+ __construct()</text>
</a>
</g>
<!-- Node1&#45;&gt;Node11 -->
<g id="edge20" class="edge"><title>Node1&#45;&gt;Node11</title>
<path fill="none" stroke="midnightblue" d="M903.716,-158.674C838.092,-145.669 736.808,-122.529 653,-90 647.602,-87.9048 642.11,-85.5414 636.65,-83.0222"/>
<polygon fill="none" stroke="midnightblue" points="903.448,-162.188 913.934,-160.674 904.792,-155.318 903.448,-162.188"/>
</g>
<!-- Node12 -->
<g id="node23" class="node"><title>Node12</title>
<a xlink:href="../../df/dad/classpocketmine_1_1block_1_1_dark_oak_wood_stairs.html" target="_top" xlink:title="{pocketmine\\block\\DarkOak\lWoodStairs\n||+ __construct()\l+ getDrops()\l}">
<polygon fill="white" stroke="black" points="661.5,-0.5 661.5,-89.5 796.5,-89.5 796.5,-0.5 661.5,-0.5"/>
<text text-anchor="start" x="669.5" y="-76.5" font-family="Helvetica,sans-Serif" font-size="10.00">pocketmine\block\DarkOak</text>
<text text-anchor="middle" x="729" y="-63.5" font-family="Helvetica,sans-Serif" font-size="10.00">WoodStairs</text>
<polyline fill="none" stroke="black" points="661.5,-55.5 796.5,-55.5 "/>
<text text-anchor="middle" x="729" y="-42.5" font-family="Helvetica,sans-Serif" font-size="10.00"> </text>
<polyline fill="none" stroke="black" points="661.5,-34.5 796.5,-34.5 "/>
<text text-anchor="start" x="669.5" y="-21.5" font-family="Helvetica,sans-Serif" font-size="10.00">+ __construct()</text>
<text text-anchor="start" x="669.5" y="-8.5" font-family="Helvetica,sans-Serif" font-size="10.00">+ getDrops()</text>
</a>
</g>
<!-- Node1&#45;&gt;Node12 -->
<g id="edge22" class="edge"><title>Node1&#45;&gt;Node12</title>
<path fill="none" stroke="midnightblue" d="M904.509,-139.83C873.844,-125.269 837.283,-107.348 805,-90 802.299,-88.5483 799.555,-87.0488 796.793,-85.5178"/>
<polygon fill="none" stroke="midnightblue" points="903.289,-143.125 913.825,-144.237 906.282,-136.797 903.289,-143.125"/>
</g>
<!-- Node13 -->
<g id="node25" class="node"><title>Node13</title>
<a xlink:href="../../dd/dd0/classpocketmine_1_1block_1_1_jungle_wood_stairs.html" target="_top" xlink:title="{pocketmine\\block\\JungleWood\lStairs\n||+ __construct()\l+ getDrops()\l}">
<polygon fill="white" stroke="black" points="814,-0.5 814,-89.5 964,-89.5 964,-0.5 814,-0.5"/>
<text text-anchor="start" x="822" y="-76.5" font-family="Helvetica,sans-Serif" font-size="10.00">pocketmine\block\JungleWood</text>
<text text-anchor="middle" x="889" y="-63.5" font-family="Helvetica,sans-Serif" font-size="10.00">Stairs</text>
<polyline fill="none" stroke="black" points="814,-55.5 964,-55.5 "/>
<text text-anchor="middle" x="889" y="-42.5" font-family="Helvetica,sans-Serif" font-size="10.00"> </text>
<polyline fill="none" stroke="black" points="814,-34.5 964,-34.5 "/>
<text text-anchor="start" x="822" y="-21.5" font-family="Helvetica,sans-Serif" font-size="10.00">+ __construct()</text>
<text text-anchor="start" x="822" y="-8.5" font-family="Helvetica,sans-Serif" font-size="10.00">+ getDrops()</text>
</a>
</g>
<!-- Node1&#45;&gt;Node13 -->
<g id="edge24" class="edge"><title>Node1&#45;&gt;Node13</title>
<path fill="none" stroke="midnightblue" d="M936.913,-117.735C930.749,-108.377 924.391,-98.7258 918.401,-89.6335"/>
<polygon fill="none" stroke="midnightblue" points="934.08,-119.797 942.504,-126.222 939.925,-115.946 934.08,-119.797"/>
</g>
<!-- Node14 -->
<g id="node27" class="node"><title>Node14</title>
<a xlink:href="../../d4/d84/classpocketmine_1_1block_1_1_nether_brick_stairs.html" target="_top" xlink:title="{pocketmine\\block\\NetherBrick\lStairs\n||+ __construct()\l}">
<polygon fill="white" stroke="black" points="982,-7 982,-83 1130,-83 1130,-7 982,-7"/>
<text text-anchor="start" x="990" y="-70" font-family="Helvetica,sans-Serif" font-size="10.00">pocketmine\block\NetherBrick</text>
<text text-anchor="middle" x="1056" y="-57" font-family="Helvetica,sans-Serif" font-size="10.00">Stairs</text>
<polyline fill="none" stroke="black" points="982,-49 1130,-49 "/>
<text text-anchor="middle" x="1056" y="-36" font-family="Helvetica,sans-Serif" font-size="10.00"> </text>
<polyline fill="none" stroke="black" points="982,-28 1130,-28 "/>
<text text-anchor="start" x="990" y="-15" font-family="Helvetica,sans-Serif" font-size="10.00">+ __construct()</text>
</a>
</g>
<!-- Node1&#45;&gt;Node14 -->
<g id="edge26" class="edge"><title>Node1&#45;&gt;Node14</title>
<path fill="none" stroke="midnightblue" d="M1007.41,-117.889C1015.13,-106.301 1023.16,-94.2556 1030.42,-83.3736"/>
<polygon fill="none" stroke="midnightblue" points="1004.49,-115.96 1001.85,-126.222 1010.31,-119.843 1004.49,-115.96"/>
</g>
<!-- Node15 -->
<g id="node29" class="node"><title>Node15</title>
<a xlink:href="../../d5/d34/classpocketmine_1_1block_1_1_quartz_stairs.html" target="_top" xlink:title="{pocketmine\\block\\QuartzStairs\n||+ __construct()\l}">
<polygon fill="white" stroke="black" points="1147.5,-13.5 1147.5,-76.5 1298.5,-76.5 1298.5,-13.5 1147.5,-13.5"/>
<text text-anchor="middle" x="1223" y="-63.5" font-family="Helvetica,sans-Serif" font-size="10.00">pocketmine\block\QuartzStairs</text>
<polyline fill="none" stroke="black" points="1147.5,-55.5 1298.5,-55.5 "/>
<text text-anchor="middle" x="1223" y="-42.5" font-family="Helvetica,sans-Serif" font-size="10.00"> </text>
<polyline fill="none" stroke="black" points="1147.5,-34.5 1298.5,-34.5 "/>
<text text-anchor="start" x="1155.5" y="-21.5" font-family="Helvetica,sans-Serif" font-size="10.00">+ __construct()</text>
</a>
</g>
<!-- Node1&#45;&gt;Node15 -->
<g id="edge28" class="edge"><title>Node1&#45;&gt;Node15</title>
<path fill="none" stroke="midnightblue" d="M1039.52,-139.011C1070.04,-124.355 1106.48,-106.587 1139,-90 1147.4,-85.7149 1156.22,-81.1071 1164.87,-76.5327"/>
<polygon fill="none" stroke="midnightblue" points="1037.75,-135.977 1030.25,-143.455 1040.78,-142.289 1037.75,-135.977"/>
</g>
<!-- Node16 -->
<g id="node31" class="node"><title>Node16</title>
<a xlink:href="../../d7/d6a/classpocketmine_1_1block_1_1_sandstone_stairs.html" target="_top" xlink:title="{pocketmine\\block\\Sandstone\lStairs\n||+ __construct()\l}">
<polygon fill="white" stroke="black" points="1315.5,-7 1315.5,-83 1458.5,-83 1458.5,-7 1315.5,-7"/>
<text text-anchor="start" x="1323.5" y="-70" font-family="Helvetica,sans-Serif" font-size="10.00">pocketmine\block\Sandstone</text>
<text text-anchor="middle" x="1387" y="-57" font-family="Helvetica,sans-Serif" font-size="10.00">Stairs</text>
<polyline fill="none" stroke="black" points="1315.5,-49 1458.5,-49 "/>
<text text-anchor="middle" x="1387" y="-36" font-family="Helvetica,sans-Serif" font-size="10.00"> </text>
<polyline fill="none" stroke="black" points="1315.5,-28 1458.5,-28 "/>
<text text-anchor="start" x="1323.5" y="-15" font-family="Helvetica,sans-Serif" font-size="10.00">+ __construct()</text>
</a>
</g>
<!-- Node1&#45;&gt;Node16 -->
<g id="edge30" class="edge"><title>Node1&#45;&gt;Node16</title>
<path fill="none" stroke="midnightblue" d="M1039.94,-160.241C1108.83,-148.031 1217.71,-125.129 1307,-90 1312.19,-87.9581 1317.46,-85.6334 1322.68,-83.1414"/>
<polygon fill="none" stroke="midnightblue" points="1039.32,-156.796 1030.08,-161.965 1040.53,-163.691 1039.32,-156.796"/>
</g>
<!-- Node17 -->
<g id="node33" class="node"><title>Node17</title>
<a xlink:href="../../d9/d52/classpocketmine_1_1block_1_1_spruce_wood_stairs.html" target="_top" xlink:title="{pocketmine\\block\\SpruceWood\lStairs\n||+ __construct()\l+ getDrops()\l}">
<polygon fill="white" stroke="black" points="1476,-0.5 1476,-89.5 1628,-89.5 1628,-0.5 1476,-0.5"/>
<text text-anchor="start" x="1484" y="-76.5" font-family="Helvetica,sans-Serif" font-size="10.00">pocketmine\block\SpruceWood</text>
<text text-anchor="middle" x="1552" y="-63.5" font-family="Helvetica,sans-Serif" font-size="10.00">Stairs</text>
<polyline fill="none" stroke="black" points="1476,-55.5 1628,-55.5 "/>
<text text-anchor="middle" x="1552" y="-42.5" font-family="Helvetica,sans-Serif" font-size="10.00"> </text>
<polyline fill="none" stroke="black" points="1476,-34.5 1628,-34.5 "/>
<text text-anchor="start" x="1484" y="-21.5" font-family="Helvetica,sans-Serif" font-size="10.00">+ __construct()</text>
<text text-anchor="start" x="1484" y="-8.5" font-family="Helvetica,sans-Serif" font-size="10.00">+ getDrops()</text>
</a>
</g>
<!-- Node1&#45;&gt;Node17 -->
<g id="edge32" class="edge"><title>Node1&#45;&gt;Node17</title>
<path fill="none" stroke="midnightblue" d="M1040.23,-166.844C1137.27,-159.377 1319.73,-139.549 1467,-90 1469.85,-89.0416 1472.72,-87.9955 1475.59,-86.8788"/>
<polygon fill="none" stroke="midnightblue" points="1039.96,-163.354 1030.25,-167.591 1040.49,-170.335 1039.96,-163.354"/>
</g>
<!-- Node18 -->
<g id="node35" class="node"><title>Node18</title>
<a xlink:href="../../d9/d64/classpocketmine_1_1block_1_1_stone_brick_stairs.html" target="_top" xlink:title="{pocketmine\\block\\StoneBrick\lStairs\n||+ __construct()\l}">
<polygon fill="white" stroke="black" points="1646,-7 1646,-83 1790,-83 1790,-7 1646,-7"/>
<text text-anchor="start" x="1654" y="-70" font-family="Helvetica,sans-Serif" font-size="10.00">pocketmine\block\StoneBrick</text>
<text text-anchor="middle" x="1718" y="-57" font-family="Helvetica,sans-Serif" font-size="10.00">Stairs</text>
<polyline fill="none" stroke="black" points="1646,-49 1790,-49 "/>
<text text-anchor="middle" x="1718" y="-36" font-family="Helvetica,sans-Serif" font-size="10.00"> </text>
<polyline fill="none" stroke="black" points="1646,-28 1790,-28 "/>
<text text-anchor="start" x="1654" y="-15" font-family="Helvetica,sans-Serif" font-size="10.00">+ __construct()</text>
</a>
</g>
<!-- Node1&#45;&gt;Node18 -->
<g id="edge34" class="edge"><title>Node1&#45;&gt;Node18</title>
<path fill="none" stroke="midnightblue" d="M1040.45,-166.014C1187.08,-154.791 1527.09,-125.711 1637,-90 1642.97,-88.0613 1649,-85.6689 1654.93,-83.006"/>
<polygon fill="none" stroke="midnightblue" points="1039.94,-162.543 1030.23,-166.791 1040.47,-169.523 1039.94,-162.543"/>
</g>
<!-- Node19 -->
<g id="node37" class="node"><title>Node19</title>
<a xlink:href="../../dd/db1/classpocketmine_1_1block_1_1_wood_stairs.html" target="_top" xlink:title="{pocketmine\\block\\WoodStairs\n||+ __construct()\l+ getBreakTime()\l+ getDrops()\l}">
<polygon fill="white" stroke="black" points="1807.5,-0.5 1807.5,-89.5 1954.5,-89.5 1954.5,-0.5 1807.5,-0.5"/>
<text text-anchor="middle" x="1881" y="-76.5" font-family="Helvetica,sans-Serif" font-size="10.00">pocketmine\block\WoodStairs</text>
<polyline fill="none" stroke="black" points="1807.5,-68.5 1954.5,-68.5 "/>
<text text-anchor="middle" x="1881" y="-55.5" font-family="Helvetica,sans-Serif" font-size="10.00"> </text>
<polyline fill="none" stroke="black" points="1807.5,-47.5 1954.5,-47.5 "/>
<text text-anchor="start" x="1815.5" y="-34.5" font-family="Helvetica,sans-Serif" font-size="10.00">+ __construct()</text>
<text text-anchor="start" x="1815.5" y="-21.5" font-family="Helvetica,sans-Serif" font-size="10.00">+ getBreakTime()</text>
<text text-anchor="start" x="1815.5" y="-8.5" font-family="Helvetica,sans-Serif" font-size="10.00">+ getDrops()</text>
</a>
</g>
<!-- Node1&#45;&gt;Node19 -->
<g id="edge36" class="edge"><title>Node1&#45;&gt;Node19</title>
<path fill="none" stroke="midnightblue" d="M1040.41,-167.843C1212.13,-159.355 1657.68,-133.679 1799,-90 1801.79,-89.1368 1804.6,-88.1726 1807.4,-87.1257"/>
<polygon fill="none" stroke="midnightblue" points="1040.06,-164.357 1030.24,-168.342 1040.4,-171.348 1040.06,-164.357"/>
</g>
<!-- Node2 -->
<g id="node2" class="node"><title>Node2</title>
<a xlink:href="../../d5/d1b/classpocketmine_1_1block_1_1_transparent.html" target="_top" xlink:title="{pocketmine\\block\\Transparent\n||+ __construct()\l}">
<polygon fill="white" stroke="black" points="898,-252.5 898,-315.5 1046,-315.5 1046,-252.5 898,-252.5"/>
<text text-anchor="middle" x="972" y="-302.5" font-family="Helvetica,sans-Serif" font-size="10.00">pocketmine\block\Transparent</text>
<polyline fill="none" stroke="black" points="898,-294.5 1046,-294.5 "/>
<text text-anchor="middle" x="972" y="-281.5" font-family="Helvetica,sans-Serif" font-size="10.00"> </text>
<polyline fill="none" stroke="black" points="898,-273.5 1046,-273.5 "/>
<text text-anchor="start" x="906" y="-260.5" font-family="Helvetica,sans-Serif" font-size="10.00">+ __construct()</text>
</a>
</g>
<!-- Node2&#45;&gt;Node1 -->
<g id="edge2" class="edge"><title>Node2&#45;&gt;Node1</title>
<path fill="none" stroke="midnightblue" d="M972,-242.015C972,-233.403 972,-224.307 972,-215.606"/>
<polygon fill="none" stroke="midnightblue" points="968.5,-242.222 972,-252.222 975.5,-242.223 968.5,-242.222"/>
</g>
<!-- Node3 -->
<g id="node4" class="node"><title>Node3</title>
<a xlink:href="../../d0/d81/classpocketmine_1_1block_1_1_generic.html" target="_top" xlink:title="{pocketmine\\block\\Generic\n||+ __construct()\l+ place()\l+ isBreakable()\l+ onBreak()\l+ onUpdate()\l+ onActivate()\l}">
<polygon fill="white" stroke="black" points="907,-353 907,-481 1037,-481 1037,-353 907,-353"/>
<text text-anchor="middle" x="972" y="-468" font-family="Helvetica,sans-Serif" font-size="10.00">pocketmine\block\Generic</text>
<polyline fill="none" stroke="black" points="907,-460 1037,-460 "/>
<text text-anchor="middle" x="972" y="-447" font-family="Helvetica,sans-Serif" font-size="10.00"> </text>
<polyline fill="none" stroke="black" points="907,-439 1037,-439 "/>
<text text-anchor="start" x="915" y="-426" font-family="Helvetica,sans-Serif" font-size="10.00">+ __construct()</text>
<text text-anchor="start" x="915" y="-413" font-family="Helvetica,sans-Serif" font-size="10.00">+ place()</text>
<text text-anchor="start" x="915" y="-400" font-family="Helvetica,sans-Serif" font-size="10.00">+ isBreakable()</text>
<text text-anchor="start" x="915" y="-387" font-family="Helvetica,sans-Serif" font-size="10.00">+ onBreak()</text>
<text text-anchor="start" x="915" y="-374" font-family="Helvetica,sans-Serif" font-size="10.00">+ onUpdate()</text>
<text text-anchor="start" x="915" y="-361" font-family="Helvetica,sans-Serif" font-size="10.00">+ onActivate()</text>
</a>
</g>
<!-- Node3&#45;&gt;Node2 -->
<g id="edge4" class="edge"><title>Node3&#45;&gt;Node2</title>
<path fill="none" stroke="midnightblue" d="M972,-342.58C972,-333.171 972,-323.976 972,-315.764"/>
<polygon fill="none" stroke="midnightblue" points="968.5,-342.837 972,-352.837 975.5,-342.837 968.5,-342.837"/>
</g>
<!-- Node4 -->
<g id="node6" class="node"><title>Node4</title>
<a xlink:href="../../d7/d27/classpocketmine_1_1block_1_1_block.html" target="_top" xlink:title="{pocketmine\\block\\Block\n|+ AIR\l+ STONE\l+ GRASS\l+ DIRT\l+ COBBLESTONE\l+ COBBLE\l+ PLANK\l+ PLANKS\l+ WOODEN_PLANK\l+ WOODEN_PLANKS\land 169 more...\l+ $creative\l+ $list\l# $id\l# $meta\l# $name\l# $breakTime\l# $hardness\l|+ __construct()\l+ getHardness()\l+ getName()\l+ getID()\l+ getDamage()\l+ setDamage()\l+ position()\l+ getDrops()\l+ getBreakTime()\l+ getSide()\land 12 more...\l+ init()\l+ get()\l}">
<polygon fill="white" stroke="black" points="911.5,-519 911.5,-959 1032.5,-959 1032.5,-519 911.5,-519"/>
<text text-anchor="middle" x="972" y="-946" font-family="Helvetica,sans-Serif" font-size="10.00">pocketmine\block\Block</text>
<polyline fill="none" stroke="black" points="911.5,-938 1032.5,-938 "/>
<text text-anchor="start" x="919.5" y="-925" font-family="Helvetica,sans-Serif" font-size="10.00">+ AIR</text>
<text text-anchor="start" x="919.5" y="-912" font-family="Helvetica,sans-Serif" font-size="10.00">+ STONE</text>
<text text-anchor="start" x="919.5" y="-899" font-family="Helvetica,sans-Serif" font-size="10.00">+ GRASS</text>
<text text-anchor="start" x="919.5" y="-886" font-family="Helvetica,sans-Serif" font-size="10.00">+ DIRT</text>
<text text-anchor="start" x="919.5" y="-873" font-family="Helvetica,sans-Serif" font-size="10.00">+ COBBLESTONE</text>
<text text-anchor="start" x="919.5" y="-860" font-family="Helvetica,sans-Serif" font-size="10.00">+ COBBLE</text>
<text text-anchor="start" x="919.5" y="-847" font-family="Helvetica,sans-Serif" font-size="10.00">+ PLANK</text>
<text text-anchor="start" x="919.5" y="-834" font-family="Helvetica,sans-Serif" font-size="10.00">+ PLANKS</text>
<text text-anchor="start" x="919.5" y="-821" font-family="Helvetica,sans-Serif" font-size="10.00">+ WOODEN_PLANK</text>
<text text-anchor="start" x="919.5" y="-808" font-family="Helvetica,sans-Serif" font-size="10.00">+ WOODEN_PLANKS</text>
<text text-anchor="start" x="919.5" y="-795" font-family="Helvetica,sans-Serif" font-size="10.00">and 169 more...</text>
<text text-anchor="start" x="919.5" y="-782" font-family="Helvetica,sans-Serif" font-size="10.00">+ $creative</text>
<text text-anchor="start" x="919.5" y="-769" font-family="Helvetica,sans-Serif" font-size="10.00">+ $list</text>
<text text-anchor="start" x="919.5" y="-756" font-family="Helvetica,sans-Serif" font-size="10.00"># $id</text>
<text text-anchor="start" x="919.5" y="-743" font-family="Helvetica,sans-Serif" font-size="10.00"># $meta</text>
<text text-anchor="start" x="919.5" y="-730" font-family="Helvetica,sans-Serif" font-size="10.00"># $name</text>
<text text-anchor="start" x="919.5" y="-717" font-family="Helvetica,sans-Serif" font-size="10.00"># $breakTime</text>
<text text-anchor="start" x="919.5" y="-704" font-family="Helvetica,sans-Serif" font-size="10.00"># $hardness</text>
<polyline fill="none" stroke="black" points="911.5,-696 1032.5,-696 "/>
<text text-anchor="start" x="919.5" y="-683" font-family="Helvetica,sans-Serif" font-size="10.00">+ __construct()</text>
<text text-anchor="start" x="919.5" y="-670" font-family="Helvetica,sans-Serif" font-size="10.00">+ getHardness()</text>
<text text-anchor="start" x="919.5" y="-657" font-family="Helvetica,sans-Serif" font-size="10.00">+ getName()</text>
<text text-anchor="start" x="919.5" y="-644" font-family="Helvetica,sans-Serif" font-size="10.00">+ getID()</text>
<text text-anchor="start" x="919.5" y="-631" font-family="Helvetica,sans-Serif" font-size="10.00">+ getDamage()</text>
<text text-anchor="start" x="919.5" y="-618" font-family="Helvetica,sans-Serif" font-size="10.00">+ setDamage()</text>
<text text-anchor="start" x="919.5" y="-605" font-family="Helvetica,sans-Serif" font-size="10.00">+ position()</text>
<text text-anchor="start" x="919.5" y="-592" font-family="Helvetica,sans-Serif" font-size="10.00">+ getDrops()</text>
<text text-anchor="start" x="919.5" y="-579" font-family="Helvetica,sans-Serif" font-size="10.00">+ getBreakTime()</text>
<text text-anchor="start" x="919.5" y="-566" font-family="Helvetica,sans-Serif" font-size="10.00">+ getSide()</text>
<text text-anchor="start" x="919.5" y="-553" font-family="Helvetica,sans-Serif" font-size="10.00">and 12 more...</text>
<text text-anchor="start" x="919.5" y="-540" font-family="Helvetica,sans-Serif" font-size="10.00">+ init()</text>
<text text-anchor="start" x="919.5" y="-527" font-family="Helvetica,sans-Serif" font-size="10.00">+ get()</text>
</a>
</g>
<!-- Node4&#45;&gt;Node3 -->
<g id="edge6" class="edge"><title>Node4&#45;&gt;Node3</title>
<path fill="none" stroke="midnightblue" d="M972,-508.671C972,-499.007 972,-489.755 972,-481.098"/>
<polygon fill="none" stroke="midnightblue" points="968.5,-508.883 972,-518.883 975.5,-508.883 968.5,-508.883"/>
</g>
<!-- Node5 -->
<g id="node8" class="node"><title>Node5</title>
<a xlink:href="../../db/d9b/classpocketmine_1_1level_1_1_position.html" target="_top" xlink:title="{pocketmine\\level\\Position\n|+ $level\l|+ __construct()\l+ getLevel()\l+ setLevel()\l+ isValid()\l+ setStrong()\l+ setWeak()\l+ getSide()\l+ distance()\l+ __toString()\l+ fromObject()\l}">
<polygon fill="white" stroke="black" points="840,-997 840,-1177 968,-1177 968,-997 840,-997"/>
<text text-anchor="middle" x="904" y="-1164" font-family="Helvetica,sans-Serif" font-size="10.00">pocketmine\level\Position</text>
<polyline fill="none" stroke="black" points="840,-1156 968,-1156 "/>
<text text-anchor="start" x="848" y="-1143" font-family="Helvetica,sans-Serif" font-size="10.00">+ $level</text>
<polyline fill="none" stroke="black" points="840,-1135 968,-1135 "/>
<text text-anchor="start" x="848" y="-1122" font-family="Helvetica,sans-Serif" font-size="10.00">+ __construct()</text>
<text text-anchor="start" x="848" y="-1109" font-family="Helvetica,sans-Serif" font-size="10.00">+ getLevel()</text>
<text text-anchor="start" x="848" y="-1096" font-family="Helvetica,sans-Serif" font-size="10.00">+ setLevel()</text>
<text text-anchor="start" x="848" y="-1083" font-family="Helvetica,sans-Serif" font-size="10.00">+ isValid()</text>
<text text-anchor="start" x="848" y="-1070" font-family="Helvetica,sans-Serif" font-size="10.00">+ setStrong()</text>
<text text-anchor="start" x="848" y="-1057" font-family="Helvetica,sans-Serif" font-size="10.00">+ setWeak()</text>
<text text-anchor="start" x="848" y="-1044" font-family="Helvetica,sans-Serif" font-size="10.00">+ getSide()</text>
<text text-anchor="start" x="848" y="-1031" font-family="Helvetica,sans-Serif" font-size="10.00">+ distance()</text>
<text text-anchor="start" x="848" y="-1018" font-family="Helvetica,sans-Serif" font-size="10.00">+ __toString()</text>
<text text-anchor="start" x="848" y="-1005" font-family="Helvetica,sans-Serif" font-size="10.00">+ fromObject()</text>
</a>
</g>
<!-- Node5&#45;&gt;Node4 -->
<g id="edge8" class="edge"><title>Node5&#45;&gt;Node4</title>
<path fill="none" stroke="midnightblue" d="M923.55,-986.949C925.302,-977.983 927.117,-968.695 928.97,-959.21"/>
<polygon fill="none" stroke="midnightblue" points="920.083,-986.443 921.6,-996.929 926.953,-987.786 920.083,-986.443"/>
</g>
<!-- Node6 -->
<g id="node10" class="node"><title>Node6</title>
<a xlink:href="../../d2/d90/classpocketmine_1_1math_1_1_vector3.html" target="_top" xlink:title="{pocketmine\\math\\Vector3\n|+ $x\l+ $y\l+ $z\l|+ __construct()\l+ getX()\l+ getY()\l+ getZ()\l+ getFloorX()\l+ getFloorY()\l+ getFloorZ()\l+ getRight()\l+ getUp()\l+ getForward()\land 20 more...\l}">
<polygon fill="white" stroke="black" points="840,-1214.5 840,-1433.5 968,-1433.5 968,-1214.5 840,-1214.5"/>
<text text-anchor="middle" x="904" y="-1420.5" font-family="Helvetica,sans-Serif" font-size="10.00">pocketmine\math\Vector3</text>
<polyline fill="none" stroke="black" points="840,-1412.5 968,-1412.5 "/>
<text text-anchor="start" x="848" y="-1399.5" font-family="Helvetica,sans-Serif" font-size="10.00">+ $x</text>
<text text-anchor="start" x="848" y="-1386.5" font-family="Helvetica,sans-Serif" font-size="10.00">+ $y</text>
<text text-anchor="start" x="848" y="-1373.5" font-family="Helvetica,sans-Serif" font-size="10.00">+ $z</text>
<polyline fill="none" stroke="black" points="840,-1365.5 968,-1365.5 "/>
<text text-anchor="start" x="848" y="-1352.5" font-family="Helvetica,sans-Serif" font-size="10.00">+ __construct()</text>
<text text-anchor="start" x="848" y="-1339.5" font-family="Helvetica,sans-Serif" font-size="10.00">+ getX()</text>
<text text-anchor="start" x="848" y="-1326.5" font-family="Helvetica,sans-Serif" font-size="10.00">+ getY()</text>
<text text-anchor="start" x="848" y="-1313.5" font-family="Helvetica,sans-Serif" font-size="10.00">+ getZ()</text>
<text text-anchor="start" x="848" y="-1300.5" font-family="Helvetica,sans-Serif" font-size="10.00">+ getFloorX()</text>
<text text-anchor="start" x="848" y="-1287.5" font-family="Helvetica,sans-Serif" font-size="10.00">+ getFloorY()</text>
<text text-anchor="start" x="848" y="-1274.5" font-family="Helvetica,sans-Serif" font-size="10.00">+ getFloorZ()</text>
<text text-anchor="start" x="848" y="-1261.5" font-family="Helvetica,sans-Serif" font-size="10.00">+ getRight()</text>
<text text-anchor="start" x="848" y="-1248.5" font-family="Helvetica,sans-Serif" font-size="10.00">+ getUp()</text>
<text text-anchor="start" x="848" y="-1235.5" font-family="Helvetica,sans-Serif" font-size="10.00">+ getForward()</text>
<text text-anchor="start" x="848" y="-1222.5" font-family="Helvetica,sans-Serif" font-size="10.00">and 20 more...</text>
</a>
</g>
<!-- Node6&#45;&gt;Node5 -->
<g id="edge10" class="edge"><title>Node6&#45;&gt;Node5</title>
<path fill="none" stroke="midnightblue" d="M904,-1204.02C904,-1195.03 904,-1186.05 904,-1177.28"/>
<polygon fill="none" stroke="midnightblue" points="900.5,-1204.17 904,-1214.17 907.5,-1204.17 900.5,-1204.17"/>
</g>
<!-- Node7 -->
<g id="node12" class="node"><title>Node7</title>
<a xlink:href="../../d8/d0b/interfacepocketmine_1_1metadata_1_1_metadatable.html" target="_top" xlink:title="{pocketmine\\metadata\l\\Metadatable\n||+ setMetadata()\l+ getMetadata()\l+ hasMetadata()\l+ removeMetadata()\l}">
<polygon fill="white" stroke="black" points="986,-1029.5 986,-1144.5 1096,-1144.5 1096,-1029.5 986,-1029.5"/>
<text text-anchor="start" x="994" y="-1131.5" font-family="Helvetica,sans-Serif" font-size="10.00">pocketmine\metadata</text>
<text text-anchor="middle" x="1041" y="-1118.5" font-family="Helvetica,sans-Serif" font-size="10.00">\Metadatable</text>
<polyline fill="none" stroke="black" points="986,-1110.5 1096,-1110.5 "/>
<text text-anchor="middle" x="1041" y="-1097.5" font-family="Helvetica,sans-Serif" font-size="10.00"> </text>
<polyline fill="none" stroke="black" points="986,-1089.5 1096,-1089.5 "/>
<text text-anchor="start" x="994" y="-1076.5" font-family="Helvetica,sans-Serif" font-size="10.00">+ setMetadata()</text>
<text text-anchor="start" x="994" y="-1063.5" font-family="Helvetica,sans-Serif" font-size="10.00">+ getMetadata()</text>
<text text-anchor="start" x="994" y="-1050.5" font-family="Helvetica,sans-Serif" font-size="10.00">+ hasMetadata()</text>
<text text-anchor="start" x="994" y="-1037.5" font-family="Helvetica,sans-Serif" font-size="10.00">+ removeMetadata()</text>
</a>
</g>
<!-- Node7&#45;&gt;Node4 -->
<g id="edge12" class="edge"><title>Node7&#45;&gt;Node4</title>
<path fill="none" stroke="midnightblue" d="M1027.54,-1019.11C1023.96,-1001.07 1019.9,-980.577 1015.63,-959.071"/>
<polygon fill="none" stroke="midnightblue" points="1024.15,-1020.02 1029.53,-1029.14 1031.02,-1018.65 1024.15,-1020.02"/>
</g>
</g>
</svg>
