<?xml version="1.0" encoding="UTF-8" standalone="no"?>
<!DOCTYPE svg PUBLIC "-//W3C//DTD SVG 1.1//EN"
 "http://www.w3.org/Graphics/SVG/1.1/DTD/svg11.dtd">
<!-- Generated by graphviz version 2.26.3 (20100126.1600)
 -->
<!-- Title: G Pages: 1 -->
<!--zoomable 1198 -->
<svg id="main" version="1.1" xmlns="http://www.w3.org/2000/svg" xmlns:xlink="http://www.w3.org/1999/xlink" xml:space="preserve" onload="init(evt)">
        <defs>
                <circle id="rim" cx="0" cy="0" r="7"/>
                <circle id="rim2" cx="0" cy="0" r="3.5"/>
                <g id="zoomPlus">
                        <use xlink:href="#rim" fill="#404040">
                                <set attributeName="fill" to="#808080" begin="zoomplus.mouseover" end="zoomplus.mouseout"/>
                        </use>
                        <path d="M-4,0h8M0,-4v8" fill="none" stroke="white" stroke-width="1.5" pointer-events="none"/>
                </g>
                <g id="zoomMin">
                        <use xlink:href="#rim" fill="#404040">
                                <set attributeName="fill" to="#808080" begin="zoomminus.mouseover" end="zoomminus.mouseout"/>
                        </use>
                        <path d="M-4,0h8" fill="none" stroke="white" stroke-width="1.5" pointer-events="none"/>
                </g>
                <g id="dirArrow">
                        <path fill="none" stroke="white" stroke-width="1.5" d="M0,-3.0v7 M-2.5,-0.5L0,-3.0L2.5,-0.5"/>
                </g>
               <g id="resetDef">
                       <use xlink:href="#rim2" fill="#404040">
                               <set attributeName="fill" to="#808080" begin="reset.mouseover" end="reset.mouseout"/>
                       </use>
               </g>
        </defs>

<script type="text/javascript">
var viewWidth = 1727;
var viewHeight = 1198;
var sectionId = 'dynsection-0';
</script>
<script xlink:href="../../svgpan.js"/>
<svg id="graph" class="graph">
<g id="viewport">
<title>G</title>
<polygon fill="white" stroke="white" points="-4,5 -4,-1194 1724,-1194 1724,5 -4,5"/>
<!-- Node1 -->
<g id="node1" class="node"><title>Node1</title>
<polygon fill="#bfbfbf" stroke="black" points="1063,-444.5 1063,-507.5 1197,-507.5 1197,-444.5 1063,-444.5"/>
<text text-anchor="middle" x="1130" y="-494.5" font-family="Helvetica,sans-Serif" font-size="10.00">pocketmine\entity\Creature</text>
<polyline fill="none" stroke="black" points="1063,-486.5 1197,-486.5 "/>
<text text-anchor="middle" x="1130" y="-473.5" font-family="Helvetica,sans-Serif" font-size="10.00"> </text>
<polyline fill="none" stroke="black" points="1063,-465.5 1197,-465.5 "/>
<text text-anchor="middle" x="1130" y="-452.5" font-family="Helvetica,sans-Serif" font-size="10.00"> </text>
</g>
<!-- Node5 -->
<g id="node9" class="node"><title>Node5</title>
<a xlink:href="../../d9/d0a/classpocketmine_1_1entity_1_1_animal.html" target="_top" xlink:title="{pocketmine\\entity\\Animal\n||}">
<polygon fill="white" stroke="black" points="417.5,-272.5 417.5,-335.5 544.5,-335.5 544.5,-272.5 417.5,-272.5"/>
<text text-anchor="middle" x="481" y="-322.5" font-family="Helvetica,sans-Serif" font-size="10.00">pocketmine\entity\Animal</text>
<polyline fill="none" stroke="black" points="417.5,-314.5 544.5,-314.5 "/>
<text text-anchor="middle" x="481" y="-301.5" font-family="Helvetica,sans-Serif" font-size="10.00"> </text>
<polyline fill="none" stroke="black" points="417.5,-293.5 544.5,-293.5 "/>
<text text-anchor="middle" x="481" y="-280.5" font-family="Helvetica,sans-Serif" font-size="10.00"> </text>
</a>
</g>
<!-- Node1&#45;&gt;Node5 -->
<g id="edge8" class="edge"><title>Node1&#45;&gt;Node5</title>
<path fill="none" stroke="midnightblue" d="M1053.15,-455.632C923.743,-421.337 664.772,-352.704 544.763,-320.899"/>
<polygon fill="none" stroke="midnightblue" points="1052.43,-459.062 1062.99,-458.241 1054.22,-452.296 1052.43,-459.062"/>
</g>
<!-- Node12 -->
<g id="node23" class="node"><title>Node12</title>
<a xlink:href="../../d4/ddf/classpocketmine_1_1entity_1_1_human.html" target="_top" xlink:title="{pocketmine\\entity\\Human\n|+ $width\l+ $length\l+ $height\l# $nameTag\l# $inventory\l|+ getInventory()\l+ saveNBT()\l+ spawnTo()\l+ despawnFrom()\l+ getData()\l+ attack()\l+ heal()\l# initEntity()\l}">
<polygon fill="white" stroke="black" points="992,-201 992,-407 1120,-407 1120,-201 992,-201"/>
<text text-anchor="middle" x="1056" y="-394" font-family="Helvetica,sans-Serif" font-size="10.00">pocketmine\entity\Human</text>
<polyline fill="none" stroke="black" points="992,-386 1120,-386 "/>
<text text-anchor="start" x="1000" y="-373" font-family="Helvetica,sans-Serif" font-size="10.00">+ $width</text>
<text text-anchor="start" x="1000" y="-360" font-family="Helvetica,sans-Serif" font-size="10.00">+ $length</text>
<text text-anchor="start" x="1000" y="-347" font-family="Helvetica,sans-Serif" font-size="10.00">+ $height</text>
<text text-anchor="start" x="1000" y="-334" font-family="Helvetica,sans-Serif" font-size="10.00"># $nameTag</text>
<text text-anchor="start" x="1000" y="-321" font-family="Helvetica,sans-Serif" font-size="10.00"># $inventory</text>
<polyline fill="none" stroke="black" points="992,-313 1120,-313 "/>
<text text-anchor="start" x="1000" y="-300" font-family="Helvetica,sans-Serif" font-size="10.00">+ getInventory()</text>
<text text-anchor="start" x="1000" y="-287" font-family="Helvetica,sans-Serif" font-size="10.00">+ saveNBT()</text>
<text text-anchor="start" x="1000" y="-274" font-family="Helvetica,sans-Serif" font-size="10.00">+ spawnTo()</text>
<text text-anchor="start" x="1000" y="-261" font-family="Helvetica,sans-Serif" font-size="10.00">+ despawnFrom()</text>
<text text-anchor="start" x="1000" y="-248" font-family="Helvetica,sans-Serif" font-size="10.00">+ getData()</text>
<text text-anchor="start" x="1000" y="-235" font-family="Helvetica,sans-Serif" font-size="10.00">+ attack()</text>
<text text-anchor="start" x="1000" y="-222" font-family="Helvetica,sans-Serif" font-size="10.00">+ heal()</text>
<text text-anchor="start" x="1000" y="-209" font-family="Helvetica,sans-Serif" font-size="10.00"># initEntity()</text>
</a>
</g>
<!-- Node1&#45;&gt;Node12 -->
<g id="edge22" class="edge"><title>Node1&#45;&gt;Node12</title>
<path fill="none" stroke="midnightblue" d="M1112.42,-435.129C1108.72,-426.53 1104.66,-417.091 1100.46,-407.341"/>
<polygon fill="none" stroke="midnightblue" points="1109.26,-436.65 1116.43,-444.453 1115.69,-433.883 1109.26,-436.65"/>
</g>
<!-- Node13 -->
<g id="node25" class="node"><title>Node13</title>
<a xlink:href="../../d5/d2b/classpocketmine_1_1entity_1_1_monster.html" target="_top" xlink:title="{pocketmine\\entity\\Monster\n||}">
<polygon fill="white" stroke="black" points="1138,-272.5 1138,-335.5 1270,-335.5 1270,-272.5 1138,-272.5"/>
<text text-anchor="middle" x="1204" y="-322.5" font-family="Helvetica,sans-Serif" font-size="10.00">pocketmine\entity\Monster</text>
<polyline fill="none" stroke="black" points="1138,-314.5 1270,-314.5 "/>
<text text-anchor="middle" x="1204" y="-301.5" font-family="Helvetica,sans-Serif" font-size="10.00"> </text>
<polyline fill="none" stroke="black" points="1138,-293.5 1270,-293.5 "/>
<text text-anchor="middle" x="1204" y="-280.5" font-family="Helvetica,sans-Serif" font-size="10.00"> </text>
</a>
</g>
<!-- Node1&#45;&gt;Node13 -->
<g id="edge24" class="edge"><title>Node1&#45;&gt;Node13</title>
<path fill="none" stroke="midnightblue" d="M1147.66,-434.962C1160.76,-404.505 1178.37,-363.582 1190.39,-335.638"/>
<polygon fill="none" stroke="midnightblue" points="1144.31,-433.883 1143.57,-444.453 1150.74,-436.65 1144.31,-433.883"/>
</g>
<!-- Node21 -->
<g id="node41" class="node"><title>Node21</title>
<a xlink:href="../../d9/d6b/classpocketmine_1_1entity_1_1_villager.html" target="_top" xlink:title="{pocketmine\\entity\\Villager\n|+ FARMER\l+ LIBRARIAN\l+ PRIEST\l+ BLACKSMITH\l+ BUTCHER\l|+ setProfession()\l}">
<polygon fill="white" stroke="black" points="1287.5,-246.5 1287.5,-361.5 1416.5,-361.5 1416.5,-246.5 1287.5,-246.5"/>
<text text-anchor="middle" x="1352" y="-348.5" font-family="Helvetica,sans-Serif" font-size="10.00">pocketmine\entity\Villager</text>
<polyline fill="none" stroke="black" points="1287.5,-340.5 1416.5,-340.5 "/>
<text text-anchor="start" x="1295.5" y="-327.5" font-family="Helvetica,sans-Serif" font-size="10.00">+ FARMER</text>
<text text-anchor="start" x="1295.5" y="-314.5" font-family="Helvetica,sans-Serif" font-size="10.00">+ LIBRARIAN</text>
<text text-anchor="start" x="1295.5" y="-301.5" font-family="Helvetica,sans-Serif" font-size="10.00">+ PRIEST</text>
<text text-anchor="start" x="1295.5" y="-288.5" font-family="Helvetica,sans-Serif" font-size="10.00">+ BLACKSMITH</text>
<text text-anchor="start" x="1295.5" y="-275.5" font-family="Helvetica,sans-Serif" font-size="10.00">+ BUTCHER</text>
<polyline fill="none" stroke="black" points="1287.5,-267.5 1416.5,-267.5 "/>
<text text-anchor="start" x="1295.5" y="-254.5" font-family="Helvetica,sans-Serif" font-size="10.00">+ setProfession()</text>
</a>
</g>
<!-- Node1&#45;&gt;Node21 -->
<g id="edge40" class="edge"><title>Node1&#45;&gt;Node21</title>
<path fill="none" stroke="midnightblue" d="M1206.41,-450.324C1231.21,-439.691 1257.77,-425.648 1279,-408 1294.52,-395.098 1308.27,-378.133 1319.54,-361.657"/>
<polygon fill="none" stroke="midnightblue" points="1204.9,-447.162 1197.01,-454.233 1207.59,-453.626 1204.9,-447.162"/>
</g>
<!-- Node2 -->
<g id="node2" class="node"><title>Node2</title>
<a xlink:href="../../df/d0c/classpocketmine_1_1entity_1_1_living.html" target="_top" xlink:title="{pocketmine\\entity\\Living\n|# $gravity\l# $drag\l|# initEntity()\l}">
<polygon fill="white" stroke="black" points="1069,-545 1069,-621 1191,-621 1191,-545 1069,-545"/>
<text text-anchor="middle" x="1130" y="-608" font-family="Helvetica,sans-Serif" font-size="10.00">pocketmine\entity\Living</text>
<polyline fill="none" stroke="black" points="1069,-600 1191,-600 "/>
<text text-anchor="start" x="1077" y="-587" font-family="Helvetica,sans-Serif" font-size="10.00"># $gravity</text>
<text text-anchor="start" x="1077" y="-574" font-family="Helvetica,sans-Serif" font-size="10.00"># $drag</text>
<polyline fill="none" stroke="black" points="1069,-566 1191,-566 "/>
<text text-anchor="start" x="1077" y="-553" font-family="Helvetica,sans-Serif" font-size="10.00"># initEntity()</text>
</a>
</g>
<!-- Node2&#45;&gt;Node1 -->
<g id="edge2" class="edge"><title>Node2&#45;&gt;Node1</title>
<path fill="none" stroke="midnightblue" d="M1130,-534.716C1130,-525.499 1130,-516.073 1130,-507.547"/>
<polygon fill="none" stroke="midnightblue" points="1126.5,-534.974 1130,-544.975 1133.5,-534.975 1126.5,-534.974"/>
</g>
<!-- Node3 -->
<g id="node4" class="node"><title>Node3</title>
<a xlink:href="../../d2/d3c/classpocketmine_1_1entity_1_1_entity.html" target="_top" xlink:title="{pocketmine\\entity\\Entity\n|+ $passenger\l+ $vehicle\l+ $chunkX\l+ $chunkZ\l+ $chunk\l+ $lastX\l+ $lastY\l+ $lastZ\l+ $motionX\l+ $motionY\land 25 more...+ $entityCount\l+ $needUpdate\l# $hasSpawned\l# $id\l# $age\l# $isStatic\l# $isColliding\l# $inWater\l# $fireProof\l# $spawnTime\l# $gravity\l# $drag\l# $server\l|+ __construct()\l+ saveNBT()\l+ getViewers()\l+ spawnTo()\l+ despawnFrom()\l+ attack()\l+ heal()\l+ getHealth()\l+ setHealth()\l+ getMaxHealth()\land 38 more...# initEntity()\l# checkObstruction()\l# updateFallState()\l# switchLevel()\l# checkBlockCollision()\l}">
<polygon fill="white" stroke="black" points="975,-658.5 975,-1189.5 1119,-1189.5 1119,-658.5 975,-658.5"/>
<text text-anchor="middle" x="1047" y="-1176.5" font-family="Helvetica,sans-Serif" font-size="10.00">pocketmine\entity\Entity</text>
<polyline fill="none" stroke="black" points="975,-1168.5 1119,-1168.5 "/>
<text text-anchor="start" x="983" y="-1155.5" font-family="Helvetica,sans-Serif" font-size="10.00">+ $passenger</text>
<text text-anchor="start" x="983" y="-1142.5" font-family="Helvetica,sans-Serif" font-size="10.00">+ $vehicle</text>
<text text-anchor="start" x="983" y="-1129.5" font-family="Helvetica,sans-Serif" font-size="10.00">+ $chunkX</text>
<text text-anchor="start" x="983" y="-1116.5" font-family="Helvetica,sans-Serif" font-size="10.00">+ $chunkZ</text>
<text text-anchor="start" x="983" y="-1103.5" font-family="Helvetica,sans-Serif" font-size="10.00">+ $chunk</text>
<text text-anchor="start" x="983" y="-1090.5" font-family="Helvetica,sans-Serif" font-size="10.00">+ $lastX</text>
<text text-anchor="start" x="983" y="-1077.5" font-family="Helvetica,sans-Serif" font-size="10.00">+ $lastY</text>
<text text-anchor="start" x="983" y="-1064.5" font-family="Helvetica,sans-Serif" font-size="10.00">+ $lastZ</text>
<text text-anchor="start" x="983" y="-1051.5" font-family="Helvetica,sans-Serif" font-size="10.00">+ $motionX</text>
<text text-anchor="start" x="983" y="-1038.5" font-family="Helvetica,sans-Serif" font-size="10.00">+ $motionY</text>
<text text-anchor="start" x="983" y="-1025.5" font-family="Helvetica,sans-Serif" font-size="10.00">and 25 more...+ $entityCount</text>
<text text-anchor="start" x="983" y="-1012.5" font-family="Helvetica,sans-Serif" font-size="10.00">+ $needUpdate</text>
<text text-anchor="start" x="983" y="-999.5" font-family="Helvetica,sans-Serif" font-size="10.00"># $hasSpawned</text>
<text text-anchor="start" x="983" y="-986.5" font-family="Helvetica,sans-Serif" font-size="10.00"># $id</text>
<text text-anchor="start" x="983" y="-973.5" font-family="Helvetica,sans-Serif" font-size="10.00"># $age</text>
<text text-anchor="start" x="983" y="-960.5" font-family="Helvetica,sans-Serif" font-size="10.00"># $isStatic</text>
<text text-anchor="start" x="983" y="-947.5" font-family="Helvetica,sans-Serif" font-size="10.00"># $isColliding</text>
<text text-anchor="start" x="983" y="-934.5" font-family="Helvetica,sans-Serif" font-size="10.00"># $inWater</text>
<text text-anchor="start" x="983" y="-921.5" font-family="Helvetica,sans-Serif" font-size="10.00"># $fireProof</text>
<text text-anchor="start" x="983" y="-908.5" font-family="Helvetica,sans-Serif" font-size="10.00"># $spawnTime</text>
<text text-anchor="start" x="983" y="-895.5" font-family="Helvetica,sans-Serif" font-size="10.00"># $gravity</text>
<text text-anchor="start" x="983" y="-882.5" font-family="Helvetica,sans-Serif" font-size="10.00"># $drag</text>
<text text-anchor="start" x="983" y="-869.5" font-family="Helvetica,sans-Serif" font-size="10.00"># $server</text>
<polyline fill="none" stroke="black" points="975,-861.5 1119,-861.5 "/>
<text text-anchor="start" x="983" y="-848.5" font-family="Helvetica,sans-Serif" font-size="10.00">+ __construct()</text>
<text text-anchor="start" x="983" y="-835.5" font-family="Helvetica,sans-Serif" font-size="10.00">+ saveNBT()</text>
<text text-anchor="start" x="983" y="-822.5" font-family="Helvetica,sans-Serif" font-size="10.00">+ getViewers()</text>
<text text-anchor="start" x="983" y="-809.5" font-family="Helvetica,sans-Serif" font-size="10.00">+ spawnTo()</text>
<text text-anchor="start" x="983" y="-796.5" font-family="Helvetica,sans-Serif" font-size="10.00">+ despawnFrom()</text>
<text text-anchor="start" x="983" y="-783.5" font-family="Helvetica,sans-Serif" font-size="10.00">+ attack()</text>
<text text-anchor="start" x="983" y="-770.5" font-family="Helvetica,sans-Serif" font-size="10.00">+ heal()</text>
<text text-anchor="start" x="983" y="-757.5" font-family="Helvetica,sans-Serif" font-size="10.00">+ getHealth()</text>
<text text-anchor="start" x="983" y="-744.5" font-family="Helvetica,sans-Serif" font-size="10.00">+ setHealth()</text>
<text text-anchor="start" x="983" y="-731.5" font-family="Helvetica,sans-Serif" font-size="10.00">+ getMaxHealth()</text>
<text text-anchor="start" x="983" y="-718.5" font-family="Helvetica,sans-Serif" font-size="10.00">and 38 more...# initEntity()</text>
<text text-anchor="start" x="983" y="-705.5" font-family="Helvetica,sans-Serif" font-size="10.00"># checkObstruction()</text>
<text text-anchor="start" x="983" y="-692.5" font-family="Helvetica,sans-Serif" font-size="10.00"># updateFallState()</text>
<text text-anchor="start" x="983" y="-679.5" font-family="Helvetica,sans-Serif" font-size="10.00"># switchLevel()</text>
<text text-anchor="start" x="983" y="-666.5" font-family="Helvetica,sans-Serif" font-size="10.00"># checkBlockCollision()</text>
</a>
</g>
<!-- Node3&#45;&gt;Node2 -->
<g id="edge4" class="edge"><title>Node3&#45;&gt;Node2</title>
<path fill="none" stroke="midnightblue" d="M1114.05,-648.531C1116.46,-638.627 1118.68,-629.496 1120.66,-621.392"/>
<polygon fill="none" stroke="midnightblue" points="1110.65,-647.712 1111.68,-658.256 1117.45,-649.367 1110.65,-647.712"/>
</g>
<!-- Node4 -->
<g id="node6" class="node"><title>Node4</title>
<a xlink:href="../../d7/da6/interfacepocketmine_1_1entity_1_1_damageable.html" target="_top" xlink:title="{pocketmine\\entity\\Damageable\n||}">
<polygon fill="white" stroke="black" points="1137,-892.5 1137,-955.5 1289,-955.5 1289,-892.5 1137,-892.5"/>
<text text-anchor="middle" x="1213" y="-942.5" font-family="Helvetica,sans-Serif" font-size="10.00">pocketmine\entity\Damageable</text>
<polyline fill="none" stroke="black" points="1137,-934.5 1289,-934.5 "/>
<text text-anchor="middle" x="1213" y="-921.5" font-family="Helvetica,sans-Serif" font-size="10.00"> </text>
<polyline fill="none" stroke="black" points="1137,-913.5 1289,-913.5 "/>
<text text-anchor="middle" x="1213" y="-900.5" font-family="Helvetica,sans-Serif" font-size="10.00"> </text>
</a>
</g>
<!-- Node4&#45;&gt;Node2 -->
<g id="edge6" class="edge"><title>Node4&#45;&gt;Node2</title>
<path fill="none" stroke="midnightblue" d="M1202.89,-882.475C1186.66,-815.797 1155.02,-685.813 1139.31,-621.266"/>
<polygon fill="none" stroke="midnightblue" points="1199.5,-883.337 1205.27,-892.226 1206.3,-881.682 1199.5,-883.337"/>
</g>
<!-- Node6 -->
<g id="node11" class="node"><title>Node6</title>
<a xlink:href="../../d9/d0b/classpocketmine_1_1entity_1_1_chicken.html" target="_top" xlink:title="{pocketmine\\entity\\Chicken\n||}">
<polygon fill="white" stroke="black" points="-0.5,-100.5 -0.5,-163.5 132.5,-163.5 132.5,-100.5 -0.5,-100.5"/>
<text text-anchor="middle" x="66" y="-150.5" font-family="Helvetica,sans-Serif" font-size="10.00">pocketmine\entity\Chicken</text>
<polyline fill="none" stroke="black" points="-0.5,-142.5 132.5,-142.5 "/>
<text text-anchor="middle" x="66" y="-129.5" font-family="Helvetica,sans-Serif" font-size="10.00"> </text>
<polyline fill="none" stroke="black" points="-0.5,-121.5 132.5,-121.5 "/>
<text text-anchor="middle" x="66" y="-108.5" font-family="Helvetica,sans-Serif" font-size="10.00"> </text>
</a>
</g>
<!-- Node5&#45;&gt;Node6 -->
<g id="edge10" class="edge"><title>Node5&#45;&gt;Node6</title>
<path fill="none" stroke="midnightblue" d="M407.822,-274.181C338.892,-246.018 232.792,-202.479 141,-164 138.258,-162.851 135.462,-161.675 132.638,-160.484"/>
<polygon fill="none" stroke="midnightblue" points="406.716,-277.509 417.297,-278.05 409.362,-271.029 406.716,-277.509"/>
</g>
<!-- Node7 -->
<g id="node13" class="node"><title>Node7</title>
<a xlink:href="../../d4/d80/classpocketmine_1_1entity_1_1_cow.html" target="_top" xlink:title="{pocketmine\\entity\\Cow\n||}">
<polygon fill="white" stroke="black" points="149.5,-100.5 149.5,-163.5 266.5,-163.5 266.5,-100.5 149.5,-100.5"/>
<text text-anchor="middle" x="208" y="-150.5" font-family="Helvetica,sans-Serif" font-size="10.00">pocketmine\entity\Cow</text>
<polyline fill="none" stroke="black" points="149.5,-142.5 266.5,-142.5 "/>
<text text-anchor="middle" x="208" y="-129.5" font-family="Helvetica,sans-Serif" font-size="10.00"> </text>
<polyline fill="none" stroke="black" points="149.5,-121.5 266.5,-121.5 "/>
<text text-anchor="middle" x="208" y="-108.5" font-family="Helvetica,sans-Serif" font-size="10.00"> </text>
</a>
</g>
<!-- Node5&#45;&gt;Node7 -->
<g id="edge12" class="edge"><title>Node5&#45;&gt;Node7</title>
<path fill="none" stroke="midnightblue" d="M422.349,-267.048C373.471,-236.252 304.586,-192.853 258.216,-163.638"/>
<polygon fill="none" stroke="midnightblue" points="420.601,-270.083 430.928,-272.453 424.333,-264.161 420.601,-270.083"/>
</g>
<!-- Node8 -->
<g id="node15" class="node"><title>Node8</title>
<a xlink:href="../../d3/d91/classpocketmine_1_1entity_1_1_ocelot.html" target="_top" xlink:title="{pocketmine\\entity\\Ocelot\n||}">
<polygon fill="white" stroke="black" points="283.5,-100.5 283.5,-163.5 408.5,-163.5 408.5,-100.5 283.5,-100.5"/>
<text text-anchor="middle" x="346" y="-150.5" font-family="Helvetica,sans-Serif" font-size="10.00">pocketmine\entity\Ocelot</text>
<polyline fill="none" stroke="black" points="283.5,-142.5 408.5,-142.5 "/>
<text text-anchor="middle" x="346" y="-129.5" font-family="Helvetica,sans-Serif" font-size="10.00"> </text>
<polyline fill="none" stroke="black" points="283.5,-121.5 408.5,-121.5 "/>
<text text-anchor="middle" x="346" y="-108.5" font-family="Helvetica,sans-Serif" font-size="10.00"> </text>
</a>
</g>
<!-- Node5&#45;&gt;Node8 -->
<g id="edge14" class="edge"><title>Node5&#45;&gt;Node8</title>
<path fill="none" stroke="midnightblue" d="M450.024,-264.534C426,-233.927 393.145,-192.066 370.832,-163.638"/>
<polygon fill="none" stroke="midnightblue" points="447.311,-266.747 456.239,-272.453 452.818,-262.425 447.311,-266.747"/>
</g>
<!-- Node9 -->
<g id="node17" class="node"><title>Node9</title>
<a xlink:href="../../d8/d3e/classpocketmine_1_1entity_1_1_pig.html" target="_top" xlink:title="{pocketmine\\entity\\Pig\n||}">
<polygon fill="white" stroke="black" points="425.5,-100.5 425.5,-163.5 536.5,-163.5 536.5,-100.5 425.5,-100.5"/>
<text text-anchor="middle" x="481" y="-150.5" font-family="Helvetica,sans-Serif" font-size="10.00">pocketmine\entity\Pig</text>
<polyline fill="none" stroke="black" points="425.5,-142.5 536.5,-142.5 "/>
<text text-anchor="middle" x="481" y="-129.5" font-family="Helvetica,sans-Serif" font-size="10.00"> </text>
<polyline fill="none" stroke="black" points="425.5,-121.5 536.5,-121.5 "/>
<text text-anchor="middle" x="481" y="-108.5" font-family="Helvetica,sans-Serif" font-size="10.00"> </text>
</a>
</g>
<!-- Node5&#45;&gt;Node9 -->
<g id="edge16" class="edge"><title>Node5&#45;&gt;Node9</title>
<path fill="none" stroke="midnightblue" d="M481,-262.168C481,-231.798 481,-191.341 481,-163.638"/>
<polygon fill="none" stroke="midnightblue" points="477.5,-262.453 481,-272.453 484.5,-262.453 477.5,-262.453"/>
</g>
<!-- Node10 -->
<g id="node19" class="node"><title>Node10</title>
<a xlink:href="../../d4/d1e/classpocketmine_1_1entity_1_1_sheep.html" target="_top" xlink:title="{pocketmine\\entity\\Sheep\n||}">
<polygon fill="white" stroke="black" points="553.5,-100.5 553.5,-163.5 678.5,-163.5 678.5,-100.5 553.5,-100.5"/>
<text text-anchor="middle" x="616" y="-150.5" font-family="Helvetica,sans-Serif" font-size="10.00">pocketmine\entity\Sheep</text>
<polyline fill="none" stroke="black" points="553.5,-142.5 678.5,-142.5 "/>
<text text-anchor="middle" x="616" y="-129.5" font-family="Helvetica,sans-Serif" font-size="10.00"> </text>
<polyline fill="none" stroke="black" points="553.5,-121.5 678.5,-121.5 "/>
<text text-anchor="middle" x="616" y="-108.5" font-family="Helvetica,sans-Serif" font-size="10.00"> </text>
</a>
</g>
<!-- Node5&#45;&gt;Node10 -->
<g id="edge18" class="edge"><title>Node5&#45;&gt;Node10</title>
<path fill="none" stroke="midnightblue" d="M511.976,-264.534C536,-233.927 568.855,-192.066 591.168,-163.638"/>
<polygon fill="none" stroke="midnightblue" points="509.182,-262.425 505.761,-272.453 514.689,-266.747 509.182,-262.425"/>
</g>
<!-- Node11 -->
<g id="node21" class="node"><title>Node11</title>
<a xlink:href="../../d1/d54/classpocketmine_1_1entity_1_1_wolf.html" target="_top" xlink:title="{pocketmine\\entity\\Wolf\n||}">
<polygon fill="white" stroke="black" points="695.5,-100.5 695.5,-163.5 812.5,-163.5 812.5,-100.5 695.5,-100.5"/>
<text text-anchor="middle" x="754" y="-150.5" font-family="Helvetica,sans-Serif" font-size="10.00">pocketmine\entity\Wolf</text>
<polyline fill="none" stroke="black" points="695.5,-142.5 812.5,-142.5 "/>
<text text-anchor="middle" x="754" y="-129.5" font-family="Helvetica,sans-Serif" font-size="10.00"> </text>
<polyline fill="none" stroke="black" points="695.5,-121.5 812.5,-121.5 "/>
<text text-anchor="middle" x="754" y="-108.5" font-family="Helvetica,sans-Serif" font-size="10.00"> </text>
</a>
</g>
<!-- Node5&#45;&gt;Node11 -->
<g id="edge20" class="edge"><title>Node5&#45;&gt;Node11</title>
<path fill="none" stroke="midnightblue" d="M539.651,-267.048C588.529,-236.252 657.414,-192.853 703.784,-163.638"/>
<polygon fill="none" stroke="midnightblue" points="537.667,-264.161 531.072,-272.453 541.399,-270.083 537.667,-264.161"/>
</g>
<!-- Node14 -->
<g id="node27" class="node"><title>Node14</title>
<a xlink:href="../../de/d3d/classpocketmine_1_1entity_1_1_creeper.html" target="_top" xlink:title="{pocketmine\\entity\\Creeper\n||}">
<polygon fill="white" stroke="black" points="829.5,-100.5 829.5,-163.5 960.5,-163.5 960.5,-100.5 829.5,-100.5"/>
<text text-anchor="middle" x="895" y="-150.5" font-family="Helvetica,sans-Serif" font-size="10.00">pocketmine\entity\Creeper</text>
<polyline fill="none" stroke="black" points="829.5,-142.5 960.5,-142.5 "/>
<text text-anchor="middle" x="895" y="-129.5" font-family="Helvetica,sans-Serif" font-size="10.00"> </text>
<polyline fill="none" stroke="black" points="829.5,-121.5 960.5,-121.5 "/>
<text text-anchor="middle" x="895" y="-108.5" font-family="Helvetica,sans-Serif" font-size="10.00"> </text>
</a>
</g>
<!-- Node13&#45;&gt;Node14 -->
<g id="edge26" class="edge"><title>Node13&#45;&gt;Node14</title>
<path fill="none" stroke="midnightblue" d="M1184.16,-263.488C1171.36,-241.476 1152.67,-215.634 1129,-200 1068.18,-159.832 1038.31,-186.564 969,-164 966.205,-163.09 963.371,-162.114 960.522,-161.089"/>
<polygon fill="none" stroke="midnightblue" points="1181.18,-265.317 1189.12,-272.331 1187.28,-261.896 1181.18,-265.317"/>
</g>
<!-- Node15 -->
<g id="node29" class="node"><title>Node15</title>
<a xlink:href="../../d4/d3e/classpocketmine_1_1entity_1_1_enderman.html" target="_top" xlink:title="{pocketmine\\entity\\Enderman\n||}">
<polygon fill="white" stroke="black" points="977.5,-100.5 977.5,-163.5 1118.5,-163.5 1118.5,-100.5 977.5,-100.5"/>
<text text-anchor="middle" x="1048" y="-150.5" font-family="Helvetica,sans-Serif" font-size="10.00">pocketmine\entity\Enderman</text>
<polyline fill="none" stroke="black" points="977.5,-142.5 1118.5,-142.5 "/>
<text text-anchor="middle" x="1048" y="-129.5" font-family="Helvetica,sans-Serif" font-size="10.00"> </text>
<polyline fill="none" stroke="black" points="977.5,-121.5 1118.5,-121.5 "/>
<text text-anchor="middle" x="1048" y="-108.5" font-family="Helvetica,sans-Serif" font-size="10.00"> </text>
</a>
</g>
<!-- Node13&#45;&gt;Node15 -->
<g id="edge28" class="edge"><title>Node13&#45;&gt;Node15</title>
<path fill="none" stroke="midnightblue" d="M1178.64,-264.077C1165.02,-243.947 1147.29,-219.693 1129,-200 1117.13,-187.221 1102.91,-174.562 1089.73,-163.694"/>
<polygon fill="none" stroke="midnightblue" points="1175.75,-266.054 1184.21,-272.427 1181.57,-262.167 1175.75,-266.054"/>
</g>
<!-- Node16 -->
<g id="node31" class="node"><title>Node16</title>
<a xlink:href="../../d8/d41/classpocketmine_1_1entity_1_1_silverfish.html" target="_top" xlink:title="{pocketmine\\entity\\Silverfish\n||}">
<polygon fill="white" stroke="black" points="1135.5,-100.5 1135.5,-163.5 1272.5,-163.5 1272.5,-100.5 1135.5,-100.5"/>
<text text-anchor="middle" x="1204" y="-150.5" font-family="Helvetica,sans-Serif" font-size="10.00">pocketmine\entity\Silverfish</text>
<polyline fill="none" stroke="black" points="1135.5,-142.5 1272.5,-142.5 "/>
<text text-anchor="middle" x="1204" y="-129.5" font-family="Helvetica,sans-Serif" font-size="10.00"> </text>
<polyline fill="none" stroke="black" points="1135.5,-121.5 1272.5,-121.5 "/>
<text text-anchor="middle" x="1204" y="-108.5" font-family="Helvetica,sans-Serif" font-size="10.00"> </text>
</a>
</g>
<!-- Node13&#45;&gt;Node16 -->
<g id="edge30" class="edge"><title>Node13&#45;&gt;Node16</title>
<path fill="none" stroke="midnightblue" d="M1204,-262.168C1204,-231.798 1204,-191.341 1204,-163.638"/>
<polygon fill="none" stroke="midnightblue" points="1200.5,-262.453 1204,-272.453 1207.5,-262.453 1200.5,-262.453"/>
</g>
<!-- Node17 -->
<g id="node33" class="node"><title>Node17</title>
<a xlink:href="../../d7/d19/classpocketmine_1_1entity_1_1_skeleton.html" target="_top" xlink:title="{pocketmine\\entity\\Skeleton\n||}">
<polygon fill="white" stroke="black" points="1289.5,-100.5 1289.5,-163.5 1424.5,-163.5 1424.5,-100.5 1289.5,-100.5"/>
<text text-anchor="middle" x="1357" y="-150.5" font-family="Helvetica,sans-Serif" font-size="10.00">pocketmine\entity\Skeleton</text>
<polyline fill="none" stroke="black" points="1289.5,-142.5 1424.5,-142.5 "/>
<text text-anchor="middle" x="1357" y="-129.5" font-family="Helvetica,sans-Serif" font-size="10.00"> </text>
<polyline fill="none" stroke="black" points="1289.5,-121.5 1424.5,-121.5 "/>
<text text-anchor="middle" x="1357" y="-108.5" font-family="Helvetica,sans-Serif" font-size="10.00"> </text>
</a>
</g>
<!-- Node13&#45;&gt;Node17 -->
<g id="edge32" class="edge"><title>Node13&#45;&gt;Node17</title>
<path fill="none" stroke="midnightblue" d="M1229.81,-263.782C1243.43,-243.775 1261.02,-219.719 1279,-200 1290.62,-187.256 1304.49,-174.507 1317.3,-163.55"/>
<polygon fill="none" stroke="midnightblue" points="1226.91,-261.833 1224.23,-272.084 1232.72,-265.739 1226.91,-261.833"/>
</g>
<!-- Node18 -->
<g id="node35" class="node"><title>Node18</title>
<a xlink:href="../../d8/d2d/classpocketmine_1_1entity_1_1_spider.html" target="_top" xlink:title="{pocketmine\\entity\\Spider\n||}">
<polygon fill="white" stroke="black" points="1441.5,-100.5 1441.5,-163.5 1566.5,-163.5 1566.5,-100.5 1441.5,-100.5"/>
<text text-anchor="middle" x="1504" y="-150.5" font-family="Helvetica,sans-Serif" font-size="10.00">pocketmine\entity\Spider</text>
<polyline fill="none" stroke="black" points="1441.5,-142.5 1566.5,-142.5 "/>
<text text-anchor="middle" x="1504" y="-129.5" font-family="Helvetica,sans-Serif" font-size="10.00"> </text>
<polyline fill="none" stroke="black" points="1441.5,-121.5 1566.5,-121.5 "/>
<text text-anchor="middle" x="1504" y="-108.5" font-family="Helvetica,sans-Serif" font-size="10.00"> </text>
</a>
</g>
<!-- Node13&#45;&gt;Node18 -->
<g id="edge34" class="edge"><title>Node13&#45;&gt;Node18</title>
<path fill="none" stroke="midnightblue" d="M1223.88,-263.562C1236.7,-241.575 1255.39,-215.732 1279,-200 1337.49,-161.02 1366.42,-186.547 1433,-164 1435.69,-163.089 1438.42,-162.113 1441.15,-161.087"/>
<polygon fill="none" stroke="midnightblue" points="1220.77,-261.961 1218.92,-272.394 1226.87,-265.39 1220.77,-261.961"/>
</g>
<!-- Node19 -->
<g id="node37" class="node"><title>Node19</title>
<a xlink:href="../../d0/da7/classpocketmine_1_1entity_1_1_zombie.html" target="_top" xlink:title="{pocketmine\\entity\\Zombie\n||}">
<polygon fill="white" stroke="black" points="1583.5,-100.5 1583.5,-163.5 1712.5,-163.5 1712.5,-100.5 1583.5,-100.5"/>
<text text-anchor="middle" x="1648" y="-150.5" font-family="Helvetica,sans-Serif" font-size="10.00">pocketmine\entity\Zombie</text>
<polyline fill="none" stroke="black" points="1583.5,-142.5 1712.5,-142.5 "/>
<text text-anchor="middle" x="1648" y="-129.5" font-family="Helvetica,sans-Serif" font-size="10.00"> </text>
<polyline fill="none" stroke="black" points="1583.5,-121.5 1712.5,-121.5 "/>
<text text-anchor="middle" x="1648" y="-108.5" font-family="Helvetica,sans-Serif" font-size="10.00"> </text>
</a>
</g>
<!-- Node13&#45;&gt;Node19 -->
<g id="edge36" class="edge"><title>Node13&#45;&gt;Node19</title>
<path fill="none" stroke="midnightblue" d="M1223.01,-263.036C1235.62,-240.621 1254.4,-214.527 1279,-200 1393.11,-132.602 1447.17,-198.975 1575,-164 1577.8,-163.233 1580.64,-162.377 1583.48,-161.451"/>
<polygon fill="none" stroke="midnightblue" points="1219.81,-261.589 1218.14,-272.052 1225.97,-264.912 1219.81,-261.589"/>
</g>
<!-- Node20 -->
<g id="node39" class="node"><title>Node20</title>
<a xlink:href="../../db/d86/classpocketmine_1_1entity_1_1_pig_zombie.html" target="_top" xlink:title="{pocketmine\\entity\\PigZombie\n||}">
<polygon fill="white" stroke="black" points="1576.5,-0.5 1576.5,-63.5 1719.5,-63.5 1719.5,-0.5 1576.5,-0.5"/>
<text text-anchor="middle" x="1648" y="-50.5" font-family="Helvetica,sans-Serif" font-size="10.00">pocketmine\entity\PigZombie</text>
<polyline fill="none" stroke="black" points="1576.5,-42.5 1719.5,-42.5 "/>
<text text-anchor="middle" x="1648" y="-29.5" font-family="Helvetica,sans-Serif" font-size="10.00"> </text>
<polyline fill="none" stroke="black" points="1576.5,-21.5 1719.5,-21.5 "/>
<text text-anchor="middle" x="1648" y="-8.5" font-family="Helvetica,sans-Serif" font-size="10.00"> </text>
</a>
</g>
<!-- Node19&#45;&gt;Node20 -->
<g id="edge38" class="edge"><title>Node19&#45;&gt;Node20</title>
<path fill="none" stroke="midnightblue" d="M1648,-90.2111C1648,-81.37 1648,-72.1767 1648,-63.778"/>
<polygon fill="none" stroke="midnightblue" points="1644.5,-90.3593 1648,-100.359 1651.5,-90.3594 1644.5,-90.3593"/>
</g>
</g>
</svg>
        <g id="navigator" transform="translate(0 0)" fill="#404254">
                <rect fill="#f2f5e9" fill-opacity="0.5" stroke="#606060" stroke-width=".5" x="0" y="0" width="60" height="60"/>
                <use id="zoomplus" xlink:href="#zoomPlus" x="17" y="9" onmousedown="handleZoom(evt,'in')"/>
                <use id="zoomminus" xlink:href="#zoomMin" x="42" y="9" onmousedown="handleZoom(evt,'out')"/>
                <use id="reset" xlink:href="#resetDef" x="30" y="36" onmousedown="handleReset()"/>
                <g id="arrowUp" xlink:href="#dirArrow" transform="translate(30 24)" onmousedown="handlePan(0,-1)">
                  <use xlink:href="#rim" fill="#404040">
                        <set attributeName="fill" to="#808080" begin="arrowUp.mouseover" end="arrowUp.mouseout"/>
                  </use>
                  <path fill="none" stroke="white" stroke-width="1.5" d="M0,-3.0v7 M-2.5,-0.5L0,-3.0L2.5,-0.5"/>
                </g>
                <g id="arrowRight" xlink:href="#dirArrow" transform="rotate(90) translate(36 -43)" onmousedown="handlePan(1,0)">
                  <use xlink:href="#rim" fill="#404040">
                        <set attributeName="fill" to="#808080" begin="arrowRight.mouseover" end="arrowRight.mouseout"/>
                  </use>
                  <path fill="none" stroke="white" stroke-width="1.5" d="M0,-3.0v7 M-2.5,-0.5L0,-3.0L2.5,-0.5"/>
                </g>
                <g id="arrowDown" xlink:href="#dirArrow" transform="rotate(180) translate(-30 -48)" onmousedown="handlePan(0,1)">
                  <use xlink:href="#rim" fill="#404040">
                        <set attributeName="fill" to="#808080" begin="arrowDown.mouseover" end="arrowDown.mouseout"/>
                  </use>
                  <path fill="none" stroke="white" stroke-width="1.5" d="M0,-3.0v7 M-2.5,-0.5L0,-3.0L2.5,-0.5"/>
                </g>
                <g id="arrowLeft" xlink:href="#dirArrow" transform="rotate(270) translate(-36 17)" onmousedown="handlePan(-1,0)">
                  <use xlink:href="#rim" fill="#404040">
                        <set attributeName="fill" to="#808080" begin="arrowLeft.mouseover" end="arrowLeft.mouseout"/>
                  </use>
                  <path fill="none" stroke="white" stroke-width="1.5" d="M0,-3.0v7 M-2.5,-0.5L0,-3.0L2.5,-0.5"/>
                </g>
        </g>
</svg>
