<?xml version="1.0" encoding="UTF-8" standalone="no"?>
<!DOCTYPE svg PUBLIC "-//W3C//DTD SVG 1.1//EN"
 "http://www.w3.org/Graphics/SVG/1.1/DTD/svg11.dtd">
<!-- Generated by graphviz version 2.36.0 (20140111.2315)
 -->
<!-- Title: pocketmine\inventory\ContainerInventory\onClose Pages: 1 -->
<svg width="364pt" height="66pt"
 viewBox="0.00 0.00 364.00 66.00" xmlns="http://www.w3.org/2000/svg" xmlns:xlink="http://www.w3.org/1999/xlink">
<g id="graph0" class="graph" transform="scale(1 1) rotate(0) translate(4 62)">
<title>pocketmine\inventory\ContainerInventory\onClose</title>
<polygon fill="white" stroke="none" points="-4,4 -4,-62 360,-62 360,4 -4,4"/>
<!-- Node1 -->
<g id="node1" class="node"><title>Node1</title>
<polygon fill="#bfbfbf" stroke="black" points="0,-14 0,-44 152,-44 152,-14 0,-14"/>
<text text-anchor="start" x="8" y="-32" font-family="Helvetica,sans-Serif" font-size="10.00">pocketmine\inventory</text>
<text text-anchor="middle" x="76" y="-21" font-family="Helvetica,sans-Serif" font-size="10.00">\ContainerInventory\onClose</text>
</g>
<!-- Node2 -->
<g id="node2" class="node"><title>Node2</title>
<g id="a_node2"><a xlink:href="../../df/d2c/classpocketmine_1_1_player.html#a1c8bc00d964b5059917eaeeb4478245b" target="_top" xlink:title="pocketmine\\Player\\dataPacket">
<polygon fill="white" stroke="black" points="191.5,-38.5 191.5,-57.5 352.5,-57.5 352.5,-38.5 191.5,-38.5"/>
<text text-anchor="middle" x="272" y="-45.5" font-family="Helvetica,sans-Serif" font-size="10.00">pocketmine\Player\dataPacket</text>
</a>
</g>
</g>
<!-- Node1&#45;&gt;Node2 -->
<g id="edge1" class="edge"><title>Node1&#45;&gt;Node2</title>
<path fill="none" stroke="midnightblue" d="M152.005,-36.3459C161.581,-37.2837 171.458,-38.251 181.237,-39.2087"/>
<polygon fill="midnightblue" stroke="midnightblue" points="181.081,-42.7101 191.374,-40.2016 181.763,-35.7435 181.081,-42.7101"/>
</g>
<!-- Node3 -->
<g id="node3" class="node"><title>Node3</title>
<g id="a_node3"><a xlink:href="../../df/d2c/classpocketmine_1_1_player.html#ab6f53e7a66f91513248608f9823e7bef" target="_top" xlink:title="pocketmine\\Player\\getWindowId">
<polygon fill="white" stroke="black" points="188.5,-0.5 188.5,-19.5 355.5,-19.5 355.5,-0.5 188.5,-0.5"/>
<text text-anchor="middle" x="272" y="-7.5" font-family="Helvetica,sans-Serif" font-size="10.00">pocketmine\Player\getWindowId</text>
</a>
</g>
</g>
<!-- Node1&#45;&gt;Node3 -->
<g id="edge2" class="edge"><title>Node1&#45;&gt;Node3</title>
<path fill="none" stroke="midnightblue" d="M152.005,-21.6541C160.682,-20.8043 169.606,-19.9303 178.481,-19.0612"/>
<polygon fill="midnightblue" stroke="midnightblue" points="178.852,-22.5417 188.463,-18.0835 178.169,-15.575 178.852,-22.5417"/>
</g>
</g>
</svg>
