<?xml version="1.0" encoding="UTF-8" standalone="no"?>
<!DOCTYPE svg PUBLIC "-//W3C//DTD SVG 1.1//EN"
 "http://www.w3.org/Graphics/SVG/1.1/DTD/svg11.dtd">
<!-- Generated by graphviz version 2.26.3 (20100126.1600)
 -->
<!-- Title: G Pages: 1 -->
<svg width="434pt" height="70pt"
 viewBox="0.00 0.00 434.00 70.00" xmlns="http://www.w3.org/2000/svg" xmlns:xlink="http://www.w3.org/1999/xlink">
<g id="graph1" class="graph" transform="scale(1 1) rotate(0) translate(4 66)">
<title>G</title>
<polygon fill="white" stroke="white" points="-4,5 -4,-66 431,-66 431,5 -4,5"/>
<!-- Node1 -->
<g id="node1" class="node"><title>Node1</title>
<polygon fill="#bfbfbf" stroke="black" points="0,-20.5 0,-41.5 232,-41.5 232,-20.5 0,-20.5"/>
<text text-anchor="middle" x="116" y="-28.5" font-family="Helvetica,sans-Serif" font-size="10.00">pocketmine\inventory\ContainerInventory\onOpen</text>
</g>
<!-- Node2 -->
<g id="node3" class="node"><title>Node2</title>
<a xlink:href="../../df/d2c/classpocketmine_1_1_player.html#a1c8bc00d964b5059917eaeeb4478245b" target="_top" xlink:title="pocketmine\\Player\\dataPacket">
<polygon fill="white" stroke="black" points="272,-40.5 272,-61.5 422,-61.5 422,-40.5 272,-40.5"/>
<text text-anchor="middle" x="347" y="-48.5" font-family="Helvetica,sans-Serif" font-size="10.00">pocketmine\Player\dataPacket</text>
</a>
</g>
<!-- Node1&#45;&gt;Node2 -->
<g id="edge2" class="edge"><title>Node1&#45;&gt;Node2</title>
<path fill="none" stroke="midnightblue" d="M232.177,-41.0586C242.183,-41.9249 252.182,-42.7907 261.875,-43.6298"/>
<polygon fill="midnightblue" stroke="midnightblue" points="261.587,-47.1179 271.851,-44.4936 262.19,-40.144 261.587,-47.1179"/>
</g>
<!-- Node3 -->
<g id="node5" class="node"><title>Node3</title>
<a xlink:href="../../df/d2c/classpocketmine_1_1_player.html#ab6f53e7a66f91513248608f9823e7bef" target="_top" xlink:title="pocketmine\\Player\\getWindowId">
<polygon fill="white" stroke="black" points="268,-0.5 268,-21.5 426,-21.5 426,-0.5 268,-0.5"/>
<text text-anchor="middle" x="347" y="-8.5" font-family="Helvetica,sans-Serif" font-size="10.00">pocketmine\Player\getWindowId</text>
</a>
</g>
<!-- Node1&#45;&gt;Node3 -->
<g id="edge4" class="edge"><title>Node1&#45;&gt;Node3</title>
<path fill="none" stroke="midnightblue" d="M232.177,-20.9414C240.723,-20.2014 249.265,-19.4619 257.614,-18.739"/>
<polygon fill="midnightblue" stroke="midnightblue" points="258.03,-22.2162 267.691,-17.8666 257.426,-15.2423 258.03,-22.2162"/>
</g>
</g>
</svg>
