<?xml version="1.0" encoding="UTF-8" standalone="no"?>
<!DOCTYPE svg PUBLIC "-//W3C//DTD SVG 1.1//EN"
 "http://www.w3.org/Graphics/SVG/1.1/DTD/svg11.dtd">
<!-- Generated by graphviz version 2.26.3 (20100126.1600)
 -->
<!-- Title: pocketmine\inventory\ContainerInventory\onClose Pages: 1 -->
<svg width="344pt" height="70pt"
 viewBox="0.00 0.00 344.00 70.00" xmlns="http://www.w3.org/2000/svg" xmlns:xlink="http://www.w3.org/1999/xlink">
<g id="graph1" class="graph" transform="scale(1 1) rotate(0) translate(4 66)">
<title>pocketmine\inventory\ContainerInventory\onClose</title>
<polygon fill="white" stroke="white" points="-4,5 -4,-66 341,-66 341,5 -4,5"/>
<!-- Node1 -->
<g id="node1" class="node"><title>Node1</title>
<polygon fill="#bfbfbf" stroke="black" points="0.5,-14 0.5,-48 141.5,-48 141.5,-14 0.5,-14"/>
<text text-anchor="start" x="8.5" y="-35" font-family="Helvetica,sans-Serif" font-size="10.00">pocketmine\inventory</text>
<text text-anchor="middle" x="71" y="-22" font-family="Helvetica,sans-Serif" font-size="10.00">\ContainerInventory\onClose</text>
</g>
<!-- Node2 -->
<g id="node3" class="node"><title>Node2</title>
<a xlink:href="../../df/d2c/classpocketmine_1_1_player.html#a1c8bc00d964b5059917eaeeb4478245b" target="_top" xlink:title="pocketmine\\Player\\dataPacket">
<polygon fill="white" stroke="black" points="182,-40.5 182,-61.5 332,-61.5 332,-40.5 182,-40.5"/>
<text text-anchor="middle" x="257" y="-48.5" font-family="Helvetica,sans-Serif" font-size="10.00">pocketmine\Player\dataPacket</text>
</a>
</g>
<!-- Node1&#45;&gt;Node2 -->
<g id="edge2" class="edge"><title>Node1&#45;&gt;Node2</title>
<path fill="none" stroke="midnightblue" d="M141.584,-38.5897C151.45,-39.6505 161.673,-40.7498 171.774,-41.8359"/>
<polygon fill="midnightblue" stroke="midnightblue" points="171.499,-45.3264 181.816,-42.9157 172.247,-38.3665 171.499,-45.3264"/>
</g>
<!-- Node3 -->
<g id="node5" class="node"><title>Node3</title>
<a xlink:href="../../df/d2c/classpocketmine_1_1_player.html#ab6f53e7a66f91513248608f9823e7bef" target="_top" xlink:title="pocketmine\\Player\\getWindowId">
<polygon fill="white" stroke="black" points="178,-0.5 178,-21.5 336,-21.5 336,-0.5 178,-0.5"/>
<text text-anchor="middle" x="257" y="-8.5" font-family="Helvetica,sans-Serif" font-size="10.00">pocketmine\Player\getWindowId</text>
</a>
</g>
<!-- Node1&#45;&gt;Node3 -->
<g id="edge4" class="edge"><title>Node1&#45;&gt;Node3</title>
<path fill="none" stroke="midnightblue" d="M141.584,-23.4103C150.078,-22.4969 158.838,-21.555 167.556,-20.6176"/>
<polygon fill="midnightblue" stroke="midnightblue" points="168.185,-24.0703 177.753,-19.5212 167.436,-17.1104 168.185,-24.0703"/>
</g>
</g>
</svg>
