<?xml version="1.0" encoding="UTF-8" standalone="no"?>
<!DOCTYPE svg PUBLIC "-//W3C//DTD SVG 1.1//EN"
 "http://www.w3.org/Graphics/SVG/1.1/DTD/svg11.dtd">
<!-- Generated by graphviz version 2.26.3 (20100126.1600)
 -->
<!-- Title: pocketmine\inventory\ContainerInventory\onOpen Pages: 1 -->
<svg width="498pt" height="174pt"
 viewBox="0.00 0.00 498.00 174.00" xmlns="http://www.w3.org/2000/svg" xmlns:xlink="http://www.w3.org/1999/xlink">
<g id="graph1" class="graph" transform="scale(1 1) rotate(0) translate(4 170)">
<title>pocketmine\inventory\ContainerInventory\onOpen</title>
<polygon fill="white" stroke="white" points="-4,5 -4,-170 495,-170 495,5 -4,5"/>
<!-- Node1 -->
<g id="node1" class="node"><title>Node1</title>
<polygon fill="#bfbfbf" stroke="black" points="0.5,-69 0.5,-103 139.5,-103 139.5,-69 0.5,-69"/>
<text text-anchor="start" x="8.5" y="-90" font-family="Helvetica,sans-Serif" font-size="10.00">pocketmine\inventory</text>
<text text-anchor="middle" x="70" y="-77" font-family="Helvetica,sans-Serif" font-size="10.00">\ContainerInventory\onOpen</text>
</g>
<!-- Node2 -->
<g id="node3" class="node"><title>Node2</title>
<a xlink:href="../../df/d2c/classpocketmine_1_1_player.html#a1c8bc00d964b5059917eaeeb4478245b" target="_top" xlink:title="pocketmine\\Player\\dataPacket">
<polygon fill="white" stroke="black" points="180,-144.5 180,-165.5 330,-165.5 330,-144.5 180,-144.5"/>
<text text-anchor="middle" x="255" y="-152.5" font-family="Helvetica,sans-Serif" font-size="10.00">pocketmine\Player\dataPacket</text>
</a>
</g>
<!-- Node1&#45;&gt;Node2 -->
<g id="edge2" class="edge"><title>Node1&#45;&gt;Node2</title>
<path fill="none" stroke="midnightblue" d="M102.761,-103.062C123.381,-113.315 150.775,-126.063 176,-135 182.876,-137.436 190.187,-139.702 197.479,-141.768"/>
<polygon fill="midnightblue" stroke="midnightblue" points="196.8,-145.21 207.368,-144.458 198.638,-138.456 196.8,-145.21"/>
</g>
<!-- Node3 -->
<g id="node5" class="node"><title>Node3</title>
<a xlink:href="../../d5/dc4/classpocketmine_1_1inventory_1_1_base_inventory.html#a167054d5ea3477ddab9f870fea6510f5" target="_top" xlink:title="pocketmine\\inventory\l\\BaseInventory\\getType">
<polygon fill="white" stroke="black" points="194.5,-92 194.5,-126 315.5,-126 315.5,-92 194.5,-92"/>
<text text-anchor="start" x="202.5" y="-113" font-family="Helvetica,sans-Serif" font-size="10.00">pocketmine\inventory</text>
<text text-anchor="middle" x="255" y="-100" font-family="Helvetica,sans-Serif" font-size="10.00">\BaseInventory\getType</text>
</a>
</g>
<!-- Node1&#45;&gt;Node3 -->
<g id="edge4" class="edge"><title>Node1&#45;&gt;Node3</title>
<path fill="none" stroke="midnightblue" d="M139.677,-94.6625C154.324,-96.4835 169.785,-98.4057 184.463,-100.231"/>
<polygon fill="midnightblue" stroke="midnightblue" points="184.125,-103.715 194.48,-101.476 184.988,-96.7688 184.125,-103.715"/>
</g>
<!-- Node4 -->
<g id="node7" class="node"><title>Node4</title>
<a xlink:href="../../df/d2c/classpocketmine_1_1_player.html#ab6f53e7a66f91513248608f9823e7bef" target="_top" xlink:title="pocketmine\\Player\\getWindowId">
<polygon fill="white" stroke="black" points="176,-52.5 176,-73.5 334,-73.5 334,-52.5 176,-52.5"/>
<text text-anchor="middle" x="255" y="-60.5" font-family="Helvetica,sans-Serif" font-size="10.00">pocketmine\Player\getWindowId</text>
</a>
</g>
<!-- Node1&#45;&gt;Node4 -->
<g id="edge6" class="edge"><title>Node1&#45;&gt;Node4</title>
<path fill="none" stroke="midnightblue" d="M139.677,-77.3375C148.143,-76.2849 156.881,-75.1985 165.583,-74.1167"/>
<polygon fill="midnightblue" stroke="midnightblue" points="166.271,-77.5582 175.763,-72.8511 165.407,-70.6117 166.271,-77.5582"/>
</g>
<!-- Node5 -->
<g id="node9" class="node"><title>Node5</title>
<a xlink:href="../../d5/dc4/classpocketmine_1_1inventory_1_1_base_inventory.html#a78e842dd42ef0a0870385092b3c30896" target="_top" xlink:title="pocketmine\\inventory\l\\BaseInventory\\sendContents">
<polygon fill="white" stroke="black" points="182,-0 182,-34 328,-34 328,-0 182,-0"/>
<text text-anchor="start" x="190" y="-21" font-family="Helvetica,sans-Serif" font-size="10.00">pocketmine\inventory</text>
<text text-anchor="middle" x="255" y="-8" font-family="Helvetica,sans-Serif" font-size="10.00">\BaseInventory\sendContents</text>
</a>
</g>
<!-- Node1&#45;&gt;Node5 -->
<g id="edge8" class="edge"><title>Node1&#45;&gt;Node5</title>
<path fill="none" stroke="midnightblue" d="M110.271,-68.9184C129.966,-60.7559 154.093,-51.0378 176,-43 181.083,-41.1349 186.372,-39.2583 191.698,-37.4136"/>
<polygon fill="midnightblue" stroke="midnightblue" points="192.956,-40.6825 201.287,-34.137 190.693,-34.0585 192.956,-40.6825"/>
</g>
<!-- Node6 -->
<g id="node11" class="node"><title>Node6</title>
<a xlink:href="../../d5/dc4/classpocketmine_1_1inventory_1_1_base_inventory.html#a8bc94c0515906b5c1f3af5600d89b3df" target="_top" xlink:title="pocketmine\\inventory\l\\BaseInventory\\getItem">
<polygon fill="white" stroke="black" points="370.5,-0 370.5,-34 489.5,-34 489.5,-0 370.5,-0"/>
<text text-anchor="start" x="378.5" y="-21" font-family="Helvetica,sans-Serif" font-size="10.00">pocketmine\inventory</text>
<text text-anchor="middle" x="430" y="-8" font-family="Helvetica,sans-Serif" font-size="10.00">\BaseInventory\getItem</text>
</a>
</g>
<!-- Node5&#45;&gt;Node6 -->
<g id="edge10" class="edge"><title>Node5&#45;&gt;Node6</title>
<path fill="none" stroke="midnightblue" d="M328.202,-17C338.848,-17 349.785,-17 360.359,-17"/>
<polygon fill="midnightblue" stroke="midnightblue" points="360.364,-20.5001 370.364,-17 360.364,-13.5001 360.364,-20.5001"/>
</g>
</g>
</svg>
