<?xml version="1.0" encoding="UTF-8" standalone="no"?>
<!DOCTYPE svg PUBLIC "-//W3C//DTD SVG 1.1//EN"
 "http://www.w3.org/Graphics/SVG/1.1/DTD/svg11.dtd">
<!-- Generated by graphviz version 2.36.0 (20140111.2315)
 -->
<!-- Title: pocketmine\level\format\FullChunk\setProvider Pages: 1 -->
<svg width="340pt" height="136pt"
 viewBox="0.00 0.00 340.00 136.00" xmlns="http://www.w3.org/2000/svg" xmlns:xlink="http://www.w3.org/1999/xlink">
<g id="graph0" class="graph" transform="scale(1 1) rotate(0) translate(4 132)">
<title>pocketmine\level\format\FullChunk\setProvider</title>
<polygon fill="white" stroke="none" points="-4,4 -4,-132 336,-132 336,4 -4,4"/>
<!-- Node1 -->
<g id="node1" class="node"><title>Node1</title>
<polygon fill="#bfbfbf" stroke="black" points="0.5,-49 0.5,-79 133.5,-79 133.5,-49 0.5,-49"/>
<text text-anchor="start" x="8.5" y="-67" font-family="Helvetica,sans-Serif" font-size="10.00">pocketmine\level\format</text>
<text text-anchor="middle" x="67" y="-56" font-family="Helvetica,sans-Serif" font-size="10.00">\FullChunk\setProvider</text>
</g>
<!-- Node2 -->
<g id="node2" class="node"><title>Node2</title>
<g id="a_node2"><a xlink:href="../../db/dbb/classpocketmine_1_1level_1_1format_1_1anvil_1_1_anvil.html#aec1968f7e79949d34922e1d707a2ca3c" target="_top" xlink:title="pocketmine\\level\\format\l\\anvil\\Anvil\\setChunk">
<polygon fill="white" stroke="black" points="184.5,-98 184.5,-128 317.5,-128 317.5,-98 184.5,-98"/>
<text text-anchor="start" x="192.5" y="-116" font-family="Helvetica,sans-Serif" font-size="10.00">pocketmine\level\format</text>
<text text-anchor="middle" x="251" y="-105" font-family="Helvetica,sans-Serif" font-size="10.00">\anvil\Anvil\setChunk</text>
</a>
</g>
</g>
<!-- Node1&#45;&gt;Node2 -->
<g id="edge1" class="edge"><title>Node1&#45;&gt;Node2</title>
<path fill="none" stroke="midnightblue" d="M133.923,-81.7485C153.648,-87.0591 175.078,-92.8288 194.094,-97.9484"/>
<polygon fill="midnightblue" stroke="midnightblue" points="134.657,-78.3216 124.091,-79.1014 132.837,-85.0809 134.657,-78.3216"/>
</g>
<!-- Node3 -->
<g id="node3" class="node"><title>Node3</title>
<g id="a_node3"><a xlink:href="../../d7/d67/classpocketmine_1_1level_1_1format_1_1mcregion_1_1_mc_region.html#a6af3f40ad4eff7971dd4704180b8e127" target="_top" xlink:title="pocketmine\\level\\format\l\\mcregion\\McRegion\\setChunk">
<polygon fill="white" stroke="black" points="170.5,-49 170.5,-79 331.5,-79 331.5,-49 170.5,-49"/>
<text text-anchor="start" x="178.5" y="-67" font-family="Helvetica,sans-Serif" font-size="10.00">pocketmine\level\format</text>
<text text-anchor="middle" x="251" y="-56" font-family="Helvetica,sans-Serif" font-size="10.00">\mcregion\McRegion\setChunk</text>
</a>
</g>
</g>
<!-- Node1&#45;&gt;Node3 -->
<g id="edge2" class="edge"><title>Node1&#45;&gt;Node3</title>
<path fill="none" stroke="midnightblue" d="M143.887,-64C152.651,-64 161.608,-64 170.42,-64"/>
<polygon fill="midnightblue" stroke="midnightblue" points="143.706,-60.5001 133.706,-64 143.706,-67.5001 143.706,-60.5001"/>
</g>
<!-- Node4 -->
<g id="node4" class="node"><title>Node4</title>
<g id="a_node4"><a xlink:href="../../d2/db3/classpocketmine_1_1level_1_1format_1_1leveldb_1_1_level_d_b.html#a6e53bea34bfb908f315ac00ad03f45f6" target="_top" xlink:title="pocketmine\\level\\format\l\\leveldb\\LevelDB\\setChunk">
<polygon fill="white" stroke="black" points="179.5,-0 179.5,-30 322.5,-30 322.5,-0 179.5,-0"/>
<text text-anchor="start" x="187.5" y="-18" font-family="Helvetica,sans-Serif" font-size="10.00">pocketmine\level\format</text>
<text text-anchor="middle" x="251" y="-7" font-family="Helvetica,sans-Serif" font-size="10.00">\leveldb\LevelDB\setChunk</text>
</a>
</g>
</g>
<!-- Node1&#45;&gt;Node4 -->
<g id="edge3" class="edge"><title>Node1&#45;&gt;Node4</title>
<path fill="none" stroke="midnightblue" d="M133.923,-46.2515C153.648,-40.9409 175.078,-35.1712 194.094,-30.0516"/>
<polygon fill="midnightblue" stroke="midnightblue" points="132.837,-42.9191 124.091,-48.8986 134.657,-49.6784 132.837,-42.9191"/>
</g>
</g>
</svg>
