<?xml version="1.0" encoding="UTF-8" standalone="no"?>
<!DOCTYPE svg PUBLIC "-//W3C//DTD SVG 1.1//EN"
 "http://www.w3.org/Graphics/SVG/1.1/DTD/svg11.dtd">
<!-- Generated by graphviz version 2.36.0 (20140111.2315)
 -->
<!-- Title: pocketmine\level\format\FullChunk\getProvider Pages: 1 -->
<svg width="314pt" height="38pt"
 viewBox="0.00 0.00 314.00 38.00" xmlns="http://www.w3.org/2000/svg" xmlns:xlink="http://www.w3.org/1999/xlink">
<g id="graph0" class="graph" transform="scale(1 1) rotate(0) translate(4 34)">
<title>pocketmine\level\format\FullChunk\getProvider</title>
<polygon fill="white" stroke="none" points="-4,4 -4,-34 310,-34 310,4 -4,4"/>
<!-- Node1 -->
<g id="node1" class="node"><title>Node1</title>
<polygon fill="#bfbfbf" stroke="black" points="0.5,-0 0.5,-30 133.5,-30 133.5,-0 0.5,-0"/>
<text text-anchor="start" x="8.5" y="-18" font-family="Helvetica,sans-Serif" font-size="10.00">pocketmine\level\format</text>
<text text-anchor="middle" x="67" y="-7" font-family="Helvetica,sans-Serif" font-size="10.00">\FullChunk\getProvider</text>
</g>
<!-- Node2 -->
<g id="node2" class="node"><title>Node2</title>
<g id="a_node2"><a xlink:href="../../d1/dbc/classpocketmine_1_1event_1_1level_1_1_chunk_event.html#a3ed3cfe3c0885d827da4981f5c177aee" target="_top" xlink:title="pocketmine\\event\\level\l\\ChunkEvent\\__construct">
<polygon fill="white" stroke="black" points="170.5,-0 170.5,-30 305.5,-30 305.5,-0 170.5,-0"/>
<text text-anchor="start" x="178.5" y="-18" font-family="Helvetica,sans-Serif" font-size="10.00">pocketmine\event\level</text>
<text text-anchor="middle" x="238" y="-7" font-family="Helvetica,sans-Serif" font-size="10.00">\ChunkEvent\__construct</text>
</a>
</g>
</g>
<!-- Node1&#45;&gt;Node2 -->
<g id="edge1" class="edge"><title>Node1&#45;&gt;Node2</title>
<path fill="none" stroke="midnightblue" d="M144.013,-15C152.761,-15 161.63,-15 170.243,-15"/>
<polygon fill="midnightblue" stroke="midnightblue" points="143.824,-11.5001 133.824,-15 143.824,-18.5001 143.824,-11.5001"/>
</g>
</g>
</svg>
