<?xml version="1.0" encoding="UTF-8" standalone="no"?>
<!DOCTYPE svg PUBLIC "-//W3C//DTD SVG 1.1//EN"
 "http://www.w3.org/Graphics/SVG/1.1/DTD/svg11.dtd">
<!-- Generated by graphviz version 2.26.3 (20100126.1600)
 -->
<!-- Title: G Pages: 1 -->
<svg width="234pt" height="368pt"
 viewBox="0.00 0.00 234.00 368.00" xmlns="http://www.w3.org/2000/svg" xmlns:xlink="http://www.w3.org/1999/xlink">
<g id="graph1" class="graph" transform="scale(1 1) rotate(0) translate(4 364)">
<title>G</title>
<polygon fill="white" stroke="white" points="-4,5 -4,-364 231,-364 231,5 -4,5"/>
<!-- Node1 -->
<g id="node1" class="node"><title>Node1</title>
<polygon fill="#bfbfbf" stroke="black" points="-0.5,-0.5 -0.5,-115.5 226.5,-115.5 226.5,-0.5 -0.5,-0.5"/>
<text text-anchor="middle" x="113" y="-102.5" font-family="Helvetica,sans-Serif" font-size="10.00">pocketmine\command\defaults\VanillaCommand</text>
<polyline fill="none" stroke="black" points="-0.5,-94.5 226.5,-94.5 "/>
<text text-anchor="start" x="7.5" y="-81.5" font-family="Helvetica,sans-Serif" font-size="10.00">+ MAX_COORD</text>
<text text-anchor="start" x="7.5" y="-68.5" font-family="Helvetica,sans-Serif" font-size="10.00">+ MIN_COORD</text>
<polyline fill="none" stroke="black" points="-0.5,-60.5 226.5,-60.5 "/>
<text text-anchor="start" x="7.5" y="-47.5" font-family="Helvetica,sans-Serif" font-size="10.00">+ __construct()</text>
<text text-anchor="start" x="7.5" y="-34.5" font-family="Helvetica,sans-Serif" font-size="10.00"># getInteger()</text>
<text text-anchor="start" x="7.5" y="-21.5" font-family="Helvetica,sans-Serif" font-size="10.00"># getRelativeDouble()</text>
<text text-anchor="start" x="7.5" y="-8.5" font-family="Helvetica,sans-Serif" font-size="10.00"># getDouble()</text>
</g>
<!-- Node2 -->
<g id="node2" class="node"><title>Node2</title>
<a xlink:href="../../d6/df1/classpocketmine_1_1command_1_1_command.html" target="_top" xlink:title="{pocketmine\\command\\Command\n|# $description\l# $usageMessage\l|+ __construct()\l+ execute()\l+ getName()\l+ getPermission()\l+ setPermission()\l+ testPermission()\l+ testPermissionSilent()\l+ getLabel()\l+ setLabel()\l+ register()\land 10 more...+ broadcastCommandMessage()\l}">
<polygon fill="white" stroke="black" points="2,-153 2,-359 224,-359 224,-153 2,-153"/>
<text text-anchor="middle" x="113" y="-346" font-family="Helvetica,sans-Serif" font-size="10.00">pocketmine\command\Command</text>
<polyline fill="none" stroke="black" points="2,-338 224,-338 "/>
<text text-anchor="start" x="10" y="-325" font-family="Helvetica,sans-Serif" font-size="10.00"># $description</text>
<text text-anchor="start" x="10" y="-312" font-family="Helvetica,sans-Serif" font-size="10.00"># $usageMessage</text>
<polyline fill="none" stroke="black" points="2,-304 224,-304 "/>
<text text-anchor="start" x="10" y="-291" font-family="Helvetica,sans-Serif" font-size="10.00">+ __construct()</text>
<text text-anchor="start" x="10" y="-278" font-family="Helvetica,sans-Serif" font-size="10.00">+ execute()</text>
<text text-anchor="start" x="10" y="-265" font-family="Helvetica,sans-Serif" font-size="10.00">+ getName()</text>
<text text-anchor="start" x="10" y="-252" font-family="Helvetica,sans-Serif" font-size="10.00">+ getPermission()</text>
<text text-anchor="start" x="10" y="-239" font-family="Helvetica,sans-Serif" font-size="10.00">+ setPermission()</text>
<text text-anchor="start" x="10" y="-226" font-family="Helvetica,sans-Serif" font-size="10.00">+ testPermission()</text>
<text text-anchor="start" x="10" y="-213" font-family="Helvetica,sans-Serif" font-size="10.00">+ testPermissionSilent()</text>
<text text-anchor="start" x="10" y="-200" font-family="Helvetica,sans-Serif" font-size="10.00">+ getLabel()</text>
<text text-anchor="start" x="10" y="-187" font-family="Helvetica,sans-Serif" font-size="10.00">+ setLabel()</text>
<text text-anchor="start" x="10" y="-174" font-family="Helvetica,sans-Serif" font-size="10.00">+ register()</text>
<text text-anchor="start" x="10" y="-161" font-family="Helvetica,sans-Serif" font-size="10.00">and 10 more...+ broadcastCommandMessage()</text>
</a>
</g>
<!-- Node2&#45;&gt;Node1 -->
<g id="edge2" class="edge"><title>Node2&#45;&gt;Node1</title>
<path fill="none" stroke="midnightblue" d="M113,-142.792C113,-133.487 113,-124.352 113,-115.727"/>
<polygon fill="none" stroke="midnightblue" points="109.5,-142.94 113,-152.94 116.5,-142.94 109.5,-142.94"/>
</g>
</g>
</svg>
