<?xml version="1.0" encoding="UTF-8" standalone="no"?>
<!DOCTYPE svg PUBLIC "-//W3C//DTD SVG 1.1//EN"
 "http://www.w3.org/Graphics/SVG/1.1/DTD/svg11.dtd">
<!-- Generated by graphviz version 2.36.0 (20140111.2315)
 -->
<!-- Title: pocketmine\permission\PermissibleBase Pages: 1 -->
<svg width="156pt" height="452pt"
 viewBox="0.00 0.00 156.00 452.00" xmlns="http://www.w3.org/2000/svg" xmlns:xlink="http://www.w3.org/1999/xlink">
<g id="graph0" class="graph" transform="scale(1 1) rotate(0) translate(4 448)">
<title>pocketmine\permission\PermissibleBase</title>
<polygon fill="white" stroke="none" points="-4,4 -4,-448 152,-448 152,4 -4,4"/>
<!-- Node1 -->
<g id="node1" class="node"><title>Node1</title>
<polygon fill="#bfbfbf" stroke="black" points="-0.5,-0.5 -0.5,-167.5 148.5,-167.5 148.5,-0.5 -0.5,-0.5"/>
<text text-anchor="start" x="7.5" y="-155.5" font-family="Helvetica,sans-Serif" font-size="10.00">pocketmine\permission</text>
<text text-anchor="middle" x="74" y="-144.5" font-family="Helvetica,sans-Serif" font-size="10.00">\PermissibleBase</text>
<polyline fill="none" stroke="black" points="-0.5,-137.5 148.5,-137.5 "/>
<text text-anchor="middle" x="74" y="-125.5" font-family="Helvetica,sans-Serif" font-size="10.00"> </text>
<polyline fill="none" stroke="black" points="-0.5,-118.5 148.5,-118.5 "/>
<text text-anchor="start" x="7.5" y="-106.5" font-family="Helvetica,sans-Serif" font-size="10.00">+ __construct()</text>
<text text-anchor="start" x="7.5" y="-95.5" font-family="Helvetica,sans-Serif" font-size="10.00">+ isOp()</text>
<text text-anchor="start" x="7.5" y="-84.5" font-family="Helvetica,sans-Serif" font-size="10.00">+ setOp()</text>
<text text-anchor="start" x="7.5" y="-73.5" font-family="Helvetica,sans-Serif" font-size="10.00">+ isPermissionSet()</text>
<text text-anchor="start" x="7.5" y="-62.5" font-family="Helvetica,sans-Serif" font-size="10.00">+ hasPermission()</text>
<text text-anchor="start" x="7.5" y="-51.5" font-family="Helvetica,sans-Serif" font-size="10.00">+ addAttachment()</text>
<text text-anchor="start" x="7.5" y="-40.5" font-family="Helvetica,sans-Serif" font-size="10.00">+ removeAttachment()</text>
<text text-anchor="start" x="7.5" y="-29.5" font-family="Helvetica,sans-Serif" font-size="10.00">+ recalculatePermissions()</text>
<text text-anchor="start" x="7.5" y="-18.5" font-family="Helvetica,sans-Serif" font-size="10.00">+ clearPermissions()</text>
<text text-anchor="start" x="7.5" y="-7.5" font-family="Helvetica,sans-Serif" font-size="10.00">+ getEffectivePermissions()</text>
</g>
<!-- Node2 -->
<g id="node2" class="node"><title>Node2</title>
<g id="a_node2"><a xlink:href="../../de/da0/interfacepocketmine_1_1permission_1_1_permissible.html" target="_top" xlink:title="{pocketmine\\permission\l\\Permissible\n||+ isPermissionSet()\l+ hasPermission()\l+ addAttachment()\l+ removeAttachment()\l+ recalculatePermissions()\l+ getEffectivePermissions()\l}">
<polygon fill="white" stroke="black" points="-0.5,-204.5 -0.5,-327.5 148.5,-327.5 148.5,-204.5 -0.5,-204.5"/>
<text text-anchor="start" x="7.5" y="-315.5" font-family="Helvetica,sans-Serif" font-size="10.00">pocketmine\permission</text>
<text text-anchor="middle" x="74" y="-304.5" font-family="Helvetica,sans-Serif" font-size="10.00">\Permissible</text>
<polyline fill="none" stroke="black" points="-0.5,-297.5 148.5,-297.5 "/>
<text text-anchor="middle" x="74" y="-285.5" font-family="Helvetica,sans-Serif" font-size="10.00"> </text>
<polyline fill="none" stroke="black" points="-0.5,-278.5 148.5,-278.5 "/>
<text text-anchor="start" x="7.5" y="-266.5" font-family="Helvetica,sans-Serif" font-size="10.00">+ isPermissionSet()</text>
<text text-anchor="start" x="7.5" y="-255.5" font-family="Helvetica,sans-Serif" font-size="10.00">+ hasPermission()</text>
<text text-anchor="start" x="7.5" y="-244.5" font-family="Helvetica,sans-Serif" font-size="10.00">+ addAttachment()</text>
<text text-anchor="start" x="7.5" y="-233.5" font-family="Helvetica,sans-Serif" font-size="10.00">+ removeAttachment()</text>
<text text-anchor="start" x="7.5" y="-222.5" font-family="Helvetica,sans-Serif" font-size="10.00">+ recalculatePermissions()</text>
<text text-anchor="start" x="7.5" y="-211.5" font-family="Helvetica,sans-Serif" font-size="10.00">+ getEffectivePermissions()</text>
</a>
</g>
</g>
<!-- Node2&#45;&gt;Node1 -->
<g id="edge1" class="edge"><title>Node2&#45;&gt;Node1</title>
<path fill="none" stroke="midnightblue" d="M74,-194.251C74,-185.566 74,-176.63 74,-167.787"/>
<polygon fill="none" stroke="midnightblue" points="70.5001,-194.311 74,-204.311 77.5001,-194.311 70.5001,-194.311"/>
</g>
<!-- Node3 -->
<g id="node3" class="node"><title>Node3</title>
<g id="a_node3"><a xlink:href="../../dd/d17/interfacepocketmine_1_1permission_1_1_server_operator.html" target="_top" xlink:title="{pocketmine\\permission\l\\ServerOperator\n||+ isOp()\l+ setOp()\l}">
<polygon fill="white" stroke="black" points="10,-364.5 10,-443.5 138,-443.5 138,-364.5 10,-364.5"/>
<text text-anchor="start" x="18" y="-431.5" font-family="Helvetica,sans-Serif" font-size="10.00">pocketmine\permission</text>
<text text-anchor="middle" x="74" y="-420.5" font-family="Helvetica,sans-Serif" font-size="10.00">\ServerOperator</text>
<polyline fill="none" stroke="black" points="10,-413.5 138,-413.5 "/>
<text text-anchor="middle" x="74" y="-401.5" font-family="Helvetica,sans-Serif" font-size="10.00"> </text>
<polyline fill="none" stroke="black" points="10,-394.5 138,-394.5 "/>
<text text-anchor="start" x="18" y="-382.5" font-family="Helvetica,sans-Serif" font-size="10.00">+ isOp()</text>
<text text-anchor="start" x="18" y="-371.5" font-family="Helvetica,sans-Serif" font-size="10.00">+ setOp()</text>
</a>
</g>
</g>
<!-- Node3&#45;&gt;Node2 -->
<g id="edge2" class="edge"><title>Node3&#45;&gt;Node2</title>
<path fill="none" stroke="midnightblue" d="M74,-354.144C74,-345.528 74,-336.465 74,-327.574"/>
<polygon fill="none" stroke="midnightblue" points="70.5001,-354.392 74,-364.392 77.5001,-354.392 70.5001,-354.392"/>
</g>
</g>
</svg>
