<?xml version="1.0" encoding="UTF-8" standalone="no"?>
<!DOCTYPE svg PUBLIC "-//W3C//DTD SVG 1.1//EN"
 "http://www.w3.org/Graphics/SVG/1.1/DTD/svg11.dtd">
<!-- Generated by graphviz version 2.36.0 (20140111.2315)
 -->
<!-- Title: pocketmine\event\block\BlockBreakEvent Pages: 1 -->
<svg width="318pt" height="398pt"
 viewBox="0.00 0.00 318.00 398.00" xmlns="http://www.w3.org/2000/svg" xmlns:xlink="http://www.w3.org/1999/xlink">
<g id="graph0" class="graph" transform="scale(1 1) rotate(0) translate(4 394)">
<title>pocketmine\event\block\BlockBreakEvent</title>
<polygon fill="white" stroke="none" points="-4,4 -4,-394 314,-394 314,4 -4,4"/>
<!-- Node1 -->
<g id="node1" class="node"><title>Node1</title>
<polygon fill="#bfbfbf" stroke="black" points="82.5,-0.5 82.5,-167.5 213.5,-167.5 213.5,-0.5 82.5,-0.5"/>
<text text-anchor="start" x="90.5" y="-155.5" font-family="Helvetica,sans-Serif" font-size="10.00">pocketmine\event\block</text>
<text text-anchor="middle" x="148" y="-144.5" font-family="Helvetica,sans-Serif" font-size="10.00">\BlockBreakEvent</text>
<polyline fill="none" stroke="black" points="82.5,-137.5 213.5,-137.5 "/>
<text text-anchor="start" x="90.5" y="-125.5" font-family="Helvetica,sans-Serif" font-size="10.00">+ $handlerList</text>
<text text-anchor="start" x="90.5" y="-114.5" font-family="Helvetica,sans-Serif" font-size="10.00">+ $eventPool</text>
<text text-anchor="start" x="90.5" y="-103.5" font-family="Helvetica,sans-Serif" font-size="10.00">+ $nextEvent</text>
<text text-anchor="start" x="90.5" y="-92.5" font-family="Helvetica,sans-Serif" font-size="10.00"># $player</text>
<text text-anchor="start" x="90.5" y="-81.5" font-family="Helvetica,sans-Serif" font-size="10.00"># $item</text>
<text text-anchor="start" x="90.5" y="-70.5" font-family="Helvetica,sans-Serif" font-size="10.00"># $instaBreak</text>
<polyline fill="none" stroke="black" points="82.5,-63.5 213.5,-63.5 "/>
<text text-anchor="start" x="90.5" y="-51.5" font-family="Helvetica,sans-Serif" font-size="10.00">+ __construct()</text>
<text text-anchor="start" x="90.5" y="-40.5" font-family="Helvetica,sans-Serif" font-size="10.00">+ getPlayer()</text>
<text text-anchor="start" x="90.5" y="-29.5" font-family="Helvetica,sans-Serif" font-size="10.00">+ getItem()</text>
<text text-anchor="start" x="90.5" y="-18.5" font-family="Helvetica,sans-Serif" font-size="10.00">+ getInstaBreak()</text>
<text text-anchor="start" x="90.5" y="-7.5" font-family="Helvetica,sans-Serif" font-size="10.00">+ setInstaBreak()</text>
</g>
<!-- Node2 -->
<g id="node2" class="node"><title>Node2</title>
<g id="a_node2"><a xlink:href="../../df/d69/classpocketmine_1_1event_1_1block_1_1_block_event.html" target="_top" xlink:title="{pocketmine\\event\\block\l\\BlockEvent\n|# $block\l|+ __construct()\l+ getBlock()\l}">
<polygon fill="white" stroke="black" points="0.5,-204.5 0.5,-283.5 131.5,-283.5 131.5,-204.5 0.5,-204.5"/>
<text text-anchor="start" x="8.5" y="-271.5" font-family="Helvetica,sans-Serif" font-size="10.00">pocketmine\event\block</text>
<text text-anchor="middle" x="66" y="-260.5" font-family="Helvetica,sans-Serif" font-size="10.00">\BlockEvent</text>
<polyline fill="none" stroke="black" points="0.5,-253.5 131.5,-253.5 "/>
<text text-anchor="start" x="8.5" y="-241.5" font-family="Helvetica,sans-Serif" font-size="10.00"># $block</text>
<polyline fill="none" stroke="black" points="0.5,-234.5 131.5,-234.5 "/>
<text text-anchor="start" x="8.5" y="-222.5" font-family="Helvetica,sans-Serif" font-size="10.00">+ __construct()</text>
<text text-anchor="start" x="8.5" y="-211.5" font-family="Helvetica,sans-Serif" font-size="10.00">+ getBlock()</text>
</a>
</g>
</g>
<!-- Node2&#45;&gt;Node1 -->
<g id="edge1" class="edge"><title>Node2&#45;&gt;Node1</title>
<path fill="none" stroke="midnightblue" d="M90.712,-195.384C95.3012,-186.542 100.215,-177.073 105.165,-167.535"/>
<polygon fill="none" stroke="midnightblue" points="87.5594,-193.861 86.0595,-204.349 93.7725,-197.085 87.5594,-193.861"/>
</g>
<!-- Node3 -->
<g id="node3" class="node"><title>Node3</title>
<g id="a_node3"><a xlink:href="../../d1/d2f/classpocketmine_1_1event_1_1_event.html" target="_top" xlink:title="{pocketmine\\event\\Event\n|# $eventName\l|+ getEventName()\l+ getHandlers()\l}">
<polygon fill="white" stroke="black" points="-0.5,-321 -0.5,-389 132.5,-389 132.5,-321 -0.5,-321"/>
<text text-anchor="middle" x="66" y="-377" font-family="Helvetica,sans-Serif" font-size="10.00">pocketmine\event\Event</text>
<polyline fill="none" stroke="black" points="-0.5,-370 132.5,-370 "/>
<text text-anchor="start" x="7.5" y="-358" font-family="Helvetica,sans-Serif" font-size="10.00"># $eventName</text>
<polyline fill="none" stroke="black" points="-0.5,-351 132.5,-351 "/>
<text text-anchor="start" x="7.5" y="-339" font-family="Helvetica,sans-Serif" font-size="10.00">+ getEventName()</text>
<text text-anchor="start" x="7.5" y="-328" font-family="Helvetica,sans-Serif" font-size="10.00">+ getHandlers()</text>
</a>
</g>
</g>
<!-- Node3&#45;&gt;Node2 -->
<g id="edge2" class="edge"><title>Node3&#45;&gt;Node2</title>
<path fill="none" stroke="midnightblue" d="M66,-310.575C66,-301.737 66,-292.493 66,-283.827"/>
<polygon fill="none" stroke="midnightblue" points="62.5001,-310.704 66,-320.704 69.5001,-310.704 62.5001,-310.704"/>
</g>
<!-- Node4 -->
<g id="node4" class="node"><title>Node4</title>
<g id="a_node4"><a xlink:href="../../db/d62/interfacepocketmine_1_1event_1_1_cancellable.html" target="_top" xlink:title="{pocketmine\\event\\Cancellable\n||+ isCancelled()\l+ setCancelled()\l}">
<polygon fill="white" stroke="black" points="149.5,-210 149.5,-278 310.5,-278 310.5,-210 149.5,-210"/>
<text text-anchor="middle" x="230" y="-266" font-family="Helvetica,sans-Serif" font-size="10.00">pocketmine\event\Cancellable</text>
<polyline fill="none" stroke="black" points="149.5,-259 310.5,-259 "/>
<text text-anchor="middle" x="230" y="-247" font-family="Helvetica,sans-Serif" font-size="10.00"> </text>
<polyline fill="none" stroke="black" points="149.5,-240 310.5,-240 "/>
<text text-anchor="start" x="157.5" y="-228" font-family="Helvetica,sans-Serif" font-size="10.00">+ isCancelled()</text>
<text text-anchor="start" x="157.5" y="-217" font-family="Helvetica,sans-Serif" font-size="10.00">+ setCancelled()</text>
</a>
</g>
</g>
<!-- Node4&#45;&gt;Node1 -->
<g id="edge3" class="edge"><title>Node4&#45;&gt;Node1</title>
<path fill="none" stroke="midnightblue" d="M208.068,-200.74C202.717,-190.43 196.809,-179.047 190.849,-167.563"/>
<polygon fill="none" stroke="midnightblue" points="205.097,-202.614 212.81,-209.878 211.31,-199.39 205.097,-202.614"/>
</g>
</g>
</svg>
