<?xml version="1.0" encoding="UTF-8" standalone="no"?>
<!DOCTYPE svg PUBLIC "-//W3C//DTD SVG 1.1//EN"
 "http://www.w3.org/Graphics/SVG/1.1/DTD/svg11.dtd">
<!-- Generated by graphviz version 2.26.3 (20100126.1600)
 -->
<!-- Title: pocketmine\inventory\CustomInventory Pages: 1 -->
<svg width="118pt" height="790pt"
 viewBox="0.00 0.00 118.00 790.00" xmlns="http://www.w3.org/2000/svg" xmlns:xlink="http://www.w3.org/1999/xlink">
<g id="graph1" class="graph" transform="scale(1 1) rotate(0) translate(4 786)">
<title>pocketmine\inventory\CustomInventory</title>
<polygon fill="white" stroke="white" points="-4,5 -4,-786 115,-786 115,5 -4,5"/>
<!-- Node1 -->
<g id="node1" class="node"><title>Node1</title>
<polygon fill="#bfbfbf" stroke="black" points="0,-1 0,-77 110,-77 110,-1 0,-1"/>
<text text-anchor="start" x="8" y="-64" font-family="Helvetica,sans-Serif" font-size="10.00">pocketmine\inventory</text>
<text text-anchor="middle" x="55" y="-51" font-family="Helvetica,sans-Serif" font-size="10.00">\CustomInventory</text>
<polyline fill="none" stroke="black" points="0,-43 110,-43 "/>
<text text-anchor="middle" x="55" y="-30" font-family="Helvetica,sans-Serif" font-size="10.00"> </text>
<polyline fill="none" stroke="black" points="0,-22 110,-22 "/>
<text text-anchor="middle" x="55" y="-9" font-family="Helvetica,sans-Serif" font-size="10.00"> </text>
</g>
<!-- Node2 -->
<g id="node2" class="node"><title>Node2</title>
<a xlink:href="../../dc/d02/classpocketmine_1_1inventory_1_1_container_inventory.html" target="_top" xlink:title="{pocketmine\\inventory\l\\ContainerInventory\n||+ onOpen()\l+ onClose()\l}">
<polygon fill="white" stroke="black" points="0,-114.5 0,-203.5 110,-203.5 110,-114.5 0,-114.5"/>
<text text-anchor="start" x="8" y="-190.5" font-family="Helvetica,sans-Serif" font-size="10.00">pocketmine\inventory</text>
<text text-anchor="middle" x="55" y="-177.5" font-family="Helvetica,sans-Serif" font-size="10.00">\ContainerInventory</text>
<polyline fill="none" stroke="black" points="0,-169.5 110,-169.5 "/>
<text text-anchor="middle" x="55" y="-156.5" font-family="Helvetica,sans-Serif" font-size="10.00"> </text>
<polyline fill="none" stroke="black" points="0,-148.5 110,-148.5 "/>
<text text-anchor="start" x="8" y="-135.5" font-family="Helvetica,sans-Serif" font-size="10.00">+ onOpen()</text>
<text text-anchor="start" x="8" y="-122.5" font-family="Helvetica,sans-Serif" font-size="10.00">+ onClose()</text>
</a>
</g>
<!-- Node2&#45;&gt;Node1 -->
<g id="edge2" class="edge"><title>Node2&#45;&gt;Node1</title>
<path fill="none" stroke="midnightblue" d="M55,-104.099C55,-94.9492 55,-85.6398 55,-77.0306"/>
<polygon fill="none" stroke="midnightblue" points="51.5001,-104.316 55,-114.316 58.5001,-104.316 51.5001,-104.316"/>
</g>
<!-- Node3 -->
<g id="node4" class="node"><title>Node3</title>
<a xlink:href="../../d5/dc4/classpocketmine_1_1inventory_1_1_base_inventory.html" target="_top" xlink:title="{pocketmine\\inventory\l\\BaseInventory\n|# $type\l# $maxStackSize\l# $size\l# $name\l# $title\l# $slots\l# $viewers\l# $holder\l|+ __construct()\l+ getSize()\l+ getMaxStackSize()\l+ getName()\l+ getTitle()\l+ getItem()\l+ getContents()\l+ setContents()\l+ setItem()\l+ contains()\land 18 more...\l}">
<polygon fill="white" stroke="black" points="0,-240.5 0,-537.5 110,-537.5 110,-240.5 0,-240.5"/>
<text text-anchor="start" x="8" y="-524.5" font-family="Helvetica,sans-Serif" font-size="10.00">pocketmine\inventory</text>
<text text-anchor="middle" x="55" y="-511.5" font-family="Helvetica,sans-Serif" font-size="10.00">\BaseInventory</text>
<polyline fill="none" stroke="black" points="0,-503.5 110,-503.5 "/>
<text text-anchor="start" x="8" y="-490.5" font-family="Helvetica,sans-Serif" font-size="10.00"># $type</text>
<text text-anchor="start" x="8" y="-477.5" font-family="Helvetica,sans-Serif" font-size="10.00"># $maxStackSize</text>
<text text-anchor="start" x="8" y="-464.5" font-family="Helvetica,sans-Serif" font-size="10.00"># $size</text>
<text text-anchor="start" x="8" y="-451.5" font-family="Helvetica,sans-Serif" font-size="10.00"># $name</text>
<text text-anchor="start" x="8" y="-438.5" font-family="Helvetica,sans-Serif" font-size="10.00"># $title</text>
<text text-anchor="start" x="8" y="-425.5" font-family="Helvetica,sans-Serif" font-size="10.00"># $slots</text>
<text text-anchor="start" x="8" y="-412.5" font-family="Helvetica,sans-Serif" font-size="10.00"># $viewers</text>
<text text-anchor="start" x="8" y="-399.5" font-family="Helvetica,sans-Serif" font-size="10.00"># $holder</text>
<polyline fill="none" stroke="black" points="0,-391.5 110,-391.5 "/>
<text text-anchor="start" x="8" y="-378.5" font-family="Helvetica,sans-Serif" font-size="10.00">+ __construct()</text>
<text text-anchor="start" x="8" y="-365.5" font-family="Helvetica,sans-Serif" font-size="10.00">+ getSize()</text>
<text text-anchor="start" x="8" y="-352.5" font-family="Helvetica,sans-Serif" font-size="10.00">+ getMaxStackSize()</text>
<text text-anchor="start" x="8" y="-339.5" font-family="Helvetica,sans-Serif" font-size="10.00">+ getName()</text>
<text text-anchor="start" x="8" y="-326.5" font-family="Helvetica,sans-Serif" font-size="10.00">+ getTitle()</text>
<text text-anchor="start" x="8" y="-313.5" font-family="Helvetica,sans-Serif" font-size="10.00">+ getItem()</text>
<text text-anchor="start" x="8" y="-300.5" font-family="Helvetica,sans-Serif" font-size="10.00">+ getContents()</text>
<text text-anchor="start" x="8" y="-287.5" font-family="Helvetica,sans-Serif" font-size="10.00">+ setContents()</text>
<text text-anchor="start" x="8" y="-274.5" font-family="Helvetica,sans-Serif" font-size="10.00">+ setItem()</text>
<text text-anchor="start" x="8" y="-261.5" font-family="Helvetica,sans-Serif" font-size="10.00">+ contains()</text>
<text text-anchor="start" x="8" y="-248.5" font-family="Helvetica,sans-Serif" font-size="10.00">and 18 more...</text>
</a>
</g>
<!-- Node3&#45;&gt;Node2 -->
<g id="edge4" class="edge"><title>Node3&#45;&gt;Node2</title>
<path fill="none" stroke="midnightblue" d="M55,-230.369C55,-220.879 55,-211.855 55,-203.615"/>
<polygon fill="none" stroke="midnightblue" points="51.5001,-230.413 55,-240.413 58.5001,-230.413 51.5001,-230.413"/>
</g>
<!-- Node4 -->
<g id="node6" class="node"><title>Node4</title>
<a xlink:href="../../db/d39/interfacepocketmine_1_1inventory_1_1_inventory.html" target="_top" xlink:title="{pocketmine\\inventory\l\\Inventory\n|+ MAX_STACK\l|+ getSize()\l+ getMaxStackSize()\l+ setMaxStackSize()\l+ getName()\l+ getTitle()\l+ getItem()\l+ setItem()\l+ addItem()\l+ canAddItem()\l+ removeItem()\land 19 more...\l}">
<polygon fill="white" stroke="black" points="0,-575 0,-781 110,-781 110,-575 0,-575"/>
<text text-anchor="start" x="8" y="-768" font-family="Helvetica,sans-Serif" font-size="10.00">pocketmine\inventory</text>
<text text-anchor="middle" x="55" y="-755" font-family="Helvetica,sans-Serif" font-size="10.00">\Inventory</text>
<polyline fill="none" stroke="black" points="0,-747 110,-747 "/>
<text text-anchor="start" x="8" y="-734" font-family="Helvetica,sans-Serif" font-size="10.00">+ MAX_STACK</text>
<polyline fill="none" stroke="black" points="0,-726 110,-726 "/>
<text text-anchor="start" x="8" y="-713" font-family="Helvetica,sans-Serif" font-size="10.00">+ getSize()</text>
<text text-anchor="start" x="8" y="-700" font-family="Helvetica,sans-Serif" font-size="10.00">+ getMaxStackSize()</text>
<text text-anchor="start" x="8" y="-687" font-family="Helvetica,sans-Serif" font-size="10.00">+ setMaxStackSize()</text>
<text text-anchor="start" x="8" y="-674" font-family="Helvetica,sans-Serif" font-size="10.00">+ getName()</text>
<text text-anchor="start" x="8" y="-661" font-family="Helvetica,sans-Serif" font-size="10.00">+ getTitle()</text>
<text text-anchor="start" x="8" y="-648" font-family="Helvetica,sans-Serif" font-size="10.00">+ getItem()</text>
<text text-anchor="start" x="8" y="-635" font-family="Helvetica,sans-Serif" font-size="10.00">+ setItem()</text>
<text text-anchor="start" x="8" y="-622" font-family="Helvetica,sans-Serif" font-size="10.00">+ addItem()</text>
<text text-anchor="start" x="8" y="-609" font-family="Helvetica,sans-Serif" font-size="10.00">+ canAddItem()</text>
<text text-anchor="start" x="8" y="-596" font-family="Helvetica,sans-Serif" font-size="10.00">+ removeItem()</text>
<text text-anchor="start" x="8" y="-583" font-family="Helvetica,sans-Serif" font-size="10.00">and 19 more...</text>
</a>
</g>
<!-- Node4&#45;&gt;Node3 -->
<g id="edge6" class="edge"><title>Node4&#45;&gt;Node3</title>
<path fill="none" stroke="midnightblue" d="M55,-564.827C55,-555.845 55,-546.694 55,-537.52"/>
<polygon fill="none" stroke="midnightblue" points="51.5001,-564.888 55,-574.888 58.5001,-564.888 51.5001,-564.888"/>
</g>
</g>
</svg>
