<?xml version="1.0" encoding="UTF-8" standalone="no"?>
<!DOCTYPE svg PUBLIC "-//W3C//DTD SVG 1.1//EN"
 "http://www.w3.org/Graphics/SVG/1.1/DTD/svg11.dtd">
<!-- Generated by graphviz version 2.36.0 (20140111.2315)
 -->
<!-- Title: pocketmine\OfflinePlayer Pages: 1 -->
<svg width="142pt" height="486pt"
 viewBox="0.00 0.00 142.00 486.00" xmlns="http://www.w3.org/2000/svg" xmlns:xlink="http://www.w3.org/1999/xlink">
<g id="graph0" class="graph" transform="scale(1 1) rotate(0) translate(4 482)">
<title>pocketmine\OfflinePlayer</title>
<polygon fill="white" stroke="none" points="-4,4 -4,-482 138,-482 138,4 -4,4"/>
<!-- Node1 -->
<g id="node1" class="node"><title>Node1</title>
<polygon fill="#bfbfbf" stroke="black" points="-0.5,-0.5 -0.5,-167.5 134.5,-167.5 134.5,-0.5 -0.5,-0.5"/>
<text text-anchor="middle" x="67" y="-155.5" font-family="Helvetica,sans-Serif" font-size="10.00">pocketmine\OfflinePlayer</text>
<polyline fill="none" stroke="black" points="-0.5,-148.5 134.5,-148.5 "/>
<text text-anchor="middle" x="67" y="-136.5" font-family="Helvetica,sans-Serif" font-size="10.00"> </text>
<polyline fill="none" stroke="black" points="-0.5,-129.5 134.5,-129.5 "/>
<text text-anchor="start" x="7.5" y="-117.5" font-family="Helvetica,sans-Serif" font-size="10.00">+ __construct()</text>
<text text-anchor="start" x="7.5" y="-106.5" font-family="Helvetica,sans-Serif" font-size="10.00">+ isOnline()</text>
<text text-anchor="start" x="7.5" y="-95.5" font-family="Helvetica,sans-Serif" font-size="10.00">+ getName()</text>
<text text-anchor="start" x="7.5" y="-84.5" font-family="Helvetica,sans-Serif" font-size="10.00">+ getServer()</text>
<text text-anchor="start" x="7.5" y="-73.5" font-family="Helvetica,sans-Serif" font-size="10.00">+ isOp()</text>
<text text-anchor="start" x="7.5" y="-62.5" font-family="Helvetica,sans-Serif" font-size="10.00">+ setOp()</text>
<text text-anchor="start" x="7.5" y="-51.5" font-family="Helvetica,sans-Serif" font-size="10.00">+ isBanned()</text>
<text text-anchor="start" x="7.5" y="-40.5" font-family="Helvetica,sans-Serif" font-size="10.00">+ setBanned()</text>
<text text-anchor="start" x="7.5" y="-29.5" font-family="Helvetica,sans-Serif" font-size="10.00">+ isWhitelisted()</text>
<text text-anchor="start" x="7.5" y="-18.5" font-family="Helvetica,sans-Serif" font-size="10.00">+ setWhitelisted()</text>
<text text-anchor="start" x="7.5" y="-7.5" font-family="Helvetica,sans-Serif" font-size="10.00">and 8 more...</text>
</g>
<!-- Node2 -->
<g id="node2" class="node"><title>Node2</title>
<g id="a_node2"><a xlink:href="../../d1/d6e/interfacepocketmine_1_1_i_player.html" target="_top" xlink:title="{pocketmine\\IPlayer\n||+ isOnline()\l+ getName()\l+ isBanned()\l+ setBanned()\l+ isWhitelisted()\l+ setWhitelisted()\l+ getPlayer()\l+ getFirstPlayed()\l+ getLastPlayed()\l+ hasPlayedBefore()\l}">
<polygon fill="white" stroke="black" points="9,-205 9,-361 125,-361 125,-205 9,-205"/>
<text text-anchor="middle" x="67" y="-349" font-family="Helvetica,sans-Serif" font-size="10.00">pocketmine\IPlayer</text>
<polyline fill="none" stroke="black" points="9,-342 125,-342 "/>
<text text-anchor="middle" x="67" y="-330" font-family="Helvetica,sans-Serif" font-size="10.00"> </text>
<polyline fill="none" stroke="black" points="9,-323 125,-323 "/>
<text text-anchor="start" x="17" y="-311" font-family="Helvetica,sans-Serif" font-size="10.00">+ isOnline()</text>
<text text-anchor="start" x="17" y="-300" font-family="Helvetica,sans-Serif" font-size="10.00">+ getName()</text>
<text text-anchor="start" x="17" y="-289" font-family="Helvetica,sans-Serif" font-size="10.00">+ isBanned()</text>
<text text-anchor="start" x="17" y="-278" font-family="Helvetica,sans-Serif" font-size="10.00">+ setBanned()</text>
<text text-anchor="start" x="17" y="-267" font-family="Helvetica,sans-Serif" font-size="10.00">+ isWhitelisted()</text>
<text text-anchor="start" x="17" y="-256" font-family="Helvetica,sans-Serif" font-size="10.00">+ setWhitelisted()</text>
<text text-anchor="start" x="17" y="-245" font-family="Helvetica,sans-Serif" font-size="10.00">+ getPlayer()</text>
<text text-anchor="start" x="17" y="-234" font-family="Helvetica,sans-Serif" font-size="10.00">+ getFirstPlayed()</text>
<text text-anchor="start" x="17" y="-223" font-family="Helvetica,sans-Serif" font-size="10.00">+ getLastPlayed()</text>
<text text-anchor="start" x="17" y="-212" font-family="Helvetica,sans-Serif" font-size="10.00">+ hasPlayedBefore()</text>
</a>
</g>
</g>
<!-- Node2&#45;&gt;Node1 -->
<g id="edge1" class="edge"><title>Node2&#45;&gt;Node1</title>
<path fill="none" stroke="midnightblue" d="M67,-194.898C67,-185.897 67,-176.769 67,-167.817"/>
<polygon fill="none" stroke="midnightblue" points="63.5001,-194.988 67,-204.988 70.5001,-194.988 63.5001,-194.988"/>
</g>
<!-- Node3 -->
<g id="node3" class="node"><title>Node3</title>
<g id="a_node3"><a xlink:href="../../dd/d17/interfacepocketmine_1_1permission_1_1_server_operator.html" target="_top" xlink:title="{pocketmine\\permission\l\\ServerOperator\n||+ isOp()\l+ setOp()\l}">
<polygon fill="white" stroke="black" points="3,-398.5 3,-477.5 131,-477.5 131,-398.5 3,-398.5"/>
<text text-anchor="start" x="11" y="-465.5" font-family="Helvetica,sans-Serif" font-size="10.00">pocketmine\permission</text>
<text text-anchor="middle" x="67" y="-454.5" font-family="Helvetica,sans-Serif" font-size="10.00">\ServerOperator</text>
<polyline fill="none" stroke="black" points="3,-447.5 131,-447.5 "/>
<text text-anchor="middle" x="67" y="-435.5" font-family="Helvetica,sans-Serif" font-size="10.00"> </text>
<polyline fill="none" stroke="black" points="3,-428.5 131,-428.5 "/>
<text text-anchor="start" x="11" y="-416.5" font-family="Helvetica,sans-Serif" font-size="10.00">+ isOp()</text>
<text text-anchor="start" x="11" y="-405.5" font-family="Helvetica,sans-Serif" font-size="10.00">+ setOp()</text>
</a>
</g>
</g>
<!-- Node3&#45;&gt;Node2 -->
<g id="edge2" class="edge"><title>Node3&#45;&gt;Node2</title>
<path fill="none" stroke="midnightblue" d="M67,-388.147C67,-379.497 67,-370.302 67,-361.095"/>
<polygon fill="none" stroke="midnightblue" points="63.5001,-388.392 67,-398.392 70.5001,-388.392 63.5001,-388.392"/>
</g>
</g>
</svg>
