<?xml version="1.0" encoding="UTF-8" standalone="no"?>
<!DOCTYPE svg PUBLIC "-//W3C//DTD SVG 1.1//EN"
 "http://www.w3.org/Graphics/SVG/1.1/DTD/svg11.dtd">
<!-- Generated by graphviz version 2.36.0 (20140111.2315)
 -->
<!-- Title: pocketmine\metadata\MetadataStore\setMetadata Pages: 1 -->
<svg width="374pt" height="87pt"
 viewBox="0.00 0.00 374.00 87.00" xmlns="http://www.w3.org/2000/svg" xmlns:xlink="http://www.w3.org/1999/xlink">
<g id="graph0" class="graph" transform="scale(1 1) rotate(0) translate(4 83)">
<title>pocketmine\metadata\MetadataStore\setMetadata</title>
<polygon fill="white" stroke="none" points="-4,4 -4,-83 370,-83 370,4 -4,4"/>
<!-- Node1 -->
<g id="node1" class="node"><title>Node1</title>
<polygon fill="#bfbfbf" stroke="black" points="0.5,-24 0.5,-54 155.5,-54 155.5,-24 0.5,-24"/>
<text text-anchor="start" x="8.5" y="-42" font-family="Helvetica,sans-Serif" font-size="10.00">pocketmine\metadata</text>
<text text-anchor="middle" x="78" y="-31" font-family="Helvetica,sans-Serif" font-size="10.00">\MetadataStore\setMetadata</text>
</g>
<!-- Node2 -->
<g id="node2" class="node"><title>Node2</title>
<g id="a_node2"><a xlink:href="../../db/dfc/classpocketmine_1_1metadata_1_1_metadata_store.html#a391b04417ea6d706827b4962edafc2b3" target="_top" xlink:title="pocketmine\\metadata\l\\MetadataStore\\disambiguate">
<polygon fill="white" stroke="black" points="199,-49 199,-79 359,-79 359,-49 199,-49"/>
<text text-anchor="start" x="207" y="-67" font-family="Helvetica,sans-Serif" font-size="10.00">pocketmine\metadata</text>
<text text-anchor="middle" x="279" y="-56" font-family="Helvetica,sans-Serif" font-size="10.00">\MetadataStore\disambiguate</text>
</a>
</g>
</g>
<!-- Node1&#45;&gt;Node2 -->
<g id="edge1" class="edge"><title>Node1&#45;&gt;Node2</title>
<path fill="none" stroke="midnightblue" d="M155.654,-48.6299C166.468,-49.9884 177.662,-51.3948 188.688,-52.7799"/>
<polygon fill="midnightblue" stroke="midnightblue" points="188.392,-56.2702 198.751,-54.0441 189.265,-49.3248 188.392,-56.2702"/>
</g>
<!-- Node3 -->
<g id="node3" class="node"><title>Node3</title>
<g id="a_node3"><a xlink:href="../../d5/d86/classpocketmine_1_1metadata_1_1_metadata_value.html#a82d081e2cb2d26b6205095aa37ccb26d" target="_top" xlink:title="pocketmine\\metadata\l\\MetadataValue\\getOwningPlugin">
<polygon fill="white" stroke="black" points="192.5,-0 192.5,-30 365.5,-30 365.5,-0 192.5,-0"/>
<text text-anchor="start" x="200.5" y="-18" font-family="Helvetica,sans-Serif" font-size="10.00">pocketmine\metadata</text>
<text text-anchor="middle" x="279" y="-7" font-family="Helvetica,sans-Serif" font-size="10.00">\MetadataValue\getOwningPlugin</text>
</a>
</g>
</g>
<!-- Node1&#45;&gt;Node3 -->
<g id="edge2" class="edge"><title>Node1&#45;&gt;Node3</title>
<path fill="none" stroke="midnightblue" d="M155.654,-29.7553C164.405,-28.6999 173.405,-27.6145 182.363,-26.5342"/>
<polygon fill="midnightblue" stroke="midnightblue" points="182.934,-29.9907 192.443,-25.3184 182.096,-23.041 182.934,-29.9907"/>
</g>
</g>
</svg>
