<?xml version="1.0" encoding="UTF-8" standalone="no"?>
<!DOCTYPE svg PUBLIC "-//W3C//DTD SVG 1.1//EN"
 "http://www.w3.org/Graphics/SVG/1.1/DTD/svg11.dtd">
<!-- Generated by graphviz version 2.26.3 (20100126.1600)
 -->
<!-- Title: pocketmine\metadata\MetadataStore\removeMetadata Pages: 1 -->
<svg width="348pt" height="42pt"
 viewBox="0.00 0.00 348.00 42.00" xmlns="http://www.w3.org/2000/svg" xmlns:xlink="http://www.w3.org/1999/xlink">
<g id="graph1" class="graph" transform="scale(1 1) rotate(0) translate(4 38)">
<title>pocketmine\metadata\MetadataStore\removeMetadata</title>
<polygon fill="white" stroke="white" points="-4,5 -4,-38 345,-38 345,5 -4,5"/>
<!-- Node1 -->
<g id="node1" class="node"><title>Node1</title>
<polygon fill="#bfbfbf" stroke="black" points="0.5,-0 0.5,-34 159.5,-34 159.5,-0 0.5,-0"/>
<text text-anchor="start" x="8.5" y="-21" font-family="Helvetica,sans-Serif" font-size="10.00">pocketmine\metadata</text>
<text text-anchor="middle" x="80" y="-8" font-family="Helvetica,sans-Serif" font-size="10.00">\MetadataStore\removeMetadata</text>
</g>
<!-- Node2 -->
<g id="node3" class="node"><title>Node2</title>
<a xlink:href="../../db/dfc/classpocketmine_1_1metadata_1_1_metadata_store.html#a391b04417ea6d706827b4962edafc2b3" target="_top" xlink:title="pocketmine\\metadata\l\\MetadataStore\\disambiguate">
<polygon fill="white" stroke="black" points="196,-0 196,-34 340,-34 340,-0 196,-0"/>
<text text-anchor="start" x="204" y="-21" font-family="Helvetica,sans-Serif" font-size="10.00">pocketmine\metadata</text>
<text text-anchor="middle" x="268" y="-8" font-family="Helvetica,sans-Serif" font-size="10.00">\MetadataStore\disambiguate</text>
</a>
</g>
<!-- Node1&#45;&gt;Node2 -->
<g id="edge2" class="edge"><title>Node1&#45;&gt;Node2</title>
<path fill="none" stroke="midnightblue" d="M159.729,-17C168.361,-17 177.157,-17 185.817,-17"/>
<polygon fill="midnightblue" stroke="midnightblue" points="185.902,-20.5001 195.902,-17 185.902,-13.5001 185.902,-20.5001"/>
</g>
</g>
</svg>
