<?xml version="1.0" encoding="UTF-8" standalone="no"?>
<!DOCTYPE svg PUBLIC "-//W3C//DTD SVG 1.1//EN"
 "http://www.w3.org/Graphics/SVG/1.1/DTD/svg11.dtd">
<!-- Generated by graphviz version 2.36.0 (20140111.2315)
 -->
<!-- Title: pocketmine\level\generator\GenerationChunkManager\getChunk Pages: 1 -->
<svg width="340pt" height="229pt"
 viewBox="0.00 0.00 340.00 229.00" xmlns="http://www.w3.org/2000/svg" xmlns:xlink="http://www.w3.org/1999/xlink">
<g id="graph0" class="graph" transform="scale(1 1) rotate(0) translate(4 225)">
<title>pocketmine\level\generator\GenerationChunkManager\getChunk</title>
<polygon fill="white" stroke="none" points="-4,4 -4,-225 336,-225 336,4 -4,4"/>
<!-- Node1 -->
<g id="node1" class="node"><title>Node1</title>
<polygon fill="#bfbfbf" stroke="black" points="0,-89.5 0,-130.5 148,-130.5 148,-89.5 0,-89.5"/>
<text text-anchor="start" x="8" y="-118.5" font-family="Helvetica,sans-Serif" font-size="10.00">pocketmine\level\generator</text>
<text text-anchor="start" x="8" y="-107.5" font-family="Helvetica,sans-Serif" font-size="10.00">\GenerationChunkManager</text>
<text text-anchor="middle" x="74" y="-96.5" font-family="Helvetica,sans-Serif" font-size="10.00">\getChunk</text>
</g>
<!-- Node2 -->
<g id="node2" class="node"><title>Node2</title>
<g id="a_node2"><a xlink:href="../../da/d93/classpocketmine_1_1level_1_1generator_1_1_generation_chunk_manager.html#ad206cb0951645d4d6d3e23700ae7a786" target="_top" xlink:title="pocketmine\\level\\generator\l\\GenerationChunkManager\l\\getBlockDataAt">
<polygon fill="white" stroke="black" points="184,-179.5 184,-220.5 332,-220.5 332,-179.5 184,-179.5"/>
<text text-anchor="start" x="192" y="-208.5" font-family="Helvetica,sans-Serif" font-size="10.00">pocketmine\level\generator</text>
<text text-anchor="start" x="192" y="-197.5" font-family="Helvetica,sans-Serif" font-size="10.00">\GenerationChunkManager</text>
<text text-anchor="middle" x="258" y="-186.5" font-family="Helvetica,sans-Serif" font-size="10.00">\getBlockDataAt</text>
</a>
</g>
</g>
<!-- Node1&#45;&gt;Node2 -->
<g id="edge1" class="edge"><title>Node1&#45;&gt;Node2</title>
<path fill="none" stroke="midnightblue" d="M119.847,-135.513C139.341,-146.279 162.578,-158.682 184,-169 191.319,-172.525 199.142,-176.072 206.848,-179.443"/>
<polygon fill="midnightblue" stroke="midnightblue" points="121.33,-132.333 110.889,-130.536 117.931,-138.452 121.33,-132.333"/>
</g>
<!-- Node3 -->
<g id="node3" class="node"><title>Node3</title>
<g id="a_node3"><a xlink:href="../../da/d93/classpocketmine_1_1level_1_1generator_1_1_generation_chunk_manager.html#a1f45c94491c14d111201d4380e4a73a8" target="_top" xlink:title="pocketmine\\level\\generator\l\\GenerationChunkManager\l\\getBlockIdAt">
<polygon fill="white" stroke="black" points="184,-119.5 184,-160.5 332,-160.5 332,-119.5 184,-119.5"/>
<text text-anchor="start" x="192" y="-148.5" font-family="Helvetica,sans-Serif" font-size="10.00">pocketmine\level\generator</text>
<text text-anchor="start" x="192" y="-137.5" font-family="Helvetica,sans-Serif" font-size="10.00">\GenerationChunkManager</text>
<text text-anchor="middle" x="258" y="-126.5" font-family="Helvetica,sans-Serif" font-size="10.00">\getBlockIdAt</text>
</a>
</g>
</g>
<!-- Node1&#45;&gt;Node3 -->
<g id="edge2" class="edge"><title>Node1&#45;&gt;Node3</title>
<path fill="none" stroke="midnightblue" d="M158.237,-123.72C166.804,-125.133 175.464,-126.56 183.91,-127.952"/>
<polygon fill="midnightblue" stroke="midnightblue" points="158.676,-120.246 148.24,-122.072 157.537,-127.152 158.676,-120.246"/>
</g>
<!-- Node4 -->
<g id="node4" class="node"><title>Node4</title>
<g id="a_node4"><a xlink:href="../../da/d93/classpocketmine_1_1level_1_1generator_1_1_generation_chunk_manager.html#a4932faa9f40457e9f431e22f1d64245f" target="_top" xlink:title="pocketmine\\level\\generator\l\\GenerationChunkManager\l\\setBlockDataAt">
<polygon fill="white" stroke="black" points="184,-59.5 184,-100.5 332,-100.5 332,-59.5 184,-59.5"/>
<text text-anchor="start" x="192" y="-88.5" font-family="Helvetica,sans-Serif" font-size="10.00">pocketmine\level\generator</text>
<text text-anchor="start" x="192" y="-77.5" font-family="Helvetica,sans-Serif" font-size="10.00">\GenerationChunkManager</text>
<text text-anchor="middle" x="258" y="-66.5" font-family="Helvetica,sans-Serif" font-size="10.00">\setBlockDataAt</text>
</a>
</g>
</g>
<!-- Node1&#45;&gt;Node4 -->
<g id="edge3" class="edge"><title>Node1&#45;&gt;Node4</title>
<path fill="none" stroke="midnightblue" d="M158.237,-96.2797C166.804,-94.8674 175.464,-93.4399 183.91,-92.0478"/>
<polygon fill="midnightblue" stroke="midnightblue" points="157.537,-92.8476 148.24,-97.9275 158.676,-99.7544 157.537,-92.8476"/>
</g>
<!-- Node5 -->
<g id="node5" class="node"><title>Node5</title>
<g id="a_node5"><a xlink:href="../../da/d93/classpocketmine_1_1level_1_1generator_1_1_generation_chunk_manager.html#ade63db02936b690117faca49a2c21b57" target="_top" xlink:title="pocketmine\\level\\generator\l\\GenerationChunkManager\l\\setBlockIdAt">
<polygon fill="white" stroke="black" points="184,0.5 184,-40.5 332,-40.5 332,0.5 184,0.5"/>
<text text-anchor="start" x="192" y="-28.5" font-family="Helvetica,sans-Serif" font-size="10.00">pocketmine\level\generator</text>
<text text-anchor="start" x="192" y="-17.5" font-family="Helvetica,sans-Serif" font-size="10.00">\GenerationChunkManager</text>
<text text-anchor="middle" x="258" y="-6.5" font-family="Helvetica,sans-Serif" font-size="10.00">\setBlockIdAt</text>
</a>
</g>
</g>
<!-- Node1&#45;&gt;Node5 -->
<g id="edge4" class="edge"><title>Node1&#45;&gt;Node5</title>
<path fill="none" stroke="midnightblue" d="M119.023,-84.2825C138.644,-73.2082 162.205,-60.4358 184,-50 190.674,-46.8046 197.78,-43.6224 204.839,-40.5901"/>
<polygon fill="midnightblue" stroke="midnightblue" points="117.27,-81.2528 110.305,-89.2366 120.728,-87.3387 117.27,-81.2528"/>
</g>
</g>
</svg>
