<?xml version="1.0" encoding="UTF-8" standalone="no"?>
<!DOCTYPE svg PUBLIC "-//W3C//DTD SVG 1.1//EN"
 "http://www.w3.org/Graphics/SVG/1.1/DTD/svg11.dtd">
<!-- Generated by graphviz version 2.26.3 (20100126.1600)
 -->
<!-- Title: pocketmine\level\generator\GenerationChunkManager\setBlockDataAt Pages: 1 -->
<svg width="464pt" height="56pt"
 viewBox="0.00 0.00 464.00 56.00" xmlns="http://www.w3.org/2000/svg" xmlns:xlink="http://www.w3.org/1999/xlink">
<g id="graph1" class="graph" transform="scale(1 1) rotate(0) translate(4 52)">
<title>pocketmine\level\generator\GenerationChunkManager\setBlockDataAt</title>
<polygon fill="white" stroke="white" points="-4,5 -4,-52 461,-52 461,5 -4,5"/>
<!-- Node1 -->
<g id="node1" class="node"><title>Node1</title>
<polygon fill="#bfbfbf" stroke="black" points="0,-0.5 0,-47.5 134,-47.5 134,-0.5 0,-0.5"/>
<text text-anchor="start" x="8" y="-34.5" font-family="Helvetica,sans-Serif" font-size="10.00">pocketmine\level\generator</text>
<text text-anchor="start" x="8" y="-21.5" font-family="Helvetica,sans-Serif" font-size="10.00">\GenerationChunkManager</text>
<text text-anchor="middle" x="67" y="-8.5" font-family="Helvetica,sans-Serif" font-size="10.00">\setBlockDataAt</text>
</g>
<!-- Node2 -->
<g id="node3" class="node"><title>Node2</title>
<a xlink:href="../../da/d93/classpocketmine_1_1level_1_1generator_1_1_generation_chunk_manager.html#a43b916ec4575c2050a568026b94cb7a0" target="_top" xlink:title="pocketmine\\level\\generator\l\\GenerationChunkManager\l\\getChunk">
<polygon fill="white" stroke="black" points="170,-0.5 170,-47.5 304,-47.5 304,-0.5 170,-0.5"/>
<text text-anchor="start" x="178" y="-34.5" font-family="Helvetica,sans-Serif" font-size="10.00">pocketmine\level\generator</text>
<text text-anchor="start" x="178" y="-21.5" font-family="Helvetica,sans-Serif" font-size="10.00">\GenerationChunkManager</text>
<text text-anchor="middle" x="237" y="-8.5" font-family="Helvetica,sans-Serif" font-size="10.00">\getChunk</text>
</a>
</g>
<!-- Node1&#45;&gt;Node2 -->
<g id="edge2" class="edge"><title>Node1&#45;&gt;Node2</title>
<path fill="none" stroke="midnightblue" d="M134.189,-24C142.502,-24 151.054,-24 159.506,-24"/>
<polygon fill="midnightblue" stroke="midnightblue" points="159.743,-27.5001 169.743,-24 159.743,-20.5001 159.743,-27.5001"/>
</g>
<!-- Node3 -->
<g id="node5" class="node"><title>Node3</title>
<a xlink:href="../../d3/d4b/classpocketmine_1_1level_1_1_level.html#a4be83538c608928a193884ea26010d96" target="_top" xlink:title="pocketmine\\level\\Level\l\\chunkHash">
<polygon fill="white" stroke="black" points="340,-7 340,-41 456,-41 456,-7 340,-7"/>
<text text-anchor="start" x="348" y="-28" font-family="Helvetica,sans-Serif" font-size="10.00">pocketmine\level\Level</text>
<text text-anchor="middle" x="398" y="-15" font-family="Helvetica,sans-Serif" font-size="10.00">\chunkHash</text>
</a>
</g>
<!-- Node2&#45;&gt;Node3 -->
<g id="edge4" class="edge"><title>Node2&#45;&gt;Node3</title>
<path fill="none" stroke="midnightblue" d="M304.346,-24C312.738,-24 321.327,-24 329.734,-24"/>
<polygon fill="midnightblue" stroke="midnightblue" points="329.872,-27.5001 339.872,-24 329.872,-20.5001 329.872,-27.5001"/>
</g>
</g>
</svg>
