<?xml version="1.0" encoding="UTF-8" standalone="no"?>
<!DOCTYPE svg PUBLIC "-//W3C//DTD SVG 1.1//EN"
 "http://www.w3.org/Graphics/SVG/1.1/DTD/svg11.dtd">
<!-- Generated by graphviz version 2.26.3 (20100126.1600)
 -->
<!-- Title: G Pages: 1 -->
<svg width="234pt" height="354pt"
 viewBox="0.00 0.00 234.00 354.00" xmlns="http://www.w3.org/2000/svg" xmlns:xlink="http://www.w3.org/1999/xlink">
<g id="graph1" class="graph" transform="scale(1 1) rotate(0) translate(4 350)">
<title>G</title>
<polygon fill="white" stroke="white" points="-4,5 -4,-350 231,-350 231,5 -4,5"/>
<!-- Node1 -->
<g id="node1" class="node"><title>Node1</title>
<polygon fill="#bfbfbf" stroke="black" points="-0.5,-0.5 -0.5,-219.5 226.5,-219.5 226.5,-0.5 -0.5,-0.5"/>
<text text-anchor="middle" x="113" y="-206.5" font-family="Helvetica,sans-Serif" font-size="10.00">pocketmine\command\ConsoleCommandSender</text>
<polyline fill="none" stroke="black" points="-0.5,-198.5 226.5,-198.5 "/>
<text text-anchor="middle" x="113" y="-185.5" font-family="Helvetica,sans-Serif" font-size="10.00"> </text>
<polyline fill="none" stroke="black" points="-0.5,-177.5 226.5,-177.5 "/>
<text text-anchor="start" x="7.5" y="-164.5" font-family="Helvetica,sans-Serif" font-size="10.00">+ __construct()</text>
<text text-anchor="start" x="7.5" y="-151.5" font-family="Helvetica,sans-Serif" font-size="10.00">+ isPermissionSet()</text>
<text text-anchor="start" x="7.5" y="-138.5" font-family="Helvetica,sans-Serif" font-size="10.00">+ hasPermission()</text>
<text text-anchor="start" x="7.5" y="-125.5" font-family="Helvetica,sans-Serif" font-size="10.00">+ addAttachment()</text>
<text text-anchor="start" x="7.5" y="-112.5" font-family="Helvetica,sans-Serif" font-size="10.00">+ removeAttachment()</text>
<text text-anchor="start" x="7.5" y="-99.5" font-family="Helvetica,sans-Serif" font-size="10.00">+ recalculatePermissions()</text>
<text text-anchor="start" x="7.5" y="-86.5" font-family="Helvetica,sans-Serif" font-size="10.00">+ getEffectivePermissions()</text>
<text text-anchor="start" x="7.5" y="-73.5" font-family="Helvetica,sans-Serif" font-size="10.00">+ isPlayer()</text>
<text text-anchor="start" x="7.5" y="-60.5" font-family="Helvetica,sans-Serif" font-size="10.00">+ getServer()</text>
<text text-anchor="start" x="7.5" y="-47.5" font-family="Helvetica,sans-Serif" font-size="10.00">+ sendMessage()</text>
<text text-anchor="start" x="7.5" y="-34.5" font-family="Helvetica,sans-Serif" font-size="10.00">+ getName()</text>
<text text-anchor="start" x="7.5" y="-21.5" font-family="Helvetica,sans-Serif" font-size="10.00">+ isOp()</text>
<text text-anchor="start" x="7.5" y="-8.5" font-family="Helvetica,sans-Serif" font-size="10.00">+ setOp()</text>
</g>
<!-- Node2 -->
<g id="node2" class="node"><title>Node2</title>
<a xlink:href="../../d6/d9d/interfacepocketmine_1_1command_1_1_command_sender.html" target="_top" xlink:title="{pocketmine\\command\\CommandSender\n||+ sendMessage()\l+ getServer()\l+ getName()\l}">
<polygon fill="white" stroke="black" points="17.5,-256.5 17.5,-345.5 208.5,-345.5 208.5,-256.5 17.5,-256.5"/>
<text text-anchor="middle" x="113" y="-332.5" font-family="Helvetica,sans-Serif" font-size="10.00">pocketmine\command\CommandSender</text>
<polyline fill="none" stroke="black" points="17.5,-324.5 208.5,-324.5 "/>
<text text-anchor="middle" x="113" y="-311.5" font-family="Helvetica,sans-Serif" font-size="10.00"> </text>
<polyline fill="none" stroke="black" points="17.5,-303.5 208.5,-303.5 "/>
<text text-anchor="start" x="25.5" y="-290.5" font-family="Helvetica,sans-Serif" font-size="10.00">+ sendMessage()</text>
<text text-anchor="start" x="25.5" y="-277.5" font-family="Helvetica,sans-Serif" font-size="10.00">+ getServer()</text>
<text text-anchor="start" x="25.5" y="-264.5" font-family="Helvetica,sans-Serif" font-size="10.00">+ getName()</text>
</a>
</g>
<!-- Node2&#45;&gt;Node1 -->
<g id="edge2" class="edge"><title>Node2&#45;&gt;Node1</title>
<path fill="none" stroke="midnightblue" d="M113,-245.983C113,-237.67 113,-228.855 113,-219.866"/>
<polygon fill="none" stroke="midnightblue" points="109.5,-246.219 113,-256.219 116.5,-246.219 109.5,-246.219"/>
</g>
</g>
</svg>
