<?xml version="1.0" encoding="UTF-8" standalone="no"?>
<!DOCTYPE svg PUBLIC "-//W3C//DTD SVG 1.1//EN"
 "http://www.w3.org/Graphics/SVG/1.1/DTD/svg11.dtd">
<!-- Generated by graphviz version 2.36.0 (20140111.2315)
 -->
<!-- Title: pocketmine\command\ConsoleCommandSender Pages: 1 -->
<svg width="156pt" height="614pt"
 viewBox="0.00 0.00 156.00 614.00" xmlns="http://www.w3.org/2000/svg" xmlns:xlink="http://www.w3.org/1999/xlink">
<g id="graph0" class="graph" transform="scale(1 1) rotate(0) translate(4 610)">
<title>pocketmine\command\ConsoleCommandSender</title>
<polygon fill="white" stroke="none" points="-4,4 -4,-610 152,-610 152,4 -4,4"/>
<!-- Node1 -->
<g id="node1" class="node"><title>Node1</title>
<polygon fill="#bfbfbf" stroke="black" points="-0.5,-1 -0.5,-201 148.5,-201 148.5,-1 -0.5,-1"/>
<text text-anchor="start" x="7.5" y="-189" font-family="Helvetica,sans-Serif" font-size="10.00">pocketmine\command</text>
<text text-anchor="middle" x="74" y="-178" font-family="Helvetica,sans-Serif" font-size="10.00">\ConsoleCommandSender</text>
<polyline fill="none" stroke="black" points="-0.5,-171 148.5,-171 "/>
<text text-anchor="middle" x="74" y="-159" font-family="Helvetica,sans-Serif" font-size="10.00"> </text>
<polyline fill="none" stroke="black" points="-0.5,-152 148.5,-152 "/>
<text text-anchor="start" x="7.5" y="-140" font-family="Helvetica,sans-Serif" font-size="10.00">+ __construct()</text>
<text text-anchor="start" x="7.5" y="-129" font-family="Helvetica,sans-Serif" font-size="10.00">+ isPermissionSet()</text>
<text text-anchor="start" x="7.5" y="-118" font-family="Helvetica,sans-Serif" font-size="10.00">+ hasPermission()</text>
<text text-anchor="start" x="7.5" y="-107" font-family="Helvetica,sans-Serif" font-size="10.00">+ addAttachment()</text>
<text text-anchor="start" x="7.5" y="-96" font-family="Helvetica,sans-Serif" font-size="10.00">+ removeAttachment()</text>
<text text-anchor="start" x="7.5" y="-85" font-family="Helvetica,sans-Serif" font-size="10.00">+ recalculatePermissions()</text>
<text text-anchor="start" x="7.5" y="-74" font-family="Helvetica,sans-Serif" font-size="10.00">+ getEffectivePermissions()</text>
<text text-anchor="start" x="7.5" y="-63" font-family="Helvetica,sans-Serif" font-size="10.00">+ isPlayer()</text>
<text text-anchor="start" x="7.5" y="-52" font-family="Helvetica,sans-Serif" font-size="10.00">+ getServer()</text>
<text text-anchor="start" x="7.5" y="-41" font-family="Helvetica,sans-Serif" font-size="10.00">+ sendMessage()</text>
<text text-anchor="start" x="7.5" y="-30" font-family="Helvetica,sans-Serif" font-size="10.00">+ getName()</text>
<text text-anchor="start" x="7.5" y="-19" font-family="Helvetica,sans-Serif" font-size="10.00">+ isOp()</text>
<text text-anchor="start" x="7.5" y="-8" font-family="Helvetica,sans-Serif" font-size="10.00">+ setOp()</text>
</g>
<!-- Node2 -->
<g id="node2" class="node"><title>Node2</title>
<g id="a_node2"><a xlink:href="../../d6/d9d/interfacepocketmine_1_1command_1_1_command_sender.html" target="_top" xlink:title="{pocketmine\\command\l\\CommandSender\n||+ sendMessage()\l+ getServer()\l+ getName()\l}">
<polygon fill="white" stroke="black" points="11.5,-239 11.5,-329 136.5,-329 136.5,-239 11.5,-239"/>
<text text-anchor="start" x="19.5" y="-317" font-family="Helvetica,sans-Serif" font-size="10.00">pocketmine\command</text>
<text text-anchor="middle" x="74" y="-306" font-family="Helvetica,sans-Serif" font-size="10.00">\CommandSender</text>
<polyline fill="none" stroke="black" points="11.5,-299 136.5,-299 "/>
<text text-anchor="middle" x="74" y="-287" font-family="Helvetica,sans-Serif" font-size="10.00"> </text>
<polyline fill="none" stroke="black" points="11.5,-280 136.5,-280 "/>
<text text-anchor="start" x="19.5" y="-268" font-family="Helvetica,sans-Serif" font-size="10.00">+ sendMessage()</text>
<text text-anchor="start" x="19.5" y="-257" font-family="Helvetica,sans-Serif" font-size="10.00">+ getServer()</text>
<text text-anchor="start" x="19.5" y="-246" font-family="Helvetica,sans-Serif" font-size="10.00">+ getName()</text>
</a>
</g>
</g>
<!-- Node2&#45;&gt;Node1 -->
<g id="edge1" class="edge"><title>Node2&#45;&gt;Node1</title>
<path fill="none" stroke="midnightblue" d="M74,-228.71C74,-219.948 74,-210.643 74,-201.211"/>
<polygon fill="none" stroke="midnightblue" points="70.5001,-228.722 74,-238.722 77.5001,-228.722 70.5001,-228.722"/>
</g>
<!-- Node3 -->
<g id="node3" class="node"><title>Node3</title>
<g id="a_node3"><a xlink:href="../../de/da0/interfacepocketmine_1_1permission_1_1_permissible.html" target="_top" xlink:title="{pocketmine\\permission\l\\Permissible\n||+ isPermissionSet()\l+ hasPermission()\l+ addAttachment()\l+ removeAttachment()\l+ recalculatePermissions()\l+ getEffectivePermissions()\l}">
<polygon fill="white" stroke="black" points="-0.5,-366.5 -0.5,-489.5 148.5,-489.5 148.5,-366.5 -0.5,-366.5"/>
<text text-anchor="start" x="7.5" y="-477.5" font-family="Helvetica,sans-Serif" font-size="10.00">pocketmine\permission</text>
<text text-anchor="middle" x="74" y="-466.5" font-family="Helvetica,sans-Serif" font-size="10.00">\Permissible</text>
<polyline fill="none" stroke="black" points="-0.5,-459.5 148.5,-459.5 "/>
<text text-anchor="middle" x="74" y="-447.5" font-family="Helvetica,sans-Serif" font-size="10.00"> </text>
<polyline fill="none" stroke="black" points="-0.5,-440.5 148.5,-440.5 "/>
<text text-anchor="start" x="7.5" y="-428.5" font-family="Helvetica,sans-Serif" font-size="10.00">+ isPermissionSet()</text>
<text text-anchor="start" x="7.5" y="-417.5" font-family="Helvetica,sans-Serif" font-size="10.00">+ hasPermission()</text>
<text text-anchor="start" x="7.5" y="-406.5" font-family="Helvetica,sans-Serif" font-size="10.00">+ addAttachment()</text>
<text text-anchor="start" x="7.5" y="-395.5" font-family="Helvetica,sans-Serif" font-size="10.00">+ removeAttachment()</text>
<text text-anchor="start" x="7.5" y="-384.5" font-family="Helvetica,sans-Serif" font-size="10.00">+ recalculatePermissions()</text>
<text text-anchor="start" x="7.5" y="-373.5" font-family="Helvetica,sans-Serif" font-size="10.00">+ getEffectivePermissions()</text>
</a>
</g>
</g>
<!-- Node3&#45;&gt;Node2 -->
<g id="edge2" class="edge"><title>Node3&#45;&gt;Node2</title>
<path fill="none" stroke="midnightblue" d="M74,-356.333C74,-347.055 74,-337.77 74,-329.11"/>
<polygon fill="none" stroke="midnightblue" points="70.5001,-356.367 74,-366.367 77.5001,-356.367 70.5001,-356.367"/>
</g>
<!-- Node4 -->
<g id="node4" class="node"><title>Node4</title>
<g id="a_node4"><a xlink:href="../../dd/d17/interfacepocketmine_1_1permission_1_1_server_operator.html" target="_top" xlink:title="{pocketmine\\permission\l\\ServerOperator\n||+ isOp()\l+ setOp()\l}">
<polygon fill="white" stroke="black" points="10,-526.5 10,-605.5 138,-605.5 138,-526.5 10,-526.5"/>
<text text-anchor="start" x="18" y="-593.5" font-family="Helvetica,sans-Serif" font-size="10.00">pocketmine\permission</text>
<text text-anchor="middle" x="74" y="-582.5" font-family="Helvetica,sans-Serif" font-size="10.00">\ServerOperator</text>
<polyline fill="none" stroke="black" points="10,-575.5 138,-575.5 "/>
<text text-anchor="middle" x="74" y="-563.5" font-family="Helvetica,sans-Serif" font-size="10.00"> </text>
<polyline fill="none" stroke="black" points="10,-556.5 138,-556.5 "/>
<text text-anchor="start" x="18" y="-544.5" font-family="Helvetica,sans-Serif" font-size="10.00">+ isOp()</text>
<text text-anchor="start" x="18" y="-533.5" font-family="Helvetica,sans-Serif" font-size="10.00">+ setOp()</text>
</a>
</g>
</g>
<!-- Node4&#45;&gt;Node3 -->
<g id="edge3" class="edge"><title>Node4&#45;&gt;Node3</title>
<path fill="none" stroke="midnightblue" d="M74,-516.144C74,-507.528 74,-498.465 74,-489.574"/>
<polygon fill="none" stroke="midnightblue" points="70.5001,-516.392 74,-526.392 77.5001,-516.392 70.5001,-516.392"/>
</g>
</g>
</svg>
