<?xml version="1.0" encoding="UTF-8" standalone="no"?>
<!DOCTYPE svg PUBLIC "-//W3C//DTD SVG 1.1//EN"
 "http://www.w3.org/Graphics/SVG/1.1/DTD/svg11.dtd">
<!-- Generated by graphviz version 2.26.3 (20100126.1600)
 -->
<!-- Title: pocketmine\command\ConsoleCommandSender Pages: 1 -->
<svg width="146pt" height="686pt"
 viewBox="0.00 0.00 146.00 686.00" xmlns="http://www.w3.org/2000/svg" xmlns:xlink="http://www.w3.org/1999/xlink">
<g id="graph1" class="graph" transform="scale(1 1) rotate(0) translate(4 682)">
<title>pocketmine\command\ConsoleCommandSender</title>
<polygon fill="white" stroke="white" points="-4,5 -4,-682 143,-682 143,5 -4,5"/>
<!-- Node1 -->
<g id="node1" class="node"><title>Node1</title>
<polygon fill="#bfbfbf" stroke="black" points="0,-1 0,-233 138,-233 138,-1 0,-1"/>
<text text-anchor="start" x="8" y="-220" font-family="Helvetica,sans-Serif" font-size="10.00">pocketmine\command</text>
<text text-anchor="middle" x="69" y="-207" font-family="Helvetica,sans-Serif" font-size="10.00">\ConsoleCommandSender</text>
<polyline fill="none" stroke="black" points="0,-199 138,-199 "/>
<text text-anchor="middle" x="69" y="-186" font-family="Helvetica,sans-Serif" font-size="10.00"> </text>
<polyline fill="none" stroke="black" points="0,-178 138,-178 "/>
<text text-anchor="start" x="8" y="-165" font-family="Helvetica,sans-Serif" font-size="10.00">+ __construct()</text>
<text text-anchor="start" x="8" y="-152" font-family="Helvetica,sans-Serif" font-size="10.00">+ isPermissionSet()</text>
<text text-anchor="start" x="8" y="-139" font-family="Helvetica,sans-Serif" font-size="10.00">+ hasPermission()</text>
<text text-anchor="start" x="8" y="-126" font-family="Helvetica,sans-Serif" font-size="10.00">+ addAttachment()</text>
<text text-anchor="start" x="8" y="-113" font-family="Helvetica,sans-Serif" font-size="10.00">+ removeAttachment()</text>
<text text-anchor="start" x="8" y="-100" font-family="Helvetica,sans-Serif" font-size="10.00">+ recalculatePermissions()</text>
<text text-anchor="start" x="8" y="-87" font-family="Helvetica,sans-Serif" font-size="10.00">+ getEffectivePermissions()</text>
<text text-anchor="start" x="8" y="-74" font-family="Helvetica,sans-Serif" font-size="10.00">+ isPlayer()</text>
<text text-anchor="start" x="8" y="-61" font-family="Helvetica,sans-Serif" font-size="10.00">+ getServer()</text>
<text text-anchor="start" x="8" y="-48" font-family="Helvetica,sans-Serif" font-size="10.00">+ sendMessage()</text>
<text text-anchor="start" x="8" y="-35" font-family="Helvetica,sans-Serif" font-size="10.00">+ getName()</text>
<text text-anchor="start" x="8" y="-22" font-family="Helvetica,sans-Serif" font-size="10.00">+ isOp()</text>
<text text-anchor="start" x="8" y="-9" font-family="Helvetica,sans-Serif" font-size="10.00">+ setOp()</text>
</g>
<!-- Node2 -->
<g id="node2" class="node"><title>Node2</title>
<a xlink:href="../../d6/d9d/interfacepocketmine_1_1command_1_1_command_sender.html" target="_top" xlink:title="{pocketmine\\command\l\\CommandSender\n||+ sendMessage()\l+ getServer()\l+ getName()\l}">
<polygon fill="white" stroke="black" points="12.5,-271 12.5,-373 125.5,-373 125.5,-271 12.5,-271"/>
<text text-anchor="start" x="20.5" y="-360" font-family="Helvetica,sans-Serif" font-size="10.00">pocketmine\command</text>
<text text-anchor="middle" x="69" y="-347" font-family="Helvetica,sans-Serif" font-size="10.00">\CommandSender</text>
<polyline fill="none" stroke="black" points="12.5,-339 125.5,-339 "/>
<text text-anchor="middle" x="69" y="-326" font-family="Helvetica,sans-Serif" font-size="10.00"> </text>
<polyline fill="none" stroke="black" points="12.5,-318 125.5,-318 "/>
<text text-anchor="start" x="20.5" y="-305" font-family="Helvetica,sans-Serif" font-size="10.00">+ sendMessage()</text>
<text text-anchor="start" x="20.5" y="-292" font-family="Helvetica,sans-Serif" font-size="10.00">+ getServer()</text>
<text text-anchor="start" x="20.5" y="-279" font-family="Helvetica,sans-Serif" font-size="10.00">+ getName()</text>
</a>
</g>
<!-- Node2&#45;&gt;Node1 -->
<g id="edge2" class="edge"><title>Node2&#45;&gt;Node1</title>
<path fill="none" stroke="midnightblue" d="M69,-260.731C69,-251.948 69,-242.681 69,-233.255"/>
<polygon fill="none" stroke="midnightblue" points="65.5001,-260.799 69,-270.799 72.5001,-260.799 65.5001,-260.799"/>
</g>
<!-- Node3 -->
<g id="node4" class="node"><title>Node3</title>
<a xlink:href="../../de/da0/interfacepocketmine_1_1permission_1_1_permissible.html" target="_top" xlink:title="{pocketmine\\permission\l\\Permissible\n||+ isPermissionSet()\l+ hasPermission()\l+ addAttachment()\l+ removeAttachment()\l+ recalculatePermissions()\l+ getEffectivePermissions()\l}">
<polygon fill="white" stroke="black" points="0,-410.5 0,-551.5 138,-551.5 138,-410.5 0,-410.5"/>
<text text-anchor="start" x="8" y="-538.5" font-family="Helvetica,sans-Serif" font-size="10.00">pocketmine\permission</text>
<text text-anchor="middle" x="69" y="-525.5" font-family="Helvetica,sans-Serif" font-size="10.00">\Permissible</text>
<polyline fill="none" stroke="black" points="0,-517.5 138,-517.5 "/>
<text text-anchor="middle" x="69" y="-504.5" font-family="Helvetica,sans-Serif" font-size="10.00"> </text>
<polyline fill="none" stroke="black" points="0,-496.5 138,-496.5 "/>
<text text-anchor="start" x="8" y="-483.5" font-family="Helvetica,sans-Serif" font-size="10.00">+ isPermissionSet()</text>
<text text-anchor="start" x="8" y="-470.5" font-family="Helvetica,sans-Serif" font-size="10.00">+ hasPermission()</text>
<text text-anchor="start" x="8" y="-457.5" font-family="Helvetica,sans-Serif" font-size="10.00">+ addAttachment()</text>
<text text-anchor="start" x="8" y="-444.5" font-family="Helvetica,sans-Serif" font-size="10.00">+ removeAttachment()</text>
<text text-anchor="start" x="8" y="-431.5" font-family="Helvetica,sans-Serif" font-size="10.00">+ recalculatePermissions()</text>
<text text-anchor="start" x="8" y="-418.5" font-family="Helvetica,sans-Serif" font-size="10.00">+ getEffectivePermissions()</text>
</a>
</g>
<!-- Node3&#45;&gt;Node2 -->
<g id="edge4" class="edge"><title>Node3&#45;&gt;Node2</title>
<path fill="none" stroke="midnightblue" d="M69,-400.089C69,-391.001 69,-381.937 69,-373.374"/>
<polygon fill="none" stroke="midnightblue" points="65.5001,-400.334 69,-410.334 72.5001,-400.334 65.5001,-400.334"/>
</g>
<!-- Node4 -->
<g id="node6" class="node"><title>Node4</title>
<a xlink:href="../../dd/d17/interfacepocketmine_1_1permission_1_1_server_operator.html" target="_top" xlink:title="{pocketmine\\permission\l\\ServerOperator\n||+ isOp()\l+ setOp()\l}">
<polygon fill="white" stroke="black" points="10.5,-588.5 10.5,-677.5 127.5,-677.5 127.5,-588.5 10.5,-588.5"/>
<text text-anchor="start" x="18.5" y="-664.5" font-family="Helvetica,sans-Serif" font-size="10.00">pocketmine\permission</text>
<text text-anchor="middle" x="69" y="-651.5" font-family="Helvetica,sans-Serif" font-size="10.00">\ServerOperator</text>
<polyline fill="none" stroke="black" points="10.5,-643.5 127.5,-643.5 "/>
<text text-anchor="middle" x="69" y="-630.5" font-family="Helvetica,sans-Serif" font-size="10.00"> </text>
<polyline fill="none" stroke="black" points="10.5,-622.5 127.5,-622.5 "/>
<text text-anchor="start" x="18.5" y="-609.5" font-family="Helvetica,sans-Serif" font-size="10.00">+ isOp()</text>
<text text-anchor="start" x="18.5" y="-596.5" font-family="Helvetica,sans-Serif" font-size="10.00">+ setOp()</text>
</a>
</g>
<!-- Node4&#45;&gt;Node3 -->
<g id="edge6" class="edge"><title>Node4&#45;&gt;Node3</title>
<path fill="none" stroke="midnightblue" d="M69,-578.013C69,-569.465 69,-560.532 69,-551.695"/>
<polygon fill="none" stroke="midnightblue" points="65.5001,-578.217 69,-588.217 72.5001,-578.217 65.5001,-578.217"/>
</g>
</g>
</svg>
