<?xml version="1.0" encoding="UTF-8" standalone="no"?>
<!DOCTYPE svg PUBLIC "-//W3C//DTD SVG 1.1//EN"
 "http://www.w3.org/Graphics/SVG/1.1/DTD/svg11.dtd">
<!-- Generated by graphviz version 2.26.3 (20100126.1600)
 -->
<!-- Title: G Pages: 1 -->
<svg width="202pt" height="186pt"
 viewBox="0.00 0.00 202.00 186.00" xmlns="http://www.w3.org/2000/svg" xmlns:xlink="http://www.w3.org/1999/xlink">
<g id="graph1" class="graph" transform="scale(1 1) rotate(0) translate(4 182)">
<title>G</title>
<polygon fill="white" stroke="white" points="-4,5 -4,-182 199,-182 199,5 -4,5"/>
<!-- Node1 -->
<g id="node1" class="node"><title>Node1</title>
<polygon fill="#bfbfbf" stroke="black" points="-0.5,-1 -0.5,-77 194.5,-77 194.5,-1 -0.5,-1"/>
<text text-anchor="middle" x="97" y="-64" font-family="Helvetica,sans-Serif" font-size="10.00">pocketmine\plugin\MethodEventExecutor</text>
<polyline fill="none" stroke="black" points="-0.5,-56 194.5,-56 "/>
<text text-anchor="middle" x="97" y="-43" font-family="Helvetica,sans-Serif" font-size="10.00"> </text>
<polyline fill="none" stroke="black" points="-0.5,-35 194.5,-35 "/>
<text text-anchor="start" x="7.5" y="-22" font-family="Helvetica,sans-Serif" font-size="10.00">+ __construct()</text>
<text text-anchor="start" x="7.5" y="-9" font-family="Helvetica,sans-Serif" font-size="10.00">+ execute()</text>
</g>
<!-- Node2 -->
<g id="node2" class="node"><title>Node2</title>
<a xlink:href="../../d7/d59/interfacepocketmine_1_1plugin_1_1_event_executor.html" target="_top" xlink:title="{pocketmine\\plugin\\EventExecutor\n||+ execute()\l}">
<polygon fill="white" stroke="black" points="15.5,-114.5 15.5,-177.5 178.5,-177.5 178.5,-114.5 15.5,-114.5"/>
<text text-anchor="middle" x="97" y="-164.5" font-family="Helvetica,sans-Serif" font-size="10.00">pocketmine\plugin\EventExecutor</text>
<polyline fill="none" stroke="black" points="15.5,-156.5 178.5,-156.5 "/>
<text text-anchor="middle" x="97" y="-143.5" font-family="Helvetica,sans-Serif" font-size="10.00"> </text>
<polyline fill="none" stroke="black" points="15.5,-135.5 178.5,-135.5 "/>
<text text-anchor="start" x="23.5" y="-122.5" font-family="Helvetica,sans-Serif" font-size="10.00">+ execute()</text>
</a>
</g>
<!-- Node2&#45;&gt;Node1 -->
<g id="edge2" class="edge"><title>Node2&#45;&gt;Node1</title>
<path fill="none" stroke="midnightblue" d="M97,-104.253C97,-95.3105 97,-85.907 97,-77.1103"/>
<polygon fill="none" stroke="midnightblue" points="93.5001,-104.475 97,-114.475 100.5,-104.475 93.5001,-104.475"/>
</g>
</g>
</svg>
