<?xml version="1.0" encoding="UTF-8" standalone="no"?>
<!DOCTYPE svg PUBLIC "-//W3C//DTD SVG 1.1//EN"
 "http://www.w3.org/Graphics/SVG/1.1/DTD/svg11.dtd">
<!-- Generated by graphviz version 2.26.3 (20100126.1600)
 -->
<!-- Title: pocketmine\plugin\RegisteredListener\callEvent Pages: 1 -->
<svg width="336pt" height="94pt"
 viewBox="0.00 0.00 336.00 94.00" xmlns="http://www.w3.org/2000/svg" xmlns:xlink="http://www.w3.org/1999/xlink">
<g id="graph1" class="graph" transform="scale(1 1) rotate(0) translate(4 90)">
<title>pocketmine\plugin\RegisteredListener\callEvent</title>
<polygon fill="white" stroke="white" points="-4,5 -4,-90 333,-90 333,5 -4,5"/>
<!-- Node1 -->
<g id="node1" class="node"><title>Node1</title>
<polygon fill="#bfbfbf" stroke="black" points="0,-26 0,-60 146,-60 146,-26 0,-26"/>
<text text-anchor="start" x="8" y="-47" font-family="Helvetica,sans-Serif" font-size="10.00">pocketmine\plugin\Registered</text>
<text text-anchor="middle" x="73" y="-34" font-family="Helvetica,sans-Serif" font-size="10.00">Listener\callEvent</text>
</g>
<!-- Node2 -->
<g id="node3" class="node"><title>Node2</title>
<a xlink:href="../../d1/d2f/classpocketmine_1_1event_1_1_event.html#a99e105e6cb8e83f3dbae1fb26d398cf4" target="_top" xlink:title="pocketmine\\event\\Event\l\\isCancelled">
<polygon fill="white" stroke="black" points="194,-52 194,-86 316,-86 316,-52 194,-52"/>
<text text-anchor="start" x="202" y="-73" font-family="Helvetica,sans-Serif" font-size="10.00">pocketmine\event\Event</text>
<text text-anchor="middle" x="255" y="-60" font-family="Helvetica,sans-Serif" font-size="10.00">\isCancelled</text>
</a>
</g>
<!-- Node1&#45;&gt;Node2 -->
<g id="edge2" class="edge"><title>Node1&#45;&gt;Node2</title>
<path fill="none" stroke="midnightblue" d="M146.24,-53.4628C158.587,-55.2267 171.387,-57.0553 183.684,-58.8121"/>
<polygon fill="midnightblue" stroke="midnightblue" points="183.48,-62.3183 193.874,-60.2678 184.47,-55.3887 183.48,-62.3183"/>
</g>
<!-- Node3 -->
<g id="node5" class="node"><title>Node3</title>
<a xlink:href="../../d9/d40/classpocketmine_1_1plugin_1_1_registered_listener.html#a55df410a685b40384af93676cdf4ff62" target="_top" xlink:title="pocketmine\\plugin\\Registered\lListener\\isIgnoringCancelled">
<polygon fill="white" stroke="black" points="182,-0 182,-34 328,-34 328,-0 182,-0"/>
<text text-anchor="start" x="190" y="-21" font-family="Helvetica,sans-Serif" font-size="10.00">pocketmine\plugin\Registered</text>
<text text-anchor="middle" x="255" y="-8" font-family="Helvetica,sans-Serif" font-size="10.00">Listener\isIgnoringCancelled</text>
</a>
</g>
<!-- Node1&#45;&gt;Node3 -->
<g id="edge4" class="edge"><title>Node1&#45;&gt;Node3</title>
<path fill="none" stroke="midnightblue" d="M146.24,-32.5372C154.688,-31.3303 163.349,-30.093 171.916,-28.8692"/>
<polygon fill="midnightblue" stroke="midnightblue" points="172.506,-32.3205 181.91,-27.4414 171.516,-25.3909 172.506,-32.3205"/>
</g>
</g>
</svg>
