<?xml version="1.0" encoding="UTF-8" standalone="no"?>
<!DOCTYPE svg PUBLIC "-//W3C//DTD SVG 1.1//EN"
 "http://www.w3.org/Graphics/SVG/1.1/DTD/svg11.dtd">
<!-- Generated by graphviz version 2.26.3 (20100126.1600)
 -->
<!-- Title: pocketmine\event\level\ChunkPopulateEvent Pages: 1 -->
<svg width="130pt" height="478pt"
 viewBox="0.00 0.00 130.00 478.00" xmlns="http://www.w3.org/2000/svg" xmlns:xlink="http://www.w3.org/1999/xlink">
<g id="graph1" class="graph" transform="scale(1 1) rotate(0) translate(4 474)">
<title>pocketmine\event\level\ChunkPopulateEvent</title>
<polygon fill="white" stroke="white" points="-4,5 -4,-474 127,-474 127,5 -4,5"/>
<!-- Node1 -->
<g id="node1" class="node"><title>Node1</title>
<polygon fill="#bfbfbf" stroke="black" points="2.5,-1 2.5,-77 119.5,-77 119.5,-1 2.5,-1"/>
<text text-anchor="start" x="10.5" y="-64" font-family="Helvetica,sans-Serif" font-size="10.00">pocketmine\event\level</text>
<text text-anchor="middle" x="61" y="-51" font-family="Helvetica,sans-Serif" font-size="10.00">\ChunkPopulateEvent</text>
<polyline fill="none" stroke="black" points="2.5,-43 119.5,-43 "/>
<text text-anchor="start" x="10.5" y="-30" font-family="Helvetica,sans-Serif" font-size="10.00">+ $handlerList</text>
<polyline fill="none" stroke="black" points="2.5,-22 119.5,-22 "/>
<text text-anchor="middle" x="61" y="-9" font-family="Helvetica,sans-Serif" font-size="10.00"> </text>
</g>
<!-- Node2 -->
<g id="node2" class="node"><title>Node2</title>
<a xlink:href="../../d1/dbc/classpocketmine_1_1event_1_1level_1_1_chunk_event.html" target="_top" xlink:title="{pocketmine\\event\\level\l\\ChunkEvent\n||+ __construct()\l+ getChunk()\l}">
<polygon fill="white" stroke="black" points="2.5,-114.5 2.5,-203.5 119.5,-203.5 119.5,-114.5 2.5,-114.5"/>
<text text-anchor="start" x="10.5" y="-190.5" font-family="Helvetica,sans-Serif" font-size="10.00">pocketmine\event\level</text>
<text text-anchor="middle" x="61" y="-177.5" font-family="Helvetica,sans-Serif" font-size="10.00">\ChunkEvent</text>
<polyline fill="none" stroke="black" points="2.5,-169.5 119.5,-169.5 "/>
<text text-anchor="middle" x="61" y="-156.5" font-family="Helvetica,sans-Serif" font-size="10.00"> </text>
<polyline fill="none" stroke="black" points="2.5,-148.5 119.5,-148.5 "/>
<text text-anchor="start" x="10.5" y="-135.5" font-family="Helvetica,sans-Serif" font-size="10.00">+ __construct()</text>
<text text-anchor="start" x="10.5" y="-122.5" font-family="Helvetica,sans-Serif" font-size="10.00">+ getChunk()</text>
</a>
</g>
<!-- Node2&#45;&gt;Node1 -->
<g id="edge2" class="edge"><title>Node2&#45;&gt;Node1</title>
<path fill="none" stroke="midnightblue" d="M61,-104.099C61,-94.9492 61,-85.6398 61,-77.0306"/>
<polygon fill="none" stroke="midnightblue" points="57.5001,-104.316 61,-114.316 64.5001,-104.316 57.5001,-104.316"/>
</g>
<!-- Node3 -->
<g id="node4" class="node"><title>Node3</title>
<a xlink:href="../../d5/dbb/classpocketmine_1_1event_1_1level_1_1_level_event.html" target="_top" xlink:title="{pocketmine\\event\\level\l\\LevelEvent\n||+ __construct()\l+ getLevel()\l}">
<polygon fill="white" stroke="black" points="2.5,-240.5 2.5,-329.5 119.5,-329.5 119.5,-240.5 2.5,-240.5"/>
<text text-anchor="start" x="10.5" y="-316.5" font-family="Helvetica,sans-Serif" font-size="10.00">pocketmine\event\level</text>
<text text-anchor="middle" x="61" y="-303.5" font-family="Helvetica,sans-Serif" font-size="10.00">\LevelEvent</text>
<polyline fill="none" stroke="black" points="2.5,-295.5 119.5,-295.5 "/>
<text text-anchor="middle" x="61" y="-282.5" font-family="Helvetica,sans-Serif" font-size="10.00"> </text>
<polyline fill="none" stroke="black" points="2.5,-274.5 119.5,-274.5 "/>
<text text-anchor="start" x="10.5" y="-261.5" font-family="Helvetica,sans-Serif" font-size="10.00">+ __construct()</text>
<text text-anchor="start" x="10.5" y="-248.5" font-family="Helvetica,sans-Serif" font-size="10.00">+ getLevel()</text>
</a>
</g>
<!-- Node3&#45;&gt;Node2 -->
<g id="edge4" class="edge"><title>Node3&#45;&gt;Node2</title>
<path fill="none" stroke="midnightblue" d="M61,-230.013C61,-221.198 61,-212.169 61,-203.633"/>
<polygon fill="none" stroke="midnightblue" points="57.5001,-230.222 61,-240.222 64.5001,-230.222 57.5001,-230.222"/>
</g>
<!-- Node4 -->
<g id="node6" class="node"><title>Node4</title>
<a xlink:href="../../d1/d2f/classpocketmine_1_1event_1_1_event.html" target="_top" xlink:title="{pocketmine\\event\\Event\n|# $eventName\l|+ getEventName()\l+ isCancelled()\l+ setCancelled()\l+ getHandlers()\l}">
<polygon fill="white" stroke="black" points="0,-367 0,-469 122,-469 122,-367 0,-367"/>
<text text-anchor="middle" x="61" y="-456" font-family="Helvetica,sans-Serif" font-size="10.00">pocketmine\event\Event</text>
<polyline fill="none" stroke="black" points="0,-448 122,-448 "/>
<text text-anchor="start" x="8" y="-435" font-family="Helvetica,sans-Serif" font-size="10.00"># $eventName</text>
<polyline fill="none" stroke="black" points="0,-427 122,-427 "/>
<text text-anchor="start" x="8" y="-414" font-family="Helvetica,sans-Serif" font-size="10.00">+ getEventName()</text>
<text text-anchor="start" x="8" y="-401" font-family="Helvetica,sans-Serif" font-size="10.00">+ isCancelled()</text>
<text text-anchor="start" x="8" y="-388" font-family="Helvetica,sans-Serif" font-size="10.00">+ setCancelled()</text>
<text text-anchor="start" x="8" y="-375" font-family="Helvetica,sans-Serif" font-size="10.00">+ getHandlers()</text>
</a>
</g>
<!-- Node4&#45;&gt;Node3 -->
<g id="edge6" class="edge"><title>Node4&#45;&gt;Node3</title>
<path fill="none" stroke="midnightblue" d="M61,-356.733C61,-347.593 61,-338.32 61,-329.611"/>
<polygon fill="none" stroke="midnightblue" points="57.5001,-356.959 61,-366.959 64.5001,-356.959 57.5001,-356.959"/>
</g>
</g>
</svg>
