<?xml version="1.0" encoding="UTF-8" standalone="no"?>
<!DOCTYPE svg PUBLIC "-//W3C//DTD SVG 1.1//EN"
 "http://www.w3.org/Graphics/SVG/1.1/DTD/svg11.dtd">
<!-- Generated by graphviz version 2.26.3 (20100126.1600)
 -->
<!-- Title: pocketmine\level\format\anvil\ChunkRequestTask Pages: 1 -->
<svg width="244pt" height="840pt"
 viewBox="0.00 0.00 244.00 840.00" xmlns="http://www.w3.org/2000/svg" xmlns:xlink="http://www.w3.org/1999/xlink">
<g id="graph1" class="graph" transform="scale(1 1) rotate(0) translate(4 836)">
<title>pocketmine\level\format\anvil\ChunkRequestTask</title>
<polygon fill="white" stroke="white" points="-4,5 -4,-836 241,-836 241,5 -4,5"/>
<!-- Node1 -->
<g id="node1" class="node"><title>Node1</title>
<polygon fill="#bfbfbf" stroke="black" points="51,-0.5 51,-219.5 181,-219.5 181,-0.5 51,-0.5"/>
<text text-anchor="start" x="59" y="-206.5" font-family="Helvetica,sans-Serif" font-size="10.00">pocketmine\level\format</text>
<text text-anchor="middle" x="116" y="-193.5" font-family="Helvetica,sans-Serif" font-size="10.00">\anvil\ChunkRequestTask</text>
<polyline fill="none" stroke="black" points="51,-185.5 181,-185.5 "/>
<text text-anchor="start" x="59" y="-172.5" font-family="Helvetica,sans-Serif" font-size="10.00"># $levelId</text>
<text text-anchor="start" x="59" y="-159.5" font-family="Helvetica,sans-Serif" font-size="10.00"># $chunkX</text>
<text text-anchor="start" x="59" y="-146.5" font-family="Helvetica,sans-Serif" font-size="10.00"># $chunkZ</text>
<text text-anchor="start" x="59" y="-133.5" font-family="Helvetica,sans-Serif" font-size="10.00"># $compressionLevel</text>
<text text-anchor="start" x="59" y="-120.5" font-family="Helvetica,sans-Serif" font-size="10.00"># $sections</text>
<text text-anchor="start" x="59" y="-107.5" font-family="Helvetica,sans-Serif" font-size="10.00"># $biomeIds</text>
<text text-anchor="start" x="59" y="-94.5" font-family="Helvetica,sans-Serif" font-size="10.00"># $biomeColors</text>
<text text-anchor="start" x="59" y="-81.5" font-family="Helvetica,sans-Serif" font-size="10.00"># $tiles</text>
<polyline fill="none" stroke="black" points="51,-73.5 181,-73.5 "/>
<text text-anchor="start" x="59" y="-60.5" font-family="Helvetica,sans-Serif" font-size="10.00">+ __construct()</text>
<text text-anchor="start" x="59" y="-47.5" font-family="Helvetica,sans-Serif" font-size="10.00">+ onRun()</text>
<text text-anchor="start" x="59" y="-34.5" font-family="Helvetica,sans-Serif" font-size="10.00">+ getColumn()</text>
<text text-anchor="start" x="59" y="-21.5" font-family="Helvetica,sans-Serif" font-size="10.00">+ getHalfColumn()</text>
<text text-anchor="start" x="59" y="-8.5" font-family="Helvetica,sans-Serif" font-size="10.00">+ onCompletion()</text>
</g>
<!-- Node2 -->
<g id="node2" class="node"><title>Node2</title>
<a xlink:href="../../df/dfa/classpocketmine_1_1scheduler_1_1_async_task.html" target="_top" xlink:title="{pocketmine\\scheduler\l\\AsyncTask\n|# $complete\l# $finished\l# $result\l# $taskId\l|+ run()\l+ isFinished()\l+ isCompleted()\l+ setCompleted()\l+ getResult()\l+ hasResult()\l+ setResult()\l+ setTaskId()\l+ getTaskId()\l+ onRun()\l+ onCompletion()\l}">
<polygon fill="white" stroke="black" points="60,-256.5 60,-501.5 172,-501.5 172,-256.5 60,-256.5"/>
<text text-anchor="start" x="68" y="-488.5" font-family="Helvetica,sans-Serif" font-size="10.00">pocketmine\scheduler</text>
<text text-anchor="middle" x="116" y="-475.5" font-family="Helvetica,sans-Serif" font-size="10.00">\AsyncTask</text>
<polyline fill="none" stroke="black" points="60,-467.5 172,-467.5 "/>
<text text-anchor="start" x="68" y="-454.5" font-family="Helvetica,sans-Serif" font-size="10.00"># $complete</text>
<text text-anchor="start" x="68" y="-441.5" font-family="Helvetica,sans-Serif" font-size="10.00"># $finished</text>
<text text-anchor="start" x="68" y="-428.5" font-family="Helvetica,sans-Serif" font-size="10.00"># $result</text>
<text text-anchor="start" x="68" y="-415.5" font-family="Helvetica,sans-Serif" font-size="10.00"># $taskId</text>
<polyline fill="none" stroke="black" points="60,-407.5 172,-407.5 "/>
<text text-anchor="start" x="68" y="-394.5" font-family="Helvetica,sans-Serif" font-size="10.00">+ run()</text>
<text text-anchor="start" x="68" y="-381.5" font-family="Helvetica,sans-Serif" font-size="10.00">+ isFinished()</text>
<text text-anchor="start" x="68" y="-368.5" font-family="Helvetica,sans-Serif" font-size="10.00">+ isCompleted()</text>
<text text-anchor="start" x="68" y="-355.5" font-family="Helvetica,sans-Serif" font-size="10.00">+ setCompleted()</text>
<text text-anchor="start" x="68" y="-342.5" font-family="Helvetica,sans-Serif" font-size="10.00">+ getResult()</text>
<text text-anchor="start" x="68" y="-329.5" font-family="Helvetica,sans-Serif" font-size="10.00">+ hasResult()</text>
<text text-anchor="start" x="68" y="-316.5" font-family="Helvetica,sans-Serif" font-size="10.00">+ setResult()</text>
<text text-anchor="start" x="68" y="-303.5" font-family="Helvetica,sans-Serif" font-size="10.00">+ setTaskId()</text>
<text text-anchor="start" x="68" y="-290.5" font-family="Helvetica,sans-Serif" font-size="10.00">+ getTaskId()</text>
<text text-anchor="start" x="68" y="-277.5" font-family="Helvetica,sans-Serif" font-size="10.00">+ onRun()</text>
<text text-anchor="start" x="68" y="-264.5" font-family="Helvetica,sans-Serif" font-size="10.00">+ onCompletion()</text>
</a>
</g>
<!-- Node2&#45;&gt;Node1 -->
<g id="edge2" class="edge"><title>Node2&#45;&gt;Node1</title>
<path fill="none" stroke="midnightblue" d="M116,-246.284C116,-237.395 116,-228.495 116,-219.74"/>
<polygon fill="none" stroke="midnightblue" points="112.5,-246.308 116,-256.308 119.5,-246.308 112.5,-246.308"/>
</g>
<!-- Node3 -->
<g id="node4" class="node"><title>Node3</title>
<a xlink:href="../../d0/d82/class_threaded.html" target="_top" xlink:title="{Threaded\n||+ chunk()\l+ count()\l+ getTerminationInfo()\l+ isRunning()\l+ isTerminated()\l+ isWaiting()\l+ lock()\l+ merge()\l+ notify()\l+ offsetGet()\land 9 more...\l}">
<polygon fill="white" stroke="black" points="59.5,-538.5 59.5,-731.5 172.5,-731.5 172.5,-538.5 59.5,-538.5"/>
<text text-anchor="middle" x="116" y="-718.5" font-family="Helvetica,sans-Serif" font-size="10.00">Threaded</text>
<polyline fill="none" stroke="black" points="59.5,-710.5 172.5,-710.5 "/>
<text text-anchor="middle" x="116" y="-697.5" font-family="Helvetica,sans-Serif" font-size="10.00"> </text>
<polyline fill="none" stroke="black" points="59.5,-689.5 172.5,-689.5 "/>
<text text-anchor="start" x="67.5" y="-676.5" font-family="Helvetica,sans-Serif" font-size="10.00">+ chunk()</text>
<text text-anchor="start" x="67.5" y="-663.5" font-family="Helvetica,sans-Serif" font-size="10.00">+ count()</text>
<text text-anchor="start" x="67.5" y="-650.5" font-family="Helvetica,sans-Serif" font-size="10.00">+ getTerminationInfo()</text>
<text text-anchor="start" x="67.5" y="-637.5" font-family="Helvetica,sans-Serif" font-size="10.00">+ isRunning()</text>
<text text-anchor="start" x="67.5" y="-624.5" font-family="Helvetica,sans-Serif" font-size="10.00">+ isTerminated()</text>
<text text-anchor="start" x="67.5" y="-611.5" font-family="Helvetica,sans-Serif" font-size="10.00">+ isWaiting()</text>
<text text-anchor="start" x="67.5" y="-598.5" font-family="Helvetica,sans-Serif" font-size="10.00">+ lock()</text>
<text text-anchor="start" x="67.5" y="-585.5" font-family="Helvetica,sans-Serif" font-size="10.00">+ merge()</text>
<text text-anchor="start" x="67.5" y="-572.5" font-family="Helvetica,sans-Serif" font-size="10.00">+ notify()</text>
<text text-anchor="start" x="67.5" y="-559.5" font-family="Helvetica,sans-Serif" font-size="10.00">+ offsetGet()</text>
<text text-anchor="start" x="67.5" y="-546.5" font-family="Helvetica,sans-Serif" font-size="10.00">and 9 more...</text>
</a>
</g>
<!-- Node3&#45;&gt;Node2 -->
<g id="edge4" class="edge"><title>Node3&#45;&gt;Node2</title>
<path fill="none" stroke="midnightblue" d="M116,-528.101C116,-519.423 116,-510.612 116,-501.833"/>
<polygon fill="none" stroke="midnightblue" points="112.5,-528.217 116,-538.217 119.5,-528.217 112.5,-528.217"/>
</g>
<!-- Node4 -->
<g id="node6" class="node"><title>Node4</title>
<polygon fill="white" stroke="#bfbfbf" points="0,-768.5 0,-831.5 68,-831.5 68,-768.5 0,-768.5"/>
<text text-anchor="middle" x="34" y="-818.5" font-family="Helvetica,sans-Serif" font-size="10.00">Traversable</text>
<polyline fill="none" stroke="#bfbfbf" points="0,-810.5 68,-810.5 "/>
<text text-anchor="middle" x="34" y="-797.5" font-family="Helvetica,sans-Serif" font-size="10.00"> </text>
<polyline fill="none" stroke="#bfbfbf" points="0,-789.5 68,-789.5 "/>
<text text-anchor="middle" x="34" y="-776.5" font-family="Helvetica,sans-Serif" font-size="10.00"> </text>
</g>
<!-- Node4&#45;&gt;Node3 -->
<g id="edge6" class="edge"><title>Node4&#45;&gt;Node3</title>
<path fill="none" stroke="midnightblue" d="M54.3964,-758.958C58.619,-750.462 63.2356,-741.172 67.9815,-731.623"/>
<polygon fill="none" stroke="midnightblue" points="51.1266,-757.674 49.8104,-768.186 57.3952,-760.789 51.1266,-757.674"/>
</g>
<!-- Node5 -->
<g id="node8" class="node"><title>Node5</title>
<polygon fill="white" stroke="#bfbfbf" points="85.5,-768.5 85.5,-831.5 146.5,-831.5 146.5,-768.5 85.5,-768.5"/>
<text text-anchor="middle" x="116" y="-818.5" font-family="Helvetica,sans-Serif" font-size="10.00">Countable</text>
<polyline fill="none" stroke="#bfbfbf" points="85.5,-810.5 146.5,-810.5 "/>
<text text-anchor="middle" x="116" y="-797.5" font-family="Helvetica,sans-Serif" font-size="10.00"> </text>
<polyline fill="none" stroke="#bfbfbf" points="85.5,-789.5 146.5,-789.5 "/>
<text text-anchor="middle" x="116" y="-776.5" font-family="Helvetica,sans-Serif" font-size="10.00"> </text>
</g>
<!-- Node5&#45;&gt;Node3 -->
<g id="edge8" class="edge"><title>Node5&#45;&gt;Node3</title>
<path fill="none" stroke="midnightblue" d="M116,-758.134C116,-749.862 116,-740.864 116,-731.623"/>
<polygon fill="none" stroke="midnightblue" points="112.5,-758.186 116,-768.186 119.5,-758.186 112.5,-758.186"/>
</g>
<!-- Node6 -->
<g id="node10" class="node"><title>Node6</title>
<polygon fill="white" stroke="#bfbfbf" points="163.5,-768.5 163.5,-831.5 236.5,-831.5 236.5,-768.5 163.5,-768.5"/>
<text text-anchor="middle" x="200" y="-818.5" font-family="Helvetica,sans-Serif" font-size="10.00">ArrayAccess</text>
<polyline fill="none" stroke="#bfbfbf" points="163.5,-810.5 236.5,-810.5 "/>
<text text-anchor="middle" x="200" y="-797.5" font-family="Helvetica,sans-Serif" font-size="10.00"> </text>
<polyline fill="none" stroke="#bfbfbf" points="163.5,-789.5 236.5,-789.5 "/>
<text text-anchor="middle" x="200" y="-776.5" font-family="Helvetica,sans-Serif" font-size="10.00"> </text>
</g>
<!-- Node6&#45;&gt;Node3 -->
<g id="edge10" class="edge"><title>Node6&#45;&gt;Node3</title>
<path fill="none" stroke="midnightblue" d="M179.246,-759.232C174.882,-750.661 170.104,-741.275 165.19,-731.623"/>
<polygon fill="none" stroke="midnightblue" points="176.148,-760.863 183.804,-768.186 182.386,-757.687 176.148,-760.863"/>
</g>
</g>
</svg>
