<?xml version="1.0" encoding="UTF-8" standalone="no"?>
<!DOCTYPE svg PUBLIC "-//W3C//DTD SVG 1.1//EN"
 "http://www.w3.org/Graphics/SVG/1.1/DTD/svg11.dtd">
<!-- Generated by graphviz version 2.26.3 (20100126.1600)
 -->
<!-- Title: ThreadedLoggerAttachment\removeAttachment Pages: 1 -->
<svg width="320pt" height="94pt"
 viewBox="0.00 0.00 320.00 94.00" xmlns="http://www.w3.org/2000/svg" xmlns:xlink="http://www.w3.org/1999/xlink">
<g id="graph1" class="graph" transform="scale(1 1) rotate(0) translate(4 90)">
<title>ThreadedLoggerAttachment\removeAttachment</title>
<polygon fill="white" stroke="white" points="-4,5 -4,-90 317,-90 317,5 -4,5"/>
<!-- Node1 -->
<g id="node1" class="node"><title>Node1</title>
<polygon fill="#bfbfbf" stroke="black" points="0.5,-26 0.5,-60 137.5,-60 137.5,-26 0.5,-26"/>
<text text-anchor="start" x="8.5" y="-47" font-family="Helvetica,sans-Serif" font-size="10.00">ThreadedLoggerAttachment</text>
<text text-anchor="middle" x="69" y="-34" font-family="Helvetica,sans-Serif" font-size="10.00">\removeAttachment</text>
</g>
<!-- Node2 -->
<g id="node3" class="node"><title>Node2</title>
<a xlink:href="../../d2/d6c/class_threaded_logger_attachment.html#a55e48c05a75c60c85513814af5834eca" target="_top" xlink:title="ThreadedLoggerAttachment\l\\addAttachment">
<polygon fill="white" stroke="black" points="174.5,-52 174.5,-86 311.5,-86 311.5,-52 174.5,-52"/>
<text text-anchor="start" x="182.5" y="-73" font-family="Helvetica,sans-Serif" font-size="10.00">ThreadedLoggerAttachment</text>
<text text-anchor="middle" x="243" y="-60" font-family="Helvetica,sans-Serif" font-size="10.00">\addAttachment</text>
</a>
</g>
<!-- Node1&#45;&gt;Node2 -->
<g id="edge2" class="edge"><title>Node1&#45;&gt;Node2</title>
<path fill="none" stroke="midnightblue" d="M137.769,-53.2759C146.535,-54.5856 155.558,-55.934 164.463,-57.2646"/>
<polygon fill="midnightblue" stroke="midnightblue" points="164.038,-60.7398 174.445,-58.7562 165.072,-53.8167 164.038,-60.7398"/>
</g>
<!-- Node3 -->
<g id="node5" class="node"><title>Node3</title>
<a xlink:href="../../d2/d6c/class_threaded_logger_attachment.html#aad59352d1678b055c5b45727175a6bec" target="_top" xlink:title="ThreadedLoggerAttachment\l\\getAttachments">
<polygon fill="white" stroke="black" points="174.5,-0 174.5,-34 311.5,-34 311.5,-0 174.5,-0"/>
<text text-anchor="start" x="182.5" y="-21" font-family="Helvetica,sans-Serif" font-size="10.00">ThreadedLoggerAttachment</text>
<text text-anchor="middle" x="243" y="-8" font-family="Helvetica,sans-Serif" font-size="10.00">\getAttachments</text>
</a>
</g>
<!-- Node1&#45;&gt;Node3 -->
<g id="edge4" class="edge"><title>Node1&#45;&gt;Node3</title>
<path fill="none" stroke="midnightblue" d="M137.769,-32.7241C146.535,-31.4144 155.558,-30.066 164.463,-28.7354"/>
<polygon fill="midnightblue" stroke="midnightblue" points="165.072,-32.1833 174.445,-27.2438 164.038,-25.2602 165.072,-32.1833"/>
</g>
</g>
</svg>
