<?xml version="1.0" encoding="UTF-8" standalone="no"?>
<!DOCTYPE svg PUBLIC "-//W3C//DTD SVG 1.1//EN"
 "http://www.w3.org/Graphics/SVG/1.1/DTD/svg11.dtd">
<!-- Generated by graphviz version 2.36.0 (20140111.2315)
 -->
<!-- Title: pocketmine\item\Armor Pages: 1 -->
<!--zoomable 574 -->
<svg id="main" version="1.1" xmlns="http://www.w3.org/2000/svg" xmlns:xlink="http://www.w3.org/1999/xlink" xml:space="preserve" onload="init(evt)">
<style type="text/css"><![CDATA[
.edge:hover path { stroke: red; }
.edge:hover polygon { stroke: red; fill: red; }
]]></style>
<script type="text/javascript"><![CDATA[
var edges = document.getElementsByTagName('g');
if (edges && edges.length) {
  for (var i=0;i<edges.length;i++) {
    if (edges[i].id.substr(0,4)=='edge') {
      edges[i].setAttribute('class','edge');
    }
  }
}
]]></script>
        <defs>
                <circle id="rim" cx="0" cy="0" r="7"/>
                <circle id="rim2" cx="0" cy="0" r="3.5"/>
                <g id="zoomPlus">
                        <use xlink:href="#rim" fill="#404040">
                                <set attributeName="fill" to="#808080" begin="zoomplus.mouseover" end="zoomplus.mouseout"/>
                        </use>
                        <path d="M-4,0h8M0,-4v8" fill="none" stroke="white" stroke-width="1.5" pointer-events="none"/>
                </g>
                <g id="zoomMin">
                        <use xlink:href="#rim" fill="#404040">
                                <set attributeName="fill" to="#808080" begin="zoomminus.mouseover" end="zoomminus.mouseout"/>
                        </use>
                        <path d="M-4,0h8" fill="none" stroke="white" stroke-width="1.5" pointer-events="none"/>
                </g>
                <g id="dirArrow">
                        <path fill="none" stroke="white" stroke-width="1.5" d="M0,-3.0v7 M-2.5,-0.5L0,-3.0L2.5,-0.5"/>
                </g>
               <g id="resetDef">
                       <use xlink:href="#rim2" fill="#404040">
                               <set attributeName="fill" to="#808080" begin="reset.mouseover" end="reset.mouseout"/>
                       </use>
               </g>
        </defs>

<script type="text/javascript">
var viewWidth = 3677;
var viewHeight = 574;
var sectionId = 'dynsection-0';
</script>
<script xlink:href="../../svgpan.js"/>
<svg id="graph" class="graph">
<g id="viewport">
<title>pocketmine\item\Armor</title>
<polygon fill="white" stroke="none" points="-4,4 -4,-570 3673,-570 3673,4 -4,4"/>
<!-- Node1 -->
<g id="node1" class="node"><title>Node1</title>
<polygon fill="#bfbfbf" stroke="black" points="1826.5,-94.5 1826.5,-151.5 1957.5,-151.5 1957.5,-94.5 1826.5,-94.5"/>
<text text-anchor="middle" x="1892" y="-139.5" font-family="Helvetica,sans-Serif" font-size="10.00">pocketmine\item\Armor</text>
<polyline fill="none" stroke="black" points="1826.5,-132.5 1957.5,-132.5 "/>
<text text-anchor="middle" x="1892" y="-120.5" font-family="Helvetica,sans-Serif" font-size="10.00"> </text>
<polyline fill="none" stroke="black" points="1826.5,-113.5 1957.5,-113.5 "/>
<text text-anchor="start" x="1834.5" y="-101.5" font-family="Helvetica,sans-Serif" font-size="10.00">+ getMaxStackSize()</text>
</g>
<!-- Node3 -->
<g id="node3" class="node"><title>Node3</title>
<g id="a_node3"><a xlink:href="../../dc/d65/classpocketmine_1_1item_1_1_chain_boots.html" target="_top" xlink:title="{pocketmine\\item\\ChainBoots\n||+ __construct()\l}">
<polygon fill="white" stroke="black" points="-0.5,-0.5 -0.5,-57.5 154.5,-57.5 154.5,-0.5 -0.5,-0.5"/>
<text text-anchor="middle" x="77" y="-45.5" font-family="Helvetica,sans-Serif" font-size="10.00">pocketmine\item\ChainBoots</text>
<polyline fill="none" stroke="black" points="-0.5,-38.5 154.5,-38.5 "/>
<text text-anchor="middle" x="77" y="-26.5" font-family="Helvetica,sans-Serif" font-size="10.00"> </text>
<polyline fill="none" stroke="black" points="-0.5,-19.5 154.5,-19.5 "/>
<text text-anchor="start" x="7.5" y="-7.5" font-family="Helvetica,sans-Serif" font-size="10.00">+ __construct()</text>
</a>
</g>
</g>
<!-- Node1&#45;&gt;Node3 -->
<g id="edge2" class="edge"><title>Node1&#45;&gt;Node3</title>
<path fill="none" stroke="midnightblue" d="M1816.03,-121.985C1525.85,-121.495 487.453,-115.66 163,-58 160.217,-57.5055 157.401,-56.942 154.569,-56.3219"/>
<polygon fill="none" stroke="midnightblue" points="1816.44,-125.486 1826.44,-122.001 1816.45,-118.486 1816.44,-125.486"/>
</g>
<!-- Node4 -->
<g id="node4" class="node"><title>Node4</title>
<g id="a_node4"><a xlink:href="../../db/d13/classpocketmine_1_1item_1_1_chain_chestplate.html" target="_top" xlink:title="{pocketmine\\item\\ChainChestplate\n||+ __construct()\l}">
<polygon fill="white" stroke="black" points="172.5,-0.5 172.5,-57.5 351.5,-57.5 351.5,-0.5 172.5,-0.5"/>
<text text-anchor="middle" x="262" y="-45.5" font-family="Helvetica,sans-Serif" font-size="10.00">pocketmine\item\ChainChestplate</text>
<polyline fill="none" stroke="black" points="172.5,-38.5 351.5,-38.5 "/>
<text text-anchor="middle" x="262" y="-26.5" font-family="Helvetica,sans-Serif" font-size="10.00"> </text>
<polyline fill="none" stroke="black" points="172.5,-19.5 351.5,-19.5 "/>
<text text-anchor="start" x="180.5" y="-7.5" font-family="Helvetica,sans-Serif" font-size="10.00">+ __construct()</text>
</a>
</g>
</g>
<!-- Node1&#45;&gt;Node4 -->
<g id="edge3" class="edge"><title>Node1&#45;&gt;Node4</title>
<path fill="none" stroke="midnightblue" d="M1816.33,-121.205C1548.35,-118.019 645.251,-104.041 360,-58 357.205,-57.5489 354.377,-57.0448 351.53,-56.4961"/>
<polygon fill="none" stroke="midnightblue" points="1816.31,-124.705 1826.35,-121.322 1816.39,-117.705 1816.31,-124.705"/>
</g>
<!-- Node5 -->
<g id="node5" class="node"><title>Node5</title>
<g id="a_node5"><a xlink:href="../../d3/dfd/classpocketmine_1_1item_1_1_chain_helmet.html" target="_top" xlink:title="{pocketmine\\item\\ChainHelmet\n||+ __construct()\l}">
<polygon fill="white" stroke="black" points="369.5,-0.5 369.5,-57.5 532.5,-57.5 532.5,-0.5 369.5,-0.5"/>
<text text-anchor="middle" x="451" y="-45.5" font-family="Helvetica,sans-Serif" font-size="10.00">pocketmine\item\ChainHelmet</text>
<polyline fill="none" stroke="black" points="369.5,-38.5 532.5,-38.5 "/>
<text text-anchor="middle" x="451" y="-26.5" font-family="Helvetica,sans-Serif" font-size="10.00"> </text>
<polyline fill="none" stroke="black" points="369.5,-19.5 532.5,-19.5 "/>
<text text-anchor="start" x="377.5" y="-7.5" font-family="Helvetica,sans-Serif" font-size="10.00">+ __construct()</text>
</a>
</g>
</g>
<!-- Node1&#45;&gt;Node5 -->
<g id="edge4" class="edge"><title>Node1&#45;&gt;Node5</title>
<path fill="none" stroke="midnightblue" d="M1815.91,-120.902C1568.68,-116.942 789.661,-101.262 542,-58 538.906,-57.4596 535.77,-56.8451 532.616,-56.1706"/>
<polygon fill="none" stroke="midnightblue" points="1816.18,-124.407 1826.23,-121.066 1816.29,-117.408 1816.18,-124.407"/>
</g>
<!-- Node6 -->
<g id="node6" class="node"><title>Node6</title>
<g id="a_node6"><a xlink:href="../../d0/dd4/classpocketmine_1_1item_1_1_chain_leggings.html" target="_top" xlink:title="{pocketmine\\item\\ChainLeggings\n||+ __construct()\l}">
<polygon fill="white" stroke="black" points="551,-0.5 551,-57.5 721,-57.5 721,-0.5 551,-0.5"/>
<text text-anchor="middle" x="636" y="-45.5" font-family="Helvetica,sans-Serif" font-size="10.00">pocketmine\item\ChainLeggings</text>
<polyline fill="none" stroke="black" points="551,-38.5 721,-38.5 "/>
<text text-anchor="middle" x="636" y="-26.5" font-family="Helvetica,sans-Serif" font-size="10.00"> </text>
<polyline fill="none" stroke="black" points="551,-19.5 721,-19.5 "/>
<text text-anchor="start" x="559" y="-7.5" font-family="Helvetica,sans-Serif" font-size="10.00">+ __construct()</text>
</a>
</g>
</g>
<!-- Node1&#45;&gt;Node6 -->
<g id="edge5" class="edge"><title>Node1&#45;&gt;Node6</title>
<path fill="none" stroke="midnightblue" d="M1816.06,-120.141C1592.61,-114.304 939.902,-94.5203 730,-58 727.064,-57.4892 724.091,-56.9174 721.098,-56.2953"/>
<polygon fill="none" stroke="midnightblue" points="1816.29,-123.648 1826.38,-120.409 1816.47,-116.651 1816.29,-123.648"/>
</g>
<!-- Node7 -->
<g id="node7" class="node"><title>Node7</title>
<g id="a_node7"><a xlink:href="../../dc/d4f/classpocketmine_1_1item_1_1_diamond_boots.html" target="_top" xlink:title="{pocketmine\\item\\DiamondBoots\n||+ __construct()\l}">
<polygon fill="white" stroke="black" points="739,-0.5 739,-57.5 911,-57.5 911,-0.5 739,-0.5"/>
<text text-anchor="middle" x="825" y="-45.5" font-family="Helvetica,sans-Serif" font-size="10.00">pocketmine\item\DiamondBoots</text>
<polyline fill="none" stroke="black" points="739,-38.5 911,-38.5 "/>
<text text-anchor="middle" x="825" y="-26.5" font-family="Helvetica,sans-Serif" font-size="10.00"> </text>
<polyline fill="none" stroke="black" points="739,-19.5 911,-19.5 "/>
<text text-anchor="start" x="747" y="-7.5" font-family="Helvetica,sans-Serif" font-size="10.00">+ __construct()</text>
</a>
</g>
</g>
<!-- Node1&#45;&gt;Node7 -->
<g id="edge6" class="edge"><title>Node1&#45;&gt;Node7</title>
<path fill="none" stroke="midnightblue" d="M1816.25,-122.67C1651.75,-122.893 1250.04,-116.757 920,-58 917.038,-57.4726 914.036,-56.8864 911.015,-56.2521"/>
<polygon fill="none" stroke="midnightblue" points="1816.28,-126.17 1826.27,-122.648 1816.26,-119.17 1816.28,-126.17"/>
</g>
<!-- Node8 -->
<g id="node8" class="node"><title>Node8</title>
<g id="a_node8"><a xlink:href="../../d9/d62/classpocketmine_1_1item_1_1_diamond_chestplate.html" target="_top" xlink:title="{pocketmine\\item\\DiamondChestplate\n||+ __construct()\l}">
<polygon fill="white" stroke="black" points="929,-0.5 929,-57.5 1125,-57.5 1125,-0.5 929,-0.5"/>
<text text-anchor="middle" x="1027" y="-45.5" font-family="Helvetica,sans-Serif" font-size="10.00">pocketmine\item\DiamondChestplate</text>
<polyline fill="none" stroke="black" points="929,-38.5 1125,-38.5 "/>
<text text-anchor="middle" x="1027" y="-26.5" font-family="Helvetica,sans-Serif" font-size="10.00"> </text>
<polyline fill="none" stroke="black" points="929,-19.5 1125,-19.5 "/>
<text text-anchor="start" x="937" y="-7.5" font-family="Helvetica,sans-Serif" font-size="10.00">+ __construct()</text>
</a>
</g>
</g>
<!-- Node1&#45;&gt;Node8 -->
<g id="edge7" class="edge"><title>Node1&#45;&gt;Node8</title>
<path fill="none" stroke="midnightblue" d="M1815.99,-119.896C1678.83,-115.143 1381.21,-100.457 1134,-58 1131.07,-57.4962 1128.1,-56.9508 1125.1,-56.3706"/>
<polygon fill="none" stroke="midnightblue" points="1816.26,-123.407 1826.38,-120.247 1816.5,-116.411 1816.26,-123.407"/>
</g>
<!-- Node9 -->
<g id="node9" class="node"><title>Node9</title>
<g id="a_node9"><a xlink:href="../../d9/da1/classpocketmine_1_1item_1_1_diamond_helmet.html" target="_top" xlink:title="{pocketmine\\item\\DiamondHelmet\n||+ __construct()\l}">
<polygon fill="white" stroke="black" points="1143.5,-0.5 1143.5,-57.5 1322.5,-57.5 1322.5,-0.5 1143.5,-0.5"/>
<text text-anchor="middle" x="1233" y="-45.5" font-family="Helvetica,sans-Serif" font-size="10.00">pocketmine\item\DiamondHelmet</text>
<polyline fill="none" stroke="black" points="1143.5,-38.5 1322.5,-38.5 "/>
<text text-anchor="middle" x="1233" y="-26.5" font-family="Helvetica,sans-Serif" font-size="10.00"> </text>
<polyline fill="none" stroke="black" points="1143.5,-19.5 1322.5,-19.5 "/>
<text text-anchor="start" x="1151.5" y="-7.5" font-family="Helvetica,sans-Serif" font-size="10.00">+ __construct()</text>
</a>
</g>
</g>
<!-- Node1&#45;&gt;Node9 -->
<g id="edge8" class="edge"><title>Node1&#45;&gt;Node9</title>
<path fill="none" stroke="midnightblue" d="M1816.06,-117.321C1707.65,-109.741 1502.62,-92.0659 1331,-58 1328.22,-57.4488 1325.41,-56.8571 1322.58,-56.2322"/>
<polygon fill="none" stroke="midnightblue" points="1816.03,-120.827 1826.25,-118.023 1816.51,-113.843 1816.03,-120.827"/>
</g>
<!-- Node10 -->
<g id="node10" class="node"><title>Node10</title>
<g id="a_node10"><a xlink:href="../../d8/d7c/classpocketmine_1_1item_1_1_diamond_leggings.html" target="_top" xlink:title="{pocketmine\\item\\DiamondLeggings\n||+ __construct()\l}">
<polygon fill="white" stroke="black" points="1340.5,-0.5 1340.5,-57.5 1527.5,-57.5 1527.5,-0.5 1340.5,-0.5"/>
<text text-anchor="middle" x="1434" y="-45.5" font-family="Helvetica,sans-Serif" font-size="10.00">pocketmine\item\DiamondLeggings</text>
<polyline fill="none" stroke="black" points="1340.5,-38.5 1527.5,-38.5 "/>
<text text-anchor="middle" x="1434" y="-26.5" font-family="Helvetica,sans-Serif" font-size="10.00"> </text>
<polyline fill="none" stroke="black" points="1340.5,-19.5 1527.5,-19.5 "/>
<text text-anchor="start" x="1348.5" y="-7.5" font-family="Helvetica,sans-Serif" font-size="10.00">+ __construct()</text>
</a>
</g>
</g>
<!-- Node1&#45;&gt;Node10 -->
<g id="edge9" class="edge"><title>Node1&#45;&gt;Node10</title>
<path fill="none" stroke="midnightblue" d="M1816.42,-110.438C1744.08,-98.8959 1632.07,-79.7757 1536,-58 1533.22,-57.3708 1530.41,-56.7152 1527.57,-56.0386"/>
<polygon fill="none" stroke="midnightblue" points="1815.93,-113.905 1826.36,-112.016 1817.03,-106.991 1815.93,-113.905"/>
</g>
<!-- Node11 -->
<g id="node11" class="node"><title>Node11</title>
<g id="a_node11"><a xlink:href="../../dc/da8/classpocketmine_1_1item_1_1_gold_boots.html" target="_top" xlink:title="{pocketmine\\item\\GoldBoots\n||+ __construct()\l}">
<polygon fill="white" stroke="black" points="1545,-0.5 1545,-57.5 1695,-57.5 1695,-0.5 1545,-0.5"/>
<text text-anchor="middle" x="1620" y="-45.5" font-family="Helvetica,sans-Serif" font-size="10.00">pocketmine\item\GoldBoots</text>
<polyline fill="none" stroke="black" points="1545,-38.5 1695,-38.5 "/>
<text text-anchor="middle" x="1620" y="-26.5" font-family="Helvetica,sans-Serif" font-size="10.00"> </text>
<polyline fill="none" stroke="black" points="1545,-19.5 1695,-19.5 "/>
<text text-anchor="start" x="1553" y="-7.5" font-family="Helvetica,sans-Serif" font-size="10.00">+ __construct()</text>
</a>
</g>
</g>
<!-- Node1&#45;&gt;Node11 -->
<g id="edge10" class="edge"><title>Node1&#45;&gt;Node11</title>
<path fill="none" stroke="midnightblue" d="M1816.24,-96.3742C1778.5,-83.6104 1733.01,-68.2239 1695.33,-55.4802"/>
<polygon fill="none" stroke="midnightblue" points="1815.56,-99.8407 1826.16,-99.7294 1817.81,-93.2098 1815.56,-99.8407"/>
</g>
<!-- Node12 -->
<g id="node12" class="node"><title>Node12</title>
<g id="a_node12"><a xlink:href="../../d8/dd3/classpocketmine_1_1item_1_1_gold_chestplate.html" target="_top" xlink:title="{pocketmine\\item\\GoldChestplate\n||+ __construct()\l}">
<polygon fill="white" stroke="black" points="1713,-0.5 1713,-57.5 1887,-57.5 1887,-0.5 1713,-0.5"/>
<text text-anchor="middle" x="1800" y="-45.5" font-family="Helvetica,sans-Serif" font-size="10.00">pocketmine\item\GoldChestplate</text>
<polyline fill="none" stroke="black" points="1713,-38.5 1887,-38.5 "/>
<text text-anchor="middle" x="1800" y="-26.5" font-family="Helvetica,sans-Serif" font-size="10.00"> </text>
<polyline fill="none" stroke="black" points="1713,-19.5 1887,-19.5 "/>
<text text-anchor="start" x="1721" y="-7.5" font-family="Helvetica,sans-Serif" font-size="10.00">+ __construct()</text>
</a>
</g>
</g>
<!-- Node1&#45;&gt;Node12 -->
<g id="edge11" class="edge"><title>Node1&#45;&gt;Node12</title>
<path fill="none" stroke="midnightblue" d="M1857.1,-87.0998C1847.34,-77.3352 1836.86,-66.8608 1827.58,-57.5836"/>
<polygon fill="none" stroke="midnightblue" points="1854.85,-89.8008 1864.4,-94.397 1859.8,-84.851 1854.85,-89.8008"/>
</g>
<!-- Node13 -->
<g id="node13" class="node"><title>Node13</title>
<g id="a_node13"><a xlink:href="../../d5/d3a/classpocketmine_1_1item_1_1_gold_helmet.html" target="_top" xlink:title="{pocketmine\\item\\GoldHelmet\n||+ __construct()\l}">
<polygon fill="white" stroke="black" points="1905,-0.5 1905,-57.5 2063,-57.5 2063,-0.5 1905,-0.5"/>
<text text-anchor="middle" x="1984" y="-45.5" font-family="Helvetica,sans-Serif" font-size="10.00">pocketmine\item\GoldHelmet</text>
<polyline fill="none" stroke="black" points="1905,-38.5 2063,-38.5 "/>
<text text-anchor="middle" x="1984" y="-26.5" font-family="Helvetica,sans-Serif" font-size="10.00"> </text>
<polyline fill="none" stroke="black" points="1905,-19.5 2063,-19.5 "/>
<text text-anchor="start" x="1913" y="-7.5" font-family="Helvetica,sans-Serif" font-size="10.00">+ __construct()</text>
</a>
</g>
</g>
<!-- Node1&#45;&gt;Node13 -->
<g id="edge12" class="edge"><title>Node1&#45;&gt;Node13</title>
<path fill="none" stroke="midnightblue" d="M1926.9,-87.0998C1936.66,-77.3352 1947.14,-66.8608 1956.42,-57.5836"/>
<polygon fill="none" stroke="midnightblue" points="1924.2,-84.851 1919.6,-94.397 1929.15,-89.8008 1924.2,-84.851"/>
</g>
<!-- Node14 -->
<g id="node14" class="node"><title>Node14</title>
<g id="a_node14"><a xlink:href="../../dc/d08/classpocketmine_1_1item_1_1_gold_leggings.html" target="_top" xlink:title="{pocketmine\\item\\GoldLeggings\n||+ __construct()\l}">
<polygon fill="white" stroke="black" points="2081.5,-0.5 2081.5,-57.5 2246.5,-57.5 2246.5,-0.5 2081.5,-0.5"/>
<text text-anchor="middle" x="2164" y="-45.5" font-family="Helvetica,sans-Serif" font-size="10.00">pocketmine\item\GoldLeggings</text>
<polyline fill="none" stroke="black" points="2081.5,-38.5 2246.5,-38.5 "/>
<text text-anchor="middle" x="2164" y="-26.5" font-family="Helvetica,sans-Serif" font-size="10.00"> </text>
<polyline fill="none" stroke="black" points="2081.5,-19.5 2246.5,-19.5 "/>
<text text-anchor="start" x="2089.5" y="-7.5" font-family="Helvetica,sans-Serif" font-size="10.00">+ __construct()</text>
</a>
</g>
</g>
<!-- Node1&#45;&gt;Node14 -->
<g id="edge13" class="edge"><title>Node1&#45;&gt;Node14</title>
<path fill="none" stroke="midnightblue" d="M1967.72,-96.3898C2003.42,-84.3153 2046.06,-69.8909 2082.47,-57.5767"/>
<polygon fill="none" stroke="midnightblue" points="1966.19,-93.2098 1957.84,-99.7294 1968.44,-99.8407 1966.19,-93.2098"/>
</g>
<!-- Node15 -->
<g id="node15" class="node"><title>Node15</title>
<g id="a_node15"><a xlink:href="../../d5/d1d/classpocketmine_1_1item_1_1_iron_boots.html" target="_top" xlink:title="{pocketmine\\item\\IronBoots\n||+ __construct()\l}">
<polygon fill="white" stroke="black" points="2265,-0.5 2265,-57.5 2411,-57.5 2411,-0.5 2265,-0.5"/>
<text text-anchor="middle" x="2338" y="-45.5" font-family="Helvetica,sans-Serif" font-size="10.00">pocketmine\item\IronBoots</text>
<polyline fill="none" stroke="black" points="2265,-38.5 2411,-38.5 "/>
<text text-anchor="middle" x="2338" y="-26.5" font-family="Helvetica,sans-Serif" font-size="10.00"> </text>
<polyline fill="none" stroke="black" points="2265,-19.5 2411,-19.5 "/>
<text text-anchor="start" x="2273" y="-7.5" font-family="Helvetica,sans-Serif" font-size="10.00">+ __construct()</text>
</a>
</g>
</g>
<!-- Node1&#45;&gt;Node15 -->
<g id="edge14" class="edge"><title>Node1&#45;&gt;Node15</title>
<path fill="none" stroke="midnightblue" d="M1967.7,-112.052C2041.62,-101.541 2156.99,-83.019 2255,-58 2258.24,-57.1725 2261.54,-56.2804 2264.86,-55.341"/>
<polygon fill="none" stroke="midnightblue" points="1966.96,-108.621 1957.55,-113.481 1967.94,-115.552 1966.96,-108.621"/>
</g>
<!-- Node16 -->
<g id="node16" class="node"><title>Node16</title>
<g id="a_node16"><a xlink:href="../../db/df9/classpocketmine_1_1item_1_1_iron_chestplate.html" target="_top" xlink:title="{pocketmine\\item\\IronChestplate\n||+ __construct()\l}">
<polygon fill="white" stroke="black" points="2429,-0.5 2429,-57.5 2599,-57.5 2599,-0.5 2429,-0.5"/>
<text text-anchor="middle" x="2514" y="-45.5" font-family="Helvetica,sans-Serif" font-size="10.00">pocketmine\item\IronChestplate</text>
<polyline fill="none" stroke="black" points="2429,-38.5 2599,-38.5 "/>
<text text-anchor="middle" x="2514" y="-26.5" font-family="Helvetica,sans-Serif" font-size="10.00"> </text>
<polyline fill="none" stroke="black" points="2429,-19.5 2599,-19.5 "/>
<text text-anchor="start" x="2437" y="-7.5" font-family="Helvetica,sans-Serif" font-size="10.00">+ __construct()</text>
</a>
</g>
</g>
<!-- Node1&#45;&gt;Node16 -->
<g id="edge15" class="edge"><title>Node1&#45;&gt;Node16</title>
<path fill="none" stroke="midnightblue" d="M1967.61,-116.87C2070.7,-108.96 2260.77,-91.118 2420,-58 2422.92,-57.3932 2425.88,-56.7385 2428.85,-56.0453"/>
<polygon fill="none" stroke="midnightblue" points="1967.31,-113.382 1957.6,-117.627 1967.84,-120.362 1967.31,-113.382"/>
</g>
<!-- Node17 -->
<g id="node17" class="node"><title>Node17</title>
<g id="a_node17"><a xlink:href="../../d8/d32/classpocketmine_1_1item_1_1_iron_helmet.html" target="_top" xlink:title="{pocketmine\\item\\IronHelmet\n||+ __construct()\l}">
<polygon fill="white" stroke="black" points="2617,-0.5 2617,-57.5 2771,-57.5 2771,-0.5 2617,-0.5"/>
<text text-anchor="middle" x="2694" y="-45.5" font-family="Helvetica,sans-Serif" font-size="10.00">pocketmine\item\IronHelmet</text>
<polyline fill="none" stroke="black" points="2617,-38.5 2771,-38.5 "/>
<text text-anchor="middle" x="2694" y="-26.5" font-family="Helvetica,sans-Serif" font-size="10.00"> </text>
<polyline fill="none" stroke="black" points="2617,-19.5 2771,-19.5 "/>
<text text-anchor="start" x="2625" y="-7.5" font-family="Helvetica,sans-Serif" font-size="10.00">+ __construct()</text>
</a>
</g>
</g>
<!-- Node1&#45;&gt;Node17 -->
<g id="edge16" class="edge"><title>Node1&#45;&gt;Node17</title>
<path fill="none" stroke="midnightblue" d="M1968.25,-120.809C2100.01,-117.506 2378.25,-105.04 2608,-58 2610.92,-57.4016 2613.89,-56.7378 2616.87,-56.0215"/>
<polygon fill="none" stroke="midnightblue" points="1967.79,-117.319 1957.87,-121.058 1967.95,-124.317 1967.79,-117.319"/>
</g>
<!-- Node18 -->
<g id="node18" class="node"><title>Node18</title>
<g id="a_node18"><a xlink:href="../../db/db2/classpocketmine_1_1item_1_1_iron_leggings.html" target="_top" xlink:title="{pocketmine\\item\\IronLeggings\n||+ __construct()\l}">
<polygon fill="white" stroke="black" points="2789.5,-0.5 2789.5,-57.5 2950.5,-57.5 2950.5,-0.5 2789.5,-0.5"/>
<text text-anchor="middle" x="2870" y="-45.5" font-family="Helvetica,sans-Serif" font-size="10.00">pocketmine\item\IronLeggings</text>
<polyline fill="none" stroke="black" points="2789.5,-38.5 2950.5,-38.5 "/>
<text text-anchor="middle" x="2870" y="-26.5" font-family="Helvetica,sans-Serif" font-size="10.00"> </text>
<polyline fill="none" stroke="black" points="2789.5,-19.5 2950.5,-19.5 "/>
<text text-anchor="start" x="2797.5" y="-7.5" font-family="Helvetica,sans-Serif" font-size="10.00">+ __construct()</text>
</a>
</g>
</g>
<!-- Node1&#45;&gt;Node18 -->
<g id="edge17" class="edge"><title>Node1&#45;&gt;Node18</title>
<path fill="none" stroke="midnightblue" d="M1967.87,-122.367C2122.2,-121.838 2483.25,-114.081 2780,-58 2783.06,-57.4226 2786.15,-56.7767 2789.27,-56.0757"/>
<polygon fill="none" stroke="midnightblue" points="1967.55,-118.868 1957.56,-122.393 1967.57,-125.868 1967.55,-118.868"/>
</g>
<!-- Node19 -->
<g id="node19" class="node"><title>Node19</title>
<g id="a_node19"><a xlink:href="../../d3/d3f/classpocketmine_1_1item_1_1_leather_boots.html" target="_top" xlink:title="{pocketmine\\item\\LeatherBoots\n||+ __construct()\l}">
<polygon fill="white" stroke="black" points="2968.5,-0.5 2968.5,-57.5 3133.5,-57.5 3133.5,-0.5 2968.5,-0.5"/>
<text text-anchor="middle" x="3051" y="-45.5" font-family="Helvetica,sans-Serif" font-size="10.00">pocketmine\item\LeatherBoots</text>
<polyline fill="none" stroke="black" points="2968.5,-38.5 3133.5,-38.5 "/>
<text text-anchor="middle" x="3051" y="-26.5" font-family="Helvetica,sans-Serif" font-size="10.00"> </text>
<polyline fill="none" stroke="black" points="2968.5,-19.5 3133.5,-19.5 "/>
<text text-anchor="start" x="2976.5" y="-7.5" font-family="Helvetica,sans-Serif" font-size="10.00">+ __construct()</text>
</a>
</g>
</g>
<!-- Node1&#45;&gt;Node19 -->
<g id="edge18" class="edge"><title>Node1&#45;&gt;Node19</title>
<path fill="none" stroke="midnightblue" d="M1967.9,-119.77C2178.7,-113.208 2768.28,-92.2471 2959,-58 2962.12,-57.4393 2965.29,-56.8077 2968.47,-56.1186"/>
<polygon fill="none" stroke="midnightblue" points="1967.74,-116.274 1957.85,-120.081 1967.96,-123.27 1967.74,-116.274"/>
</g>
<!-- Node20 -->
<g id="node20" class="node"><title>Node20</title>
<g id="a_node20"><a xlink:href="../../d8/d05/classpocketmine_1_1item_1_1_leather_cap.html" target="_top" xlink:title="{pocketmine\\item\\LeatherCap\n||+ __construct()\l}">
<polygon fill="white" stroke="black" points="3152,-0.5 3152,-57.5 3308,-57.5 3308,-0.5 3152,-0.5"/>
<text text-anchor="middle" x="3230" y="-45.5" font-family="Helvetica,sans-Serif" font-size="10.00">pocketmine\item\LeatherCap</text>
<polyline fill="none" stroke="black" points="3152,-38.5 3308,-38.5 "/>
<text text-anchor="middle" x="3230" y="-26.5" font-family="Helvetica,sans-Serif" font-size="10.00"> </text>
<polyline fill="none" stroke="black" points="3152,-19.5 3308,-19.5 "/>
<text text-anchor="start" x="3160" y="-7.5" font-family="Helvetica,sans-Serif" font-size="10.00">+ __construct()</text>
</a>
</g>
</g>
<!-- Node1&#45;&gt;Node20 -->
<g id="edge19" class="edge"><title>Node1&#45;&gt;Node20</title>
<path fill="none" stroke="midnightblue" d="M1968.04,-120.663C2202.91,-116.129 2914.74,-99.2617 3142,-58 3145.15,-57.4272 3148.35,-56.773 3151.57,-56.0536"/>
<polygon fill="none" stroke="midnightblue" points="1967.81,-117.166 1957.88,-120.857 1967.94,-124.165 1967.81,-117.166"/>
</g>
<!-- Node21 -->
<g id="node21" class="node"><title>Node21</title>
<g id="a_node21"><a xlink:href="../../dd/dd4/classpocketmine_1_1item_1_1_leather_pants.html" target="_top" xlink:title="{pocketmine\\item\\LeatherPants\n||+ __construct()\l}">
<polygon fill="white" stroke="black" points="3326,-0.5 3326,-57.5 3490,-57.5 3490,-0.5 3326,-0.5"/>
<text text-anchor="middle" x="3408" y="-45.5" font-family="Helvetica,sans-Serif" font-size="10.00">pocketmine\item\LeatherPants</text>
<polyline fill="none" stroke="black" points="3326,-38.5 3490,-38.5 "/>
<text text-anchor="middle" x="3408" y="-26.5" font-family="Helvetica,sans-Serif" font-size="10.00"> </text>
<polyline fill="none" stroke="black" points="3326,-19.5 3490,-19.5 "/>
<text text-anchor="start" x="3334" y="-7.5" font-family="Helvetica,sans-Serif" font-size="10.00">+ __construct()</text>
</a>
</g>
</g>
<!-- Node1&#45;&gt;Node21 -->
<g id="edge20" class="edge"><title>Node1&#45;&gt;Node21</title>
<path fill="none" stroke="midnightblue" d="M1967.92,-121.125C2223.93,-117.778 3054.07,-103.591 3317,-58 3319.93,-57.4917 3322.9,-56.9164 3325.89,-56.2861"/>
<polygon fill="none" stroke="midnightblue" points="1967.57,-117.629 1957.61,-121.258 1967.66,-124.629 1967.57,-117.629"/>
</g>
<!-- Node22 -->
<g id="node22" class="node"><title>Node22</title>
<g id="a_node22"><a xlink:href="../../da/dbe/classpocketmine_1_1item_1_1_leather_tunic.html" target="_top" xlink:title="{pocketmine\\item\\LeatherTunic\n||+ __construct()\l}">
<polygon fill="white" stroke="black" points="3508.5,-0.5 3508.5,-57.5 3669.5,-57.5 3669.5,-0.5 3508.5,-0.5"/>
<text text-anchor="middle" x="3589" y="-45.5" font-family="Helvetica,sans-Serif" font-size="10.00">pocketmine\item\LeatherTunic</text>
<polyline fill="none" stroke="black" points="3508.5,-38.5 3669.5,-38.5 "/>
<text text-anchor="middle" x="3589" y="-26.5" font-family="Helvetica,sans-Serif" font-size="10.00"> </text>
<polyline fill="none" stroke="black" points="3508.5,-19.5 3669.5,-19.5 "/>
<text text-anchor="start" x="3516.5" y="-7.5" font-family="Helvetica,sans-Serif" font-size="10.00">+ __construct()</text>
</a>
</g>
</g>
<!-- Node1&#45;&gt;Node22 -->
<g id="edge21" class="edge"><title>Node1&#45;&gt;Node22</title>
<path fill="none" stroke="midnightblue" d="M1968.09,-121.604C2245.09,-119.755 3199.15,-109.691 3499,-58 3502.06,-57.4718 3505.17,-56.8678 3508.29,-56.2021"/>
<polygon fill="none" stroke="midnightblue" points="1967.72,-118.107 1957.74,-121.672 1967.76,-125.107 1967.72,-118.107"/>
</g>
<!-- Node2 -->
<g id="node2" class="node"><title>Node2</title>
<g id="a_node2"><a xlink:href="../../d5/d8a/classpocketmine_1_1item_1_1_item.html" target="_top" xlink:title="{pocketmine\\item\\Item\n|+ AIR\l+ STONE\l+ GRASS\l+ DIRT\l+ COBBLESTONE\l+ COBBLE\l+ PLANK\l+ PLANKS\l+ WOODEN_PLANK\l+ WOODEN_PLANKS\land 297 more...\l+ $list\l# $block\l# $id\l# $meta\l# $durability\l# $name\l|+ canBeActivated()\l+ __construct()\l+ getCount()\l+ setCount()\l+ getName()\l+ isPlaceable()\l+ getBlock()\l+ getId()\l+ getDamage()\l+ setDamage()\land 15 more...\l+ init()\l+ get()\l+ fromString()\l}">
<polygon fill="white" stroke="black" points="1831,-189 1831,-565 1953,-565 1953,-189 1831,-189"/>
<text text-anchor="middle" x="1892" y="-553" font-family="Helvetica,sans-Serif" font-size="10.00">pocketmine\item\Item</text>
<polyline fill="none" stroke="black" points="1831,-546 1953,-546 "/>
<text text-anchor="start" x="1839" y="-534" font-family="Helvetica,sans-Serif" font-size="10.00">+ AIR</text>
<text text-anchor="start" x="1839" y="-523" font-family="Helvetica,sans-Serif" font-size="10.00">+ STONE</text>
<text text-anchor="start" x="1839" y="-512" font-family="Helvetica,sans-Serif" font-size="10.00">+ GRASS</text>
<text text-anchor="start" x="1839" y="-501" font-family="Helvetica,sans-Serif" font-size="10.00">+ DIRT</text>
<text text-anchor="start" x="1839" y="-490" font-family="Helvetica,sans-Serif" font-size="10.00">+ COBBLESTONE</text>
<text text-anchor="start" x="1839" y="-479" font-family="Helvetica,sans-Serif" font-size="10.00">+ COBBLE</text>
<text text-anchor="start" x="1839" y="-468" font-family="Helvetica,sans-Serif" font-size="10.00">+ PLANK</text>
<text text-anchor="start" x="1839" y="-457" font-family="Helvetica,sans-Serif" font-size="10.00">+ PLANKS</text>
<text text-anchor="start" x="1839" y="-446" font-family="Helvetica,sans-Serif" font-size="10.00">+ WOODEN_PLANK</text>
<text text-anchor="start" x="1839" y="-435" font-family="Helvetica,sans-Serif" font-size="10.00">+ WOODEN_PLANKS</text>
<text text-anchor="start" x="1839" y="-424" font-family="Helvetica,sans-Serif" font-size="10.00">and 297 more...</text>
<text text-anchor="start" x="1839" y="-413" font-family="Helvetica,sans-Serif" font-size="10.00">+ $list</text>
<text text-anchor="start" x="1839" y="-402" font-family="Helvetica,sans-Serif" font-size="10.00"># $block</text>
<text text-anchor="start" x="1839" y="-391" font-family="Helvetica,sans-Serif" font-size="10.00"># $id</text>
<text text-anchor="start" x="1839" y="-380" font-family="Helvetica,sans-Serif" font-size="10.00"># $meta</text>
<text text-anchor="start" x="1839" y="-369" font-family="Helvetica,sans-Serif" font-size="10.00"># $durability</text>
<text text-anchor="start" x="1839" y="-358" font-family="Helvetica,sans-Serif" font-size="10.00"># $name</text>
<polyline fill="none" stroke="black" points="1831,-351 1953,-351 "/>
<text text-anchor="start" x="1839" y="-339" font-family="Helvetica,sans-Serif" font-size="10.00">+ canBeActivated()</text>
<text text-anchor="start" x="1839" y="-328" font-family="Helvetica,sans-Serif" font-size="10.00">+ __construct()</text>
<text text-anchor="start" x="1839" y="-317" font-family="Helvetica,sans-Serif" font-size="10.00">+ getCount()</text>
<text text-anchor="start" x="1839" y="-306" font-family="Helvetica,sans-Serif" font-size="10.00">+ setCount()</text>
<text text-anchor="start" x="1839" y="-295" font-family="Helvetica,sans-Serif" font-size="10.00">+ getName()</text>
<text text-anchor="start" x="1839" y="-284" font-family="Helvetica,sans-Serif" font-size="10.00">+ isPlaceable()</text>
<text text-anchor="start" x="1839" y="-273" font-family="Helvetica,sans-Serif" font-size="10.00">+ getBlock()</text>
<text text-anchor="start" x="1839" y="-262" font-family="Helvetica,sans-Serif" font-size="10.00">+ getId()</text>
<text text-anchor="start" x="1839" y="-251" font-family="Helvetica,sans-Serif" font-size="10.00">+ getDamage()</text>
<text text-anchor="start" x="1839" y="-240" font-family="Helvetica,sans-Serif" font-size="10.00">+ setDamage()</text>
<text text-anchor="start" x="1839" y="-229" font-family="Helvetica,sans-Serif" font-size="10.00">and 15 more...</text>
<text text-anchor="start" x="1839" y="-218" font-family="Helvetica,sans-Serif" font-size="10.00">+ init()</text>
<text text-anchor="start" x="1839" y="-207" font-family="Helvetica,sans-Serif" font-size="10.00">+ get()</text>
<text text-anchor="start" x="1839" y="-196" font-family="Helvetica,sans-Serif" font-size="10.00">+ fromString()</text>
</a>
</g>
</g>
<!-- Node2&#45;&gt;Node1 -->
<g id="edge1" class="edge"><title>Node2&#45;&gt;Node1</title>
<path fill="none" stroke="midnightblue" d="M1892,-178.616C1892,-168.618 1892,-159.515 1892,-151.731"/>
<polygon fill="none" stroke="midnightblue" points="1888.5,-178.896 1892,-188.896 1895.5,-178.896 1888.5,-178.896"/>
</g>
</g>
</svg>
        <g id="navigator" transform="translate(0 0)" fill="#404254">
                <rect fill="#f2f5e9" fill-opacity="0.5" stroke="#606060" stroke-width=".5" x="0" y="0" width="60" height="60"/>
                <use id="zoomplus" xlink:href="#zoomPlus" x="17" y="9" onmousedown="handleZoom(evt,'in')"/>
                <use id="zoomminus" xlink:href="#zoomMin" x="42" y="9" onmousedown="handleZoom(evt,'out')"/>
                <use id="reset" xlink:href="#resetDef" x="30" y="36" onmousedown="handleReset()"/>
                <g id="arrowUp" xlink:href="#dirArrow" transform="translate(30 24)" onmousedown="handlePan(0,-1)">
                  <use xlink:href="#rim" fill="#404040">
                        <set attributeName="fill" to="#808080" begin="arrowUp.mouseover" end="arrowUp.mouseout"/>
                  </use>
                  <path fill="none" stroke="white" stroke-width="1.5" d="M0,-3.0v7 M-2.5,-0.5L0,-3.0L2.5,-0.5"/>
                </g>
                <g id="arrowRight" xlink:href="#dirArrow" transform="rotate(90) translate(36 -43)" onmousedown="handlePan(1,0)">
                  <use xlink:href="#rim" fill="#404040">
                        <set attributeName="fill" to="#808080" begin="arrowRight.mouseover" end="arrowRight.mouseout"/>
                  </use>
                  <path fill="none" stroke="white" stroke-width="1.5" d="M0,-3.0v7 M-2.5,-0.5L0,-3.0L2.5,-0.5"/>
                </g>
                <g id="arrowDown" xlink:href="#dirArrow" transform="rotate(180) translate(-30 -48)" onmousedown="handlePan(0,1)">
                  <use xlink:href="#rim" fill="#404040">
                        <set attributeName="fill" to="#808080" begin="arrowDown.mouseover" end="arrowDown.mouseout"/>
                  </use>
                  <path fill="none" stroke="white" stroke-width="1.5" d="M0,-3.0v7 M-2.5,-0.5L0,-3.0L2.5,-0.5"/>
                </g>
                <g id="arrowLeft" xlink:href="#dirArrow" transform="rotate(270) translate(-36 17)" onmousedown="handlePan(-1,0)">
                  <use xlink:href="#rim" fill="#404040">
                        <set attributeName="fill" to="#808080" begin="arrowLeft.mouseover" end="arrowLeft.mouseout"/>
                  </use>
                  <path fill="none" stroke="white" stroke-width="1.5" d="M0,-3.0v7 M-2.5,-0.5L0,-3.0L2.5,-0.5"/>
                </g>
        </g>
        <svg viewBox="0 0 15 15" width="100%" height="30px" preserveAspectRatio="xMaxYMin meet">
         <g id="arrow_out" transform="scale(0.3 0.3)">
          <a xlink:href="classpocketmine_1_1item_1_1_armor__inherit__graph_org.svg" target="_base">
           <rect id="button" ry="5" rx="5" y="6" x="6" height="38" width="38"
                fill="#f2f5e9" fill-opacity="0.5" stroke="#606060" stroke-width="1.0"/>
           <path id="arrow"
             d="M 11.500037,31.436501 C 11.940474,20.09759 22.043105,11.32322 32.158766,21.979434 L 37.068811,17.246167 C 37.068811,17.246167 37.088388,32 37.088388,32 L 22.160133,31.978069 C 22.160133,31.978069 26.997745,27.140456 26.997745,27.140456 C 18.528582,18.264221 13.291696,25.230495 11.500037,31.436501 z"
             style="fill:#404040;"/>
          </a>
         </g>
        </svg>
</svg>
