<?xml version="1.0" encoding="UTF-8" standalone="no"?>
<!DOCTYPE svg PUBLIC "-//W3C//DTD SVG 1.1//EN"
 "http://www.w3.org/Graphics/SVG/1.1/DTD/svg11.dtd">
<!-- Generated by graphviz version 2.26.3 (20100126.1600)
 -->
<!-- Title: G Pages: 1 -->
<svg width="208pt" height="224pt"
 viewBox="0.00 0.00 208.00 224.00" xmlns="http://www.w3.org/2000/svg" xmlns:xlink="http://www.w3.org/1999/xlink">
<g id="graph1" class="graph" transform="scale(1 1) rotate(0) translate(4 220)">
<title>G</title>
<polygon fill="white" stroke="white" points="-4,5 -4,-220 205,-220 205,5 -4,5"/>
<!-- Node1 -->
<g id="node1" class="node"><title>Node1</title>
<polygon fill="#bfbfbf" stroke="black" points="0,-0.5 0,-63.5 200,-63.5 200,-0.5 0,-0.5"/>
<text text-anchor="middle" x="100" y="-50.5" font-family="Helvetica,sans-Serif" font-size="10.00">pocketmine\metadata\LevelMetadataStore</text>
<polyline fill="none" stroke="black" points="0,-42.5 200,-42.5 "/>
<text text-anchor="middle" x="100" y="-29.5" font-family="Helvetica,sans-Serif" font-size="10.00"> </text>
<polyline fill="none" stroke="black" points="0,-21.5 200,-21.5 "/>
<text text-anchor="start" x="8" y="-8.5" font-family="Helvetica,sans-Serif" font-size="10.00">+ disambiguate()</text>
</g>
<!-- Node2 -->
<g id="node2" class="node"><title>Node2</title>
<a xlink:href="../../db/dfc/classpocketmine_1_1metadata_1_1_metadata_store.html" target="_top" xlink:title="{pocketmine\\metadata\\MetadataStore\n||+ setMetadata()\l+ getMetadata()\l+ hasMetadata()\l+ removeMetadata()\l+ disambiguate()\l}">
<polygon fill="white" stroke="black" points="11.5,-100.5 11.5,-215.5 188.5,-215.5 188.5,-100.5 11.5,-100.5"/>
<text text-anchor="middle" x="100" y="-202.5" font-family="Helvetica,sans-Serif" font-size="10.00">pocketmine\metadata\MetadataStore</text>
<polyline fill="none" stroke="black" points="11.5,-194.5 188.5,-194.5 "/>
<text text-anchor="middle" x="100" y="-181.5" font-family="Helvetica,sans-Serif" font-size="10.00"> </text>
<polyline fill="none" stroke="black" points="11.5,-173.5 188.5,-173.5 "/>
<text text-anchor="start" x="19.5" y="-160.5" font-family="Helvetica,sans-Serif" font-size="10.00">+ setMetadata()</text>
<text text-anchor="start" x="19.5" y="-147.5" font-family="Helvetica,sans-Serif" font-size="10.00">+ getMetadata()</text>
<text text-anchor="start" x="19.5" y="-134.5" font-family="Helvetica,sans-Serif" font-size="10.00">+ hasMetadata()</text>
<text text-anchor="start" x="19.5" y="-121.5" font-family="Helvetica,sans-Serif" font-size="10.00">+ removeMetadata()</text>
<text text-anchor="start" x="19.5" y="-108.5" font-family="Helvetica,sans-Serif" font-size="10.00">+ disambiguate()</text>
</a>
</g>
<!-- Node2&#45;&gt;Node1 -->
<g id="edge2" class="edge"><title>Node2&#45;&gt;Node1</title>
<path fill="none" stroke="midnightblue" d="M100,-90.141C100,-80.921 100,-71.8405 100,-63.696"/>
<polygon fill="none" stroke="midnightblue" points="96.5001,-90.1628 100,-100.163 103.5,-90.1629 96.5001,-90.1628"/>
</g>
</g>
</svg>
