<?xml version="1.0" encoding="UTF-8" standalone="no"?>
<!DOCTYPE svg PUBLIC "-//W3C//DTD SVG 1.1//EN"
 "http://www.w3.org/Graphics/SVG/1.1/DTD/svg11.dtd">
<!-- Generated by graphviz version 2.26.3 (20100126.1600)
 -->
<!-- Title: G Pages: 1 -->
<svg width="348pt" height="430pt"
 viewBox="0.00 0.00 348.00 430.00" xmlns="http://www.w3.org/2000/svg" xmlns:xlink="http://www.w3.org/1999/xlink">
<g id="graph1" class="graph" transform="scale(1 1) rotate(0) translate(4 426)">
<title>G</title>
<polygon fill="white" stroke="white" points="-4,5 -4,-426 345,-426 345,5 -4,5"/>
<!-- Node1 -->
<g id="node1" class="node"><title>Node1</title>
<polygon fill="#bfbfbf" stroke="black" points="71,-0.5 71,-167.5 281,-167.5 281,-0.5 71,-0.5"/>
<text text-anchor="middle" x="176" y="-154.5" font-family="Helvetica,sans-Serif" font-size="10.00">pocketmine\event\entity\EntityExplodeEvent</text>
<polyline fill="none" stroke="black" points="71,-146.5 281,-146.5 "/>
<text text-anchor="start" x="79" y="-133.5" font-family="Helvetica,sans-Serif" font-size="10.00">+ $handlerList</text>
<text text-anchor="start" x="79" y="-120.5" font-family="Helvetica,sans-Serif" font-size="10.00"># $position</text>
<text text-anchor="start" x="79" y="-107.5" font-family="Helvetica,sans-Serif" font-size="10.00"># $blocks</text>
<text text-anchor="start" x="79" y="-94.5" font-family="Helvetica,sans-Serif" font-size="10.00"># $yield</text>
<polyline fill="none" stroke="black" points="71,-86.5 281,-86.5 "/>
<text text-anchor="start" x="79" y="-73.5" font-family="Helvetica,sans-Serif" font-size="10.00">+ __construct()</text>
<text text-anchor="start" x="79" y="-60.5" font-family="Helvetica,sans-Serif" font-size="10.00">+ getPosition()</text>
<text text-anchor="start" x="79" y="-47.5" font-family="Helvetica,sans-Serif" font-size="10.00">+ getBlockList()</text>
<text text-anchor="start" x="79" y="-34.5" font-family="Helvetica,sans-Serif" font-size="10.00">+ setBlockList()</text>
<text text-anchor="start" x="79" y="-21.5" font-family="Helvetica,sans-Serif" font-size="10.00">+ getYield()</text>
<text text-anchor="start" x="79" y="-8.5" font-family="Helvetica,sans-Serif" font-size="10.00">+ setYield()</text>
</g>
<!-- Node2 -->
<g id="node2" class="node"><title>Node2</title>
<a xlink:href="../../de/d84/classpocketmine_1_1event_1_1entity_1_1_entity_event.html" target="_top" xlink:title="{pocketmine\\event\\entity\\EntityEvent\n|# $entity\l|+ getEntity()\l}">
<polygon fill="white" stroke="black" points="-0.5,-211.5 -0.5,-274.5 174.5,-274.5 174.5,-211.5 -0.5,-211.5"/>
<text text-anchor="middle" x="87" y="-261.5" font-family="Helvetica,sans-Serif" font-size="10.00">pocketmine\event\entity\EntityEvent</text>
<polyline fill="none" stroke="black" points="-0.5,-253.5 174.5,-253.5 "/>
<text text-anchor="start" x="7.5" y="-240.5" font-family="Helvetica,sans-Serif" font-size="10.00"># $entity</text>
<polyline fill="none" stroke="black" points="-0.5,-232.5 174.5,-232.5 "/>
<text text-anchor="start" x="7.5" y="-219.5" font-family="Helvetica,sans-Serif" font-size="10.00">+ getEntity()</text>
</a>
</g>
<!-- Node2&#45;&gt;Node1 -->
<g id="edge2" class="edge"><title>Node2&#45;&gt;Node1</title>
<path fill="none" stroke="midnightblue" d="M109.83,-202.214C115.775,-191.593 122.403,-179.752 129.103,-167.782"/>
<polygon fill="none" stroke="midnightblue" points="106.627,-200.771 104.797,-211.206 112.735,-204.19 106.627,-200.771"/>
</g>
<!-- Node3 -->
<g id="node4" class="node"><title>Node3</title>
<a xlink:href="../../d1/d2f/classpocketmine_1_1event_1_1_event.html" target="_top" xlink:title="{pocketmine\\event\\Event\n|# $eventName\l|+ getEventName()\l+ isCancelled()\l+ setCancelled()\l+ getHandlers()\l}">
<polygon fill="white" stroke="black" points="26,-319 26,-421 148,-421 148,-319 26,-319"/>
<text text-anchor="middle" x="87" y="-408" font-family="Helvetica,sans-Serif" font-size="10.00">pocketmine\event\Event</text>
<polyline fill="none" stroke="black" points="26,-400 148,-400 "/>
<text text-anchor="start" x="34" y="-387" font-family="Helvetica,sans-Serif" font-size="10.00"># $eventName</text>
<polyline fill="none" stroke="black" points="26,-379 148,-379 "/>
<text text-anchor="start" x="34" y="-366" font-family="Helvetica,sans-Serif" font-size="10.00">+ getEventName()</text>
<text text-anchor="start" x="34" y="-353" font-family="Helvetica,sans-Serif" font-size="10.00">+ isCancelled()</text>
<text text-anchor="start" x="34" y="-340" font-family="Helvetica,sans-Serif" font-size="10.00">+ setCancelled()</text>
<text text-anchor="start" x="34" y="-327" font-family="Helvetica,sans-Serif" font-size="10.00">+ getHandlers()</text>
</a>
</g>
<!-- Node3&#45;&gt;Node2 -->
<g id="edge4" class="edge"><title>Node3&#45;&gt;Node2</title>
<path fill="none" stroke="midnightblue" d="M87,-308.5C87,-296.81 87,-285.03 87,-274.745"/>
<polygon fill="none" stroke="midnightblue" points="83.5001,-308.71 87,-318.71 90.5001,-308.71 83.5001,-308.71"/>
</g>
<!-- Node4 -->
<g id="node6" class="node"><title>Node4</title>
<a xlink:href="../../db/d62/interfacepocketmine_1_1event_1_1_cancellable.html" target="_top" xlink:title="{pocketmine\\event\\Cancellable\n||+ isCancelled()\l+ setCancelled()\l}">
<polygon fill="white" stroke="black" points="192,-205 192,-281 340,-281 340,-205 192,-205"/>
<text text-anchor="middle" x="266" y="-268" font-family="Helvetica,sans-Serif" font-size="10.00">pocketmine\event\Cancellable</text>
<polyline fill="none" stroke="black" points="192,-260 340,-260 "/>
<text text-anchor="middle" x="266" y="-247" font-family="Helvetica,sans-Serif" font-size="10.00"> </text>
<polyline fill="none" stroke="black" points="192,-239 340,-239 "/>
<text text-anchor="start" x="200" y="-226" font-family="Helvetica,sans-Serif" font-size="10.00">+ isCancelled()</text>
<text text-anchor="start" x="200" y="-213" font-family="Helvetica,sans-Serif" font-size="10.00">+ setCancelled()</text>
</a>
</g>
<!-- Node4&#45;&gt;Node1 -->
<g id="edge6" class="edge"><title>Node4&#45;&gt;Node1</title>
<path fill="none" stroke="midnightblue" d="M239.493,-196.172C234.404,-187.181 228.933,-177.516 223.414,-167.764"/>
<polygon fill="none" stroke="midnightblue" points="236.471,-197.937 244.443,-204.916 242.563,-194.489 236.471,-197.937"/>
</g>
</g>
</svg>
