<?xml version="1.0" encoding="UTF-8" standalone="no"?>
<!DOCTYPE svg PUBLIC "-//W3C//DTD SVG 1.1//EN"
 "http://www.w3.org/Graphics/SVG/1.1/DTD/svg11.dtd">
<!-- Generated by graphviz version 2.26.3 (20100126.1600)
 -->
<!-- Title: G Pages: 1 -->
<!--zoomable 906 -->
<svg id="main" version="1.1" xmlns="http://www.w3.org/2000/svg" xmlns:xlink="http://www.w3.org/1999/xlink" xml:space="preserve" onload="init(evt)">
        <defs>
                <circle id="rim" cx="0" cy="0" r="7"/>
                <circle id="rim2" cx="0" cy="0" r="3.5"/>
                <g id="zoomPlus">
                        <use xlink:href="#rim" fill="#404040">
                                <set attributeName="fill" to="#808080" begin="zoomplus.mouseover" end="zoomplus.mouseout"/>
                        </use>
                        <path d="M-4,0h8M0,-4v8" fill="none" stroke="white" stroke-width="1.5" pointer-events="none"/>
                </g>
                <g id="zoomMin">
                        <use xlink:href="#rim" fill="#404040">
                                <set attributeName="fill" to="#808080" begin="zoomminus.mouseover" end="zoomminus.mouseout"/>
                        </use>
                        <path d="M-4,0h8" fill="none" stroke="white" stroke-width="1.5" pointer-events="none"/>
                </g>
                <g id="dirArrow">
                        <path fill="none" stroke="white" stroke-width="1.5" d="M0,-3.0v7 M-2.5,-0.5L0,-3.0L2.5,-0.5"/>
                </g>
               <g id="resetDef">
                       <use xlink:href="#rim2" fill="#404040">
                               <set attributeName="fill" to="#808080" begin="reset.mouseover" end="reset.mouseout"/>
                       </use>
               </g>
        </defs>

<script type="text/javascript">
var viewWidth = 516;
var viewHeight = 906;
var sectionId = 'dynsection-1';
</script>
<script xlink:href="../../svgpan.js"/>
<svg id="graph" class="graph">
<g id="viewport">
<title>G</title>
<polygon fill="white" stroke="white" points="-4,5 -4,-902 513,-902 513,5 -4,5"/>
<!-- Node1 -->
<g id="node1" class="node"><title>Node1</title>
<polygon fill="#bfbfbf" stroke="black" points="234.5,-0.5 234.5,-115.5 363.5,-115.5 363.5,-0.5 234.5,-0.5"/>
<text text-anchor="middle" x="299" y="-102.5" font-family="Helvetica,sans-Serif" font-size="10.00">pocketmine\entity\Villager</text>
<polyline fill="none" stroke="black" points="234.5,-94.5 363.5,-94.5 "/>
<text text-anchor="start" x="242.5" y="-81.5" font-family="Helvetica,sans-Serif" font-size="10.00">+ FARMER</text>
<text text-anchor="start" x="242.5" y="-68.5" font-family="Helvetica,sans-Serif" font-size="10.00">+ LIBRARIAN</text>
<text text-anchor="start" x="242.5" y="-55.5" font-family="Helvetica,sans-Serif" font-size="10.00">+ PRIEST</text>
<text text-anchor="start" x="242.5" y="-42.5" font-family="Helvetica,sans-Serif" font-size="10.00">+ BLACKSMITH</text>
<text text-anchor="start" x="242.5" y="-29.5" font-family="Helvetica,sans-Serif" font-size="10.00">+ BUTCHER</text>
<polyline fill="none" stroke="black" points="234.5,-21.5 363.5,-21.5 "/>
<text text-anchor="start" x="242.5" y="-8.5" font-family="Helvetica,sans-Serif" font-size="10.00">+ setProfession()</text>
</g>
<!-- Node2 -->
<g id="node2" class="node"><title>Node2</title>
<a xlink:href="../../d1/db7/classpocketmine_1_1entity_1_1_creature.html" target="_top" xlink:title="{pocketmine\\entity\\Creature\n||}">
<polygon fill="white" stroke="black" points="88,-152.5 88,-215.5 222,-215.5 222,-152.5 88,-152.5"/>
<text text-anchor="middle" x="155" y="-202.5" font-family="Helvetica,sans-Serif" font-size="10.00">pocketmine\entity\Creature</text>
<polyline fill="none" stroke="black" points="88,-194.5 222,-194.5 "/>
<text text-anchor="middle" x="155" y="-181.5" font-family="Helvetica,sans-Serif" font-size="10.00"> </text>
<polyline fill="none" stroke="black" points="88,-173.5 222,-173.5 "/>
<text text-anchor="middle" x="155" y="-160.5" font-family="Helvetica,sans-Serif" font-size="10.00"> </text>
</a>
</g>
<!-- Node2&#45;&gt;Node1 -->
<g id="edge2" class="edge"><title>Node2&#45;&gt;Node1</title>
<path fill="none" stroke="midnightblue" d="M198.9,-145.587C210.097,-135.79 222.369,-125.053 234.365,-114.556"/>
<polygon fill="none" stroke="midnightblue" points="196.558,-142.986 191.337,-152.205 201.168,-148.254 196.558,-142.986"/>
</g>
<!-- Node3 -->
<g id="node4" class="node"><title>Node3</title>
<a xlink:href="../../df/d0c/classpocketmine_1_1entity_1_1_living.html" target="_top" xlink:title="{pocketmine\\entity\\Living\n|# $gravity\l# $drag\l|# initEntity()\l}">
<polygon fill="white" stroke="black" points="94,-253 94,-329 216,-329 216,-253 94,-253"/>
<text text-anchor="middle" x="155" y="-316" font-family="Helvetica,sans-Serif" font-size="10.00">pocketmine\entity\Living</text>
<polyline fill="none" stroke="black" points="94,-308 216,-308 "/>
<text text-anchor="start" x="102" y="-295" font-family="Helvetica,sans-Serif" font-size="10.00"># $gravity</text>
<text text-anchor="start" x="102" y="-282" font-family="Helvetica,sans-Serif" font-size="10.00"># $drag</text>
<polyline fill="none" stroke="black" points="94,-274 216,-274 "/>
<text text-anchor="start" x="102" y="-261" font-family="Helvetica,sans-Serif" font-size="10.00"># initEntity()</text>
</a>
</g>
<!-- Node3&#45;&gt;Node2 -->
<g id="edge4" class="edge"><title>Node3&#45;&gt;Node2</title>
<path fill="none" stroke="midnightblue" d="M155,-242.716C155,-233.499 155,-224.073 155,-215.547"/>
<polygon fill="none" stroke="midnightblue" points="151.5,-242.974 155,-252.975 158.5,-242.975 151.5,-242.974"/>
</g>
<!-- Node4 -->
<g id="node6" class="node"><title>Node4</title>
<a xlink:href="../../d2/d3c/classpocketmine_1_1entity_1_1_entity.html" target="_top" xlink:title="{pocketmine\\entity\\Entity\n|+ $passenger\l+ $vehicle\l+ $chunkX\l+ $chunkZ\l+ $chunk\l+ $lastX\l+ $lastY\l+ $lastZ\l+ $motionX\l+ $motionY\land 25 more...+ $entityCount\l+ $needUpdate\l# $hasSpawned\l# $id\l# $age\l# $isStatic\l# $isColliding\l# $inWater\l# $fireProof\l# $spawnTime\l# $gravity\l# $drag\l# $server\l|+ __construct()\l+ saveNBT()\l+ getViewers()\l+ spawnTo()\l+ despawnFrom()\l+ attack()\l+ heal()\l+ getHealth()\l+ setHealth()\l+ getMaxHealth()\land 38 more...# initEntity()\l# checkObstruction()\l# updateFallState()\l# switchLevel()\l# checkBlockCollision()\l}">
<polygon fill="white" stroke="black" points="0,-366.5 0,-897.5 144,-897.5 144,-366.5 0,-366.5"/>
<text text-anchor="middle" x="72" y="-884.5" font-family="Helvetica,sans-Serif" font-size="10.00">pocketmine\entity\Entity</text>
<polyline fill="none" stroke="black" points="0,-876.5 144,-876.5 "/>
<text text-anchor="start" x="8" y="-863.5" font-family="Helvetica,sans-Serif" font-size="10.00">+ $passenger</text>
<text text-anchor="start" x="8" y="-850.5" font-family="Helvetica,sans-Serif" font-size="10.00">+ $vehicle</text>
<text text-anchor="start" x="8" y="-837.5" font-family="Helvetica,sans-Serif" font-size="10.00">+ $chunkX</text>
<text text-anchor="start" x="8" y="-824.5" font-family="Helvetica,sans-Serif" font-size="10.00">+ $chunkZ</text>
<text text-anchor="start" x="8" y="-811.5" font-family="Helvetica,sans-Serif" font-size="10.00">+ $chunk</text>
<text text-anchor="start" x="8" y="-798.5" font-family="Helvetica,sans-Serif" font-size="10.00">+ $lastX</text>
<text text-anchor="start" x="8" y="-785.5" font-family="Helvetica,sans-Serif" font-size="10.00">+ $lastY</text>
<text text-anchor="start" x="8" y="-772.5" font-family="Helvetica,sans-Serif" font-size="10.00">+ $lastZ</text>
<text text-anchor="start" x="8" y="-759.5" font-family="Helvetica,sans-Serif" font-size="10.00">+ $motionX</text>
<text text-anchor="start" x="8" y="-746.5" font-family="Helvetica,sans-Serif" font-size="10.00">+ $motionY</text>
<text text-anchor="start" x="8" y="-733.5" font-family="Helvetica,sans-Serif" font-size="10.00">and 25 more...+ $entityCount</text>
<text text-anchor="start" x="8" y="-720.5" font-family="Helvetica,sans-Serif" font-size="10.00">+ $needUpdate</text>
<text text-anchor="start" x="8" y="-707.5" font-family="Helvetica,sans-Serif" font-size="10.00"># $hasSpawned</text>
<text text-anchor="start" x="8" y="-694.5" font-family="Helvetica,sans-Serif" font-size="10.00"># $id</text>
<text text-anchor="start" x="8" y="-681.5" font-family="Helvetica,sans-Serif" font-size="10.00"># $age</text>
<text text-anchor="start" x="8" y="-668.5" font-family="Helvetica,sans-Serif" font-size="10.00"># $isStatic</text>
<text text-anchor="start" x="8" y="-655.5" font-family="Helvetica,sans-Serif" font-size="10.00"># $isColliding</text>
<text text-anchor="start" x="8" y="-642.5" font-family="Helvetica,sans-Serif" font-size="10.00"># $inWater</text>
<text text-anchor="start" x="8" y="-629.5" font-family="Helvetica,sans-Serif" font-size="10.00"># $fireProof</text>
<text text-anchor="start" x="8" y="-616.5" font-family="Helvetica,sans-Serif" font-size="10.00"># $spawnTime</text>
<text text-anchor="start" x="8" y="-603.5" font-family="Helvetica,sans-Serif" font-size="10.00"># $gravity</text>
<text text-anchor="start" x="8" y="-590.5" font-family="Helvetica,sans-Serif" font-size="10.00"># $drag</text>
<text text-anchor="start" x="8" y="-577.5" font-family="Helvetica,sans-Serif" font-size="10.00"># $server</text>
<polyline fill="none" stroke="black" points="0,-569.5 144,-569.5 "/>
<text text-anchor="start" x="8" y="-556.5" font-family="Helvetica,sans-Serif" font-size="10.00">+ __construct()</text>
<text text-anchor="start" x="8" y="-543.5" font-family="Helvetica,sans-Serif" font-size="10.00">+ saveNBT()</text>
<text text-anchor="start" x="8" y="-530.5" font-family="Helvetica,sans-Serif" font-size="10.00">+ getViewers()</text>
<text text-anchor="start" x="8" y="-517.5" font-family="Helvetica,sans-Serif" font-size="10.00">+ spawnTo()</text>
<text text-anchor="start" x="8" y="-504.5" font-family="Helvetica,sans-Serif" font-size="10.00">+ despawnFrom()</text>
<text text-anchor="start" x="8" y="-491.5" font-family="Helvetica,sans-Serif" font-size="10.00">+ attack()</text>
<text text-anchor="start" x="8" y="-478.5" font-family="Helvetica,sans-Serif" font-size="10.00">+ heal()</text>
<text text-anchor="start" x="8" y="-465.5" font-family="Helvetica,sans-Serif" font-size="10.00">+ getHealth()</text>
<text text-anchor="start" x="8" y="-452.5" font-family="Helvetica,sans-Serif" font-size="10.00">+ setHealth()</text>
<text text-anchor="start" x="8" y="-439.5" font-family="Helvetica,sans-Serif" font-size="10.00">+ getMaxHealth()</text>
<text text-anchor="start" x="8" y="-426.5" font-family="Helvetica,sans-Serif" font-size="10.00">and 38 more...# initEntity()</text>
<text text-anchor="start" x="8" y="-413.5" font-family="Helvetica,sans-Serif" font-size="10.00"># checkObstruction()</text>
<text text-anchor="start" x="8" y="-400.5" font-family="Helvetica,sans-Serif" font-size="10.00"># updateFallState()</text>
<text text-anchor="start" x="8" y="-387.5" font-family="Helvetica,sans-Serif" font-size="10.00"># switchLevel()</text>
<text text-anchor="start" x="8" y="-374.5" font-family="Helvetica,sans-Serif" font-size="10.00"># checkBlockCollision()</text>
</a>
</g>
<!-- Node4&#45;&gt;Node3 -->
<g id="edge6" class="edge"><title>Node4&#45;&gt;Node3</title>
<path fill="none" stroke="midnightblue" d="M139.05,-356.531C141.46,-346.627 143.683,-337.496 145.655,-329.392"/>
<polygon fill="none" stroke="midnightblue" points="135.647,-355.712 136.683,-366.256 142.448,-357.367 135.647,-355.712"/>
</g>
<!-- Node5 -->
<g id="node8" class="node"><title>Node5</title>
<a xlink:href="../../d7/da6/interfacepocketmine_1_1entity_1_1_damageable.html" target="_top" xlink:title="{pocketmine\\entity\\Damageable\n||}">
<polygon fill="white" stroke="black" points="162,-600.5 162,-663.5 314,-663.5 314,-600.5 162,-600.5"/>
<text text-anchor="middle" x="238" y="-650.5" font-family="Helvetica,sans-Serif" font-size="10.00">pocketmine\entity\Damageable</text>
<polyline fill="none" stroke="black" points="162,-642.5 314,-642.5 "/>
<text text-anchor="middle" x="238" y="-629.5" font-family="Helvetica,sans-Serif" font-size="10.00"> </text>
<polyline fill="none" stroke="black" points="162,-621.5 314,-621.5 "/>
<text text-anchor="middle" x="238" y="-608.5" font-family="Helvetica,sans-Serif" font-size="10.00"> </text>
</a>
</g>
<!-- Node5&#45;&gt;Node3 -->
<g id="edge8" class="edge"><title>Node5&#45;&gt;Node3</title>
<path fill="none" stroke="midnightblue" d="M227.893,-590.475C211.663,-523.797 180.025,-393.813 164.314,-329.266"/>
<polygon fill="none" stroke="midnightblue" points="224.5,-591.337 230.266,-600.226 231.302,-589.682 224.5,-591.337"/>
</g>
<!-- Node6 -->
<g id="node10" class="node"><title>Node6</title>
<a xlink:href="../../d0/d75/interfacepocketmine_1_1entity_1_1_n_p_c.html" target="_top" xlink:title="{pocketmine\\entity\\NPC\n||}">
<polygon fill="white" stroke="black" points="239.5,-152.5 239.5,-215.5 358.5,-215.5 358.5,-152.5 239.5,-152.5"/>
<text text-anchor="middle" x="299" y="-202.5" font-family="Helvetica,sans-Serif" font-size="10.00">pocketmine\entity\NPC</text>
<polyline fill="none" stroke="black" points="239.5,-194.5 358.5,-194.5 "/>
<text text-anchor="middle" x="299" y="-181.5" font-family="Helvetica,sans-Serif" font-size="10.00"> </text>
<polyline fill="none" stroke="black" points="239.5,-173.5 358.5,-173.5 "/>
<text text-anchor="middle" x="299" y="-160.5" font-family="Helvetica,sans-Serif" font-size="10.00"> </text>
</a>
</g>
<!-- Node6&#45;&gt;Node1 -->
<g id="edge10" class="edge"><title>Node6&#45;&gt;Node1</title>
<path fill="none" stroke="midnightblue" d="M299,-141.932C299,-133.545 299,-124.6 299,-115.791"/>
<polygon fill="none" stroke="midnightblue" points="295.5,-142.205 299,-152.205 302.5,-142.205 295.5,-142.205"/>
</g>
<!-- Node7 -->
<g id="node12" class="node"><title>Node7</title>
<a xlink:href="../../d8/deb/interfacepocketmine_1_1entity_1_1_ageable.html" target="_top" xlink:title="{pocketmine\\entity\\Ageable\n||}">
<polygon fill="white" stroke="black" points="376,-152.5 376,-215.5 508,-215.5 508,-152.5 376,-152.5"/>
<text text-anchor="middle" x="442" y="-202.5" font-family="Helvetica,sans-Serif" font-size="10.00">pocketmine\entity\Ageable</text>
<polyline fill="none" stroke="black" points="376,-194.5 508,-194.5 "/>
<text text-anchor="middle" x="442" y="-181.5" font-family="Helvetica,sans-Serif" font-size="10.00"> </text>
<polyline fill="none" stroke="black" points="376,-173.5 508,-173.5 "/>
<text text-anchor="middle" x="442" y="-160.5" font-family="Helvetica,sans-Serif" font-size="10.00"> </text>
</a>
</g>
<!-- Node7&#45;&gt;Node1 -->
<g id="edge12" class="edge"><title>Node7&#45;&gt;Node1</title>
<path fill="none" stroke="midnightblue" d="M398.186,-145.395C387.301,-135.803 375.403,-125.32 363.747,-115.05"/>
<polygon fill="none" stroke="midnightblue" points="396.098,-148.22 405.915,-152.205 400.726,-142.968 396.098,-148.22"/>
</g>
</g>
</svg>
        <g id="navigator" transform="translate(0 0)" fill="#404254">
                <rect fill="#f2f5e9" fill-opacity="0.5" stroke="#606060" stroke-width=".5" x="0" y="0" width="60" height="60"/>
                <use id="zoomplus" xlink:href="#zoomPlus" x="17" y="9" onmousedown="handleZoom(evt,'in')"/>
                <use id="zoomminus" xlink:href="#zoomMin" x="42" y="9" onmousedown="handleZoom(evt,'out')"/>
                <use id="reset" xlink:href="#resetDef" x="30" y="36" onmousedown="handleReset()"/>
                <g id="arrowUp" xlink:href="#dirArrow" transform="translate(30 24)" onmousedown="handlePan(0,-1)">
                  <use xlink:href="#rim" fill="#404040">
                        <set attributeName="fill" to="#808080" begin="arrowUp.mouseover" end="arrowUp.mouseout"/>
                  </use>
                  <path fill="none" stroke="white" stroke-width="1.5" d="M0,-3.0v7 M-2.5,-0.5L0,-3.0L2.5,-0.5"/>
                </g>
                <g id="arrowRight" xlink:href="#dirArrow" transform="rotate(90) translate(36 -43)" onmousedown="handlePan(1,0)">
                  <use xlink:href="#rim" fill="#404040">
                        <set attributeName="fill" to="#808080" begin="arrowRight.mouseover" end="arrowRight.mouseout"/>
                  </use>
                  <path fill="none" stroke="white" stroke-width="1.5" d="M0,-3.0v7 M-2.5,-0.5L0,-3.0L2.5,-0.5"/>
                </g>
                <g id="arrowDown" xlink:href="#dirArrow" transform="rotate(180) translate(-30 -48)" onmousedown="handlePan(0,1)">
                  <use xlink:href="#rim" fill="#404040">
                        <set attributeName="fill" to="#808080" begin="arrowDown.mouseover" end="arrowDown.mouseout"/>
                  </use>
                  <path fill="none" stroke="white" stroke-width="1.5" d="M0,-3.0v7 M-2.5,-0.5L0,-3.0L2.5,-0.5"/>
                </g>
                <g id="arrowLeft" xlink:href="#dirArrow" transform="rotate(270) translate(-36 17)" onmousedown="handlePan(-1,0)">
                  <use xlink:href="#rim" fill="#404040">
                        <set attributeName="fill" to="#808080" begin="arrowLeft.mouseover" end="arrowLeft.mouseout"/>
                  </use>
                  <path fill="none" stroke="white" stroke-width="1.5" d="M0,-3.0v7 M-2.5,-0.5L0,-3.0L2.5,-0.5"/>
                </g>
        </g>
</svg>
