<?xml version="1.0" encoding="UTF-8" standalone="no"?>
<!DOCTYPE svg PUBLIC "-//W3C//DTD SVG 1.1//EN"
 "http://www.w3.org/Graphics/SVG/1.1/DTD/svg11.dtd">
<!-- Generated by graphviz version 2.36.0 (20140111.2315)
 -->
<!-- Title: pocketmine\scheduler\TaskHandler\__construct Pages: 1 -->
<svg width="506pt" height="136pt"
 viewBox="0.00 0.00 506.00 136.00" xmlns="http://www.w3.org/2000/svg" xmlns:xlink="http://www.w3.org/1999/xlink">
<g id="graph0" class="graph" transform="scale(1 1) rotate(0) translate(4 132)">
<title>pocketmine\scheduler\TaskHandler\__construct</title>
<polygon fill="white" stroke="none" points="-4,4 -4,-132 502,-132 502,4 -4,4"/>
<!-- Node1 -->
<g id="node1" class="node"><title>Node1</title>
<polygon fill="#bfbfbf" stroke="black" points="0,-49 0,-79 136,-79 136,-49 0,-49"/>
<text text-anchor="start" x="8" y="-67" font-family="Helvetica,sans-Serif" font-size="10.00">pocketmine\scheduler</text>
<text text-anchor="middle" x="68" y="-56" font-family="Helvetica,sans-Serif" font-size="10.00">\TaskHandler\__construct</text>
</g>
<!-- Node2 -->
<g id="node2" class="node"><title>Node2</title>
<g id="a_node2"><a xlink:href="../../d5/d20/classpocketmine_1_1event_1_1_timings.html#a516830247208d1337a72bd553047339b" target="_top" xlink:title="pocketmine\\event\\Timings\l\\getPluginTaskTimings">
<polygon fill="white" stroke="black" points="172.5,-49 172.5,-79 315.5,-79 315.5,-49 172.5,-49"/>
<text text-anchor="start" x="180.5" y="-67" font-family="Helvetica,sans-Serif" font-size="10.00">pocketmine\event\Timings</text>
<text text-anchor="middle" x="244" y="-56" font-family="Helvetica,sans-Serif" font-size="10.00">\getPluginTaskTimings</text>
</a>
</g>
</g>
<!-- Node1&#45;&gt;Node2 -->
<g id="edge1" class="edge"><title>Node1&#45;&gt;Node2</title>
<path fill="none" stroke="midnightblue" d="M136.273,-64C144.796,-64 153.586,-64 162.291,-64"/>
<polygon fill="midnightblue" stroke="midnightblue" points="162.451,-67.5001 172.451,-64 162.451,-60.5001 162.451,-67.5001"/>
</g>
<!-- Node3 -->
<g id="node3" class="node"><title>Node3</title>
<g id="a_node3"><a xlink:href="../../d5/d2e/classpocketmine_1_1scheduler_1_1_plugin_task.html#a5ae8fe2dd6644393048c4b749ee19830" target="_top" xlink:title="pocketmine\\scheduler\l\\PluginTask\\getOwner">
<polygon fill="white" stroke="black" points="364,-98 364,-128 486,-128 486,-98 364,-98"/>
<text text-anchor="start" x="372" y="-116" font-family="Helvetica,sans-Serif" font-size="10.00">pocketmine\scheduler</text>
<text text-anchor="middle" x="425" y="-105" font-family="Helvetica,sans-Serif" font-size="10.00">\PluginTask\getOwner</text>
</a>
</g>
</g>
<!-- Node2&#45;&gt;Node3 -->
<g id="edge2" class="edge"><title>Node2&#45;&gt;Node3</title>
<path fill="none" stroke="midnightblue" d="M300.166,-79.1014C318.884,-84.2253 339.963,-89.9956 359.353,-95.3032"/>
<polygon fill="midnightblue" stroke="midnightblue" points="358.446,-98.6839 369.016,-97.9484 360.295,-91.9323 358.446,-98.6839"/>
</g>
<!-- Node4 -->
<g id="node4" class="node"><title>Node4</title>
<g id="a_node4"><a xlink:href="../../dd/d18/classpocketmine_1_1scheduler_1_1_task_handler.html#ada3f8dfc580c8b687d1bea2dc9876676" target="_top" xlink:title="pocketmine\\scheduler\l\\TaskHandler\\getTask">
<polygon fill="white" stroke="black" points="364,-49 364,-79 486,-79 486,-49 364,-49"/>
<text text-anchor="start" x="372" y="-67" font-family="Helvetica,sans-Serif" font-size="10.00">pocketmine\scheduler</text>
<text text-anchor="middle" x="425" y="-56" font-family="Helvetica,sans-Serif" font-size="10.00">\TaskHandler\getTask</text>
</a>
</g>
</g>
<!-- Node2&#45;&gt;Node4 -->
<g id="edge3" class="edge"><title>Node2&#45;&gt;Node4</title>
<path fill="none" stroke="midnightblue" d="M315.746,-64C328.19,-64 341.141,-64 353.576,-64"/>
<polygon fill="midnightblue" stroke="midnightblue" points="353.878,-67.5001 363.878,-64 353.878,-60.5001 353.878,-67.5001"/>
</g>
<!-- Node5 -->
<g id="node5" class="node"><title>Node5</title>
<g id="a_node5"><a xlink:href="../../dd/d18/classpocketmine_1_1scheduler_1_1_task_handler.html#ab17cfbe429ef40a7a091b1cb63f94bc9" target="_top" xlink:title="pocketmine\\scheduler\l\\TaskHandler\\getTaskName">
<polygon fill="white" stroke="black" points="352,-0 352,-30 498,-30 498,-0 352,-0"/>
<text text-anchor="start" x="360" y="-18" font-family="Helvetica,sans-Serif" font-size="10.00">pocketmine\scheduler</text>
<text text-anchor="middle" x="425" y="-7" font-family="Helvetica,sans-Serif" font-size="10.00">\TaskHandler\getTaskName</text>
</a>
</g>
</g>
<!-- Node2&#45;&gt;Node5 -->
<g id="edge4" class="edge"><title>Node2&#45;&gt;Node5</title>
<path fill="none" stroke="midnightblue" d="M300.166,-48.8986C318.884,-43.7747 339.963,-38.0044 359.353,-32.6968"/>
<polygon fill="midnightblue" stroke="midnightblue" points="360.295,-36.0677 369.016,-30.0516 358.446,-29.3161 360.295,-36.0677"/>
</g>
</g>
</svg>
