<?xml version="1.0" encoding="UTF-8" standalone="no"?>
<!DOCTYPE svg PUBLIC "-//W3C//DTD SVG 1.1//EN"
 "http://www.w3.org/Graphics/SVG/1.1/DTD/svg11.dtd">
<!-- Generated by graphviz version 2.36.0 (20140111.2315)
 -->
<!-- Title: pocketmine\permission\PermissibleBase\addAttachment Pages: 1 -->
<!--zoomable 114 -->
<svg id="main" version="1.1" xmlns="http://www.w3.org/2000/svg" xmlns:xlink="http://www.w3.org/1999/xlink" xml:space="preserve" onload="init(evt)">
<style type="text/css"><![CDATA[
.edge:hover path { stroke: red; }
.edge:hover polygon { stroke: red; fill: red; }
]]></style>
<script type="text/javascript"><![CDATA[
var edges = document.getElementsByTagName('g');
if (edges && edges.length) {
  for (var i=0;i<edges.length;i++) {
    if (edges[i].id.substr(0,4)=='edge') {
      edges[i].setAttribute('class','edge');
    }
  }
}
]]></script>
        <defs>
                <circle id="rim" cx="0" cy="0" r="7"/>
                <circle id="rim2" cx="0" cy="0" r="3.5"/>
                <g id="zoomPlus">
                        <use xlink:href="#rim" fill="#404040">
                                <set attributeName="fill" to="#808080" begin="zoomplus.mouseover" end="zoomplus.mouseout"/>
                        </use>
                        <path d="M-4,0h8M0,-4v8" fill="none" stroke="white" stroke-width="1.5" pointer-events="none"/>
                </g>
                <g id="zoomMin">
                        <use xlink:href="#rim" fill="#404040">
                                <set attributeName="fill" to="#808080" begin="zoomminus.mouseover" end="zoomminus.mouseout"/>
                        </use>
                        <path d="M-4,0h8" fill="none" stroke="white" stroke-width="1.5" pointer-events="none"/>
                </g>
                <g id="dirArrow">
                        <path fill="none" stroke="white" stroke-width="1.5" d="M0,-3.0v7 M-2.5,-0.5L0,-3.0L2.5,-0.5"/>
                </g>
               <g id="resetDef">
                       <use xlink:href="#rim2" fill="#404040">
                               <set attributeName="fill" to="#808080" begin="reset.mouseover" end="reset.mouseout"/>
                       </use>
               </g>
        </defs>

<script type="text/javascript">
var viewWidth = 578;
var viewHeight = 114;
var sectionId = 'dynsection-2';
</script>
<script xlink:href="../../svgpan.js"/>
<svg id="graph" class="graph">
<g id="viewport">
<title>pocketmine\permission\PermissibleBase\addAttachment</title>
<polygon fill="white" stroke="none" points="-4,4 -4,-110 574,-110 574,4 -4,4"/>
<!-- Node1 -->
<g id="node1" class="node"><title>Node1</title>
<polygon fill="#bfbfbf" stroke="black" points="0,-49 0,-79 176,-79 176,-49 0,-49"/>
<text text-anchor="start" x="8" y="-67" font-family="Helvetica,sans-Serif" font-size="10.00">pocketmine\permission</text>
<text text-anchor="middle" x="88" y="-56" font-family="Helvetica,sans-Serif" font-size="10.00">\PermissibleBase\addAttachment</text>
</g>
<!-- Node2 -->
<g id="node2" class="node"><title>Node2</title>
<g id="a_node2"><a xlink:href="../../d4/d92/interfacepocketmine_1_1plugin_1_1_plugin.html#ab7ef321b514dbd4462709e5b23278b64" target="_top" xlink:title="pocketmine\\plugin\\Plugin\l\\getDescription">
<polygon fill="white" stroke="black" points="221,-76 221,-106 357,-106 357,-76 221,-76"/>
<text text-anchor="start" x="229" y="-94" font-family="Helvetica,sans-Serif" font-size="10.00">pocketmine\plugin\Plugin</text>
<text text-anchor="middle" x="289" y="-83" font-family="Helvetica,sans-Serif" font-size="10.00">\getDescription</text>
</a>
</g>
</g>
<!-- Node1&#45;&gt;Node2 -->
<g id="edge1" class="edge"><title>Node1&#45;&gt;Node2</title>
<path fill="none" stroke="midnightblue" d="M176.284,-75.8426C187.718,-77.3939 199.37,-78.9748 210.624,-80.5018"/>
<polygon fill="midnightblue" stroke="midnightblue" points="210.451,-84.0102 220.83,-81.8865 211.392,-77.0738 210.451,-84.0102"/>
</g>
<!-- Node3 -->
<g id="node3" class="node"><title>Node3</title>
<g id="a_node3"><a xlink:href="../../da/dbf/classpocketmine_1_1permission_1_1_permissible_base.html#ab66b7f051852303164883a77fe546ea1" target="_top" xlink:title="pocketmine\\permission\l\\PermissibleBase\\recalculate\lPermissions">
<polygon fill="white" stroke="black" points="212,-16.5 212,-57.5 366,-57.5 366,-16.5 212,-16.5"/>
<text text-anchor="start" x="220" y="-45.5" font-family="Helvetica,sans-Serif" font-size="10.00">pocketmine\permission</text>
<text text-anchor="start" x="220" y="-34.5" font-family="Helvetica,sans-Serif" font-size="10.00">\PermissibleBase\recalculate</text>
<text text-anchor="middle" x="289" y="-23.5" font-family="Helvetica,sans-Serif" font-size="10.00">Permissions</text>
</a>
</g>
</g>
<!-- Node1&#45;&gt;Node3 -->
<g id="edge2" class="edge"><title>Node1&#45;&gt;Node3</title>
<path fill="none" stroke="midnightblue" d="M176.284,-52.1574C184.674,-51.0191 193.181,-49.8649 201.562,-48.7277"/>
<polygon fill="midnightblue" stroke="midnightblue" points="202.269,-52.1641 211.707,-47.3513 201.327,-45.2276 202.269,-52.1641"/>
</g>
<!-- Node4 -->
<g id="node4" class="node"><title>Node4</title>
<g id="a_node4"><a xlink:href="../../d5/df7/classpocketmine_1_1_server.html#a8d9b9873eb3c7efce048f10f803c2b2e" target="_top" xlink:title="pocketmine\\Server\\getInstance">
<polygon fill="white" stroke="black" points="402.5,-49.5 402.5,-68.5 569.5,-68.5 569.5,-49.5 402.5,-49.5"/>
<text text-anchor="middle" x="486" y="-56.5" font-family="Helvetica,sans-Serif" font-size="10.00">pocketmine\Server\getInstance</text>
</a>
</g>
</g>
<!-- Node3&#45;&gt;Node4 -->
<g id="edge3" class="edge"><title>Node3&#45;&gt;Node4</title>
<path fill="none" stroke="midnightblue" d="M366.23,-45.6003C374.752,-46.5618 383.502,-47.549 392.202,-48.5305"/>
<polygon fill="midnightblue" stroke="midnightblue" points="392.047,-52.0351 402.376,-49.6783 392.831,-45.0792 392.047,-52.0351"/>
</g>
<!-- Node5 -->
<g id="node5" class="node"><title>Node5</title>
<g id="a_node5"><a xlink:href="../../da/dbf/classpocketmine_1_1permission_1_1_permissible_base.html#a4ab0a470aecab1d94a6b702f4858c9e2" target="_top" xlink:title="pocketmine\\permission\l\\PermissibleBase\\isOp">
<polygon fill="white" stroke="black" points="422,-0 422,-30 550,-30 550,-0 422,-0"/>
<text text-anchor="start" x="430" y="-18" font-family="Helvetica,sans-Serif" font-size="10.00">pocketmine\permission</text>
<text text-anchor="middle" x="486" y="-7" font-family="Helvetica,sans-Serif" font-size="10.00">\PermissibleBase\isOp</text>
</a>
</g>
</g>
<!-- Node3&#45;&gt;Node5 -->
<g id="edge4" class="edge"><title>Node3&#45;&gt;Node5</title>
<path fill="none" stroke="midnightblue" d="M366.23,-28.3997C381.158,-26.7155 396.785,-24.9524 411.618,-23.279"/>
<polygon fill="midnightblue" stroke="midnightblue" points="412.197,-26.7359 421.742,-22.1368 411.412,-19.7801 412.197,-26.7359"/>
</g>
</g>
</svg>
        <g id="navigator" transform="translate(0 0)" fill="#404254">
                <rect fill="#f2f5e9" fill-opacity="0.5" stroke="#606060" stroke-width=".5" x="0" y="0" width="60" height="60"/>
                <use id="zoomplus" xlink:href="#zoomPlus" x="17" y="9" onmousedown="handleZoom(evt,'in')"/>
                <use id="zoomminus" xlink:href="#zoomMin" x="42" y="9" onmousedown="handleZoom(evt,'out')"/>
                <use id="reset" xlink:href="#resetDef" x="30" y="36" onmousedown="handleReset()"/>
                <g id="arrowUp" xlink:href="#dirArrow" transform="translate(30 24)" onmousedown="handlePan(0,-1)">
                  <use xlink:href="#rim" fill="#404040">
                        <set attributeName="fill" to="#808080" begin="arrowUp.mouseover" end="arrowUp.mouseout"/>
                  </use>
                  <path fill="none" stroke="white" stroke-width="1.5" d="M0,-3.0v7 M-2.5,-0.5L0,-3.0L2.5,-0.5"/>
                </g>
                <g id="arrowRight" xlink:href="#dirArrow" transform="rotate(90) translate(36 -43)" onmousedown="handlePan(1,0)">
                  <use xlink:href="#rim" fill="#404040">
                        <set attributeName="fill" to="#808080" begin="arrowRight.mouseover" end="arrowRight.mouseout"/>
                  </use>
                  <path fill="none" stroke="white" stroke-width="1.5" d="M0,-3.0v7 M-2.5,-0.5L0,-3.0L2.5,-0.5"/>
                </g>
                <g id="arrowDown" xlink:href="#dirArrow" transform="rotate(180) translate(-30 -48)" onmousedown="handlePan(0,1)">
                  <use xlink:href="#rim" fill="#404040">
                        <set attributeName="fill" to="#808080" begin="arrowDown.mouseover" end="arrowDown.mouseout"/>
                  </use>
                  <path fill="none" stroke="white" stroke-width="1.5" d="M0,-3.0v7 M-2.5,-0.5L0,-3.0L2.5,-0.5"/>
                </g>
                <g id="arrowLeft" xlink:href="#dirArrow" transform="rotate(270) translate(-36 17)" onmousedown="handlePan(-1,0)">
                  <use xlink:href="#rim" fill="#404040">
                        <set attributeName="fill" to="#808080" begin="arrowLeft.mouseover" end="arrowLeft.mouseout"/>
                  </use>
                  <path fill="none" stroke="white" stroke-width="1.5" d="M0,-3.0v7 M-2.5,-0.5L0,-3.0L2.5,-0.5"/>
                </g>
        </g>
        <svg viewBox="0 0 15 15" width="100%" height="30px" preserveAspectRatio="xMaxYMin meet">
         <g id="arrow_out" transform="scale(0.3 0.3)">
          <a xlink:href="classpocketmine_1_1permission_1_1_permissible_base_adbc073b09ae5a1558610a43b37e9c86b_cgraph_org.svg" target="_base">
           <rect id="button" ry="5" rx="5" y="6" x="6" height="38" width="38"
                fill="#f2f5e9" fill-opacity="0.5" stroke="#606060" stroke-width="1.0"/>
           <path id="arrow"
             d="M 11.500037,31.436501 C 11.940474,20.09759 22.043105,11.32322 32.158766,21.979434 L 37.068811,17.246167 C 37.068811,17.246167 37.088388,32 37.088388,32 L 22.160133,31.978069 C 22.160133,31.978069 26.997745,27.140456 26.997745,27.140456 C 18.528582,18.264221 13.291696,25.230495 11.500037,31.436501 z"
             style="fill:#404040;"/>
          </a>
         </g>
        </svg>
</svg>
