<?xml version="1.0" encoding="UTF-8" standalone="no"?>
<!DOCTYPE svg PUBLIC "-//W3C//DTD SVG 1.1//EN"
 "http://www.w3.org/Graphics/SVG/1.1/DTD/svg11.dtd">
<!-- Generated by graphviz version 2.36.0 (20140111.2315)
 -->
<!-- Title: pocketmine\permission\PermissibleBase\isPermissionSet Pages: 1 -->
<svg width="350pt" height="38pt"
 viewBox="0.00 0.00 350.00 38.00" xmlns="http://www.w3.org/2000/svg" xmlns:xlink="http://www.w3.org/1999/xlink">
<g id="graph0" class="graph" transform="scale(1 1) rotate(0) translate(4 34)">
<title>pocketmine\permission\PermissibleBase\isPermissionSet</title>
<polygon fill="white" stroke="none" points="-4,4 -4,-34 346,-34 346,4 -4,4"/>
<!-- Node1 -->
<g id="node1" class="node"><title>Node1</title>
<polygon fill="#bfbfbf" stroke="black" points="0,-0 0,-30 178,-30 178,-0 0,-0"/>
<text text-anchor="start" x="8" y="-18" font-family="Helvetica,sans-Serif" font-size="10.00">pocketmine\permission</text>
<text text-anchor="middle" x="89" y="-7" font-family="Helvetica,sans-Serif" font-size="10.00">\PermissibleBase\isPermissionSet</text>
</g>
<!-- Node2 -->
<g id="node2" class="node"><title>Node2</title>
<g id="a_node2"><a xlink:href="../../db/dc3/classpocketmine_1_1permission_1_1_permission.html#a7d2c3cc786d1bba634bb234a8f593a32" target="_top" xlink:title="pocketmine\\permission\l\\Permission\\getName">
<polygon fill="white" stroke="black" points="214,-0 214,-30 342,-30 342,-0 214,-0"/>
<text text-anchor="start" x="222" y="-18" font-family="Helvetica,sans-Serif" font-size="10.00">pocketmine\permission</text>
<text text-anchor="middle" x="278" y="-7" font-family="Helvetica,sans-Serif" font-size="10.00">\Permission\getName</text>
</a>
</g>
</g>
<!-- Node1&#45;&gt;Node2 -->
<g id="edge1" class="edge"><title>Node1&#45;&gt;Node2</title>
<path fill="none" stroke="midnightblue" d="M178.024,-15C186.645,-15 195.328,-15 203.778,-15"/>
<polygon fill="midnightblue" stroke="midnightblue" points="203.951,-18.5001 213.951,-15 203.951,-11.5001 203.951,-18.5001"/>
</g>
</g>
</svg>
