<?xml version="1.0" encoding="UTF-8" standalone="no"?>
<!DOCTYPE svg PUBLIC "-//W3C//DTD SVG 1.1//EN"
 "http://www.w3.org/Graphics/SVG/1.1/DTD/svg11.dtd">
<!-- Generated by graphviz version 2.36.0 (20140111.2315)
 -->
<!-- Title: pocketmine\permission\PermissibleBase\removeAttachment Pages: 1 -->
<svg width="598pt" height="126pt"
 viewBox="0.00 0.00 598.00 126.00" xmlns="http://www.w3.org/2000/svg" xmlns:xlink="http://www.w3.org/1999/xlink">
<g id="graph0" class="graph" transform="scale(1 1) rotate(0) translate(4 122)">
<title>pocketmine\permission\PermissibleBase\removeAttachment</title>
<polygon fill="white" stroke="none" points="-4,4 -4,-122 594,-122 594,4 -4,4"/>
<!-- Node1 -->
<g id="node1" class="node"><title>Node1</title>
<polygon fill="#bfbfbf" stroke="black" points="0.5,-52 0.5,-82 195.5,-82 195.5,-52 0.5,-52"/>
<text text-anchor="start" x="8.5" y="-70" font-family="Helvetica,sans-Serif" font-size="10.00">pocketmine\permission</text>
<text text-anchor="middle" x="98" y="-59" font-family="Helvetica,sans-Serif" font-size="10.00">\PermissibleBase\removeAttachment</text>
</g>
<!-- Node2 -->
<g id="node2" class="node"><title>Node2</title>
<g id="a_node2"><a xlink:href="../../d0/d95/classpocketmine_1_1permission_1_1_permission_attachment.html#a66f2f58a4900ba2e523245ad773af70d" target="_top" xlink:title="pocketmine\\permission\l\\PermissionAttachment\l\\getRemovalCallback">
<polygon fill="white" stroke="black" points="244.5,-76.5 244.5,-117.5 373.5,-117.5 373.5,-76.5 244.5,-76.5"/>
<text text-anchor="start" x="252.5" y="-105.5" font-family="Helvetica,sans-Serif" font-size="10.00">pocketmine\permission</text>
<text text-anchor="start" x="252.5" y="-94.5" font-family="Helvetica,sans-Serif" font-size="10.00">\PermissionAttachment</text>
<text text-anchor="middle" x="309" y="-83.5" font-family="Helvetica,sans-Serif" font-size="10.00">\getRemovalCallback</text>
</a>
</g>
</g>
<!-- Node1&#45;&gt;Node2 -->
<g id="edge1" class="edge"><title>Node1&#45;&gt;Node2</title>
<path fill="none" stroke="midnightblue" d="M195.547,-80.8584C208.628,-82.7361 221.877,-84.6378 234.466,-86.4449"/>
<polygon fill="midnightblue" stroke="midnightblue" points="234.009,-89.9151 244.405,-87.8716 235.004,-82.9861 234.009,-89.9151"/>
</g>
<!-- Node3 -->
<g id="node3" class="node"><title>Node3</title>
<g id="a_node3"><a xlink:href="../../da/dbf/classpocketmine_1_1permission_1_1_permissible_base.html#ab66b7f051852303164883a77fe546ea1" target="_top" xlink:title="pocketmine\\permission\l\\PermissibleBase\\recalculate\lPermissions">
<polygon fill="white" stroke="black" points="232,-16.5 232,-57.5 386,-57.5 386,-16.5 232,-16.5"/>
<text text-anchor="start" x="240" y="-45.5" font-family="Helvetica,sans-Serif" font-size="10.00">pocketmine\permission</text>
<text text-anchor="start" x="240" y="-34.5" font-family="Helvetica,sans-Serif" font-size="10.00">\PermissibleBase\recalculate</text>
<text text-anchor="middle" x="309" y="-23.5" font-family="Helvetica,sans-Serif" font-size="10.00">Permissions</text>
</a>
</g>
</g>
<!-- Node1&#45;&gt;Node3 -->
<g id="edge2" class="edge"><title>Node1&#45;&gt;Node3</title>
<path fill="none" stroke="midnightblue" d="M195.547,-53.1416C204.311,-51.8836 213.149,-50.6149 221.815,-49.3711"/>
<polygon fill="midnightblue" stroke="midnightblue" points="222.491,-52.8099 231.893,-47.9245 221.497,-45.8809 222.491,-52.8099"/>
</g>
<!-- Node4 -->
<g id="node4" class="node"><title>Node4</title>
<g id="a_node4"><a xlink:href="../../d5/df7/classpocketmine_1_1_server.html#a8d9b9873eb3c7efce048f10f803c2b2e" target="_top" xlink:title="pocketmine\\Server\\getInstance">
<polygon fill="white" stroke="black" points="422.5,-49.5 422.5,-68.5 589.5,-68.5 589.5,-49.5 422.5,-49.5"/>
<text text-anchor="middle" x="506" y="-56.5" font-family="Helvetica,sans-Serif" font-size="10.00">pocketmine\Server\getInstance</text>
</a>
</g>
</g>
<!-- Node3&#45;&gt;Node4 -->
<g id="edge3" class="edge"><title>Node3&#45;&gt;Node4</title>
<path fill="none" stroke="midnightblue" d="M386.23,-45.6003C394.752,-46.5618 403.502,-47.549 412.202,-48.5305"/>
<polygon fill="midnightblue" stroke="midnightblue" points="412.047,-52.0351 422.376,-49.6783 412.831,-45.0792 412.047,-52.0351"/>
</g>
<!-- Node5 -->
<g id="node5" class="node"><title>Node5</title>
<g id="a_node5"><a xlink:href="../../da/dbf/classpocketmine_1_1permission_1_1_permissible_base.html#a4ab0a470aecab1d94a6b702f4858c9e2" target="_top" xlink:title="pocketmine\\permission\l\\PermissibleBase\\isOp">
<polygon fill="white" stroke="black" points="442,-0 442,-30 570,-30 570,-0 442,-0"/>
<text text-anchor="start" x="450" y="-18" font-family="Helvetica,sans-Serif" font-size="10.00">pocketmine\permission</text>
<text text-anchor="middle" x="506" y="-7" font-family="Helvetica,sans-Serif" font-size="10.00">\PermissibleBase\isOp</text>
</a>
</g>
</g>
<!-- Node3&#45;&gt;Node5 -->
<g id="edge4" class="edge"><title>Node3&#45;&gt;Node5</title>
<path fill="none" stroke="midnightblue" d="M386.23,-28.3997C401.158,-26.7155 416.785,-24.9524 431.618,-23.279"/>
<polygon fill="midnightblue" stroke="midnightblue" points="432.197,-26.7359 441.742,-22.1368 431.412,-19.7801 432.197,-26.7359"/>
</g>
</g>
</svg>
