<?xml version="1.0" encoding="UTF-8" standalone="no"?>
<!DOCTYPE svg PUBLIC "-//W3C//DTD SVG 1.1//EN"
 "http://www.w3.org/Graphics/SVG/1.1/DTD/svg11.dtd">
<!-- Generated by graphviz version 2.26.3 (20100126.1600)
 -->
<!-- Title: pocketmine\permission\PermissibleBase\calculateChildPermissions Pages: 1 -->
<svg width="562pt" height="94pt"
 viewBox="0.00 0.00 562.00 94.00" xmlns="http://www.w3.org/2000/svg" xmlns:xlink="http://www.w3.org/1999/xlink">
<g id="graph1" class="graph" transform="scale(1 1) rotate(0) translate(4 90)">
<title>pocketmine\permission\PermissibleBase\calculateChildPermissions</title>
<polygon fill="white" stroke="white" points="-4,5 -4,-90 559,-90 559,5 -4,5"/>
<!-- Node1 -->
<g id="node1" class="node"><title>Node1</title>
<polygon fill="#bfbfbf" stroke="black" points="0,-19.5 0,-66.5 158,-66.5 158,-19.5 0,-19.5"/>
<text text-anchor="start" x="8" y="-53.5" font-family="Helvetica,sans-Serif" font-size="10.00">pocketmine\permission</text>
<text text-anchor="start" x="8" y="-40.5" font-family="Helvetica,sans-Serif" font-size="10.00">\PermissibleBase\calculateChild</text>
<text text-anchor="middle" x="79" y="-27.5" font-family="Helvetica,sans-Serif" font-size="10.00">Permissions</text>
</g>
<!-- Node2 -->
<g id="node3" class="node"><title>Node2</title>
<a xlink:href="../../da/dbf/classpocketmine_1_1permission_1_1_permissible_base.html#ab66b7f051852303164883a77fe546ea1" target="_top" xlink:title="pocketmine\\permission\l\\PermissibleBase\\recalculate\lPermissions">
<polygon fill="white" stroke="black" points="194.5,-19.5 194.5,-66.5 337.5,-66.5 337.5,-19.5 194.5,-19.5"/>
<text text-anchor="start" x="202.5" y="-53.5" font-family="Helvetica,sans-Serif" font-size="10.00">pocketmine\permission</text>
<text text-anchor="start" x="202.5" y="-40.5" font-family="Helvetica,sans-Serif" font-size="10.00">\PermissibleBase\recalculate</text>
<text text-anchor="middle" x="266" y="-27.5" font-family="Helvetica,sans-Serif" font-size="10.00">Permissions</text>
</a>
</g>
<!-- Node1&#45;&gt;Node2 -->
<g id="edge2" class="edge"><title>Node1&#45;&gt;Node2</title>
<path fill="none" stroke="midnightblue" d="M168.27,-43C177.025,-43 185.83,-43 194.376,-43"/>
<polygon fill="midnightblue" stroke="midnightblue" points="168.034,-39.5001 158.034,-43 168.034,-46.5001 168.034,-39.5001"/>
</g>
<!-- Node3 -->
<g id="node5" class="node"><title>Node3</title>
<a xlink:href="../../da/dbf/classpocketmine_1_1permission_1_1_permissible_base.html#adbc073b09ae5a1558610a43b37e9c86b" target="_top" xlink:title="pocketmine\\permission\l\\PermissibleBase\\addAttachment">
<polygon fill="white" stroke="black" points="383,-52 383,-86 545,-86 545,-52 383,-52"/>
<text text-anchor="start" x="391" y="-73" font-family="Helvetica,sans-Serif" font-size="10.00">pocketmine\permission</text>
<text text-anchor="middle" x="464" y="-60" font-family="Helvetica,sans-Serif" font-size="10.00">\PermissibleBase\addAttachment</text>
</a>
</g>
<!-- Node2&#45;&gt;Node3 -->
<g id="edge4" class="edge"><title>Node2&#45;&gt;Node3</title>
<path fill="none" stroke="midnightblue" d="M347.808,-53.7424C359.351,-55.2582 371.216,-56.8163 382.749,-58.3307"/>
<polygon fill="midnightblue" stroke="midnightblue" points="348.133,-50.2552 337.762,-52.4234 347.222,-57.1956 348.133,-50.2552"/>
</g>
<!-- Node4 -->
<g id="node7" class="node"><title>Node4</title>
<a xlink:href="../../da/dbf/classpocketmine_1_1permission_1_1_permissible_base.html#ab430f0d21c423f8761e345fdcad3bc97" target="_top" xlink:title="pocketmine\\permission\l\\PermissibleBase\\removeAttachment">
<polygon fill="white" stroke="black" points="374.5,-0 374.5,-34 553.5,-34 553.5,-0 374.5,-0"/>
<text text-anchor="start" x="382.5" y="-21" font-family="Helvetica,sans-Serif" font-size="10.00">pocketmine\permission</text>
<text text-anchor="middle" x="464" y="-8" font-family="Helvetica,sans-Serif" font-size="10.00">\PermissibleBase\removeAttachment</text>
</a>
</g>
<!-- Node2&#45;&gt;Node4 -->
<g id="edge6" class="edge"><title>Node2&#45;&gt;Node4</title>
<path fill="none" stroke="midnightblue" d="M347.871,-32.2492C356.568,-31.1073 365.446,-29.9414 374.227,-28.7884"/>
<polygon fill="midnightblue" stroke="midnightblue" points="347.222,-28.8044 337.762,-33.5766 348.133,-35.7448 347.222,-28.8044"/>
</g>
</g>
</svg>
