<?xml version="1.0" encoding="UTF-8" standalone="no"?>
<!DOCTYPE svg PUBLIC "-//W3C//DTD SVG 1.1//EN"
 "http://www.w3.org/Graphics/SVG/1.1/DTD/svg11.dtd">
<!-- Generated by graphviz version 2.26.3 (20100126.1600)
 -->
<!-- Title: pocketmine\permission\PermissibleBase\removeAttachment Pages: 1 -->
<svg width="750pt" height="160pt"
 viewBox="0.00 0.00 750.00 160.00" xmlns="http://www.w3.org/2000/svg" xmlns:xlink="http://www.w3.org/1999/xlink">
<g id="graph1" class="graph" transform="scale(1 1) rotate(0) translate(4 156)">
<title>pocketmine\permission\PermissibleBase\removeAttachment</title>
<polygon fill="white" stroke="white" points="-4,5 -4,-156 747,-156 747,5 -4,5"/>
<!-- Node1 -->
<g id="node1" class="node"><title>Node1</title>
<polygon fill="#bfbfbf" stroke="black" points="0.5,-78 0.5,-112 179.5,-112 179.5,-78 0.5,-78"/>
<text text-anchor="start" x="8.5" y="-99" font-family="Helvetica,sans-Serif" font-size="10.00">pocketmine\permission</text>
<text text-anchor="middle" x="90" y="-86" font-family="Helvetica,sans-Serif" font-size="10.00">\PermissibleBase\removeAttachment</text>
</g>
<!-- Node2 -->
<g id="node3" class="node"><title>Node2</title>
<a xlink:href="../../d0/d95/classpocketmine_1_1permission_1_1_permission_attachment.html#a66f2f58a4900ba2e523245ad773af70d" target="_top" xlink:title="pocketmine\\permission\l\\PermissionAttachment\l\\getRemovalCallback">
<polygon fill="white" stroke="black" points="228.5,-104.5 228.5,-151.5 347.5,-151.5 347.5,-104.5 228.5,-104.5"/>
<text text-anchor="start" x="236.5" y="-138.5" font-family="Helvetica,sans-Serif" font-size="10.00">pocketmine\permission</text>
<text text-anchor="start" x="236.5" y="-125.5" font-family="Helvetica,sans-Serif" font-size="10.00">\PermissionAttachment</text>
<text text-anchor="middle" x="288" y="-112.5" font-family="Helvetica,sans-Serif" font-size="10.00">\getRemovalCallback</text>
</a>
</g>
<!-- Node1&#45;&gt;Node2 -->
<g id="edge2" class="edge"><title>Node1&#45;&gt;Node2</title>
<path fill="none" stroke="midnightblue" d="M179.731,-109.955C192.73,-112.122 205.943,-114.324 218.465,-116.411"/>
<polygon fill="midnightblue" stroke="midnightblue" points="217.902,-119.865 228.342,-118.057 219.053,-112.961 217.902,-119.865"/>
</g>
<!-- Node3 -->
<g id="node5" class="node"><title>Node3</title>
<a xlink:href="../../da/dbf/classpocketmine_1_1permission_1_1_permissible_base.html#ab66b7f051852303164883a77fe546ea1" target="_top" xlink:title="pocketmine\\permission\l\\PermissibleBase\\recalculate\lPermissions">
<polygon fill="white" stroke="black" points="216.5,-38.5 216.5,-85.5 359.5,-85.5 359.5,-38.5 216.5,-38.5"/>
<text text-anchor="start" x="224.5" y="-72.5" font-family="Helvetica,sans-Serif" font-size="10.00">pocketmine\permission</text>
<text text-anchor="start" x="224.5" y="-59.5" font-family="Helvetica,sans-Serif" font-size="10.00">\PermissibleBase\recalculate</text>
<text text-anchor="middle" x="288" y="-46.5" font-family="Helvetica,sans-Serif" font-size="10.00">Permissions</text>
</a>
</g>
<!-- Node1&#45;&gt;Node3 -->
<g id="edge4" class="edge"><title>Node1&#45;&gt;Node3</title>
<path fill="none" stroke="midnightblue" d="M179.731,-80.0449C188.652,-78.558 197.674,-77.0543 206.505,-75.5825"/>
<polygon fill="midnightblue" stroke="midnightblue" points="207.089,-79.0335 216.378,-73.9371 205.938,-72.1288 207.089,-79.0335"/>
</g>
<!-- Node4 -->
<g id="node7" class="node"><title>Node4</title>
<a xlink:href="../../da/dbf/classpocketmine_1_1permission_1_1_permissible_base.html#aa78b67ae93c13a60a72e7cae1665e0e4" target="_top" xlink:title="pocketmine\\permission\l\\PermissibleBase\\calculateChild\lPermissions">
<polygon fill="white" stroke="black" points="396,-90.5 396,-137.5 554,-137.5 554,-90.5 396,-90.5"/>
<text text-anchor="start" x="404" y="-124.5" font-family="Helvetica,sans-Serif" font-size="10.00">pocketmine\permission</text>
<text text-anchor="start" x="404" y="-111.5" font-family="Helvetica,sans-Serif" font-size="10.00">\PermissibleBase\calculateChild</text>
<text text-anchor="middle" x="475" y="-98.5" font-family="Helvetica,sans-Serif" font-size="10.00">Permissions</text>
</a>
</g>
<!-- Node3&#45;&gt;Node4 -->
<g id="edge6" class="edge"><title>Node3&#45;&gt;Node4</title>
<path fill="none" stroke="midnightblue" d="M359.764,-81.9558C368.37,-84.3489 377.236,-86.8144 386.048,-89.2648"/>
<polygon fill="midnightblue" stroke="midnightblue" points="385.386,-92.7132 395.958,-92.0203 387.261,-85.9691 385.386,-92.7132"/>
</g>
<!-- Node5 -->
<g id="node9" class="node"><title>Node5</title>
<a xlink:href="../../d5/df7/classpocketmine_1_1_server.html#a8d9b9873eb3c7efce048f10f803c2b2e" target="_top" xlink:title="pocketmine\\Server\\getInstance">
<polygon fill="white" stroke="black" points="590,-77.5 590,-98.5 742,-98.5 742,-77.5 590,-77.5"/>
<text text-anchor="middle" x="666" y="-85.5" font-family="Helvetica,sans-Serif" font-size="10.00">pocketmine\Server\getInstance</text>
</a>
</g>
<!-- Node3&#45;&gt;Node5 -->
<g id="edge10" class="edge"><title>Node3&#45;&gt;Node5</title>
<path fill="none" stroke="midnightblue" d="M359.543,-66.921C422.146,-71.2269 513.232,-77.4921 579.829,-82.0729"/>
<polygon fill="midnightblue" stroke="midnightblue" points="579.668,-85.57 589.885,-82.7646 580.149,-78.5865 579.668,-85.57"/>
</g>
<!-- Node6 -->
<g id="node12" class="node"><title>Node6</title>
<a xlink:href="../../da/dbf/classpocketmine_1_1permission_1_1_permissible_base.html#a4ab0a470aecab1d94a6b702f4858c9e2" target="_top" xlink:title="pocketmine\\permission\l\\PermissibleBase\\isOp">
<polygon fill="white" stroke="black" points="416.5,-0 416.5,-34 533.5,-34 533.5,-0 416.5,-0"/>
<text text-anchor="start" x="424.5" y="-21" font-family="Helvetica,sans-Serif" font-size="10.00">pocketmine\permission</text>
<text text-anchor="middle" x="475" y="-8" font-family="Helvetica,sans-Serif" font-size="10.00">\PermissibleBase\isOp</text>
</a>
</g>
<!-- Node3&#45;&gt;Node6 -->
<g id="edge12" class="edge"><title>Node3&#45;&gt;Node6</title>
<path fill="none" stroke="midnightblue" d="M359.764,-44.7305C375.142,-41.0301 391.349,-37.1299 406.595,-33.461"/>
<polygon fill="midnightblue" stroke="midnightblue" points="407.554,-36.8304 416.457,-31.0878 405.916,-30.0247 407.554,-36.8304"/>
</g>
<!-- Node4&#45;&gt;Node5 -->
<g id="edge8" class="edge"><title>Node4&#45;&gt;Node5</title>
<path fill="none" stroke="midnightblue" d="M554.066,-103.237C562.549,-102.082 571.21,-100.903 579.771,-99.738"/>
<polygon fill="midnightblue" stroke="midnightblue" points="580.321,-103.195 589.758,-98.3786 579.377,-96.2594 580.321,-103.195"/>
</g>
</g>
</svg>
