<?xml version="1.0" encoding="UTF-8" standalone="no"?>
<!DOCTYPE svg PUBLIC "-//W3C//DTD SVG 1.1//EN"
 "http://www.w3.org/Graphics/SVG/1.1/DTD/svg11.dtd">
<!-- Generated by graphviz version 2.36.0 (20140111.2315)
 -->
<!-- Title: pocketmine\permission\PermissibleBase\recalculatePermissions Pages: 1 -->
<svg width="366pt" height="77pt"
 viewBox="0.00 0.00 366.00 77.00" xmlns="http://www.w3.org/2000/svg" xmlns:xlink="http://www.w3.org/1999/xlink">
<g id="graph0" class="graph" transform="scale(1 1) rotate(0) translate(4 73)">
<title>pocketmine\permission\PermissibleBase\recalculatePermissions</title>
<polygon fill="white" stroke="none" points="-4,4 -4,-73 362,-73 362,4 -4,4"/>
<!-- Node1 -->
<g id="node1" class="node"><title>Node1</title>
<polygon fill="#bfbfbf" stroke="black" points="0,-16.5 0,-57.5 154,-57.5 154,-16.5 0,-16.5"/>
<text text-anchor="start" x="8" y="-45.5" font-family="Helvetica,sans-Serif" font-size="10.00">pocketmine\permission</text>
<text text-anchor="start" x="8" y="-34.5" font-family="Helvetica,sans-Serif" font-size="10.00">\PermissibleBase\recalculate</text>
<text text-anchor="middle" x="77" y="-23.5" font-family="Helvetica,sans-Serif" font-size="10.00">Permissions</text>
</g>
<!-- Node2 -->
<g id="node2" class="node"><title>Node2</title>
<g id="a_node2"><a xlink:href="../../d5/df7/classpocketmine_1_1_server.html#a8d9b9873eb3c7efce048f10f803c2b2e" target="_top" xlink:title="pocketmine\\Server\\getInstance">
<polygon fill="white" stroke="black" points="190.5,-49.5 190.5,-68.5 357.5,-68.5 357.5,-49.5 190.5,-49.5"/>
<text text-anchor="middle" x="274" y="-56.5" font-family="Helvetica,sans-Serif" font-size="10.00">pocketmine\Server\getInstance</text>
</a>
</g>
</g>
<!-- Node1&#45;&gt;Node2 -->
<g id="edge1" class="edge"><title>Node1&#45;&gt;Node2</title>
<path fill="none" stroke="midnightblue" d="M154.23,-45.6003C162.752,-46.5618 171.502,-47.549 180.202,-48.5305"/>
<polygon fill="midnightblue" stroke="midnightblue" points="180.047,-52.0351 190.376,-49.6783 180.831,-45.0792 180.047,-52.0351"/>
</g>
<!-- Node3 -->
<g id="node3" class="node"><title>Node3</title>
<g id="a_node3"><a xlink:href="../../da/dbf/classpocketmine_1_1permission_1_1_permissible_base.html#a4ab0a470aecab1d94a6b702f4858c9e2" target="_top" xlink:title="pocketmine\\permission\l\\PermissibleBase\\isOp">
<polygon fill="white" stroke="black" points="210,-0 210,-30 338,-30 338,-0 210,-0"/>
<text text-anchor="start" x="218" y="-18" font-family="Helvetica,sans-Serif" font-size="10.00">pocketmine\permission</text>
<text text-anchor="middle" x="274" y="-7" font-family="Helvetica,sans-Serif" font-size="10.00">\PermissibleBase\isOp</text>
</a>
</g>
</g>
<!-- Node1&#45;&gt;Node3 -->
<g id="edge2" class="edge"><title>Node1&#45;&gt;Node3</title>
<path fill="none" stroke="midnightblue" d="M154.23,-28.3997C169.158,-26.7155 184.785,-24.9524 199.618,-23.279"/>
<polygon fill="midnightblue" stroke="midnightblue" points="200.197,-26.7359 209.742,-22.1368 199.412,-19.7801 200.197,-26.7359"/>
</g>
</g>
</svg>
