<?xml version="1.0" encoding="UTF-8" standalone="no"?>
<!DOCTYPE svg PUBLIC "-//W3C//DTD SVG 1.1//EN"
 "http://www.w3.org/Graphics/SVG/1.1/DTD/svg11.dtd">
<!-- Generated by graphviz version 2.36.0 (20140111.2315)
 -->
<!-- Title: pocketmine\permission\PermissibleBase\hasPermission Pages: 1 -->
<svg width="558pt" height="126pt"
 viewBox="0.00 0.00 558.00 126.00" xmlns="http://www.w3.org/2000/svg" xmlns:xlink="http://www.w3.org/1999/xlink">
<g id="graph0" class="graph" transform="scale(1 1) rotate(0) translate(4 122)">
<title>pocketmine\permission\PermissibleBase\hasPermission</title>
<polygon fill="white" stroke="none" points="-4,4 -4,-122 554,-122 554,4 -4,4"/>
<!-- Node1 -->
<g id="node1" class="node"><title>Node1</title>
<polygon fill="#bfbfbf" stroke="black" points="0.5,-49 0.5,-79 171.5,-79 171.5,-49 0.5,-49"/>
<text text-anchor="start" x="8.5" y="-67" font-family="Helvetica,sans-Serif" font-size="10.00">pocketmine\permission</text>
<text text-anchor="middle" x="86" y="-56" font-family="Helvetica,sans-Serif" font-size="10.00">\PermissibleBase\hasPermission</text>
</g>
<!-- Node2 -->
<g id="node2" class="node"><title>Node2</title>
<g id="a_node2"><a xlink:href="../../d5/df7/classpocketmine_1_1_server.html#a8d9b9873eb3c7efce048f10f803c2b2e" target="_top" xlink:title="pocketmine\\Server\\getInstance">
<polygon fill="white" stroke="black" points="213.5,-98.5 213.5,-117.5 380.5,-117.5 380.5,-98.5 213.5,-98.5"/>
<text text-anchor="middle" x="297" y="-105.5" font-family="Helvetica,sans-Serif" font-size="10.00">pocketmine\Server\getInstance</text>
</a>
</g>
</g>
<!-- Node1&#45;&gt;Node2 -->
<g id="edge1" class="edge"><title>Node1&#45;&gt;Node2</title>
<path fill="none" stroke="midnightblue" d="M158.341,-79.0192C185.38,-84.7115 215.722,-91.0994 241.025,-96.4264"/>
<polygon fill="midnightblue" stroke="midnightblue" points="240.309,-99.8523 250.816,-98.4876 241.752,-93.0025 240.309,-99.8523"/>
</g>
<!-- Node3 -->
<g id="node3" class="node"><title>Node3</title>
<g id="a_node3"><a xlink:href="../../da/dbf/classpocketmine_1_1permission_1_1_permissible_base.html#a4ab0a470aecab1d94a6b702f4858c9e2" target="_top" xlink:title="pocketmine\\permission\l\\PermissibleBase\\isOp">
<polygon fill="white" stroke="black" points="233,-49 233,-79 361,-79 361,-49 233,-49"/>
<text text-anchor="start" x="241" y="-67" font-family="Helvetica,sans-Serif" font-size="10.00">pocketmine\permission</text>
<text text-anchor="middle" x="297" y="-56" font-family="Helvetica,sans-Serif" font-size="10.00">\PermissibleBase\isOp</text>
</a>
</g>
</g>
<!-- Node1&#45;&gt;Node3 -->
<g id="edge2" class="edge"><title>Node1&#45;&gt;Node3</title>
<path fill="none" stroke="midnightblue" d="M171.707,-64C188.574,-64 206.155,-64 222.604,-64"/>
<polygon fill="midnightblue" stroke="midnightblue" points="222.684,-67.5001 232.684,-64 222.684,-60.5001 222.684,-67.5001"/>
</g>
<!-- Node4 -->
<g id="node4" class="node"><title>Node4</title>
<g id="a_node4"><a xlink:href="../../da/dbf/classpocketmine_1_1permission_1_1_permissible_base.html#ad519cc1b25de3684253dfd13c9b13054" target="_top" xlink:title="pocketmine\\permission\l\\PermissibleBase\\isPermissionSet">
<polygon fill="white" stroke="black" points="208,-0 208,-30 386,-30 386,-0 208,-0"/>
<text text-anchor="start" x="216" y="-18" font-family="Helvetica,sans-Serif" font-size="10.00">pocketmine\permission</text>
<text text-anchor="middle" x="297" y="-7" font-family="Helvetica,sans-Serif" font-size="10.00">\PermissibleBase\isPermissionSet</text>
</a>
</g>
</g>
<!-- Node1&#45;&gt;Node4 -->
<g id="edge3" class="edge"><title>Node1&#45;&gt;Node4</title>
<path fill="none" stroke="midnightblue" d="M151.127,-48.9654C173.596,-43.6976 199.007,-37.7399 222.203,-32.3016"/>
<polygon fill="midnightblue" stroke="midnightblue" points="223.057,-35.6965 231.994,-30.0062 221.459,-28.8813 223.057,-35.6965"/>
</g>
<!-- Node5 -->
<g id="node5" class="node"><title>Node5</title>
<g id="a_node5"><a xlink:href="../../db/dc3/classpocketmine_1_1permission_1_1_permission.html#a7d2c3cc786d1bba634bb234a8f593a32" target="_top" xlink:title="pocketmine\\permission\l\\Permission\\getName">
<polygon fill="white" stroke="black" points="422,-0 422,-30 550,-30 550,-0 422,-0"/>
<text text-anchor="start" x="430" y="-18" font-family="Helvetica,sans-Serif" font-size="10.00">pocketmine\permission</text>
<text text-anchor="middle" x="486" y="-7" font-family="Helvetica,sans-Serif" font-size="10.00">\Permission\getName</text>
</a>
</g>
</g>
<!-- Node4&#45;&gt;Node5 -->
<g id="edge4" class="edge"><title>Node4&#45;&gt;Node5</title>
<path fill="none" stroke="midnightblue" d="M386.024,-15C394.645,-15 403.328,-15 411.778,-15"/>
<polygon fill="midnightblue" stroke="midnightblue" points="411.951,-18.5001 421.951,-15 411.951,-11.5001 411.951,-18.5001"/>
</g>
</g>
</svg>
