<?xml version="1.0" encoding="UTF-8" standalone="no"?>
<!DOCTYPE svg PUBLIC "-//W3C//DTD SVG 1.1//EN"
 "http://www.w3.org/Graphics/SVG/1.1/DTD/svg11.dtd">
<!-- Generated by graphviz version 2.26.3 (20100126.1600)
 -->
<!-- Title: pocketmine\utils\MainLogger\getLogger Pages: 1 -->
<svg width="318pt" height="56pt"
 viewBox="0.00 0.00 318.00 56.00" xmlns="http://www.w3.org/2000/svg" xmlns:xlink="http://www.w3.org/1999/xlink">
<g id="graph1" class="graph" transform="scale(1 1) rotate(0) translate(4 52)">
<title>pocketmine\utils\MainLogger\getLogger</title>
<polygon fill="white" stroke="white" points="-4,5 -4,-52 315,-52 315,5 -4,5"/>
<!-- Node1 -->
<g id="node1" class="node"><title>Node1</title>
<polygon fill="#bfbfbf" stroke="black" points="0.5,-7 0.5,-41 141.5,-41 141.5,-7 0.5,-7"/>
<text text-anchor="start" x="8.5" y="-28" font-family="Helvetica,sans-Serif" font-size="10.00">pocketmine\utils\MainLogger</text>
<text text-anchor="middle" x="71" y="-15" font-family="Helvetica,sans-Serif" font-size="10.00">\getLogger</text>
</g>
<!-- Node2 -->
<g id="node3" class="node"><title>Node2</title>
<a xlink:href="../../d4/d42/classpocketmine_1_1command_1_1_console_command_sender.html#a83f92029fca889140a00c4fbf7b5c0c6" target="_top" xlink:title="pocketmine\\command\l\\ConsoleCommandSender\l\\sendMessage">
<polygon fill="white" stroke="black" points="178.5,-0.5 178.5,-47.5 309.5,-47.5 309.5,-0.5 178.5,-0.5"/>
<text text-anchor="start" x="186.5" y="-34.5" font-family="Helvetica,sans-Serif" font-size="10.00">pocketmine\command</text>
<text text-anchor="start" x="186.5" y="-21.5" font-family="Helvetica,sans-Serif" font-size="10.00">\ConsoleCommandSender</text>
<text text-anchor="middle" x="244" y="-8.5" font-family="Helvetica,sans-Serif" font-size="10.00">\sendMessage</text>
</a>
</g>
<!-- Node1&#45;&gt;Node2 -->
<g id="edge2" class="edge"><title>Node1&#45;&gt;Node2</title>
<path fill="none" stroke="midnightblue" d="M152.099,-24C160.864,-24 169.704,-24 178.256,-24"/>
<polygon fill="midnightblue" stroke="midnightblue" points="151.865,-20.5001 141.865,-24 151.865,-27.5001 151.865,-20.5001"/>
</g>
</g>
</svg>
