<?xml version="1.0" encoding="UTF-8" standalone="no"?>
<!DOCTYPE svg PUBLIC "-//W3C//DTD SVG 1.1//EN"
 "http://www.w3.org/Graphics/SVG/1.1/DTD/svg11.dtd">
<!-- Generated by graphviz version 2.36.0 (20140111.2315)
 -->
<!-- Title: pocketmine\network\protocol\SetTimePacket Pages: 1 -->
<svg width="140pt" height="518pt"
 viewBox="0.00 0.00 140.00 518.00" xmlns="http://www.w3.org/2000/svg" xmlns:xlink="http://www.w3.org/1999/xlink">
<g id="graph0" class="graph" transform="scale(1 1) rotate(0) translate(4 514)">
<title>pocketmine\network\protocol\SetTimePacket</title>
<polygon fill="white" stroke="none" points="-4,4 -4,-514 136,-514 136,4 -4,4"/>
<!-- Node1 -->
<g id="node1" class="node"><title>Node1</title>
<polygon fill="#bfbfbf" stroke="black" points="-0.5,-0.5 -0.5,-123.5 132.5,-123.5 132.5,-0.5 -0.5,-0.5"/>
<text text-anchor="start" x="7.5" y="-111.5" font-family="Helvetica,sans-Serif" font-size="10.00">pocketmine\network</text>
<text text-anchor="middle" x="66" y="-100.5" font-family="Helvetica,sans-Serif" font-size="10.00">\protocol\SetTimePacket</text>
<polyline fill="none" stroke="black" points="-0.5,-93.5 132.5,-93.5 "/>
<text text-anchor="start" x="7.5" y="-81.5" font-family="Helvetica,sans-Serif" font-size="10.00">+ $time</text>
<text text-anchor="start" x="7.5" y="-70.5" font-family="Helvetica,sans-Serif" font-size="10.00">+ $started</text>
<text text-anchor="start" x="7.5" y="-59.5" font-family="Helvetica,sans-Serif" font-size="10.00">+ $pool</text>
<text text-anchor="start" x="7.5" y="-48.5" font-family="Helvetica,sans-Serif" font-size="10.00">+ $next</text>
<polyline fill="none" stroke="black" points="-0.5,-41.5 132.5,-41.5 "/>
<text text-anchor="start" x="7.5" y="-29.5" font-family="Helvetica,sans-Serif" font-size="10.00">+ pid()</text>
<text text-anchor="start" x="7.5" y="-18.5" font-family="Helvetica,sans-Serif" font-size="10.00">+ decode()</text>
<text text-anchor="start" x="7.5" y="-7.5" font-family="Helvetica,sans-Serif" font-size="10.00">+ encode()</text>
</g>
<!-- Node2 -->
<g id="node2" class="node"><title>Node2</title>
<g id="a_node2"><a xlink:href="../../d0/d90/classpocketmine_1_1network_1_1protocol_1_1_data_packet.html" target="_top" xlink:title="{pocketmine\\network\l\\protocol\\DataPacket\n|+ $buffer\l+ $isEncoded\l|+ pid()\l+ encode()\l+ decode()\l+ setBuffer()\l+ getBuffer()\l+ clean()\l# reset()\l# get()\l# put()\l# getLong()\l# putLong()\l# getInt()\l# putInt()\l# getShort()\l# putShort()\l# getFloat()\land 14 more...\l}">
<polygon fill="white" stroke="black" points="8,-160.5 8,-415.5 124,-415.5 124,-160.5 8,-160.5"/>
<text text-anchor="start" x="16" y="-403.5" font-family="Helvetica,sans-Serif" font-size="10.00">pocketmine\network</text>
<text text-anchor="middle" x="66" y="-392.5" font-family="Helvetica,sans-Serif" font-size="10.00">\protocol\DataPacket</text>
<polyline fill="none" stroke="black" points="8,-385.5 124,-385.5 "/>
<text text-anchor="start" x="16" y="-373.5" font-family="Helvetica,sans-Serif" font-size="10.00">+ $buffer</text>
<text text-anchor="start" x="16" y="-362.5" font-family="Helvetica,sans-Serif" font-size="10.00">+ $isEncoded</text>
<polyline fill="none" stroke="black" points="8,-355.5 124,-355.5 "/>
<text text-anchor="start" x="16" y="-343.5" font-family="Helvetica,sans-Serif" font-size="10.00">+ pid()</text>
<text text-anchor="start" x="16" y="-332.5" font-family="Helvetica,sans-Serif" font-size="10.00">+ encode()</text>
<text text-anchor="start" x="16" y="-321.5" font-family="Helvetica,sans-Serif" font-size="10.00">+ decode()</text>
<text text-anchor="start" x="16" y="-310.5" font-family="Helvetica,sans-Serif" font-size="10.00">+ setBuffer()</text>
<text text-anchor="start" x="16" y="-299.5" font-family="Helvetica,sans-Serif" font-size="10.00">+ getBuffer()</text>
<text text-anchor="start" x="16" y="-288.5" font-family="Helvetica,sans-Serif" font-size="10.00">+ clean()</text>
<text text-anchor="start" x="16" y="-277.5" font-family="Helvetica,sans-Serif" font-size="10.00"># reset()</text>
<text text-anchor="start" x="16" y="-266.5" font-family="Helvetica,sans-Serif" font-size="10.00"># get()</text>
<text text-anchor="start" x="16" y="-255.5" font-family="Helvetica,sans-Serif" font-size="10.00"># put()</text>
<text text-anchor="start" x="16" y="-244.5" font-family="Helvetica,sans-Serif" font-size="10.00"># getLong()</text>
<text text-anchor="start" x="16" y="-233.5" font-family="Helvetica,sans-Serif" font-size="10.00"># putLong()</text>
<text text-anchor="start" x="16" y="-222.5" font-family="Helvetica,sans-Serif" font-size="10.00"># getInt()</text>
<text text-anchor="start" x="16" y="-211.5" font-family="Helvetica,sans-Serif" font-size="10.00"># putInt()</text>
<text text-anchor="start" x="16" y="-200.5" font-family="Helvetica,sans-Serif" font-size="10.00"># getShort()</text>
<text text-anchor="start" x="16" y="-189.5" font-family="Helvetica,sans-Serif" font-size="10.00"># putShort()</text>
<text text-anchor="start" x="16" y="-178.5" font-family="Helvetica,sans-Serif" font-size="10.00"># getFloat()</text>
<text text-anchor="start" x="16" y="-167.5" font-family="Helvetica,sans-Serif" font-size="10.00">and 14 more...</text>
</a>
</g>
</g>
<!-- Node2&#45;&gt;Node1 -->
<g id="edge1" class="edge"><title>Node2&#45;&gt;Node1</title>
<path fill="none" stroke="midnightblue" d="M66,-150.242C66,-141.071 66,-132.133 66,-123.691"/>
<polygon fill="none" stroke="midnightblue" points="62.5001,-150.272 66,-160.272 69.5001,-150.272 62.5001,-150.272"/>
</g>
<!-- Node3 -->
<g id="node3" class="node"><title>Node3</title>
<polygon fill="white" stroke="#bfbfbf" points="37.5,-452.5 37.5,-509.5 94.5,-509.5 94.5,-452.5 37.5,-452.5"/>
<text text-anchor="middle" x="66" y="-497.5" font-family="Helvetica,sans-Serif" font-size="10.00">stdClass</text>
<polyline fill="none" stroke="#bfbfbf" points="37.5,-490.5 94.5,-490.5 "/>
<text text-anchor="middle" x="66" y="-478.5" font-family="Helvetica,sans-Serif" font-size="10.00"> </text>
<polyline fill="none" stroke="#bfbfbf" points="37.5,-471.5 94.5,-471.5 "/>
<text text-anchor="middle" x="66" y="-459.5" font-family="Helvetica,sans-Serif" font-size="10.00"> </text>
</g>
<!-- Node3&#45;&gt;Node2 -->
<g id="edge2" class="edge"><title>Node3&#45;&gt;Node2</title>
<path fill="none" stroke="midnightblue" d="M66,-442.196C66,-434.157 66,-425.246 66,-415.881"/>
<polygon fill="none" stroke="midnightblue" points="62.5001,-442.227 66,-452.227 69.5001,-442.227 62.5001,-442.227"/>
</g>
</g>
</svg>
