<?xml version="1.0" encoding="UTF-8" standalone="no"?>
<!DOCTYPE svg PUBLIC "-//W3C//DTD SVG 1.1//EN"
 "http://www.w3.org/Graphics/SVG/1.1/DTD/svg11.dtd">
<!-- Generated by graphviz version 2.36.0 (20140111.2315)
 -->
<!-- Title: pocketmine\level\Position\getLevel Pages: 1 -->
<!--zoomable 743 -->
<svg id="main" version="1.1" xmlns="http://www.w3.org/2000/svg" xmlns:xlink="http://www.w3.org/1999/xlink" xml:space="preserve" onload="init(evt)">
<style type="text/css"><![CDATA[
.edge:hover path { stroke: red; }
.edge:hover polygon { stroke: red; fill: red; }
]]></style>
<script type="text/javascript"><![CDATA[
var edges = document.getElementsByTagName('g');
if (edges && edges.length) {
  for (var i=0;i<edges.length;i++) {
    if (edges[i].id.substr(0,4)=='edge') {
      edges[i].setAttribute('class','edge');
    }
  }
}
]]></script>
        <defs>
                <circle id="rim" cx="0" cy="0" r="7"/>
                <circle id="rim2" cx="0" cy="0" r="3.5"/>
                <g id="zoomPlus">
                        <use xlink:href="#rim" fill="#404040">
                                <set attributeName="fill" to="#808080" begin="zoomplus.mouseover" end="zoomplus.mouseout"/>
                        </use>
                        <path d="M-4,0h8M0,-4v8" fill="none" stroke="white" stroke-width="1.5" pointer-events="none"/>
                </g>
                <g id="zoomMin">
                        <use xlink:href="#rim" fill="#404040">
                                <set attributeName="fill" to="#808080" begin="zoomminus.mouseover" end="zoomminus.mouseout"/>
                        </use>
                        <path d="M-4,0h8" fill="none" stroke="white" stroke-width="1.5" pointer-events="none"/>
                </g>
                <g id="dirArrow">
                        <path fill="none" stroke="white" stroke-width="1.5" d="M0,-3.0v7 M-2.5,-0.5L0,-3.0L2.5,-0.5"/>
                </g>
               <g id="resetDef">
                       <use xlink:href="#rim2" fill="#404040">
                               <set attributeName="fill" to="#808080" begin="reset.mouseover" end="reset.mouseout"/>
                       </use>
               </g>
        </defs>

<script type="text/javascript">
var viewWidth = 536;
var viewHeight = 743;
var sectionId = 'dynsection-9';
</script>
<script xlink:href="../../svgpan.js"/>
<svg id="graph" class="graph">
<g id="viewport">
<title>pocketmine\level\Position\getLevel</title>
<polygon fill="white" stroke="none" points="-4,4 -4,-739 532,-739 532,4 -4,4"/>
<!-- Node1 -->
<g id="node1" class="node"><title>Node1</title>
<polygon fill="#bfbfbf" stroke="black" points="0,-347 0,-377 138,-377 138,-347 0,-347"/>
<text text-anchor="start" x="8" y="-365" font-family="Helvetica,sans-Serif" font-size="10.00">pocketmine\level\Position</text>
<text text-anchor="middle" x="69" y="-354" font-family="Helvetica,sans-Serif" font-size="10.00">\getLevel</text>
</g>
<!-- Node2 -->
<g id="node2" class="node"><title>Node2</title>
<g id="a_node2"><a xlink:href="../../d3/d4b/classpocketmine_1_1level_1_1_level.html#a8533578eba18ea36860528846f7e5e75" target="_top" xlink:title="pocketmine\\level\\Level\l\\addEntity">
<polygon fill="white" stroke="black" points="189.5,-705 189.5,-735 314.5,-735 314.5,-705 189.5,-705"/>
<text text-anchor="start" x="197.5" y="-723" font-family="Helvetica,sans-Serif" font-size="10.00">pocketmine\level\Level</text>
<text text-anchor="middle" x="252" y="-712" font-family="Helvetica,sans-Serif" font-size="10.00">\addEntity</text>
</a>
</g>
</g>
<!-- Node1&#45;&gt;Node2 -->
<g id="edge1" class="edge"><title>Node1&#45;&gt;Node2</title>
<path fill="none" stroke="midnightblue" d="M70.3989,-387.355C72.7597,-448.874 87.4043,-607.427 174,-695 178.447,-699.497 183.71,-703.186 189.364,-706.211"/>
<polygon fill="midnightblue" stroke="midnightblue" points="73.8876,-386.925 70.0865,-377.036 66.8908,-387.137 73.8876,-386.925"/>
</g>
<!-- Node3 -->
<g id="node3" class="node"><title>Node3</title>
<g id="a_node3"><a xlink:href="../../d3/d4b/classpocketmine_1_1level_1_1_level.html#a70f7b187512895925a1048f446b4839f" target="_top" xlink:title="pocketmine\\level\\Level\l\\addTile">
<polygon fill="white" stroke="black" points="189.5,-656 189.5,-686 314.5,-686 314.5,-656 189.5,-656"/>
<text text-anchor="start" x="197.5" y="-674" font-family="Helvetica,sans-Serif" font-size="10.00">pocketmine\level\Level</text>
<text text-anchor="middle" x="252" y="-663" font-family="Helvetica,sans-Serif" font-size="10.00">\addTile</text>
</a>
</g>
</g>
<!-- Node1&#45;&gt;Node3 -->
<g id="edge2" class="edge"><title>Node1&#45;&gt;Node3</title>
<path fill="none" stroke="midnightblue" d="M71.9978,-387.348C77.6916,-442.362 98.8311,-573.569 174,-646 178.453,-650.291 183.65,-653.846 189.204,-656.79"/>
<polygon fill="midnightblue" stroke="midnightblue" points="75.4552,-386.733 71.0283,-377.107 68.4864,-387.393 75.4552,-386.733"/>
</g>
<!-- Node4 -->
<g id="node4" class="node"><title>Node4</title>
<g id="a_node4"><a xlink:href="../../d7/d27/classpocketmine_1_1block_1_1_block.html#a11d0ee8c3d80ea8c87b131210249e557" target="_top" xlink:title="pocketmine\\block\\Block\l\\getMetadata">
<polygon fill="white" stroke="black" points="187.5,-607 187.5,-637 316.5,-637 316.5,-607 187.5,-607"/>
<text text-anchor="start" x="195.5" y="-625" font-family="Helvetica,sans-Serif" font-size="10.00">pocketmine\block\Block</text>
<text text-anchor="middle" x="252" y="-614" font-family="Helvetica,sans-Serif" font-size="10.00">\getMetadata</text>
</a>
</g>
</g>
<!-- Node1&#45;&gt;Node4 -->
<g id="edge3" class="edge"><title>Node1&#45;&gt;Node4</title>
<path fill="none" stroke="midnightblue" d="M74.1842,-387.235C83.4309,-435.076 110.078,-539.328 174,-597 178.279,-600.86 183.162,-604.125 188.346,-606.887"/>
<polygon fill="midnightblue" stroke="midnightblue" points="77.5776,-386.335 72.3307,-377.131 70.6925,-387.598 77.5776,-386.335"/>
</g>
<!-- Node5 -->
<g id="node5" class="node"><title>Node5</title>
<g id="a_node5"><a xlink:href="../../dd/dba/classpocketmine_1_1tile_1_1_chest.html#a9cf6468013c3e02fb91210d847560cc9" target="_top" xlink:title="pocketmine\\tile\\Chest\l\\getPair">
<polygon fill="white" stroke="black" points="191.5,-558 191.5,-588 312.5,-588 312.5,-558 191.5,-558"/>
<text text-anchor="start" x="199.5" y="-576" font-family="Helvetica,sans-Serif" font-size="10.00">pocketmine\tile\Chest</text>
<text text-anchor="middle" x="252" y="-565" font-family="Helvetica,sans-Serif" font-size="10.00">\getPair</text>
</a>
</g>
</g>
<!-- Node1&#45;&gt;Node5 -->
<g id="edge4" class="edge"><title>Node1&#45;&gt;Node5</title>
<path fill="none" stroke="midnightblue" d="M77.2647,-386.686C90.2033,-426.412 120.979,-504.467 174,-548 179.214,-552.281 185.18,-555.836 191.432,-558.786"/>
<polygon fill="midnightblue" stroke="midnightblue" points="80.5594,-385.495 74.2202,-377.006 73.8819,-387.596 80.5594,-385.495"/>
</g>
<!-- Node6 -->
<g id="node6" class="node"><title>Node6</title>
<g id="a_node6"><a xlink:href="../../d7/d27/classpocketmine_1_1block_1_1_block.html#adbbaeb60f4776cd28192b3813733ddd2" target="_top" xlink:title="pocketmine\\block\\Block\l\\getSide">
<polygon fill="white" stroke="black" points="187.5,-509 187.5,-539 316.5,-539 316.5,-509 187.5,-509"/>
<text text-anchor="start" x="195.5" y="-527" font-family="Helvetica,sans-Serif" font-size="10.00">pocketmine\block\Block</text>
<text text-anchor="middle" x="252" y="-516" font-family="Helvetica,sans-Serif" font-size="10.00">\getSide</text>
</a>
</g>
</g>
<!-- Node1&#45;&gt;Node6 -->
<g id="edge5" class="edge"><title>Node1&#45;&gt;Node6</title>
<path fill="none" stroke="midnightblue" d="M82.3545,-386.297C99.1024,-416.883 131.825,-469.037 174,-499 179.385,-502.826 185.388,-506.09 191.601,-508.869"/>
<polygon fill="midnightblue" stroke="midnightblue" points="85.284,-384.353 77.4864,-377.18 79.1091,-387.65 85.284,-384.353"/>
</g>
<!-- Node7 -->
<g id="node7" class="node"><title>Node7</title>
<g id="a_node7"><a xlink:href="../../df/d2c/classpocketmine_1_1_player.html#add2b28b141c236147f87430228dbd632" target="_top" xlink:title="pocketmine\\Player\\getSpawn">
<polygon fill="white" stroke="black" points="174.5,-470.5 174.5,-489.5 329.5,-489.5 329.5,-470.5 174.5,-470.5"/>
<text text-anchor="middle" x="252" y="-477.5" font-family="Helvetica,sans-Serif" font-size="10.00">pocketmine\Player\getSpawn</text>
</a>
</g>
</g>
<!-- Node1&#45;&gt;Node7 -->
<g id="edge6" class="edge"><title>Node1&#45;&gt;Node7</title>
<path fill="none" stroke="midnightblue" d="M88.1384,-384.776C107.195,-407.187 139.191,-440.761 174,-460 181.857,-464.343 190.689,-467.77 199.493,-470.466"/>
<polygon fill="midnightblue" stroke="midnightblue" points="90.811,-382.516 81.7219,-377.072 85.4321,-386.996 90.811,-382.516"/>
</g>
<!-- Node8 -->
<g id="node8" class="node"><title>Node8</title>
<g id="a_node8"><a xlink:href="../../d7/d27/classpocketmine_1_1block_1_1_block.html#a7985679b69c60e8f03fee6bec232fd73" target="_top" xlink:title="pocketmine\\block\\Block\l\\hasMetadata">
<polygon fill="white" stroke="black" points="187.5,-421 187.5,-451 316.5,-451 316.5,-421 187.5,-421"/>
<text text-anchor="start" x="195.5" y="-439" font-family="Helvetica,sans-Serif" font-size="10.00">pocketmine\block\Block</text>
<text text-anchor="middle" x="252" y="-428" font-family="Helvetica,sans-Serif" font-size="10.00">\hasMetadata</text>
</a>
</g>
</g>
<!-- Node1&#45;&gt;Node8 -->
<g id="edge7" class="edge"><title>Node1&#45;&gt;Node8</title>
<path fill="none" stroke="midnightblue" d="M108.701,-381.662C128.057,-391.127 151.993,-402.283 174,-411 182.755,-414.468 192.202,-417.833 201.378,-420.911"/>
<polygon fill="midnightblue" stroke="midnightblue" points="110.113,-378.456 99.5962,-377.17 107.015,-384.733 110.113,-378.456"/>
</g>
<!-- Node9 -->
<g id="node9" class="node"><title>Node9</title>
<g id="a_node9"><a xlink:href="../../d7/d27/classpocketmine_1_1block_1_1_block.html#a0280d3800a44f5a1575012e2b37b7a53" target="_top" xlink:title="pocketmine\\block\\Block\l\\onBreak">
<polygon fill="white" stroke="black" points="187.5,-372 187.5,-402 316.5,-402 316.5,-372 187.5,-372"/>
<text text-anchor="start" x="195.5" y="-390" font-family="Helvetica,sans-Serif" font-size="10.00">pocketmine\block\Block</text>
<text text-anchor="middle" x="252" y="-379" font-family="Helvetica,sans-Serif" font-size="10.00">\onBreak</text>
</a>
</g>
</g>
<!-- Node1&#45;&gt;Node9 -->
<g id="edge8" class="edge"><title>Node1&#45;&gt;Node9</title>
<path fill="none" stroke="midnightblue" d="M148.108,-372.788C161.219,-374.599 174.683,-376.459 187.372,-378.212"/>
<polygon fill="midnightblue" stroke="midnightblue" points="148.555,-369.317 138.17,-371.416 147.597,-376.251 148.555,-369.317"/>
</g>
<!-- Node10 -->
<g id="node10" class="node"><title>Node10</title>
<g id="a_node10"><a xlink:href="../../dd/de7/classpocketmine_1_1entity_1_1_projectile.html#a5389d7afdd3d67eacb4e37373d099dcf" target="_top" xlink:title="pocketmine\\entity\\Projectile\l\\onUpdate">
<polygon fill="white" stroke="black" points="177.5,-323 177.5,-353 326.5,-353 326.5,-323 177.5,-323"/>
<text text-anchor="start" x="185.5" y="-341" font-family="Helvetica,sans-Serif" font-size="10.00">pocketmine\entity\Projectile</text>
<text text-anchor="middle" x="252" y="-330" font-family="Helvetica,sans-Serif" font-size="10.00">\onUpdate</text>
</a>
</g>
</g>
<!-- Node1&#45;&gt;Node10 -->
<g id="edge9" class="edge"><title>Node1&#45;&gt;Node10</title>
<path fill="none" stroke="midnightblue" d="M148.199,-351.631C157.908,-350.344 167.81,-349.031 177.446,-347.753"/>
<polygon fill="midnightblue" stroke="midnightblue" points="147.624,-348.177 138.17,-352.961 148.544,-355.116 147.624,-348.177"/>
</g>
<!-- Node11 -->
<g id="node11" class="node"><title>Node11</title>
<g id="a_node11"><a xlink:href="../../d7/d27/classpocketmine_1_1block_1_1_block.html#a26311c8e107575523871234e2dbe7a7a" target="_top" xlink:title="pocketmine\\block\\Block\l\\place">
<polygon fill="white" stroke="black" points="187.5,-274 187.5,-304 316.5,-304 316.5,-274 187.5,-274"/>
<text text-anchor="start" x="195.5" y="-292" font-family="Helvetica,sans-Serif" font-size="10.00">pocketmine\block\Block</text>
<text text-anchor="middle" x="252" y="-281" font-family="Helvetica,sans-Serif" font-size="10.00">\place</text>
</a>
</g>
</g>
<!-- Node1&#45;&gt;Node11 -->
<g id="edge10" class="edge"><title>Node1&#45;&gt;Node11</title>
<path fill="none" stroke="midnightblue" d="M109.163,-342.589C128.454,-333.372 152.199,-322.536 174,-314 182.9,-310.516 192.504,-307.118 201.811,-304.008"/>
<polygon fill="midnightblue" stroke="midnightblue" points="107.569,-339.472 100.08,-346.966 110.608,-345.778 107.569,-339.472"/>
</g>
<!-- Node12 -->
<g id="node12" class="node"><title>Node12</title>
<g id="a_node12"><a xlink:href="../../d3/d4b/classpocketmine_1_1level_1_1_level.html#a8f95a1e0b2d1b6149796ab3b292a0f82" target="_top" xlink:title="pocketmine\\level\\Level\l\\removeEntity">
<polygon fill="white" stroke="black" points="189.5,-225 189.5,-255 314.5,-255 314.5,-225 189.5,-225"/>
<text text-anchor="start" x="197.5" y="-243" font-family="Helvetica,sans-Serif" font-size="10.00">pocketmine\level\Level</text>
<text text-anchor="middle" x="252" y="-232" font-family="Helvetica,sans-Serif" font-size="10.00">\removeEntity</text>
</a>
</g>
</g>
<!-- Node1&#45;&gt;Node12 -->
<g id="edge11" class="edge"><title>Node1&#45;&gt;Node12</title>
<path fill="none" stroke="midnightblue" d="M89.3361,-338.874C108.715,-317.039 140.421,-284.777 174,-265 180.419,-261.22 187.48,-257.933 194.643,-255.098"/>
<polygon fill="midnightblue" stroke="midnightblue" points="86.4626,-336.844 82.5345,-346.684 91.7414,-341.442 86.4626,-336.844"/>
</g>
<!-- Node13 -->
<g id="node13" class="node"><title>Node13</title>
<g id="a_node13"><a xlink:href="../../d7/d27/classpocketmine_1_1block_1_1_block.html#a8f7ea7fef114df0b324d3ed20e321400" target="_top" xlink:title="pocketmine\\block\\Block\l\\removeMetadata">
<polygon fill="white" stroke="black" points="187.5,-176 187.5,-206 316.5,-206 316.5,-176 187.5,-176"/>
<text text-anchor="start" x="195.5" y="-194" font-family="Helvetica,sans-Serif" font-size="10.00">pocketmine\block\Block</text>
<text text-anchor="middle" x="252" y="-183" font-family="Helvetica,sans-Serif" font-size="10.00">\removeMetadata</text>
</a>
</g>
</g>
<!-- Node1&#45;&gt;Node13 -->
<g id="edge12" class="edge"><title>Node1&#45;&gt;Node13</title>
<path fill="none" stroke="midnightblue" d="M81.2338,-337.525C97.3108,-305.134 129.883,-248.362 174,-216 179.213,-212.176 185.039,-208.919 191.089,-206.149"/>
<polygon fill="midnightblue" stroke="midnightblue" points="77.9802,-336.214 76.7795,-346.741 84.2826,-339.261 77.9802,-336.214"/>
</g>
<!-- Node14 -->
<g id="node14" class="node"><title>Node14</title>
<g id="a_node14"><a xlink:href="../../d3/d4b/classpocketmine_1_1level_1_1_level.html#a499d934fb79794d440b83f7e5ad18a1b" target="_top" xlink:title="pocketmine\\level\\Level\l\\removeTile">
<polygon fill="white" stroke="black" points="189.5,-127 189.5,-157 314.5,-157 314.5,-127 189.5,-127"/>
<text text-anchor="start" x="197.5" y="-145" font-family="Helvetica,sans-Serif" font-size="10.00">pocketmine\level\Level</text>
<text text-anchor="middle" x="252" y="-134" font-family="Helvetica,sans-Serif" font-size="10.00">\removeTile</text>
</a>
</g>
</g>
<!-- Node1&#45;&gt;Node14 -->
<g id="edge13" class="edge"><title>Node1&#45;&gt;Node14</title>
<path fill="none" stroke="midnightblue" d="M76.6575,-337.01C88.9431,-295.661 119.079,-213.015 174,-167 178.633,-163.119 183.881,-159.836 189.409,-157.06"/>
<polygon fill="midnightblue" stroke="midnightblue" points="73.2371,-336.241 73.8503,-346.818 79.9669,-338.168 73.2371,-336.241"/>
</g>
<!-- Node15 -->
<g id="node15" class="node"><title>Node15</title>
<g id="a_node15"><a xlink:href="../../df/d2c/classpocketmine_1_1_player.html#a5ca632b75ba3c04f5964e5092b38032e" target="_top" xlink:title="pocketmine\\Player\\save">
<polygon fill="white" stroke="black" points="186.5,-88.5 186.5,-107.5 317.5,-107.5 317.5,-88.5 186.5,-88.5"/>
<text text-anchor="middle" x="252" y="-95.5" font-family="Helvetica,sans-Serif" font-size="10.00">pocketmine\Player\save</text>
</a>
</g>
</g>
<!-- Node1&#45;&gt;Node15 -->
<g id="edge14" class="edge"><title>Node1&#45;&gt;Node15</title>
<path fill="none" stroke="midnightblue" d="M73.3466,-336.803C81.3062,-287.172 106.062,-176.513 174,-118 179.023,-113.674 184.87,-110.266 191.054,-107.586"/>
<polygon fill="midnightblue" stroke="midnightblue" points="69.8848,-336.288 71.8554,-346.698 76.8067,-337.331 69.8848,-336.288"/>
</g>
<!-- Node16 -->
<g id="node16" class="node"><title>Node16</title>
<g id="a_node16"><a xlink:href="../../d7/d27/classpocketmine_1_1block_1_1_block.html#a486f695a84739c79c69eb6427e631e46" target="_top" xlink:title="pocketmine\\block\\Block\l\\setMetadata">
<polygon fill="white" stroke="black" points="187.5,-39 187.5,-69 316.5,-69 316.5,-39 187.5,-39"/>
<text text-anchor="start" x="195.5" y="-57" font-family="Helvetica,sans-Serif" font-size="10.00">pocketmine\block\Block</text>
<text text-anchor="middle" x="252" y="-46" font-family="Helvetica,sans-Serif" font-size="10.00">\setMetadata</text>
</a>
</g>
</g>
<!-- Node1&#45;&gt;Node16 -->
<g id="edge15" class="edge"><title>Node1&#45;&gt;Node16</title>
<path fill="none" stroke="midnightblue" d="M72.0266,-336.739C77.7775,-281.915 99.0233,-151.164 174,-79 178.051,-75.1014 182.715,-71.8107 187.703,-69.0332"/>
<polygon fill="midnightblue" stroke="midnightblue" points="68.5185,-336.656 71.0461,-346.945 75.4864,-337.325 68.5185,-336.656"/>
</g>
<!-- Node17 -->
<g id="node17" class="node"><title>Node17</title>
<g id="a_node17"><a xlink:href="../../df/d2c/classpocketmine_1_1_player.html#a64148b8f2640b851c6ad698a4044e8d4" target="_top" xlink:title="pocketmine\\Player\\spawnTo">
<polygon fill="white" stroke="black" points="178,-0.5 178,-19.5 326,-19.5 326,-0.5 178,-0.5"/>
<text text-anchor="middle" x="252" y="-7.5" font-family="Helvetica,sans-Serif" font-size="10.00">pocketmine\Player\spawnTo</text>
</a>
</g>
</g>
<!-- Node1&#45;&gt;Node17 -->
<g id="edge16" class="edge"><title>Node1&#45;&gt;Node17</title>
<path fill="none" stroke="midnightblue" d="M70.0875,-336.772C71.7292,-274.965 84.8474,-114.85 174,-30 178.502,-25.7152 183.801,-22.3187 189.477,-19.6308"/>
<polygon fill="midnightblue" stroke="midnightblue" points="66.5876,-336.741 69.9019,-346.804 73.5864,-336.871 66.5876,-336.741"/>
</g>
<!-- Node18 -->
<g id="node18" class="node"><title>Node18</title>
<g id="a_node18"><a xlink:href="../../df/d2c/classpocketmine_1_1_player.html#a4d2609373c9c8d5a444acb38214031f6" target="_top" xlink:title="pocketmine\\Player\\showPlayer">
<polygon fill="white" stroke="black" points="366.5,-0.5 366.5,-19.5 527.5,-19.5 527.5,-0.5 366.5,-0.5"/>
<text text-anchor="middle" x="447" y="-7.5" font-family="Helvetica,sans-Serif" font-size="10.00">pocketmine\Player\showPlayer</text>
</a>
</g>
</g>
<!-- Node17&#45;&gt;Node18 -->
<g id="edge17" class="edge"><title>Node17&#45;&gt;Node18</title>
<path fill="none" stroke="midnightblue" d="M336.488,-10C346.405,-10 356.508,-10 366.368,-10"/>
<polygon fill="midnightblue" stroke="midnightblue" points="336.24,-6.5001 326.24,-10 336.24,-13.5001 336.24,-6.5001"/>
</g>
</g>
</svg>
        <g id="navigator" transform="translate(0 0)" fill="#404254">
                <rect fill="#f2f5e9" fill-opacity="0.5" stroke="#606060" stroke-width=".5" x="0" y="0" width="60" height="60"/>
                <use id="zoomplus" xlink:href="#zoomPlus" x="17" y="9" onmousedown="handleZoom(evt,'in')"/>
                <use id="zoomminus" xlink:href="#zoomMin" x="42" y="9" onmousedown="handleZoom(evt,'out')"/>
                <use id="reset" xlink:href="#resetDef" x="30" y="36" onmousedown="handleReset()"/>
                <g id="arrowUp" xlink:href="#dirArrow" transform="translate(30 24)" onmousedown="handlePan(0,-1)">
                  <use xlink:href="#rim" fill="#404040">
                        <set attributeName="fill" to="#808080" begin="arrowUp.mouseover" end="arrowUp.mouseout"/>
                  </use>
                  <path fill="none" stroke="white" stroke-width="1.5" d="M0,-3.0v7 M-2.5,-0.5L0,-3.0L2.5,-0.5"/>
                </g>
                <g id="arrowRight" xlink:href="#dirArrow" transform="rotate(90) translate(36 -43)" onmousedown="handlePan(1,0)">
                  <use xlink:href="#rim" fill="#404040">
                        <set attributeName="fill" to="#808080" begin="arrowRight.mouseover" end="arrowRight.mouseout"/>
                  </use>
                  <path fill="none" stroke="white" stroke-width="1.5" d="M0,-3.0v7 M-2.5,-0.5L0,-3.0L2.5,-0.5"/>
                </g>
                <g id="arrowDown" xlink:href="#dirArrow" transform="rotate(180) translate(-30 -48)" onmousedown="handlePan(0,1)">
                  <use xlink:href="#rim" fill="#404040">
                        <set attributeName="fill" to="#808080" begin="arrowDown.mouseover" end="arrowDown.mouseout"/>
                  </use>
                  <path fill="none" stroke="white" stroke-width="1.5" d="M0,-3.0v7 M-2.5,-0.5L0,-3.0L2.5,-0.5"/>
                </g>
                <g id="arrowLeft" xlink:href="#dirArrow" transform="rotate(270) translate(-36 17)" onmousedown="handlePan(-1,0)">
                  <use xlink:href="#rim" fill="#404040">
                        <set attributeName="fill" to="#808080" begin="arrowLeft.mouseover" end="arrowLeft.mouseout"/>
                  </use>
                  <path fill="none" stroke="white" stroke-width="1.5" d="M0,-3.0v7 M-2.5,-0.5L0,-3.0L2.5,-0.5"/>
                </g>
        </g>
        <svg viewBox="0 0 15 15" width="100%" height="30px" preserveAspectRatio="xMaxYMin meet">
         <g id="arrow_out" transform="scale(0.3 0.3)">
          <a xlink:href="classpocketmine_1_1level_1_1_position_ae667e74646ed1b8d04db126265d75955_icgraph_org.svg" target="_base">
           <rect id="button" ry="5" rx="5" y="6" x="6" height="38" width="38"
                fill="#f2f5e9" fill-opacity="0.5" stroke="#606060" stroke-width="1.0"/>
           <path id="arrow"
             d="M 11.500037,31.436501 C 11.940474,20.09759 22.043105,11.32322 32.158766,21.979434 L 37.068811,17.246167 C 37.068811,17.246167 37.088388,32 37.088388,32 L 22.160133,31.978069 C 22.160133,31.978069 26.997745,27.140456 26.997745,27.140456 C 18.528582,18.264221 13.291696,25.230495 11.500037,31.436501 z"
             style="fill:#404040;"/>
          </a>
         </g>
        </svg>
</svg>
