<?xml version="1.0" encoding="UTF-8" standalone="no"?>
<!DOCTYPE svg PUBLIC "-//W3C//DTD SVG 1.1//EN"
 "http://www.w3.org/Graphics/SVG/1.1/DTD/svg11.dtd">
<!-- Generated by graphviz version 2.26.3 (20100126.1600)
 -->
<!-- Title: pocketmine\permission\Permissible\hasPermission Pages: 1 -->
<svg width="510pt" height="42pt"
 viewBox="0.00 0.00 510.00 42.00" xmlns="http://www.w3.org/2000/svg" xmlns:xlink="http://www.w3.org/1999/xlink">
<g id="graph1" class="graph" transform="scale(1 1) rotate(0) translate(4 38)">
<title>pocketmine\permission\Permissible\hasPermission</title>
<polygon fill="white" stroke="white" points="-4,5 -4,-38 507,-38 507,5 -4,5"/>
<!-- Node1 -->
<g id="node1" class="node"><title>Node1</title>
<polygon fill="#bfbfbf" stroke="black" points="0,-0 0,-34 138,-34 138,-0 0,-0"/>
<text text-anchor="start" x="8" y="-21" font-family="Helvetica,sans-Serif" font-size="10.00">pocketmine\permission</text>
<text text-anchor="middle" x="69" y="-8" font-family="Helvetica,sans-Serif" font-size="10.00">\Permissible\hasPermission</text>
</g>
<!-- Node2 -->
<g id="node3" class="node"><title>Node2</title>
<a xlink:href="../../d6/df1/classpocketmine_1_1command_1_1_command.html#a7805631da5bffb60c7b19ce4105bb1c8" target="_top" xlink:title="pocketmine\\command\l\\Command\\testPermissionSilent">
<polygon fill="white" stroke="black" points="174,-0 174,-34 332,-34 332,-0 174,-0"/>
<text text-anchor="start" x="182" y="-21" font-family="Helvetica,sans-Serif" font-size="10.00">pocketmine\command</text>
<text text-anchor="middle" x="253" y="-8" font-family="Helvetica,sans-Serif" font-size="10.00">\Command\testPermissionSilent</text>
</a>
</g>
<!-- Node1&#45;&gt;Node2 -->
<g id="edge2" class="edge"><title>Node1&#45;&gt;Node2</title>
<path fill="none" stroke="midnightblue" d="M148.041,-17C156.637,-17 165.388,-17 173.984,-17"/>
<polygon fill="midnightblue" stroke="midnightblue" points="148.038,-13.5001 138.038,-17 148.038,-20.5001 148.038,-13.5001"/>
</g>
<!-- Node3 -->
<g id="node5" class="node"><title>Node3</title>
<a xlink:href="../../d6/df1/classpocketmine_1_1command_1_1_command.html#a26a56d9c918a77a565e9591ed0386928" target="_top" xlink:title="pocketmine\\command\l\\Command\\testPermission">
<polygon fill="white" stroke="black" points="368.5,-0 368.5,-34 501.5,-34 501.5,-0 368.5,-0"/>
<text text-anchor="start" x="376.5" y="-21" font-family="Helvetica,sans-Serif" font-size="10.00">pocketmine\command</text>
<text text-anchor="middle" x="435" y="-8" font-family="Helvetica,sans-Serif" font-size="10.00">\Command\testPermission</text>
</a>
</g>
<!-- Node2&#45;&gt;Node3 -->
<g id="edge4" class="edge"><title>Node2&#45;&gt;Node3</title>
<path fill="none" stroke="midnightblue" d="M342.281,-17C351.035,-17 359.81,-17 368.283,-17"/>
<polygon fill="midnightblue" stroke="midnightblue" points="342.034,-13.5001 332.034,-17 342.034,-20.5001 342.034,-13.5001"/>
</g>
</g>
</svg>
