<?xml version="1.0" encoding="UTF-8" standalone="no"?>
<!DOCTYPE svg PUBLIC "-//W3C//DTD SVG 1.1//EN"
 "http://www.w3.org/Graphics/SVG/1.1/DTD/svg11.dtd">
<!-- Generated by graphviz version 2.36.0 (20140111.2315)
 -->
<!-- Title: pocketmine\network\protocol\UseItemPacket Pages: 1 -->
<svg width="142pt" height="640pt"
 viewBox="0.00 0.00 142.00 640.00" xmlns="http://www.w3.org/2000/svg" xmlns:xlink="http://www.w3.org/1999/xlink">
<g id="graph0" class="graph" transform="scale(1 1) rotate(0) translate(4 636)">
<title>pocketmine\network\protocol\UseItemPacket</title>
<polygon fill="white" stroke="none" points="-4,4 -4,-636 138,-636 138,4 -4,4"/>
<!-- Node1 -->
<g id="node1" class="node"><title>Node1</title>
<polygon fill="#bfbfbf" stroke="black" points="0,-1 0,-245 134,-245 134,-1 0,-1"/>
<text text-anchor="start" x="8" y="-233" font-family="Helvetica,sans-Serif" font-size="10.00">pocketmine\network</text>
<text text-anchor="middle" x="67" y="-222" font-family="Helvetica,sans-Serif" font-size="10.00">\protocol\UseItemPacket</text>
<polyline fill="none" stroke="black" points="0,-215 134,-215 "/>
<text text-anchor="start" x="8" y="-203" font-family="Helvetica,sans-Serif" font-size="10.00">+ $x</text>
<text text-anchor="start" x="8" y="-192" font-family="Helvetica,sans-Serif" font-size="10.00">+ $y</text>
<text text-anchor="start" x="8" y="-181" font-family="Helvetica,sans-Serif" font-size="10.00">+ $z</text>
<text text-anchor="start" x="8" y="-170" font-family="Helvetica,sans-Serif" font-size="10.00">+ $face</text>
<text text-anchor="start" x="8" y="-159" font-family="Helvetica,sans-Serif" font-size="10.00">+ $item</text>
<text text-anchor="start" x="8" y="-148" font-family="Helvetica,sans-Serif" font-size="10.00">+ $meta</text>
<text text-anchor="start" x="8" y="-137" font-family="Helvetica,sans-Serif" font-size="10.00">+ $eid</text>
<text text-anchor="start" x="8" y="-126" font-family="Helvetica,sans-Serif" font-size="10.00">+ $fx</text>
<text text-anchor="start" x="8" y="-115" font-family="Helvetica,sans-Serif" font-size="10.00">+ $fy</text>
<text text-anchor="start" x="8" y="-104" font-family="Helvetica,sans-Serif" font-size="10.00">+ $fz</text>
<text text-anchor="start" x="8" y="-93" font-family="Helvetica,sans-Serif" font-size="10.00">+ $posX</text>
<text text-anchor="start" x="8" y="-82" font-family="Helvetica,sans-Serif" font-size="10.00">+ $posY</text>
<text text-anchor="start" x="8" y="-71" font-family="Helvetica,sans-Serif" font-size="10.00">+ $posZ</text>
<text text-anchor="start" x="8" y="-60" font-family="Helvetica,sans-Serif" font-size="10.00">+ $pool</text>
<text text-anchor="start" x="8" y="-49" font-family="Helvetica,sans-Serif" font-size="10.00">+ $next</text>
<polyline fill="none" stroke="black" points="0,-42 134,-42 "/>
<text text-anchor="start" x="8" y="-30" font-family="Helvetica,sans-Serif" font-size="10.00">+ pid()</text>
<text text-anchor="start" x="8" y="-19" font-family="Helvetica,sans-Serif" font-size="10.00">+ decode()</text>
<text text-anchor="start" x="8" y="-8" font-family="Helvetica,sans-Serif" font-size="10.00">+ encode()</text>
</g>
<!-- Node2 -->
<g id="node2" class="node"><title>Node2</title>
<g id="a_node2"><a xlink:href="../../d0/d90/classpocketmine_1_1network_1_1protocol_1_1_data_packet.html" target="_top" xlink:title="{pocketmine\\network\l\\protocol\\DataPacket\n|+ $buffer\l+ $isEncoded\l|+ pid()\l+ encode()\l+ decode()\l+ setBuffer()\l+ getBuffer()\l+ clean()\l# reset()\l# get()\l# put()\l# getLong()\l# putLong()\l# getInt()\l# putInt()\l# getShort()\l# putShort()\l# getFloat()\land 14 more...\l}">
<polygon fill="white" stroke="black" points="9,-282.5 9,-537.5 125,-537.5 125,-282.5 9,-282.5"/>
<text text-anchor="start" x="17" y="-525.5" font-family="Helvetica,sans-Serif" font-size="10.00">pocketmine\network</text>
<text text-anchor="middle" x="67" y="-514.5" font-family="Helvetica,sans-Serif" font-size="10.00">\protocol\DataPacket</text>
<polyline fill="none" stroke="black" points="9,-507.5 125,-507.5 "/>
<text text-anchor="start" x="17" y="-495.5" font-family="Helvetica,sans-Serif" font-size="10.00">+ $buffer</text>
<text text-anchor="start" x="17" y="-484.5" font-family="Helvetica,sans-Serif" font-size="10.00">+ $isEncoded</text>
<polyline fill="none" stroke="black" points="9,-477.5 125,-477.5 "/>
<text text-anchor="start" x="17" y="-465.5" font-family="Helvetica,sans-Serif" font-size="10.00">+ pid()</text>
<text text-anchor="start" x="17" y="-454.5" font-family="Helvetica,sans-Serif" font-size="10.00">+ encode()</text>
<text text-anchor="start" x="17" y="-443.5" font-family="Helvetica,sans-Serif" font-size="10.00">+ decode()</text>
<text text-anchor="start" x="17" y="-432.5" font-family="Helvetica,sans-Serif" font-size="10.00">+ setBuffer()</text>
<text text-anchor="start" x="17" y="-421.5" font-family="Helvetica,sans-Serif" font-size="10.00">+ getBuffer()</text>
<text text-anchor="start" x="17" y="-410.5" font-family="Helvetica,sans-Serif" font-size="10.00">+ clean()</text>
<text text-anchor="start" x="17" y="-399.5" font-family="Helvetica,sans-Serif" font-size="10.00"># reset()</text>
<text text-anchor="start" x="17" y="-388.5" font-family="Helvetica,sans-Serif" font-size="10.00"># get()</text>
<text text-anchor="start" x="17" y="-377.5" font-family="Helvetica,sans-Serif" font-size="10.00"># put()</text>
<text text-anchor="start" x="17" y="-366.5" font-family="Helvetica,sans-Serif" font-size="10.00"># getLong()</text>
<text text-anchor="start" x="17" y="-355.5" font-family="Helvetica,sans-Serif" font-size="10.00"># putLong()</text>
<text text-anchor="start" x="17" y="-344.5" font-family="Helvetica,sans-Serif" font-size="10.00"># getInt()</text>
<text text-anchor="start" x="17" y="-333.5" font-family="Helvetica,sans-Serif" font-size="10.00"># putInt()</text>
<text text-anchor="start" x="17" y="-322.5" font-family="Helvetica,sans-Serif" font-size="10.00"># getShort()</text>
<text text-anchor="start" x="17" y="-311.5" font-family="Helvetica,sans-Serif" font-size="10.00"># putShort()</text>
<text text-anchor="start" x="17" y="-300.5" font-family="Helvetica,sans-Serif" font-size="10.00"># getFloat()</text>
<text text-anchor="start" x="17" y="-289.5" font-family="Helvetica,sans-Serif" font-size="10.00">and 14 more...</text>
</a>
</g>
</g>
<!-- Node2&#45;&gt;Node1 -->
<g id="edge1" class="edge"><title>Node2&#45;&gt;Node1</title>
<path fill="none" stroke="midnightblue" d="M67,-272.185C67,-263.176 67,-254.138 67,-245.213"/>
<polygon fill="none" stroke="midnightblue" points="63.5001,-272.335 67,-282.335 70.5001,-272.335 63.5001,-272.335"/>
</g>
<!-- Node3 -->
<g id="node3" class="node"><title>Node3</title>
<polygon fill="white" stroke="#bfbfbf" points="38.5,-574.5 38.5,-631.5 95.5,-631.5 95.5,-574.5 38.5,-574.5"/>
<text text-anchor="middle" x="67" y="-619.5" font-family="Helvetica,sans-Serif" font-size="10.00">stdClass</text>
<polyline fill="none" stroke="#bfbfbf" points="38.5,-612.5 95.5,-612.5 "/>
<text text-anchor="middle" x="67" y="-600.5" font-family="Helvetica,sans-Serif" font-size="10.00"> </text>
<polyline fill="none" stroke="#bfbfbf" points="38.5,-593.5 95.5,-593.5 "/>
<text text-anchor="middle" x="67" y="-581.5" font-family="Helvetica,sans-Serif" font-size="10.00"> </text>
</g>
<!-- Node3&#45;&gt;Node2 -->
<g id="edge2" class="edge"><title>Node3&#45;&gt;Node2</title>
<path fill="none" stroke="midnightblue" d="M67,-564.196C67,-556.157 67,-547.246 67,-537.881"/>
<polygon fill="none" stroke="midnightblue" points="63.5001,-564.227 67,-574.227 70.5001,-564.227 63.5001,-564.227"/>
</g>
</g>
</svg>
