<?xml version="1.0" encoding="UTF-8" standalone="no"?>
<!DOCTYPE svg PUBLIC "-//W3C//DTD SVG 1.1//EN"
 "http://www.w3.org/Graphics/SVG/1.1/DTD/svg11.dtd">
<!-- Generated by graphviz version 2.26.3 (20100126.1600)
 -->
<!-- Title: pocketmine\scheduler\AsyncTask Pages: 1 -->
<!--zoomable 840 -->
<svg id="main" version="1.1" xmlns="http://www.w3.org/2000/svg" xmlns:xlink="http://www.w3.org/1999/xlink" xml:space="preserve" onload="init(evt)">
<style type="text/css"><![CDATA[
.edge:hover path { stroke: red; }
.edge:hover polygon { stroke: red; fill: red; }
]]></style>
<script type="text/javascript"><![CDATA[
var edges = document.getElementsByTagName('g');
if (edges && edges.length) {
  for (var i=0;i<edges.length;i++) {
    if (edges[i].id.substr(0,4)=='edge') {
      edges[i].setAttribute('class','edge');
    }
  }
}
]]></script>
        <defs>
                <circle id="rim" cx="0" cy="0" r="7"/>
                <circle id="rim2" cx="0" cy="0" r="3.5"/>
                <g id="zoomPlus">
                        <use xlink:href="#rim" fill="#404040">
                                <set attributeName="fill" to="#808080" begin="zoomplus.mouseover" end="zoomplus.mouseout"/>
                        </use>
                        <path d="M-4,0h8M0,-4v8" fill="none" stroke="white" stroke-width="1.5" pointer-events="none"/>
                </g>
                <g id="zoomMin">
                        <use xlink:href="#rim" fill="#404040">
                                <set attributeName="fill" to="#808080" begin="zoomminus.mouseover" end="zoomminus.mouseout"/>
                        </use>
                        <path d="M-4,0h8" fill="none" stroke="white" stroke-width="1.5" pointer-events="none"/>
                </g>
                <g id="dirArrow">
                        <path fill="none" stroke="white" stroke-width="1.5" d="M0,-3.0v7 M-2.5,-0.5L0,-3.0L2.5,-0.5"/>
                </g>
               <g id="resetDef">
                       <use xlink:href="#rim2" fill="#404040">
                               <set attributeName="fill" to="#808080" begin="reset.mouseover" end="reset.mouseout"/>
                       </use>
               </g>
        </defs>

<script type="text/javascript">
var viewWidth = 268;
var viewHeight = 840;
var sectionId = 'dynsection-0';
</script>
<script xlink:href="../../svgpan.js"/>
<svg id="graph" class="graph">
<g id="viewport">
<title>pocketmine\scheduler\AsyncTask</title>
<polygon fill="white" stroke="white" points="-4,5 -4,-836 265,-836 265,5 -4,5"/>
<!-- Node1 -->
<g id="node1" class="node"><title>Node1</title>
<polygon fill="#bfbfbf" stroke="black" points="78,-256.5 78,-501.5 190,-501.5 190,-256.5 78,-256.5"/>
<text text-anchor="start" x="86" y="-488.5" font-family="Helvetica,sans-Serif" font-size="10.00">pocketmine\scheduler</text>
<text text-anchor="middle" x="134" y="-475.5" font-family="Helvetica,sans-Serif" font-size="10.00">\AsyncTask</text>
<polyline fill="none" stroke="black" points="78,-467.5 190,-467.5 "/>
<text text-anchor="start" x="86" y="-454.5" font-family="Helvetica,sans-Serif" font-size="10.00"># $complete</text>
<text text-anchor="start" x="86" y="-441.5" font-family="Helvetica,sans-Serif" font-size="10.00"># $finished</text>
<text text-anchor="start" x="86" y="-428.5" font-family="Helvetica,sans-Serif" font-size="10.00"># $result</text>
<text text-anchor="start" x="86" y="-415.5" font-family="Helvetica,sans-Serif" font-size="10.00"># $taskId</text>
<polyline fill="none" stroke="black" points="78,-407.5 190,-407.5 "/>
<text text-anchor="start" x="86" y="-394.5" font-family="Helvetica,sans-Serif" font-size="10.00">+ run()</text>
<text text-anchor="start" x="86" y="-381.5" font-family="Helvetica,sans-Serif" font-size="10.00">+ isFinished()</text>
<text text-anchor="start" x="86" y="-368.5" font-family="Helvetica,sans-Serif" font-size="10.00">+ isCompleted()</text>
<text text-anchor="start" x="86" y="-355.5" font-family="Helvetica,sans-Serif" font-size="10.00">+ setCompleted()</text>
<text text-anchor="start" x="86" y="-342.5" font-family="Helvetica,sans-Serif" font-size="10.00">+ getResult()</text>
<text text-anchor="start" x="86" y="-329.5" font-family="Helvetica,sans-Serif" font-size="10.00">+ hasResult()</text>
<text text-anchor="start" x="86" y="-316.5" font-family="Helvetica,sans-Serif" font-size="10.00">+ setResult()</text>
<text text-anchor="start" x="86" y="-303.5" font-family="Helvetica,sans-Serif" font-size="10.00">+ setTaskId()</text>
<text text-anchor="start" x="86" y="-290.5" font-family="Helvetica,sans-Serif" font-size="10.00">+ getTaskId()</text>
<text text-anchor="start" x="86" y="-277.5" font-family="Helvetica,sans-Serif" font-size="10.00">+ onRun()</text>
<text text-anchor="start" x="86" y="-264.5" font-family="Helvetica,sans-Serif" font-size="10.00">+ onCompletion()</text>
</g>
<!-- Node6 -->
<g id="node11" class="node"><title>Node6</title>
<a xlink:href="../../d8/da8/classpocketmine_1_1level_1_1format_1_1anvil_1_1_chunk_request_task.html" target="_top" xlink:title="{pocketmine\\level\\format\l\\anvil\\ChunkRequestTask\n|# $levelId\l# $chunkX\l# $chunkZ\l# $compressionLevel\l# $sections\l# $biomeIds\l# $biomeColors\l# $tiles\l|+ __construct()\l+ onRun()\l+ getColumn()\l+ getHalfColumn()\l+ onCompletion()\l}">
<polygon fill="white" stroke="black" points="0,-0.5 0,-219.5 130,-219.5 130,-0.5 0,-0.5"/>
<text text-anchor="start" x="8" y="-206.5" font-family="Helvetica,sans-Serif" font-size="10.00">pocketmine\level\format</text>
<text text-anchor="middle" x="65" y="-193.5" font-family="Helvetica,sans-Serif" font-size="10.00">\anvil\ChunkRequestTask</text>
<polyline fill="none" stroke="black" points="0,-185.5 130,-185.5 "/>
<text text-anchor="start" x="8" y="-172.5" font-family="Helvetica,sans-Serif" font-size="10.00"># $levelId</text>
<text text-anchor="start" x="8" y="-159.5" font-family="Helvetica,sans-Serif" font-size="10.00"># $chunkX</text>
<text text-anchor="start" x="8" y="-146.5" font-family="Helvetica,sans-Serif" font-size="10.00"># $chunkZ</text>
<text text-anchor="start" x="8" y="-133.5" font-family="Helvetica,sans-Serif" font-size="10.00"># $compressionLevel</text>
<text text-anchor="start" x="8" y="-120.5" font-family="Helvetica,sans-Serif" font-size="10.00"># $sections</text>
<text text-anchor="start" x="8" y="-107.5" font-family="Helvetica,sans-Serif" font-size="10.00"># $biomeIds</text>
<text text-anchor="start" x="8" y="-94.5" font-family="Helvetica,sans-Serif" font-size="10.00"># $biomeColors</text>
<text text-anchor="start" x="8" y="-81.5" font-family="Helvetica,sans-Serif" font-size="10.00"># $tiles</text>
<polyline fill="none" stroke="black" points="0,-73.5 130,-73.5 "/>
<text text-anchor="start" x="8" y="-60.5" font-family="Helvetica,sans-Serif" font-size="10.00">+ __construct()</text>
<text text-anchor="start" x="8" y="-47.5" font-family="Helvetica,sans-Serif" font-size="10.00">+ onRun()</text>
<text text-anchor="start" x="8" y="-34.5" font-family="Helvetica,sans-Serif" font-size="10.00">+ getColumn()</text>
<text text-anchor="start" x="8" y="-21.5" font-family="Helvetica,sans-Serif" font-size="10.00">+ getHalfColumn()</text>
<text text-anchor="start" x="8" y="-8.5" font-family="Helvetica,sans-Serif" font-size="10.00">+ onCompletion()</text>
</a>
</g>
<!-- Node1&#45;&gt;Node6 -->
<g id="edge10" class="edge"><title>Node1&#45;&gt;Node6</title>
<path fill="none" stroke="midnightblue" d="M100.031,-246.571C97.7265,-237.586 95.4187,-228.589 93.1489,-219.74"/>
<polygon fill="none" stroke="midnightblue" points="96.6538,-247.491 102.529,-256.308 103.434,-245.752 96.6538,-247.491"/>
</g>
<!-- Node7 -->
<g id="node13" class="node"><title>Node7</title>
<a xlink:href="../../da/d91/classpocketmine_1_1scheduler_1_1_send_usage_task.html" target="_top" xlink:title="{pocketmine\\scheduler\l\\SendUsageTask\n|+ $endpoint\l+ $data\l|+ __construct()\l+ onRun()\l+ onCompletion()\l}">
<polygon fill="white" stroke="black" points="148,-52.5 148,-167.5 260,-167.5 260,-52.5 148,-52.5"/>
<text text-anchor="start" x="156" y="-154.5" font-family="Helvetica,sans-Serif" font-size="10.00">pocketmine\scheduler</text>
<text text-anchor="middle" x="204" y="-141.5" font-family="Helvetica,sans-Serif" font-size="10.00">\SendUsageTask</text>
<polyline fill="none" stroke="black" points="148,-133.5 260,-133.5 "/>
<text text-anchor="start" x="156" y="-120.5" font-family="Helvetica,sans-Serif" font-size="10.00">+ $endpoint</text>
<text text-anchor="start" x="156" y="-107.5" font-family="Helvetica,sans-Serif" font-size="10.00">+ $data</text>
<polyline fill="none" stroke="black" points="148,-99.5 260,-99.5 "/>
<text text-anchor="start" x="156" y="-86.5" font-family="Helvetica,sans-Serif" font-size="10.00">+ __construct()</text>
<text text-anchor="start" x="156" y="-73.5" font-family="Helvetica,sans-Serif" font-size="10.00">+ onRun()</text>
<text text-anchor="start" x="156" y="-60.5" font-family="Helvetica,sans-Serif" font-size="10.00">+ onCompletion()</text>
</a>
</g>
<!-- Node1&#45;&gt;Node7 -->
<g id="edge12" class="edge"><title>Node1&#45;&gt;Node7</title>
<path fill="none" stroke="midnightblue" d="M168.477,-246.51C175.694,-218.777 182.94,-190.929 188.989,-167.685"/>
<polygon fill="none" stroke="midnightblue" points="165.059,-245.749 165.927,-256.308 171.833,-247.512 165.059,-245.749"/>
</g>
<!-- Node2 -->
<g id="node2" class="node"><title>Node2</title>
<a xlink:href="../../d0/d82/class_threaded.html" target="_top" xlink:title="{Threaded\n||+ chunk()\l+ count()\l+ getTerminationInfo()\l+ isRunning()\l+ isTerminated()\l+ isWaiting()\l+ lock()\l+ merge()\l+ notify()\l+ offsetGet()\land 9 more...\l}">
<polygon fill="white" stroke="black" points="77.5,-538.5 77.5,-731.5 190.5,-731.5 190.5,-538.5 77.5,-538.5"/>
<text text-anchor="middle" x="134" y="-718.5" font-family="Helvetica,sans-Serif" font-size="10.00">Threaded</text>
<polyline fill="none" stroke="black" points="77.5,-710.5 190.5,-710.5 "/>
<text text-anchor="middle" x="134" y="-697.5" font-family="Helvetica,sans-Serif" font-size="10.00"> </text>
<polyline fill="none" stroke="black" points="77.5,-689.5 190.5,-689.5 "/>
<text text-anchor="start" x="85.5" y="-676.5" font-family="Helvetica,sans-Serif" font-size="10.00">+ chunk()</text>
<text text-anchor="start" x="85.5" y="-663.5" font-family="Helvetica,sans-Serif" font-size="10.00">+ count()</text>
<text text-anchor="start" x="85.5" y="-650.5" font-family="Helvetica,sans-Serif" font-size="10.00">+ getTerminationInfo()</text>
<text text-anchor="start" x="85.5" y="-637.5" font-family="Helvetica,sans-Serif" font-size="10.00">+ isRunning()</text>
<text text-anchor="start" x="85.5" y="-624.5" font-family="Helvetica,sans-Serif" font-size="10.00">+ isTerminated()</text>
<text text-anchor="start" x="85.5" y="-611.5" font-family="Helvetica,sans-Serif" font-size="10.00">+ isWaiting()</text>
<text text-anchor="start" x="85.5" y="-598.5" font-family="Helvetica,sans-Serif" font-size="10.00">+ lock()</text>
<text text-anchor="start" x="85.5" y="-585.5" font-family="Helvetica,sans-Serif" font-size="10.00">+ merge()</text>
<text text-anchor="start" x="85.5" y="-572.5" font-family="Helvetica,sans-Serif" font-size="10.00">+ notify()</text>
<text text-anchor="start" x="85.5" y="-559.5" font-family="Helvetica,sans-Serif" font-size="10.00">+ offsetGet()</text>
<text text-anchor="start" x="85.5" y="-546.5" font-family="Helvetica,sans-Serif" font-size="10.00">and 9 more...</text>
</a>
</g>
<!-- Node2&#45;&gt;Node1 -->
<g id="edge2" class="edge"><title>Node2&#45;&gt;Node1</title>
<path fill="none" stroke="midnightblue" d="M134,-528.101C134,-519.423 134,-510.612 134,-501.833"/>
<polygon fill="none" stroke="midnightblue" points="130.5,-528.217 134,-538.217 137.5,-528.217 130.5,-528.217"/>
</g>
<!-- Node3 -->
<g id="node4" class="node"><title>Node3</title>
<polygon fill="white" stroke="#bfbfbf" points="18,-768.5 18,-831.5 86,-831.5 86,-768.5 18,-768.5"/>
<text text-anchor="middle" x="52" y="-818.5" font-family="Helvetica,sans-Serif" font-size="10.00">Traversable</text>
<polyline fill="none" stroke="#bfbfbf" points="18,-810.5 86,-810.5 "/>
<text text-anchor="middle" x="52" y="-797.5" font-family="Helvetica,sans-Serif" font-size="10.00"> </text>
<polyline fill="none" stroke="#bfbfbf" points="18,-789.5 86,-789.5 "/>
<text text-anchor="middle" x="52" y="-776.5" font-family="Helvetica,sans-Serif" font-size="10.00"> </text>
</g>
<!-- Node3&#45;&gt;Node2 -->
<g id="edge4" class="edge"><title>Node3&#45;&gt;Node2</title>
<path fill="none" stroke="midnightblue" d="M72.3964,-758.958C76.619,-750.462 81.2356,-741.172 85.9815,-731.623"/>
<polygon fill="none" stroke="midnightblue" points="69.1266,-757.674 67.8104,-768.186 75.3952,-760.789 69.1266,-757.674"/>
</g>
<!-- Node4 -->
<g id="node6" class="node"><title>Node4</title>
<polygon fill="white" stroke="#bfbfbf" points="103.5,-768.5 103.5,-831.5 164.5,-831.5 164.5,-768.5 103.5,-768.5"/>
<text text-anchor="middle" x="134" y="-818.5" font-family="Helvetica,sans-Serif" font-size="10.00">Countable</text>
<polyline fill="none" stroke="#bfbfbf" points="103.5,-810.5 164.5,-810.5 "/>
<text text-anchor="middle" x="134" y="-797.5" font-family="Helvetica,sans-Serif" font-size="10.00"> </text>
<polyline fill="none" stroke="#bfbfbf" points="103.5,-789.5 164.5,-789.5 "/>
<text text-anchor="middle" x="134" y="-776.5" font-family="Helvetica,sans-Serif" font-size="10.00"> </text>
</g>
<!-- Node4&#45;&gt;Node2 -->
<g id="edge6" class="edge"><title>Node4&#45;&gt;Node2</title>
<path fill="none" stroke="midnightblue" d="M134,-758.134C134,-749.862 134,-740.864 134,-731.623"/>
<polygon fill="none" stroke="midnightblue" points="130.5,-758.186 134,-768.186 137.5,-758.186 130.5,-758.186"/>
</g>
<!-- Node5 -->
<g id="node8" class="node"><title>Node5</title>
<polygon fill="white" stroke="#bfbfbf" points="181.5,-768.5 181.5,-831.5 254.5,-831.5 254.5,-768.5 181.5,-768.5"/>
<text text-anchor="middle" x="218" y="-818.5" font-family="Helvetica,sans-Serif" font-size="10.00">ArrayAccess</text>
<polyline fill="none" stroke="#bfbfbf" points="181.5,-810.5 254.5,-810.5 "/>
<text text-anchor="middle" x="218" y="-797.5" font-family="Helvetica,sans-Serif" font-size="10.00"> </text>
<polyline fill="none" stroke="#bfbfbf" points="181.5,-789.5 254.5,-789.5 "/>
<text text-anchor="middle" x="218" y="-776.5" font-family="Helvetica,sans-Serif" font-size="10.00"> </text>
</g>
<!-- Node5&#45;&gt;Node2 -->
<g id="edge8" class="edge"><title>Node5&#45;&gt;Node2</title>
<path fill="none" stroke="midnightblue" d="M197.246,-759.232C192.882,-750.661 188.104,-741.275 183.19,-731.623"/>
<polygon fill="none" stroke="midnightblue" points="194.148,-760.863 201.804,-768.186 200.386,-757.687 194.148,-760.863"/>
</g>
</g>
</svg>
        <g id="navigator" transform="translate(0 0)" fill="#404254">
                <rect fill="#f2f5e9" fill-opacity="0.5" stroke="#606060" stroke-width=".5" x="0" y="0" width="60" height="60"/>
                <use id="zoomplus" xlink:href="#zoomPlus" x="17" y="9" onmousedown="handleZoom(evt,'in')"/>
                <use id="zoomminus" xlink:href="#zoomMin" x="42" y="9" onmousedown="handleZoom(evt,'out')"/>
                <use id="reset" xlink:href="#resetDef" x="30" y="36" onmousedown="handleReset()"/>
                <g id="arrowUp" xlink:href="#dirArrow" transform="translate(30 24)" onmousedown="handlePan(0,-1)">
                  <use xlink:href="#rim" fill="#404040">
                        <set attributeName="fill" to="#808080" begin="arrowUp.mouseover" end="arrowUp.mouseout"/>
                  </use>
                  <path fill="none" stroke="white" stroke-width="1.5" d="M0,-3.0v7 M-2.5,-0.5L0,-3.0L2.5,-0.5"/>
                </g>
                <g id="arrowRight" xlink:href="#dirArrow" transform="rotate(90) translate(36 -43)" onmousedown="handlePan(1,0)">
                  <use xlink:href="#rim" fill="#404040">
                        <set attributeName="fill" to="#808080" begin="arrowRight.mouseover" end="arrowRight.mouseout"/>
                  </use>
                  <path fill="none" stroke="white" stroke-width="1.5" d="M0,-3.0v7 M-2.5,-0.5L0,-3.0L2.5,-0.5"/>
                </g>
                <g id="arrowDown" xlink:href="#dirArrow" transform="rotate(180) translate(-30 -48)" onmousedown="handlePan(0,1)">
                  <use xlink:href="#rim" fill="#404040">
                        <set attributeName="fill" to="#808080" begin="arrowDown.mouseover" end="arrowDown.mouseout"/>
                  </use>
                  <path fill="none" stroke="white" stroke-width="1.5" d="M0,-3.0v7 M-2.5,-0.5L0,-3.0L2.5,-0.5"/>
                </g>
                <g id="arrowLeft" xlink:href="#dirArrow" transform="rotate(270) translate(-36 17)" onmousedown="handlePan(-1,0)">
                  <use xlink:href="#rim" fill="#404040">
                        <set attributeName="fill" to="#808080" begin="arrowLeft.mouseover" end="arrowLeft.mouseout"/>
                  </use>
                  <path fill="none" stroke="white" stroke-width="1.5" d="M0,-3.0v7 M-2.5,-0.5L0,-3.0L2.5,-0.5"/>
                </g>
        </g>
        <svg viewBox="0 0 15 15" width="100%" height="30px" preserveAspectRatio="xMaxYMin meet">
         <g id="arrow_out" transform="scale(0.3 0.3)">
          <a xlink:href="classpocketmine_1_1scheduler_1_1_async_task__inherit__graph_org.svg" target="_base">
           <rect id="button" ry="5" rx="5" y="6" x="6" height="38" width="38"
                fill="#f2f5e9" fill-opacity="0.5" stroke="#606060" stroke-width="1.0"/>
           <path id="arrow"
             d="M 11.500037,31.436501 C 11.940474,20.09759 22.043105,11.32322 32.158766,21.979434 L 37.068811,17.246167 C 37.068811,17.246167 37.088388,32 37.088388,32 L 22.160133,31.978069 C 22.160133,31.978069 26.997745,27.140456 26.997745,27.140456 C 18.528582,18.264221 13.291696,25.230495 11.500037,31.436501 z"
             style="fill:#404040;"/>
          </a>
         </g>
        </svg>
</svg>
