<?xml version="1.0" encoding="UTF-8" standalone="no"?>
<!DOCTYPE svg PUBLIC "-//W3C//DTD SVG 1.1//EN"
 "http://www.w3.org/Graphics/SVG/1.1/DTD/svg11.dtd">
<!-- Generated by graphviz version 2.36.0 (20140111.2315)
 -->
<!-- Title: pocketmine\scheduler\AsyncTask Pages: 1 -->
<svg width="281pt" height="486pt"
 viewBox="0.00 0.00 281.00 486.00" xmlns="http://www.w3.org/2000/svg" xmlns:xlink="http://www.w3.org/1999/xlink">
<g id="graph0" class="graph" transform="scale(1 1) rotate(0) translate(4 482)">
<title>pocketmine\scheduler\AsyncTask</title>
<polygon fill="white" stroke="none" points="-4,4 -4,-482 277,-482 277,4 -4,4"/>
<!-- Node1 -->
<g id="node1" class="node"><title>Node1</title>
<polygon fill="#bfbfbf" stroke="black" points="78,-227 78,-383 200,-383 200,-227 78,-227"/>
<text text-anchor="start" x="86" y="-371" font-family="Helvetica,sans-Serif" font-size="10.00">pocketmine\scheduler</text>
<text text-anchor="middle" x="139" y="-360" font-family="Helvetica,sans-Serif" font-size="10.00">\AsyncTask</text>
<polyline fill="none" stroke="black" points="78,-353 200,-353 "/>
<text text-anchor="middle" x="139" y="-341" font-family="Helvetica,sans-Serif" font-size="10.00"> </text>
<polyline fill="none" stroke="black" points="78,-334 200,-334 "/>
<text text-anchor="start" x="86" y="-322" font-family="Helvetica,sans-Serif" font-size="10.00">+ run()</text>
<text text-anchor="start" x="86" y="-311" font-family="Helvetica,sans-Serif" font-size="10.00">+ isFinished()</text>
<text text-anchor="start" x="86" y="-300" font-family="Helvetica,sans-Serif" font-size="10.00">+ getResult()</text>
<text text-anchor="start" x="86" y="-289" font-family="Helvetica,sans-Serif" font-size="10.00">+ hasResult()</text>
<text text-anchor="start" x="86" y="-278" font-family="Helvetica,sans-Serif" font-size="10.00">+ setResult()</text>
<text text-anchor="start" x="86" y="-267" font-family="Helvetica,sans-Serif" font-size="10.00">+ setTaskId()</text>
<text text-anchor="start" x="86" y="-256" font-family="Helvetica,sans-Serif" font-size="10.00">+ getTaskId()</text>
<text text-anchor="start" x="86" y="-245" font-family="Helvetica,sans-Serif" font-size="10.00">+ onRun()</text>
<text text-anchor="start" x="86" y="-234" font-family="Helvetica,sans-Serif" font-size="10.00">+ onCompletion()</text>
</g>
<!-- Node3 -->
<g id="node3" class="node"><title>Node3</title>
<g id="a_node3"><a xlink:href="../../d8/da8/classpocketmine_1_1level_1_1format_1_1anvil_1_1_chunk_request_task.html" target="_top" xlink:title="{pocketmine\\level\\format\l\\anvil\\ChunkRequestTask\n|# $levelId\l# $chunkX\l# $chunkZ\l# $compressionLevel\l# $sections\l# $biomeIds\l# $biomeColors\l# $tiles\l|+ __construct()\l+ onRun()\l+ getColumn()\l+ getHalfColumn()\l+ onCompletion()\l}">
<polygon fill="white" stroke="black" points="-0.5,-0.5 -0.5,-189.5 132.5,-189.5 132.5,-0.5 -0.5,-0.5"/>
<text text-anchor="start" x="7.5" y="-177.5" font-family="Helvetica,sans-Serif" font-size="10.00">pocketmine\level\format</text>
<text text-anchor="middle" x="66" y="-166.5" font-family="Helvetica,sans-Serif" font-size="10.00">\anvil\ChunkRequestTask</text>
<polyline fill="none" stroke="black" points="-0.5,-159.5 132.5,-159.5 "/>
<text text-anchor="start" x="7.5" y="-147.5" font-family="Helvetica,sans-Serif" font-size="10.00"># $levelId</text>
<text text-anchor="start" x="7.5" y="-136.5" font-family="Helvetica,sans-Serif" font-size="10.00"># $chunkX</text>
<text text-anchor="start" x="7.5" y="-125.5" font-family="Helvetica,sans-Serif" font-size="10.00"># $chunkZ</text>
<text text-anchor="start" x="7.5" y="-114.5" font-family="Helvetica,sans-Serif" font-size="10.00"># $compressionLevel</text>
<text text-anchor="start" x="7.5" y="-103.5" font-family="Helvetica,sans-Serif" font-size="10.00"># $sections</text>
<text text-anchor="start" x="7.5" y="-92.5" font-family="Helvetica,sans-Serif" font-size="10.00"># $biomeIds</text>
<text text-anchor="start" x="7.5" y="-81.5" font-family="Helvetica,sans-Serif" font-size="10.00"># $biomeColors</text>
<text text-anchor="start" x="7.5" y="-70.5" font-family="Helvetica,sans-Serif" font-size="10.00"># $tiles</text>
<polyline fill="none" stroke="black" points="-0.5,-63.5 132.5,-63.5 "/>
<text text-anchor="start" x="7.5" y="-51.5" font-family="Helvetica,sans-Serif" font-size="10.00">+ __construct()</text>
<text text-anchor="start" x="7.5" y="-40.5" font-family="Helvetica,sans-Serif" font-size="10.00">+ onRun()</text>
<text text-anchor="start" x="7.5" y="-29.5" font-family="Helvetica,sans-Serif" font-size="10.00">+ getColumn()</text>
<text text-anchor="start" x="7.5" y="-18.5" font-family="Helvetica,sans-Serif" font-size="10.00">+ getHalfColumn()</text>
<text text-anchor="start" x="7.5" y="-7.5" font-family="Helvetica,sans-Serif" font-size="10.00">+ onCompletion()</text>
</a>
</g>
</g>
<!-- Node1&#45;&gt;Node3 -->
<g id="edge2" class="edge"><title>Node1&#45;&gt;Node3</title>
<path fill="none" stroke="midnightblue" d="M108.594,-217.363C105.374,-208.188 102.089,-198.828 98.8428,-189.579"/>
<polygon fill="none" stroke="midnightblue" points="105.307,-218.567 111.921,-226.844 111.912,-216.249 105.307,-218.567"/>
</g>
<!-- Node4 -->
<g id="node4" class="node"><title>Node4</title>
<g id="a_node4"><a xlink:href="../../da/d91/classpocketmine_1_1scheduler_1_1_send_usage_task.html" target="_top" xlink:title="{pocketmine\\scheduler\l\\SendUsageTask\n|+ $endpoint\l+ $data\l|+ __construct()\l+ onRun()\l+ onCompletion()\l}">
<polygon fill="white" stroke="black" points="151,-44.5 151,-145.5 273,-145.5 273,-44.5 151,-44.5"/>
<text text-anchor="start" x="159" y="-133.5" font-family="Helvetica,sans-Serif" font-size="10.00">pocketmine\scheduler</text>
<text text-anchor="middle" x="212" y="-122.5" font-family="Helvetica,sans-Serif" font-size="10.00">\SendUsageTask</text>
<polyline fill="none" stroke="black" points="151,-115.5 273,-115.5 "/>
<text text-anchor="start" x="159" y="-103.5" font-family="Helvetica,sans-Serif" font-size="10.00">+ $endpoint</text>
<text text-anchor="start" x="159" y="-92.5" font-family="Helvetica,sans-Serif" font-size="10.00">+ $data</text>
<polyline fill="none" stroke="black" points="151,-85.5 273,-85.5 "/>
<text text-anchor="start" x="159" y="-73.5" font-family="Helvetica,sans-Serif" font-size="10.00">+ __construct()</text>
<text text-anchor="start" x="159" y="-62.5" font-family="Helvetica,sans-Serif" font-size="10.00">+ onRun()</text>
<text text-anchor="start" x="159" y="-51.5" font-family="Helvetica,sans-Serif" font-size="10.00">+ onCompletion()</text>
</a>
</g>
</g>
<!-- Node1&#45;&gt;Node4 -->
<g id="edge3" class="edge"><title>Node1&#45;&gt;Node4</title>
<path fill="none" stroke="midnightblue" d="M169.464,-217.197C178.038,-192.767 187.069,-167.036 194.593,-145.597"/>
<polygon fill="none" stroke="midnightblue" points="166.088,-216.249 166.079,-226.844 172.693,-218.567 166.088,-216.249"/>
</g>
<!-- Node2 -->
<g id="node2" class="node"><title>Node2</title>
<polygon fill="white" stroke="#bfbfbf" points="104.5,-420.5 104.5,-477.5 173.5,-477.5 173.5,-420.5 104.5,-420.5"/>
<text text-anchor="middle" x="139" y="-465.5" font-family="Helvetica,sans-Serif" font-size="10.00">Collectable</text>
<polyline fill="none" stroke="#bfbfbf" points="104.5,-458.5 173.5,-458.5 "/>
<text text-anchor="middle" x="139" y="-446.5" font-family="Helvetica,sans-Serif" font-size="10.00"> </text>
<polyline fill="none" stroke="#bfbfbf" points="104.5,-439.5 173.5,-439.5 "/>
<text text-anchor="middle" x="139" y="-427.5" font-family="Helvetica,sans-Serif" font-size="10.00"> </text>
</g>
<!-- Node2&#45;&gt;Node1 -->
<g id="edge1" class="edge"><title>Node2&#45;&gt;Node1</title>
<path fill="none" stroke="midnightblue" d="M139,-410.128C139,-401.734 139,-392.545 139,-383.212"/>
<polygon fill="none" stroke="midnightblue" points="135.5,-410.284 139,-420.284 142.5,-410.284 135.5,-410.284"/>
</g>
</g>
</svg>
