<?xml version="1.0" encoding="UTF-8" standalone="no"?>
<!DOCTYPE svg PUBLIC "-//W3C//DTD SVG 1.1//EN"
 "http://www.w3.org/Graphics/SVG/1.1/DTD/svg11.dtd">
<!-- Generated by graphviz version 2.26.3 (20100126.1600)
 -->
<!-- Title: G Pages: 1 -->
<!--zoomable 468 -->
<svg id="main" version="1.1" xmlns="http://www.w3.org/2000/svg" xmlns:xlink="http://www.w3.org/1999/xlink" xml:space="preserve" onload="init(evt)">
        <defs>
                <circle id="rim" cx="0" cy="0" r="7"/>
                <circle id="rim2" cx="0" cy="0" r="3.5"/>
                <g id="zoomPlus">
                        <use xlink:href="#rim" fill="#404040">
                                <set attributeName="fill" to="#808080" begin="zoomplus.mouseover" end="zoomplus.mouseout"/>
                        </use>
                        <path d="M-4,0h8M0,-4v8" fill="none" stroke="white" stroke-width="1.5" pointer-events="none"/>
                </g>
                <g id="zoomMin">
                        <use xlink:href="#rim" fill="#404040">
                                <set attributeName="fill" to="#808080" begin="zoomminus.mouseover" end="zoomminus.mouseout"/>
                        </use>
                        <path d="M-4,0h8" fill="none" stroke="white" stroke-width="1.5" pointer-events="none"/>
                </g>
                <g id="dirArrow">
                        <path fill="none" stroke="white" stroke-width="1.5" d="M0,-3.0v7 M-2.5,-0.5L0,-3.0L2.5,-0.5"/>
                </g>
               <g id="resetDef">
                       <use xlink:href="#rim2" fill="#404040">
                               <set attributeName="fill" to="#808080" begin="reset.mouseover" end="reset.mouseout"/>
                       </use>
               </g>
        </defs>

<script type="text/javascript">
var viewWidth = 234;
var viewHeight = 468;
var sectionId = 'dynsection-0';
</script>
<script xlink:href="../../svgpan.js"/>
<svg id="graph" class="graph">
<g id="viewport">
<title>G</title>
<polygon fill="white" stroke="white" points="-4,5 -4,-464 231,-464 231,5 -4,5"/>
<!-- Node1 -->
<g id="node1" class="node"><title>Node1</title>
<polygon fill="#bfbfbf" stroke="black" points="26,-101 26,-177 196,-177 196,-101 26,-101"/>
<text text-anchor="middle" x="111" y="-164" font-family="Helvetica,sans-Serif" font-size="10.00">raklib\protocol\AcknowledgePacket</text>
<polyline fill="none" stroke="black" points="26,-156 196,-156 "/>
<text text-anchor="start" x="34" y="-143" font-family="Helvetica,sans-Serif" font-size="10.00">+ $packets</text>
<polyline fill="none" stroke="black" points="26,-135 196,-135 "/>
<text text-anchor="start" x="34" y="-122" font-family="Helvetica,sans-Serif" font-size="10.00">+ encode()</text>
<text text-anchor="start" x="34" y="-109" font-family="Helvetica,sans-Serif" font-size="10.00">+ decode()</text>
</g>
<!-- Node3 -->
<g id="node5" class="node"><title>Node3</title>
<a xlink:href="../../d9/d87/classraklib_1_1protocol_1_1_a_c_k.html" target="_top" xlink:title="{raklib\\protocol\\ACK\n|+ $ID\l|}">
<polygon fill="white" stroke="black" points="-0.5,-0.5 -0.5,-63.5 100.5,-63.5 100.5,-0.5 -0.5,-0.5"/>
<text text-anchor="middle" x="50" y="-50.5" font-family="Helvetica,sans-Serif" font-size="10.00">raklib\protocol\ACK</text>
<polyline fill="none" stroke="black" points="-0.5,-42.5 100.5,-42.5 "/>
<text text-anchor="start" x="7.5" y="-29.5" font-family="Helvetica,sans-Serif" font-size="10.00">+ $ID</text>
<polyline fill="none" stroke="black" points="-0.5,-21.5 100.5,-21.5 "/>
<text text-anchor="middle" x="50" y="-8.5" font-family="Helvetica,sans-Serif" font-size="10.00"> </text>
</a>
</g>
<!-- Node1&#45;&gt;Node3 -->
<g id="edge4" class="edge"><title>Node1&#45;&gt;Node3</title>
<path fill="none" stroke="midnightblue" d="M84.3199,-92.2004C78.7981,-82.5148 73.1067,-72.5315 67.9849,-63.5474"/>
<polygon fill="none" stroke="midnightblue" points="81.3286,-94.0205 89.3219,-100.975 87.4098,-90.5536 81.3286,-94.0205"/>
</g>
<!-- Node4 -->
<g id="node7" class="node"><title>Node4</title>
<a xlink:href="../../d4/d24/classraklib_1_1protocol_1_1_n_a_c_k.html" target="_top" xlink:title="{raklib\\protocol\\NACK\n|+ $ID\l|}">
<polygon fill="white" stroke="black" points="117.5,-0.5 117.5,-63.5 226.5,-63.5 226.5,-0.5 117.5,-0.5"/>
<text text-anchor="middle" x="172" y="-50.5" font-family="Helvetica,sans-Serif" font-size="10.00">raklib\protocol\NACK</text>
<polyline fill="none" stroke="black" points="117.5,-42.5 226.5,-42.5 "/>
<text text-anchor="start" x="125.5" y="-29.5" font-family="Helvetica,sans-Serif" font-size="10.00">+ $ID</text>
<polyline fill="none" stroke="black" points="117.5,-21.5 226.5,-21.5 "/>
<text text-anchor="middle" x="172" y="-8.5" font-family="Helvetica,sans-Serif" font-size="10.00"> </text>
</a>
</g>
<!-- Node1&#45;&gt;Node4 -->
<g id="edge6" class="edge"><title>Node1&#45;&gt;Node4</title>
<path fill="none" stroke="midnightblue" d="M137.68,-92.2004C143.202,-82.5148 148.893,-72.5315 154.015,-63.5474"/>
<polygon fill="none" stroke="midnightblue" points="134.59,-90.5536 132.678,-100.975 140.671,-94.0205 134.59,-90.5536"/>
</g>
<!-- Node2 -->
<g id="node2" class="node"><title>Node2</title>
<a xlink:href="../../d6/d53/classraklib_1_1protocol_1_1_packet.html" target="_top" xlink:title="{raklib\\protocol\\Packet\n|+ $buffer\l+ $ID\l# $offset\l|+ encode()\l+ decode()\l# get()\l# getLong()\l# getInt()\l# getShort()\l# getTriad()\l# getLTriad()\l# getByte()\l# getString()\l# feof()\l# put()\land 6 more...}">
<polygon fill="white" stroke="black" points="55.5,-214.5 55.5,-459.5 166.5,-459.5 166.5,-214.5 55.5,-214.5"/>
<text text-anchor="middle" x="111" y="-446.5" font-family="Helvetica,sans-Serif" font-size="10.00">raklib\protocol\Packet</text>
<polyline fill="none" stroke="black" points="55.5,-438.5 166.5,-438.5 "/>
<text text-anchor="start" x="63.5" y="-425.5" font-family="Helvetica,sans-Serif" font-size="10.00">+ $buffer</text>
<text text-anchor="start" x="63.5" y="-412.5" font-family="Helvetica,sans-Serif" font-size="10.00">+ $ID</text>
<text text-anchor="start" x="63.5" y="-399.5" font-family="Helvetica,sans-Serif" font-size="10.00"># $offset</text>
<polyline fill="none" stroke="black" points="55.5,-391.5 166.5,-391.5 "/>
<text text-anchor="start" x="63.5" y="-378.5" font-family="Helvetica,sans-Serif" font-size="10.00">+ encode()</text>
<text text-anchor="start" x="63.5" y="-365.5" font-family="Helvetica,sans-Serif" font-size="10.00">+ decode()</text>
<text text-anchor="start" x="63.5" y="-352.5" font-family="Helvetica,sans-Serif" font-size="10.00"># get()</text>
<text text-anchor="start" x="63.5" y="-339.5" font-family="Helvetica,sans-Serif" font-size="10.00"># getLong()</text>
<text text-anchor="start" x="63.5" y="-326.5" font-family="Helvetica,sans-Serif" font-size="10.00"># getInt()</text>
<text text-anchor="start" x="63.5" y="-313.5" font-family="Helvetica,sans-Serif" font-size="10.00"># getShort()</text>
<text text-anchor="start" x="63.5" y="-300.5" font-family="Helvetica,sans-Serif" font-size="10.00"># getTriad()</text>
<text text-anchor="start" x="63.5" y="-287.5" font-family="Helvetica,sans-Serif" font-size="10.00"># getLTriad()</text>
<text text-anchor="start" x="63.5" y="-274.5" font-family="Helvetica,sans-Serif" font-size="10.00"># getByte()</text>
<text text-anchor="start" x="63.5" y="-261.5" font-family="Helvetica,sans-Serif" font-size="10.00"># getString()</text>
<text text-anchor="start" x="63.5" y="-248.5" font-family="Helvetica,sans-Serif" font-size="10.00"># feof()</text>
<text text-anchor="start" x="63.5" y="-235.5" font-family="Helvetica,sans-Serif" font-size="10.00"># put()</text>
<text text-anchor="middle" x="111" y="-222.5" font-family="Helvetica,sans-Serif" font-size="10.00">and 6 more...</text>
</a>
</g>
<!-- Node2&#45;&gt;Node1 -->
<g id="edge2" class="edge"><title>Node2&#45;&gt;Node1</title>
<path fill="none" stroke="midnightblue" d="M111,-204.278C111,-194.695 111,-185.591 111,-177.389"/>
<polygon fill="none" stroke="midnightblue" points="107.5,-204.42 111,-214.42 114.5,-204.42 107.5,-204.42"/>
</g>
</g>
</svg>
        <g id="navigator" transform="translate(0 0)" fill="#404254">
                <rect fill="#f2f5e9" fill-opacity="0.5" stroke="#606060" stroke-width=".5" x="0" y="0" width="60" height="60"/>
                <use id="zoomplus" xlink:href="#zoomPlus" x="17" y="9" onmousedown="handleZoom(evt,'in')"/>
                <use id="zoomminus" xlink:href="#zoomMin" x="42" y="9" onmousedown="handleZoom(evt,'out')"/>
                <use id="reset" xlink:href="#resetDef" x="30" y="36" onmousedown="handleReset()"/>
                <g id="arrowUp" xlink:href="#dirArrow" transform="translate(30 24)" onmousedown="handlePan(0,-1)">
                  <use xlink:href="#rim" fill="#404040">
                        <set attributeName="fill" to="#808080" begin="arrowUp.mouseover" end="arrowUp.mouseout"/>
                  </use>
                  <path fill="none" stroke="white" stroke-width="1.5" d="M0,-3.0v7 M-2.5,-0.5L0,-3.0L2.5,-0.5"/>
                </g>
                <g id="arrowRight" xlink:href="#dirArrow" transform="rotate(90) translate(36 -43)" onmousedown="handlePan(1,0)">
                  <use xlink:href="#rim" fill="#404040">
                        <set attributeName="fill" to="#808080" begin="arrowRight.mouseover" end="arrowRight.mouseout"/>
                  </use>
                  <path fill="none" stroke="white" stroke-width="1.5" d="M0,-3.0v7 M-2.5,-0.5L0,-3.0L2.5,-0.5"/>
                </g>
                <g id="arrowDown" xlink:href="#dirArrow" transform="rotate(180) translate(-30 -48)" onmousedown="handlePan(0,1)">
                  <use xlink:href="#rim" fill="#404040">
                        <set attributeName="fill" to="#808080" begin="arrowDown.mouseover" end="arrowDown.mouseout"/>
                  </use>
                  <path fill="none" stroke="white" stroke-width="1.5" d="M0,-3.0v7 M-2.5,-0.5L0,-3.0L2.5,-0.5"/>
                </g>
                <g id="arrowLeft" xlink:href="#dirArrow" transform="rotate(270) translate(-36 17)" onmousedown="handlePan(-1,0)">
                  <use xlink:href="#rim" fill="#404040">
                        <set attributeName="fill" to="#808080" begin="arrowLeft.mouseover" end="arrowLeft.mouseout"/>
                  </use>
                  <path fill="none" stroke="white" stroke-width="1.5" d="M0,-3.0v7 M-2.5,-0.5L0,-3.0L2.5,-0.5"/>
                </g>
        </g>
</svg>
