<?xml version="1.0" encoding="UTF-8" standalone="no"?>
<!DOCTYPE svg PUBLIC "-//W3C//DTD SVG 1.1//EN"
 "http://www.w3.org/Graphics/SVG/1.1/DTD/svg11.dtd">
<!-- Generated by graphviz version 2.26.3 (20100126.1600)
 -->
<!-- Title: raklib\protocol\AcknowledgePacket Pages: 1 -->
<svg width="234pt" height="480pt"
 viewBox="0.00 0.00 234.00 480.00" xmlns="http://www.w3.org/2000/svg" xmlns:xlink="http://www.w3.org/1999/xlink">
<g id="graph1" class="graph" transform="scale(1 1) rotate(0) translate(4 476)">
<title>raklib\protocol\AcknowledgePacket</title>
<polygon fill="white" stroke="white" points="-4,5 -4,-476 231,-476 231,5 -4,5"/>
<!-- Node1 -->
<g id="node1" class="node"><title>Node1</title>
<polygon fill="#bfbfbf" stroke="black" points="41.5,-100.5 41.5,-189.5 180.5,-189.5 180.5,-100.5 41.5,-100.5"/>
<text text-anchor="start" x="49.5" y="-176.5" font-family="Helvetica,sans-Serif" font-size="10.00">raklib\protocol\Acknowledge</text>
<text text-anchor="middle" x="111" y="-163.5" font-family="Helvetica,sans-Serif" font-size="10.00">Packet</text>
<polyline fill="none" stroke="black" points="41.5,-155.5 180.5,-155.5 "/>
<text text-anchor="start" x="49.5" y="-142.5" font-family="Helvetica,sans-Serif" font-size="10.00">+ $packets</text>
<polyline fill="none" stroke="black" points="41.5,-134.5 180.5,-134.5 "/>
<text text-anchor="start" x="49.5" y="-121.5" font-family="Helvetica,sans-Serif" font-size="10.00">+ encode()</text>
<text text-anchor="start" x="49.5" y="-108.5" font-family="Helvetica,sans-Serif" font-size="10.00">+ decode()</text>
</g>
<!-- Node3 -->
<g id="node5" class="node"><title>Node3</title>
<a xlink:href="../../d9/d87/classraklib_1_1protocol_1_1_a_c_k.html" target="_top" xlink:title="{raklib\\protocol\\ACK\n|+ $ID\l|}">
<polygon fill="white" stroke="black" points="-0.5,-0.5 -0.5,-63.5 100.5,-63.5 100.5,-0.5 -0.5,-0.5"/>
<text text-anchor="middle" x="50" y="-50.5" font-family="Helvetica,sans-Serif" font-size="10.00">raklib\protocol\ACK</text>
<polyline fill="none" stroke="black" points="-0.5,-42.5 100.5,-42.5 "/>
<text text-anchor="start" x="7.5" y="-29.5" font-family="Helvetica,sans-Serif" font-size="10.00">+ $ID</text>
<polyline fill="none" stroke="black" points="-0.5,-21.5 100.5,-21.5 "/>
<text text-anchor="middle" x="50" y="-8.5" font-family="Helvetica,sans-Serif" font-size="10.00"> </text>
</a>
</g>
<!-- Node1&#45;&gt;Node3 -->
<g id="edge4" class="edge"><title>Node1&#45;&gt;Node3</title>
<path fill="none" stroke="midnightblue" d="M82.0456,-91.3631C76.9537,-81.9307 71.8043,-72.3916 67.1669,-63.801"/>
<polygon fill="none" stroke="midnightblue" points="79.0609,-93.2023 86.8912,-100.339 85.2208,-89.8771 79.0609,-93.2023"/>
</g>
<!-- Node4 -->
<g id="node7" class="node"><title>Node4</title>
<a xlink:href="../../d4/d24/classraklib_1_1protocol_1_1_n_a_c_k.html" target="_top" xlink:title="{raklib\\protocol\\NACK\n|+ $ID\l|}">
<polygon fill="white" stroke="black" points="117.5,-0.5 117.5,-63.5 226.5,-63.5 226.5,-0.5 117.5,-0.5"/>
<text text-anchor="middle" x="172" y="-50.5" font-family="Helvetica,sans-Serif" font-size="10.00">raklib\protocol\NACK</text>
<polyline fill="none" stroke="black" points="117.5,-42.5 226.5,-42.5 "/>
<text text-anchor="start" x="125.5" y="-29.5" font-family="Helvetica,sans-Serif" font-size="10.00">+ $ID</text>
<polyline fill="none" stroke="black" points="117.5,-21.5 226.5,-21.5 "/>
<text text-anchor="middle" x="172" y="-8.5" font-family="Helvetica,sans-Serif" font-size="10.00"> </text>
</a>
</g>
<!-- Node1&#45;&gt;Node4 -->
<g id="edge6" class="edge"><title>Node1&#45;&gt;Node4</title>
<path fill="none" stroke="midnightblue" d="M139.954,-91.3631C145.046,-81.9307 150.196,-72.3916 154.833,-63.801"/>
<polygon fill="none" stroke="midnightblue" points="136.779,-89.8771 135.109,-100.339 142.939,-93.2023 136.779,-89.8771"/>
</g>
<!-- Node2 -->
<g id="node2" class="node"><title>Node2</title>
<a xlink:href="../../d6/d53/classraklib_1_1protocol_1_1_packet.html" target="_top" xlink:title="{raklib\\protocol\\Packet\n|+ $buffer\l+ $ID\l# $offset\l|+ encode()\l+ decode()\l# get()\l# getLong()\l# getInt()\l# getShort()\l# getTriad()\l# getLTriad()\l# getByte()\l# getString()\l# feof()\l# put()\land 7 more...\l}">
<polygon fill="white" stroke="black" points="55.5,-226.5 55.5,-471.5 166.5,-471.5 166.5,-226.5 55.5,-226.5"/>
<text text-anchor="middle" x="111" y="-458.5" font-family="Helvetica,sans-Serif" font-size="10.00">raklib\protocol\Packet</text>
<polyline fill="none" stroke="black" points="55.5,-450.5 166.5,-450.5 "/>
<text text-anchor="start" x="63.5" y="-437.5" font-family="Helvetica,sans-Serif" font-size="10.00">+ $buffer</text>
<text text-anchor="start" x="63.5" y="-424.5" font-family="Helvetica,sans-Serif" font-size="10.00">+ $ID</text>
<text text-anchor="start" x="63.5" y="-411.5" font-family="Helvetica,sans-Serif" font-size="10.00"># $offset</text>
<polyline fill="none" stroke="black" points="55.5,-403.5 166.5,-403.5 "/>
<text text-anchor="start" x="63.5" y="-390.5" font-family="Helvetica,sans-Serif" font-size="10.00">+ encode()</text>
<text text-anchor="start" x="63.5" y="-377.5" font-family="Helvetica,sans-Serif" font-size="10.00">+ decode()</text>
<text text-anchor="start" x="63.5" y="-364.5" font-family="Helvetica,sans-Serif" font-size="10.00"># get()</text>
<text text-anchor="start" x="63.5" y="-351.5" font-family="Helvetica,sans-Serif" font-size="10.00"># getLong()</text>
<text text-anchor="start" x="63.5" y="-338.5" font-family="Helvetica,sans-Serif" font-size="10.00"># getInt()</text>
<text text-anchor="start" x="63.5" y="-325.5" font-family="Helvetica,sans-Serif" font-size="10.00"># getShort()</text>
<text text-anchor="start" x="63.5" y="-312.5" font-family="Helvetica,sans-Serif" font-size="10.00"># getTriad()</text>
<text text-anchor="start" x="63.5" y="-299.5" font-family="Helvetica,sans-Serif" font-size="10.00"># getLTriad()</text>
<text text-anchor="start" x="63.5" y="-286.5" font-family="Helvetica,sans-Serif" font-size="10.00"># getByte()</text>
<text text-anchor="start" x="63.5" y="-273.5" font-family="Helvetica,sans-Serif" font-size="10.00"># getString()</text>
<text text-anchor="start" x="63.5" y="-260.5" font-family="Helvetica,sans-Serif" font-size="10.00"># feof()</text>
<text text-anchor="start" x="63.5" y="-247.5" font-family="Helvetica,sans-Serif" font-size="10.00"># put()</text>
<text text-anchor="start" x="63.5" y="-234.5" font-family="Helvetica,sans-Serif" font-size="10.00">and 7 more...</text>
</a>
</g>
<!-- Node2&#45;&gt;Node1 -->
<g id="edge2" class="edge"><title>Node2&#45;&gt;Node1</title>
<path fill="none" stroke="midnightblue" d="M111,-215.973C111,-206.66 111,-197.727 111,-189.53"/>
<polygon fill="none" stroke="midnightblue" points="107.5,-216.212 111,-226.212 114.5,-216.212 107.5,-216.212"/>
</g>
</g>
</svg>
