<?xml version="1.0" encoding="UTF-8" standalone="no"?>
<!DOCTYPE svg PUBLIC "-//W3C//DTD SVG 1.1//EN"
 "http://www.w3.org/Graphics/SVG/1.1/DTD/svg11.dtd">
<!-- Generated by graphviz version 2.36.0 (20140111.2315)
 -->
<!-- Title: pocketmine\level\format\leveldb\LevelDB\setChunk Pages: 1 -->
<svg width="520pt" height="109pt"
 viewBox="0.00 0.00 520.00 109.00" xmlns="http://www.w3.org/2000/svg" xmlns:xlink="http://www.w3.org/1999/xlink">
<g id="graph0" class="graph" transform="scale(1 1) rotate(0) translate(4 105)">
<title>pocketmine\level\format\leveldb\LevelDB\setChunk</title>
<polygon fill="white" stroke="none" points="-4,4 -4,-105 516,-105 516,4 -4,4"/>
<!-- Node1 -->
<g id="node1" class="node"><title>Node1</title>
<polygon fill="#bfbfbf" stroke="black" points="0.5,-49 0.5,-79 143.5,-79 143.5,-49 0.5,-49"/>
<text text-anchor="start" x="8.5" y="-67" font-family="Helvetica,sans-Serif" font-size="10.00">pocketmine\level\format</text>
<text text-anchor="middle" x="72" y="-56" font-family="Helvetica,sans-Serif" font-size="10.00">\leveldb\LevelDB\setChunk</text>
</g>
<!-- Node2 -->
<g id="node2" class="node"><title>Node2</title>
<g id="a_node2"><a xlink:href="../../d3/d4b/classpocketmine_1_1level_1_1_level.html#a4be83538c608928a193884ea26010d96" target="_top" xlink:title="pocketmine\\level\\Level\l\\chunkHash">
<polygon fill="white" stroke="black" points="382.5,-71 382.5,-101 507.5,-101 507.5,-71 382.5,-71"/>
<text text-anchor="start" x="390.5" y="-89" font-family="Helvetica,sans-Serif" font-size="10.00">pocketmine\level\Level</text>
<text text-anchor="middle" x="445" y="-78" font-family="Helvetica,sans-Serif" font-size="10.00">\chunkHash</text>
</a>
</g>
</g>
<!-- Node1&#45;&gt;Node2 -->
<g id="edge1" class="edge"><title>Node1&#45;&gt;Node2</title>
<path fill="none" stroke="midnightblue" d="M129.248,-79.0588C145.501,-82.7431 163.348,-86.1555 180,-88 244.839,-95.1824 319.183,-93.7603 372.422,-91.0812"/>
<polygon fill="midnightblue" stroke="midnightblue" points="372.644,-94.5744 382.444,-90.5495 372.273,-87.5843 372.644,-94.5744"/>
</g>
<!-- Node3 -->
<g id="node3" class="node"><title>Node3</title>
<g id="a_node3"><a xlink:href="../../d6/d3d/interfacepocketmine_1_1level_1_1format_1_1_full_chunk.html#af8849c78c6b531c91b7a15a00c1d8393" target="_top" xlink:title="pocketmine\\level\\format\l\\FullChunk\\setProvider">
<polygon fill="white" stroke="black" points="194.5,-49 194.5,-79 327.5,-79 327.5,-49 194.5,-49"/>
<text text-anchor="start" x="202.5" y="-67" font-family="Helvetica,sans-Serif" font-size="10.00">pocketmine\level\format</text>
<text text-anchor="middle" x="261" y="-56" font-family="Helvetica,sans-Serif" font-size="10.00">\FullChunk\setProvider</text>
</a>
</g>
</g>
<!-- Node1&#45;&gt;Node3 -->
<g id="edge2" class="edge"><title>Node1&#45;&gt;Node3</title>
<path fill="none" stroke="midnightblue" d="M143.697,-64C156.966,-64 170.888,-64 184.303,-64"/>
<polygon fill="midnightblue" stroke="midnightblue" points="184.443,-67.5001 194.443,-64 184.443,-60.5001 184.443,-67.5001"/>
</g>
<!-- Node4 -->
<g id="node4" class="node"><title>Node4</title>
<g id="a_node4"><a xlink:href="../../d2/db3/classpocketmine_1_1level_1_1format_1_1leveldb_1_1_level_d_b.html#a6cde3f51d37a8e9e902b5cdf2f524b18" target="_top" xlink:title="pocketmine\\level\\format\l\\leveldb\\LevelDB\\unloadChunk">
<polygon fill="white" stroke="black" points="180.5,-0 180.5,-30 341.5,-30 341.5,-0 180.5,-0"/>
<text text-anchor="start" x="188.5" y="-18" font-family="Helvetica,sans-Serif" font-size="10.00">pocketmine\level\format</text>
<text text-anchor="middle" x="261" y="-7" font-family="Helvetica,sans-Serif" font-size="10.00">\leveldb\LevelDB\unloadChunk</text>
</a>
</g>
</g>
<!-- Node1&#45;&gt;Node4 -->
<g id="edge3" class="edge"><title>Node1&#45;&gt;Node4</title>
<path fill="none" stroke="midnightblue" d="M130.377,-48.9654C150.122,-43.7917 172.406,-37.9525 192.858,-32.5934"/>
<polygon fill="midnightblue" stroke="midnightblue" points="193.945,-35.9267 202.731,-30.0062 192.171,-29.1553 193.945,-35.9267"/>
</g>
<!-- Node4&#45;&gt;Node2 -->
<g id="edge4" class="edge"><title>Node4&#45;&gt;Node2</title>
<path fill="none" stroke="midnightblue" d="M316.137,-30.1143C324.854,-32.8699 333.727,-35.8706 342,-39 363.217,-47.0256 386.217,-57.4639 404.996,-66.4642"/>
<polygon fill="midnightblue" stroke="midnightblue" points="403.598,-69.6761 414.124,-70.8844 406.649,-63.3759 403.598,-69.6761"/>
</g>
<!-- Node5 -->
<g id="node5" class="node"><title>Node5</title>
<g id="a_node5"><a xlink:href="../../d6/d3d/interfacepocketmine_1_1level_1_1format_1_1_full_chunk.html#ab446ee50ba4cea77040ddf6eafa69c9a" target="_top" xlink:title="pocketmine\\level\\format\l\\FullChunk\\unload">
<polygon fill="white" stroke="black" points="378.5,-0 378.5,-30 511.5,-30 511.5,-0 378.5,-0"/>
<text text-anchor="start" x="386.5" y="-18" font-family="Helvetica,sans-Serif" font-size="10.00">pocketmine\level\format</text>
<text text-anchor="middle" x="445" y="-7" font-family="Helvetica,sans-Serif" font-size="10.00">\FullChunk\unload</text>
</a>
</g>
</g>
<!-- Node4&#45;&gt;Node5 -->
<g id="edge5" class="edge"><title>Node4&#45;&gt;Node5</title>
<path fill="none" stroke="midnightblue" d="M341.563,-15C350.363,-15 359.308,-15 368.062,-15"/>
<polygon fill="midnightblue" stroke="midnightblue" points="368.23,-18.5001 378.23,-15 368.229,-11.5001 368.23,-18.5001"/>
</g>
</g>
</svg>
