<?xml version="1.0" encoding="UTF-8" standalone="no"?>
<!DOCTYPE svg PUBLIC "-//W3C//DTD SVG 1.1//EN"
 "http://www.w3.org/Graphics/SVG/1.1/DTD/svg11.dtd">
<!-- Generated by graphviz version 2.36.0 (20140111.2315)
 -->
<!-- Title: pocketmine\level\format\leveldb\LevelDB\loadChunk Pages: 1 -->
<svg width="562pt" height="185pt"
 viewBox="0.00 0.00 562.00 185.00" xmlns="http://www.w3.org/2000/svg" xmlns:xlink="http://www.w3.org/1999/xlink">
<g id="graph0" class="graph" transform="scale(1 1) rotate(0) translate(4 181)">
<title>pocketmine\level\format\leveldb\LevelDB\loadChunk</title>
<polygon fill="white" stroke="none" points="-4,4 -4,-181 558,-181 558,4 -4,4"/>
<!-- Node1 -->
<g id="node1" class="node"><title>Node1</title>
<polygon fill="#bfbfbf" stroke="black" points="0.5,-73 0.5,-103 149.5,-103 149.5,-73 0.5,-73"/>
<text text-anchor="start" x="8.5" y="-91" font-family="Helvetica,sans-Serif" font-size="10.00">pocketmine\level\format</text>
<text text-anchor="middle" x="75" y="-80" font-family="Helvetica,sans-Serif" font-size="10.00">\leveldb\LevelDB\loadChunk</text>
</g>
<!-- Node2 -->
<g id="node2" class="node"><title>Node2</title>
<g id="a_node2"><a xlink:href="../../d2/db3/classpocketmine_1_1level_1_1format_1_1leveldb_1_1_level_d_b.html#ab9414de0fdac6d6432ce1ad95ed3d0b4" target="_top" xlink:title="pocketmine\\level\\format\l\\leveldb\\LevelDB\\getChunk">
<polygon fill="white" stroke="black" points="186,-73 186,-103 330,-103 330,-73 186,-73"/>
<text text-anchor="start" x="194" y="-91" font-family="Helvetica,sans-Serif" font-size="10.00">pocketmine\level\format</text>
<text text-anchor="middle" x="258" y="-80" font-family="Helvetica,sans-Serif" font-size="10.00">\leveldb\LevelDB\getChunk</text>
</a>
</g>
</g>
<!-- Node1&#45;&gt;Node2 -->
<g id="edge1" class="edge"><title>Node1&#45;&gt;Node2</title>
<path fill="none" stroke="midnightblue" d="M159.771,-88C168.468,-88 177.249,-88 185.789,-88"/>
<polygon fill="midnightblue" stroke="midnightblue" points="159.62,-84.5001 149.62,-88 159.62,-91.5001 159.62,-84.5001"/>
</g>
<!-- Node3 -->
<g id="node3" class="node"><title>Node3</title>
<g id="a_node3"><a xlink:href="../../d2/db3/classpocketmine_1_1level_1_1format_1_1leveldb_1_1_level_d_b.html#a3e388b00ec6063dd108e050fec5aa7d1" target="_top" xlink:title="pocketmine\\level\\format\l\\leveldb\\LevelDB\\isChunkGenerated">
<polygon fill="white" stroke="black" points="366.5,-147 366.5,-177 553.5,-177 553.5,-147 366.5,-147"/>
<text text-anchor="start" x="374.5" y="-165" font-family="Helvetica,sans-Serif" font-size="10.00">pocketmine\level\format</text>
<text text-anchor="middle" x="460" y="-154" font-family="Helvetica,sans-Serif" font-size="10.00">\leveldb\LevelDB\isChunkGenerated</text>
</a>
</g>
</g>
<!-- Node2&#45;&gt;Node3 -->
<g id="edge2" class="edge"><title>Node2&#45;&gt;Node3</title>
<path fill="none" stroke="midnightblue" d="M297.552,-107.546C317.626,-117.236 342.77,-128.625 366,-137 375.909,-140.572 386.573,-143.901 397.02,-146.888"/>
<polygon fill="midnightblue" stroke="midnightblue" points="298.945,-104.332 288.424,-103.089 295.874,-110.622 298.945,-104.332"/>
</g>
<!-- Node4 -->
<g id="node4" class="node"><title>Node4</title>
<g id="a_node4"><a xlink:href="../../d2/db3/classpocketmine_1_1level_1_1format_1_1leveldb_1_1_level_d_b.html#ab37bac8e5574e9f9be72db2d5a582aa8" target="_top" xlink:title="pocketmine\\level\\format\l\\leveldb\\LevelDB\\isChunkPopulated">
<polygon fill="white" stroke="black" points="368,-98 368,-128 552,-128 552,-98 368,-98"/>
<text text-anchor="start" x="376" y="-116" font-family="Helvetica,sans-Serif" font-size="10.00">pocketmine\level\format</text>
<text text-anchor="middle" x="460" y="-105" font-family="Helvetica,sans-Serif" font-size="10.00">\leveldb\LevelDB\isChunkPopulated</text>
</a>
</g>
</g>
<!-- Node2&#45;&gt;Node4 -->
<g id="edge3" class="edge"><title>Node2&#45;&gt;Node4</title>
<path fill="none" stroke="midnightblue" d="M340.24,-98.155C349.338,-99.2923 358.651,-100.456 367.863,-101.608"/>
<polygon fill="midnightblue" stroke="midnightblue" points="340.433,-94.6519 330.076,-96.8845 339.564,-101.598 340.433,-94.6519"/>
</g>
<!-- Node5 -->
<g id="node5" class="node"><title>Node5</title>
<g id="a_node5"><a xlink:href="../../d2/db3/classpocketmine_1_1level_1_1format_1_1leveldb_1_1_level_d_b.html#acd20aa68586e4637aad80c63a5fad783" target="_top" xlink:title="pocketmine\\level\\format\l\\leveldb\\LevelDB\\requestChunkTask">
<polygon fill="white" stroke="black" points="367.5,-49 367.5,-79 552.5,-79 552.5,-49 367.5,-49"/>
<text text-anchor="start" x="375.5" y="-67" font-family="Helvetica,sans-Serif" font-size="10.00">pocketmine\level\format</text>
<text text-anchor="middle" x="460" y="-56" font-family="Helvetica,sans-Serif" font-size="10.00">\leveldb\LevelDB\requestChunkTask</text>
</a>
</g>
</g>
<!-- Node2&#45;&gt;Node5 -->
<g id="edge4" class="edge"><title>Node2&#45;&gt;Node5</title>
<path fill="none" stroke="midnightblue" d="M340.051,-78.2738C348.98,-77.2024 358.117,-76.1059 367.165,-75.0202"/>
<polygon fill="midnightblue" stroke="midnightblue" points="339.587,-74.8043 330.076,-79.4709 340.421,-81.7545 339.587,-74.8043"/>
</g>
<!-- Node6 -->
<g id="node6" class="node"><title>Node6</title>
<g id="a_node6"><a xlink:href="../../d2/db3/classpocketmine_1_1level_1_1format_1_1leveldb_1_1_level_d_b.html#a5f0c88230a09c4865f30b415a5b35d43" target="_top" xlink:title="pocketmine\\level\\format\l\\leveldb\\LevelDB\\saveChunk">
<polygon fill="white" stroke="black" points="384.5,-0 384.5,-30 535.5,-30 535.5,-0 384.5,-0"/>
<text text-anchor="start" x="392.5" y="-18" font-family="Helvetica,sans-Serif" font-size="10.00">pocketmine\level\format</text>
<text text-anchor="middle" x="460" y="-7" font-family="Helvetica,sans-Serif" font-size="10.00">\leveldb\LevelDB\saveChunk</text>
</a>
</g>
</g>
<!-- Node2&#45;&gt;Node6 -->
<g id="edge5" class="edge"><title>Node2&#45;&gt;Node6</title>
<path fill="none" stroke="midnightblue" d="M298.457,-68.4885C318.396,-59.0967 343.151,-48.138 366,-40 376.08,-36.41 386.932,-33.0524 397.541,-30.0356"/>
<polygon fill="midnightblue" stroke="midnightblue" points="296.896,-65.3552 289.373,-72.8153 299.906,-71.6749 296.896,-65.3552"/>
</g>
</g>
</svg>
