<?xml version="1.0" encoding="UTF-8" standalone="no"?>
<!DOCTYPE svg PUBLIC "-//W3C//DTD SVG 1.1//EN"
 "http://www.w3.org/Graphics/SVG/1.1/DTD/svg11.dtd">
<!-- Generated by graphviz version 2.36.0 (20140111.2315)
 -->
<!-- Title: pocketmine\level\format\leveldb\LevelDB\saveChunk Pages: 1 -->
<svg width="710pt" height="103pt"
 viewBox="0.00 0.00 710.00 102.68" xmlns="http://www.w3.org/2000/svg" xmlns:xlink="http://www.w3.org/1999/xlink">
<g id="graph0" class="graph" transform="scale(1 1) rotate(0) translate(4 98.683)">
<title>pocketmine\level\format\leveldb\LevelDB\saveChunk</title>
<polygon fill="white" stroke="none" points="-4,4 -4,-98.683 706,-98.683 706,4 -4,4"/>
<!-- Node1 -->
<g id="node1" class="node"><title>Node1</title>
<polygon fill="#bfbfbf" stroke="black" points="0.5,-26 0.5,-56 151.5,-56 151.5,-26 0.5,-26"/>
<text text-anchor="start" x="8.5" y="-44" font-family="Helvetica,sans-Serif" font-size="10.00">pocketmine\level\format</text>
<text text-anchor="middle" x="76" y="-33" font-family="Helvetica,sans-Serif" font-size="10.00">\leveldb\LevelDB\saveChunk</text>
</g>
<!-- Node2 -->
<g id="node2" class="node"><title>Node2</title>
<g id="a_node2"><a xlink:href="../../d2/db3/classpocketmine_1_1level_1_1format_1_1leveldb_1_1_level_d_b.html#ab9414de0fdac6d6432ce1ad95ed3d0b4" target="_top" xlink:title="pocketmine\\level\\format\l\\leveldb\\LevelDB\\getChunk">
<polygon fill="white" stroke="black" points="188,-49 188,-79 332,-79 332,-49 188,-49"/>
<text text-anchor="start" x="196" y="-67" font-family="Helvetica,sans-Serif" font-size="10.00">pocketmine\level\format</text>
<text text-anchor="middle" x="260" y="-56" font-family="Helvetica,sans-Serif" font-size="10.00">\leveldb\LevelDB\getChunk</text>
</a>
</g>
</g>
<!-- Node1&#45;&gt;Node2 -->
<g id="edge1" class="edge"><title>Node1&#45;&gt;Node2</title>
<path fill="none" stroke="midnightblue" d="M151.551,-50.4213C160.16,-51.5092 168.971,-52.6227 177.663,-53.7211"/>
<polygon fill="midnightblue" stroke="midnightblue" points="177.433,-57.2198 187.793,-55.0013 178.311,-50.2751 177.433,-57.2198"/>
</g>
<!-- Node5 -->
<g id="node5" class="node"><title>Node5</title>
<g id="a_node5"><a xlink:href="../../d2/db3/classpocketmine_1_1level_1_1format_1_1leveldb_1_1_level_d_b.html#a3c2457be406ff436a887866bd4e9225e" target="_top" xlink:title="pocketmine\\level\\format\l\\leveldb\\LevelDB\\isChunkLoaded">
<polygon fill="white" stroke="black" points="368.5,-0 368.5,-30 539.5,-30 539.5,-0 368.5,-0"/>
<text text-anchor="start" x="376.5" y="-18" font-family="Helvetica,sans-Serif" font-size="10.00">pocketmine\level\format</text>
<text text-anchor="middle" x="454" y="-7" font-family="Helvetica,sans-Serif" font-size="10.00">\leveldb\LevelDB\isChunkLoaded</text>
</a>
</g>
</g>
<!-- Node1&#45;&gt;Node5 -->
<g id="edge5" class="edge"><title>Node1&#45;&gt;Node5</title>
<path fill="none" stroke="midnightblue" d="M151.735,-35.8322C210.994,-31.7344 294.19,-25.9815 358.144,-21.5592"/>
<polygon fill="midnightblue" stroke="midnightblue" points="358.501,-25.0429 368.236,-20.8613 358.018,-18.0596 358.501,-25.0429"/>
</g>
<!-- Node3 -->
<g id="node3" class="node"><title>Node3</title>
<g id="a_node3"><a xlink:href="../../d3/d4b/classpocketmine_1_1level_1_1_level.html#a4be83538c608928a193884ea26010d96" target="_top" xlink:title="pocketmine\\level\\Level\l\\chunkHash">
<polygon fill="white" stroke="black" points="576.5,-49 576.5,-79 701.5,-79 701.5,-49 576.5,-49"/>
<text text-anchor="start" x="584.5" y="-67" font-family="Helvetica,sans-Serif" font-size="10.00">pocketmine\level\Level</text>
<text text-anchor="middle" x="639" y="-56" font-family="Helvetica,sans-Serif" font-size="10.00">\chunkHash</text>
</a>
</g>
</g>
<!-- Node2&#45;&gt;Node3 -->
<g id="edge2" class="edge"><title>Node2&#45;&gt;Node3</title>
<path fill="none" stroke="midnightblue" d="M317.248,-79.0588C333.501,-82.7431 351.348,-86.1555 368,-88 443.98,-96.4165 464.106,-97.1578 540,-88 551.956,-86.5573 564.558,-84.1586 576.597,-81.4214"/>
<polygon fill="midnightblue" stroke="midnightblue" points="577.631,-84.7732 586.551,-79.0561 576.013,-77.9629 577.631,-84.7732"/>
</g>
<!-- Node4 -->
<g id="node4" class="node"><title>Node4</title>
<g id="a_node4"><a xlink:href="../../d2/db3/classpocketmine_1_1level_1_1format_1_1leveldb_1_1_level_d_b.html#acc13d72c4c48eecb769dcf508e380402" target="_top" xlink:title="pocketmine\\level\\format\l\\leveldb\\LevelDB\\loadChunk">
<polygon fill="white" stroke="black" points="379.5,-49 379.5,-79 528.5,-79 528.5,-49 379.5,-49"/>
<text text-anchor="start" x="387.5" y="-67" font-family="Helvetica,sans-Serif" font-size="10.00">pocketmine\level\format</text>
<text text-anchor="middle" x="454" y="-56" font-family="Helvetica,sans-Serif" font-size="10.00">\leveldb\LevelDB\loadChunk</text>
</a>
</g>
</g>
<!-- Node2&#45;&gt;Node4 -->
<g id="edge3" class="edge"><title>Node2&#45;&gt;Node4</title>
<path fill="none" stroke="midnightblue" d="M332.221,-64C344.227,-64 356.788,-64 369.081,-64"/>
<polygon fill="midnightblue" stroke="midnightblue" points="369.326,-67.5001 379.325,-64 369.325,-60.5001 369.326,-67.5001"/>
</g>
<!-- Node4&#45;&gt;Node3 -->
<g id="edge4" class="edge"><title>Node4&#45;&gt;Node3</title>
<path fill="none" stroke="midnightblue" d="M528.642,-64C540.979,-64 553.767,-64 566.061,-64"/>
<polygon fill="midnightblue" stroke="midnightblue" points="566.25,-67.5001 576.25,-64 566.25,-60.5001 566.25,-67.5001"/>
</g>
<!-- Node5&#45;&gt;Node3 -->
<g id="edge6" class="edge"><title>Node5&#45;&gt;Node3</title>
<path fill="none" stroke="midnightblue" d="M511.399,-30.1014C530.535,-35.2253 552.086,-40.9956 571.908,-46.3032"/>
<polygon fill="midnightblue" stroke="midnightblue" points="571.222,-49.7428 581.787,-48.9484 573.033,-42.981 571.222,-49.7428"/>
</g>
</g>
</svg>
