<?xml version="1.0" encoding="UTF-8" standalone="no"?>
<!DOCTYPE svg PUBLIC "-//W3C//DTD SVG 1.1//EN"
 "http://www.w3.org/Graphics/SVG/1.1/DTD/svg11.dtd">
<!-- Generated by graphviz version 2.36.0 (20140111.2315)
 -->
<!-- Title: pocketmine\level\format\leveldb\LevelDB\getChunk Pages: 1 -->
<svg width="500pt" height="60pt"
 viewBox="0.00 0.00 500.00 60.00" xmlns="http://www.w3.org/2000/svg" xmlns:xlink="http://www.w3.org/1999/xlink">
<g id="graph0" class="graph" transform="scale(1 1) rotate(0) translate(4 56)">
<title>pocketmine\level\format\leveldb\LevelDB\getChunk</title>
<polygon fill="white" stroke="none" points="-4,4 -4,-56 496,-56 496,4 -4,4"/>
<!-- Node1 -->
<g id="node1" class="node"><title>Node1</title>
<polygon fill="#bfbfbf" stroke="black" points="0,-22 0,-52 144,-52 144,-22 0,-22"/>
<text text-anchor="start" x="8" y="-40" font-family="Helvetica,sans-Serif" font-size="10.00">pocketmine\level\format</text>
<text text-anchor="middle" x="72" y="-29" font-family="Helvetica,sans-Serif" font-size="10.00">\leveldb\LevelDB\getChunk</text>
</g>
<!-- Node2 -->
<g id="node2" class="node"><title>Node2</title>
<g id="a_node2"><a xlink:href="../../d3/d4b/classpocketmine_1_1level_1_1_level.html#a4be83538c608928a193884ea26010d96" target="_top" xlink:title="pocketmine\\level\\Level\l\\chunkHash">
<polygon fill="white" stroke="black" points="366.5,-22 366.5,-52 491.5,-52 491.5,-22 366.5,-22"/>
<text text-anchor="start" x="374.5" y="-40" font-family="Helvetica,sans-Serif" font-size="10.00">pocketmine\level\Level</text>
<text text-anchor="middle" x="429" y="-29" font-family="Helvetica,sans-Serif" font-size="10.00">\chunkHash</text>
</a>
</g>
</g>
<!-- Node1&#45;&gt;Node2 -->
<g id="edge1" class="edge"><title>Node1&#45;&gt;Node2</title>
<path fill="none" stroke="midnightblue" d="M144.079,-38.5146C156.069,-38.7168 168.388,-38.8915 180,-39 246.664,-39.623 263.337,-39.6802 330,-39 338.439,-38.9139 347.286,-38.7861 356.067,-38.636"/>
<polygon fill="midnightblue" stroke="midnightblue" points="356.38,-42.131 366.316,-38.4507 356.254,-35.1321 356.38,-42.131"/>
</g>
<!-- Node3 -->
<g id="node3" class="node"><title>Node3</title>
<g id="a_node3"><a xlink:href="../../d2/db3/classpocketmine_1_1level_1_1format_1_1leveldb_1_1_level_d_b.html#acc13d72c4c48eecb769dcf508e380402" target="_top" xlink:title="pocketmine\\level\\format\l\\leveldb\\LevelDB\\loadChunk">
<polygon fill="white" stroke="black" points="180.5,-0 180.5,-30 329.5,-30 329.5,-0 180.5,-0"/>
<text text-anchor="start" x="188.5" y="-18" font-family="Helvetica,sans-Serif" font-size="10.00">pocketmine\level\format</text>
<text text-anchor="middle" x="255" y="-7" font-family="Helvetica,sans-Serif" font-size="10.00">\leveldb\LevelDB\loadChunk</text>
</a>
</g>
</g>
<!-- Node1&#45;&gt;Node3 -->
<g id="edge2" class="edge"><title>Node1&#45;&gt;Node3</title>
<path fill="none" stroke="midnightblue" d="M144.016,-28.3682C152.559,-27.3299 161.344,-26.2621 170.048,-25.2041"/>
<polygon fill="midnightblue" stroke="midnightblue" points="170.704,-28.6502 180.209,-23.9691 169.86,-21.7013 170.704,-28.6502"/>
</g>
<!-- Node3&#45;&gt;Node2 -->
<g id="edge3" class="edge"><title>Node3&#45;&gt;Node2</title>
<path fill="none" stroke="midnightblue" d="M329.942,-24.4577C338.646,-25.5709 347.518,-26.7057 356.191,-27.8152"/>
<polygon fill="midnightblue" stroke="midnightblue" points="355.898,-31.306 366.261,-29.1031 356.786,-24.3626 355.898,-31.306"/>
</g>
</g>
</svg>
