<?xml version="1.0" encoding="UTF-8" standalone="no"?>
<!DOCTYPE svg PUBLIC "-//W3C//DTD SVG 1.1//EN"
 "http://www.w3.org/Graphics/SVG/1.1/DTD/svg11.dtd">
<!-- Generated by graphviz version 2.36.0 (20140111.2315)
 -->
<!-- Title: pocketmine\level\format\leveldb\LevelDB\isChunkLoaded Pages: 1 -->
<svg width="368pt" height="38pt"
 viewBox="0.00 0.00 368.00 38.00" xmlns="http://www.w3.org/2000/svg" xmlns:xlink="http://www.w3.org/1999/xlink">
<g id="graph0" class="graph" transform="scale(1 1) rotate(0) translate(4 34)">
<title>pocketmine\level\format\leveldb\LevelDB\isChunkLoaded</title>
<polygon fill="white" stroke="none" points="-4,4 -4,-34 364,-34 364,4 -4,4"/>
<!-- Node1 -->
<g id="node1" class="node"><title>Node1</title>
<polygon fill="#bfbfbf" stroke="black" points="0.5,-0 0.5,-30 171.5,-30 171.5,-0 0.5,-0"/>
<text text-anchor="start" x="8.5" y="-18" font-family="Helvetica,sans-Serif" font-size="10.00">pocketmine\level\format</text>
<text text-anchor="middle" x="86" y="-7" font-family="Helvetica,sans-Serif" font-size="10.00">\leveldb\LevelDB\isChunkLoaded</text>
</g>
<!-- Node2 -->
<g id="node2" class="node"><title>Node2</title>
<g id="a_node2"><a xlink:href="../../d2/db3/classpocketmine_1_1level_1_1format_1_1leveldb_1_1_level_d_b.html#a5f0c88230a09c4865f30b415a5b35d43" target="_top" xlink:title="pocketmine\\level\\format\l\\leveldb\\LevelDB\\saveChunk">
<polygon fill="white" stroke="black" points="208.5,-0 208.5,-30 359.5,-30 359.5,-0 208.5,-0"/>
<text text-anchor="start" x="216.5" y="-18" font-family="Helvetica,sans-Serif" font-size="10.00">pocketmine\level\format</text>
<text text-anchor="middle" x="284" y="-7" font-family="Helvetica,sans-Serif" font-size="10.00">\leveldb\LevelDB\saveChunk</text>
</a>
</g>
</g>
<!-- Node1&#45;&gt;Node2 -->
<g id="edge1" class="edge"><title>Node1&#45;&gt;Node2</title>
<path fill="none" stroke="midnightblue" d="M181.621,-15C190.574,-15 199.565,-15 208.295,-15"/>
<polygon fill="midnightblue" stroke="midnightblue" points="181.544,-11.5001 171.544,-15 181.544,-18.5001 181.544,-11.5001"/>
</g>
</g>
</svg>
