<?xml version="1.0" encoding="UTF-8" standalone="no"?>
<!DOCTYPE svg PUBLIC "-//W3C//DTD SVG 1.1//EN"
 "http://www.w3.org/Graphics/SVG/1.1/DTD/svg11.dtd">
<!-- Generated by graphviz version 2.26.3 (20100126.1600)
 -->
<!-- Title: pocketmine\nbt\tag\Int Pages: 1 -->
<svg width="126pt" height="504pt"
 viewBox="0.00 0.00 126.00 504.00" xmlns="http://www.w3.org/2000/svg" xmlns:xlink="http://www.w3.org/1999/xlink">
<g id="graph1" class="graph" transform="scale(1 1) rotate(0) translate(4 500)">
<title>pocketmine\nbt\tag\Int</title>
<polygon fill="white" stroke="white" points="-4,5 -4,-500 123,-500 123,5 -4,5"/>
<!-- Node1 -->
<g id="node1" class="node"><title>Node1</title>
<polygon fill="#bfbfbf" stroke="black" points="2,-0.5 2,-89.5 116,-89.5 116,-0.5 2,-0.5"/>
<text text-anchor="middle" x="59" y="-76.5" font-family="Helvetica,sans-Serif" font-size="10.00">pocketmine\nbt\tag\Int</text>
<polyline fill="none" stroke="black" points="2,-68.5 116,-68.5 "/>
<text text-anchor="middle" x="59" y="-55.5" font-family="Helvetica,sans-Serif" font-size="10.00"> </text>
<polyline fill="none" stroke="black" points="2,-47.5 116,-47.5 "/>
<text text-anchor="start" x="10" y="-34.5" font-family="Helvetica,sans-Serif" font-size="10.00">+ getType()</text>
<text text-anchor="start" x="10" y="-21.5" font-family="Helvetica,sans-Serif" font-size="10.00">+ read()</text>
<text text-anchor="start" x="10" y="-8.5" font-family="Helvetica,sans-Serif" font-size="10.00">+ write()</text>
</g>
<!-- Node2 -->
<g id="node2" class="node"><title>Node2</title>
<a xlink:href="../../d9/dc5/classpocketmine_1_1nbt_1_1tag_1_1_named_tag.html" target="_top" xlink:title="{pocketmine\\nbt\\tag\l\\NamedTag\n|# $name\l|+ __construct()\l+ getName()\l+ setName()\l}">
<polygon fill="white" stroke="black" points="9,-127 9,-229 109,-229 109,-127 9,-127"/>
<text text-anchor="start" x="17" y="-216" font-family="Helvetica,sans-Serif" font-size="10.00">pocketmine\nbt\tag</text>
<text text-anchor="middle" x="59" y="-203" font-family="Helvetica,sans-Serif" font-size="10.00">\NamedTag</text>
<polyline fill="none" stroke="black" points="9,-195 109,-195 "/>
<text text-anchor="start" x="17" y="-182" font-family="Helvetica,sans-Serif" font-size="10.00"># $name</text>
<polyline fill="none" stroke="black" points="9,-174 109,-174 "/>
<text text-anchor="start" x="17" y="-161" font-family="Helvetica,sans-Serif" font-size="10.00">+ __construct()</text>
<text text-anchor="start" x="17" y="-148" font-family="Helvetica,sans-Serif" font-size="10.00">+ getName()</text>
<text text-anchor="start" x="17" y="-135" font-family="Helvetica,sans-Serif" font-size="10.00">+ setName()</text>
</a>
</g>
<!-- Node2&#45;&gt;Node1 -->
<g id="edge2" class="edge"><title>Node2&#45;&gt;Node1</title>
<path fill="none" stroke="midnightblue" d="M59,-116.733C59,-107.593 59,-98.3199 59,-89.6108"/>
<polygon fill="none" stroke="midnightblue" points="55.5001,-116.959 59,-126.959 62.5001,-116.959 55.5001,-116.959"/>
</g>
<!-- Node3 -->
<g id="node4" class="node"><title>Node3</title>
<a xlink:href="../../dc/d26/classpocketmine_1_1nbt_1_1tag_1_1_tag.html" target="_top" xlink:title="{pocketmine\\nbt\\tag\\Tag\n|# $value\l|+ getValue()\l+ getType()\l+ setValue()\l+ write()\l+ read()\l+ __toString()\l}">
<polygon fill="white" stroke="black" points="-0.5,-267 -0.5,-395 118.5,-395 118.5,-267 -0.5,-267"/>
<text text-anchor="middle" x="59" y="-382" font-family="Helvetica,sans-Serif" font-size="10.00">pocketmine\nbt\tag\Tag</text>
<polyline fill="none" stroke="black" points="-0.5,-374 118.5,-374 "/>
<text text-anchor="start" x="7.5" y="-361" font-family="Helvetica,sans-Serif" font-size="10.00"># $value</text>
<polyline fill="none" stroke="black" points="-0.5,-353 118.5,-353 "/>
<text text-anchor="start" x="7.5" y="-340" font-family="Helvetica,sans-Serif" font-size="10.00">+ getValue()</text>
<text text-anchor="start" x="7.5" y="-327" font-family="Helvetica,sans-Serif" font-size="10.00">+ getType()</text>
<text text-anchor="start" x="7.5" y="-314" font-family="Helvetica,sans-Serif" font-size="10.00">+ setValue()</text>
<text text-anchor="start" x="7.5" y="-301" font-family="Helvetica,sans-Serif" font-size="10.00">+ write()</text>
<text text-anchor="start" x="7.5" y="-288" font-family="Helvetica,sans-Serif" font-size="10.00">+ read()</text>
<text text-anchor="start" x="7.5" y="-275" font-family="Helvetica,sans-Serif" font-size="10.00">+ __toString()</text>
</a>
</g>
<!-- Node3&#45;&gt;Node2 -->
<g id="edge4" class="edge"><title>Node3&#45;&gt;Node2</title>
<path fill="none" stroke="midnightblue" d="M59,-256.305C59,-247.187 59,-238.034 59,-229.366"/>
<polygon fill="none" stroke="midnightblue" points="55.5001,-256.558 59,-266.558 62.5001,-256.558 55.5001,-256.558"/>
</g>
<!-- Node4 -->
<g id="node6" class="node"><title>Node4</title>
<polygon fill="white" stroke="#bfbfbf" points="31,-432.5 31,-495.5 87,-495.5 87,-432.5 31,-432.5"/>
<text text-anchor="middle" x="59" y="-482.5" font-family="Helvetica,sans-Serif" font-size="10.00">stdClass</text>
<polyline fill="none" stroke="#bfbfbf" points="31,-474.5 87,-474.5 "/>
<text text-anchor="middle" x="59" y="-461.5" font-family="Helvetica,sans-Serif" font-size="10.00"> </text>
<polyline fill="none" stroke="#bfbfbf" points="31,-453.5 87,-453.5 "/>
<text text-anchor="middle" x="59" y="-440.5" font-family="Helvetica,sans-Serif" font-size="10.00"> </text>
</g>
<!-- Node4&#45;&gt;Node3 -->
<g id="edge6" class="edge"><title>Node4&#45;&gt;Node3</title>
<path fill="none" stroke="midnightblue" d="M59,-422.338C59,-413.719 59,-404.45 59,-395.239"/>
<polygon fill="none" stroke="midnightblue" points="55.5001,-422.481 59,-432.481 62.5001,-422.481 55.5001,-422.481"/>
</g>
</g>
</svg>
