<?xml version="1.0" encoding="UTF-8" standalone="no"?>
<!DOCTYPE svg PUBLIC "-//W3C//DTD SVG 1.1//EN"
 "http://www.w3.org/Graphics/SVG/1.1/DTD/svg11.dtd">
<!-- Generated by graphviz version 2.36.0 (20140111.2315)
 -->
<!-- Title: pocketmine\nbt\tag\Int Pages: 1 -->
<svg width="136pt" height="460pt"
 viewBox="0.00 0.00 136.00 460.00" xmlns="http://www.w3.org/2000/svg" xmlns:xlink="http://www.w3.org/1999/xlink">
<g id="graph0" class="graph" transform="scale(1 1) rotate(0) translate(4 456)">
<title>pocketmine\nbt\tag\Int</title>
<polygon fill="white" stroke="none" points="-4,4 -4,-456 132,-456 132,4 -4,4"/>
<!-- Node1 -->
<g id="node1" class="node"><title>Node1</title>
<polygon fill="#bfbfbf" stroke="black" points="1.5,-0.5 1.5,-79.5 126.5,-79.5 126.5,-0.5 1.5,-0.5"/>
<text text-anchor="middle" x="64" y="-67.5" font-family="Helvetica,sans-Serif" font-size="10.00">pocketmine\nbt\tag\Int</text>
<polyline fill="none" stroke="black" points="1.5,-60.5 126.5,-60.5 "/>
<text text-anchor="middle" x="64" y="-48.5" font-family="Helvetica,sans-Serif" font-size="10.00"> </text>
<polyline fill="none" stroke="black" points="1.5,-41.5 126.5,-41.5 "/>
<text text-anchor="start" x="9.5" y="-29.5" font-family="Helvetica,sans-Serif" font-size="10.00">+ getType()</text>
<text text-anchor="start" x="9.5" y="-18.5" font-family="Helvetica,sans-Serif" font-size="10.00">+ read()</text>
<text text-anchor="start" x="9.5" y="-7.5" font-family="Helvetica,sans-Serif" font-size="10.00">+ write()</text>
</g>
<!-- Node2 -->
<g id="node2" class="node"><title>Node2</title>
<g id="a_node2"><a xlink:href="../../d9/dc5/classpocketmine_1_1nbt_1_1tag_1_1_named_tag.html" target="_top" xlink:title="{pocketmine\\nbt\\tag\l\\NamedTag\n|# $name\l|+ __construct()\l+ getName()\l+ setName()\l}">
<polygon fill="white" stroke="black" points="9,-117 9,-207 119,-207 119,-117 9,-117"/>
<text text-anchor="start" x="17" y="-195" font-family="Helvetica,sans-Serif" font-size="10.00">pocketmine\nbt\tag</text>
<text text-anchor="middle" x="64" y="-184" font-family="Helvetica,sans-Serif" font-size="10.00">\NamedTag</text>
<polyline fill="none" stroke="black" points="9,-177 119,-177 "/>
<text text-anchor="start" x="17" y="-165" font-family="Helvetica,sans-Serif" font-size="10.00"># $name</text>
<polyline fill="none" stroke="black" points="9,-158 119,-158 "/>
<text text-anchor="start" x="17" y="-146" font-family="Helvetica,sans-Serif" font-size="10.00">+ __construct()</text>
<text text-anchor="start" x="17" y="-135" font-family="Helvetica,sans-Serif" font-size="10.00">+ getName()</text>
<text text-anchor="start" x="17" y="-124" font-family="Helvetica,sans-Serif" font-size="10.00">+ setName()</text>
</a>
</g>
</g>
<!-- Node2&#45;&gt;Node1 -->
<g id="edge1" class="edge"><title>Node2&#45;&gt;Node1</title>
<path fill="none" stroke="midnightblue" d="M64,-106.844C64,-97.7422 64,-88.4594 64,-79.844"/>
<polygon fill="none" stroke="midnightblue" points="60.5001,-106.998 64,-116.998 67.5001,-106.998 60.5001,-106.998"/>
</g>
<!-- Node3 -->
<g id="node3" class="node"><title>Node3</title>
<g id="a_node3"><a xlink:href="../../dc/d26/classpocketmine_1_1nbt_1_1tag_1_1_tag.html" target="_top" xlink:title="{pocketmine\\nbt\\tag\\Tag\n|# $value\l|+ getValue()\l+ getType()\l+ setValue()\l+ write()\l+ read()\l+ __toString()\l}">
<polygon fill="white" stroke="black" points="-0.5,-245 -0.5,-357 128.5,-357 128.5,-245 -0.5,-245"/>
<text text-anchor="middle" x="64" y="-345" font-family="Helvetica,sans-Serif" font-size="10.00">pocketmine\nbt\tag\Tag</text>
<polyline fill="none" stroke="black" points="-0.5,-338 128.5,-338 "/>
<text text-anchor="start" x="7.5" y="-326" font-family="Helvetica,sans-Serif" font-size="10.00"># $value</text>
<polyline fill="none" stroke="black" points="-0.5,-319 128.5,-319 "/>
<text text-anchor="start" x="7.5" y="-307" font-family="Helvetica,sans-Serif" font-size="10.00">+ getValue()</text>
<text text-anchor="start" x="7.5" y="-296" font-family="Helvetica,sans-Serif" font-size="10.00">+ getType()</text>
<text text-anchor="start" x="7.5" y="-285" font-family="Helvetica,sans-Serif" font-size="10.00">+ setValue()</text>
<text text-anchor="start" x="7.5" y="-274" font-family="Helvetica,sans-Serif" font-size="10.00">+ write()</text>
<text text-anchor="start" x="7.5" y="-263" font-family="Helvetica,sans-Serif" font-size="10.00">+ read()</text>
<text text-anchor="start" x="7.5" y="-252" font-family="Helvetica,sans-Serif" font-size="10.00">+ __toString()</text>
</a>
</g>
</g>
<!-- Node3&#45;&gt;Node2 -->
<g id="edge2" class="edge"><title>Node3&#45;&gt;Node2</title>
<path fill="none" stroke="midnightblue" d="M64,-234.634C64,-225.326 64,-215.94 64,-207.167"/>
<polygon fill="none" stroke="midnightblue" points="60.5001,-234.672 64,-244.672 67.5001,-234.672 60.5001,-234.672"/>
</g>
<!-- Node4 -->
<g id="node4" class="node"><title>Node4</title>
<polygon fill="white" stroke="#bfbfbf" points="35.5,-394.5 35.5,-451.5 92.5,-451.5 92.5,-394.5 35.5,-394.5"/>
<text text-anchor="middle" x="64" y="-439.5" font-family="Helvetica,sans-Serif" font-size="10.00">stdClass</text>
<polyline fill="none" stroke="#bfbfbf" points="35.5,-432.5 92.5,-432.5 "/>
<text text-anchor="middle" x="64" y="-420.5" font-family="Helvetica,sans-Serif" font-size="10.00"> </text>
<polyline fill="none" stroke="#bfbfbf" points="35.5,-413.5 92.5,-413.5 "/>
<text text-anchor="middle" x="64" y="-401.5" font-family="Helvetica,sans-Serif" font-size="10.00"> </text>
</g>
<!-- Node4&#45;&gt;Node3 -->
<g id="edge3" class="edge"><title>Node4&#45;&gt;Node3</title>
<path fill="none" stroke="midnightblue" d="M64,-384.398C64,-375.802 64,-366.49 64,-357.324"/>
<polygon fill="none" stroke="midnightblue" points="60.5001,-384.47 64,-394.47 67.5001,-384.47 60.5001,-384.47"/>
</g>
</g>
</svg>
