<?xml version="1.0" encoding="UTF-8" standalone="no"?>
<!DOCTYPE svg PUBLIC "-//W3C//DTD SVG 1.1//EN"
 "http://www.w3.org/Graphics/SVG/1.1/DTD/svg11.dtd">
<!-- Generated by graphviz version 2.26.3 (20100126.1600)
 -->
<!-- Title: G Pages: 1 -->
<svg width="346pt" height="430pt"
 viewBox="0.00 0.00 346.00 430.00" xmlns="http://www.w3.org/2000/svg" xmlns:xlink="http://www.w3.org/1999/xlink">
<g id="graph1" class="graph" transform="scale(1 1) rotate(0) translate(4 426)">
<title>G</title>
<polygon fill="white" stroke="white" points="-4,5 -4,-426 343,-426 343,5 -4,5"/>
<!-- Node1 -->
<g id="node1" class="node"><title>Node1</title>
<polygon fill="#bfbfbf" stroke="black" points="76,-0.5 76,-167.5 274,-167.5 274,-0.5 76,-0.5"/>
<text text-anchor="middle" x="175" y="-154.5" font-family="Helvetica,sans-Serif" font-size="10.00">pocketmine\event\block\BlockPlaceEvent</text>
<polyline fill="none" stroke="black" points="76,-146.5 274,-146.5 "/>
<text text-anchor="start" x="84" y="-133.5" font-family="Helvetica,sans-Serif" font-size="10.00">+ $handlerList</text>
<text text-anchor="start" x="84" y="-120.5" font-family="Helvetica,sans-Serif" font-size="10.00"># $player</text>
<text text-anchor="start" x="84" y="-107.5" font-family="Helvetica,sans-Serif" font-size="10.00"># $item</text>
<text text-anchor="start" x="84" y="-94.5" font-family="Helvetica,sans-Serif" font-size="10.00"># $blockReplace</text>
<text text-anchor="start" x="84" y="-81.5" font-family="Helvetica,sans-Serif" font-size="10.00"># $blockAgainst</text>
<polyline fill="none" stroke="black" points="76,-73.5 274,-73.5 "/>
<text text-anchor="start" x="84" y="-60.5" font-family="Helvetica,sans-Serif" font-size="10.00">+ __construct()</text>
<text text-anchor="start" x="84" y="-47.5" font-family="Helvetica,sans-Serif" font-size="10.00">+ getPlayer()</text>
<text text-anchor="start" x="84" y="-34.5" font-family="Helvetica,sans-Serif" font-size="10.00">+ getItem()</text>
<text text-anchor="start" x="84" y="-21.5" font-family="Helvetica,sans-Serif" font-size="10.00">+ getBlockReplaced()</text>
<text text-anchor="start" x="84" y="-8.5" font-family="Helvetica,sans-Serif" font-size="10.00">+ getBlockAgainst()</text>
</g>
<!-- Node2 -->
<g id="node2" class="node"><title>Node2</title>
<a xlink:href="../../df/d69/classpocketmine_1_1event_1_1block_1_1_block_event.html" target="_top" xlink:title="{pocketmine\\event\\block\\BlockEvent\n|# $block\l|+ getBlock()\l}">
<polygon fill="white" stroke="black" points="-0.5,-211.5 -0.5,-274.5 172.5,-274.5 172.5,-211.5 -0.5,-211.5"/>
<text text-anchor="middle" x="86" y="-261.5" font-family="Helvetica,sans-Serif" font-size="10.00">pocketmine\event\block\BlockEvent</text>
<polyline fill="none" stroke="black" points="-0.5,-253.5 172.5,-253.5 "/>
<text text-anchor="start" x="7.5" y="-240.5" font-family="Helvetica,sans-Serif" font-size="10.00"># $block</text>
<polyline fill="none" stroke="black" points="-0.5,-232.5 172.5,-232.5 "/>
<text text-anchor="start" x="7.5" y="-219.5" font-family="Helvetica,sans-Serif" font-size="10.00">+ getBlock()</text>
</a>
</g>
<!-- Node2&#45;&gt;Node1 -->
<g id="edge2" class="edge"><title>Node2&#45;&gt;Node1</title>
<path fill="none" stroke="midnightblue" d="M108.83,-202.214C114.775,-191.593 121.403,-179.752 128.103,-167.782"/>
<polygon fill="none" stroke="midnightblue" points="105.627,-200.771 103.797,-211.206 111.735,-204.19 105.627,-200.771"/>
</g>
<!-- Node3 -->
<g id="node4" class="node"><title>Node3</title>
<a xlink:href="../../d1/d2f/classpocketmine_1_1event_1_1_event.html" target="_top" xlink:title="{pocketmine\\event\\Event\n|# $eventName\l|+ getEventName()\l+ isCancelled()\l+ setCancelled()\l+ getHandlers()\l}">
<polygon fill="white" stroke="black" points="25,-319 25,-421 147,-421 147,-319 25,-319"/>
<text text-anchor="middle" x="86" y="-408" font-family="Helvetica,sans-Serif" font-size="10.00">pocketmine\event\Event</text>
<polyline fill="none" stroke="black" points="25,-400 147,-400 "/>
<text text-anchor="start" x="33" y="-387" font-family="Helvetica,sans-Serif" font-size="10.00"># $eventName</text>
<polyline fill="none" stroke="black" points="25,-379 147,-379 "/>
<text text-anchor="start" x="33" y="-366" font-family="Helvetica,sans-Serif" font-size="10.00">+ getEventName()</text>
<text text-anchor="start" x="33" y="-353" font-family="Helvetica,sans-Serif" font-size="10.00">+ isCancelled()</text>
<text text-anchor="start" x="33" y="-340" font-family="Helvetica,sans-Serif" font-size="10.00">+ setCancelled()</text>
<text text-anchor="start" x="33" y="-327" font-family="Helvetica,sans-Serif" font-size="10.00">+ getHandlers()</text>
</a>
</g>
<!-- Node3&#45;&gt;Node2 -->
<g id="edge4" class="edge"><title>Node3&#45;&gt;Node2</title>
<path fill="none" stroke="midnightblue" d="M86,-308.5C86,-296.81 86,-285.03 86,-274.745"/>
<polygon fill="none" stroke="midnightblue" points="82.5001,-308.71 86,-318.71 89.5001,-308.71 82.5001,-308.71"/>
</g>
<!-- Node4 -->
<g id="node6" class="node"><title>Node4</title>
<a xlink:href="../../db/d62/interfacepocketmine_1_1event_1_1_cancellable.html" target="_top" xlink:title="{pocketmine\\event\\Cancellable\n||+ isCancelled()\l+ setCancelled()\l}">
<polygon fill="white" stroke="black" points="190,-205 190,-281 338,-281 338,-205 190,-205"/>
<text text-anchor="middle" x="264" y="-268" font-family="Helvetica,sans-Serif" font-size="10.00">pocketmine\event\Cancellable</text>
<polyline fill="none" stroke="black" points="190,-260 338,-260 "/>
<text text-anchor="middle" x="264" y="-247" font-family="Helvetica,sans-Serif" font-size="10.00"> </text>
<polyline fill="none" stroke="black" points="190,-239 338,-239 "/>
<text text-anchor="start" x="198" y="-226" font-family="Helvetica,sans-Serif" font-size="10.00">+ isCancelled()</text>
<text text-anchor="start" x="198" y="-213" font-family="Helvetica,sans-Serif" font-size="10.00">+ setCancelled()</text>
</a>
</g>
<!-- Node4&#45;&gt;Node1 -->
<g id="edge6" class="edge"><title>Node4&#45;&gt;Node1</title>
<path fill="none" stroke="midnightblue" d="M237.788,-196.172C232.755,-187.181 227.345,-177.516 221.887,-167.764"/>
<polygon fill="none" stroke="midnightblue" points="234.744,-197.899 242.682,-204.916 240.852,-194.48 234.744,-197.899"/>
</g>
</g>
</svg>
