<?xml version="1.0" encoding="UTF-8" standalone="no"?>
<!DOCTYPE svg PUBLIC "-//W3C//DTD SVG 1.1//EN"
 "http://www.w3.org/Graphics/SVG/1.1/DTD/svg11.dtd">
<!-- Generated by graphviz version 2.26.3 (20100126.1600)
 -->
<!-- Title: G Pages: 1 -->
<svg width="246pt" height="364pt"
 viewBox="0.00 0.00 246.00 364.00" xmlns="http://www.w3.org/2000/svg" xmlns:xlink="http://www.w3.org/1999/xlink">
<g id="graph1" class="graph" transform="scale(1 1) rotate(0) translate(4 360)">
<title>G</title>
<polygon fill="white" stroke="white" points="-4,5 -4,-360 243,-360 243,5 -4,5"/>
<!-- Node1 -->
<g id="node1" class="node"><title>Node1</title>
<polygon fill="#bfbfbf" stroke="black" points="-0.5,-0.5 -0.5,-63.5 238.5,-63.5 238.5,-0.5 -0.5,-0.5"/>
<text text-anchor="middle" x="119" y="-50.5" font-family="Helvetica,sans-Serif" font-size="10.00">pocketmine\inventory\StonecutterShapelessRecipe</text>
<polyline fill="none" stroke="black" points="-0.5,-42.5 238.5,-42.5 "/>
<text text-anchor="middle" x="119" y="-29.5" font-family="Helvetica,sans-Serif" font-size="10.00"> </text>
<polyline fill="none" stroke="black" points="-0.5,-21.5 238.5,-21.5 "/>
<text text-anchor="middle" x="119" y="-8.5" font-family="Helvetica,sans-Serif" font-size="10.00"> </text>
</g>
<!-- Node2 -->
<g id="node2" class="node"><title>Node2</title>
<a xlink:href="../../d6/d74/classpocketmine_1_1inventory_1_1_shapeless_recipe.html" target="_top" xlink:title="{pocketmine\\inventory\\ShapelessRecipe\n||+ __construct()\l+ getResult()\l+ addIngredient()\l+ removeIngredient()\l+ getIngredientList()\l+ getIngredientCount()\l+ registerToCraftingManager()\l}">
<polygon fill="white" stroke="black" points="24.5,-100.5 24.5,-241.5 213.5,-241.5 213.5,-100.5 24.5,-100.5"/>
<text text-anchor="middle" x="119" y="-228.5" font-family="Helvetica,sans-Serif" font-size="10.00">pocketmine\inventory\ShapelessRecipe</text>
<polyline fill="none" stroke="black" points="24.5,-220.5 213.5,-220.5 "/>
<text text-anchor="middle" x="119" y="-207.5" font-family="Helvetica,sans-Serif" font-size="10.00"> </text>
<polyline fill="none" stroke="black" points="24.5,-199.5 213.5,-199.5 "/>
<text text-anchor="start" x="32.5" y="-186.5" font-family="Helvetica,sans-Serif" font-size="10.00">+ __construct()</text>
<text text-anchor="start" x="32.5" y="-173.5" font-family="Helvetica,sans-Serif" font-size="10.00">+ getResult()</text>
<text text-anchor="start" x="32.5" y="-160.5" font-family="Helvetica,sans-Serif" font-size="10.00">+ addIngredient()</text>
<text text-anchor="start" x="32.5" y="-147.5" font-family="Helvetica,sans-Serif" font-size="10.00">+ removeIngredient()</text>
<text text-anchor="start" x="32.5" y="-134.5" font-family="Helvetica,sans-Serif" font-size="10.00">+ getIngredientList()</text>
<text text-anchor="start" x="32.5" y="-121.5" font-family="Helvetica,sans-Serif" font-size="10.00">+ getIngredientCount()</text>
<text text-anchor="start" x="32.5" y="-108.5" font-family="Helvetica,sans-Serif" font-size="10.00">+ registerToCraftingManager()</text>
</a>
</g>
<!-- Node2&#45;&gt;Node1 -->
<g id="edge2" class="edge"><title>Node2&#45;&gt;Node1</title>
<path fill="none" stroke="midnightblue" d="M119,-90.0622C119,-80.7193 119,-71.6599 119,-63.5847"/>
<polygon fill="none" stroke="midnightblue" points="115.5,-90.2783 119,-100.278 122.5,-90.2784 115.5,-90.2783"/>
</g>
<!-- Node3 -->
<g id="node4" class="node"><title>Node3</title>
<a xlink:href="../../d7/d3c/interfacepocketmine_1_1inventory_1_1_recipe.html" target="_top" xlink:title="{pocketmine\\inventory\\Recipe\n||+ getResult()\l+ registerToCraftingManager()\l}">
<polygon fill="white" stroke="black" points="45.5,-279 45.5,-355 192.5,-355 192.5,-279 45.5,-279"/>
<text text-anchor="middle" x="119" y="-342" font-family="Helvetica,sans-Serif" font-size="10.00">pocketmine\inventory\Recipe</text>
<polyline fill="none" stroke="black" points="45.5,-334 192.5,-334 "/>
<text text-anchor="middle" x="119" y="-321" font-family="Helvetica,sans-Serif" font-size="10.00"> </text>
<polyline fill="none" stroke="black" points="45.5,-313 192.5,-313 "/>
<text text-anchor="start" x="53.5" y="-300" font-family="Helvetica,sans-Serif" font-size="10.00">+ getResult()</text>
<text text-anchor="start" x="53.5" y="-287" font-family="Helvetica,sans-Serif" font-size="10.00">+ registerToCraftingManager()</text>
</a>
</g>
<!-- Node3&#45;&gt;Node2 -->
<g id="edge4" class="edge"><title>Node3&#45;&gt;Node2</title>
<path fill="none" stroke="midnightblue" d="M119,-268.419C119,-259.8 119,-250.667 119,-241.584"/>
<polygon fill="none" stroke="midnightblue" points="115.5,-268.64 119,-278.64 122.5,-268.64 115.5,-268.64"/>
</g>
</g>
</svg>
