<?xml version="1.0" encoding="UTF-8" standalone="no"?>
<!DOCTYPE svg PUBLIC "-//W3C//DTD SVG 1.1//EN"
 "http://www.w3.org/Graphics/SVG/1.1/DTD/svg11.dtd">
<!-- Generated by graphviz version 2.26.3 (20100126.1600)
 -->
<!-- Title: pocketmine\inventory\FurnaceInventory\setFuel Pages: 1 -->
<!--zoomable 277 -->
<svg id="main" version="1.1" xmlns="http://www.w3.org/2000/svg" xmlns:xlink="http://www.w3.org/1999/xlink" xml:space="preserve" onload="init(evt)">
<style type="text/css"><![CDATA[
.edge:hover path { stroke: red; }
.edge:hover polygon { stroke: red; fill: red; }
]]></style>
<script type="text/javascript"><![CDATA[
var edges = document.getElementsByTagName('g');
if (edges && edges.length) {
  for (var i=0;i<edges.length;i++) {
    if (edges[i].id.substr(0,4)=='edge') {
      edges[i].setAttribute('class','edge');
    }
  }
}
]]></script>
        <defs>
                <circle id="rim" cx="0" cy="0" r="7"/>
                <circle id="rim2" cx="0" cy="0" r="3.5"/>
                <g id="zoomPlus">
                        <use xlink:href="#rim" fill="#404040">
                                <set attributeName="fill" to="#808080" begin="zoomplus.mouseover" end="zoomplus.mouseout"/>
                        </use>
                        <path d="M-4,0h8M0,-4v8" fill="none" stroke="white" stroke-width="1.5" pointer-events="none"/>
                </g>
                <g id="zoomMin">
                        <use xlink:href="#rim" fill="#404040">
                                <set attributeName="fill" to="#808080" begin="zoomminus.mouseover" end="zoomminus.mouseout"/>
                        </use>
                        <path d="M-4,0h8" fill="none" stroke="white" stroke-width="1.5" pointer-events="none"/>
                </g>
                <g id="dirArrow">
                        <path fill="none" stroke="white" stroke-width="1.5" d="M0,-3.0v7 M-2.5,-0.5L0,-3.0L2.5,-0.5"/>
                </g>
               <g id="resetDef">
                       <use xlink:href="#rim2" fill="#404040">
                               <set attributeName="fill" to="#808080" begin="reset.mouseover" end="reset.mouseout"/>
                       </use>
               </g>
        </defs>

<script type="text/javascript">
var viewWidth = 956;
var viewHeight = 277;
var sectionId = 'dynsection-27';
</script>
<script xlink:href="../../svgpan.js"/>
<svg id="graph" class="graph">
<g id="viewport">
<title>pocketmine\inventory\FurnaceInventory\setFuel</title>
<polygon fill="white" stroke="white" points="-4,5 -4,-272.875 953,-272.875 953,5 -4,5"/>
<!-- Node1 -->
<g id="node1" class="node"><title>Node1</title>
<polygon fill="#bfbfbf" stroke="black" points="0.5,-114.185 0.5,-148.185 131.5,-148.185 131.5,-114.185 0.5,-114.185"/>
<text text-anchor="start" x="8.5" y="-135.185" font-family="Helvetica,sans-Serif" font-size="10.00">pocketmine\inventory</text>
<text text-anchor="middle" x="66" y="-122.185" font-family="Helvetica,sans-Serif" font-size="10.00">\FurnaceInventory\setFuel</text>
</g>
<!-- Node2 -->
<g id="node3" class="node"><title>Node2</title>
<a xlink:href="../../d5/dc4/classpocketmine_1_1inventory_1_1_base_inventory.html#a99f7ddb22a3e614d55daefe9d4b9eaeb" target="_top" xlink:title="pocketmine\\inventory\l\\BaseInventory\\setItem">
<polygon fill="white" stroke="black" points="168.5,-114.185 168.5,-148.185 287.5,-148.185 287.5,-114.185 168.5,-114.185"/>
<text text-anchor="start" x="176.5" y="-135.185" font-family="Helvetica,sans-Serif" font-size="10.00">pocketmine\inventory</text>
<text text-anchor="middle" x="228" y="-122.185" font-family="Helvetica,sans-Serif" font-size="10.00">\BaseInventory\setItem</text>
</a>
</g>
<!-- Node1&#45;&gt;Node2 -->
<g id="edge2" class="edge"><title>Node1&#45;&gt;Node2</title>
<path fill="none" stroke="midnightblue" d="M131.892,-131.185C140.58,-131.185 149.509,-131.185 158.26,-131.185"/>
<polygon fill="midnightblue" stroke="midnightblue" points="158.425,-134.685 168.425,-131.185 158.425,-127.685 158.425,-134.685"/>
</g>
<!-- Node3 -->
<g id="node5" class="node"><title>Node3</title>
<a xlink:href="../../d5/dc4/classpocketmine_1_1inventory_1_1_base_inventory.html#a4e37b46b040119e90211c5078dd79662" target="_top" xlink:title="pocketmine\\inventory\l\\BaseInventory\\clear">
<polygon fill="white" stroke="black" points="324,-114.185 324,-148.185 434,-148.185 434,-114.185 324,-114.185"/>
<text text-anchor="start" x="332" y="-135.185" font-family="Helvetica,sans-Serif" font-size="10.00">pocketmine\inventory</text>
<text text-anchor="middle" x="379" y="-122.185" font-family="Helvetica,sans-Serif" font-size="10.00">\BaseInventory\clear</text>
</a>
</g>
<!-- Node2&#45;&gt;Node3 -->
<g id="edge4" class="edge"><title>Node2&#45;&gt;Node3</title>
<path fill="none" stroke="midnightblue" d="M287.679,-131.185C296.211,-131.185 305.026,-131.185 313.659,-131.185"/>
<polygon fill="midnightblue" stroke="midnightblue" points="313.684,-134.685 323.684,-131.185 313.684,-127.685 313.684,-134.685"/>
</g>
<!-- Node4 -->
<g id="node7" class="node"><title>Node4</title>
<a xlink:href="../../d5/dc4/classpocketmine_1_1inventory_1_1_base_inventory.html#a17dc7367b4cee9f1029c38d52e448563" target="_top" xlink:title="pocketmine\\inventory\l\\BaseInventory\\getHolder">
<polygon fill="white" stroke="black" points="482,-199.185 482,-233.185 610,-233.185 610,-199.185 482,-199.185"/>
<text text-anchor="start" x="490" y="-220.185" font-family="Helvetica,sans-Serif" font-size="10.00">pocketmine\inventory</text>
<text text-anchor="middle" x="546" y="-207.185" font-family="Helvetica,sans-Serif" font-size="10.00">\BaseInventory\getHolder</text>
</a>
</g>
<!-- Node2&#45;&gt;Node4 -->
<g id="edge24" class="edge"><title>Node2&#45;&gt;Node4</title>
<path fill="none" stroke="midnightblue" d="M259.163,-148.323C277.55,-157.785 301.55,-169.035 324,-176.185 372.121,-191.509 428.093,-201.544 471.796,-207.731"/>
<polygon fill="midnightblue" stroke="midnightblue" points="471.392,-211.208 481.776,-209.107 472.348,-204.274 471.392,-211.208"/>
</g>
<!-- Node5 -->
<g id="node9" class="node"><title>Node5</title>
<a xlink:href="../../d5/df7/classpocketmine_1_1_server.html#a8d9b9873eb3c7efce048f10f803c2b2e" target="_top" xlink:title="pocketmine\\Server\\getInstance">
<polygon fill="white" stroke="black" points="470,-159.685 470,-180.685 622,-180.685 622,-159.685 470,-159.685"/>
<text text-anchor="middle" x="546" y="-167.685" font-family="Helvetica,sans-Serif" font-size="10.00">pocketmine\Server\getInstance</text>
</a>
</g>
<!-- Node2&#45;&gt;Node5 -->
<g id="edge26" class="edge"><title>Node2&#45;&gt;Node5</title>
<path fill="none" stroke="midnightblue" d="M283.161,-148.206C296.421,-151.718 310.622,-155.005 324,-157.185 368.444,-164.425 418.471,-167.766 459.769,-169.259"/>
<polygon fill="midnightblue" stroke="midnightblue" points="459.688,-172.758 469.798,-169.591 459.92,-165.761 459.688,-172.758"/>
</g>
<!-- Node6 -->
<g id="node11" class="node"><title>Node6</title>
<a xlink:href="../../d5/dc4/classpocketmine_1_1inventory_1_1_base_inventory.html#a65b280b6c12e1d4e5bcd4d0de3aa4a71" target="_top" xlink:title="pocketmine\\inventory\l\\BaseInventory\\getViewers">
<polygon fill="white" stroke="black" points="658,-114.185 658,-148.185 792,-148.185 792,-114.185 658,-114.185"/>
<text text-anchor="start" x="666" y="-135.185" font-family="Helvetica,sans-Serif" font-size="10.00">pocketmine\inventory</text>
<text text-anchor="middle" x="725" y="-122.185" font-family="Helvetica,sans-Serif" font-size="10.00">\BaseInventory\getViewers</text>
</a>
</g>
<!-- Node2&#45;&gt;Node6 -->
<g id="edge30" class="edge"><title>Node2&#45;&gt;Node6</title>
<path fill="none" stroke="midnightblue" d="M246.832,-148.448C265.25,-164.484 294.724,-187.967 324,-202.185 444.206,-260.563 499.517,-295.621 622,-242.185 661.617,-224.901 692.832,-184.033 710.095,-157.004"/>
<polygon fill="midnightblue" stroke="midnightblue" points="713.12,-158.767 715.407,-148.422 707.168,-155.083 713.12,-158.767"/>
</g>
<!-- Node7 -->
<g id="node13" class="node"><title>Node7</title>
<a xlink:href="../../d5/dc4/classpocketmine_1_1inventory_1_1_base_inventory.html#a372297a2da072277724b5a20453bb423" target="_top" xlink:title="pocketmine\\inventory\l\\BaseInventory\\onSlotChange">
<polygon fill="white" stroke="black" points="472.5,-69.1846 472.5,-103.185 619.5,-103.185 619.5,-69.1846 472.5,-69.1846"/>
<text text-anchor="start" x="480.5" y="-90.1846" font-family="Helvetica,sans-Serif" font-size="10.00">pocketmine\inventory</text>
<text text-anchor="middle" x="546" y="-77.1846" font-family="Helvetica,sans-Serif" font-size="10.00">\BaseInventory\onSlotChange</text>
</a>
</g>
<!-- Node2&#45;&gt;Node7 -->
<g id="edge32" class="edge"><title>Node2&#45;&gt;Node7</title>
<path fill="none" stroke="midnightblue" d="M284.22,-114.153C297.186,-110.73 310.992,-107.484 324,-105.185 369.308,-97.1769 420.438,-92.5087 462.198,-89.8055"/>
<polygon fill="midnightblue" stroke="midnightblue" points="462.565,-93.2896 472.329,-89.1761 462.131,-86.303 462.565,-93.2896"/>
</g>
<!-- Node9 -->
<g id="node18" class="node"><title>Node9</title>
<a xlink:href="../../d5/dc4/classpocketmine_1_1inventory_1_1_base_inventory.html#a8bc94c0515906b5c1f3af5600d89b3df" target="_top" xlink:title="pocketmine\\inventory\l\\BaseInventory\\getItem">
<polygon fill="white" stroke="black" points="828.5,-17.1846 828.5,-51.1846 947.5,-51.1846 947.5,-17.1846 828.5,-17.1846"/>
<text text-anchor="start" x="836.5" y="-38.1846" font-family="Helvetica,sans-Serif" font-size="10.00">pocketmine\inventory</text>
<text text-anchor="middle" x="888" y="-25.1846" font-family="Helvetica,sans-Serif" font-size="10.00">\BaseInventory\getItem</text>
</a>
</g>
<!-- Node2&#45;&gt;Node9 -->
<g id="edge28" class="edge"><title>Node2&#45;&gt;Node9</title>
<path fill="none" stroke="midnightblue" d="M244.517,-114.045C262.534,-96.2567 292.968,-68.7622 324,-52.1846 383.777,-20.2515 402.953,-18.0681 470,-8.18462 591.705,9.75592 735.121,-7.3746 818.389,-21.055"/>
<polygon fill="midnightblue" stroke="midnightblue" points="818.048,-24.5465 828.489,-22.746 819.204,-17.6426 818.048,-24.5465"/>
</g>
<!-- Node10 -->
<g id="node20" class="node"><title>Node10</title>
<a xlink:href="../../d5/dc4/classpocketmine_1_1inventory_1_1_base_inventory.html#a78e842dd42ef0a0870385092b3c30896" target="_top" xlink:title="pocketmine\\inventory\l\\BaseInventory\\sendContents">
<polygon fill="white" stroke="black" points="473,-17.1846 473,-51.1846 619,-51.1846 619,-17.1846 473,-17.1846"/>
<text text-anchor="start" x="481" y="-38.1846" font-family="Helvetica,sans-Serif" font-size="10.00">pocketmine\inventory</text>
<text text-anchor="middle" x="546" y="-25.1846" font-family="Helvetica,sans-Serif" font-size="10.00">\BaseInventory\sendContents</text>
</a>
</g>
<!-- Node2&#45;&gt;Node10 -->
<g id="edge34" class="edge"><title>Node2&#45;&gt;Node10</title>
<path fill="none" stroke="midnightblue" d="M261.107,-114.065C279.313,-105.15 302.508,-94.5956 324,-87.1846 369.084,-71.6385 420.843,-58.9958 463.038,-49.9624"/>
<polygon fill="midnightblue" stroke="midnightblue" points="463.932,-53.3508 472.993,-47.8598 462.485,-46.5019 463.932,-53.3508"/>
</g>
<!-- Node3&#45;&gt;Node4 -->
<g id="edge6" class="edge"><title>Node3&#45;&gt;Node4</title>
<path fill="none" stroke="midnightblue" d="M402.011,-148.376C419.87,-161.146 445.615,-178.332 470,-190.185 473.739,-192.002 477.638,-193.749 481.609,-195.417"/>
<polygon fill="midnightblue" stroke="midnightblue" points="480.379,-198.694 490.963,-199.161 482.98,-192.195 480.379,-198.694"/>
</g>
<!-- Node3&#45;&gt;Node5 -->
<g id="edge8" class="edge"><title>Node3&#45;&gt;Node5</title>
<path fill="none" stroke="midnightblue" d="M434.145,-144.063C452.422,-148.331 472.755,-153.08 491.02,-157.345"/>
<polygon fill="midnightblue" stroke="midnightblue" points="490.394,-160.793 500.928,-159.659 491.986,-153.976 490.394,-160.793"/>
</g>
<!-- Node3&#45;&gt;Node6 -->
<g id="edge10" class="edge"><title>Node3&#45;&gt;Node6</title>
<path fill="none" stroke="midnightblue" d="M434.207,-131.185C491.889,-131.185 582.84,-131.185 647.66,-131.185"/>
<polygon fill="midnightblue" stroke="midnightblue" points="647.83,-134.685 657.83,-131.185 647.83,-127.685 647.83,-134.685"/>
</g>
<!-- Node3&#45;&gt;Node7 -->
<g id="edge12" class="edge"><title>Node3&#45;&gt;Node7</title>
<path fill="none" stroke="midnightblue" d="M434.145,-116.325C446.561,-112.98 459.926,-109.378 472.947,-105.869"/>
<polygon fill="midnightblue" stroke="midnightblue" points="474.071,-109.192 482.816,-103.21 472.25,-102.433 474.071,-109.192"/>
</g>
<!-- Node3&#45;&gt;Node10 -->
<g id="edge20" class="edge"><title>Node3&#45;&gt;Node10</title>
<path fill="none" stroke="midnightblue" d="M397.224,-113.959C414.731,-98.1742 442.509,-75.0641 470,-60.1846 473.099,-58.5075 476.326,-56.9082 479.626,-55.3877"/>
<polygon fill="midnightblue" stroke="midnightblue" points="481.279,-58.4866 489.074,-51.3119 478.506,-52.0592 481.279,-58.4866"/>
</g>
<!-- Node7&#45;&gt;Node6 -->
<g id="edge14" class="edge"><title>Node7&#45;&gt;Node6</title>
<path fill="none" stroke="midnightblue" d="M613.672,-103.197C624.852,-106.008 636.515,-108.94 647.906,-111.803"/>
<polygon fill="midnightblue" stroke="midnightblue" points="647.274,-115.253 657.826,-114.297 648.981,-108.465 647.274,-115.253"/>
</g>
<!-- Node8 -->
<g id="node16" class="node"><title>Node8</title>
<a xlink:href="../../d5/dc4/classpocketmine_1_1inventory_1_1_base_inventory.html#ad84dac811677e799d06924279a4288cc" target="_top" xlink:title="pocketmine\\inventory\l\\BaseInventory\\sendSlot">
<polygon fill="white" stroke="black" points="663,-62.1846 663,-96.1846 787,-96.1846 787,-62.1846 663,-62.1846"/>
<text text-anchor="start" x="671" y="-83.1846" font-family="Helvetica,sans-Serif" font-size="10.00">pocketmine\inventory</text>
<text text-anchor="middle" x="725" y="-70.1846" font-family="Helvetica,sans-Serif" font-size="10.00">\BaseInventory\sendSlot</text>
</a>
</g>
<!-- Node7&#45;&gt;Node8 -->
<g id="edge16" class="edge"><title>Node7&#45;&gt;Node8</title>
<path fill="none" stroke="midnightblue" d="M619.581,-83.3072C630.469,-82.8814 641.682,-82.4429 652.546,-82.018"/>
<polygon fill="midnightblue" stroke="midnightblue" points="652.979,-85.5039 662.835,-81.6157 652.705,-78.5092 652.979,-85.5039"/>
</g>
<!-- Node8&#45;&gt;Node9 -->
<g id="edge18" class="edge"><title>Node8&#45;&gt;Node9</title>
<path fill="none" stroke="midnightblue" d="M786.623,-62.1721C797.115,-59.2756 808.075,-56.2499 818.748,-53.3034"/>
<polygon fill="midnightblue" stroke="midnightblue" points="819.739,-56.6607 828.447,-50.6257 817.876,-49.9131 819.739,-56.6607"/>
</g>
<!-- Node10&#45;&gt;Node9 -->
<g id="edge22" class="edge"><title>Node10&#45;&gt;Node9</title>
<path fill="none" stroke="midnightblue" d="M619.368,-34.1846C678.247,-34.1846 760.35,-34.1846 818.25,-34.1846"/>
<polygon fill="midnightblue" stroke="midnightblue" points="818.407,-37.6847 828.407,-34.1846 818.407,-30.6847 818.407,-37.6847"/>
</g>
</g>
</svg>
        <g id="navigator" transform="translate(0 0)" fill="#404254">
                <rect fill="#f2f5e9" fill-opacity="0.5" stroke="#606060" stroke-width=".5" x="0" y="0" width="60" height="60"/>
                <use id="zoomplus" xlink:href="#zoomPlus" x="17" y="9" onmousedown="handleZoom(evt,'in')"/>
                <use id="zoomminus" xlink:href="#zoomMin" x="42" y="9" onmousedown="handleZoom(evt,'out')"/>
                <use id="reset" xlink:href="#resetDef" x="30" y="36" onmousedown="handleReset()"/>
                <g id="arrowUp" xlink:href="#dirArrow" transform="translate(30 24)" onmousedown="handlePan(0,-1)">
                  <use xlink:href="#rim" fill="#404040">
                        <set attributeName="fill" to="#808080" begin="arrowUp.mouseover" end="arrowUp.mouseout"/>
                  </use>
                  <path fill="none" stroke="white" stroke-width="1.5" d="M0,-3.0v7 M-2.5,-0.5L0,-3.0L2.5,-0.5"/>
                </g>
                <g id="arrowRight" xlink:href="#dirArrow" transform="rotate(90) translate(36 -43)" onmousedown="handlePan(1,0)">
                  <use xlink:href="#rim" fill="#404040">
                        <set attributeName="fill" to="#808080" begin="arrowRight.mouseover" end="arrowRight.mouseout"/>
                  </use>
                  <path fill="none" stroke="white" stroke-width="1.5" d="M0,-3.0v7 M-2.5,-0.5L0,-3.0L2.5,-0.5"/>
                </g>
                <g id="arrowDown" xlink:href="#dirArrow" transform="rotate(180) translate(-30 -48)" onmousedown="handlePan(0,1)">
                  <use xlink:href="#rim" fill="#404040">
                        <set attributeName="fill" to="#808080" begin="arrowDown.mouseover" end="arrowDown.mouseout"/>
                  </use>
                  <path fill="none" stroke="white" stroke-width="1.5" d="M0,-3.0v7 M-2.5,-0.5L0,-3.0L2.5,-0.5"/>
                </g>
                <g id="arrowLeft" xlink:href="#dirArrow" transform="rotate(270) translate(-36 17)" onmousedown="handlePan(-1,0)">
                  <use xlink:href="#rim" fill="#404040">
                        <set attributeName="fill" to="#808080" begin="arrowLeft.mouseover" end="arrowLeft.mouseout"/>
                  </use>
                  <path fill="none" stroke="white" stroke-width="1.5" d="M0,-3.0v7 M-2.5,-0.5L0,-3.0L2.5,-0.5"/>
                </g>
        </g>
        <svg viewBox="0 0 15 15" width="100%" height="30px" preserveAspectRatio="xMaxYMin meet">
         <g id="arrow_out" transform="scale(0.3 0.3)">
          <a xlink:href="classpocketmine_1_1inventory_1_1_furnace_inventory_a5c9e307818bee9a64b8aae1a3e4e58a9_cgraph_org.svg" target="_base">
           <rect id="button" ry="5" rx="5" y="6" x="6" height="38" width="38"
                fill="#f2f5e9" fill-opacity="0.5" stroke="#606060" stroke-width="1.0"/>
           <path id="arrow"
             d="M 11.500037,31.436501 C 11.940474,20.09759 22.043105,11.32322 32.158766,21.979434 L 37.068811,17.246167 C 37.068811,17.246167 37.088388,32 37.088388,32 L 22.160133,31.978069 C 22.160133,31.978069 26.997745,27.140456 26.997745,27.140456 C 18.528582,18.264221 13.291696,25.230495 11.500037,31.436501 z"
             style="fill:#404040;"/>
          </a>
         </g>
        </svg>
</svg>
