<?xml version="1.0" encoding="UTF-8" standalone="no"?>
<!DOCTYPE svg PUBLIC "-//W3C//DTD SVG 1.1//EN"
 "http://www.w3.org/Graphics/SVG/1.1/DTD/svg11.dtd">
<!-- Generated by graphviz version 2.36.0 (20140111.2315)
 -->
<!-- Title: pocketmine\entity\Attachable Pages: 1 -->
<svg width="164pt" height="254pt"
 viewBox="0.00 0.00 164.00 254.00" xmlns="http://www.w3.org/2000/svg" xmlns:xlink="http://www.w3.org/1999/xlink">
<g id="graph0" class="graph" transform="scale(1 1) rotate(0) translate(4 250)">
<title>pocketmine\entity\Attachable</title>
<polygon fill="white" stroke="none" points="-4,4 -4,-250 160,-250 160,4 -4,4"/>
<!-- Node1 -->
<g id="node1" class="node"><title>Node1</title>
<polygon fill="#bfbfbf" stroke="black" points="-1,-188.5 -1,-245.5 157,-245.5 157,-188.5 -1,-188.5"/>
<text text-anchor="middle" x="78" y="-233.5" font-family="Helvetica,sans-Serif" font-size="10.00">pocketmine\entity\Attachable</text>
<polyline fill="none" stroke="black" points="-1,-226.5 157,-226.5 "/>
<text text-anchor="middle" x="78" y="-214.5" font-family="Helvetica,sans-Serif" font-size="10.00"> </text>
<polyline fill="none" stroke="black" points="-1,-207.5 157,-207.5 "/>
<text text-anchor="middle" x="78" y="-195.5" font-family="Helvetica,sans-Serif" font-size="10.00"> </text>
</g>
<!-- Node2 -->
<g id="node2" class="node"><title>Node2</title>
<g id="a_node2"><a xlink:href="../../d2/ddd/classpocketmine_1_1entity_1_1_hanging.html" target="_top" xlink:title="{pocketmine\\entity\\Hanging\n||}">
<polygon fill="white" stroke="black" points="5,-94.5 5,-151.5 151,-151.5 151,-94.5 5,-94.5"/>
<text text-anchor="middle" x="78" y="-139.5" font-family="Helvetica,sans-Serif" font-size="10.00">pocketmine\entity\Hanging</text>
<polyline fill="none" stroke="black" points="5,-132.5 151,-132.5 "/>
<text text-anchor="middle" x="78" y="-120.5" font-family="Helvetica,sans-Serif" font-size="10.00"> </text>
<polyline fill="none" stroke="black" points="5,-113.5 151,-113.5 "/>
<text text-anchor="middle" x="78" y="-101.5" font-family="Helvetica,sans-Serif" font-size="10.00"> </text>
</a>
</g>
</g>
<!-- Node1&#45;&gt;Node2 -->
<g id="edge1" class="edge"><title>Node1&#45;&gt;Node2</title>
<path fill="none" stroke="midnightblue" d="M78,-178.209C78,-169.293 78,-159.951 78,-151.584"/>
<polygon fill="none" stroke="midnightblue" points="74.5001,-178.397 78,-188.397 81.5001,-178.397 74.5001,-178.397"/>
</g>
<!-- Node3 -->
<g id="node3" class="node"><title>Node3</title>
<g id="a_node3"><a xlink:href="../../d0/dc6/classpocketmine_1_1entity_1_1_painting.html" target="_top" xlink:title="{pocketmine\\entity\\Painting\n||}">
<polygon fill="white" stroke="black" points="6.5,-0.5 6.5,-57.5 149.5,-57.5 149.5,-0.5 6.5,-0.5"/>
<text text-anchor="middle" x="78" y="-45.5" font-family="Helvetica,sans-Serif" font-size="10.00">pocketmine\entity\Painting</text>
<polyline fill="none" stroke="black" points="6.5,-38.5 149.5,-38.5 "/>
<text text-anchor="middle" x="78" y="-26.5" font-family="Helvetica,sans-Serif" font-size="10.00"> </text>
<polyline fill="none" stroke="black" points="6.5,-19.5 149.5,-19.5 "/>
<text text-anchor="middle" x="78" y="-7.5" font-family="Helvetica,sans-Serif" font-size="10.00"> </text>
</a>
</g>
</g>
<!-- Node2&#45;&gt;Node3 -->
<g id="edge2" class="edge"><title>Node2&#45;&gt;Node3</title>
<path fill="none" stroke="midnightblue" d="M78,-84.2092C78,-75.2929 78,-65.9513 78,-57.5836"/>
<polygon fill="none" stroke="midnightblue" points="74.5001,-84.3969 78,-94.397 81.5001,-84.397 74.5001,-84.3969"/>
</g>
</g>
</svg>
