<?xml version="1.0" encoding="UTF-8" standalone="no"?>
<!DOCTYPE svg PUBLIC "-//W3C//DTD SVG 1.1//EN"
 "http://www.w3.org/Graphics/SVG/1.1/DTD/svg11.dtd">
<!-- Generated by graphviz version 2.26.3 (20100126.1600)
 -->
<!-- Title: pocketmine\entity\Attachable Pages: 1 -->
<svg width="150pt" height="272pt"
 viewBox="0.00 0.00 150.00 272.00" xmlns="http://www.w3.org/2000/svg" xmlns:xlink="http://www.w3.org/1999/xlink">
<g id="graph1" class="graph" transform="scale(1 1) rotate(0) translate(4 268)">
<title>pocketmine\entity\Attachable</title>
<polygon fill="white" stroke="white" points="-4,5 -4,-268 147,-268 147,5 -4,5"/>
<!-- Node1 -->
<g id="node1" class="node"><title>Node1</title>
<polygon fill="#bfbfbf" stroke="black" points="-0.5,-200.5 -0.5,-263.5 142.5,-263.5 142.5,-200.5 -0.5,-200.5"/>
<text text-anchor="middle" x="71" y="-250.5" font-family="Helvetica,sans-Serif" font-size="10.00">pocketmine\entity\Attachable</text>
<polyline fill="none" stroke="black" points="-0.5,-242.5 142.5,-242.5 "/>
<text text-anchor="middle" x="71" y="-229.5" font-family="Helvetica,sans-Serif" font-size="10.00"> </text>
<polyline fill="none" stroke="black" points="-0.5,-221.5 142.5,-221.5 "/>
<text text-anchor="middle" x="71" y="-208.5" font-family="Helvetica,sans-Serif" font-size="10.00"> </text>
</g>
<!-- Node2 -->
<g id="node3" class="node"><title>Node2</title>
<a xlink:href="../../d2/ddd/classpocketmine_1_1entity_1_1_hanging.html" target="_top" xlink:title="{pocketmine\\entity\\Hanging\n||}">
<polygon fill="white" stroke="black" points="4.5,-100.5 4.5,-163.5 137.5,-163.5 137.5,-100.5 4.5,-100.5"/>
<text text-anchor="middle" x="71" y="-150.5" font-family="Helvetica,sans-Serif" font-size="10.00">pocketmine\entity\Hanging</text>
<polyline fill="none" stroke="black" points="4.5,-142.5 137.5,-142.5 "/>
<text text-anchor="middle" x="71" y="-129.5" font-family="Helvetica,sans-Serif" font-size="10.00"> </text>
<polyline fill="none" stroke="black" points="4.5,-121.5 137.5,-121.5 "/>
<text text-anchor="middle" x="71" y="-108.5" font-family="Helvetica,sans-Serif" font-size="10.00"> </text>
</a>
</g>
<!-- Node1&#45;&gt;Node2 -->
<g id="edge2" class="edge"><title>Node1&#45;&gt;Node2</title>
<path fill="none" stroke="midnightblue" d="M71,-190.211C71,-181.37 71,-172.177 71,-163.778"/>
<polygon fill="none" stroke="midnightblue" points="67.5001,-190.359 71,-200.359 74.5001,-190.359 67.5001,-190.359"/>
</g>
<!-- Node3 -->
<g id="node5" class="node"><title>Node3</title>
<a xlink:href="../../d0/dc6/classpocketmine_1_1entity_1_1_painting.html" target="_top" xlink:title="{pocketmine\\entity\\Painting\n||}">
<polygon fill="white" stroke="black" points="5,-0.5 5,-63.5 137,-63.5 137,-0.5 5,-0.5"/>
<text text-anchor="middle" x="71" y="-50.5" font-family="Helvetica,sans-Serif" font-size="10.00">pocketmine\entity\Painting</text>
<polyline fill="none" stroke="black" points="5,-42.5 137,-42.5 "/>
<text text-anchor="middle" x="71" y="-29.5" font-family="Helvetica,sans-Serif" font-size="10.00"> </text>
<polyline fill="none" stroke="black" points="5,-21.5 137,-21.5 "/>
<text text-anchor="middle" x="71" y="-8.5" font-family="Helvetica,sans-Serif" font-size="10.00"> </text>
</a>
</g>
<!-- Node2&#45;&gt;Node3 -->
<g id="edge4" class="edge"><title>Node2&#45;&gt;Node3</title>
<path fill="none" stroke="midnightblue" d="M71,-90.2111C71,-81.37 71,-72.1767 71,-63.778"/>
<polygon fill="none" stroke="midnightblue" points="67.5001,-90.3593 71,-100.359 74.5001,-90.3594 67.5001,-90.3593"/>
</g>
</g>
</svg>
