<?xml version="1.0" encoding="UTF-8" standalone="no"?>
<!DOCTYPE svg PUBLIC "-//W3C//DTD SVG 1.1//EN"
 "http://www.w3.org/Graphics/SVG/1.1/DTD/svg11.dtd">
<!-- Generated by graphviz version 2.26.3 (20100126.1600)
 -->
<!-- Title: pocketmine\event\server\ServerEvent Pages: 1 -->
<svg width="132pt" height="226pt"
 viewBox="0.00 0.00 132.00 226.00" xmlns="http://www.w3.org/2000/svg" xmlns:xlink="http://www.w3.org/1999/xlink">
<g id="graph1" class="graph" transform="scale(1 1) rotate(0) translate(4 222)">
<title>pocketmine\event\server\ServerEvent</title>
<polygon fill="white" stroke="white" points="-4,5 -4,-222 129,-222 129,5 -4,5"/>
<!-- Node1 -->
<g id="node1" class="node"><title>Node1</title>
<polygon fill="#bfbfbf" stroke="black" points="0,-1 0,-77 124,-77 124,-1 0,-1"/>
<text text-anchor="start" x="8" y="-64" font-family="Helvetica,sans-Serif" font-size="10.00">pocketmine\event\server</text>
<text text-anchor="middle" x="62" y="-51" font-family="Helvetica,sans-Serif" font-size="10.00">\ServerEvent</text>
<polyline fill="none" stroke="black" points="0,-43 124,-43 "/>
<text text-anchor="middle" x="62" y="-30" font-family="Helvetica,sans-Serif" font-size="10.00"> </text>
<polyline fill="none" stroke="black" points="0,-22 124,-22 "/>
<text text-anchor="middle" x="62" y="-9" font-family="Helvetica,sans-Serif" font-size="10.00"> </text>
</g>
<!-- Node2 -->
<g id="node2" class="node"><title>Node2</title>
<a xlink:href="../../d1/d2f/classpocketmine_1_1event_1_1_event.html" target="_top" xlink:title="{pocketmine\\event\\Event\n|# $eventName\l|+ getEventName()\l+ isCancelled()\l+ setCancelled()\l+ getHandlers()\l}">
<polygon fill="white" stroke="black" points="1,-115 1,-217 123,-217 123,-115 1,-115"/>
<text text-anchor="middle" x="62" y="-204" font-family="Helvetica,sans-Serif" font-size="10.00">pocketmine\event\Event</text>
<polyline fill="none" stroke="black" points="1,-196 123,-196 "/>
<text text-anchor="start" x="9" y="-183" font-family="Helvetica,sans-Serif" font-size="10.00"># $eventName</text>
<polyline fill="none" stroke="black" points="1,-175 123,-175 "/>
<text text-anchor="start" x="9" y="-162" font-family="Helvetica,sans-Serif" font-size="10.00">+ getEventName()</text>
<text text-anchor="start" x="9" y="-149" font-family="Helvetica,sans-Serif" font-size="10.00">+ isCancelled()</text>
<text text-anchor="start" x="9" y="-136" font-family="Helvetica,sans-Serif" font-size="10.00">+ setCancelled()</text>
<text text-anchor="start" x="9" y="-123" font-family="Helvetica,sans-Serif" font-size="10.00">+ getHandlers()</text>
</a>
</g>
<!-- Node2&#45;&gt;Node1 -->
<g id="edge2" class="edge"><title>Node2&#45;&gt;Node1</title>
<path fill="none" stroke="midnightblue" d="M62,-104.625C62,-95.273 62,-85.8595 62,-77.197"/>
<polygon fill="none" stroke="midnightblue" points="58.5001,-104.71 62,-114.71 65.5001,-104.71 58.5001,-104.71"/>
</g>
</g>
</svg>
