<?xml version="1.0" encoding="UTF-8" standalone="no"?>
<!DOCTYPE svg PUBLIC "-//W3C//DTD SVG 1.1//EN"
 "http://www.w3.org/Graphics/SVG/1.1/DTD/svg11.dtd">
<!-- Generated by graphviz version 2.26.3 (20100126.1600)
 -->
<!-- Title: G Pages: 1 -->
<svg width="212pt" height="186pt"
 viewBox="0.00 0.00 212.00 186.00" xmlns="http://www.w3.org/2000/svg" xmlns:xlink="http://www.w3.org/1999/xlink">
<g id="graph1" class="graph" transform="scale(1 1) rotate(0) translate(4 182)">
<title>G</title>
<polygon fill="white" stroke="white" points="-4,5 -4,-182 209,-182 209,5 -4,5"/>
<!-- Node1 -->
<g id="node1" class="node"><title>Node1</title>
<polygon fill="#bfbfbf" stroke="black" points="-0.5,-1 -0.5,-77 204.5,-77 204.5,-1 -0.5,-1"/>
<text text-anchor="middle" x="102" y="-64" font-family="Helvetica,sans-Serif" font-size="10.00">pocketmine\level\generator\object\PineTree</text>
<polyline fill="none" stroke="black" points="-0.5,-56 204.5,-56 "/>
<text text-anchor="start" x="7.5" y="-43" font-family="Helvetica,sans-Serif" font-size="10.00">+ $type</text>
<polyline fill="none" stroke="black" points="-0.5,-35 204.5,-35 "/>
<text text-anchor="start" x="7.5" y="-22" font-family="Helvetica,sans-Serif" font-size="10.00">+ canPlaceObject()</text>
<text text-anchor="start" x="7.5" y="-9" font-family="Helvetica,sans-Serif" font-size="10.00">+ placeObject()</text>
</g>
<!-- Node2 -->
<g id="node2" class="node"><title>Node2</title>
<a xlink:href="../../d6/dd0/classpocketmine_1_1level_1_1generator_1_1object_1_1_tree.html" target="_top" xlink:title="{pocketmine\\level\\generator\\object\\Tree\n|+ $overridable\l|+ growTree()\l}">
<polygon fill="white" stroke="black" points="9.5,-114.5 9.5,-177.5 194.5,-177.5 194.5,-114.5 9.5,-114.5"/>
<text text-anchor="middle" x="102" y="-164.5" font-family="Helvetica,sans-Serif" font-size="10.00">pocketmine\level\generator\object\Tree</text>
<polyline fill="none" stroke="black" points="9.5,-156.5 194.5,-156.5 "/>
<text text-anchor="start" x="17.5" y="-143.5" font-family="Helvetica,sans-Serif" font-size="10.00">+ $overridable</text>
<polyline fill="none" stroke="black" points="9.5,-135.5 194.5,-135.5 "/>
<text text-anchor="start" x="17.5" y="-122.5" font-family="Helvetica,sans-Serif" font-size="10.00">+ growTree()</text>
</a>
</g>
<!-- Node2&#45;&gt;Node1 -->
<g id="edge2" class="edge"><title>Node2&#45;&gt;Node1</title>
<path fill="none" stroke="midnightblue" d="M102,-104.253C102,-95.3105 102,-85.907 102,-77.1103"/>
<polygon fill="none" stroke="midnightblue" points="98.5001,-104.475 102,-114.475 105.5,-104.475 98.5001,-104.475"/>
</g>
</g>
</svg>
