<?xml version="1.0" encoding="UTF-8" standalone="no"?>
<!DOCTYPE svg PUBLIC "-//W3C//DTD SVG 1.1//EN"
 "http://www.w3.org/Graphics/SVG/1.1/DTD/svg11.dtd">
<!-- Generated by graphviz version 2.26.3 (20100126.1600)
 -->
<!-- Title: G Pages: 1 -->
<svg width="380pt" height="352pt"
 viewBox="0.00 0.00 380.00 352.00" xmlns="http://www.w3.org/2000/svg" xmlns:xlink="http://www.w3.org/1999/xlink">
<g id="graph1" class="graph" transform="scale(1 1) rotate(0) translate(4 348)">
<title>G</title>
<polygon fill="white" stroke="white" points="-4,5 -4,-348 377,-348 377,5 -4,5"/>
<!-- Node1 -->
<g id="node1" class="node"><title>Node1</title>
<polygon fill="#bfbfbf" stroke="black" points="85.5,-1 85.5,-77 314.5,-77 314.5,-1 85.5,-1"/>
<text text-anchor="middle" x="200" y="-64" font-family="Helvetica,sans-Serif" font-size="10.00">pocketmine\event\inventory\InventoryOpenEvent</text>
<polyline fill="none" stroke="black" points="85.5,-56 314.5,-56 "/>
<text text-anchor="start" x="93.5" y="-43" font-family="Helvetica,sans-Serif" font-size="10.00">+ $handlerList</text>
<polyline fill="none" stroke="black" points="85.5,-35 314.5,-35 "/>
<text text-anchor="start" x="93.5" y="-22" font-family="Helvetica,sans-Serif" font-size="10.00">+ __construct()</text>
<text text-anchor="start" x="93.5" y="-9" font-family="Helvetica,sans-Serif" font-size="10.00">+ getPlayer()</text>
</g>
<!-- Node2 -->
<g id="node2" class="node"><title>Node2</title>
<a xlink:href="../../db/dbc/classpocketmine_1_1event_1_1inventory_1_1_inventory_event.html" target="_top" xlink:title="{pocketmine\\event\\inventory\\InventoryEvent\n|# $inventory\l|+ __construct()\l+ getInventory()\l+ getViewers()\l}">
<polygon fill="white" stroke="black" points="0,-114.5 0,-203.5 206,-203.5 206,-114.5 0,-114.5"/>
<text text-anchor="middle" x="103" y="-190.5" font-family="Helvetica,sans-Serif" font-size="10.00">pocketmine\event\inventory\InventoryEvent</text>
<polyline fill="none" stroke="black" points="0,-182.5 206,-182.5 "/>
<text text-anchor="start" x="8" y="-169.5" font-family="Helvetica,sans-Serif" font-size="10.00"># $inventory</text>
<polyline fill="none" stroke="black" points="0,-161.5 206,-161.5 "/>
<text text-anchor="start" x="8" y="-148.5" font-family="Helvetica,sans-Serif" font-size="10.00">+ __construct()</text>
<text text-anchor="start" x="8" y="-135.5" font-family="Helvetica,sans-Serif" font-size="10.00">+ getInventory()</text>
<text text-anchor="start" x="8" y="-122.5" font-family="Helvetica,sans-Serif" font-size="10.00">+ getViewers()</text>
</a>
</g>
<!-- Node2&#45;&gt;Node1 -->
<g id="edge2" class="edge"><title>Node2&#45;&gt;Node1</title>
<path fill="none" stroke="midnightblue" d="M145.473,-106.456C153.476,-96.556 161.701,-86.3804 169.259,-77.0306"/>
<polygon fill="none" stroke="midnightblue" points="142.684,-104.339 139.119,-114.316 148.128,-108.74 142.684,-104.339"/>
</g>
<!-- Node3 -->
<g id="node4" class="node"><title>Node3</title>
<a xlink:href="../../d1/d2f/classpocketmine_1_1event_1_1_event.html" target="_top" xlink:title="{pocketmine\\event\\Event\n|# $eventName\l|+ getEventName()\l+ isCancelled()\l+ setCancelled()\l+ getHandlers()\l}">
<polygon fill="white" stroke="black" points="42,-241 42,-343 164,-343 164,-241 42,-241"/>
<text text-anchor="middle" x="103" y="-330" font-family="Helvetica,sans-Serif" font-size="10.00">pocketmine\event\Event</text>
<polyline fill="none" stroke="black" points="42,-322 164,-322 "/>
<text text-anchor="start" x="50" y="-309" font-family="Helvetica,sans-Serif" font-size="10.00"># $eventName</text>
<polyline fill="none" stroke="black" points="42,-301 164,-301 "/>
<text text-anchor="start" x="50" y="-288" font-family="Helvetica,sans-Serif" font-size="10.00">+ getEventName()</text>
<text text-anchor="start" x="50" y="-275" font-family="Helvetica,sans-Serif" font-size="10.00">+ isCancelled()</text>
<text text-anchor="start" x="50" y="-262" font-family="Helvetica,sans-Serif" font-size="10.00">+ setCancelled()</text>
<text text-anchor="start" x="50" y="-249" font-family="Helvetica,sans-Serif" font-size="10.00">+ getHandlers()</text>
</a>
</g>
<!-- Node3&#45;&gt;Node2 -->
<g id="edge4" class="edge"><title>Node3&#45;&gt;Node2</title>
<path fill="none" stroke="midnightblue" d="M103,-230.733C103,-221.593 103,-212.32 103,-203.611"/>
<polygon fill="none" stroke="midnightblue" points="99.5001,-230.959 103,-240.959 106.5,-230.959 99.5001,-230.959"/>
</g>
<!-- Node4 -->
<g id="node6" class="node"><title>Node4</title>
<a xlink:href="../../db/d62/interfacepocketmine_1_1event_1_1_cancellable.html" target="_top" xlink:title="{pocketmine\\event\\Cancellable\n||+ isCancelled()\l+ setCancelled()\l}">
<polygon fill="white" stroke="black" points="224,-121 224,-197 372,-197 372,-121 224,-121"/>
<text text-anchor="middle" x="298" y="-184" font-family="Helvetica,sans-Serif" font-size="10.00">pocketmine\event\Cancellable</text>
<polyline fill="none" stroke="black" points="224,-176 372,-176 "/>
<text text-anchor="middle" x="298" y="-163" font-family="Helvetica,sans-Serif" font-size="10.00"> </text>
<polyline fill="none" stroke="black" points="224,-155 372,-155 "/>
<text text-anchor="start" x="232" y="-142" font-family="Helvetica,sans-Serif" font-size="10.00">+ isCancelled()</text>
<text text-anchor="start" x="232" y="-129" font-family="Helvetica,sans-Serif" font-size="10.00">+ setCancelled()</text>
</a>
</g>
<!-- Node4&#45;&gt;Node1 -->
<g id="edge6" class="edge"><title>Node4&#45;&gt;Node1</title>
<path fill="none" stroke="midnightblue" d="M260.223,-112.743C250.669,-101.043 240.513,-88.6073 231.316,-77.3464"/>
<polygon fill="none" stroke="midnightblue" points="257.686,-115.17 266.723,-120.701 263.108,-110.742 257.686,-115.17"/>
</g>
</g>
</svg>
