<?xml version="1.0" encoding="UTF-8" standalone="no"?>
<!DOCTYPE svg PUBLIC "-//W3C//DTD SVG 1.1//EN"
 "http://www.w3.org/Graphics/SVG/1.1/DTD/svg11.dtd">
<!-- Generated by graphviz version 2.26.3 (20100126.1600)
 -->
<!-- Title: G Pages: 1 -->
<svg width="204pt" height="394pt"
 viewBox="0.00 0.00 204.00 394.00" xmlns="http://www.w3.org/2000/svg" xmlns:xlink="http://www.w3.org/1999/xlink">
<g id="graph1" class="graph" transform="scale(1 1) rotate(0) translate(4 390)">
<title>G</title>
<polygon fill="white" stroke="white" points="-4,5 -4,-390 201,-390 201,5 -4,5"/>
<!-- Node1 -->
<g id="node1" class="node"><title>Node1</title>
<polygon fill="#bfbfbf" stroke="black" points="-0.5,-0.5 -0.5,-89.5 196.5,-89.5 196.5,-0.5 -0.5,-0.5"/>
<text text-anchor="middle" x="98" y="-76.5" font-family="Helvetica,sans-Serif" font-size="10.00">pocketmine\network\protocol\ChatPacket</text>
<polyline fill="none" stroke="black" points="-0.5,-68.5 196.5,-68.5 "/>
<text text-anchor="start" x="7.5" y="-55.5" font-family="Helvetica,sans-Serif" font-size="10.00">+ $message</text>
<polyline fill="none" stroke="black" points="-0.5,-47.5 196.5,-47.5 "/>
<text text-anchor="start" x="7.5" y="-34.5" font-family="Helvetica,sans-Serif" font-size="10.00">+ pid()</text>
<text text-anchor="start" x="7.5" y="-21.5" font-family="Helvetica,sans-Serif" font-size="10.00">+ decode()</text>
<text text-anchor="start" x="7.5" y="-8.5" font-family="Helvetica,sans-Serif" font-size="10.00">+ encode()</text>
</g>
<!-- Node2 -->
<g id="node2" class="node"><title>Node2</title>
<a xlink:href="../../d0/d90/classpocketmine_1_1network_1_1protocol_1_1_data_packet.html" target="_top" xlink:title="{pocketmine\\network\\protocol\\DataPacket\n|+ $buffer\l|+ pid()\l+ encode()\l+ decode()\l+ setBuffer()\l+ getBuffer()\l# reset()\l# get()\l# put()\l# getLong()\l# putLong()\l# getInt()\l# putInt()\l# getShort()\l# putShort()\l# getFloat()\land 13 more...}">
<polygon fill="white" stroke="black" points="-0.5,-127 -0.5,-385 196.5,-385 196.5,-127 -0.5,-127"/>
<text text-anchor="middle" x="98" y="-372" font-family="Helvetica,sans-Serif" font-size="10.00">pocketmine\network\protocol\DataPacket</text>
<polyline fill="none" stroke="black" points="-0.5,-364 196.5,-364 "/>
<text text-anchor="start" x="7.5" y="-351" font-family="Helvetica,sans-Serif" font-size="10.00">+ $buffer</text>
<polyline fill="none" stroke="black" points="-0.5,-343 196.5,-343 "/>
<text text-anchor="start" x="7.5" y="-330" font-family="Helvetica,sans-Serif" font-size="10.00">+ pid()</text>
<text text-anchor="start" x="7.5" y="-317" font-family="Helvetica,sans-Serif" font-size="10.00">+ encode()</text>
<text text-anchor="start" x="7.5" y="-304" font-family="Helvetica,sans-Serif" font-size="10.00">+ decode()</text>
<text text-anchor="start" x="7.5" y="-291" font-family="Helvetica,sans-Serif" font-size="10.00">+ setBuffer()</text>
<text text-anchor="start" x="7.5" y="-278" font-family="Helvetica,sans-Serif" font-size="10.00">+ getBuffer()</text>
<text text-anchor="start" x="7.5" y="-265" font-family="Helvetica,sans-Serif" font-size="10.00"># reset()</text>
<text text-anchor="start" x="7.5" y="-252" font-family="Helvetica,sans-Serif" font-size="10.00"># get()</text>
<text text-anchor="start" x="7.5" y="-239" font-family="Helvetica,sans-Serif" font-size="10.00"># put()</text>
<text text-anchor="start" x="7.5" y="-226" font-family="Helvetica,sans-Serif" font-size="10.00"># getLong()</text>
<text text-anchor="start" x="7.5" y="-213" font-family="Helvetica,sans-Serif" font-size="10.00"># putLong()</text>
<text text-anchor="start" x="7.5" y="-200" font-family="Helvetica,sans-Serif" font-size="10.00"># getInt()</text>
<text text-anchor="start" x="7.5" y="-187" font-family="Helvetica,sans-Serif" font-size="10.00"># putInt()</text>
<text text-anchor="start" x="7.5" y="-174" font-family="Helvetica,sans-Serif" font-size="10.00"># getShort()</text>
<text text-anchor="start" x="7.5" y="-161" font-family="Helvetica,sans-Serif" font-size="10.00"># putShort()</text>
<text text-anchor="start" x="7.5" y="-148" font-family="Helvetica,sans-Serif" font-size="10.00"># getFloat()</text>
<text text-anchor="middle" x="98" y="-135" font-family="Helvetica,sans-Serif" font-size="10.00">and 13 more...</text>
</a>
</g>
<!-- Node2&#45;&gt;Node1 -->
<g id="edge2" class="edge"><title>Node2&#45;&gt;Node1</title>
<path fill="none" stroke="midnightblue" d="M98,-116.808C98,-107.272 98,-98.1451 98,-89.789"/>
<polygon fill="none" stroke="midnightblue" points="94.5001,-116.88 98,-126.88 101.5,-116.88 94.5001,-116.88"/>
</g>
</g>
</svg>
