<?xml version="1.0" encoding="UTF-8" standalone="no"?>
<!DOCTYPE svg PUBLIC "-//W3C//DTD SVG 1.1//EN"
 "http://www.w3.org/Graphics/SVG/1.1/DTD/svg11.dtd">
<!-- Generated by graphviz version 2.26.3 (20100126.1600)
 -->
<!-- Title: G Pages: 1 -->
<svg width="230pt" height="172pt"
 viewBox="0.00 0.00 230.00 172.00" xmlns="http://www.w3.org/2000/svg" xmlns:xlink="http://www.w3.org/1999/xlink">
<g id="graph1" class="graph" transform="scale(1 1) rotate(0) translate(4 168)">
<title>G</title>
<polygon fill="white" stroke="white" points="-4,5 -4,-168 227,-168 227,5 -4,5"/>
<!-- Node1 -->
<g id="node1" class="node"><title>Node1</title>
<polygon fill="#bfbfbf" stroke="black" points="0,-0.5 0,-63.5 222,-63.5 222,-0.5 0,-0.5"/>
<text text-anchor="middle" x="111" y="-50.5" font-family="Helvetica,sans-Serif" font-size="10.00">pocketmine\level\generator\populator\Mineshaft</text>
<polyline fill="none" stroke="black" points="0,-42.5 222,-42.5 "/>
<text text-anchor="middle" x="111" y="-29.5" font-family="Helvetica,sans-Serif" font-size="10.00"> </text>
<polyline fill="none" stroke="black" points="0,-21.5 222,-21.5 "/>
<text text-anchor="start" x="8" y="-8.5" font-family="Helvetica,sans-Serif" font-size="10.00">+ populate()</text>
</g>
<!-- Node2 -->
<g id="node2" class="node"><title>Node2</title>
<a xlink:href="../../db/de9/classpocketmine_1_1level_1_1generator_1_1populator_1_1_populator.html" target="_top" xlink:title="{pocketmine\\level\\generator\\populator\\Populator\n||+ populate()\l}">
<polygon fill="white" stroke="black" points="0.5,-100.5 0.5,-163.5 221.5,-163.5 221.5,-100.5 0.5,-100.5"/>
<text text-anchor="middle" x="111" y="-150.5" font-family="Helvetica,sans-Serif" font-size="10.00">pocketmine\level\generator\populator\Populator</text>
<polyline fill="none" stroke="black" points="0.5,-142.5 221.5,-142.5 "/>
<text text-anchor="middle" x="111" y="-129.5" font-family="Helvetica,sans-Serif" font-size="10.00"> </text>
<polyline fill="none" stroke="black" points="0.5,-121.5 221.5,-121.5 "/>
<text text-anchor="start" x="8.5" y="-108.5" font-family="Helvetica,sans-Serif" font-size="10.00">+ populate()</text>
</a>
</g>
<!-- Node2&#45;&gt;Node1 -->
<g id="edge2" class="edge"><title>Node2&#45;&gt;Node1</title>
<path fill="none" stroke="midnightblue" d="M111,-90.2111C111,-81.37 111,-72.1767 111,-63.778"/>
<polygon fill="none" stroke="midnightblue" points="107.5,-90.3593 111,-100.359 114.5,-90.3594 107.5,-90.3593"/>
</g>
</g>
</svg>
