<?xml version="1.0" encoding="UTF-8" standalone="no"?>
<!DOCTYPE svg PUBLIC "-//W3C//DTD SVG 1.1//EN"
 "http://www.w3.org/Graphics/SVG/1.1/DTD/svg11.dtd">
<!-- Generated by graphviz version 2.36.0 (20140111.2315)
 -->
<!-- Title: pocketmine\level\generator\populator\Mineshaft Pages: 1 -->
<svg width="156pt" height="184pt"
 viewBox="0.00 0.00 156.00 184.00" xmlns="http://www.w3.org/2000/svg" xmlns:xlink="http://www.w3.org/1999/xlink">
<g id="graph0" class="graph" transform="scale(1 1) rotate(0) translate(4 180)">
<title>pocketmine\level\generator\populator\Mineshaft</title>
<polygon fill="white" stroke="none" points="-4,4 -4,-180 152,-180 152,4 -4,4"/>
<!-- Node1 -->
<g id="node1" class="node"><title>Node1</title>
<polygon fill="#bfbfbf" stroke="black" points="0,-1 0,-69 148,-69 148,-1 0,-1"/>
<text text-anchor="start" x="8" y="-57" font-family="Helvetica,sans-Serif" font-size="10.00">pocketmine\level\generator</text>
<text text-anchor="middle" x="74" y="-46" font-family="Helvetica,sans-Serif" font-size="10.00">\populator\Mineshaft</text>
<polyline fill="none" stroke="black" points="0,-39 148,-39 "/>
<text text-anchor="middle" x="74" y="-27" font-family="Helvetica,sans-Serif" font-size="10.00"> </text>
<polyline fill="none" stroke="black" points="0,-20 148,-20 "/>
<text text-anchor="start" x="8" y="-8" font-family="Helvetica,sans-Serif" font-size="10.00">+ populate()</text>
</g>
<!-- Node2 -->
<g id="node2" class="node"><title>Node2</title>
<g id="a_node2"><a xlink:href="../../db/de9/classpocketmine_1_1level_1_1generator_1_1populator_1_1_populator.html" target="_top" xlink:title="{pocketmine\\level\\generator\l\\populator\\Populator\n||+ populate()\l}">
<polygon fill="white" stroke="black" points="0,-107 0,-175 148,-175 148,-107 0,-107"/>
<text text-anchor="start" x="8" y="-163" font-family="Helvetica,sans-Serif" font-size="10.00">pocketmine\level\generator</text>
<text text-anchor="middle" x="74" y="-152" font-family="Helvetica,sans-Serif" font-size="10.00">\populator\Populator</text>
<polyline fill="none" stroke="black" points="0,-145 148,-145 "/>
<text text-anchor="middle" x="74" y="-133" font-family="Helvetica,sans-Serif" font-size="10.00"> </text>
<polyline fill="none" stroke="black" points="0,-126 148,-126 "/>
<text text-anchor="start" x="8" y="-114" font-family="Helvetica,sans-Serif" font-size="10.00">+ populate()</text>
</a>
</g>
</g>
<!-- Node2&#45;&gt;Node1 -->
<g id="edge1" class="edge"><title>Node2&#45;&gt;Node1</title>
<path fill="none" stroke="midnightblue" d="M74,-96.6737C74,-87.5025 74,-77.9608 74,-69.2336"/>
<polygon fill="none" stroke="midnightblue" points="70.5001,-96.8078 74,-106.808 77.5001,-96.8078 70.5001,-96.8078"/>
</g>
</g>
</svg>
