<?xml version="1.0" encoding="UTF-8" standalone="no"?>
<!DOCTYPE svg PUBLIC "-//W3C//DTD SVG 1.1//EN"
 "http://www.w3.org/Graphics/SVG/1.1/DTD/svg11.dtd">
<!-- Generated by graphviz version 2.26.3 (20100126.1600)
 -->
<!-- Title: G Pages: 1 -->
<!--zoomable 442 -->
<svg id="main" version="1.1" xmlns="http://www.w3.org/2000/svg" xmlns:xlink="http://www.w3.org/1999/xlink" xml:space="preserve" onload="init(evt)">
        <defs>
                <circle id="rim" cx="0" cy="0" r="7"/>
                <circle id="rim2" cx="0" cy="0" r="3.5"/>
                <g id="zoomPlus">
                        <use xlink:href="#rim" fill="#404040">
                                <set attributeName="fill" to="#808080" begin="zoomplus.mouseover" end="zoomplus.mouseout"/>
                        </use>
                        <path d="M-4,0h8M0,-4v8" fill="none" stroke="white" stroke-width="1.5" pointer-events="none"/>
                </g>
                <g id="zoomMin">
                        <use xlink:href="#rim" fill="#404040">
                                <set attributeName="fill" to="#808080" begin="zoomminus.mouseover" end="zoomminus.mouseout"/>
                        </use>
                        <path d="M-4,0h8" fill="none" stroke="white" stroke-width="1.5" pointer-events="none"/>
                </g>
                <g id="dirArrow">
                        <path fill="none" stroke="white" stroke-width="1.5" d="M0,-3.0v7 M-2.5,-0.5L0,-3.0L2.5,-0.5"/>
                </g>
               <g id="resetDef">
                       <use xlink:href="#rim2" fill="#404040">
                               <set attributeName="fill" to="#808080" begin="reset.mouseover" end="reset.mouseout"/>
                       </use>
               </g>
        </defs>

<script type="text/javascript">
var viewWidth = 3612;
var viewHeight = 442;
var sectionId = 'dynsection-0';
</script>
<script xlink:href="../../svgpan.js"/>
<svg id="graph" class="graph">
<g id="viewport">
<title>G</title>
<polygon fill="white" stroke="white" points="-4,5 -4,-438 3609,-438 3609,5 -4,5"/>
<!-- Node1 -->
<g id="node1" class="node"><title>Node1</title>
<polygon fill="#bfbfbf" stroke="black" points="1820.5,-230.5 1820.5,-293.5 1999.5,-293.5 1999.5,-230.5 1820.5,-230.5"/>
<text text-anchor="middle" x="1910" y="-280.5" font-family="Helvetica,sans-Serif" font-size="10.00">pocketmine\event\player\PlayerEvent</text>
<polyline fill="none" stroke="black" points="1820.5,-272.5 1999.5,-272.5 "/>
<text text-anchor="start" x="1828.5" y="-259.5" font-family="Helvetica,sans-Serif" font-size="10.00"># $player</text>
<polyline fill="none" stroke="black" points="1820.5,-251.5 1999.5,-251.5 "/>
<text text-anchor="start" x="1828.5" y="-238.5" font-family="Helvetica,sans-Serif" font-size="10.00">+ getPlayer()</text>
</g>
<!-- Node3 -->
<g id="node5" class="node"><title>Node3</title>
<a xlink:href="../../dc/dc4/classpocketmine_1_1event_1_1player_1_1_player_achievement_awarded_event.html" target="_top" xlink:title="{pocketmine\\event\\player\\PlayerAchievementAwardedEvent\n|+ $handlerList\l# $achievement\l|+ __construct()\l+ getAchievement()\l}">
<polygon fill="white" stroke="black" points="-0.5,-52.5 -0.5,-141.5 274.5,-141.5 274.5,-52.5 -0.5,-52.5"/>
<text text-anchor="middle" x="137" y="-128.5" font-family="Helvetica,sans-Serif" font-size="10.00">pocketmine\event\player\PlayerAchievementAwardedEvent</text>
<polyline fill="none" stroke="black" points="-0.5,-120.5 274.5,-120.5 "/>
<text text-anchor="start" x="7.5" y="-107.5" font-family="Helvetica,sans-Serif" font-size="10.00">+ $handlerList</text>
<text text-anchor="start" x="7.5" y="-94.5" font-family="Helvetica,sans-Serif" font-size="10.00"># $achievement</text>
<polyline fill="none" stroke="black" points="-0.5,-86.5 274.5,-86.5 "/>
<text text-anchor="start" x="7.5" y="-73.5" font-family="Helvetica,sans-Serif" font-size="10.00">+ __construct()</text>
<text text-anchor="start" x="7.5" y="-60.5" font-family="Helvetica,sans-Serif" font-size="10.00">+ getAchievement()</text>
</a>
</g>
<!-- Node1&#45;&gt;Node3 -->
<g id="edge4" class="edge"><title>Node1&#45;&gt;Node3</title>
<path fill="none" stroke="midnightblue" d="M1810.25,-260.95C1478.91,-257.032 427.663,-240.994 283,-194 248.848,-182.906 215.16,-161.43 188.764,-141.5"/>
<polygon fill="none" stroke="midnightblue" points="1810.28,-264.451 1820.32,-261.068 1810.36,-257.451 1810.28,-264.451"/>
</g>
<!-- Node4 -->
<g id="node7" class="node"><title>Node4</title>
<a xlink:href="../../d0/d3e/classpocketmine_1_1event_1_1player_1_1_player_animation_event.html" target="_top" xlink:title="{pocketmine\\event\\player\\PlayerAnimationEvent\n|+ ARM_SWING\l+ $handlerList\l|+ __construct()\l+ getAnimationType()\l}">
<polygon fill="white" stroke="black" points="291.5,-52.5 291.5,-141.5 514.5,-141.5 514.5,-52.5 291.5,-52.5"/>
<text text-anchor="middle" x="403" y="-128.5" font-family="Helvetica,sans-Serif" font-size="10.00">pocketmine\event\player\PlayerAnimationEvent</text>
<polyline fill="none" stroke="black" points="291.5,-120.5 514.5,-120.5 "/>
<text text-anchor="start" x="299.5" y="-107.5" font-family="Helvetica,sans-Serif" font-size="10.00">+ ARM_SWING</text>
<text text-anchor="start" x="299.5" y="-94.5" font-family="Helvetica,sans-Serif" font-size="10.00">+ $handlerList</text>
<polyline fill="none" stroke="black" points="291.5,-86.5 514.5,-86.5 "/>
<text text-anchor="start" x="299.5" y="-73.5" font-family="Helvetica,sans-Serif" font-size="10.00">+ __construct()</text>
<text text-anchor="start" x="299.5" y="-60.5" font-family="Helvetica,sans-Serif" font-size="10.00">+ getAnimationType()</text>
</a>
</g>
<!-- Node1&#45;&gt;Node4 -->
<g id="edge6" class="edge"><title>Node1&#45;&gt;Node4</title>
<path fill="none" stroke="midnightblue" d="M1810.13,-260.676C1512.07,-256.226 642.17,-239.455 523,-194 493.59,-182.782 465.898,-161.427 444.542,-141.604"/>
<polygon fill="none" stroke="midnightblue" points="1810.44,-264.181 1820.49,-260.829 1810.54,-257.181 1810.44,-264.181"/>
</g>
<!-- Node5 -->
<g id="node9" class="node"><title>Node5</title>
<a xlink:href="../../df/d8f/classpocketmine_1_1event_1_1player_1_1_player_chat_event.html" target="_top" xlink:title="{pocketmine\\event\\player\\PlayerChatEvent\n|+ $handlerList\l# $message\l# $format\l# $recipients\l|+ __construct()\l+ getMessage()\l+ setMessage()\l+ setPlayer()\l+ getFormat()\l+ setFormat()\l+ getRecipients()\l+ setRecipients()\l}">
<polygon fill="white" stroke="black" points="532,-0.5 532,-193.5 732,-193.5 732,-0.5 532,-0.5"/>
<text text-anchor="middle" x="632" y="-180.5" font-family="Helvetica,sans-Serif" font-size="10.00">pocketmine\event\player\PlayerChatEvent</text>
<polyline fill="none" stroke="black" points="532,-172.5 732,-172.5 "/>
<text text-anchor="start" x="540" y="-159.5" font-family="Helvetica,sans-Serif" font-size="10.00">+ $handlerList</text>
<text text-anchor="start" x="540" y="-146.5" font-family="Helvetica,sans-Serif" font-size="10.00"># $message</text>
<text text-anchor="start" x="540" y="-133.5" font-family="Helvetica,sans-Serif" font-size="10.00"># $format</text>
<text text-anchor="start" x="540" y="-120.5" font-family="Helvetica,sans-Serif" font-size="10.00"># $recipients</text>
<polyline fill="none" stroke="black" points="532,-112.5 732,-112.5 "/>
<text text-anchor="start" x="540" y="-99.5" font-family="Helvetica,sans-Serif" font-size="10.00">+ __construct()</text>
<text text-anchor="start" x="540" y="-86.5" font-family="Helvetica,sans-Serif" font-size="10.00">+ getMessage()</text>
<text text-anchor="start" x="540" y="-73.5" font-family="Helvetica,sans-Serif" font-size="10.00">+ setMessage()</text>
<text text-anchor="start" x="540" y="-60.5" font-family="Helvetica,sans-Serif" font-size="10.00">+ setPlayer()</text>
<text text-anchor="start" x="540" y="-47.5" font-family="Helvetica,sans-Serif" font-size="10.00">+ getFormat()</text>
<text text-anchor="start" x="540" y="-34.5" font-family="Helvetica,sans-Serif" font-size="10.00">+ setFormat()</text>
<text text-anchor="start" x="540" y="-21.5" font-family="Helvetica,sans-Serif" font-size="10.00">+ getRecipients()</text>
<text text-anchor="start" x="540" y="-8.5" font-family="Helvetica,sans-Serif" font-size="10.00">+ setRecipients()</text>
</a>
</g>
<!-- Node1&#45;&gt;Node5 -->
<g id="edge8" class="edge"><title>Node1&#45;&gt;Node5</title>
<path fill="none" stroke="midnightblue" d="M1809.96,-259.935C1544.95,-253.938 838.365,-234.325 741,-194 738.075,-192.788 735.175,-191.464 732.305,-190.04"/>
<polygon fill="none" stroke="midnightblue" points="1810.27,-263.443 1820.34,-260.168 1810.42,-256.445 1810.27,-263.443"/>
</g>
<!-- Node6 -->
<g id="node11" class="node"><title>Node6</title>
<a xlink:href="../../d3/dd2/classpocketmine_1_1event_1_1player_1_1_player_command_preprocess_event.html" target="_top" xlink:title="{pocketmine\\event\\player\\PlayerCommandPreprocessEvent\n|+ $handlerList\l# $message\l|+ __construct()\l+ getMessage()\l+ setMessage()\l+ setPlayer()\l}">
<polygon fill="white" stroke="black" points="750,-39.5 750,-154.5 1024,-154.5 1024,-39.5 750,-39.5"/>
<text text-anchor="middle" x="887" y="-141.5" font-family="Helvetica,sans-Serif" font-size="10.00">pocketmine\event\player\PlayerCommandPreprocessEvent</text>
<polyline fill="none" stroke="black" points="750,-133.5 1024,-133.5 "/>
<text text-anchor="start" x="758" y="-120.5" font-family="Helvetica,sans-Serif" font-size="10.00">+ $handlerList</text>
<text text-anchor="start" x="758" y="-107.5" font-family="Helvetica,sans-Serif" font-size="10.00"># $message</text>
<polyline fill="none" stroke="black" points="750,-99.5 1024,-99.5 "/>
<text text-anchor="start" x="758" y="-86.5" font-family="Helvetica,sans-Serif" font-size="10.00">+ __construct()</text>
<text text-anchor="start" x="758" y="-73.5" font-family="Helvetica,sans-Serif" font-size="10.00">+ getMessage()</text>
<text text-anchor="start" x="758" y="-60.5" font-family="Helvetica,sans-Serif" font-size="10.00">+ setMessage()</text>
<text text-anchor="start" x="758" y="-47.5" font-family="Helvetica,sans-Serif" font-size="10.00">+ setPlayer()</text>
</a>
</g>
<!-- Node1&#45;&gt;Node6 -->
<g id="edge10" class="edge"><title>Node1&#45;&gt;Node6</title>
<path fill="none" stroke="midnightblue" d="M1810.16,-260.557C1611.61,-256.662 1174.2,-242.666 1033,-194 1006.82,-184.977 980.802,-170.112 958.142,-154.698"/>
<polygon fill="none" stroke="midnightblue" points="1810.23,-264.059 1820.29,-260.751 1810.36,-257.061 1810.23,-264.059"/>
</g>
<!-- Node7 -->
<g id="node13" class="node"><title>Node7</title>
<a xlink:href="../../d2/d16/classpocketmine_1_1event_1_1player_1_1_player_drop_item_event.html" target="_top" xlink:title="{pocketmine\\event\\player\\PlayerDropItemEvent\n|+ $handlerList\l|+ __construct()\l+ getItem()\l}">
<polygon fill="white" stroke="black" points="1042,-59 1042,-135 1262,-135 1262,-59 1042,-59"/>
<text text-anchor="middle" x="1152" y="-122" font-family="Helvetica,sans-Serif" font-size="10.00">pocketmine\event\player\PlayerDropItemEvent</text>
<polyline fill="none" stroke="black" points="1042,-114 1262,-114 "/>
<text text-anchor="start" x="1050" y="-101" font-family="Helvetica,sans-Serif" font-size="10.00">+ $handlerList</text>
<polyline fill="none" stroke="black" points="1042,-93 1262,-93 "/>
<text text-anchor="start" x="1050" y="-80" font-family="Helvetica,sans-Serif" font-size="10.00">+ __construct()</text>
<text text-anchor="start" x="1050" y="-67" font-family="Helvetica,sans-Serif" font-size="10.00">+ getItem()</text>
</a>
</g>
<!-- Node1&#45;&gt;Node7 -->
<g id="edge12" class="edge"><title>Node1&#45;&gt;Node7</title>
<path fill="none" stroke="midnightblue" d="M1809.95,-258.291C1655.23,-251.395 1365.87,-233.549 1271,-194 1239.26,-180.77 1209.3,-156.243 1187.37,-135.164"/>
<polygon fill="none" stroke="midnightblue" points="1810.25,-261.807 1820.39,-258.749 1810.56,-254.814 1810.25,-261.807"/>
</g>
<!-- Node8 -->
<g id="node15" class="node"><title>Node8</title>
<a xlink:href="../../db/d3e/classpocketmine_1_1event_1_1player_1_1_player_game_mode_change_event.html" target="_top" xlink:title="{pocketmine\\event\\player\\PlayerGameModeChangeEvent\n|+ $handlerList\l# $gamemode\l|+ __construct()\l+ getNewGamemode()\l}">
<polygon fill="white" stroke="black" points="1279.5,-52.5 1279.5,-141.5 1542.5,-141.5 1542.5,-52.5 1279.5,-52.5"/>
<text text-anchor="middle" x="1411" y="-128.5" font-family="Helvetica,sans-Serif" font-size="10.00">pocketmine\event\player\PlayerGameModeChangeEvent</text>
<polyline fill="none" stroke="black" points="1279.5,-120.5 1542.5,-120.5 "/>
<text text-anchor="start" x="1287.5" y="-107.5" font-family="Helvetica,sans-Serif" font-size="10.00">+ $handlerList</text>
<text text-anchor="start" x="1287.5" y="-94.5" font-family="Helvetica,sans-Serif" font-size="10.00"># $gamemode</text>
<polyline fill="none" stroke="black" points="1279.5,-86.5 1542.5,-86.5 "/>
<text text-anchor="start" x="1287.5" y="-73.5" font-family="Helvetica,sans-Serif" font-size="10.00">+ __construct()</text>
<text text-anchor="start" x="1287.5" y="-60.5" font-family="Helvetica,sans-Serif" font-size="10.00">+ getNewGamemode()</text>
</a>
</g>
<!-- Node1&#45;&gt;Node8 -->
<g id="edge14" class="edge"><title>Node1&#45;&gt;Node8</title>
<path fill="none" stroke="midnightblue" d="M1810.11,-254.35C1736.23,-246.04 1634.41,-228.925 1551,-194 1520.04,-181.037 1489.02,-160.502 1464.07,-141.656"/>
<polygon fill="none" stroke="midnightblue" points="1810.02,-257.861 1820.34,-255.465 1810.78,-250.902 1810.02,-257.861"/>
</g>
<!-- Node9 -->
<g id="node17" class="node"><title>Node9</title>
<a xlink:href="../../d8/d28/classpocketmine_1_1event_1_1player_1_1_player_interact_event.html" target="_top" xlink:title="{pocketmine\\event\\player\\PlayerInteractEvent\n|+ $handlerList\l# $blockTouched\l# $blockFace\l# $item\l|+ __construct()\l+ getItem()\l+ getBlock()\l+ getFace()\l}">
<polygon fill="white" stroke="black" points="1560,-26.5 1560,-167.5 1772,-167.5 1772,-26.5 1560,-26.5"/>
<text text-anchor="middle" x="1666" y="-154.5" font-family="Helvetica,sans-Serif" font-size="10.00">pocketmine\event\player\PlayerInteractEvent</text>
<polyline fill="none" stroke="black" points="1560,-146.5 1772,-146.5 "/>
<text text-anchor="start" x="1568" y="-133.5" font-family="Helvetica,sans-Serif" font-size="10.00">+ $handlerList</text>
<text text-anchor="start" x="1568" y="-120.5" font-family="Helvetica,sans-Serif" font-size="10.00"># $blockTouched</text>
<text text-anchor="start" x="1568" y="-107.5" font-family="Helvetica,sans-Serif" font-size="10.00"># $blockFace</text>
<text text-anchor="start" x="1568" y="-94.5" font-family="Helvetica,sans-Serif" font-size="10.00"># $item</text>
<polyline fill="none" stroke="black" points="1560,-86.5 1772,-86.5 "/>
<text text-anchor="start" x="1568" y="-73.5" font-family="Helvetica,sans-Serif" font-size="10.00">+ __construct()</text>
<text text-anchor="start" x="1568" y="-60.5" font-family="Helvetica,sans-Serif" font-size="10.00">+ getItem()</text>
<text text-anchor="start" x="1568" y="-47.5" font-family="Helvetica,sans-Serif" font-size="10.00">+ getBlock()</text>
<text text-anchor="start" x="1568" y="-34.5" font-family="Helvetica,sans-Serif" font-size="10.00">+ getFace()</text>
</a>
</g>
<!-- Node1&#45;&gt;Node9 -->
<g id="edge16" class="edge"><title>Node1&#45;&gt;Node9</title>
<path fill="none" stroke="midnightblue" d="M1834.19,-225.528C1816.31,-215.983 1797.63,-205.203 1781,-194 1769.09,-185.973 1756.98,-176.918 1745.32,-167.647"/>
<polygon fill="none" stroke="midnightblue" points="1832.97,-228.842 1843.45,-230.403 1836.23,-222.648 1832.97,-228.842"/>
</g>
<!-- Node10 -->
<g id="node19" class="node"><title>Node10</title>
<a xlink:href="../../da/d8e/classpocketmine_1_1event_1_1player_1_1_player_item_consume_event.html" target="_top" xlink:title="{pocketmine\\event\\player\\PlayerItemConsumeEvent\n|+ $handlerList\l|+ __construct()\l+ getItem()\l}">
<polygon fill="white" stroke="black" points="1789.5,-59 1789.5,-135 2030.5,-135 2030.5,-59 1789.5,-59"/>
<text text-anchor="middle" x="1910" y="-122" font-family="Helvetica,sans-Serif" font-size="10.00">pocketmine\event\player\PlayerItemConsumeEvent</text>
<polyline fill="none" stroke="black" points="1789.5,-114 2030.5,-114 "/>
<text text-anchor="start" x="1797.5" y="-101" font-family="Helvetica,sans-Serif" font-size="10.00">+ $handlerList</text>
<polyline fill="none" stroke="black" points="1789.5,-93 2030.5,-93 "/>
<text text-anchor="start" x="1797.5" y="-80" font-family="Helvetica,sans-Serif" font-size="10.00">+ __construct()</text>
<text text-anchor="start" x="1797.5" y="-67" font-family="Helvetica,sans-Serif" font-size="10.00">+ getItem()</text>
</a>
</g>
<!-- Node1&#45;&gt;Node10 -->
<g id="edge18" class="edge"><title>Node1&#45;&gt;Node10</title>
<path fill="none" stroke="midnightblue" d="M1910,-220.182C1910,-194.001 1910,-160.53 1910,-135.087"/>
<polygon fill="none" stroke="midnightblue" points="1906.5,-220.186 1910,-230.186 1913.5,-220.186 1906.5,-220.186"/>
</g>
<!-- Node11 -->
<g id="node21" class="node"><title>Node11</title>
<a xlink:href="../../dd/de9/classpocketmine_1_1event_1_1player_1_1_player_item_held_event.html" target="_top" xlink:title="{pocketmine\\event\\player\\PlayerItemHeldEvent\n|+ $handlerList\l|+ __construct()\l+ getSlot()\l+ getInventorySlot()\l+ getItem()\l}">
<polygon fill="white" stroke="black" points="2047.5,-46 2047.5,-148 2266.5,-148 2266.5,-46 2047.5,-46"/>
<text text-anchor="middle" x="2157" y="-135" font-family="Helvetica,sans-Serif" font-size="10.00">pocketmine\event\player\PlayerItemHeldEvent</text>
<polyline fill="none" stroke="black" points="2047.5,-127 2266.5,-127 "/>
<text text-anchor="start" x="2055.5" y="-114" font-family="Helvetica,sans-Serif" font-size="10.00">+ $handlerList</text>
<polyline fill="none" stroke="black" points="2047.5,-106 2266.5,-106 "/>
<text text-anchor="start" x="2055.5" y="-93" font-family="Helvetica,sans-Serif" font-size="10.00">+ __construct()</text>
<text text-anchor="start" x="2055.5" y="-80" font-family="Helvetica,sans-Serif" font-size="10.00">+ getSlot()</text>
<text text-anchor="start" x="2055.5" y="-67" font-family="Helvetica,sans-Serif" font-size="10.00">+ getInventorySlot()</text>
<text text-anchor="start" x="2055.5" y="-54" font-family="Helvetica,sans-Serif" font-size="10.00">+ getItem()</text>
</a>
</g>
<!-- Node1&#45;&gt;Node11 -->
<g id="edge20" class="edge"><title>Node1&#45;&gt;Node11</title>
<path fill="none" stroke="midnightblue" d="M1985.42,-225.531C2003.39,-215.952 2022.21,-205.157 2039,-194 2059.65,-180.275 2080.96,-163.637 2099.69,-148.043"/>
<polygon fill="none" stroke="midnightblue" points="1983.34,-222.672 1976.12,-230.425 1986.59,-228.867 1983.34,-222.672"/>
</g>
<!-- Node12 -->
<g id="node23" class="node"><title>Node12</title>
<a xlink:href="../../d7/dcc/classpocketmine_1_1event_1_1player_1_1_player_join_event.html" target="_top" xlink:title="{pocketmine\\event\\player\\PlayerJoinEvent\n|+ $handlerList\l# $joinMessage\l|+ __construct()\l+ setJoinMessage()\l+ getJoinMessage()\l}">
<polygon fill="white" stroke="black" points="2283.5,-46 2283.5,-148 2480.5,-148 2480.5,-46 2283.5,-46"/>
<text text-anchor="middle" x="2382" y="-135" font-family="Helvetica,sans-Serif" font-size="10.00">pocketmine\event\player\PlayerJoinEvent</text>
<polyline fill="none" stroke="black" points="2283.5,-127 2480.5,-127 "/>
<text text-anchor="start" x="2291.5" y="-114" font-family="Helvetica,sans-Serif" font-size="10.00">+ $handlerList</text>
<text text-anchor="start" x="2291.5" y="-101" font-family="Helvetica,sans-Serif" font-size="10.00"># $joinMessage</text>
<polyline fill="none" stroke="black" points="2283.5,-93 2480.5,-93 "/>
<text text-anchor="start" x="2291.5" y="-80" font-family="Helvetica,sans-Serif" font-size="10.00">+ __construct()</text>
<text text-anchor="start" x="2291.5" y="-67" font-family="Helvetica,sans-Serif" font-size="10.00">+ setJoinMessage()</text>
<text text-anchor="start" x="2291.5" y="-54" font-family="Helvetica,sans-Serif" font-size="10.00">+ getJoinMessage()</text>
</a>
</g>
<!-- Node1&#45;&gt;Node12 -->
<g id="edge22" class="edge"><title>Node1&#45;&gt;Node12</title>
<path fill="none" stroke="midnightblue" d="M2009.75,-249.64C2101.31,-237.178 2229.43,-216.597 2275,-194 2297.69,-182.75 2319.13,-165.279 2336.78,-148.246"/>
<polygon fill="none" stroke="midnightblue" points="2009.05,-246.201 1999.61,-251.007 2009.99,-253.139 2009.05,-246.201"/>
</g>
<!-- Node13 -->
<g id="node25" class="node"><title>Node13</title>
<a xlink:href="../../d9/dd8/classpocketmine_1_1event_1_1player_1_1_player_kick_event.html" target="_top" xlink:title="{pocketmine\\event\\player\\PlayerKickEvent\n|+ $handlerList\l# $quitMessage\l# $reason\l|+ __construct()\l+ getReason()\l+ setQuitMessage()\l+ getQuitMessage()\l}">
<polygon fill="white" stroke="black" points="2497.5,-33 2497.5,-161 2696.5,-161 2696.5,-33 2497.5,-33"/>
<text text-anchor="middle" x="2597" y="-148" font-family="Helvetica,sans-Serif" font-size="10.00">pocketmine\event\player\PlayerKickEvent</text>
<polyline fill="none" stroke="black" points="2497.5,-140 2696.5,-140 "/>
<text text-anchor="start" x="2505.5" y="-127" font-family="Helvetica,sans-Serif" font-size="10.00">+ $handlerList</text>
<text text-anchor="start" x="2505.5" y="-114" font-family="Helvetica,sans-Serif" font-size="10.00"># $quitMessage</text>
<text text-anchor="start" x="2505.5" y="-101" font-family="Helvetica,sans-Serif" font-size="10.00"># $reason</text>
<polyline fill="none" stroke="black" points="2497.5,-93 2696.5,-93 "/>
<text text-anchor="start" x="2505.5" y="-80" font-family="Helvetica,sans-Serif" font-size="10.00">+ __construct()</text>
<text text-anchor="start" x="2505.5" y="-67" font-family="Helvetica,sans-Serif" font-size="10.00">+ getReason()</text>
<text text-anchor="start" x="2505.5" y="-54" font-family="Helvetica,sans-Serif" font-size="10.00">+ setQuitMessage()</text>
<text text-anchor="start" x="2505.5" y="-41" font-family="Helvetica,sans-Serif" font-size="10.00">+ getQuitMessage()</text>
</a>
</g>
<!-- Node1&#45;&gt;Node13 -->
<g id="edge24" class="edge"><title>Node1&#45;&gt;Node13</title>
<path fill="none" stroke="midnightblue" d="M2009.56,-257.564C2151.94,-249.997 2405.74,-231.617 2489,-194 2506.68,-186.01 2523.5,-174.051 2538.37,-161.233"/>
<polygon fill="none" stroke="midnightblue" points="2009.31,-254.072 1999.5,-258.09 2009.67,-261.062 2009.31,-254.072"/>
</g>
<!-- Node14 -->
<g id="node27" class="node"><title>Node14</title>
<a xlink:href="../../d6/d15/classpocketmine_1_1event_1_1player_1_1_player_login_event.html" target="_top" xlink:title="{pocketmine\\event\\player\\PlayerLoginEvent\n|+ $handlerList\l# $kickMessage\l|+ __construct()\l+ setKickMessage()\l+ getKickMessage()\l}">
<polygon fill="white" stroke="black" points="2713.5,-46 2713.5,-148 2916.5,-148 2916.5,-46 2713.5,-46"/>
<text text-anchor="middle" x="2815" y="-135" font-family="Helvetica,sans-Serif" font-size="10.00">pocketmine\event\player\PlayerLoginEvent</text>
<polyline fill="none" stroke="black" points="2713.5,-127 2916.5,-127 "/>
<text text-anchor="start" x="2721.5" y="-114" font-family="Helvetica,sans-Serif" font-size="10.00">+ $handlerList</text>
<text text-anchor="start" x="2721.5" y="-101" font-family="Helvetica,sans-Serif" font-size="10.00"># $kickMessage</text>
<polyline fill="none" stroke="black" points="2713.5,-93 2916.5,-93 "/>
<text text-anchor="start" x="2721.5" y="-80" font-family="Helvetica,sans-Serif" font-size="10.00">+ __construct()</text>
<text text-anchor="start" x="2721.5" y="-67" font-family="Helvetica,sans-Serif" font-size="10.00">+ setKickMessage()</text>
<text text-anchor="start" x="2721.5" y="-54" font-family="Helvetica,sans-Serif" font-size="10.00">+ getKickMessage()</text>
</a>
</g>
<!-- Node1&#45;&gt;Node14 -->
<g id="edge26" class="edge"><title>Node1&#45;&gt;Node14</title>
<path fill="none" stroke="midnightblue" d="M2009.98,-256.957C2209.33,-246.392 2642.56,-220.695 2705,-194 2729.23,-183.641 2751.85,-165.803 2770.2,-148.226"/>
<polygon fill="none" stroke="midnightblue" points="2009.6,-253.472 1999.8,-257.494 2009.97,-260.462 2009.6,-253.472"/>
</g>
<!-- Node15 -->
<g id="node29" class="node"><title>Node15</title>
<a xlink:href="../../d2/d1e/classpocketmine_1_1event_1_1player_1_1_player_pre_login_event.html" target="_top" xlink:title="{pocketmine\\event\\player\\PlayerPreLoginEvent\n|+ $handlerList\l# $kickMessage\l|+ __construct()\l+ setKickMessage()\l+ getKickMessage()\l}">
<polygon fill="white" stroke="black" points="2934,-46 2934,-148 3152,-148 3152,-46 2934,-46"/>
<text text-anchor="middle" x="3043" y="-135" font-family="Helvetica,sans-Serif" font-size="10.00">pocketmine\event\player\PlayerPreLoginEvent</text>
<polyline fill="none" stroke="black" points="2934,-127 3152,-127 "/>
<text text-anchor="start" x="2942" y="-114" font-family="Helvetica,sans-Serif" font-size="10.00">+ $handlerList</text>
<text text-anchor="start" x="2942" y="-101" font-family="Helvetica,sans-Serif" font-size="10.00"># $kickMessage</text>
<polyline fill="none" stroke="black" points="2934,-93 3152,-93 "/>
<text text-anchor="start" x="2942" y="-80" font-family="Helvetica,sans-Serif" font-size="10.00">+ __construct()</text>
<text text-anchor="start" x="2942" y="-67" font-family="Helvetica,sans-Serif" font-size="10.00">+ setKickMessage()</text>
<text text-anchor="start" x="2942" y="-54" font-family="Helvetica,sans-Serif" font-size="10.00">+ getKickMessage()</text>
</a>
</g>
<!-- Node1&#45;&gt;Node15 -->
<g id="edge28" class="edge"><title>Node1&#45;&gt;Node15</title>
<path fill="none" stroke="midnightblue" d="M2009.75,-258.781C2248.92,-250.569 2841.44,-227.128 2925,-194 2950.64,-183.835 2974.92,-165.92 2994.72,-148.23"/>
<polygon fill="none" stroke="midnightblue" points="2009.54,-255.286 1999.66,-259.125 2009.78,-262.282 2009.54,-255.286"/>
</g>
<!-- Node16 -->
<g id="node31" class="node"><title>Node16</title>
<a xlink:href="../../df/d81/classpocketmine_1_1event_1_1player_1_1_player_quit_event.html" target="_top" xlink:title="{pocketmine\\event\\player\\PlayerQuitEvent\n|+ $handlerList\l# $quitMessage\l|+ __construct()\l+ setQuitMessage()\l+ getQuitMessage()\l}">
<polygon fill="white" stroke="black" points="3169.5,-46 3169.5,-148 3366.5,-148 3366.5,-46 3169.5,-46"/>
<text text-anchor="middle" x="3268" y="-135" font-family="Helvetica,sans-Serif" font-size="10.00">pocketmine\event\player\PlayerQuitEvent</text>
<polyline fill="none" stroke="black" points="3169.5,-127 3366.5,-127 "/>
<text text-anchor="start" x="3177.5" y="-114" font-family="Helvetica,sans-Serif" font-size="10.00">+ $handlerList</text>
<text text-anchor="start" x="3177.5" y="-101" font-family="Helvetica,sans-Serif" font-size="10.00"># $quitMessage</text>
<polyline fill="none" stroke="black" points="3169.5,-93 3366.5,-93 "/>
<text text-anchor="start" x="3177.5" y="-80" font-family="Helvetica,sans-Serif" font-size="10.00">+ __construct()</text>
<text text-anchor="start" x="3177.5" y="-67" font-family="Helvetica,sans-Serif" font-size="10.00">+ setQuitMessage()</text>
<text text-anchor="start" x="3177.5" y="-54" font-family="Helvetica,sans-Serif" font-size="10.00">+ getQuitMessage()</text>
</a>
</g>
<!-- Node1&#45;&gt;Node16 -->
<g id="edge30" class="edge"><title>Node1&#45;&gt;Node16</title>
<path fill="none" stroke="midnightblue" d="M2009.75,-260.403C2287.46,-255.423 3056.04,-237.805 3161,-194 3185.18,-183.909 3207.45,-165.893 3225.34,-148.104"/>
<polygon fill="none" stroke="midnightblue" points="2009.62,-256.905 1999.69,-260.582 2009.75,-263.904 2009.62,-256.905"/>
</g>
<!-- Node17 -->
<g id="node33" class="node"><title>Node17</title>
<a xlink:href="../../de/d1c/classpocketmine_1_1event_1_1player_1_1_player_respawn_event.html" target="_top" xlink:title="{pocketmine\\event\\player\\PlayerRespawnEvent\n|+ $handlerList\l# $position\l|+ __construct()\l+ getRespawnPosition()\l+ setRespawnPosition()\l}">
<polygon fill="white" stroke="black" points="3383.5,-46 3383.5,-148 3604.5,-148 3604.5,-46 3383.5,-46"/>
<text text-anchor="middle" x="3494" y="-135" font-family="Helvetica,sans-Serif" font-size="10.00">pocketmine\event\player\PlayerRespawnEvent</text>
<polyline fill="none" stroke="black" points="3383.5,-127 3604.5,-127 "/>
<text text-anchor="start" x="3391.5" y="-114" font-family="Helvetica,sans-Serif" font-size="10.00">+ $handlerList</text>
<text text-anchor="start" x="3391.5" y="-101" font-family="Helvetica,sans-Serif" font-size="10.00"># $position</text>
<polyline fill="none" stroke="black" points="3383.5,-93 3604.5,-93 "/>
<text text-anchor="start" x="3391.5" y="-80" font-family="Helvetica,sans-Serif" font-size="10.00">+ __construct()</text>
<text text-anchor="start" x="3391.5" y="-67" font-family="Helvetica,sans-Serif" font-size="10.00">+ getRespawnPosition()</text>
<text text-anchor="start" x="3391.5" y="-54" font-family="Helvetica,sans-Serif" font-size="10.00">+ setRespawnPosition()</text>
</a>
</g>
<!-- Node1&#45;&gt;Node17 -->
<g id="edge32" class="edge"><title>Node1&#45;&gt;Node17</title>
<path fill="none" stroke="midnightblue" d="M2009.85,-260.981C2319.19,-257.324 3248.42,-242.39 3375,-194 3401.14,-184.007 3425.86,-165.893 3445.92,-148.001"/>
<polygon fill="none" stroke="midnightblue" points="2009.51,-257.485 1999.56,-261.102 2009.6,-264.484 2009.51,-257.485"/>
</g>
<!-- Node2 -->
<g id="node2" class="node"><title>Node2</title>
<a xlink:href="../../d1/d2f/classpocketmine_1_1event_1_1_event.html" target="_top" xlink:title="{pocketmine\\event\\Event\n|# $eventName\l|+ getEventName()\l+ isCancelled()\l+ setCancelled()\l+ getHandlers()\l}">
<polygon fill="white" stroke="black" points="1849,-331 1849,-433 1971,-433 1971,-331 1849,-331"/>
<text text-anchor="middle" x="1910" y="-420" font-family="Helvetica,sans-Serif" font-size="10.00">pocketmine\event\Event</text>
<polyline fill="none" stroke="black" points="1849,-412 1971,-412 "/>
<text text-anchor="start" x="1857" y="-399" font-family="Helvetica,sans-Serif" font-size="10.00"># $eventName</text>
<polyline fill="none" stroke="black" points="1849,-391 1971,-391 "/>
<text text-anchor="start" x="1857" y="-378" font-family="Helvetica,sans-Serif" font-size="10.00">+ getEventName()</text>
<text text-anchor="start" x="1857" y="-365" font-family="Helvetica,sans-Serif" font-size="10.00">+ isCancelled()</text>
<text text-anchor="start" x="1857" y="-352" font-family="Helvetica,sans-Serif" font-size="10.00">+ setCancelled()</text>
<text text-anchor="start" x="1857" y="-339" font-family="Helvetica,sans-Serif" font-size="10.00">+ getHandlers()</text>
</a>
</g>
<!-- Node2&#45;&gt;Node1 -->
<g id="edge2" class="edge"><title>Node2&#45;&gt;Node1</title>
<path fill="none" stroke="midnightblue" d="M1910,-320.641C1910,-311.292 1910,-301.986 1910,-293.633"/>
<polygon fill="none" stroke="midnightblue" points="1906.5,-320.761 1910,-330.761 1913.5,-320.761 1906.5,-320.761"/>
</g>
</g>
</svg>
        <g id="navigator" transform="translate(0 0)" fill="#404254">
                <rect fill="#f2f5e9" fill-opacity="0.5" stroke="#606060" stroke-width=".5" x="0" y="0" width="60" height="60"/>
                <use id="zoomplus" xlink:href="#zoomPlus" x="17" y="9" onmousedown="handleZoom(evt,'in')"/>
                <use id="zoomminus" xlink:href="#zoomMin" x="42" y="9" onmousedown="handleZoom(evt,'out')"/>
                <use id="reset" xlink:href="#resetDef" x="30" y="36" onmousedown="handleReset()"/>
                <g id="arrowUp" xlink:href="#dirArrow" transform="translate(30 24)" onmousedown="handlePan(0,-1)">
                  <use xlink:href="#rim" fill="#404040">
                        <set attributeName="fill" to="#808080" begin="arrowUp.mouseover" end="arrowUp.mouseout"/>
                  </use>
                  <path fill="none" stroke="white" stroke-width="1.5" d="M0,-3.0v7 M-2.5,-0.5L0,-3.0L2.5,-0.5"/>
                </g>
                <g id="arrowRight" xlink:href="#dirArrow" transform="rotate(90) translate(36 -43)" onmousedown="handlePan(1,0)">
                  <use xlink:href="#rim" fill="#404040">
                        <set attributeName="fill" to="#808080" begin="arrowRight.mouseover" end="arrowRight.mouseout"/>
                  </use>
                  <path fill="none" stroke="white" stroke-width="1.5" d="M0,-3.0v7 M-2.5,-0.5L0,-3.0L2.5,-0.5"/>
                </g>
                <g id="arrowDown" xlink:href="#dirArrow" transform="rotate(180) translate(-30 -48)" onmousedown="handlePan(0,1)">
                  <use xlink:href="#rim" fill="#404040">
                        <set attributeName="fill" to="#808080" begin="arrowDown.mouseover" end="arrowDown.mouseout"/>
                  </use>
                  <path fill="none" stroke="white" stroke-width="1.5" d="M0,-3.0v7 M-2.5,-0.5L0,-3.0L2.5,-0.5"/>
                </g>
                <g id="arrowLeft" xlink:href="#dirArrow" transform="rotate(270) translate(-36 17)" onmousedown="handlePan(-1,0)">
                  <use xlink:href="#rim" fill="#404040">
                        <set attributeName="fill" to="#808080" begin="arrowLeft.mouseover" end="arrowLeft.mouseout"/>
                  </use>
                  <path fill="none" stroke="white" stroke-width="1.5" d="M0,-3.0v7 M-2.5,-0.5L0,-3.0L2.5,-0.5"/>
                </g>
        </g>
</svg>
