<?xml version="1.0" encoding="UTF-8" standalone="no"?>
<!DOCTYPE svg PUBLIC "-//W3C//DTD SVG 1.1//EN"
 "http://www.w3.org/Graphics/SVG/1.1/DTD/svg11.dtd">
<!-- Generated by graphviz version 2.26.3 (20100126.1600)
 -->
<!-- Title: pocketmine\event\player\PlayerEvent Pages: 1 -->
<!--zoomable 470 -->
<svg id="main" version="1.1" xmlns="http://www.w3.org/2000/svg" xmlns:xlink="http://www.w3.org/1999/xlink" xml:space="preserve" onload="init(evt)">
<style type="text/css"><![CDATA[
.edge:hover path { stroke: red; }
.edge:hover polygon { stroke: red; fill: red; }
]]></style>
<script type="text/javascript"><![CDATA[
var edges = document.getElementsByTagName('g');
if (edges && edges.length) {
  for (var i=0;i<edges.length;i++) {
    if (edges[i].id.substr(0,4)=='edge') {
      edges[i].setAttribute('class','edge');
    }
  }
}
]]></script>
        <defs>
                <circle id="rim" cx="0" cy="0" r="7"/>
                <circle id="rim2" cx="0" cy="0" r="3.5"/>
                <g id="zoomPlus">
                        <use xlink:href="#rim" fill="#404040">
                                <set attributeName="fill" to="#808080" begin="zoomplus.mouseover" end="zoomplus.mouseout"/>
                        </use>
                        <path d="M-4,0h8M0,-4v8" fill="none" stroke="white" stroke-width="1.5" pointer-events="none"/>
                </g>
                <g id="zoomMin">
                        <use xlink:href="#rim" fill="#404040">
                                <set attributeName="fill" to="#808080" begin="zoomminus.mouseover" end="zoomminus.mouseout"/>
                        </use>
                        <path d="M-4,0h8" fill="none" stroke="white" stroke-width="1.5" pointer-events="none"/>
                </g>
                <g id="dirArrow">
                        <path fill="none" stroke="white" stroke-width="1.5" d="M0,-3.0v7 M-2.5,-0.5L0,-3.0L2.5,-0.5"/>
                </g>
               <g id="resetDef">
                       <use xlink:href="#rim2" fill="#404040">
                               <set attributeName="fill" to="#808080" begin="reset.mouseover" end="reset.mouseout"/>
                       </use>
               </g>
        </defs>

<script type="text/javascript">
var viewWidth = 2226;
var viewHeight = 470;
var sectionId = 'dynsection-0';
</script>
<script xlink:href="../../svgpan.js"/>
<svg id="graph" class="graph">
<g id="viewport">
<title>pocketmine\event\player\PlayerEvent</title>
<polygon fill="white" stroke="white" points="-4,5 -4,-466 2223,-466 2223,5 -4,5"/>
<!-- Node1 -->
<g id="node1" class="node"><title>Node1</title>
<polygon fill="#bfbfbf" stroke="black" points="1109.5,-245 1109.5,-321 1232.5,-321 1232.5,-245 1109.5,-245"/>
<text text-anchor="start" x="1117.5" y="-308" font-family="Helvetica,sans-Serif" font-size="10.00">pocketmine\event\player</text>
<text text-anchor="middle" x="1171" y="-295" font-family="Helvetica,sans-Serif" font-size="10.00">\PlayerEvent</text>
<polyline fill="none" stroke="black" points="1109.5,-287 1232.5,-287 "/>
<text text-anchor="start" x="1117.5" y="-274" font-family="Helvetica,sans-Serif" font-size="10.00"># $player</text>
<polyline fill="none" stroke="black" points="1109.5,-266 1232.5,-266 "/>
<text text-anchor="start" x="1117.5" y="-253" font-family="Helvetica,sans-Serif" font-size="10.00">+ getPlayer()</text>
</g>
<!-- Node3 -->
<g id="node5" class="node"><title>Node3</title>
<a xlink:href="../../dc/dc4/classpocketmine_1_1event_1_1player_1_1_player_achievement_awarded_event.html" target="_top" xlink:title="{pocketmine\\event\\player\l\\PlayerAchievementAwardedEvent\n|+ $handlerList\l# $achievement\l|+ __construct()\l+ getAchievement()\l}">
<polygon fill="white" stroke="black" points="0,-53 0,-155 168,-155 168,-53 0,-53"/>
<text text-anchor="start" x="8" y="-142" font-family="Helvetica,sans-Serif" font-size="10.00">pocketmine\event\player</text>
<text text-anchor="middle" x="84" y="-129" font-family="Helvetica,sans-Serif" font-size="10.00">\PlayerAchievementAwardedEvent</text>
<polyline fill="none" stroke="black" points="0,-121 168,-121 "/>
<text text-anchor="start" x="8" y="-108" font-family="Helvetica,sans-Serif" font-size="10.00">+ $handlerList</text>
<text text-anchor="start" x="8" y="-95" font-family="Helvetica,sans-Serif" font-size="10.00"># $achievement</text>
<polyline fill="none" stroke="black" points="0,-87 168,-87 "/>
<text text-anchor="start" x="8" y="-74" font-family="Helvetica,sans-Serif" font-size="10.00">+ __construct()</text>
<text text-anchor="start" x="8" y="-61" font-family="Helvetica,sans-Serif" font-size="10.00">+ getAchievement()</text>
</a>
</g>
<!-- Node1&#45;&gt;Node3 -->
<g id="edge4" class="edge"><title>Node1&#45;&gt;Node3</title>
<path fill="none" stroke="midnightblue" d="M1099.26,-280.675C884.933,-273.302 259.126,-248.51 177,-208 152.996,-196.16 132.387,-175.164 116.715,-155.123"/>
<polygon fill="none" stroke="midnightblue" points="1099.34,-284.18 1109.45,-281.023 1099.58,-277.184 1099.34,-284.18"/>
</g>
<!-- Node4 -->
<g id="node7" class="node"><title>Node4</title>
<a xlink:href="../../d0/d3e/classpocketmine_1_1event_1_1player_1_1_player_animation_event.html" target="_top" xlink:title="{pocketmine\\event\\player\l\\PlayerAnimationEvent\n|+ ARM_SWING\l+ $handlerList\l|+ __construct()\l+ getAnimationType()\l}">
<polygon fill="white" stroke="black" points="185.5,-53 185.5,-155 308.5,-155 308.5,-53 185.5,-53"/>
<text text-anchor="start" x="193.5" y="-142" font-family="Helvetica,sans-Serif" font-size="10.00">pocketmine\event\player</text>
<text text-anchor="middle" x="247" y="-129" font-family="Helvetica,sans-Serif" font-size="10.00">\PlayerAnimationEvent</text>
<polyline fill="none" stroke="black" points="185.5,-121 308.5,-121 "/>
<text text-anchor="start" x="193.5" y="-108" font-family="Helvetica,sans-Serif" font-size="10.00">+ ARM_SWING</text>
<text text-anchor="start" x="193.5" y="-95" font-family="Helvetica,sans-Serif" font-size="10.00">+ $handlerList</text>
<polyline fill="none" stroke="black" points="185.5,-87 308.5,-87 "/>
<text text-anchor="start" x="193.5" y="-74" font-family="Helvetica,sans-Serif" font-size="10.00">+ __construct()</text>
<text text-anchor="start" x="193.5" y="-61" font-family="Helvetica,sans-Serif" font-size="10.00">+ getAnimationType()</text>
</a>
</g>
<!-- Node1&#45;&gt;Node4 -->
<g id="edge6" class="edge"><title>Node1&#45;&gt;Node4</title>
<path fill="none" stroke="midnightblue" d="M1099.3,-280.229C905.91,-272.265 383.668,-247.33 317,-208 296.38,-195.835 280.556,-174.923 269.214,-155.027"/>
<polygon fill="none" stroke="midnightblue" points="1099.22,-283.729 1109.36,-280.64 1099.51,-276.735 1099.22,-283.729"/>
</g>
<!-- Node5 -->
<g id="node9" class="node"><title>Node5</title>
<a xlink:href="../../df/d8f/classpocketmine_1_1event_1_1player_1_1_player_chat_event.html" target="_top" xlink:title="{pocketmine\\event\\player\l\\PlayerChatEvent\n|+ $handlerList\l# $message\l# $format\l# $recipients\l|+ __construct()\l+ getMessage()\l+ setMessage()\l+ setPlayer()\l+ getFormat()\l+ setFormat()\l+ getRecipients()\l+ setRecipients()\l}">
<polygon fill="white" stroke="black" points="325.5,-1 325.5,-207 448.5,-207 448.5,-1 325.5,-1"/>
<text text-anchor="start" x="333.5" y="-194" font-family="Helvetica,sans-Serif" font-size="10.00">pocketmine\event\player</text>
<text text-anchor="middle" x="387" y="-181" font-family="Helvetica,sans-Serif" font-size="10.00">\PlayerChatEvent</text>
<polyline fill="none" stroke="black" points="325.5,-173 448.5,-173 "/>
<text text-anchor="start" x="333.5" y="-160" font-family="Helvetica,sans-Serif" font-size="10.00">+ $handlerList</text>
<text text-anchor="start" x="333.5" y="-147" font-family="Helvetica,sans-Serif" font-size="10.00"># $message</text>
<text text-anchor="start" x="333.5" y="-134" font-family="Helvetica,sans-Serif" font-size="10.00"># $format</text>
<text text-anchor="start" x="333.5" y="-121" font-family="Helvetica,sans-Serif" font-size="10.00"># $recipients</text>
<polyline fill="none" stroke="black" points="325.5,-113 448.5,-113 "/>
<text text-anchor="start" x="333.5" y="-100" font-family="Helvetica,sans-Serif" font-size="10.00">+ __construct()</text>
<text text-anchor="start" x="333.5" y="-87" font-family="Helvetica,sans-Serif" font-size="10.00">+ getMessage()</text>
<text text-anchor="start" x="333.5" y="-74" font-family="Helvetica,sans-Serif" font-size="10.00">+ setMessage()</text>
<text text-anchor="start" x="333.5" y="-61" font-family="Helvetica,sans-Serif" font-size="10.00">+ setPlayer()</text>
<text text-anchor="start" x="333.5" y="-48" font-family="Helvetica,sans-Serif" font-size="10.00">+ getFormat()</text>
<text text-anchor="start" x="333.5" y="-35" font-family="Helvetica,sans-Serif" font-size="10.00">+ setFormat()</text>
<text text-anchor="start" x="333.5" y="-22" font-family="Helvetica,sans-Serif" font-size="10.00">+ getRecipients()</text>
<text text-anchor="start" x="333.5" y="-9" font-family="Helvetica,sans-Serif" font-size="10.00">+ setRecipients()</text>
</a>
</g>
<!-- Node1&#45;&gt;Node5 -->
<g id="edge8" class="edge"><title>Node1&#45;&gt;Node5</title>
<path fill="none" stroke="midnightblue" d="M1099.09,-278.895C928.822,-268.688 511.232,-240.62 457,-208 454.109,-206.261 451.312,-204.352 448.607,-202.299"/>
<polygon fill="none" stroke="midnightblue" points="1099.01,-282.397 1109.21,-279.498 1099.43,-275.409 1099.01,-282.397"/>
</g>
<!-- Node6 -->
<g id="node11" class="node"><title>Node6</title>
<a xlink:href="../../d3/dd2/classpocketmine_1_1event_1_1player_1_1_player_command_preprocess_event.html" target="_top" xlink:title="{pocketmine\\event\\player\l\\PlayerCommandPreprocessEvent\n|+ $handlerList\l# $message\l|+ __construct()\l+ getMessage()\l+ setMessage()\l+ setPlayer()\l}">
<polygon fill="white" stroke="black" points="465.5,-40 465.5,-168 632.5,-168 632.5,-40 465.5,-40"/>
<text text-anchor="start" x="473.5" y="-155" font-family="Helvetica,sans-Serif" font-size="10.00">pocketmine\event\player</text>
<text text-anchor="middle" x="549" y="-142" font-family="Helvetica,sans-Serif" font-size="10.00">\PlayerCommandPreprocessEvent</text>
<polyline fill="none" stroke="black" points="465.5,-134 632.5,-134 "/>
<text text-anchor="start" x="473.5" y="-121" font-family="Helvetica,sans-Serif" font-size="10.00">+ $handlerList</text>
<text text-anchor="start" x="473.5" y="-108" font-family="Helvetica,sans-Serif" font-size="10.00"># $message</text>
<polyline fill="none" stroke="black" points="465.5,-100 632.5,-100 "/>
<text text-anchor="start" x="473.5" y="-87" font-family="Helvetica,sans-Serif" font-size="10.00">+ __construct()</text>
<text text-anchor="start" x="473.5" y="-74" font-family="Helvetica,sans-Serif" font-size="10.00">+ getMessage()</text>
<text text-anchor="start" x="473.5" y="-61" font-family="Helvetica,sans-Serif" font-size="10.00">+ setMessage()</text>
<text text-anchor="start" x="473.5" y="-48" font-family="Helvetica,sans-Serif" font-size="10.00">+ setPlayer()</text>
</a>
</g>
<!-- Node1&#45;&gt;Node6 -->
<g id="edge10" class="edge"><title>Node1&#45;&gt;Node6</title>
<path fill="none" stroke="midnightblue" d="M1098.81,-278.944C972.797,-270.86 718.711,-249.806 641,-208 622.955,-198.292 606.751,-183.566 593.154,-168.223"/>
<polygon fill="none" stroke="midnightblue" points="1098.92,-282.458 1109.12,-279.595 1099.36,-275.472 1098.92,-282.458"/>
</g>
<!-- Node7 -->
<g id="node13" class="node"><title>Node7</title>
<a xlink:href="../../d2/d16/classpocketmine_1_1event_1_1player_1_1_player_drop_item_event.html" target="_top" xlink:title="{pocketmine\\event\\player\l\\PlayerDropItemEvent\n|+ $handlerList\l|+ __construct()\l+ getItem()\l}">
<polygon fill="white" stroke="black" points="649.5,-59.5 649.5,-148.5 772.5,-148.5 772.5,-59.5 649.5,-59.5"/>
<text text-anchor="start" x="657.5" y="-135.5" font-family="Helvetica,sans-Serif" font-size="10.00">pocketmine\event\player</text>
<text text-anchor="middle" x="711" y="-122.5" font-family="Helvetica,sans-Serif" font-size="10.00">\PlayerDropItemEvent</text>
<polyline fill="none" stroke="black" points="649.5,-114.5 772.5,-114.5 "/>
<text text-anchor="start" x="657.5" y="-101.5" font-family="Helvetica,sans-Serif" font-size="10.00">+ $handlerList</text>
<polyline fill="none" stroke="black" points="649.5,-93.5 772.5,-93.5 "/>
<text text-anchor="start" x="657.5" y="-80.5" font-family="Helvetica,sans-Serif" font-size="10.00">+ __construct()</text>
<text text-anchor="start" x="657.5" y="-67.5" font-family="Helvetica,sans-Serif" font-size="10.00">+ getItem()</text>
</a>
</g>
<!-- Node1&#45;&gt;Node7 -->
<g id="edge12" class="edge"><title>Node1&#45;&gt;Node7</title>
<path fill="none" stroke="midnightblue" d="M1099.02,-275.816C1001.11,-264.933 832.244,-241.88 781,-208 759.214,-193.596 742.471,-169.844 730.831,-148.673"/>
<polygon fill="none" stroke="midnightblue" points="1098.82,-279.315 1109.14,-276.926 1099.58,-272.357 1098.82,-279.315"/>
</g>
<!-- Node8 -->
<g id="node15" class="node"><title>Node8</title>
<a xlink:href="../../db/d3e/classpocketmine_1_1event_1_1player_1_1_player_game_mode_change_event.html" target="_top" xlink:title="{pocketmine\\event\\player\l\\PlayerGameModeChangeEvent\n|+ $handlerList\l# $gamemode\l|+ __construct()\l+ getNewGamemode()\l}">
<polygon fill="white" stroke="black" points="789.5,-53 789.5,-155 946.5,-155 946.5,-53 789.5,-53"/>
<text text-anchor="start" x="797.5" y="-142" font-family="Helvetica,sans-Serif" font-size="10.00">pocketmine\event\player</text>
<text text-anchor="middle" x="868" y="-129" font-family="Helvetica,sans-Serif" font-size="10.00">\PlayerGameModeChangeEvent</text>
<polyline fill="none" stroke="black" points="789.5,-121 946.5,-121 "/>
<text text-anchor="start" x="797.5" y="-108" font-family="Helvetica,sans-Serif" font-size="10.00">+ $handlerList</text>
<text text-anchor="start" x="797.5" y="-95" font-family="Helvetica,sans-Serif" font-size="10.00"># $gamemode</text>
<polyline fill="none" stroke="black" points="789.5,-87 946.5,-87 "/>
<text text-anchor="start" x="797.5" y="-74" font-family="Helvetica,sans-Serif" font-size="10.00">+ __construct()</text>
<text text-anchor="start" x="797.5" y="-61" font-family="Helvetica,sans-Serif" font-size="10.00">+ getNewGamemode()</text>
</a>
</g>
<!-- Node1&#45;&gt;Node8 -->
<g id="edge14" class="edge"><title>Node1&#45;&gt;Node8</title>
<path fill="none" stroke="midnightblue" d="M1099.36,-268.454C1055.01,-257.049 998.431,-237.981 955,-208 934.659,-193.958 916.368,-173.94 901.867,-155.209"/>
<polygon fill="none" stroke="midnightblue" points="1098.65,-271.885 1109.2,-270.911 1100.35,-265.093 1098.65,-271.885"/>
</g>
<!-- Node9 -->
<g id="node17" class="node"><title>Node9</title>
<a xlink:href="../../d8/d28/classpocketmine_1_1event_1_1player_1_1_player_interact_event.html" target="_top" xlink:title="{pocketmine\\event\\player\l\\PlayerInteractEvent\n|+ $handlerList\l# $blockTouched\l# $blockFace\l# $item\l|+ __construct()\l+ getItem()\l+ getBlock()\l+ getFace()\l}">
<polygon fill="white" stroke="black" points="963.5,-27 963.5,-181 1086.5,-181 1086.5,-27 963.5,-27"/>
<text text-anchor="start" x="971.5" y="-168" font-family="Helvetica,sans-Serif" font-size="10.00">pocketmine\event\player</text>
<text text-anchor="middle" x="1025" y="-155" font-family="Helvetica,sans-Serif" font-size="10.00">\PlayerInteractEvent</text>
<polyline fill="none" stroke="black" points="963.5,-147 1086.5,-147 "/>
<text text-anchor="start" x="971.5" y="-134" font-family="Helvetica,sans-Serif" font-size="10.00">+ $handlerList</text>
<text text-anchor="start" x="971.5" y="-121" font-family="Helvetica,sans-Serif" font-size="10.00"># $blockTouched</text>
<text text-anchor="start" x="971.5" y="-108" font-family="Helvetica,sans-Serif" font-size="10.00"># $blockFace</text>
<text text-anchor="start" x="971.5" y="-95" font-family="Helvetica,sans-Serif" font-size="10.00"># $item</text>
<polyline fill="none" stroke="black" points="963.5,-87 1086.5,-87 "/>
<text text-anchor="start" x="971.5" y="-74" font-family="Helvetica,sans-Serif" font-size="10.00">+ __construct()</text>
<text text-anchor="start" x="971.5" y="-61" font-family="Helvetica,sans-Serif" font-size="10.00">+ getItem()</text>
<text text-anchor="start" x="971.5" y="-48" font-family="Helvetica,sans-Serif" font-size="10.00">+ getBlock()</text>
<text text-anchor="start" x="971.5" y="-35" font-family="Helvetica,sans-Serif" font-size="10.00">+ getFace()</text>
</a>
</g>
<!-- Node1&#45;&gt;Node9 -->
<g id="edge16" class="edge"><title>Node1&#45;&gt;Node9</title>
<path fill="none" stroke="midnightblue" d="M1122.11,-237.627C1112.75,-228.16 1103.3,-218.007 1095,-208 1087.98,-199.539 1081.01,-190.369 1074.34,-181.099"/>
<polygon fill="none" stroke="midnightblue" points="1119.67,-240.137 1129.22,-244.719 1124.61,-235.18 1119.67,-240.137"/>
</g>
<!-- Node10 -->
<g id="node19" class="node"><title>Node10</title>
<a xlink:href="../../da/d8e/classpocketmine_1_1event_1_1player_1_1_player_item_consume_event.html" target="_top" xlink:title="{pocketmine\\event\\player\l\\PlayerItemConsumeEvent\n|+ $handlerList\l|+ __construct()\l+ getItem()\l}">
<polygon fill="white" stroke="black" points="1104,-59.5 1104,-148.5 1238,-148.5 1238,-59.5 1104,-59.5"/>
<text text-anchor="start" x="1112" y="-135.5" font-family="Helvetica,sans-Serif" font-size="10.00">pocketmine\event\player</text>
<text text-anchor="middle" x="1171" y="-122.5" font-family="Helvetica,sans-Serif" font-size="10.00">\PlayerItemConsumeEvent</text>
<polyline fill="none" stroke="black" points="1104,-114.5 1238,-114.5 "/>
<text text-anchor="start" x="1112" y="-101.5" font-family="Helvetica,sans-Serif" font-size="10.00">+ $handlerList</text>
<polyline fill="none" stroke="black" points="1104,-93.5 1238,-93.5 "/>
<text text-anchor="start" x="1112" y="-80.5" font-family="Helvetica,sans-Serif" font-size="10.00">+ __construct()</text>
<text text-anchor="start" x="1112" y="-67.5" font-family="Helvetica,sans-Serif" font-size="10.00">+ getItem()</text>
</a>
</g>
<!-- Node1&#45;&gt;Node10 -->
<g id="edge18" class="edge"><title>Node1&#45;&gt;Node10</title>
<path fill="none" stroke="midnightblue" d="M1171,-234.317C1171,-207.6 1171,-174.707 1171,-148.652"/>
<polygon fill="none" stroke="midnightblue" points="1167.5,-234.6 1171,-244.6 1174.5,-234.6 1167.5,-234.6"/>
</g>
<!-- Node11 -->
<g id="node21" class="node"><title>Node11</title>
<a xlink:href="../../dd/de9/classpocketmine_1_1event_1_1player_1_1_player_item_held_event.html" target="_top" xlink:title="{pocketmine\\event\\player\l\\PlayerItemHeldEvent\n|+ $handlerList\l|+ __construct()\l+ getSlot()\l+ getInventorySlot()\l+ getItem()\l}">
<polygon fill="white" stroke="black" points="1255.5,-46.5 1255.5,-161.5 1378.5,-161.5 1378.5,-46.5 1255.5,-46.5"/>
<text text-anchor="start" x="1263.5" y="-148.5" font-family="Helvetica,sans-Serif" font-size="10.00">pocketmine\event\player</text>
<text text-anchor="middle" x="1317" y="-135.5" font-family="Helvetica,sans-Serif" font-size="10.00">\PlayerItemHeldEvent</text>
<polyline fill="none" stroke="black" points="1255.5,-127.5 1378.5,-127.5 "/>
<text text-anchor="start" x="1263.5" y="-114.5" font-family="Helvetica,sans-Serif" font-size="10.00">+ $handlerList</text>
<polyline fill="none" stroke="black" points="1255.5,-106.5 1378.5,-106.5 "/>
<text text-anchor="start" x="1263.5" y="-93.5" font-family="Helvetica,sans-Serif" font-size="10.00">+ __construct()</text>
<text text-anchor="start" x="1263.5" y="-80.5" font-family="Helvetica,sans-Serif" font-size="10.00">+ getSlot()</text>
<text text-anchor="start" x="1263.5" y="-67.5" font-family="Helvetica,sans-Serif" font-size="10.00">+ getInventorySlot()</text>
<text text-anchor="start" x="1263.5" y="-54.5" font-family="Helvetica,sans-Serif" font-size="10.00">+ getItem()</text>
</a>
</g>
<!-- Node1&#45;&gt;Node11 -->
<g id="edge20" class="edge"><title>Node1&#45;&gt;Node11</title>
<path fill="none" stroke="midnightblue" d="M1219.89,-237.627C1229.25,-228.16 1238.7,-218.007 1247,-208 1258.95,-193.591 1270.77,-177.126 1281.2,-161.613"/>
<polygon fill="none" stroke="midnightblue" points="1217.39,-235.18 1212.78,-244.719 1222.33,-240.137 1217.39,-235.18"/>
</g>
<!-- Node12 -->
<g id="node23" class="node"><title>Node12</title>
<a xlink:href="../../d7/dcc/classpocketmine_1_1event_1_1player_1_1_player_join_event.html" target="_top" xlink:title="{pocketmine\\event\\player\l\\PlayerJoinEvent\n|+ $handlerList\l# $joinMessage\l|+ __construct()\l+ setJoinMessage()\l+ getJoinMessage()\l}">
<polygon fill="white" stroke="black" points="1395.5,-46.5 1395.5,-161.5 1518.5,-161.5 1518.5,-46.5 1395.5,-46.5"/>
<text text-anchor="start" x="1403.5" y="-148.5" font-family="Helvetica,sans-Serif" font-size="10.00">pocketmine\event\player</text>
<text text-anchor="middle" x="1457" y="-135.5" font-family="Helvetica,sans-Serif" font-size="10.00">\PlayerJoinEvent</text>
<polyline fill="none" stroke="black" points="1395.5,-127.5 1518.5,-127.5 "/>
<text text-anchor="start" x="1403.5" y="-114.5" font-family="Helvetica,sans-Serif" font-size="10.00">+ $handlerList</text>
<text text-anchor="start" x="1403.5" y="-101.5" font-family="Helvetica,sans-Serif" font-size="10.00"># $joinMessage</text>
<polyline fill="none" stroke="black" points="1395.5,-93.5 1518.5,-93.5 "/>
<text text-anchor="start" x="1403.5" y="-80.5" font-family="Helvetica,sans-Serif" font-size="10.00">+ __construct()</text>
<text text-anchor="start" x="1403.5" y="-67.5" font-family="Helvetica,sans-Serif" font-size="10.00">+ setJoinMessage()</text>
<text text-anchor="start" x="1403.5" y="-54.5" font-family="Helvetica,sans-Serif" font-size="10.00">+ getJoinMessage()</text>
</a>
</g>
<!-- Node1&#45;&gt;Node12 -->
<g id="edge22" class="edge"><title>Node1&#45;&gt;Node12</title>
<path fill="none" stroke="midnightblue" d="M1242.82,-270.219C1287.76,-259.449 1344.9,-240.427 1387,-208 1403.12,-195.583 1416.81,-178.363 1427.68,-161.505"/>
<polygon fill="none" stroke="midnightblue" points="1241.81,-266.862 1232.85,-272.523 1243.38,-273.682 1241.81,-266.862"/>
</g>
<!-- Node13 -->
<g id="node25" class="node"><title>Node13</title>
<a xlink:href="../../d9/dd8/classpocketmine_1_1event_1_1player_1_1_player_kick_event.html" target="_top" xlink:title="{pocketmine\\event\\player\l\\PlayerKickEvent\n|+ $handlerList\l# $quitMessage\l# $reason\l|+ __construct()\l+ getReason()\l+ setQuitMessage()\l+ getQuitMessage()\l}">
<polygon fill="white" stroke="black" points="1535.5,-33.5 1535.5,-174.5 1658.5,-174.5 1658.5,-33.5 1535.5,-33.5"/>
<text text-anchor="start" x="1543.5" y="-161.5" font-family="Helvetica,sans-Serif" font-size="10.00">pocketmine\event\player</text>
<text text-anchor="middle" x="1597" y="-148.5" font-family="Helvetica,sans-Serif" font-size="10.00">\PlayerKickEvent</text>
<polyline fill="none" stroke="black" points="1535.5,-140.5 1658.5,-140.5 "/>
<text text-anchor="start" x="1543.5" y="-127.5" font-family="Helvetica,sans-Serif" font-size="10.00">+ $handlerList</text>
<text text-anchor="start" x="1543.5" y="-114.5" font-family="Helvetica,sans-Serif" font-size="10.00"># $quitMessage</text>
<text text-anchor="start" x="1543.5" y="-101.5" font-family="Helvetica,sans-Serif" font-size="10.00"># $reason</text>
<polyline fill="none" stroke="black" points="1535.5,-93.5 1658.5,-93.5 "/>
<text text-anchor="start" x="1543.5" y="-80.5" font-family="Helvetica,sans-Serif" font-size="10.00">+ __construct()</text>
<text text-anchor="start" x="1543.5" y="-67.5" font-family="Helvetica,sans-Serif" font-size="10.00">+ getReason()</text>
<text text-anchor="start" x="1543.5" y="-54.5" font-family="Helvetica,sans-Serif" font-size="10.00">+ setQuitMessage()</text>
<text text-anchor="start" x="1543.5" y="-41.5" font-family="Helvetica,sans-Serif" font-size="10.00">+ getQuitMessage()</text>
</a>
</g>
<!-- Node1&#45;&gt;Node13 -->
<g id="edge24" class="edge"><title>Node1&#45;&gt;Node13</title>
<path fill="none" stroke="midnightblue" d="M1242.71,-274.355C1332.86,-262.398 1481.36,-238.76 1527,-208 1539.9,-199.303 1551.06,-187.352 1560.44,-174.642"/>
<polygon fill="none" stroke="midnightblue" points="1242.02,-270.916 1232.56,-275.686 1242.93,-277.857 1242.02,-270.916"/>
</g>
<!-- Node14 -->
<g id="node27" class="node"><title>Node14</title>
<a xlink:href="../../d6/d15/classpocketmine_1_1event_1_1player_1_1_player_login_event.html" target="_top" xlink:title="{pocketmine\\event\\player\l\\PlayerLoginEvent\n|+ $handlerList\l# $kickMessage\l|+ __construct()\l+ setKickMessage()\l+ getKickMessage()\l}">
<polygon fill="white" stroke="black" points="1675.5,-46.5 1675.5,-161.5 1798.5,-161.5 1798.5,-46.5 1675.5,-46.5"/>
<text text-anchor="start" x="1683.5" y="-148.5" font-family="Helvetica,sans-Serif" font-size="10.00">pocketmine\event\player</text>
<text text-anchor="middle" x="1737" y="-135.5" font-family="Helvetica,sans-Serif" font-size="10.00">\PlayerLoginEvent</text>
<polyline fill="none" stroke="black" points="1675.5,-127.5 1798.5,-127.5 "/>
<text text-anchor="start" x="1683.5" y="-114.5" font-family="Helvetica,sans-Serif" font-size="10.00">+ $handlerList</text>
<text text-anchor="start" x="1683.5" y="-101.5" font-family="Helvetica,sans-Serif" font-size="10.00"># $kickMessage</text>
<polyline fill="none" stroke="black" points="1675.5,-93.5 1798.5,-93.5 "/>
<text text-anchor="start" x="1683.5" y="-80.5" font-family="Helvetica,sans-Serif" font-size="10.00">+ __construct()</text>
<text text-anchor="start" x="1683.5" y="-67.5" font-family="Helvetica,sans-Serif" font-size="10.00">+ setKickMessage()</text>
<text text-anchor="start" x="1683.5" y="-54.5" font-family="Helvetica,sans-Serif" font-size="10.00">+ getKickMessage()</text>
</a>
</g>
<!-- Node1&#45;&gt;Node14 -->
<g id="edge26" class="edge"><title>Node1&#45;&gt;Node14</title>
<path fill="none" stroke="midnightblue" d="M1242.72,-279.205C1362.7,-271.709 1597.82,-251.782 1667,-208 1684.75,-196.769 1699.06,-179.227 1710.01,-161.728"/>
<polygon fill="none" stroke="midnightblue" points="1242.29,-275.724 1232.52,-279.829 1242.72,-282.711 1242.29,-275.724"/>
</g>
<!-- Node15 -->
<g id="node29" class="node"><title>Node15</title>
<a xlink:href="../../d2/d1e/classpocketmine_1_1event_1_1player_1_1_player_pre_login_event.html" target="_top" xlink:title="{pocketmine\\event\\player\l\\PlayerPreLoginEvent\n|+ $handlerList\l# $kickMessage\l|+ __construct()\l+ setKickMessage()\l+ getKickMessage()\l}">
<polygon fill="white" stroke="black" points="1815.5,-46.5 1815.5,-161.5 1938.5,-161.5 1938.5,-46.5 1815.5,-46.5"/>
<text text-anchor="start" x="1823.5" y="-148.5" font-family="Helvetica,sans-Serif" font-size="10.00">pocketmine\event\player</text>
<text text-anchor="middle" x="1877" y="-135.5" font-family="Helvetica,sans-Serif" font-size="10.00">\PlayerPreLoginEvent</text>
<polyline fill="none" stroke="black" points="1815.5,-127.5 1938.5,-127.5 "/>
<text text-anchor="start" x="1823.5" y="-114.5" font-family="Helvetica,sans-Serif" font-size="10.00">+ $handlerList</text>
<text text-anchor="start" x="1823.5" y="-101.5" font-family="Helvetica,sans-Serif" font-size="10.00"># $kickMessage</text>
<polyline fill="none" stroke="black" points="1815.5,-93.5 1938.5,-93.5 "/>
<text text-anchor="start" x="1823.5" y="-80.5" font-family="Helvetica,sans-Serif" font-size="10.00">+ __construct()</text>
<text text-anchor="start" x="1823.5" y="-67.5" font-family="Helvetica,sans-Serif" font-size="10.00">+ setKickMessage()</text>
<text text-anchor="start" x="1823.5" y="-54.5" font-family="Helvetica,sans-Serif" font-size="10.00">+ getKickMessage()</text>
</a>
</g>
<!-- Node1&#45;&gt;Node15 -->
<g id="edge28" class="edge"><title>Node1&#45;&gt;Node15</title>
<path fill="none" stroke="midnightblue" d="M1242.91,-281.951C1388.83,-278.642 1713.74,-264.908 1807,-208 1825.11,-196.947 1839.58,-179.227 1850.56,-161.523"/>
<polygon fill="none" stroke="midnightblue" points="1242.64,-278.456 1232.72,-282.172 1242.8,-285.455 1242.64,-278.456"/>
</g>
<!-- Node16 -->
<g id="node31" class="node"><title>Node16</title>
<a xlink:href="../../df/d81/classpocketmine_1_1event_1_1player_1_1_player_quit_event.html" target="_top" xlink:title="{pocketmine\\event\\player\l\\PlayerQuitEvent\n|+ $handlerList\l# $quitMessage\l|+ __construct()\l+ setQuitMessage()\l+ getQuitMessage()\l}">
<polygon fill="white" stroke="black" points="1955.5,-46.5 1955.5,-161.5 2078.5,-161.5 2078.5,-46.5 1955.5,-46.5"/>
<text text-anchor="start" x="1963.5" y="-148.5" font-family="Helvetica,sans-Serif" font-size="10.00">pocketmine\event\player</text>
<text text-anchor="middle" x="2017" y="-135.5" font-family="Helvetica,sans-Serif" font-size="10.00">\PlayerQuitEvent</text>
<polyline fill="none" stroke="black" points="1955.5,-127.5 2078.5,-127.5 "/>
<text text-anchor="start" x="1963.5" y="-114.5" font-family="Helvetica,sans-Serif" font-size="10.00">+ $handlerList</text>
<text text-anchor="start" x="1963.5" y="-101.5" font-family="Helvetica,sans-Serif" font-size="10.00"># $quitMessage</text>
<polyline fill="none" stroke="black" points="1955.5,-93.5 2078.5,-93.5 "/>
<text text-anchor="start" x="1963.5" y="-80.5" font-family="Helvetica,sans-Serif" font-size="10.00">+ __construct()</text>
<text text-anchor="start" x="1963.5" y="-67.5" font-family="Helvetica,sans-Serif" font-size="10.00">+ setQuitMessage()</text>
<text text-anchor="start" x="1963.5" y="-54.5" font-family="Helvetica,sans-Serif" font-size="10.00">+ getQuitMessage()</text>
</a>
</g>
<!-- Node1&#45;&gt;Node16 -->
<g id="edge30" class="edge"><title>Node1&#45;&gt;Node16</title>
<path fill="none" stroke="midnightblue" d="M1243,-279.536C1423.9,-270.342 1887.3,-243.574 1947,-208 1965.23,-197.138 1979.73,-179.464 1990.69,-161.743"/>
<polygon fill="none" stroke="midnightblue" points="1242.6,-276.052 1232.79,-280.052 1242.95,-283.043 1242.6,-276.052"/>
</g>
<!-- Node17 -->
<g id="node33" class="node"><title>Node17</title>
<a xlink:href="../../de/d1c/classpocketmine_1_1event_1_1player_1_1_player_respawn_event.html" target="_top" xlink:title="{pocketmine\\event\\player\l\\PlayerRespawnEvent\n|+ $handlerList\l# $position\l|+ __construct()\l+ getRespawnPosition()\l+ setRespawnPosition()\l}">
<polygon fill="white" stroke="black" points="2095.5,-46.5 2095.5,-161.5 2218.5,-161.5 2218.5,-46.5 2095.5,-46.5"/>
<text text-anchor="start" x="2103.5" y="-148.5" font-family="Helvetica,sans-Serif" font-size="10.00">pocketmine\event\player</text>
<text text-anchor="middle" x="2157" y="-135.5" font-family="Helvetica,sans-Serif" font-size="10.00">\PlayerRespawnEvent</text>
<polyline fill="none" stroke="black" points="2095.5,-127.5 2218.5,-127.5 "/>
<text text-anchor="start" x="2103.5" y="-114.5" font-family="Helvetica,sans-Serif" font-size="10.00">+ $handlerList</text>
<text text-anchor="start" x="2103.5" y="-101.5" font-family="Helvetica,sans-Serif" font-size="10.00"># $position</text>
<polyline fill="none" stroke="black" points="2095.5,-93.5 2218.5,-93.5 "/>
<text text-anchor="start" x="2103.5" y="-80.5" font-family="Helvetica,sans-Serif" font-size="10.00">+ __construct()</text>
<text text-anchor="start" x="2103.5" y="-67.5" font-family="Helvetica,sans-Serif" font-size="10.00">+ getRespawnPosition()</text>
<text text-anchor="start" x="2103.5" y="-54.5" font-family="Helvetica,sans-Serif" font-size="10.00">+ setRespawnPosition()</text>
</a>
</g>
<!-- Node1&#45;&gt;Node17 -->
<g id="edge32" class="edge"><title>Node1&#45;&gt;Node17</title>
<path fill="none" stroke="midnightblue" d="M1242.88,-280.68C1446.11,-273.628 2014.82,-250.296 2087,-208 2105.4,-197.217 2119.97,-179.449 2130.95,-161.624"/>
<polygon fill="none" stroke="midnightblue" points="1242.49,-277.192 1232.62,-281.034 1242.73,-284.188 1242.49,-277.192"/>
</g>
<!-- Node2 -->
<g id="node2" class="node"><title>Node2</title>
<a xlink:href="../../d1/d2f/classpocketmine_1_1event_1_1_event.html" target="_top" xlink:title="{pocketmine\\event\\Event\n|# $eventName\l|+ getEventName()\l+ isCancelled()\l+ setCancelled()\l+ getHandlers()\l}">
<polygon fill="white" stroke="black" points="1110,-359 1110,-461 1232,-461 1232,-359 1110,-359"/>
<text text-anchor="middle" x="1171" y="-448" font-family="Helvetica,sans-Serif" font-size="10.00">pocketmine\event\Event</text>
<polyline fill="none" stroke="black" points="1110,-440 1232,-440 "/>
<text text-anchor="start" x="1118" y="-427" font-family="Helvetica,sans-Serif" font-size="10.00"># $eventName</text>
<polyline fill="none" stroke="black" points="1110,-419 1232,-419 "/>
<text text-anchor="start" x="1118" y="-406" font-family="Helvetica,sans-Serif" font-size="10.00">+ getEventName()</text>
<text text-anchor="start" x="1118" y="-393" font-family="Helvetica,sans-Serif" font-size="10.00">+ isCancelled()</text>
<text text-anchor="start" x="1118" y="-380" font-family="Helvetica,sans-Serif" font-size="10.00">+ setCancelled()</text>
<text text-anchor="start" x="1118" y="-367" font-family="Helvetica,sans-Serif" font-size="10.00">+ getHandlers()</text>
</a>
</g>
<!-- Node2&#45;&gt;Node1 -->
<g id="edge2" class="edge"><title>Node2&#45;&gt;Node1</title>
<path fill="none" stroke="midnightblue" d="M1171,-348.625C1171,-339.273 1171,-329.859 1171,-321.197"/>
<polygon fill="none" stroke="midnightblue" points="1167.5,-348.71 1171,-358.71 1174.5,-348.71 1167.5,-348.71"/>
</g>
</g>
</svg>
        <g id="navigator" transform="translate(0 0)" fill="#404254">
                <rect fill="#f2f5e9" fill-opacity="0.5" stroke="#606060" stroke-width=".5" x="0" y="0" width="60" height="60"/>
                <use id="zoomplus" xlink:href="#zoomPlus" x="17" y="9" onmousedown="handleZoom(evt,'in')"/>
                <use id="zoomminus" xlink:href="#zoomMin" x="42" y="9" onmousedown="handleZoom(evt,'out')"/>
                <use id="reset" xlink:href="#resetDef" x="30" y="36" onmousedown="handleReset()"/>
                <g id="arrowUp" xlink:href="#dirArrow" transform="translate(30 24)" onmousedown="handlePan(0,-1)">
                  <use xlink:href="#rim" fill="#404040">
                        <set attributeName="fill" to="#808080" begin="arrowUp.mouseover" end="arrowUp.mouseout"/>
                  </use>
                  <path fill="none" stroke="white" stroke-width="1.5" d="M0,-3.0v7 M-2.5,-0.5L0,-3.0L2.5,-0.5"/>
                </g>
                <g id="arrowRight" xlink:href="#dirArrow" transform="rotate(90) translate(36 -43)" onmousedown="handlePan(1,0)">
                  <use xlink:href="#rim" fill="#404040">
                        <set attributeName="fill" to="#808080" begin="arrowRight.mouseover" end="arrowRight.mouseout"/>
                  </use>
                  <path fill="none" stroke="white" stroke-width="1.5" d="M0,-3.0v7 M-2.5,-0.5L0,-3.0L2.5,-0.5"/>
                </g>
                <g id="arrowDown" xlink:href="#dirArrow" transform="rotate(180) translate(-30 -48)" onmousedown="handlePan(0,1)">
                  <use xlink:href="#rim" fill="#404040">
                        <set attributeName="fill" to="#808080" begin="arrowDown.mouseover" end="arrowDown.mouseout"/>
                  </use>
                  <path fill="none" stroke="white" stroke-width="1.5" d="M0,-3.0v7 M-2.5,-0.5L0,-3.0L2.5,-0.5"/>
                </g>
                <g id="arrowLeft" xlink:href="#dirArrow" transform="rotate(270) translate(-36 17)" onmousedown="handlePan(-1,0)">
                  <use xlink:href="#rim" fill="#404040">
                        <set attributeName="fill" to="#808080" begin="arrowLeft.mouseover" end="arrowLeft.mouseout"/>
                  </use>
                  <path fill="none" stroke="white" stroke-width="1.5" d="M0,-3.0v7 M-2.5,-0.5L0,-3.0L2.5,-0.5"/>
                </g>
        </g>
        <svg viewBox="0 0 15 15" width="100%" height="30px" preserveAspectRatio="xMaxYMin meet">
         <g id="arrow_out" transform="scale(0.3 0.3)">
          <a xlink:href="classpocketmine_1_1event_1_1player_1_1_player_event__inherit__graph_org.svg" target="_base">
           <rect id="button" ry="5" rx="5" y="6" x="6" height="38" width="38"
                fill="#f2f5e9" fill-opacity="0.5" stroke="#606060" stroke-width="1.0"/>
           <path id="arrow"
             d="M 11.500037,31.436501 C 11.940474,20.09759 22.043105,11.32322 32.158766,21.979434 L 37.068811,17.246167 C 37.068811,17.246167 37.088388,32 37.088388,32 L 22.160133,31.978069 C 22.160133,31.978069 26.997745,27.140456 26.997745,27.140456 C 18.528582,18.264221 13.291696,25.230495 11.500037,31.436501 z"
             style="fill:#404040;"/>
          </a>
         </g>
        </svg>
</svg>
