<?xml version="1.0" encoding="UTF-8" standalone="no"?>
<!DOCTYPE svg PUBLIC "-//W3C//DTD SVG 1.1//EN"
 "http://www.w3.org/Graphics/SVG/1.1/DTD/svg11.dtd">
<!-- Generated by graphviz version 2.36.0 (20140111.2315)
 -->
<!-- Title: pocketmine\level\generator\populator\Populator Pages: 1 -->
<svg width="820pt" height="216pt"
 viewBox="0.00 0.00 820.00 216.00" xmlns="http://www.w3.org/2000/svg" xmlns:xlink="http://www.w3.org/1999/xlink">
<g id="graph0" class="graph" transform="scale(1 1) rotate(0) translate(4 212)">
<title>pocketmine\level\generator\populator\Populator</title>
<polygon fill="white" stroke="none" points="-4,4 -4,-212 816,-212 816,4 -4,4"/>
<!-- Node1 -->
<g id="node1" class="node"><title>Node1</title>
<polygon fill="#bfbfbf" stroke="black" points="332,-139 332,-207 480,-207 480,-139 332,-139"/>
<text text-anchor="start" x="340" y="-195" font-family="Helvetica,sans-Serif" font-size="10.00">pocketmine\level\generator</text>
<text text-anchor="middle" x="406" y="-184" font-family="Helvetica,sans-Serif" font-size="10.00">\populator\Populator</text>
<polyline fill="none" stroke="black" points="332,-177 480,-177 "/>
<text text-anchor="middle" x="406" y="-165" font-family="Helvetica,sans-Serif" font-size="10.00"> </text>
<polyline fill="none" stroke="black" points="332,-158 480,-158 "/>
<text text-anchor="start" x="340" y="-146" font-family="Helvetica,sans-Serif" font-size="10.00">+ populate()</text>
</g>
<!-- Node2 -->
<g id="node2" class="node"><title>Node2</title>
<g id="a_node2"><a xlink:href="../../dc/d88/classpocketmine_1_1level_1_1generator_1_1populator_1_1_mineshaft.html" target="_top" xlink:title="{pocketmine\\level\\generator\l\\populator\\Mineshaft\n||+ populate()\l}">
<polygon fill="white" stroke="black" points="0,-17 0,-85 148,-85 148,-17 0,-17"/>
<text text-anchor="start" x="8" y="-73" font-family="Helvetica,sans-Serif" font-size="10.00">pocketmine\level\generator</text>
<text text-anchor="middle" x="74" y="-62" font-family="Helvetica,sans-Serif" font-size="10.00">\populator\Mineshaft</text>
<polyline fill="none" stroke="black" points="0,-55 148,-55 "/>
<text text-anchor="middle" x="74" y="-43" font-family="Helvetica,sans-Serif" font-size="10.00"> </text>
<polyline fill="none" stroke="black" points="0,-36 148,-36 "/>
<text text-anchor="start" x="8" y="-24" font-family="Helvetica,sans-Serif" font-size="10.00">+ populate()</text>
</a>
</g>
</g>
<!-- Node1&#45;&gt;Node2 -->
<g id="edge1" class="edge"><title>Node1&#45;&gt;Node2</title>
<path fill="none" stroke="midnightblue" d="M321.8,-154.285C272.628,-142.486 210.02,-124.926 157,-102 146.037,-97.2597 134.771,-91.3027 124.213,-85.1687"/>
<polygon fill="none" stroke="midnightblue" points="321.227,-157.746 331.765,-156.641 322.838,-150.934 321.227,-157.746"/>
</g>
<!-- Node3 -->
<g id="node3" class="node"><title>Node3</title>
<g id="a_node3"><a xlink:href="../../d4/d19/classpocketmine_1_1level_1_1generator_1_1populator_1_1_ore.html" target="_top" xlink:title="{pocketmine\\level\\generator\l\\populator\\Ore\n||+ populate()\l+ setOreTypes()\l}">
<polygon fill="white" stroke="black" points="166,-11.5 166,-90.5 314,-90.5 314,-11.5 166,-11.5"/>
<text text-anchor="start" x="174" y="-78.5" font-family="Helvetica,sans-Serif" font-size="10.00">pocketmine\level\generator</text>
<text text-anchor="middle" x="240" y="-67.5" font-family="Helvetica,sans-Serif" font-size="10.00">\populator\Ore</text>
<polyline fill="none" stroke="black" points="166,-60.5 314,-60.5 "/>
<text text-anchor="middle" x="240" y="-48.5" font-family="Helvetica,sans-Serif" font-size="10.00"> </text>
<polyline fill="none" stroke="black" points="166,-41.5 314,-41.5 "/>
<text text-anchor="start" x="174" y="-29.5" font-family="Helvetica,sans-Serif" font-size="10.00">+ populate()</text>
<text text-anchor="start" x="174" y="-18.5" font-family="Helvetica,sans-Serif" font-size="10.00">+ setOreTypes()</text>
</a>
</g>
</g>
<!-- Node1&#45;&gt;Node3 -->
<g id="edge2" class="edge"><title>Node1&#45;&gt;Node3</title>
<path fill="none" stroke="midnightblue" d="M352.004,-132.967C333.172,-119.353 312.061,-104.093 293.287,-90.5207"/>
<polygon fill="none" stroke="midnightblue" points="350.046,-135.87 360.2,-138.892 354.147,-130.197 350.046,-135.87"/>
</g>
<!-- Node4 -->
<g id="node4" class="node"><title>Node4</title>
<g id="a_node4"><a xlink:href="../../df/dd0/classpocketmine_1_1level_1_1generator_1_1populator_1_1_pond.html" target="_top" xlink:title="{pocketmine\\level\\generator\l\\populator\\Pond\n||+ populate()\l+ setWaterOdd()\l+ setLavaOdd()\l+ setLavaSurfaceOdd()\l}">
<polygon fill="white" stroke="black" points="332,-0.5 332,-101.5 480,-101.5 480,-0.5 332,-0.5"/>
<text text-anchor="start" x="340" y="-89.5" font-family="Helvetica,sans-Serif" font-size="10.00">pocketmine\level\generator</text>
<text text-anchor="middle" x="406" y="-78.5" font-family="Helvetica,sans-Serif" font-size="10.00">\populator\Pond</text>
<polyline fill="none" stroke="black" points="332,-71.5 480,-71.5 "/>
<text text-anchor="middle" x="406" y="-59.5" font-family="Helvetica,sans-Serif" font-size="10.00"> </text>
<polyline fill="none" stroke="black" points="332,-52.5 480,-52.5 "/>
<text text-anchor="start" x="340" y="-40.5" font-family="Helvetica,sans-Serif" font-size="10.00">+ populate()</text>
<text text-anchor="start" x="340" y="-29.5" font-family="Helvetica,sans-Serif" font-size="10.00">+ setWaterOdd()</text>
<text text-anchor="start" x="340" y="-18.5" font-family="Helvetica,sans-Serif" font-size="10.00">+ setLavaOdd()</text>
<text text-anchor="start" x="340" y="-7.5" font-family="Helvetica,sans-Serif" font-size="10.00">+ setLavaSurfaceOdd()</text>
</a>
</g>
</g>
<!-- Node1&#45;&gt;Node4 -->
<g id="edge3" class="edge"><title>Node1&#45;&gt;Node4</title>
<path fill="none" stroke="midnightblue" d="M406,-128.831C406,-120.01 406,-110.661 406,-101.636"/>
<polygon fill="none" stroke="midnightblue" points="402.5,-128.892 406,-138.892 409.5,-128.892 402.5,-128.892"/>
</g>
<!-- Node5 -->
<g id="node5" class="node"><title>Node5</title>
<g id="a_node5"><a xlink:href="../../d5/d9e/classpocketmine_1_1level_1_1generator_1_1populator_1_1_tall_grass.html" target="_top" xlink:title="{pocketmine\\level\\generator\l\\populator\\TallGrass\n||+ setRandomAmount()\l+ setBaseAmount()\l+ populate()\l}">
<polygon fill="white" stroke="black" points="498,-6 498,-96 646,-96 646,-6 498,-6"/>
<text text-anchor="start" x="506" y="-84" font-family="Helvetica,sans-Serif" font-size="10.00">pocketmine\level\generator</text>
<text text-anchor="middle" x="572" y="-73" font-family="Helvetica,sans-Serif" font-size="10.00">\populator\TallGrass</text>
<polyline fill="none" stroke="black" points="498,-66 646,-66 "/>
<text text-anchor="middle" x="572" y="-54" font-family="Helvetica,sans-Serif" font-size="10.00"> </text>
<polyline fill="none" stroke="black" points="498,-47 646,-47 "/>
<text text-anchor="start" x="506" y="-35" font-family="Helvetica,sans-Serif" font-size="10.00">+ setRandomAmount()</text>
<text text-anchor="start" x="506" y="-24" font-family="Helvetica,sans-Serif" font-size="10.00">+ setBaseAmount()</text>
<text text-anchor="start" x="506" y="-13" font-family="Helvetica,sans-Serif" font-size="10.00">+ populate()</text>
</a>
</g>
</g>
<!-- Node1&#45;&gt;Node5 -->
<g id="edge4" class="edge"><title>Node1&#45;&gt;Node5</title>
<path fill="none" stroke="midnightblue" d="M460.148,-132.857C476.438,-121.081 494.421,-108.081 511.117,-96.0121"/>
<polygon fill="none" stroke="midnightblue" points="457.853,-130.197 451.8,-138.892 461.954,-135.87 457.853,-130.197"/>
</g>
<!-- Node6 -->
<g id="node6" class="node"><title>Node6</title>
<g id="a_node6"><a xlink:href="../../d5/d35/classpocketmine_1_1level_1_1generator_1_1populator_1_1_tree.html" target="_top" xlink:title="{pocketmine\\level\\generator\l\\populator\\Tree\n||+ setRandomAmount()\l+ setBaseAmount()\l+ populate()\l}">
<polygon fill="white" stroke="black" points="664,-6 664,-96 812,-96 812,-6 664,-6"/>
<text text-anchor="start" x="672" y="-84" font-family="Helvetica,sans-Serif" font-size="10.00">pocketmine\level\generator</text>
<text text-anchor="middle" x="738" y="-73" font-family="Helvetica,sans-Serif" font-size="10.00">\populator\Tree</text>
<polyline fill="none" stroke="black" points="664,-66 812,-66 "/>
<text text-anchor="middle" x="738" y="-54" font-family="Helvetica,sans-Serif" font-size="10.00"> </text>
<polyline fill="none" stroke="black" points="664,-47 812,-47 "/>
<text text-anchor="start" x="672" y="-35" font-family="Helvetica,sans-Serif" font-size="10.00">+ setRandomAmount()</text>
<text text-anchor="start" x="672" y="-24" font-family="Helvetica,sans-Serif" font-size="10.00">+ setBaseAmount()</text>
<text text-anchor="start" x="672" y="-13" font-family="Helvetica,sans-Serif" font-size="10.00">+ populate()</text>
</a>
</g>
</g>
<!-- Node1&#45;&gt;Node6 -->
<g id="edge5" class="edge"><title>Node1&#45;&gt;Node6</title>
<path fill="none" stroke="midnightblue" d="M490.2,-154.285C539.372,-142.486 601.98,-124.926 655,-102 659.169,-100.197 663.382,-98.2187 667.583,-96.1214"/>
<polygon fill="none" stroke="midnightblue" points="489.162,-150.934 480.235,-156.641 490.773,-157.746 489.162,-150.934"/>
</g>
</g>
</svg>
