<?xml version="1.0" encoding="UTF-8" standalone="no"?>
<!DOCTYPE svg PUBLIC "-//W3C//DTD SVG 1.1//EN"
 "http://www.w3.org/Graphics/SVG/1.1/DTD/svg11.dtd">
<!-- Generated by graphviz version 2.26.3 (20100126.1600)
 -->
<!-- Title: pocketmine\event\entity\EntityDamageEvent Pages: 1 -->
<svg width="295pt" height="560pt"
 viewBox="0.00 0.00 295.00 560.00" xmlns="http://www.w3.org/2000/svg" xmlns:xlink="http://www.w3.org/1999/xlink">
<g id="graph1" class="graph" transform="scale(1 1) rotate(0) translate(4 556)">
<title>pocketmine\event\entity\EntityDamageEvent</title>
<polygon fill="white" stroke="white" points="-4,5 -4,-556 292,-556 292,5 -4,5"/>
<!-- Node1 -->
<g id="node1" class="node"><title>Node1</title>
<polygon fill="#bfbfbf" stroke="black" points="63.5,-0.5 63.5,-297.5 210.5,-297.5 210.5,-0.5 63.5,-0.5"/>
<text text-anchor="start" x="71.5" y="-284.5" font-family="Helvetica,sans-Serif" font-size="10.00">pocketmine\event\entity</text>
<text text-anchor="middle" x="137" y="-271.5" font-family="Helvetica,sans-Serif" font-size="10.00">\EntityDamageEvent</text>
<polyline fill="none" stroke="black" points="63.5,-263.5 210.5,-263.5 "/>
<text text-anchor="start" x="71.5" y="-250.5" font-family="Helvetica,sans-Serif" font-size="10.00">+ MODIFIER_BASE</text>
<text text-anchor="start" x="71.5" y="-237.5" font-family="Helvetica,sans-Serif" font-size="10.00">+ MODIFIER_ARMOR</text>
<text text-anchor="start" x="71.5" y="-224.5" font-family="Helvetica,sans-Serif" font-size="10.00">+ CAUSE_CONTACT</text>
<text text-anchor="start" x="71.5" y="-211.5" font-family="Helvetica,sans-Serif" font-size="10.00">+ CAUSE_ENTITY_ATTACK</text>
<text text-anchor="start" x="71.5" y="-198.5" font-family="Helvetica,sans-Serif" font-size="10.00">+ CAUSE_PROJECTILE</text>
<text text-anchor="start" x="71.5" y="-185.5" font-family="Helvetica,sans-Serif" font-size="10.00">+ CAUSE_SUFFOCATION</text>
<text text-anchor="start" x="71.5" y="-172.5" font-family="Helvetica,sans-Serif" font-size="10.00">+ CAUSE_FALL</text>
<text text-anchor="start" x="71.5" y="-159.5" font-family="Helvetica,sans-Serif" font-size="10.00">+ CAUSE_FIRE</text>
<text text-anchor="start" x="71.5" y="-146.5" font-family="Helvetica,sans-Serif" font-size="10.00">+ CAUSE_FIRE_TICK</text>
<text text-anchor="start" x="71.5" y="-133.5" font-family="Helvetica,sans-Serif" font-size="10.00">+ CAUSE_LAVA</text>
<text text-anchor="start" x="71.5" y="-120.5" font-family="Helvetica,sans-Serif" font-size="10.00">and 7 more...</text>
<text text-anchor="start" x="71.5" y="-107.5" font-family="Helvetica,sans-Serif" font-size="10.00">+ $handlerList</text>
<polyline fill="none" stroke="black" points="63.5,-99.5 210.5,-99.5 "/>
<text text-anchor="start" x="71.5" y="-86.5" font-family="Helvetica,sans-Serif" font-size="10.00">+ __construct()</text>
<text text-anchor="start" x="71.5" y="-73.5" font-family="Helvetica,sans-Serif" font-size="10.00">+ getCause()</text>
<text text-anchor="start" x="71.5" y="-60.5" font-family="Helvetica,sans-Serif" font-size="10.00">+ getOriginalDamage()</text>
<text text-anchor="start" x="71.5" y="-47.5" font-family="Helvetica,sans-Serif" font-size="10.00">+ getDamage()</text>
<text text-anchor="start" x="71.5" y="-34.5" font-family="Helvetica,sans-Serif" font-size="10.00">+ setDamage()</text>
<text text-anchor="start" x="71.5" y="-21.5" font-family="Helvetica,sans-Serif" font-size="10.00">+ isApplicable()</text>
<text text-anchor="start" x="71.5" y="-8.5" font-family="Helvetica,sans-Serif" font-size="10.00">+ getFinalDamage()</text>
</g>
<!-- Node2 -->
<g id="node2" class="node"><title>Node2</title>
<a xlink:href="../../de/d84/classpocketmine_1_1event_1_1entity_1_1_entity_event.html" target="_top" xlink:title="{pocketmine\\event\\entity\l\\EntityEvent\n|# $entity\l|+ getEntity()\l}">
<polygon fill="white" stroke="black" points="0.5,-335 0.5,-411 121.5,-411 121.5,-335 0.5,-335"/>
<text text-anchor="start" x="8.5" y="-398" font-family="Helvetica,sans-Serif" font-size="10.00">pocketmine\event\entity</text>
<text text-anchor="middle" x="61" y="-385" font-family="Helvetica,sans-Serif" font-size="10.00">\EntityEvent</text>
<polyline fill="none" stroke="black" points="0.5,-377 121.5,-377 "/>
<text text-anchor="start" x="8.5" y="-364" font-family="Helvetica,sans-Serif" font-size="10.00"># $entity</text>
<polyline fill="none" stroke="black" points="0.5,-356 121.5,-356 "/>
<text text-anchor="start" x="8.5" y="-343" font-family="Helvetica,sans-Serif" font-size="10.00">+ getEntity()</text>
</a>
</g>
<!-- Node2&#45;&gt;Node1 -->
<g id="edge2" class="edge"><title>Node2&#45;&gt;Node1</title>
<path fill="none" stroke="midnightblue" d="M77.257,-325.085C80.1551,-316.543 83.3075,-307.252 86.5994,-297.549"/>
<polygon fill="none" stroke="midnightblue" points="73.8771,-324.153 73.9785,-334.748 80.506,-326.402 73.8771,-324.153"/>
</g>
<!-- Node3 -->
<g id="node4" class="node"><title>Node3</title>
<a xlink:href="../../d1/d2f/classpocketmine_1_1event_1_1_event.html" target="_top" xlink:title="{pocketmine\\event\\Event\n|# $eventName\l|+ getEventName()\l+ isCancelled()\l+ setCancelled()\l+ getHandlers()\l}">
<polygon fill="white" stroke="black" points="0,-449 0,-551 122,-551 122,-449 0,-449"/>
<text text-anchor="middle" x="61" y="-538" font-family="Helvetica,sans-Serif" font-size="10.00">pocketmine\event\Event</text>
<polyline fill="none" stroke="black" points="0,-530 122,-530 "/>
<text text-anchor="start" x="8" y="-517" font-family="Helvetica,sans-Serif" font-size="10.00"># $eventName</text>
<polyline fill="none" stroke="black" points="0,-509 122,-509 "/>
<text text-anchor="start" x="8" y="-496" font-family="Helvetica,sans-Serif" font-size="10.00">+ getEventName()</text>
<text text-anchor="start" x="8" y="-483" font-family="Helvetica,sans-Serif" font-size="10.00">+ isCancelled()</text>
<text text-anchor="start" x="8" y="-470" font-family="Helvetica,sans-Serif" font-size="10.00">+ setCancelled()</text>
<text text-anchor="start" x="8" y="-457" font-family="Helvetica,sans-Serif" font-size="10.00">+ getHandlers()</text>
</a>
</g>
<!-- Node3&#45;&gt;Node2 -->
<g id="edge4" class="edge"><title>Node3&#45;&gt;Node2</title>
<path fill="none" stroke="midnightblue" d="M61,-438.625C61,-429.273 61,-419.859 61,-411.197"/>
<polygon fill="none" stroke="midnightblue" points="57.5001,-438.71 61,-448.71 64.5001,-438.71 57.5001,-438.71"/>
</g>
<!-- Node4 -->
<g id="node6" class="node"><title>Node4</title>
<a xlink:href="../../db/d62/interfacepocketmine_1_1event_1_1_cancellable.html" target="_top" xlink:title="{pocketmine\\event\\Cancellable\n||+ isCancelled()\l+ setCancelled()\l}">
<polygon fill="white" stroke="black" points="139,-335 139,-411 287,-411 287,-335 139,-335"/>
<text text-anchor="middle" x="213" y="-398" font-family="Helvetica,sans-Serif" font-size="10.00">pocketmine\event\Cancellable</text>
<polyline fill="none" stroke="black" points="139,-390 287,-390 "/>
<text text-anchor="middle" x="213" y="-377" font-family="Helvetica,sans-Serif" font-size="10.00"> </text>
<polyline fill="none" stroke="black" points="139,-369 287,-369 "/>
<text text-anchor="start" x="147" y="-356" font-family="Helvetica,sans-Serif" font-size="10.00">+ isCancelled()</text>
<text text-anchor="start" x="147" y="-343" font-family="Helvetica,sans-Serif" font-size="10.00">+ setCancelled()</text>
</a>
</g>
<!-- Node4&#45;&gt;Node1 -->
<g id="edge6" class="edge"><title>Node4&#45;&gt;Node1</title>
<path fill="none" stroke="midnightblue" d="M196.743,-325.085C193.845,-316.543 190.693,-307.252 187.401,-297.549"/>
<polygon fill="none" stroke="midnightblue" points="193.494,-326.402 200.021,-334.748 200.123,-324.153 193.494,-326.402"/>
</g>
</g>
</svg>
