<?xml version="1.0" encoding="UTF-8" standalone="no"?>
<!DOCTYPE svg PUBLIC "-//W3C//DTD SVG 1.1//EN"
 "http://www.w3.org/Graphics/SVG/1.1/DTD/svg11.dtd">
<!-- Generated by graphviz version 2.36.0 (20140111.2315)
 -->
<!-- Title: pocketmine\command\CommandReader Pages: 1 -->
<svg width="132pt" height="288pt"
 viewBox="0.00 0.00 132.00 288.00" xmlns="http://www.w3.org/2000/svg" xmlns:xlink="http://www.w3.org/1999/xlink">
<g id="graph0" class="graph" transform="scale(1 1) rotate(0) translate(4 284)">
<title>pocketmine\command\CommandReader</title>
<polygon fill="white" stroke="none" points="-4,4 -4,-284 128,-284 128,4 -4,4"/>
<!-- Node1 -->
<g id="node1" class="node"><title>Node1</title>
<polygon fill="#bfbfbf" stroke="black" points="-0.5,-1 -0.5,-91 124.5,-91 124.5,-1 -0.5,-1"/>
<text text-anchor="start" x="7.5" y="-79" font-family="Helvetica,sans-Serif" font-size="10.00">pocketmine\command</text>
<text text-anchor="middle" x="62" y="-68" font-family="Helvetica,sans-Serif" font-size="10.00">\CommandReader</text>
<polyline fill="none" stroke="black" points="-0.5,-61 124.5,-61 "/>
<text text-anchor="start" x="7.5" y="-49" font-family="Helvetica,sans-Serif" font-size="10.00"># $buffer</text>
<polyline fill="none" stroke="black" points="-0.5,-42 124.5,-42 "/>
<text text-anchor="start" x="7.5" y="-30" font-family="Helvetica,sans-Serif" font-size="10.00">+ __construct()</text>
<text text-anchor="start" x="7.5" y="-19" font-family="Helvetica,sans-Serif" font-size="10.00">+ getLine()</text>
<text text-anchor="start" x="7.5" y="-8" font-family="Helvetica,sans-Serif" font-size="10.00">+ run()</text>
</g>
<!-- Node2 -->
<g id="node2" class="node"><title>Node2</title>
<g id="a_node2"><a xlink:href="../../d1/d31/classpocketmine_1_1_thread.html" target="_top" xlink:title="{pocketmine\\Thread\n||+ start()\l}">
<polygon fill="white" stroke="black" points="7.5,-128.5 7.5,-185.5 116.5,-185.5 116.5,-128.5 7.5,-128.5"/>
<text text-anchor="middle" x="62" y="-173.5" font-family="Helvetica,sans-Serif" font-size="10.00">pocketmine\Thread</text>
<polyline fill="none" stroke="black" points="7.5,-166.5 116.5,-166.5 "/>
<text text-anchor="middle" x="62" y="-154.5" font-family="Helvetica,sans-Serif" font-size="10.00"> </text>
<polyline fill="none" stroke="black" points="7.5,-147.5 116.5,-147.5 "/>
<text text-anchor="start" x="15.5" y="-135.5" font-family="Helvetica,sans-Serif" font-size="10.00">+ start()</text>
</a>
</g>
</g>
<!-- Node2&#45;&gt;Node1 -->
<g id="edge1" class="edge"><title>Node2&#45;&gt;Node1</title>
<path fill="none" stroke="midnightblue" d="M62,-118.484C62,-109.643 62,-100.139 62,-91.0399"/>
<polygon fill="none" stroke="midnightblue" points="58.5001,-118.495 62,-128.495 65.5001,-118.495 58.5001,-118.495"/>
</g>
<!-- Node3 -->
<g id="node3" class="node"><title>Node3</title>
<polygon fill="white" stroke="#bfbfbf" points="37,-222.5 37,-279.5 87,-279.5 87,-222.5 37,-222.5"/>
<text text-anchor="middle" x="62" y="-267.5" font-family="Helvetica,sans-Serif" font-size="10.00">Thread</text>
<polyline fill="none" stroke="#bfbfbf" points="37,-260.5 87,-260.5 "/>
<text text-anchor="middle" x="62" y="-248.5" font-family="Helvetica,sans-Serif" font-size="10.00"> </text>
<polyline fill="none" stroke="#bfbfbf" points="37,-241.5 87,-241.5 "/>
<text text-anchor="middle" x="62" y="-229.5" font-family="Helvetica,sans-Serif" font-size="10.00"> </text>
</g>
<!-- Node3&#45;&gt;Node2 -->
<g id="edge2" class="edge"><title>Node3&#45;&gt;Node2</title>
<path fill="none" stroke="midnightblue" d="M62,-212.209C62,-203.293 62,-193.951 62,-185.584"/>
<polygon fill="none" stroke="midnightblue" points="58.5001,-212.397 62,-222.397 65.5001,-212.397 58.5001,-212.397"/>
</g>
</g>
</svg>
