<?xml version="1.0" encoding="UTF-8" standalone="no"?>
<!DOCTYPE svg PUBLIC "-//W3C//DTD SVG 1.1//EN"
 "http://www.w3.org/Graphics/SVG/1.1/DTD/svg11.dtd">
<!-- Generated by graphviz version 2.26.3 (20100126.1600)
 -->
<!-- Title: ThreadedLogger Pages: 1 -->
<svg width="280pt" height="1120pt"
 viewBox="0.00 0.00 280.00 1120.00" xmlns="http://www.w3.org/2000/svg" xmlns:xlink="http://www.w3.org/1999/xlink">
<g id="graph1" class="graph" transform="scale(1 1) rotate(0) translate(4 1116)">
<title>ThreadedLogger</title>
<polygon fill="white" stroke="white" points="-4,5 -4,-1116 277,-1116 277,5 -4,5"/>
<!-- Node1 -->
<g id="node1" class="node"><title>Node1</title>
<polygon fill="#bfbfbf" stroke="black" points="131,-488.5 131,-551.5 217,-551.5 217,-488.5 131,-488.5"/>
<text text-anchor="middle" x="174" y="-538.5" font-family="Helvetica,sans-Serif" font-size="10.00">ThreadedLogger</text>
<polyline fill="none" stroke="black" points="131,-530.5 217,-530.5 "/>
<text text-anchor="middle" x="174" y="-517.5" font-family="Helvetica,sans-Serif" font-size="10.00"> </text>
<polyline fill="none" stroke="black" points="131,-509.5 217,-509.5 "/>
<text text-anchor="middle" x="174" y="-496.5" font-family="Helvetica,sans-Serif" font-size="10.00"> </text>
</g>
<!-- Node8 -->
<g id="node15" class="node"><title>Node8</title>
<a xlink:href="../../d3/db3/class_attachable_threaded_logger.html" target="_top" xlink:title="{AttachableThreadedLogger\n|# $attachment\l|+ addAttachment()\l+ removeAttachment()\l+ removeAttachments()\l+ getAttachments()\l}">
<polygon fill="white" stroke="black" points="107.5,-349 107.5,-451 240.5,-451 240.5,-349 107.5,-349"/>
<text text-anchor="middle" x="174" y="-438" font-family="Helvetica,sans-Serif" font-size="10.00">AttachableThreadedLogger</text>
<polyline fill="none" stroke="black" points="107.5,-430 240.5,-430 "/>
<text text-anchor="start" x="115.5" y="-417" font-family="Helvetica,sans-Serif" font-size="10.00"># $attachment</text>
<polyline fill="none" stroke="black" points="107.5,-409 240.5,-409 "/>
<text text-anchor="start" x="115.5" y="-396" font-family="Helvetica,sans-Serif" font-size="10.00">+ addAttachment()</text>
<text text-anchor="start" x="115.5" y="-383" font-family="Helvetica,sans-Serif" font-size="10.00">+ removeAttachment()</text>
<text text-anchor="start" x="115.5" y="-370" font-family="Helvetica,sans-Serif" font-size="10.00">+ removeAttachments()</text>
<text text-anchor="start" x="115.5" y="-357" font-family="Helvetica,sans-Serif" font-size="10.00">+ getAttachments()</text>
</a>
</g>
<!-- Node1&#45;&gt;Node8 -->
<g id="edge14" class="edge"><title>Node1&#45;&gt;Node8</title>
<path fill="none" stroke="midnightblue" d="M174,-478.205C174,-469.513 174,-460.259 174,-451.272"/>
<polygon fill="none" stroke="midnightblue" points="170.5,-478.471 174,-488.471 177.5,-478.471 170.5,-478.471"/>
</g>
<!-- Node2 -->
<g id="node2" class="node"><title>Node2</title>
<a xlink:href="../../d8/d18/class_thread.html" target="_top" xlink:title="{Thread\n||+ detach()\l+ getCreatorId()\l+ getThreadId()\l+ isJoined()\l+ isStarted()\l+ join()\l+ kill()\l+ start()\l+ getCurrentThread()\l+ getCurrentThreadId()\l+ globally()\l}">
<polygon fill="white" stroke="black" points="58,-588.5 58,-781.5 174,-781.5 174,-588.5 58,-588.5"/>
<text text-anchor="middle" x="116" y="-768.5" font-family="Helvetica,sans-Serif" font-size="10.00">Thread</text>
<polyline fill="none" stroke="black" points="58,-760.5 174,-760.5 "/>
<text text-anchor="middle" x="116" y="-747.5" font-family="Helvetica,sans-Serif" font-size="10.00"> </text>
<polyline fill="none" stroke="black" points="58,-739.5 174,-739.5 "/>
<text text-anchor="start" x="66" y="-726.5" font-family="Helvetica,sans-Serif" font-size="10.00">+ detach()</text>
<text text-anchor="start" x="66" y="-713.5" font-family="Helvetica,sans-Serif" font-size="10.00">+ getCreatorId()</text>
<text text-anchor="start" x="66" y="-700.5" font-family="Helvetica,sans-Serif" font-size="10.00">+ getThreadId()</text>
<text text-anchor="start" x="66" y="-687.5" font-family="Helvetica,sans-Serif" font-size="10.00">+ isJoined()</text>
<text text-anchor="start" x="66" y="-674.5" font-family="Helvetica,sans-Serif" font-size="10.00">+ isStarted()</text>
<text text-anchor="start" x="66" y="-661.5" font-family="Helvetica,sans-Serif" font-size="10.00">+ join()</text>
<text text-anchor="start" x="66" y="-648.5" font-family="Helvetica,sans-Serif" font-size="10.00">+ kill()</text>
<text text-anchor="start" x="66" y="-635.5" font-family="Helvetica,sans-Serif" font-size="10.00">+ start()</text>
<text text-anchor="start" x="66" y="-622.5" font-family="Helvetica,sans-Serif" font-size="10.00">+ getCurrentThread()</text>
<text text-anchor="start" x="66" y="-609.5" font-family="Helvetica,sans-Serif" font-size="10.00">+ getCurrentThreadId()</text>
<text text-anchor="start" x="66" y="-596.5" font-family="Helvetica,sans-Serif" font-size="10.00">+ globally()</text>
</a>
</g>
<!-- Node2&#45;&gt;Node1 -->
<g id="edge2" class="edge"><title>Node2&#45;&gt;Node1</title>
<path fill="none" stroke="midnightblue" d="M153.474,-578.393C156.826,-568.858 160.012,-559.793 162.831,-551.774"/>
<polygon fill="none" stroke="midnightblue" points="150.089,-577.47 150.074,-588.064 156.693,-579.791 150.089,-577.47"/>
</g>
<!-- Node3 -->
<g id="node4" class="node"><title>Node3</title>
<a xlink:href="../../d0/d82/class_threaded.html" target="_top" xlink:title="{Threaded\n||+ chunk()\l+ count()\l+ getTerminationInfo()\l+ isRunning()\l+ isTerminated()\l+ isWaiting()\l+ lock()\l+ merge()\l+ notify()\l+ offsetGet()\land 9 more...\l}">
<polygon fill="white" stroke="black" points="59.5,-818.5 59.5,-1011.5 172.5,-1011.5 172.5,-818.5 59.5,-818.5"/>
<text text-anchor="middle" x="116" y="-998.5" font-family="Helvetica,sans-Serif" font-size="10.00">Threaded</text>
<polyline fill="none" stroke="black" points="59.5,-990.5 172.5,-990.5 "/>
<text text-anchor="middle" x="116" y="-977.5" font-family="Helvetica,sans-Serif" font-size="10.00"> </text>
<polyline fill="none" stroke="black" points="59.5,-969.5 172.5,-969.5 "/>
<text text-anchor="start" x="67.5" y="-956.5" font-family="Helvetica,sans-Serif" font-size="10.00">+ chunk()</text>
<text text-anchor="start" x="67.5" y="-943.5" font-family="Helvetica,sans-Serif" font-size="10.00">+ count()</text>
<text text-anchor="start" x="67.5" y="-930.5" font-family="Helvetica,sans-Serif" font-size="10.00">+ getTerminationInfo()</text>
<text text-anchor="start" x="67.5" y="-917.5" font-family="Helvetica,sans-Serif" font-size="10.00">+ isRunning()</text>
<text text-anchor="start" x="67.5" y="-904.5" font-family="Helvetica,sans-Serif" font-size="10.00">+ isTerminated()</text>
<text text-anchor="start" x="67.5" y="-891.5" font-family="Helvetica,sans-Serif" font-size="10.00">+ isWaiting()</text>
<text text-anchor="start" x="67.5" y="-878.5" font-family="Helvetica,sans-Serif" font-size="10.00">+ lock()</text>
<text text-anchor="start" x="67.5" y="-865.5" font-family="Helvetica,sans-Serif" font-size="10.00">+ merge()</text>
<text text-anchor="start" x="67.5" y="-852.5" font-family="Helvetica,sans-Serif" font-size="10.00">+ notify()</text>
<text text-anchor="start" x="67.5" y="-839.5" font-family="Helvetica,sans-Serif" font-size="10.00">+ offsetGet()</text>
<text text-anchor="start" x="67.5" y="-826.5" font-family="Helvetica,sans-Serif" font-size="10.00">and 9 more...</text>
</a>
</g>
<!-- Node3&#45;&gt;Node2 -->
<g id="edge4" class="edge"><title>Node3&#45;&gt;Node2</title>
<path fill="none" stroke="midnightblue" d="M116,-808.423C116,-799.499 116,-790.507 116,-781.663"/>
<polygon fill="none" stroke="midnightblue" points="112.5,-808.459 116,-818.459 119.5,-808.459 112.5,-808.459"/>
</g>
<!-- Node4 -->
<g id="node6" class="node"><title>Node4</title>
<polygon fill="white" stroke="#bfbfbf" points="0,-1048.5 0,-1111.5 68,-1111.5 68,-1048.5 0,-1048.5"/>
<text text-anchor="middle" x="34" y="-1098.5" font-family="Helvetica,sans-Serif" font-size="10.00">Traversable</text>
<polyline fill="none" stroke="#bfbfbf" points="0,-1090.5 68,-1090.5 "/>
<text text-anchor="middle" x="34" y="-1077.5" font-family="Helvetica,sans-Serif" font-size="10.00"> </text>
<polyline fill="none" stroke="#bfbfbf" points="0,-1069.5 68,-1069.5 "/>
<text text-anchor="middle" x="34" y="-1056.5" font-family="Helvetica,sans-Serif" font-size="10.00"> </text>
</g>
<!-- Node4&#45;&gt;Node3 -->
<g id="edge6" class="edge"><title>Node4&#45;&gt;Node3</title>
<path fill="none" stroke="midnightblue" d="M54.3964,-1038.96C58.619,-1030.46 63.2356,-1021.17 67.9815,-1011.62"/>
<polygon fill="none" stroke="midnightblue" points="51.1266,-1037.67 49.8104,-1048.19 57.3952,-1040.79 51.1266,-1037.67"/>
</g>
<!-- Node5 -->
<g id="node8" class="node"><title>Node5</title>
<polygon fill="white" stroke="#bfbfbf" points="85.5,-1048.5 85.5,-1111.5 146.5,-1111.5 146.5,-1048.5 85.5,-1048.5"/>
<text text-anchor="middle" x="116" y="-1098.5" font-family="Helvetica,sans-Serif" font-size="10.00">Countable</text>
<polyline fill="none" stroke="#bfbfbf" points="85.5,-1090.5 146.5,-1090.5 "/>
<text text-anchor="middle" x="116" y="-1077.5" font-family="Helvetica,sans-Serif" font-size="10.00"> </text>
<polyline fill="none" stroke="#bfbfbf" points="85.5,-1069.5 146.5,-1069.5 "/>
<text text-anchor="middle" x="116" y="-1056.5" font-family="Helvetica,sans-Serif" font-size="10.00"> </text>
</g>
<!-- Node5&#45;&gt;Node3 -->
<g id="edge8" class="edge"><title>Node5&#45;&gt;Node3</title>
<path fill="none" stroke="midnightblue" d="M116,-1038.13C116,-1029.86 116,-1020.86 116,-1011.62"/>
<polygon fill="none" stroke="midnightblue" points="112.5,-1038.19 116,-1048.19 119.5,-1038.19 112.5,-1038.19"/>
</g>
<!-- Node6 -->
<g id="node10" class="node"><title>Node6</title>
<polygon fill="white" stroke="#bfbfbf" points="163.5,-1048.5 163.5,-1111.5 236.5,-1111.5 236.5,-1048.5 163.5,-1048.5"/>
<text text-anchor="middle" x="200" y="-1098.5" font-family="Helvetica,sans-Serif" font-size="10.00">ArrayAccess</text>
<polyline fill="none" stroke="#bfbfbf" points="163.5,-1090.5 236.5,-1090.5 "/>
<text text-anchor="middle" x="200" y="-1077.5" font-family="Helvetica,sans-Serif" font-size="10.00"> </text>
<polyline fill="none" stroke="#bfbfbf" points="163.5,-1069.5 236.5,-1069.5 "/>
<text text-anchor="middle" x="200" y="-1056.5" font-family="Helvetica,sans-Serif" font-size="10.00"> </text>
</g>
<!-- Node6&#45;&gt;Node3 -->
<g id="edge10" class="edge"><title>Node6&#45;&gt;Node3</title>
<path fill="none" stroke="midnightblue" d="M179.246,-1039.23C174.882,-1030.66 170.104,-1021.27 165.19,-1011.62"/>
<polygon fill="none" stroke="midnightblue" points="176.148,-1040.86 183.804,-1048.19 182.386,-1037.69 176.148,-1040.86"/>
</g>
<!-- Node7 -->
<g id="node12" class="node"><title>Node7</title>
<a xlink:href="../../d4/d00/interface_logger.html" target="_top" xlink:title="{Logger\n||+ emergency()\l+ alert()\l+ critical()\l+ error()\l+ warning()\l+ notice()\l+ info()\l+ debug()\l+ log()\l}">
<polygon fill="white" stroke="black" points="192,-601.5 192,-768.5 272,-768.5 272,-601.5 192,-601.5"/>
<text text-anchor="middle" x="232" y="-755.5" font-family="Helvetica,sans-Serif" font-size="10.00">Logger</text>
<polyline fill="none" stroke="black" points="192,-747.5 272,-747.5 "/>
<text text-anchor="middle" x="232" y="-734.5" font-family="Helvetica,sans-Serif" font-size="10.00"> </text>
<polyline fill="none" stroke="black" points="192,-726.5 272,-726.5 "/>
<text text-anchor="start" x="200" y="-713.5" font-family="Helvetica,sans-Serif" font-size="10.00">+ emergency()</text>
<text text-anchor="start" x="200" y="-700.5" font-family="Helvetica,sans-Serif" font-size="10.00">+ alert()</text>
<text text-anchor="start" x="200" y="-687.5" font-family="Helvetica,sans-Serif" font-size="10.00">+ critical()</text>
<text text-anchor="start" x="200" y="-674.5" font-family="Helvetica,sans-Serif" font-size="10.00">+ error()</text>
<text text-anchor="start" x="200" y="-661.5" font-family="Helvetica,sans-Serif" font-size="10.00">+ warning()</text>
<text text-anchor="start" x="200" y="-648.5" font-family="Helvetica,sans-Serif" font-size="10.00">+ notice()</text>
<text text-anchor="start" x="200" y="-635.5" font-family="Helvetica,sans-Serif" font-size="10.00">+ info()</text>
<text text-anchor="start" x="200" y="-622.5" font-family="Helvetica,sans-Serif" font-size="10.00">+ debug()</text>
<text text-anchor="start" x="200" y="-609.5" font-family="Helvetica,sans-Serif" font-size="10.00">+ log()</text>
</a>
</g>
<!-- Node7&#45;&gt;Node1 -->
<g id="edge12" class="edge"><title>Node7&#45;&gt;Node1</title>
<path fill="none" stroke="midnightblue" d="M199.151,-591.55C194.094,-577.164 189.196,-563.231 185.087,-551.541"/>
<polygon fill="none" stroke="midnightblue" points="195.872,-592.776 202.49,-601.05 202.476,-590.455 195.872,-592.776"/>
</g>
<!-- Node9 -->
<g id="node17" class="node"><title>Node9</title>
<a xlink:href="../../d9/d27/classpocketmine_1_1utils_1_1_main_logger.html" target="_top" xlink:title="{pocketmine\\utils\\MainLogger\n|+ $logger\l# $logFile\l# $logStream\l# $shutdown\l# $hasANSI\l# $logDebug\l|+ __construct()\l+ emergency()\l+ alert()\l+ critical()\l+ error()\l+ warning()\l+ notice()\l+ info()\l+ debug()\l+ setLogDebug()\l+ log()\l+ shutdown()\l+ run()\l+ getLogger()\l# send()\l}">
<polygon fill="white" stroke="black" points="103.5,-1 103.5,-311 244.5,-311 244.5,-1 103.5,-1"/>
<text text-anchor="middle" x="174" y="-298" font-family="Helvetica,sans-Serif" font-size="10.00">pocketmine\utils\MainLogger</text>
<polyline fill="none" stroke="black" points="103.5,-290 244.5,-290 "/>
<text text-anchor="start" x="111.5" y="-277" font-family="Helvetica,sans-Serif" font-size="10.00">+ $logger</text>
<text text-anchor="start" x="111.5" y="-264" font-family="Helvetica,sans-Serif" font-size="10.00"># $logFile</text>
<text text-anchor="start" x="111.5" y="-251" font-family="Helvetica,sans-Serif" font-size="10.00"># $logStream</text>
<text text-anchor="start" x="111.5" y="-238" font-family="Helvetica,sans-Serif" font-size="10.00"># $shutdown</text>
<text text-anchor="start" x="111.5" y="-225" font-family="Helvetica,sans-Serif" font-size="10.00"># $hasANSI</text>
<text text-anchor="start" x="111.5" y="-212" font-family="Helvetica,sans-Serif" font-size="10.00"># $logDebug</text>
<polyline fill="none" stroke="black" points="103.5,-204 244.5,-204 "/>
<text text-anchor="start" x="111.5" y="-191" font-family="Helvetica,sans-Serif" font-size="10.00">+ __construct()</text>
<text text-anchor="start" x="111.5" y="-178" font-family="Helvetica,sans-Serif" font-size="10.00">+ emergency()</text>
<text text-anchor="start" x="111.5" y="-165" font-family="Helvetica,sans-Serif" font-size="10.00">+ alert()</text>
<text text-anchor="start" x="111.5" y="-152" font-family="Helvetica,sans-Serif" font-size="10.00">+ critical()</text>
<text text-anchor="start" x="111.5" y="-139" font-family="Helvetica,sans-Serif" font-size="10.00">+ error()</text>
<text text-anchor="start" x="111.5" y="-126" font-family="Helvetica,sans-Serif" font-size="10.00">+ warning()</text>
<text text-anchor="start" x="111.5" y="-113" font-family="Helvetica,sans-Serif" font-size="10.00">+ notice()</text>
<text text-anchor="start" x="111.5" y="-100" font-family="Helvetica,sans-Serif" font-size="10.00">+ info()</text>
<text text-anchor="start" x="111.5" y="-87" font-family="Helvetica,sans-Serif" font-size="10.00">+ debug()</text>
<text text-anchor="start" x="111.5" y="-74" font-family="Helvetica,sans-Serif" font-size="10.00">+ setLogDebug()</text>
<text text-anchor="start" x="111.5" y="-61" font-family="Helvetica,sans-Serif" font-size="10.00">+ log()</text>
<text text-anchor="start" x="111.5" y="-48" font-family="Helvetica,sans-Serif" font-size="10.00">+ shutdown()</text>
<text text-anchor="start" x="111.5" y="-35" font-family="Helvetica,sans-Serif" font-size="10.00">+ run()</text>
<text text-anchor="start" x="111.5" y="-22" font-family="Helvetica,sans-Serif" font-size="10.00">+ getLogger()</text>
<text text-anchor="start" x="111.5" y="-9" font-family="Helvetica,sans-Serif" font-size="10.00"># send()</text>
</a>
</g>
<!-- Node8&#45;&gt;Node9 -->
<g id="edge16" class="edge"><title>Node8&#45;&gt;Node9</title>
<path fill="none" stroke="midnightblue" d="M174,-338.61C174,-329.98 174,-320.809 174,-311.347"/>
<polygon fill="none" stroke="midnightblue" points="170.5,-338.85 174,-348.85 177.5,-338.85 170.5,-338.85"/>
</g>
</g>
</svg>
