<?xml version="1.0" encoding="UTF-8" standalone="no"?>
<!DOCTYPE svg PUBLIC "-//W3C//DTD SVG 1.1//EN"
 "http://www.w3.org/Graphics/SVG/1.1/DTD/svg11.dtd">
<!-- Generated by graphviz version 2.26.3 (20100126.1600)
 -->
<!-- Title: pocketmine\inventory\ShapedRecipe Pages: 1 -->
<svg width="154pt" height="264pt"
 viewBox="0.00 0.00 154.00 264.00" xmlns="http://www.w3.org/2000/svg" xmlns:xlink="http://www.w3.org/1999/xlink">
<g id="graph1" class="graph" transform="scale(1 1) rotate(0) translate(4 260)">
<title>pocketmine\inventory\ShapedRecipe</title>
<polygon fill="white" stroke="white" points="-4,5 -4,-260 151,-260 151,5 -4,5"/>
<!-- Node1 -->
<g id="node1" class="node"><title>Node1</title>
<polygon fill="#bfbfbf" stroke="black" points="-0.5,-1 -0.5,-129 146.5,-129 146.5,-1 -0.5,-1"/>
<text text-anchor="start" x="7.5" y="-116" font-family="Helvetica,sans-Serif" font-size="10.00">pocketmine\inventory</text>
<text text-anchor="middle" x="73" y="-103" font-family="Helvetica,sans-Serif" font-size="10.00">\ShapedRecipe</text>
<polyline fill="none" stroke="black" points="-0.5,-95 146.5,-95 "/>
<text text-anchor="middle" x="73" y="-82" font-family="Helvetica,sans-Serif" font-size="10.00"> </text>
<polyline fill="none" stroke="black" points="-0.5,-74 146.5,-74 "/>
<text text-anchor="start" x="7.5" y="-61" font-family="Helvetica,sans-Serif" font-size="10.00">+ __construct()</text>
<text text-anchor="start" x="7.5" y="-48" font-family="Helvetica,sans-Serif" font-size="10.00">+ setIngredient()</text>
<text text-anchor="start" x="7.5" y="-35" font-family="Helvetica,sans-Serif" font-size="10.00">+ getIngredientMap()</text>
<text text-anchor="start" x="7.5" y="-22" font-family="Helvetica,sans-Serif" font-size="10.00">+ getShape()</text>
<text text-anchor="start" x="7.5" y="-9" font-family="Helvetica,sans-Serif" font-size="10.00">+ registerToCraftingManager()</text>
</g>
<!-- Node2 -->
<g id="node2" class="node"><title>Node2</title>
<a xlink:href="../../d7/d3c/interfacepocketmine_1_1inventory_1_1_recipe.html" target="_top" xlink:title="{pocketmine\\inventory\l\\Recipe\n||+ getResult()\l+ registerToCraftingManager()\l}">
<polygon fill="white" stroke="black" points="-0.5,-166.5 -0.5,-255.5 146.5,-255.5 146.5,-166.5 -0.5,-166.5"/>
<text text-anchor="start" x="7.5" y="-242.5" font-family="Helvetica,sans-Serif" font-size="10.00">pocketmine\inventory</text>
<text text-anchor="middle" x="73" y="-229.5" font-family="Helvetica,sans-Serif" font-size="10.00">\Recipe</text>
<polyline fill="none" stroke="black" points="-0.5,-221.5 146.5,-221.5 "/>
<text text-anchor="middle" x="73" y="-208.5" font-family="Helvetica,sans-Serif" font-size="10.00"> </text>
<polyline fill="none" stroke="black" points="-0.5,-200.5 146.5,-200.5 "/>
<text text-anchor="start" x="7.5" y="-187.5" font-family="Helvetica,sans-Serif" font-size="10.00">+ getResult()</text>
<text text-anchor="start" x="7.5" y="-174.5" font-family="Helvetica,sans-Serif" font-size="10.00">+ registerToCraftingManager()</text>
</a>
</g>
<!-- Node2&#45;&gt;Node1 -->
<g id="edge2" class="edge"><title>Node2&#45;&gt;Node1</title>
<path fill="none" stroke="midnightblue" d="M73,-156.254C73,-147.432 73,-138.231 73,-129.21"/>
<polygon fill="none" stroke="midnightblue" points="69.5001,-156.402 73,-166.402 76.5001,-156.402 69.5001,-156.402"/>
</g>
</g>
</svg>
