<?xml version="1.0" encoding="UTF-8" standalone="no"?>
<!DOCTYPE svg PUBLIC "-//W3C//DTD SVG 1.1//EN"
 "http://www.w3.org/Graphics/SVG/1.1/DTD/svg11.dtd">
<!-- Generated by graphviz version 2.26.3 (20100126.1600)
 -->
<!-- Title: pocketmine\event\entity\EntityDamageByEntityEvent Pages: 1 -->
<!--zoomable 686 -->
<svg id="main" version="1.1" xmlns="http://www.w3.org/2000/svg" xmlns:xlink="http://www.w3.org/1999/xlink" xml:space="preserve" onload="init(evt)">
<style type="text/css"><![CDATA[
.edge:hover path { stroke: red; }
.edge:hover polygon { stroke: red; fill: red; }
]]></style>
<script type="text/javascript"><![CDATA[
var edges = document.getElementsByTagName('g');
if (edges && edges.length) {
  for (var i=0;i<edges.length;i++) {
    if (edges[i].id.substr(0,4)=='edge') {
      edges[i].setAttribute('class','edge');
    }
  }
}
]]></script>
        <defs>
                <circle id="rim" cx="0" cy="0" r="7"/>
                <circle id="rim2" cx="0" cy="0" r="3.5"/>
                <g id="zoomPlus">
                        <use xlink:href="#rim" fill="#404040">
                                <set attributeName="fill" to="#808080" begin="zoomplus.mouseover" end="zoomplus.mouseout"/>
                        </use>
                        <path d="M-4,0h8M0,-4v8" fill="none" stroke="white" stroke-width="1.5" pointer-events="none"/>
                </g>
                <g id="zoomMin">
                        <use xlink:href="#rim" fill="#404040">
                                <set attributeName="fill" to="#808080" begin="zoomminus.mouseover" end="zoomminus.mouseout"/>
                        </use>
                        <path d="M-4,0h8" fill="none" stroke="white" stroke-width="1.5" pointer-events="none"/>
                </g>
                <g id="dirArrow">
                        <path fill="none" stroke="white" stroke-width="1.5" d="M0,-3.0v7 M-2.5,-0.5L0,-3.0L2.5,-0.5"/>
                </g>
               <g id="resetDef">
                       <use xlink:href="#rim2" fill="#404040">
                               <set attributeName="fill" to="#808080" begin="reset.mouseover" end="reset.mouseout"/>
                       </use>
               </g>
        </defs>

<script type="text/javascript">
var viewWidth = 295;
var viewHeight = 686;
var sectionId = 'dynsection-1';
</script>
<script xlink:href="../../svgpan.js"/>
<svg id="graph" class="graph">
<g id="viewport">
<title>pocketmine\event\entity\EntityDamageByEntityEvent</title>
<polygon fill="white" stroke="white" points="-4,5 -4,-682 292,-682 292,5 -4,5"/>
<!-- Node1 -->
<g id="node1" class="node"><title>Node1</title>
<polygon fill="#bfbfbf" stroke="black" points="64.5,-0.5 64.5,-89.5 209.5,-89.5 209.5,-0.5 64.5,-0.5"/>
<text text-anchor="start" x="72.5" y="-76.5" font-family="Helvetica,sans-Serif" font-size="10.00">pocketmine\event\entity</text>
<text text-anchor="middle" x="137" y="-63.5" font-family="Helvetica,sans-Serif" font-size="10.00">\EntityDamageByEntityEvent</text>
<polyline fill="none" stroke="black" points="64.5,-55.5 209.5,-55.5 "/>
<text text-anchor="start" x="72.5" y="-42.5" font-family="Helvetica,sans-Serif" font-size="10.00">+ $handlerList</text>
<polyline fill="none" stroke="black" points="64.5,-34.5 209.5,-34.5 "/>
<text text-anchor="start" x="72.5" y="-21.5" font-family="Helvetica,sans-Serif" font-size="10.00">+ __construct()</text>
<text text-anchor="start" x="72.5" y="-8.5" font-family="Helvetica,sans-Serif" font-size="10.00">+ getDamager()</text>
</g>
<!-- Node2 -->
<g id="node2" class="node"><title>Node2</title>
<a xlink:href="../../d5/de3/classpocketmine_1_1event_1_1entity_1_1_entity_damage_event.html" target="_top" xlink:title="{pocketmine\\event\\entity\l\\EntityDamageEvent\n|+ MODIFIER_BASE\l+ MODIFIER_ARMOR\l+ CAUSE_CONTACT\l+ CAUSE_ENTITY_ATTACK\l+ CAUSE_PROJECTILE\l+ CAUSE_SUFFOCATION\l+ CAUSE_FALL\l+ CAUSE_FIRE\l+ CAUSE_FIRE_TICK\l+ CAUSE_LAVA\land 7 more...\l+ $handlerList\l|+ __construct()\l+ getCause()\l+ getOriginalDamage()\l+ getDamage()\l+ setDamage()\l+ isApplicable()\l+ getFinalDamage()\l}">
<polygon fill="white" stroke="black" points="63.5,-126.5 63.5,-423.5 210.5,-423.5 210.5,-126.5 63.5,-126.5"/>
<text text-anchor="start" x="71.5" y="-410.5" font-family="Helvetica,sans-Serif" font-size="10.00">pocketmine\event\entity</text>
<text text-anchor="middle" x="137" y="-397.5" font-family="Helvetica,sans-Serif" font-size="10.00">\EntityDamageEvent</text>
<polyline fill="none" stroke="black" points="63.5,-389.5 210.5,-389.5 "/>
<text text-anchor="start" x="71.5" y="-376.5" font-family="Helvetica,sans-Serif" font-size="10.00">+ MODIFIER_BASE</text>
<text text-anchor="start" x="71.5" y="-363.5" font-family="Helvetica,sans-Serif" font-size="10.00">+ MODIFIER_ARMOR</text>
<text text-anchor="start" x="71.5" y="-350.5" font-family="Helvetica,sans-Serif" font-size="10.00">+ CAUSE_CONTACT</text>
<text text-anchor="start" x="71.5" y="-337.5" font-family="Helvetica,sans-Serif" font-size="10.00">+ CAUSE_ENTITY_ATTACK</text>
<text text-anchor="start" x="71.5" y="-324.5" font-family="Helvetica,sans-Serif" font-size="10.00">+ CAUSE_PROJECTILE</text>
<text text-anchor="start" x="71.5" y="-311.5" font-family="Helvetica,sans-Serif" font-size="10.00">+ CAUSE_SUFFOCATION</text>
<text text-anchor="start" x="71.5" y="-298.5" font-family="Helvetica,sans-Serif" font-size="10.00">+ CAUSE_FALL</text>
<text text-anchor="start" x="71.5" y="-285.5" font-family="Helvetica,sans-Serif" font-size="10.00">+ CAUSE_FIRE</text>
<text text-anchor="start" x="71.5" y="-272.5" font-family="Helvetica,sans-Serif" font-size="10.00">+ CAUSE_FIRE_TICK</text>
<text text-anchor="start" x="71.5" y="-259.5" font-family="Helvetica,sans-Serif" font-size="10.00">+ CAUSE_LAVA</text>
<text text-anchor="start" x="71.5" y="-246.5" font-family="Helvetica,sans-Serif" font-size="10.00">and 7 more...</text>
<text text-anchor="start" x="71.5" y="-233.5" font-family="Helvetica,sans-Serif" font-size="10.00">+ $handlerList</text>
<polyline fill="none" stroke="black" points="63.5,-225.5 210.5,-225.5 "/>
<text text-anchor="start" x="71.5" y="-212.5" font-family="Helvetica,sans-Serif" font-size="10.00">+ __construct()</text>
<text text-anchor="start" x="71.5" y="-199.5" font-family="Helvetica,sans-Serif" font-size="10.00">+ getCause()</text>
<text text-anchor="start" x="71.5" y="-186.5" font-family="Helvetica,sans-Serif" font-size="10.00">+ getOriginalDamage()</text>
<text text-anchor="start" x="71.5" y="-173.5" font-family="Helvetica,sans-Serif" font-size="10.00">+ getDamage()</text>
<text text-anchor="start" x="71.5" y="-160.5" font-family="Helvetica,sans-Serif" font-size="10.00">+ setDamage()</text>
<text text-anchor="start" x="71.5" y="-147.5" font-family="Helvetica,sans-Serif" font-size="10.00">+ isApplicable()</text>
<text text-anchor="start" x="71.5" y="-134.5" font-family="Helvetica,sans-Serif" font-size="10.00">+ getFinalDamage()</text>
</a>
</g>
<!-- Node2&#45;&gt;Node1 -->
<g id="edge2" class="edge"><title>Node2&#45;&gt;Node1</title>
<path fill="none" stroke="midnightblue" d="M137,-116.369C137,-106.879 137,-97.8553 137,-89.6148"/>
<polygon fill="none" stroke="midnightblue" points="133.5,-116.413 137,-126.413 140.5,-116.413 133.5,-116.413"/>
</g>
<!-- Node3 -->
<g id="node4" class="node"><title>Node3</title>
<a xlink:href="../../de/d84/classpocketmine_1_1event_1_1entity_1_1_entity_event.html" target="_top" xlink:title="{pocketmine\\event\\entity\l\\EntityEvent\n|# $entity\l|+ getEntity()\l}">
<polygon fill="white" stroke="black" points="0.5,-461 0.5,-537 121.5,-537 121.5,-461 0.5,-461"/>
<text text-anchor="start" x="8.5" y="-524" font-family="Helvetica,sans-Serif" font-size="10.00">pocketmine\event\entity</text>
<text text-anchor="middle" x="61" y="-511" font-family="Helvetica,sans-Serif" font-size="10.00">\EntityEvent</text>
<polyline fill="none" stroke="black" points="0.5,-503 121.5,-503 "/>
<text text-anchor="start" x="8.5" y="-490" font-family="Helvetica,sans-Serif" font-size="10.00"># $entity</text>
<polyline fill="none" stroke="black" points="0.5,-482 121.5,-482 "/>
<text text-anchor="start" x="8.5" y="-469" font-family="Helvetica,sans-Serif" font-size="10.00">+ getEntity()</text>
</a>
</g>
<!-- Node3&#45;&gt;Node2 -->
<g id="edge4" class="edge"><title>Node3&#45;&gt;Node2</title>
<path fill="none" stroke="midnightblue" d="M77.257,-451.085C80.1551,-442.543 83.3075,-433.252 86.5994,-423.549"/>
<polygon fill="none" stroke="midnightblue" points="73.8771,-450.153 73.9785,-460.748 80.506,-452.402 73.8771,-450.153"/>
</g>
<!-- Node4 -->
<g id="node6" class="node"><title>Node4</title>
<a xlink:href="../../d1/d2f/classpocketmine_1_1event_1_1_event.html" target="_top" xlink:title="{pocketmine\\event\\Event\n|# $eventName\l|+ getEventName()\l+ isCancelled()\l+ setCancelled()\l+ getHandlers()\l}">
<polygon fill="white" stroke="black" points="0,-575 0,-677 122,-677 122,-575 0,-575"/>
<text text-anchor="middle" x="61" y="-664" font-family="Helvetica,sans-Serif" font-size="10.00">pocketmine\event\Event</text>
<polyline fill="none" stroke="black" points="0,-656 122,-656 "/>
<text text-anchor="start" x="8" y="-643" font-family="Helvetica,sans-Serif" font-size="10.00"># $eventName</text>
<polyline fill="none" stroke="black" points="0,-635 122,-635 "/>
<text text-anchor="start" x="8" y="-622" font-family="Helvetica,sans-Serif" font-size="10.00">+ getEventName()</text>
<text text-anchor="start" x="8" y="-609" font-family="Helvetica,sans-Serif" font-size="10.00">+ isCancelled()</text>
<text text-anchor="start" x="8" y="-596" font-family="Helvetica,sans-Serif" font-size="10.00">+ setCancelled()</text>
<text text-anchor="start" x="8" y="-583" font-family="Helvetica,sans-Serif" font-size="10.00">+ getHandlers()</text>
</a>
</g>
<!-- Node4&#45;&gt;Node3 -->
<g id="edge6" class="edge"><title>Node4&#45;&gt;Node3</title>
<path fill="none" stroke="midnightblue" d="M61,-564.625C61,-555.273 61,-545.859 61,-537.197"/>
<polygon fill="none" stroke="midnightblue" points="57.5001,-564.71 61,-574.71 64.5001,-564.71 57.5001,-564.71"/>
</g>
<!-- Node5 -->
<g id="node8" class="node"><title>Node5</title>
<a xlink:href="../../db/d62/interfacepocketmine_1_1event_1_1_cancellable.html" target="_top" xlink:title="{pocketmine\\event\\Cancellable\n||+ isCancelled()\l+ setCancelled()\l}">
<polygon fill="white" stroke="black" points="139,-461 139,-537 287,-537 287,-461 139,-461"/>
<text text-anchor="middle" x="213" y="-524" font-family="Helvetica,sans-Serif" font-size="10.00">pocketmine\event\Cancellable</text>
<polyline fill="none" stroke="black" points="139,-516 287,-516 "/>
<text text-anchor="middle" x="213" y="-503" font-family="Helvetica,sans-Serif" font-size="10.00"> </text>
<polyline fill="none" stroke="black" points="139,-495 287,-495 "/>
<text text-anchor="start" x="147" y="-482" font-family="Helvetica,sans-Serif" font-size="10.00">+ isCancelled()</text>
<text text-anchor="start" x="147" y="-469" font-family="Helvetica,sans-Serif" font-size="10.00">+ setCancelled()</text>
</a>
</g>
<!-- Node5&#45;&gt;Node2 -->
<g id="edge8" class="edge"><title>Node5&#45;&gt;Node2</title>
<path fill="none" stroke="midnightblue" d="M196.743,-451.085C193.845,-442.543 190.693,-433.252 187.401,-423.549"/>
<polygon fill="none" stroke="midnightblue" points="193.494,-452.402 200.021,-460.748 200.123,-450.153 193.494,-452.402"/>
</g>
</g>
</svg>
        <g id="navigator" transform="translate(0 0)" fill="#404254">
                <rect fill="#f2f5e9" fill-opacity="0.5" stroke="#606060" stroke-width=".5" x="0" y="0" width="60" height="60"/>
                <use id="zoomplus" xlink:href="#zoomPlus" x="17" y="9" onmousedown="handleZoom(evt,'in')"/>
                <use id="zoomminus" xlink:href="#zoomMin" x="42" y="9" onmousedown="handleZoom(evt,'out')"/>
                <use id="reset" xlink:href="#resetDef" x="30" y="36" onmousedown="handleReset()"/>
                <g id="arrowUp" xlink:href="#dirArrow" transform="translate(30 24)" onmousedown="handlePan(0,-1)">
                  <use xlink:href="#rim" fill="#404040">
                        <set attributeName="fill" to="#808080" begin="arrowUp.mouseover" end="arrowUp.mouseout"/>
                  </use>
                  <path fill="none" stroke="white" stroke-width="1.5" d="M0,-3.0v7 M-2.5,-0.5L0,-3.0L2.5,-0.5"/>
                </g>
                <g id="arrowRight" xlink:href="#dirArrow" transform="rotate(90) translate(36 -43)" onmousedown="handlePan(1,0)">
                  <use xlink:href="#rim" fill="#404040">
                        <set attributeName="fill" to="#808080" begin="arrowRight.mouseover" end="arrowRight.mouseout"/>
                  </use>
                  <path fill="none" stroke="white" stroke-width="1.5" d="M0,-3.0v7 M-2.5,-0.5L0,-3.0L2.5,-0.5"/>
                </g>
                <g id="arrowDown" xlink:href="#dirArrow" transform="rotate(180) translate(-30 -48)" onmousedown="handlePan(0,1)">
                  <use xlink:href="#rim" fill="#404040">
                        <set attributeName="fill" to="#808080" begin="arrowDown.mouseover" end="arrowDown.mouseout"/>
                  </use>
                  <path fill="none" stroke="white" stroke-width="1.5" d="M0,-3.0v7 M-2.5,-0.5L0,-3.0L2.5,-0.5"/>
                </g>
                <g id="arrowLeft" xlink:href="#dirArrow" transform="rotate(270) translate(-36 17)" onmousedown="handlePan(-1,0)">
                  <use xlink:href="#rim" fill="#404040">
                        <set attributeName="fill" to="#808080" begin="arrowLeft.mouseover" end="arrowLeft.mouseout"/>
                  </use>
                  <path fill="none" stroke="white" stroke-width="1.5" d="M0,-3.0v7 M-2.5,-0.5L0,-3.0L2.5,-0.5"/>
                </g>
        </g>
        <svg viewBox="0 0 15 15" width="100%" height="30px" preserveAspectRatio="xMaxYMin meet">
         <g id="arrow_out" transform="scale(0.3 0.3)">
          <a xlink:href="classpocketmine_1_1event_1_1entity_1_1_entity_damage_by_entity_event__coll__graph_org.svg" target="_base">
           <rect id="button" ry="5" rx="5" y="6" x="6" height="38" width="38"
                fill="#f2f5e9" fill-opacity="0.5" stroke="#606060" stroke-width="1.0"/>
           <path id="arrow"
             d="M 11.500037,31.436501 C 11.940474,20.09759 22.043105,11.32322 32.158766,21.979434 L 37.068811,17.246167 C 37.068811,17.246167 37.088388,32 37.088388,32 L 22.160133,31.978069 C 22.160133,31.978069 26.997745,27.140456 26.997745,27.140456 C 18.528582,18.264221 13.291696,25.230495 11.500037,31.436501 z"
             style="fill:#404040;"/>
          </a>
         </g>
        </svg>
</svg>
