<?xml version="1.0" encoding="UTF-8" standalone="no"?>
<!DOCTYPE svg PUBLIC "-//W3C//DTD SVG 1.1//EN"
 "http://www.w3.org/Graphics/SVG/1.1/DTD/svg11.dtd">
<!-- Generated by graphviz version 2.36.0 (20140111.2315)
 -->
<!-- Title: pocketmine\event\block\BlockUpdateEvent Pages: 1 -->
<svg width="318pt" height="322pt"
 viewBox="0.00 0.00 318.00 322.00" xmlns="http://www.w3.org/2000/svg" xmlns:xlink="http://www.w3.org/1999/xlink">
<g id="graph0" class="graph" transform="scale(1 1) rotate(0) translate(4 318)">
<title>pocketmine\event\block\BlockUpdateEvent</title>
<polygon fill="white" stroke="none" points="-4,4 -4,-318 314,-318 314,4 -4,4"/>
<!-- Node1 -->
<g id="node1" class="node"><title>Node1</title>
<polygon fill="#bfbfbf" stroke="black" points="82.5,-1 82.5,-91 213.5,-91 213.5,-1 82.5,-1"/>
<text text-anchor="start" x="90.5" y="-79" font-family="Helvetica,sans-Serif" font-size="10.00">pocketmine\event\block</text>
<text text-anchor="middle" x="148" y="-68" font-family="Helvetica,sans-Serif" font-size="10.00">\BlockUpdateEvent</text>
<polyline fill="none" stroke="black" points="82.5,-61 213.5,-61 "/>
<text text-anchor="start" x="90.5" y="-49" font-family="Helvetica,sans-Serif" font-size="10.00">+ $handlerList</text>
<text text-anchor="start" x="90.5" y="-38" font-family="Helvetica,sans-Serif" font-size="10.00">+ $eventPool</text>
<text text-anchor="start" x="90.5" y="-27" font-family="Helvetica,sans-Serif" font-size="10.00">+ $nextEvent</text>
<polyline fill="none" stroke="black" points="82.5,-20 213.5,-20 "/>
<text text-anchor="middle" x="148" y="-8" font-family="Helvetica,sans-Serif" font-size="10.00"> </text>
</g>
<!-- Node2 -->
<g id="node2" class="node"><title>Node2</title>
<g id="a_node2"><a xlink:href="../../df/d69/classpocketmine_1_1event_1_1block_1_1_block_event.html" target="_top" xlink:title="{pocketmine\\event\\block\l\\BlockEvent\n|# $block\l|+ __construct()\l+ getBlock()\l}">
<polygon fill="white" stroke="black" points="0.5,-128.5 0.5,-207.5 131.5,-207.5 131.5,-128.5 0.5,-128.5"/>
<text text-anchor="start" x="8.5" y="-195.5" font-family="Helvetica,sans-Serif" font-size="10.00">pocketmine\event\block</text>
<text text-anchor="middle" x="66" y="-184.5" font-family="Helvetica,sans-Serif" font-size="10.00">\BlockEvent</text>
<polyline fill="none" stroke="black" points="0.5,-177.5 131.5,-177.5 "/>
<text text-anchor="start" x="8.5" y="-165.5" font-family="Helvetica,sans-Serif" font-size="10.00"># $block</text>
<polyline fill="none" stroke="black" points="0.5,-158.5 131.5,-158.5 "/>
<text text-anchor="start" x="8.5" y="-146.5" font-family="Helvetica,sans-Serif" font-size="10.00">+ __construct()</text>
<text text-anchor="start" x="8.5" y="-135.5" font-family="Helvetica,sans-Serif" font-size="10.00">+ getBlock()</text>
</a>
</g>
</g>
<!-- Node2&#45;&gt;Node1 -->
<g id="edge1" class="edge"><title>Node2&#45;&gt;Node1</title>
<path fill="none" stroke="midnightblue" d="M98.1821,-119.904C104.595,-110.519 111.31,-100.692 117.659,-91.4012"/>
<polygon fill="none" stroke="midnightblue" points="95.1489,-118.14 92.3967,-128.371 100.928,-122.089 95.1489,-118.14"/>
</g>
<!-- Node3 -->
<g id="node3" class="node"><title>Node3</title>
<g id="a_node3"><a xlink:href="../../d1/d2f/classpocketmine_1_1event_1_1_event.html" target="_top" xlink:title="{pocketmine\\event\\Event\n|# $eventName\l|+ getEventName()\l+ getHandlers()\l}">
<polygon fill="white" stroke="black" points="-0.5,-245 -0.5,-313 132.5,-313 132.5,-245 -0.5,-245"/>
<text text-anchor="middle" x="66" y="-301" font-family="Helvetica,sans-Serif" font-size="10.00">pocketmine\event\Event</text>
<polyline fill="none" stroke="black" points="-0.5,-294 132.5,-294 "/>
<text text-anchor="start" x="7.5" y="-282" font-family="Helvetica,sans-Serif" font-size="10.00"># $eventName</text>
<polyline fill="none" stroke="black" points="-0.5,-275 132.5,-275 "/>
<text text-anchor="start" x="7.5" y="-263" font-family="Helvetica,sans-Serif" font-size="10.00">+ getEventName()</text>
<text text-anchor="start" x="7.5" y="-252" font-family="Helvetica,sans-Serif" font-size="10.00">+ getHandlers()</text>
</a>
</g>
</g>
<!-- Node3&#45;&gt;Node2 -->
<g id="edge2" class="edge"><title>Node3&#45;&gt;Node2</title>
<path fill="none" stroke="midnightblue" d="M66,-234.575C66,-225.737 66,-216.493 66,-207.827"/>
<polygon fill="none" stroke="midnightblue" points="62.5001,-234.704 66,-244.704 69.5001,-234.704 62.5001,-234.704"/>
</g>
<!-- Node4 -->
<g id="node4" class="node"><title>Node4</title>
<g id="a_node4"><a xlink:href="../../db/d62/interfacepocketmine_1_1event_1_1_cancellable.html" target="_top" xlink:title="{pocketmine\\event\\Cancellable\n||+ isCancelled()\l+ setCancelled()\l}">
<polygon fill="white" stroke="black" points="149.5,-134 149.5,-202 310.5,-202 310.5,-134 149.5,-134"/>
<text text-anchor="middle" x="230" y="-190" font-family="Helvetica,sans-Serif" font-size="10.00">pocketmine\event\Cancellable</text>
<polyline fill="none" stroke="black" points="149.5,-183 310.5,-183 "/>
<text text-anchor="middle" x="230" y="-171" font-family="Helvetica,sans-Serif" font-size="10.00"> </text>
<polyline fill="none" stroke="black" points="149.5,-164 310.5,-164 "/>
<text text-anchor="start" x="157.5" y="-152" font-family="Helvetica,sans-Serif" font-size="10.00">+ isCancelled()</text>
<text text-anchor="start" x="157.5" y="-141" font-family="Helvetica,sans-Serif" font-size="10.00">+ setCancelled()</text>
</a>
</g>
</g>
<!-- Node4&#45;&gt;Node1 -->
<g id="edge3" class="edge"><title>Node4&#45;&gt;Node1</title>
<path fill="none" stroke="midnightblue" d="M201.722,-125.618C194.139,-114.521 185.911,-102.48 178.227,-91.2349"/>
<polygon fill="none" stroke="midnightblue" points="198.844,-127.61 207.376,-133.892 204.624,-123.661 198.844,-127.61"/>
</g>
</g>
</svg>
