<?xml version="1.0" encoding="UTF-8" standalone="no"?>
<!DOCTYPE svg PUBLIC "-//W3C//DTD SVG 1.1//EN"
 "http://www.w3.org/Graphics/SVG/1.1/DTD/svg11.dtd">
<!-- Generated by graphviz version 2.26.3 (20100126.1600)
 -->
<!-- Title: G Pages: 1 -->
<!--zoomable 1060 -->
<svg id="main" version="1.1" xmlns="http://www.w3.org/2000/svg" xmlns:xlink="http://www.w3.org/1999/xlink" xml:space="preserve" onload="init(evt)">
        <defs>
                <circle id="rim" cx="0" cy="0" r="7"/>
                <circle id="rim2" cx="0" cy="0" r="3.5"/>
                <g id="zoomPlus">
                        <use xlink:href="#rim" fill="#404040">
                                <set attributeName="fill" to="#808080" begin="zoomplus.mouseover" end="zoomplus.mouseout"/>
                        </use>
                        <path d="M-4,0h8M0,-4v8" fill="none" stroke="white" stroke-width="1.5" pointer-events="none"/>
                </g>
                <g id="zoomMin">
                        <use xlink:href="#rim" fill="#404040">
                                <set attributeName="fill" to="#808080" begin="zoomminus.mouseover" end="zoomminus.mouseout"/>
                        </use>
                        <path d="M-4,0h8" fill="none" stroke="white" stroke-width="1.5" pointer-events="none"/>
                </g>
                <g id="dirArrow">
                        <path fill="none" stroke="white" stroke-width="1.5" d="M0,-3.0v7 M-2.5,-0.5L0,-3.0L2.5,-0.5"/>
                </g>
               <g id="resetDef">
                       <use xlink:href="#rim2" fill="#404040">
                               <set attributeName="fill" to="#808080" begin="reset.mouseover" end="reset.mouseout"/>
                       </use>
               </g>
        </defs>

<script type="text/javascript">
var viewWidth = 614;
var viewHeight = 1060;
var sectionId = 'dynsection-0';
</script>
<script xlink:href="../../svgpan.js"/>
<svg id="graph" class="graph">
<g id="viewport">
<title>G</title>
<polygon fill="white" stroke="white" points="-4,5 -4,-1056 611,-1056 611,5 -4,5"/>
<!-- Node1 -->
<g id="node1" class="node"><title>Node1</title>
<polygon fill="#bfbfbf" stroke="black" points="208.5,-423 208.5,-499 403.5,-499 403.5,-423 208.5,-423"/>
<text text-anchor="middle" x="306" y="-486" font-family="Helvetica,sans-Serif" font-size="10.00">pocketmine\inventory\ContainerInventory</text>
<polyline fill="none" stroke="black" points="208.5,-478 403.5,-478 "/>
<text text-anchor="middle" x="306" y="-465" font-family="Helvetica,sans-Serif" font-size="10.00"> </text>
<polyline fill="none" stroke="black" points="208.5,-457 403.5,-457 "/>
<text text-anchor="start" x="216.5" y="-444" font-family="Helvetica,sans-Serif" font-size="10.00">+ onOpen()</text>
<text text-anchor="start" x="216.5" y="-431" font-family="Helvetica,sans-Serif" font-size="10.00">+ onClose()</text>
</g>
<!-- Node4 -->
<g id="node7" class="node"><title>Node4</title>
<a xlink:href="../../d3/dd8/classpocketmine_1_1inventory_1_1_chest_inventory.html" target="_top" xlink:title="{pocketmine\\inventory\\ChestInventory\n||+ __construct()\l+ getHolder()\l+ onOpen()\l+ onClose()\l}">
<polygon fill="white" stroke="black" points="15.5,-251 15.5,-353 194.5,-353 194.5,-251 15.5,-251"/>
<text text-anchor="middle" x="105" y="-340" font-family="Helvetica,sans-Serif" font-size="10.00">pocketmine\inventory\ChestInventory</text>
<polyline fill="none" stroke="black" points="15.5,-332 194.5,-332 "/>
<text text-anchor="middle" x="105" y="-319" font-family="Helvetica,sans-Serif" font-size="10.00"> </text>
<polyline fill="none" stroke="black" points="15.5,-311 194.5,-311 "/>
<text text-anchor="start" x="23.5" y="-298" font-family="Helvetica,sans-Serif" font-size="10.00">+ __construct()</text>
<text text-anchor="start" x="23.5" y="-285" font-family="Helvetica,sans-Serif" font-size="10.00">+ getHolder()</text>
<text text-anchor="start" x="23.5" y="-272" font-family="Helvetica,sans-Serif" font-size="10.00">+ onOpen()</text>
<text text-anchor="start" x="23.5" y="-259" font-family="Helvetica,sans-Serif" font-size="10.00">+ onClose()</text>
</a>
</g>
<!-- Node1&#45;&gt;Node4 -->
<g id="edge6" class="edge"><title>Node1&#45;&gt;Node4</title>
<path fill="none" stroke="midnightblue" d="M243.603,-416.783C230.065,-406.853 215.933,-396.225 203,-386 189.904,-375.646 176.131,-364.205 163.184,-353.185"/>
<polygon fill="none" stroke="midnightblue" points="241.798,-419.799 251.939,-422.866 245.924,-414.144 241.798,-419.799"/>
</g>
<!-- Node6 -->
<g id="node11" class="node"><title>Node6</title>
<a xlink:href="../../d3/d01/classpocketmine_1_1inventory_1_1_custom_inventory.html" target="_top" xlink:title="{pocketmine\\inventory\\CustomInventory\n||}">
<polygon fill="white" stroke="black" points="212,-270.5 212,-333.5 400,-333.5 400,-270.5 212,-270.5"/>
<text text-anchor="middle" x="306" y="-320.5" font-family="Helvetica,sans-Serif" font-size="10.00">pocketmine\inventory\CustomInventory</text>
<polyline fill="none" stroke="black" points="212,-312.5 400,-312.5 "/>
<text text-anchor="middle" x="306" y="-299.5" font-family="Helvetica,sans-Serif" font-size="10.00"> </text>
<polyline fill="none" stroke="black" points="212,-291.5 400,-291.5 "/>
<text text-anchor="middle" x="306" y="-278.5" font-family="Helvetica,sans-Serif" font-size="10.00"> </text>
</a>
</g>
<!-- Node1&#45;&gt;Node6 -->
<g id="edge10" class="edge"><title>Node1&#45;&gt;Node6</title>
<path fill="none" stroke="midnightblue" d="M306,-412.641C306,-386.99 306,-356.202 306,-333.623"/>
<polygon fill="none" stroke="midnightblue" points="302.5,-412.916 306,-422.916 309.5,-412.916 302.5,-412.916"/>
</g>
<!-- Node7 -->
<g id="node13" class="node"><title>Node7</title>
<a xlink:href="../../dc/d34/classpocketmine_1_1inventory_1_1_furnace_inventory.html" target="_top" xlink:title="{pocketmine\\inventory\\FurnaceInventory\n||+ __construct()\l+ getHolder()\l+ getResult()\l+ getFuel()\l+ getSmelting()\l+ setResult()\l+ setFuel()\l+ setSmelting()\l+ onSlotChange()\l}">
<polygon fill="white" stroke="black" points="418,-218.5 418,-385.5 606,-385.5 606,-218.5 418,-218.5"/>
<text text-anchor="middle" x="512" y="-372.5" font-family="Helvetica,sans-Serif" font-size="10.00">pocketmine\inventory\FurnaceInventory</text>
<polyline fill="none" stroke="black" points="418,-364.5 606,-364.5 "/>
<text text-anchor="middle" x="512" y="-351.5" font-family="Helvetica,sans-Serif" font-size="10.00"> </text>
<polyline fill="none" stroke="black" points="418,-343.5 606,-343.5 "/>
<text text-anchor="start" x="426" y="-330.5" font-family="Helvetica,sans-Serif" font-size="10.00">+ __construct()</text>
<text text-anchor="start" x="426" y="-317.5" font-family="Helvetica,sans-Serif" font-size="10.00">+ getHolder()</text>
<text text-anchor="start" x="426" y="-304.5" font-family="Helvetica,sans-Serif" font-size="10.00">+ getResult()</text>
<text text-anchor="start" x="426" y="-291.5" font-family="Helvetica,sans-Serif" font-size="10.00">+ getFuel()</text>
<text text-anchor="start" x="426" y="-278.5" font-family="Helvetica,sans-Serif" font-size="10.00">+ getSmelting()</text>
<text text-anchor="start" x="426" y="-265.5" font-family="Helvetica,sans-Serif" font-size="10.00">+ setResult()</text>
<text text-anchor="start" x="426" y="-252.5" font-family="Helvetica,sans-Serif" font-size="10.00">+ setFuel()</text>
<text text-anchor="start" x="426" y="-239.5" font-family="Helvetica,sans-Serif" font-size="10.00">+ setSmelting()</text>
<text text-anchor="start" x="426" y="-226.5" font-family="Helvetica,sans-Serif" font-size="10.00">+ onSlotChange()</text>
</a>
</g>
<!-- Node1&#45;&gt;Node7 -->
<g id="edge12" class="edge"><title>Node1&#45;&gt;Node7</title>
<path fill="none" stroke="midnightblue" d="M367.984,-416.709C381.601,-406.745 395.871,-396.122 409,-386 411.924,-383.746 414.885,-381.445 417.866,-379.113"/>
<polygon fill="none" stroke="midnightblue" points="365.624,-414.098 359.606,-422.817 369.748,-419.754 365.624,-414.098"/>
</g>
<!-- Node2 -->
<g id="node2" class="node"><title>Node2</title>
<a xlink:href="../../d5/dc4/classpocketmine_1_1inventory_1_1_base_inventory.html" target="_top" xlink:title="{pocketmine\\inventory\\BaseInventory\n|# $type\l# $maxStackSize\l# $size\l# $name\l# $title\l# $slots\l# $viewers\l# $holder\l|+ __construct()\l+ getSize()\l+ getMaxStackSize()\l+ getName()\l+ getTitle()\l+ getItem()\l+ getContents()\l+ setContents()\l+ setItem()\l+ contains()\land 17 more...}">
<polygon fill="white" stroke="black" points="218,-537 218,-821 394,-821 394,-537 218,-537"/>
<text text-anchor="middle" x="306" y="-808" font-family="Helvetica,sans-Serif" font-size="10.00">pocketmine\inventory\BaseInventory</text>
<polyline fill="none" stroke="black" points="218,-800 394,-800 "/>
<text text-anchor="start" x="226" y="-787" font-family="Helvetica,sans-Serif" font-size="10.00"># $type</text>
<text text-anchor="start" x="226" y="-774" font-family="Helvetica,sans-Serif" font-size="10.00"># $maxStackSize</text>
<text text-anchor="start" x="226" y="-761" font-family="Helvetica,sans-Serif" font-size="10.00"># $size</text>
<text text-anchor="start" x="226" y="-748" font-family="Helvetica,sans-Serif" font-size="10.00"># $name</text>
<text text-anchor="start" x="226" y="-735" font-family="Helvetica,sans-Serif" font-size="10.00"># $title</text>
<text text-anchor="start" x="226" y="-722" font-family="Helvetica,sans-Serif" font-size="10.00"># $slots</text>
<text text-anchor="start" x="226" y="-709" font-family="Helvetica,sans-Serif" font-size="10.00"># $viewers</text>
<text text-anchor="start" x="226" y="-696" font-family="Helvetica,sans-Serif" font-size="10.00"># $holder</text>
<polyline fill="none" stroke="black" points="218,-688 394,-688 "/>
<text text-anchor="start" x="226" y="-675" font-family="Helvetica,sans-Serif" font-size="10.00">+ __construct()</text>
<text text-anchor="start" x="226" y="-662" font-family="Helvetica,sans-Serif" font-size="10.00">+ getSize()</text>
<text text-anchor="start" x="226" y="-649" font-family="Helvetica,sans-Serif" font-size="10.00">+ getMaxStackSize()</text>
<text text-anchor="start" x="226" y="-636" font-family="Helvetica,sans-Serif" font-size="10.00">+ getName()</text>
<text text-anchor="start" x="226" y="-623" font-family="Helvetica,sans-Serif" font-size="10.00">+ getTitle()</text>
<text text-anchor="start" x="226" y="-610" font-family="Helvetica,sans-Serif" font-size="10.00">+ getItem()</text>
<text text-anchor="start" x="226" y="-597" font-family="Helvetica,sans-Serif" font-size="10.00">+ getContents()</text>
<text text-anchor="start" x="226" y="-584" font-family="Helvetica,sans-Serif" font-size="10.00">+ setContents()</text>
<text text-anchor="start" x="226" y="-571" font-family="Helvetica,sans-Serif" font-size="10.00">+ setItem()</text>
<text text-anchor="start" x="226" y="-558" font-family="Helvetica,sans-Serif" font-size="10.00">+ contains()</text>
<text text-anchor="middle" x="306" y="-545" font-family="Helvetica,sans-Serif" font-size="10.00">and 17 more...</text>
</a>
</g>
<!-- Node2&#45;&gt;Node1 -->
<g id="edge2" class="edge"><title>Node2&#45;&gt;Node1</title>
<path fill="none" stroke="midnightblue" d="M306,-526.884C306,-517.002 306,-507.683 306,-499.335"/>
<polygon fill="none" stroke="midnightblue" points="302.5,-526.94 306,-536.94 309.5,-526.94 302.5,-526.94"/>
</g>
<!-- Node3 -->
<g id="node4" class="node"><title>Node3</title>
<a xlink:href="../../db/d39/interfacepocketmine_1_1inventory_1_1_inventory.html" target="_top" xlink:title="{pocketmine\\inventory\\Inventory\n|+ MAX_STACK\l|+ getSize()\l+ getMaxStackSize()\l+ setMaxStackSize()\l+ getName()\l+ getTitle()\l+ getItem()\l+ setItem()\l+ addItem()\l+ canAddItem()\l+ removeItem()\land 18 more...}">
<polygon fill="white" stroke="black" points="229.5,-858.5 229.5,-1051.5 382.5,-1051.5 382.5,-858.5 229.5,-858.5"/>
<text text-anchor="middle" x="306" y="-1038.5" font-family="Helvetica,sans-Serif" font-size="10.00">pocketmine\inventory\Inventory</text>
<polyline fill="none" stroke="black" points="229.5,-1030.5 382.5,-1030.5 "/>
<text text-anchor="start" x="237.5" y="-1017.5" font-family="Helvetica,sans-Serif" font-size="10.00">+ MAX_STACK</text>
<polyline fill="none" stroke="black" points="229.5,-1009.5 382.5,-1009.5 "/>
<text text-anchor="start" x="237.5" y="-996.5" font-family="Helvetica,sans-Serif" font-size="10.00">+ getSize()</text>
<text text-anchor="start" x="237.5" y="-983.5" font-family="Helvetica,sans-Serif" font-size="10.00">+ getMaxStackSize()</text>
<text text-anchor="start" x="237.5" y="-970.5" font-family="Helvetica,sans-Serif" font-size="10.00">+ setMaxStackSize()</text>
<text text-anchor="start" x="237.5" y="-957.5" font-family="Helvetica,sans-Serif" font-size="10.00">+ getName()</text>
<text text-anchor="start" x="237.5" y="-944.5" font-family="Helvetica,sans-Serif" font-size="10.00">+ getTitle()</text>
<text text-anchor="start" x="237.5" y="-931.5" font-family="Helvetica,sans-Serif" font-size="10.00">+ getItem()</text>
<text text-anchor="start" x="237.5" y="-918.5" font-family="Helvetica,sans-Serif" font-size="10.00">+ setItem()</text>
<text text-anchor="start" x="237.5" y="-905.5" font-family="Helvetica,sans-Serif" font-size="10.00">+ addItem()</text>
<text text-anchor="start" x="237.5" y="-892.5" font-family="Helvetica,sans-Serif" font-size="10.00">+ canAddItem()</text>
<text text-anchor="start" x="237.5" y="-879.5" font-family="Helvetica,sans-Serif" font-size="10.00">+ removeItem()</text>
<text text-anchor="middle" x="306" y="-866.5" font-family="Helvetica,sans-Serif" font-size="10.00">and 18 more...</text>
</a>
</g>
<!-- Node3&#45;&gt;Node2 -->
<g id="edge4" class="edge"><title>Node3&#45;&gt;Node2</title>
<path fill="none" stroke="midnightblue" d="M306,-848.425C306,-839.452 306,-830.291 306,-821.106"/>
<polygon fill="none" stroke="midnightblue" points="302.5,-848.469 306,-858.469 309.5,-848.469 302.5,-848.469"/>
</g>
<!-- Node5 -->
<g id="node9" class="node"><title>Node5</title>
<a xlink:href="../../d6/d3e/classpocketmine_1_1inventory_1_1_double_chest_inventory.html" target="_top" xlink:title="{pocketmine\\inventory\\DoubleChestInventory\n||+ __construct()\l+ getInventory()\l+ getHolder()\l+ getItem()\l+ setItem()\l+ clear()\l+ getContents()\l+ setContents()\l+ getLeftSide()\l+ getRightSide()\l}">
<polygon fill="white" stroke="black" points="0,-1 0,-181 210,-181 210,-1 0,-1"/>
<text text-anchor="middle" x="105" y="-168" font-family="Helvetica,sans-Serif" font-size="10.00">pocketmine\inventory\DoubleChestInventory</text>
<polyline fill="none" stroke="black" points="0,-160 210,-160 "/>
<text text-anchor="middle" x="105" y="-147" font-family="Helvetica,sans-Serif" font-size="10.00"> </text>
<polyline fill="none" stroke="black" points="0,-139 210,-139 "/>
<text text-anchor="start" x="8" y="-126" font-family="Helvetica,sans-Serif" font-size="10.00">+ __construct()</text>
<text text-anchor="start" x="8" y="-113" font-family="Helvetica,sans-Serif" font-size="10.00">+ getInventory()</text>
<text text-anchor="start" x="8" y="-100" font-family="Helvetica,sans-Serif" font-size="10.00">+ getHolder()</text>
<text text-anchor="start" x="8" y="-87" font-family="Helvetica,sans-Serif" font-size="10.00">+ getItem()</text>
<text text-anchor="start" x="8" y="-74" font-family="Helvetica,sans-Serif" font-size="10.00">+ setItem()</text>
<text text-anchor="start" x="8" y="-61" font-family="Helvetica,sans-Serif" font-size="10.00">+ clear()</text>
<text text-anchor="start" x="8" y="-48" font-family="Helvetica,sans-Serif" font-size="10.00">+ getContents()</text>
<text text-anchor="start" x="8" y="-35" font-family="Helvetica,sans-Serif" font-size="10.00">+ setContents()</text>
<text text-anchor="start" x="8" y="-22" font-family="Helvetica,sans-Serif" font-size="10.00">+ getLeftSide()</text>
<text text-anchor="start" x="8" y="-9" font-family="Helvetica,sans-Serif" font-size="10.00">+ getRightSide()</text>
</a>
</g>
<!-- Node4&#45;&gt;Node5 -->
<g id="edge8" class="edge"><title>Node4&#45;&gt;Node5</title>
<path fill="none" stroke="midnightblue" d="M105,-240.819C105,-222.18 105,-201.285 105,-181.152"/>
<polygon fill="none" stroke="midnightblue" points="101.5,-240.923 105,-250.923 108.5,-240.923 101.5,-240.923"/>
</g>
</g>
</svg>
        <g id="navigator" transform="translate(0 0)" fill="#404254">
                <rect fill="#f2f5e9" fill-opacity="0.5" stroke="#606060" stroke-width=".5" x="0" y="0" width="60" height="60"/>
                <use id="zoomplus" xlink:href="#zoomPlus" x="17" y="9" onmousedown="handleZoom(evt,'in')"/>
                <use id="zoomminus" xlink:href="#zoomMin" x="42" y="9" onmousedown="handleZoom(evt,'out')"/>
                <use id="reset" xlink:href="#resetDef" x="30" y="36" onmousedown="handleReset()"/>
                <g id="arrowUp" xlink:href="#dirArrow" transform="translate(30 24)" onmousedown="handlePan(0,-1)">
                  <use xlink:href="#rim" fill="#404040">
                        <set attributeName="fill" to="#808080" begin="arrowUp.mouseover" end="arrowUp.mouseout"/>
                  </use>
                  <path fill="none" stroke="white" stroke-width="1.5" d="M0,-3.0v7 M-2.5,-0.5L0,-3.0L2.5,-0.5"/>
                </g>
                <g id="arrowRight" xlink:href="#dirArrow" transform="rotate(90) translate(36 -43)" onmousedown="handlePan(1,0)">
                  <use xlink:href="#rim" fill="#404040">
                        <set attributeName="fill" to="#808080" begin="arrowRight.mouseover" end="arrowRight.mouseout"/>
                  </use>
                  <path fill="none" stroke="white" stroke-width="1.5" d="M0,-3.0v7 M-2.5,-0.5L0,-3.0L2.5,-0.5"/>
                </g>
                <g id="arrowDown" xlink:href="#dirArrow" transform="rotate(180) translate(-30 -48)" onmousedown="handlePan(0,1)">
                  <use xlink:href="#rim" fill="#404040">
                        <set attributeName="fill" to="#808080" begin="arrowDown.mouseover" end="arrowDown.mouseout"/>
                  </use>
                  <path fill="none" stroke="white" stroke-width="1.5" d="M0,-3.0v7 M-2.5,-0.5L0,-3.0L2.5,-0.5"/>
                </g>
                <g id="arrowLeft" xlink:href="#dirArrow" transform="rotate(270) translate(-36 17)" onmousedown="handlePan(-1,0)">
                  <use xlink:href="#rim" fill="#404040">
                        <set attributeName="fill" to="#808080" begin="arrowLeft.mouseover" end="arrowLeft.mouseout"/>
                  </use>
                  <path fill="none" stroke="white" stroke-width="1.5" d="M0,-3.0v7 M-2.5,-0.5L0,-3.0L2.5,-0.5"/>
                </g>
        </g>
</svg>
