<?xml version="1.0" encoding="UTF-8" standalone="no"?>
<!DOCTYPE svg PUBLIC "-//W3C//DTD SVG 1.1//EN"
 "http://www.w3.org/Graphics/SVG/1.1/DTD/svg11.dtd">
<!-- Generated by graphviz version 2.26.3 (20100126.1600)
 -->
<!-- Title: G Pages: 1 -->
<svg width="216pt" height="316pt"
 viewBox="0.00 0.00 216.00 316.00" xmlns="http://www.w3.org/2000/svg" xmlns:xlink="http://www.w3.org/1999/xlink">
<g id="graph1" class="graph" transform="scale(1 1) rotate(0) translate(4 312)">
<title>G</title>
<polygon fill="white" stroke="white" points="-4,5 -4,-312 213,-312 213,5 -4,5"/>
<!-- Node1 -->
<g id="node1" class="node"><title>Node1</title>
<polygon fill="#bfbfbf" stroke="black" points="14.5,-192.5 14.5,-307.5 193.5,-307.5 193.5,-192.5 14.5,-192.5"/>
<text text-anchor="middle" x="104" y="-294.5" font-family="Helvetica,sans-Serif" font-size="10.00">pocketmine\command\CommandMap</text>
<polyline fill="none" stroke="black" points="14.5,-286.5 193.5,-286.5 "/>
<text text-anchor="middle" x="104" y="-273.5" font-family="Helvetica,sans-Serif" font-size="10.00"> </text>
<polyline fill="none" stroke="black" points="14.5,-265.5 193.5,-265.5 "/>
<text text-anchor="start" x="22.5" y="-252.5" font-family="Helvetica,sans-Serif" font-size="10.00">+ registerAll()</text>
<text text-anchor="start" x="22.5" y="-239.5" font-family="Helvetica,sans-Serif" font-size="10.00">+ register()</text>
<text text-anchor="start" x="22.5" y="-226.5" font-family="Helvetica,sans-Serif" font-size="10.00">+ dispatch()</text>
<text text-anchor="start" x="22.5" y="-213.5" font-family="Helvetica,sans-Serif" font-size="10.00">+ clearCommands()</text>
<text text-anchor="start" x="22.5" y="-200.5" font-family="Helvetica,sans-Serif" font-size="10.00">+ getCommand()</text>
</g>
<!-- Node2 -->
<g id="node3" class="node"><title>Node2</title>
<a xlink:href="../../d9/dce/classpocketmine_1_1command_1_1_simple_command_map.html" target="_top" xlink:title="{pocketmine\\command\\SimpleCommandMap\n|# $knownCommands\l|+ __construct()\l+ registerAll()\l+ register()\l+ dispatch()\l+ clearCommands()\l+ getCommand()\l+ getCommands()\l+ registerServerAliases()\l}">
<polygon fill="white" stroke="black" points="-0.5,-1 -0.5,-155 208.5,-155 208.5,-1 -0.5,-1"/>
<text text-anchor="middle" x="104" y="-142" font-family="Helvetica,sans-Serif" font-size="10.00">pocketmine\command\SimpleCommandMap</text>
<polyline fill="none" stroke="black" points="-0.5,-134 208.5,-134 "/>
<text text-anchor="start" x="7.5" y="-121" font-family="Helvetica,sans-Serif" font-size="10.00"># $knownCommands</text>
<polyline fill="none" stroke="black" points="-0.5,-113 208.5,-113 "/>
<text text-anchor="start" x="7.5" y="-100" font-family="Helvetica,sans-Serif" font-size="10.00">+ __construct()</text>
<text text-anchor="start" x="7.5" y="-87" font-family="Helvetica,sans-Serif" font-size="10.00">+ registerAll()</text>
<text text-anchor="start" x="7.5" y="-74" font-family="Helvetica,sans-Serif" font-size="10.00">+ register()</text>
<text text-anchor="start" x="7.5" y="-61" font-family="Helvetica,sans-Serif" font-size="10.00">+ dispatch()</text>
<text text-anchor="start" x="7.5" y="-48" font-family="Helvetica,sans-Serif" font-size="10.00">+ clearCommands()</text>
<text text-anchor="start" x="7.5" y="-35" font-family="Helvetica,sans-Serif" font-size="10.00">+ getCommand()</text>
<text text-anchor="start" x="7.5" y="-22" font-family="Helvetica,sans-Serif" font-size="10.00">+ getCommands()</text>
<text text-anchor="start" x="7.5" y="-9" font-family="Helvetica,sans-Serif" font-size="10.00">+ registerServerAliases()</text>
</a>
</g>
<!-- Node1&#45;&gt;Node2 -->
<g id="edge2" class="edge"><title>Node1&#45;&gt;Node2</title>
<path fill="none" stroke="midnightblue" d="M104,-182.033C104,-173.207 104,-164.116 104,-155.154"/>
<polygon fill="none" stroke="midnightblue" points="100.5,-182.248 104,-192.248 107.5,-182.248 100.5,-182.248"/>
</g>
</g>
</svg>
