<?xml version="1.0" encoding="UTF-8" standalone="no"?>
<!DOCTYPE svg PUBLIC "-//W3C//DTD SVG 1.1//EN"
 "http://www.w3.org/Graphics/SVG/1.1/DTD/svg11.dtd">
<!-- Generated by graphviz version 2.26.3 (20100126.1600)
 -->
<!-- Title: G Pages: 1 -->
<svg width="352pt" height="392pt"
 viewBox="0.00 0.00 352.00 392.00" xmlns="http://www.w3.org/2000/svg" xmlns:xlink="http://www.w3.org/1999/xlink">
<g id="graph1" class="graph" transform="scale(1 1) rotate(0) translate(4 388)">
<title>G</title>
<polygon fill="white" stroke="white" points="-4,5 -4,-388 349,-388 349,5 -4,5"/>
<!-- Node1 -->
<g id="node1" class="node"><title>Node1</title>
<polygon fill="#bfbfbf" stroke="black" points="79.5,-1 79.5,-129 278.5,-129 278.5,-1 79.5,-1"/>
<text text-anchor="middle" x="179" y="-116" font-family="Helvetica,sans-Serif" font-size="10.00">pocketmine\event\player\PlayerKickEvent</text>
<polyline fill="none" stroke="black" points="79.5,-108 278.5,-108 "/>
<text text-anchor="start" x="87.5" y="-95" font-family="Helvetica,sans-Serif" font-size="10.00">+ $handlerList</text>
<text text-anchor="start" x="87.5" y="-82" font-family="Helvetica,sans-Serif" font-size="10.00"># $quitMessage</text>
<text text-anchor="start" x="87.5" y="-69" font-family="Helvetica,sans-Serif" font-size="10.00"># $reason</text>
<polyline fill="none" stroke="black" points="79.5,-61 278.5,-61 "/>
<text text-anchor="start" x="87.5" y="-48" font-family="Helvetica,sans-Serif" font-size="10.00">+ __construct()</text>
<text text-anchor="start" x="87.5" y="-35" font-family="Helvetica,sans-Serif" font-size="10.00">+ getReason()</text>
<text text-anchor="start" x="87.5" y="-22" font-family="Helvetica,sans-Serif" font-size="10.00">+ setQuitMessage()</text>
<text text-anchor="start" x="87.5" y="-9" font-family="Helvetica,sans-Serif" font-size="10.00">+ getQuitMessage()</text>
</g>
<!-- Node2 -->
<g id="node2" class="node"><title>Node2</title>
<a xlink:href="../../d1/db1/classpocketmine_1_1event_1_1player_1_1_player_event.html" target="_top" xlink:title="{pocketmine\\event\\player\\PlayerEvent\n|# $player\l|+ getPlayer()\l}">
<polygon fill="white" stroke="black" points="-0.5,-173.5 -0.5,-236.5 178.5,-236.5 178.5,-173.5 -0.5,-173.5"/>
<text text-anchor="middle" x="89" y="-223.5" font-family="Helvetica,sans-Serif" font-size="10.00">pocketmine\event\player\PlayerEvent</text>
<polyline fill="none" stroke="black" points="-0.5,-215.5 178.5,-215.5 "/>
<text text-anchor="start" x="7.5" y="-202.5" font-family="Helvetica,sans-Serif" font-size="10.00"># $player</text>
<polyline fill="none" stroke="black" points="-0.5,-194.5 178.5,-194.5 "/>
<text text-anchor="start" x="7.5" y="-181.5" font-family="Helvetica,sans-Serif" font-size="10.00">+ getPlayer()</text>
</a>
</g>
<!-- Node2&#45;&gt;Node1 -->
<g id="edge2" class="edge"><title>Node2&#45;&gt;Node1</title>
<path fill="none" stroke="midnightblue" d="M114.942,-164.646C122.054,-153.583 129.945,-141.308 137.69,-129.26"/>
<polygon fill="none" stroke="midnightblue" points="111.886,-162.927 109.422,-173.232 117.774,-166.713 111.886,-162.927"/>
</g>
<!-- Node3 -->
<g id="node4" class="node"><title>Node3</title>
<a xlink:href="../../d1/d2f/classpocketmine_1_1event_1_1_event.html" target="_top" xlink:title="{pocketmine\\event\\Event\n|# $eventName\l|+ getEventName()\l+ isCancelled()\l+ setCancelled()\l+ getHandlers()\l}">
<polygon fill="white" stroke="black" points="28,-281 28,-383 150,-383 150,-281 28,-281"/>
<text text-anchor="middle" x="89" y="-370" font-family="Helvetica,sans-Serif" font-size="10.00">pocketmine\event\Event</text>
<polyline fill="none" stroke="black" points="28,-362 150,-362 "/>
<text text-anchor="start" x="36" y="-349" font-family="Helvetica,sans-Serif" font-size="10.00"># $eventName</text>
<polyline fill="none" stroke="black" points="28,-341 150,-341 "/>
<text text-anchor="start" x="36" y="-328" font-family="Helvetica,sans-Serif" font-size="10.00">+ getEventName()</text>
<text text-anchor="start" x="36" y="-315" font-family="Helvetica,sans-Serif" font-size="10.00">+ isCancelled()</text>
<text text-anchor="start" x="36" y="-302" font-family="Helvetica,sans-Serif" font-size="10.00">+ setCancelled()</text>
<text text-anchor="start" x="36" y="-289" font-family="Helvetica,sans-Serif" font-size="10.00">+ getHandlers()</text>
</a>
</g>
<!-- Node3&#45;&gt;Node2 -->
<g id="edge4" class="edge"><title>Node3&#45;&gt;Node2</title>
<path fill="none" stroke="midnightblue" d="M89,-270.5C89,-258.81 89,-247.03 89,-236.745"/>
<polygon fill="none" stroke="midnightblue" points="85.5001,-270.71 89,-280.71 92.5001,-270.71 85.5001,-270.71"/>
</g>
<!-- Node4 -->
<g id="node6" class="node"><title>Node4</title>
<a xlink:href="../../db/d62/interfacepocketmine_1_1event_1_1_cancellable.html" target="_top" xlink:title="{pocketmine\\event\\Cancellable\n||+ isCancelled()\l+ setCancelled()\l}">
<polygon fill="white" stroke="black" points="196,-167 196,-243 344,-243 344,-167 196,-167"/>
<text text-anchor="middle" x="270" y="-230" font-family="Helvetica,sans-Serif" font-size="10.00">pocketmine\event\Cancellable</text>
<polyline fill="none" stroke="black" points="196,-222 344,-222 "/>
<text text-anchor="middle" x="270" y="-209" font-family="Helvetica,sans-Serif" font-size="10.00"> </text>
<polyline fill="none" stroke="black" points="196,-201 344,-201 "/>
<text text-anchor="start" x="204" y="-188" font-family="Helvetica,sans-Serif" font-size="10.00">+ isCancelled()</text>
<text text-anchor="start" x="204" y="-175" font-family="Helvetica,sans-Serif" font-size="10.00">+ setCancelled()</text>
</a>
</g>
<!-- Node4&#45;&gt;Node1 -->
<g id="edge6" class="edge"><title>Node4&#45;&gt;Node1</title>
<path fill="none" stroke="midnightblue" d="M239.661,-158.324C233.559,-148.938 227.047,-138.919 220.638,-129.059"/>
<polygon fill="none" stroke="midnightblue" points="236.749,-160.267 245.134,-166.744 242.618,-156.452 236.749,-160.267"/>
</g>
</g>
</svg>
