<?xml version="1.0" encoding="UTF-8" standalone="no"?>
<!DOCTYPE svg PUBLIC "-//W3C//DTD SVG 1.1//EN"
 "http://www.w3.org/Graphics/SVG/1.1/DTD/svg11.dtd">
<!-- Generated by graphviz version 2.26.3 (20100126.1600)
 -->
<!-- Title: pocketmine\block\Wood Pages: 1 -->
<svg width="264pt" height="1382pt"
 viewBox="0.00 0.00 264.00 1382.00" xmlns="http://www.w3.org/2000/svg" xmlns:xlink="http://www.w3.org/1999/xlink">
<g id="graph1" class="graph" transform="scale(1 1) rotate(0) translate(4 1378)">
<title>pocketmine\block\Wood</title>
<polygon fill="white" stroke="white" points="-4,5 -4,-1378 261,-1378 261,5 -4,5"/>
<!-- Node1 -->
<g id="node1" class="node"><title>Node1</title>
<polygon fill="#bfbfbf" stroke="black" points="71,-1 71,-155 193,-155 193,-1 71,-1"/>
<text text-anchor="middle" x="132" y="-142" font-family="Helvetica,sans-Serif" font-size="10.00">pocketmine\block\Wood</text>
<polyline fill="none" stroke="black" points="71,-134 193,-134 "/>
<text text-anchor="start" x="79" y="-121" font-family="Helvetica,sans-Serif" font-size="10.00">+ OAK</text>
<text text-anchor="start" x="79" y="-108" font-family="Helvetica,sans-Serif" font-size="10.00">+ SPRUCE</text>
<text text-anchor="start" x="79" y="-95" font-family="Helvetica,sans-Serif" font-size="10.00">+ BIRCH</text>
<text text-anchor="start" x="79" y="-82" font-family="Helvetica,sans-Serif" font-size="10.00">+ JUNGLE</text>
<text text-anchor="start" x="79" y="-69" font-family="Helvetica,sans-Serif" font-size="10.00">+ ACACIA</text>
<text text-anchor="start" x="79" y="-56" font-family="Helvetica,sans-Serif" font-size="10.00">+ DARK_OAK</text>
<polyline fill="none" stroke="black" points="71,-48 193,-48 "/>
<text text-anchor="start" x="79" y="-35" font-family="Helvetica,sans-Serif" font-size="10.00">+ __construct()</text>
<text text-anchor="start" x="79" y="-22" font-family="Helvetica,sans-Serif" font-size="10.00">+ place()</text>
<text text-anchor="start" x="79" y="-9" font-family="Helvetica,sans-Serif" font-size="10.00">+ getDrops()</text>
</g>
<!-- Node2 -->
<g id="node2" class="node"><title>Node2</title>
<a xlink:href="../../d7/d17/classpocketmine_1_1block_1_1_solid.html" target="_top" xlink:title="{pocketmine\\block\\Solid\n||+ __construct()\l}">
<polygon fill="white" stroke="black" points="73,-192.5 73,-255.5 191,-255.5 191,-192.5 73,-192.5"/>
<text text-anchor="middle" x="132" y="-242.5" font-family="Helvetica,sans-Serif" font-size="10.00">pocketmine\block\Solid</text>
<polyline fill="none" stroke="black" points="73,-234.5 191,-234.5 "/>
<text text-anchor="middle" x="132" y="-221.5" font-family="Helvetica,sans-Serif" font-size="10.00"> </text>
<polyline fill="none" stroke="black" points="73,-213.5 191,-213.5 "/>
<text text-anchor="start" x="81" y="-200.5" font-family="Helvetica,sans-Serif" font-size="10.00">+ __construct()</text>
</a>
</g>
<!-- Node2&#45;&gt;Node1 -->
<g id="edge2" class="edge"><title>Node2&#45;&gt;Node1</title>
<path fill="none" stroke="midnightblue" d="M132,-182.288C132,-173.742 132,-164.491 132,-155.148"/>
<polygon fill="none" stroke="midnightblue" points="128.5,-182.32 132,-192.32 135.5,-182.32 128.5,-182.32"/>
</g>
<!-- Node3 -->
<g id="node4" class="node"><title>Node3</title>
<a xlink:href="../../d0/d81/classpocketmine_1_1block_1_1_generic.html" target="_top" xlink:title="{pocketmine\\block\\Generic\n||+ __construct()\l+ place()\l+ isBreakable()\l+ onBreak()\l+ onUpdate()\l+ onActivate()\l}">
<polygon fill="white" stroke="black" points="67,-293 67,-421 197,-421 197,-293 67,-293"/>
<text text-anchor="middle" x="132" y="-408" font-family="Helvetica,sans-Serif" font-size="10.00">pocketmine\block\Generic</text>
<polyline fill="none" stroke="black" points="67,-400 197,-400 "/>
<text text-anchor="middle" x="132" y="-387" font-family="Helvetica,sans-Serif" font-size="10.00"> </text>
<polyline fill="none" stroke="black" points="67,-379 197,-379 "/>
<text text-anchor="start" x="75" y="-366" font-family="Helvetica,sans-Serif" font-size="10.00">+ __construct()</text>
<text text-anchor="start" x="75" y="-353" font-family="Helvetica,sans-Serif" font-size="10.00">+ place()</text>
<text text-anchor="start" x="75" y="-340" font-family="Helvetica,sans-Serif" font-size="10.00">+ isBreakable()</text>
<text text-anchor="start" x="75" y="-327" font-family="Helvetica,sans-Serif" font-size="10.00">+ onBreak()</text>
<text text-anchor="start" x="75" y="-314" font-family="Helvetica,sans-Serif" font-size="10.00">+ onUpdate()</text>
<text text-anchor="start" x="75" y="-301" font-family="Helvetica,sans-Serif" font-size="10.00">+ onActivate()</text>
</a>
</g>
<!-- Node3&#45;&gt;Node2 -->
<g id="edge4" class="edge"><title>Node3&#45;&gt;Node2</title>
<path fill="none" stroke="midnightblue" d="M132,-282.58C132,-273.171 132,-263.976 132,-255.764"/>
<polygon fill="none" stroke="midnightblue" points="128.5,-282.837 132,-292.837 135.5,-282.837 128.5,-282.837"/>
</g>
<!-- Node4 -->
<g id="node6" class="node"><title>Node4</title>
<a xlink:href="../../d7/d27/classpocketmine_1_1block_1_1_block.html" target="_top" xlink:title="{pocketmine\\block\\Block\n|+ AIR\l+ STONE\l+ GRASS\l+ DIRT\l+ COBBLESTONE\l+ COBBLE\l+ PLANK\l+ PLANKS\l+ WOODEN_PLANK\l+ WOODEN_PLANKS\land 169 more...\l+ $creative\l+ $list\l# $id\l# $meta\l# $name\l# $breakTime\l# $hardness\l|+ __construct()\l+ getHardness()\l+ getName()\l+ getID()\l+ getDamage()\l+ setDamage()\l+ position()\l+ getDrops()\l+ getBreakTime()\l+ getSide()\land 12 more...\l+ init()\l+ get()\l}">
<polygon fill="white" stroke="black" points="71.5,-459 71.5,-899 192.5,-899 192.5,-459 71.5,-459"/>
<text text-anchor="middle" x="132" y="-886" font-family="Helvetica,sans-Serif" font-size="10.00">pocketmine\block\Block</text>
<polyline fill="none" stroke="black" points="71.5,-878 192.5,-878 "/>
<text text-anchor="start" x="79.5" y="-865" font-family="Helvetica,sans-Serif" font-size="10.00">+ AIR</text>
<text text-anchor="start" x="79.5" y="-852" font-family="Helvetica,sans-Serif" font-size="10.00">+ STONE</text>
<text text-anchor="start" x="79.5" y="-839" font-family="Helvetica,sans-Serif" font-size="10.00">+ GRASS</text>
<text text-anchor="start" x="79.5" y="-826" font-family="Helvetica,sans-Serif" font-size="10.00">+ DIRT</text>
<text text-anchor="start" x="79.5" y="-813" font-family="Helvetica,sans-Serif" font-size="10.00">+ COBBLESTONE</text>
<text text-anchor="start" x="79.5" y="-800" font-family="Helvetica,sans-Serif" font-size="10.00">+ COBBLE</text>
<text text-anchor="start" x="79.5" y="-787" font-family="Helvetica,sans-Serif" font-size="10.00">+ PLANK</text>
<text text-anchor="start" x="79.5" y="-774" font-family="Helvetica,sans-Serif" font-size="10.00">+ PLANKS</text>
<text text-anchor="start" x="79.5" y="-761" font-family="Helvetica,sans-Serif" font-size="10.00">+ WOODEN_PLANK</text>
<text text-anchor="start" x="79.5" y="-748" font-family="Helvetica,sans-Serif" font-size="10.00">+ WOODEN_PLANKS</text>
<text text-anchor="start" x="79.5" y="-735" font-family="Helvetica,sans-Serif" font-size="10.00">and 169 more...</text>
<text text-anchor="start" x="79.5" y="-722" font-family="Helvetica,sans-Serif" font-size="10.00">+ $creative</text>
<text text-anchor="start" x="79.5" y="-709" font-family="Helvetica,sans-Serif" font-size="10.00">+ $list</text>
<text text-anchor="start" x="79.5" y="-696" font-family="Helvetica,sans-Serif" font-size="10.00"># $id</text>
<text text-anchor="start" x="79.5" y="-683" font-family="Helvetica,sans-Serif" font-size="10.00"># $meta</text>
<text text-anchor="start" x="79.5" y="-670" font-family="Helvetica,sans-Serif" font-size="10.00"># $name</text>
<text text-anchor="start" x="79.5" y="-657" font-family="Helvetica,sans-Serif" font-size="10.00"># $breakTime</text>
<text text-anchor="start" x="79.5" y="-644" font-family="Helvetica,sans-Serif" font-size="10.00"># $hardness</text>
<polyline fill="none" stroke="black" points="71.5,-636 192.5,-636 "/>
<text text-anchor="start" x="79.5" y="-623" font-family="Helvetica,sans-Serif" font-size="10.00">+ __construct()</text>
<text text-anchor="start" x="79.5" y="-610" font-family="Helvetica,sans-Serif" font-size="10.00">+ getHardness()</text>
<text text-anchor="start" x="79.5" y="-597" font-family="Helvetica,sans-Serif" font-size="10.00">+ getName()</text>
<text text-anchor="start" x="79.5" y="-584" font-family="Helvetica,sans-Serif" font-size="10.00">+ getID()</text>
<text text-anchor="start" x="79.5" y="-571" font-family="Helvetica,sans-Serif" font-size="10.00">+ getDamage()</text>
<text text-anchor="start" x="79.5" y="-558" font-family="Helvetica,sans-Serif" font-size="10.00">+ setDamage()</text>
<text text-anchor="start" x="79.5" y="-545" font-family="Helvetica,sans-Serif" font-size="10.00">+ position()</text>
<text text-anchor="start" x="79.5" y="-532" font-family="Helvetica,sans-Serif" font-size="10.00">+ getDrops()</text>
<text text-anchor="start" x="79.5" y="-519" font-family="Helvetica,sans-Serif" font-size="10.00">+ getBreakTime()</text>
<text text-anchor="start" x="79.5" y="-506" font-family="Helvetica,sans-Serif" font-size="10.00">+ getSide()</text>
<text text-anchor="start" x="79.5" y="-493" font-family="Helvetica,sans-Serif" font-size="10.00">and 12 more...</text>
<text text-anchor="start" x="79.5" y="-480" font-family="Helvetica,sans-Serif" font-size="10.00">+ init()</text>
<text text-anchor="start" x="79.5" y="-467" font-family="Helvetica,sans-Serif" font-size="10.00">+ get()</text>
</a>
</g>
<!-- Node4&#45;&gt;Node3 -->
<g id="edge6" class="edge"><title>Node4&#45;&gt;Node3</title>
<path fill="none" stroke="midnightblue" d="M132,-448.671C132,-439.007 132,-429.755 132,-421.098"/>
<polygon fill="none" stroke="midnightblue" points="128.5,-448.883 132,-458.883 135.5,-448.883 128.5,-448.883"/>
</g>
<!-- Node5 -->
<g id="node8" class="node"><title>Node5</title>
<a xlink:href="../../db/d9b/classpocketmine_1_1level_1_1_position.html" target="_top" xlink:title="{pocketmine\\level\\Position\n|+ $level\l|+ __construct()\l+ getLevel()\l+ setLevel()\l+ isValid()\l+ setStrong()\l+ setWeak()\l+ getSide()\l+ distance()\l+ __toString()\l+ fromObject()\l}">
<polygon fill="white" stroke="black" points="0,-937 0,-1117 128,-1117 128,-937 0,-937"/>
<text text-anchor="middle" x="64" y="-1104" font-family="Helvetica,sans-Serif" font-size="10.00">pocketmine\level\Position</text>
<polyline fill="none" stroke="black" points="0,-1096 128,-1096 "/>
<text text-anchor="start" x="8" y="-1083" font-family="Helvetica,sans-Serif" font-size="10.00">+ $level</text>
<polyline fill="none" stroke="black" points="0,-1075 128,-1075 "/>
<text text-anchor="start" x="8" y="-1062" font-family="Helvetica,sans-Serif" font-size="10.00">+ __construct()</text>
<text text-anchor="start" x="8" y="-1049" font-family="Helvetica,sans-Serif" font-size="10.00">+ getLevel()</text>
<text text-anchor="start" x="8" y="-1036" font-family="Helvetica,sans-Serif" font-size="10.00">+ setLevel()</text>
<text text-anchor="start" x="8" y="-1023" font-family="Helvetica,sans-Serif" font-size="10.00">+ isValid()</text>
<text text-anchor="start" x="8" y="-1010" font-family="Helvetica,sans-Serif" font-size="10.00">+ setStrong()</text>
<text text-anchor="start" x="8" y="-997" font-family="Helvetica,sans-Serif" font-size="10.00">+ setWeak()</text>
<text text-anchor="start" x="8" y="-984" font-family="Helvetica,sans-Serif" font-size="10.00">+ getSide()</text>
<text text-anchor="start" x="8" y="-971" font-family="Helvetica,sans-Serif" font-size="10.00">+ distance()</text>
<text text-anchor="start" x="8" y="-958" font-family="Helvetica,sans-Serif" font-size="10.00">+ __toString()</text>
<text text-anchor="start" x="8" y="-945" font-family="Helvetica,sans-Serif" font-size="10.00">+ fromObject()</text>
</a>
</g>
<!-- Node5&#45;&gt;Node4 -->
<g id="edge8" class="edge"><title>Node5&#45;&gt;Node4</title>
<path fill="none" stroke="midnightblue" d="M83.5501,-926.949C85.3021,-917.983 87.117,-908.695 88.9704,-899.21"/>
<polygon fill="none" stroke="midnightblue" points="80.0829,-926.443 81.6001,-936.929 86.953,-927.786 80.0829,-926.443"/>
</g>
<!-- Node6 -->
<g id="node10" class="node"><title>Node6</title>
<a xlink:href="../../d2/d90/classpocketmine_1_1math_1_1_vector3.html" target="_top" xlink:title="{pocketmine\\math\\Vector3\n|+ $x\l+ $y\l+ $z\l|+ __construct()\l+ getX()\l+ getY()\l+ getZ()\l+ getFloorX()\l+ getFloorY()\l+ getFloorZ()\l+ getRight()\l+ getUp()\l+ getForward()\land 20 more...\l}">
<polygon fill="white" stroke="black" points="0,-1154.5 0,-1373.5 128,-1373.5 128,-1154.5 0,-1154.5"/>
<text text-anchor="middle" x="64" y="-1360.5" font-family="Helvetica,sans-Serif" font-size="10.00">pocketmine\math\Vector3</text>
<polyline fill="none" stroke="black" points="0,-1352.5 128,-1352.5 "/>
<text text-anchor="start" x="8" y="-1339.5" font-family="Helvetica,sans-Serif" font-size="10.00">+ $x</text>
<text text-anchor="start" x="8" y="-1326.5" font-family="Helvetica,sans-Serif" font-size="10.00">+ $y</text>
<text text-anchor="start" x="8" y="-1313.5" font-family="Helvetica,sans-Serif" font-size="10.00">+ $z</text>
<polyline fill="none" stroke="black" points="0,-1305.5 128,-1305.5 "/>
<text text-anchor="start" x="8" y="-1292.5" font-family="Helvetica,sans-Serif" font-size="10.00">+ __construct()</text>
<text text-anchor="start" x="8" y="-1279.5" font-family="Helvetica,sans-Serif" font-size="10.00">+ getX()</text>
<text text-anchor="start" x="8" y="-1266.5" font-family="Helvetica,sans-Serif" font-size="10.00">+ getY()</text>
<text text-anchor="start" x="8" y="-1253.5" font-family="Helvetica,sans-Serif" font-size="10.00">+ getZ()</text>
<text text-anchor="start" x="8" y="-1240.5" font-family="Helvetica,sans-Serif" font-size="10.00">+ getFloorX()</text>
<text text-anchor="start" x="8" y="-1227.5" font-family="Helvetica,sans-Serif" font-size="10.00">+ getFloorY()</text>
<text text-anchor="start" x="8" y="-1214.5" font-family="Helvetica,sans-Serif" font-size="10.00">+ getFloorZ()</text>
<text text-anchor="start" x="8" y="-1201.5" font-family="Helvetica,sans-Serif" font-size="10.00">+ getRight()</text>
<text text-anchor="start" x="8" y="-1188.5" font-family="Helvetica,sans-Serif" font-size="10.00">+ getUp()</text>
<text text-anchor="start" x="8" y="-1175.5" font-family="Helvetica,sans-Serif" font-size="10.00">+ getForward()</text>
<text text-anchor="start" x="8" y="-1162.5" font-family="Helvetica,sans-Serif" font-size="10.00">and 20 more...</text>
</a>
</g>
<!-- Node6&#45;&gt;Node5 -->
<g id="edge10" class="edge"><title>Node6&#45;&gt;Node5</title>
<path fill="none" stroke="midnightblue" d="M64,-1144.02C64,-1135.03 64,-1126.05 64,-1117.28"/>
<polygon fill="none" stroke="midnightblue" points="60.5001,-1144.17 64,-1154.17 67.5001,-1144.17 60.5001,-1144.17"/>
</g>
<!-- Node7 -->
<g id="node12" class="node"><title>Node7</title>
<a xlink:href="../../d8/d0b/interfacepocketmine_1_1metadata_1_1_metadatable.html" target="_top" xlink:title="{pocketmine\\metadata\l\\Metadatable\n||+ setMetadata()\l+ getMetadata()\l+ hasMetadata()\l+ removeMetadata()\l}">
<polygon fill="white" stroke="black" points="146,-969.5 146,-1084.5 256,-1084.5 256,-969.5 146,-969.5"/>
<text text-anchor="start" x="154" y="-1071.5" font-family="Helvetica,sans-Serif" font-size="10.00">pocketmine\metadata</text>
<text text-anchor="middle" x="201" y="-1058.5" font-family="Helvetica,sans-Serif" font-size="10.00">\Metadatable</text>
<polyline fill="none" stroke="black" points="146,-1050.5 256,-1050.5 "/>
<text text-anchor="middle" x="201" y="-1037.5" font-family="Helvetica,sans-Serif" font-size="10.00"> </text>
<polyline fill="none" stroke="black" points="146,-1029.5 256,-1029.5 "/>
<text text-anchor="start" x="154" y="-1016.5" font-family="Helvetica,sans-Serif" font-size="10.00">+ setMetadata()</text>
<text text-anchor="start" x="154" y="-1003.5" font-family="Helvetica,sans-Serif" font-size="10.00">+ getMetadata()</text>
<text text-anchor="start" x="154" y="-990.5" font-family="Helvetica,sans-Serif" font-size="10.00">+ hasMetadata()</text>
<text text-anchor="start" x="154" y="-977.5" font-family="Helvetica,sans-Serif" font-size="10.00">+ removeMetadata()</text>
</a>
</g>
<!-- Node7&#45;&gt;Node4 -->
<g id="edge12" class="edge"><title>Node7&#45;&gt;Node4</title>
<path fill="none" stroke="midnightblue" d="M187.538,-959.105C183.962,-941.071 179.899,-920.577 175.635,-899.071"/>
<polygon fill="none" stroke="midnightblue" points="184.15,-960.016 189.529,-969.144 191.017,-958.654 184.15,-960.016"/>
</g>
</g>
</svg>
