<?xml version="1.0" encoding="UTF-8" standalone="no"?>
<!DOCTYPE svg PUBLIC "-//W3C//DTD SVG 1.1//EN"
 "http://www.w3.org/Graphics/SVG/1.1/DTD/svg11.dtd">
<!-- Generated by graphviz version 2.26.3 (20100126.1600)
 -->
<!-- Title: pocketmine\network\protocol\SetHealthPacket Pages: 1 -->
<svg width="138pt" height="520pt"
 viewBox="0.00 0.00 138.00 520.00" xmlns="http://www.w3.org/2000/svg" xmlns:xlink="http://www.w3.org/1999/xlink">
<g id="graph1" class="graph" transform="scale(1 1) rotate(0) translate(4 516)">
<title>pocketmine\network\protocol\SetHealthPacket</title>
<polygon fill="white" stroke="white" points="-4,5 -4,-516 135,-516 135,5 -4,5"/>
<!-- Node1 -->
<g id="node1" class="node"><title>Node1</title>
<polygon fill="#bfbfbf" stroke="black" points="-0.5,-1 -0.5,-103 130.5,-103 130.5,-1 -0.5,-1"/>
<text text-anchor="start" x="7.5" y="-90" font-family="Helvetica,sans-Serif" font-size="10.00">pocketmine\network</text>
<text text-anchor="middle" x="65" y="-77" font-family="Helvetica,sans-Serif" font-size="10.00">\protocol\SetHealthPacket</text>
<polyline fill="none" stroke="black" points="-0.5,-69 130.5,-69 "/>
<text text-anchor="start" x="7.5" y="-56" font-family="Helvetica,sans-Serif" font-size="10.00">+ $health</text>
<polyline fill="none" stroke="black" points="-0.5,-48 130.5,-48 "/>
<text text-anchor="start" x="7.5" y="-35" font-family="Helvetica,sans-Serif" font-size="10.00">+ pid()</text>
<text text-anchor="start" x="7.5" y="-22" font-family="Helvetica,sans-Serif" font-size="10.00">+ decode()</text>
<text text-anchor="start" x="7.5" y="-9" font-family="Helvetica,sans-Serif" font-size="10.00">+ encode()</text>
</g>
<!-- Node2 -->
<g id="node2" class="node"><title>Node2</title>
<a xlink:href="../../d0/d90/classpocketmine_1_1network_1_1protocol_1_1_data_packet.html" target="_top" xlink:title="{pocketmine\\network\l\\protocol\\DataPacket\n|+ $buffer\l|+ pid()\l+ encode()\l+ decode()\l+ setBuffer()\l+ getBuffer()\l# reset()\l# get()\l# put()\l# getLong()\l# putLong()\l# getInt()\l# putInt()\l# getShort()\l# putShort()\l# getFloat()\land 14 more...\l}">
<polygon fill="white" stroke="black" points="10.5,-140.5 10.5,-411.5 119.5,-411.5 119.5,-140.5 10.5,-140.5"/>
<text text-anchor="start" x="18.5" y="-398.5" font-family="Helvetica,sans-Serif" font-size="10.00">pocketmine\network</text>
<text text-anchor="middle" x="65" y="-385.5" font-family="Helvetica,sans-Serif" font-size="10.00">\protocol\DataPacket</text>
<polyline fill="none" stroke="black" points="10.5,-377.5 119.5,-377.5 "/>
<text text-anchor="start" x="18.5" y="-364.5" font-family="Helvetica,sans-Serif" font-size="10.00">+ $buffer</text>
<polyline fill="none" stroke="black" points="10.5,-356.5 119.5,-356.5 "/>
<text text-anchor="start" x="18.5" y="-343.5" font-family="Helvetica,sans-Serif" font-size="10.00">+ pid()</text>
<text text-anchor="start" x="18.5" y="-330.5" font-family="Helvetica,sans-Serif" font-size="10.00">+ encode()</text>
<text text-anchor="start" x="18.5" y="-317.5" font-family="Helvetica,sans-Serif" font-size="10.00">+ decode()</text>
<text text-anchor="start" x="18.5" y="-304.5" font-family="Helvetica,sans-Serif" font-size="10.00">+ setBuffer()</text>
<text text-anchor="start" x="18.5" y="-291.5" font-family="Helvetica,sans-Serif" font-size="10.00">+ getBuffer()</text>
<text text-anchor="start" x="18.5" y="-278.5" font-family="Helvetica,sans-Serif" font-size="10.00"># reset()</text>
<text text-anchor="start" x="18.5" y="-265.5" font-family="Helvetica,sans-Serif" font-size="10.00"># get()</text>
<text text-anchor="start" x="18.5" y="-252.5" font-family="Helvetica,sans-Serif" font-size="10.00"># put()</text>
<text text-anchor="start" x="18.5" y="-239.5" font-family="Helvetica,sans-Serif" font-size="10.00"># getLong()</text>
<text text-anchor="start" x="18.5" y="-226.5" font-family="Helvetica,sans-Serif" font-size="10.00"># putLong()</text>
<text text-anchor="start" x="18.5" y="-213.5" font-family="Helvetica,sans-Serif" font-size="10.00"># getInt()</text>
<text text-anchor="start" x="18.5" y="-200.5" font-family="Helvetica,sans-Serif" font-size="10.00"># putInt()</text>
<text text-anchor="start" x="18.5" y="-187.5" font-family="Helvetica,sans-Serif" font-size="10.00"># getShort()</text>
<text text-anchor="start" x="18.5" y="-174.5" font-family="Helvetica,sans-Serif" font-size="10.00"># putShort()</text>
<text text-anchor="start" x="18.5" y="-161.5" font-family="Helvetica,sans-Serif" font-size="10.00"># getFloat()</text>
<text text-anchor="start" x="18.5" y="-148.5" font-family="Helvetica,sans-Serif" font-size="10.00">and 14 more...</text>
</a>
</g>
<!-- Node2&#45;&gt;Node1 -->
<g id="edge2" class="edge"><title>Node2&#45;&gt;Node1</title>
<path fill="none" stroke="midnightblue" d="M65,-129.923C65,-120.557 65,-111.543 65,-103.178"/>
<polygon fill="none" stroke="midnightblue" points="61.5001,-130.209 65,-140.209 68.5001,-130.209 61.5001,-130.209"/>
</g>
<!-- Node3 -->
<g id="node4" class="node"><title>Node3</title>
<polygon fill="white" stroke="#bfbfbf" points="37,-448.5 37,-511.5 93,-511.5 93,-448.5 37,-448.5"/>
<text text-anchor="middle" x="65" y="-498.5" font-family="Helvetica,sans-Serif" font-size="10.00">stdClass</text>
<polyline fill="none" stroke="#bfbfbf" points="37,-490.5 93,-490.5 "/>
<text text-anchor="middle" x="65" y="-477.5" font-family="Helvetica,sans-Serif" font-size="10.00"> </text>
<polyline fill="none" stroke="#bfbfbf" points="37,-469.5 93,-469.5 "/>
<text text-anchor="middle" x="65" y="-456.5" font-family="Helvetica,sans-Serif" font-size="10.00"> </text>
</g>
<!-- Node3&#45;&gt;Node2 -->
<g id="edge4" class="edge"><title>Node3&#45;&gt;Node2</title>
<path fill="none" stroke="midnightblue" d="M65,-437.988C65,-429.913 65,-421.06 65,-411.787"/>
<polygon fill="none" stroke="midnightblue" points="61.5001,-438.125 65,-448.125 68.5001,-438.125 61.5001,-438.125"/>
</g>
</g>
</svg>
