<?xml version="1.0" encoding="UTF-8" standalone="no"?>
<!DOCTYPE svg PUBLIC "-//W3C//DTD SVG 1.1//EN"
 "http://www.w3.org/Graphics/SVG/1.1/DTD/svg11.dtd">
<!-- Generated by graphviz version 2.26.3 (20100126.1600)
 -->
<!-- Title: pocketmine\scheduler\AsyncTask Pages: 1 -->
<svg width="244pt" height="584pt"
 viewBox="0.00 0.00 244.00 584.00" xmlns="http://www.w3.org/2000/svg" xmlns:xlink="http://www.w3.org/1999/xlink">
<g id="graph1" class="graph" transform="scale(1 1) rotate(0) translate(4 580)">
<title>pocketmine\scheduler\AsyncTask</title>
<polygon fill="white" stroke="white" points="-4,5 -4,-580 241,-580 241,5 -4,5"/>
<!-- Node1 -->
<g id="node1" class="node"><title>Node1</title>
<polygon fill="#bfbfbf" stroke="black" points="60,-0.5 60,-245.5 172,-245.5 172,-0.5 60,-0.5"/>
<text text-anchor="start" x="68" y="-232.5" font-family="Helvetica,sans-Serif" font-size="10.00">pocketmine\scheduler</text>
<text text-anchor="middle" x="116" y="-219.5" font-family="Helvetica,sans-Serif" font-size="10.00">\AsyncTask</text>
<polyline fill="none" stroke="black" points="60,-211.5 172,-211.5 "/>
<text text-anchor="start" x="68" y="-198.5" font-family="Helvetica,sans-Serif" font-size="10.00"># $complete</text>
<text text-anchor="start" x="68" y="-185.5" font-family="Helvetica,sans-Serif" font-size="10.00"># $finished</text>
<text text-anchor="start" x="68" y="-172.5" font-family="Helvetica,sans-Serif" font-size="10.00"># $result</text>
<text text-anchor="start" x="68" y="-159.5" font-family="Helvetica,sans-Serif" font-size="10.00"># $taskId</text>
<polyline fill="none" stroke="black" points="60,-151.5 172,-151.5 "/>
<text text-anchor="start" x="68" y="-138.5" font-family="Helvetica,sans-Serif" font-size="10.00">+ run()</text>
<text text-anchor="start" x="68" y="-125.5" font-family="Helvetica,sans-Serif" font-size="10.00">+ isFinished()</text>
<text text-anchor="start" x="68" y="-112.5" font-family="Helvetica,sans-Serif" font-size="10.00">+ isCompleted()</text>
<text text-anchor="start" x="68" y="-99.5" font-family="Helvetica,sans-Serif" font-size="10.00">+ setCompleted()</text>
<text text-anchor="start" x="68" y="-86.5" font-family="Helvetica,sans-Serif" font-size="10.00">+ getResult()</text>
<text text-anchor="start" x="68" y="-73.5" font-family="Helvetica,sans-Serif" font-size="10.00">+ hasResult()</text>
<text text-anchor="start" x="68" y="-60.5" font-family="Helvetica,sans-Serif" font-size="10.00">+ setResult()</text>
<text text-anchor="start" x="68" y="-47.5" font-family="Helvetica,sans-Serif" font-size="10.00">+ setTaskId()</text>
<text text-anchor="start" x="68" y="-34.5" font-family="Helvetica,sans-Serif" font-size="10.00">+ getTaskId()</text>
<text text-anchor="start" x="68" y="-21.5" font-family="Helvetica,sans-Serif" font-size="10.00">+ onRun()</text>
<text text-anchor="start" x="68" y="-8.5" font-family="Helvetica,sans-Serif" font-size="10.00">+ onCompletion()</text>
</g>
<!-- Node2 -->
<g id="node2" class="node"><title>Node2</title>
<a xlink:href="../../d0/d82/class_threaded.html" target="_top" xlink:title="{Threaded\n||+ chunk()\l+ count()\l+ getTerminationInfo()\l+ isRunning()\l+ isTerminated()\l+ isWaiting()\l+ lock()\l+ merge()\l+ notify()\l+ offsetGet()\land 9 more...\l}">
<polygon fill="white" stroke="black" points="59.5,-282.5 59.5,-475.5 172.5,-475.5 172.5,-282.5 59.5,-282.5"/>
<text text-anchor="middle" x="116" y="-462.5" font-family="Helvetica,sans-Serif" font-size="10.00">Threaded</text>
<polyline fill="none" stroke="black" points="59.5,-454.5 172.5,-454.5 "/>
<text text-anchor="middle" x="116" y="-441.5" font-family="Helvetica,sans-Serif" font-size="10.00"> </text>
<polyline fill="none" stroke="black" points="59.5,-433.5 172.5,-433.5 "/>
<text text-anchor="start" x="67.5" y="-420.5" font-family="Helvetica,sans-Serif" font-size="10.00">+ chunk()</text>
<text text-anchor="start" x="67.5" y="-407.5" font-family="Helvetica,sans-Serif" font-size="10.00">+ count()</text>
<text text-anchor="start" x="67.5" y="-394.5" font-family="Helvetica,sans-Serif" font-size="10.00">+ getTerminationInfo()</text>
<text text-anchor="start" x="67.5" y="-381.5" font-family="Helvetica,sans-Serif" font-size="10.00">+ isRunning()</text>
<text text-anchor="start" x="67.5" y="-368.5" font-family="Helvetica,sans-Serif" font-size="10.00">+ isTerminated()</text>
<text text-anchor="start" x="67.5" y="-355.5" font-family="Helvetica,sans-Serif" font-size="10.00">+ isWaiting()</text>
<text text-anchor="start" x="67.5" y="-342.5" font-family="Helvetica,sans-Serif" font-size="10.00">+ lock()</text>
<text text-anchor="start" x="67.5" y="-329.5" font-family="Helvetica,sans-Serif" font-size="10.00">+ merge()</text>
<text text-anchor="start" x="67.5" y="-316.5" font-family="Helvetica,sans-Serif" font-size="10.00">+ notify()</text>
<text text-anchor="start" x="67.5" y="-303.5" font-family="Helvetica,sans-Serif" font-size="10.00">+ offsetGet()</text>
<text text-anchor="start" x="67.5" y="-290.5" font-family="Helvetica,sans-Serif" font-size="10.00">and 9 more...</text>
</a>
</g>
<!-- Node2&#45;&gt;Node1 -->
<g id="edge2" class="edge"><title>Node2&#45;&gt;Node1</title>
<path fill="none" stroke="midnightblue" d="M116,-272.101C116,-263.423 116,-254.612 116,-245.833"/>
<polygon fill="none" stroke="midnightblue" points="112.5,-272.217 116,-282.217 119.5,-272.217 112.5,-272.217"/>
</g>
<!-- Node3 -->
<g id="node4" class="node"><title>Node3</title>
<polygon fill="white" stroke="#bfbfbf" points="0,-512.5 0,-575.5 68,-575.5 68,-512.5 0,-512.5"/>
<text text-anchor="middle" x="34" y="-562.5" font-family="Helvetica,sans-Serif" font-size="10.00">Traversable</text>
<polyline fill="none" stroke="#bfbfbf" points="0,-554.5 68,-554.5 "/>
<text text-anchor="middle" x="34" y="-541.5" font-family="Helvetica,sans-Serif" font-size="10.00"> </text>
<polyline fill="none" stroke="#bfbfbf" points="0,-533.5 68,-533.5 "/>
<text text-anchor="middle" x="34" y="-520.5" font-family="Helvetica,sans-Serif" font-size="10.00"> </text>
</g>
<!-- Node3&#45;&gt;Node2 -->
<g id="edge4" class="edge"><title>Node3&#45;&gt;Node2</title>
<path fill="none" stroke="midnightblue" d="M54.3964,-502.958C58.619,-494.462 63.2356,-485.172 67.9815,-475.623"/>
<polygon fill="none" stroke="midnightblue" points="51.1266,-501.674 49.8104,-512.186 57.3952,-504.789 51.1266,-501.674"/>
</g>
<!-- Node4 -->
<g id="node6" class="node"><title>Node4</title>
<polygon fill="white" stroke="#bfbfbf" points="85.5,-512.5 85.5,-575.5 146.5,-575.5 146.5,-512.5 85.5,-512.5"/>
<text text-anchor="middle" x="116" y="-562.5" font-family="Helvetica,sans-Serif" font-size="10.00">Countable</text>
<polyline fill="none" stroke="#bfbfbf" points="85.5,-554.5 146.5,-554.5 "/>
<text text-anchor="middle" x="116" y="-541.5" font-family="Helvetica,sans-Serif" font-size="10.00"> </text>
<polyline fill="none" stroke="#bfbfbf" points="85.5,-533.5 146.5,-533.5 "/>
<text text-anchor="middle" x="116" y="-520.5" font-family="Helvetica,sans-Serif" font-size="10.00"> </text>
</g>
<!-- Node4&#45;&gt;Node2 -->
<g id="edge6" class="edge"><title>Node4&#45;&gt;Node2</title>
<path fill="none" stroke="midnightblue" d="M116,-502.134C116,-493.862 116,-484.864 116,-475.623"/>
<polygon fill="none" stroke="midnightblue" points="112.5,-502.186 116,-512.186 119.5,-502.186 112.5,-502.186"/>
</g>
<!-- Node5 -->
<g id="node8" class="node"><title>Node5</title>
<polygon fill="white" stroke="#bfbfbf" points="163.5,-512.5 163.5,-575.5 236.5,-575.5 236.5,-512.5 163.5,-512.5"/>
<text text-anchor="middle" x="200" y="-562.5" font-family="Helvetica,sans-Serif" font-size="10.00">ArrayAccess</text>
<polyline fill="none" stroke="#bfbfbf" points="163.5,-554.5 236.5,-554.5 "/>
<text text-anchor="middle" x="200" y="-541.5" font-family="Helvetica,sans-Serif" font-size="10.00"> </text>
<polyline fill="none" stroke="#bfbfbf" points="163.5,-533.5 236.5,-533.5 "/>
<text text-anchor="middle" x="200" y="-520.5" font-family="Helvetica,sans-Serif" font-size="10.00"> </text>
</g>
<!-- Node5&#45;&gt;Node2 -->
<g id="edge8" class="edge"><title>Node5&#45;&gt;Node2</title>
<path fill="none" stroke="midnightblue" d="M179.246,-503.232C174.882,-494.661 170.104,-485.275 165.19,-475.623"/>
<polygon fill="none" stroke="midnightblue" points="176.148,-504.863 183.804,-512.186 182.386,-501.687 176.148,-504.863"/>
</g>
</g>
</svg>
