<?xml version="1.0" encoding="UTF-8" standalone="no"?>
<!DOCTYPE svg PUBLIC "-//W3C//DTD SVG 1.1//EN"
 "http://www.w3.org/Graphics/SVG/1.1/DTD/svg11.dtd">
<!-- Generated by graphviz version 2.26.3 (20100126.1600)
 -->
<!-- Title: pocketmine\inventory\PlayerInventory\getHolder Pages: 1 -->
<!--zoomable 219 -->
<svg id="main" version="1.1" xmlns="http://www.w3.org/2000/svg" xmlns:xlink="http://www.w3.org/1999/xlink" xml:space="preserve" onload="init(evt)">
<style type="text/css"><![CDATA[
.edge:hover path { stroke: red; }
.edge:hover polygon { stroke: red; fill: red; }
]]></style>
<script type="text/javascript"><![CDATA[
var edges = document.getElementsByTagName('g');
if (edges && edges.length) {
  for (var i=0;i<edges.length;i++) {
    if (edges[i].id.substr(0,4)=='edge') {
      edges[i].setAttribute('class','edge');
    }
  }
}
]]></script>
        <defs>
                <circle id="rim" cx="0" cy="0" r="7"/>
                <circle id="rim2" cx="0" cy="0" r="3.5"/>
                <g id="zoomPlus">
                        <use xlink:href="#rim" fill="#404040">
                                <set attributeName="fill" to="#808080" begin="zoomplus.mouseover" end="zoomplus.mouseout"/>
                        </use>
                        <path d="M-4,0h8M0,-4v8" fill="none" stroke="white" stroke-width="1.5" pointer-events="none"/>
                </g>
                <g id="zoomMin">
                        <use xlink:href="#rim" fill="#404040">
                                <set attributeName="fill" to="#808080" begin="zoomminus.mouseover" end="zoomminus.mouseout"/>
                        </use>
                        <path d="M-4,0h8" fill="none" stroke="white" stroke-width="1.5" pointer-events="none"/>
                </g>
                <g id="dirArrow">
                        <path fill="none" stroke="white" stroke-width="1.5" d="M0,-3.0v7 M-2.5,-0.5L0,-3.0L2.5,-0.5"/>
                </g>
               <g id="resetDef">
                       <use xlink:href="#rim2" fill="#404040">
                               <set attributeName="fill" to="#808080" begin="reset.mouseover" end="reset.mouseout"/>
                       </use>
               </g>
        </defs>

<script type="text/javascript">
var viewWidth = 884;
var viewHeight = 219;
var sectionId = 'dynsection-12';
</script>
<script xlink:href="../../svgpan.js"/>
<svg id="graph" class="graph">
<g id="viewport">
<title>pocketmine\inventory\PlayerInventory\getHolder</title>
<polygon fill="white" stroke="white" points="-4,5 -4,-215 881,-215 881,5 -4,5"/>
<!-- Node1 -->
<g id="node1" class="node"><title>Node1</title>
<polygon fill="#bfbfbf" stroke="black" points="0.5,-88 0.5,-122 133.5,-122 133.5,-88 0.5,-88"/>
<text text-anchor="start" x="8.5" y="-109" font-family="Helvetica,sans-Serif" font-size="10.00">pocketmine\inventory</text>
<text text-anchor="middle" x="67" y="-96" font-family="Helvetica,sans-Serif" font-size="10.00">\PlayerInventory\getHolder</text>
</g>
<!-- Node2 -->
<g id="node3" class="node"><title>Node2</title>
<a xlink:href="../../dc/d77/classpocketmine_1_1inventory_1_1_player_inventory.html#a1b9f22225b0a8cee8cd57855c02724ab" target="_top" xlink:title="pocketmine\\inventory\l\\PlayerInventory\\clear">
<polygon fill="white" stroke="black" points="378,-171 378,-205 490,-205 490,-171 378,-171"/>
<text text-anchor="start" x="386" y="-192" font-family="Helvetica,sans-Serif" font-size="10.00">pocketmine\inventory</text>
<text text-anchor="middle" x="434" y="-179" font-family="Helvetica,sans-Serif" font-size="10.00">\PlayerInventory\clear</text>
</a>
</g>
<!-- Node1&#45;&gt;Node2 -->
<g id="edge2" class="edge"><title>Node1&#45;&gt;Node2</title>
<path fill="none" stroke="midnightblue" d="M92.5363,-128.716C112.121,-145.286 140.69,-166.141 170,-176 238.709,-199.111 323.168,-198.265 377.763,-194.231"/>
<polygon fill="midnightblue" stroke="midnightblue" points="94.8202,-126.064 84.9743,-122.151 90.2312,-131.35 94.8202,-126.064"/>
</g>
<!-- Node5 -->
<g id="node9" class="node"><title>Node5</title>
<a xlink:href="../../dc/d77/classpocketmine_1_1inventory_1_1_player_inventory.html#aa2c8b45b25cac829ee9316dd5b7b5931" target="_top" xlink:title="pocketmine\\inventory\l\\PlayerInventory\\setItem">
<polygon fill="white" stroke="black" points="546,-103 546,-137 670,-137 670,-103 546,-103"/>
<text text-anchor="start" x="554" y="-124" font-family="Helvetica,sans-Serif" font-size="10.00">pocketmine\inventory</text>
<text text-anchor="middle" x="608" y="-111" font-family="Helvetica,sans-Serif" font-size="10.00">\PlayerInventory\setItem</text>
</a>
</g>
<!-- Node1&#45;&gt;Node5 -->
<g id="edge30" class="edge"><title>Node1&#45;&gt;Node5</title>
<path fill="none" stroke="midnightblue" d="M143.78,-107.129C251.749,-110.122 446.339,-115.518 545.797,-118.275"/>
<polygon fill="midnightblue" stroke="midnightblue" points="143.702,-103.625 133.608,-106.847 143.507,-110.623 143.702,-103.625"/>
</g>
<!-- Node7 -->
<g id="node14" class="node"><title>Node7</title>
<a xlink:href="../../dc/d77/classpocketmine_1_1inventory_1_1_player_inventory.html#ad3878f887e75d92f3164e4d78fd40fab" target="_top" xlink:title="pocketmine\\inventory\l\\PlayerInventory\\onSlotChange">
<polygon fill="white" stroke="black" points="170,-133 170,-167 322,-167 322,-133 170,-133"/>
<text text-anchor="start" x="178" y="-154" font-family="Helvetica,sans-Serif" font-size="10.00">pocketmine\inventory</text>
<text text-anchor="middle" x="246" y="-141" font-family="Helvetica,sans-Serif" font-size="10.00">\PlayerInventory\onSlotChange</text>
</a>
</g>
<!-- Node1&#45;&gt;Node7 -->
<g id="edge14" class="edge"><title>Node1&#45;&gt;Node7</title>
<path fill="none" stroke="midnightblue" d="M143.63,-124.264C155.089,-127.145 166.835,-130.098 178.096,-132.929"/>
<polygon fill="midnightblue" stroke="midnightblue" points="144.205,-120.8 133.653,-121.756 142.498,-127.589 144.205,-120.8"/>
</g>
<!-- Node8 -->
<g id="node18" class="node"><title>Node8</title>
<a xlink:href="../../dc/d77/classpocketmine_1_1inventory_1_1_player_inventory.html#ac0fe6ab11ec3f4f792474dcf537819dc" target="_top" xlink:title="pocketmine\\inventory\l\\PlayerInventory\\sendContents">
<polygon fill="white" stroke="black" points="170,-43 170,-77 322,-77 322,-43 170,-43"/>
<text text-anchor="start" x="178" y="-64" font-family="Helvetica,sans-Serif" font-size="10.00">pocketmine\inventory</text>
<text text-anchor="middle" x="246" y="-51" font-family="Helvetica,sans-Serif" font-size="10.00">\PlayerInventory\sendContents</text>
</a>
</g>
<!-- Node1&#45;&gt;Node8 -->
<g id="edge20" class="edge"><title>Node1&#45;&gt;Node8</title>
<path fill="none" stroke="midnightblue" d="M143.63,-85.7356C155.089,-82.8548 166.835,-79.9018 178.096,-77.0707"/>
<polygon fill="midnightblue" stroke="midnightblue" points="142.498,-82.4111 133.653,-88.2437 144.205,-89.1999 142.498,-82.4111"/>
</g>
<!-- Node9 -->
<g id="node20" class="node"><title>Node9</title>
<a xlink:href="../../dc/d77/classpocketmine_1_1inventory_1_1_player_inventory.html#a725ed4489f073b21e061cef5a6bb78ed" target="_top" xlink:title="pocketmine\\inventory\l\\PlayerInventory\\sendHeldItem">
<polygon fill="white" stroke="black" points="358,-0 358,-34 510,-34 510,-0 358,-0"/>
<text text-anchor="start" x="366" y="-21" font-family="Helvetica,sans-Serif" font-size="10.00">pocketmine\inventory</text>
<text text-anchor="middle" x="434" y="-8" font-family="Helvetica,sans-Serif" font-size="10.00">\PlayerInventory\sendHeldItem</text>
</a>
</g>
<!-- Node1&#45;&gt;Node9 -->
<g id="edge28" class="edge"><title>Node1&#45;&gt;Node9</title>
<path fill="none" stroke="midnightblue" d="M92.8541,-81.2272C112.459,-64.7744 140.914,-44.09 170,-34 230.748,-12.9263 304.008,-9.81769 357.927,-11.3275"/>
<polygon fill="midnightblue" stroke="midnightblue" points="90.311,-78.7983 85.0177,-87.9761 94.879,-84.1024 90.311,-78.7983"/>
</g>
<!-- Node3 -->
<g id="node5" class="node"><title>Node3</title>
<a xlink:href="../../dc/d77/classpocketmine_1_1inventory_1_1_player_inventory.html#a75d7d59372f2f6e2ced5364aac6a930c" target="_top" xlink:title="pocketmine\\inventory\l\\PlayerInventory\\clearAll">
<polygon fill="white" stroke="black" points="546.5,-155 546.5,-189 669.5,-189 669.5,-155 546.5,-155"/>
<text text-anchor="start" x="554.5" y="-176" font-family="Helvetica,sans-Serif" font-size="10.00">pocketmine\inventory</text>
<text text-anchor="middle" x="608" y="-163" font-family="Helvetica,sans-Serif" font-size="10.00">\PlayerInventory\clearAll</text>
</a>
</g>
<!-- Node2&#45;&gt;Node3 -->
<g id="edge4" class="edge"><title>Node2&#45;&gt;Node3</title>
<path fill="none" stroke="midnightblue" d="M500.317,-181.902C515.441,-180.511 531.45,-179.039 546.369,-177.667"/>
<polygon fill="midnightblue" stroke="midnightblue" points="499.65,-178.448 490.012,-182.849 500.291,-185.419 499.65,-178.448"/>
</g>
<!-- Node4 -->
<g id="node7" class="node"><title>Node4</title>
<a xlink:href="../../dc/d77/classpocketmine_1_1inventory_1_1_player_inventory.html#aad6eea0b7a857bd16a25329e41cbcf3d" target="_top" xlink:title="pocketmine\\inventory\l\\PlayerInventory\\setArmorContents">
<polygon fill="white" stroke="black" points="706,-177 706,-211 876,-211 876,-177 706,-177"/>
<text text-anchor="start" x="714" y="-198" font-family="Helvetica,sans-Serif" font-size="10.00">pocketmine\inventory</text>
<text text-anchor="middle" x="791" y="-185" font-family="Helvetica,sans-Serif" font-size="10.00">\PlayerInventory\setArmorContents</text>
</a>
</g>
<!-- Node2&#45;&gt;Node4 -->
<g id="edge6" class="edge"><title>Node2&#45;&gt;Node4</title>
<path fill="none" stroke="midnightblue" d="M500.283,-194.901C515.299,-196.191 531.184,-197.34 546,-198 599.123,-200.367 658.78,-199.469 705.926,-197.93"/>
<polygon fill="midnightblue" stroke="midnightblue" points="500.321,-191.391 490.05,-193.99 499.701,-198.363 500.321,-191.391"/>
</g>
<!-- Node2&#45;&gt;Node5 -->
<g id="edge8" class="edge"><title>Node2&#45;&gt;Node5</title>
<path fill="none" stroke="midnightblue" d="M487.487,-167.097C512.162,-157.454 541.084,-146.151 564.408,-137.036"/>
<polygon fill="midnightblue" stroke="midnightblue" points="485.948,-163.941 477.908,-170.841 488.496,-170.461 485.948,-163.941"/>
</g>
<!-- Node5&#45;&gt;Node4 -->
<g id="edge12" class="edge"><title>Node5&#45;&gt;Node4</title>
<path fill="none" stroke="midnightblue" d="M659.731,-140.919C687.883,-152.302 722.27,-166.208 748.786,-176.93"/>
<polygon fill="midnightblue" stroke="midnightblue" points="661.027,-137.667 650.444,-137.163 658.402,-144.157 661.027,-137.667"/>
</g>
<!-- Node6 -->
<g id="node11" class="node"><title>Node6</title>
<a xlink:href="../../dc/d77/classpocketmine_1_1inventory_1_1_player_inventory.html#aea00deec1dff34be27e648a71f3cfaa3" target="_top" xlink:title="pocketmine\\inventory\l\\PlayerInventory\\setItemInHand">
<polygon fill="white" stroke="black" points="713.5,-103 713.5,-137 868.5,-137 868.5,-103 713.5,-103"/>
<text text-anchor="start" x="721.5" y="-124" font-family="Helvetica,sans-Serif" font-size="10.00">pocketmine\inventory</text>
<text text-anchor="middle" x="791" y="-111" font-family="Helvetica,sans-Serif" font-size="10.00">\PlayerInventory\setItemInHand</text>
</a>
</g>
<!-- Node5&#45;&gt;Node6 -->
<g id="edge10" class="edge"><title>Node5&#45;&gt;Node6</title>
<path fill="none" stroke="midnightblue" d="M680.455,-120C691.28,-120 702.478,-120 713.405,-120"/>
<polygon fill="midnightblue" stroke="midnightblue" points="680.211,-116.5 670.211,-120 680.211,-123.5 680.211,-116.5"/>
</g>
<!-- Node7&#45;&gt;Node2 -->
<g id="edge18" class="edge"><title>Node7&#45;&gt;Node2</title>
<path fill="none" stroke="midnightblue" d="M332.313,-167.446C347.796,-170.576 363.56,-173.762 377.908,-176.662"/>
<polygon fill="midnightblue" stroke="midnightblue" points="332.691,-163.952 322.196,-165.401 331.304,-170.813 332.691,-163.952"/>
</g>
<!-- Node7&#45;&gt;Node5 -->
<g id="edge16" class="edge"><title>Node7&#45;&gt;Node5</title>
<path fill="none" stroke="midnightblue" d="M332.671,-142.817C398.393,-137.371 487.144,-130.016 545.905,-125.146"/>
<polygon fill="midnightblue" stroke="midnightblue" points="332.005,-139.36 322.329,-143.674 332.583,-146.336 332.005,-139.36"/>
</g>
<!-- Node8&#45;&gt;Node2 -->
<g id="edge26" class="edge"><title>Node8&#45;&gt;Node2</title>
<path fill="none" stroke="midnightblue" d="M279.829,-83.0328C316.894,-108.268 375.489,-148.162 408.748,-170.807"/>
<polygon fill="midnightblue" stroke="midnightblue" points="281.59,-79.9975 271.355,-77.2626 277.651,-85.7837 281.59,-79.9975"/>
</g>
<!-- Node8&#45;&gt;Node5 -->
<g id="edge24" class="edge"><title>Node8&#45;&gt;Node5</title>
<path fill="none" stroke="midnightblue" d="M332.383,-66.3939C384.232,-71.1592 451.301,-78.9607 510,-91 525.296,-94.1372 541.656,-98.5443 556.541,-102.978"/>
<polygon fill="midnightblue" stroke="midnightblue" points="332.497,-62.89 322.224,-65.4809 331.87,-69.862 332.497,-62.89"/>
</g>
<!-- Node8&#45;&gt;Node9 -->
<g id="edge22" class="edge"><title>Node8&#45;&gt;Node9</title>
<path fill="none" stroke="midnightblue" d="M330.567,-40.6575C340.221,-38.4495 350.009,-36.2108 359.518,-34.0359"/>
<polygon fill="midnightblue" stroke="midnightblue" points="329.54,-37.3019 320.573,-42.9435 331.101,-44.1257 329.54,-37.3019"/>
</g>
</g>
</svg>
        <g id="navigator" transform="translate(0 0)" fill="#404254">
                <rect fill="#f2f5e9" fill-opacity="0.5" stroke="#606060" stroke-width=".5" x="0" y="0" width="60" height="60"/>
                <use id="zoomplus" xlink:href="#zoomPlus" x="17" y="9" onmousedown="handleZoom(evt,'in')"/>
                <use id="zoomminus" xlink:href="#zoomMin" x="42" y="9" onmousedown="handleZoom(evt,'out')"/>
                <use id="reset" xlink:href="#resetDef" x="30" y="36" onmousedown="handleReset()"/>
                <g id="arrowUp" xlink:href="#dirArrow" transform="translate(30 24)" onmousedown="handlePan(0,-1)">
                  <use xlink:href="#rim" fill="#404040">
                        <set attributeName="fill" to="#808080" begin="arrowUp.mouseover" end="arrowUp.mouseout"/>
                  </use>
                  <path fill="none" stroke="white" stroke-width="1.5" d="M0,-3.0v7 M-2.5,-0.5L0,-3.0L2.5,-0.5"/>
                </g>
                <g id="arrowRight" xlink:href="#dirArrow" transform="rotate(90) translate(36 -43)" onmousedown="handlePan(1,0)">
                  <use xlink:href="#rim" fill="#404040">
                        <set attributeName="fill" to="#808080" begin="arrowRight.mouseover" end="arrowRight.mouseout"/>
                  </use>
                  <path fill="none" stroke="white" stroke-width="1.5" d="M0,-3.0v7 M-2.5,-0.5L0,-3.0L2.5,-0.5"/>
                </g>
                <g id="arrowDown" xlink:href="#dirArrow" transform="rotate(180) translate(-30 -48)" onmousedown="handlePan(0,1)">
                  <use xlink:href="#rim" fill="#404040">
                        <set attributeName="fill" to="#808080" begin="arrowDown.mouseover" end="arrowDown.mouseout"/>
                  </use>
                  <path fill="none" stroke="white" stroke-width="1.5" d="M0,-3.0v7 M-2.5,-0.5L0,-3.0L2.5,-0.5"/>
                </g>
                <g id="arrowLeft" xlink:href="#dirArrow" transform="rotate(270) translate(-36 17)" onmousedown="handlePan(-1,0)">
                  <use xlink:href="#rim" fill="#404040">
                        <set attributeName="fill" to="#808080" begin="arrowLeft.mouseover" end="arrowLeft.mouseout"/>
                  </use>
                  <path fill="none" stroke="white" stroke-width="1.5" d="M0,-3.0v7 M-2.5,-0.5L0,-3.0L2.5,-0.5"/>
                </g>
        </g>
        <svg viewBox="0 0 15 15" width="100%" height="30px" preserveAspectRatio="xMaxYMin meet">
         <g id="arrow_out" transform="scale(0.3 0.3)">
          <a xlink:href="classpocketmine_1_1inventory_1_1_player_inventory_af3d72b8ec9fec0a90f4d1a47057a76b2_icgraph_org.svg" target="_base">
           <rect id="button" ry="5" rx="5" y="6" x="6" height="38" width="38"
                fill="#f2f5e9" fill-opacity="0.5" stroke="#606060" stroke-width="1.0"/>
           <path id="arrow"
             d="M 11.500037,31.436501 C 11.940474,20.09759 22.043105,11.32322 32.158766,21.979434 L 37.068811,17.246167 C 37.068811,17.246167 37.088388,32 37.088388,32 L 22.160133,31.978069 C 22.160133,31.978069 26.997745,27.140456 26.997745,27.140456 C 18.528582,18.264221 13.291696,25.230495 11.500037,31.436501 z"
             style="fill:#404040;"/>
          </a>
         </g>
        </svg>
</svg>
