<?xml version="1.0" encoding="UTF-8" standalone="no"?>
<!DOCTYPE svg PUBLIC "-//W3C//DTD SVG 1.1//EN"
 "http://www.w3.org/Graphics/SVG/1.1/DTD/svg11.dtd">
<!-- Generated by graphviz version 2.36.0 (20140111.2315)
 -->
<!-- Title: pocketmine\inventory\PlayerInventory\setItemInHand Pages: 1 -->
<svg width="886pt" height="286pt"
 viewBox="0.00 0.00 886.00 285.89" xmlns="http://www.w3.org/2000/svg" xmlns:xlink="http://www.w3.org/1999/xlink">
<g id="graph0" class="graph" transform="scale(1 1) rotate(0) translate(4 281.894)">
<title>pocketmine\inventory\PlayerInventory\setItemInHand</title>
<polygon fill="white" stroke="none" points="-4,4 -4,-281.894 882,-281.894 882,4 -4,4"/>
<!-- Node1 -->
<g id="node1" class="node"><title>Node1</title>
<polygon fill="#bfbfbf" stroke="black" points="0.5,-106.318 0.5,-136.318 167.5,-136.318 167.5,-106.318 0.5,-106.318"/>
<text text-anchor="start" x="8.5" y="-124.318" font-family="Helvetica,sans-Serif" font-size="10.00">pocketmine\inventory</text>
<text text-anchor="middle" x="84" y="-113.318" font-family="Helvetica,sans-Serif" font-size="10.00">\PlayerInventory\setItemInHand</text>
</g>
<!-- Node2 -->
<g id="node2" class="node"><title>Node2</title>
<g id="a_node2"><a xlink:href="../../dc/d77/classpocketmine_1_1inventory_1_1_player_inventory.html#aa2c8b45b25cac829ee9316dd5b7b5931" target="_top" xlink:title="pocketmine\\inventory\l\\PlayerInventory\\setItem">
<polygon fill="white" stroke="black" points="204.5,-106.318 204.5,-136.318 337.5,-136.318 337.5,-106.318 204.5,-106.318"/>
<text text-anchor="start" x="212.5" y="-124.318" font-family="Helvetica,sans-Serif" font-size="10.00">pocketmine\inventory</text>
<text text-anchor="middle" x="271" y="-113.318" font-family="Helvetica,sans-Serif" font-size="10.00">\PlayerInventory\setItem</text>
</a>
</g>
</g>
<!-- Node1&#45;&gt;Node2 -->
<g id="edge1" class="edge"><title>Node1&#45;&gt;Node2</title>
<path fill="none" stroke="midnightblue" d="M167.76,-121.318C176.542,-121.318 185.442,-121.318 194.139,-121.318"/>
<polygon fill="midnightblue" stroke="midnightblue" points="194.237,-124.818 204.237,-121.318 194.237,-117.818 194.237,-124.818"/>
</g>
<!-- Node3 -->
<g id="node3" class="node"><title>Node3</title>
<g id="a_node3"><a xlink:href="../../dc/d77/classpocketmine_1_1inventory_1_1_player_inventory.html#a1b9f22225b0a8cee8cd57855c02724ab" target="_top" xlink:title="pocketmine\\inventory\l\\PlayerInventory\\clear">
<polygon fill="white" stroke="black" points="374,-150.318 374,-180.318 494,-180.318 494,-150.318 374,-150.318"/>
<text text-anchor="start" x="382" y="-168.318" font-family="Helvetica,sans-Serif" font-size="10.00">pocketmine\inventory</text>
<text text-anchor="middle" x="434" y="-157.318" font-family="Helvetica,sans-Serif" font-size="10.00">\PlayerInventory\clear</text>
</a>
</g>
</g>
<!-- Node2&#45;&gt;Node3 -->
<g id="edge2" class="edge"><title>Node2&#45;&gt;Node3</title>
<path fill="none" stroke="midnightblue" d="M326.957,-136.337C340.225,-139.963 354.525,-143.872 368.197,-147.608"/>
<polygon fill="midnightblue" stroke="midnightblue" points="367.449,-151.032 378.018,-150.292 369.294,-144.28 367.449,-151.032"/>
</g>
<!-- Node4 -->
<g id="node4" class="node"><title>Node4</title>
<g id="a_node4"><a xlink:href="../../dc/d77/classpocketmine_1_1inventory_1_1_player_inventory.html#af3d72b8ec9fec0a90f4d1a47057a76b2" target="_top" xlink:title="pocketmine\\inventory\l\\PlayerInventory\\getHolder">
<polygon fill="white" stroke="black" points="734.5,-226.318 734.5,-256.318 877.5,-256.318 877.5,-226.318 734.5,-226.318"/>
<text text-anchor="start" x="742.5" y="-244.318" font-family="Helvetica,sans-Serif" font-size="10.00">pocketmine\inventory</text>
<text text-anchor="middle" x="806" y="-233.318" font-family="Helvetica,sans-Serif" font-size="10.00">\PlayerInventory\getHolder</text>
</a>
</g>
</g>
<!-- Node2&#45;&gt;Node4 -->
<g id="edge11" class="edge"><title>Node2&#45;&gt;Node4</title>
<path fill="none" stroke="midnightblue" d="M283.42,-136.608C300.641,-158.591 335.378,-198.937 374,-221.318 499.736,-294.181 553.562,-281.318 698,-265.318 711.269,-263.848 725.298,-261.383 738.674,-258.578"/>
<polygon fill="midnightblue" stroke="midnightblue" points="739.729,-261.93 748.752,-256.377 738.235,-255.091 739.729,-261.93"/>
</g>
<!-- Node5 -->
<g id="node5" class="node"><title>Node5</title>
<g id="a_node5"><a xlink:href="../../d5/df7/classpocketmine_1_1_server.html#a8d9b9873eb3c7efce048f10f803c2b2e" target="_top" xlink:title="pocketmine\\Server\\getInstance">
<polygon fill="white" stroke="black" points="530.5,-111.818 530.5,-130.818 697.5,-130.818 697.5,-111.818 530.5,-111.818"/>
<text text-anchor="middle" x="614" y="-118.818" font-family="Helvetica,sans-Serif" font-size="10.00">pocketmine\Server\getInstance</text>
</a>
</g>
</g>
<!-- Node2&#45;&gt;Node5 -->
<g id="edge12" class="edge"><title>Node2&#45;&gt;Node5</title>
<path fill="none" stroke="midnightblue" d="M337.748,-121.318C389.508,-121.318 462.296,-121.318 520.022,-121.318"/>
<polygon fill="midnightblue" stroke="midnightblue" points="520.249,-124.818 530.249,-121.318 520.249,-117.818 520.249,-124.818"/>
</g>
<!-- Node6 -->
<g id="node6" class="node"><title>Node6</title>
<g id="a_node6"><a xlink:href="../../d5/dc4/classpocketmine_1_1inventory_1_1_base_inventory.html#a65b280b6c12e1d4e5bcd4d0de3aa4a71" target="_top" xlink:title="pocketmine\\inventory\l\\BaseInventory\\getViewers">
<polygon fill="white" stroke="black" points="734.5,-144.318 734.5,-174.318 877.5,-174.318 877.5,-144.318 734.5,-144.318"/>
<text text-anchor="start" x="742.5" y="-162.318" font-family="Helvetica,sans-Serif" font-size="10.00">pocketmine\inventory</text>
<text text-anchor="middle" x="806" y="-151.318" font-family="Helvetica,sans-Serif" font-size="10.00">\BaseInventory\getViewers</text>
</a>
</g>
</g>
<!-- Node2&#45;&gt;Node6 -->
<g id="edge14" class="edge"><title>Node2&#45;&gt;Node6</title>
<path fill="none" stroke="midnightblue" d="M337.751,-106.905C422.444,-90.9292 573.562,-71.2408 698,-102.318 726.105,-109.337 754.918,-125.285 775.554,-138.531"/>
<polygon fill="midnightblue" stroke="midnightblue" points="773.873,-141.615 784.149,-144.197 777.726,-135.771 773.873,-141.615"/>
</g>
<!-- Node7 -->
<g id="node7" class="node"><title>Node7</title>
<g id="a_node7"><a xlink:href="../../dc/d77/classpocketmine_1_1inventory_1_1_player_inventory.html#ad3878f887e75d92f3164e4d78fd40fab" target="_top" xlink:title="pocketmine\\inventory\l\\PlayerInventory\\onSlotChange">
<polygon fill="white" stroke="black" points="532,-226.318 532,-256.318 696,-256.318 696,-226.318 532,-226.318"/>
<text text-anchor="start" x="540" y="-244.318" font-family="Helvetica,sans-Serif" font-size="10.00">pocketmine\inventory</text>
<text text-anchor="middle" x="614" y="-233.318" font-family="Helvetica,sans-Serif" font-size="10.00">\PlayerInventory\onSlotChange</text>
</a>
</g>
</g>
<!-- Node2&#45;&gt;Node7 -->
<g id="edge15" class="edge"><title>Node2&#45;&gt;Node7</title>
<path fill="none" stroke="midnightblue" d="M289.959,-136.358C309.444,-151.909 342.063,-175.773 374,-189.318 420.892,-209.206 476.311,-221.873 521.972,-229.719"/>
<polygon fill="midnightblue" stroke="midnightblue" points="521.419,-233.175 531.859,-231.37 522.571,-226.271 521.419,-233.175"/>
</g>
<!-- Node8 -->
<g id="node8" class="node"><title>Node8</title>
<g id="a_node8"><a xlink:href="../../d5/dc4/classpocketmine_1_1inventory_1_1_base_inventory.html#ad84dac811677e799d06924279a4288cc" target="_top" xlink:title="pocketmine\\inventory\l\\BaseInventory\\sendSlot">
<polygon fill="white" stroke="black" points="547.5,-24.3182 547.5,-54.3182 680.5,-54.3182 680.5,-24.3182 547.5,-24.3182"/>
<text text-anchor="start" x="555.5" y="-42.3182" font-family="Helvetica,sans-Serif" font-size="10.00">pocketmine\inventory</text>
<text text-anchor="middle" x="614" y="-31.3182" font-family="Helvetica,sans-Serif" font-size="10.00">\BaseInventory\sendSlot</text>
</a>
</g>
</g>
<!-- Node2&#45;&gt;Node8 -->
<g id="edge16" class="edge"><title>Node2&#45;&gt;Node8</title>
<path fill="none" stroke="midnightblue" d="M295.725,-106.219C315.781,-94.2067 345.69,-78.0186 374,-69.3182 427.068,-53.0089 489.371,-45.5472 537.058,-42.1428"/>
<polygon fill="midnightblue" stroke="midnightblue" points="537.566,-45.6167 547.31,-41.457 537.098,-38.6323 537.566,-45.6167"/>
</g>
<!-- Node9 -->
<g id="node9" class="node"><title>Node9</title>
<g id="a_node9"><a xlink:href="../../d5/dc4/classpocketmine_1_1inventory_1_1_base_inventory.html#a8bc94c0515906b5c1f3af5600d89b3df" target="_top" xlink:title="pocketmine\\inventory\l\\BaseInventory\\getItem">
<polygon fill="white" stroke="black" points="742,-2.31825 742,-32.3182 870,-32.3182 870,-2.31825 742,-2.31825"/>
<text text-anchor="start" x="750" y="-20.3182" font-family="Helvetica,sans-Serif" font-size="10.00">pocketmine\inventory</text>
<text text-anchor="middle" x="806" y="-9.31825" font-family="Helvetica,sans-Serif" font-size="10.00">\BaseInventory\getItem</text>
</a>
</g>
</g>
<!-- Node2&#45;&gt;Node9 -->
<g id="edge13" class="edge"><title>Node2&#45;&gt;Node9</title>
<path fill="none" stroke="midnightblue" d="M287.075,-106.037C305.753,-88.0582 339.37,-58.7133 374,-43.3182 490.743,8.58139 643.071,2.90056 731.86,-6.69553"/>
<polygon fill="midnightblue" stroke="midnightblue" points="731.508,-10.1779 741.837,-7.81939 732.292,-3.22191 731.508,-10.1779"/>
</g>
<!-- Node3&#45;&gt;Node4 -->
<g id="edge3" class="edge"><title>Node3&#45;&gt;Node4</title>
<path fill="none" stroke="midnightblue" d="M494.146,-176.123C547.535,-186.035 628.183,-201.398 698,-216.318 709.182,-218.708 720.994,-221.349 732.528,-223.993"/>
<polygon fill="midnightblue" stroke="midnightblue" points="732.038,-227.472 742.569,-226.311 733.613,-220.651 732.038,-227.472"/>
</g>
<!-- Node3&#45;&gt;Node5 -->
<g id="edge4" class="edge"><title>Node3&#45;&gt;Node5</title>
<path fill="none" stroke="midnightblue" d="M494.271,-150.667C517.058,-145.034 542.783,-138.675 564.446,-133.32"/>
<polygon fill="midnightblue" stroke="midnightblue" points="565.538,-136.656 574.406,-130.858 563.858,-129.86 565.538,-136.656"/>
</g>
<!-- Node3&#45;&gt;Node6 -->
<g id="edge5" class="edge"><title>Node3&#45;&gt;Node6</title>
<path fill="none" stroke="midnightblue" d="M494.037,-164.361C556.362,-163.35 655.011,-161.751 724.453,-160.624"/>
<polygon fill="midnightblue" stroke="midnightblue" points="724.537,-164.124 734.479,-160.462 724.424,-157.125 724.537,-164.124"/>
</g>
<!-- Node3&#45;&gt;Node7 -->
<g id="edge6" class="edge"><title>Node3&#45;&gt;Node7</title>
<path fill="none" stroke="midnightblue" d="M464.164,-180.416C482.777,-189.806 507.541,-201.852 530,-211.318 539.319,-215.246 549.349,-219.142 559.105,-222.763"/>
<polygon fill="midnightblue" stroke="midnightblue" points="558.139,-226.136 568.733,-226.282 560.542,-219.561 558.139,-226.136"/>
</g>
<!-- Node3&#45;&gt;Node8 -->
<g id="edge9" class="edge"><title>Node3&#45;&gt;Node8</title>
<path fill="none" stroke="midnightblue" d="M456.471,-150.12C488.096,-127.734 547.317,-85.8131 583.154,-60.4454"/>
<polygon fill="midnightblue" stroke="midnightblue" points="585.59,-63.009 591.73,-54.3746 581.546,-57.2955 585.59,-63.009"/>
</g>
<!-- Node7&#45;&gt;Node4 -->
<g id="edge7" class="edge"><title>Node7&#45;&gt;Node4</title>
<path fill="none" stroke="midnightblue" d="M696.128,-241.318C705.461,-241.318 714.977,-241.318 724.304,-241.318"/>
<polygon fill="midnightblue" stroke="midnightblue" points="724.333,-244.818 734.333,-241.318 724.333,-237.818 724.333,-244.818"/>
</g>
<!-- Node7&#45;&gt;Node6 -->
<g id="edge8" class="edge"><title>Node7&#45;&gt;Node6</title>
<path fill="none" stroke="midnightblue" d="M649.849,-226.278C681.087,-212.796 727.066,-192.953 760.863,-178.367"/>
<polygon fill="midnightblue" stroke="midnightblue" points="762.256,-181.578 770.051,-174.402 759.482,-175.151 762.256,-181.578"/>
</g>
<!-- Node8&#45;&gt;Node9 -->
<g id="edge10" class="edge"><title>Node8&#45;&gt;Node9</title>
<path fill="none" stroke="midnightblue" d="M680.653,-31.7163C697.086,-29.8135 714.818,-27.7603 731.601,-25.8171"/>
<polygon fill="midnightblue" stroke="midnightblue" points="732.376,-29.2508 741.908,-24.6237 731.571,-22.2972 732.376,-29.2508"/>
</g>
</g>
</svg>
