<?xml version="1.0" encoding="UTF-8" standalone="no"?>
<!DOCTYPE svg PUBLIC "-//W3C//DTD SVG 1.1//EN"
 "http://www.w3.org/Graphics/SVG/1.1/DTD/svg11.dtd">
<!-- Generated by graphviz version 2.36.0 (20140111.2315)
 -->
<!-- Title: pocketmine\inventory\PlayerInventory\setArmorContents Pages: 1 -->
<svg width="904pt" height="286pt"
 viewBox="0.00 0.00 904.00 285.89" xmlns="http://www.w3.org/2000/svg" xmlns:xlink="http://www.w3.org/1999/xlink">
<g id="graph0" class="graph" transform="scale(1 1) rotate(0) translate(4 281.894)">
<title>pocketmine\inventory\PlayerInventory\setArmorContents</title>
<polygon fill="white" stroke="none" points="-4,4 -4,-281.894 900,-281.894 900,4 -4,4"/>
<!-- Node1 -->
<g id="node1" class="node"><title>Node1</title>
<polygon fill="#bfbfbf" stroke="black" points="0.5,-128.318 0.5,-158.318 185.5,-158.318 185.5,-128.318 0.5,-128.318"/>
<text text-anchor="start" x="8.5" y="-146.318" font-family="Helvetica,sans-Serif" font-size="10.00">pocketmine\inventory</text>
<text text-anchor="middle" x="93" y="-135.318" font-family="Helvetica,sans-Serif" font-size="10.00">\PlayerInventory\setArmorContents</text>
</g>
<!-- Node2 -->
<g id="node2" class="node"><title>Node2</title>
<g id="a_node2"><a xlink:href="../../dc/d77/classpocketmine_1_1inventory_1_1_player_inventory.html#a1b9f22225b0a8cee8cd57855c02724ab" target="_top" xlink:title="pocketmine\\inventory\l\\PlayerInventory\\clear">
<polygon fill="white" stroke="black" points="392,-150.318 392,-180.318 512,-180.318 512,-150.318 392,-150.318"/>
<text text-anchor="start" x="400" y="-168.318" font-family="Helvetica,sans-Serif" font-size="10.00">pocketmine\inventory</text>
<text text-anchor="middle" x="452" y="-157.318" font-family="Helvetica,sans-Serif" font-size="10.00">\PlayerInventory\clear</text>
</a>
</g>
</g>
<!-- Node1&#45;&gt;Node2 -->
<g id="edge1" class="edge"><title>Node1&#45;&gt;Node2</title>
<path fill="none" stroke="midnightblue" d="M185.936,-148.984C247.006,-152.747 325.913,-157.61 381.703,-161.048"/>
<polygon fill="midnightblue" stroke="midnightblue" points="381.646,-164.551 391.842,-161.673 382.076,-157.564 381.646,-164.551"/>
</g>
<!-- Node9 -->
<g id="node9" class="node"><title>Node9</title>
<g id="a_node9"><a xlink:href="../../dc/d77/classpocketmine_1_1inventory_1_1_player_inventory.html#aa2c8b45b25cac829ee9316dd5b7b5931" target="_top" xlink:title="pocketmine\\inventory\l\\PlayerInventory\\setItem">
<polygon fill="white" stroke="black" points="222.5,-106.318 222.5,-136.318 355.5,-136.318 355.5,-106.318 222.5,-106.318"/>
<text text-anchor="start" x="230.5" y="-124.318" font-family="Helvetica,sans-Serif" font-size="10.00">pocketmine\inventory</text>
<text text-anchor="middle" x="289" y="-113.318" font-family="Helvetica,sans-Serif" font-size="10.00">\PlayerInventory\setItem</text>
</a>
</g>
</g>
<!-- Node1&#45;&gt;Node9 -->
<g id="edge10" class="edge"><title>Node1&#45;&gt;Node9</title>
<path fill="none" stroke="midnightblue" d="M185.603,-132.93C194.488,-131.923 203.433,-130.908 212.14,-129.921"/>
<polygon fill="midnightblue" stroke="midnightblue" points="212.691,-133.381 222.233,-128.776 211.902,-126.426 212.691,-133.381"/>
</g>
<!-- Node3 -->
<g id="node3" class="node"><title>Node3</title>
<g id="a_node3"><a xlink:href="../../dc/d77/classpocketmine_1_1inventory_1_1_player_inventory.html#af3d72b8ec9fec0a90f4d1a47057a76b2" target="_top" xlink:title="pocketmine\\inventory\l\\PlayerInventory\\getHolder">
<polygon fill="white" stroke="black" points="752.5,-144.318 752.5,-174.318 895.5,-174.318 895.5,-144.318 752.5,-144.318"/>
<text text-anchor="start" x="760.5" y="-162.318" font-family="Helvetica,sans-Serif" font-size="10.00">pocketmine\inventory</text>
<text text-anchor="middle" x="824" y="-151.318" font-family="Helvetica,sans-Serif" font-size="10.00">\PlayerInventory\getHolder</text>
</a>
</g>
</g>
<!-- Node2&#45;&gt;Node3 -->
<g id="edge2" class="edge"><title>Node2&#45;&gt;Node3</title>
<path fill="none" stroke="midnightblue" d="M512.037,-164.361C574.362,-163.35 673.011,-161.751 742.453,-160.624"/>
<polygon fill="midnightblue" stroke="midnightblue" points="742.537,-164.124 752.479,-160.462 742.424,-157.125 742.537,-164.124"/>
</g>
<!-- Node4 -->
<g id="node4" class="node"><title>Node4</title>
<g id="a_node4"><a xlink:href="../../d5/df7/classpocketmine_1_1_server.html#a8d9b9873eb3c7efce048f10f803c2b2e" target="_top" xlink:title="pocketmine\\Server\\getInstance">
<polygon fill="white" stroke="black" points="548.5,-111.818 548.5,-130.818 715.5,-130.818 715.5,-111.818 548.5,-111.818"/>
<text text-anchor="middle" x="632" y="-118.818" font-family="Helvetica,sans-Serif" font-size="10.00">pocketmine\Server\getInstance</text>
</a>
</g>
</g>
<!-- Node2&#45;&gt;Node4 -->
<g id="edge3" class="edge"><title>Node2&#45;&gt;Node4</title>
<path fill="none" stroke="midnightblue" d="M512.271,-150.667C535.058,-145.034 560.783,-138.675 582.446,-133.32"/>
<polygon fill="midnightblue" stroke="midnightblue" points="583.538,-136.656 592.406,-130.858 581.858,-129.86 583.538,-136.656"/>
</g>
<!-- Node5 -->
<g id="node5" class="node"><title>Node5</title>
<g id="a_node5"><a xlink:href="../../d5/dc4/classpocketmine_1_1inventory_1_1_base_inventory.html#a65b280b6c12e1d4e5bcd4d0de3aa4a71" target="_top" xlink:title="pocketmine\\inventory\l\\BaseInventory\\getViewers">
<polygon fill="white" stroke="black" points="752.5,-226.318 752.5,-256.318 895.5,-256.318 895.5,-226.318 752.5,-226.318"/>
<text text-anchor="start" x="760.5" y="-244.318" font-family="Helvetica,sans-Serif" font-size="10.00">pocketmine\inventory</text>
<text text-anchor="middle" x="824" y="-233.318" font-family="Helvetica,sans-Serif" font-size="10.00">\BaseInventory\getViewers</text>
</a>
</g>
</g>
<!-- Node2&#45;&gt;Node5 -->
<g id="edge4" class="edge"><title>Node2&#45;&gt;Node5</title>
<path fill="none" stroke="midnightblue" d="M512.146,-176.123C565.535,-186.035 646.183,-201.398 716,-216.318 727.182,-218.708 738.994,-221.349 750.528,-223.993"/>
<polygon fill="midnightblue" stroke="midnightblue" points="750.038,-227.472 760.569,-226.311 751.613,-220.651 750.038,-227.472"/>
</g>
<!-- Node6 -->
<g id="node6" class="node"><title>Node6</title>
<g id="a_node6"><a xlink:href="../../dc/d77/classpocketmine_1_1inventory_1_1_player_inventory.html#ad3878f887e75d92f3164e4d78fd40fab" target="_top" xlink:title="pocketmine\\inventory\l\\PlayerInventory\\onSlotChange">
<polygon fill="white" stroke="black" points="550,-226.318 550,-256.318 714,-256.318 714,-226.318 550,-226.318"/>
<text text-anchor="start" x="558" y="-244.318" font-family="Helvetica,sans-Serif" font-size="10.00">pocketmine\inventory</text>
<text text-anchor="middle" x="632" y="-233.318" font-family="Helvetica,sans-Serif" font-size="10.00">\PlayerInventory\onSlotChange</text>
</a>
</g>
</g>
<!-- Node2&#45;&gt;Node6 -->
<g id="edge5" class="edge"><title>Node2&#45;&gt;Node6</title>
<path fill="none" stroke="midnightblue" d="M482.164,-180.416C500.777,-189.806 525.541,-201.852 548,-211.318 557.319,-215.246 567.349,-219.142 577.105,-222.763"/>
<polygon fill="midnightblue" stroke="midnightblue" points="576.139,-226.136 586.733,-226.282 578.542,-219.561 576.139,-226.136"/>
</g>
<!-- Node7 -->
<g id="node7" class="node"><title>Node7</title>
<g id="a_node7"><a xlink:href="../../d5/dc4/classpocketmine_1_1inventory_1_1_base_inventory.html#ad84dac811677e799d06924279a4288cc" target="_top" xlink:title="pocketmine\\inventory\l\\BaseInventory\\sendSlot">
<polygon fill="white" stroke="black" points="565.5,-24.3182 565.5,-54.3182 698.5,-54.3182 698.5,-24.3182 565.5,-24.3182"/>
<text text-anchor="start" x="573.5" y="-42.3182" font-family="Helvetica,sans-Serif" font-size="10.00">pocketmine\inventory</text>
<text text-anchor="middle" x="632" y="-31.3182" font-family="Helvetica,sans-Serif" font-size="10.00">\BaseInventory\sendSlot</text>
</a>
</g>
</g>
<!-- Node2&#45;&gt;Node7 -->
<g id="edge8" class="edge"><title>Node2&#45;&gt;Node7</title>
<path fill="none" stroke="midnightblue" d="M474.471,-150.12C506.096,-127.734 565.317,-85.8131 601.154,-60.4454"/>
<polygon fill="midnightblue" stroke="midnightblue" points="603.59,-63.009 609.73,-54.3746 599.546,-57.2955 603.59,-63.009"/>
</g>
<!-- Node6&#45;&gt;Node3 -->
<g id="edge6" class="edge"><title>Node6&#45;&gt;Node3</title>
<path fill="none" stroke="midnightblue" d="M667.849,-226.278C699.087,-212.796 745.066,-192.953 778.863,-178.367"/>
<polygon fill="midnightblue" stroke="midnightblue" points="780.256,-181.578 788.051,-174.402 777.482,-175.151 780.256,-181.578"/>
</g>
<!-- Node6&#45;&gt;Node5 -->
<g id="edge7" class="edge"><title>Node6&#45;&gt;Node5</title>
<path fill="none" stroke="midnightblue" d="M714.128,-241.318C723.461,-241.318 732.977,-241.318 742.304,-241.318"/>
<polygon fill="midnightblue" stroke="midnightblue" points="742.333,-244.818 752.333,-241.318 742.333,-237.818 742.333,-244.818"/>
</g>
<!-- Node8 -->
<g id="node8" class="node"><title>Node8</title>
<g id="a_node8"><a xlink:href="../../d5/dc4/classpocketmine_1_1inventory_1_1_base_inventory.html#a8bc94c0515906b5c1f3af5600d89b3df" target="_top" xlink:title="pocketmine\\inventory\l\\BaseInventory\\getItem">
<polygon fill="white" stroke="black" points="760,-2.31825 760,-32.3182 888,-32.3182 888,-2.31825 760,-2.31825"/>
<text text-anchor="start" x="768" y="-20.3182" font-family="Helvetica,sans-Serif" font-size="10.00">pocketmine\inventory</text>
<text text-anchor="middle" x="824" y="-9.31825" font-family="Helvetica,sans-Serif" font-size="10.00">\BaseInventory\getItem</text>
</a>
</g>
</g>
<!-- Node7&#45;&gt;Node8 -->
<g id="edge9" class="edge"><title>Node7&#45;&gt;Node8</title>
<path fill="none" stroke="midnightblue" d="M698.653,-31.7163C715.086,-29.8135 732.818,-27.7603 749.601,-25.8171"/>
<polygon fill="midnightblue" stroke="midnightblue" points="750.376,-29.2508 759.908,-24.6237 749.571,-22.2972 750.376,-29.2508"/>
</g>
<!-- Node9&#45;&gt;Node2 -->
<g id="edge11" class="edge"><title>Node9&#45;&gt;Node2</title>
<path fill="none" stroke="midnightblue" d="M344.957,-136.337C358.225,-139.963 372.525,-143.872 386.197,-147.608"/>
<polygon fill="midnightblue" stroke="midnightblue" points="385.449,-151.032 396.018,-150.292 387.294,-144.28 385.449,-151.032"/>
</g>
<!-- Node9&#45;&gt;Node3 -->
<g id="edge13" class="edge"><title>Node9&#45;&gt;Node3</title>
<path fill="none" stroke="midnightblue" d="M355.751,-106.905C440.444,-90.9292 591.562,-71.2408 716,-102.318 744.105,-109.337 772.918,-125.285 793.554,-138.531"/>
<polygon fill="midnightblue" stroke="midnightblue" points="791.873,-141.615 802.149,-144.197 795.726,-135.771 791.873,-141.615"/>
</g>
<!-- Node9&#45;&gt;Node4 -->
<g id="edge12" class="edge"><title>Node9&#45;&gt;Node4</title>
<path fill="none" stroke="midnightblue" d="M355.748,-121.318C407.508,-121.318 480.296,-121.318 538.022,-121.318"/>
<polygon fill="midnightblue" stroke="midnightblue" points="538.249,-124.818 548.249,-121.318 538.249,-117.818 538.249,-124.818"/>
</g>
<!-- Node9&#45;&gt;Node5 -->
<g id="edge15" class="edge"><title>Node9&#45;&gt;Node5</title>
<path fill="none" stroke="midnightblue" d="M301.42,-136.608C318.641,-158.591 353.378,-198.937 392,-221.318 517.736,-294.181 571.562,-281.318 716,-265.318 729.269,-263.848 743.298,-261.383 756.674,-258.578"/>
<polygon fill="midnightblue" stroke="midnightblue" points="757.729,-261.93 766.752,-256.377 756.235,-255.091 757.729,-261.93"/>
</g>
<!-- Node9&#45;&gt;Node6 -->
<g id="edge17" class="edge"><title>Node9&#45;&gt;Node6</title>
<path fill="none" stroke="midnightblue" d="M307.959,-136.358C327.444,-151.909 360.063,-175.773 392,-189.318 438.892,-209.206 494.311,-221.873 539.972,-229.719"/>
<polygon fill="midnightblue" stroke="midnightblue" points="539.419,-233.175 549.859,-231.37 540.571,-226.271 539.419,-233.175"/>
</g>
<!-- Node9&#45;&gt;Node7 -->
<g id="edge16" class="edge"><title>Node9&#45;&gt;Node7</title>
<path fill="none" stroke="midnightblue" d="M313.725,-106.219C333.781,-94.2067 363.69,-78.0186 392,-69.3182 445.068,-53.0089 507.371,-45.5472 555.058,-42.1428"/>
<polygon fill="midnightblue" stroke="midnightblue" points="555.566,-45.6167 565.31,-41.457 555.098,-38.6323 555.566,-45.6167"/>
</g>
<!-- Node9&#45;&gt;Node8 -->
<g id="edge14" class="edge"><title>Node9&#45;&gt;Node8</title>
<path fill="none" stroke="midnightblue" d="M305.075,-106.037C323.753,-88.0582 357.37,-58.7133 392,-43.3182 508.743,8.58139 661.071,2.90056 749.86,-6.69553"/>
<polygon fill="midnightblue" stroke="midnightblue" points="749.508,-10.1779 759.837,-7.81939 750.292,-3.22191 749.508,-10.1779"/>
</g>
</g>
</svg>
