<?xml version="1.0" encoding="UTF-8" standalone="no"?>
<!DOCTYPE svg PUBLIC "-//W3C//DTD SVG 1.1//EN"
 "http://www.w3.org/Graphics/SVG/1.1/DTD/svg11.dtd">
<!-- Generated by graphviz version 2.36.0 (20140111.2315)
 -->
<!-- Title: pocketmine\inventory\PlayerInventory\clearAll Pages: 1 -->
<svg width="680pt" height="188pt"
 viewBox="0.00 0.00 680.00 188.03" xmlns="http://www.w3.org/2000/svg" xmlns:xlink="http://www.w3.org/1999/xlink">
<g id="graph0" class="graph" transform="scale(1 1) rotate(0) translate(4 184.032)">
<title>pocketmine\inventory\PlayerInventory\clearAll</title>
<polygon fill="white" stroke="none" points="-4,4 -4,-184.032 676,-184.032 676,4 -4,4"/>
<!-- Node1 -->
<g id="node1" class="node"><title>Node1</title>
<polygon fill="#bfbfbf" stroke="black" points="0.5,-88 0.5,-118 131.5,-118 131.5,-88 0.5,-88"/>
<text text-anchor="start" x="8.5" y="-106" font-family="Helvetica,sans-Serif" font-size="10.00">pocketmine\inventory</text>
<text text-anchor="middle" x="66" y="-95" font-family="Helvetica,sans-Serif" font-size="10.00">\PlayerInventory\clearAll</text>
</g>
<!-- Node2 -->
<g id="node2" class="node"><title>Node2</title>
<g id="a_node2"><a xlink:href="../../dc/d77/classpocketmine_1_1inventory_1_1_player_inventory.html#a1b9f22225b0a8cee8cd57855c02724ab" target="_top" xlink:title="pocketmine\\inventory\l\\PlayerInventory\\clear">
<polygon fill="white" stroke="black" points="168,-88 168,-118 288,-118 288,-88 168,-88"/>
<text text-anchor="start" x="176" y="-106" font-family="Helvetica,sans-Serif" font-size="10.00">pocketmine\inventory</text>
<text text-anchor="middle" x="228" y="-95" font-family="Helvetica,sans-Serif" font-size="10.00">\PlayerInventory\clear</text>
</a>
</g>
</g>
<!-- Node1&#45;&gt;Node2 -->
<g id="edge1" class="edge"><title>Node1&#45;&gt;Node2</title>
<path fill="none" stroke="midnightblue" d="M131.617,-103C140.219,-103 149.069,-103 157.746,-103"/>
<polygon fill="midnightblue" stroke="midnightblue" points="157.829,-106.5 167.829,-103 157.829,-99.5001 157.829,-106.5"/>
</g>
<!-- Node3 -->
<g id="node3" class="node"><title>Node3</title>
<g id="a_node3"><a xlink:href="../../dc/d77/classpocketmine_1_1inventory_1_1_player_inventory.html#af3d72b8ec9fec0a90f4d1a47057a76b2" target="_top" xlink:title="pocketmine\\inventory\l\\PlayerInventory\\getHolder">
<polygon fill="white" stroke="black" points="528.5,-143 528.5,-173 671.5,-173 671.5,-143 528.5,-143"/>
<text text-anchor="start" x="536.5" y="-161" font-family="Helvetica,sans-Serif" font-size="10.00">pocketmine\inventory</text>
<text text-anchor="middle" x="600" y="-150" font-family="Helvetica,sans-Serif" font-size="10.00">\PlayerInventory\getHolder</text>
</a>
</g>
</g>
<!-- Node2&#45;&gt;Node3 -->
<g id="edge2" class="edge"><title>Node2&#45;&gt;Node3</title>
<path fill="none" stroke="midnightblue" d="M245.275,-118.216C263.046,-133.695 293.115,-156.69 324,-166 387.285,-185.077 462.51,-181.191 518.273,-173.594"/>
<polygon fill="midnightblue" stroke="midnightblue" points="519.048,-177.019 528.451,-172.137 518.056,-170.09 519.048,-177.019"/>
</g>
<!-- Node4 -->
<g id="node4" class="node"><title>Node4</title>
<g id="a_node4"><a xlink:href="../../d5/df7/classpocketmine_1_1_server.html#a8d9b9873eb3c7efce048f10f803c2b2e" target="_top" xlink:title="pocketmine\\Server\\getInstance">
<polygon fill="white" stroke="black" points="324.5,-137.5 324.5,-156.5 491.5,-156.5 491.5,-137.5 324.5,-137.5"/>
<text text-anchor="middle" x="408" y="-144.5" font-family="Helvetica,sans-Serif" font-size="10.00">pocketmine\Server\getInstance</text>
</a>
</g>
</g>
<!-- Node2&#45;&gt;Node4 -->
<g id="edge3" class="edge"><title>Node2&#45;&gt;Node4</title>
<path fill="none" stroke="midnightblue" d="M288.013,-118.016C299.921,-121.015 312.356,-124.126 324,-127 334.687,-129.637 346.159,-132.428 357.06,-135.06"/>
<polygon fill="midnightblue" stroke="midnightblue" points="356.331,-138.485 366.873,-137.425 357.971,-131.68 356.331,-138.485"/>
</g>
<!-- Node5 -->
<g id="node5" class="node"><title>Node5</title>
<g id="a_node5"><a xlink:href="../../d5/dc4/classpocketmine_1_1inventory_1_1_base_inventory.html#a65b280b6c12e1d4e5bcd4d0de3aa4a71" target="_top" xlink:title="pocketmine\\inventory\l\\BaseInventory\\getViewers">
<polygon fill="white" stroke="black" points="528.5,-68 528.5,-98 671.5,-98 671.5,-68 528.5,-68"/>
<text text-anchor="start" x="536.5" y="-86" font-family="Helvetica,sans-Serif" font-size="10.00">pocketmine\inventory</text>
<text text-anchor="middle" x="600" y="-75" font-family="Helvetica,sans-Serif" font-size="10.00">\BaseInventory\getViewers</text>
</a>
</g>
</g>
<!-- Node2&#45;&gt;Node5 -->
<g id="edge4" class="edge"><title>Node2&#45;&gt;Node5</title>
<path fill="none" stroke="midnightblue" d="M276.366,-87.9759C291.432,-83.8908 308.27,-80.035 324,-78 388.978,-69.5934 463.302,-71.6347 518.287,-75.3391"/>
<polygon fill="midnightblue" stroke="midnightblue" points="518.101,-78.8346 528.322,-76.048 518.594,-71.852 518.101,-78.8346"/>
</g>
<!-- Node6 -->
<g id="node6" class="node"><title>Node6</title>
<g id="a_node6"><a xlink:href="../../dc/d77/classpocketmine_1_1inventory_1_1_player_inventory.html#ad3878f887e75d92f3164e4d78fd40fab" target="_top" xlink:title="pocketmine\\inventory\l\\PlayerInventory\\onSlotChange">
<polygon fill="white" stroke="black" points="326,-88 326,-118 490,-118 490,-88 326,-88"/>
<text text-anchor="start" x="334" y="-106" font-family="Helvetica,sans-Serif" font-size="10.00">pocketmine\inventory</text>
<text text-anchor="middle" x="408" y="-95" font-family="Helvetica,sans-Serif" font-size="10.00">\PlayerInventory\onSlotChange</text>
</a>
</g>
</g>
<!-- Node2&#45;&gt;Node6 -->
<g id="edge5" class="edge"><title>Node2&#45;&gt;Node6</title>
<path fill="none" stroke="midnightblue" d="M288.271,-103C297.11,-103 306.39,-103 315.703,-103"/>
<polygon fill="midnightblue" stroke="midnightblue" points="315.803,-106.5 325.803,-103 315.803,-99.5001 315.803,-106.5"/>
</g>
<!-- Node7 -->
<g id="node7" class="node"><title>Node7</title>
<g id="a_node7"><a xlink:href="../../d5/dc4/classpocketmine_1_1inventory_1_1_base_inventory.html#ad84dac811677e799d06924279a4288cc" target="_top" xlink:title="pocketmine\\inventory\l\\BaseInventory\\sendSlot">
<polygon fill="white" stroke="black" points="341.5,-0 341.5,-30 474.5,-30 474.5,-0 341.5,-0"/>
<text text-anchor="start" x="349.5" y="-18" font-family="Helvetica,sans-Serif" font-size="10.00">pocketmine\inventory</text>
<text text-anchor="middle" x="408" y="-7" font-family="Helvetica,sans-Serif" font-size="10.00">\BaseInventory\sendSlot</text>
</a>
</g>
</g>
<!-- Node2&#45;&gt;Node7 -->
<g id="edge8" class="edge"><title>Node2&#45;&gt;Node7</title>
<path fill="none" stroke="midnightblue" d="M250.934,-87.8539C269.744,-75.2991 297.868,-57.542 324,-45 332.509,-40.9159 341.729,-37.0603 350.825,-33.5596"/>
<polygon fill="midnightblue" stroke="midnightblue" points="352.084,-36.8259 360.225,-30.0453 349.632,-30.2692 352.084,-36.8259"/>
</g>
<!-- Node6&#45;&gt;Node3 -->
<g id="edge7" class="edge"><title>Node6&#45;&gt;Node3</title>
<path fill="none" stroke="midnightblue" d="M460.918,-118.029C484.586,-124.88 512.779,-133.041 537.502,-140.198"/>
<polygon fill="midnightblue" stroke="midnightblue" points="536.566,-143.571 547.144,-142.989 538.512,-136.847 536.566,-143.571"/>
</g>
<!-- Node6&#45;&gt;Node5 -->
<g id="edge6" class="edge"><title>Node6&#45;&gt;Node5</title>
<path fill="none" stroke="midnightblue" d="M490.128,-94.4602C499.461,-93.4778 508.977,-92.4762 518.304,-91.4943"/>
<polygon fill="midnightblue" stroke="midnightblue" points="518.755,-94.9663 528.333,-90.4386 518.022,-88.0048 518.755,-94.9663"/>
</g>
<!-- Node8 -->
<g id="node8" class="node"><title>Node8</title>
<g id="a_node8"><a xlink:href="../../d5/dc4/classpocketmine_1_1inventory_1_1_base_inventory.html#a8bc94c0515906b5c1f3af5600d89b3df" target="_top" xlink:title="pocketmine\\inventory\l\\BaseInventory\\getItem">
<polygon fill="white" stroke="black" points="536,-0 536,-30 664,-30 664,-0 536,-0"/>
<text text-anchor="start" x="544" y="-18" font-family="Helvetica,sans-Serif" font-size="10.00">pocketmine\inventory</text>
<text text-anchor="middle" x="600" y="-7" font-family="Helvetica,sans-Serif" font-size="10.00">\BaseInventory\getItem</text>
</a>
</g>
</g>
<!-- Node7&#45;&gt;Node8 -->
<g id="edge9" class="edge"><title>Node7&#45;&gt;Node8</title>
<path fill="none" stroke="midnightblue" d="M474.653,-15C491.086,-15 508.818,-15 525.601,-15"/>
<polygon fill="midnightblue" stroke="midnightblue" points="525.908,-18.5001 535.908,-15 525.907,-11.5001 525.908,-18.5001"/>
</g>
</g>
</svg>
