<?xml version="1.0" encoding="UTF-8" standalone="no"?>
<!DOCTYPE svg PUBLIC "-//W3C//DTD SVG 1.1//EN"
 "http://www.w3.org/Graphics/SVG/1.1/DTD/svg11.dtd">
<!-- Generated by graphviz version 2.26.3 (20100126.1600)
 -->
<!-- Title: pocketmine\inventory\PlayerInventory\sendHeldItem Pages: 1 -->
<svg width="518pt" height="94pt"
 viewBox="0.00 0.00 518.00 94.00" xmlns="http://www.w3.org/2000/svg" xmlns:xlink="http://www.w3.org/1999/xlink">
<g id="graph1" class="graph" transform="scale(1 1) rotate(0) translate(4 90)">
<title>pocketmine\inventory\PlayerInventory\sendHeldItem</title>
<polygon fill="white" stroke="white" points="-4,5 -4,-90 515,-90 515,5 -4,5"/>
<!-- Node1 -->
<g id="node1" class="node"><title>Node1</title>
<polygon fill="#bfbfbf" stroke="black" points="0,-29 0,-63 152,-63 152,-29 0,-29"/>
<text text-anchor="start" x="8" y="-50" font-family="Helvetica,sans-Serif" font-size="10.00">pocketmine\inventory</text>
<text text-anchor="middle" x="76" y="-37" font-family="Helvetica,sans-Serif" font-size="10.00">\PlayerInventory\sendHeldItem</text>
</g>
<!-- Node2 -->
<g id="node3" class="node"><title>Node2</title>
<a xlink:href="../../dc/d77/classpocketmine_1_1inventory_1_1_player_inventory.html#af3d72b8ec9fec0a90f4d1a47057a76b2" target="_top" xlink:title="pocketmine\\inventory\l\\PlayerInventory\\getHolder">
<polygon fill="white" stroke="black" points="376.5,-52 376.5,-86 509.5,-86 509.5,-52 376.5,-52"/>
<text text-anchor="start" x="384.5" y="-73" font-family="Helvetica,sans-Serif" font-size="10.00">pocketmine\inventory</text>
<text text-anchor="middle" x="443" y="-60" font-family="Helvetica,sans-Serif" font-size="10.00">\PlayerInventory\getHolder</text>
</a>
</g>
<!-- Node1&#45;&gt;Node2 -->
<g id="edge2" class="edge"><title>Node1&#45;&gt;Node2</title>
<path fill="none" stroke="midnightblue" d="M152.043,-50.7656C214.691,-54.6918 303.139,-60.2349 366.038,-64.1768"/>
<polygon fill="midnightblue" stroke="midnightblue" points="366.097,-67.6872 376.296,-64.8197 366.535,-60.7009 366.097,-67.6872"/>
</g>
<!-- Node3 -->
<g id="node5" class="node"><title>Node3</title>
<a xlink:href="../../dc/d77/classpocketmine_1_1inventory_1_1_player_inventory.html#ac0fe6ab11ec3f4f792474dcf537819dc" target="_top" xlink:title="pocketmine\\inventory\l\\PlayerInventory\\sendContents">
<polygon fill="white" stroke="black" points="188,-7 188,-41 340,-41 340,-7 188,-7"/>
<text text-anchor="start" x="196" y="-28" font-family="Helvetica,sans-Serif" font-size="10.00">pocketmine\inventory</text>
<text text-anchor="middle" x="264" y="-15" font-family="Helvetica,sans-Serif" font-size="10.00">\PlayerInventory\sendContents</text>
</a>
</g>
<!-- Node1&#45;&gt;Node3 -->
<g id="edge4" class="edge"><title>Node1&#45;&gt;Node3</title>
<path fill="none" stroke="midnightblue" d="M152.196,-37.0835C160.609,-36.099 169.219,-35.0914 177.744,-34.0937"/>
<polygon fill="midnightblue" stroke="midnightblue" points="178.17,-37.5679 187.696,-32.9292 177.357,-30.6153 178.17,-37.5679"/>
</g>
<!-- Node3&#45;&gt;Node2 -->
<g id="edge6" class="edge"><title>Node3&#45;&gt;Node2</title>
<path fill="none" stroke="midnightblue" d="M331.672,-41.0126C343.005,-43.8616 354.835,-46.8356 366.374,-49.7364"/>
<polygon fill="midnightblue" stroke="midnightblue" points="365.867,-53.2179 376.419,-52.2617 367.574,-46.4291 365.867,-53.2179"/>
</g>
<!-- Node4 -->
<g id="node8" class="node"><title>Node4</title>
<a xlink:href="../../d5/dc4/classpocketmine_1_1inventory_1_1_base_inventory.html#a8bc94c0515906b5c1f3af5600d89b3df" target="_top" xlink:title="pocketmine\\inventory\l\\BaseInventory\\getItem">
<polygon fill="white" stroke="black" points="383.5,-0 383.5,-34 502.5,-34 502.5,-0 383.5,-0"/>
<text text-anchor="start" x="391.5" y="-21" font-family="Helvetica,sans-Serif" font-size="10.00">pocketmine\inventory</text>
<text text-anchor="middle" x="443" y="-8" font-family="Helvetica,sans-Serif" font-size="10.00">\BaseInventory\getItem</text>
</a>
</g>
<!-- Node3&#45;&gt;Node4 -->
<g id="edge8" class="edge"><title>Node3&#45;&gt;Node4</title>
<path fill="none" stroke="midnightblue" d="M340.172,-21.0212C351.132,-20.5926 362.366,-20.1533 373.195,-19.7298"/>
<polygon fill="midnightblue" stroke="midnightblue" points="373.575,-23.2177 383.431,-19.3295 373.301,-16.2231 373.575,-23.2177"/>
</g>
</g>
</svg>
