<?xml version="1.0" encoding="UTF-8" standalone="no"?>
<!DOCTYPE svg PUBLIC "-//W3C//DTD SVG 1.1//EN"
 "http://www.w3.org/Graphics/SVG/1.1/DTD/svg11.dtd">
<!-- Generated by graphviz version 2.26.3 (20100126.1600)
 -->
<!-- Title: pocketmine\inventory\PlayerInventory\sendContents Pages: 1 -->
<svg width="330pt" height="94pt"
 viewBox="0.00 0.00 330.00 94.00" xmlns="http://www.w3.org/2000/svg" xmlns:xlink="http://www.w3.org/1999/xlink">
<g id="graph1" class="graph" transform="scale(1 1) rotate(0) translate(4 90)">
<title>pocketmine\inventory\PlayerInventory\sendContents</title>
<polygon fill="white" stroke="white" points="-4,5 -4,-90 327,-90 327,5 -4,5"/>
<!-- Node1 -->
<g id="node1" class="node"><title>Node1</title>
<polygon fill="#bfbfbf" stroke="black" points="0,-26 0,-60 152,-60 152,-26 0,-26"/>
<text text-anchor="start" x="8" y="-47" font-family="Helvetica,sans-Serif" font-size="10.00">pocketmine\inventory</text>
<text text-anchor="middle" x="76" y="-34" font-family="Helvetica,sans-Serif" font-size="10.00">\PlayerInventory\sendContents</text>
</g>
<!-- Node2 -->
<g id="node3" class="node"><title>Node2</title>
<a xlink:href="../../dc/d77/classpocketmine_1_1inventory_1_1_player_inventory.html#af3d72b8ec9fec0a90f4d1a47057a76b2" target="_top" xlink:title="pocketmine\\inventory\l\\PlayerInventory\\getHolder">
<polygon fill="white" stroke="black" points="188.5,-52 188.5,-86 321.5,-86 321.5,-52 188.5,-52"/>
<text text-anchor="start" x="196.5" y="-73" font-family="Helvetica,sans-Serif" font-size="10.00">pocketmine\inventory</text>
<text text-anchor="middle" x="255" y="-60" font-family="Helvetica,sans-Serif" font-size="10.00">\PlayerInventory\getHolder</text>
</a>
</g>
<!-- Node1&#45;&gt;Node2 -->
<g id="edge2" class="edge"><title>Node1&#45;&gt;Node2</title>
<path fill="none" stroke="midnightblue" d="M152.172,-54.064C160.789,-55.3157 169.575,-56.5919 178.201,-57.8448"/>
<polygon fill="midnightblue" stroke="midnightblue" points="177.833,-61.3281 188.233,-59.302 178.84,-54.4008 177.833,-61.3281"/>
</g>
<!-- Node3 -->
<g id="node5" class="node"><title>Node3</title>
<a xlink:href="../../d5/dc4/classpocketmine_1_1inventory_1_1_base_inventory.html#a8bc94c0515906b5c1f3af5600d89b3df" target="_top" xlink:title="pocketmine\\inventory\l\\BaseInventory\\getItem">
<polygon fill="white" stroke="black" points="195.5,-0 195.5,-34 314.5,-34 314.5,-0 195.5,-0"/>
<text text-anchor="start" x="203.5" y="-21" font-family="Helvetica,sans-Serif" font-size="10.00">pocketmine\inventory</text>
<text text-anchor="middle" x="255" y="-8" font-family="Helvetica,sans-Serif" font-size="10.00">\BaseInventory\getItem</text>
</a>
</g>
<!-- Node1&#45;&gt;Node3 -->
<g id="edge4" class="edge"><title>Node1&#45;&gt;Node3</title>
<path fill="none" stroke="midnightblue" d="M152.172,-31.936C163.245,-30.3275 174.597,-28.6786 185.529,-27.0907"/>
<polygon fill="midnightblue" stroke="midnightblue" points="186.038,-30.5537 195.431,-25.6525 185.031,-23.6264 186.038,-30.5537"/>
</g>
</g>
</svg>
