<?xml version="1.0" encoding="UTF-8" standalone="no"?>
<!DOCTYPE svg PUBLIC "-//W3C//DTD SVG 1.1//EN"
 "http://www.w3.org/Graphics/SVG/1.1/DTD/svg11.dtd">
<!-- Generated by graphviz version 2.36.0 (20140111.2315)
 -->
<!-- Title: pocketmine\inventory\PlayerInventory\sendContents Pages: 1 -->
<svg width="372pt" height="38pt"
 viewBox="0.00 0.00 372.00 38.00" xmlns="http://www.w3.org/2000/svg" xmlns:xlink="http://www.w3.org/1999/xlink">
<g id="graph0" class="graph" transform="scale(1 1) rotate(0) translate(4 34)">
<title>pocketmine\inventory\PlayerInventory\sendContents</title>
<polygon fill="white" stroke="none" points="-4,4 -4,-34 368,-34 368,4 -4,4"/>
<!-- Node1 -->
<g id="node1" class="node"><title>Node1</title>
<polygon fill="#bfbfbf" stroke="black" points="0.5,-0 0.5,-30 163.5,-30 163.5,-0 0.5,-0"/>
<text text-anchor="start" x="8.5" y="-18" font-family="Helvetica,sans-Serif" font-size="10.00">pocketmine\inventory</text>
<text text-anchor="middle" x="82" y="-7" font-family="Helvetica,sans-Serif" font-size="10.00">\PlayerInventory\sendContents</text>
</g>
<!-- Node2 -->
<g id="node2" class="node"><title>Node2</title>
<g id="a_node2"><a xlink:href="../../dc/d77/classpocketmine_1_1inventory_1_1_player_inventory.html#a725ed4489f073b21e061cef5a6bb78ed" target="_top" xlink:title="pocketmine\\inventory\l\\PlayerInventory\\sendHeldItem">
<polygon fill="white" stroke="black" points="200.5,-0 200.5,-30 363.5,-30 363.5,-0 200.5,-0"/>
<text text-anchor="start" x="208.5" y="-18" font-family="Helvetica,sans-Serif" font-size="10.00">pocketmine\inventory</text>
<text text-anchor="middle" x="282" y="-7" font-family="Helvetica,sans-Serif" font-size="10.00">\PlayerInventory\sendHeldItem</text>
</a>
</g>
</g>
<!-- Node1&#45;&gt;Node2 -->
<g id="edge1" class="edge"><title>Node1&#45;&gt;Node2</title>
<path fill="none" stroke="midnightblue" d="M173.816,-15C182.623,-15 191.516,-15 200.216,-15"/>
<polygon fill="midnightblue" stroke="midnightblue" points="173.534,-11.5001 163.534,-15 173.534,-18.5001 173.534,-11.5001"/>
</g>
</g>
</svg>
