<?xml version="1.0" encoding="UTF-8" standalone="no"?>
<!DOCTYPE svg PUBLIC "-//W3C//DTD SVG 1.1//EN"
 "http://www.w3.org/Graphics/SVG/1.1/DTD/svg11.dtd">
<!-- Generated by graphviz version 2.36.0 (20140111.2315)
 -->
<!-- Title: pocketmine\inventory\PlayerInventory\clear Pages: 1 -->
<svg width="512pt" height="188pt"
 viewBox="0.00 0.00 512.00 188.03" xmlns="http://www.w3.org/2000/svg" xmlns:xlink="http://www.w3.org/1999/xlink">
<g id="graph0" class="graph" transform="scale(1 1) rotate(0) translate(4 184.032)">
<title>pocketmine\inventory\PlayerInventory\clear</title>
<polygon fill="white" stroke="none" points="-4,4 -4,-184.032 508,-184.032 508,4 -4,4"/>
<!-- Node1 -->
<g id="node1" class="node"><title>Node1</title>
<polygon fill="#bfbfbf" stroke="black" points="0,-88 0,-118 120,-118 120,-88 0,-88"/>
<text text-anchor="start" x="8" y="-106" font-family="Helvetica,sans-Serif" font-size="10.00">pocketmine\inventory</text>
<text text-anchor="middle" x="60" y="-95" font-family="Helvetica,sans-Serif" font-size="10.00">\PlayerInventory\clear</text>
</g>
<!-- Node2 -->
<g id="node2" class="node"><title>Node2</title>
<g id="a_node2"><a xlink:href="../../dc/d77/classpocketmine_1_1inventory_1_1_player_inventory.html#af3d72b8ec9fec0a90f4d1a47057a76b2" target="_top" xlink:title="pocketmine\\inventory\l\\PlayerInventory\\getHolder">
<polygon fill="white" stroke="black" points="360.5,-143 360.5,-173 503.5,-173 503.5,-143 360.5,-143"/>
<text text-anchor="start" x="368.5" y="-161" font-family="Helvetica,sans-Serif" font-size="10.00">pocketmine\inventory</text>
<text text-anchor="middle" x="432" y="-150" font-family="Helvetica,sans-Serif" font-size="10.00">\PlayerInventory\getHolder</text>
</a>
</g>
</g>
<!-- Node1&#45;&gt;Node2 -->
<g id="edge1" class="edge"><title>Node1&#45;&gt;Node2</title>
<path fill="none" stroke="midnightblue" d="M77.2751,-118.216C95.046,-133.695 125.115,-156.69 156,-166 219.285,-185.077 294.51,-181.191 350.273,-173.594"/>
<polygon fill="midnightblue" stroke="midnightblue" points="351.048,-177.019 360.451,-172.137 350.056,-170.09 351.048,-177.019"/>
</g>
<!-- Node3 -->
<g id="node3" class="node"><title>Node3</title>
<g id="a_node3"><a xlink:href="../../d5/df7/classpocketmine_1_1_server.html#a8d9b9873eb3c7efce048f10f803c2b2e" target="_top" xlink:title="pocketmine\\Server\\getInstance">
<polygon fill="white" stroke="black" points="156.5,-137.5 156.5,-156.5 323.5,-156.5 323.5,-137.5 156.5,-137.5"/>
<text text-anchor="middle" x="240" y="-144.5" font-family="Helvetica,sans-Serif" font-size="10.00">pocketmine\Server\getInstance</text>
</a>
</g>
</g>
<!-- Node1&#45;&gt;Node3 -->
<g id="edge2" class="edge"><title>Node1&#45;&gt;Node3</title>
<path fill="none" stroke="midnightblue" d="M120.013,-118.016C131.921,-121.015 144.356,-124.126 156,-127 166.687,-129.637 178.159,-132.428 189.06,-135.06"/>
<polygon fill="midnightblue" stroke="midnightblue" points="188.331,-138.485 198.873,-137.425 189.971,-131.68 188.331,-138.485"/>
</g>
<!-- Node4 -->
<g id="node4" class="node"><title>Node4</title>
<g id="a_node4"><a xlink:href="../../d5/dc4/classpocketmine_1_1inventory_1_1_base_inventory.html#a65b280b6c12e1d4e5bcd4d0de3aa4a71" target="_top" xlink:title="pocketmine\\inventory\l\\BaseInventory\\getViewers">
<polygon fill="white" stroke="black" points="360.5,-68 360.5,-98 503.5,-98 503.5,-68 360.5,-68"/>
<text text-anchor="start" x="368.5" y="-86" font-family="Helvetica,sans-Serif" font-size="10.00">pocketmine\inventory</text>
<text text-anchor="middle" x="432" y="-75" font-family="Helvetica,sans-Serif" font-size="10.00">\BaseInventory\getViewers</text>
</a>
</g>
</g>
<!-- Node1&#45;&gt;Node4 -->
<g id="edge3" class="edge"><title>Node1&#45;&gt;Node4</title>
<path fill="none" stroke="midnightblue" d="M108.366,-87.9759C123.432,-83.8908 140.27,-80.035 156,-78 220.978,-69.5934 295.302,-71.6347 350.287,-75.3391"/>
<polygon fill="midnightblue" stroke="midnightblue" points="350.101,-78.8346 360.322,-76.048 350.594,-71.852 350.101,-78.8346"/>
</g>
<!-- Node5 -->
<g id="node5" class="node"><title>Node5</title>
<g id="a_node5"><a xlink:href="../../dc/d77/classpocketmine_1_1inventory_1_1_player_inventory.html#ad3878f887e75d92f3164e4d78fd40fab" target="_top" xlink:title="pocketmine\\inventory\l\\PlayerInventory\\onSlotChange">
<polygon fill="white" stroke="black" points="158,-88 158,-118 322,-118 322,-88 158,-88"/>
<text text-anchor="start" x="166" y="-106" font-family="Helvetica,sans-Serif" font-size="10.00">pocketmine\inventory</text>
<text text-anchor="middle" x="240" y="-95" font-family="Helvetica,sans-Serif" font-size="10.00">\PlayerInventory\onSlotChange</text>
</a>
</g>
</g>
<!-- Node1&#45;&gt;Node5 -->
<g id="edge4" class="edge"><title>Node1&#45;&gt;Node5</title>
<path fill="none" stroke="midnightblue" d="M120.271,-103C129.11,-103 138.39,-103 147.703,-103"/>
<polygon fill="midnightblue" stroke="midnightblue" points="147.803,-106.5 157.803,-103 147.803,-99.5001 147.803,-106.5"/>
</g>
<!-- Node6 -->
<g id="node6" class="node"><title>Node6</title>
<g id="a_node6"><a xlink:href="../../d5/dc4/classpocketmine_1_1inventory_1_1_base_inventory.html#ad84dac811677e799d06924279a4288cc" target="_top" xlink:title="pocketmine\\inventory\l\\BaseInventory\\sendSlot">
<polygon fill="white" stroke="black" points="173.5,-0 173.5,-30 306.5,-30 306.5,-0 173.5,-0"/>
<text text-anchor="start" x="181.5" y="-18" font-family="Helvetica,sans-Serif" font-size="10.00">pocketmine\inventory</text>
<text text-anchor="middle" x="240" y="-7" font-family="Helvetica,sans-Serif" font-size="10.00">\BaseInventory\sendSlot</text>
</a>
</g>
</g>
<!-- Node1&#45;&gt;Node6 -->
<g id="edge7" class="edge"><title>Node1&#45;&gt;Node6</title>
<path fill="none" stroke="midnightblue" d="M82.9337,-87.8539C101.744,-75.2991 129.868,-57.542 156,-45 164.509,-40.9159 173.729,-37.0603 182.825,-33.5596"/>
<polygon fill="midnightblue" stroke="midnightblue" points="184.084,-36.8259 192.225,-30.0453 181.632,-30.2692 184.084,-36.8259"/>
</g>
<!-- Node5&#45;&gt;Node2 -->
<g id="edge6" class="edge"><title>Node5&#45;&gt;Node2</title>
<path fill="none" stroke="midnightblue" d="M292.918,-118.029C316.586,-124.88 344.779,-133.041 369.502,-140.198"/>
<polygon fill="midnightblue" stroke="midnightblue" points="368.566,-143.571 379.144,-142.989 370.512,-136.847 368.566,-143.571"/>
</g>
<!-- Node5&#45;&gt;Node4 -->
<g id="edge5" class="edge"><title>Node5&#45;&gt;Node4</title>
<path fill="none" stroke="midnightblue" d="M322.128,-94.4602C331.461,-93.4778 340.977,-92.4762 350.304,-91.4943"/>
<polygon fill="midnightblue" stroke="midnightblue" points="350.755,-94.9663 360.333,-90.4386 350.022,-88.0048 350.755,-94.9663"/>
</g>
<!-- Node7 -->
<g id="node7" class="node"><title>Node7</title>
<g id="a_node7"><a xlink:href="../../d5/dc4/classpocketmine_1_1inventory_1_1_base_inventory.html#a8bc94c0515906b5c1f3af5600d89b3df" target="_top" xlink:title="pocketmine\\inventory\l\\BaseInventory\\getItem">
<polygon fill="white" stroke="black" points="368,-0 368,-30 496,-30 496,-0 368,-0"/>
<text text-anchor="start" x="376" y="-18" font-family="Helvetica,sans-Serif" font-size="10.00">pocketmine\inventory</text>
<text text-anchor="middle" x="432" y="-7" font-family="Helvetica,sans-Serif" font-size="10.00">\BaseInventory\getItem</text>
</a>
</g>
</g>
<!-- Node6&#45;&gt;Node7 -->
<g id="edge8" class="edge"><title>Node6&#45;&gt;Node7</title>
<path fill="none" stroke="midnightblue" d="M306.653,-15C323.086,-15 340.818,-15 357.601,-15"/>
<polygon fill="midnightblue" stroke="midnightblue" points="357.908,-18.5001 367.908,-15 357.907,-11.5001 357.908,-18.5001"/>
</g>
</g>
</svg>
