<?xml version="1.0" encoding="UTF-8" standalone="no"?>
<!DOCTYPE svg PUBLIC "-//W3C//DTD SVG 1.1//EN"
 "http://www.w3.org/Graphics/SVG/1.1/DTD/svg11.dtd">
<!-- Generated by graphviz version 2.26.3 (20100126.1600)
 -->
<!-- Title: pocketmine\inventory\PlayerInventory\setItemInHand Pages: 1 -->
<!--zoomable 265 -->
<svg id="main" version="1.1" xmlns="http://www.w3.org/2000/svg" xmlns:xlink="http://www.w3.org/1999/xlink" xml:space="preserve" onload="init(evt)">
<style type="text/css"><![CDATA[
.edge:hover path { stroke: red; }
.edge:hover polygon { stroke: red; fill: red; }
]]></style>
<script type="text/javascript"><![CDATA[
var edges = document.getElementsByTagName('g');
if (edges && edges.length) {
  for (var i=0;i<edges.length;i++) {
    if (edges[i].id.substr(0,4)=='edge') {
      edges[i].setAttribute('class','edge');
    }
  }
}
]]></script>
        <defs>
                <circle id="rim" cx="0" cy="0" r="7"/>
                <circle id="rim2" cx="0" cy="0" r="3.5"/>
                <g id="zoomPlus">
                        <use xlink:href="#rim" fill="#404040">
                                <set attributeName="fill" to="#808080" begin="zoomplus.mouseover" end="zoomplus.mouseout"/>
                        </use>
                        <path d="M-4,0h8M0,-4v8" fill="none" stroke="white" stroke-width="1.5" pointer-events="none"/>
                </g>
                <g id="zoomMin">
                        <use xlink:href="#rim" fill="#404040">
                                <set attributeName="fill" to="#808080" begin="zoomminus.mouseover" end="zoomminus.mouseout"/>
                        </use>
                        <path d="M-4,0h8" fill="none" stroke="white" stroke-width="1.5" pointer-events="none"/>
                </g>
                <g id="dirArrow">
                        <path fill="none" stroke="white" stroke-width="1.5" d="M0,-3.0v7 M-2.5,-0.5L0,-3.0L2.5,-0.5"/>
                </g>
               <g id="resetDef">
                       <use xlink:href="#rim2" fill="#404040">
                               <set attributeName="fill" to="#808080" begin="reset.mouseover" end="reset.mouseout"/>
                       </use>
               </g>
        </defs>

<script type="text/javascript">
var viewWidth = 830;
var viewHeight = 265;
var sectionId = 'dynsection-31';
</script>
<script xlink:href="../../svgpan.js"/>
<svg id="graph" class="graph">
<g id="viewport">
<title>pocketmine\inventory\PlayerInventory\setItemInHand</title>
<polygon fill="white" stroke="white" points="-4,5 -4,-261.168 827,-261.168 827,5 -4,5"/>
<!-- Node1 -->
<g id="node1" class="node"><title>Node1</title>
<polygon fill="#bfbfbf" stroke="black" points="0.5,-91.5982 0.5,-125.598 155.5,-125.598 155.5,-91.5982 0.5,-91.5982"/>
<text text-anchor="start" x="8.5" y="-112.598" font-family="Helvetica,sans-Serif" font-size="10.00">pocketmine\inventory</text>
<text text-anchor="middle" x="78" y="-99.5982" font-family="Helvetica,sans-Serif" font-size="10.00">\PlayerInventory\setItemInHand</text>
</g>
<!-- Node2 -->
<g id="node3" class="node"><title>Node2</title>
<a xlink:href="../../dc/d77/classpocketmine_1_1inventory_1_1_player_inventory.html#aa2c8b45b25cac829ee9316dd5b7b5931" target="_top" xlink:title="pocketmine\\inventory\l\\PlayerInventory\\setItem">
<polygon fill="white" stroke="black" points="192,-91.5982 192,-125.598 316,-125.598 316,-91.5982 192,-91.5982"/>
<text text-anchor="start" x="200" y="-112.598" font-family="Helvetica,sans-Serif" font-size="10.00">pocketmine\inventory</text>
<text text-anchor="middle" x="254" y="-99.5982" font-family="Helvetica,sans-Serif" font-size="10.00">\PlayerInventory\setItem</text>
</a>
</g>
<!-- Node1&#45;&gt;Node2 -->
<g id="edge2" class="edge"><title>Node1&#45;&gt;Node2</title>
<path fill="none" stroke="midnightblue" d="M155.708,-108.598C164.285,-108.598 172.993,-108.598 181.502,-108.598"/>
<polygon fill="midnightblue" stroke="midnightblue" points="181.759,-112.098 191.759,-108.598 181.759,-105.098 181.759,-112.098"/>
</g>
<!-- Node3 -->
<g id="node5" class="node"><title>Node3</title>
<a xlink:href="../../dc/d77/classpocketmine_1_1inventory_1_1_player_inventory.html#a1b9f22225b0a8cee8cd57855c02724ab" target="_top" xlink:title="pocketmine\\inventory\l\\PlayerInventory\\clear">
<polygon fill="white" stroke="black" points="352,-136.598 352,-170.598 464,-170.598 464,-136.598 352,-136.598"/>
<text text-anchor="start" x="360" y="-157.598" font-family="Helvetica,sans-Serif" font-size="10.00">pocketmine\inventory</text>
<text text-anchor="middle" x="408" y="-144.598" font-family="Helvetica,sans-Serif" font-size="10.00">\PlayerInventory\clear</text>
</a>
</g>
<!-- Node2&#45;&gt;Node3 -->
<g id="edge4" class="edge"><title>Node2&#45;&gt;Node3</title>
<path fill="none" stroke="midnightblue" d="M312.221,-125.611C321.995,-128.467 332.199,-131.448 342.149,-134.356"/>
<polygon fill="midnightblue" stroke="midnightblue" points="341.409,-137.786 351.989,-137.231 343.372,-131.067 341.409,-137.786"/>
</g>
<!-- Node4 -->
<g id="node7" class="node"><title>Node4</title>
<a xlink:href="../../dc/d77/classpocketmine_1_1inventory_1_1_player_inventory.html#af3d72b8ec9fec0a90f4d1a47057a76b2" target="_top" xlink:title="pocketmine\\inventory\l\\PlayerInventory\\getHolder">
<polygon fill="white" stroke="black" points="688.5,-207.598 688.5,-241.598 821.5,-241.598 821.5,-207.598 688.5,-207.598"/>
<text text-anchor="start" x="696.5" y="-228.598" font-family="Helvetica,sans-Serif" font-size="10.00">pocketmine\inventory</text>
<text text-anchor="middle" x="755" y="-215.598" font-family="Helvetica,sans-Serif" font-size="10.00">\PlayerInventory\getHolder</text>
</a>
</g>
<!-- Node2&#45;&gt;Node4 -->
<g id="edge24" class="edge"><title>Node2&#45;&gt;Node4</title>
<path fill="none" stroke="midnightblue" d="M267.347,-125.958C284.634,-147.278 316.759,-183.124 352,-203.598 468.467,-271.262 518.049,-260.744 652,-246.598 660.588,-245.691 669.512,-244.37 678.357,-242.819"/>
<polygon fill="midnightblue" stroke="midnightblue" points="679.092,-246.242 688.287,-240.979 677.817,-239.359 679.092,-246.242"/>
</g>
<!-- Node5 -->
<g id="node9" class="node"><title>Node5</title>
<a xlink:href="../../d5/df7/classpocketmine_1_1_server.html#a8d9b9873eb3c7efce048f10f803c2b2e" target="_top" xlink:title="pocketmine\\Server\\getInstance">
<polygon fill="white" stroke="black" points="500,-52.0982 500,-73.0982 652,-73.0982 652,-52.0982 500,-52.0982"/>
<text text-anchor="middle" x="576" y="-60.0982" font-family="Helvetica,sans-Serif" font-size="10.00">pocketmine\Server\getInstance</text>
</a>
</g>
<!-- Node2&#45;&gt;Node5 -->
<g id="edge26" class="edge"><title>Node2&#45;&gt;Node5</title>
<path fill="none" stroke="midnightblue" d="M316.085,-99.7289C366.15,-92.5768 437.05,-82.4482 492.156,-74.5759"/>
<polygon fill="midnightblue" stroke="midnightblue" points="492.848,-78.0126 502.253,-73.1335 491.858,-71.083 492.848,-78.0126"/>
</g>
<!-- Node6 -->
<g id="node11" class="node"><title>Node6</title>
<a xlink:href="../../d5/dc4/classpocketmine_1_1inventory_1_1_base_inventory.html#a65b280b6c12e1d4e5bcd4d0de3aa4a71" target="_top" xlink:title="pocketmine\\inventory\l\\BaseInventory\\getViewers">
<polygon fill="white" stroke="black" points="688,-136.598 688,-170.598 822,-170.598 822,-136.598 688,-136.598"/>
<text text-anchor="start" x="696" y="-157.598" font-family="Helvetica,sans-Serif" font-size="10.00">pocketmine\inventory</text>
<text text-anchor="middle" x="755" y="-144.598" font-family="Helvetica,sans-Serif" font-size="10.00">\BaseInventory\getViewers</text>
</a>
</g>
<!-- Node2&#45;&gt;Node6 -->
<g id="edge30" class="edge"><title>Node2&#45;&gt;Node6</title>
<path fill="none" stroke="midnightblue" d="M286.193,-91.5606C355.891,-57.1281 524.729,12.927 652,-42.5982 672.704,-51.6307 712.024,-98.553 735.638,-128.427"/>
<polygon fill="midnightblue" stroke="midnightblue" points="732.929,-130.645 741.853,-136.355 738.438,-126.326 732.929,-130.645"/>
</g>
<!-- Node7 -->
<g id="node13" class="node"><title>Node7</title>
<a xlink:href="../../dc/d77/classpocketmine_1_1inventory_1_1_player_inventory.html#ad3878f887e75d92f3164e4d78fd40fab" target="_top" xlink:title="pocketmine\\inventory\l\\PlayerInventory\\onSlotChange">
<polygon fill="white" stroke="black" points="500,-181.598 500,-215.598 652,-215.598 652,-181.598 500,-181.598"/>
<text text-anchor="start" x="508" y="-202.598" font-family="Helvetica,sans-Serif" font-size="10.00">pocketmine\inventory</text>
<text text-anchor="middle" x="576" y="-189.598" font-family="Helvetica,sans-Serif" font-size="10.00">\PlayerInventory\onSlotChange</text>
</a>
</g>
<!-- Node2&#45;&gt;Node7 -->
<g id="edge32" class="edge"><title>Node2&#45;&gt;Node7</title>
<path fill="none" stroke="midnightblue" d="M271.371,-125.806C289.706,-142.771 320.293,-167.815 352,-179.598 395.606,-195.803 447.166,-201.036 489.82,-202.003"/>
<polygon fill="midnightblue" stroke="midnightblue" points="489.846,-205.503 499.898,-202.156 489.953,-198.504 489.846,-205.503"/>
</g>
<!-- Node8 -->
<g id="node17" class="node"><title>Node8</title>
<a xlink:href="../../dc/d77/classpocketmine_1_1inventory_1_1_player_inventory.html#ac0fe6ab11ec3f4f792474dcf537819dc" target="_top" xlink:title="pocketmine\\inventory\l\\PlayerInventory\\sendContents">
<polygon fill="white" stroke="black" points="500,-91.5982 500,-125.598 652,-125.598 652,-91.5982 500,-91.5982"/>
<text text-anchor="start" x="508" y="-112.598" font-family="Helvetica,sans-Serif" font-size="10.00">pocketmine\inventory</text>
<text text-anchor="middle" x="576" y="-99.5982" font-family="Helvetica,sans-Serif" font-size="10.00">\PlayerInventory\sendContents</text>
</a>
</g>
<!-- Node2&#45;&gt;Node8 -->
<g id="edge34" class="edge"><title>Node2&#45;&gt;Node8</title>
<path fill="none" stroke="midnightblue" d="M316.085,-108.598C365.462,-108.598 435.104,-108.598 489.874,-108.598"/>
<polygon fill="midnightblue" stroke="midnightblue" points="489.92,-112.098 499.92,-108.598 489.92,-105.098 489.92,-112.098"/>
</g>
<!-- Node9 -->
<g id="node20" class="node"><title>Node9</title>
<a xlink:href="../../d5/dc4/classpocketmine_1_1inventory_1_1_base_inventory.html#a8bc94c0515906b5c1f3af5600d89b3df" target="_top" xlink:title="pocketmine\\inventory\l\\BaseInventory\\getItem">
<polygon fill="white" stroke="black" points="695.5,-26.5982 695.5,-60.5982 814.5,-60.5982 814.5,-26.5982 695.5,-26.5982"/>
<text text-anchor="start" x="703.5" y="-47.5982" font-family="Helvetica,sans-Serif" font-size="10.00">pocketmine\inventory</text>
<text text-anchor="middle" x="755" y="-34.5982" font-family="Helvetica,sans-Serif" font-size="10.00">\BaseInventory\getItem</text>
</a>
</g>
<!-- Node2&#45;&gt;Node9 -->
<g id="edge28" class="edge"><title>Node2&#45;&gt;Node9</title>
<path fill="none" stroke="midnightblue" d="M267.823,-91.5312C285.119,-71.6065 316.778,-39.5994 352,-25.5982 462.851,18.4662 604.593,-4.07283 687.049,-24.094"/>
<polygon fill="midnightblue" stroke="midnightblue" points="686.256,-27.5032 696.805,-26.5185 687.944,-20.7099 686.256,-27.5032"/>
</g>
<!-- Node3&#45;&gt;Node4 -->
<g id="edge6" class="edge"><title>Node3&#45;&gt;Node4</title>
<path fill="none" stroke="midnightblue" d="M423.28,-170.698C440.087,-188.102 468.874,-213.984 500,-224.598 557.451,-244.189 626.509,-242.795 678.261,-237.274"/>
<polygon fill="midnightblue" stroke="midnightblue" points="678.834,-240.732 688.372,-236.12 678.04,-233.777 678.834,-240.732"/>
</g>
<!-- Node3&#45;&gt;Node5 -->
<g id="edge8" class="edge"><title>Node3&#45;&gt;Node5</title>
<path fill="none" stroke="midnightblue" d="M425.55,-136.538C443.057,-120.419 471.398,-96.6728 500,-82.5982 504.625,-80.3222 509.54,-78.2825 514.559,-76.4587"/>
<polygon fill="midnightblue" stroke="midnightblue" points="515.912,-79.6973 524.29,-73.2125 513.697,-73.057 515.912,-79.6973"/>
</g>
<!-- Node3&#45;&gt;Node6 -->
<g id="edge10" class="edge"><title>Node3&#45;&gt;Node6</title>
<path fill="none" stroke="midnightblue" d="M464.137,-153.598C522.127,-153.598 613.048,-153.598 677.79,-153.598"/>
<polygon fill="midnightblue" stroke="midnightblue" points="677.947,-157.098 687.947,-153.598 677.947,-150.098 677.947,-157.098"/>
</g>
<!-- Node3&#45;&gt;Node7 -->
<g id="edge12" class="edge"><title>Node3&#45;&gt;Node7</title>
<path fill="none" stroke="midnightblue" d="M464.409,-168.708C476.715,-172.004 489.909,-175.538 502.762,-178.981"/>
<polygon fill="midnightblue" stroke="midnightblue" points="501.938,-182.384 512.503,-181.59 503.749,-175.622 501.938,-182.384"/>
</g>
<!-- Node3&#45;&gt;Node8 -->
<g id="edge18" class="edge"><title>Node3&#45;&gt;Node8</title>
<path fill="none" stroke="midnightblue" d="M464.409,-138.489C476.715,-135.192 489.909,-131.658 502.762,-128.216"/>
<polygon fill="midnightblue" stroke="midnightblue" points="503.749,-131.575 512.503,-125.606 501.938,-124.813 503.749,-131.575"/>
</g>
<!-- Node7&#45;&gt;Node4 -->
<g id="edge14" class="edge"><title>Node7&#45;&gt;Node4</title>
<path fill="none" stroke="midnightblue" d="M652.172,-209.662C660.789,-210.914 669.575,-212.19 678.201,-213.443"/>
<polygon fill="midnightblue" stroke="midnightblue" points="677.833,-216.926 688.233,-214.9 678.84,-209.999 677.833,-216.926"/>
</g>
<!-- Node7&#45;&gt;Node6 -->
<g id="edge16" class="edge"><title>Node7&#45;&gt;Node6</title>
<path fill="none" stroke="midnightblue" d="M643.672,-181.586C654.852,-178.775 666.515,-175.843 677.906,-172.979"/>
<polygon fill="midnightblue" stroke="midnightblue" points="678.981,-176.318 687.826,-170.486 677.274,-169.529 678.981,-176.318"/>
</g>
<!-- Node8&#45;&gt;Node4 -->
<g id="edge20" class="edge"><title>Node8&#45;&gt;Node4</title>
<path fill="none" stroke="midnightblue" d="M602.412,-125.714C633.479,-145.847 685.18,-179.351 719.672,-201.704"/>
<polygon fill="midnightblue" stroke="midnightblue" points="718.184,-204.911 728.48,-207.412 721.991,-199.036 718.184,-204.911"/>
</g>
<!-- Node8&#45;&gt;Node9 -->
<g id="edge22" class="edge"><title>Node8&#45;&gt;Node9</title>
<path fill="none" stroke="midnightblue" d="M626.772,-91.4833C635.214,-88.5647 643.866,-85.5287 652,-82.5982 668.089,-76.8019 685.508,-70.2954 701.364,-64.2825"/>
<polygon fill="midnightblue" stroke="midnightblue" points="702.906,-67.4404 711.008,-60.6132 700.417,-60.8979 702.906,-67.4404"/>
</g>
</g>
</svg>
        <g id="navigator" transform="translate(0 0)" fill="#404254">
                <rect fill="#f2f5e9" fill-opacity="0.5" stroke="#606060" stroke-width=".5" x="0" y="0" width="60" height="60"/>
                <use id="zoomplus" xlink:href="#zoomPlus" x="17" y="9" onmousedown="handleZoom(evt,'in')"/>
                <use id="zoomminus" xlink:href="#zoomMin" x="42" y="9" onmousedown="handleZoom(evt,'out')"/>
                <use id="reset" xlink:href="#resetDef" x="30" y="36" onmousedown="handleReset()"/>
                <g id="arrowUp" xlink:href="#dirArrow" transform="translate(30 24)" onmousedown="handlePan(0,-1)">
                  <use xlink:href="#rim" fill="#404040">
                        <set attributeName="fill" to="#808080" begin="arrowUp.mouseover" end="arrowUp.mouseout"/>
                  </use>
                  <path fill="none" stroke="white" stroke-width="1.5" d="M0,-3.0v7 M-2.5,-0.5L0,-3.0L2.5,-0.5"/>
                </g>
                <g id="arrowRight" xlink:href="#dirArrow" transform="rotate(90) translate(36 -43)" onmousedown="handlePan(1,0)">
                  <use xlink:href="#rim" fill="#404040">
                        <set attributeName="fill" to="#808080" begin="arrowRight.mouseover" end="arrowRight.mouseout"/>
                  </use>
                  <path fill="none" stroke="white" stroke-width="1.5" d="M0,-3.0v7 M-2.5,-0.5L0,-3.0L2.5,-0.5"/>
                </g>
                <g id="arrowDown" xlink:href="#dirArrow" transform="rotate(180) translate(-30 -48)" onmousedown="handlePan(0,1)">
                  <use xlink:href="#rim" fill="#404040">
                        <set attributeName="fill" to="#808080" begin="arrowDown.mouseover" end="arrowDown.mouseout"/>
                  </use>
                  <path fill="none" stroke="white" stroke-width="1.5" d="M0,-3.0v7 M-2.5,-0.5L0,-3.0L2.5,-0.5"/>
                </g>
                <g id="arrowLeft" xlink:href="#dirArrow" transform="rotate(270) translate(-36 17)" onmousedown="handlePan(-1,0)">
                  <use xlink:href="#rim" fill="#404040">
                        <set attributeName="fill" to="#808080" begin="arrowLeft.mouseover" end="arrowLeft.mouseout"/>
                  </use>
                  <path fill="none" stroke="white" stroke-width="1.5" d="M0,-3.0v7 M-2.5,-0.5L0,-3.0L2.5,-0.5"/>
                </g>
        </g>
        <svg viewBox="0 0 15 15" width="100%" height="30px" preserveAspectRatio="xMaxYMin meet">
         <g id="arrow_out" transform="scale(0.3 0.3)">
          <a xlink:href="classpocketmine_1_1inventory_1_1_player_inventory_aea00deec1dff34be27e648a71f3cfaa3_cgraph_org.svg" target="_base">
           <rect id="button" ry="5" rx="5" y="6" x="6" height="38" width="38"
                fill="#f2f5e9" fill-opacity="0.5" stroke="#606060" stroke-width="1.0"/>
           <path id="arrow"
             d="M 11.500037,31.436501 C 11.940474,20.09759 22.043105,11.32322 32.158766,21.979434 L 37.068811,17.246167 C 37.068811,17.246167 37.088388,32 37.088388,32 L 22.160133,31.978069 C 22.160133,31.978069 26.997745,27.140456 26.997745,27.140456 C 18.528582,18.264221 13.291696,25.230495 11.500037,31.436501 z"
             style="fill:#404040;"/>
          </a>
         </g>
        </svg>
</svg>
