<?xml version="1.0" encoding="UTF-8" standalone="no"?>
<!DOCTYPE svg PUBLIC "-//W3C//DTD SVG 1.1//EN"
 "http://www.w3.org/Graphics/SVG/1.1/DTD/svg11.dtd">
<!-- Generated by graphviz version 2.26.3 (20100126.1600)
 -->
<!-- Title: pocketmine\inventory\ChestInventory Pages: 1 -->
<svg width="118pt" height="828pt"
 viewBox="0.00 0.00 118.00 828.00" xmlns="http://www.w3.org/2000/svg" xmlns:xlink="http://www.w3.org/1999/xlink">
<g id="graph1" class="graph" transform="scale(1 1) rotate(0) translate(4 824)">
<title>pocketmine\inventory\ChestInventory</title>
<polygon fill="white" stroke="white" points="-4,5 -4,-824 115,-824 115,5 -4,5"/>
<!-- Node1 -->
<g id="node1" class="node"><title>Node1</title>
<polygon fill="#bfbfbf" stroke="black" points="0,-0.5 0,-115.5 110,-115.5 110,-0.5 0,-0.5"/>
<text text-anchor="start" x="8" y="-102.5" font-family="Helvetica,sans-Serif" font-size="10.00">pocketmine\inventory</text>
<text text-anchor="middle" x="55" y="-89.5" font-family="Helvetica,sans-Serif" font-size="10.00">\ChestInventory</text>
<polyline fill="none" stroke="black" points="0,-81.5 110,-81.5 "/>
<text text-anchor="middle" x="55" y="-68.5" font-family="Helvetica,sans-Serif" font-size="10.00"> </text>
<polyline fill="none" stroke="black" points="0,-60.5 110,-60.5 "/>
<text text-anchor="start" x="8" y="-47.5" font-family="Helvetica,sans-Serif" font-size="10.00">+ __construct()</text>
<text text-anchor="start" x="8" y="-34.5" font-family="Helvetica,sans-Serif" font-size="10.00">+ getHolder()</text>
<text text-anchor="start" x="8" y="-21.5" font-family="Helvetica,sans-Serif" font-size="10.00">+ onOpen()</text>
<text text-anchor="start" x="8" y="-8.5" font-family="Helvetica,sans-Serif" font-size="10.00">+ onClose()</text>
</g>
<!-- Node2 -->
<g id="node2" class="node"><title>Node2</title>
<a xlink:href="../../dc/d02/classpocketmine_1_1inventory_1_1_container_inventory.html" target="_top" xlink:title="{pocketmine\\inventory\l\\ContainerInventory\n||+ onOpen()\l+ onClose()\l}">
<polygon fill="white" stroke="black" points="0,-152.5 0,-241.5 110,-241.5 110,-152.5 0,-152.5"/>
<text text-anchor="start" x="8" y="-228.5" font-family="Helvetica,sans-Serif" font-size="10.00">pocketmine\inventory</text>
<text text-anchor="middle" x="55" y="-215.5" font-family="Helvetica,sans-Serif" font-size="10.00">\ContainerInventory</text>
<polyline fill="none" stroke="black" points="0,-207.5 110,-207.5 "/>
<text text-anchor="middle" x="55" y="-194.5" font-family="Helvetica,sans-Serif" font-size="10.00"> </text>
<polyline fill="none" stroke="black" points="0,-186.5 110,-186.5 "/>
<text text-anchor="start" x="8" y="-173.5" font-family="Helvetica,sans-Serif" font-size="10.00">+ onOpen()</text>
<text text-anchor="start" x="8" y="-160.5" font-family="Helvetica,sans-Serif" font-size="10.00">+ onClose()</text>
</a>
</g>
<!-- Node2&#45;&gt;Node1 -->
<g id="edge2" class="edge"><title>Node2&#45;&gt;Node1</title>
<path fill="none" stroke="midnightblue" d="M55,-141.979C55,-133.399 55,-124.511 55,-115.87"/>
<polygon fill="none" stroke="midnightblue" points="51.5001,-142.254 55,-152.254 58.5001,-142.254 51.5001,-142.254"/>
</g>
<!-- Node3 -->
<g id="node4" class="node"><title>Node3</title>
<a xlink:href="../../d5/dc4/classpocketmine_1_1inventory_1_1_base_inventory.html" target="_top" xlink:title="{pocketmine\\inventory\l\\BaseInventory\n|# $type\l# $maxStackSize\l# $size\l# $name\l# $title\l# $slots\l# $viewers\l# $holder\l|+ __construct()\l+ getSize()\l+ getMaxStackSize()\l+ getName()\l+ getTitle()\l+ getItem()\l+ getContents()\l+ setContents()\l+ setItem()\l+ contains()\land 18 more...\l}">
<polygon fill="white" stroke="black" points="0,-278.5 0,-575.5 110,-575.5 110,-278.5 0,-278.5"/>
<text text-anchor="start" x="8" y="-562.5" font-family="Helvetica,sans-Serif" font-size="10.00">pocketmine\inventory</text>
<text text-anchor="middle" x="55" y="-549.5" font-family="Helvetica,sans-Serif" font-size="10.00">\BaseInventory</text>
<polyline fill="none" stroke="black" points="0,-541.5 110,-541.5 "/>
<text text-anchor="start" x="8" y="-528.5" font-family="Helvetica,sans-Serif" font-size="10.00"># $type</text>
<text text-anchor="start" x="8" y="-515.5" font-family="Helvetica,sans-Serif" font-size="10.00"># $maxStackSize</text>
<text text-anchor="start" x="8" y="-502.5" font-family="Helvetica,sans-Serif" font-size="10.00"># $size</text>
<text text-anchor="start" x="8" y="-489.5" font-family="Helvetica,sans-Serif" font-size="10.00"># $name</text>
<text text-anchor="start" x="8" y="-476.5" font-family="Helvetica,sans-Serif" font-size="10.00"># $title</text>
<text text-anchor="start" x="8" y="-463.5" font-family="Helvetica,sans-Serif" font-size="10.00"># $slots</text>
<text text-anchor="start" x="8" y="-450.5" font-family="Helvetica,sans-Serif" font-size="10.00"># $viewers</text>
<text text-anchor="start" x="8" y="-437.5" font-family="Helvetica,sans-Serif" font-size="10.00"># $holder</text>
<polyline fill="none" stroke="black" points="0,-429.5 110,-429.5 "/>
<text text-anchor="start" x="8" y="-416.5" font-family="Helvetica,sans-Serif" font-size="10.00">+ __construct()</text>
<text text-anchor="start" x="8" y="-403.5" font-family="Helvetica,sans-Serif" font-size="10.00">+ getSize()</text>
<text text-anchor="start" x="8" y="-390.5" font-family="Helvetica,sans-Serif" font-size="10.00">+ getMaxStackSize()</text>
<text text-anchor="start" x="8" y="-377.5" font-family="Helvetica,sans-Serif" font-size="10.00">+ getName()</text>
<text text-anchor="start" x="8" y="-364.5" font-family="Helvetica,sans-Serif" font-size="10.00">+ getTitle()</text>
<text text-anchor="start" x="8" y="-351.5" font-family="Helvetica,sans-Serif" font-size="10.00">+ getItem()</text>
<text text-anchor="start" x="8" y="-338.5" font-family="Helvetica,sans-Serif" font-size="10.00">+ getContents()</text>
<text text-anchor="start" x="8" y="-325.5" font-family="Helvetica,sans-Serif" font-size="10.00">+ setContents()</text>
<text text-anchor="start" x="8" y="-312.5" font-family="Helvetica,sans-Serif" font-size="10.00">+ setItem()</text>
<text text-anchor="start" x="8" y="-299.5" font-family="Helvetica,sans-Serif" font-size="10.00">+ contains()</text>
<text text-anchor="start" x="8" y="-286.5" font-family="Helvetica,sans-Serif" font-size="10.00">and 18 more...</text>
</a>
</g>
<!-- Node3&#45;&gt;Node2 -->
<g id="edge4" class="edge"><title>Node3&#45;&gt;Node2</title>
<path fill="none" stroke="midnightblue" d="M55,-268.369C55,-258.879 55,-249.855 55,-241.615"/>
<polygon fill="none" stroke="midnightblue" points="51.5001,-268.413 55,-278.413 58.5001,-268.413 51.5001,-268.413"/>
</g>
<!-- Node4 -->
<g id="node6" class="node"><title>Node4</title>
<a xlink:href="../../db/d39/interfacepocketmine_1_1inventory_1_1_inventory.html" target="_top" xlink:title="{pocketmine\\inventory\l\\Inventory\n|+ MAX_STACK\l|+ getSize()\l+ getMaxStackSize()\l+ setMaxStackSize()\l+ getName()\l+ getTitle()\l+ getItem()\l+ setItem()\l+ addItem()\l+ canAddItem()\l+ removeItem()\land 19 more...\l}">
<polygon fill="white" stroke="black" points="0,-613 0,-819 110,-819 110,-613 0,-613"/>
<text text-anchor="start" x="8" y="-806" font-family="Helvetica,sans-Serif" font-size="10.00">pocketmine\inventory</text>
<text text-anchor="middle" x="55" y="-793" font-family="Helvetica,sans-Serif" font-size="10.00">\Inventory</text>
<polyline fill="none" stroke="black" points="0,-785 110,-785 "/>
<text text-anchor="start" x="8" y="-772" font-family="Helvetica,sans-Serif" font-size="10.00">+ MAX_STACK</text>
<polyline fill="none" stroke="black" points="0,-764 110,-764 "/>
<text text-anchor="start" x="8" y="-751" font-family="Helvetica,sans-Serif" font-size="10.00">+ getSize()</text>
<text text-anchor="start" x="8" y="-738" font-family="Helvetica,sans-Serif" font-size="10.00">+ getMaxStackSize()</text>
<text text-anchor="start" x="8" y="-725" font-family="Helvetica,sans-Serif" font-size="10.00">+ setMaxStackSize()</text>
<text text-anchor="start" x="8" y="-712" font-family="Helvetica,sans-Serif" font-size="10.00">+ getName()</text>
<text text-anchor="start" x="8" y="-699" font-family="Helvetica,sans-Serif" font-size="10.00">+ getTitle()</text>
<text text-anchor="start" x="8" y="-686" font-family="Helvetica,sans-Serif" font-size="10.00">+ getItem()</text>
<text text-anchor="start" x="8" y="-673" font-family="Helvetica,sans-Serif" font-size="10.00">+ setItem()</text>
<text text-anchor="start" x="8" y="-660" font-family="Helvetica,sans-Serif" font-size="10.00">+ addItem()</text>
<text text-anchor="start" x="8" y="-647" font-family="Helvetica,sans-Serif" font-size="10.00">+ canAddItem()</text>
<text text-anchor="start" x="8" y="-634" font-family="Helvetica,sans-Serif" font-size="10.00">+ removeItem()</text>
<text text-anchor="start" x="8" y="-621" font-family="Helvetica,sans-Serif" font-size="10.00">and 19 more...</text>
</a>
</g>
<!-- Node4&#45;&gt;Node3 -->
<g id="edge6" class="edge"><title>Node4&#45;&gt;Node3</title>
<path fill="none" stroke="midnightblue" d="M55,-602.827C55,-593.845 55,-584.694 55,-575.52"/>
<polygon fill="none" stroke="midnightblue" points="51.5001,-602.888 55,-612.888 58.5001,-602.888 51.5001,-602.888"/>
</g>
</g>
</svg>
