<?xml version="1.0" encoding="UTF-8" standalone="no"?>
<!DOCTYPE svg PUBLIC "-//W3C//DTD SVG 1.1//EN"
 "http://www.w3.org/Graphics/SVG/1.1/DTD/svg11.dtd">
<!-- Generated by graphviz version 2.26.3 (20100126.1600)
 -->
<!-- Title: pocketmine\tile\Furnace Pages: 1 -->
<svg width="397pt" height="1050pt"
 viewBox="0.00 0.00 397.00 1050.00" xmlns="http://www.w3.org/2000/svg" xmlns:xlink="http://www.w3.org/1999/xlink">
<g id="graph1" class="graph" transform="scale(1 1) rotate(0) translate(4 1046)">
<title>pocketmine\tile\Furnace</title>
<polygon fill="white" stroke="white" points="-4,5 -4,-1046 394,-1046 394,5 -4,5"/>
<!-- Node1 -->
<g id="node1" class="node"><title>Node1</title>
<polygon fill="#bfbfbf" stroke="black" points="127.5,-1 127.5,-155 248.5,-155 248.5,-1 127.5,-1"/>
<text text-anchor="middle" x="188" y="-142" font-family="Helvetica,sans-Serif" font-size="10.00">pocketmine\tile\Furnace</text>
<polyline fill="none" stroke="black" points="127.5,-134 248.5,-134 "/>
<text text-anchor="start" x="135.5" y="-121" font-family="Helvetica,sans-Serif" font-size="10.00"># $inventory</text>
<polyline fill="none" stroke="black" points="127.5,-113 248.5,-113 "/>
<text text-anchor="start" x="135.5" y="-100" font-family="Helvetica,sans-Serif" font-size="10.00">+ __construct()</text>
<text text-anchor="start" x="135.5" y="-87" font-family="Helvetica,sans-Serif" font-size="10.00">+ saveNBT()</text>
<text text-anchor="start" x="135.5" y="-74" font-family="Helvetica,sans-Serif" font-size="10.00">+ getSize()</text>
<text text-anchor="start" x="135.5" y="-61" font-family="Helvetica,sans-Serif" font-size="10.00">+ getItem()</text>
<text text-anchor="start" x="135.5" y="-48" font-family="Helvetica,sans-Serif" font-size="10.00">+ setItem()</text>
<text text-anchor="start" x="135.5" y="-35" font-family="Helvetica,sans-Serif" font-size="10.00">+ getInventory()</text>
<text text-anchor="start" x="135.5" y="-22" font-family="Helvetica,sans-Serif" font-size="10.00">+ onUpdate()</text>
<text text-anchor="start" x="135.5" y="-9" font-family="Helvetica,sans-Serif" font-size="10.00"># getSlotIndex()</text>
</g>
<!-- Node2 -->
<g id="node2" class="node"><title>Node2</title>
<a xlink:href="../../da/d5b/classpocketmine_1_1tile_1_1_tile.html" target="_top" xlink:title="{pocketmine\\tile\\Tile\n|+ SIGN\l+ CHEST\l+ FURNACE\l+ $chunk\l+ $name\l+ $id\l+ $x\l+ $y\l+ $z\l+ $attach\l+ $metadata\l+ $closed\l+ $namedtag\l+ $tickTimer\l+ $tileCount\l+ $needUpdate\l# $lastUpdate\l# $server\l|+ __construct()\l+ getID()\l+ saveNBT()\l+ onUpdate()\l+ scheduleUpdate()\l+ __destruct()\l+ close()\l+ getName()\l}">
<polygon fill="white" stroke="black" points="13,-192.5 13,-567.5 115,-567.5 115,-192.5 13,-192.5"/>
<text text-anchor="middle" x="64" y="-554.5" font-family="Helvetica,sans-Serif" font-size="10.00">pocketmine\tile\Tile</text>
<polyline fill="none" stroke="black" points="13,-546.5 115,-546.5 "/>
<text text-anchor="start" x="21" y="-533.5" font-family="Helvetica,sans-Serif" font-size="10.00">+ SIGN</text>
<text text-anchor="start" x="21" y="-520.5" font-family="Helvetica,sans-Serif" font-size="10.00">+ CHEST</text>
<text text-anchor="start" x="21" y="-507.5" font-family="Helvetica,sans-Serif" font-size="10.00">+ FURNACE</text>
<text text-anchor="start" x="21" y="-494.5" font-family="Helvetica,sans-Serif" font-size="10.00">+ $chunk</text>
<text text-anchor="start" x="21" y="-481.5" font-family="Helvetica,sans-Serif" font-size="10.00">+ $name</text>
<text text-anchor="start" x="21" y="-468.5" font-family="Helvetica,sans-Serif" font-size="10.00">+ $id</text>
<text text-anchor="start" x="21" y="-455.5" font-family="Helvetica,sans-Serif" font-size="10.00">+ $x</text>
<text text-anchor="start" x="21" y="-442.5" font-family="Helvetica,sans-Serif" font-size="10.00">+ $y</text>
<text text-anchor="start" x="21" y="-429.5" font-family="Helvetica,sans-Serif" font-size="10.00">+ $z</text>
<text text-anchor="start" x="21" y="-416.5" font-family="Helvetica,sans-Serif" font-size="10.00">+ $attach</text>
<text text-anchor="start" x="21" y="-403.5" font-family="Helvetica,sans-Serif" font-size="10.00">+ $metadata</text>
<text text-anchor="start" x="21" y="-390.5" font-family="Helvetica,sans-Serif" font-size="10.00">+ $closed</text>
<text text-anchor="start" x="21" y="-377.5" font-family="Helvetica,sans-Serif" font-size="10.00">+ $namedtag</text>
<text text-anchor="start" x="21" y="-364.5" font-family="Helvetica,sans-Serif" font-size="10.00">+ $tickTimer</text>
<text text-anchor="start" x="21" y="-351.5" font-family="Helvetica,sans-Serif" font-size="10.00">+ $tileCount</text>
<text text-anchor="start" x="21" y="-338.5" font-family="Helvetica,sans-Serif" font-size="10.00">+ $needUpdate</text>
<text text-anchor="start" x="21" y="-325.5" font-family="Helvetica,sans-Serif" font-size="10.00"># $lastUpdate</text>
<text text-anchor="start" x="21" y="-312.5" font-family="Helvetica,sans-Serif" font-size="10.00"># $server</text>
<polyline fill="none" stroke="black" points="13,-304.5 115,-304.5 "/>
<text text-anchor="start" x="21" y="-291.5" font-family="Helvetica,sans-Serif" font-size="10.00">+ __construct()</text>
<text text-anchor="start" x="21" y="-278.5" font-family="Helvetica,sans-Serif" font-size="10.00">+ getID()</text>
<text text-anchor="start" x="21" y="-265.5" font-family="Helvetica,sans-Serif" font-size="10.00">+ saveNBT()</text>
<text text-anchor="start" x="21" y="-252.5" font-family="Helvetica,sans-Serif" font-size="10.00">+ onUpdate()</text>
<text text-anchor="start" x="21" y="-239.5" font-family="Helvetica,sans-Serif" font-size="10.00">+ scheduleUpdate()</text>
<text text-anchor="start" x="21" y="-226.5" font-family="Helvetica,sans-Serif" font-size="10.00">+ __destruct()</text>
<text text-anchor="start" x="21" y="-213.5" font-family="Helvetica,sans-Serif" font-size="10.00">+ close()</text>
<text text-anchor="start" x="21" y="-200.5" font-family="Helvetica,sans-Serif" font-size="10.00">+ getName()</text>
</a>
</g>
<!-- Node2&#45;&gt;Node1 -->
<g id="edge2" class="edge"><title>Node2&#45;&gt;Node1</title>
<path fill="none" stroke="midnightblue" d="M118.747,-204.453C120.471,-200.244 122.223,-196.087 124,-192 129.296,-179.824 135.513,-167.26 141.954,-155.12"/>
<polygon fill="none" stroke="midnightblue" points="115.494,-203.161 115.018,-213.745 121.991,-205.768 115.494,-203.161"/>
</g>
<!-- Node3 -->
<g id="node4" class="node"><title>Node3</title>
<a xlink:href="../../db/d9b/classpocketmine_1_1level_1_1_position.html" target="_top" xlink:title="{pocketmine\\level\\Position\n|+ $level\l|+ __construct()\l+ getLevel()\l+ setLevel()\l+ isValid()\l+ setStrong()\l+ setWeak()\l+ getSide()\l+ distance()\l+ __toString()\l+ fromObject()\l}">
<polygon fill="white" stroke="black" points="0,-605 0,-785 128,-785 128,-605 0,-605"/>
<text text-anchor="middle" x="64" y="-772" font-family="Helvetica,sans-Serif" font-size="10.00">pocketmine\level\Position</text>
<polyline fill="none" stroke="black" points="0,-764 128,-764 "/>
<text text-anchor="start" x="8" y="-751" font-family="Helvetica,sans-Serif" font-size="10.00">+ $level</text>
<polyline fill="none" stroke="black" points="0,-743 128,-743 "/>
<text text-anchor="start" x="8" y="-730" font-family="Helvetica,sans-Serif" font-size="10.00">+ __construct()</text>
<text text-anchor="start" x="8" y="-717" font-family="Helvetica,sans-Serif" font-size="10.00">+ getLevel()</text>
<text text-anchor="start" x="8" y="-704" font-family="Helvetica,sans-Serif" font-size="10.00">+ setLevel()</text>
<text text-anchor="start" x="8" y="-691" font-family="Helvetica,sans-Serif" font-size="10.00">+ isValid()</text>
<text text-anchor="start" x="8" y="-678" font-family="Helvetica,sans-Serif" font-size="10.00">+ setStrong()</text>
<text text-anchor="start" x="8" y="-665" font-family="Helvetica,sans-Serif" font-size="10.00">+ setWeak()</text>
<text text-anchor="start" x="8" y="-652" font-family="Helvetica,sans-Serif" font-size="10.00">+ getSide()</text>
<text text-anchor="start" x="8" y="-639" font-family="Helvetica,sans-Serif" font-size="10.00">+ distance()</text>
<text text-anchor="start" x="8" y="-626" font-family="Helvetica,sans-Serif" font-size="10.00">+ __toString()</text>
<text text-anchor="start" x="8" y="-613" font-family="Helvetica,sans-Serif" font-size="10.00">+ fromObject()</text>
</a>
</g>
<!-- Node3&#45;&gt;Node2 -->
<g id="edge4" class="edge"><title>Node3&#45;&gt;Node2</title>
<path fill="none" stroke="midnightblue" d="M64,-594.623C64,-585.898 64,-576.903 64,-567.766"/>
<polygon fill="none" stroke="midnightblue" points="60.5001,-594.734 64,-604.734 67.5001,-594.734 60.5001,-594.734"/>
</g>
<!-- Node4 -->
<g id="node6" class="node"><title>Node4</title>
<a xlink:href="../../d2/d90/classpocketmine_1_1math_1_1_vector3.html" target="_top" xlink:title="{pocketmine\\math\\Vector3\n|+ $x\l+ $y\l+ $z\l|+ __construct()\l+ getX()\l+ getY()\l+ getZ()\l+ getFloorX()\l+ getFloorY()\l+ getFloorZ()\l+ getRight()\l+ getUp()\l+ getForward()\land 20 more...\l}">
<polygon fill="white" stroke="black" points="0,-822.5 0,-1041.5 128,-1041.5 128,-822.5 0,-822.5"/>
<text text-anchor="middle" x="64" y="-1028.5" font-family="Helvetica,sans-Serif" font-size="10.00">pocketmine\math\Vector3</text>
<polyline fill="none" stroke="black" points="0,-1020.5 128,-1020.5 "/>
<text text-anchor="start" x="8" y="-1007.5" font-family="Helvetica,sans-Serif" font-size="10.00">+ $x</text>
<text text-anchor="start" x="8" y="-994.5" font-family="Helvetica,sans-Serif" font-size="10.00">+ $y</text>
<text text-anchor="start" x="8" y="-981.5" font-family="Helvetica,sans-Serif" font-size="10.00">+ $z</text>
<polyline fill="none" stroke="black" points="0,-973.5 128,-973.5 "/>
<text text-anchor="start" x="8" y="-960.5" font-family="Helvetica,sans-Serif" font-size="10.00">+ __construct()</text>
<text text-anchor="start" x="8" y="-947.5" font-family="Helvetica,sans-Serif" font-size="10.00">+ getX()</text>
<text text-anchor="start" x="8" y="-934.5" font-family="Helvetica,sans-Serif" font-size="10.00">+ getY()</text>
<text text-anchor="start" x="8" y="-921.5" font-family="Helvetica,sans-Serif" font-size="10.00">+ getZ()</text>
<text text-anchor="start" x="8" y="-908.5" font-family="Helvetica,sans-Serif" font-size="10.00">+ getFloorX()</text>
<text text-anchor="start" x="8" y="-895.5" font-family="Helvetica,sans-Serif" font-size="10.00">+ getFloorY()</text>
<text text-anchor="start" x="8" y="-882.5" font-family="Helvetica,sans-Serif" font-size="10.00">+ getFloorZ()</text>
<text text-anchor="start" x="8" y="-869.5" font-family="Helvetica,sans-Serif" font-size="10.00">+ getRight()</text>
<text text-anchor="start" x="8" y="-856.5" font-family="Helvetica,sans-Serif" font-size="10.00">+ getUp()</text>
<text text-anchor="start" x="8" y="-843.5" font-family="Helvetica,sans-Serif" font-size="10.00">+ getForward()</text>
<text text-anchor="start" x="8" y="-830.5" font-family="Helvetica,sans-Serif" font-size="10.00">and 20 more...</text>
</a>
</g>
<!-- Node4&#45;&gt;Node3 -->
<g id="edge6" class="edge"><title>Node4&#45;&gt;Node3</title>
<path fill="none" stroke="midnightblue" d="M64,-812.024C64,-803.029 64,-794.047 64,-785.282"/>
<polygon fill="none" stroke="midnightblue" points="60.5001,-812.172 64,-822.172 67.5001,-812.172 60.5001,-812.172"/>
</g>
<!-- Node5 -->
<g id="node8" class="node"><title>Node5</title>
<a xlink:href="../../d2/d91/interfacepocketmine_1_1inventory_1_1_inventory_holder.html" target="_top" xlink:title="{pocketmine\\inventory\l\\InventoryHolder\n||+ getInventory()\l}">
<polygon fill="white" stroke="black" points="133,-342 133,-418 243,-418 243,-342 133,-342"/>
<text text-anchor="start" x="141" y="-405" font-family="Helvetica,sans-Serif" font-size="10.00">pocketmine\inventory</text>
<text text-anchor="middle" x="188" y="-392" font-family="Helvetica,sans-Serif" font-size="10.00">\InventoryHolder</text>
<polyline fill="none" stroke="black" points="133,-384 243,-384 "/>
<text text-anchor="middle" x="188" y="-371" font-family="Helvetica,sans-Serif" font-size="10.00"> </text>
<polyline fill="none" stroke="black" points="133,-363 243,-363 "/>
<text text-anchor="start" x="141" y="-350" font-family="Helvetica,sans-Serif" font-size="10.00">+ getInventory()</text>
</a>
</g>
<!-- Node5&#45;&gt;Node1 -->
<g id="edge8" class="edge"><title>Node5&#45;&gt;Node1</title>
<path fill="none" stroke="midnightblue" d="M188,-331.713C188,-284.135 188,-210.693 188,-155.045"/>
<polygon fill="none" stroke="midnightblue" points="184.5,-331.751 188,-341.751 191.5,-331.752 184.5,-331.751"/>
</g>
<!-- Node6 -->
<g id="node10" class="node"><title>Node6</title>
<a xlink:href="../../de/df5/interfacepocketmine_1_1tile_1_1_container.html" target="_top" xlink:title="{pocketmine\\tile\\Container\n||+ getItem()\l+ setItem()\l+ getSize()\l}">
<polygon fill="white" stroke="black" points="261,-335.5 261,-424.5 389,-424.5 389,-335.5 261,-335.5"/>
<text text-anchor="middle" x="325" y="-411.5" font-family="Helvetica,sans-Serif" font-size="10.00">pocketmine\tile\Container</text>
<polyline fill="none" stroke="black" points="261,-403.5 389,-403.5 "/>
<text text-anchor="middle" x="325" y="-390.5" font-family="Helvetica,sans-Serif" font-size="10.00"> </text>
<polyline fill="none" stroke="black" points="261,-382.5 389,-382.5 "/>
<text text-anchor="start" x="269" y="-369.5" font-family="Helvetica,sans-Serif" font-size="10.00">+ getItem()</text>
<text text-anchor="start" x="269" y="-356.5" font-family="Helvetica,sans-Serif" font-size="10.00">+ setItem()</text>
<text text-anchor="start" x="269" y="-343.5" font-family="Helvetica,sans-Serif" font-size="10.00">+ getSize()</text>
</a>
</g>
<!-- Node6&#45;&gt;Node1 -->
<g id="edge10" class="edge"><title>Node6&#45;&gt;Node1</title>
<path fill="none" stroke="midnightblue" d="M306.096,-325.35C292.399,-287.368 272.714,-235.89 252,-192 246.284,-179.89 239.804,-167.306 233.215,-155.111"/>
<polygon fill="none" stroke="midnightblue" points="302.954,-326.959 309.621,-335.193 309.544,-324.599 302.954,-326.959"/>
</g>
</g>
</svg>
