<?xml version="1.0" encoding="UTF-8" standalone="no"?>
<!DOCTYPE svg PUBLIC "-//W3C//DTD SVG 1.1//EN"
 "http://www.w3.org/Graphics/SVG/1.1/DTD/svg11.dtd">
<!-- Generated by graphviz version 2.26.3 (20100126.1600)
 -->
<!-- Title: pocketmine\scheduler\SendUsageTask Pages: 1 -->
<svg width="244pt" height="736pt"
 viewBox="0.00 0.00 244.00 736.00" xmlns="http://www.w3.org/2000/svg" xmlns:xlink="http://www.w3.org/1999/xlink">
<g id="graph1" class="graph" transform="scale(1 1) rotate(0) translate(4 732)">
<title>pocketmine\scheduler\SendUsageTask</title>
<polygon fill="white" stroke="white" points="-4,5 -4,-732 241,-732 241,5 -4,5"/>
<!-- Node1 -->
<g id="node1" class="node"><title>Node1</title>
<polygon fill="#bfbfbf" stroke="black" points="60,-0.5 60,-115.5 172,-115.5 172,-0.5 60,-0.5"/>
<text text-anchor="start" x="68" y="-102.5" font-family="Helvetica,sans-Serif" font-size="10.00">pocketmine\scheduler</text>
<text text-anchor="middle" x="116" y="-89.5" font-family="Helvetica,sans-Serif" font-size="10.00">\SendUsageTask</text>
<polyline fill="none" stroke="black" points="60,-81.5 172,-81.5 "/>
<text text-anchor="start" x="68" y="-68.5" font-family="Helvetica,sans-Serif" font-size="10.00">+ $endpoint</text>
<text text-anchor="start" x="68" y="-55.5" font-family="Helvetica,sans-Serif" font-size="10.00">+ $data</text>
<polyline fill="none" stroke="black" points="60,-47.5 172,-47.5 "/>
<text text-anchor="start" x="68" y="-34.5" font-family="Helvetica,sans-Serif" font-size="10.00">+ __construct()</text>
<text text-anchor="start" x="68" y="-21.5" font-family="Helvetica,sans-Serif" font-size="10.00">+ onRun()</text>
<text text-anchor="start" x="68" y="-8.5" font-family="Helvetica,sans-Serif" font-size="10.00">+ onCompletion()</text>
</g>
<!-- Node2 -->
<g id="node2" class="node"><title>Node2</title>
<a xlink:href="../../df/dfa/classpocketmine_1_1scheduler_1_1_async_task.html" target="_top" xlink:title="{pocketmine\\scheduler\l\\AsyncTask\n|# $complete\l# $finished\l# $result\l# $taskId\l|+ run()\l+ isFinished()\l+ isCompleted()\l+ setCompleted()\l+ getResult()\l+ hasResult()\l+ setResult()\l+ setTaskId()\l+ getTaskId()\l+ onRun()\l+ onCompletion()\l}">
<polygon fill="white" stroke="black" points="60,-152.5 60,-397.5 172,-397.5 172,-152.5 60,-152.5"/>
<text text-anchor="start" x="68" y="-384.5" font-family="Helvetica,sans-Serif" font-size="10.00">pocketmine\scheduler</text>
<text text-anchor="middle" x="116" y="-371.5" font-family="Helvetica,sans-Serif" font-size="10.00">\AsyncTask</text>
<polyline fill="none" stroke="black" points="60,-363.5 172,-363.5 "/>
<text text-anchor="start" x="68" y="-350.5" font-family="Helvetica,sans-Serif" font-size="10.00"># $complete</text>
<text text-anchor="start" x="68" y="-337.5" font-family="Helvetica,sans-Serif" font-size="10.00"># $finished</text>
<text text-anchor="start" x="68" y="-324.5" font-family="Helvetica,sans-Serif" font-size="10.00"># $result</text>
<text text-anchor="start" x="68" y="-311.5" font-family="Helvetica,sans-Serif" font-size="10.00"># $taskId</text>
<polyline fill="none" stroke="black" points="60,-303.5 172,-303.5 "/>
<text text-anchor="start" x="68" y="-290.5" font-family="Helvetica,sans-Serif" font-size="10.00">+ run()</text>
<text text-anchor="start" x="68" y="-277.5" font-family="Helvetica,sans-Serif" font-size="10.00">+ isFinished()</text>
<text text-anchor="start" x="68" y="-264.5" font-family="Helvetica,sans-Serif" font-size="10.00">+ isCompleted()</text>
<text text-anchor="start" x="68" y="-251.5" font-family="Helvetica,sans-Serif" font-size="10.00">+ setCompleted()</text>
<text text-anchor="start" x="68" y="-238.5" font-family="Helvetica,sans-Serif" font-size="10.00">+ getResult()</text>
<text text-anchor="start" x="68" y="-225.5" font-family="Helvetica,sans-Serif" font-size="10.00">+ hasResult()</text>
<text text-anchor="start" x="68" y="-212.5" font-family="Helvetica,sans-Serif" font-size="10.00">+ setResult()</text>
<text text-anchor="start" x="68" y="-199.5" font-family="Helvetica,sans-Serif" font-size="10.00">+ setTaskId()</text>
<text text-anchor="start" x="68" y="-186.5" font-family="Helvetica,sans-Serif" font-size="10.00">+ getTaskId()</text>
<text text-anchor="start" x="68" y="-173.5" font-family="Helvetica,sans-Serif" font-size="10.00">+ onRun()</text>
<text text-anchor="start" x="68" y="-160.5" font-family="Helvetica,sans-Serif" font-size="10.00">+ onCompletion()</text>
</a>
</g>
<!-- Node2&#45;&gt;Node1 -->
<g id="edge2" class="edge"><title>Node2&#45;&gt;Node1</title>
<path fill="none" stroke="midnightblue" d="M116,-142.214C116,-133.058 116,-124.144 116,-115.753"/>
<polygon fill="none" stroke="midnightblue" points="112.5,-142.233 116,-152.233 119.5,-142.233 112.5,-142.233"/>
</g>
<!-- Node3 -->
<g id="node4" class="node"><title>Node3</title>
<a xlink:href="../../d0/d82/class_threaded.html" target="_top" xlink:title="{Threaded\n||+ chunk()\l+ count()\l+ getTerminationInfo()\l+ isRunning()\l+ isTerminated()\l+ isWaiting()\l+ lock()\l+ merge()\l+ notify()\l+ offsetGet()\land 9 more...\l}">
<polygon fill="white" stroke="black" points="59.5,-434.5 59.5,-627.5 172.5,-627.5 172.5,-434.5 59.5,-434.5"/>
<text text-anchor="middle" x="116" y="-614.5" font-family="Helvetica,sans-Serif" font-size="10.00">Threaded</text>
<polyline fill="none" stroke="black" points="59.5,-606.5 172.5,-606.5 "/>
<text text-anchor="middle" x="116" y="-593.5" font-family="Helvetica,sans-Serif" font-size="10.00"> </text>
<polyline fill="none" stroke="black" points="59.5,-585.5 172.5,-585.5 "/>
<text text-anchor="start" x="67.5" y="-572.5" font-family="Helvetica,sans-Serif" font-size="10.00">+ chunk()</text>
<text text-anchor="start" x="67.5" y="-559.5" font-family="Helvetica,sans-Serif" font-size="10.00">+ count()</text>
<text text-anchor="start" x="67.5" y="-546.5" font-family="Helvetica,sans-Serif" font-size="10.00">+ getTerminationInfo()</text>
<text text-anchor="start" x="67.5" y="-533.5" font-family="Helvetica,sans-Serif" font-size="10.00">+ isRunning()</text>
<text text-anchor="start" x="67.5" y="-520.5" font-family="Helvetica,sans-Serif" font-size="10.00">+ isTerminated()</text>
<text text-anchor="start" x="67.5" y="-507.5" font-family="Helvetica,sans-Serif" font-size="10.00">+ isWaiting()</text>
<text text-anchor="start" x="67.5" y="-494.5" font-family="Helvetica,sans-Serif" font-size="10.00">+ lock()</text>
<text text-anchor="start" x="67.5" y="-481.5" font-family="Helvetica,sans-Serif" font-size="10.00">+ merge()</text>
<text text-anchor="start" x="67.5" y="-468.5" font-family="Helvetica,sans-Serif" font-size="10.00">+ notify()</text>
<text text-anchor="start" x="67.5" y="-455.5" font-family="Helvetica,sans-Serif" font-size="10.00">+ offsetGet()</text>
<text text-anchor="start" x="67.5" y="-442.5" font-family="Helvetica,sans-Serif" font-size="10.00">and 9 more...</text>
</a>
</g>
<!-- Node3&#45;&gt;Node2 -->
<g id="edge4" class="edge"><title>Node3&#45;&gt;Node2</title>
<path fill="none" stroke="midnightblue" d="M116,-424.101C116,-415.423 116,-406.612 116,-397.833"/>
<polygon fill="none" stroke="midnightblue" points="112.5,-424.217 116,-434.217 119.5,-424.217 112.5,-424.217"/>
</g>
<!-- Node4 -->
<g id="node6" class="node"><title>Node4</title>
<polygon fill="white" stroke="#bfbfbf" points="0,-664.5 0,-727.5 68,-727.5 68,-664.5 0,-664.5"/>
<text text-anchor="middle" x="34" y="-714.5" font-family="Helvetica,sans-Serif" font-size="10.00">Traversable</text>
<polyline fill="none" stroke="#bfbfbf" points="0,-706.5 68,-706.5 "/>
<text text-anchor="middle" x="34" y="-693.5" font-family="Helvetica,sans-Serif" font-size="10.00"> </text>
<polyline fill="none" stroke="#bfbfbf" points="0,-685.5 68,-685.5 "/>
<text text-anchor="middle" x="34" y="-672.5" font-family="Helvetica,sans-Serif" font-size="10.00"> </text>
</g>
<!-- Node4&#45;&gt;Node3 -->
<g id="edge6" class="edge"><title>Node4&#45;&gt;Node3</title>
<path fill="none" stroke="midnightblue" d="M54.3964,-654.958C58.619,-646.462 63.2356,-637.172 67.9815,-627.623"/>
<polygon fill="none" stroke="midnightblue" points="51.1266,-653.674 49.8104,-664.186 57.3952,-656.789 51.1266,-653.674"/>
</g>
<!-- Node5 -->
<g id="node8" class="node"><title>Node5</title>
<polygon fill="white" stroke="#bfbfbf" points="85.5,-664.5 85.5,-727.5 146.5,-727.5 146.5,-664.5 85.5,-664.5"/>
<text text-anchor="middle" x="116" y="-714.5" font-family="Helvetica,sans-Serif" font-size="10.00">Countable</text>
<polyline fill="none" stroke="#bfbfbf" points="85.5,-706.5 146.5,-706.5 "/>
<text text-anchor="middle" x="116" y="-693.5" font-family="Helvetica,sans-Serif" font-size="10.00"> </text>
<polyline fill="none" stroke="#bfbfbf" points="85.5,-685.5 146.5,-685.5 "/>
<text text-anchor="middle" x="116" y="-672.5" font-family="Helvetica,sans-Serif" font-size="10.00"> </text>
</g>
<!-- Node5&#45;&gt;Node3 -->
<g id="edge8" class="edge"><title>Node5&#45;&gt;Node3</title>
<path fill="none" stroke="midnightblue" d="M116,-654.134C116,-645.862 116,-636.864 116,-627.623"/>
<polygon fill="none" stroke="midnightblue" points="112.5,-654.186 116,-664.186 119.5,-654.186 112.5,-654.186"/>
</g>
<!-- Node6 -->
<g id="node10" class="node"><title>Node6</title>
<polygon fill="white" stroke="#bfbfbf" points="163.5,-664.5 163.5,-727.5 236.5,-727.5 236.5,-664.5 163.5,-664.5"/>
<text text-anchor="middle" x="200" y="-714.5" font-family="Helvetica,sans-Serif" font-size="10.00">ArrayAccess</text>
<polyline fill="none" stroke="#bfbfbf" points="163.5,-706.5 236.5,-706.5 "/>
<text text-anchor="middle" x="200" y="-693.5" font-family="Helvetica,sans-Serif" font-size="10.00"> </text>
<polyline fill="none" stroke="#bfbfbf" points="163.5,-685.5 236.5,-685.5 "/>
<text text-anchor="middle" x="200" y="-672.5" font-family="Helvetica,sans-Serif" font-size="10.00"> </text>
</g>
<!-- Node6&#45;&gt;Node3 -->
<g id="edge10" class="edge"><title>Node6&#45;&gt;Node3</title>
<path fill="none" stroke="midnightblue" d="M179.246,-655.232C174.882,-646.661 170.104,-637.275 165.19,-627.623"/>
<polygon fill="none" stroke="midnightblue" points="176.148,-656.863 183.804,-664.186 182.386,-653.687 176.148,-656.863"/>
</g>
</g>
</svg>
