<?xml version="1.0" encoding="UTF-8" standalone="no"?>
<!DOCTYPE svg PUBLIC "-//W3C//DTD SVG 1.1//EN"
 "http://www.w3.org/Graphics/SVG/1.1/DTD/svg11.dtd">
<!-- Generated by graphviz version 2.26.3 (20100126.1600)
 -->
<!-- Title: pocketmine\event\block\BlockPlaceEvent Pages: 1 -->
<svg width="295pt" height="456pt"
 viewBox="0.00 0.00 295.00 456.00" xmlns="http://www.w3.org/2000/svg" xmlns:xlink="http://www.w3.org/1999/xlink">
<g id="graph1" class="graph" transform="scale(1 1) rotate(0) translate(4 452)">
<title>pocketmine\event\block\BlockPlaceEvent</title>
<polygon fill="white" stroke="white" points="-4,5 -4,-452 292,-452 292,5 -4,5"/>
<!-- Node1 -->
<g id="node1" class="node"><title>Node1</title>
<polygon fill="#bfbfbf" stroke="black" points="77,-1 77,-181 197,-181 197,-1 77,-1"/>
<text text-anchor="start" x="85" y="-168" font-family="Helvetica,sans-Serif" font-size="10.00">pocketmine\event\block</text>
<text text-anchor="middle" x="137" y="-155" font-family="Helvetica,sans-Serif" font-size="10.00">\BlockPlaceEvent</text>
<polyline fill="none" stroke="black" points="77,-147 197,-147 "/>
<text text-anchor="start" x="85" y="-134" font-family="Helvetica,sans-Serif" font-size="10.00">+ $handlerList</text>
<text text-anchor="start" x="85" y="-121" font-family="Helvetica,sans-Serif" font-size="10.00"># $player</text>
<text text-anchor="start" x="85" y="-108" font-family="Helvetica,sans-Serif" font-size="10.00"># $item</text>
<text text-anchor="start" x="85" y="-95" font-family="Helvetica,sans-Serif" font-size="10.00"># $blockReplace</text>
<text text-anchor="start" x="85" y="-82" font-family="Helvetica,sans-Serif" font-size="10.00"># $blockAgainst</text>
<polyline fill="none" stroke="black" points="77,-74 197,-74 "/>
<text text-anchor="start" x="85" y="-61" font-family="Helvetica,sans-Serif" font-size="10.00">+ __construct()</text>
<text text-anchor="start" x="85" y="-48" font-family="Helvetica,sans-Serif" font-size="10.00">+ getPlayer()</text>
<text text-anchor="start" x="85" y="-35" font-family="Helvetica,sans-Serif" font-size="10.00">+ getItem()</text>
<text text-anchor="start" x="85" y="-22" font-family="Helvetica,sans-Serif" font-size="10.00">+ getBlockReplaced()</text>
<text text-anchor="start" x="85" y="-9" font-family="Helvetica,sans-Serif" font-size="10.00">+ getBlockAgainst()</text>
</g>
<!-- Node2 -->
<g id="node2" class="node"><title>Node2</title>
<a xlink:href="../../df/d69/classpocketmine_1_1event_1_1block_1_1_block_event.html" target="_top" xlink:title="{pocketmine\\event\\block\l\\BlockEvent\n|# $block\l|+ getBlock()\l# __construct()\l}">
<polygon fill="white" stroke="black" points="1,-218.5 1,-307.5 121,-307.5 121,-218.5 1,-218.5"/>
<text text-anchor="start" x="9" y="-294.5" font-family="Helvetica,sans-Serif" font-size="10.00">pocketmine\event\block</text>
<text text-anchor="middle" x="61" y="-281.5" font-family="Helvetica,sans-Serif" font-size="10.00">\BlockEvent</text>
<polyline fill="none" stroke="black" points="1,-273.5 121,-273.5 "/>
<text text-anchor="start" x="9" y="-260.5" font-family="Helvetica,sans-Serif" font-size="10.00"># $block</text>
<polyline fill="none" stroke="black" points="1,-252.5 121,-252.5 "/>
<text text-anchor="start" x="9" y="-239.5" font-family="Helvetica,sans-Serif" font-size="10.00">+ getBlock()</text>
<text text-anchor="start" x="9" y="-226.5" font-family="Helvetica,sans-Serif" font-size="10.00"># __construct()</text>
</a>
</g>
<!-- Node2&#45;&gt;Node1 -->
<g id="edge2" class="edge"><title>Node2&#45;&gt;Node1</title>
<path fill="none" stroke="midnightblue" d="M84.9102,-208.887C88.8185,-200.042 92.9584,-190.673 97.1285,-181.235"/>
<polygon fill="none" stroke="midnightblue" points="81.61,-207.697 80.7697,-218.258 88.0128,-210.526 81.61,-207.697"/>
</g>
<!-- Node3 -->
<g id="node4" class="node"><title>Node3</title>
<a xlink:href="../../d1/d2f/classpocketmine_1_1event_1_1_event.html" target="_top" xlink:title="{pocketmine\\event\\Event\n|# $eventName\l|+ getEventName()\l+ isCancelled()\l+ setCancelled()\l+ getHandlers()\l}">
<polygon fill="white" stroke="black" points="0,-345 0,-447 122,-447 122,-345 0,-345"/>
<text text-anchor="middle" x="61" y="-434" font-family="Helvetica,sans-Serif" font-size="10.00">pocketmine\event\Event</text>
<polyline fill="none" stroke="black" points="0,-426 122,-426 "/>
<text text-anchor="start" x="8" y="-413" font-family="Helvetica,sans-Serif" font-size="10.00"># $eventName</text>
<polyline fill="none" stroke="black" points="0,-405 122,-405 "/>
<text text-anchor="start" x="8" y="-392" font-family="Helvetica,sans-Serif" font-size="10.00">+ getEventName()</text>
<text text-anchor="start" x="8" y="-379" font-family="Helvetica,sans-Serif" font-size="10.00">+ isCancelled()</text>
<text text-anchor="start" x="8" y="-366" font-family="Helvetica,sans-Serif" font-size="10.00">+ setCancelled()</text>
<text text-anchor="start" x="8" y="-353" font-family="Helvetica,sans-Serif" font-size="10.00">+ getHandlers()</text>
</a>
</g>
<!-- Node3&#45;&gt;Node2 -->
<g id="edge4" class="edge"><title>Node3&#45;&gt;Node2</title>
<path fill="none" stroke="midnightblue" d="M61,-334.733C61,-325.593 61,-316.32 61,-307.611"/>
<polygon fill="none" stroke="midnightblue" points="57.5001,-334.959 61,-344.959 64.5001,-334.959 57.5001,-334.959"/>
</g>
<!-- Node4 -->
<g id="node6" class="node"><title>Node4</title>
<a xlink:href="../../db/d62/interfacepocketmine_1_1event_1_1_cancellable.html" target="_top" xlink:title="{pocketmine\\event\\Cancellable\n||+ isCancelled()\l+ setCancelled()\l}">
<polygon fill="white" stroke="black" points="139,-225 139,-301 287,-301 287,-225 139,-225"/>
<text text-anchor="middle" x="213" y="-288" font-family="Helvetica,sans-Serif" font-size="10.00">pocketmine\event\Cancellable</text>
<polyline fill="none" stroke="black" points="139,-280 287,-280 "/>
<text text-anchor="middle" x="213" y="-267" font-family="Helvetica,sans-Serif" font-size="10.00"> </text>
<polyline fill="none" stroke="black" points="139,-259 287,-259 "/>
<text text-anchor="start" x="147" y="-246" font-family="Helvetica,sans-Serif" font-size="10.00">+ isCancelled()</text>
<text text-anchor="start" x="147" y="-233" font-family="Helvetica,sans-Serif" font-size="10.00">+ setCancelled()</text>
</a>
</g>
<!-- Node4&#45;&gt;Node1 -->
<g id="edge6" class="edge"><title>Node4&#45;&gt;Node1</title>
<path fill="none" stroke="midnightblue" d="M192.073,-215.639C187.309,-204.857 182.092,-193.051 176.829,-181.14"/>
<polygon fill="none" stroke="midnightblue" points="188.89,-217.095 196.133,-224.828 195.293,-214.266 188.89,-217.095"/>
</g>
</g>
</svg>
