<?xml version="1.0" encoding="UTF-8" standalone="no"?>
<!DOCTYPE svg PUBLIC "-//W3C//DTD SVG 1.1//EN"
 "http://www.w3.org/Graphics/SVG/1.1/DTD/svg11.dtd">
<!-- Generated by graphviz version 2.26.3 (20100126.1600)
 -->
<!-- Title: G Pages: 1 -->
<svg width="500pt" height="270pt"
 viewBox="0.00 0.00 500.00 270.00" xmlns="http://www.w3.org/2000/svg" xmlns:xlink="http://www.w3.org/1999/xlink">
<g id="graph1" class="graph" transform="scale(1 1) rotate(0) translate(4 266)">
<title>G</title>
<polygon fill="white" stroke="white" points="-4,5 -4,-266 497,-266 497,5 -4,5"/>
<!-- Node1 -->
<g id="node1" class="node"><title>Node1</title>
<polygon fill="#bfbfbf" stroke="black" points="0.5,-120.5 0.5,-141.5 191.5,-141.5 191.5,-120.5 0.5,-120.5"/>
<text text-anchor="middle" x="96" y="-128.5" font-family="Helvetica,sans-Serif" font-size="10.00">pocketmine\plugin\Plugin\getDescription</text>
</g>
<!-- Node2 -->
<g id="node3" class="node"><title>Node2</title>
<a xlink:href="../../de/dc8/classpocketmine_1_1plugin_1_1_plugin_logger.html#a8f50decce99234ae368b27e1d7b19b9b" target="_top" xlink:title="pocketmine\\plugin\\PluginLogger\\__construct">
<polygon fill="white" stroke="black" points="255.5,-240.5 255.5,-261.5 464.5,-261.5 464.5,-240.5 255.5,-240.5"/>
<text text-anchor="middle" x="360" y="-248.5" font-family="Helvetica,sans-Serif" font-size="10.00">pocketmine\plugin\PluginLogger\__construct</text>
</a>
</g>
<!-- Node1&#45;&gt;Node2 -->
<g id="edge2" class="edge"><title>Node1&#45;&gt;Node2</title>
<path fill="none" stroke="midnightblue" d="M113.281,-148.746C136.883,-171.802 181.594,-211.415 228,-231 237.076,-234.83 246.776,-237.94 256.643,-240.463"/>
<polygon fill="midnightblue" stroke="midnightblue" points="115.672,-146.187 106.114,-141.615 110.734,-151.149 115.672,-146.187"/>
</g>
<!-- Node3 -->
<g id="node5" class="node"><title>Node3</title>
<a xlink:href="../../d5/dbf/classpocketmine_1_1plugin_1_1_phar_plugin_loader.html#a985f7c0ace2ec6802539845a794fe438" target="_top" xlink:title="pocketmine\\plugin\\PharPluginLoader\\disablePlugin">
<polygon fill="white" stroke="black" points="242,-200.5 242,-221.5 478,-221.5 478,-200.5 242,-200.5"/>
<text text-anchor="middle" x="360" y="-208.5" font-family="Helvetica,sans-Serif" font-size="10.00">pocketmine\plugin\PharPluginLoader\disablePlugin</text>
</a>
</g>
<!-- Node1&#45;&gt;Node3 -->
<g id="edge4" class="edge"><title>Node1&#45;&gt;Node3</title>
<path fill="none" stroke="midnightblue" d="M123.976,-146.473C150.111,-160.253 190.602,-179.901 228,-191 240.888,-194.825 254.711,-197.943 268.385,-200.479"/>
<polygon fill="midnightblue" stroke="midnightblue" points="125.498,-143.318 115.029,-141.689 122.196,-149.491 125.498,-143.318"/>
</g>
<!-- Node4 -->
<g id="node7" class="node"><title>Node4</title>
<a xlink:href="../../db/d14/classpocketmine_1_1plugin_1_1_plugin_manager.html#a18d858c73a7983a070c729894529f8f1" target="_top" xlink:title="pocketmine\\plugin\\PluginManager\\disablePlugin">
<polygon fill="white" stroke="black" points="248,-160.5 248,-181.5 472,-181.5 472,-160.5 248,-160.5"/>
<text text-anchor="middle" x="360" y="-168.5" font-family="Helvetica,sans-Serif" font-size="10.00">pocketmine\plugin\PluginManager\disablePlugin</text>
</a>
</g>
<!-- Node1&#45;&gt;Node4 -->
<g id="edge6" class="edge"><title>Node1&#45;&gt;Node4</title>
<path fill="none" stroke="midnightblue" d="M175.522,-143.049C212.191,-148.605 255.314,-155.138 290.642,-160.491"/>
<polygon fill="midnightblue" stroke="midnightblue" points="175.774,-139.547 165.363,-141.51 174.726,-146.468 175.774,-139.547"/>
</g>
<!-- Node5 -->
<g id="node9" class="node"><title>Node5</title>
<a xlink:href="../../d5/dbf/classpocketmine_1_1plugin_1_1_phar_plugin_loader.html#a8edb63dbb6c377f924046478175676c0" target="_top" xlink:title="pocketmine\\plugin\\PharPluginLoader\\enablePlugin">
<polygon fill="white" stroke="black" points="243.5,-120.5 243.5,-141.5 476.5,-141.5 476.5,-120.5 243.5,-120.5"/>
<text text-anchor="middle" x="360" y="-128.5" font-family="Helvetica,sans-Serif" font-size="10.00">pocketmine\plugin\PharPluginLoader\enablePlugin</text>
</a>
</g>
<!-- Node1&#45;&gt;Node5 -->
<g id="edge8" class="edge"><title>Node1&#45;&gt;Node5</title>
<path fill="none" stroke="midnightblue" d="M202.03,-131C215.671,-131 229.698,-131 243.496,-131"/>
<polygon fill="midnightblue" stroke="midnightblue" points="201.683,-127.5 191.683,-131 201.683,-134.5 201.683,-127.5"/>
</g>
<!-- Node6 -->
<g id="node11" class="node"><title>Node6</title>
<a xlink:href="../../db/d14/classpocketmine_1_1plugin_1_1_plugin_manager.html#a09c0b6fc8f7e5ff24c345d874eab9350" target="_top" xlink:title="pocketmine\\plugin\\PluginManager\\enablePlugin">
<polygon fill="white" stroke="black" points="249.5,-80.5 249.5,-101.5 470.5,-101.5 470.5,-80.5 249.5,-80.5"/>
<text text-anchor="middle" x="360" y="-88.5" font-family="Helvetica,sans-Serif" font-size="10.00">pocketmine\plugin\PluginManager\enablePlugin</text>
</a>
</g>
<!-- Node1&#45;&gt;Node6 -->
<g id="edge10" class="edge"><title>Node1&#45;&gt;Node6</title>
<path fill="none" stroke="midnightblue" d="M175.522,-118.951C212.191,-113.395 255.314,-106.862 290.642,-101.509"/>
<polygon fill="midnightblue" stroke="midnightblue" points="174.726,-115.532 165.363,-120.49 175.774,-122.453 174.726,-115.532"/>
</g>
<!-- Node7 -->
<g id="node13" class="node"><title>Node7</title>
<a xlink:href="../../db/d14/classpocketmine_1_1plugin_1_1_plugin_manager.html#ad20c63327fabb56c57d577fc7e30725e" target="_top" xlink:title="pocketmine\\plugin\\PluginManager\\isPluginEnabled">
<polygon fill="white" stroke="black" points="242,-40.5 242,-61.5 478,-61.5 478,-40.5 242,-40.5"/>
<text text-anchor="middle" x="360" y="-48.5" font-family="Helvetica,sans-Serif" font-size="10.00">pocketmine\plugin\PluginManager\isPluginEnabled</text>
</a>
</g>
<!-- Node1&#45;&gt;Node7 -->
<g id="edge12" class="edge"><title>Node1&#45;&gt;Node7</title>
<path fill="none" stroke="midnightblue" d="M123.976,-115.527C150.111,-101.747 190.602,-82.099 228,-71 240.888,-67.1752 254.711,-64.0569 268.385,-61.5213"/>
<polygon fill="midnightblue" stroke="midnightblue" points="122.196,-112.509 115.029,-120.311 125.498,-118.682 122.196,-112.509"/>
</g>
<!-- Node8 -->
<g id="node15" class="node"><title>Node8</title>
<a xlink:href="../../db/d14/classpocketmine_1_1plugin_1_1_plugin_manager.html#ae9b60788bece074ae0b35205cd0a2a3e" target="_top" xlink:title="pocketmine\\plugin\\PluginManager\\parseYamlCommands">
<polygon fill="white" stroke="black" points="228.5,-0.5 228.5,-21.5 491.5,-21.5 491.5,-0.5 228.5,-0.5"/>
<text text-anchor="middle" x="360" y="-8.5" font-family="Helvetica,sans-Serif" font-size="10.00">pocketmine\plugin\PluginManager\parseYamlCommands</text>
</a>
</g>
<!-- Node1&#45;&gt;Node8 -->
<g id="edge14" class="edge"><title>Node1&#45;&gt;Node8</title>
<path fill="none" stroke="midnightblue" d="M113.281,-113.254C136.883,-90.1979 181.594,-50.5846 228,-31 237.076,-27.1698 246.776,-24.0602 256.643,-21.5373"/>
<polygon fill="midnightblue" stroke="midnightblue" points="110.734,-110.851 106.114,-120.385 115.672,-115.813 110.734,-110.851"/>
</g>
</g>
</svg>
