<?xml version="1.0" encoding="UTF-8" standalone="no"?>
<!DOCTYPE svg PUBLIC "-//W3C//DTD SVG 1.1//EN"
 "http://www.w3.org/Graphics/SVG/1.1/DTD/svg11.dtd">
<!-- Generated by graphviz version 2.26.3 (20100126.1600)
 -->
<!-- Title: G Pages: 1 -->
<svg width="466pt" height="70pt"
 viewBox="0.00 0.00 466.00 70.00" xmlns="http://www.w3.org/2000/svg" xmlns:xlink="http://www.w3.org/1999/xlink">
<g id="graph1" class="graph" transform="scale(1 1) rotate(0) translate(4 66)">
<title>G</title>
<polygon fill="white" stroke="white" points="-4,5 -4,-66 463,-66 463,5 -4,5"/>
<!-- Node1 -->
<g id="node1" class="node"><title>Node1</title>
<polygon fill="#bfbfbf" stroke="black" points="0,-20.5 0,-41.5 198,-41.5 198,-20.5 0,-20.5"/>
<text text-anchor="middle" x="99" y="-28.5" font-family="Helvetica,sans-Serif" font-size="10.00">pocketmine\plugin\Plugin\getPluginLoader</text>
</g>
<!-- Node2 -->
<g id="node3" class="node"><title>Node2</title>
<a xlink:href="../../db/d14/classpocketmine_1_1plugin_1_1_plugin_manager.html#a18d858c73a7983a070c729894529f8f1" target="_top" xlink:title="pocketmine\\plugin\\PluginManager\\disablePlugin">
<polygon fill="white" stroke="black" points="234,-40.5 234,-61.5 458,-61.5 458,-40.5 234,-40.5"/>
<text text-anchor="middle" x="346" y="-48.5" font-family="Helvetica,sans-Serif" font-size="10.00">pocketmine\plugin\PluginManager\disablePlugin</text>
</a>
</g>
<!-- Node1&#45;&gt;Node2 -->
<g id="edge2" class="edge"><title>Node1&#45;&gt;Node2</title>
<path fill="none" stroke="midnightblue" d="M208.07,-39.8316C216.659,-40.527 225.342,-41.2301 233.95,-41.9272"/>
<polygon fill="midnightblue" stroke="midnightblue" points="208.291,-36.3381 198.041,-39.0195 207.726,-43.3153 208.291,-36.3381"/>
</g>
<!-- Node3 -->
<g id="node5" class="node"><title>Node3</title>
<a xlink:href="../../db/d14/classpocketmine_1_1plugin_1_1_plugin_manager.html#a09c0b6fc8f7e5ff24c345d874eab9350" target="_top" xlink:title="pocketmine\\plugin\\PluginManager\\enablePlugin">
<polygon fill="white" stroke="black" points="235.5,-0.5 235.5,-21.5 456.5,-21.5 456.5,-0.5 235.5,-0.5"/>
<text text-anchor="middle" x="346" y="-8.5" font-family="Helvetica,sans-Serif" font-size="10.00">pocketmine\plugin\PluginManager\enablePlugin</text>
</a>
</g>
<!-- Node1&#45;&gt;Node3 -->
<g id="edge4" class="edge"><title>Node1&#45;&gt;Node3</title>
<path fill="none" stroke="midnightblue" d="M208.124,-22.164C217.103,-21.437 226.184,-20.7017 235.175,-19.9737"/>
<polygon fill="midnightblue" stroke="midnightblue" points="207.726,-18.6847 198.041,-22.9805 208.291,-25.6619 207.726,-18.6847"/>
</g>
</g>
</svg>
