<?xml version="1.0" encoding="UTF-8" standalone="no"?>
<!DOCTYPE svg PUBLIC "-//W3C//DTD SVG 1.1//EN"
 "http://www.w3.org/Graphics/SVG/1.1/DTD/svg11.dtd">
<!-- Generated by graphviz version 2.36.0 (20140111.2315)
 -->
<!-- Title: pocketmine\plugin\Plugin\getPluginLoader Pages: 1 -->
<svg width="488pt" height="61pt"
 viewBox="0.00 0.00 488.00 61.00" xmlns="http://www.w3.org/2000/svg" xmlns:xlink="http://www.w3.org/1999/xlink">
<g id="graph0" class="graph" transform="scale(1 1) rotate(0) translate(4 57)">
<title>pocketmine\plugin\Plugin\getPluginLoader</title>
<polygon fill="white" stroke="none" points="-4,4 -4,-57 484,-57 484,4 -4,4"/>
<!-- Node1 -->
<g id="node1" class="node"><title>Node1</title>
<polygon fill="#bfbfbf" stroke="black" points="0,-1 0,-31 136,-31 136,-1 0,-1"/>
<text text-anchor="start" x="8" y="-19" font-family="Helvetica,sans-Serif" font-size="10.00">pocketmine\plugin\Plugin</text>
<text text-anchor="middle" x="68" y="-8" font-family="Helvetica,sans-Serif" font-size="10.00">\getPluginLoader</text>
</g>
<!-- Node2 -->
<g id="node2" class="node"><title>Node2</title>
<g id="a_node2"><a xlink:href="../../db/d14/classpocketmine_1_1plugin_1_1_plugin_manager.html#a18d858c73a7983a070c729894529f8f1" target="_top" xlink:title="pocketmine\\plugin\\Plugin\lManager\\disablePlugin">
<polygon fill="white" stroke="black" points="172,-23 172,-53 308,-53 308,-23 172,-23"/>
<text text-anchor="start" x="180" y="-41" font-family="Helvetica,sans-Serif" font-size="10.00">pocketmine\plugin\Plugin</text>
<text text-anchor="middle" x="240" y="-30" font-family="Helvetica,sans-Serif" font-size="10.00">Manager\disablePlugin</text>
</a>
</g>
</g>
<!-- Node1&#45;&gt;Node2 -->
<g id="edge1" class="edge"><title>Node1&#45;&gt;Node2</title>
<path fill="none" stroke="midnightblue" d="M146.146,-25.9836C154.688,-27.089 163.337,-28.2083 171.743,-29.2961"/>
<polygon fill="midnightblue" stroke="midnightblue" points="146.555,-22.5074 136.189,-24.695 145.657,-29.4495 146.555,-22.5074"/>
</g>
<!-- Node3 -->
<g id="node3" class="node"><title>Node3</title>
<g id="a_node3"><a xlink:href="../../db/d14/classpocketmine_1_1plugin_1_1_plugin_manager.html#a09c0b6fc8f7e5ff24c345d874eab9350" target="_top" xlink:title="pocketmine\\plugin\\Plugin\lManager\\enablePlugin">
<polygon fill="white" stroke="black" points="344,-1 344,-31 480,-31 480,-1 344,-1"/>
<text text-anchor="start" x="352" y="-19" font-family="Helvetica,sans-Serif" font-size="10.00">pocketmine\plugin\Plugin</text>
<text text-anchor="middle" x="412" y="-8" font-family="Helvetica,sans-Serif" font-size="10.00">Manager\enablePlugin</text>
</a>
</g>
</g>
<!-- Node1&#45;&gt;Node3 -->
<g id="edge3" class="edge"><title>Node1&#45;&gt;Node3</title>
<path fill="none" stroke="midnightblue" d="M146.209,-14.3381C154.908,-14.1992 163.645,-14.0811 172,-14 232.442,-13.4132 247.558,-13.4132 308,-14 319.625,-14.1129 331.987,-14.2973 343.962,-14.5098"/>
<polygon fill="midnightblue" stroke="midnightblue" points="145.978,-10.8415 136.038,-14.5098 146.096,-17.8405 145.978,-10.8415"/>
</g>
<!-- Node2&#45;&gt;Node3 -->
<g id="edge2" class="edge"><title>Node2&#45;&gt;Node3</title>
<path fill="none" stroke="midnightblue" d="M318.146,-28.0164C326.688,-26.911 335.337,-25.7917 343.743,-24.7039"/>
<polygon fill="midnightblue" stroke="midnightblue" points="317.657,-24.5505 308.189,-29.305 318.555,-31.4926 317.657,-24.5505"/>
</g>
</g>
</svg>
