<?xml version="1.0" encoding="UTF-8" standalone="no"?>
<!DOCTYPE svg PUBLIC "-//W3C//DTD SVG 1.1//EN"
 "http://www.w3.org/Graphics/SVG/1.1/DTD/svg11.dtd">
<!-- Generated by graphviz version 2.36.0 (20140111.2315)
 -->
<!-- Title: pocketmine\plugin\Plugin\getDescription Pages: 1 -->
<svg width="700pt" height="480pt"
 viewBox="0.00 0.00 700.00 480.00" xmlns="http://www.w3.org/2000/svg" xmlns:xlink="http://www.w3.org/1999/xlink">
<g id="graph0" class="graph" transform="scale(1 1) rotate(0) translate(4 476)">
<title>pocketmine\plugin\Plugin\getDescription</title>
<polygon fill="white" stroke="none" points="-4,4 -4,-476 696,-476 696,4 -4,4"/>
<!-- Node1 -->
<g id="node1" class="node"><title>Node1</title>
<polygon fill="#bfbfbf" stroke="black" points="0,-213 0,-243 136,-243 136,-213 0,-213"/>
<text text-anchor="start" x="8" y="-231" font-family="Helvetica,sans-Serif" font-size="10.00">pocketmine\plugin\Plugin</text>
<text text-anchor="middle" x="68" y="-220" font-family="Helvetica,sans-Serif" font-size="10.00">\getDescription</text>
</g>
<!-- Node2 -->
<g id="node2" class="node"><title>Node2</title>
<g id="a_node2"><a xlink:href="../../d0/d95/classpocketmine_1_1permission_1_1_permission_attachment.html#a75c2f07654be790604782d2eb1a8eaba" target="_top" xlink:title="pocketmine\\permission\l\\PermissionAttachment\l\\__construct">
<polygon fill="white" stroke="black" points="195.5,-430.5 195.5,-471.5 324.5,-471.5 324.5,-430.5 195.5,-430.5"/>
<text text-anchor="start" x="203.5" y="-459.5" font-family="Helvetica,sans-Serif" font-size="10.00">pocketmine\permission</text>
<text text-anchor="start" x="203.5" y="-448.5" font-family="Helvetica,sans-Serif" font-size="10.00">\PermissionAttachment</text>
<text text-anchor="middle" x="260" y="-437.5" font-family="Helvetica,sans-Serif" font-size="10.00">\__construct</text>
</a>
</g>
</g>
<!-- Node1&#45;&gt;Node2 -->
<g id="edge1" class="edge"><title>Node1&#45;&gt;Node2</title>
<path fill="none" stroke="midnightblue" d="M75.7805,-252.928C88.1451,-293.795 118.176,-375.08 172,-421 178.807,-426.807 186.798,-431.509 195.131,-435.311"/>
<polygon fill="midnightblue" stroke="midnightblue" points="79.1102,-251.843 72.9491,-243.224 72.3904,-253.804 79.1102,-251.843"/>
</g>
<!-- Node3 -->
<g id="node3" class="node"><title>Node3</title>
<g id="a_node3"><a xlink:href="../../de/dc8/classpocketmine_1_1plugin_1_1_plugin_logger.html#a8f50decce99234ae368b27e1d7b19b9b" target="_top" xlink:title="pocketmine\\plugin\\Plugin\lLogger\\__construct">
<polygon fill="white" stroke="black" points="192,-382 192,-412 328,-412 328,-382 192,-382"/>
<text text-anchor="start" x="200" y="-400" font-family="Helvetica,sans-Serif" font-size="10.00">pocketmine\plugin\Plugin</text>
<text text-anchor="middle" x="260" y="-389" font-family="Helvetica,sans-Serif" font-size="10.00">Logger\__construct</text>
</a>
</g>
</g>
<!-- Node1&#45;&gt;Node3 -->
<g id="edge2" class="edge"><title>Node1&#45;&gt;Node3</title>
<path fill="none" stroke="midnightblue" d="M79.9934,-252.359C95.7663,-284.554 127.857,-340.828 172,-372 178.034,-376.261 184.784,-379.8 191.785,-382.738"/>
<polygon fill="midnightblue" stroke="midnightblue" points="83.0881,-250.717 75.6269,-243.195 76.7687,-253.728 83.0881,-250.717"/>
</g>
<!-- Node4 -->
<g id="node4" class="node"><title>Node4</title>
<g id="a_node4"><a xlink:href="../../da/dbf/classpocketmine_1_1permission_1_1_permissible_base.html#adbc073b09ae5a1558610a43b37e9c86b" target="_top" xlink:title="pocketmine\\permission\l\\PermissibleBase\\addAttachment">
<polygon fill="white" stroke="black" points="172,-333 172,-363 348,-363 348,-333 172,-333"/>
<text text-anchor="start" x="180" y="-351" font-family="Helvetica,sans-Serif" font-size="10.00">pocketmine\permission</text>
<text text-anchor="middle" x="260" y="-340" font-family="Helvetica,sans-Serif" font-size="10.00">\PermissibleBase\addAttachment</text>
</a>
</g>
</g>
<!-- Node1&#45;&gt;Node4 -->
<g id="edge3" class="edge"><title>Node1&#45;&gt;Node4</title>
<path fill="none" stroke="midnightblue" d="M88.0581,-250.889C107.182,-272.451 138.535,-304.175 172,-323 178.848,-326.853 186.341,-330.154 193.964,-332.972"/>
<polygon fill="midnightblue" stroke="midnightblue" points="90.5507,-248.421 81.3484,-243.171 85.2679,-253.014 90.5507,-248.421"/>
</g>
<!-- Node5 -->
<g id="node5" class="node"><title>Node5</title>
<g id="a_node5"><a xlink:href="../../d5/dbf/classpocketmine_1_1plugin_1_1_phar_plugin_loader.html#a985f7c0ace2ec6802539845a794fe438" target="_top" xlink:title="pocketmine\\plugin\\PharPlugin\lLoader\\disablePlugin">
<polygon fill="white" stroke="black" points="181,-284 181,-314 339,-314 339,-284 181,-284"/>
<text text-anchor="start" x="189" y="-302" font-family="Helvetica,sans-Serif" font-size="10.00">pocketmine\plugin\PharPlugin</text>
<text text-anchor="middle" x="260" y="-291" font-family="Helvetica,sans-Serif" font-size="10.00">Loader\disablePlugin</text>
</a>
</g>
</g>
<!-- Node1&#45;&gt;Node5 -->
<g id="edge4" class="edge"><title>Node1&#45;&gt;Node5</title>
<path fill="none" stroke="midnightblue" d="M108.824,-247.354C127.714,-256.127 150.753,-266.246 172,-274 181.596,-277.502 191.928,-280.837 202.003,-283.865"/>
<polygon fill="midnightblue" stroke="midnightblue" points="110.174,-244.121 99.6339,-243.04 107.199,-250.458 110.174,-244.121"/>
</g>
<!-- Node6 -->
<g id="node6" class="node"><title>Node6</title>
<g id="a_node6"><a xlink:href="../../db/d14/classpocketmine_1_1plugin_1_1_plugin_manager.html#a18d858c73a7983a070c729894529f8f1" target="_top" xlink:title="pocketmine\\plugin\\Plugin\lManager\\disablePlugin">
<polygon fill="white" stroke="black" points="192,-235 192,-265 328,-265 328,-235 192,-235"/>
<text text-anchor="start" x="200" y="-253" font-family="Helvetica,sans-Serif" font-size="10.00">pocketmine\plugin\Plugin</text>
<text text-anchor="middle" x="260" y="-242" font-family="Helvetica,sans-Serif" font-size="10.00">Manager\disablePlugin</text>
</a>
</g>
</g>
<!-- Node1&#45;&gt;Node6 -->
<g id="edge5" class="edge"><title>Node1&#45;&gt;Node6</title>
<path fill="none" stroke="midnightblue" d="M146.537,-236.978C161.558,-238.717 177.182,-240.526 191.836,-242.223"/>
<polygon fill="midnightblue" stroke="midnightblue" points="146.591,-233.461 136.254,-235.787 145.785,-240.414 146.591,-233.461"/>
</g>
<!-- Node7 -->
<g id="node7" class="node"><title>Node7</title>
<g id="a_node7"><a xlink:href="../../db/d14/classpocketmine_1_1plugin_1_1_plugin_manager.html#a09c0b6fc8f7e5ff24c345d874eab9350" target="_top" xlink:title="pocketmine\\plugin\\Plugin\lManager\\enablePlugin">
<polygon fill="white" stroke="black" points="384,-213 384,-243 520,-243 520,-213 384,-213"/>
<text text-anchor="start" x="392" y="-231" font-family="Helvetica,sans-Serif" font-size="10.00">pocketmine\plugin\Plugin</text>
<text text-anchor="middle" x="452" y="-220" font-family="Helvetica,sans-Serif" font-size="10.00">Manager\enablePlugin</text>
</a>
</g>
</g>
<!-- Node1&#45;&gt;Node7 -->
<g id="edge8" class="edge"><title>Node1&#45;&gt;Node7</title>
<path fill="none" stroke="midnightblue" d="M146.209,-226.338C154.908,-226.199 163.645,-226.081 172,-226 250.219,-225.241 269.781,-225.241 348,-226 359.625,-226.113 371.987,-226.297 383.962,-226.51"/>
<polygon fill="midnightblue" stroke="midnightblue" points="145.978,-222.841 136.038,-226.51 146.096,-229.84 145.978,-222.841"/>
</g>
<!-- Node8 -->
<g id="node8" class="node"><title>Node8</title>
<g id="a_node8"><a xlink:href="../../d5/dbf/classpocketmine_1_1plugin_1_1_phar_plugin_loader.html#a8edb63dbb6c377f924046478175676c0" target="_top" xlink:title="pocketmine\\plugin\\PharPlugin\lLoader\\enablePlugin">
<polygon fill="white" stroke="black" points="181,-147 181,-177 339,-177 339,-147 181,-147"/>
<text text-anchor="start" x="189" y="-165" font-family="Helvetica,sans-Serif" font-size="10.00">pocketmine\plugin\PharPlugin</text>
<text text-anchor="middle" x="260" y="-154" font-family="Helvetica,sans-Serif" font-size="10.00">Loader\enablePlugin</text>
</a>
</g>
</g>
<!-- Node1&#45;&gt;Node8 -->
<g id="edge7" class="edge"><title>Node1&#45;&gt;Node8</title>
<path fill="none" stroke="midnightblue" d="M121.644,-209.552C137.796,-203.906 155.625,-197.685 172,-192 186.037,-187.127 201.357,-181.835 215.175,-177.072"/>
<polygon fill="midnightblue" stroke="midnightblue" points="120.116,-206.379 111.833,-212.984 122.428,-212.986 120.116,-206.379"/>
</g>
<!-- Node9 -->
<g id="node9" class="node"><title>Node9</title>
<g id="a_node9"><a xlink:href="../../db/d14/classpocketmine_1_1plugin_1_1_plugin_manager.html#ad20c63327fabb56c57d577fc7e30725e" target="_top" xlink:title="pocketmine\\plugin\\Plugin\lManager\\isPluginEnabled">
<polygon fill="white" stroke="black" points="192,-98 192,-128 328,-128 328,-98 192,-98"/>
<text text-anchor="start" x="200" y="-116" font-family="Helvetica,sans-Serif" font-size="10.00">pocketmine\plugin\Plugin</text>
<text text-anchor="middle" x="260" y="-105" font-family="Helvetica,sans-Serif" font-size="10.00">Manager\isPluginEnabled</text>
</a>
</g>
</g>
<!-- Node1&#45;&gt;Node9 -->
<g id="edge9" class="edge"><title>Node1&#45;&gt;Node9</title>
<path fill="none" stroke="midnightblue" d="M88.9577,-205.669C108.315,-185.293 139.459,-155.734 172,-138 179.038,-134.165 186.724,-130.865 194.521,-128.04"/>
<polygon fill="midnightblue" stroke="midnightblue" points="86.3964,-203.284 82.1377,-212.985 91.5167,-208.057 86.3964,-203.284"/>
</g>
<!-- Node10 -->
<g id="node10" class="node"><title>Node10</title>
<g id="a_node10"><a xlink:href="../../db/d14/classpocketmine_1_1plugin_1_1_plugin_manager.html#ae9b60788bece074ae0b35205cd0a2a3e" target="_top" xlink:title="pocketmine\\plugin\\Plugin\lManager\\parseYamlCommands">
<polygon fill="white" stroke="black" points="177,-49 177,-79 343,-79 343,-49 177,-49"/>
<text text-anchor="start" x="185" y="-67" font-family="Helvetica,sans-Serif" font-size="10.00">pocketmine\plugin\Plugin</text>
<text text-anchor="middle" x="260" y="-56" font-family="Helvetica,sans-Serif" font-size="10.00">Manager\parseYamlCommands</text>
</a>
</g>
</g>
<!-- Node1&#45;&gt;Node10 -->
<g id="edge10" class="edge"><title>Node1&#45;&gt;Node10</title>
<path fill="none" stroke="midnightblue" d="M80.3711,-203.764C96.3764,-172.31 128.525,-117.924 172,-88 177.034,-84.5354 182.553,-81.5694 188.292,-79.0305"/>
<polygon fill="midnightblue" stroke="midnightblue" points="77.2291,-202.222 75.9276,-212.736 83.502,-205.328 77.2291,-202.222"/>
</g>
<!-- Node13 -->
<g id="node13" class="node"><title>Node13</title>
<g id="a_node13"><a xlink:href="../../db/d14/classpocketmine_1_1plugin_1_1_plugin_manager.html#a0f888c4551193efde0a492ffd391f471" target="_top" xlink:title="pocketmine\\plugin\\Plugin\lManager\\registerEvent">
<polygon fill="white" stroke="black" points="192,-0 192,-30 328,-30 328,-0 192,-0"/>
<text text-anchor="start" x="200" y="-18" font-family="Helvetica,sans-Serif" font-size="10.00">pocketmine\plugin\Plugin</text>
<text text-anchor="middle" x="260" y="-7" font-family="Helvetica,sans-Serif" font-size="10.00">Manager\registerEvent</text>
</a>
</g>
</g>
<!-- Node1&#45;&gt;Node13 -->
<g id="edge13" class="edge"><title>Node1&#45;&gt;Node13</title>
<path fill="none" stroke="midnightblue" d="M75.6208,-203.208C87.7541,-162.636 117.458,-82.2551 172,-39 177.893,-34.3268 184.634,-30.5623 191.699,-27.53"/>
<polygon fill="midnightblue" stroke="midnightblue" points="72.2489,-202.27 72.8468,-212.847 78.9759,-204.205 72.2489,-202.27"/>
</g>
<!-- Node6&#45;&gt;Node7 -->
<g id="edge6" class="edge"><title>Node6&#45;&gt;Node7</title>
<path fill="none" stroke="midnightblue" d="M338.537,-241.022C353.558,-239.283 369.182,-237.474 383.836,-235.777"/>
<polygon fill="midnightblue" stroke="midnightblue" points="337.785,-237.586 328.254,-242.213 338.591,-244.539 337.785,-237.586"/>
</g>
<!-- Node11 -->
<g id="node11" class="node"><title>Node11</title>
<g id="a_node11"><a xlink:href="../../db/d14/classpocketmine_1_1plugin_1_1_plugin_manager.html#a759d1aaaad5d7d951f174dfe9e0d18ea" target="_top" xlink:title="pocketmine\\plugin\\Plugin\lManager\\loadPlugin">
<polygon fill="white" stroke="black" points="384,-49 384,-79 520,-79 520,-49 384,-49"/>
<text text-anchor="start" x="392" y="-67" font-family="Helvetica,sans-Serif" font-size="10.00">pocketmine\plugin\Plugin</text>
<text text-anchor="middle" x="452" y="-56" font-family="Helvetica,sans-Serif" font-size="10.00">Manager\loadPlugin</text>
</a>
</g>
</g>
<!-- Node10&#45;&gt;Node11 -->
<g id="edge11" class="edge"><title>Node10&#45;&gt;Node11</title>
<path fill="none" stroke="midnightblue" d="M353.435,-64C363.669,-64 373.942,-64 383.78,-64"/>
<polygon fill="midnightblue" stroke="midnightblue" points="353.232,-60.5001 343.232,-64 353.232,-67.5001 353.232,-60.5001"/>
</g>
<!-- Node12 -->
<g id="node12" class="node"><title>Node12</title>
<g id="a_node12"><a xlink:href="../../db/d14/classpocketmine_1_1plugin_1_1_plugin_manager.html#a0a41876c6cd79a0b4fbab54d03da8ccd" target="_top" xlink:title="pocketmine\\plugin\\Plugin\lManager\\loadPlugins">
<polygon fill="white" stroke="black" points="556,-49 556,-79 692,-79 692,-49 556,-49"/>
<text text-anchor="start" x="564" y="-67" font-family="Helvetica,sans-Serif" font-size="10.00">pocketmine\plugin\Plugin</text>
<text text-anchor="middle" x="624" y="-56" font-family="Helvetica,sans-Serif" font-size="10.00">Manager\loadPlugins</text>
</a>
</g>
</g>
<!-- Node11&#45;&gt;Node12 -->
<g id="edge12" class="edge"><title>Node11&#45;&gt;Node12</title>
<path fill="none" stroke="midnightblue" d="M530.425,-64C538.876,-64 547.428,-64 555.743,-64"/>
<polygon fill="midnightblue" stroke="midnightblue" points="530.189,-60.5001 520.189,-64 530.188,-67.5001 530.189,-60.5001"/>
</g>
<!-- Node14 -->
<g id="node14" class="node"><title>Node14</title>
<g id="a_node14"><a xlink:href="../../db/d14/classpocketmine_1_1plugin_1_1_plugin_manager.html#af2a946f184c8eb8c092f53c097373857" target="_top" xlink:title="pocketmine\\plugin\\Plugin\lManager\\registerEvents">
<polygon fill="white" stroke="black" points="384,-0 384,-30 520,-30 520,-0 384,-0"/>
<text text-anchor="start" x="392" y="-18" font-family="Helvetica,sans-Serif" font-size="10.00">pocketmine\plugin\Plugin</text>
<text text-anchor="middle" x="452" y="-7" font-family="Helvetica,sans-Serif" font-size="10.00">Manager\registerEvents</text>
</a>
</g>
</g>
<!-- Node13&#45;&gt;Node14 -->
<g id="edge14" class="edge"><title>Node13&#45;&gt;Node14</title>
<path fill="none" stroke="midnightblue" d="M338.537,-15C353.558,-15 369.182,-15 383.836,-15"/>
<polygon fill="midnightblue" stroke="midnightblue" points="338.254,-11.5001 328.254,-15 338.254,-18.5001 338.254,-11.5001"/>
</g>
</g>
</svg>
