<?xml version="1.0" encoding="UTF-8" standalone="no"?>
<!DOCTYPE svg PUBLIC "-//W3C//DTD SVG 1.1//EN"
 "http://www.w3.org/Graphics/SVG/1.1/DTD/svg11.dtd">
<!-- Generated by graphviz version 2.26.3 (20100126.1600)
 -->
<!-- Title: pocketmine\event\plugin\PluginEvent Pages: 1 -->
<svg width="270pt" height="352pt"
 viewBox="0.00 0.00 270.00 352.00" xmlns="http://www.w3.org/2000/svg" xmlns:xlink="http://www.w3.org/1999/xlink">
<g id="graph1" class="graph" transform="scale(1 1) rotate(0) translate(4 348)">
<title>pocketmine\event\plugin\PluginEvent</title>
<polygon fill="white" stroke="white" points="-4,5 -4,-348 267,-348 267,5 -4,5"/>
<!-- Node1 -->
<g id="node1" class="node"><title>Node1</title>
<polygon fill="#bfbfbf" stroke="black" points="70,-114.5 70,-203.5 192,-203.5 192,-114.5 70,-114.5"/>
<text text-anchor="start" x="78" y="-190.5" font-family="Helvetica,sans-Serif" font-size="10.00">pocketmine\event\plugin</text>
<text text-anchor="middle" x="131" y="-177.5" font-family="Helvetica,sans-Serif" font-size="10.00">\PluginEvent</text>
<polyline fill="none" stroke="black" points="70,-169.5 192,-169.5 "/>
<text text-anchor="middle" x="131" y="-156.5" font-family="Helvetica,sans-Serif" font-size="10.00"> </text>
<polyline fill="none" stroke="black" points="70,-148.5 192,-148.5 "/>
<text text-anchor="start" x="78" y="-135.5" font-family="Helvetica,sans-Serif" font-size="10.00">+ __construct()</text>
<text text-anchor="start" x="78" y="-122.5" font-family="Helvetica,sans-Serif" font-size="10.00">+ getPlugin()</text>
</g>
<!-- Node3 -->
<g id="node5" class="node"><title>Node3</title>
<a xlink:href="../../d6/d6d/classpocketmine_1_1event_1_1plugin_1_1_plugin_disable_event.html" target="_top" xlink:title="{pocketmine\\event\\plugin\l\\PluginDisableEvent\n|+ $handlerList\l|+ __construct()\l}">
<polygon fill="white" stroke="black" points="0,-1 0,-77 122,-77 122,-1 0,-1"/>
<text text-anchor="start" x="8" y="-64" font-family="Helvetica,sans-Serif" font-size="10.00">pocketmine\event\plugin</text>
<text text-anchor="middle" x="61" y="-51" font-family="Helvetica,sans-Serif" font-size="10.00">\PluginDisableEvent</text>
<polyline fill="none" stroke="black" points="0,-43 122,-43 "/>
<text text-anchor="start" x="8" y="-30" font-family="Helvetica,sans-Serif" font-size="10.00">+ $handlerList</text>
<polyline fill="none" stroke="black" points="0,-22 122,-22 "/>
<text text-anchor="start" x="8" y="-9" font-family="Helvetica,sans-Serif" font-size="10.00">+ __construct()</text>
</a>
</g>
<!-- Node1&#45;&gt;Node3 -->
<g id="edge4" class="edge"><title>Node1&#45;&gt;Node3</title>
<path fill="none" stroke="midnightblue" d="M99.8346,-105.574C94.2221,-95.9522 88.4765,-86.1026 83.1845,-77.0306"/>
<polygon fill="none" stroke="midnightblue" points="96.8726,-107.442 104.935,-114.316 102.919,-103.915 96.8726,-107.442"/>
</g>
<!-- Node4 -->
<g id="node7" class="node"><title>Node4</title>
<a xlink:href="../../d9/dca/classpocketmine_1_1event_1_1plugin_1_1_plugin_enable_event.html" target="_top" xlink:title="{pocketmine\\event\\plugin\l\\PluginEnableEvent\n|+ $handlerList\l|+ __construct()\l}">
<polygon fill="white" stroke="black" points="140,-1 140,-77 262,-77 262,-1 140,-1"/>
<text text-anchor="start" x="148" y="-64" font-family="Helvetica,sans-Serif" font-size="10.00">pocketmine\event\plugin</text>
<text text-anchor="middle" x="201" y="-51" font-family="Helvetica,sans-Serif" font-size="10.00">\PluginEnableEvent</text>
<polyline fill="none" stroke="black" points="140,-43 262,-43 "/>
<text text-anchor="start" x="148" y="-30" font-family="Helvetica,sans-Serif" font-size="10.00">+ $handlerList</text>
<polyline fill="none" stroke="black" points="140,-22 262,-22 "/>
<text text-anchor="start" x="148" y="-9" font-family="Helvetica,sans-Serif" font-size="10.00">+ __construct()</text>
</a>
</g>
<!-- Node1&#45;&gt;Node4 -->
<g id="edge6" class="edge"><title>Node1&#45;&gt;Node4</title>
<path fill="none" stroke="midnightblue" d="M162.165,-105.574C167.778,-95.9522 173.523,-86.1026 178.816,-77.0306"/>
<polygon fill="none" stroke="midnightblue" points="159.081,-103.915 157.065,-114.316 165.127,-107.442 159.081,-103.915"/>
</g>
<!-- Node2 -->
<g id="node2" class="node"><title>Node2</title>
<a xlink:href="../../d1/d2f/classpocketmine_1_1event_1_1_event.html" target="_top" xlink:title="{pocketmine\\event\\Event\n|# $eventName\l|+ getEventName()\l+ isCancelled()\l+ setCancelled()\l+ getHandlers()\l}">
<polygon fill="white" stroke="black" points="70,-241 70,-343 192,-343 192,-241 70,-241"/>
<text text-anchor="middle" x="131" y="-330" font-family="Helvetica,sans-Serif" font-size="10.00">pocketmine\event\Event</text>
<polyline fill="none" stroke="black" points="70,-322 192,-322 "/>
<text text-anchor="start" x="78" y="-309" font-family="Helvetica,sans-Serif" font-size="10.00"># $eventName</text>
<polyline fill="none" stroke="black" points="70,-301 192,-301 "/>
<text text-anchor="start" x="78" y="-288" font-family="Helvetica,sans-Serif" font-size="10.00">+ getEventName()</text>
<text text-anchor="start" x="78" y="-275" font-family="Helvetica,sans-Serif" font-size="10.00">+ isCancelled()</text>
<text text-anchor="start" x="78" y="-262" font-family="Helvetica,sans-Serif" font-size="10.00">+ setCancelled()</text>
<text text-anchor="start" x="78" y="-249" font-family="Helvetica,sans-Serif" font-size="10.00">+ getHandlers()</text>
</a>
</g>
<!-- Node2&#45;&gt;Node1 -->
<g id="edge2" class="edge"><title>Node2&#45;&gt;Node1</title>
<path fill="none" stroke="midnightblue" d="M131,-230.733C131,-221.593 131,-212.32 131,-203.611"/>
<polygon fill="none" stroke="midnightblue" points="127.5,-230.959 131,-240.959 134.5,-230.959 127.5,-230.959"/>
</g>
</g>
</svg>
