<?xml version="1.0" encoding="UTF-8" standalone="no"?>
<!DOCTYPE svg PUBLIC "-//W3C//DTD SVG 1.1//EN"
 "http://www.w3.org/Graphics/SVG/1.1/DTD/svg11.dtd">
<!-- Generated by graphviz version 2.36.0 (20140111.2315)
 -->
<!-- Title: pocketmine\inventory\ChestInventory\getHolder Pages: 1 -->
<svg width="320pt" height="87pt"
 viewBox="0.00 0.00 320.00 87.00" xmlns="http://www.w3.org/2000/svg" xmlns:xlink="http://www.w3.org/1999/xlink">
<g id="graph0" class="graph" transform="scale(1 1) rotate(0) translate(4 83)">
<title>pocketmine\inventory\ChestInventory\getHolder</title>
<polygon fill="white" stroke="none" points="-4,4 -4,-83 316,-83 316,4 -4,4"/>
<!-- Node1 -->
<g id="node1" class="node"><title>Node1</title>
<polygon fill="#bfbfbf" stroke="black" points="0,-24 0,-54 142,-54 142,-24 0,-24"/>
<text text-anchor="start" x="8" y="-42" font-family="Helvetica,sans-Serif" font-size="10.00">pocketmine\inventory</text>
<text text-anchor="middle" x="71" y="-31" font-family="Helvetica,sans-Serif" font-size="10.00">\ChestInventory\getHolder</text>
</g>
<!-- Node2 -->
<g id="node2" class="node"><title>Node2</title>
<g id="a_node2"><a xlink:href="../../d3/dd8/classpocketmine_1_1inventory_1_1_chest_inventory.html#affd188f523d964cb81d7edb052ada726" target="_top" xlink:title="pocketmine\\inventory\l\\ChestInventory\\onClose">
<polygon fill="white" stroke="black" points="178.5,-49 178.5,-79 311.5,-79 311.5,-49 178.5,-49"/>
<text text-anchor="start" x="186.5" y="-67" font-family="Helvetica,sans-Serif" font-size="10.00">pocketmine\inventory</text>
<text text-anchor="middle" x="245" y="-56" font-family="Helvetica,sans-Serif" font-size="10.00">\ChestInventory\onClose</text>
</a>
</g>
</g>
<!-- Node1&#45;&gt;Node2 -->
<g id="edge1" class="edge"><title>Node1&#45;&gt;Node2</title>
<path fill="none" stroke="midnightblue" d="M152.551,-50.708C161.198,-51.9648 169.918,-53.2323 178.361,-54.4594"/>
<polygon fill="midnightblue" stroke="midnightblue" points="152.855,-47.2154 142.455,-49.2406 151.848,-54.1427 152.855,-47.2154"/>
</g>
<!-- Node3 -->
<g id="node3" class="node"><title>Node3</title>
<g id="a_node3"><a xlink:href="../../d3/dd8/classpocketmine_1_1inventory_1_1_chest_inventory.html#a481f71f9f51ed8bb690ed492006c30f2" target="_top" xlink:title="pocketmine\\inventory\l\\ChestInventory\\onOpen">
<polygon fill="white" stroke="black" points="179,-0 179,-30 311,-30 311,-0 179,-0"/>
<text text-anchor="start" x="187" y="-18" font-family="Helvetica,sans-Serif" font-size="10.00">pocketmine\inventory</text>
<text text-anchor="middle" x="245" y="-7" font-family="Helvetica,sans-Serif" font-size="10.00">\ChestInventory\onOpen</text>
</a>
</g>
</g>
<!-- Node1&#45;&gt;Node3 -->
<g id="edge2" class="edge"><title>Node1&#45;&gt;Node3</title>
<path fill="none" stroke="midnightblue" d="M152.423,-27.7782C161.3,-26.5396 170.256,-25.2899 178.911,-24.0822"/>
<polygon fill="midnightblue" stroke="midnightblue" points="151.876,-24.3206 142.455,-29.169 152.843,-31.2534 151.876,-24.3206"/>
</g>
</g>
</svg>
