<?xml version="1.0" encoding="UTF-8" standalone="no"?>
<!DOCTYPE svg PUBLIC "-//W3C//DTD SVG 1.1//EN"
 "http://www.w3.org/Graphics/SVG/1.1/DTD/svg11.dtd">
<!-- Generated by graphviz version 2.26.3 (20100126.1600)
 -->
<!-- Title: pocketmine\inventory\ChestInventory\getHolder Pages: 1 -->
<svg width="302pt" height="94pt"
 viewBox="0.00 0.00 302.00 94.00" xmlns="http://www.w3.org/2000/svg" xmlns:xlink="http://www.w3.org/1999/xlink">
<g id="graph1" class="graph" transform="scale(1 1) rotate(0) translate(4 90)">
<title>pocketmine\inventory\ChestInventory\getHolder</title>
<polygon fill="white" stroke="white" points="-4,5 -4,-90 299,-90 299,5 -4,5"/>
<!-- Node1 -->
<g id="node1" class="node"><title>Node1</title>
<polygon fill="#bfbfbf" stroke="black" points="0.5,-26 0.5,-60 131.5,-60 131.5,-26 0.5,-26"/>
<text text-anchor="start" x="8.5" y="-47" font-family="Helvetica,sans-Serif" font-size="10.00">pocketmine\inventory</text>
<text text-anchor="middle" x="66" y="-34" font-family="Helvetica,sans-Serif" font-size="10.00">\ChestInventory\getHolder</text>
</g>
<!-- Node2 -->
<g id="node3" class="node"><title>Node2</title>
<a xlink:href="../../d3/dd8/classpocketmine_1_1inventory_1_1_chest_inventory.html#affd188f523d964cb81d7edb052ada726" target="_top" xlink:title="pocketmine\\inventory\l\\ChestInventory\\onClose">
<polygon fill="white" stroke="black" points="168.5,-52 168.5,-86 293.5,-86 293.5,-52 168.5,-52"/>
<text text-anchor="start" x="176.5" y="-73" font-family="Helvetica,sans-Serif" font-size="10.00">pocketmine\inventory</text>
<text text-anchor="middle" x="231" y="-60" font-family="Helvetica,sans-Serif" font-size="10.00">\ChestInventory\onClose</text>
</a>
</g>
<!-- Node1&#45;&gt;Node2 -->
<g id="edge2" class="edge"><title>Node1&#45;&gt;Node2</title>
<path fill="none" stroke="midnightblue" d="M141.73,-54.9332C150.686,-56.3444 159.749,-57.7725 168.493,-59.1504"/>
<polygon fill="midnightblue" stroke="midnightblue" points="142.109,-51.4499 131.686,-53.3506 141.02,-58.3646 142.109,-51.4499"/>
</g>
<!-- Node3 -->
<g id="node5" class="node"><title>Node3</title>
<a xlink:href="../../d3/dd8/classpocketmine_1_1inventory_1_1_chest_inventory.html#a481f71f9f51ed8bb690ed492006c30f2" target="_top" xlink:title="pocketmine\\inventory\l\\ChestInventory\\onOpen">
<polygon fill="white" stroke="black" points="169.5,-0 169.5,-34 292.5,-34 292.5,-0 169.5,-0"/>
<text text-anchor="start" x="177.5" y="-21" font-family="Helvetica,sans-Serif" font-size="10.00">pocketmine\inventory</text>
<text text-anchor="middle" x="231" y="-8" font-family="Helvetica,sans-Serif" font-size="10.00">\ChestInventory\onOpen</text>
</a>
</g>
<!-- Node1&#45;&gt;Node3 -->
<g id="edge4" class="edge"><title>Node1&#45;&gt;Node3</title>
<path fill="none" stroke="midnightblue" d="M141.659,-31.078C150.912,-29.6199 160.28,-28.1437 169.294,-26.7233"/>
<polygon fill="midnightblue" stroke="midnightblue" points="141.02,-27.6354 131.686,-32.6494 142.109,-34.5501 141.02,-27.6354"/>
</g>
</g>
</svg>
