<?xml version="1.0" encoding="UTF-8" standalone="no"?>
<!DOCTYPE svg PUBLIC "-//W3C//DTD SVG 1.1//EN"
 "http://www.w3.org/Graphics/SVG/1.1/DTD/svg11.dtd">
<!-- Generated by graphviz version 2.36.0 (20140111.2315)
 -->
<!-- Title: pocketmine\CompatibleClassLoader Pages: 1 -->
<svg width="164pt" height="172pt"
 viewBox="0.00 0.00 164.00 172.00" xmlns="http://www.w3.org/2000/svg" xmlns:xlink="http://www.w3.org/1999/xlink">
<g id="graph0" class="graph" transform="scale(1 1) rotate(0) translate(4 168)">
<title>pocketmine\CompatibleClassLoader</title>
<polygon fill="white" stroke="none" points="-4,4 -4,-168 160,-168 160,4 -4,4"/>
<!-- Node1 -->
<g id="node1" class="node"><title>Node1</title>
<polygon fill="#bfbfbf" stroke="black" points="0,-1 0,-69 156,-69 156,-1 0,-1"/>
<text text-anchor="start" x="8" y="-57" font-family="Helvetica,sans-Serif" font-size="10.00">pocketmine\CompatibleClass</text>
<text text-anchor="middle" x="78" y="-46" font-family="Helvetica,sans-Serif" font-size="10.00">Loader</text>
<polyline fill="none" stroke="black" points="0,-39 156,-39 "/>
<text text-anchor="middle" x="78" y="-27" font-family="Helvetica,sans-Serif" font-size="10.00"> </text>
<polyline fill="none" stroke="black" points="0,-20 156,-20 "/>
<text text-anchor="start" x="8" y="-8" font-family="Helvetica,sans-Serif" font-size="10.00">+ add()</text>
</g>
<!-- Node2 -->
<g id="node2" class="node"><title>Node2</title>
<polygon fill="white" stroke="#bfbfbf" points="28.5,-106.5 28.5,-163.5 127.5,-163.5 127.5,-106.5 28.5,-106.5"/>
<text text-anchor="middle" x="78" y="-151.5" font-family="Helvetica,sans-Serif" font-size="10.00">BaseClassLoader</text>
<polyline fill="none" stroke="#bfbfbf" points="28.5,-144.5 127.5,-144.5 "/>
<text text-anchor="middle" x="78" y="-132.5" font-family="Helvetica,sans-Serif" font-size="10.00"> </text>
<polyline fill="none" stroke="#bfbfbf" points="28.5,-125.5 127.5,-125.5 "/>
<text text-anchor="middle" x="78" y="-113.5" font-family="Helvetica,sans-Serif" font-size="10.00"> </text>
</g>
<!-- Node2&#45;&gt;Node1 -->
<g id="edge1" class="edge"><title>Node2&#45;&gt;Node1</title>
<path fill="none" stroke="midnightblue" d="M78,-96.3023C78,-87.3951 78,-77.9608 78,-69.2659"/>
<polygon fill="none" stroke="midnightblue" points="74.5001,-96.4407 78,-106.441 81.5001,-96.4408 74.5001,-96.4407"/>
</g>
</g>
</svg>
