<?xml version="1.0" encoding="UTF-8" standalone="no"?>
<!DOCTYPE svg PUBLIC "-//W3C//DTD SVG 1.1//EN"
 "http://www.w3.org/Graphics/SVG/1.1/DTD/svg11.dtd">
<!-- Generated by graphviz version 2.26.3 (20100126.1600)
 -->
<!-- Title: pocketmine\entity\Damageable Pages: 1 -->
<svg width="1859pt" height="1288pt"
 viewBox="0.00 0.00 1859.00 1288.00" xmlns="http://www.w3.org/2000/svg" xmlns:xlink="http://www.w3.org/1999/xlink">
<g id="graph1" class="graph" transform="scale(1 1) rotate(0) translate(4 1284)">
<title>pocketmine\entity\Damageable</title>
<polygon fill="white" stroke="white" points="-4,5 -4,-1284 1856,-1284 1856,5 -4,5"/>
<!-- Node1 -->
<g id="node1" class="node"><title>Node1</title>
<polygon fill="#bfbfbf" stroke="black" points="1125,-1216.5 1125,-1279.5 1277,-1279.5 1277,-1216.5 1125,-1216.5"/>
<text text-anchor="middle" x="1201" y="-1266.5" font-family="Helvetica,sans-Serif" font-size="10.00">pocketmine\entity\Damageable</text>
<polyline fill="none" stroke="black" points="1125,-1258.5 1277,-1258.5 "/>
<text text-anchor="middle" x="1201" y="-1245.5" font-family="Helvetica,sans-Serif" font-size="10.00"> </text>
<polyline fill="none" stroke="black" points="1125,-1237.5 1277,-1237.5 "/>
<text text-anchor="middle" x="1201" y="-1224.5" font-family="Helvetica,sans-Serif" font-size="10.00"> </text>
</g>
<!-- Node2 -->
<g id="node3" class="node"><title>Node2</title>
<a xlink:href="../../df/d0c/classpocketmine_1_1entity_1_1_living.html" target="_top" xlink:title="{pocketmine\\entity\\Living\n|# $gravity\l# $drag\l|+ saveNBT()\l+ getName()\l+ attack()\l+ heal()\l+ kill()\l+ entityBaseTick()\l+ getDrops()\l# initEntity()\l}">
<polygon fill="white" stroke="black" points="1140,-1012.5 1140,-1179.5 1262,-1179.5 1262,-1012.5 1140,-1012.5"/>
<text text-anchor="middle" x="1201" y="-1166.5" font-family="Helvetica,sans-Serif" font-size="10.00">pocketmine\entity\Living</text>
<polyline fill="none" stroke="black" points="1140,-1158.5 1262,-1158.5 "/>
<text text-anchor="start" x="1148" y="-1145.5" font-family="Helvetica,sans-Serif" font-size="10.00"># $gravity</text>
<text text-anchor="start" x="1148" y="-1132.5" font-family="Helvetica,sans-Serif" font-size="10.00"># $drag</text>
<polyline fill="none" stroke="black" points="1140,-1124.5 1262,-1124.5 "/>
<text text-anchor="start" x="1148" y="-1111.5" font-family="Helvetica,sans-Serif" font-size="10.00">+ saveNBT()</text>
<text text-anchor="start" x="1148" y="-1098.5" font-family="Helvetica,sans-Serif" font-size="10.00">+ getName()</text>
<text text-anchor="start" x="1148" y="-1085.5" font-family="Helvetica,sans-Serif" font-size="10.00">+ attack()</text>
<text text-anchor="start" x="1148" y="-1072.5" font-family="Helvetica,sans-Serif" font-size="10.00">+ heal()</text>
<text text-anchor="start" x="1148" y="-1059.5" font-family="Helvetica,sans-Serif" font-size="10.00">+ kill()</text>
<text text-anchor="start" x="1148" y="-1046.5" font-family="Helvetica,sans-Serif" font-size="10.00">+ entityBaseTick()</text>
<text text-anchor="start" x="1148" y="-1033.5" font-family="Helvetica,sans-Serif" font-size="10.00">+ getDrops()</text>
<text text-anchor="start" x="1148" y="-1020.5" font-family="Helvetica,sans-Serif" font-size="10.00"># initEntity()</text>
</a>
</g>
<!-- Node1&#45;&gt;Node2 -->
<g id="edge2" class="edge"><title>Node1&#45;&gt;Node2</title>
<path fill="none" stroke="midnightblue" d="M1201,-1206.08C1201,-1197.83 1201,-1188.89 1201,-1179.81"/>
<polygon fill="none" stroke="midnightblue" points="1197.5,-1206.14 1201,-1216.14 1204.5,-1206.14 1197.5,-1206.14"/>
</g>
<!-- Node3 -->
<g id="node5" class="node"><title>Node3</title>
<a xlink:href="../../d1/db7/classpocketmine_1_1entity_1_1_creature.html" target="_top" xlink:title="{pocketmine\\entity\\Creature\n||}">
<polygon fill="white" stroke="black" points="1061,-912.5 1061,-975.5 1195,-975.5 1195,-912.5 1061,-912.5"/>
<text text-anchor="middle" x="1128" y="-962.5" font-family="Helvetica,sans-Serif" font-size="10.00">pocketmine\entity\Creature</text>
<polyline fill="none" stroke="black" points="1061,-954.5 1195,-954.5 "/>
<text text-anchor="middle" x="1128" y="-941.5" font-family="Helvetica,sans-Serif" font-size="10.00"> </text>
<polyline fill="none" stroke="black" points="1061,-933.5 1195,-933.5 "/>
<text text-anchor="middle" x="1128" y="-920.5" font-family="Helvetica,sans-Serif" font-size="10.00"> </text>
</a>
</g>
<!-- Node2&#45;&gt;Node3 -->
<g id="edge4" class="edge"><title>Node2&#45;&gt;Node3</title>
<path fill="none" stroke="midnightblue" d="M1156.48,-1003.3C1151.74,-993.435 1147.2,-983.97 1143.18,-975.608"/>
<polygon fill="none" stroke="midnightblue" points="1153.39,-1004.94 1160.87,-1012.44 1159.7,-1001.91 1153.39,-1004.94"/>
</g>
<!-- Node22 -->
<g id="node43" class="node"><title>Node22</title>
<a xlink:href="../../d2/d19/classpocketmine_1_1entity_1_1_slime.html" target="_top" xlink:title="{pocketmine\\entity\\Slime\n||}">
<polygon fill="white" stroke="black" points="1213,-912.5 1213,-975.5 1335,-975.5 1335,-912.5 1213,-912.5"/>
<text text-anchor="middle" x="1274" y="-962.5" font-family="Helvetica,sans-Serif" font-size="10.00">pocketmine\entity\Slime</text>
<polyline fill="none" stroke="black" points="1213,-954.5 1335,-954.5 "/>
<text text-anchor="middle" x="1274" y="-941.5" font-family="Helvetica,sans-Serif" font-size="10.00"> </text>
<polyline fill="none" stroke="black" points="1213,-933.5 1335,-933.5 "/>
<text text-anchor="middle" x="1274" y="-920.5" font-family="Helvetica,sans-Serif" font-size="10.00"> </text>
</a>
</g>
<!-- Node2&#45;&gt;Node22 -->
<g id="edge42" class="edge"><title>Node2&#45;&gt;Node22</title>
<path fill="none" stroke="midnightblue" d="M1245.52,-1003.3C1250.26,-993.435 1254.8,-983.97 1258.82,-975.608"/>
<polygon fill="none" stroke="midnightblue" points="1242.3,-1001.91 1241.13,-1012.44 1248.61,-1004.94 1242.3,-1001.91"/>
</g>
<!-- Node4 -->
<g id="node7" class="node"><title>Node4</title>
<a xlink:href="../../d9/d0a/classpocketmine_1_1entity_1_1_animal.html" target="_top" xlink:title="{pocketmine\\entity\\Animal\n||}">
<polygon fill="white" stroke="black" points="417.5,-721.5 417.5,-784.5 544.5,-784.5 544.5,-721.5 417.5,-721.5"/>
<text text-anchor="middle" x="481" y="-771.5" font-family="Helvetica,sans-Serif" font-size="10.00">pocketmine\entity\Animal</text>
<polyline fill="none" stroke="black" points="417.5,-763.5 544.5,-763.5 "/>
<text text-anchor="middle" x="481" y="-750.5" font-family="Helvetica,sans-Serif" font-size="10.00"> </text>
<polyline fill="none" stroke="black" points="417.5,-742.5 544.5,-742.5 "/>
<text text-anchor="middle" x="481" y="-729.5" font-family="Helvetica,sans-Serif" font-size="10.00"> </text>
</a>
</g>
<!-- Node3&#45;&gt;Node4 -->
<g id="edge6" class="edge"><title>Node3&#45;&gt;Node4</title>
<path fill="none" stroke="midnightblue" d="M1051.08,-921.293C922.123,-883.223 664.692,-807.227 544.97,-771.884"/>
<polygon fill="none" stroke="midnightblue" points="1050.31,-924.715 1060.89,-924.19 1052.29,-918.002 1050.31,-924.715"/>
</g>
<!-- Node11 -->
<g id="node21" class="node"><title>Node11</title>
<a xlink:href="../../d4/ddf/classpocketmine_1_1entity_1_1_human.html" target="_top" xlink:title="{pocketmine\\entity\\Human\n|+ $width\l+ $length\l+ $height\l# $nameTag\l# $inventory\l|+ getInventory()\l+ getName()\l+ getDrops()\l+ saveNBT()\l+ spawnTo()\l+ despawnFrom()\l+ getData()\l# initEntity()\l}">
<polygon fill="white" stroke="black" points="934,-650 934,-856 1062,-856 1062,-650 934,-650"/>
<text text-anchor="middle" x="998" y="-843" font-family="Helvetica,sans-Serif" font-size="10.00">pocketmine\entity\Human</text>
<polyline fill="none" stroke="black" points="934,-835 1062,-835 "/>
<text text-anchor="start" x="942" y="-822" font-family="Helvetica,sans-Serif" font-size="10.00">+ $width</text>
<text text-anchor="start" x="942" y="-809" font-family="Helvetica,sans-Serif" font-size="10.00">+ $length</text>
<text text-anchor="start" x="942" y="-796" font-family="Helvetica,sans-Serif" font-size="10.00">+ $height</text>
<text text-anchor="start" x="942" y="-783" font-family="Helvetica,sans-Serif" font-size="10.00"># $nameTag</text>
<text text-anchor="start" x="942" y="-770" font-family="Helvetica,sans-Serif" font-size="10.00"># $inventory</text>
<polyline fill="none" stroke="black" points="934,-762 1062,-762 "/>
<text text-anchor="start" x="942" y="-749" font-family="Helvetica,sans-Serif" font-size="10.00">+ getInventory()</text>
<text text-anchor="start" x="942" y="-736" font-family="Helvetica,sans-Serif" font-size="10.00">+ getName()</text>
<text text-anchor="start" x="942" y="-723" font-family="Helvetica,sans-Serif" font-size="10.00">+ getDrops()</text>
<text text-anchor="start" x="942" y="-710" font-family="Helvetica,sans-Serif" font-size="10.00">+ saveNBT()</text>
<text text-anchor="start" x="942" y="-697" font-family="Helvetica,sans-Serif" font-size="10.00">+ spawnTo()</text>
<text text-anchor="start" x="942" y="-684" font-family="Helvetica,sans-Serif" font-size="10.00">+ despawnFrom()</text>
<text text-anchor="start" x="942" y="-671" font-family="Helvetica,sans-Serif" font-size="10.00">+ getData()</text>
<text text-anchor="start" x="942" y="-658" font-family="Helvetica,sans-Serif" font-size="10.00"># initEntity()</text>
</a>
</g>
<!-- Node3&#45;&gt;Node11 -->
<g id="edge20" class="edge"><title>Node3&#45;&gt;Node11</title>
<path fill="none" stroke="midnightblue" d="M1100.83,-904.086C1089.5,-887.435 1075.81,-867.324 1062.17,-847.285"/>
<polygon fill="none" stroke="midnightblue" points="1098.01,-906.163 1106.53,-912.46 1103.8,-902.224 1098.01,-906.163"/>
</g>
<!-- Node13 -->
<g id="node25" class="node"><title>Node13</title>
<a xlink:href="../../d5/d2b/classpocketmine_1_1entity_1_1_monster.html" target="_top" xlink:title="{pocketmine\\entity\\Monster\n||}">
<polygon fill="white" stroke="black" points="1192,-721.5 1192,-784.5 1324,-784.5 1324,-721.5 1192,-721.5"/>
<text text-anchor="middle" x="1258" y="-771.5" font-family="Helvetica,sans-Serif" font-size="10.00">pocketmine\entity\Monster</text>
<polyline fill="none" stroke="black" points="1192,-763.5 1324,-763.5 "/>
<text text-anchor="middle" x="1258" y="-750.5" font-family="Helvetica,sans-Serif" font-size="10.00"> </text>
<polyline fill="none" stroke="black" points="1192,-742.5 1324,-742.5 "/>
<text text-anchor="middle" x="1258" y="-729.5" font-family="Helvetica,sans-Serif" font-size="10.00"> </text>
</a>
</g>
<!-- Node3&#45;&gt;Node13 -->
<g id="edge24" class="edge"><title>Node3&#45;&gt;Node13</title>
<path fill="none" stroke="midnightblue" d="M1155.37,-903.789C1179.53,-868.285 1214.28,-817.229 1236.5,-784.587"/>
<polygon fill="none" stroke="midnightblue" points="1152.2,-902.224 1149.47,-912.46 1157.99,-906.163 1152.2,-902.224"/>
</g>
<!-- Node21 -->
<g id="node41" class="node"><title>Node21</title>
<a xlink:href="../../d9/d6b/classpocketmine_1_1entity_1_1_villager.html" target="_top" xlink:title="{pocketmine\\entity\\Villager\n|+ PROFESSION_FARMER\l+ PROFESSION_LIBRARIAN\l+ PROFESSION_PRIEST\l+ PROFESSION_BLACKSMITH\l+ PROFESSION_BUTCHER\l+ PROFESSION_GENERIC\l+ NETWORK_ID\l+ $width\l+ $length\l+ $height\l|+ getName()\l+ spawnTo()\l+ getData()\l+ setProfession()\l+ getProfession()\l# initEntity()\l}">
<polygon fill="white" stroke="black" points="1341.5,-630.5 1341.5,-875.5 1502.5,-875.5 1502.5,-630.5 1341.5,-630.5"/>
<text text-anchor="middle" x="1422" y="-862.5" font-family="Helvetica,sans-Serif" font-size="10.00">pocketmine\entity\Villager</text>
<polyline fill="none" stroke="black" points="1341.5,-854.5 1502.5,-854.5 "/>
<text text-anchor="start" x="1349.5" y="-841.5" font-family="Helvetica,sans-Serif" font-size="10.00">+ PROFESSION_FARMER</text>
<text text-anchor="start" x="1349.5" y="-828.5" font-family="Helvetica,sans-Serif" font-size="10.00">+ PROFESSION_LIBRARIAN</text>
<text text-anchor="start" x="1349.5" y="-815.5" font-family="Helvetica,sans-Serif" font-size="10.00">+ PROFESSION_PRIEST</text>
<text text-anchor="start" x="1349.5" y="-802.5" font-family="Helvetica,sans-Serif" font-size="10.00">+ PROFESSION_BLACKSMITH</text>
<text text-anchor="start" x="1349.5" y="-789.5" font-family="Helvetica,sans-Serif" font-size="10.00">+ PROFESSION_BUTCHER</text>
<text text-anchor="start" x="1349.5" y="-776.5" font-family="Helvetica,sans-Serif" font-size="10.00">+ PROFESSION_GENERIC</text>
<text text-anchor="start" x="1349.5" y="-763.5" font-family="Helvetica,sans-Serif" font-size="10.00">+ NETWORK_ID</text>
<text text-anchor="start" x="1349.5" y="-750.5" font-family="Helvetica,sans-Serif" font-size="10.00">+ $width</text>
<text text-anchor="start" x="1349.5" y="-737.5" font-family="Helvetica,sans-Serif" font-size="10.00">+ $length</text>
<text text-anchor="start" x="1349.5" y="-724.5" font-family="Helvetica,sans-Serif" font-size="10.00">+ $height</text>
<polyline fill="none" stroke="black" points="1341.5,-716.5 1502.5,-716.5 "/>
<text text-anchor="start" x="1349.5" y="-703.5" font-family="Helvetica,sans-Serif" font-size="10.00">+ getName()</text>
<text text-anchor="start" x="1349.5" y="-690.5" font-family="Helvetica,sans-Serif" font-size="10.00">+ spawnTo()</text>
<text text-anchor="start" x="1349.5" y="-677.5" font-family="Helvetica,sans-Serif" font-size="10.00">+ getData()</text>
<text text-anchor="start" x="1349.5" y="-664.5" font-family="Helvetica,sans-Serif" font-size="10.00">+ setProfession()</text>
<text text-anchor="start" x="1349.5" y="-651.5" font-family="Helvetica,sans-Serif" font-size="10.00">+ getProfession()</text>
<text text-anchor="start" x="1349.5" y="-638.5" font-family="Helvetica,sans-Serif" font-size="10.00"># initEntity()</text>
</a>
</g>
<!-- Node3&#45;&gt;Node21 -->
<g id="edge40" class="edge"><title>Node3&#45;&gt;Node21</title>
<path fill="none" stroke="midnightblue" d="M1204.94,-911.953C1262.7,-894.066 1286.63,-908.288 1333,-876 1335.81,-874.042 1338.57,-871.965 1341.27,-869.788"/>
<polygon fill="none" stroke="midnightblue" points="1203.77,-908.654 1195.37,-915.112 1205.97,-915.301 1203.77,-908.654"/>
</g>
<!-- Node5 -->
<g id="node9" class="node"><title>Node5</title>
<a xlink:href="../../d9/d0b/classpocketmine_1_1entity_1_1_chicken.html" target="_top" xlink:title="{pocketmine\\entity\\Chicken\n||}">
<polygon fill="white" stroke="black" points="-0.5,-315.5 -0.5,-378.5 132.5,-378.5 132.5,-315.5 -0.5,-315.5"/>
<text text-anchor="middle" x="66" y="-365.5" font-family="Helvetica,sans-Serif" font-size="10.00">pocketmine\entity\Chicken</text>
<polyline fill="none" stroke="black" points="-0.5,-357.5 132.5,-357.5 "/>
<text text-anchor="middle" x="66" y="-344.5" font-family="Helvetica,sans-Serif" font-size="10.00"> </text>
<polyline fill="none" stroke="black" points="-0.5,-336.5 132.5,-336.5 "/>
<text text-anchor="middle" x="66" y="-323.5" font-family="Helvetica,sans-Serif" font-size="10.00"> </text>
</a>
</g>
<!-- Node4&#45;&gt;Node5 -->
<g id="edge8" class="edge"><title>Node4&#45;&gt;Node5</title>
<path fill="none" stroke="midnightblue" d="M407.116,-737.228C329.984,-716.995 210.74,-674.471 141,-594 86.5548,-531.177 71.6332,-429.709 67.5438,-378.587"/>
<polygon fill="none" stroke="midnightblue" points="406.687,-740.731 417.242,-739.82 408.423,-733.949 406.687,-740.731"/>
</g>
<!-- Node6 -->
<g id="node11" class="node"><title>Node6</title>
<a xlink:href="../../d4/d80/classpocketmine_1_1entity_1_1_cow.html" target="_top" xlink:title="{pocketmine\\entity\\Cow\n||}">
<polygon fill="white" stroke="black" points="149.5,-315.5 149.5,-378.5 266.5,-378.5 266.5,-315.5 149.5,-315.5"/>
<text text-anchor="middle" x="208" y="-365.5" font-family="Helvetica,sans-Serif" font-size="10.00">pocketmine\entity\Cow</text>
<polyline fill="none" stroke="black" points="149.5,-357.5 266.5,-357.5 "/>
<text text-anchor="middle" x="208" y="-344.5" font-family="Helvetica,sans-Serif" font-size="10.00"> </text>
<polyline fill="none" stroke="black" points="149.5,-336.5 266.5,-336.5 "/>
<text text-anchor="middle" x="208" y="-323.5" font-family="Helvetica,sans-Serif" font-size="10.00"> </text>
</a>
</g>
<!-- Node4&#45;&gt;Node6 -->
<g id="edge10" class="edge"><title>Node4&#45;&gt;Node6</title>
<path fill="none" stroke="midnightblue" d="M412.688,-716.18C367.27,-688.336 309.787,-646.048 275,-594 229.695,-526.214 214.915,-428.698 210.176,-378.9"/>
<polygon fill="none" stroke="midnightblue" points="410.939,-719.213 421.309,-721.382 414.556,-713.219 410.939,-719.213"/>
</g>
<!-- Node7 -->
<g id="node13" class="node"><title>Node7</title>
<a xlink:href="../../d3/d91/classpocketmine_1_1entity_1_1_ocelot.html" target="_top" xlink:title="{pocketmine\\entity\\Ocelot\n||}">
<polygon fill="white" stroke="black" points="283.5,-315.5 283.5,-378.5 408.5,-378.5 408.5,-315.5 283.5,-315.5"/>
<text text-anchor="middle" x="346" y="-365.5" font-family="Helvetica,sans-Serif" font-size="10.00">pocketmine\entity\Ocelot</text>
<polyline fill="none" stroke="black" points="283.5,-357.5 408.5,-357.5 "/>
<text text-anchor="middle" x="346" y="-344.5" font-family="Helvetica,sans-Serif" font-size="10.00"> </text>
<polyline fill="none" stroke="black" points="283.5,-336.5 408.5,-336.5 "/>
<text text-anchor="middle" x="346" y="-323.5" font-family="Helvetica,sans-Serif" font-size="10.00"> </text>
</a>
</g>
<!-- Node4&#45;&gt;Node7 -->
<g id="edge12" class="edge"><title>Node4&#45;&gt;Node7</title>
<path fill="none" stroke="midnightblue" d="M463.126,-711.958C449.586,-680.107 430.99,-634.673 417,-594 390.732,-517.632 366.116,-425.78 353.947,-378.514"/>
<polygon fill="none" stroke="midnightblue" points="460.007,-713.566 467.155,-721.386 466.444,-710.815 460.007,-713.566"/>
</g>
<!-- Node8 -->
<g id="node15" class="node"><title>Node8</title>
<a xlink:href="../../d8/d3e/classpocketmine_1_1entity_1_1_pig.html" target="_top" xlink:title="{pocketmine\\entity\\Pig\n||}">
<polygon fill="white" stroke="black" points="425.5,-315.5 425.5,-378.5 536.5,-378.5 536.5,-315.5 425.5,-315.5"/>
<text text-anchor="middle" x="481" y="-365.5" font-family="Helvetica,sans-Serif" font-size="10.00">pocketmine\entity\Pig</text>
<polyline fill="none" stroke="black" points="425.5,-357.5 536.5,-357.5 "/>
<text text-anchor="middle" x="481" y="-344.5" font-family="Helvetica,sans-Serif" font-size="10.00"> </text>
<polyline fill="none" stroke="black" points="425.5,-336.5 536.5,-336.5 "/>
<text text-anchor="middle" x="481" y="-323.5" font-family="Helvetica,sans-Serif" font-size="10.00"> </text>
</a>
</g>
<!-- Node4&#45;&gt;Node8 -->
<g id="edge14" class="edge"><title>Node4&#45;&gt;Node8</title>
<path fill="none" stroke="midnightblue" d="M481,-711.094C481,-629.498 481,-450.962 481,-378.5"/>
<polygon fill="none" stroke="midnightblue" points="477.5,-711.48 481,-721.48 484.5,-711.48 477.5,-711.48"/>
</g>
<!-- Node9 -->
<g id="node17" class="node"><title>Node9</title>
<a xlink:href="../../d4/d1e/classpocketmine_1_1entity_1_1_sheep.html" target="_top" xlink:title="{pocketmine\\entity\\Sheep\n||}">
<polygon fill="white" stroke="black" points="553.5,-315.5 553.5,-378.5 678.5,-378.5 678.5,-315.5 553.5,-315.5"/>
<text text-anchor="middle" x="616" y="-365.5" font-family="Helvetica,sans-Serif" font-size="10.00">pocketmine\entity\Sheep</text>
<polyline fill="none" stroke="black" points="553.5,-357.5 678.5,-357.5 "/>
<text text-anchor="middle" x="616" y="-344.5" font-family="Helvetica,sans-Serif" font-size="10.00"> </text>
<polyline fill="none" stroke="black" points="553.5,-336.5 678.5,-336.5 "/>
<text text-anchor="middle" x="616" y="-323.5" font-family="Helvetica,sans-Serif" font-size="10.00"> </text>
</a>
</g>
<!-- Node4&#45;&gt;Node9 -->
<g id="edge16" class="edge"><title>Node4&#45;&gt;Node9</title>
<path fill="none" stroke="midnightblue" d="M498.874,-711.958C512.414,-680.107 531.01,-634.673 545,-594 571.268,-517.632 595.884,-425.78 608.053,-378.514"/>
<polygon fill="none" stroke="midnightblue" points="495.556,-710.815 494.845,-721.386 501.993,-713.566 495.556,-710.815"/>
</g>
<!-- Node10 -->
<g id="node19" class="node"><title>Node10</title>
<a xlink:href="../../d1/d54/classpocketmine_1_1entity_1_1_wolf.html" target="_top" xlink:title="{pocketmine\\entity\\Wolf\n||}">
<polygon fill="white" stroke="black" points="695.5,-315.5 695.5,-378.5 812.5,-378.5 812.5,-315.5 695.5,-315.5"/>
<text text-anchor="middle" x="754" y="-365.5" font-family="Helvetica,sans-Serif" font-size="10.00">pocketmine\entity\Wolf</text>
<polyline fill="none" stroke="black" points="695.5,-357.5 812.5,-357.5 "/>
<text text-anchor="middle" x="754" y="-344.5" font-family="Helvetica,sans-Serif" font-size="10.00"> </text>
<polyline fill="none" stroke="black" points="695.5,-336.5 812.5,-336.5 "/>
<text text-anchor="middle" x="754" y="-323.5" font-family="Helvetica,sans-Serif" font-size="10.00"> </text>
</a>
</g>
<!-- Node4&#45;&gt;Node10 -->
<g id="edge18" class="edge"><title>Node4&#45;&gt;Node10</title>
<path fill="none" stroke="midnightblue" d="M549.312,-716.18C594.73,-688.336 652.213,-646.048 687,-594 732.305,-526.214 747.085,-428.698 751.824,-378.9"/>
<polygon fill="none" stroke="midnightblue" points="547.444,-713.219 540.691,-721.382 551.061,-719.213 547.444,-713.219"/>
</g>
<!-- Node12 -->
<g id="node23" class="node"><title>Node12</title>
<a xlink:href="../../df/d2c/classpocketmine_1_1_player.html" target="_top" xlink:title="{pocketmine\\Player\n|+ SURVIVAL\l+ CREATIVE\l+ ADVENTURE\l+ SPECTATOR\l+ VIEW\l+ SURVIVAL_SLOTS\l+ CREATIVE_SLOTS\l+ $spawned\l+ $loggedIn\l+ $gamemode\land 7 more...\l# $interface\l# $windowCnt\l# $windows\l# $windowIndex\l# $sendIndex\l# $currentTransaction\l# $isCrafting\l# $lastMovement\l# $forceMovement\l# $connected\land 14 more...\l|+ isBanned()\l+ setBanned()\l+ isWhitelisted()\l+ setWhitelisted()\l+ getPlayer()\l+ getFirstPlayed()\l+ getLastPlayed()\l+ hasPlayedBefore()\l+ spawnTo()\l+ despawnFrom()\land 60 more...\l# initEntity()\l# getCreativeBlock()\l}">
<polygon fill="white" stroke="black" points="830,-101 830,-593 944,-593 944,-101 830,-101"/>
<text text-anchor="middle" x="887" y="-580" font-family="Helvetica,sans-Serif" font-size="10.00">pocketmine\Player</text>
<polyline fill="none" stroke="black" points="830,-572 944,-572 "/>
<text text-anchor="start" x="838" y="-559" font-family="Helvetica,sans-Serif" font-size="10.00">+ SURVIVAL</text>
<text text-anchor="start" x="838" y="-546" font-family="Helvetica,sans-Serif" font-size="10.00">+ CREATIVE</text>
<text text-anchor="start" x="838" y="-533" font-family="Helvetica,sans-Serif" font-size="10.00">+ ADVENTURE</text>
<text text-anchor="start" x="838" y="-520" font-family="Helvetica,sans-Serif" font-size="10.00">+ SPECTATOR</text>
<text text-anchor="start" x="838" y="-507" font-family="Helvetica,sans-Serif" font-size="10.00">+ VIEW</text>
<text text-anchor="start" x="838" y="-494" font-family="Helvetica,sans-Serif" font-size="10.00">+ SURVIVAL_SLOTS</text>
<text text-anchor="start" x="838" y="-481" font-family="Helvetica,sans-Serif" font-size="10.00">+ CREATIVE_SLOTS</text>
<text text-anchor="start" x="838" y="-468" font-family="Helvetica,sans-Serif" font-size="10.00">+ $spawned</text>
<text text-anchor="start" x="838" y="-455" font-family="Helvetica,sans-Serif" font-size="10.00">+ $loggedIn</text>
<text text-anchor="start" x="838" y="-442" font-family="Helvetica,sans-Serif" font-size="10.00">+ $gamemode</text>
<text text-anchor="start" x="838" y="-429" font-family="Helvetica,sans-Serif" font-size="10.00">and 7 more...</text>
<text text-anchor="start" x="838" y="-416" font-family="Helvetica,sans-Serif" font-size="10.00"># $interface</text>
<text text-anchor="start" x="838" y="-403" font-family="Helvetica,sans-Serif" font-size="10.00"># $windowCnt</text>
<text text-anchor="start" x="838" y="-390" font-family="Helvetica,sans-Serif" font-size="10.00"># $windows</text>
<text text-anchor="start" x="838" y="-377" font-family="Helvetica,sans-Serif" font-size="10.00"># $windowIndex</text>
<text text-anchor="start" x="838" y="-364" font-family="Helvetica,sans-Serif" font-size="10.00"># $sendIndex</text>
<text text-anchor="start" x="838" y="-351" font-family="Helvetica,sans-Serif" font-size="10.00"># $currentTransaction</text>
<text text-anchor="start" x="838" y="-338" font-family="Helvetica,sans-Serif" font-size="10.00"># $isCrafting</text>
<text text-anchor="start" x="838" y="-325" font-family="Helvetica,sans-Serif" font-size="10.00"># $lastMovement</text>
<text text-anchor="start" x="838" y="-312" font-family="Helvetica,sans-Serif" font-size="10.00"># $forceMovement</text>
<text text-anchor="start" x="838" y="-299" font-family="Helvetica,sans-Serif" font-size="10.00"># $connected</text>
<text text-anchor="start" x="838" y="-286" font-family="Helvetica,sans-Serif" font-size="10.00">and 14 more...</text>
<polyline fill="none" stroke="black" points="830,-278 944,-278 "/>
<text text-anchor="start" x="838" y="-265" font-family="Helvetica,sans-Serif" font-size="10.00">+ isBanned()</text>
<text text-anchor="start" x="838" y="-252" font-family="Helvetica,sans-Serif" font-size="10.00">+ setBanned()</text>
<text text-anchor="start" x="838" y="-239" font-family="Helvetica,sans-Serif" font-size="10.00">+ isWhitelisted()</text>
<text text-anchor="start" x="838" y="-226" font-family="Helvetica,sans-Serif" font-size="10.00">+ setWhitelisted()</text>
<text text-anchor="start" x="838" y="-213" font-family="Helvetica,sans-Serif" font-size="10.00">+ getPlayer()</text>
<text text-anchor="start" x="838" y="-200" font-family="Helvetica,sans-Serif" font-size="10.00">+ getFirstPlayed()</text>
<text text-anchor="start" x="838" y="-187" font-family="Helvetica,sans-Serif" font-size="10.00">+ getLastPlayed()</text>
<text text-anchor="start" x="838" y="-174" font-family="Helvetica,sans-Serif" font-size="10.00">+ hasPlayedBefore()</text>
<text text-anchor="start" x="838" y="-161" font-family="Helvetica,sans-Serif" font-size="10.00">+ spawnTo()</text>
<text text-anchor="start" x="838" y="-148" font-family="Helvetica,sans-Serif" font-size="10.00">+ despawnFrom()</text>
<text text-anchor="start" x="838" y="-135" font-family="Helvetica,sans-Serif" font-size="10.00">and 60 more...</text>
<text text-anchor="start" x="838" y="-122" font-family="Helvetica,sans-Serif" font-size="10.00"># initEntity()</text>
<text text-anchor="start" x="838" y="-109" font-family="Helvetica,sans-Serif" font-size="10.00"># getCreativeBlock()</text>
</a>
</g>
<!-- Node11&#45;&gt;Node12 -->
<g id="edge22" class="edge"><title>Node11&#45;&gt;Node12</title>
<path fill="none" stroke="midnightblue" d="M965.896,-640.348C961.526,-624.788 957.128,-609.004 953,-594 950.057,-583.301 947.059,-572.336 944.045,-561.259"/>
<polygon fill="none" stroke="midnightblue" points="962.533,-641.319 968.61,-649.998 969.272,-639.424 962.533,-641.319"/>
</g>
<!-- Node14 -->
<g id="node27" class="node"><title>Node14</title>
<a xlink:href="../../de/d3d/classpocketmine_1_1entity_1_1_creeper.html" target="_top" xlink:title="{pocketmine\\entity\\Creeper\n||}">
<polygon fill="white" stroke="black" points="961.5,-315.5 961.5,-378.5 1092.5,-378.5 1092.5,-315.5 961.5,-315.5"/>
<text text-anchor="middle" x="1027" y="-365.5" font-family="Helvetica,sans-Serif" font-size="10.00">pocketmine\entity\Creeper</text>
<polyline fill="none" stroke="black" points="961.5,-357.5 1092.5,-357.5 "/>
<text text-anchor="middle" x="1027" y="-344.5" font-family="Helvetica,sans-Serif" font-size="10.00"> </text>
<polyline fill="none" stroke="black" points="961.5,-336.5 1092.5,-336.5 "/>
<text text-anchor="middle" x="1027" y="-323.5" font-family="Helvetica,sans-Serif" font-size="10.00"> </text>
</a>
</g>
<!-- Node13&#45;&gt;Node14 -->
<g id="edge26" class="edge"><title>Node13&#45;&gt;Node14</title>
<path fill="none" stroke="midnightblue" d="M1209.22,-714.833C1174.48,-685.274 1129.14,-641.468 1101,-594 1059.23,-523.53 1039.36,-427.593 1031.43,-378.609"/>
<polygon fill="none" stroke="midnightblue" points="1207,-717.539 1216.9,-721.291 1211.5,-712.179 1207,-717.539"/>
</g>
<!-- Node15 -->
<g id="node29" class="node"><title>Node15</title>
<a xlink:href="../../d4/d3e/classpocketmine_1_1entity_1_1_enderman.html" target="_top" xlink:title="{pocketmine\\entity\\Enderman\n||}">
<polygon fill="white" stroke="black" points="1109.5,-315.5 1109.5,-378.5 1250.5,-378.5 1250.5,-315.5 1109.5,-315.5"/>
<text text-anchor="middle" x="1180" y="-365.5" font-family="Helvetica,sans-Serif" font-size="10.00">pocketmine\entity\Enderman</text>
<polyline fill="none" stroke="black" points="1109.5,-357.5 1250.5,-357.5 "/>
<text text-anchor="middle" x="1180" y="-344.5" font-family="Helvetica,sans-Serif" font-size="10.00"> </text>
<polyline fill="none" stroke="black" points="1109.5,-336.5 1250.5,-336.5 "/>
<text text-anchor="middle" x="1180" y="-323.5" font-family="Helvetica,sans-Serif" font-size="10.00"> </text>
</a>
</g>
<!-- Node13&#45;&gt;Node15 -->
<g id="edge28" class="edge"><title>Node13&#45;&gt;Node15</title>
<path fill="none" stroke="midnightblue" d="M1250.04,-711.592C1234.41,-630.228 1200,-451.11 1186.05,-378.5"/>
<polygon fill="none" stroke="midnightblue" points="1246.62,-712.32 1251.94,-721.48 1253.49,-710.999 1246.62,-712.32"/>
</g>
<!-- Node16 -->
<g id="node31" class="node"><title>Node16</title>
<a xlink:href="../../d8/d41/classpocketmine_1_1entity_1_1_silverfish.html" target="_top" xlink:title="{pocketmine\\entity\\Silverfish\n||}">
<polygon fill="white" stroke="black" points="1267.5,-315.5 1267.5,-378.5 1404.5,-378.5 1404.5,-315.5 1267.5,-315.5"/>
<text text-anchor="middle" x="1336" y="-365.5" font-family="Helvetica,sans-Serif" font-size="10.00">pocketmine\entity\Silverfish</text>
<polyline fill="none" stroke="black" points="1267.5,-357.5 1404.5,-357.5 "/>
<text text-anchor="middle" x="1336" y="-344.5" font-family="Helvetica,sans-Serif" font-size="10.00"> </text>
<polyline fill="none" stroke="black" points="1267.5,-336.5 1404.5,-336.5 "/>
<text text-anchor="middle" x="1336" y="-323.5" font-family="Helvetica,sans-Serif" font-size="10.00"> </text>
</a>
</g>
<!-- Node13&#45;&gt;Node16 -->
<g id="edge30" class="edge"><title>Node13&#45;&gt;Node16</title>
<path fill="none" stroke="midnightblue" d="M1265.96,-711.592C1281.59,-630.228 1316,-451.11 1329.95,-378.5"/>
<polygon fill="none" stroke="midnightblue" points="1262.51,-710.999 1264.06,-721.48 1269.38,-712.32 1262.51,-710.999"/>
</g>
<!-- Node17 -->
<g id="node33" class="node"><title>Node17</title>
<a xlink:href="../../d7/d19/classpocketmine_1_1entity_1_1_skeleton.html" target="_top" xlink:title="{pocketmine\\entity\\Skeleton\n||}">
<polygon fill="white" stroke="black" points="1421.5,-315.5 1421.5,-378.5 1556.5,-378.5 1556.5,-315.5 1421.5,-315.5"/>
<text text-anchor="middle" x="1489" y="-365.5" font-family="Helvetica,sans-Serif" font-size="10.00">pocketmine\entity\Skeleton</text>
<polyline fill="none" stroke="black" points="1421.5,-357.5 1556.5,-357.5 "/>
<text text-anchor="middle" x="1489" y="-344.5" font-family="Helvetica,sans-Serif" font-size="10.00"> </text>
<polyline fill="none" stroke="black" points="1421.5,-336.5 1556.5,-336.5 "/>
<text text-anchor="middle" x="1489" y="-323.5" font-family="Helvetica,sans-Serif" font-size="10.00"> </text>
</a>
</g>
<!-- Node13&#45;&gt;Node17 -->
<g id="edge32" class="edge"><title>Node13&#45;&gt;Node17</title>
<path fill="none" stroke="midnightblue" d="M1275.23,-711.99C1287.97,-685.726 1307.53,-652.477 1333,-630 1362.23,-604.202 1387.2,-623.23 1413,-594 1468.08,-531.607 1483.24,-429.946 1487.41,-378.684"/>
<polygon fill="none" stroke="midnightblue" points="1271.93,-710.778 1270.84,-721.317 1278.26,-713.757 1271.93,-710.778"/>
</g>
<!-- Node18 -->
<g id="node35" class="node"><title>Node18</title>
<a xlink:href="../../d8/d2d/classpocketmine_1_1entity_1_1_spider.html" target="_top" xlink:title="{pocketmine\\entity\\Spider\n||}">
<polygon fill="white" stroke="black" points="1573.5,-315.5 1573.5,-378.5 1698.5,-378.5 1698.5,-315.5 1573.5,-315.5"/>
<text text-anchor="middle" x="1636" y="-365.5" font-family="Helvetica,sans-Serif" font-size="10.00">pocketmine\entity\Spider</text>
<polyline fill="none" stroke="black" points="1573.5,-357.5 1698.5,-357.5 "/>
<text text-anchor="middle" x="1636" y="-344.5" font-family="Helvetica,sans-Serif" font-size="10.00"> </text>
<polyline fill="none" stroke="black" points="1573.5,-336.5 1698.5,-336.5 "/>
<text text-anchor="middle" x="1636" y="-323.5" font-family="Helvetica,sans-Serif" font-size="10.00"> </text>
</a>
</g>
<!-- Node13&#45;&gt;Node18 -->
<g id="edge34" class="edge"><title>Node13&#45;&gt;Node18</title>
<path fill="none" stroke="midnightblue" d="M1272.42,-711.828C1284.3,-684.177 1303.97,-649.377 1333,-630 1419.79,-572.069 1486.72,-662.993 1565,-594 1627.76,-538.684 1636.67,-431.896 1636.95,-378.709"/>
<polygon fill="none" stroke="midnightblue" points="1269.1,-710.694 1268.54,-721.274 1275.58,-713.355 1269.1,-710.694"/>
</g>
<!-- Node19 -->
<g id="node37" class="node"><title>Node19</title>
<a xlink:href="../../d0/da7/classpocketmine_1_1entity_1_1_zombie.html" target="_top" xlink:title="{pocketmine\\entity\\Zombie\n|+ NETWORK_ID\l+ $width\l+ $length\l+ $height\l|+ getName()\l+ spawnTo()\l+ getData()\l+ getDrops()\l}">
<polygon fill="white" stroke="black" points="1715.5,-276.5 1715.5,-417.5 1844.5,-417.5 1844.5,-276.5 1715.5,-276.5"/>
<text text-anchor="middle" x="1780" y="-404.5" font-family="Helvetica,sans-Serif" font-size="10.00">pocketmine\entity\Zombie</text>
<polyline fill="none" stroke="black" points="1715.5,-396.5 1844.5,-396.5 "/>
<text text-anchor="start" x="1723.5" y="-383.5" font-family="Helvetica,sans-Serif" font-size="10.00">+ NETWORK_ID</text>
<text text-anchor="start" x="1723.5" y="-370.5" font-family="Helvetica,sans-Serif" font-size="10.00">+ $width</text>
<text text-anchor="start" x="1723.5" y="-357.5" font-family="Helvetica,sans-Serif" font-size="10.00">+ $length</text>
<text text-anchor="start" x="1723.5" y="-344.5" font-family="Helvetica,sans-Serif" font-size="10.00">+ $height</text>
<polyline fill="none" stroke="black" points="1715.5,-336.5 1844.5,-336.5 "/>
<text text-anchor="start" x="1723.5" y="-323.5" font-family="Helvetica,sans-Serif" font-size="10.00">+ getName()</text>
<text text-anchor="start" x="1723.5" y="-310.5" font-family="Helvetica,sans-Serif" font-size="10.00">+ spawnTo()</text>
<text text-anchor="start" x="1723.5" y="-297.5" font-family="Helvetica,sans-Serif" font-size="10.00">+ getData()</text>
<text text-anchor="start" x="1723.5" y="-284.5" font-family="Helvetica,sans-Serif" font-size="10.00">+ getDrops()</text>
</a>
</g>
<!-- Node13&#45;&gt;Node19 -->
<g id="edge36" class="edge"><title>Node13&#45;&gt;Node19</title>
<path fill="none" stroke="midnightblue" d="M1271.85,-711.837C1283.55,-683.852 1303.23,-648.646 1333,-630 1403.76,-585.677 1642.59,-647.128 1707,-594 1758.57,-551.463 1774.8,-474.372 1779.39,-417.591"/>
<polygon fill="none" stroke="midnightblue" points="1268.49,-710.81 1268.04,-721.395 1275,-713.401 1268.49,-710.81"/>
</g>
<!-- Node20 -->
<g id="node39" class="node"><title>Node20</title>
<a xlink:href="../../db/d86/classpocketmine_1_1entity_1_1_pig_zombie.html" target="_top" xlink:title="{pocketmine\\entity\\PigZombie\n||}">
<polygon fill="white" stroke="black" points="1708.5,-0.5 1708.5,-63.5 1851.5,-63.5 1851.5,-0.5 1708.5,-0.5"/>
<text text-anchor="middle" x="1780" y="-50.5" font-family="Helvetica,sans-Serif" font-size="10.00">pocketmine\entity\PigZombie</text>
<polyline fill="none" stroke="black" points="1708.5,-42.5 1851.5,-42.5 "/>
<text text-anchor="middle" x="1780" y="-29.5" font-family="Helvetica,sans-Serif" font-size="10.00"> </text>
<polyline fill="none" stroke="black" points="1708.5,-21.5 1851.5,-21.5 "/>
<text text-anchor="middle" x="1780" y="-8.5" font-family="Helvetica,sans-Serif" font-size="10.00"> </text>
</a>
</g>
<!-- Node19&#45;&gt;Node20 -->
<g id="edge38" class="edge"><title>Node19&#45;&gt;Node20</title>
<path fill="none" stroke="midnightblue" d="M1780,-265.944C1780,-200.042 1780,-110.568 1780,-63.6673"/>
<polygon fill="none" stroke="midnightblue" points="1776.5,-266.308 1780,-276.308 1783.5,-266.308 1776.5,-266.308"/>
</g>
</g>
</svg>
