<?xml version="1.0" encoding="UTF-8" standalone="no"?>
<!DOCTYPE svg PUBLIC "-//W3C//DTD SVG 1.1//EN"
 "http://www.w3.org/Graphics/SVG/1.1/DTD/svg11.dtd">
<!-- Generated by graphviz version 2.36.0 (20140111.2315)
 -->
<!-- Title: pocketmine\entity\Damageable Pages: 1 -->
<!--zoomable 1230 -->
<svg id="main" version="1.1" xmlns="http://www.w3.org/2000/svg" xmlns:xlink="http://www.w3.org/1999/xlink" xml:space="preserve" onload="init(evt)">
<style type="text/css"><![CDATA[
.edge:hover path { stroke: red; }
.edge:hover polygon { stroke: red; fill: red; }
]]></style>
<script type="text/javascript"><![CDATA[
var edges = document.getElementsByTagName('g');
if (edges && edges.length) {
  for (var i=0;i<edges.length;i++) {
    if (edges[i].id.substr(0,4)=='edge') {
      edges[i].setAttribute('class','edge');
    }
  }
}
]]></script>
        <defs>
                <circle id="rim" cx="0" cy="0" r="7"/>
                <circle id="rim2" cx="0" cy="0" r="3.5"/>
                <g id="zoomPlus">
                        <use xlink:href="#rim" fill="#404040">
                                <set attributeName="fill" to="#808080" begin="zoomplus.mouseover" end="zoomplus.mouseout"/>
                        </use>
                        <path d="M-4,0h8M0,-4v8" fill="none" stroke="white" stroke-width="1.5" pointer-events="none"/>
                </g>
                <g id="zoomMin">
                        <use xlink:href="#rim" fill="#404040">
                                <set attributeName="fill" to="#808080" begin="zoomminus.mouseover" end="zoomminus.mouseout"/>
                        </use>
                        <path d="M-4,0h8" fill="none" stroke="white" stroke-width="1.5" pointer-events="none"/>
                </g>
                <g id="dirArrow">
                        <path fill="none" stroke="white" stroke-width="1.5" d="M0,-3.0v7 M-2.5,-0.5L0,-3.0L2.5,-0.5"/>
                </g>
               <g id="resetDef">
                       <use xlink:href="#rim2" fill="#404040">
                               <set attributeName="fill" to="#808080" begin="reset.mouseover" end="reset.mouseout"/>
                       </use>
               </g>
        </defs>

<script type="text/javascript">
var viewWidth = 2021;
var viewHeight = 1230;
var sectionId = 'dynsection-0';
</script>
<script xlink:href="../../svgpan.js"/>
<svg id="graph" class="graph">
<g id="viewport">
<title>pocketmine\entity\Damageable</title>
<polygon fill="white" stroke="none" points="-4,4 -4,-1226 2017,-1226 2017,4 -4,4"/>
<!-- Node1 -->
<g id="node1" class="node"><title>Node1</title>
<polygon fill="#bfbfbf" stroke="black" points="1216.5,-1164.5 1216.5,-1221.5 1383.5,-1221.5 1383.5,-1164.5 1216.5,-1164.5"/>
<text text-anchor="middle" x="1300" y="-1209.5" font-family="Helvetica,sans-Serif" font-size="10.00">pocketmine\entity\Damageable</text>
<polyline fill="none" stroke="black" points="1216.5,-1202.5 1383.5,-1202.5 "/>
<text text-anchor="middle" x="1300" y="-1190.5" font-family="Helvetica,sans-Serif" font-size="10.00"> </text>
<polyline fill="none" stroke="black" points="1216.5,-1183.5 1383.5,-1183.5 "/>
<text text-anchor="middle" x="1300" y="-1171.5" font-family="Helvetica,sans-Serif" font-size="10.00"> </text>
</g>
<!-- Node2 -->
<g id="node2" class="node"><title>Node2</title>
<g id="a_node2"><a xlink:href="../../df/d0c/classpocketmine_1_1entity_1_1_living.html" target="_top" xlink:title="{pocketmine\\entity\\Living\n|# $gravity\l# $drag\l# $attackTime\l|+ saveNBT()\l+ getName()\l+ hasLineOfSight()\l+ attack()\l+ knockBack()\l+ heal()\l+ kill()\l+ entityBaseTick()\l+ getDrops()\l+ getLineOfSight()\l+ getTargetBlock()\l# initEntity()\l}">
<polygon fill="white" stroke="black" points="1233.5,-927 1233.5,-1127 1366.5,-1127 1366.5,-927 1233.5,-927"/>
<text text-anchor="middle" x="1300" y="-1115" font-family="Helvetica,sans-Serif" font-size="10.00">pocketmine\entity\Living</text>
<polyline fill="none" stroke="black" points="1233.5,-1108 1366.5,-1108 "/>
<text text-anchor="start" x="1241.5" y="-1096" font-family="Helvetica,sans-Serif" font-size="10.00"># $gravity</text>
<text text-anchor="start" x="1241.5" y="-1085" font-family="Helvetica,sans-Serif" font-size="10.00"># $drag</text>
<text text-anchor="start" x="1241.5" y="-1074" font-family="Helvetica,sans-Serif" font-size="10.00"># $attackTime</text>
<polyline fill="none" stroke="black" points="1233.5,-1067 1366.5,-1067 "/>
<text text-anchor="start" x="1241.5" y="-1055" font-family="Helvetica,sans-Serif" font-size="10.00">+ saveNBT()</text>
<text text-anchor="start" x="1241.5" y="-1044" font-family="Helvetica,sans-Serif" font-size="10.00">+ getName()</text>
<text text-anchor="start" x="1241.5" y="-1033" font-family="Helvetica,sans-Serif" font-size="10.00">+ hasLineOfSight()</text>
<text text-anchor="start" x="1241.5" y="-1022" font-family="Helvetica,sans-Serif" font-size="10.00">+ attack()</text>
<text text-anchor="start" x="1241.5" y="-1011" font-family="Helvetica,sans-Serif" font-size="10.00">+ knockBack()</text>
<text text-anchor="start" x="1241.5" y="-1000" font-family="Helvetica,sans-Serif" font-size="10.00">+ heal()</text>
<text text-anchor="start" x="1241.5" y="-989" font-family="Helvetica,sans-Serif" font-size="10.00">+ kill()</text>
<text text-anchor="start" x="1241.5" y="-978" font-family="Helvetica,sans-Serif" font-size="10.00">+ entityBaseTick()</text>
<text text-anchor="start" x="1241.5" y="-967" font-family="Helvetica,sans-Serif" font-size="10.00">+ getDrops()</text>
<text text-anchor="start" x="1241.5" y="-956" font-family="Helvetica,sans-Serif" font-size="10.00">+ getLineOfSight()</text>
<text text-anchor="start" x="1241.5" y="-945" font-family="Helvetica,sans-Serif" font-size="10.00">+ getTargetBlock()</text>
<text text-anchor="start" x="1241.5" y="-934" font-family="Helvetica,sans-Serif" font-size="10.00"># initEntity()</text>
</a>
</g>
</g>
<!-- Node1&#45;&gt;Node2 -->
<g id="edge1" class="edge"><title>Node1&#45;&gt;Node2</title>
<path fill="none" stroke="midnightblue" d="M1300,-1154.11C1300,-1145.76 1300,-1136.54 1300,-1127"/>
<polygon fill="none" stroke="midnightblue" points="1296.5,-1154.18 1300,-1164.18 1303.5,-1154.18 1296.5,-1154.18"/>
</g>
<!-- Node3 -->
<g id="node3" class="node"><title>Node3</title>
<g id="a_node3"><a xlink:href="../../d1/db7/classpocketmine_1_1entity_1_1_creature.html" target="_top" xlink:title="{pocketmine\\entity\\Creature\n||}">
<polygon fill="white" stroke="black" points="1147,-832.5 1147,-889.5 1295,-889.5 1295,-832.5 1147,-832.5"/>
<text text-anchor="middle" x="1221" y="-877.5" font-family="Helvetica,sans-Serif" font-size="10.00">pocketmine\entity\Creature</text>
<polyline fill="none" stroke="black" points="1147,-870.5 1295,-870.5 "/>
<text text-anchor="middle" x="1221" y="-858.5" font-family="Helvetica,sans-Serif" font-size="10.00"> </text>
<polyline fill="none" stroke="black" points="1147,-851.5 1295,-851.5 "/>
<text text-anchor="middle" x="1221" y="-839.5" font-family="Helvetica,sans-Serif" font-size="10.00"> </text>
</a>
</g>
</g>
<!-- Node2&#45;&gt;Node3 -->
<g id="edge2" class="edge"><title>Node2&#45;&gt;Node3</title>
<path fill="none" stroke="midnightblue" d="M1247.82,-917.676C1242.89,-907.433 1238.25,-897.803 1234.26,-889.525"/>
<polygon fill="none" stroke="midnightblue" points="1244.73,-919.327 1252.22,-926.817 1251.04,-916.289 1244.73,-919.327"/>
</g>
<!-- Node22 -->
<g id="node22" class="node"><title>Node22</title>
<g id="a_node22"><a xlink:href="../../d2/d19/classpocketmine_1_1entity_1_1_slime.html" target="_top" xlink:title="{pocketmine\\entity\\Slime\n||}">
<polygon fill="white" stroke="black" points="1313.5,-832.5 1313.5,-889.5 1446.5,-889.5 1446.5,-832.5 1313.5,-832.5"/>
<text text-anchor="middle" x="1380" y="-877.5" font-family="Helvetica,sans-Serif" font-size="10.00">pocketmine\entity\Slime</text>
<polyline fill="none" stroke="black" points="1313.5,-870.5 1446.5,-870.5 "/>
<text text-anchor="middle" x="1380" y="-858.5" font-family="Helvetica,sans-Serif" font-size="10.00"> </text>
<polyline fill="none" stroke="black" points="1313.5,-851.5 1446.5,-851.5 "/>
<text text-anchor="middle" x="1380" y="-839.5" font-family="Helvetica,sans-Serif" font-size="10.00"> </text>
</a>
</g>
</g>
<!-- Node2&#45;&gt;Node22 -->
<g id="edge21" class="edge"><title>Node2&#45;&gt;Node22</title>
<path fill="none" stroke="midnightblue" d="M1352.84,-917.676C1357.84,-907.433 1362.54,-897.803 1366.57,-889.525"/>
<polygon fill="none" stroke="midnightblue" points="1349.62,-916.295 1348.38,-926.817 1355.91,-919.364 1349.62,-916.295"/>
</g>
<!-- Node4 -->
<g id="node4" class="node"><title>Node4</title>
<g id="a_node4"><a xlink:href="../../d9/d0a/classpocketmine_1_1entity_1_1_animal.html" target="_top" xlink:title="{pocketmine\\entity\\Animal\n||}">
<polygon fill="white" stroke="black" points="449.5,-661.5 449.5,-718.5 588.5,-718.5 588.5,-661.5 449.5,-661.5"/>
<text text-anchor="middle" x="519" y="-706.5" font-family="Helvetica,sans-Serif" font-size="10.00">pocketmine\entity\Animal</text>
<polyline fill="none" stroke="black" points="449.5,-699.5 588.5,-699.5 "/>
<text text-anchor="middle" x="519" y="-687.5" font-family="Helvetica,sans-Serif" font-size="10.00"> </text>
<polyline fill="none" stroke="black" points="449.5,-680.5 588.5,-680.5 "/>
<text text-anchor="middle" x="519" y="-668.5" font-family="Helvetica,sans-Serif" font-size="10.00"> </text>
</a>
</g>
</g>
<!-- Node3&#45;&gt;Node4 -->
<g id="edge3" class="edge"><title>Node3&#45;&gt;Node4</title>
<path fill="none" stroke="midnightblue" d="M1137.03,-839.785C997.016,-806.078 718.437,-739.013 588.609,-707.758"/>
<polygon fill="none" stroke="midnightblue" points="1136.33,-843.216 1146.87,-842.154 1137.97,-836.41 1136.33,-843.216"/>
</g>
<!-- Node11 -->
<g id="node11" class="node"><title>Node11</title>
<g id="a_node11"><a xlink:href="../../d4/ddf/classpocketmine_1_1entity_1_1_human.html" target="_top" xlink:title="{pocketmine\\entity\\Human\n|+ $width\l+ $length\l+ $height\l+ $eyeHeight\l# $nameTag\l# $inventory\l|+ getInventory()\l+ getName()\l+ getDrops()\l+ saveNBT()\l+ spawnTo()\l+ despawnFrom()\l+ getData()\l+ close()\l# initEntity()\l}">
<polygon fill="white" stroke="black" points="1009.5,-590 1009.5,-790 1150.5,-790 1150.5,-590 1009.5,-590"/>
<text text-anchor="middle" x="1080" y="-778" font-family="Helvetica,sans-Serif" font-size="10.00">pocketmine\entity\Human</text>
<polyline fill="none" stroke="black" points="1009.5,-771 1150.5,-771 "/>
<text text-anchor="start" x="1017.5" y="-759" font-family="Helvetica,sans-Serif" font-size="10.00">+ $width</text>
<text text-anchor="start" x="1017.5" y="-748" font-family="Helvetica,sans-Serif" font-size="10.00">+ $length</text>
<text text-anchor="start" x="1017.5" y="-737" font-family="Helvetica,sans-Serif" font-size="10.00">+ $height</text>
<text text-anchor="start" x="1017.5" y="-726" font-family="Helvetica,sans-Serif" font-size="10.00">+ $eyeHeight</text>
<text text-anchor="start" x="1017.5" y="-715" font-family="Helvetica,sans-Serif" font-size="10.00"># $nameTag</text>
<text text-anchor="start" x="1017.5" y="-704" font-family="Helvetica,sans-Serif" font-size="10.00"># $inventory</text>
<polyline fill="none" stroke="black" points="1009.5,-697 1150.5,-697 "/>
<text text-anchor="start" x="1017.5" y="-685" font-family="Helvetica,sans-Serif" font-size="10.00">+ getInventory()</text>
<text text-anchor="start" x="1017.5" y="-674" font-family="Helvetica,sans-Serif" font-size="10.00">+ getName()</text>
<text text-anchor="start" x="1017.5" y="-663" font-family="Helvetica,sans-Serif" font-size="10.00">+ getDrops()</text>
<text text-anchor="start" x="1017.5" y="-652" font-family="Helvetica,sans-Serif" font-size="10.00">+ saveNBT()</text>
<text text-anchor="start" x="1017.5" y="-641" font-family="Helvetica,sans-Serif" font-size="10.00">+ spawnTo()</text>
<text text-anchor="start" x="1017.5" y="-630" font-family="Helvetica,sans-Serif" font-size="10.00">+ despawnFrom()</text>
<text text-anchor="start" x="1017.5" y="-619" font-family="Helvetica,sans-Serif" font-size="10.00">+ getData()</text>
<text text-anchor="start" x="1017.5" y="-608" font-family="Helvetica,sans-Serif" font-size="10.00">+ close()</text>
<text text-anchor="start" x="1017.5" y="-597" font-family="Helvetica,sans-Serif" font-size="10.00"># initEntity()</text>
</a>
</g>
</g>
<!-- Node3&#45;&gt;Node11 -->
<g id="edge10" class="edge"><title>Node3&#45;&gt;Node11</title>
<path fill="none" stroke="midnightblue" d="M1191.31,-824.412C1179.39,-810.13 1165.11,-793.005 1150.8,-775.861"/>
<polygon fill="none" stroke="midnightblue" points="1188.94,-827.035 1198.03,-832.471 1194.31,-822.55 1188.94,-827.035"/>
</g>
<!-- Node13 -->
<g id="node13" class="node"><title>Node13</title>
<g id="a_node13"><a xlink:href="../../d5/d2b/classpocketmine_1_1entity_1_1_monster.html" target="_top" xlink:title="{pocketmine\\entity\\Monster\n||}">
<polygon fill="white" stroke="black" points="1290.5,-661.5 1290.5,-718.5 1435.5,-718.5 1435.5,-661.5 1290.5,-661.5"/>
<text text-anchor="middle" x="1363" y="-706.5" font-family="Helvetica,sans-Serif" font-size="10.00">pocketmine\entity\Monster</text>
<polyline fill="none" stroke="black" points="1290.5,-699.5 1435.5,-699.5 "/>
<text text-anchor="middle" x="1363" y="-687.5" font-family="Helvetica,sans-Serif" font-size="10.00"> </text>
<polyline fill="none" stroke="black" points="1290.5,-680.5 1435.5,-680.5 "/>
<text text-anchor="middle" x="1363" y="-668.5" font-family="Helvetica,sans-Serif" font-size="10.00"> </text>
</a>
</g>
</g>
<!-- Node3&#45;&gt;Node13 -->
<g id="edge12" class="edge"><title>Node3&#45;&gt;Node13</title>
<path fill="none" stroke="midnightblue" d="M1250.61,-824.764C1277.15,-793.179 1315.54,-747.484 1339.88,-718.517"/>
<polygon fill="none" stroke="midnightblue" points="1247.88,-822.563 1244.13,-832.471 1253.24,-827.066 1247.88,-822.563"/>
</g>
<!-- Node21 -->
<g id="node21" class="node"><title>Node21</title>
<g id="a_node21"><a xlink:href="../../d9/d6b/classpocketmine_1_1entity_1_1_villager.html" target="_top" xlink:title="{pocketmine\\entity\\Villager\n|+ PROFESSION_FARMER\l+ PROFESSION_LIBRARIAN\l+ PROFESSION_PRIEST\l+ PROFESSION_BLACKSMITH\l+ PROFESSION_BUTCHER\l+ PROFESSION_GENERIC\l+ NETWORK_ID\l+ $width\l+ $length\l+ $height\l|+ getName()\l+ spawnTo()\l+ getData()\l+ setProfession()\l+ getProfession()\l# initEntity()\l}">
<polygon fill="white" stroke="black" points="1454,-584.5 1454,-795.5 1610,-795.5 1610,-584.5 1454,-584.5"/>
<text text-anchor="middle" x="1532" y="-783.5" font-family="Helvetica,sans-Serif" font-size="10.00">pocketmine\entity\Villager</text>
<polyline fill="none" stroke="black" points="1454,-776.5 1610,-776.5 "/>
<text text-anchor="start" x="1462" y="-764.5" font-family="Helvetica,sans-Serif" font-size="10.00">+ PROFESSION_FARMER</text>
<text text-anchor="start" x="1462" y="-753.5" font-family="Helvetica,sans-Serif" font-size="10.00">+ PROFESSION_LIBRARIAN</text>
<text text-anchor="start" x="1462" y="-742.5" font-family="Helvetica,sans-Serif" font-size="10.00">+ PROFESSION_PRIEST</text>
<text text-anchor="start" x="1462" y="-731.5" font-family="Helvetica,sans-Serif" font-size="10.00">+ PROFESSION_BLACKSMITH</text>
<text text-anchor="start" x="1462" y="-720.5" font-family="Helvetica,sans-Serif" font-size="10.00">+ PROFESSION_BUTCHER</text>
<text text-anchor="start" x="1462" y="-709.5" font-family="Helvetica,sans-Serif" font-size="10.00">+ PROFESSION_GENERIC</text>
<text text-anchor="start" x="1462" y="-698.5" font-family="Helvetica,sans-Serif" font-size="10.00">+ NETWORK_ID</text>
<text text-anchor="start" x="1462" y="-687.5" font-family="Helvetica,sans-Serif" font-size="10.00">+ $width</text>
<text text-anchor="start" x="1462" y="-676.5" font-family="Helvetica,sans-Serif" font-size="10.00">+ $length</text>
<text text-anchor="start" x="1462" y="-665.5" font-family="Helvetica,sans-Serif" font-size="10.00">+ $height</text>
<polyline fill="none" stroke="black" points="1454,-658.5 1610,-658.5 "/>
<text text-anchor="start" x="1462" y="-646.5" font-family="Helvetica,sans-Serif" font-size="10.00">+ getName()</text>
<text text-anchor="start" x="1462" y="-635.5" font-family="Helvetica,sans-Serif" font-size="10.00">+ spawnTo()</text>
<text text-anchor="start" x="1462" y="-624.5" font-family="Helvetica,sans-Serif" font-size="10.00">+ getData()</text>
<text text-anchor="start" x="1462" y="-613.5" font-family="Helvetica,sans-Serif" font-size="10.00">+ setProfession()</text>
<text text-anchor="start" x="1462" y="-602.5" font-family="Helvetica,sans-Serif" font-size="10.00">+ getProfession()</text>
<text text-anchor="start" x="1462" y="-591.5" font-family="Helvetica,sans-Serif" font-size="10.00"># initEntity()</text>
</a>
</g>
</g>
<!-- Node3&#45;&gt;Node21 -->
<g id="edge20" class="edge"><title>Node3&#45;&gt;Node21</title>
<path fill="none" stroke="midnightblue" d="M1304.7,-832.09C1304.8,-832.06 1304.9,-832.03 1305,-832 1366.2,-813.899 1390.04,-830.079 1444,-796 1447.32,-793.904 1450.57,-791.643 1453.76,-789.245"/>
<polygon fill="none" stroke="midnightblue" points="1303.67,-828.742 1295.12,-834.989 1305.7,-835.442 1303.67,-828.742"/>
</g>
<!-- Node5 -->
<g id="node5" class="node"><title>Node5</title>
<g id="a_node5"><a xlink:href="../../d9/d0b/classpocketmine_1_1entity_1_1_chicken.html" target="_top" xlink:title="{pocketmine\\entity\\Chicken\n||}">
<polygon fill="white" stroke="black" points="-0.5,-292.5 -0.5,-349.5 142.5,-349.5 142.5,-292.5 -0.5,-292.5"/>
<text text-anchor="middle" x="71" y="-337.5" font-family="Helvetica,sans-Serif" font-size="10.00">pocketmine\entity\Chicken</text>
<polyline fill="none" stroke="black" points="-0.5,-330.5 142.5,-330.5 "/>
<text text-anchor="middle" x="71" y="-318.5" font-family="Helvetica,sans-Serif" font-size="10.00"> </text>
<polyline fill="none" stroke="black" points="-0.5,-311.5 142.5,-311.5 "/>
<text text-anchor="middle" x="71" y="-299.5" font-family="Helvetica,sans-Serif" font-size="10.00"> </text>
</a>
</g>
</g>
<!-- Node4&#45;&gt;Node5 -->
<g id="edge4" class="edge"><title>Node4&#45;&gt;Node5</title>
<path fill="none" stroke="midnightblue" d="M439.587,-678.348C356.933,-663.24 228.895,-627.922 151,-548 96.3846,-491.964 78.841,-396.347 73.3745,-349.505"/>
<polygon fill="none" stroke="midnightblue" points="438.978,-681.795 449.435,-680.092 440.199,-674.902 438.978,-681.795"/>
</g>
<!-- Node6 -->
<g id="node6" class="node"><title>Node6</title>
<g id="a_node6"><a xlink:href="../../d4/d80/classpocketmine_1_1entity_1_1_cow.html" target="_top" xlink:title="{pocketmine\\entity\\Cow\n||}">
<polygon fill="white" stroke="black" points="160.5,-292.5 160.5,-349.5 285.5,-349.5 285.5,-292.5 160.5,-292.5"/>
<text text-anchor="middle" x="223" y="-337.5" font-family="Helvetica,sans-Serif" font-size="10.00">pocketmine\entity\Cow</text>
<polyline fill="none" stroke="black" points="160.5,-330.5 285.5,-330.5 "/>
<text text-anchor="middle" x="223" y="-318.5" font-family="Helvetica,sans-Serif" font-size="10.00"> </text>
<polyline fill="none" stroke="black" points="160.5,-311.5 285.5,-311.5 "/>
<text text-anchor="middle" x="223" y="-299.5" font-family="Helvetica,sans-Serif" font-size="10.00"> </text>
</a>
</g>
</g>
<!-- Node4&#45;&gt;Node6 -->
<g id="edge5" class="edge"><title>Node4&#45;&gt;Node6</title>
<path fill="none" stroke="midnightblue" d="M440.758,-657.065C392.154,-633.54 331.924,-597.097 294,-548 247.113,-487.298 230.859,-395.095 225.49,-349.505"/>
<polygon fill="none" stroke="midnightblue" points="439.467,-660.326 450.001,-661.452 442.468,-654.002 439.467,-660.326"/>
</g>
<!-- Node7 -->
<g id="node7" class="node"><title>Node7</title>
<g id="a_node7"><a xlink:href="../../de/d7f/classpocketmine_1_1entity_1_1_ozelot.html" target="_top" xlink:title="{pocketmine\\entity\\Ozelot\n||}">
<polygon fill="white" stroke="black" points="303.5,-292.5 303.5,-349.5 440.5,-349.5 440.5,-292.5 303.5,-292.5"/>
<text text-anchor="middle" x="372" y="-337.5" font-family="Helvetica,sans-Serif" font-size="10.00">pocketmine\entity\Ozelot</text>
<polyline fill="none" stroke="black" points="303.5,-330.5 440.5,-330.5 "/>
<text text-anchor="middle" x="372" y="-318.5" font-family="Helvetica,sans-Serif" font-size="10.00"> </text>
<polyline fill="none" stroke="black" points="303.5,-311.5 440.5,-311.5 "/>
<text text-anchor="middle" x="372" y="-299.5" font-family="Helvetica,sans-Serif" font-size="10.00"> </text>
</a>
</g>
</g>
<!-- Node4&#45;&gt;Node7 -->
<g id="edge6" class="edge"><title>Node4&#45;&gt;Node7</title>
<path fill="none" stroke="midnightblue" d="M499.504,-652.314C484.936,-624.186 465.029,-584.179 450,-548 420.861,-477.853 393.523,-392.508 380.302,-349.539"/>
<polygon fill="none" stroke="midnightblue" points="496.5,-654.124 504.225,-661.375 502.708,-650.889 496.5,-654.124"/>
</g>
<!-- Node8 -->
<g id="node8" class="node"><title>Node8</title>
<g id="a_node8"><a xlink:href="../../d8/d3e/classpocketmine_1_1entity_1_1_pig.html" target="_top" xlink:title="{pocketmine\\entity\\Pig\n||}">
<polygon fill="white" stroke="black" points="459,-292.5 459,-349.5 579,-349.5 579,-292.5 459,-292.5"/>
<text text-anchor="middle" x="519" y="-337.5" font-family="Helvetica,sans-Serif" font-size="10.00">pocketmine\entity\Pig</text>
<polyline fill="none" stroke="black" points="459,-330.5 579,-330.5 "/>
<text text-anchor="middle" x="519" y="-318.5" font-family="Helvetica,sans-Serif" font-size="10.00"> </text>
<polyline fill="none" stroke="black" points="459,-311.5 579,-311.5 "/>
<text text-anchor="middle" x="519" y="-299.5" font-family="Helvetica,sans-Serif" font-size="10.00"> </text>
</a>
</g>
</g>
<!-- Node4&#45;&gt;Node8 -->
<g id="edge7" class="edge"><title>Node4&#45;&gt;Node8</title>
<path fill="none" stroke="midnightblue" d="M519,-651.167C519,-577.216 519,-415.049 519,-349.905"/>
<polygon fill="none" stroke="midnightblue" points="515.5,-651.415 519,-661.415 522.5,-651.415 515.5,-651.415"/>
</g>
<!-- Node9 -->
<g id="node9" class="node"><title>Node9</title>
<g id="a_node9"><a xlink:href="../../d4/d1e/classpocketmine_1_1entity_1_1_sheep.html" target="_top" xlink:title="{pocketmine\\entity\\Sheep\n||}">
<polygon fill="white" stroke="black" points="597.5,-292.5 597.5,-349.5 734.5,-349.5 734.5,-292.5 597.5,-292.5"/>
<text text-anchor="middle" x="666" y="-337.5" font-family="Helvetica,sans-Serif" font-size="10.00">pocketmine\entity\Sheep</text>
<polyline fill="none" stroke="black" points="597.5,-330.5 734.5,-330.5 "/>
<text text-anchor="middle" x="666" y="-318.5" font-family="Helvetica,sans-Serif" font-size="10.00"> </text>
<polyline fill="none" stroke="black" points="597.5,-311.5 734.5,-311.5 "/>
<text text-anchor="middle" x="666" y="-299.5" font-family="Helvetica,sans-Serif" font-size="10.00"> </text>
</a>
</g>
</g>
<!-- Node4&#45;&gt;Node9 -->
<g id="edge8" class="edge"><title>Node4&#45;&gt;Node9</title>
<path fill="none" stroke="midnightblue" d="M538.131,-652.264C552.444,-624.109 572.045,-584.092 587,-548 616.116,-477.731 643.975,-392.438 657.495,-349.509"/>
<polygon fill="none" stroke="midnightblue" points="534.929,-650.837 533.493,-661.334 541.162,-654.023 534.929,-650.837"/>
</g>
<!-- Node10 -->
<g id="node10" class="node"><title>Node10</title>
<g id="a_node10"><a xlink:href="../../d1/d54/classpocketmine_1_1entity_1_1_wolf.html" target="_top" xlink:title="{pocketmine\\entity\\Wolf\n||}">
<polygon fill="white" stroke="black" points="752.5,-292.5 752.5,-349.5 877.5,-349.5 877.5,-292.5 752.5,-292.5"/>
<text text-anchor="middle" x="815" y="-337.5" font-family="Helvetica,sans-Serif" font-size="10.00">pocketmine\entity\Wolf</text>
<polyline fill="none" stroke="black" points="752.5,-330.5 877.5,-330.5 "/>
<text text-anchor="middle" x="815" y="-318.5" font-family="Helvetica,sans-Serif" font-size="10.00"> </text>
<polyline fill="none" stroke="black" points="752.5,-311.5 877.5,-311.5 "/>
<text text-anchor="middle" x="815" y="-299.5" font-family="Helvetica,sans-Serif" font-size="10.00"> </text>
</a>
</g>
</g>
<!-- Node4&#45;&gt;Node10 -->
<g id="edge9" class="edge"><title>Node4&#45;&gt;Node10</title>
<path fill="none" stroke="midnightblue" d="M596.576,-657.057C644.981,-633.482 705.082,-596.988 743,-548 789.882,-487.431 806.647,-395.573 812.31,-349.866"/>
<polygon fill="none" stroke="midnightblue" points="594.886,-653.985 587.372,-661.454 597.904,-660.301 594.886,-653.985"/>
</g>
<!-- Node12 -->
<g id="node12" class="node"><title>Node12</title>
<g id="a_node12"><a xlink:href="../../df/d2c/classpocketmine_1_1_player.html" target="_top" xlink:title="{pocketmine\\Player\n|+ SURVIVAL\l+ CREATIVE\l+ ADVENTURE\l+ SPECTATOR\l+ VIEW\l+ SURVIVAL_SLOTS\l+ CREATIVE_SLOTS\l+ $spawned\l+ $loggedIn\l+ $gamemode\land 7 more...\l# $interface\l# $windowCnt\l# $windows\l# $windowIndex\l# $sendIndex\l# $moveToSend\l# $motionToSend\l# $currentTransaction\l# $isCrafting\l# $lastMovement\land 21 more...\l|+ isBanned()\l+ setBanned()\l+ isWhitelisted()\l+ setWhitelisted()\l+ getPlayer()\l+ getFirstPlayed()\l+ getLastPlayed()\l+ hasPlayedBefore()\l+ spawnTo()\l+ getServer()\land 67 more...\l# initEntity()\l# sendNextChunk()\l# orderChunks()\l# getCreativeBlock()\l# processMovement()\l}">
<polygon fill="white" stroke="black" points="896,-94.5 896,-547.5 1020,-547.5 1020,-94.5 896,-94.5"/>
<text text-anchor="middle" x="958" y="-535.5" font-family="Helvetica,sans-Serif" font-size="10.00">pocketmine\Player</text>
<polyline fill="none" stroke="black" points="896,-528.5 1020,-528.5 "/>
<text text-anchor="start" x="904" y="-516.5" font-family="Helvetica,sans-Serif" font-size="10.00">+ SURVIVAL</text>
<text text-anchor="start" x="904" y="-505.5" font-family="Helvetica,sans-Serif" font-size="10.00">+ CREATIVE</text>
<text text-anchor="start" x="904" y="-494.5" font-family="Helvetica,sans-Serif" font-size="10.00">+ ADVENTURE</text>
<text text-anchor="start" x="904" y="-483.5" font-family="Helvetica,sans-Serif" font-size="10.00">+ SPECTATOR</text>
<text text-anchor="start" x="904" y="-472.5" font-family="Helvetica,sans-Serif" font-size="10.00">+ VIEW</text>
<text text-anchor="start" x="904" y="-461.5" font-family="Helvetica,sans-Serif" font-size="10.00">+ SURVIVAL_SLOTS</text>
<text text-anchor="start" x="904" y="-450.5" font-family="Helvetica,sans-Serif" font-size="10.00">+ CREATIVE_SLOTS</text>
<text text-anchor="start" x="904" y="-439.5" font-family="Helvetica,sans-Serif" font-size="10.00">+ $spawned</text>
<text text-anchor="start" x="904" y="-428.5" font-family="Helvetica,sans-Serif" font-size="10.00">+ $loggedIn</text>
<text text-anchor="start" x="904" y="-417.5" font-family="Helvetica,sans-Serif" font-size="10.00">+ $gamemode</text>
<text text-anchor="start" x="904" y="-406.5" font-family="Helvetica,sans-Serif" font-size="10.00">and 7 more...</text>
<text text-anchor="start" x="904" y="-395.5" font-family="Helvetica,sans-Serif" font-size="10.00"># $interface</text>
<text text-anchor="start" x="904" y="-384.5" font-family="Helvetica,sans-Serif" font-size="10.00"># $windowCnt</text>
<text text-anchor="start" x="904" y="-373.5" font-family="Helvetica,sans-Serif" font-size="10.00"># $windows</text>
<text text-anchor="start" x="904" y="-362.5" font-family="Helvetica,sans-Serif" font-size="10.00"># $windowIndex</text>
<text text-anchor="start" x="904" y="-351.5" font-family="Helvetica,sans-Serif" font-size="10.00"># $sendIndex</text>
<text text-anchor="start" x="904" y="-340.5" font-family="Helvetica,sans-Serif" font-size="10.00"># $moveToSend</text>
<text text-anchor="start" x="904" y="-329.5" font-family="Helvetica,sans-Serif" font-size="10.00"># $motionToSend</text>
<text text-anchor="start" x="904" y="-318.5" font-family="Helvetica,sans-Serif" font-size="10.00"># $currentTransaction</text>
<text text-anchor="start" x="904" y="-307.5" font-family="Helvetica,sans-Serif" font-size="10.00"># $isCrafting</text>
<text text-anchor="start" x="904" y="-296.5" font-family="Helvetica,sans-Serif" font-size="10.00"># $lastMovement</text>
<text text-anchor="start" x="904" y="-285.5" font-family="Helvetica,sans-Serif" font-size="10.00">and 21 more...</text>
<polyline fill="none" stroke="black" points="896,-278.5 1020,-278.5 "/>
<text text-anchor="start" x="904" y="-266.5" font-family="Helvetica,sans-Serif" font-size="10.00">+ isBanned()</text>
<text text-anchor="start" x="904" y="-255.5" font-family="Helvetica,sans-Serif" font-size="10.00">+ setBanned()</text>
<text text-anchor="start" x="904" y="-244.5" font-family="Helvetica,sans-Serif" font-size="10.00">+ isWhitelisted()</text>
<text text-anchor="start" x="904" y="-233.5" font-family="Helvetica,sans-Serif" font-size="10.00">+ setWhitelisted()</text>
<text text-anchor="start" x="904" y="-222.5" font-family="Helvetica,sans-Serif" font-size="10.00">+ getPlayer()</text>
<text text-anchor="start" x="904" y="-211.5" font-family="Helvetica,sans-Serif" font-size="10.00">+ getFirstPlayed()</text>
<text text-anchor="start" x="904" y="-200.5" font-family="Helvetica,sans-Serif" font-size="10.00">+ getLastPlayed()</text>
<text text-anchor="start" x="904" y="-189.5" font-family="Helvetica,sans-Serif" font-size="10.00">+ hasPlayedBefore()</text>
<text text-anchor="start" x="904" y="-178.5" font-family="Helvetica,sans-Serif" font-size="10.00">+ spawnTo()</text>
<text text-anchor="start" x="904" y="-167.5" font-family="Helvetica,sans-Serif" font-size="10.00">+ getServer()</text>
<text text-anchor="start" x="904" y="-156.5" font-family="Helvetica,sans-Serif" font-size="10.00">and 67 more...</text>
<text text-anchor="start" x="904" y="-145.5" font-family="Helvetica,sans-Serif" font-size="10.00"># initEntity()</text>
<text text-anchor="start" x="904" y="-134.5" font-family="Helvetica,sans-Serif" font-size="10.00"># sendNextChunk()</text>
<text text-anchor="start" x="904" y="-123.5" font-family="Helvetica,sans-Serif" font-size="10.00"># orderChunks()</text>
<text text-anchor="start" x="904" y="-112.5" font-family="Helvetica,sans-Serif" font-size="10.00"># getCreativeBlock()</text>
<text text-anchor="start" x="904" y="-101.5" font-family="Helvetica,sans-Serif" font-size="10.00"># processMovement()</text>
</a>
</g>
</g>
<!-- Node11&#45;&gt;Node12 -->
<g id="edge11" class="edge"><title>Node11&#45;&gt;Node12</title>
<path fill="none" stroke="midnightblue" d="M1040.15,-580.269C1036.32,-569.389 1032.54,-558.491 1029,-548 1026.04,-539.233 1023.05,-530.261 1020.06,-521.189"/>
<polygon fill="none" stroke="midnightblue" points="1036.89,-581.554 1043.52,-589.814 1043.49,-579.22 1036.89,-581.554"/>
</g>
<!-- Node14 -->
<g id="node14" class="node"><title>Node14</title>
<g id="a_node14"><a xlink:href="../../de/d3d/classpocketmine_1_1entity_1_1_creeper.html" target="_top" xlink:title="{pocketmine\\entity\\Creeper\n||}">
<polygon fill="white" stroke="black" points="1038,-292.5 1038,-349.5 1182,-349.5 1182,-292.5 1038,-292.5"/>
<text text-anchor="middle" x="1110" y="-337.5" font-family="Helvetica,sans-Serif" font-size="10.00">pocketmine\entity\Creeper</text>
<polyline fill="none" stroke="black" points="1038,-330.5 1182,-330.5 "/>
<text text-anchor="middle" x="1110" y="-318.5" font-family="Helvetica,sans-Serif" font-size="10.00"> </text>
<polyline fill="none" stroke="black" points="1038,-311.5 1182,-311.5 "/>
<text text-anchor="middle" x="1110" y="-299.5" font-family="Helvetica,sans-Serif" font-size="10.00"> </text>
</a>
</g>
</g>
<!-- Node13&#45;&gt;Node14 -->
<g id="edge13" class="edge"><title>Node13&#45;&gt;Node14</title>
<path fill="none" stroke="midnightblue" d="M1308.46,-655.381C1271.15,-629.941 1223.02,-591.945 1192,-548 1147.35,-484.745 1124.35,-394.497 1115.07,-349.588"/>
<polygon fill="none" stroke="midnightblue" points="1306.95,-658.586 1317.21,-661.254 1310.85,-652.774 1306.95,-658.586"/>
</g>
<!-- Node15 -->
<g id="node15" class="node"><title>Node15</title>
<g id="a_node15"><a xlink:href="../../d4/d3e/classpocketmine_1_1entity_1_1_enderman.html" target="_top" xlink:title="{pocketmine\\entity\\Enderman\n||}">
<polygon fill="white" stroke="black" points="1200.5,-292.5 1200.5,-349.5 1355.5,-349.5 1355.5,-292.5 1200.5,-292.5"/>
<text text-anchor="middle" x="1278" y="-337.5" font-family="Helvetica,sans-Serif" font-size="10.00">pocketmine\entity\Enderman</text>
<polyline fill="none" stroke="black" points="1200.5,-330.5 1355.5,-330.5 "/>
<text text-anchor="middle" x="1278" y="-318.5" font-family="Helvetica,sans-Serif" font-size="10.00"> </text>
<polyline fill="none" stroke="black" points="1200.5,-311.5 1355.5,-311.5 "/>
<text text-anchor="middle" x="1278" y="-299.5" font-family="Helvetica,sans-Serif" font-size="10.00"> </text>
</a>
</g>
</g>
<!-- Node13&#45;&gt;Node15 -->
<g id="edge14" class="edge"><title>Node13&#45;&gt;Node15</title>
<path fill="none" stroke="midnightblue" d="M1354.34,-651.62C1337.26,-577.881 1299.58,-415.183 1284.46,-349.905"/>
<polygon fill="none" stroke="midnightblue" points="1350.95,-652.463 1356.61,-661.415 1357.76,-650.883 1350.95,-652.463"/>
</g>
<!-- Node16 -->
<g id="node16" class="node"><title>Node16</title>
<g id="a_node16"><a xlink:href="../../d8/d41/classpocketmine_1_1entity_1_1_silverfish.html" target="_top" xlink:title="{pocketmine\\entity\\Silverfish\n||}">
<polygon fill="white" stroke="black" points="1373.5,-292.5 1373.5,-349.5 1522.5,-349.5 1522.5,-292.5 1373.5,-292.5"/>
<text text-anchor="middle" x="1448" y="-337.5" font-family="Helvetica,sans-Serif" font-size="10.00">pocketmine\entity\Silverfish</text>
<polyline fill="none" stroke="black" points="1373.5,-330.5 1522.5,-330.5 "/>
<text text-anchor="middle" x="1448" y="-318.5" font-family="Helvetica,sans-Serif" font-size="10.00"> </text>
<polyline fill="none" stroke="black" points="1373.5,-311.5 1522.5,-311.5 "/>
<text text-anchor="middle" x="1448" y="-299.5" font-family="Helvetica,sans-Serif" font-size="10.00"> </text>
</a>
</g>
</g>
<!-- Node13&#45;&gt;Node16 -->
<g id="edge15" class="edge"><title>Node13&#45;&gt;Node16</title>
<path fill="none" stroke="midnightblue" d="M1371.66,-651.62C1388.74,-577.881 1426.42,-415.183 1441.54,-349.905"/>
<polygon fill="none" stroke="midnightblue" points="1368.24,-650.883 1369.39,-661.415 1375.05,-652.463 1368.24,-650.883"/>
</g>
<!-- Node17 -->
<g id="node17" class="node"><title>Node17</title>
<g id="a_node17"><a xlink:href="../../d7/d19/classpocketmine_1_1entity_1_1_skeleton.html" target="_top" xlink:title="{pocketmine\\entity\\Skeleton\n||}">
<polygon fill="white" stroke="black" points="1541,-292.5 1541,-349.5 1689,-349.5 1689,-292.5 1541,-292.5"/>
<text text-anchor="middle" x="1615" y="-337.5" font-family="Helvetica,sans-Serif" font-size="10.00">pocketmine\entity\Skeleton</text>
<polyline fill="none" stroke="black" points="1541,-330.5 1689,-330.5 "/>
<text text-anchor="middle" x="1615" y="-318.5" font-family="Helvetica,sans-Serif" font-size="10.00"> </text>
<polyline fill="none" stroke="black" points="1541,-311.5 1689,-311.5 "/>
<text text-anchor="middle" x="1615" y="-299.5" font-family="Helvetica,sans-Serif" font-size="10.00"> </text>
</a>
</g>
</g>
<!-- Node13&#45;&gt;Node17 -->
<g id="edge16" class="edge"><title>Node13&#45;&gt;Node17</title>
<path fill="none" stroke="midnightblue" d="M1384.57,-652.656C1399.28,-630.407 1420.49,-602.711 1445,-584 1477.93,-558.854 1502.3,-577.888 1531,-548 1585.36,-491.388 1605.15,-396.468 1611.85,-349.724"/>
<polygon fill="none" stroke="midnightblue" points="1381.54,-650.894 1379.06,-661.195 1387.42,-654.688 1381.54,-650.894"/>
</g>
<!-- Node18 -->
<g id="node18" class="node"><title>Node18</title>
<g id="a_node18"><a xlink:href="../../d8/d2d/classpocketmine_1_1entity_1_1_spider.html" target="_top" xlink:title="{pocketmine\\entity\\Spider\n||}">
<polygon fill="white" stroke="black" points="1707.5,-292.5 1707.5,-349.5 1844.5,-349.5 1844.5,-292.5 1707.5,-292.5"/>
<text text-anchor="middle" x="1776" y="-337.5" font-family="Helvetica,sans-Serif" font-size="10.00">pocketmine\entity\Spider</text>
<polyline fill="none" stroke="black" points="1707.5,-330.5 1844.5,-330.5 "/>
<text text-anchor="middle" x="1776" y="-318.5" font-family="Helvetica,sans-Serif" font-size="10.00"> </text>
<polyline fill="none" stroke="black" points="1707.5,-311.5 1844.5,-311.5 "/>
<text text-anchor="middle" x="1776" y="-299.5" font-family="Helvetica,sans-Serif" font-size="10.00"> </text>
</a>
</g>
</g>
<!-- Node13&#45;&gt;Node18 -->
<g id="edge17" class="edge"><title>Node13&#45;&gt;Node18</title>
<path fill="none" stroke="midnightblue" d="M1381.77,-652.542C1395.88,-629.012 1417.48,-599.921 1445,-584 1543.31,-527.117 1610.4,-620.288 1698,-548 1758.67,-497.938 1772.26,-398.155 1775.23,-349.693"/>
<polygon fill="none" stroke="midnightblue" points="1378.71,-650.841 1376.73,-661.249 1384.77,-654.347 1378.71,-650.841"/>
</g>
<!-- Node19 -->
<g id="node19" class="node"><title>Node19</title>
<g id="a_node19"><a xlink:href="../../d0/da7/classpocketmine_1_1entity_1_1_zombie.html" target="_top" xlink:title="{pocketmine\\entity\\Zombie\n|+ NETWORK_ID\l+ $width\l+ $length\l+ $height\l|+ getName()\l+ spawnTo()\l+ getData()\l+ getDrops()\l}">
<polygon fill="white" stroke="black" points="1862.5,-259.5 1862.5,-382.5 2005.5,-382.5 2005.5,-259.5 1862.5,-259.5"/>
<text text-anchor="middle" x="1934" y="-370.5" font-family="Helvetica,sans-Serif" font-size="10.00">pocketmine\entity\Zombie</text>
<polyline fill="none" stroke="black" points="1862.5,-363.5 2005.5,-363.5 "/>
<text text-anchor="start" x="1870.5" y="-351.5" font-family="Helvetica,sans-Serif" font-size="10.00">+ NETWORK_ID</text>
<text text-anchor="start" x="1870.5" y="-340.5" font-family="Helvetica,sans-Serif" font-size="10.00">+ $width</text>
<text text-anchor="start" x="1870.5" y="-329.5" font-family="Helvetica,sans-Serif" font-size="10.00">+ $length</text>
<text text-anchor="start" x="1870.5" y="-318.5" font-family="Helvetica,sans-Serif" font-size="10.00">+ $height</text>
<polyline fill="none" stroke="black" points="1862.5,-311.5 2005.5,-311.5 "/>
<text text-anchor="start" x="1870.5" y="-299.5" font-family="Helvetica,sans-Serif" font-size="10.00">+ getName()</text>
<text text-anchor="start" x="1870.5" y="-288.5" font-family="Helvetica,sans-Serif" font-size="10.00">+ spawnTo()</text>
<text text-anchor="start" x="1870.5" y="-277.5" font-family="Helvetica,sans-Serif" font-size="10.00">+ getData()</text>
<text text-anchor="start" x="1870.5" y="-266.5" font-family="Helvetica,sans-Serif" font-size="10.00">+ getDrops()</text>
</a>
</g>
</g>
<!-- Node13&#45;&gt;Node19 -->
<g id="edge18" class="edge"><title>Node13&#45;&gt;Node19</title>
<path fill="none" stroke="midnightblue" d="M1381.23,-652.526C1395.22,-628.704 1416.89,-599.28 1445,-584 1524.97,-540.532 1780.95,-603.613 1853,-548 1903.73,-508.845 1922.74,-435.203 1929.84,-382.622"/>
<polygon fill="none" stroke="midnightblue" points="1378.12,-650.912 1376.25,-661.34 1384.22,-654.356 1378.12,-650.912"/>
</g>
<!-- Node20 -->
<g id="node20" class="node"><title>Node20</title>
<g id="a_node20"><a xlink:href="../../db/d86/classpocketmine_1_1entity_1_1_pig_zombie.html" target="_top" xlink:title="{pocketmine\\entity\\PigZombie\n||}">
<polygon fill="white" stroke="black" points="1855,-0.5 1855,-57.5 2013,-57.5 2013,-0.5 1855,-0.5"/>
<text text-anchor="middle" x="1934" y="-45.5" font-family="Helvetica,sans-Serif" font-size="10.00">pocketmine\entity\PigZombie</text>
<polyline fill="none" stroke="black" points="1855,-38.5 2013,-38.5 "/>
<text text-anchor="middle" x="1934" y="-26.5" font-family="Helvetica,sans-Serif" font-size="10.00"> </text>
<polyline fill="none" stroke="black" points="1855,-19.5 2013,-19.5 "/>
<text text-anchor="middle" x="1934" y="-7.5" font-family="Helvetica,sans-Serif" font-size="10.00"> </text>
</a>
</g>
</g>
<!-- Node19&#45;&gt;Node20 -->
<g id="edge19" class="edge"><title>Node19&#45;&gt;Node20</title>
<path fill="none" stroke="midnightblue" d="M1934,-249.155C1934,-187.543 1934,-101.489 1934,-57.8095"/>
<polygon fill="none" stroke="midnightblue" points="1930.5,-249.206 1934,-259.206 1937.5,-249.207 1930.5,-249.206"/>
</g>
</g>
</svg>
        <g id="navigator" transform="translate(0 0)" fill="#404254">
                <rect fill="#f2f5e9" fill-opacity="0.5" stroke="#606060" stroke-width=".5" x="0" y="0" width="60" height="60"/>
                <use id="zoomplus" xlink:href="#zoomPlus" x="17" y="9" onmousedown="handleZoom(evt,'in')"/>
                <use id="zoomminus" xlink:href="#zoomMin" x="42" y="9" onmousedown="handleZoom(evt,'out')"/>
                <use id="reset" xlink:href="#resetDef" x="30" y="36" onmousedown="handleReset()"/>
                <g id="arrowUp" xlink:href="#dirArrow" transform="translate(30 24)" onmousedown="handlePan(0,-1)">
                  <use xlink:href="#rim" fill="#404040">
                        <set attributeName="fill" to="#808080" begin="arrowUp.mouseover" end="arrowUp.mouseout"/>
                  </use>
                  <path fill="none" stroke="white" stroke-width="1.5" d="M0,-3.0v7 M-2.5,-0.5L0,-3.0L2.5,-0.5"/>
                </g>
                <g id="arrowRight" xlink:href="#dirArrow" transform="rotate(90) translate(36 -43)" onmousedown="handlePan(1,0)">
                  <use xlink:href="#rim" fill="#404040">
                        <set attributeName="fill" to="#808080" begin="arrowRight.mouseover" end="arrowRight.mouseout"/>
                  </use>
                  <path fill="none" stroke="white" stroke-width="1.5" d="M0,-3.0v7 M-2.5,-0.5L0,-3.0L2.5,-0.5"/>
                </g>
                <g id="arrowDown" xlink:href="#dirArrow" transform="rotate(180) translate(-30 -48)" onmousedown="handlePan(0,1)">
                  <use xlink:href="#rim" fill="#404040">
                        <set attributeName="fill" to="#808080" begin="arrowDown.mouseover" end="arrowDown.mouseout"/>
                  </use>
                  <path fill="none" stroke="white" stroke-width="1.5" d="M0,-3.0v7 M-2.5,-0.5L0,-3.0L2.5,-0.5"/>
                </g>
                <g id="arrowLeft" xlink:href="#dirArrow" transform="rotate(270) translate(-36 17)" onmousedown="handlePan(-1,0)">
                  <use xlink:href="#rim" fill="#404040">
                        <set attributeName="fill" to="#808080" begin="arrowLeft.mouseover" end="arrowLeft.mouseout"/>
                  </use>
                  <path fill="none" stroke="white" stroke-width="1.5" d="M0,-3.0v7 M-2.5,-0.5L0,-3.0L2.5,-0.5"/>
                </g>
        </g>
        <svg viewBox="0 0 15 15" width="100%" height="30px" preserveAspectRatio="xMaxYMin meet">
         <g id="arrow_out" transform="scale(0.3 0.3)">
          <a xlink:href="interfacepocketmine_1_1entity_1_1_damageable__inherit__graph_org.svg" target="_base">
           <rect id="button" ry="5" rx="5" y="6" x="6" height="38" width="38"
                fill="#f2f5e9" fill-opacity="0.5" stroke="#606060" stroke-width="1.0"/>
           <path id="arrow"
             d="M 11.500037,31.436501 C 11.940474,20.09759 22.043105,11.32322 32.158766,21.979434 L 37.068811,17.246167 C 37.068811,17.246167 37.088388,32 37.088388,32 L 22.160133,31.978069 C 22.160133,31.978069 26.997745,27.140456 26.997745,27.140456 C 18.528582,18.264221 13.291696,25.230495 11.500037,31.436501 z"
             style="fill:#404040;"/>
          </a>
         </g>
        </svg>
</svg>
