<?xml version="1.0" encoding="UTF-8" standalone="no"?>
<!DOCTYPE svg PUBLIC "-//W3C//DTD SVG 1.1//EN"
 "http://www.w3.org/Graphics/SVG/1.1/DTD/svg11.dtd">
<!-- Generated by graphviz version 2.36.0 (20140111.2315)
 -->
<!-- Title: pocketmine\command\SimpleCommandMap Pages: 1 -->
<svg width="144pt" height="304pt"
 viewBox="0.00 0.00 144.00 304.00" xmlns="http://www.w3.org/2000/svg" xmlns:xlink="http://www.w3.org/1999/xlink">
<g id="graph0" class="graph" transform="scale(1 1) rotate(0) translate(4 300)">
<title>pocketmine\command\SimpleCommandMap</title>
<polygon fill="white" stroke="none" points="-4,4 -4,-300 140,-300 140,4 -4,4"/>
<!-- Node1 -->
<g id="node1" class="node"><title>Node1</title>
<polygon fill="#bfbfbf" stroke="black" points="-0.5,-0.5 -0.5,-145.5 136.5,-145.5 136.5,-0.5 -0.5,-0.5"/>
<text text-anchor="start" x="7.5" y="-133.5" font-family="Helvetica,sans-Serif" font-size="10.00">pocketmine\command</text>
<text text-anchor="middle" x="68" y="-122.5" font-family="Helvetica,sans-Serif" font-size="10.00">\SimpleCommandMap</text>
<polyline fill="none" stroke="black" points="-0.5,-115.5 136.5,-115.5 "/>
<text text-anchor="start" x="7.5" y="-103.5" font-family="Helvetica,sans-Serif" font-size="10.00"># $knownCommands</text>
<polyline fill="none" stroke="black" points="-0.5,-96.5 136.5,-96.5 "/>
<text text-anchor="start" x="7.5" y="-84.5" font-family="Helvetica,sans-Serif" font-size="10.00">+ __construct()</text>
<text text-anchor="start" x="7.5" y="-73.5" font-family="Helvetica,sans-Serif" font-size="10.00">+ registerAll()</text>
<text text-anchor="start" x="7.5" y="-62.5" font-family="Helvetica,sans-Serif" font-size="10.00">+ register()</text>
<text text-anchor="start" x="7.5" y="-51.5" font-family="Helvetica,sans-Serif" font-size="10.00">+ dispatch()</text>
<text text-anchor="start" x="7.5" y="-40.5" font-family="Helvetica,sans-Serif" font-size="10.00">+ clearCommands()</text>
<text text-anchor="start" x="7.5" y="-29.5" font-family="Helvetica,sans-Serif" font-size="10.00">+ getCommand()</text>
<text text-anchor="start" x="7.5" y="-18.5" font-family="Helvetica,sans-Serif" font-size="10.00">+ getCommands()</text>
<text text-anchor="start" x="7.5" y="-7.5" font-family="Helvetica,sans-Serif" font-size="10.00">+ registerServerAliases()</text>
</g>
<!-- Node2 -->
<g id="node2" class="node"><title>Node2</title>
<g id="a_node2"><a xlink:href="../../de/d06/interfacepocketmine_1_1command_1_1_command_map.html" target="_top" xlink:title="{pocketmine\\command\l\\CommandMap\n||+ registerAll()\l+ register()\l+ dispatch()\l+ clearCommands()\l+ getCommand()\l}">
<polygon fill="white" stroke="black" points="5.5,-183 5.5,-295 130.5,-295 130.5,-183 5.5,-183"/>
<text text-anchor="start" x="13.5" y="-283" font-family="Helvetica,sans-Serif" font-size="10.00">pocketmine\command</text>
<text text-anchor="middle" x="68" y="-272" font-family="Helvetica,sans-Serif" font-size="10.00">\CommandMap</text>
<polyline fill="none" stroke="black" points="5.5,-265 130.5,-265 "/>
<text text-anchor="middle" x="68" y="-253" font-family="Helvetica,sans-Serif" font-size="10.00"> </text>
<polyline fill="none" stroke="black" points="5.5,-246 130.5,-246 "/>
<text text-anchor="start" x="13.5" y="-234" font-family="Helvetica,sans-Serif" font-size="10.00">+ registerAll()</text>
<text text-anchor="start" x="13.5" y="-223" font-family="Helvetica,sans-Serif" font-size="10.00">+ register()</text>
<text text-anchor="start" x="13.5" y="-212" font-family="Helvetica,sans-Serif" font-size="10.00">+ dispatch()</text>
<text text-anchor="start" x="13.5" y="-201" font-family="Helvetica,sans-Serif" font-size="10.00">+ clearCommands()</text>
<text text-anchor="start" x="13.5" y="-190" font-family="Helvetica,sans-Serif" font-size="10.00">+ getCommand()</text>
</a>
</g>
</g>
<!-- Node2&#45;&gt;Node1 -->
<g id="edge1" class="edge"><title>Node2&#45;&gt;Node1</title>
<path fill="none" stroke="midnightblue" d="M68,-172.917C68,-163.917 68,-154.632 68,-145.522"/>
<polygon fill="none" stroke="midnightblue" points="64.5001,-172.934 68,-182.934 71.5001,-172.934 64.5001,-172.934"/>
</g>
</g>
</svg>
