<?xml version="1.0" encoding="UTF-8" standalone="no"?>
<!DOCTYPE svg PUBLIC "-//W3C//DTD SVG 1.1//EN"
 "http://www.w3.org/Graphics/SVG/1.1/DTD/svg11.dtd">
<!-- Generated by graphviz version 2.36.0 (20140111.2315)
 -->
<!-- Title: pocketmine\event\inventory\InventoryEvent Pages: 1 -->
<svg width="156pt" height="206pt"
 viewBox="0.00 0.00 156.00 206.00" xmlns="http://www.w3.org/2000/svg" xmlns:xlink="http://www.w3.org/1999/xlink">
<g id="graph0" class="graph" transform="scale(1 1) rotate(0) translate(4 202)">
<title>pocketmine\event\inventory\InventoryEvent</title>
<polygon fill="white" stroke="none" points="-4,4 -4,-202 152,-202 152,4 -4,4"/>
<!-- Node1 -->
<g id="node1" class="node"><title>Node1</title>
<polygon fill="#bfbfbf" stroke="black" points="-1,-1 -1,-91 149,-91 149,-1 -1,-1"/>
<text text-anchor="start" x="7" y="-79" font-family="Helvetica,sans-Serif" font-size="10.00">pocketmine\event\inventory</text>
<text text-anchor="middle" x="74" y="-68" font-family="Helvetica,sans-Serif" font-size="10.00">\InventoryEvent</text>
<polyline fill="none" stroke="black" points="-1,-61 149,-61 "/>
<text text-anchor="start" x="7" y="-49" font-family="Helvetica,sans-Serif" font-size="10.00"># $inventory</text>
<polyline fill="none" stroke="black" points="-1,-42 149,-42 "/>
<text text-anchor="start" x="7" y="-30" font-family="Helvetica,sans-Serif" font-size="10.00">+ __construct()</text>
<text text-anchor="start" x="7" y="-19" font-family="Helvetica,sans-Serif" font-size="10.00">+ getInventory()</text>
<text text-anchor="start" x="7" y="-8" font-family="Helvetica,sans-Serif" font-size="10.00">+ getViewers()</text>
</g>
<!-- Node2 -->
<g id="node2" class="node"><title>Node2</title>
<g id="a_node2"><a xlink:href="../../d1/d2f/classpocketmine_1_1event_1_1_event.html" target="_top" xlink:title="{pocketmine\\event\\Event\n|# $eventName\l|+ getEventName()\l+ getHandlers()\l}">
<polygon fill="white" stroke="black" points="7.5,-129 7.5,-197 140.5,-197 140.5,-129 7.5,-129"/>
<text text-anchor="middle" x="74" y="-185" font-family="Helvetica,sans-Serif" font-size="10.00">pocketmine\event\Event</text>
<polyline fill="none" stroke="black" points="7.5,-178 140.5,-178 "/>
<text text-anchor="start" x="15.5" y="-166" font-family="Helvetica,sans-Serif" font-size="10.00"># $eventName</text>
<polyline fill="none" stroke="black" points="7.5,-159 140.5,-159 "/>
<text text-anchor="start" x="15.5" y="-147" font-family="Helvetica,sans-Serif" font-size="10.00">+ getEventName()</text>
<text text-anchor="start" x="15.5" y="-136" font-family="Helvetica,sans-Serif" font-size="10.00">+ getHandlers()</text>
</a>
</g>
</g>
<!-- Node2&#45;&gt;Node1 -->
<g id="edge1" class="edge"><title>Node2&#45;&gt;Node1</title>
<path fill="none" stroke="midnightblue" d="M74,-118.555C74,-109.646 74,-100.257 74,-91.3181"/>
<polygon fill="none" stroke="midnightblue" points="70.5001,-118.737 74,-128.737 77.5001,-118.737 70.5001,-118.737"/>
</g>
</g>
</svg>
