<?xml version="1.0" encoding="UTF-8" standalone="no"?>
<!DOCTYPE svg PUBLIC "-//W3C//DTD SVG 1.1//EN"
 "http://www.w3.org/Graphics/SVG/1.1/DTD/svg11.dtd">
<!-- Generated by graphviz version 2.26.3 (20100126.1600)
 -->
<!-- Title: G Pages: 1 -->
<!--zoomable 954 -->
<svg id="main" version="1.1" xmlns="http://www.w3.org/2000/svg" xmlns:xlink="http://www.w3.org/1999/xlink" xml:space="preserve" onload="init(evt)">
        <defs>
                <circle id="rim" cx="0" cy="0" r="7"/>
                <circle id="rim2" cx="0" cy="0" r="3.5"/>
                <g id="zoomPlus">
                        <use xlink:href="#rim" fill="#404040">
                                <set attributeName="fill" to="#808080" begin="zoomplus.mouseover" end="zoomplus.mouseout"/>
                        </use>
                        <path d="M-4,0h8M0,-4v8" fill="none" stroke="white" stroke-width="1.5" pointer-events="none"/>
                </g>
                <g id="zoomMin">
                        <use xlink:href="#rim" fill="#404040">
                                <set attributeName="fill" to="#808080" begin="zoomminus.mouseover" end="zoomminus.mouseout"/>
                        </use>
                        <path d="M-4,0h8" fill="none" stroke="white" stroke-width="1.5" pointer-events="none"/>
                </g>
                <g id="dirArrow">
                        <path fill="none" stroke="white" stroke-width="1.5" d="M0,-3.0v7 M-2.5,-0.5L0,-3.0L2.5,-0.5"/>
                </g>
               <g id="resetDef">
                       <use xlink:href="#rim2" fill="#404040">
                               <set attributeName="fill" to="#808080" begin="reset.mouseover" end="reset.mouseout"/>
                       </use>
               </g>
        </defs>

<script type="text/javascript">
var viewWidth = 415;
var viewHeight = 954;
var sectionId = 'dynsection-0';
</script>
<script xlink:href="../../svgpan.js"/>
<svg id="graph" class="graph">
<g id="viewport">
<title>G</title>
<polygon fill="white" stroke="white" points="-4,5 -4,-950 412,-950 412,5 -4,5"/>
<!-- Node1 -->
<g id="node1" class="node"><title>Node1</title>
<polygon fill="#bfbfbf" stroke="black" points="171.5,-0.5 171.5,-63.5 306.5,-63.5 306.5,-0.5 171.5,-0.5"/>
<text text-anchor="middle" x="239" y="-50.5" font-family="Helvetica,sans-Serif" font-size="10.00">pocketmine\entity\Skeleton</text>
<polyline fill="none" stroke="black" points="171.5,-42.5 306.5,-42.5 "/>
<text text-anchor="middle" x="239" y="-29.5" font-family="Helvetica,sans-Serif" font-size="10.00"> </text>
<polyline fill="none" stroke="black" points="171.5,-21.5 306.5,-21.5 "/>
<text text-anchor="middle" x="239" y="-8.5" font-family="Helvetica,sans-Serif" font-size="10.00"> </text>
</g>
<!-- Node2 -->
<g id="node2" class="node"><title>Node2</title>
<a xlink:href="../../d5/d2b/classpocketmine_1_1entity_1_1_monster.html" target="_top" xlink:title="{pocketmine\\entity\\Monster\n||}">
<polygon fill="white" stroke="black" points="89,-100.5 89,-163.5 221,-163.5 221,-100.5 89,-100.5"/>
<text text-anchor="middle" x="155" y="-150.5" font-family="Helvetica,sans-Serif" font-size="10.00">pocketmine\entity\Monster</text>
<polyline fill="none" stroke="black" points="89,-142.5 221,-142.5 "/>
<text text-anchor="middle" x="155" y="-129.5" font-family="Helvetica,sans-Serif" font-size="10.00"> </text>
<polyline fill="none" stroke="black" points="89,-121.5 221,-121.5 "/>
<text text-anchor="middle" x="155" y="-108.5" font-family="Helvetica,sans-Serif" font-size="10.00"> </text>
</a>
</g>
<!-- Node2&#45;&gt;Node1 -->
<g id="edge2" class="edge"><title>Node2&#45;&gt;Node1</title>
<path fill="none" stroke="midnightblue" d="M188.173,-92.5088C196.181,-82.9748 204.638,-72.907 212.306,-63.778"/>
<polygon fill="none" stroke="midnightblue" points="185.33,-90.4511 181.578,-100.359 190.69,-94.9535 185.33,-90.4511"/>
</g>
<!-- Node3 -->
<g id="node4" class="node"><title>Node3</title>
<a xlink:href="../../d1/db7/classpocketmine_1_1entity_1_1_creature.html" target="_top" xlink:title="{pocketmine\\entity\\Creature\n||}">
<polygon fill="white" stroke="black" points="88,-200.5 88,-263.5 222,-263.5 222,-200.5 88,-200.5"/>
<text text-anchor="middle" x="155" y="-250.5" font-family="Helvetica,sans-Serif" font-size="10.00">pocketmine\entity\Creature</text>
<polyline fill="none" stroke="black" points="88,-242.5 222,-242.5 "/>
<text text-anchor="middle" x="155" y="-229.5" font-family="Helvetica,sans-Serif" font-size="10.00"> </text>
<polyline fill="none" stroke="black" points="88,-221.5 222,-221.5 "/>
<text text-anchor="middle" x="155" y="-208.5" font-family="Helvetica,sans-Serif" font-size="10.00"> </text>
</a>
</g>
<!-- Node3&#45;&gt;Node2 -->
<g id="edge4" class="edge"><title>Node3&#45;&gt;Node2</title>
<path fill="none" stroke="midnightblue" d="M155,-190.211C155,-181.37 155,-172.177 155,-163.778"/>
<polygon fill="none" stroke="midnightblue" points="151.5,-190.359 155,-200.359 158.5,-190.359 151.5,-190.359"/>
</g>
<!-- Node4 -->
<g id="node6" class="node"><title>Node4</title>
<a xlink:href="../../df/d0c/classpocketmine_1_1entity_1_1_living.html" target="_top" xlink:title="{pocketmine\\entity\\Living\n|# $gravity\l# $drag\l|# initEntity()\l}">
<polygon fill="white" stroke="black" points="94,-301 94,-377 216,-377 216,-301 94,-301"/>
<text text-anchor="middle" x="155" y="-364" font-family="Helvetica,sans-Serif" font-size="10.00">pocketmine\entity\Living</text>
<polyline fill="none" stroke="black" points="94,-356 216,-356 "/>
<text text-anchor="start" x="102" y="-343" font-family="Helvetica,sans-Serif" font-size="10.00"># $gravity</text>
<text text-anchor="start" x="102" y="-330" font-family="Helvetica,sans-Serif" font-size="10.00"># $drag</text>
<polyline fill="none" stroke="black" points="94,-322 216,-322 "/>
<text text-anchor="start" x="102" y="-309" font-family="Helvetica,sans-Serif" font-size="10.00"># initEntity()</text>
</a>
</g>
<!-- Node4&#45;&gt;Node3 -->
<g id="edge6" class="edge"><title>Node4&#45;&gt;Node3</title>
<path fill="none" stroke="midnightblue" d="M155,-290.716C155,-281.499 155,-272.073 155,-263.547"/>
<polygon fill="none" stroke="midnightblue" points="151.5,-290.974 155,-300.975 158.5,-290.975 151.5,-290.974"/>
</g>
<!-- Node5 -->
<g id="node8" class="node"><title>Node5</title>
<a xlink:href="../../d2/d3c/classpocketmine_1_1entity_1_1_entity.html" target="_top" xlink:title="{pocketmine\\entity\\Entity\n|+ $passenger\l+ $vehicle\l+ $chunkX\l+ $chunkZ\l+ $chunk\l+ $lastX\l+ $lastY\l+ $lastZ\l+ $motionX\l+ $motionY\land 25 more...+ $entityCount\l+ $needUpdate\l# $hasSpawned\l# $id\l# $age\l# $isStatic\l# $isColliding\l# $inWater\l# $fireProof\l# $spawnTime\l# $gravity\l# $drag\l# $server\l|+ __construct()\l+ saveNBT()\l+ getViewers()\l+ spawnTo()\l+ despawnFrom()\l+ attack()\l+ heal()\l+ getHealth()\l+ setHealth()\l+ getMaxHealth()\land 38 more...# initEntity()\l# checkObstruction()\l# updateFallState()\l# switchLevel()\l# checkBlockCollision()\l}">
<polygon fill="white" stroke="black" points="0,-414.5 0,-945.5 144,-945.5 144,-414.5 0,-414.5"/>
<text text-anchor="middle" x="72" y="-932.5" font-family="Helvetica,sans-Serif" font-size="10.00">pocketmine\entity\Entity</text>
<polyline fill="none" stroke="black" points="0,-924.5 144,-924.5 "/>
<text text-anchor="start" x="8" y="-911.5" font-family="Helvetica,sans-Serif" font-size="10.00">+ $passenger</text>
<text text-anchor="start" x="8" y="-898.5" font-family="Helvetica,sans-Serif" font-size="10.00">+ $vehicle</text>
<text text-anchor="start" x="8" y="-885.5" font-family="Helvetica,sans-Serif" font-size="10.00">+ $chunkX</text>
<text text-anchor="start" x="8" y="-872.5" font-family="Helvetica,sans-Serif" font-size="10.00">+ $chunkZ</text>
<text text-anchor="start" x="8" y="-859.5" font-family="Helvetica,sans-Serif" font-size="10.00">+ $chunk</text>
<text text-anchor="start" x="8" y="-846.5" font-family="Helvetica,sans-Serif" font-size="10.00">+ $lastX</text>
<text text-anchor="start" x="8" y="-833.5" font-family="Helvetica,sans-Serif" font-size="10.00">+ $lastY</text>
<text text-anchor="start" x="8" y="-820.5" font-family="Helvetica,sans-Serif" font-size="10.00">+ $lastZ</text>
<text text-anchor="start" x="8" y="-807.5" font-family="Helvetica,sans-Serif" font-size="10.00">+ $motionX</text>
<text text-anchor="start" x="8" y="-794.5" font-family="Helvetica,sans-Serif" font-size="10.00">+ $motionY</text>
<text text-anchor="start" x="8" y="-781.5" font-family="Helvetica,sans-Serif" font-size="10.00">and 25 more...+ $entityCount</text>
<text text-anchor="start" x="8" y="-768.5" font-family="Helvetica,sans-Serif" font-size="10.00">+ $needUpdate</text>
<text text-anchor="start" x="8" y="-755.5" font-family="Helvetica,sans-Serif" font-size="10.00"># $hasSpawned</text>
<text text-anchor="start" x="8" y="-742.5" font-family="Helvetica,sans-Serif" font-size="10.00"># $id</text>
<text text-anchor="start" x="8" y="-729.5" font-family="Helvetica,sans-Serif" font-size="10.00"># $age</text>
<text text-anchor="start" x="8" y="-716.5" font-family="Helvetica,sans-Serif" font-size="10.00"># $isStatic</text>
<text text-anchor="start" x="8" y="-703.5" font-family="Helvetica,sans-Serif" font-size="10.00"># $isColliding</text>
<text text-anchor="start" x="8" y="-690.5" font-family="Helvetica,sans-Serif" font-size="10.00"># $inWater</text>
<text text-anchor="start" x="8" y="-677.5" font-family="Helvetica,sans-Serif" font-size="10.00"># $fireProof</text>
<text text-anchor="start" x="8" y="-664.5" font-family="Helvetica,sans-Serif" font-size="10.00"># $spawnTime</text>
<text text-anchor="start" x="8" y="-651.5" font-family="Helvetica,sans-Serif" font-size="10.00"># $gravity</text>
<text text-anchor="start" x="8" y="-638.5" font-family="Helvetica,sans-Serif" font-size="10.00"># $drag</text>
<text text-anchor="start" x="8" y="-625.5" font-family="Helvetica,sans-Serif" font-size="10.00"># $server</text>
<polyline fill="none" stroke="black" points="0,-617.5 144,-617.5 "/>
<text text-anchor="start" x="8" y="-604.5" font-family="Helvetica,sans-Serif" font-size="10.00">+ __construct()</text>
<text text-anchor="start" x="8" y="-591.5" font-family="Helvetica,sans-Serif" font-size="10.00">+ saveNBT()</text>
<text text-anchor="start" x="8" y="-578.5" font-family="Helvetica,sans-Serif" font-size="10.00">+ getViewers()</text>
<text text-anchor="start" x="8" y="-565.5" font-family="Helvetica,sans-Serif" font-size="10.00">+ spawnTo()</text>
<text text-anchor="start" x="8" y="-552.5" font-family="Helvetica,sans-Serif" font-size="10.00">+ despawnFrom()</text>
<text text-anchor="start" x="8" y="-539.5" font-family="Helvetica,sans-Serif" font-size="10.00">+ attack()</text>
<text text-anchor="start" x="8" y="-526.5" font-family="Helvetica,sans-Serif" font-size="10.00">+ heal()</text>
<text text-anchor="start" x="8" y="-513.5" font-family="Helvetica,sans-Serif" font-size="10.00">+ getHealth()</text>
<text text-anchor="start" x="8" y="-500.5" font-family="Helvetica,sans-Serif" font-size="10.00">+ setHealth()</text>
<text text-anchor="start" x="8" y="-487.5" font-family="Helvetica,sans-Serif" font-size="10.00">+ getMaxHealth()</text>
<text text-anchor="start" x="8" y="-474.5" font-family="Helvetica,sans-Serif" font-size="10.00">and 38 more...# initEntity()</text>
<text text-anchor="start" x="8" y="-461.5" font-family="Helvetica,sans-Serif" font-size="10.00"># checkObstruction()</text>
<text text-anchor="start" x="8" y="-448.5" font-family="Helvetica,sans-Serif" font-size="10.00"># updateFallState()</text>
<text text-anchor="start" x="8" y="-435.5" font-family="Helvetica,sans-Serif" font-size="10.00"># switchLevel()</text>
<text text-anchor="start" x="8" y="-422.5" font-family="Helvetica,sans-Serif" font-size="10.00"># checkBlockCollision()</text>
</a>
</g>
<!-- Node5&#45;&gt;Node4 -->
<g id="edge8" class="edge"><title>Node5&#45;&gt;Node4</title>
<path fill="none" stroke="midnightblue" d="M139.05,-404.531C141.46,-394.627 143.683,-385.496 145.655,-377.392"/>
<polygon fill="none" stroke="midnightblue" points="135.647,-403.712 136.683,-414.256 142.448,-405.367 135.647,-403.712"/>
</g>
<!-- Node6 -->
<g id="node10" class="node"><title>Node6</title>
<a xlink:href="../../d7/da6/interfacepocketmine_1_1entity_1_1_damageable.html" target="_top" xlink:title="{pocketmine\\entity\\Damageable\n||}">
<polygon fill="white" stroke="black" points="162,-648.5 162,-711.5 314,-711.5 314,-648.5 162,-648.5"/>
<text text-anchor="middle" x="238" y="-698.5" font-family="Helvetica,sans-Serif" font-size="10.00">pocketmine\entity\Damageable</text>
<polyline fill="none" stroke="black" points="162,-690.5 314,-690.5 "/>
<text text-anchor="middle" x="238" y="-677.5" font-family="Helvetica,sans-Serif" font-size="10.00"> </text>
<polyline fill="none" stroke="black" points="162,-669.5 314,-669.5 "/>
<text text-anchor="middle" x="238" y="-656.5" font-family="Helvetica,sans-Serif" font-size="10.00"> </text>
</a>
</g>
<!-- Node6&#45;&gt;Node4 -->
<g id="edge10" class="edge"><title>Node6&#45;&gt;Node4</title>
<path fill="none" stroke="midnightblue" d="M227.893,-638.475C211.663,-571.797 180.025,-441.813 164.314,-377.266"/>
<polygon fill="none" stroke="midnightblue" points="224.5,-639.337 230.266,-648.226 231.302,-637.682 224.5,-639.337"/>
</g>
<!-- Node7 -->
<g id="node12" class="node"><title>Node7</title>
<a xlink:href="../../de/d83/interfacepocketmine_1_1entity_1_1_projectile_source.html" target="_top" xlink:title="{pocketmine\\entity\\ProjectileSource\n||}">
<polygon fill="white" stroke="black" points="239,-100.5 239,-163.5 407,-163.5 407,-100.5 239,-100.5"/>
<text text-anchor="middle" x="323" y="-150.5" font-family="Helvetica,sans-Serif" font-size="10.00">pocketmine\entity\ProjectileSource</text>
<polyline fill="none" stroke="black" points="239,-142.5 407,-142.5 "/>
<text text-anchor="middle" x="323" y="-129.5" font-family="Helvetica,sans-Serif" font-size="10.00"> </text>
<polyline fill="none" stroke="black" points="239,-121.5 407,-121.5 "/>
<text text-anchor="middle" x="323" y="-108.5" font-family="Helvetica,sans-Serif" font-size="10.00"> </text>
</a>
</g>
<!-- Node7&#45;&gt;Node1 -->
<g id="edge12" class="edge"><title>Node7&#45;&gt;Node1</title>
<path fill="none" stroke="midnightblue" d="M289.827,-92.5088C281.819,-82.9748 273.362,-72.907 265.694,-63.778"/>
<polygon fill="none" stroke="midnightblue" points="287.31,-94.9535 296.422,-100.359 292.67,-90.4511 287.31,-94.9535"/>
</g>
</g>
</svg>
        <g id="navigator" transform="translate(0 0)" fill="#404254">
                <rect fill="#f2f5e9" fill-opacity="0.5" stroke="#606060" stroke-width=".5" x="0" y="0" width="60" height="60"/>
                <use id="zoomplus" xlink:href="#zoomPlus" x="17" y="9" onmousedown="handleZoom(evt,'in')"/>
                <use id="zoomminus" xlink:href="#zoomMin" x="42" y="9" onmousedown="handleZoom(evt,'out')"/>
                <use id="reset" xlink:href="#resetDef" x="30" y="36" onmousedown="handleReset()"/>
                <g id="arrowUp" xlink:href="#dirArrow" transform="translate(30 24)" onmousedown="handlePan(0,-1)">
                  <use xlink:href="#rim" fill="#404040">
                        <set attributeName="fill" to="#808080" begin="arrowUp.mouseover" end="arrowUp.mouseout"/>
                  </use>
                  <path fill="none" stroke="white" stroke-width="1.5" d="M0,-3.0v7 M-2.5,-0.5L0,-3.0L2.5,-0.5"/>
                </g>
                <g id="arrowRight" xlink:href="#dirArrow" transform="rotate(90) translate(36 -43)" onmousedown="handlePan(1,0)">
                  <use xlink:href="#rim" fill="#404040">
                        <set attributeName="fill" to="#808080" begin="arrowRight.mouseover" end="arrowRight.mouseout"/>
                  </use>
                  <path fill="none" stroke="white" stroke-width="1.5" d="M0,-3.0v7 M-2.5,-0.5L0,-3.0L2.5,-0.5"/>
                </g>
                <g id="arrowDown" xlink:href="#dirArrow" transform="rotate(180) translate(-30 -48)" onmousedown="handlePan(0,1)">
                  <use xlink:href="#rim" fill="#404040">
                        <set attributeName="fill" to="#808080" begin="arrowDown.mouseover" end="arrowDown.mouseout"/>
                  </use>
                  <path fill="none" stroke="white" stroke-width="1.5" d="M0,-3.0v7 M-2.5,-0.5L0,-3.0L2.5,-0.5"/>
                </g>
                <g id="arrowLeft" xlink:href="#dirArrow" transform="rotate(270) translate(-36 17)" onmousedown="handlePan(-1,0)">
                  <use xlink:href="#rim" fill="#404040">
                        <set attributeName="fill" to="#808080" begin="arrowLeft.mouseover" end="arrowLeft.mouseout"/>
                  </use>
                  <path fill="none" stroke="white" stroke-width="1.5" d="M0,-3.0v7 M-2.5,-0.5L0,-3.0L2.5,-0.5"/>
                </g>
        </g>
</svg>
