<?xml version="1.0" encoding="UTF-8" standalone="no"?>
<!DOCTYPE svg PUBLIC "-//W3C//DTD SVG 1.1//EN"
 "http://www.w3.org/Graphics/SVG/1.1/DTD/svg11.dtd">
<!-- Generated by graphviz version 2.36.0 (20140111.2315)
 -->
<!-- Title: pocketmine\utils\Random\nextSignedInt Pages: 1 -->
<svg width="494pt" height="136pt"
 viewBox="0.00 0.00 494.00 136.00" xmlns="http://www.w3.org/2000/svg" xmlns:xlink="http://www.w3.org/1999/xlink">
<g id="graph0" class="graph" transform="scale(1 1) rotate(0) translate(4 132)">
<title>pocketmine\utils\Random\nextSignedInt</title>
<polygon fill="white" stroke="none" points="-4,4 -4,-132 490,-132 490,4 -4,4"/>
<!-- Node1 -->
<g id="node1" class="node"><title>Node1</title>
<polygon fill="#bfbfbf" stroke="black" points="0,-49 0,-79 138,-79 138,-49 0,-49"/>
<text text-anchor="start" x="8" y="-67" font-family="Helvetica,sans-Serif" font-size="10.00">pocketmine\utils\Random</text>
<text text-anchor="middle" x="69" y="-56" font-family="Helvetica,sans-Serif" font-size="10.00">\nextSignedInt</text>
</g>
<!-- Node2 -->
<g id="node2" class="node"><title>Node2</title>
<g id="a_node2"><a xlink:href="../../db/dcb/classpocketmine_1_1utils_1_1_random.html#a2600510e4b1c0056d1cbcc3df6afb19c" target="_top" xlink:title="pocketmine\\utils\\Random\l\\nextBoolean">
<polygon fill="white" stroke="black" points="174,-98 174,-128 312,-128 312,-98 174,-98"/>
<text text-anchor="start" x="182" y="-116" font-family="Helvetica,sans-Serif" font-size="10.00">pocketmine\utils\Random</text>
<text text-anchor="middle" x="243" y="-105" font-family="Helvetica,sans-Serif" font-size="10.00">\nextBoolean</text>
</a>
</g>
</g>
<!-- Node1&#45;&gt;Node2 -->
<g id="edge1" class="edge"><title>Node1&#45;&gt;Node2</title>
<path fill="none" stroke="midnightblue" d="M132.812,-81.8941C151.312,-87.1644 171.359,-92.8755 189.166,-97.9484"/>
<polygon fill="midnightblue" stroke="midnightblue" points="133.585,-78.4753 123.009,-79.1014 131.668,-85.2074 133.585,-78.4753"/>
</g>
<!-- Node3 -->
<g id="node3" class="node"><title>Node3</title>
<g id="a_node3"><a xlink:href="../../db/dcb/classpocketmine_1_1utils_1_1_random.html#aa5237479b44aaa36c301a06f23d2ee21" target="_top" xlink:title="pocketmine\\utils\\Random\l\\nextInt">
<polygon fill="white" stroke="black" points="174,-49 174,-79 312,-79 312,-49 174,-49"/>
<text text-anchor="start" x="182" y="-67" font-family="Helvetica,sans-Serif" font-size="10.00">pocketmine\utils\Random</text>
<text text-anchor="middle" x="243" y="-56" font-family="Helvetica,sans-Serif" font-size="10.00">\nextInt</text>
</a>
</g>
</g>
<!-- Node1&#45;&gt;Node3 -->
<g id="edge2" class="edge"><title>Node1&#45;&gt;Node3</title>
<path fill="none" stroke="midnightblue" d="M148.637,-64C157.025,-64 165.508,-64 173.762,-64"/>
<polygon fill="midnightblue" stroke="midnightblue" points="148.473,-60.5001 138.473,-64 148.473,-67.5001 148.473,-60.5001"/>
</g>
<!-- Node6 -->
<g id="node6" class="node"><title>Node6</title>
<g id="a_node6"><a xlink:href="../../db/dcb/classpocketmine_1_1utils_1_1_random.html#ae98fc8c86f8eadc828cf5816df3fbbc3" target="_top" xlink:title="pocketmine\\utils\\Random\l\\nextSignedFloat">
<polygon fill="white" stroke="black" points="174,-0 174,-30 312,-30 312,-0 174,-0"/>
<text text-anchor="start" x="182" y="-18" font-family="Helvetica,sans-Serif" font-size="10.00">pocketmine\utils\Random</text>
<text text-anchor="middle" x="243" y="-7" font-family="Helvetica,sans-Serif" font-size="10.00">\nextSignedFloat</text>
</a>
</g>
</g>
<!-- Node1&#45;&gt;Node6 -->
<g id="edge5" class="edge"><title>Node1&#45;&gt;Node6</title>
<path fill="none" stroke="midnightblue" d="M132.812,-46.1059C151.312,-40.8356 171.359,-35.1245 189.166,-30.0516"/>
<polygon fill="midnightblue" stroke="midnightblue" points="131.668,-42.7926 123.009,-48.8986 133.585,-49.5247 131.668,-42.7926"/>
</g>
<!-- Node4 -->
<g id="node4" class="node"><title>Node4</title>
<g id="a_node4"><a xlink:href="../../db/dcb/classpocketmine_1_1utils_1_1_random.html#a88cce78f9092b06a9e589880c92fb93a" target="_top" xlink:title="pocketmine\\utils\\Random\l\\nextFloat">
<polygon fill="white" stroke="black" points="348,-73 348,-103 486,-103 486,-73 348,-73"/>
<text text-anchor="start" x="356" y="-91" font-family="Helvetica,sans-Serif" font-size="10.00">pocketmine\utils\Random</text>
<text text-anchor="middle" x="417" y="-80" font-family="Helvetica,sans-Serif" font-size="10.00">\nextFloat</text>
</a>
</g>
</g>
<!-- Node3&#45;&gt;Node4 -->
<g id="edge3" class="edge"><title>Node3&#45;&gt;Node4</title>
<path fill="none" stroke="midnightblue" d="M322.637,-74.9726C331.025,-76.1431 339.508,-77.3267 347.762,-78.4785"/>
<polygon fill="midnightblue" stroke="midnightblue" points="322.861,-71.47 312.473,-73.5544 321.894,-78.4029 322.861,-71.47"/>
</g>
<!-- Node5 -->
<g id="node5" class="node"><title>Node5</title>
<g id="a_node5"><a xlink:href="../../db/dcb/classpocketmine_1_1utils_1_1_random.html#a45616986a984b8aa02d5008b66fc641f" target="_top" xlink:title="pocketmine\\utils\\Random\l\\nextRange">
<polygon fill="white" stroke="black" points="348,-24 348,-54 486,-54 486,-24 348,-24"/>
<text text-anchor="start" x="356" y="-42" font-family="Helvetica,sans-Serif" font-size="10.00">pocketmine\utils\Random</text>
<text text-anchor="middle" x="417" y="-31" font-family="Helvetica,sans-Serif" font-size="10.00">\nextRange</text>
</a>
</g>
</g>
<!-- Node3&#45;&gt;Node5 -->
<g id="edge4" class="edge"><title>Node3&#45;&gt;Node5</title>
<path fill="none" stroke="midnightblue" d="M322.637,-52.5702C331.025,-51.351 339.508,-50.118 347.762,-48.9183"/>
<polygon fill="midnightblue" stroke="midnightblue" points="321.866,-49.1454 312.473,-54.0475 322.873,-56.0727 321.866,-49.1454"/>
</g>
</g>
</svg>
