<?xml version="1.0" encoding="UTF-8" standalone="no"?>
<!DOCTYPE svg PUBLIC "-//W3C//DTD SVG 1.1//EN"
 "http://www.w3.org/Graphics/SVG/1.1/DTD/svg11.dtd">
<!-- Generated by graphviz version 2.36.0 (20140111.2315)
 -->
<!-- Title: pocketmine\event\entity\EntityDamageEvent Pages: 1 -->
<svg width="343pt" height="776pt"
 viewBox="0.00 0.00 343.00 776.00" xmlns="http://www.w3.org/2000/svg" xmlns:xlink="http://www.w3.org/1999/xlink">
<g id="graph0" class="graph" transform="scale(1 1) rotate(0) translate(4 772)">
<title>pocketmine\event\entity\EntityDamageEvent</title>
<polygon fill="white" stroke="none" points="-4,4 -4,-772 339,-772 339,4 -4,4"/>
<!-- Node1 -->
<g id="node1" class="node"><title>Node1</title>
<polygon fill="#bfbfbf" stroke="black" points="91.5,-278.5 91.5,-555.5 230.5,-555.5 230.5,-278.5 91.5,-278.5"/>
<text text-anchor="start" x="99.5" y="-543.5" font-family="Helvetica,sans-Serif" font-size="10.00">pocketmine\event\entity</text>
<text text-anchor="middle" x="161" y="-532.5" font-family="Helvetica,sans-Serif" font-size="10.00">\EntityDamageEvent</text>
<polyline fill="none" stroke="black" points="91.5,-525.5 230.5,-525.5 "/>
<text text-anchor="start" x="99.5" y="-513.5" font-family="Helvetica,sans-Serif" font-size="10.00">+ MODIFIER_BASE</text>
<text text-anchor="start" x="99.5" y="-502.5" font-family="Helvetica,sans-Serif" font-size="10.00">+ MODIFIER_ARMOR</text>
<text text-anchor="start" x="99.5" y="-491.5" font-family="Helvetica,sans-Serif" font-size="10.00">+ CAUSE_CONTACT</text>
<text text-anchor="start" x="99.5" y="-480.5" font-family="Helvetica,sans-Serif" font-size="10.00">+ CAUSE_ENTITY_ATTACK</text>
<text text-anchor="start" x="99.5" y="-469.5" font-family="Helvetica,sans-Serif" font-size="10.00">+ CAUSE_PROJECTILE</text>
<text text-anchor="start" x="99.5" y="-458.5" font-family="Helvetica,sans-Serif" font-size="10.00">+ CAUSE_SUFFOCATION</text>
<text text-anchor="start" x="99.5" y="-447.5" font-family="Helvetica,sans-Serif" font-size="10.00">+ CAUSE_FALL</text>
<text text-anchor="start" x="99.5" y="-436.5" font-family="Helvetica,sans-Serif" font-size="10.00">+ CAUSE_FIRE</text>
<text text-anchor="start" x="99.5" y="-425.5" font-family="Helvetica,sans-Serif" font-size="10.00">+ CAUSE_FIRE_TICK</text>
<text text-anchor="start" x="99.5" y="-414.5" font-family="Helvetica,sans-Serif" font-size="10.00">+ CAUSE_LAVA</text>
<text text-anchor="start" x="99.5" y="-403.5" font-family="Helvetica,sans-Serif" font-size="10.00">and 7 more...</text>
<text text-anchor="start" x="99.5" y="-392.5" font-family="Helvetica,sans-Serif" font-size="10.00">+ $handlerList</text>
<text text-anchor="start" x="99.5" y="-381.5" font-family="Helvetica,sans-Serif" font-size="10.00">+ $eventPool</text>
<text text-anchor="start" x="99.5" y="-370.5" font-family="Helvetica,sans-Serif" font-size="10.00">+ $nextEvent</text>
<polyline fill="none" stroke="black" points="91.5,-363.5 230.5,-363.5 "/>
<text text-anchor="start" x="99.5" y="-351.5" font-family="Helvetica,sans-Serif" font-size="10.00">+ __construct()</text>
<text text-anchor="start" x="99.5" y="-340.5" font-family="Helvetica,sans-Serif" font-size="10.00">+ getCause()</text>
<text text-anchor="start" x="99.5" y="-329.5" font-family="Helvetica,sans-Serif" font-size="10.00">+ getOriginalDamage()</text>
<text text-anchor="start" x="99.5" y="-318.5" font-family="Helvetica,sans-Serif" font-size="10.00">+ getDamage()</text>
<text text-anchor="start" x="99.5" y="-307.5" font-family="Helvetica,sans-Serif" font-size="10.00">+ setDamage()</text>
<text text-anchor="start" x="99.5" y="-296.5" font-family="Helvetica,sans-Serif" font-size="10.00">+ isApplicable()</text>
<text text-anchor="start" x="99.5" y="-285.5" font-family="Helvetica,sans-Serif" font-size="10.00">+ getFinalDamage()</text>
</g>
<!-- Node5 -->
<g id="node5" class="node"><title>Node5</title>
<g id="a_node5"><a xlink:href="../../da/dbf/classpocketmine_1_1event_1_1entity_1_1_entity_damage_by_block_event.html" target="_top" xlink:title="{pocketmine\\event\\entity\l\\EntityDamageByBlockEvent\n|+ $eventPool\l+ $nextEvent\l|+ __construct()\l+ getDamager()\l}">
<polygon fill="white" stroke="black" points="0,-140 0,-230 152,-230 152,-140 0,-140"/>
<text text-anchor="start" x="8" y="-218" font-family="Helvetica,sans-Serif" font-size="10.00">pocketmine\event\entity</text>
<text text-anchor="middle" x="76" y="-207" font-family="Helvetica,sans-Serif" font-size="10.00">\EntityDamageByBlockEvent</text>
<polyline fill="none" stroke="black" points="0,-200 152,-200 "/>
<text text-anchor="start" x="8" y="-188" font-family="Helvetica,sans-Serif" font-size="10.00">+ $eventPool</text>
<text text-anchor="start" x="8" y="-177" font-family="Helvetica,sans-Serif" font-size="10.00">+ $nextEvent</text>
<polyline fill="none" stroke="black" points="0,-170 152,-170 "/>
<text text-anchor="start" x="8" y="-158" font-family="Helvetica,sans-Serif" font-size="10.00">+ __construct()</text>
<text text-anchor="start" x="8" y="-147" font-family="Helvetica,sans-Serif" font-size="10.00">+ getDamager()</text>
</a>
</g>
</g>
<!-- Node1&#45;&gt;Node5 -->
<g id="edge4" class="edge"><title>Node1&#45;&gt;Node5</title>
<path fill="none" stroke="midnightblue" d="M106.535,-268.623C101.461,-254.894 96.6348,-241.835 92.3794,-230.321"/>
<polygon fill="none" stroke="midnightblue" points="103.333,-270.058 110.083,-278.225 109.899,-267.631 103.333,-270.058"/>
</g>
<!-- Node6 -->
<g id="node6" class="node"><title>Node6</title>
<g id="a_node6"><a xlink:href="../../d0/d34/classpocketmine_1_1event_1_1entity_1_1_entity_damage_by_entity_event.html" target="_top" xlink:title="{pocketmine\\event\\entity\l\\EntityDamageByEntityEvent\n|+ $eventPool\l+ $nextEvent\l|+ __construct()\l+ getDamager()\l+ getKnockBack()\l+ setKnockBack()\l}">
<polygon fill="white" stroke="black" points="170,-129 170,-241 324,-241 324,-129 170,-129"/>
<text text-anchor="start" x="178" y="-229" font-family="Helvetica,sans-Serif" font-size="10.00">pocketmine\event\entity</text>
<text text-anchor="middle" x="247" y="-218" font-family="Helvetica,sans-Serif" font-size="10.00">\EntityDamageByEntityEvent</text>
<polyline fill="none" stroke="black" points="170,-211 324,-211 "/>
<text text-anchor="start" x="178" y="-199" font-family="Helvetica,sans-Serif" font-size="10.00">+ $eventPool</text>
<text text-anchor="start" x="178" y="-188" font-family="Helvetica,sans-Serif" font-size="10.00">+ $nextEvent</text>
<polyline fill="none" stroke="black" points="170,-181 324,-181 "/>
<text text-anchor="start" x="178" y="-169" font-family="Helvetica,sans-Serif" font-size="10.00">+ __construct()</text>
<text text-anchor="start" x="178" y="-158" font-family="Helvetica,sans-Serif" font-size="10.00">+ getDamager()</text>
<text text-anchor="start" x="178" y="-147" font-family="Helvetica,sans-Serif" font-size="10.00">+ getKnockBack()</text>
<text text-anchor="start" x="178" y="-136" font-family="Helvetica,sans-Serif" font-size="10.00">+ setKnockBack()</text>
</a>
</g>
</g>
<!-- Node1&#45;&gt;Node6 -->
<g id="edge5" class="edge"><title>Node1&#45;&gt;Node6</title>
<path fill="none" stroke="midnightblue" d="M216.02,-268.852C219.64,-259.172 223.136,-249.822 226.394,-241.109"/>
<polygon fill="none" stroke="midnightblue" points="212.74,-267.632 212.516,-278.225 219.297,-270.084 212.74,-267.632"/>
</g>
<!-- Node2 -->
<g id="node2" class="node"><title>Node2</title>
<g id="a_node2"><a xlink:href="../../de/d84/classpocketmine_1_1event_1_1entity_1_1_entity_event.html" target="_top" xlink:title="{pocketmine\\event\\entity\l\\EntityEvent\n|# $entity\l|+ getEntity()\l}">
<polygon fill="white" stroke="black" points="12.5,-593 12.5,-661 145.5,-661 145.5,-593 12.5,-593"/>
<text text-anchor="start" x="20.5" y="-649" font-family="Helvetica,sans-Serif" font-size="10.00">pocketmine\event\entity</text>
<text text-anchor="middle" x="79" y="-638" font-family="Helvetica,sans-Serif" font-size="10.00">\EntityEvent</text>
<polyline fill="none" stroke="black" points="12.5,-631 145.5,-631 "/>
<text text-anchor="start" x="20.5" y="-619" font-family="Helvetica,sans-Serif" font-size="10.00"># $entity</text>
<polyline fill="none" stroke="black" points="12.5,-612 145.5,-612 "/>
<text text-anchor="start" x="20.5" y="-600" font-family="Helvetica,sans-Serif" font-size="10.00">+ getEntity()</text>
</a>
</g>
</g>
<!-- Node2&#45;&gt;Node1 -->
<g id="edge1" class="edge"><title>Node2&#45;&gt;Node1</title>
<path fill="none" stroke="midnightblue" d="M95.9357,-583.041C99.2766,-574.567 102.948,-565.255 106.792,-555.504"/>
<polygon fill="none" stroke="midnightblue" points="92.5863,-581.994 92.1747,-592.581 99.0985,-584.562 92.5863,-581.994"/>
</g>
<!-- Node3 -->
<g id="node3" class="node"><title>Node3</title>
<g id="a_node3"><a xlink:href="../../d1/d2f/classpocketmine_1_1event_1_1_event.html" target="_top" xlink:title="{pocketmine\\event\\Event\n|# $eventName\l|+ getEventName()\l+ getHandlers()\l}">
<polygon fill="white" stroke="black" points="12.5,-699 12.5,-767 145.5,-767 145.5,-699 12.5,-699"/>
<text text-anchor="middle" x="79" y="-755" font-family="Helvetica,sans-Serif" font-size="10.00">pocketmine\event\Event</text>
<polyline fill="none" stroke="black" points="12.5,-748 145.5,-748 "/>
<text text-anchor="start" x="20.5" y="-736" font-family="Helvetica,sans-Serif" font-size="10.00"># $eventName</text>
<polyline fill="none" stroke="black" points="12.5,-729 145.5,-729 "/>
<text text-anchor="start" x="20.5" y="-717" font-family="Helvetica,sans-Serif" font-size="10.00">+ getEventName()</text>
<text text-anchor="start" x="20.5" y="-706" font-family="Helvetica,sans-Serif" font-size="10.00">+ getHandlers()</text>
</a>
</g>
</g>
<!-- Node3&#45;&gt;Node2 -->
<g id="edge2" class="edge"><title>Node3&#45;&gt;Node2</title>
<path fill="none" stroke="midnightblue" d="M79,-688.674C79,-679.502 79,-669.961 79,-661.234"/>
<polygon fill="none" stroke="midnightblue" points="75.5001,-688.808 79,-698.808 82.5001,-688.808 75.5001,-688.808"/>
</g>
<!-- Node4 -->
<g id="node4" class="node"><title>Node4</title>
<g id="a_node4"><a xlink:href="../../db/d62/interfacepocketmine_1_1event_1_1_cancellable.html" target="_top" xlink:title="{pocketmine\\event\\Cancellable\n||+ isCancelled()\l+ setCancelled()\l}">
<polygon fill="white" stroke="black" points="163.5,-593 163.5,-661 324.5,-661 324.5,-593 163.5,-593"/>
<text text-anchor="middle" x="244" y="-649" font-family="Helvetica,sans-Serif" font-size="10.00">pocketmine\event\Cancellable</text>
<polyline fill="none" stroke="black" points="163.5,-642 324.5,-642 "/>
<text text-anchor="middle" x="244" y="-630" font-family="Helvetica,sans-Serif" font-size="10.00"> </text>
<polyline fill="none" stroke="black" points="163.5,-623 324.5,-623 "/>
<text text-anchor="start" x="171.5" y="-611" font-family="Helvetica,sans-Serif" font-size="10.00">+ isCancelled()</text>
<text text-anchor="start" x="171.5" y="-600" font-family="Helvetica,sans-Serif" font-size="10.00">+ setCancelled()</text>
</a>
</g>
</g>
<!-- Node4&#45;&gt;Node1 -->
<g id="edge3" class="edge"><title>Node4&#45;&gt;Node1</title>
<path fill="none" stroke="midnightblue" d="M226.858,-583.041C223.476,-574.567 219.76,-565.255 215.869,-555.504"/>
<polygon fill="none" stroke="midnightblue" points="223.708,-584.591 230.665,-592.581 230.209,-581.996 223.708,-584.591"/>
</g>
<!-- Node7 -->
<g id="node7" class="node"><title>Node7</title>
<g id="a_node7"><a xlink:href="../../de/d62/classpocketmine_1_1event_1_1entity_1_1_entity_damage_by_child_entity_event.html" target="_top" xlink:title="{pocketmine\\event\\entity\l\\EntityDamageByChildEntityEvent\n|+ $eventPool\l+ $nextEvent\l|+ __construct()\l+ getChild()\l}">
<polygon fill="white" stroke="black" points="158.5,-1 158.5,-91 335.5,-91 335.5,-1 158.5,-1"/>
<text text-anchor="start" x="166.5" y="-79" font-family="Helvetica,sans-Serif" font-size="10.00">pocketmine\event\entity</text>
<text text-anchor="middle" x="247" y="-68" font-family="Helvetica,sans-Serif" font-size="10.00">\EntityDamageByChildEntityEvent</text>
<polyline fill="none" stroke="black" points="158.5,-61 335.5,-61 "/>
<text text-anchor="start" x="166.5" y="-49" font-family="Helvetica,sans-Serif" font-size="10.00">+ $eventPool</text>
<text text-anchor="start" x="166.5" y="-38" font-family="Helvetica,sans-Serif" font-size="10.00">+ $nextEvent</text>
<polyline fill="none" stroke="black" points="158.5,-31 335.5,-31 "/>
<text text-anchor="start" x="166.5" y="-19" font-family="Helvetica,sans-Serif" font-size="10.00">+ __construct()</text>
<text text-anchor="start" x="166.5" y="-8" font-family="Helvetica,sans-Serif" font-size="10.00">+ getChild()</text>
</a>
</g>
</g>
<!-- Node6&#45;&gt;Node7 -->
<g id="edge6" class="edge"><title>Node6&#45;&gt;Node7</title>
<path fill="none" stroke="midnightblue" d="M247,-118.634C247,-109.326 247,-99.9403 247,-91.1667"/>
<polygon fill="none" stroke="midnightblue" points="243.5,-118.672 247,-128.672 250.5,-118.672 243.5,-118.672"/>
</g>
</g>
</svg>
