<?xml version="1.0" encoding="UTF-8" standalone="no"?>
<!DOCTYPE svg PUBLIC "-//W3C//DTD SVG 1.1//EN"
 "http://www.w3.org/Graphics/SVG/1.1/DTD/svg11.dtd">
<!-- Generated by graphviz version 2.36.0 (20140111.2315)
 -->
<!-- Title: pocketmine\event\level\LevelInitEvent Pages: 1 -->
<svg width="140pt" height="322pt"
 viewBox="0.00 0.00 140.00 322.00" xmlns="http://www.w3.org/2000/svg" xmlns:xlink="http://www.w3.org/1999/xlink">
<g id="graph0" class="graph" transform="scale(1 1) rotate(0) translate(4 318)">
<title>pocketmine\event\level\LevelInitEvent</title>
<polygon fill="white" stroke="none" points="-4,4 -4,-318 136,-318 136,4 -4,4"/>
<!-- Node1 -->
<g id="node1" class="node"><title>Node1</title>
<polygon fill="#bfbfbf" stroke="black" points="2,-1 2,-91 130,-91 130,-1 2,-1"/>
<text text-anchor="start" x="10" y="-79" font-family="Helvetica,sans-Serif" font-size="10.00">pocketmine\event\level</text>
<text text-anchor="middle" x="66" y="-68" font-family="Helvetica,sans-Serif" font-size="10.00">\LevelInitEvent</text>
<polyline fill="none" stroke="black" points="2,-61 130,-61 "/>
<text text-anchor="start" x="10" y="-49" font-family="Helvetica,sans-Serif" font-size="10.00">+ $handlerList</text>
<text text-anchor="start" x="10" y="-38" font-family="Helvetica,sans-Serif" font-size="10.00">+ $eventPool</text>
<text text-anchor="start" x="10" y="-27" font-family="Helvetica,sans-Serif" font-size="10.00">+ $nextEvent</text>
<polyline fill="none" stroke="black" points="2,-20 130,-20 "/>
<text text-anchor="middle" x="66" y="-8" font-family="Helvetica,sans-Serif" font-size="10.00"> </text>
</g>
<!-- Node2 -->
<g id="node2" class="node"><title>Node2</title>
<g id="a_node2"><a xlink:href="../../d5/dbb/classpocketmine_1_1event_1_1level_1_1_level_event.html" target="_top" xlink:title="{pocketmine\\event\\level\l\\LevelEvent\n||+ __construct()\l+ getLevel()\l}">
<polygon fill="white" stroke="black" points="2,-128.5 2,-207.5 130,-207.5 130,-128.5 2,-128.5"/>
<text text-anchor="start" x="10" y="-195.5" font-family="Helvetica,sans-Serif" font-size="10.00">pocketmine\event\level</text>
<text text-anchor="middle" x="66" y="-184.5" font-family="Helvetica,sans-Serif" font-size="10.00">\LevelEvent</text>
<polyline fill="none" stroke="black" points="2,-177.5 130,-177.5 "/>
<text text-anchor="middle" x="66" y="-165.5" font-family="Helvetica,sans-Serif" font-size="10.00"> </text>
<polyline fill="none" stroke="black" points="2,-158.5 130,-158.5 "/>
<text text-anchor="start" x="10" y="-146.5" font-family="Helvetica,sans-Serif" font-size="10.00">+ __construct()</text>
<text text-anchor="start" x="10" y="-135.5" font-family="Helvetica,sans-Serif" font-size="10.00">+ getLevel()</text>
</a>
</g>
</g>
<!-- Node2&#45;&gt;Node1 -->
<g id="edge1" class="edge"><title>Node2&#45;&gt;Node1</title>
<path fill="none" stroke="midnightblue" d="M66,-118.176C66,-109.318 66,-100.123 66,-91.4012"/>
<polygon fill="none" stroke="midnightblue" points="62.5001,-118.371 66,-128.371 69.5001,-118.371 62.5001,-118.371"/>
</g>
<!-- Node3 -->
<g id="node3" class="node"><title>Node3</title>
<g id="a_node3"><a xlink:href="../../d1/d2f/classpocketmine_1_1event_1_1_event.html" target="_top" xlink:title="{pocketmine\\event\\Event\n|# $eventName\l|+ getEventName()\l+ getHandlers()\l}">
<polygon fill="white" stroke="black" points="-0.5,-245 -0.5,-313 132.5,-313 132.5,-245 -0.5,-245"/>
<text text-anchor="middle" x="66" y="-301" font-family="Helvetica,sans-Serif" font-size="10.00">pocketmine\event\Event</text>
<polyline fill="none" stroke="black" points="-0.5,-294 132.5,-294 "/>
<text text-anchor="start" x="7.5" y="-282" font-family="Helvetica,sans-Serif" font-size="10.00"># $eventName</text>
<polyline fill="none" stroke="black" points="-0.5,-275 132.5,-275 "/>
<text text-anchor="start" x="7.5" y="-263" font-family="Helvetica,sans-Serif" font-size="10.00">+ getEventName()</text>
<text text-anchor="start" x="7.5" y="-252" font-family="Helvetica,sans-Serif" font-size="10.00">+ getHandlers()</text>
</a>
</g>
</g>
<!-- Node3&#45;&gt;Node2 -->
<g id="edge2" class="edge"><title>Node3&#45;&gt;Node2</title>
<path fill="none" stroke="midnightblue" d="M66,-234.575C66,-225.737 66,-216.493 66,-207.827"/>
<polygon fill="none" stroke="midnightblue" points="62.5001,-234.704 66,-244.704 69.5001,-234.704 62.5001,-234.704"/>
</g>
</g>
</svg>
