<?xml version="1.0" encoding="UTF-8" standalone="no"?>
<!DOCTYPE svg PUBLIC "-//W3C//DTD SVG 1.1//EN"
 "http://www.w3.org/Graphics/SVG/1.1/DTD/svg11.dtd">
<!-- Generated by graphviz version 2.26.3 (20100126.1600)
 -->
<!-- Title: G Pages: 1 -->
<svg width="190pt" height="326pt"
 viewBox="0.00 0.00 190.00 326.00" xmlns="http://www.w3.org/2000/svg" xmlns:xlink="http://www.w3.org/1999/xlink">
<g id="graph1" class="graph" transform="scale(1 1) rotate(0) translate(4 322)">
<title>G</title>
<polygon fill="white" stroke="white" points="-4,5 -4,-322 187,-322 187,5 -4,5"/>
<!-- Node1 -->
<g id="node1" class="node"><title>Node1</title>
<polygon fill="#bfbfbf" stroke="black" points="0,-0.5 0,-63.5 182,-63.5 182,-0.5 0,-0.5"/>
<text text-anchor="middle" x="91" y="-50.5" font-family="Helvetica,sans-Serif" font-size="10.00">pocketmine\event\level\LevelInitEvent</text>
<polyline fill="none" stroke="black" points="0,-42.5 182,-42.5 "/>
<text text-anchor="start" x="8" y="-29.5" font-family="Helvetica,sans-Serif" font-size="10.00">+ $handlerList</text>
<polyline fill="none" stroke="black" points="0,-21.5 182,-21.5 "/>
<text text-anchor="middle" x="91" y="-8.5" font-family="Helvetica,sans-Serif" font-size="10.00"> </text>
</g>
<!-- Node2 -->
<g id="node2" class="node"><title>Node2</title>
<a xlink:href="../../d5/dbb/classpocketmine_1_1event_1_1level_1_1_level_event.html" target="_top" xlink:title="{pocketmine\\event\\level\\LevelEvent\n||+ __construct()\l+ getLevel()\l}">
<polygon fill="white" stroke="black" points="6.5,-101 6.5,-177 175.5,-177 175.5,-101 6.5,-101"/>
<text text-anchor="middle" x="91" y="-164" font-family="Helvetica,sans-Serif" font-size="10.00">pocketmine\event\level\LevelEvent</text>
<polyline fill="none" stroke="black" points="6.5,-156 175.5,-156 "/>
<text text-anchor="middle" x="91" y="-143" font-family="Helvetica,sans-Serif" font-size="10.00"> </text>
<polyline fill="none" stroke="black" points="6.5,-135 175.5,-135 "/>
<text text-anchor="start" x="14.5" y="-122" font-family="Helvetica,sans-Serif" font-size="10.00">+ __construct()</text>
<text text-anchor="start" x="14.5" y="-109" font-family="Helvetica,sans-Serif" font-size="10.00">+ getLevel()</text>
</a>
</g>
<!-- Node2&#45;&gt;Node1 -->
<g id="edge2" class="edge"><title>Node2&#45;&gt;Node1</title>
<path fill="none" stroke="midnightblue" d="M91,-90.7158C91,-81.4987 91,-72.0731 91,-63.5474"/>
<polygon fill="none" stroke="midnightblue" points="87.5001,-90.9745 91,-100.975 94.5001,-90.9746 87.5001,-90.9745"/>
</g>
<!-- Node3 -->
<g id="node4" class="node"><title>Node3</title>
<a xlink:href="../../d1/d2f/classpocketmine_1_1event_1_1_event.html" target="_top" xlink:title="{pocketmine\\event\\Event\n|# $eventName\l|+ getEventName()\l+ isCancelled()\l+ setCancelled()\l+ getHandlers()\l}">
<polygon fill="white" stroke="black" points="30,-215 30,-317 152,-317 152,-215 30,-215"/>
<text text-anchor="middle" x="91" y="-304" font-family="Helvetica,sans-Serif" font-size="10.00">pocketmine\event\Event</text>
<polyline fill="none" stroke="black" points="30,-296 152,-296 "/>
<text text-anchor="start" x="38" y="-283" font-family="Helvetica,sans-Serif" font-size="10.00"># $eventName</text>
<polyline fill="none" stroke="black" points="30,-275 152,-275 "/>
<text text-anchor="start" x="38" y="-262" font-family="Helvetica,sans-Serif" font-size="10.00">+ getEventName()</text>
<text text-anchor="start" x="38" y="-249" font-family="Helvetica,sans-Serif" font-size="10.00">+ isCancelled()</text>
<text text-anchor="start" x="38" y="-236" font-family="Helvetica,sans-Serif" font-size="10.00">+ setCancelled()</text>
<text text-anchor="start" x="38" y="-223" font-family="Helvetica,sans-Serif" font-size="10.00">+ getHandlers()</text>
</a>
</g>
<!-- Node3&#45;&gt;Node2 -->
<g id="edge4" class="edge"><title>Node3&#45;&gt;Node2</title>
<path fill="none" stroke="midnightblue" d="M91,-204.625C91,-195.273 91,-185.859 91,-177.197"/>
<polygon fill="none" stroke="midnightblue" points="87.5001,-204.71 91,-214.71 94.5001,-204.71 87.5001,-204.71"/>
</g>
</g>
</svg>
