<?xml version="1.0" encoding="UTF-8" standalone="no"?>
<!DOCTYPE svg PUBLIC "-//W3C//DTD SVG 1.1//EN"
 "http://www.w3.org/Graphics/SVG/1.1/DTD/svg11.dtd">
<!-- Generated by graphviz version 2.36.0 (20140111.2315)
 -->
<!-- Title: pocketmine\level\format\anvil\Anvil\getChunk Pages: 1 -->
<svg width="336pt" height="38pt"
 viewBox="0.00 0.00 336.00 38.00" xmlns="http://www.w3.org/2000/svg" xmlns:xlink="http://www.w3.org/1999/xlink">
<g id="graph0" class="graph" transform="scale(1 1) rotate(0) translate(4 34)">
<title>pocketmine\level\format\anvil\Anvil\getChunk</title>
<polygon fill="white" stroke="none" points="-4,4 -4,-34 332,-34 332,4 -4,4"/>
<!-- Node1 -->
<g id="node1" class="node"><title>Node1</title>
<polygon fill="#bfbfbf" stroke="black" points="0.5,-0 0.5,-30 133.5,-30 133.5,-0 0.5,-0"/>
<text text-anchor="start" x="8.5" y="-18" font-family="Helvetica,sans-Serif" font-size="10.00">pocketmine\level\format</text>
<text text-anchor="middle" x="67" y="-7" font-family="Helvetica,sans-Serif" font-size="10.00">\anvil\Anvil\getChunk</text>
</g>
<!-- Node2 -->
<g id="node2" class="node"><title>Node2</title>
<g id="a_node2"><a xlink:href="../../db/dbb/classpocketmine_1_1level_1_1format_1_1anvil_1_1_anvil.html#afd473308e2ab7513c2e23f33e1a0bba8" target="_top" xlink:title="pocketmine\\level\\format\l\\anvil\\Anvil\\isChunkGenerated">
<polygon fill="white" stroke="black" points="170,-0 170,-30 328,-30 328,-0 170,-0"/>
<text text-anchor="start" x="178" y="-18" font-family="Helvetica,sans-Serif" font-size="10.00">pocketmine\level\format</text>
<text text-anchor="middle" x="249" y="-7" font-family="Helvetica,sans-Serif" font-size="10.00">\anvil\Anvil\isChunkGenerated</text>
</a>
</g>
</g>
<!-- Node1&#45;&gt;Node2 -->
<g id="edge1" class="edge"><title>Node1&#45;&gt;Node2</title>
<path fill="none" stroke="midnightblue" d="M143.784,-15C152.42,-15 161.235,-15 169.901,-15"/>
<polygon fill="midnightblue" stroke="midnightblue" points="143.748,-11.5001 133.748,-15 143.748,-18.5001 143.748,-11.5001"/>
</g>
</g>
</svg>
