<?xml version="1.0" encoding="UTF-8" standalone="no"?>
<!DOCTYPE svg PUBLIC "-//W3C//DTD SVG 1.1//EN"
 "http://www.w3.org/Graphics/SVG/1.1/DTD/svg11.dtd">
<!-- Generated by graphviz version 2.26.3 (20100126.1600)
 -->
<!-- Title: raklib\protocol\DATA_PACKET_2 Pages: 1 -->
<svg width="140pt" height="508pt"
 viewBox="0.00 0.00 140.00 508.00" xmlns="http://www.w3.org/2000/svg" xmlns:xlink="http://www.w3.org/1999/xlink">
<g id="graph1" class="graph" transform="scale(1 1) rotate(0) translate(4 504)">
<title>raklib\protocol\DATA_PACKET_2</title>
<polygon fill="white" stroke="white" points="-4,5 -4,-504 137,-504 137,5 -4,5"/>
<!-- Node1 -->
<g id="node1" class="node"><title>Node1</title>
<polygon fill="#bfbfbf" stroke="black" points="12.5,-1 12.5,-77 119.5,-77 119.5,-1 12.5,-1"/>
<text text-anchor="start" x="20.5" y="-64" font-family="Helvetica,sans-Serif" font-size="10.00">raklib\protocol\DATA</text>
<text text-anchor="middle" x="66" y="-51" font-family="Helvetica,sans-Serif" font-size="10.00">_PACKET_2</text>
<polyline fill="none" stroke="black" points="12.5,-43 119.5,-43 "/>
<text text-anchor="start" x="20.5" y="-30" font-family="Helvetica,sans-Serif" font-size="10.00">+ $ID</text>
<polyline fill="none" stroke="black" points="12.5,-22 119.5,-22 "/>
<text text-anchor="middle" x="66" y="-9" font-family="Helvetica,sans-Serif" font-size="10.00"> </text>
</g>
<!-- Node2 -->
<g id="node2" class="node"><title>Node2</title>
<a xlink:href="../../dc/d27/classraklib_1_1protocol_1_1_data_packet.html" target="_top" xlink:title="{raklib\\protocol\\DataPacket\n|+ $packets\l+ $seqNumber\l|+ encode()\l+ length()\l+ decode()\l}">
<polygon fill="white" stroke="black" points="0,-115 0,-217 132,-217 132,-115 0,-115"/>
<text text-anchor="middle" x="66" y="-204" font-family="Helvetica,sans-Serif" font-size="10.00">raklib\protocol\DataPacket</text>
<polyline fill="none" stroke="black" points="0,-196 132,-196 "/>
<text text-anchor="start" x="8" y="-183" font-family="Helvetica,sans-Serif" font-size="10.00">+ $packets</text>
<text text-anchor="start" x="8" y="-170" font-family="Helvetica,sans-Serif" font-size="10.00">+ $seqNumber</text>
<polyline fill="none" stroke="black" points="0,-162 132,-162 "/>
<text text-anchor="start" x="8" y="-149" font-family="Helvetica,sans-Serif" font-size="10.00">+ encode()</text>
<text text-anchor="start" x="8" y="-136" font-family="Helvetica,sans-Serif" font-size="10.00">+ length()</text>
<text text-anchor="start" x="8" y="-123" font-family="Helvetica,sans-Serif" font-size="10.00">+ decode()</text>
</a>
</g>
<!-- Node2&#45;&gt;Node1 -->
<g id="edge2" class="edge"><title>Node2&#45;&gt;Node1</title>
<path fill="none" stroke="midnightblue" d="M66,-104.625C66,-95.273 66,-85.8595 66,-77.197"/>
<polygon fill="none" stroke="midnightblue" points="62.5001,-104.71 66,-114.71 69.5001,-104.71 62.5001,-104.71"/>
</g>
<!-- Node3 -->
<g id="node4" class="node"><title>Node3</title>
<a xlink:href="../../d6/d53/classraklib_1_1protocol_1_1_packet.html" target="_top" xlink:title="{raklib\\protocol\\Packet\n|+ $buffer\l+ $ID\l# $offset\l|+ encode()\l+ decode()\l# get()\l# getLong()\l# getInt()\l# getShort()\l# getTriad()\l# getLTriad()\l# getByte()\l# getString()\l# feof()\l# put()\land 7 more...\l}">
<polygon fill="white" stroke="black" points="10.5,-254.5 10.5,-499.5 121.5,-499.5 121.5,-254.5 10.5,-254.5"/>
<text text-anchor="middle" x="66" y="-486.5" font-family="Helvetica,sans-Serif" font-size="10.00">raklib\protocol\Packet</text>
<polyline fill="none" stroke="black" points="10.5,-478.5 121.5,-478.5 "/>
<text text-anchor="start" x="18.5" y="-465.5" font-family="Helvetica,sans-Serif" font-size="10.00">+ $buffer</text>
<text text-anchor="start" x="18.5" y="-452.5" font-family="Helvetica,sans-Serif" font-size="10.00">+ $ID</text>
<text text-anchor="start" x="18.5" y="-439.5" font-family="Helvetica,sans-Serif" font-size="10.00"># $offset</text>
<polyline fill="none" stroke="black" points="10.5,-431.5 121.5,-431.5 "/>
<text text-anchor="start" x="18.5" y="-418.5" font-family="Helvetica,sans-Serif" font-size="10.00">+ encode()</text>
<text text-anchor="start" x="18.5" y="-405.5" font-family="Helvetica,sans-Serif" font-size="10.00">+ decode()</text>
<text text-anchor="start" x="18.5" y="-392.5" font-family="Helvetica,sans-Serif" font-size="10.00"># get()</text>
<text text-anchor="start" x="18.5" y="-379.5" font-family="Helvetica,sans-Serif" font-size="10.00"># getLong()</text>
<text text-anchor="start" x="18.5" y="-366.5" font-family="Helvetica,sans-Serif" font-size="10.00"># getInt()</text>
<text text-anchor="start" x="18.5" y="-353.5" font-family="Helvetica,sans-Serif" font-size="10.00"># getShort()</text>
<text text-anchor="start" x="18.5" y="-340.5" font-family="Helvetica,sans-Serif" font-size="10.00"># getTriad()</text>
<text text-anchor="start" x="18.5" y="-327.5" font-family="Helvetica,sans-Serif" font-size="10.00"># getLTriad()</text>
<text text-anchor="start" x="18.5" y="-314.5" font-family="Helvetica,sans-Serif" font-size="10.00"># getByte()</text>
<text text-anchor="start" x="18.5" y="-301.5" font-family="Helvetica,sans-Serif" font-size="10.00"># getString()</text>
<text text-anchor="start" x="18.5" y="-288.5" font-family="Helvetica,sans-Serif" font-size="10.00"># feof()</text>
<text text-anchor="start" x="18.5" y="-275.5" font-family="Helvetica,sans-Serif" font-size="10.00"># put()</text>
<text text-anchor="start" x="18.5" y="-262.5" font-family="Helvetica,sans-Serif" font-size="10.00">and 7 more...</text>
</a>
</g>
<!-- Node3&#45;&gt;Node2 -->
<g id="edge4" class="edge"><title>Node3&#45;&gt;Node2</title>
<path fill="none" stroke="midnightblue" d="M66,-244.249C66,-234.739 66,-225.547 66,-217.01"/>
<polygon fill="none" stroke="midnightblue" points="62.5001,-244.26 66,-254.26 69.5001,-244.26 62.5001,-244.26"/>
</g>
</g>
</svg>
