<?xml version="1.0" encoding="UTF-8" standalone="no"?>
<!DOCTYPE svg PUBLIC "-//W3C//DTD SVG 1.1//EN"
 "http://www.w3.org/Graphics/SVG/1.1/DTD/svg11.dtd">
<!-- Generated by graphviz version 2.36.0 (20140111.2315)
 -->
<!-- Title: pocketmine\entity\NPC Pages: 1 -->
<svg width="164pt" height="314pt"
 viewBox="0.00 0.00 164.00 314.00" xmlns="http://www.w3.org/2000/svg" xmlns:xlink="http://www.w3.org/1999/xlink">
<g id="graph0" class="graph" transform="scale(1 1) rotate(0) translate(4 310)">
<title>pocketmine\entity\NPC</title>
<polygon fill="white" stroke="none" points="-4,4 -4,-310 160,-310 160,4 -4,4"/>
<!-- Node1 -->
<g id="node1" class="node"><title>Node1</title>
<polygon fill="#bfbfbf" stroke="black" points="15,-248.5 15,-305.5 141,-305.5 141,-248.5 15,-248.5"/>
<text text-anchor="middle" x="78" y="-293.5" font-family="Helvetica,sans-Serif" font-size="10.00">pocketmine\entity\NPC</text>
<polyline fill="none" stroke="black" points="15,-286.5 141,-286.5 "/>
<text text-anchor="middle" x="78" y="-274.5" font-family="Helvetica,sans-Serif" font-size="10.00"> </text>
<polyline fill="none" stroke="black" points="15,-267.5 141,-267.5 "/>
<text text-anchor="middle" x="78" y="-255.5" font-family="Helvetica,sans-Serif" font-size="10.00"> </text>
</g>
<!-- Node2 -->
<g id="node2" class="node"><title>Node2</title>
<g id="a_node2"><a xlink:href="../../d9/d6b/classpocketmine_1_1entity_1_1_villager.html" target="_top" xlink:title="{pocketmine\\entity\\Villager\n|+ PROFESSION_FARMER\l+ PROFESSION_LIBRARIAN\l+ PROFESSION_PRIEST\l+ PROFESSION_BLACKSMITH\l+ PROFESSION_BUTCHER\l+ PROFESSION_GENERIC\l+ NETWORK_ID\l+ $width\l+ $length\l+ $height\l|+ getName()\l+ spawnTo()\l+ getData()\l+ setProfession()\l+ getProfession()\l# initEntity()\l}">
<polygon fill="white" stroke="black" points="0,-0.5 0,-211.5 156,-211.5 156,-0.5 0,-0.5"/>
<text text-anchor="middle" x="78" y="-199.5" font-family="Helvetica,sans-Serif" font-size="10.00">pocketmine\entity\Villager</text>
<polyline fill="none" stroke="black" points="0,-192.5 156,-192.5 "/>
<text text-anchor="start" x="8" y="-180.5" font-family="Helvetica,sans-Serif" font-size="10.00">+ PROFESSION_FARMER</text>
<text text-anchor="start" x="8" y="-169.5" font-family="Helvetica,sans-Serif" font-size="10.00">+ PROFESSION_LIBRARIAN</text>
<text text-anchor="start" x="8" y="-158.5" font-family="Helvetica,sans-Serif" font-size="10.00">+ PROFESSION_PRIEST</text>
<text text-anchor="start" x="8" y="-147.5" font-family="Helvetica,sans-Serif" font-size="10.00">+ PROFESSION_BLACKSMITH</text>
<text text-anchor="start" x="8" y="-136.5" font-family="Helvetica,sans-Serif" font-size="10.00">+ PROFESSION_BUTCHER</text>
<text text-anchor="start" x="8" y="-125.5" font-family="Helvetica,sans-Serif" font-size="10.00">+ PROFESSION_GENERIC</text>
<text text-anchor="start" x="8" y="-114.5" font-family="Helvetica,sans-Serif" font-size="10.00">+ NETWORK_ID</text>
<text text-anchor="start" x="8" y="-103.5" font-family="Helvetica,sans-Serif" font-size="10.00">+ $width</text>
<text text-anchor="start" x="8" y="-92.5" font-family="Helvetica,sans-Serif" font-size="10.00">+ $length</text>
<text text-anchor="start" x="8" y="-81.5" font-family="Helvetica,sans-Serif" font-size="10.00">+ $height</text>
<polyline fill="none" stroke="black" points="0,-74.5 156,-74.5 "/>
<text text-anchor="start" x="8" y="-62.5" font-family="Helvetica,sans-Serif" font-size="10.00">+ getName()</text>
<text text-anchor="start" x="8" y="-51.5" font-family="Helvetica,sans-Serif" font-size="10.00">+ spawnTo()</text>
<text text-anchor="start" x="8" y="-40.5" font-family="Helvetica,sans-Serif" font-size="10.00">+ getData()</text>
<text text-anchor="start" x="8" y="-29.5" font-family="Helvetica,sans-Serif" font-size="10.00">+ setProfession()</text>
<text text-anchor="start" x="8" y="-18.5" font-family="Helvetica,sans-Serif" font-size="10.00">+ getProfession()</text>
<text text-anchor="start" x="8" y="-7.5" font-family="Helvetica,sans-Serif" font-size="10.00"># initEntity()</text>
</a>
</g>
</g>
<!-- Node1&#45;&gt;Node2 -->
<g id="edge1" class="edge"><title>Node1&#45;&gt;Node2</title>
<path fill="none" stroke="midnightblue" d="M78,-238.233C78,-230.038 78,-220.987 78,-211.584"/>
<polygon fill="none" stroke="midnightblue" points="74.5001,-238.471 78,-248.471 81.5001,-238.471 74.5001,-238.471"/>
</g>
</g>
</svg>
