<?xml version="1.0" encoding="UTF-8" standalone="no"?>
<!DOCTYPE svg PUBLIC "-//W3C//DTD SVG 1.1//EN"
 "http://www.w3.org/Graphics/SVG/1.1/DTD/svg11.dtd">
<!-- Generated by graphviz version 2.26.3 (20100126.1600)
 -->
<!-- Title: Threaded Pages: 1 -->
<svg width="909pt" height="1470pt"
 viewBox="0.00 0.00 909.00 1470.00" xmlns="http://www.w3.org/2000/svg" xmlns:xlink="http://www.w3.org/1999/xlink">
<g id="graph1" class="graph" transform="scale(1 1) rotate(0) translate(4 1466)">
<title>Threaded</title>
<polygon fill="white" stroke="white" points="-4,5 -4,-1466 906,-1466 906,5 -4,5"/>
<!-- Node1 -->
<g id="node1" class="node"><title>Node1</title>
<polygon fill="#bfbfbf" stroke="black" points="410.5,-1168.5 410.5,-1361.5 523.5,-1361.5 523.5,-1168.5 410.5,-1168.5"/>
<text text-anchor="middle" x="467" y="-1348.5" font-family="Helvetica,sans-Serif" font-size="10.00">Threaded</text>
<polyline fill="none" stroke="black" points="410.5,-1340.5 523.5,-1340.5 "/>
<text text-anchor="middle" x="467" y="-1327.5" font-family="Helvetica,sans-Serif" font-size="10.00"> </text>
<polyline fill="none" stroke="black" points="410.5,-1319.5 523.5,-1319.5 "/>
<text text-anchor="start" x="418.5" y="-1306.5" font-family="Helvetica,sans-Serif" font-size="10.00">+ chunk()</text>
<text text-anchor="start" x="418.5" y="-1293.5" font-family="Helvetica,sans-Serif" font-size="10.00">+ count()</text>
<text text-anchor="start" x="418.5" y="-1280.5" font-family="Helvetica,sans-Serif" font-size="10.00">+ getTerminationInfo()</text>
<text text-anchor="start" x="418.5" y="-1267.5" font-family="Helvetica,sans-Serif" font-size="10.00">+ isRunning()</text>
<text text-anchor="start" x="418.5" y="-1254.5" font-family="Helvetica,sans-Serif" font-size="10.00">+ isTerminated()</text>
<text text-anchor="start" x="418.5" y="-1241.5" font-family="Helvetica,sans-Serif" font-size="10.00">+ isWaiting()</text>
<text text-anchor="start" x="418.5" y="-1228.5" font-family="Helvetica,sans-Serif" font-size="10.00">+ lock()</text>
<text text-anchor="start" x="418.5" y="-1215.5" font-family="Helvetica,sans-Serif" font-size="10.00">+ merge()</text>
<text text-anchor="start" x="418.5" y="-1202.5" font-family="Helvetica,sans-Serif" font-size="10.00">+ notify()</text>
<text text-anchor="start" x="418.5" y="-1189.5" font-family="Helvetica,sans-Serif" font-size="10.00">+ offsetGet()</text>
<text text-anchor="start" x="418.5" y="-1176.5" font-family="Helvetica,sans-Serif" font-size="10.00">and 9 more...</text>
</g>
<!-- Node5 -->
<g id="node9" class="node"><title>Node5</title>
<a xlink:href="../../df/dfa/classpocketmine_1_1scheduler_1_1_async_task.html" target="_top" xlink:title="{pocketmine\\scheduler\l\\AsyncTask\n|# $complete\l# $finished\l# $result\l# $taskId\l|+ run()\l+ isFinished()\l+ isCompleted()\l+ setCompleted()\l+ getResult()\l+ hasResult()\l+ setResult()\l+ setTaskId()\l+ getTaskId()\l+ onRun()\l+ onCompletion()\l}">
<polygon fill="white" stroke="black" points="148,-886.5 148,-1131.5 260,-1131.5 260,-886.5 148,-886.5"/>
<text text-anchor="start" x="156" y="-1118.5" font-family="Helvetica,sans-Serif" font-size="10.00">pocketmine\scheduler</text>
<text text-anchor="middle" x="204" y="-1105.5" font-family="Helvetica,sans-Serif" font-size="10.00">\AsyncTask</text>
<polyline fill="none" stroke="black" points="148,-1097.5 260,-1097.5 "/>
<text text-anchor="start" x="156" y="-1084.5" font-family="Helvetica,sans-Serif" font-size="10.00"># $complete</text>
<text text-anchor="start" x="156" y="-1071.5" font-family="Helvetica,sans-Serif" font-size="10.00"># $finished</text>
<text text-anchor="start" x="156" y="-1058.5" font-family="Helvetica,sans-Serif" font-size="10.00"># $result</text>
<text text-anchor="start" x="156" y="-1045.5" font-family="Helvetica,sans-Serif" font-size="10.00"># $taskId</text>
<polyline fill="none" stroke="black" points="148,-1037.5 260,-1037.5 "/>
<text text-anchor="start" x="156" y="-1024.5" font-family="Helvetica,sans-Serif" font-size="10.00">+ run()</text>
<text text-anchor="start" x="156" y="-1011.5" font-family="Helvetica,sans-Serif" font-size="10.00">+ isFinished()</text>
<text text-anchor="start" x="156" y="-998.5" font-family="Helvetica,sans-Serif" font-size="10.00">+ isCompleted()</text>
<text text-anchor="start" x="156" y="-985.5" font-family="Helvetica,sans-Serif" font-size="10.00">+ setCompleted()</text>
<text text-anchor="start" x="156" y="-972.5" font-family="Helvetica,sans-Serif" font-size="10.00">+ getResult()</text>
<text text-anchor="start" x="156" y="-959.5" font-family="Helvetica,sans-Serif" font-size="10.00">+ hasResult()</text>
<text text-anchor="start" x="156" y="-946.5" font-family="Helvetica,sans-Serif" font-size="10.00">+ setResult()</text>
<text text-anchor="start" x="156" y="-933.5" font-family="Helvetica,sans-Serif" font-size="10.00">+ setTaskId()</text>
<text text-anchor="start" x="156" y="-920.5" font-family="Helvetica,sans-Serif" font-size="10.00">+ getTaskId()</text>
<text text-anchor="start" x="156" y="-907.5" font-family="Helvetica,sans-Serif" font-size="10.00">+ onRun()</text>
<text text-anchor="start" x="156" y="-894.5" font-family="Helvetica,sans-Serif" font-size="10.00">+ onCompletion()</text>
</a>
</g>
<!-- Node1&#45;&gt;Node5 -->
<g id="edge8" class="edge"><title>Node1&#45;&gt;Node5</title>
<path fill="none" stroke="midnightblue" d="M402.542,-1209.84C375.856,-1186.39 344.916,-1158.42 318,-1132 298.571,-1112.93 278.127,-1091.38 260.002,-1071.71"/>
<polygon fill="none" stroke="midnightblue" points="400.484,-1212.69 410.313,-1216.64 405.095,-1207.42 400.484,-1212.69"/>
</g>
<!-- Node8 -->
<g id="node15" class="node"><title>Node8</title>
<a xlink:href="../../d8/d13/classpocketmine_1_1_thread_manager.html" target="_top" xlink:title="{pocketmine\\ThreadManager\n||+ add()\l+ remove()\l+ getAll()\l+ init()\l+ getInstance()\l}">
<polygon fill="white" stroke="black" points="326.5,-951.5 326.5,-1066.5 463.5,-1066.5 463.5,-951.5 326.5,-951.5"/>
<text text-anchor="middle" x="395" y="-1053.5" font-family="Helvetica,sans-Serif" font-size="10.00">pocketmine\ThreadManager</text>
<polyline fill="none" stroke="black" points="326.5,-1045.5 463.5,-1045.5 "/>
<text text-anchor="middle" x="395" y="-1032.5" font-family="Helvetica,sans-Serif" font-size="10.00"> </text>
<polyline fill="none" stroke="black" points="326.5,-1024.5 463.5,-1024.5 "/>
<text text-anchor="start" x="334.5" y="-1011.5" font-family="Helvetica,sans-Serif" font-size="10.00">+ add()</text>
<text text-anchor="start" x="334.5" y="-998.5" font-family="Helvetica,sans-Serif" font-size="10.00">+ remove()</text>
<text text-anchor="start" x="334.5" y="-985.5" font-family="Helvetica,sans-Serif" font-size="10.00">+ getAll()</text>
<text text-anchor="start" x="334.5" y="-972.5" font-family="Helvetica,sans-Serif" font-size="10.00">+ init()</text>
<text text-anchor="start" x="334.5" y="-959.5" font-family="Helvetica,sans-Serif" font-size="10.00">+ getInstance()</text>
</a>
</g>
<!-- Node1&#45;&gt;Node8 -->
<g id="edge14" class="edge"><title>Node1&#45;&gt;Node8</title>
<path fill="none" stroke="midnightblue" d="M437.048,-1158.51C428.187,-1127 418.822,-1093.7 411.185,-1066.55"/>
<polygon fill="none" stroke="midnightblue" points="433.703,-1159.54 439.78,-1168.22 440.442,-1157.64 433.703,-1159.54"/>
</g>
<!-- Node9 -->
<g id="node17" class="node"><title>Node9</title>
<a xlink:href="../../d8/d18/class_thread.html" target="_top" xlink:title="{Thread\n||+ detach()\l+ getCreatorId()\l+ getThreadId()\l+ isJoined()\l+ isStarted()\l+ join()\l+ kill()\l+ start()\l+ getCurrentThread()\l+ getCurrentThreadId()\l+ globally()\l}">
<polygon fill="white" stroke="black" points="481,-912.5 481,-1105.5 597,-1105.5 597,-912.5 481,-912.5"/>
<text text-anchor="middle" x="539" y="-1092.5" font-family="Helvetica,sans-Serif" font-size="10.00">Thread</text>
<polyline fill="none" stroke="black" points="481,-1084.5 597,-1084.5 "/>
<text text-anchor="middle" x="539" y="-1071.5" font-family="Helvetica,sans-Serif" font-size="10.00"> </text>
<polyline fill="none" stroke="black" points="481,-1063.5 597,-1063.5 "/>
<text text-anchor="start" x="489" y="-1050.5" font-family="Helvetica,sans-Serif" font-size="10.00">+ detach()</text>
<text text-anchor="start" x="489" y="-1037.5" font-family="Helvetica,sans-Serif" font-size="10.00">+ getCreatorId()</text>
<text text-anchor="start" x="489" y="-1024.5" font-family="Helvetica,sans-Serif" font-size="10.00">+ getThreadId()</text>
<text text-anchor="start" x="489" y="-1011.5" font-family="Helvetica,sans-Serif" font-size="10.00">+ isJoined()</text>
<text text-anchor="start" x="489" y="-998.5" font-family="Helvetica,sans-Serif" font-size="10.00">+ isStarted()</text>
<text text-anchor="start" x="489" y="-985.5" font-family="Helvetica,sans-Serif" font-size="10.00">+ join()</text>
<text text-anchor="start" x="489" y="-972.5" font-family="Helvetica,sans-Serif" font-size="10.00">+ kill()</text>
<text text-anchor="start" x="489" y="-959.5" font-family="Helvetica,sans-Serif" font-size="10.00">+ start()</text>
<text text-anchor="start" x="489" y="-946.5" font-family="Helvetica,sans-Serif" font-size="10.00">+ getCurrentThread()</text>
<text text-anchor="start" x="489" y="-933.5" font-family="Helvetica,sans-Serif" font-size="10.00">+ getCurrentThreadId()</text>
<text text-anchor="start" x="489" y="-920.5" font-family="Helvetica,sans-Serif" font-size="10.00">+ globally()</text>
</a>
</g>
<!-- Node1&#45;&gt;Node9 -->
<g id="edge16" class="edge"><title>Node1&#45;&gt;Node9</title>
<path fill="none" stroke="midnightblue" d="M496.929,-1158.59C501.838,-1141.13 506.902,-1123.13 511.741,-1105.92"/>
<polygon fill="none" stroke="midnightblue" points="493.558,-1157.64 494.22,-1168.22 500.297,-1159.54 493.558,-1157.64"/>
</g>
<!-- Node21 -->
<g id="node41" class="node"><title>Node21</title>
<a xlink:href="../../d2/d6c/class_threaded_logger_attachment.html" target="_top" xlink:title="{ThreadedLoggerAttachment\n|# $attachment\l|+ call()\l+ addAttachment()\l+ removeAttachment()\l+ removeAttachments()\l+ getAttachments()\l}">
<polygon fill="white" stroke="black" points="614.5,-951.5 614.5,-1066.5 751.5,-1066.5 751.5,-951.5 614.5,-951.5"/>
<text text-anchor="middle" x="683" y="-1053.5" font-family="Helvetica,sans-Serif" font-size="10.00">ThreadedLoggerAttachment</text>
<polyline fill="none" stroke="black" points="614.5,-1045.5 751.5,-1045.5 "/>
<text text-anchor="start" x="622.5" y="-1032.5" font-family="Helvetica,sans-Serif" font-size="10.00"># $attachment</text>
<polyline fill="none" stroke="black" points="614.5,-1024.5 751.5,-1024.5 "/>
<text text-anchor="start" x="622.5" y="-1011.5" font-family="Helvetica,sans-Serif" font-size="10.00">+ call()</text>
<text text-anchor="start" x="622.5" y="-998.5" font-family="Helvetica,sans-Serif" font-size="10.00">+ addAttachment()</text>
<text text-anchor="start" x="622.5" y="-985.5" font-family="Helvetica,sans-Serif" font-size="10.00">+ removeAttachment()</text>
<text text-anchor="start" x="622.5" y="-972.5" font-family="Helvetica,sans-Serif" font-size="10.00">+ removeAttachments()</text>
<text text-anchor="start" x="622.5" y="-959.5" font-family="Helvetica,sans-Serif" font-size="10.00">+ getAttachments()</text>
</a>
</g>
<!-- Node1&#45;&gt;Node21 -->
<g id="edge40" class="edge"><title>Node1&#45;&gt;Node21</title>
<path fill="none" stroke="midnightblue" d="M531.195,-1209.82C555.956,-1186.99 583.639,-1159.46 606,-1132 622.385,-1111.88 638.05,-1088.04 650.922,-1066.73"/>
<polygon fill="none" stroke="midnightblue" points="528.634,-1207.42 523.614,-1216.75 533.357,-1212.59 528.634,-1207.42"/>
</g>
<!-- Node2 -->
<g id="node2" class="node"><title>Node2</title>
<polygon fill="white" stroke="#bfbfbf" points="351,-1398.5 351,-1461.5 419,-1461.5 419,-1398.5 351,-1398.5"/>
<text text-anchor="middle" x="385" y="-1448.5" font-family="Helvetica,sans-Serif" font-size="10.00">Traversable</text>
<polyline fill="none" stroke="#bfbfbf" points="351,-1440.5 419,-1440.5 "/>
<text text-anchor="middle" x="385" y="-1427.5" font-family="Helvetica,sans-Serif" font-size="10.00"> </text>
<polyline fill="none" stroke="#bfbfbf" points="351,-1419.5 419,-1419.5 "/>
<text text-anchor="middle" x="385" y="-1406.5" font-family="Helvetica,sans-Serif" font-size="10.00"> </text>
</g>
<!-- Node2&#45;&gt;Node1 -->
<g id="edge2" class="edge"><title>Node2&#45;&gt;Node1</title>
<path fill="none" stroke="midnightblue" d="M405.396,-1388.96C409.619,-1380.46 414.236,-1371.17 418.981,-1361.62"/>
<polygon fill="none" stroke="midnightblue" points="402.127,-1387.67 400.81,-1398.19 408.395,-1390.79 402.127,-1387.67"/>
</g>
<!-- Node3 -->
<g id="node4" class="node"><title>Node3</title>
<polygon fill="white" stroke="#bfbfbf" points="436.5,-1398.5 436.5,-1461.5 497.5,-1461.5 497.5,-1398.5 436.5,-1398.5"/>
<text text-anchor="middle" x="467" y="-1448.5" font-family="Helvetica,sans-Serif" font-size="10.00">Countable</text>
<polyline fill="none" stroke="#bfbfbf" points="436.5,-1440.5 497.5,-1440.5 "/>
<text text-anchor="middle" x="467" y="-1427.5" font-family="Helvetica,sans-Serif" font-size="10.00"> </text>
<polyline fill="none" stroke="#bfbfbf" points="436.5,-1419.5 497.5,-1419.5 "/>
<text text-anchor="middle" x="467" y="-1406.5" font-family="Helvetica,sans-Serif" font-size="10.00"> </text>
</g>
<!-- Node3&#45;&gt;Node1 -->
<g id="edge4" class="edge"><title>Node3&#45;&gt;Node1</title>
<path fill="none" stroke="midnightblue" d="M467,-1388.13C467,-1379.86 467,-1370.86 467,-1361.62"/>
<polygon fill="none" stroke="midnightblue" points="463.5,-1388.19 467,-1398.19 470.5,-1388.19 463.5,-1388.19"/>
</g>
<!-- Node4 -->
<g id="node6" class="node"><title>Node4</title>
<polygon fill="white" stroke="#bfbfbf" points="514.5,-1398.5 514.5,-1461.5 587.5,-1461.5 587.5,-1398.5 514.5,-1398.5"/>
<text text-anchor="middle" x="551" y="-1448.5" font-family="Helvetica,sans-Serif" font-size="10.00">ArrayAccess</text>
<polyline fill="none" stroke="#bfbfbf" points="514.5,-1440.5 587.5,-1440.5 "/>
<text text-anchor="middle" x="551" y="-1427.5" font-family="Helvetica,sans-Serif" font-size="10.00"> </text>
<polyline fill="none" stroke="#bfbfbf" points="514.5,-1419.5 587.5,-1419.5 "/>
<text text-anchor="middle" x="551" y="-1406.5" font-family="Helvetica,sans-Serif" font-size="10.00"> </text>
</g>
<!-- Node4&#45;&gt;Node1 -->
<g id="edge6" class="edge"><title>Node4&#45;&gt;Node1</title>
<path fill="none" stroke="midnightblue" d="M530.246,-1389.23C525.882,-1380.66 521.104,-1371.27 516.19,-1361.62"/>
<polygon fill="none" stroke="midnightblue" points="527.148,-1390.86 534.804,-1398.19 533.386,-1387.69 527.148,-1390.86"/>
</g>
<!-- Node6 -->
<g id="node11" class="node"><title>Node6</title>
<a xlink:href="../../d8/da8/classpocketmine_1_1level_1_1format_1_1anvil_1_1_chunk_request_task.html" target="_top" xlink:title="{pocketmine\\level\\format\l\\anvil\\ChunkRequestTask\n|# $levelId\l# $chunkX\l# $chunkZ\l# $compressionLevel\l# $sections\l# $biomeIds\l# $biomeColors\l# $tiles\l|+ __construct()\l+ onRun()\l+ getColumn()\l+ getHalfColumn()\l+ onCompletion()\l}">
<polygon fill="white" stroke="black" points="0,-604.5 0,-823.5 130,-823.5 130,-604.5 0,-604.5"/>
<text text-anchor="start" x="8" y="-810.5" font-family="Helvetica,sans-Serif" font-size="10.00">pocketmine\level\format</text>
<text text-anchor="middle" x="65" y="-797.5" font-family="Helvetica,sans-Serif" font-size="10.00">\anvil\ChunkRequestTask</text>
<polyline fill="none" stroke="black" points="0,-789.5 130,-789.5 "/>
<text text-anchor="start" x="8" y="-776.5" font-family="Helvetica,sans-Serif" font-size="10.00"># $levelId</text>
<text text-anchor="start" x="8" y="-763.5" font-family="Helvetica,sans-Serif" font-size="10.00"># $chunkX</text>
<text text-anchor="start" x="8" y="-750.5" font-family="Helvetica,sans-Serif" font-size="10.00"># $chunkZ</text>
<text text-anchor="start" x="8" y="-737.5" font-family="Helvetica,sans-Serif" font-size="10.00"># $compressionLevel</text>
<text text-anchor="start" x="8" y="-724.5" font-family="Helvetica,sans-Serif" font-size="10.00"># $sections</text>
<text text-anchor="start" x="8" y="-711.5" font-family="Helvetica,sans-Serif" font-size="10.00"># $biomeIds</text>
<text text-anchor="start" x="8" y="-698.5" font-family="Helvetica,sans-Serif" font-size="10.00"># $biomeColors</text>
<text text-anchor="start" x="8" y="-685.5" font-family="Helvetica,sans-Serif" font-size="10.00"># $tiles</text>
<polyline fill="none" stroke="black" points="0,-677.5 130,-677.5 "/>
<text text-anchor="start" x="8" y="-664.5" font-family="Helvetica,sans-Serif" font-size="10.00">+ __construct()</text>
<text text-anchor="start" x="8" y="-651.5" font-family="Helvetica,sans-Serif" font-size="10.00">+ onRun()</text>
<text text-anchor="start" x="8" y="-638.5" font-family="Helvetica,sans-Serif" font-size="10.00">+ getColumn()</text>
<text text-anchor="start" x="8" y="-625.5" font-family="Helvetica,sans-Serif" font-size="10.00">+ getHalfColumn()</text>
<text text-anchor="start" x="8" y="-612.5" font-family="Helvetica,sans-Serif" font-size="10.00">+ onCompletion()</text>
</a>
</g>
<!-- Node5&#45;&gt;Node6 -->
<g id="edge10" class="edge"><title>Node5&#45;&gt;Node6</title>
<path fill="none" stroke="midnightblue" d="M143.488,-880.574C134.534,-861.573 125.378,-842.141 116.628,-823.57"/>
<polygon fill="none" stroke="midnightblue" points="140.435,-882.308 147.864,-889.863 146.768,-879.325 140.435,-882.308"/>
</g>
<!-- Node7 -->
<g id="node13" class="node"><title>Node7</title>
<a xlink:href="../../da/d91/classpocketmine_1_1scheduler_1_1_send_usage_task.html" target="_top" xlink:title="{pocketmine\\scheduler\l\\SendUsageTask\n|+ $endpoint\l+ $data\l|+ __construct()\l+ onRun()\l+ onCompletion()\l}">
<polygon fill="white" stroke="black" points="148,-656.5 148,-771.5 260,-771.5 260,-656.5 148,-656.5"/>
<text text-anchor="start" x="156" y="-758.5" font-family="Helvetica,sans-Serif" font-size="10.00">pocketmine\scheduler</text>
<text text-anchor="middle" x="204" y="-745.5" font-family="Helvetica,sans-Serif" font-size="10.00">\SendUsageTask</text>
<polyline fill="none" stroke="black" points="148,-737.5 260,-737.5 "/>
<text text-anchor="start" x="156" y="-724.5" font-family="Helvetica,sans-Serif" font-size="10.00">+ $endpoint</text>
<text text-anchor="start" x="156" y="-711.5" font-family="Helvetica,sans-Serif" font-size="10.00">+ $data</text>
<polyline fill="none" stroke="black" points="148,-703.5 260,-703.5 "/>
<text text-anchor="start" x="156" y="-690.5" font-family="Helvetica,sans-Serif" font-size="10.00">+ __construct()</text>
<text text-anchor="start" x="156" y="-677.5" font-family="Helvetica,sans-Serif" font-size="10.00">+ onRun()</text>
<text text-anchor="start" x="156" y="-664.5" font-family="Helvetica,sans-Serif" font-size="10.00">+ onCompletion()</text>
</a>
</g>
<!-- Node5&#45;&gt;Node7 -->
<g id="edge12" class="edge"><title>Node5&#45;&gt;Node7</title>
<path fill="none" stroke="midnightblue" d="M204,-876.165C204,-839.536 204,-801.688 204,-771.778"/>
<polygon fill="none" stroke="midnightblue" points="200.5,-876.456 204,-886.456 207.5,-876.456 200.5,-876.456"/>
</g>
<!-- Node10 -->
<g id="node19" class="node"><title>Node10</title>
<a xlink:href="../../d3/d92/classpocketmine_1_1network_1_1rcon_1_1_r_c_o_n_instance.html" target="_top" xlink:title="{pocketmine\\network\l\\rcon\\RCONInstance\n|+ $stop\l+ $cmd\l+ $response\l|+ __construct()\l+ close()\l+ run()\l}">
<polygon fill="white" stroke="black" points="277.5,-650 277.5,-778 386.5,-778 386.5,-650 277.5,-650"/>
<text text-anchor="start" x="285.5" y="-765" font-family="Helvetica,sans-Serif" font-size="10.00">pocketmine\network</text>
<text text-anchor="middle" x="332" y="-752" font-family="Helvetica,sans-Serif" font-size="10.00">\rcon\RCONInstance</text>
<polyline fill="none" stroke="black" points="277.5,-744 386.5,-744 "/>
<text text-anchor="start" x="285.5" y="-731" font-family="Helvetica,sans-Serif" font-size="10.00">+ $stop</text>
<text text-anchor="start" x="285.5" y="-718" font-family="Helvetica,sans-Serif" font-size="10.00">+ $cmd</text>
<text text-anchor="start" x="285.5" y="-705" font-family="Helvetica,sans-Serif" font-size="10.00">+ $response</text>
<polyline fill="none" stroke="black" points="277.5,-697 386.5,-697 "/>
<text text-anchor="start" x="285.5" y="-684" font-family="Helvetica,sans-Serif" font-size="10.00">+ __construct()</text>
<text text-anchor="start" x="285.5" y="-671" font-family="Helvetica,sans-Serif" font-size="10.00">+ close()</text>
<text text-anchor="start" x="285.5" y="-658" font-family="Helvetica,sans-Serif" font-size="10.00">+ run()</text>
</a>
</g>
<!-- Node9&#45;&gt;Node10 -->
<g id="edge18" class="edge"><title>Node9&#45;&gt;Node10</title>
<path fill="none" stroke="midnightblue" d="M488.22,-903.939C483.197,-897.508 477.792,-891.446 472,-886 444.479,-860.12 421.666,-876.76 395,-850 375.255,-830.185 360.984,-803.03 351.071,-778.194"/>
<polygon fill="none" stroke="midnightblue" points="485.617,-906.306 494.378,-912.263 491.245,-902.142 485.617,-906.306"/>
</g>
<!-- Node11 -->
<g id="node21" class="node"><title>Node11</title>
<a xlink:href="../../d1/d31/classpocketmine_1_1_thread.html" target="_top" xlink:title="{pocketmine\\Thread\n||+ start()\l}">
<polygon fill="white" stroke="black" points="404,-682.5 404,-745.5 504,-745.5 504,-682.5 404,-682.5"/>
<text text-anchor="middle" x="454" y="-732.5" font-family="Helvetica,sans-Serif" font-size="10.00">pocketmine\Thread</text>
<polyline fill="none" stroke="black" points="404,-724.5 504,-724.5 "/>
<text text-anchor="middle" x="454" y="-711.5" font-family="Helvetica,sans-Serif" font-size="10.00"> </text>
<polyline fill="none" stroke="black" points="404,-703.5 504,-703.5 "/>
<text text-anchor="start" x="412" y="-690.5" font-family="Helvetica,sans-Serif" font-size="10.00">+ start()</text>
</a>
</g>
<!-- Node9&#45;&gt;Node11 -->
<g id="edge20" class="edge"><title>Node9&#45;&gt;Node11</title>
<path fill="none" stroke="midnightblue" d="M508.315,-902.506C492.321,-846.997 473.902,-783.072 463.146,-745.741"/>
<polygon fill="none" stroke="midnightblue" points="505.036,-903.766 511.168,-912.406 511.762,-901.828 505.036,-903.766"/>
</g>
<!-- Node14 -->
<g id="node27" class="node"><title>Node14</title>
<a xlink:href="../../d1/d8d/classraklib_1_1server_1_1_rak_lib_server.html" target="_top" xlink:title="{raklib\\server\\RakLibServer\n|+ $loadPaths\l# $port\l# $interface\l# $logger\l# $loader\l# $shutdown\l# $externalSocket\l# $internalSocket\l|+ __construct()\l+ addDependency()\l+ isShutdown()\l+ shutdown()\l+ getPort()\l+ getInterface()\l+ getLogger()\l+ getExternalSocket()\l+ getInternalSocket()\l+ run()\l}">
<polygon fill="white" stroke="black" points="522,-578.5 522,-849.5 654,-849.5 654,-578.5 522,-578.5"/>
<text text-anchor="middle" x="588" y="-836.5" font-family="Helvetica,sans-Serif" font-size="10.00">raklib\server\RakLibServer</text>
<polyline fill="none" stroke="black" points="522,-828.5 654,-828.5 "/>
<text text-anchor="start" x="530" y="-815.5" font-family="Helvetica,sans-Serif" font-size="10.00">+ $loadPaths</text>
<text text-anchor="start" x="530" y="-802.5" font-family="Helvetica,sans-Serif" font-size="10.00"># $port</text>
<text text-anchor="start" x="530" y="-789.5" font-family="Helvetica,sans-Serif" font-size="10.00"># $interface</text>
<text text-anchor="start" x="530" y="-776.5" font-family="Helvetica,sans-Serif" font-size="10.00"># $logger</text>
<text text-anchor="start" x="530" y="-763.5" font-family="Helvetica,sans-Serif" font-size="10.00"># $loader</text>
<text text-anchor="start" x="530" y="-750.5" font-family="Helvetica,sans-Serif" font-size="10.00"># $shutdown</text>
<text text-anchor="start" x="530" y="-737.5" font-family="Helvetica,sans-Serif" font-size="10.00"># $externalSocket</text>
<text text-anchor="start" x="530" y="-724.5" font-family="Helvetica,sans-Serif" font-size="10.00"># $internalSocket</text>
<polyline fill="none" stroke="black" points="522,-716.5 654,-716.5 "/>
<text text-anchor="start" x="530" y="-703.5" font-family="Helvetica,sans-Serif" font-size="10.00">+ __construct()</text>
<text text-anchor="start" x="530" y="-690.5" font-family="Helvetica,sans-Serif" font-size="10.00">+ addDependency()</text>
<text text-anchor="start" x="530" y="-677.5" font-family="Helvetica,sans-Serif" font-size="10.00">+ isShutdown()</text>
<text text-anchor="start" x="530" y="-664.5" font-family="Helvetica,sans-Serif" font-size="10.00">+ shutdown()</text>
<text text-anchor="start" x="530" y="-651.5" font-family="Helvetica,sans-Serif" font-size="10.00">+ getPort()</text>
<text text-anchor="start" x="530" y="-638.5" font-family="Helvetica,sans-Serif" font-size="10.00">+ getInterface()</text>
<text text-anchor="start" x="530" y="-625.5" font-family="Helvetica,sans-Serif" font-size="10.00">+ getLogger()</text>
<text text-anchor="start" x="530" y="-612.5" font-family="Helvetica,sans-Serif" font-size="10.00">+ getExternalSocket()</text>
<text text-anchor="start" x="530" y="-599.5" font-family="Helvetica,sans-Serif" font-size="10.00">+ getInternalSocket()</text>
<text text-anchor="start" x="530" y="-586.5" font-family="Helvetica,sans-Serif" font-size="10.00">+ run()</text>
</a>
</g>
<!-- Node9&#45;&gt;Node14 -->
<g id="edge26" class="edge"><title>Node9&#45;&gt;Node14</title>
<path fill="none" stroke="midnightblue" d="M556.704,-902.415C559.551,-885.275 562.531,-867.335 565.473,-849.625"/>
<polygon fill="none" stroke="midnightblue" points="553.23,-901.968 555.044,-912.406 560.136,-903.115 553.23,-901.968"/>
</g>
<!-- Node15 -->
<g id="node29" class="node"><title>Node15</title>
<a xlink:href="../../d0/d55/class_threaded_logger.html" target="_top" xlink:title="{ThreadedLogger\n||}">
<polygon fill="white" stroke="black" points="672,-682.5 672,-745.5 758,-745.5 758,-682.5 672,-682.5"/>
<text text-anchor="middle" x="715" y="-732.5" font-family="Helvetica,sans-Serif" font-size="10.00">ThreadedLogger</text>
<polyline fill="none" stroke="black" points="672,-724.5 758,-724.5 "/>
<text text-anchor="middle" x="715" y="-711.5" font-family="Helvetica,sans-Serif" font-size="10.00"> </text>
<polyline fill="none" stroke="black" points="672,-703.5 758,-703.5 "/>
<text text-anchor="middle" x="715" y="-690.5" font-family="Helvetica,sans-Serif" font-size="10.00"> </text>
</a>
</g>
<!-- Node9&#45;&gt;Node15 -->
<g id="edge28" class="edge"><title>Node9&#45;&gt;Node15</title>
<path fill="none" stroke="midnightblue" d="M591.057,-904.106C595.753,-897.718 600.738,-891.613 606,-886 626.492,-864.14 644.012,-873.178 663,-850 688.15,-819.3 702.01,-775.104 708.968,-745.512"/>
<polygon fill="none" stroke="midnightblue" points="588.159,-902.143 585.265,-912.335 593.883,-906.173 588.159,-902.143"/>
</g>
<!-- Node18 -->
<g id="node35" class="node"><title>Node18</title>
<a xlink:href="../../d3/d0a/class_worker.html" target="_top" xlink:title="{Worker\n||+ getStacked()\l+ isShutdown()\l+ isWorking()\l+ shutdown()\l+ stack()\l+ unstack()\l}">
<polygon fill="white" stroke="black" points="791.5,-650 791.5,-778 874.5,-778 874.5,-650 791.5,-650"/>
<text text-anchor="middle" x="833" y="-765" font-family="Helvetica,sans-Serif" font-size="10.00">Worker</text>
<polyline fill="none" stroke="black" points="791.5,-757 874.5,-757 "/>
<text text-anchor="middle" x="833" y="-744" font-family="Helvetica,sans-Serif" font-size="10.00"> </text>
<polyline fill="none" stroke="black" points="791.5,-736 874.5,-736 "/>
<text text-anchor="start" x="799.5" y="-723" font-family="Helvetica,sans-Serif" font-size="10.00">+ getStacked()</text>
<text text-anchor="start" x="799.5" y="-710" font-family="Helvetica,sans-Serif" font-size="10.00">+ isShutdown()</text>
<text text-anchor="start" x="799.5" y="-697" font-family="Helvetica,sans-Serif" font-size="10.00">+ isWorking()</text>
<text text-anchor="start" x="799.5" y="-684" font-family="Helvetica,sans-Serif" font-size="10.00">+ shutdown()</text>
<text text-anchor="start" x="799.5" y="-671" font-family="Helvetica,sans-Serif" font-size="10.00">+ stack()</text>
<text text-anchor="start" x="799.5" y="-658" font-family="Helvetica,sans-Serif" font-size="10.00">+ unstack()</text>
</a>
</g>
<!-- Node9&#45;&gt;Node18 -->
<g id="edge34" class="edge"><title>Node9&#45;&gt;Node18</title>
<path fill="none" stroke="midnightblue" d="M586.941,-904.253C592.683,-897.468 599.022,-891.261 606,-886 664.548,-841.86 709.505,-895.503 767,-850 789.843,-831.922 805.285,-803.952 815.45,-778.068"/>
<polygon fill="none" stroke="midnightblue" points="583.913,-902.441 580.472,-912.462 589.41,-906.774 583.913,-902.441"/>
</g>
<!-- Node12 -->
<g id="node23" class="node"><title>Node12</title>
<a xlink:href="../../dd/de2/classpocketmine_1_1command_1_1_command_reader.html" target="_top" xlink:title="{pocketmine\\command\l\\CommandReader\n||+ __construct()\l+ getLine()\l+ run()\l}">
<polygon fill="white" stroke="black" points="308.5,-394 308.5,-496 421.5,-496 421.5,-394 308.5,-394"/>
<text text-anchor="start" x="316.5" y="-483" font-family="Helvetica,sans-Serif" font-size="10.00">pocketmine\command</text>
<text text-anchor="middle" x="365" y="-470" font-family="Helvetica,sans-Serif" font-size="10.00">\CommandReader</text>
<polyline fill="none" stroke="black" points="308.5,-462 421.5,-462 "/>
<text text-anchor="middle" x="365" y="-449" font-family="Helvetica,sans-Serif" font-size="10.00"> </text>
<polyline fill="none" stroke="black" points="308.5,-441 421.5,-441 "/>
<text text-anchor="start" x="316.5" y="-428" font-family="Helvetica,sans-Serif" font-size="10.00">+ __construct()</text>
<text text-anchor="start" x="316.5" y="-415" font-family="Helvetica,sans-Serif" font-size="10.00">+ getLine()</text>
<text text-anchor="start" x="316.5" y="-402" font-family="Helvetica,sans-Serif" font-size="10.00">+ run()</text>
</a>
</g>
<!-- Node11&#45;&gt;Node12 -->
<g id="edge22" class="edge"><title>Node11&#45;&gt;Node12</title>
<path fill="none" stroke="midnightblue" d="M440.342,-672.718C424.659,-625.318 398.92,-547.522 381.966,-496.278"/>
<polygon fill="none" stroke="midnightblue" points="437.065,-673.957 443.529,-682.351 443.711,-671.758 437.065,-673.957"/>
</g>
<!-- Node13 -->
<g id="node25" class="node"><title>Node13</title>
<a xlink:href="../../d6/de7/classpocketmine_1_1level_1_1generator_1_1_generation_thread.html" target="_top" xlink:title="{pocketmine\\level\\generator\l\\GenerationThread\n|# $loadPaths\l# $loader\l# $logger\l# $externalSocket\l# $internalSocket\l|+ getExternalSocket()\l+ getInternalSocket()\l+ getLogger()\l+ __construct()\l+ run()\l# addDependency()\l}">
<polygon fill="white" stroke="black" points="439,-348.5 439,-541.5 573,-541.5 573,-348.5 439,-348.5"/>
<text text-anchor="start" x="447" y="-528.5" font-family="Helvetica,sans-Serif" font-size="10.00">pocketmine\level\generator</text>
<text text-anchor="middle" x="506" y="-515.5" font-family="Helvetica,sans-Serif" font-size="10.00">\GenerationThread</text>
<polyline fill="none" stroke="black" points="439,-507.5 573,-507.5 "/>
<text text-anchor="start" x="447" y="-494.5" font-family="Helvetica,sans-Serif" font-size="10.00"># $loadPaths</text>
<text text-anchor="start" x="447" y="-481.5" font-family="Helvetica,sans-Serif" font-size="10.00"># $loader</text>
<text text-anchor="start" x="447" y="-468.5" font-family="Helvetica,sans-Serif" font-size="10.00"># $logger</text>
<text text-anchor="start" x="447" y="-455.5" font-family="Helvetica,sans-Serif" font-size="10.00"># $externalSocket</text>
<text text-anchor="start" x="447" y="-442.5" font-family="Helvetica,sans-Serif" font-size="10.00"># $internalSocket</text>
<polyline fill="none" stroke="black" points="439,-434.5 573,-434.5 "/>
<text text-anchor="start" x="447" y="-421.5" font-family="Helvetica,sans-Serif" font-size="10.00">+ getExternalSocket()</text>
<text text-anchor="start" x="447" y="-408.5" font-family="Helvetica,sans-Serif" font-size="10.00">+ getInternalSocket()</text>
<text text-anchor="start" x="447" y="-395.5" font-family="Helvetica,sans-Serif" font-size="10.00">+ getLogger()</text>
<text text-anchor="start" x="447" y="-382.5" font-family="Helvetica,sans-Serif" font-size="10.00">+ __construct()</text>
<text text-anchor="start" x="447" y="-369.5" font-family="Helvetica,sans-Serif" font-size="10.00">+ run()</text>
<text text-anchor="start" x="447" y="-356.5" font-family="Helvetica,sans-Serif" font-size="10.00"># addDependency()</text>
</a>
</g>
<!-- Node11&#45;&gt;Node13 -->
<g id="edge24" class="edge"><title>Node11&#45;&gt;Node13</title>
<path fill="none" stroke="midnightblue" d="M462.1,-672.1C468.821,-637.33 478.644,-586.515 487.295,-541.765"/>
<polygon fill="none" stroke="midnightblue" points="458.58,-671.869 460.118,-682.351 465.452,-673.197 458.58,-671.869"/>
</g>
<!-- Node16 -->
<g id="node31" class="node"><title>Node16</title>
<a xlink:href="../../d3/db3/class_attachable_threaded_logger.html" target="_top" xlink:title="{AttachableThreadedLogger\n|# $attachment\l|+ addAttachment()\l+ removeAttachment()\l+ removeAttachments()\l+ getAttachments()\l}">
<polygon fill="white" stroke="black" points="637.5,-394 637.5,-496 770.5,-496 770.5,-394 637.5,-394"/>
<text text-anchor="middle" x="704" y="-483" font-family="Helvetica,sans-Serif" font-size="10.00">AttachableThreadedLogger</text>
<polyline fill="none" stroke="black" points="637.5,-475 770.5,-475 "/>
<text text-anchor="start" x="645.5" y="-462" font-family="Helvetica,sans-Serif" font-size="10.00"># $attachment</text>
<polyline fill="none" stroke="black" points="637.5,-454 770.5,-454 "/>
<text text-anchor="start" x="645.5" y="-441" font-family="Helvetica,sans-Serif" font-size="10.00">+ addAttachment()</text>
<text text-anchor="start" x="645.5" y="-428" font-family="Helvetica,sans-Serif" font-size="10.00">+ removeAttachment()</text>
<text text-anchor="start" x="645.5" y="-415" font-family="Helvetica,sans-Serif" font-size="10.00">+ removeAttachments()</text>
<text text-anchor="start" x="645.5" y="-402" font-family="Helvetica,sans-Serif" font-size="10.00">+ getAttachments()</text>
</a>
</g>
<!-- Node15&#45;&gt;Node16 -->
<g id="edge30" class="edge"><title>Node15&#45;&gt;Node16</title>
<path fill="none" stroke="midnightblue" d="M713.288,-672.122C711.347,-624.668 708.184,-547.308 706.097,-496.278"/>
<polygon fill="none" stroke="midnightblue" points="709.8,-672.503 713.706,-682.351 716.794,-672.217 709.8,-672.503"/>
</g>
<!-- Node17 -->
<g id="node33" class="node"><title>Node17</title>
<a xlink:href="../../d9/d27/classpocketmine_1_1utils_1_1_main_logger.html" target="_top" xlink:title="{pocketmine\\utils\\MainLogger\n|+ $logger\l# $logFile\l# $logStream\l# $shutdown\l# $hasANSI\l# $logDebug\l|+ __construct()\l+ emergency()\l+ alert()\l+ critical()\l+ error()\l+ warning()\l+ notice()\l+ info()\l+ debug()\l+ setLogDebug()\l+ log()\l+ shutdown()\l+ run()\l+ getLogger()\l# send()\l}">
<polygon fill="white" stroke="black" points="630.5,-1 630.5,-311 771.5,-311 771.5,-1 630.5,-1"/>
<text text-anchor="middle" x="701" y="-298" font-family="Helvetica,sans-Serif" font-size="10.00">pocketmine\utils\MainLogger</text>
<polyline fill="none" stroke="black" points="630.5,-290 771.5,-290 "/>
<text text-anchor="start" x="638.5" y="-277" font-family="Helvetica,sans-Serif" font-size="10.00">+ $logger</text>
<text text-anchor="start" x="638.5" y="-264" font-family="Helvetica,sans-Serif" font-size="10.00"># $logFile</text>
<text text-anchor="start" x="638.5" y="-251" font-family="Helvetica,sans-Serif" font-size="10.00"># $logStream</text>
<text text-anchor="start" x="638.5" y="-238" font-family="Helvetica,sans-Serif" font-size="10.00"># $shutdown</text>
<text text-anchor="start" x="638.5" y="-225" font-family="Helvetica,sans-Serif" font-size="10.00"># $hasANSI</text>
<text text-anchor="start" x="638.5" y="-212" font-family="Helvetica,sans-Serif" font-size="10.00"># $logDebug</text>
<polyline fill="none" stroke="black" points="630.5,-204 771.5,-204 "/>
<text text-anchor="start" x="638.5" y="-191" font-family="Helvetica,sans-Serif" font-size="10.00">+ __construct()</text>
<text text-anchor="start" x="638.5" y="-178" font-family="Helvetica,sans-Serif" font-size="10.00">+ emergency()</text>
<text text-anchor="start" x="638.5" y="-165" font-family="Helvetica,sans-Serif" font-size="10.00">+ alert()</text>
<text text-anchor="start" x="638.5" y="-152" font-family="Helvetica,sans-Serif" font-size="10.00">+ critical()</text>
<text text-anchor="start" x="638.5" y="-139" font-family="Helvetica,sans-Serif" font-size="10.00">+ error()</text>
<text text-anchor="start" x="638.5" y="-126" font-family="Helvetica,sans-Serif" font-size="10.00">+ warning()</text>
<text text-anchor="start" x="638.5" y="-113" font-family="Helvetica,sans-Serif" font-size="10.00">+ notice()</text>
<text text-anchor="start" x="638.5" y="-100" font-family="Helvetica,sans-Serif" font-size="10.00">+ info()</text>
<text text-anchor="start" x="638.5" y="-87" font-family="Helvetica,sans-Serif" font-size="10.00">+ debug()</text>
<text text-anchor="start" x="638.5" y="-74" font-family="Helvetica,sans-Serif" font-size="10.00">+ setLogDebug()</text>
<text text-anchor="start" x="638.5" y="-61" font-family="Helvetica,sans-Serif" font-size="10.00">+ log()</text>
<text text-anchor="start" x="638.5" y="-48" font-family="Helvetica,sans-Serif" font-size="10.00">+ shutdown()</text>
<text text-anchor="start" x="638.5" y="-35" font-family="Helvetica,sans-Serif" font-size="10.00">+ run()</text>
<text text-anchor="start" x="638.5" y="-22" font-family="Helvetica,sans-Serif" font-size="10.00">+ getLogger()</text>
<text text-anchor="start" x="638.5" y="-9" font-family="Helvetica,sans-Serif" font-size="10.00"># send()</text>
</a>
</g>
<!-- Node16&#45;&gt;Node17 -->
<g id="edge32" class="edge"><title>Node16&#45;&gt;Node17</title>
<path fill="none" stroke="midnightblue" d="M703.364,-383.72C703.14,-362.141 702.877,-336.804 702.609,-311.018"/>
<polygon fill="none" stroke="midnightblue" points="699.867,-384.035 703.471,-393.998 706.866,-383.962 699.867,-384.035"/>
</g>
<!-- Node19 -->
<g id="node37" class="node"><title>Node19</title>
<a xlink:href="../../d1/d8c/classpocketmine_1_1_worker.html" target="_top" xlink:title="{pocketmine\\Worker\n||+ start()\l}">
<polygon fill="white" stroke="black" points="792.5,-413.5 792.5,-476.5 893.5,-476.5 893.5,-413.5 792.5,-413.5"/>
<text text-anchor="middle" x="843" y="-463.5" font-family="Helvetica,sans-Serif" font-size="10.00">pocketmine\Worker</text>
<polyline fill="none" stroke="black" points="792.5,-455.5 893.5,-455.5 "/>
<text text-anchor="middle" x="843" y="-442.5" font-family="Helvetica,sans-Serif" font-size="10.00"> </text>
<polyline fill="none" stroke="black" points="792.5,-434.5 893.5,-434.5 "/>
<text text-anchor="start" x="800.5" y="-421.5" font-family="Helvetica,sans-Serif" font-size="10.00">+ start()</text>
</a>
</g>
<!-- Node18&#45;&gt;Node19 -->
<g id="edge36" class="edge"><title>Node18&#45;&gt;Node19</title>
<path fill="none" stroke="midnightblue" d="M835.759,-639.778C837.748,-586.277 840.333,-516.734 841.816,-476.862"/>
<polygon fill="none" stroke="midnightblue" points="832.257,-639.786 835.383,-649.91 839.252,-640.047 832.257,-639.786"/>
</g>
<!-- Node20 -->
<g id="node39" class="node"><title>Node20</title>
<a xlink:href="../../d1/d4e/classpocketmine_1_1scheduler_1_1_async_worker.html" target="_top" xlink:title="{pocketmine\\scheduler\l\\AsyncWorker\n||+ run()\l}">
<polygon fill="white" stroke="black" points="789,-118 789,-194 901,-194 901,-118 789,-118"/>
<text text-anchor="start" x="797" y="-181" font-family="Helvetica,sans-Serif" font-size="10.00">pocketmine\scheduler</text>
<text text-anchor="middle" x="845" y="-168" font-family="Helvetica,sans-Serif" font-size="10.00">\AsyncWorker</text>
<polyline fill="none" stroke="black" points="789,-160 901,-160 "/>
<text text-anchor="middle" x="845" y="-147" font-family="Helvetica,sans-Serif" font-size="10.00"> </text>
<polyline fill="none" stroke="black" points="789,-139 901,-139 "/>
<text text-anchor="start" x="797" y="-126" font-family="Helvetica,sans-Serif" font-size="10.00">+ run()</text>
</a>
</g>
<!-- Node19&#45;&gt;Node20 -->
<g id="edge38" class="edge"><title>Node19&#45;&gt;Node20</title>
<path fill="none" stroke="midnightblue" d="M843.291,-402.949C843.679,-346.838 844.361,-248.292 844.736,-194.204"/>
<polygon fill="none" stroke="midnightblue" points="839.789,-403.221 843.22,-413.245 846.789,-403.27 839.789,-403.221"/>
</g>
</g>
</svg>
