<?xml version="1.0" encoding="UTF-8" standalone="no"?>
<!DOCTYPE svg PUBLIC "-//W3C//DTD SVG 1.1//EN"
 "http://www.w3.org/Graphics/SVG/1.1/DTD/svg11.dtd">
<!-- Generated by graphviz version 2.26.3 (20100126.1600)
 -->
<!-- Title: G Pages: 1 -->
<!--zoomable 1228 -->
<svg id="main" version="1.1" xmlns="http://www.w3.org/2000/svg" xmlns:xlink="http://www.w3.org/1999/xlink" xml:space="preserve" onload="init(evt)">
        <defs>
                <circle id="rim" cx="0" cy="0" r="7"/>
                <circle id="rim2" cx="0" cy="0" r="3.5"/>
                <g id="zoomPlus">
                        <use xlink:href="#rim" fill="#404040">
                                <set attributeName="fill" to="#808080" begin="zoomplus.mouseover" end="zoomplus.mouseout"/>
                        </use>
                        <path d="M-4,0h8M0,-4v8" fill="none" stroke="white" stroke-width="1.5" pointer-events="none"/>
                </g>
                <g id="zoomMin">
                        <use xlink:href="#rim" fill="#404040">
                                <set attributeName="fill" to="#808080" begin="zoomminus.mouseover" end="zoomminus.mouseout"/>
                        </use>
                        <path d="M-4,0h8" fill="none" stroke="white" stroke-width="1.5" pointer-events="none"/>
                </g>
                <g id="dirArrow">
                        <path fill="none" stroke="white" stroke-width="1.5" d="M0,-3.0v7 M-2.5,-0.5L0,-3.0L2.5,-0.5"/>
                </g>
               <g id="resetDef">
                       <use xlink:href="#rim2" fill="#404040">
                               <set attributeName="fill" to="#808080" begin="reset.mouseover" end="reset.mouseout"/>
                       </use>
               </g>
        </defs>

<script type="text/javascript">
var viewWidth = 1303;
var viewHeight = 1228;
var sectionId = 'dynsection-0';
</script>
<script xlink:href="../../svgpan.js"/>
<svg id="graph" class="graph">
<g id="viewport">
<title>G</title>
<polygon fill="white" stroke="white" points="-4,5 -4,-1224 1300,-1224 1300,5 -4,5"/>
<!-- Node1 -->
<g id="node1" class="node"><title>Node1</title>
<polygon fill="#bfbfbf" stroke="black" points="689.5,-1026.5 689.5,-1219.5 802.5,-1219.5 802.5,-1026.5 689.5,-1026.5"/>
<text text-anchor="middle" x="746" y="-1206.5" font-family="Helvetica,sans-Serif" font-size="10.00">Threaded</text>
<polyline fill="none" stroke="black" points="689.5,-1198.5 802.5,-1198.5 "/>
<text text-anchor="middle" x="746" y="-1185.5" font-family="Helvetica,sans-Serif" font-size="10.00"> </text>
<polyline fill="none" stroke="black" points="689.5,-1177.5 802.5,-1177.5 "/>
<text text-anchor="start" x="697.5" y="-1164.5" font-family="Helvetica,sans-Serif" font-size="10.00">+ chunk()</text>
<text text-anchor="start" x="697.5" y="-1151.5" font-family="Helvetica,sans-Serif" font-size="10.00">+ count()</text>
<text text-anchor="start" x="697.5" y="-1138.5" font-family="Helvetica,sans-Serif" font-size="10.00">+ getTerminationInfo()</text>
<text text-anchor="start" x="697.5" y="-1125.5" font-family="Helvetica,sans-Serif" font-size="10.00">+ isRunning()</text>
<text text-anchor="start" x="697.5" y="-1112.5" font-family="Helvetica,sans-Serif" font-size="10.00">+ isTerminated()</text>
<text text-anchor="start" x="697.5" y="-1099.5" font-family="Helvetica,sans-Serif" font-size="10.00">+ isWaiting()</text>
<text text-anchor="start" x="697.5" y="-1086.5" font-family="Helvetica,sans-Serif" font-size="10.00">+ lock()</text>
<text text-anchor="start" x="697.5" y="-1073.5" font-family="Helvetica,sans-Serif" font-size="10.00">+ merge()</text>
<text text-anchor="start" x="697.5" y="-1060.5" font-family="Helvetica,sans-Serif" font-size="10.00">+ notify()</text>
<text text-anchor="start" x="697.5" y="-1047.5" font-family="Helvetica,sans-Serif" font-size="10.00">+ offsetGet()</text>
<text text-anchor="middle" x="746" y="-1034.5" font-family="Helvetica,sans-Serif" font-size="10.00">and 8 more...</text>
</g>
<!-- Node2 -->
<g id="node3" class="node"><title>Node2</title>
<a xlink:href="../../df/dfa/classpocketmine_1_1scheduler_1_1_async_task.html" target="_top" xlink:title="{pocketmine\\scheduler\\AsyncTask\n||+ run()\l+ isFinished()\l+ getResult()\l+ hasResult()\l+ setResult()\l+ onRun()\l+ onCompletion()\l}">
<polygon fill="white" stroke="black" points="259,-822.5 259,-963.5 423,-963.5 423,-822.5 259,-822.5"/>
<text text-anchor="middle" x="341" y="-950.5" font-family="Helvetica,sans-Serif" font-size="10.00">pocketmine\scheduler\AsyncTask</text>
<polyline fill="none" stroke="black" points="259,-942.5 423,-942.5 "/>
<text text-anchor="middle" x="341" y="-929.5" font-family="Helvetica,sans-Serif" font-size="10.00"> </text>
<polyline fill="none" stroke="black" points="259,-921.5 423,-921.5 "/>
<text text-anchor="start" x="267" y="-908.5" font-family="Helvetica,sans-Serif" font-size="10.00">+ run()</text>
<text text-anchor="start" x="267" y="-895.5" font-family="Helvetica,sans-Serif" font-size="10.00">+ isFinished()</text>
<text text-anchor="start" x="267" y="-882.5" font-family="Helvetica,sans-Serif" font-size="10.00">+ getResult()</text>
<text text-anchor="start" x="267" y="-869.5" font-family="Helvetica,sans-Serif" font-size="10.00">+ hasResult()</text>
<text text-anchor="start" x="267" y="-856.5" font-family="Helvetica,sans-Serif" font-size="10.00">+ setResult()</text>
<text text-anchor="start" x="267" y="-843.5" font-family="Helvetica,sans-Serif" font-size="10.00">+ onRun()</text>
<text text-anchor="start" x="267" y="-830.5" font-family="Helvetica,sans-Serif" font-size="10.00">+ onCompletion()</text>
</a>
</g>
<!-- Node1&#45;&gt;Node2 -->
<g id="edge2" class="edge"><title>Node1&#45;&gt;Node2</title>
<path fill="none" stroke="midnightblue" d="M680.504,-1085.8C610.451,-1046.02 499.207,-982.846 423.291,-939.733"/>
<polygon fill="none" stroke="midnightblue" points="678.836,-1088.88 689.26,-1090.78 682.293,-1082.8 678.836,-1088.88"/>
</g>
<!-- Node4 -->
<g id="node7" class="node"><title>Node4</title>
<a xlink:href="../../d8/d18/class_thread.html" target="_top" xlink:title="{Thread\n||+ detach()\l+ getCreatorId()\l+ getThreadId()\l+ isJoined()\l+ isStarted()\l+ join()\l+ kill()\l+ start()\l+ getCurrentThread()\l+ getCurrentThreadId()\l+ globally()\l}">
<polygon fill="white" stroke="black" points="688,-796.5 688,-989.5 804,-989.5 804,-796.5 688,-796.5"/>
<text text-anchor="middle" x="746" y="-976.5" font-family="Helvetica,sans-Serif" font-size="10.00">Thread</text>
<polyline fill="none" stroke="black" points="688,-968.5 804,-968.5 "/>
<text text-anchor="middle" x="746" y="-955.5" font-family="Helvetica,sans-Serif" font-size="10.00"> </text>
<polyline fill="none" stroke="black" points="688,-947.5 804,-947.5 "/>
<text text-anchor="start" x="696" y="-934.5" font-family="Helvetica,sans-Serif" font-size="10.00">+ detach()</text>
<text text-anchor="start" x="696" y="-921.5" font-family="Helvetica,sans-Serif" font-size="10.00">+ getCreatorId()</text>
<text text-anchor="start" x="696" y="-908.5" font-family="Helvetica,sans-Serif" font-size="10.00">+ getThreadId()</text>
<text text-anchor="start" x="696" y="-895.5" font-family="Helvetica,sans-Serif" font-size="10.00">+ isJoined()</text>
<text text-anchor="start" x="696" y="-882.5" font-family="Helvetica,sans-Serif" font-size="10.00">+ isStarted()</text>
<text text-anchor="start" x="696" y="-869.5" font-family="Helvetica,sans-Serif" font-size="10.00">+ join()</text>
<text text-anchor="start" x="696" y="-856.5" font-family="Helvetica,sans-Serif" font-size="10.00">+ kill()</text>
<text text-anchor="start" x="696" y="-843.5" font-family="Helvetica,sans-Serif" font-size="10.00">+ start()</text>
<text text-anchor="start" x="696" y="-830.5" font-family="Helvetica,sans-Serif" font-size="10.00">+ getCurrentThread()</text>
<text text-anchor="start" x="696" y="-817.5" font-family="Helvetica,sans-Serif" font-size="10.00">+ getCurrentThreadId()</text>
<text text-anchor="start" x="696" y="-804.5" font-family="Helvetica,sans-Serif" font-size="10.00">+ globally()</text>
</a>
</g>
<!-- Node1&#45;&gt;Node4 -->
<g id="edge6" class="edge"><title>Node1&#45;&gt;Node4</title>
<path fill="none" stroke="midnightblue" d="M746,-1016.42C746,-1007.5 746,-998.507 746,-989.663"/>
<polygon fill="none" stroke="midnightblue" points="742.5,-1016.46 746,-1026.46 749.5,-1016.46 742.5,-1016.46"/>
</g>
<!-- Node14 -->
<g id="node27" class="node"><title>Node14</title>
<a xlink:href="../../d2/d6c/class_threaded_logger_attachment.html" target="_top" xlink:title="{ThreadedLoggerAttachment\n|# $attachment\l|+ call()\l+ addAttachment()\l+ removeAttachment()\l+ removeAttachments()\l+ getAttachments()\l}">
<polygon fill="white" stroke="black" points="821.5,-835.5 821.5,-950.5 958.5,-950.5 958.5,-835.5 821.5,-835.5"/>
<text text-anchor="middle" x="890" y="-937.5" font-family="Helvetica,sans-Serif" font-size="10.00">ThreadedLoggerAttachment</text>
<polyline fill="none" stroke="black" points="821.5,-929.5 958.5,-929.5 "/>
<text text-anchor="start" x="829.5" y="-916.5" font-family="Helvetica,sans-Serif" font-size="10.00"># $attachment</text>
<polyline fill="none" stroke="black" points="821.5,-908.5 958.5,-908.5 "/>
<text text-anchor="start" x="829.5" y="-895.5" font-family="Helvetica,sans-Serif" font-size="10.00">+ call()</text>
<text text-anchor="start" x="829.5" y="-882.5" font-family="Helvetica,sans-Serif" font-size="10.00">+ addAttachment()</text>
<text text-anchor="start" x="829.5" y="-869.5" font-family="Helvetica,sans-Serif" font-size="10.00">+ removeAttachment()</text>
<text text-anchor="start" x="829.5" y="-856.5" font-family="Helvetica,sans-Serif" font-size="10.00">+ removeAttachments()</text>
<text text-anchor="start" x="829.5" y="-843.5" font-family="Helvetica,sans-Serif" font-size="10.00">+ getAttachments()</text>
</a>
</g>
<!-- Node1&#45;&gt;Node14 -->
<g id="edge26" class="edge"><title>Node1&#45;&gt;Node14</title>
<path fill="none" stroke="midnightblue" d="M808.196,-1023.66C823.803,-998.731 840.038,-972.801 853.89,-950.675"/>
<polygon fill="none" stroke="midnightblue" points="805.046,-1022.09 802.706,-1032.43 810.979,-1025.81 805.046,-1022.09"/>
</g>
<!-- Node3 -->
<g id="node5" class="node"><title>Node3</title>
<a xlink:href="../../da/d91/classpocketmine_1_1scheduler_1_1_send_usage_task.html" target="_top" xlink:title="{pocketmine\\scheduler\\SendUsageTask\n|+ $endpoint\l+ $data\l|+ __construct()\l+ onRun()\l+ onCompletion()\l}">
<polygon fill="white" stroke="black" points="0,-573 0,-675 188,-675 188,-573 0,-573"/>
<text text-anchor="middle" x="94" y="-662" font-family="Helvetica,sans-Serif" font-size="10.00">pocketmine\scheduler\SendUsageTask</text>
<polyline fill="none" stroke="black" points="0,-654 188,-654 "/>
<text text-anchor="start" x="8" y="-641" font-family="Helvetica,sans-Serif" font-size="10.00">+ $endpoint</text>
<text text-anchor="start" x="8" y="-628" font-family="Helvetica,sans-Serif" font-size="10.00">+ $data</text>
<polyline fill="none" stroke="black" points="0,-620 188,-620 "/>
<text text-anchor="start" x="8" y="-607" font-family="Helvetica,sans-Serif" font-size="10.00">+ __construct()</text>
<text text-anchor="start" x="8" y="-594" font-family="Helvetica,sans-Serif" font-size="10.00">+ onRun()</text>
<text text-anchor="start" x="8" y="-581" font-family="Helvetica,sans-Serif" font-size="10.00">+ onCompletion()</text>
</a>
</g>
<!-- Node2&#45;&gt;Node3 -->
<g id="edge4" class="edge"><title>Node2&#45;&gt;Node3</title>
<path fill="none" stroke="midnightblue" d="M251.912,-815.311C233.169,-797.717 213.954,-778.694 197,-760 172.824,-733.344 148.395,-701.356 129.399,-675.101"/>
<polygon fill="none" stroke="midnightblue" points="249.643,-817.981 259.345,-822.238 254.415,-812.86 249.643,-817.981"/>
</g>
<!-- Node5 -->
<g id="node9" class="node"><title>Node5</title>
<a xlink:href="../../dd/de2/classpocketmine_1_1command_1_1_command_reader.html" target="_top" xlink:title="{pocketmine\\command\\CommandReader\n||+ __construct()\l+ getLine()\l+ run()\l}">
<polygon fill="white" stroke="black" points="206,-579.5 206,-668.5 398,-668.5 398,-579.5 206,-579.5"/>
<text text-anchor="middle" x="302" y="-655.5" font-family="Helvetica,sans-Serif" font-size="10.00">pocketmine\command\CommandReader</text>
<polyline fill="none" stroke="black" points="206,-647.5 398,-647.5 "/>
<text text-anchor="middle" x="302" y="-634.5" font-family="Helvetica,sans-Serif" font-size="10.00"> </text>
<polyline fill="none" stroke="black" points="206,-626.5 398,-626.5 "/>
<text text-anchor="start" x="214" y="-613.5" font-family="Helvetica,sans-Serif" font-size="10.00">+ __construct()</text>
<text text-anchor="start" x="214" y="-600.5" font-family="Helvetica,sans-Serif" font-size="10.00">+ getLine()</text>
<text text-anchor="start" x="214" y="-587.5" font-family="Helvetica,sans-Serif" font-size="10.00">+ run()</text>
</a>
</g>
<!-- Node4&#45;&gt;Node5 -->
<g id="edge8" class="edge"><title>Node4&#45;&gt;Node5</title>
<path fill="none" stroke="midnightblue" d="M677.987,-877.852C605.451,-859.21 489.837,-822.141 407,-760 374.19,-735.388 346.334,-697.98 327.576,-668.623"/>
<polygon fill="none" stroke="midnightblue" points="677.376,-881.307 687.928,-880.361 679.089,-874.52 677.376,-881.307"/>
</g>
<!-- Node6 -->
<g id="node11" class="node"><title>Node6</title>
<a xlink:href="../../d6/de7/classpocketmine_1_1level_1_1generator_1_1_generation_thread.html" target="_top" xlink:title="{pocketmine\\level\\generator\\GenerationThread\n|# $loadPaths\l# $loader\l# $logger\l# $externalSocket\l# $internalSocket\l|+ getExternalSocket()\l+ getInternalSocket()\l+ getLogger()\l+ __construct()\l+ run()\l# addDependency()\l}">
<polygon fill="white" stroke="black" points="416,-534 416,-714 630,-714 630,-534 416,-534"/>
<text text-anchor="middle" x="523" y="-701" font-family="Helvetica,sans-Serif" font-size="10.00">pocketmine\level\generator\GenerationThread</text>
<polyline fill="none" stroke="black" points="416,-693 630,-693 "/>
<text text-anchor="start" x="424" y="-680" font-family="Helvetica,sans-Serif" font-size="10.00"># $loadPaths</text>
<text text-anchor="start" x="424" y="-667" font-family="Helvetica,sans-Serif" font-size="10.00"># $loader</text>
<text text-anchor="start" x="424" y="-654" font-family="Helvetica,sans-Serif" font-size="10.00"># $logger</text>
<text text-anchor="start" x="424" y="-641" font-family="Helvetica,sans-Serif" font-size="10.00"># $externalSocket</text>
<text text-anchor="start" x="424" y="-628" font-family="Helvetica,sans-Serif" font-size="10.00"># $internalSocket</text>
<polyline fill="none" stroke="black" points="416,-620 630,-620 "/>
<text text-anchor="start" x="424" y="-607" font-family="Helvetica,sans-Serif" font-size="10.00">+ getExternalSocket()</text>
<text text-anchor="start" x="424" y="-594" font-family="Helvetica,sans-Serif" font-size="10.00">+ getInternalSocket()</text>
<text text-anchor="start" x="424" y="-581" font-family="Helvetica,sans-Serif" font-size="10.00">+ getLogger()</text>
<text text-anchor="start" x="424" y="-568" font-family="Helvetica,sans-Serif" font-size="10.00">+ __construct()</text>
<text text-anchor="start" x="424" y="-555" font-family="Helvetica,sans-Serif" font-size="10.00">+ run()</text>
<text text-anchor="start" x="424" y="-542" font-family="Helvetica,sans-Serif" font-size="10.00"># addDependency()</text>
</a>
</g>
<!-- Node4&#45;&gt;Node6 -->
<g id="edge10" class="edge"><title>Node4&#45;&gt;Node6</title>
<path fill="none" stroke="midnightblue" d="M681.45,-815.134C655.344,-783.643 625.037,-747.085 597.962,-714.425"/>
<polygon fill="none" stroke="midnightblue" points="678.915,-817.561 687.992,-823.026 684.304,-813.093 678.915,-817.561"/>
</g>
<!-- Node7 -->
<g id="node13" class="node"><title>Node7</title>
<a xlink:href="../../d3/d92/classpocketmine_1_1network_1_1rcon_1_1_r_c_o_n_instance.html" target="_top" xlink:title="{pocketmine\\network\\rcon\\RCONInstance\n|+ $stop\l+ $cmd\l+ $response\l|+ __construct()\l+ close()\l+ run()\l}">
<polygon fill="white" stroke="black" points="647.5,-566.5 647.5,-681.5 844.5,-681.5 844.5,-566.5 647.5,-566.5"/>
<text text-anchor="middle" x="746" y="-668.5" font-family="Helvetica,sans-Serif" font-size="10.00">pocketmine\network\rcon\RCONInstance</text>
<polyline fill="none" stroke="black" points="647.5,-660.5 844.5,-660.5 "/>
<text text-anchor="start" x="655.5" y="-647.5" font-family="Helvetica,sans-Serif" font-size="10.00">+ $stop</text>
<text text-anchor="start" x="655.5" y="-634.5" font-family="Helvetica,sans-Serif" font-size="10.00">+ $cmd</text>
<text text-anchor="start" x="655.5" y="-621.5" font-family="Helvetica,sans-Serif" font-size="10.00">+ $response</text>
<polyline fill="none" stroke="black" points="647.5,-613.5 844.5,-613.5 "/>
<text text-anchor="start" x="655.5" y="-600.5" font-family="Helvetica,sans-Serif" font-size="10.00">+ __construct()</text>
<text text-anchor="start" x="655.5" y="-587.5" font-family="Helvetica,sans-Serif" font-size="10.00">+ close()</text>
<text text-anchor="start" x="655.5" y="-574.5" font-family="Helvetica,sans-Serif" font-size="10.00">+ run()</text>
</a>
</g>
<!-- Node4&#45;&gt;Node7 -->
<g id="edge12" class="edge"><title>Node4&#45;&gt;Node7</title>
<path fill="none" stroke="midnightblue" d="M746,-785.814C746,-750.227 746,-711.977 746,-681.605"/>
<polygon fill="none" stroke="midnightblue" points="742.5,-786.265 746,-796.265 749.5,-786.265 742.5,-786.265"/>
</g>
<!-- Node8 -->
<g id="node15" class="node"><title>Node8</title>
<a xlink:href="../../d1/d8d/classraklib_1_1server_1_1_rak_lib_server.html" target="_top" xlink:title="{raklib\\server\\RakLibServer\n|+ $loadPaths\l# $port\l# $interface\l# $logger\l# $loader\l# $shutdown\l# $externalSocket\l# $internalSocket\l|+ __construct()\l+ addDependency()\l+ isShutdown()\l+ shutdown()\l+ getPort()\l+ getInterface()\l+ getLogger()\l+ getExternalSocket()\l+ getInternalSocket()\l+ run()\l}">
<polygon fill="white" stroke="black" points="862,-488.5 862,-759.5 994,-759.5 994,-488.5 862,-488.5"/>
<text text-anchor="middle" x="928" y="-746.5" font-family="Helvetica,sans-Serif" font-size="10.00">raklib\server\RakLibServer</text>
<polyline fill="none" stroke="black" points="862,-738.5 994,-738.5 "/>
<text text-anchor="start" x="870" y="-725.5" font-family="Helvetica,sans-Serif" font-size="10.00">+ $loadPaths</text>
<text text-anchor="start" x="870" y="-712.5" font-family="Helvetica,sans-Serif" font-size="10.00"># $port</text>
<text text-anchor="start" x="870" y="-699.5" font-family="Helvetica,sans-Serif" font-size="10.00"># $interface</text>
<text text-anchor="start" x="870" y="-686.5" font-family="Helvetica,sans-Serif" font-size="10.00"># $logger</text>
<text text-anchor="start" x="870" y="-673.5" font-family="Helvetica,sans-Serif" font-size="10.00"># $loader</text>
<text text-anchor="start" x="870" y="-660.5" font-family="Helvetica,sans-Serif" font-size="10.00"># $shutdown</text>
<text text-anchor="start" x="870" y="-647.5" font-family="Helvetica,sans-Serif" font-size="10.00"># $externalSocket</text>
<text text-anchor="start" x="870" y="-634.5" font-family="Helvetica,sans-Serif" font-size="10.00"># $internalSocket</text>
<polyline fill="none" stroke="black" points="862,-626.5 994,-626.5 "/>
<text text-anchor="start" x="870" y="-613.5" font-family="Helvetica,sans-Serif" font-size="10.00">+ __construct()</text>
<text text-anchor="start" x="870" y="-600.5" font-family="Helvetica,sans-Serif" font-size="10.00">+ addDependency()</text>
<text text-anchor="start" x="870" y="-587.5" font-family="Helvetica,sans-Serif" font-size="10.00">+ isShutdown()</text>
<text text-anchor="start" x="870" y="-574.5" font-family="Helvetica,sans-Serif" font-size="10.00">+ shutdown()</text>
<text text-anchor="start" x="870" y="-561.5" font-family="Helvetica,sans-Serif" font-size="10.00">+ getPort()</text>
<text text-anchor="start" x="870" y="-548.5" font-family="Helvetica,sans-Serif" font-size="10.00">+ getInterface()</text>
<text text-anchor="start" x="870" y="-535.5" font-family="Helvetica,sans-Serif" font-size="10.00">+ getLogger()</text>
<text text-anchor="start" x="870" y="-522.5" font-family="Helvetica,sans-Serif" font-size="10.00">+ getExternalSocket()</text>
<text text-anchor="start" x="870" y="-509.5" font-family="Helvetica,sans-Serif" font-size="10.00">+ getInternalSocket()</text>
<text text-anchor="start" x="870" y="-496.5" font-family="Helvetica,sans-Serif" font-size="10.00">+ run()</text>
</a>
</g>
<!-- Node4&#45;&gt;Node8 -->
<g id="edge14" class="edge"><title>Node4&#45;&gt;Node8</title>
<path fill="none" stroke="midnightblue" d="M810.773,-798.561C811.514,-797.699 812.257,-796.845 813,-796 828.793,-778.038 838.129,-778.733 853,-760 856.018,-756.199 858.982,-752.26 861.885,-748.221"/>
<polygon fill="none" stroke="midnightblue" points="807.867,-796.581 804.148,-806.502 813.242,-801.065 807.867,-796.581"/>
</g>
<!-- Node9 -->
<g id="node17" class="node"><title>Node9</title>
<a xlink:href="../../d0/d55/class_threaded_logger.html" target="_top" xlink:title="{ThreadedLogger\n||}">
<polygon fill="white" stroke="black" points="1012,-592.5 1012,-655.5 1098,-655.5 1098,-592.5 1012,-592.5"/>
<text text-anchor="middle" x="1055" y="-642.5" font-family="Helvetica,sans-Serif" font-size="10.00">ThreadedLogger</text>
<polyline fill="none" stroke="black" points="1012,-634.5 1098,-634.5 "/>
<text text-anchor="middle" x="1055" y="-621.5" font-family="Helvetica,sans-Serif" font-size="10.00"> </text>
<polyline fill="none" stroke="black" points="1012,-613.5 1098,-613.5 "/>
<text text-anchor="middle" x="1055" y="-600.5" font-family="Helvetica,sans-Serif" font-size="10.00"> </text>
</a>
</g>
<!-- Node4&#45;&gt;Node9 -->
<g id="edge16" class="edge"><title>Node4&#45;&gt;Node9</title>
<path fill="none" stroke="midnightblue" d="M812.134,-796.57C812.422,-796.378 812.71,-796.188 813,-796 885.042,-749.13 937.067,-815.133 1003,-760 1034.22,-733.893 1046.74,-686.833 1051.73,-655.5"/>
<polygon fill="none" stroke="midnightblue" points="809.985,-793.807 804.046,-802.581 814.16,-799.425 809.985,-793.807"/>
</g>
<!-- Node12 -->
<g id="node23" class="node"><title>Node12</title>
<a xlink:href="../../d3/d0a/class_worker.html" target="_top" xlink:title="{Worker\n||+ getStacked()\l+ isShutdown()\l+ isWorking()\l+ shutdown()\l+ stack()\l+ unstack()\l}">
<polygon fill="white" stroke="black" points="1149.5,-560 1149.5,-688 1232.5,-688 1232.5,-560 1149.5,-560"/>
<text text-anchor="middle" x="1191" y="-675" font-family="Helvetica,sans-Serif" font-size="10.00">Worker</text>
<polyline fill="none" stroke="black" points="1149.5,-667 1232.5,-667 "/>
<text text-anchor="middle" x="1191" y="-654" font-family="Helvetica,sans-Serif" font-size="10.00"> </text>
<polyline fill="none" stroke="black" points="1149.5,-646 1232.5,-646 "/>
<text text-anchor="start" x="1157.5" y="-633" font-family="Helvetica,sans-Serif" font-size="10.00">+ getStacked()</text>
<text text-anchor="start" x="1157.5" y="-620" font-family="Helvetica,sans-Serif" font-size="10.00">+ isShutdown()</text>
<text text-anchor="start" x="1157.5" y="-607" font-family="Helvetica,sans-Serif" font-size="10.00">+ isWorking()</text>
<text text-anchor="start" x="1157.5" y="-594" font-family="Helvetica,sans-Serif" font-size="10.00">+ shutdown()</text>
<text text-anchor="start" x="1157.5" y="-581" font-family="Helvetica,sans-Serif" font-size="10.00">+ stack()</text>
<text text-anchor="start" x="1157.5" y="-568" font-family="Helvetica,sans-Serif" font-size="10.00">+ unstack()</text>
</a>
</g>
<!-- Node4&#45;&gt;Node12 -->
<g id="edge22" class="edge"><title>Node4&#45;&gt;Node12</title>
<path fill="none" stroke="midnightblue" d="M812.721,-796.169C812.814,-796.113 812.907,-796.056 813,-796 925.634,-727.857 996.147,-831.002 1107,-760 1133.41,-743.086 1152.87,-714.606 1166.37,-688.066"/>
<polygon fill="none" stroke="midnightblue" points="810.61,-793.374 804.369,-801.936 814.587,-799.135 810.61,-793.374"/>
</g>
<!-- Node10 -->
<g id="node19" class="node"><title>Node10</title>
<a xlink:href="../../d3/db3/class_attachable_threaded_logger.html" target="_top" xlink:title="{AttachableThreadedLogger\n|# $attachment\l|+ addAttachment()\l+ removeAttachment()\l+ removeAttachments()\l+ getAttachments()\l}">
<polygon fill="white" stroke="black" points="970.5,-349 970.5,-451 1103.5,-451 1103.5,-349 970.5,-349"/>
<text text-anchor="middle" x="1037" y="-438" font-family="Helvetica,sans-Serif" font-size="10.00">AttachableThreadedLogger</text>
<polyline fill="none" stroke="black" points="970.5,-430 1103.5,-430 "/>
<text text-anchor="start" x="978.5" y="-417" font-family="Helvetica,sans-Serif" font-size="10.00"># $attachment</text>
<polyline fill="none" stroke="black" points="970.5,-409 1103.5,-409 "/>
<text text-anchor="start" x="978.5" y="-396" font-family="Helvetica,sans-Serif" font-size="10.00">+ addAttachment()</text>
<text text-anchor="start" x="978.5" y="-383" font-family="Helvetica,sans-Serif" font-size="10.00">+ removeAttachment()</text>
<text text-anchor="start" x="978.5" y="-370" font-family="Helvetica,sans-Serif" font-size="10.00">+ removeAttachments()</text>
<text text-anchor="start" x="978.5" y="-357" font-family="Helvetica,sans-Serif" font-size="10.00">+ getAttachments()</text>
</a>
</g>
<!-- Node9&#45;&gt;Node10 -->
<g id="edge18" class="edge"><title>Node9&#45;&gt;Node10</title>
<path fill="none" stroke="midnightblue" d="M1051.62,-581.942C1048.64,-544.909 1044.3,-490.866 1041.12,-451.302"/>
<polygon fill="none" stroke="midnightblue" points="1048.17,-582.694 1052.46,-592.381 1055.15,-582.133 1048.17,-582.694"/>
</g>
<!-- Node11 -->
<g id="node21" class="node"><title>Node11</title>
<a xlink:href="../../d9/d27/classpocketmine_1_1utils_1_1_main_logger.html" target="_top" xlink:title="{pocketmine\\utils\\MainLogger\n|+ $logger\l# $logFile\l# $logStream\l# $shutdown\l# $hasANSI\l# $logDebug\l|+ __construct()\l+ emergency()\l+ alert()\l+ critical()\l+ error()\l+ warning()\l+ notice()\l+ info()\l+ debug()\l+ setLogDebug()\l+ log()\l+ shutdown()\l+ run()\l+ getLogger()\l# send()\l}">
<polygon fill="white" stroke="black" points="966.5,-1 966.5,-311 1107.5,-311 1107.5,-1 966.5,-1"/>
<text text-anchor="middle" x="1037" y="-298" font-family="Helvetica,sans-Serif" font-size="10.00">pocketmine\utils\MainLogger</text>
<polyline fill="none" stroke="black" points="966.5,-290 1107.5,-290 "/>
<text text-anchor="start" x="974.5" y="-277" font-family="Helvetica,sans-Serif" font-size="10.00">+ $logger</text>
<text text-anchor="start" x="974.5" y="-264" font-family="Helvetica,sans-Serif" font-size="10.00"># $logFile</text>
<text text-anchor="start" x="974.5" y="-251" font-family="Helvetica,sans-Serif" font-size="10.00"># $logStream</text>
<text text-anchor="start" x="974.5" y="-238" font-family="Helvetica,sans-Serif" font-size="10.00"># $shutdown</text>
<text text-anchor="start" x="974.5" y="-225" font-family="Helvetica,sans-Serif" font-size="10.00"># $hasANSI</text>
<text text-anchor="start" x="974.5" y="-212" font-family="Helvetica,sans-Serif" font-size="10.00"># $logDebug</text>
<polyline fill="none" stroke="black" points="966.5,-204 1107.5,-204 "/>
<text text-anchor="start" x="974.5" y="-191" font-family="Helvetica,sans-Serif" font-size="10.00">+ __construct()</text>
<text text-anchor="start" x="974.5" y="-178" font-family="Helvetica,sans-Serif" font-size="10.00">+ emergency()</text>
<text text-anchor="start" x="974.5" y="-165" font-family="Helvetica,sans-Serif" font-size="10.00">+ alert()</text>
<text text-anchor="start" x="974.5" y="-152" font-family="Helvetica,sans-Serif" font-size="10.00">+ critical()</text>
<text text-anchor="start" x="974.5" y="-139" font-family="Helvetica,sans-Serif" font-size="10.00">+ error()</text>
<text text-anchor="start" x="974.5" y="-126" font-family="Helvetica,sans-Serif" font-size="10.00">+ warning()</text>
<text text-anchor="start" x="974.5" y="-113" font-family="Helvetica,sans-Serif" font-size="10.00">+ notice()</text>
<text text-anchor="start" x="974.5" y="-100" font-family="Helvetica,sans-Serif" font-size="10.00">+ info()</text>
<text text-anchor="start" x="974.5" y="-87" font-family="Helvetica,sans-Serif" font-size="10.00">+ debug()</text>
<text text-anchor="start" x="974.5" y="-74" font-family="Helvetica,sans-Serif" font-size="10.00">+ setLogDebug()</text>
<text text-anchor="start" x="974.5" y="-61" font-family="Helvetica,sans-Serif" font-size="10.00">+ log()</text>
<text text-anchor="start" x="974.5" y="-48" font-family="Helvetica,sans-Serif" font-size="10.00">+ shutdown()</text>
<text text-anchor="start" x="974.5" y="-35" font-family="Helvetica,sans-Serif" font-size="10.00">+ run()</text>
<text text-anchor="start" x="974.5" y="-22" font-family="Helvetica,sans-Serif" font-size="10.00">+ getLogger()</text>
<text text-anchor="start" x="974.5" y="-9" font-family="Helvetica,sans-Serif" font-size="10.00"># send()</text>
</a>
</g>
<!-- Node10&#45;&gt;Node11 -->
<g id="edge20" class="edge"><title>Node10&#45;&gt;Node11</title>
<path fill="none" stroke="midnightblue" d="M1037,-338.61C1037,-329.98 1037,-320.809 1037,-311.347"/>
<polygon fill="none" stroke="midnightblue" points="1033.5,-338.85 1037,-348.85 1040.5,-338.85 1033.5,-338.85"/>
</g>
<!-- Node13 -->
<g id="node25" class="node"><title>Node13</title>
<a xlink:href="../../d1/d4e/classpocketmine_1_1scheduler_1_1_async_worker.html" target="_top" xlink:title="{pocketmine\\scheduler\\AsyncWorker\n|+ $path\l|+ start()\l+ run()\l}">
<polygon fill="white" stroke="black" points="1121,-362 1121,-438 1295,-438 1295,-362 1121,-362"/>
<text text-anchor="middle" x="1208" y="-425" font-family="Helvetica,sans-Serif" font-size="10.00">pocketmine\scheduler\AsyncWorker</text>
<polyline fill="none" stroke="black" points="1121,-417 1295,-417 "/>
<text text-anchor="start" x="1129" y="-404" font-family="Helvetica,sans-Serif" font-size="10.00">+ $path</text>
<polyline fill="none" stroke="black" points="1121,-396 1295,-396 "/>
<text text-anchor="start" x="1129" y="-383" font-family="Helvetica,sans-Serif" font-size="10.00">+ start()</text>
<text text-anchor="start" x="1129" y="-370" font-family="Helvetica,sans-Serif" font-size="10.00">+ run()</text>
</a>
</g>
<!-- Node12&#45;&gt;Node13 -->
<g id="edge24" class="edge"><title>Node12&#45;&gt;Node13</title>
<path fill="none" stroke="midnightblue" d="M1196.66,-549.48C1199.48,-512.208 1202.79,-468.677 1205.1,-438.237"/>
<polygon fill="none" stroke="midnightblue" points="1193.14,-549.574 1195.87,-559.811 1200.12,-550.104 1193.14,-549.574"/>
</g>
</g>
</svg>
        <g id="navigator" transform="translate(0 0)" fill="#404254">
                <rect fill="#f2f5e9" fill-opacity="0.5" stroke="#606060" stroke-width=".5" x="0" y="0" width="60" height="60"/>
                <use id="zoomplus" xlink:href="#zoomPlus" x="17" y="9" onmousedown="handleZoom(evt,'in')"/>
                <use id="zoomminus" xlink:href="#zoomMin" x="42" y="9" onmousedown="handleZoom(evt,'out')"/>
                <use id="reset" xlink:href="#resetDef" x="30" y="36" onmousedown="handleReset()"/>
                <g id="arrowUp" xlink:href="#dirArrow" transform="translate(30 24)" onmousedown="handlePan(0,-1)">
                  <use xlink:href="#rim" fill="#404040">
                        <set attributeName="fill" to="#808080" begin="arrowUp.mouseover" end="arrowUp.mouseout"/>
                  </use>
                  <path fill="none" stroke="white" stroke-width="1.5" d="M0,-3.0v7 M-2.5,-0.5L0,-3.0L2.5,-0.5"/>
                </g>
                <g id="arrowRight" xlink:href="#dirArrow" transform="rotate(90) translate(36 -43)" onmousedown="handlePan(1,0)">
                  <use xlink:href="#rim" fill="#404040">
                        <set attributeName="fill" to="#808080" begin="arrowRight.mouseover" end="arrowRight.mouseout"/>
                  </use>
                  <path fill="none" stroke="white" stroke-width="1.5" d="M0,-3.0v7 M-2.5,-0.5L0,-3.0L2.5,-0.5"/>
                </g>
                <g id="arrowDown" xlink:href="#dirArrow" transform="rotate(180) translate(-30 -48)" onmousedown="handlePan(0,1)">
                  <use xlink:href="#rim" fill="#404040">
                        <set attributeName="fill" to="#808080" begin="arrowDown.mouseover" end="arrowDown.mouseout"/>
                  </use>
                  <path fill="none" stroke="white" stroke-width="1.5" d="M0,-3.0v7 M-2.5,-0.5L0,-3.0L2.5,-0.5"/>
                </g>
                <g id="arrowLeft" xlink:href="#dirArrow" transform="rotate(270) translate(-36 17)" onmousedown="handlePan(-1,0)">
                  <use xlink:href="#rim" fill="#404040">
                        <set attributeName="fill" to="#808080" begin="arrowLeft.mouseover" end="arrowLeft.mouseout"/>
                  </use>
                  <path fill="none" stroke="white" stroke-width="1.5" d="M0,-3.0v7 M-2.5,-0.5L0,-3.0L2.5,-0.5"/>
                </g>
        </g>
</svg>
