<?xml version="1.0" encoding="UTF-8" standalone="no"?>
<!DOCTYPE svg PUBLIC "-//W3C//DTD SVG 1.1//EN"
 "http://www.w3.org/Graphics/SVG/1.1/DTD/svg11.dtd">
<!-- Generated by graphviz version 2.26.3 (20100126.1600)
 -->
<!-- Title: pocketmine\nbt\tag\Compound Pages: 1 -->
<svg width="207pt" height="582pt"
 viewBox="0.00 0.00 207.00 582.00" xmlns="http://www.w3.org/2000/svg" xmlns:xlink="http://www.w3.org/1999/xlink">
<g id="graph1" class="graph" transform="scale(1 1) rotate(0) translate(4 578)">
<title>pocketmine\nbt\tag\Compound</title>
<polygon fill="white" stroke="white" points="-4,5 -4,-578 204,-578 204,5 -4,5"/>
<!-- Node1 -->
<g id="node1" class="node"><title>Node1</title>
<polygon fill="#bfbfbf" stroke="black" points="61,-0.5 61,-167.5 161,-167.5 161,-0.5 61,-0.5"/>
<text text-anchor="start" x="69" y="-154.5" font-family="Helvetica,sans-Serif" font-size="10.00">pocketmine\nbt\tag</text>
<text text-anchor="middle" x="111" y="-141.5" font-family="Helvetica,sans-Serif" font-size="10.00">\Compound</text>
<polyline fill="none" stroke="black" points="61,-133.5 161,-133.5 "/>
<text text-anchor="middle" x="111" y="-120.5" font-family="Helvetica,sans-Serif" font-size="10.00"> </text>
<polyline fill="none" stroke="black" points="61,-112.5 161,-112.5 "/>
<text text-anchor="start" x="69" y="-99.5" font-family="Helvetica,sans-Serif" font-size="10.00">+ __construct()</text>
<text text-anchor="start" x="69" y="-86.5" font-family="Helvetica,sans-Serif" font-size="10.00">+ offsetExists()</text>
<text text-anchor="start" x="69" y="-73.5" font-family="Helvetica,sans-Serif" font-size="10.00">+ offsetGet()</text>
<text text-anchor="start" x="69" y="-60.5" font-family="Helvetica,sans-Serif" font-size="10.00">+ offsetSet()</text>
<text text-anchor="start" x="69" y="-47.5" font-family="Helvetica,sans-Serif" font-size="10.00">+ offsetUnset()</text>
<text text-anchor="start" x="69" y="-34.5" font-family="Helvetica,sans-Serif" font-size="10.00">+ getType()</text>
<text text-anchor="start" x="69" y="-21.5" font-family="Helvetica,sans-Serif" font-size="10.00">+ read()</text>
<text text-anchor="start" x="69" y="-8.5" font-family="Helvetica,sans-Serif" font-size="10.00">+ write()</text>
</g>
<!-- Node2 -->
<g id="node2" class="node"><title>Node2</title>
<a xlink:href="../../d9/dc5/classpocketmine_1_1nbt_1_1tag_1_1_named_tag.html" target="_top" xlink:title="{pocketmine\\nbt\\tag\l\\NamedTag\n|# $name\l|+ __construct()\l+ getName()\l+ setName()\l}">
<polygon fill="white" stroke="black" points="9,-205 9,-307 109,-307 109,-205 9,-205"/>
<text text-anchor="start" x="17" y="-294" font-family="Helvetica,sans-Serif" font-size="10.00">pocketmine\nbt\tag</text>
<text text-anchor="middle" x="59" y="-281" font-family="Helvetica,sans-Serif" font-size="10.00">\NamedTag</text>
<polyline fill="none" stroke="black" points="9,-273 109,-273 "/>
<text text-anchor="start" x="17" y="-260" font-family="Helvetica,sans-Serif" font-size="10.00"># $name</text>
<polyline fill="none" stroke="black" points="9,-252 109,-252 "/>
<text text-anchor="start" x="17" y="-239" font-family="Helvetica,sans-Serif" font-size="10.00">+ __construct()</text>
<text text-anchor="start" x="17" y="-226" font-family="Helvetica,sans-Serif" font-size="10.00">+ getName()</text>
<text text-anchor="start" x="17" y="-213" font-family="Helvetica,sans-Serif" font-size="10.00">+ setName()</text>
</a>
</g>
<!-- Node2&#45;&gt;Node1 -->
<g id="edge2" class="edge"><title>Node2&#45;&gt;Node1</title>
<path fill="none" stroke="midnightblue" d="M77.4221,-195.065C80.095,-186.224 82.8849,-176.996 85.6647,-167.802"/>
<polygon fill="none" stroke="midnightblue" points="74.0046,-194.275 74.4609,-204.86 80.7051,-196.301 74.0046,-194.275"/>
</g>
<!-- Node3 -->
<g id="node4" class="node"><title>Node3</title>
<a xlink:href="../../dc/d26/classpocketmine_1_1nbt_1_1tag_1_1_tag.html" target="_top" xlink:title="{pocketmine\\nbt\\tag\\Tag\n|# $value\l|+ getValue()\l+ getType()\l+ setValue()\l+ write()\l+ read()\l+ __toString()\l}">
<polygon fill="white" stroke="black" points="-0.5,-345 -0.5,-473 118.5,-473 118.5,-345 -0.5,-345"/>
<text text-anchor="middle" x="59" y="-460" font-family="Helvetica,sans-Serif" font-size="10.00">pocketmine\nbt\tag\Tag</text>
<polyline fill="none" stroke="black" points="-0.5,-452 118.5,-452 "/>
<text text-anchor="start" x="7.5" y="-439" font-family="Helvetica,sans-Serif" font-size="10.00"># $value</text>
<polyline fill="none" stroke="black" points="-0.5,-431 118.5,-431 "/>
<text text-anchor="start" x="7.5" y="-418" font-family="Helvetica,sans-Serif" font-size="10.00">+ getValue()</text>
<text text-anchor="start" x="7.5" y="-405" font-family="Helvetica,sans-Serif" font-size="10.00">+ getType()</text>
<text text-anchor="start" x="7.5" y="-392" font-family="Helvetica,sans-Serif" font-size="10.00">+ setValue()</text>
<text text-anchor="start" x="7.5" y="-379" font-family="Helvetica,sans-Serif" font-size="10.00">+ write()</text>
<text text-anchor="start" x="7.5" y="-366" font-family="Helvetica,sans-Serif" font-size="10.00">+ read()</text>
<text text-anchor="start" x="7.5" y="-353" font-family="Helvetica,sans-Serif" font-size="10.00">+ __toString()</text>
</a>
</g>
<!-- Node3&#45;&gt;Node2 -->
<g id="edge4" class="edge"><title>Node3&#45;&gt;Node2</title>
<path fill="none" stroke="midnightblue" d="M59,-334.305C59,-325.187 59,-316.034 59,-307.366"/>
<polygon fill="none" stroke="midnightblue" points="55.5001,-334.558 59,-344.558 62.5001,-334.558 55.5001,-334.558"/>
</g>
<!-- Node4 -->
<g id="node6" class="node"><title>Node4</title>
<polygon fill="white" stroke="#bfbfbf" points="31,-510.5 31,-573.5 87,-573.5 87,-510.5 31,-510.5"/>
<text text-anchor="middle" x="59" y="-560.5" font-family="Helvetica,sans-Serif" font-size="10.00">stdClass</text>
<polyline fill="none" stroke="#bfbfbf" points="31,-552.5 87,-552.5 "/>
<text text-anchor="middle" x="59" y="-539.5" font-family="Helvetica,sans-Serif" font-size="10.00"> </text>
<polyline fill="none" stroke="#bfbfbf" points="31,-531.5 87,-531.5 "/>
<text text-anchor="middle" x="59" y="-518.5" font-family="Helvetica,sans-Serif" font-size="10.00"> </text>
</g>
<!-- Node4&#45;&gt;Node3 -->
<g id="edge6" class="edge"><title>Node4&#45;&gt;Node3</title>
<path fill="none" stroke="midnightblue" d="M59,-500.338C59,-491.719 59,-482.45 59,-473.239"/>
<polygon fill="none" stroke="midnightblue" points="55.5001,-500.481 59,-510.481 62.5001,-500.481 55.5001,-500.481"/>
</g>
<!-- Node5 -->
<g id="node8" class="node"><title>Node5</title>
<polygon fill="white" stroke="#bfbfbf" points="126.5,-224.5 126.5,-287.5 199.5,-287.5 199.5,-224.5 126.5,-224.5"/>
<text text-anchor="middle" x="163" y="-274.5" font-family="Helvetica,sans-Serif" font-size="10.00">ArrayAccess</text>
<polyline fill="none" stroke="#bfbfbf" points="126.5,-266.5 199.5,-266.5 "/>
<text text-anchor="middle" x="163" y="-253.5" font-family="Helvetica,sans-Serif" font-size="10.00"> </text>
<polyline fill="none" stroke="#bfbfbf" points="126.5,-245.5 199.5,-245.5 "/>
<text text-anchor="middle" x="163" y="-232.5" font-family="Helvetica,sans-Serif" font-size="10.00"> </text>
</g>
<!-- Node5&#45;&gt;Node1 -->
<g id="edge8" class="edge"><title>Node5&#45;&gt;Node1</title>
<path fill="none" stroke="midnightblue" d="M150.471,-214.558C146.185,-200.382 141.225,-183.974 136.298,-167.678"/>
<polygon fill="none" stroke="midnightblue" points="147.218,-215.893 153.462,-224.453 153.919,-213.868 147.218,-215.893"/>
</g>
</g>
</svg>
