<?xml version="1.0" encoding="UTF-8" standalone="no"?>
<!DOCTYPE svg PUBLIC "-//W3C//DTD SVG 1.1//EN"
 "http://www.w3.org/Graphics/SVG/1.1/DTD/svg11.dtd">
<!-- Generated by graphviz version 2.26.3 (20100126.1600)
 -->
<!-- Title: pocketmine\metadata\MetadataStore Pages: 1 -->
<!--zoomable 316 -->
<svg id="main" version="1.1" xmlns="http://www.w3.org/2000/svg" xmlns:xlink="http://www.w3.org/1999/xlink" xml:space="preserve" onload="init(evt)">
<style type="text/css"><![CDATA[
.edge:hover path { stroke: red; }
.edge:hover polygon { stroke: red; fill: red; }
]]></style>
<script type="text/javascript"><![CDATA[
var edges = document.getElementsByTagName('g');
if (edges && edges.length) {
  for (var i=0;i<edges.length;i++) {
    if (edges[i].id.substr(0,4)=='edge') {
      edges[i].setAttribute('class','edge');
    }
  }
}
]]></script>
        <defs>
                <circle id="rim" cx="0" cy="0" r="7"/>
                <circle id="rim2" cx="0" cy="0" r="3.5"/>
                <g id="zoomPlus">
                        <use xlink:href="#rim" fill="#404040">
                                <set attributeName="fill" to="#808080" begin="zoomplus.mouseover" end="zoomplus.mouseout"/>
                        </use>
                        <path d="M-4,0h8M0,-4v8" fill="none" stroke="white" stroke-width="1.5" pointer-events="none"/>
                </g>
                <g id="zoomMin">
                        <use xlink:href="#rim" fill="#404040">
                                <set attributeName="fill" to="#808080" begin="zoomminus.mouseover" end="zoomminus.mouseout"/>
                        </use>
                        <path d="M-4,0h8" fill="none" stroke="white" stroke-width="1.5" pointer-events="none"/>
                </g>
                <g id="dirArrow">
                        <path fill="none" stroke="white" stroke-width="1.5" d="M0,-3.0v7 M-2.5,-0.5L0,-3.0L2.5,-0.5"/>
                </g>
               <g id="resetDef">
                       <use xlink:href="#rim2" fill="#404040">
                               <set attributeName="fill" to="#808080" begin="reset.mouseover" end="reset.mouseout"/>
                       </use>
               </g>
        </defs>

<script type="text/javascript">
var viewWidth = 502;
var viewHeight = 316;
var sectionId = 'dynsection-0';
</script>
<script xlink:href="../../svgpan.js"/>
<svg id="graph" class="graph">
<g id="viewport">
<title>pocketmine\metadata\MetadataStore</title>
<polygon fill="white" stroke="white" points="-4,5 -4,-312 499,-312 499,5 -4,5"/>
<!-- Node1 -->
<g id="node1" class="node"><title>Node1</title>
<polygon fill="#bfbfbf" stroke="black" points="192,-179 192,-307 302,-307 302,-179 192,-179"/>
<text text-anchor="start" x="200" y="-294" font-family="Helvetica,sans-Serif" font-size="10.00">pocketmine\metadata</text>
<text text-anchor="middle" x="247" y="-281" font-family="Helvetica,sans-Serif" font-size="10.00">\MetadataStore</text>
<polyline fill="none" stroke="black" points="192,-273 302,-273 "/>
<text text-anchor="middle" x="247" y="-260" font-family="Helvetica,sans-Serif" font-size="10.00"> </text>
<polyline fill="none" stroke="black" points="192,-252 302,-252 "/>
<text text-anchor="start" x="200" y="-239" font-family="Helvetica,sans-Serif" font-size="10.00">+ setMetadata()</text>
<text text-anchor="start" x="200" y="-226" font-family="Helvetica,sans-Serif" font-size="10.00">+ getMetadata()</text>
<text text-anchor="start" x="200" y="-213" font-family="Helvetica,sans-Serif" font-size="10.00">+ hasMetadata()</text>
<text text-anchor="start" x="200" y="-200" font-family="Helvetica,sans-Serif" font-size="10.00">+ removeMetadata()</text>
<text text-anchor="start" x="200" y="-187" font-family="Helvetica,sans-Serif" font-size="10.00">+ disambiguate()</text>
</g>
<!-- Node2 -->
<g id="node3" class="node"><title>Node2</title>
<a xlink:href="../../df/de8/classpocketmine_1_1metadata_1_1_block_metadata_store.html" target="_top" xlink:title="{pocketmine\\metadata\l\\BlockMetadataStore\n||+ __construct()\l+ disambiguate()\l+ getMetadata()\l+ hasMetadata()\l+ removeMetadata()\l+ setMetadata()\l}">
<polygon fill="white" stroke="black" points="0,-0.5 0,-141.5 110,-141.5 110,-0.5 0,-0.5"/>
<text text-anchor="start" x="8" y="-128.5" font-family="Helvetica,sans-Serif" font-size="10.00">pocketmine\metadata</text>
<text text-anchor="middle" x="55" y="-115.5" font-family="Helvetica,sans-Serif" font-size="10.00">\BlockMetadataStore</text>
<polyline fill="none" stroke="black" points="0,-107.5 110,-107.5 "/>
<text text-anchor="middle" x="55" y="-94.5" font-family="Helvetica,sans-Serif" font-size="10.00"> </text>
<polyline fill="none" stroke="black" points="0,-86.5 110,-86.5 "/>
<text text-anchor="start" x="8" y="-73.5" font-family="Helvetica,sans-Serif" font-size="10.00">+ __construct()</text>
<text text-anchor="start" x="8" y="-60.5" font-family="Helvetica,sans-Serif" font-size="10.00">+ disambiguate()</text>
<text text-anchor="start" x="8" y="-47.5" font-family="Helvetica,sans-Serif" font-size="10.00">+ getMetadata()</text>
<text text-anchor="start" x="8" y="-34.5" font-family="Helvetica,sans-Serif" font-size="10.00">+ hasMetadata()</text>
<text text-anchor="start" x="8" y="-21.5" font-family="Helvetica,sans-Serif" font-size="10.00">+ removeMetadata()</text>
<text text-anchor="start" x="8" y="-8.5" font-family="Helvetica,sans-Serif" font-size="10.00">+ setMetadata()</text>
</a>
</g>
<!-- Node1&#45;&gt;Node2 -->
<g id="edge2" class="edge"><title>Node1&#45;&gt;Node2</title>
<path fill="none" stroke="midnightblue" d="M183.75,-196.507C162.531,-180.027 139.153,-160.873 119,-142 116.093,-139.278 113.168,-136.442 110.255,-133.537"/>
<polygon fill="none" stroke="midnightblue" points="181.709,-199.353 191.766,-202.687 185.983,-193.809 181.709,-199.353"/>
</g>
<!-- Node3 -->
<g id="node5" class="node"><title>Node3</title>
<a xlink:href="../../dd/d7f/classpocketmine_1_1metadata_1_1_entity_metadata_store.html" target="_top" xlink:title="{pocketmine\\metadata\l\\EntityMetadataStore\n||+ disambiguate()\l}">
<polygon fill="white" stroke="black" points="128,-33 128,-109 238,-109 238,-33 128,-33"/>
<text text-anchor="start" x="136" y="-96" font-family="Helvetica,sans-Serif" font-size="10.00">pocketmine\metadata</text>
<text text-anchor="middle" x="183" y="-83" font-family="Helvetica,sans-Serif" font-size="10.00">\EntityMetadataStore</text>
<polyline fill="none" stroke="black" points="128,-75 238,-75 "/>
<text text-anchor="middle" x="183" y="-62" font-family="Helvetica,sans-Serif" font-size="10.00"> </text>
<polyline fill="none" stroke="black" points="128,-54 238,-54 "/>
<text text-anchor="start" x="136" y="-41" font-family="Helvetica,sans-Serif" font-size="10.00">+ disambiguate()</text>
</a>
</g>
<!-- Node1&#45;&gt;Node3 -->
<g id="edge4" class="edge"><title>Node1&#45;&gt;Node3</title>
<path fill="none" stroke="midnightblue" d="M219.646,-169.486C211.907,-148.688 203.798,-126.895 197.181,-109.112"/>
<polygon fill="none" stroke="midnightblue" points="216.401,-170.802 223.169,-178.954 222.962,-168.361 216.401,-170.802"/>
</g>
<!-- Node4 -->
<g id="node7" class="node"><title>Node4</title>
<a xlink:href="../../d3/ddf/classpocketmine_1_1metadata_1_1_level_metadata_store.html" target="_top" xlink:title="{pocketmine\\metadata\l\\LevelMetadataStore\n||+ disambiguate()\l}">
<polygon fill="white" stroke="black" points="256,-33 256,-109 366,-109 366,-33 256,-33"/>
<text text-anchor="start" x="264" y="-96" font-family="Helvetica,sans-Serif" font-size="10.00">pocketmine\metadata</text>
<text text-anchor="middle" x="311" y="-83" font-family="Helvetica,sans-Serif" font-size="10.00">\LevelMetadataStore</text>
<polyline fill="none" stroke="black" points="256,-75 366,-75 "/>
<text text-anchor="middle" x="311" y="-62" font-family="Helvetica,sans-Serif" font-size="10.00"> </text>
<polyline fill="none" stroke="black" points="256,-54 366,-54 "/>
<text text-anchor="start" x="264" y="-41" font-family="Helvetica,sans-Serif" font-size="10.00">+ disambiguate()</text>
</a>
</g>
<!-- Node1&#45;&gt;Node4 -->
<g id="edge6" class="edge"><title>Node1&#45;&gt;Node4</title>
<path fill="none" stroke="midnightblue" d="M274.354,-169.486C282.093,-148.688 290.202,-126.895 296.819,-109.112"/>
<polygon fill="none" stroke="midnightblue" points="271.038,-168.361 270.831,-178.954 277.599,-170.802 271.038,-168.361"/>
</g>
<!-- Node5 -->
<g id="node9" class="node"><title>Node5</title>
<a xlink:href="../../d0/db7/classpocketmine_1_1metadata_1_1_player_metadata_store.html" target="_top" xlink:title="{pocketmine\\metadata\l\\PlayerMetadataStore\n||+ disambiguate()\l}">
<polygon fill="white" stroke="black" points="383.5,-33 383.5,-109 494.5,-109 494.5,-33 383.5,-33"/>
<text text-anchor="start" x="391.5" y="-96" font-family="Helvetica,sans-Serif" font-size="10.00">pocketmine\metadata</text>
<text text-anchor="middle" x="439" y="-83" font-family="Helvetica,sans-Serif" font-size="10.00">\PlayerMetadataStore</text>
<polyline fill="none" stroke="black" points="383.5,-75 494.5,-75 "/>
<text text-anchor="middle" x="439" y="-62" font-family="Helvetica,sans-Serif" font-size="10.00"> </text>
<polyline fill="none" stroke="black" points="383.5,-54 494.5,-54 "/>
<text text-anchor="start" x="391.5" y="-41" font-family="Helvetica,sans-Serif" font-size="10.00">+ disambiguate()</text>
</a>
</g>
<!-- Node1&#45;&gt;Node5 -->
<g id="edge8" class="edge"><title>Node1&#45;&gt;Node5</title>
<path fill="none" stroke="midnightblue" d="M310.25,-196.507C331.469,-180.027 354.847,-160.873 375,-142 385.78,-131.904 396.8,-120.247 406.59,-109.334"/>
<polygon fill="none" stroke="midnightblue" points="308.017,-193.809 302.234,-202.687 312.291,-199.353 308.017,-193.809"/>
</g>
</g>
</svg>
        <g id="navigator" transform="translate(0 0)" fill="#404254">
                <rect fill="#f2f5e9" fill-opacity="0.5" stroke="#606060" stroke-width=".5" x="0" y="0" width="60" height="60"/>
                <use id="zoomplus" xlink:href="#zoomPlus" x="17" y="9" onmousedown="handleZoom(evt,'in')"/>
                <use id="zoomminus" xlink:href="#zoomMin" x="42" y="9" onmousedown="handleZoom(evt,'out')"/>
                <use id="reset" xlink:href="#resetDef" x="30" y="36" onmousedown="handleReset()"/>
                <g id="arrowUp" xlink:href="#dirArrow" transform="translate(30 24)" onmousedown="handlePan(0,-1)">
                  <use xlink:href="#rim" fill="#404040">
                        <set attributeName="fill" to="#808080" begin="arrowUp.mouseover" end="arrowUp.mouseout"/>
                  </use>
                  <path fill="none" stroke="white" stroke-width="1.5" d="M0,-3.0v7 M-2.5,-0.5L0,-3.0L2.5,-0.5"/>
                </g>
                <g id="arrowRight" xlink:href="#dirArrow" transform="rotate(90) translate(36 -43)" onmousedown="handlePan(1,0)">
                  <use xlink:href="#rim" fill="#404040">
                        <set attributeName="fill" to="#808080" begin="arrowRight.mouseover" end="arrowRight.mouseout"/>
                  </use>
                  <path fill="none" stroke="white" stroke-width="1.5" d="M0,-3.0v7 M-2.5,-0.5L0,-3.0L2.5,-0.5"/>
                </g>
                <g id="arrowDown" xlink:href="#dirArrow" transform="rotate(180) translate(-30 -48)" onmousedown="handlePan(0,1)">
                  <use xlink:href="#rim" fill="#404040">
                        <set attributeName="fill" to="#808080" begin="arrowDown.mouseover" end="arrowDown.mouseout"/>
                  </use>
                  <path fill="none" stroke="white" stroke-width="1.5" d="M0,-3.0v7 M-2.5,-0.5L0,-3.0L2.5,-0.5"/>
                </g>
                <g id="arrowLeft" xlink:href="#dirArrow" transform="rotate(270) translate(-36 17)" onmousedown="handlePan(-1,0)">
                  <use xlink:href="#rim" fill="#404040">
                        <set attributeName="fill" to="#808080" begin="arrowLeft.mouseover" end="arrowLeft.mouseout"/>
                  </use>
                  <path fill="none" stroke="white" stroke-width="1.5" d="M0,-3.0v7 M-2.5,-0.5L0,-3.0L2.5,-0.5"/>
                </g>
        </g>
        <svg viewBox="0 0 15 15" width="100%" height="30px" preserveAspectRatio="xMaxYMin meet">
         <g id="arrow_out" transform="scale(0.3 0.3)">
          <a xlink:href="classpocketmine_1_1metadata_1_1_metadata_store__inherit__graph_org.svg" target="_base">
           <rect id="button" ry="5" rx="5" y="6" x="6" height="38" width="38"
                fill="#f2f5e9" fill-opacity="0.5" stroke="#606060" stroke-width="1.0"/>
           <path id="arrow"
             d="M 11.500037,31.436501 C 11.940474,20.09759 22.043105,11.32322 32.158766,21.979434 L 37.068811,17.246167 C 37.068811,17.246167 37.088388,32 37.088388,32 L 22.160133,31.978069 C 22.160133,31.978069 26.997745,27.140456 26.997745,27.140456 C 18.528582,18.264221 13.291696,25.230495 11.500037,31.436501 z"
             style="fill:#404040;"/>
          </a>
         </g>
        </svg>
</svg>
