<?xml version="1.0" encoding="UTF-8" standalone="no"?>
<!DOCTYPE svg PUBLIC "-//W3C//DTD SVG 1.1//EN"
 "http://www.w3.org/Graphics/SVG/1.1/DTD/svg11.dtd">
<!-- Generated by graphviz version 2.36.0 (20140111.2315)
 -->
<!-- Title: pocketmine\event\entity\EntityTeleportEvent Pages: 1 -->
<svg width="319pt" height="356pt"
 viewBox="0.00 0.00 319.00 356.00" xmlns="http://www.w3.org/2000/svg" xmlns:xlink="http://www.w3.org/1999/xlink">
<g id="graph0" class="graph" transform="scale(1 1) rotate(0) translate(4 352)">
<title>pocketmine\event\entity\EntityTeleportEvent</title>
<polygon fill="white" stroke="none" points="-4,4 -4,-352 315,-352 315,4 -4,4"/>
<!-- Node1 -->
<g id="node1" class="node"><title>Node1</title>
<polygon fill="#bfbfbf" stroke="black" points="81.5,-1 81.5,-135 214.5,-135 214.5,-1 81.5,-1"/>
<text text-anchor="start" x="89.5" y="-123" font-family="Helvetica,sans-Serif" font-size="10.00">pocketmine\event\entity</text>
<text text-anchor="middle" x="148" y="-112" font-family="Helvetica,sans-Serif" font-size="10.00">\EntityTeleportEvent</text>
<polyline fill="none" stroke="black" points="81.5,-105 214.5,-105 "/>
<text text-anchor="start" x="89.5" y="-93" font-family="Helvetica,sans-Serif" font-size="10.00">+ $handlerList</text>
<text text-anchor="start" x="89.5" y="-82" font-family="Helvetica,sans-Serif" font-size="10.00">+ $eventPool</text>
<text text-anchor="start" x="89.5" y="-71" font-family="Helvetica,sans-Serif" font-size="10.00">+ $nextEvent</text>
<polyline fill="none" stroke="black" points="81.5,-64 214.5,-64 "/>
<text text-anchor="start" x="89.5" y="-52" font-family="Helvetica,sans-Serif" font-size="10.00">+ __construct()</text>
<text text-anchor="start" x="89.5" y="-41" font-family="Helvetica,sans-Serif" font-size="10.00">+ getFrom()</text>
<text text-anchor="start" x="89.5" y="-30" font-family="Helvetica,sans-Serif" font-size="10.00">+ setFrom()</text>
<text text-anchor="start" x="89.5" y="-19" font-family="Helvetica,sans-Serif" font-size="10.00">+ getTo()</text>
<text text-anchor="start" x="89.5" y="-8" font-family="Helvetica,sans-Serif" font-size="10.00">+ setTo()</text>
</g>
<!-- Node2 -->
<g id="node2" class="node"><title>Node2</title>
<g id="a_node2"><a xlink:href="../../de/d84/classpocketmine_1_1event_1_1entity_1_1_entity_event.html" target="_top" xlink:title="{pocketmine\\event\\entity\l\\EntityEvent\n|# $entity\l|+ getEntity()\l}">
<polygon fill="white" stroke="black" points="-0.5,-173 -0.5,-241 132.5,-241 132.5,-173 -0.5,-173"/>
<text text-anchor="start" x="7.5" y="-229" font-family="Helvetica,sans-Serif" font-size="10.00">pocketmine\event\entity</text>
<text text-anchor="middle" x="66" y="-218" font-family="Helvetica,sans-Serif" font-size="10.00">\EntityEvent</text>
<polyline fill="none" stroke="black" points="-0.5,-211 132.5,-211 "/>
<text text-anchor="start" x="7.5" y="-199" font-family="Helvetica,sans-Serif" font-size="10.00"># $entity</text>
<polyline fill="none" stroke="black" points="-0.5,-192 132.5,-192 "/>
<text text-anchor="start" x="7.5" y="-180" font-family="Helvetica,sans-Serif" font-size="10.00">+ getEntity()</text>
</a>
</g>
</g>
<!-- Node2&#45;&gt;Node1 -->
<g id="edge1" class="edge"><title>Node2&#45;&gt;Node1</title>
<path fill="none" stroke="midnightblue" d="M91.153,-163.976C96.6222,-154.839 102.536,-144.958 108.411,-135.142"/>
<polygon fill="none" stroke="midnightblue" points="87.9825,-162.458 85.8499,-172.836 93.9889,-166.053 87.9825,-162.458"/>
</g>
<!-- Node3 -->
<g id="node3" class="node"><title>Node3</title>
<g id="a_node3"><a xlink:href="../../d1/d2f/classpocketmine_1_1event_1_1_event.html" target="_top" xlink:title="{pocketmine\\event\\Event\n|# $eventName\l|+ getEventName()\l+ getHandlers()\l}">
<polygon fill="white" stroke="black" points="-0.5,-279 -0.5,-347 132.5,-347 132.5,-279 -0.5,-279"/>
<text text-anchor="middle" x="66" y="-335" font-family="Helvetica,sans-Serif" font-size="10.00">pocketmine\event\Event</text>
<polyline fill="none" stroke="black" points="-0.5,-328 132.5,-328 "/>
<text text-anchor="start" x="7.5" y="-316" font-family="Helvetica,sans-Serif" font-size="10.00"># $eventName</text>
<polyline fill="none" stroke="black" points="-0.5,-309 132.5,-309 "/>
<text text-anchor="start" x="7.5" y="-297" font-family="Helvetica,sans-Serif" font-size="10.00">+ getEventName()</text>
<text text-anchor="start" x="7.5" y="-286" font-family="Helvetica,sans-Serif" font-size="10.00">+ getHandlers()</text>
</a>
</g>
</g>
<!-- Node3&#45;&gt;Node2 -->
<g id="edge2" class="edge"><title>Node3&#45;&gt;Node2</title>
<path fill="none" stroke="midnightblue" d="M66,-268.674C66,-259.502 66,-249.961 66,-241.234"/>
<polygon fill="none" stroke="midnightblue" points="62.5001,-268.808 66,-278.808 69.5001,-268.808 62.5001,-268.808"/>
</g>
<!-- Node4 -->
<g id="node4" class="node"><title>Node4</title>
<g id="a_node4"><a xlink:href="../../db/d62/interfacepocketmine_1_1event_1_1_cancellable.html" target="_top" xlink:title="{pocketmine\\event\\Cancellable\n||+ isCancelled()\l+ setCancelled()\l}">
<polygon fill="white" stroke="black" points="150.5,-173 150.5,-241 311.5,-241 311.5,-173 150.5,-173"/>
<text text-anchor="middle" x="231" y="-229" font-family="Helvetica,sans-Serif" font-size="10.00">pocketmine\event\Cancellable</text>
<polyline fill="none" stroke="black" points="150.5,-222 311.5,-222 "/>
<text text-anchor="middle" x="231" y="-210" font-family="Helvetica,sans-Serif" font-size="10.00"> </text>
<polyline fill="none" stroke="black" points="150.5,-203 311.5,-203 "/>
<text text-anchor="start" x="158.5" y="-191" font-family="Helvetica,sans-Serif" font-size="10.00">+ isCancelled()</text>
<text text-anchor="start" x="158.5" y="-180" font-family="Helvetica,sans-Serif" font-size="10.00">+ setCancelled()</text>
</a>
</g>
</g>
<!-- Node4&#45;&gt;Node1 -->
<g id="edge3" class="edge"><title>Node4&#45;&gt;Node1</title>
<path fill="none" stroke="midnightblue" d="M205.713,-164.261C200.129,-155.044 194.08,-145.06 188.072,-135.142"/>
<polygon fill="none" stroke="midnightblue" points="202.733,-166.097 210.908,-172.836 208.72,-162.47 202.733,-166.097"/>
</g>
</g>
</svg>
