<?xml version="1.0" encoding="UTF-8" standalone="no"?>
<!DOCTYPE svg PUBLIC "-//W3C//DTD SVG 1.1//EN"
 "http://www.w3.org/Graphics/SVG/1.1/DTD/svg11.dtd">
<!-- Generated by graphviz version 2.26.3 (20100126.1600)
 -->
<!-- Title: pocketmine\plugin\PluginBase Pages: 1 -->
<svg width="156pt" height="572pt"
 viewBox="0.00 0.00 156.00 572.00" xmlns="http://www.w3.org/2000/svg" xmlns:xlink="http://www.w3.org/1999/xlink">
<g id="graph1" class="graph" transform="scale(1 1) rotate(0) translate(4 568)">
<title>pocketmine\plugin\PluginBase</title>
<polygon fill="white" stroke="white" points="-4,5 -4,-568 153,-568 153,5 -4,5"/>
<!-- Node1 -->
<g id="node1" class="node"><title>Node1</title>
<polygon fill="#bfbfbf" stroke="black" points="0,-0.5 0,-219.5 148,-219.5 148,-0.5 0,-0.5"/>
<text text-anchor="middle" x="74" y="-206.5" font-family="Helvetica,sans-Serif" font-size="10.00">pocketmine\plugin\PluginBase</text>
<polyline fill="none" stroke="black" points="0,-198.5 148,-198.5 "/>
<text text-anchor="middle" x="74" y="-185.5" font-family="Helvetica,sans-Serif" font-size="10.00"> </text>
<polyline fill="none" stroke="black" points="0,-177.5 148,-177.5 "/>
<text text-anchor="start" x="8" y="-164.5" font-family="Helvetica,sans-Serif" font-size="10.00">+ onLoad()</text>
<text text-anchor="start" x="8" y="-151.5" font-family="Helvetica,sans-Serif" font-size="10.00">+ onEnable()</text>
<text text-anchor="start" x="8" y="-138.5" font-family="Helvetica,sans-Serif" font-size="10.00">+ onDisable()</text>
<text text-anchor="start" x="8" y="-125.5" font-family="Helvetica,sans-Serif" font-size="10.00">+ isEnabled()</text>
<text text-anchor="start" x="8" y="-112.5" font-family="Helvetica,sans-Serif" font-size="10.00">+ setEnabled()</text>
<text text-anchor="start" x="8" y="-99.5" font-family="Helvetica,sans-Serif" font-size="10.00">+ isDisabled()</text>
<text text-anchor="start" x="8" y="-86.5" font-family="Helvetica,sans-Serif" font-size="10.00">+ getDataFolder()</text>
<text text-anchor="start" x="8" y="-73.5" font-family="Helvetica,sans-Serif" font-size="10.00">+ getDescription()</text>
<text text-anchor="start" x="8" y="-60.5" font-family="Helvetica,sans-Serif" font-size="10.00">+ init()</text>
<text text-anchor="start" x="8" y="-47.5" font-family="Helvetica,sans-Serif" font-size="10.00">+ getLogger()</text>
<text text-anchor="start" x="8" y="-34.5" font-family="Helvetica,sans-Serif" font-size="10.00">and 14 more...</text>
<text text-anchor="start" x="8" y="-21.5" font-family="Helvetica,sans-Serif" font-size="10.00"># isPhar()</text>
<text text-anchor="start" x="8" y="-8.5" font-family="Helvetica,sans-Serif" font-size="10.00"># getFile()</text>
</g>
<!-- Node2 -->
<g id="node2" class="node"><title>Node2</title>
<a xlink:href="../../d4/d92/interfacepocketmine_1_1plugin_1_1_plugin.html" target="_top" xlink:title="{pocketmine\\plugin\\Plugin\n||+ onLoad()\l+ onEnable()\l+ isEnabled()\l+ onDisable()\l+ isDisabled()\l+ getDataFolder()\l+ getDescription()\l+ getResource()\l+ saveResource()\l+ getResources()\land 8 more...\l}">
<polygon fill="white" stroke="black" points="11.5,-256.5 11.5,-449.5 136.5,-449.5 136.5,-256.5 11.5,-256.5"/>
<text text-anchor="middle" x="74" y="-436.5" font-family="Helvetica,sans-Serif" font-size="10.00">pocketmine\plugin\Plugin</text>
<polyline fill="none" stroke="black" points="11.5,-428.5 136.5,-428.5 "/>
<text text-anchor="middle" x="74" y="-415.5" font-family="Helvetica,sans-Serif" font-size="10.00"> </text>
<polyline fill="none" stroke="black" points="11.5,-407.5 136.5,-407.5 "/>
<text text-anchor="start" x="19.5" y="-394.5" font-family="Helvetica,sans-Serif" font-size="10.00">+ onLoad()</text>
<text text-anchor="start" x="19.5" y="-381.5" font-family="Helvetica,sans-Serif" font-size="10.00">+ onEnable()</text>
<text text-anchor="start" x="19.5" y="-368.5" font-family="Helvetica,sans-Serif" font-size="10.00">+ isEnabled()</text>
<text text-anchor="start" x="19.5" y="-355.5" font-family="Helvetica,sans-Serif" font-size="10.00">+ onDisable()</text>
<text text-anchor="start" x="19.5" y="-342.5" font-family="Helvetica,sans-Serif" font-size="10.00">+ isDisabled()</text>
<text text-anchor="start" x="19.5" y="-329.5" font-family="Helvetica,sans-Serif" font-size="10.00">+ getDataFolder()</text>
<text text-anchor="start" x="19.5" y="-316.5" font-family="Helvetica,sans-Serif" font-size="10.00">+ getDescription()</text>
<text text-anchor="start" x="19.5" y="-303.5" font-family="Helvetica,sans-Serif" font-size="10.00">+ getResource()</text>
<text text-anchor="start" x="19.5" y="-290.5" font-family="Helvetica,sans-Serif" font-size="10.00">+ saveResource()</text>
<text text-anchor="start" x="19.5" y="-277.5" font-family="Helvetica,sans-Serif" font-size="10.00">+ getResources()</text>
<text text-anchor="start" x="19.5" y="-264.5" font-family="Helvetica,sans-Serif" font-size="10.00">and 8 more...</text>
</a>
</g>
<!-- Node2&#45;&gt;Node1 -->
<g id="edge2" class="edge"><title>Node2&#45;&gt;Node1</title>
<path fill="none" stroke="midnightblue" d="M74,-246.03C74,-237.265 74,-228.397 74,-219.613"/>
<polygon fill="none" stroke="midnightblue" points="70.5001,-246.262 74,-256.262 77.5001,-246.262 70.5001,-246.262"/>
</g>
<!-- Node3 -->
<g id="node4" class="node"><title>Node3</title>
<a xlink:href="../../d4/d5f/interfacepocketmine_1_1command_1_1_command_executor.html" target="_top" xlink:title="{pocketmine\\command\l\\CommandExecutor\n||+ onCommand()\l}">
<polygon fill="white" stroke="black" points="17.5,-487 17.5,-563 130.5,-563 130.5,-487 17.5,-487"/>
<text text-anchor="start" x="25.5" y="-550" font-family="Helvetica,sans-Serif" font-size="10.00">pocketmine\command</text>
<text text-anchor="middle" x="74" y="-537" font-family="Helvetica,sans-Serif" font-size="10.00">\CommandExecutor</text>
<polyline fill="none" stroke="black" points="17.5,-529 130.5,-529 "/>
<text text-anchor="middle" x="74" y="-516" font-family="Helvetica,sans-Serif" font-size="10.00"> </text>
<polyline fill="none" stroke="black" points="17.5,-508 130.5,-508 "/>
<text text-anchor="start" x="25.5" y="-495" font-family="Helvetica,sans-Serif" font-size="10.00">+ onCommand()</text>
</a>
</g>
<!-- Node3&#45;&gt;Node2 -->
<g id="edge4" class="edge"><title>Node3&#45;&gt;Node2</title>
<path fill="none" stroke="midnightblue" d="M74,-476.763C74,-468.235 74,-459.09 74,-449.773"/>
<polygon fill="none" stroke="midnightblue" points="70.5001,-476.828 74,-486.828 77.5001,-476.828 70.5001,-476.828"/>
</g>
</g>
</svg>
