<?xml version="1.0" encoding="UTF-8" standalone="no"?>
<!DOCTYPE svg PUBLIC "-//W3C//DTD SVG 1.1//EN"
 "http://www.w3.org/Graphics/SVG/1.1/DTD/svg11.dtd">
<!-- Generated by graphviz version 2.26.3 (20100126.1600)
 -->
<!-- Title: pocketmine\event\entity\EntityEvent Pages: 1 -->
<!--zoomable 712 -->
<svg id="main" version="1.1" xmlns="http://www.w3.org/2000/svg" xmlns:xlink="http://www.w3.org/1999/xlink" xml:space="preserve" onload="init(evt)">
<style type="text/css"><![CDATA[
.edge:hover path { stroke: red; }
.edge:hover polygon { stroke: red; fill: red; }
]]></style>
<script type="text/javascript"><![CDATA[
var edges = document.getElementsByTagName('g');
if (edges && edges.length) {
  for (var i=0;i<edges.length;i++) {
    if (edges[i].id.substr(0,4)=='edge') {
      edges[i].setAttribute('class','edge');
    }
  }
}
]]></script>
        <defs>
                <circle id="rim" cx="0" cy="0" r="7"/>
                <circle id="rim2" cx="0" cy="0" r="3.5"/>
                <g id="zoomPlus">
                        <use xlink:href="#rim" fill="#404040">
                                <set attributeName="fill" to="#808080" begin="zoomplus.mouseover" end="zoomplus.mouseout"/>
                        </use>
                        <path d="M-4,0h8M0,-4v8" fill="none" stroke="white" stroke-width="1.5" pointer-events="none"/>
                </g>
                <g id="zoomMin">
                        <use xlink:href="#rim" fill="#404040">
                                <set attributeName="fill" to="#808080" begin="zoomminus.mouseover" end="zoomminus.mouseout"/>
                        </use>
                        <path d="M-4,0h8" fill="none" stroke="white" stroke-width="1.5" pointer-events="none"/>
                </g>
                <g id="dirArrow">
                        <path fill="none" stroke="white" stroke-width="1.5" d="M0,-3.0v7 M-2.5,-0.5L0,-3.0L2.5,-0.5"/>
                </g>
               <g id="resetDef">
                       <use xlink:href="#rim2" fill="#404040">
                               <set attributeName="fill" to="#808080" begin="reset.mouseover" end="reset.mouseout"/>
                       </use>
               </g>
        </defs>

<script type="text/javascript">
var viewWidth = 1724;
var viewHeight = 712;
var sectionId = 'dynsection-0';
</script>
<script xlink:href="../../svgpan.js"/>
<svg id="graph" class="graph">
<g id="viewport">
<title>pocketmine\event\entity\EntityEvent</title>
<polygon fill="white" stroke="white" points="-4,5 -4,-708 1721,-708 1721,5 -4,5"/>
<!-- Node1 -->
<g id="node1" class="node"><title>Node1</title>
<polygon fill="#bfbfbf" stroke="black" points="814.5,-487 814.5,-563 935.5,-563 935.5,-487 814.5,-487"/>
<text text-anchor="start" x="822.5" y="-550" font-family="Helvetica,sans-Serif" font-size="10.00">pocketmine\event\entity</text>
<text text-anchor="middle" x="875" y="-537" font-family="Helvetica,sans-Serif" font-size="10.00">\EntityEvent</text>
<polyline fill="none" stroke="black" points="814.5,-529 935.5,-529 "/>
<text text-anchor="start" x="822.5" y="-516" font-family="Helvetica,sans-Serif" font-size="10.00"># $entity</text>
<polyline fill="none" stroke="black" points="814.5,-508 935.5,-508 "/>
<text text-anchor="start" x="822.5" y="-495" font-family="Helvetica,sans-Serif" font-size="10.00">+ getEntity()</text>
</g>
<!-- Node3 -->
<g id="node5" class="node"><title>Node3</title>
<a xlink:href="../../d5/daa/classpocketmine_1_1event_1_1entity_1_1_entity_armor_change_event.html" target="_top" xlink:title="{pocketmine\\event\\entity\l\\EntityArmorChangeEvent\n|+ $handlerList\l|+ __construct()\l+ getSlot()\l+ getNewItem()\l+ setNewItem()\l+ getOldItem()\l}">
<polygon fill="white" stroke="black" points="-0.5,-237 -0.5,-365 130.5,-365 130.5,-237 -0.5,-237"/>
<text text-anchor="start" x="7.5" y="-352" font-family="Helvetica,sans-Serif" font-size="10.00">pocketmine\event\entity</text>
<text text-anchor="middle" x="65" y="-339" font-family="Helvetica,sans-Serif" font-size="10.00">\EntityArmorChangeEvent</text>
<polyline fill="none" stroke="black" points="-0.5,-331 130.5,-331 "/>
<text text-anchor="start" x="7.5" y="-318" font-family="Helvetica,sans-Serif" font-size="10.00">+ $handlerList</text>
<polyline fill="none" stroke="black" points="-0.5,-310 130.5,-310 "/>
<text text-anchor="start" x="7.5" y="-297" font-family="Helvetica,sans-Serif" font-size="10.00">+ __construct()</text>
<text text-anchor="start" x="7.5" y="-284" font-family="Helvetica,sans-Serif" font-size="10.00">+ getSlot()</text>
<text text-anchor="start" x="7.5" y="-271" font-family="Helvetica,sans-Serif" font-size="10.00">+ getNewItem()</text>
<text text-anchor="start" x="7.5" y="-258" font-family="Helvetica,sans-Serif" font-size="10.00">+ setNewItem()</text>
<text text-anchor="start" x="7.5" y="-245" font-family="Helvetica,sans-Serif" font-size="10.00">+ getOldItem()</text>
</a>
</g>
<!-- Node1&#45;&gt;Node3 -->
<g id="edge4" class="edge"><title>Node1&#45;&gt;Node3</title>
<path fill="none" stroke="midnightblue" d="M804.309,-521.661C630.596,-512.914 192.997,-487.394 139,-450 110.269,-430.103 92.1659,-395.728 81.0626,-365.006"/>
<polygon fill="none" stroke="midnightblue" points="804.208,-525.16 814.37,-522.164 804.558,-518.169 804.208,-525.16"/>
</g>
<!-- Node4 -->
<g id="node7" class="node"><title>Node4</title>
<a xlink:href="../../d5/de3/classpocketmine_1_1event_1_1entity_1_1_entity_damage_event.html" target="_top" xlink:title="{pocketmine\\event\\entity\l\\EntityDamageEvent\n|+ MODIFIER_BASE\l+ MODIFIER_ARMOR\l+ CAUSE_CONTACT\l+ CAUSE_ENTITY_ATTACK\l+ CAUSE_PROJECTILE\l+ CAUSE_SUFFOCATION\l+ CAUSE_FALL\l+ CAUSE_FIRE\l+ CAUSE_FIRE_TICK\l+ CAUSE_LAVA\land 7 more...\l+ $handlerList\l|+ __construct()\l+ getCause()\l+ getOriginalDamage()\l+ getDamage()\l+ setDamage()\l+ isApplicable()\l+ getFinalDamage()\l}">
<polygon fill="white" stroke="black" points="147.5,-152.5 147.5,-449.5 294.5,-449.5 294.5,-152.5 147.5,-152.5"/>
<text text-anchor="start" x="155.5" y="-436.5" font-family="Helvetica,sans-Serif" font-size="10.00">pocketmine\event\entity</text>
<text text-anchor="middle" x="221" y="-423.5" font-family="Helvetica,sans-Serif" font-size="10.00">\EntityDamageEvent</text>
<polyline fill="none" stroke="black" points="147.5,-415.5 294.5,-415.5 "/>
<text text-anchor="start" x="155.5" y="-402.5" font-family="Helvetica,sans-Serif" font-size="10.00">+ MODIFIER_BASE</text>
<text text-anchor="start" x="155.5" y="-389.5" font-family="Helvetica,sans-Serif" font-size="10.00">+ MODIFIER_ARMOR</text>
<text text-anchor="start" x="155.5" y="-376.5" font-family="Helvetica,sans-Serif" font-size="10.00">+ CAUSE_CONTACT</text>
<text text-anchor="start" x="155.5" y="-363.5" font-family="Helvetica,sans-Serif" font-size="10.00">+ CAUSE_ENTITY_ATTACK</text>
<text text-anchor="start" x="155.5" y="-350.5" font-family="Helvetica,sans-Serif" font-size="10.00">+ CAUSE_PROJECTILE</text>
<text text-anchor="start" x="155.5" y="-337.5" font-family="Helvetica,sans-Serif" font-size="10.00">+ CAUSE_SUFFOCATION</text>
<text text-anchor="start" x="155.5" y="-324.5" font-family="Helvetica,sans-Serif" font-size="10.00">+ CAUSE_FALL</text>
<text text-anchor="start" x="155.5" y="-311.5" font-family="Helvetica,sans-Serif" font-size="10.00">+ CAUSE_FIRE</text>
<text text-anchor="start" x="155.5" y="-298.5" font-family="Helvetica,sans-Serif" font-size="10.00">+ CAUSE_FIRE_TICK</text>
<text text-anchor="start" x="155.5" y="-285.5" font-family="Helvetica,sans-Serif" font-size="10.00">+ CAUSE_LAVA</text>
<text text-anchor="start" x="155.5" y="-272.5" font-family="Helvetica,sans-Serif" font-size="10.00">and 7 more...</text>
<text text-anchor="start" x="155.5" y="-259.5" font-family="Helvetica,sans-Serif" font-size="10.00">+ $handlerList</text>
<polyline fill="none" stroke="black" points="147.5,-251.5 294.5,-251.5 "/>
<text text-anchor="start" x="155.5" y="-238.5" font-family="Helvetica,sans-Serif" font-size="10.00">+ __construct()</text>
<text text-anchor="start" x="155.5" y="-225.5" font-family="Helvetica,sans-Serif" font-size="10.00">+ getCause()</text>
<text text-anchor="start" x="155.5" y="-212.5" font-family="Helvetica,sans-Serif" font-size="10.00">+ getOriginalDamage()</text>
<text text-anchor="start" x="155.5" y="-199.5" font-family="Helvetica,sans-Serif" font-size="10.00">+ getDamage()</text>
<text text-anchor="start" x="155.5" y="-186.5" font-family="Helvetica,sans-Serif" font-size="10.00">+ setDamage()</text>
<text text-anchor="start" x="155.5" y="-173.5" font-family="Helvetica,sans-Serif" font-size="10.00">+ isApplicable()</text>
<text text-anchor="start" x="155.5" y="-160.5" font-family="Helvetica,sans-Serif" font-size="10.00">+ getFinalDamage()</text>
</a>
</g>
<!-- Node1&#45;&gt;Node4 -->
<g id="edge6" class="edge"><title>Node1&#45;&gt;Node4</title>
<path fill="none" stroke="midnightblue" d="M804.101,-523.554C669.475,-519.559 383.112,-504.694 303,-450 300.074,-448.002 297.242,-445.864 294.501,-443.604"/>
<polygon fill="none" stroke="midnightblue" points="804.212,-527.059 814.308,-523.845 804.411,-520.062 804.212,-527.059"/>
</g>
<!-- Node6 -->
<g id="node11" class="node"><title>Node6</title>
<a xlink:href="../../d7/d1e/classpocketmine_1_1event_1_1entity_1_1_entity_death_event.html" target="_top" xlink:title="{pocketmine\\event\\entity\l\\EntityDeathEvent\n|+ $handlerList\l|+ __construct()\l+ getEntity()\l+ getDrops()\l+ setDrops()\l}">
<polygon fill="white" stroke="black" points="311.5,-243.5 311.5,-358.5 432.5,-358.5 432.5,-243.5 311.5,-243.5"/>
<text text-anchor="start" x="319.5" y="-345.5" font-family="Helvetica,sans-Serif" font-size="10.00">pocketmine\event\entity</text>
<text text-anchor="middle" x="372" y="-332.5" font-family="Helvetica,sans-Serif" font-size="10.00">\EntityDeathEvent</text>
<polyline fill="none" stroke="black" points="311.5,-324.5 432.5,-324.5 "/>
<text text-anchor="start" x="319.5" y="-311.5" font-family="Helvetica,sans-Serif" font-size="10.00">+ $handlerList</text>
<polyline fill="none" stroke="black" points="311.5,-303.5 432.5,-303.5 "/>
<text text-anchor="start" x="319.5" y="-290.5" font-family="Helvetica,sans-Serif" font-size="10.00">+ __construct()</text>
<text text-anchor="start" x="319.5" y="-277.5" font-family="Helvetica,sans-Serif" font-size="10.00">+ getEntity()</text>
<text text-anchor="start" x="319.5" y="-264.5" font-family="Helvetica,sans-Serif" font-size="10.00">+ getDrops()</text>
<text text-anchor="start" x="319.5" y="-251.5" font-family="Helvetica,sans-Serif" font-size="10.00">+ setDrops()</text>
</a>
</g>
<!-- Node1&#45;&gt;Node6 -->
<g id="edge10" class="edge"><title>Node1&#45;&gt;Node6</title>
<path fill="none" stroke="midnightblue" d="M804.252,-520.674C696.217,-512.783 496.772,-492.761 441,-450 412.043,-427.798 394.793,-390.548 384.782,-358.848"/>
<polygon fill="none" stroke="midnightblue" points="804.189,-524.178 814.413,-521.4 804.688,-517.196 804.189,-524.178"/>
</g>
<!-- Node8 -->
<g id="node15" class="node"><title>Node8</title>
<a xlink:href="../../dc/d06/classpocketmine_1_1event_1_1entity_1_1_entity_despawn_event.html" target="_top" xlink:title="{pocketmine\\event\\entity\l\\EntityDespawnEvent\n|+ $handlerList\l|+ __construct()\l+ getType()\l+ isCreature()\l+ isHuman()\l+ isProjectile()\l+ isVehicle()\l+ isItem()\l}">
<polygon fill="white" stroke="black" points="449.5,-224 449.5,-378 570.5,-378 570.5,-224 449.5,-224"/>
<text text-anchor="start" x="457.5" y="-365" font-family="Helvetica,sans-Serif" font-size="10.00">pocketmine\event\entity</text>
<text text-anchor="middle" x="510" y="-352" font-family="Helvetica,sans-Serif" font-size="10.00">\EntityDespawnEvent</text>
<polyline fill="none" stroke="black" points="449.5,-344 570.5,-344 "/>
<text text-anchor="start" x="457.5" y="-331" font-family="Helvetica,sans-Serif" font-size="10.00">+ $handlerList</text>
<polyline fill="none" stroke="black" points="449.5,-323 570.5,-323 "/>
<text text-anchor="start" x="457.5" y="-310" font-family="Helvetica,sans-Serif" font-size="10.00">+ __construct()</text>
<text text-anchor="start" x="457.5" y="-297" font-family="Helvetica,sans-Serif" font-size="10.00">+ getType()</text>
<text text-anchor="start" x="457.5" y="-284" font-family="Helvetica,sans-Serif" font-size="10.00">+ isCreature()</text>
<text text-anchor="start" x="457.5" y="-271" font-family="Helvetica,sans-Serif" font-size="10.00">+ isHuman()</text>
<text text-anchor="start" x="457.5" y="-258" font-family="Helvetica,sans-Serif" font-size="10.00">+ isProjectile()</text>
<text text-anchor="start" x="457.5" y="-245" font-family="Helvetica,sans-Serif" font-size="10.00">+ isVehicle()</text>
<text text-anchor="start" x="457.5" y="-232" font-family="Helvetica,sans-Serif" font-size="10.00">+ isItem()</text>
</a>
</g>
<!-- Node1&#45;&gt;Node8 -->
<g id="edge14" class="edge"><title>Node1&#45;&gt;Node8</title>
<path fill="none" stroke="midnightblue" d="M804.246,-514.248C727.991,-501.438 612.968,-478.186 579,-450 556.733,-431.523 541.276,-404.275 530.73,-378.116"/>
<polygon fill="none" stroke="midnightblue" points="803.834,-517.727 814.272,-515.91 804.978,-510.822 803.834,-517.727"/>
</g>
<!-- Node9 -->
<g id="node17" class="node"><title>Node9</title>
<a xlink:href="../../d9/dc8/classpocketmine_1_1event_1_1entity_1_1_entity_explode_event.html" target="_top" xlink:title="{pocketmine\\event\\entity\l\\EntityExplodeEvent\n|+ $handlerList\l# $position\l# $blocks\l# $yield\l|+ __construct()\l+ getPosition()\l+ getBlockList()\l+ setBlockList()\l+ getYield()\l+ setYield()\l}">
<polygon fill="white" stroke="black" points="587.5,-211 587.5,-391 708.5,-391 708.5,-211 587.5,-211"/>
<text text-anchor="start" x="595.5" y="-378" font-family="Helvetica,sans-Serif" font-size="10.00">pocketmine\event\entity</text>
<text text-anchor="middle" x="648" y="-365" font-family="Helvetica,sans-Serif" font-size="10.00">\EntityExplodeEvent</text>
<polyline fill="none" stroke="black" points="587.5,-357 708.5,-357 "/>
<text text-anchor="start" x="595.5" y="-344" font-family="Helvetica,sans-Serif" font-size="10.00">+ $handlerList</text>
<text text-anchor="start" x="595.5" y="-331" font-family="Helvetica,sans-Serif" font-size="10.00"># $position</text>
<text text-anchor="start" x="595.5" y="-318" font-family="Helvetica,sans-Serif" font-size="10.00"># $blocks</text>
<text text-anchor="start" x="595.5" y="-305" font-family="Helvetica,sans-Serif" font-size="10.00"># $yield</text>
<polyline fill="none" stroke="black" points="587.5,-297 708.5,-297 "/>
<text text-anchor="start" x="595.5" y="-284" font-family="Helvetica,sans-Serif" font-size="10.00">+ __construct()</text>
<text text-anchor="start" x="595.5" y="-271" font-family="Helvetica,sans-Serif" font-size="10.00">+ getPosition()</text>
<text text-anchor="start" x="595.5" y="-258" font-family="Helvetica,sans-Serif" font-size="10.00">+ getBlockList()</text>
<text text-anchor="start" x="595.5" y="-245" font-family="Helvetica,sans-Serif" font-size="10.00">+ setBlockList()</text>
<text text-anchor="start" x="595.5" y="-232" font-family="Helvetica,sans-Serif" font-size="10.00">+ getYield()</text>
<text text-anchor="start" x="595.5" y="-219" font-family="Helvetica,sans-Serif" font-size="10.00">+ setYield()</text>
</a>
</g>
<!-- Node1&#45;&gt;Node9 -->
<g id="edge16" class="edge"><title>Node1&#45;&gt;Node9</title>
<path fill="none" stroke="midnightblue" d="M804.615,-503.692C774.637,-491.782 741.102,-474.332 717,-450 700.65,-433.494 687.717,-412.396 677.682,-391.303"/>
<polygon fill="none" stroke="midnightblue" points="803.616,-507.057 814.206,-507.365 806.119,-500.52 803.616,-507.057"/>
</g>
<!-- Node10 -->
<g id="node19" class="node"><title>Node10</title>
<a xlink:href="../../d3/d5e/classpocketmine_1_1event_1_1entity_1_1_entity_inventory_change_event.html" target="_top" xlink:title="{pocketmine\\event\\entity\l\\EntityInventoryChangeEvent\n|+ $handlerList\l|+ __construct()\l+ getSlot()\l+ getNewItem()\l+ setNewItem()\l+ getOldItem()\l}">
<polygon fill="white" stroke="black" points="725.5,-237 725.5,-365 870.5,-365 870.5,-237 725.5,-237"/>
<text text-anchor="start" x="733.5" y="-352" font-family="Helvetica,sans-Serif" font-size="10.00">pocketmine\event\entity</text>
<text text-anchor="middle" x="798" y="-339" font-family="Helvetica,sans-Serif" font-size="10.00">\EntityInventoryChangeEvent</text>
<polyline fill="none" stroke="black" points="725.5,-331 870.5,-331 "/>
<text text-anchor="start" x="733.5" y="-318" font-family="Helvetica,sans-Serif" font-size="10.00">+ $handlerList</text>
<polyline fill="none" stroke="black" points="725.5,-310 870.5,-310 "/>
<text text-anchor="start" x="733.5" y="-297" font-family="Helvetica,sans-Serif" font-size="10.00">+ __construct()</text>
<text text-anchor="start" x="733.5" y="-284" font-family="Helvetica,sans-Serif" font-size="10.00">+ getSlot()</text>
<text text-anchor="start" x="733.5" y="-271" font-family="Helvetica,sans-Serif" font-size="10.00">+ getNewItem()</text>
<text text-anchor="start" x="733.5" y="-258" font-family="Helvetica,sans-Serif" font-size="10.00">+ setNewItem()</text>
<text text-anchor="start" x="733.5" y="-245" font-family="Helvetica,sans-Serif" font-size="10.00">+ getOldItem()</text>
</a>
</g>
<!-- Node1&#45;&gt;Node10 -->
<g id="edge18" class="edge"><title>Node1&#45;&gt;Node10</title>
<path fill="none" stroke="midnightblue" d="M858.503,-477.009C847.306,-444.437 832.372,-400.992 820.143,-365.416"/>
<polygon fill="none" stroke="midnightblue" points="855.29,-478.428 861.851,-486.748 861.91,-476.153 855.29,-478.428"/>
</g>
<!-- Node11 -->
<g id="node21" class="node"><title>Node11</title>
<a xlink:href="../../d4/dc8/classpocketmine_1_1event_1_1entity_1_1_entity_level_change_event.html" target="_top" xlink:title="{pocketmine\\event\\entity\l\\EntityLevelChangeEvent\n|+ $handlerList\l|+ __construct()\l+ getOrigin()\l+ getTarget()\l}">
<polygon fill="white" stroke="black" points="888,-250 888,-352 1016,-352 1016,-250 888,-250"/>
<text text-anchor="start" x="896" y="-339" font-family="Helvetica,sans-Serif" font-size="10.00">pocketmine\event\entity</text>
<text text-anchor="middle" x="952" y="-326" font-family="Helvetica,sans-Serif" font-size="10.00">\EntityLevelChangeEvent</text>
<polyline fill="none" stroke="black" points="888,-318 1016,-318 "/>
<text text-anchor="start" x="896" y="-305" font-family="Helvetica,sans-Serif" font-size="10.00">+ $handlerList</text>
<polyline fill="none" stroke="black" points="888,-297 1016,-297 "/>
<text text-anchor="start" x="896" y="-284" font-family="Helvetica,sans-Serif" font-size="10.00">+ __construct()</text>
<text text-anchor="start" x="896" y="-271" font-family="Helvetica,sans-Serif" font-size="10.00">+ getOrigin()</text>
<text text-anchor="start" x="896" y="-258" font-family="Helvetica,sans-Serif" font-size="10.00">+ getTarget()</text>
</a>
</g>
<!-- Node1&#45;&gt;Node11 -->
<g id="edge20" class="edge"><title>Node1&#45;&gt;Node11</title>
<path fill="none" stroke="midnightblue" d="M891.417,-477.241C904.06,-440.462 921.503,-389.718 934.427,-352.121"/>
<polygon fill="none" stroke="midnightblue" points="888.09,-476.153 888.149,-486.748 894.71,-478.428 888.09,-476.153"/>
</g>
<!-- Node12 -->
<g id="node23" class="node"><title>Node12</title>
<a xlink:href="../../d5/d70/classpocketmine_1_1event_1_1entity_1_1_entity_motion_event.html" target="_top" xlink:title="{pocketmine\\event\\entity\l\\EntityMotionEvent\n|+ $handlerList\l|+ __construct()\l+ getVector()\l}">
<polygon fill="white" stroke="black" points="1033.5,-256.5 1033.5,-345.5 1154.5,-345.5 1154.5,-256.5 1033.5,-256.5"/>
<text text-anchor="start" x="1041.5" y="-332.5" font-family="Helvetica,sans-Serif" font-size="10.00">pocketmine\event\entity</text>
<text text-anchor="middle" x="1094" y="-319.5" font-family="Helvetica,sans-Serif" font-size="10.00">\EntityMotionEvent</text>
<polyline fill="none" stroke="black" points="1033.5,-311.5 1154.5,-311.5 "/>
<text text-anchor="start" x="1041.5" y="-298.5" font-family="Helvetica,sans-Serif" font-size="10.00">+ $handlerList</text>
<polyline fill="none" stroke="black" points="1033.5,-290.5 1154.5,-290.5 "/>
<text text-anchor="start" x="1041.5" y="-277.5" font-family="Helvetica,sans-Serif" font-size="10.00">+ __construct()</text>
<text text-anchor="start" x="1041.5" y="-264.5" font-family="Helvetica,sans-Serif" font-size="10.00">+ getVector()</text>
</a>
</g>
<!-- Node1&#45;&gt;Node12 -->
<g id="edge22" class="edge"><title>Node1&#45;&gt;Node12</title>
<path fill="none" stroke="midnightblue" d="M944.934,-501.644C972.585,-489.662 1002.96,-472.714 1025,-450 1053.29,-420.848 1071.47,-377.983 1082.02,-345.704"/>
<polygon fill="none" stroke="midnightblue" points="943.55,-498.429 935.677,-505.519 946.253,-504.886 943.55,-498.429"/>
</g>
<!-- Node13 -->
<g id="node25" class="node"><title>Node13</title>
<a xlink:href="../../d4/d22/classpocketmine_1_1event_1_1entity_1_1_entity_move_event.html" target="_top" xlink:title="{pocketmine\\event\\entity\l\\EntityMoveEvent\n|+ $handlerList\l|+ __construct()\l+ getVector()\l}">
<polygon fill="white" stroke="black" points="1171.5,-256.5 1171.5,-345.5 1292.5,-345.5 1292.5,-256.5 1171.5,-256.5"/>
<text text-anchor="start" x="1179.5" y="-332.5" font-family="Helvetica,sans-Serif" font-size="10.00">pocketmine\event\entity</text>
<text text-anchor="middle" x="1232" y="-319.5" font-family="Helvetica,sans-Serif" font-size="10.00">\EntityMoveEvent</text>
<polyline fill="none" stroke="black" points="1171.5,-311.5 1292.5,-311.5 "/>
<text text-anchor="start" x="1179.5" y="-298.5" font-family="Helvetica,sans-Serif" font-size="10.00">+ $handlerList</text>
<polyline fill="none" stroke="black" points="1171.5,-290.5 1292.5,-290.5 "/>
<text text-anchor="start" x="1179.5" y="-277.5" font-family="Helvetica,sans-Serif" font-size="10.00">+ __construct()</text>
<text text-anchor="start" x="1179.5" y="-264.5" font-family="Helvetica,sans-Serif" font-size="10.00">+ getVector()</text>
</a>
</g>
<!-- Node1&#45;&gt;Node13 -->
<g id="edge24" class="edge"><title>Node1&#45;&gt;Node13</title>
<path fill="none" stroke="midnightblue" d="M945.915,-513.664C1020.12,-500.582 1130.29,-477.326 1163,-450 1194.72,-423.5 1212.65,-379.218 1222.22,-345.799"/>
<polygon fill="none" stroke="midnightblue" points="944.947,-510.279 935.695,-515.441 946.147,-517.176 944.947,-510.279"/>
</g>
<!-- Node14 -->
<g id="node27" class="node"><title>Node14</title>
<a xlink:href="../../da/d3f/classpocketmine_1_1event_1_1entity_1_1_entity_regain_health_event.html" target="_top" xlink:title="{pocketmine\\event\\entity\l\\EntityRegainHealthEvent\n|+ $handlerList\l|+ __construct()\l+ getAmount()\l+ setAmount()\l}">
<polygon fill="white" stroke="black" points="1310,-250 1310,-352 1440,-352 1440,-250 1310,-250"/>
<text text-anchor="start" x="1318" y="-339" font-family="Helvetica,sans-Serif" font-size="10.00">pocketmine\event\entity</text>
<text text-anchor="middle" x="1375" y="-326" font-family="Helvetica,sans-Serif" font-size="10.00">\EntityRegainHealthEvent</text>
<polyline fill="none" stroke="black" points="1310,-318 1440,-318 "/>
<text text-anchor="start" x="1318" y="-305" font-family="Helvetica,sans-Serif" font-size="10.00">+ $handlerList</text>
<polyline fill="none" stroke="black" points="1310,-297 1440,-297 "/>
<text text-anchor="start" x="1318" y="-284" font-family="Helvetica,sans-Serif" font-size="10.00">+ __construct()</text>
<text text-anchor="start" x="1318" y="-271" font-family="Helvetica,sans-Serif" font-size="10.00">+ getAmount()</text>
<text text-anchor="start" x="1318" y="-258" font-family="Helvetica,sans-Serif" font-size="10.00">+ setAmount()</text>
</a>
</g>
<!-- Node1&#45;&gt;Node14 -->
<g id="edge26" class="edge"><title>Node1&#45;&gt;Node14</title>
<path fill="none" stroke="midnightblue" d="M945.577,-520.233C1051.73,-511.813 1245.94,-491.169 1301,-450 1332.69,-426.304 1351.65,-385.298 1362.44,-352.295"/>
<polygon fill="none" stroke="midnightblue" points="945.285,-516.745 935.586,-521.01 945.828,-523.724 945.285,-516.745"/>
</g>
<!-- Node15 -->
<g id="node29" class="node"><title>Node15</title>
<a xlink:href="../../df/d6f/classpocketmine_1_1event_1_1entity_1_1_entity_spawn_event.html" target="_top" xlink:title="{pocketmine\\event\\entity\l\\EntitySpawnEvent\n|+ $handlerList\l|+ __construct()\l+ getPosition()\l+ getType()\l+ isCreature()\l+ isHuman()\l+ isProjectile()\l+ isVehicle()\l+ isItem()\l}">
<polygon fill="white" stroke="black" points="1457.5,-217.5 1457.5,-384.5 1578.5,-384.5 1578.5,-217.5 1457.5,-217.5"/>
<text text-anchor="start" x="1465.5" y="-371.5" font-family="Helvetica,sans-Serif" font-size="10.00">pocketmine\event\entity</text>
<text text-anchor="middle" x="1518" y="-358.5" font-family="Helvetica,sans-Serif" font-size="10.00">\EntitySpawnEvent</text>
<polyline fill="none" stroke="black" points="1457.5,-350.5 1578.5,-350.5 "/>
<text text-anchor="start" x="1465.5" y="-337.5" font-family="Helvetica,sans-Serif" font-size="10.00">+ $handlerList</text>
<polyline fill="none" stroke="black" points="1457.5,-329.5 1578.5,-329.5 "/>
<text text-anchor="start" x="1465.5" y="-316.5" font-family="Helvetica,sans-Serif" font-size="10.00">+ __construct()</text>
<text text-anchor="start" x="1465.5" y="-303.5" font-family="Helvetica,sans-Serif" font-size="10.00">+ getPosition()</text>
<text text-anchor="start" x="1465.5" y="-290.5" font-family="Helvetica,sans-Serif" font-size="10.00">+ getType()</text>
<text text-anchor="start" x="1465.5" y="-277.5" font-family="Helvetica,sans-Serif" font-size="10.00">+ isCreature()</text>
<text text-anchor="start" x="1465.5" y="-264.5" font-family="Helvetica,sans-Serif" font-size="10.00">+ isHuman()</text>
<text text-anchor="start" x="1465.5" y="-251.5" font-family="Helvetica,sans-Serif" font-size="10.00">+ isProjectile()</text>
<text text-anchor="start" x="1465.5" y="-238.5" font-family="Helvetica,sans-Serif" font-size="10.00">+ isVehicle()</text>
<text text-anchor="start" x="1465.5" y="-225.5" font-family="Helvetica,sans-Serif" font-size="10.00">+ isItem()</text>
</a>
</g>
<!-- Node1&#45;&gt;Node15 -->
<g id="edge28" class="edge"><title>Node1&#45;&gt;Node15</title>
<path fill="none" stroke="midnightblue" d="M945.74,-519.58C1090.24,-507.961 1409.08,-479.322 1449,-450 1470.83,-433.968 1485.96,-409.316 1496.35,-384.649"/>
<polygon fill="none" stroke="midnightblue" points="945.333,-516.101 935.643,-520.387 945.89,-523.079 945.333,-516.101"/>
</g>
<!-- Node16 -->
<g id="node31" class="node"><title>Node16</title>
<a xlink:href="../../dc/df2/classpocketmine_1_1event_1_1entity_1_1_entity_teleport_event.html" target="_top" xlink:title="{pocketmine\\event\\entity\l\\EntityTeleportEvent\n|+ $handlerList\l|+ __construct()\l+ getFrom()\l+ setFrom()\l+ getTo()\l+ setTo()\l}">
<polygon fill="white" stroke="black" points="1595.5,-237 1595.5,-365 1716.5,-365 1716.5,-237 1595.5,-237"/>
<text text-anchor="start" x="1603.5" y="-352" font-family="Helvetica,sans-Serif" font-size="10.00">pocketmine\event\entity</text>
<text text-anchor="middle" x="1656" y="-339" font-family="Helvetica,sans-Serif" font-size="10.00">\EntityTeleportEvent</text>
<polyline fill="none" stroke="black" points="1595.5,-331 1716.5,-331 "/>
<text text-anchor="start" x="1603.5" y="-318" font-family="Helvetica,sans-Serif" font-size="10.00">+ $handlerList</text>
<polyline fill="none" stroke="black" points="1595.5,-310 1716.5,-310 "/>
<text text-anchor="start" x="1603.5" y="-297" font-family="Helvetica,sans-Serif" font-size="10.00">+ __construct()</text>
<text text-anchor="start" x="1603.5" y="-284" font-family="Helvetica,sans-Serif" font-size="10.00">+ getFrom()</text>
<text text-anchor="start" x="1603.5" y="-271" font-family="Helvetica,sans-Serif" font-size="10.00">+ setFrom()</text>
<text text-anchor="start" x="1603.5" y="-258" font-family="Helvetica,sans-Serif" font-size="10.00">+ getTo()</text>
<text text-anchor="start" x="1603.5" y="-245" font-family="Helvetica,sans-Serif" font-size="10.00">+ setTo()</text>
</a>
</g>
<!-- Node1&#45;&gt;Node16 -->
<g id="edge30" class="edge"><title>Node1&#45;&gt;Node16</title>
<path fill="none" stroke="midnightblue" d="M945.835,-521.485C1115.62,-512.507 1535.55,-486.811 1587,-450 1614.94,-430.012 1631.86,-395.828 1641.95,-365.241"/>
<polygon fill="none" stroke="midnightblue" points="945.552,-517.995 935.749,-522.015 945.918,-524.986 945.552,-517.995"/>
</g>
<!-- Node2 -->
<g id="node2" class="node"><title>Node2</title>
<a xlink:href="../../d1/d2f/classpocketmine_1_1event_1_1_event.html" target="_top" xlink:title="{pocketmine\\event\\Event\n|# $eventName\l|+ getEventName()\l+ isCancelled()\l+ setCancelled()\l+ getHandlers()\l}">
<polygon fill="white" stroke="black" points="814,-601 814,-703 936,-703 936,-601 814,-601"/>
<text text-anchor="middle" x="875" y="-690" font-family="Helvetica,sans-Serif" font-size="10.00">pocketmine\event\Event</text>
<polyline fill="none" stroke="black" points="814,-682 936,-682 "/>
<text text-anchor="start" x="822" y="-669" font-family="Helvetica,sans-Serif" font-size="10.00"># $eventName</text>
<polyline fill="none" stroke="black" points="814,-661 936,-661 "/>
<text text-anchor="start" x="822" y="-648" font-family="Helvetica,sans-Serif" font-size="10.00">+ getEventName()</text>
<text text-anchor="start" x="822" y="-635" font-family="Helvetica,sans-Serif" font-size="10.00">+ isCancelled()</text>
<text text-anchor="start" x="822" y="-622" font-family="Helvetica,sans-Serif" font-size="10.00">+ setCancelled()</text>
<text text-anchor="start" x="822" y="-609" font-family="Helvetica,sans-Serif" font-size="10.00">+ getHandlers()</text>
</a>
</g>
<!-- Node2&#45;&gt;Node1 -->
<g id="edge2" class="edge"><title>Node2&#45;&gt;Node1</title>
<path fill="none" stroke="midnightblue" d="M875,-590.625C875,-581.273 875,-571.859 875,-563.197"/>
<polygon fill="none" stroke="midnightblue" points="871.5,-590.71 875,-600.71 878.5,-590.71 871.5,-590.71"/>
</g>
<!-- Node5 -->
<g id="node9" class="node"><title>Node5</title>
<a xlink:href="../../d0/d34/classpocketmine_1_1event_1_1entity_1_1_entity_damage_by_entity_event.html" target="_top" xlink:title="{pocketmine\\event\\entity\l\\EntityDamageByEntityEvent\n|+ $handlerList\l|+ __construct()\l+ getDamager()\l}">
<polygon fill="white" stroke="black" points="148.5,-13.5 148.5,-102.5 293.5,-102.5 293.5,-13.5 148.5,-13.5"/>
<text text-anchor="start" x="156.5" y="-89.5" font-family="Helvetica,sans-Serif" font-size="10.00">pocketmine\event\entity</text>
<text text-anchor="middle" x="221" y="-76.5" font-family="Helvetica,sans-Serif" font-size="10.00">\EntityDamageByEntityEvent</text>
<polyline fill="none" stroke="black" points="148.5,-68.5 293.5,-68.5 "/>
<text text-anchor="start" x="156.5" y="-55.5" font-family="Helvetica,sans-Serif" font-size="10.00">+ $handlerList</text>
<polyline fill="none" stroke="black" points="148.5,-47.5 293.5,-47.5 "/>
<text text-anchor="start" x="156.5" y="-34.5" font-family="Helvetica,sans-Serif" font-size="10.00">+ __construct()</text>
<text text-anchor="start" x="156.5" y="-21.5" font-family="Helvetica,sans-Serif" font-size="10.00">+ getDamager()</text>
</a>
</g>
<!-- Node4&#45;&gt;Node5 -->
<g id="edge8" class="edge"><title>Node4&#45;&gt;Node5</title>
<path fill="none" stroke="midnightblue" d="M221,-141.899C221,-127.782 221,-114.417 221,-102.675"/>
<polygon fill="none" stroke="midnightblue" points="217.5,-142.298 221,-152.298 224.5,-142.298 217.5,-142.298"/>
</g>
<!-- Node7 -->
<g id="node13" class="node"><title>Node7</title>
<a xlink:href="../../d7/d7d/classpocketmine_1_1event_1_1player_1_1_player_death_event.html" target="_top" xlink:title="{pocketmine\\event\\player\l\\PlayerDeathEvent\n|+ $handlerList\l|+ __construct()\l+ getEntity()\l+ getDeathMessage()\l+ setDeathMessage()\l}">
<polygon fill="white" stroke="black" points="310.5,-0.5 310.5,-115.5 433.5,-115.5 433.5,-0.5 310.5,-0.5"/>
<text text-anchor="start" x="318.5" y="-102.5" font-family="Helvetica,sans-Serif" font-size="10.00">pocketmine\event\player</text>
<text text-anchor="middle" x="372" y="-89.5" font-family="Helvetica,sans-Serif" font-size="10.00">\PlayerDeathEvent</text>
<polyline fill="none" stroke="black" points="310.5,-81.5 433.5,-81.5 "/>
<text text-anchor="start" x="318.5" y="-68.5" font-family="Helvetica,sans-Serif" font-size="10.00">+ $handlerList</text>
<polyline fill="none" stroke="black" points="310.5,-60.5 433.5,-60.5 "/>
<text text-anchor="start" x="318.5" y="-47.5" font-family="Helvetica,sans-Serif" font-size="10.00">+ __construct()</text>
<text text-anchor="start" x="318.5" y="-34.5" font-family="Helvetica,sans-Serif" font-size="10.00">+ getEntity()</text>
<text text-anchor="start" x="318.5" y="-21.5" font-family="Helvetica,sans-Serif" font-size="10.00">+ getDeathMessage()</text>
<text text-anchor="start" x="318.5" y="-8.5" font-family="Helvetica,sans-Serif" font-size="10.00">+ setDeathMessage()</text>
</a>
</g>
<!-- Node6&#45;&gt;Node7 -->
<g id="edge12" class="edge"><title>Node6&#45;&gt;Node7</title>
<path fill="none" stroke="midnightblue" d="M372,-233.211C372,-196.204 372,-150.875 372,-115.595"/>
<polygon fill="none" stroke="midnightblue" points="368.5,-233.412 372,-243.412 375.5,-233.412 368.5,-233.412"/>
</g>
</g>
</svg>
        <g id="navigator" transform="translate(0 0)" fill="#404254">
                <rect fill="#f2f5e9" fill-opacity="0.5" stroke="#606060" stroke-width=".5" x="0" y="0" width="60" height="60"/>
                <use id="zoomplus" xlink:href="#zoomPlus" x="17" y="9" onmousedown="handleZoom(evt,'in')"/>
                <use id="zoomminus" xlink:href="#zoomMin" x="42" y="9" onmousedown="handleZoom(evt,'out')"/>
                <use id="reset" xlink:href="#resetDef" x="30" y="36" onmousedown="handleReset()"/>
                <g id="arrowUp" xlink:href="#dirArrow" transform="translate(30 24)" onmousedown="handlePan(0,-1)">
                  <use xlink:href="#rim" fill="#404040">
                        <set attributeName="fill" to="#808080" begin="arrowUp.mouseover" end="arrowUp.mouseout"/>
                  </use>
                  <path fill="none" stroke="white" stroke-width="1.5" d="M0,-3.0v7 M-2.5,-0.5L0,-3.0L2.5,-0.5"/>
                </g>
                <g id="arrowRight" xlink:href="#dirArrow" transform="rotate(90) translate(36 -43)" onmousedown="handlePan(1,0)">
                  <use xlink:href="#rim" fill="#404040">
                        <set attributeName="fill" to="#808080" begin="arrowRight.mouseover" end="arrowRight.mouseout"/>
                  </use>
                  <path fill="none" stroke="white" stroke-width="1.5" d="M0,-3.0v7 M-2.5,-0.5L0,-3.0L2.5,-0.5"/>
                </g>
                <g id="arrowDown" xlink:href="#dirArrow" transform="rotate(180) translate(-30 -48)" onmousedown="handlePan(0,1)">
                  <use xlink:href="#rim" fill="#404040">
                        <set attributeName="fill" to="#808080" begin="arrowDown.mouseover" end="arrowDown.mouseout"/>
                  </use>
                  <path fill="none" stroke="white" stroke-width="1.5" d="M0,-3.0v7 M-2.5,-0.5L0,-3.0L2.5,-0.5"/>
                </g>
                <g id="arrowLeft" xlink:href="#dirArrow" transform="rotate(270) translate(-36 17)" onmousedown="handlePan(-1,0)">
                  <use xlink:href="#rim" fill="#404040">
                        <set attributeName="fill" to="#808080" begin="arrowLeft.mouseover" end="arrowLeft.mouseout"/>
                  </use>
                  <path fill="none" stroke="white" stroke-width="1.5" d="M0,-3.0v7 M-2.5,-0.5L0,-3.0L2.5,-0.5"/>
                </g>
        </g>
        <svg viewBox="0 0 15 15" width="100%" height="30px" preserveAspectRatio="xMaxYMin meet">
         <g id="arrow_out" transform="scale(0.3 0.3)">
          <a xlink:href="classpocketmine_1_1event_1_1entity_1_1_entity_event__inherit__graph_org.svg" target="_base">
           <rect id="button" ry="5" rx="5" y="6" x="6" height="38" width="38"
                fill="#f2f5e9" fill-opacity="0.5" stroke="#606060" stroke-width="1.0"/>
           <path id="arrow"
             d="M 11.500037,31.436501 C 11.940474,20.09759 22.043105,11.32322 32.158766,21.979434 L 37.068811,17.246167 C 37.068811,17.246167 37.088388,32 37.088388,32 L 22.160133,31.978069 C 22.160133,31.978069 26.997745,27.140456 26.997745,27.140456 C 18.528582,18.264221 13.291696,25.230495 11.500037,31.436501 z"
             style="fill:#404040;"/>
          </a>
         </g>
        </svg>
</svg>
