<?xml version="1.0" encoding="UTF-8" standalone="no"?>
<!DOCTYPE svg PUBLIC "-//W3C//DTD SVG 1.1//EN"
 "http://www.w3.org/Graphics/SVG/1.1/DTD/svg11.dtd">
<!-- Generated by graphviz version 2.26.3 (20100126.1600)
 -->
<!-- Title: pocketmine\level\generator\populator\Mineshaft Pages: 1 -->
<svg width="142pt" height="200pt"
 viewBox="0.00 0.00 142.00 200.00" xmlns="http://www.w3.org/2000/svg" xmlns:xlink="http://www.w3.org/1999/xlink">
<g id="graph1" class="graph" transform="scale(1 1) rotate(0) translate(4 196)">
<title>pocketmine\level\generator\populator\Mineshaft</title>
<polygon fill="white" stroke="white" points="-4,5 -4,-196 139,-196 139,5 -4,5"/>
<!-- Node1 -->
<g id="node1" class="node"><title>Node1</title>
<polygon fill="#bfbfbf" stroke="black" points="0,-1 0,-77 134,-77 134,-1 0,-1"/>
<text text-anchor="start" x="8" y="-64" font-family="Helvetica,sans-Serif" font-size="10.00">pocketmine\level\generator</text>
<text text-anchor="middle" x="67" y="-51" font-family="Helvetica,sans-Serif" font-size="10.00">\populator\Mineshaft</text>
<polyline fill="none" stroke="black" points="0,-43 134,-43 "/>
<text text-anchor="middle" x="67" y="-30" font-family="Helvetica,sans-Serif" font-size="10.00"> </text>
<polyline fill="none" stroke="black" points="0,-22 134,-22 "/>
<text text-anchor="start" x="8" y="-9" font-family="Helvetica,sans-Serif" font-size="10.00">+ populate()</text>
</g>
<!-- Node2 -->
<g id="node2" class="node"><title>Node2</title>
<a xlink:href="../../db/de9/classpocketmine_1_1level_1_1generator_1_1populator_1_1_populator.html" target="_top" xlink:title="{pocketmine\\level\\generator\l\\populator\\Populator\n||+ populate()\l}">
<polygon fill="white" stroke="black" points="0,-115 0,-191 134,-191 134,-115 0,-115"/>
<text text-anchor="start" x="8" y="-178" font-family="Helvetica,sans-Serif" font-size="10.00">pocketmine\level\generator</text>
<text text-anchor="middle" x="67" y="-165" font-family="Helvetica,sans-Serif" font-size="10.00">\populator\Populator</text>
<polyline fill="none" stroke="black" points="0,-157 134,-157 "/>
<text text-anchor="middle" x="67" y="-144" font-family="Helvetica,sans-Serif" font-size="10.00"> </text>
<polyline fill="none" stroke="black" points="0,-136 134,-136 "/>
<text text-anchor="start" x="8" y="-123" font-family="Helvetica,sans-Serif" font-size="10.00">+ populate()</text>
</a>
</g>
<!-- Node2&#45;&gt;Node1 -->
<g id="edge2" class="edge"><title>Node2&#45;&gt;Node1</title>
<path fill="none" stroke="midnightblue" d="M67,-104.623C67,-95.5202 67,-86.1166 67,-77.3705"/>
<polygon fill="none" stroke="midnightblue" points="63.5001,-104.722 67,-114.723 70.5001,-104.723 63.5001,-104.722"/>
</g>
</g>
</svg>
