<?xml version="1.0" encoding="UTF-8" standalone="no"?>
<!DOCTYPE svg PUBLIC "-//W3C//DTD SVG 1.1//EN"
 "http://www.w3.org/Graphics/SVG/1.1/DTD/svg11.dtd">
<!-- Generated by graphviz version 2.26.3 (20100126.1600)
 -->
<!-- Title: pocketmine\event\entity\EntityLevelChangeEvent Pages: 1 -->
<svg width="295pt" height="366pt"
 viewBox="0.00 0.00 295.00 366.00" xmlns="http://www.w3.org/2000/svg" xmlns:xlink="http://www.w3.org/1999/xlink">
<g id="graph1" class="graph" transform="scale(1 1) rotate(0) translate(4 362)">
<title>pocketmine\event\entity\EntityLevelChangeEvent</title>
<polygon fill="white" stroke="white" points="-4,5 -4,-362 292,-362 292,5 -4,5"/>
<!-- Node1 -->
<g id="node1" class="node"><title>Node1</title>
<polygon fill="#bfbfbf" stroke="black" points="73,-1 73,-103 201,-103 201,-1 73,-1"/>
<text text-anchor="start" x="81" y="-90" font-family="Helvetica,sans-Serif" font-size="10.00">pocketmine\event\entity</text>
<text text-anchor="middle" x="137" y="-77" font-family="Helvetica,sans-Serif" font-size="10.00">\EntityLevelChangeEvent</text>
<polyline fill="none" stroke="black" points="73,-69 201,-69 "/>
<text text-anchor="start" x="81" y="-56" font-family="Helvetica,sans-Serif" font-size="10.00">+ $handlerList</text>
<polyline fill="none" stroke="black" points="73,-48 201,-48 "/>
<text text-anchor="start" x="81" y="-35" font-family="Helvetica,sans-Serif" font-size="10.00">+ __construct()</text>
<text text-anchor="start" x="81" y="-22" font-family="Helvetica,sans-Serif" font-size="10.00">+ getOrigin()</text>
<text text-anchor="start" x="81" y="-9" font-family="Helvetica,sans-Serif" font-size="10.00">+ getTarget()</text>
</g>
<!-- Node2 -->
<g id="node2" class="node"><title>Node2</title>
<a xlink:href="../../de/d84/classpocketmine_1_1event_1_1entity_1_1_entity_event.html" target="_top" xlink:title="{pocketmine\\event\\entity\l\\EntityEvent\n|# $entity\l|+ getEntity()\l}">
<polygon fill="white" stroke="black" points="0.5,-141 0.5,-217 121.5,-217 121.5,-141 0.5,-141"/>
<text text-anchor="start" x="8.5" y="-204" font-family="Helvetica,sans-Serif" font-size="10.00">pocketmine\event\entity</text>
<text text-anchor="middle" x="61" y="-191" font-family="Helvetica,sans-Serif" font-size="10.00">\EntityEvent</text>
<polyline fill="none" stroke="black" points="0.5,-183 121.5,-183 "/>
<text text-anchor="start" x="8.5" y="-170" font-family="Helvetica,sans-Serif" font-size="10.00"># $entity</text>
<polyline fill="none" stroke="black" points="0.5,-162 121.5,-162 "/>
<text text-anchor="start" x="8.5" y="-149" font-family="Helvetica,sans-Serif" font-size="10.00">+ getEntity()</text>
</a>
</g>
<!-- Node2&#45;&gt;Node1 -->
<g id="edge2" class="edge"><title>Node2&#45;&gt;Node1</title>
<path fill="none" stroke="midnightblue" d="M89.0796,-132.077C94.7017,-122.683 100.635,-112.767 106.339,-103.235"/>
<polygon fill="none" stroke="midnightblue" points="85.9343,-130.518 83.8025,-140.896 91.9409,-134.112 85.9343,-130.518"/>
</g>
<!-- Node3 -->
<g id="node4" class="node"><title>Node3</title>
<a xlink:href="../../d1/d2f/classpocketmine_1_1event_1_1_event.html" target="_top" xlink:title="{pocketmine\\event\\Event\n|# $eventName\l|+ getEventName()\l+ isCancelled()\l+ setCancelled()\l+ getHandlers()\l}">
<polygon fill="white" stroke="black" points="0,-255 0,-357 122,-357 122,-255 0,-255"/>
<text text-anchor="middle" x="61" y="-344" font-family="Helvetica,sans-Serif" font-size="10.00">pocketmine\event\Event</text>
<polyline fill="none" stroke="black" points="0,-336 122,-336 "/>
<text text-anchor="start" x="8" y="-323" font-family="Helvetica,sans-Serif" font-size="10.00"># $eventName</text>
<polyline fill="none" stroke="black" points="0,-315 122,-315 "/>
<text text-anchor="start" x="8" y="-302" font-family="Helvetica,sans-Serif" font-size="10.00">+ getEventName()</text>
<text text-anchor="start" x="8" y="-289" font-family="Helvetica,sans-Serif" font-size="10.00">+ isCancelled()</text>
<text text-anchor="start" x="8" y="-276" font-family="Helvetica,sans-Serif" font-size="10.00">+ setCancelled()</text>
<text text-anchor="start" x="8" y="-263" font-family="Helvetica,sans-Serif" font-size="10.00">+ getHandlers()</text>
</a>
</g>
<!-- Node3&#45;&gt;Node2 -->
<g id="edge4" class="edge"><title>Node3&#45;&gt;Node2</title>
<path fill="none" stroke="midnightblue" d="M61,-244.625C61,-235.273 61,-225.859 61,-217.197"/>
<polygon fill="none" stroke="midnightblue" points="57.5001,-244.71 61,-254.71 64.5001,-244.71 57.5001,-244.71"/>
</g>
<!-- Node4 -->
<g id="node6" class="node"><title>Node4</title>
<a xlink:href="../../db/d62/interfacepocketmine_1_1event_1_1_cancellable.html" target="_top" xlink:title="{pocketmine\\event\\Cancellable\n||+ isCancelled()\l+ setCancelled()\l}">
<polygon fill="white" stroke="black" points="139,-141 139,-217 287,-217 287,-141 139,-141"/>
<text text-anchor="middle" x="213" y="-204" font-family="Helvetica,sans-Serif" font-size="10.00">pocketmine\event\Cancellable</text>
<polyline fill="none" stroke="black" points="139,-196 287,-196 "/>
<text text-anchor="middle" x="213" y="-183" font-family="Helvetica,sans-Serif" font-size="10.00"> </text>
<polyline fill="none" stroke="black" points="139,-175 287,-175 "/>
<text text-anchor="start" x="147" y="-162" font-family="Helvetica,sans-Serif" font-size="10.00">+ isCancelled()</text>
<text text-anchor="start" x="147" y="-149" font-family="Helvetica,sans-Serif" font-size="10.00">+ setCancelled()</text>
</a>
</g>
<!-- Node4&#45;&gt;Node1 -->
<g id="edge6" class="edge"><title>Node4&#45;&gt;Node1</title>
<path fill="none" stroke="midnightblue" d="M184.92,-132.077C179.298,-122.683 173.365,-112.767 167.661,-103.235"/>
<polygon fill="none" stroke="midnightblue" points="182.059,-134.112 190.197,-140.896 188.066,-130.518 182.059,-134.112"/>
</g>
</g>
</svg>
