<?xml version="1.0" encoding="UTF-8" standalone="no"?>
<!DOCTYPE svg PUBLIC "-//W3C//DTD SVG 1.1//EN"
 "http://www.w3.org/Graphics/SVG/1.1/DTD/svg11.dtd">
<!-- Generated by graphviz version 2.36.0 (20140111.2315)
 -->
<!-- Title: pocketmine\Player\getName Pages: 1 -->
<svg width="738pt" height="104pt"
 viewBox="0.00 0.00 738.00 104.00" xmlns="http://www.w3.org/2000/svg" xmlns:xlink="http://www.w3.org/1999/xlink">
<g id="graph0" class="graph" transform="scale(1 1) rotate(0) translate(4 100)">
<title>pocketmine\Player\getName</title>
<polygon fill="white" stroke="none" points="-4,4 -4,-100 734,-100 734,4 -4,4"/>
<!-- Node1 -->
<g id="node1" class="node"><title>Node1</title>
<polygon fill="#bfbfbf" stroke="black" points="0.5,-38.5 0.5,-57.5 153.5,-57.5 153.5,-38.5 0.5,-38.5"/>
<text text-anchor="middle" x="77" y="-45.5" font-family="Helvetica,sans-Serif" font-size="10.00">pocketmine\Player\getName</text>
</g>
<!-- Node2 -->
<g id="node2" class="node"><title>Node2</title>
<g id="a_node2"><a xlink:href="../../df/d2c/classpocketmine_1_1_player.html#a71697b195952a333b72a27f3e0eff6e8" target="_top" xlink:title="pocketmine\\Player\\canSee">
<polygon fill="white" stroke="black" points="197,-76.5 197,-95.5 341,-95.5 341,-76.5 197,-76.5"/>
<text text-anchor="middle" x="269" y="-83.5" font-family="Helvetica,sans-Serif" font-size="10.00">pocketmine\Player\canSee</text>
</a>
</g>
</g>
<!-- Node1&#45;&gt;Node2 -->
<g id="edge1" class="edge"><title>Node1&#45;&gt;Node2</title>
<path fill="none" stroke="midnightblue" d="M136.048,-59.6095C163.07,-65.014 194.818,-71.3635 220.4,-76.4799"/>
<polygon fill="midnightblue" stroke="midnightblue" points="136.437,-56.1182 125.945,-57.589 135.064,-62.9823 136.437,-56.1182"/>
</g>
<!-- Node4 -->
<g id="node4" class="node"><title>Node4</title>
<g id="a_node4"><a xlink:href="../../df/d2c/classpocketmine_1_1_player.html#a4d2609373c9c8d5a444acb38214031f6" target="_top" xlink:title="pocketmine\\Player\\showPlayer">
<polygon fill="white" stroke="black" points="568.5,-57.5 568.5,-76.5 729.5,-76.5 729.5,-57.5 568.5,-57.5"/>
<text text-anchor="middle" x="649" y="-64.5" font-family="Helvetica,sans-Serif" font-size="10.00">pocketmine\Player\showPlayer</text>
</a>
</g>
</g>
<!-- Node1&#45;&gt;Node4 -->
<g id="edge5" class="edge"><title>Node1&#45;&gt;Node4</title>
<path fill="none" stroke="midnightblue" d="M163.723,-50.8574C273.341,-54.5114 461.695,-60.7898 568.322,-64.3441"/>
<polygon fill="midnightblue" stroke="midnightblue" points="163.803,-47.3582 153.692,-50.5231 163.569,-54.3544 163.803,-47.3582"/>
</g>
<!-- Node5 -->
<g id="node5" class="node"><title>Node5</title>
<g id="a_node5"><a xlink:href="../../df/d2c/classpocketmine_1_1_player.html#a9c71b41c4af4502ae1a658dd745113e6" target="_top" xlink:title="pocketmine\\Player\\hidePlayer">
<polygon fill="white" stroke="black" points="190,-0.5 190,-19.5 348,-19.5 348,-0.5 190,-0.5"/>
<text text-anchor="middle" x="269" y="-7.5" font-family="Helvetica,sans-Serif" font-size="10.00">pocketmine\Player\hidePlayer</text>
</a>
</g>
</g>
<!-- Node1&#45;&gt;Node5 -->
<g id="edge4" class="edge"><title>Node1&#45;&gt;Node5</title>
<path fill="none" stroke="midnightblue" d="M136.048,-36.3905C163.07,-30.986 194.818,-24.6365 220.4,-19.5201"/>
<polygon fill="midnightblue" stroke="midnightblue" points="135.064,-33.0177 125.945,-38.411 136.437,-39.8818 135.064,-33.0177"/>
</g>
<!-- Node3 -->
<g id="node3" class="node"><title>Node3</title>
<g id="a_node3"><a xlink:href="../../df/d2c/classpocketmine_1_1_player.html#a64148b8f2640b851c6ad698a4044e8d4" target="_top" xlink:title="pocketmine\\Player\\spawnTo">
<polygon fill="white" stroke="black" points="384,-76.5 384,-95.5 532,-95.5 532,-76.5 384,-76.5"/>
<text text-anchor="middle" x="458" y="-83.5" font-family="Helvetica,sans-Serif" font-size="10.00">pocketmine\Player\spawnTo</text>
</a>
</g>
</g>
<!-- Node2&#45;&gt;Node3 -->
<g id="edge2" class="edge"><title>Node2&#45;&gt;Node3</title>
<path fill="none" stroke="midnightblue" d="M351.458,-86C362.215,-86 373.189,-86 383.796,-86"/>
<polygon fill="midnightblue" stroke="midnightblue" points="351.23,-82.5001 341.23,-86 351.23,-89.5001 351.23,-82.5001"/>
</g>
<!-- Node3&#45;&gt;Node4 -->
<g id="edge3" class="edge"><title>Node3&#45;&gt;Node4</title>
<path fill="none" stroke="midnightblue" d="M542.159,-77.6401C550.816,-76.7698 559.603,-75.8865 568.221,-75.0201"/>
<polygon fill="midnightblue" stroke="midnightblue" points="541.672,-74.1713 532.072,-78.6541 542.372,-81.1362 541.672,-74.1713"/>
</g>
</g>
</svg>
