<?xml version="1.0" encoding="UTF-8" standalone="no"?>
<!DOCTYPE svg PUBLIC "-//W3C//DTD SVG 1.1//EN"
 "http://www.w3.org/Graphics/SVG/1.1/DTD/svg11.dtd">
<!-- Generated by graphviz version 2.26.3 (20100126.1600)
 -->
<!-- Title: pocketmine\Player\spawnTo Pages: 1 -->
<svg width="494pt" height="82pt"
 viewBox="0.00 0.00 494.00 82.00" xmlns="http://www.w3.org/2000/svg" xmlns:xlink="http://www.w3.org/1999/xlink">
<g id="graph1" class="graph" transform="scale(1 1) rotate(0) translate(4 78)">
<title>pocketmine\Player\spawnTo</title>
<polygon fill="white" stroke="white" points="-4,5 -4,-78 491,-78 491,5 -4,5"/>
<!-- Node1 -->
<g id="node1" class="node"><title>Node1</title>
<polygon fill="#bfbfbf" stroke="black" points="0,-29.5 0,-50.5 140,-50.5 140,-29.5 0,-29.5"/>
<text text-anchor="middle" x="70" y="-37.5" font-family="Helvetica,sans-Serif" font-size="10.00">pocketmine\Player\spawnTo</text>
</g>
<!-- Node2 -->
<g id="node3" class="node"><title>Node2</title>
<a xlink:href="../../df/d2c/classpocketmine_1_1_player.html#a71697b195952a333b72a27f3e0eff6e8" target="_top" xlink:title="pocketmine\\Player\\canSee">
<polygon fill="white" stroke="black" points="176,-52.5 176,-73.5 310,-73.5 310,-52.5 176,-52.5"/>
<text text-anchor="middle" x="243" y="-60.5" font-family="Helvetica,sans-Serif" font-size="10.00">pocketmine\Player\canSee</text>
</a>
</g>
<!-- Node1&#45;&gt;Node2 -->
<g id="edge2" class="edge"><title>Node1&#45;&gt;Node2</title>
<path fill="none" stroke="midnightblue" d="M140.366,-49.355C148.679,-50.4602 157.198,-51.5928 165.602,-52.7101"/>
<polygon fill="midnightblue" stroke="midnightblue" points="165.399,-56.2138 175.773,-54.0623 166.322,-49.2749 165.399,-56.2138"/>
</g>
<!-- Node4 -->
<g id="node7" class="node"><title>Node4</title>
<a xlink:href="../../db/d9b/classpocketmine_1_1level_1_1_position.html#ae667e74646ed1b8d04db126265d75955" target="_top" xlink:title="pocketmine\\level\\Position\l\\getLevel">
<polygon fill="white" stroke="black" points="179,-0 179,-34 307,-34 307,-0 179,-0"/>
<text text-anchor="start" x="187" y="-21" font-family="Helvetica,sans-Serif" font-size="10.00">pocketmine\level\Position</text>
<text text-anchor="middle" x="243" y="-8" font-family="Helvetica,sans-Serif" font-size="10.00">\getLevel</text>
</a>
</g>
<!-- Node1&#45;&gt;Node4 -->
<g id="edge6" class="edge"><title>Node1&#45;&gt;Node4</title>
<path fill="none" stroke="midnightblue" d="M140.366,-30.645C149.709,-29.4029 159.312,-28.1261 168.719,-26.8755"/>
<polygon fill="midnightblue" stroke="midnightblue" points="169.376,-30.3191 178.827,-25.5317 168.453,-23.3802 169.376,-30.3191"/>
</g>
<!-- Node3 -->
<g id="node5" class="node"><title>Node3</title>
<a xlink:href="../../df/d2c/classpocketmine_1_1_player.html#a890409beec631f5cbc42d602ad94eb2b" target="_top" xlink:title="pocketmine\\Player\\getName">
<polygon fill="white" stroke="black" points="346,-52.5 346,-73.5 486,-73.5 486,-52.5 346,-52.5"/>
<text text-anchor="middle" x="416" y="-60.5" font-family="Helvetica,sans-Serif" font-size="10.00">pocketmine\Player\getName</text>
</a>
</g>
<!-- Node2&#45;&gt;Node3 -->
<g id="edge4" class="edge"><title>Node2&#45;&gt;Node3</title>
<path fill="none" stroke="midnightblue" d="M310.382,-63C318.678,-63 327.221,-63 335.685,-63"/>
<polygon fill="midnightblue" stroke="midnightblue" points="335.948,-66.5001 345.948,-63 335.948,-59.5001 335.948,-66.5001"/>
</g>
</g>
</svg>
