<?xml version="1.0" encoding="UTF-8" standalone="no"?>
<!DOCTYPE svg PUBLIC "-//W3C//DTD SVG 1.1//EN"
 "http://www.w3.org/Graphics/SVG/1.1/DTD/svg11.dtd">
<!-- Generated by graphviz version 2.26.3 (20100126.1600)
 -->
<!-- Title: pocketmine\Player\dataPacket Pages: 1 -->
<svg width="336pt" height="146pt"
 viewBox="0.00 0.00 336.00 146.00" xmlns="http://www.w3.org/2000/svg" xmlns:xlink="http://www.w3.org/1999/xlink">
<g id="graph1" class="graph" transform="scale(1 1) rotate(0) translate(4 142)">
<title>pocketmine\Player\dataPacket</title>
<polygon fill="white" stroke="white" points="-4,5 -4,-142 333,-142 333,5 -4,5"/>
<!-- Node1 -->
<g id="node1" class="node"><title>Node1</title>
<polygon fill="#bfbfbf" stroke="black" points="0,-58.5 0,-79.5 150,-79.5 150,-58.5 0,-58.5"/>
<text text-anchor="middle" x="75" y="-66.5" font-family="Helvetica,sans-Serif" font-size="10.00">pocketmine\Player\dataPacket</text>
</g>
<!-- Node2 -->
<g id="node3" class="node"><title>Node2</title>
<a xlink:href="../../d2/d3c/classpocketmine_1_1entity_1_1_entity.html#ad0e2fe5c3105fd5881967898c2f6b60c" target="_top" xlink:title="pocketmine\\entity\\Entity\l\\despawnFrom">
<polygon fill="white" stroke="black" points="196,-104 196,-138 318,-138 318,-104 196,-104"/>
<text text-anchor="start" x="204" y="-125" font-family="Helvetica,sans-Serif" font-size="10.00">pocketmine\entity\Entity</text>
<text text-anchor="middle" x="257" y="-112" font-family="Helvetica,sans-Serif" font-size="10.00">\despawnFrom</text>
</a>
</g>
<!-- Node1&#45;&gt;Node2 -->
<g id="edge2" class="edge"><title>Node1&#45;&gt;Node2</title>
<path fill="none" stroke="midnightblue" d="M121.694,-82.3411C144.713,-88.918 172.736,-96.9246 197.296,-103.942"/>
<polygon fill="midnightblue" stroke="midnightblue" points="122.407,-78.9049 111.83,-79.523 120.484,-85.6356 122.407,-78.9049"/>
</g>
<!-- Node3 -->
<g id="node5" class="node"><title>Node3</title>
<a xlink:href="../../dc/d02/classpocketmine_1_1inventory_1_1_container_inventory.html#a8938f6f72d2e2c069f2385db5ac3c7db" target="_top" xlink:title="pocketmine\\inventory\l\\ContainerInventory\\onClose">
<polygon fill="white" stroke="black" points="186.5,-52 186.5,-86 327.5,-86 327.5,-52 186.5,-52"/>
<text text-anchor="start" x="194.5" y="-73" font-family="Helvetica,sans-Serif" font-size="10.00">pocketmine\inventory</text>
<text text-anchor="middle" x="257" y="-60" font-family="Helvetica,sans-Serif" font-size="10.00">\ContainerInventory\onClose</text>
</a>
</g>
<!-- Node1&#45;&gt;Node3 -->
<g id="edge4" class="edge"><title>Node1&#45;&gt;Node3</title>
<path fill="none" stroke="midnightblue" d="M160.311,-69C169.073,-69 177.905,-69 186.481,-69"/>
<polygon fill="midnightblue" stroke="midnightblue" points="160.077,-65.5001 150.077,-69 160.077,-72.5001 160.077,-65.5001"/>
</g>
<!-- Node4 -->
<g id="node7" class="node"><title>Node4</title>
<a xlink:href="../../dc/d02/classpocketmine_1_1inventory_1_1_container_inventory.html#aea6c5161d4a1c36119440a95beb7c78c" target="_top" xlink:title="pocketmine\\inventory\l\\ContainerInventory\\onOpen">
<polygon fill="white" stroke="black" points="187.5,-0 187.5,-34 326.5,-34 326.5,-0 187.5,-0"/>
<text text-anchor="start" x="195.5" y="-21" font-family="Helvetica,sans-Serif" font-size="10.00">pocketmine\inventory</text>
<text text-anchor="middle" x="257" y="-8" font-family="Helvetica,sans-Serif" font-size="10.00">\ContainerInventory\onOpen</text>
</a>
</g>
<!-- Node1&#45;&gt;Node4 -->
<g id="edge6" class="edge"><title>Node1&#45;&gt;Node4</title>
<path fill="none" stroke="midnightblue" d="M121.694,-55.6589C144.713,-49.082 172.736,-41.0754 197.296,-34.0582"/>
<polygon fill="midnightblue" stroke="midnightblue" points="120.484,-52.3644 111.83,-58.477 122.407,-59.0951 120.484,-52.3644"/>
</g>
</g>
</svg>
