<?xml version="1.0" encoding="UTF-8" standalone="no"?>
<!DOCTYPE svg PUBLIC "-//W3C//DTD SVG 1.1//EN"
 "http://www.w3.org/Graphics/SVG/1.1/DTD/svg11.dtd">
<!-- Generated by graphviz version 2.26.3 (20100126.1600)
 -->
<!-- Title: pocketmine\Player\showPlayer Pages: 1 -->
<!--zoomable 102 -->
<svg id="main" version="1.1" xmlns="http://www.w3.org/2000/svg" xmlns:xlink="http://www.w3.org/1999/xlink" xml:space="preserve" onload="init(evt)">
<style type="text/css"><![CDATA[
.edge:hover path { stroke: red; }
.edge:hover polygon { stroke: red; fill: red; }
]]></style>
<script type="text/javascript"><![CDATA[
var edges = document.getElementsByTagName('g');
if (edges && edges.length) {
  for (var i=0;i<edges.length;i++) {
    if (edges[i].id.substr(0,4)=='edge') {
      edges[i].setAttribute('class','edge');
    }
  }
}
]]></script>
        <defs>
                <circle id="rim" cx="0" cy="0" r="7"/>
                <circle id="rim2" cx="0" cy="0" r="3.5"/>
                <g id="zoomPlus">
                        <use xlink:href="#rim" fill="#404040">
                                <set attributeName="fill" to="#808080" begin="zoomplus.mouseover" end="zoomplus.mouseout"/>
                        </use>
                        <path d="M-4,0h8M0,-4v8" fill="none" stroke="white" stroke-width="1.5" pointer-events="none"/>
                </g>
                <g id="zoomMin">
                        <use xlink:href="#rim" fill="#404040">
                                <set attributeName="fill" to="#808080" begin="zoomminus.mouseover" end="zoomminus.mouseout"/>
                        </use>
                        <path d="M-4,0h8" fill="none" stroke="white" stroke-width="1.5" pointer-events="none"/>
                </g>
                <g id="dirArrow">
                        <path fill="none" stroke="white" stroke-width="1.5" d="M0,-3.0v7 M-2.5,-0.5L0,-3.0L2.5,-0.5"/>
                </g>
               <g id="resetDef">
                       <use xlink:href="#rim2" fill="#404040">
                               <set attributeName="fill" to="#808080" begin="reset.mouseover" end="reset.mouseout"/>
                       </use>
               </g>
        </defs>

<script type="text/javascript">
var viewWidth = 682;
var viewHeight = 102;
var sectionId = 'dynsection-23';
</script>
<script xlink:href="../../svgpan.js"/>
<svg id="graph" class="graph">
<g id="viewport">
<title>pocketmine\Player\showPlayer</title>
<polygon fill="white" stroke="white" points="-4,5 -4,-98.2968 679,-98.2968 679,5 -4,5"/>
<!-- Node1 -->
<g id="node1" class="node"><title>Node1</title>
<polygon fill="#bfbfbf" stroke="black" points="0,-52.5 0,-73.5 152,-73.5 152,-52.5 0,-52.5"/>
<text text-anchor="middle" x="76" y="-60.5" font-family="Helvetica,sans-Serif" font-size="10.00">pocketmine\Player\showPlayer</text>
</g>
<!-- Node2 -->
<g id="node3" class="node"><title>Node2</title>
<a xlink:href="../../df/d2c/classpocketmine_1_1_player.html#a890409beec631f5cbc42d602ad94eb2b" target="_top" xlink:title="pocketmine\\Player\\getName">
<polygon fill="white" stroke="black" points="534,-45.5 534,-66.5 674,-66.5 674,-45.5 534,-45.5"/>
<text text-anchor="middle" x="604" y="-53.5" font-family="Helvetica,sans-Serif" font-size="10.00">pocketmine\Player\getName</text>
</a>
</g>
<!-- Node1&#45;&gt;Node2 -->
<g id="edge2" class="edge"><title>Node1&#45;&gt;Node2</title>
<path fill="none" stroke="midnightblue" d="M124.263,-73.5436C143.928,-77.3352 166.948,-81.1351 188,-83 325.24,-95.1574 361.292,-100.137 498,-83 519.341,-80.3247 542.546,-74.7319 561.789,-69.3267"/>
<polygon fill="midnightblue" stroke="midnightblue" points="562.824,-72.671 571.46,-66.5337 560.881,-65.9459 562.824,-72.671"/>
</g>
<!-- Node3 -->
<g id="node5" class="node"><title>Node3</title>
<a xlink:href="../../df/d2c/classpocketmine_1_1_player.html#ad129342e283c32902a928e413a11a136" target="_top" xlink:title="pocketmine\\Player\\isOnline">
<polygon fill="white" stroke="black" points="190,-52.5 190,-73.5 326,-73.5 326,-52.5 190,-52.5"/>
<text text-anchor="middle" x="258" y="-60.5" font-family="Helvetica,sans-Serif" font-size="10.00">pocketmine\Player\isOnline</text>
</a>
</g>
<!-- Node1&#45;&gt;Node3 -->
<g id="edge4" class="edge"><title>Node1&#45;&gt;Node3</title>
<path fill="none" stroke="midnightblue" d="M152.13,-63C161.26,-63 170.594,-63 179.754,-63"/>
<polygon fill="midnightblue" stroke="midnightblue" points="179.999,-66.5001 189.999,-63 179.999,-59.5001 179.999,-66.5001"/>
</g>
<!-- Node4 -->
<g id="node7" class="node"><title>Node4</title>
<a xlink:href="../../df/d2c/classpocketmine_1_1_player.html#a64148b8f2640b851c6ad698a4044e8d4" target="_top" xlink:title="pocketmine\\Player\\spawnTo">
<polygon fill="white" stroke="black" points="188,-12.5 188,-33.5 328,-33.5 328,-12.5 188,-12.5"/>
<text text-anchor="middle" x="258" y="-20.5" font-family="Helvetica,sans-Serif" font-size="10.00">pocketmine\Player\spawnTo</text>
</a>
</g>
<!-- Node1&#45;&gt;Node4 -->
<g id="edge6" class="edge"><title>Node1&#45;&gt;Node4</title>
<path fill="none" stroke="midnightblue" d="M123.818,-52.4905C147.237,-47.3434 175.624,-41.1046 200.246,-35.6933"/>
<polygon fill="midnightblue" stroke="midnightblue" points="201.17,-39.0738 210.185,-33.5087 199.667,-32.2369 201.17,-39.0738"/>
</g>
<!-- Node5 -->
<g id="node9" class="node"><title>Node5</title>
<a xlink:href="../../db/d9b/classpocketmine_1_1level_1_1_position.html#ae667e74646ed1b8d04db126265d75955" target="_top" xlink:title="pocketmine\\level\\Position\l\\getLevel">
<polygon fill="white" stroke="black" points="367,-40 367,-74 495,-74 495,-40 367,-40"/>
<text text-anchor="start" x="375" y="-61" font-family="Helvetica,sans-Serif" font-size="10.00">pocketmine\level\Position</text>
<text text-anchor="middle" x="431" y="-48" font-family="Helvetica,sans-Serif" font-size="10.00">\getLevel</text>
</a>
</g>
<!-- Node4&#45;&gt;Node5 -->
<g id="edge8" class="edge"><title>Node4&#45;&gt;Node5</title>
<path fill="none" stroke="midnightblue" d="M311.79,-33.5714C326.11,-36.3858 341.833,-39.4759 357.029,-42.4624"/>
<polygon fill="midnightblue" stroke="midnightblue" points="356.432,-45.9119 366.919,-44.4061 357.782,-39.0433 356.432,-45.9119"/>
</g>
<!-- Node6 -->
<g id="node11" class="node"><title>Node6</title>
<a xlink:href="../../df/d2c/classpocketmine_1_1_player.html#a71697b195952a333b72a27f3e0eff6e8" target="_top" xlink:title="pocketmine\\Player\\canSee">
<polygon fill="white" stroke="black" points="364,-0.5 364,-21.5 498,-21.5 498,-0.5 364,-0.5"/>
<text text-anchor="middle" x="431" y="-8.5" font-family="Helvetica,sans-Serif" font-size="10.00">pocketmine\Player\canSee</text>
</a>
</g>
<!-- Node4&#45;&gt;Node6 -->
<g id="edge10" class="edge"><title>Node4&#45;&gt;Node6</title>
<path fill="none" stroke="midnightblue" d="M328.366,-18.1191C336.679,-17.5425 345.198,-16.9516 353.602,-16.3687"/>
<polygon fill="midnightblue" stroke="midnightblue" points="354.039,-19.8468 363.773,-15.6631 353.555,-12.8636 354.039,-19.8468"/>
</g>
<!-- Node6&#45;&gt;Node2 -->
<g id="edge12" class="edge"><title>Node6&#45;&gt;Node2</title>
<path fill="none" stroke="midnightblue" d="M471.561,-21.5505C496.091,-27.9312 527.565,-36.1181 553.675,-42.9097"/>
<polygon fill="midnightblue" stroke="midnightblue" points="552.835,-46.3076 563.394,-45.4377 554.597,-39.533 552.835,-46.3076"/>
</g>
</g>
</svg>
        <g id="navigator" transform="translate(0 0)" fill="#404254">
                <rect fill="#f2f5e9" fill-opacity="0.5" stroke="#606060" stroke-width=".5" x="0" y="0" width="60" height="60"/>
                <use id="zoomplus" xlink:href="#zoomPlus" x="17" y="9" onmousedown="handleZoom(evt,'in')"/>
                <use id="zoomminus" xlink:href="#zoomMin" x="42" y="9" onmousedown="handleZoom(evt,'out')"/>
                <use id="reset" xlink:href="#resetDef" x="30" y="36" onmousedown="handleReset()"/>
                <g id="arrowUp" xlink:href="#dirArrow" transform="translate(30 24)" onmousedown="handlePan(0,-1)">
                  <use xlink:href="#rim" fill="#404040">
                        <set attributeName="fill" to="#808080" begin="arrowUp.mouseover" end="arrowUp.mouseout"/>
                  </use>
                  <path fill="none" stroke="white" stroke-width="1.5" d="M0,-3.0v7 M-2.5,-0.5L0,-3.0L2.5,-0.5"/>
                </g>
                <g id="arrowRight" xlink:href="#dirArrow" transform="rotate(90) translate(36 -43)" onmousedown="handlePan(1,0)">
                  <use xlink:href="#rim" fill="#404040">
                        <set attributeName="fill" to="#808080" begin="arrowRight.mouseover" end="arrowRight.mouseout"/>
                  </use>
                  <path fill="none" stroke="white" stroke-width="1.5" d="M0,-3.0v7 M-2.5,-0.5L0,-3.0L2.5,-0.5"/>
                </g>
                <g id="arrowDown" xlink:href="#dirArrow" transform="rotate(180) translate(-30 -48)" onmousedown="handlePan(0,1)">
                  <use xlink:href="#rim" fill="#404040">
                        <set attributeName="fill" to="#808080" begin="arrowDown.mouseover" end="arrowDown.mouseout"/>
                  </use>
                  <path fill="none" stroke="white" stroke-width="1.5" d="M0,-3.0v7 M-2.5,-0.5L0,-3.0L2.5,-0.5"/>
                </g>
                <g id="arrowLeft" xlink:href="#dirArrow" transform="rotate(270) translate(-36 17)" onmousedown="handlePan(-1,0)">
                  <use xlink:href="#rim" fill="#404040">
                        <set attributeName="fill" to="#808080" begin="arrowLeft.mouseover" end="arrowLeft.mouseout"/>
                  </use>
                  <path fill="none" stroke="white" stroke-width="1.5" d="M0,-3.0v7 M-2.5,-0.5L0,-3.0L2.5,-0.5"/>
                </g>
        </g>
        <svg viewBox="0 0 15 15" width="100%" height="30px" preserveAspectRatio="xMaxYMin meet">
         <g id="arrow_out" transform="scale(0.3 0.3)">
          <a xlink:href="classpocketmine_1_1_player_a4d2609373c9c8d5a444acb38214031f6_cgraph_org.svg" target="_base">
           <rect id="button" ry="5" rx="5" y="6" x="6" height="38" width="38"
                fill="#f2f5e9" fill-opacity="0.5" stroke="#606060" stroke-width="1.0"/>
           <path id="arrow"
             d="M 11.500037,31.436501 C 11.940474,20.09759 22.043105,11.32322 32.158766,21.979434 L 37.068811,17.246167 C 37.068811,17.246167 37.088388,32 37.088388,32 L 22.160133,31.978069 C 22.160133,31.978069 26.997745,27.140456 26.997745,27.140456 C 18.528582,18.264221 13.291696,25.230495 11.500037,31.436501 z"
             style="fill:#404040;"/>
          </a>
         </g>
        </svg>
</svg>
