<?xml version="1.0" encoding="UTF-8" standalone="no"?>
<!DOCTYPE svg PUBLIC "-//W3C//DTD SVG 1.1//EN"
 "http://www.w3.org/Graphics/SVG/1.1/DTD/svg11.dtd">
<!-- Generated by graphviz version 2.36.0 (20140111.2315)
 -->
<!-- Title: pocketmine\inventory\ShapelessRecipe\getResult Pages: 1 -->
<svg width="586pt" height="48pt"
 viewBox="0.00 0.00 586.00 48.00" xmlns="http://www.w3.org/2000/svg" xmlns:xlink="http://www.w3.org/1999/xlink">
<g id="graph0" class="graph" transform="scale(1 1) rotate(0) translate(4 44)">
<title>pocketmine\inventory\ShapelessRecipe\getResult</title>
<polygon fill="white" stroke="none" points="-4,4 -4,-44 582,-44 582,4 -4,4"/>
<!-- Node1 -->
<g id="node1" class="node"><title>Node1</title>
<polygon fill="#bfbfbf" stroke="black" points="0.5,-5 0.5,-35 147.5,-35 147.5,-5 0.5,-5"/>
<text text-anchor="start" x="8.5" y="-23" font-family="Helvetica,sans-Serif" font-size="10.00">pocketmine\inventory</text>
<text text-anchor="middle" x="74" y="-12" font-family="Helvetica,sans-Serif" font-size="10.00">\ShapelessRecipe\getResult</text>
</g>
<!-- Node2 -->
<g id="node2" class="node"><title>Node2</title>
<g id="a_node2"><a xlink:href="../../d3/d9f/classpocketmine_1_1inventory_1_1_crafting_manager.html#a884706392d061eeed0ac39161e0993a9" target="_top" xlink:title="pocketmine\\inventory\l\\CraftingManager\\registerShapeless\lRecipe">
<polygon fill="white" stroke="black" points="184,0.5 184,-40.5 372,-40.5 372,0.5 184,0.5"/>
<text text-anchor="start" x="192" y="-28.5" font-family="Helvetica,sans-Serif" font-size="10.00">pocketmine\inventory</text>
<text text-anchor="start" x="192" y="-17.5" font-family="Helvetica,sans-Serif" font-size="10.00">\CraftingManager\registerShapeless</text>
<text text-anchor="middle" x="278" y="-6.5" font-family="Helvetica,sans-Serif" font-size="10.00">Recipe</text>
</a>
</g>
</g>
<!-- Node1&#45;&gt;Node2 -->
<g id="edge1" class="edge"><title>Node1&#45;&gt;Node2</title>
<path fill="none" stroke="midnightblue" d="M157.683,-20C166.323,-20 175.148,-20 183.894,-20"/>
<polygon fill="midnightblue" stroke="midnightblue" points="157.641,-16.5001 147.641,-20 157.641,-23.5001 157.641,-16.5001"/>
</g>
<!-- Node3 -->
<g id="node3" class="node"><title>Node3</title>
<g id="a_node3"><a xlink:href="../../d3/d9f/classpocketmine_1_1inventory_1_1_crafting_manager.html#acf24041256484327762a81dd2826dca5" target="_top" xlink:title="pocketmine\\inventory\l\\CraftingManager\\registerRecipe">
<polygon fill="white" stroke="black" points="408,-5 408,-35 578,-35 578,-5 408,-5"/>
<text text-anchor="start" x="416" y="-23" font-family="Helvetica,sans-Serif" font-size="10.00">pocketmine\inventory</text>
<text text-anchor="middle" x="493" y="-12" font-family="Helvetica,sans-Serif" font-size="10.00">\CraftingManager\registerRecipe</text>
</a>
</g>
</g>
<!-- Node2&#45;&gt;Node3 -->
<g id="edge2" class="edge"><title>Node2&#45;&gt;Node3</title>
<path fill="none" stroke="midnightblue" d="M382.167,-20C390.753,-20 399.367,-20 407.787,-20"/>
<polygon fill="midnightblue" stroke="midnightblue" points="382.115,-16.5001 372.115,-20 382.115,-23.5001 382.115,-16.5001"/>
</g>
</g>
</svg>
