<?xml version="1.0" encoding="UTF-8" standalone="no"?>
<!DOCTYPE svg PUBLIC "-//W3C//DTD SVG 1.1//EN"
 "http://www.w3.org/Graphics/SVG/1.1/DTD/svg11.dtd">
<!-- Generated by graphviz version 2.36.0 (20140111.2315)
 -->
<!-- Title: pocketmine\event\inventory\CraftItemEvent Pages: 1 -->
<svg width="319pt" height="228pt"
 viewBox="0.00 0.00 319.00 228.00" xmlns="http://www.w3.org/2000/svg" xmlns:xlink="http://www.w3.org/1999/xlink">
<g id="graph0" class="graph" transform="scale(1 1) rotate(0) translate(4 224)">
<title>pocketmine\event\inventory\CraftItemEvent</title>
<polygon fill="white" stroke="none" points="-4,4 -4,-224 315,-224 315,4 -4,4"/>
<!-- Node1 -->
<g id="node1" class="node"><title>Node1</title>
<polygon fill="#bfbfbf" stroke="black" points="73,-1 73,-113 223,-113 223,-1 73,-1"/>
<text text-anchor="start" x="81" y="-101" font-family="Helvetica,sans-Serif" font-size="10.00">pocketmine\event\inventory</text>
<text text-anchor="middle" x="148" y="-90" font-family="Helvetica,sans-Serif" font-size="10.00">\CraftItemEvent</text>
<polyline fill="none" stroke="black" points="73,-83 223,-83 "/>
<text text-anchor="start" x="81" y="-71" font-family="Helvetica,sans-Serif" font-size="10.00">+ $handlerList</text>
<text text-anchor="start" x="81" y="-60" font-family="Helvetica,sans-Serif" font-size="10.00">+ $eventPool</text>
<text text-anchor="start" x="81" y="-49" font-family="Helvetica,sans-Serif" font-size="10.00">+ $nextEvent</text>
<polyline fill="none" stroke="black" points="73,-42 223,-42 "/>
<text text-anchor="start" x="81" y="-30" font-family="Helvetica,sans-Serif" font-size="10.00">+ __construct()</text>
<text text-anchor="start" x="81" y="-19" font-family="Helvetica,sans-Serif" font-size="10.00">+ getTransaction()</text>
<text text-anchor="start" x="81" y="-8" font-family="Helvetica,sans-Serif" font-size="10.00">+ getRecipe()</text>
</g>
<!-- Node2 -->
<g id="node2" class="node"><title>Node2</title>
<g id="a_node2"><a xlink:href="../../d1/d2f/classpocketmine_1_1event_1_1_event.html" target="_top" xlink:title="{pocketmine\\event\\Event\n|# $eventName\l|+ getEventName()\l+ getHandlers()\l}">
<polygon fill="white" stroke="black" points="-0.5,-151 -0.5,-219 132.5,-219 132.5,-151 -0.5,-151"/>
<text text-anchor="middle" x="66" y="-207" font-family="Helvetica,sans-Serif" font-size="10.00">pocketmine\event\Event</text>
<polyline fill="none" stroke="black" points="-0.5,-200 132.5,-200 "/>
<text text-anchor="start" x="7.5" y="-188" font-family="Helvetica,sans-Serif" font-size="10.00"># $eventName</text>
<polyline fill="none" stroke="black" points="-0.5,-181 132.5,-181 "/>
<text text-anchor="start" x="7.5" y="-169" font-family="Helvetica,sans-Serif" font-size="10.00">+ getEventName()</text>
<text text-anchor="start" x="7.5" y="-158" font-family="Helvetica,sans-Serif" font-size="10.00">+ getHandlers()</text>
</a>
</g>
</g>
<!-- Node2&#45;&gt;Node1 -->
<g id="edge1" class="edge"><title>Node2&#45;&gt;Node1</title>
<path fill="none" stroke="midnightblue" d="M93.1706,-142.25C99.2042,-132.979 105.69,-123.012 112.015,-113.294"/>
<polygon fill="none" stroke="midnightblue" points="90.0656,-140.604 87.5445,-150.895 95.9326,-144.423 90.0656,-140.604"/>
</g>
<!-- Node3 -->
<g id="node3" class="node"><title>Node3</title>
<g id="a_node3"><a xlink:href="../../db/d62/interfacepocketmine_1_1event_1_1_cancellable.html" target="_top" xlink:title="{pocketmine\\event\\Cancellable\n||+ isCancelled()\l+ setCancelled()\l}">
<polygon fill="white" stroke="black" points="150.5,-151 150.5,-219 311.5,-219 311.5,-151 150.5,-151"/>
<text text-anchor="middle" x="231" y="-207" font-family="Helvetica,sans-Serif" font-size="10.00">pocketmine\event\Cancellable</text>
<polyline fill="none" stroke="black" points="150.5,-200 311.5,-200 "/>
<text text-anchor="middle" x="231" y="-188" font-family="Helvetica,sans-Serif" font-size="10.00"> </text>
<polyline fill="none" stroke="black" points="150.5,-181 311.5,-181 "/>
<text text-anchor="start" x="158.5" y="-169" font-family="Helvetica,sans-Serif" font-size="10.00">+ isCancelled()</text>
<text text-anchor="start" x="158.5" y="-158" font-family="Helvetica,sans-Serif" font-size="10.00">+ setCancelled()</text>
</a>
</g>
</g>
<!-- Node3&#45;&gt;Node1 -->
<g id="edge2" class="edge"><title>Node3&#45;&gt;Node1</title>
<path fill="none" stroke="midnightblue" d="M203.687,-142.537C197.526,-133.184 190.892,-123.113 184.424,-113.294"/>
<polygon fill="none" stroke="midnightblue" points="200.769,-144.469 209.193,-150.895 206.614,-140.619 200.769,-144.469"/>
</g>
</g>
</svg>
