<?xml version="1.0" encoding="UTF-8" standalone="no"?>
<!DOCTYPE svg PUBLIC "-//W3C//DTD SVG 1.1//EN"
 "http://www.w3.org/Graphics/SVG/1.1/DTD/svg11.dtd">
<!-- Generated by graphviz version 2.36.0 (20140111.2315)
 -->
<!-- Title: pocketmine\utils\PluginException Pages: 1 -->
<svg width="182pt" height="254pt"
 viewBox="0.00 0.00 182.00 254.00" xmlns="http://www.w3.org/2000/svg" xmlns:xlink="http://www.w3.org/1999/xlink">
<g id="graph0" class="graph" transform="scale(1 1) rotate(0) translate(4 250)">
<title>pocketmine\utils\PluginException</title>
<polygon fill="white" stroke="none" points="-4,4 -4,-250 178,-250 178,4 -4,4"/>
<!-- Node1 -->
<g id="node1" class="node"><title>Node1</title>
<polygon fill="#bfbfbf" stroke="black" points="0.5,-0.5 0.5,-57.5 173.5,-57.5 173.5,-0.5 0.5,-0.5"/>
<text text-anchor="middle" x="87" y="-45.5" font-family="Helvetica,sans-Serif" font-size="10.00">pocketmine\utils\PluginException</text>
<polyline fill="none" stroke="black" points="0.5,-38.5 173.5,-38.5 "/>
<text text-anchor="middle" x="87" y="-26.5" font-family="Helvetica,sans-Serif" font-size="10.00"> </text>
<polyline fill="none" stroke="black" points="0.5,-19.5 173.5,-19.5 "/>
<text text-anchor="middle" x="87" y="-7.5" font-family="Helvetica,sans-Serif" font-size="10.00"> </text>
</g>
<!-- Node2 -->
<g id="node2" class="node"><title>Node2</title>
<g id="a_node2"><a xlink:href="../../d8/d65/classpocketmine_1_1utils_1_1_server_exception.html" target="_top" xlink:title="{pocketmine\\utils\\ServerException\n||}">
<polygon fill="white" stroke="black" points="-1,-94.5 -1,-151.5 175,-151.5 175,-94.5 -1,-94.5"/>
<text text-anchor="middle" x="87" y="-139.5" font-family="Helvetica,sans-Serif" font-size="10.00">pocketmine\utils\ServerException</text>
<polyline fill="none" stroke="black" points="-1,-132.5 175,-132.5 "/>
<text text-anchor="middle" x="87" y="-120.5" font-family="Helvetica,sans-Serif" font-size="10.00"> </text>
<polyline fill="none" stroke="black" points="-1,-113.5 175,-113.5 "/>
<text text-anchor="middle" x="87" y="-101.5" font-family="Helvetica,sans-Serif" font-size="10.00"> </text>
</a>
</g>
</g>
<!-- Node2&#45;&gt;Node1 -->
<g id="edge1" class="edge"><title>Node2&#45;&gt;Node1</title>
<path fill="none" stroke="midnightblue" d="M87,-84.2092C87,-75.2929 87,-65.9513 87,-57.5836"/>
<polygon fill="none" stroke="midnightblue" points="83.5001,-84.3969 87,-94.397 90.5001,-84.397 83.5001,-84.3969"/>
</g>
<!-- Node3 -->
<g id="node3" class="node"><title>Node3</title>
<polygon fill="white" stroke="#bfbfbf" points="36,-188.5 36,-245.5 138,-245.5 138,-188.5 36,-188.5"/>
<text text-anchor="middle" x="87" y="-233.5" font-family="Helvetica,sans-Serif" font-size="10.00">RuntimeException</text>
<polyline fill="none" stroke="#bfbfbf" points="36,-226.5 138,-226.5 "/>
<text text-anchor="middle" x="87" y="-214.5" font-family="Helvetica,sans-Serif" font-size="10.00"> </text>
<polyline fill="none" stroke="#bfbfbf" points="36,-207.5 138,-207.5 "/>
<text text-anchor="middle" x="87" y="-195.5" font-family="Helvetica,sans-Serif" font-size="10.00"> </text>
</g>
<!-- Node3&#45;&gt;Node2 -->
<g id="edge2" class="edge"><title>Node3&#45;&gt;Node2</title>
<path fill="none" stroke="midnightblue" d="M87,-178.209C87,-169.293 87,-159.951 87,-151.584"/>
<polygon fill="none" stroke="midnightblue" points="83.5001,-178.397 87,-188.397 90.5001,-178.397 83.5001,-178.397"/>
</g>
</g>
</svg>
