<?xml version="1.0" encoding="UTF-8" standalone="no"?>
<!DOCTYPE svg PUBLIC "-//W3C//DTD SVG 1.1//EN"
 "http://www.w3.org/Graphics/SVG/1.1/DTD/svg11.dtd">
<!-- Generated by graphviz version 2.36.0 (20140111.2315)
 -->
<!-- Title: pocketmine\Worker Pages: 1 -->
<svg width="116pt" height="160pt"
 viewBox="0.00 0.00 116.00 160.00" xmlns="http://www.w3.org/2000/svg" xmlns:xlink="http://www.w3.org/1999/xlink">
<g id="graph0" class="graph" transform="scale(1 1) rotate(0) translate(4 156)">
<title>pocketmine\Worker</title>
<polygon fill="white" stroke="none" points="-4,4 -4,-156 112,-156 112,4 -4,4"/>
<!-- Node1 -->
<g id="node1" class="node"><title>Node1</title>
<polygon fill="#bfbfbf" stroke="black" points="0,-0.5 0,-57.5 108,-57.5 108,-0.5 0,-0.5"/>
<text text-anchor="middle" x="54" y="-45.5" font-family="Helvetica,sans-Serif" font-size="10.00">pocketmine\Worker</text>
<polyline fill="none" stroke="black" points="0,-38.5 108,-38.5 "/>
<text text-anchor="middle" x="54" y="-26.5" font-family="Helvetica,sans-Serif" font-size="10.00"> </text>
<polyline fill="none" stroke="black" points="0,-19.5 108,-19.5 "/>
<text text-anchor="start" x="8" y="-7.5" font-family="Helvetica,sans-Serif" font-size="10.00">+ start()</text>
</g>
<!-- Node2 -->
<g id="node2" class="node"><title>Node2</title>
<polygon fill="white" stroke="#bfbfbf" points="29.5,-94.5 29.5,-151.5 78.5,-151.5 78.5,-94.5 29.5,-94.5"/>
<text text-anchor="middle" x="54" y="-139.5" font-family="Helvetica,sans-Serif" font-size="10.00">Worker</text>
<polyline fill="none" stroke="#bfbfbf" points="29.5,-132.5 78.5,-132.5 "/>
<text text-anchor="middle" x="54" y="-120.5" font-family="Helvetica,sans-Serif" font-size="10.00"> </text>
<polyline fill="none" stroke="#bfbfbf" points="29.5,-113.5 78.5,-113.5 "/>
<text text-anchor="middle" x="54" y="-101.5" font-family="Helvetica,sans-Serif" font-size="10.00"> </text>
</g>
<!-- Node2&#45;&gt;Node1 -->
<g id="edge1" class="edge"><title>Node2&#45;&gt;Node1</title>
<path fill="none" stroke="midnightblue" d="M54,-84.2092C54,-75.2929 54,-65.9513 54,-57.5836"/>
<polygon fill="none" stroke="midnightblue" points="50.5001,-84.3969 54,-94.397 57.5001,-84.397 50.5001,-84.3969"/>
</g>
</g>
</svg>
