<?xml version="1.0" encoding="UTF-8" standalone="no"?>
<!DOCTYPE svg PUBLIC "-//W3C//DTD SVG 1.1//EN"
 "http://www.w3.org/Graphics/SVG/1.1/DTD/svg11.dtd">
<!-- Generated by graphviz version 2.26.3 (20100126.1600)
 -->
<!-- Title: pocketmine\Worker Pages: 1 -->
<svg width="244pt" height="798pt"
 viewBox="0.00 0.00 244.00 798.00" xmlns="http://www.w3.org/2000/svg" xmlns:xlink="http://www.w3.org/1999/xlink">
<g id="graph1" class="graph" transform="scale(1 1) rotate(0) translate(4 794)">
<title>pocketmine\Worker</title>
<polygon fill="white" stroke="white" points="-4,5 -4,-794 241,-794 241,5 -4,5"/>
<!-- Node1 -->
<g id="node1" class="node"><title>Node1</title>
<polygon fill="#bfbfbf" stroke="black" points="65.5,-0.5 65.5,-63.5 166.5,-63.5 166.5,-0.5 65.5,-0.5"/>
<text text-anchor="middle" x="116" y="-50.5" font-family="Helvetica,sans-Serif" font-size="10.00">pocketmine\Worker</text>
<polyline fill="none" stroke="black" points="65.5,-42.5 166.5,-42.5 "/>
<text text-anchor="middle" x="116" y="-29.5" font-family="Helvetica,sans-Serif" font-size="10.00"> </text>
<polyline fill="none" stroke="black" points="65.5,-21.5 166.5,-21.5 "/>
<text text-anchor="start" x="73.5" y="-8.5" font-family="Helvetica,sans-Serif" font-size="10.00">+ start()</text>
</g>
<!-- Node2 -->
<g id="node2" class="node"><title>Node2</title>
<a xlink:href="../../d3/d0a/class_worker.html" target="_top" xlink:title="{Worker\n||+ getStacked()\l+ isShutdown()\l+ isWorking()\l+ shutdown()\l+ stack()\l+ unstack()\l}">
<polygon fill="white" stroke="black" points="74.5,-101 74.5,-229 157.5,-229 157.5,-101 74.5,-101"/>
<text text-anchor="middle" x="116" y="-216" font-family="Helvetica,sans-Serif" font-size="10.00">Worker</text>
<polyline fill="none" stroke="black" points="74.5,-208 157.5,-208 "/>
<text text-anchor="middle" x="116" y="-195" font-family="Helvetica,sans-Serif" font-size="10.00"> </text>
<polyline fill="none" stroke="black" points="74.5,-187 157.5,-187 "/>
<text text-anchor="start" x="82.5" y="-174" font-family="Helvetica,sans-Serif" font-size="10.00">+ getStacked()</text>
<text text-anchor="start" x="82.5" y="-161" font-family="Helvetica,sans-Serif" font-size="10.00">+ isShutdown()</text>
<text text-anchor="start" x="82.5" y="-148" font-family="Helvetica,sans-Serif" font-size="10.00">+ isWorking()</text>
<text text-anchor="start" x="82.5" y="-135" font-family="Helvetica,sans-Serif" font-size="10.00">+ shutdown()</text>
<text text-anchor="start" x="82.5" y="-122" font-family="Helvetica,sans-Serif" font-size="10.00">+ stack()</text>
<text text-anchor="start" x="82.5" y="-109" font-family="Helvetica,sans-Serif" font-size="10.00">+ unstack()</text>
</a>
</g>
<!-- Node2&#45;&gt;Node1 -->
<g id="edge2" class="edge"><title>Node2&#45;&gt;Node1</title>
<path fill="none" stroke="midnightblue" d="M116,-90.5798C116,-81.1708 116,-71.9763 116,-63.7644"/>
<polygon fill="none" stroke="midnightblue" points="112.5,-90.8374 116,-100.837 119.5,-90.8375 112.5,-90.8374"/>
</g>
<!-- Node3 -->
<g id="node4" class="node"><title>Node3</title>
<a xlink:href="../../d8/d18/class_thread.html" target="_top" xlink:title="{Thread\n||+ detach()\l+ getCreatorId()\l+ getThreadId()\l+ isJoined()\l+ isStarted()\l+ join()\l+ kill()\l+ start()\l+ getCurrentThread()\l+ getCurrentThreadId()\l+ globally()\l}">
<polygon fill="white" stroke="black" points="58,-266.5 58,-459.5 174,-459.5 174,-266.5 58,-266.5"/>
<text text-anchor="middle" x="116" y="-446.5" font-family="Helvetica,sans-Serif" font-size="10.00">Thread</text>
<polyline fill="none" stroke="black" points="58,-438.5 174,-438.5 "/>
<text text-anchor="middle" x="116" y="-425.5" font-family="Helvetica,sans-Serif" font-size="10.00"> </text>
<polyline fill="none" stroke="black" points="58,-417.5 174,-417.5 "/>
<text text-anchor="start" x="66" y="-404.5" font-family="Helvetica,sans-Serif" font-size="10.00">+ detach()</text>
<text text-anchor="start" x="66" y="-391.5" font-family="Helvetica,sans-Serif" font-size="10.00">+ getCreatorId()</text>
<text text-anchor="start" x="66" y="-378.5" font-family="Helvetica,sans-Serif" font-size="10.00">+ getThreadId()</text>
<text text-anchor="start" x="66" y="-365.5" font-family="Helvetica,sans-Serif" font-size="10.00">+ isJoined()</text>
<text text-anchor="start" x="66" y="-352.5" font-family="Helvetica,sans-Serif" font-size="10.00">+ isStarted()</text>
<text text-anchor="start" x="66" y="-339.5" font-family="Helvetica,sans-Serif" font-size="10.00">+ join()</text>
<text text-anchor="start" x="66" y="-326.5" font-family="Helvetica,sans-Serif" font-size="10.00">+ kill()</text>
<text text-anchor="start" x="66" y="-313.5" font-family="Helvetica,sans-Serif" font-size="10.00">+ start()</text>
<text text-anchor="start" x="66" y="-300.5" font-family="Helvetica,sans-Serif" font-size="10.00">+ getCurrentThread()</text>
<text text-anchor="start" x="66" y="-287.5" font-family="Helvetica,sans-Serif" font-size="10.00">+ getCurrentThreadId()</text>
<text text-anchor="start" x="66" y="-274.5" font-family="Helvetica,sans-Serif" font-size="10.00">+ globally()</text>
</a>
</g>
<!-- Node3&#45;&gt;Node2 -->
<g id="edge4" class="edge"><title>Node3&#45;&gt;Node2</title>
<path fill="none" stroke="midnightblue" d="M116,-256.234C116,-246.957 116,-237.772 116,-229.007"/>
<polygon fill="none" stroke="midnightblue" points="112.5,-256.32 116,-266.32 119.5,-256.32 112.5,-256.32"/>
</g>
<!-- Node4 -->
<g id="node6" class="node"><title>Node4</title>
<a xlink:href="../../d0/d82/class_threaded.html" target="_top" xlink:title="{Threaded\n||+ chunk()\l+ count()\l+ getTerminationInfo()\l+ isRunning()\l+ isTerminated()\l+ isWaiting()\l+ lock()\l+ merge()\l+ notify()\l+ offsetGet()\land 9 more...\l}">
<polygon fill="white" stroke="black" points="59.5,-496.5 59.5,-689.5 172.5,-689.5 172.5,-496.5 59.5,-496.5"/>
<text text-anchor="middle" x="116" y="-676.5" font-family="Helvetica,sans-Serif" font-size="10.00">Threaded</text>
<polyline fill="none" stroke="black" points="59.5,-668.5 172.5,-668.5 "/>
<text text-anchor="middle" x="116" y="-655.5" font-family="Helvetica,sans-Serif" font-size="10.00"> </text>
<polyline fill="none" stroke="black" points="59.5,-647.5 172.5,-647.5 "/>
<text text-anchor="start" x="67.5" y="-634.5" font-family="Helvetica,sans-Serif" font-size="10.00">+ chunk()</text>
<text text-anchor="start" x="67.5" y="-621.5" font-family="Helvetica,sans-Serif" font-size="10.00">+ count()</text>
<text text-anchor="start" x="67.5" y="-608.5" font-family="Helvetica,sans-Serif" font-size="10.00">+ getTerminationInfo()</text>
<text text-anchor="start" x="67.5" y="-595.5" font-family="Helvetica,sans-Serif" font-size="10.00">+ isRunning()</text>
<text text-anchor="start" x="67.5" y="-582.5" font-family="Helvetica,sans-Serif" font-size="10.00">+ isTerminated()</text>
<text text-anchor="start" x="67.5" y="-569.5" font-family="Helvetica,sans-Serif" font-size="10.00">+ isWaiting()</text>
<text text-anchor="start" x="67.5" y="-556.5" font-family="Helvetica,sans-Serif" font-size="10.00">+ lock()</text>
<text text-anchor="start" x="67.5" y="-543.5" font-family="Helvetica,sans-Serif" font-size="10.00">+ merge()</text>
<text text-anchor="start" x="67.5" y="-530.5" font-family="Helvetica,sans-Serif" font-size="10.00">+ notify()</text>
<text text-anchor="start" x="67.5" y="-517.5" font-family="Helvetica,sans-Serif" font-size="10.00">+ offsetGet()</text>
<text text-anchor="start" x="67.5" y="-504.5" font-family="Helvetica,sans-Serif" font-size="10.00">and 9 more...</text>
</a>
</g>
<!-- Node4&#45;&gt;Node3 -->
<g id="edge6" class="edge"><title>Node4&#45;&gt;Node3</title>
<path fill="none" stroke="midnightblue" d="M116,-486.423C116,-477.499 116,-468.507 116,-459.663"/>
<polygon fill="none" stroke="midnightblue" points="112.5,-486.459 116,-496.459 119.5,-486.459 112.5,-486.459"/>
</g>
<!-- Node5 -->
<g id="node8" class="node"><title>Node5</title>
<polygon fill="white" stroke="#bfbfbf" points="0,-726.5 0,-789.5 68,-789.5 68,-726.5 0,-726.5"/>
<text text-anchor="middle" x="34" y="-776.5" font-family="Helvetica,sans-Serif" font-size="10.00">Traversable</text>
<polyline fill="none" stroke="#bfbfbf" points="0,-768.5 68,-768.5 "/>
<text text-anchor="middle" x="34" y="-755.5" font-family="Helvetica,sans-Serif" font-size="10.00"> </text>
<polyline fill="none" stroke="#bfbfbf" points="0,-747.5 68,-747.5 "/>
<text text-anchor="middle" x="34" y="-734.5" font-family="Helvetica,sans-Serif" font-size="10.00"> </text>
</g>
<!-- Node5&#45;&gt;Node4 -->
<g id="edge8" class="edge"><title>Node5&#45;&gt;Node4</title>
<path fill="none" stroke="midnightblue" d="M54.3964,-716.958C58.619,-708.462 63.2356,-699.172 67.9815,-689.623"/>
<polygon fill="none" stroke="midnightblue" points="51.1266,-715.674 49.8104,-726.186 57.3952,-718.789 51.1266,-715.674"/>
</g>
<!-- Node6 -->
<g id="node10" class="node"><title>Node6</title>
<polygon fill="white" stroke="#bfbfbf" points="85.5,-726.5 85.5,-789.5 146.5,-789.5 146.5,-726.5 85.5,-726.5"/>
<text text-anchor="middle" x="116" y="-776.5" font-family="Helvetica,sans-Serif" font-size="10.00">Countable</text>
<polyline fill="none" stroke="#bfbfbf" points="85.5,-768.5 146.5,-768.5 "/>
<text text-anchor="middle" x="116" y="-755.5" font-family="Helvetica,sans-Serif" font-size="10.00"> </text>
<polyline fill="none" stroke="#bfbfbf" points="85.5,-747.5 146.5,-747.5 "/>
<text text-anchor="middle" x="116" y="-734.5" font-family="Helvetica,sans-Serif" font-size="10.00"> </text>
</g>
<!-- Node6&#45;&gt;Node4 -->
<g id="edge10" class="edge"><title>Node6&#45;&gt;Node4</title>
<path fill="none" stroke="midnightblue" d="M116,-716.134C116,-707.862 116,-698.864 116,-689.623"/>
<polygon fill="none" stroke="midnightblue" points="112.5,-716.186 116,-726.186 119.5,-716.186 112.5,-716.186"/>
</g>
<!-- Node7 -->
<g id="node12" class="node"><title>Node7</title>
<polygon fill="white" stroke="#bfbfbf" points="163.5,-726.5 163.5,-789.5 236.5,-789.5 236.5,-726.5 163.5,-726.5"/>
<text text-anchor="middle" x="200" y="-776.5" font-family="Helvetica,sans-Serif" font-size="10.00">ArrayAccess</text>
<polyline fill="none" stroke="#bfbfbf" points="163.5,-768.5 236.5,-768.5 "/>
<text text-anchor="middle" x="200" y="-755.5" font-family="Helvetica,sans-Serif" font-size="10.00"> </text>
<polyline fill="none" stroke="#bfbfbf" points="163.5,-747.5 236.5,-747.5 "/>
<text text-anchor="middle" x="200" y="-734.5" font-family="Helvetica,sans-Serif" font-size="10.00"> </text>
</g>
<!-- Node7&#45;&gt;Node4 -->
<g id="edge12" class="edge"><title>Node7&#45;&gt;Node4</title>
<path fill="none" stroke="midnightblue" d="M179.246,-717.232C174.882,-708.661 170.104,-699.275 165.19,-689.623"/>
<polygon fill="none" stroke="midnightblue" points="176.148,-718.863 183.804,-726.186 182.386,-715.687 176.148,-718.863"/>
</g>
</g>
</svg>
