<?xml version="1.0" encoding="UTF-8" standalone="no"?>
<!DOCTYPE svg PUBLIC "-//W3C//DTD SVG 1.1//EN"
 "http://www.w3.org/Graphics/SVG/1.1/DTD/svg11.dtd">
<!-- Generated by graphviz version 2.36.0 (20140111.2315)
 -->
<!-- Title: pocketmine\inventory\CraftingTransactionGroup\getMatchingRecipe Pages: 1 -->
<svg width="500pt" height="75pt"
 viewBox="0.00 0.00 500.00 75.00" xmlns="http://www.w3.org/2000/svg" xmlns:xlink="http://www.w3.org/1999/xlink">
<g id="graph0" class="graph" transform="scale(1 1) rotate(0) translate(4 71)">
<title>pocketmine\inventory\CraftingTransactionGroup\getMatchingRecipe</title>
<polygon fill="white" stroke="none" points="-4,4 -4,-71 496,-71 496,4 -4,4"/>
<!-- Node1 -->
<g id="node1" class="node"><title>Node1</title>
<polygon fill="#bfbfbf" stroke="black" points="0,-0.5 0,-41.5 140,-41.5 140,-0.5 0,-0.5"/>
<text text-anchor="start" x="8" y="-29.5" font-family="Helvetica,sans-Serif" font-size="10.00">pocketmine\inventory</text>
<text text-anchor="start" x="8" y="-18.5" font-family="Helvetica,sans-Serif" font-size="10.00">\CraftingTransactionGroup</text>
<text text-anchor="middle" x="70" y="-7.5" font-family="Helvetica,sans-Serif" font-size="10.00">\getMatchingRecipe</text>
</g>
<!-- Node2 -->
<g id="node2" class="node"><title>Node2</title>
<g id="a_node2"><a xlink:href="../../d6/d42/classpocketmine_1_1inventory_1_1_crafting_transaction_group.html#a05e604737a07e4c9549bfc67c6ef52f0" target="_top" xlink:title="pocketmine\\inventory\l\\CraftingTransactionGroup\l\\canExecute">
<polygon fill="white" stroke="black" points="176,-25.5 176,-66.5 316,-66.5 316,-25.5 176,-25.5"/>
<text text-anchor="start" x="184" y="-54.5" font-family="Helvetica,sans-Serif" font-size="10.00">pocketmine\inventory</text>
<text text-anchor="start" x="184" y="-43.5" font-family="Helvetica,sans-Serif" font-size="10.00">\CraftingTransactionGroup</text>
<text text-anchor="middle" x="246" y="-32.5" font-family="Helvetica,sans-Serif" font-size="10.00">\canExecute</text>
</a>
</g>
</g>
<!-- Node1&#45;&gt;Node2 -->
<g id="edge1" class="edge"><title>Node1&#45;&gt;Node2</title>
<path fill="none" stroke="midnightblue" d="M150.035,-32.3556C158.625,-33.5898 167.319,-34.839 175.779,-36.0545"/>
<polygon fill="midnightblue" stroke="midnightblue" points="150.415,-28.8744 140.019,-30.9166 149.42,-35.8033 150.415,-28.8744"/>
</g>
<!-- Node3 -->
<g id="node3" class="node"><title>Node3</title>
<g id="a_node3"><a xlink:href="../../d6/d42/classpocketmine_1_1inventory_1_1_crafting_transaction_group.html#a6761a58d52f41eb21a736157a51476db" target="_top" xlink:title="pocketmine\\inventory\l\\CraftingTransactionGroup\l\\execute">
<polygon fill="white" stroke="black" points="352,-0.5 352,-41.5 492,-41.5 492,-0.5 352,-0.5"/>
<text text-anchor="start" x="360" y="-29.5" font-family="Helvetica,sans-Serif" font-size="10.00">pocketmine\inventory</text>
<text text-anchor="start" x="360" y="-18.5" font-family="Helvetica,sans-Serif" font-size="10.00">\CraftingTransactionGroup</text>
<text text-anchor="middle" x="422" y="-7.5" font-family="Helvetica,sans-Serif" font-size="10.00">\execute</text>
</a>
</g>
</g>
<!-- Node1&#45;&gt;Node3 -->
<g id="edge3" class="edge"><title>Node1&#45;&gt;Node3</title>
<path fill="none" stroke="midnightblue" d="M150.31,-16.8215C158.978,-16.4846 167.673,-16.1981 176,-16 238.205,-14.5198 253.795,-14.5198 316,-16 327.585,-16.2757 339.884,-16.7222 351.828,-17.2379"/>
<polygon fill="midnightblue" stroke="midnightblue" points="150.02,-13.3304 140.172,-17.2379 150.307,-20.3245 150.02,-13.3304"/>
</g>
<!-- Node2&#45;&gt;Node3 -->
<g id="edge2" class="edge"><title>Node2&#45;&gt;Node3</title>
<path fill="none" stroke="midnightblue" d="M326.035,-34.6444C334.625,-33.4102 343.319,-32.161 351.779,-30.9455"/>
<polygon fill="midnightblue" stroke="midnightblue" points="325.42,-31.1967 316.019,-36.0834 326.415,-38.1256 325.42,-31.1967"/>
</g>
</g>
</svg>
