<?xml version="1.0" encoding="UTF-8" standalone="no"?>
<!DOCTYPE svg PUBLIC "-//W3C//DTD SVG 1.1//EN"
 "http://www.w3.org/Graphics/SVG/1.1/DTD/svg11.dtd">
<!-- Generated by graphviz version 2.36.0 (20140111.2315)
 -->
<!-- Title: pocketmine\inventory\CraftingTransactionGroup\getMatchingRecipe Pages: 1 -->
<svg width="352pt" height="48pt"
 viewBox="0.00 0.00 352.00 48.00" xmlns="http://www.w3.org/2000/svg" xmlns:xlink="http://www.w3.org/1999/xlink">
<g id="graph0" class="graph" transform="scale(1 1) rotate(0) translate(4 44)">
<title>pocketmine\inventory\CraftingTransactionGroup\getMatchingRecipe</title>
<polygon fill="white" stroke="none" points="-4,4 -4,-44 348,-44 348,4 -4,4"/>
<!-- Node1 -->
<g id="node1" class="node"><title>Node1</title>
<polygon fill="#bfbfbf" stroke="black" points="0,0.5 0,-40.5 140,-40.5 140,0.5 0,0.5"/>
<text text-anchor="start" x="8" y="-28.5" font-family="Helvetica,sans-Serif" font-size="10.00">pocketmine\inventory</text>
<text text-anchor="start" x="8" y="-17.5" font-family="Helvetica,sans-Serif" font-size="10.00">\CraftingTransactionGroup</text>
<text text-anchor="middle" x="70" y="-6.5" font-family="Helvetica,sans-Serif" font-size="10.00">\getMatchingRecipe</text>
</g>
<!-- Node2 -->
<g id="node2" class="node"><title>Node2</title>
<g id="a_node2"><a xlink:href="../../d5/df7/classpocketmine_1_1_server.html#a8d9b9873eb3c7efce048f10f803c2b2e" target="_top" xlink:title="pocketmine\\Server\\getInstance">
<polygon fill="white" stroke="black" points="176.5,-10.5 176.5,-29.5 343.5,-29.5 343.5,-10.5 176.5,-10.5"/>
<text text-anchor="middle" x="260" y="-17.5" font-family="Helvetica,sans-Serif" font-size="10.00">pocketmine\Server\getInstance</text>
</a>
</g>
</g>
<!-- Node1&#45;&gt;Node2 -->
<g id="edge1" class="edge"><title>Node1&#45;&gt;Node2</title>
<path fill="none" stroke="midnightblue" d="M140.203,-20C148.631,-20 157.346,-20 166.049,-20"/>
<polygon fill="midnightblue" stroke="midnightblue" points="166.241,-23.5001 176.241,-20 166.241,-16.5001 166.241,-23.5001"/>
</g>
</g>
</svg>
