<?xml version="1.0" encoding="UTF-8" standalone="no"?>
<!DOCTYPE svg PUBLIC "-//W3C//DTD SVG 1.1//EN"
 "http://www.w3.org/Graphics/SVG/1.1/DTD/svg11.dtd">
<!-- Generated by graphviz version 2.36.0 (20140111.2315)
 -->
<!-- Title: pocketmine\inventory\CraftingTransactionGroup\canExecute Pages: 1 -->
<svg width="324pt" height="48pt"
 viewBox="0.00 0.00 324.00 48.00" xmlns="http://www.w3.org/2000/svg" xmlns:xlink="http://www.w3.org/1999/xlink">
<g id="graph0" class="graph" transform="scale(1 1) rotate(0) translate(4 44)">
<title>pocketmine\inventory\CraftingTransactionGroup\canExecute</title>
<polygon fill="white" stroke="none" points="-4,4 -4,-44 320,-44 320,4 -4,4"/>
<!-- Node1 -->
<g id="node1" class="node"><title>Node1</title>
<polygon fill="#bfbfbf" stroke="black" points="0,0.5 0,-40.5 140,-40.5 140,0.5 0,0.5"/>
<text text-anchor="start" x="8" y="-28.5" font-family="Helvetica,sans-Serif" font-size="10.00">pocketmine\inventory</text>
<text text-anchor="start" x="8" y="-17.5" font-family="Helvetica,sans-Serif" font-size="10.00">\CraftingTransactionGroup</text>
<text text-anchor="middle" x="70" y="-6.5" font-family="Helvetica,sans-Serif" font-size="10.00">\canExecute</text>
</g>
<!-- Node2 -->
<g id="node2" class="node"><title>Node2</title>
<g id="a_node2"><a xlink:href="../../d6/d42/classpocketmine_1_1inventory_1_1_crafting_transaction_group.html#a6761a58d52f41eb21a736157a51476db" target="_top" xlink:title="pocketmine\\inventory\l\\CraftingTransactionGroup\l\\execute">
<polygon fill="white" stroke="black" points="176,0.5 176,-40.5 316,-40.5 316,0.5 176,0.5"/>
<text text-anchor="start" x="184" y="-28.5" font-family="Helvetica,sans-Serif" font-size="10.00">pocketmine\inventory</text>
<text text-anchor="start" x="184" y="-17.5" font-family="Helvetica,sans-Serif" font-size="10.00">\CraftingTransactionGroup</text>
<text text-anchor="middle" x="246" y="-6.5" font-family="Helvetica,sans-Serif" font-size="10.00">\execute</text>
</a>
</g>
</g>
<!-- Node1&#45;&gt;Node2 -->
<g id="edge1" class="edge"><title>Node1&#45;&gt;Node2</title>
<path fill="none" stroke="midnightblue" d="M150.035,-20C158.625,-20 167.319,-20 175.779,-20"/>
<polygon fill="midnightblue" stroke="midnightblue" points="150.019,-16.5001 140.019,-20 150.019,-23.5001 150.019,-16.5001"/>
</g>
</g>
</svg>
