<?xml version="1.0" encoding="UTF-8" standalone="no"?>
<!DOCTYPE svg PUBLIC "-//W3C//DTD SVG 1.1//EN"
 "http://www.w3.org/Graphics/SVG/1.1/DTD/svg11.dtd">
<!-- Generated by graphviz version 2.26.3 (20100126.1600)
 -->
<!-- Title: pocketmine\inventory\CraftingTransactionGroup\canExecute Pages: 1 -->
<svg width="308pt" height="56pt"
 viewBox="0.00 0.00 308.00 56.00" xmlns="http://www.w3.org/2000/svg" xmlns:xlink="http://www.w3.org/1999/xlink">
<g id="graph1" class="graph" transform="scale(1 1) rotate(0) translate(4 52)">
<title>pocketmine\inventory\CraftingTransactionGroup\canExecute</title>
<polygon fill="white" stroke="white" points="-4,5 -4,-52 305,-52 305,5 -4,5"/>
<!-- Node1 -->
<g id="node1" class="node"><title>Node1</title>
<polygon fill="#bfbfbf" stroke="black" points="0.5,-0.5 0.5,-47.5 131.5,-47.5 131.5,-0.5 0.5,-0.5"/>
<text text-anchor="start" x="8.5" y="-34.5" font-family="Helvetica,sans-Serif" font-size="10.00">pocketmine\inventory</text>
<text text-anchor="start" x="8.5" y="-21.5" font-family="Helvetica,sans-Serif" font-size="10.00">\CraftingTransactionGroup</text>
<text text-anchor="middle" x="66" y="-8.5" font-family="Helvetica,sans-Serif" font-size="10.00">\canExecute</text>
</g>
<!-- Node2 -->
<g id="node3" class="node"><title>Node2</title>
<a xlink:href="../../d6/d42/classpocketmine_1_1inventory_1_1_crafting_transaction_group.html#a6761a58d52f41eb21a736157a51476db" target="_top" xlink:title="pocketmine\\inventory\l\\CraftingTransactionGroup\l\\execute">
<polygon fill="white" stroke="black" points="168.5,-0.5 168.5,-47.5 299.5,-47.5 299.5,-0.5 168.5,-0.5"/>
<text text-anchor="start" x="176.5" y="-34.5" font-family="Helvetica,sans-Serif" font-size="10.00">pocketmine\inventory</text>
<text text-anchor="start" x="176.5" y="-21.5" font-family="Helvetica,sans-Serif" font-size="10.00">\CraftingTransactionGroup</text>
<text text-anchor="middle" x="234" y="-8.5" font-family="Helvetica,sans-Serif" font-size="10.00">\execute</text>
</a>
</g>
<!-- Node1&#45;&gt;Node2 -->
<g id="edge2" class="edge"><title>Node1&#45;&gt;Node2</title>
<path fill="none" stroke="midnightblue" d="M142.098,-24C150.836,-24 159.689,-24 168.274,-24"/>
<polygon fill="midnightblue" stroke="midnightblue" points="141.916,-20.5001 131.916,-24 141.916,-27.5001 141.916,-20.5001"/>
</g>
</g>
</svg>
