<?xml version="1.0" encoding="UTF-8" standalone="no"?>
<!DOCTYPE svg PUBLIC "-//W3C//DTD SVG 1.1//EN"
 "http://www.w3.org/Graphics/SVG/1.1/DTD/svg11.dtd">
<!-- Generated by graphviz version 2.36.0 (20140111.2315)
 -->
<!-- Title: pocketmine\inventory\CraftingTransactionGroup\execute Pages: 1 -->
<!--zoomable 245 -->
<svg id="main" version="1.1" xmlns="http://www.w3.org/2000/svg" xmlns:xlink="http://www.w3.org/1999/xlink" xml:space="preserve" onload="init(evt)">
<style type="text/css"><![CDATA[
.edge:hover path { stroke: red; }
.edge:hover polygon { stroke: red; fill: red; }
]]></style>
<script type="text/javascript"><![CDATA[
var edges = document.getElementsByTagName('g');
if (edges && edges.length) {
  for (var i=0;i<edges.length;i++) {
    if (edges[i].id.substr(0,4)=='edge') {
      edges[i].setAttribute('class','edge');
    }
  }
}
]]></script>
        <defs>
                <circle id="rim" cx="0" cy="0" r="7"/>
                <circle id="rim2" cx="0" cy="0" r="3.5"/>
                <g id="zoomPlus">
                        <use xlink:href="#rim" fill="#404040">
                                <set attributeName="fill" to="#808080" begin="zoomplus.mouseover" end="zoomplus.mouseout"/>
                        </use>
                        <path d="M-4,0h8M0,-4v8" fill="none" stroke="white" stroke-width="1.5" pointer-events="none"/>
                </g>
                <g id="zoomMin">
                        <use xlink:href="#rim" fill="#404040">
                                <set attributeName="fill" to="#808080" begin="zoomminus.mouseover" end="zoomminus.mouseout"/>
                        </use>
                        <path d="M-4,0h8" fill="none" stroke="white" stroke-width="1.5" pointer-events="none"/>
                </g>
                <g id="dirArrow">
                        <path fill="none" stroke="white" stroke-width="1.5" d="M0,-3.0v7 M-2.5,-0.5L0,-3.0L2.5,-0.5"/>
                </g>
               <g id="resetDef">
                       <use xlink:href="#rim2" fill="#404040">
                               <set attributeName="fill" to="#808080" begin="reset.mouseover" end="reset.mouseout"/>
                       </use>
               </g>
        </defs>

<script type="text/javascript">
var viewWidth = 704;
var viewHeight = 245;
var sectionId = 'dynsection-5';
</script>
<script xlink:href="../../svgpan.js"/>
<svg id="graph" class="graph">
<g id="viewport">
<title>pocketmine\inventory\CraftingTransactionGroup\execute</title>
<polygon fill="white" stroke="none" points="-4,4 -4,-241 700,-241 700,4 -4,4"/>
<!-- Node1 -->
<g id="node1" class="node"><title>Node1</title>
<polygon fill="#bfbfbf" stroke="black" points="0,-108.5 0,-149.5 140,-149.5 140,-108.5 0,-108.5"/>
<text text-anchor="start" x="8" y="-137.5" font-family="Helvetica,sans-Serif" font-size="10.00">pocketmine\inventory</text>
<text text-anchor="start" x="8" y="-126.5" font-family="Helvetica,sans-Serif" font-size="10.00">\CraftingTransactionGroup</text>
<text text-anchor="middle" x="70" y="-115.5" font-family="Helvetica,sans-Serif" font-size="10.00">\execute</text>
</g>
<!-- Node2 -->
<g id="node2" class="node"><title>Node2</title>
<g id="a_node2"><a xlink:href="../../d6/d42/classpocketmine_1_1inventory_1_1_crafting_transaction_group.html#a05e604737a07e4c9549bfc67c6ef52f0" target="_top" xlink:title="pocketmine\\inventory\l\\CraftingTransactionGroup\l\\canExecute">
<polygon fill="white" stroke="black" points="176,-195.5 176,-236.5 316,-236.5 316,-195.5 176,-195.5"/>
<text text-anchor="start" x="184" y="-224.5" font-family="Helvetica,sans-Serif" font-size="10.00">pocketmine\inventory</text>
<text text-anchor="start" x="184" y="-213.5" font-family="Helvetica,sans-Serif" font-size="10.00">\CraftingTransactionGroup</text>
<text text-anchor="middle" x="246" y="-202.5" font-family="Helvetica,sans-Serif" font-size="10.00">\canExecute</text>
</a>
</g>
</g>
<!-- Node1&#45;&gt;Node2 -->
<g id="edge1" class="edge"><title>Node1&#45;&gt;Node2</title>
<path fill="none" stroke="midnightblue" d="M112.236,-149.618C136.957,-161.979 168.571,-177.786 194.747,-190.874"/>
<polygon fill="midnightblue" stroke="midnightblue" points="193.25,-194.038 203.759,-195.38 196.38,-187.777 193.25,-194.038"/>
</g>
<!-- Node3 -->
<g id="node3" class="node"><title>Node3</title>
<g id="a_node3"><a xlink:href="../../d6/d42/classpocketmine_1_1inventory_1_1_crafting_transaction_group.html#a9f16aa4dd583f69449354d98e365abdc" target="_top" xlink:title="pocketmine\\inventory\l\\CraftingTransactionGroup\l\\getMatchingRecipe">
<polygon fill="white" stroke="black" points="352,-157.5 352,-198.5 492,-198.5 492,-157.5 352,-157.5"/>
<text text-anchor="start" x="360" y="-186.5" font-family="Helvetica,sans-Serif" font-size="10.00">pocketmine\inventory</text>
<text text-anchor="start" x="360" y="-175.5" font-family="Helvetica,sans-Serif" font-size="10.00">\CraftingTransactionGroup</text>
<text text-anchor="middle" x="422" y="-164.5" font-family="Helvetica,sans-Serif" font-size="10.00">\getMatchingRecipe</text>
</a>
</g>
</g>
<!-- Node1&#45;&gt;Node3 -->
<g id="edge5" class="edge"><title>Node1&#45;&gt;Node3</title>
<path fill="none" stroke="midnightblue" d="M140.149,-138.681C198.273,-146.818 281.351,-158.449 342.07,-166.95"/>
<polygon fill="midnightblue" stroke="midnightblue" points="341.606,-170.419 351.995,-168.339 342.577,-163.487 341.606,-170.419"/>
</g>
<!-- Node4 -->
<g id="node4" class="node"><title>Node4</title>
<g id="a_node4"><a xlink:href="../../d5/df7/classpocketmine_1_1_server.html#a8d9b9873eb3c7efce048f10f803c2b2e" target="_top" xlink:title="pocketmine\\Server\\getInstance">
<polygon fill="white" stroke="black" points="528.5,-143.5 528.5,-162.5 695.5,-162.5 695.5,-143.5 528.5,-143.5"/>
<text text-anchor="middle" x="612" y="-150.5" font-family="Helvetica,sans-Serif" font-size="10.00">pocketmine\Server\getInstance</text>
</a>
</g>
</g>
<!-- Node1&#45;&gt;Node4 -->
<g id="edge4" class="edge"><title>Node1&#45;&gt;Node4</title>
<path fill="none" stroke="midnightblue" d="M140.215,-132.076C236.434,-136.353 410.863,-144.105 518.256,-148.878"/>
<polygon fill="midnightblue" stroke="midnightblue" points="518.29,-152.383 528.435,-149.33 518.6,-145.39 518.29,-152.383"/>
</g>
<!-- Node5 -->
<g id="node5" class="node"><title>Node5</title>
<g id="a_node5"><a xlink:href="../../df/df1/classpocketmine_1_1inventory_1_1_simple_transaction_group.html#aa8d514b406c0bcbfa1a0d4f8f5ed765a" target="_top" xlink:title="pocketmine\\inventory\l\\SimpleTransactionGroup\l\\getSource">
<polygon fill="white" stroke="black" points="178,-59.5 178,-100.5 314,-100.5 314,-59.5 178,-59.5"/>
<text text-anchor="start" x="186" y="-88.5" font-family="Helvetica,sans-Serif" font-size="10.00">pocketmine\inventory</text>
<text text-anchor="start" x="186" y="-77.5" font-family="Helvetica,sans-Serif" font-size="10.00">\SimpleTransactionGroup</text>
<text text-anchor="middle" x="246" y="-66.5" font-family="Helvetica,sans-Serif" font-size="10.00">\getSource</text>
</a>
</g>
</g>
<!-- Node1&#45;&gt;Node5 -->
<g id="edge6" class="edge"><title>Node1&#45;&gt;Node5</title>
<path fill="none" stroke="midnightblue" d="M140.019,-109.564C149.244,-106.966 158.752,-104.288 168.101,-101.655"/>
<polygon fill="midnightblue" stroke="midnightblue" points="169.092,-105.013 177.768,-98.933 167.194,-98.2748 169.092,-105.013"/>
</g>
<!-- Node6 -->
<g id="node6" class="node"><title>Node6</title>
<g id="a_node6"><a xlink:href="../../df/df1/classpocketmine_1_1inventory_1_1_simple_transaction_group.html#a733538b56586ee02abca451485ff7f82" target="_top" xlink:title="pocketmine\\inventory\l\\SimpleTransactionGroup\l\\hasExecuted">
<polygon fill="white" stroke="black" points="178,0.5 178,-40.5 314,-40.5 314,0.5 178,0.5"/>
<text text-anchor="start" x="186" y="-28.5" font-family="Helvetica,sans-Serif" font-size="10.00">pocketmine\inventory</text>
<text text-anchor="start" x="186" y="-17.5" font-family="Helvetica,sans-Serif" font-size="10.00">\SimpleTransactionGroup</text>
<text text-anchor="middle" x="246" y="-6.5" font-family="Helvetica,sans-Serif" font-size="10.00">\hasExecuted</text>
</a>
</g>
</g>
<!-- Node1&#45;&gt;Node6 -->
<g id="edge7" class="edge"><title>Node1&#45;&gt;Node6</title>
<path fill="none" stroke="midnightblue" d="M94.891,-108.444C115.467,-91.3887 146.434,-67.2271 176,-50 178.822,-48.356 181.75,-46.7469 184.738,-45.1817"/>
<polygon fill="midnightblue" stroke="midnightblue" points="186.457,-48.235 193.83,-40.6265 183.322,-41.9764 186.457,-48.235"/>
</g>
<!-- Node2&#45;&gt;Node3 -->
<g id="edge2" class="edge"><title>Node2&#45;&gt;Node3</title>
<path fill="none" stroke="midnightblue" d="M316.019,-200.927C324.476,-199.08 333.169,-197.181 341.761,-195.305"/>
<polygon fill="midnightblue" stroke="midnightblue" points="342.757,-198.67 351.779,-193.117 341.263,-191.831 342.757,-198.67"/>
</g>
<!-- Node3&#45;&gt;Node4 -->
<g id="edge3" class="edge"><title>Node3&#45;&gt;Node4</title>
<path fill="none" stroke="midnightblue" d="M492.203,-168.797C504.227,-167.199 516.834,-165.522 529.157,-163.883"/>
<polygon fill="midnightblue" stroke="midnightblue" points="529.972,-167.306 539.423,-162.518 529.049,-160.367 529.972,-167.306"/>
</g>
</g>
</svg>
        <g id="navigator" transform="translate(0 0)" fill="#404254">
                <rect fill="#f2f5e9" fill-opacity="0.5" stroke="#606060" stroke-width=".5" x="0" y="0" width="60" height="60"/>
                <use id="zoomplus" xlink:href="#zoomPlus" x="17" y="9" onmousedown="handleZoom(evt,'in')"/>
                <use id="zoomminus" xlink:href="#zoomMin" x="42" y="9" onmousedown="handleZoom(evt,'out')"/>
                <use id="reset" xlink:href="#resetDef" x="30" y="36" onmousedown="handleReset()"/>
                <g id="arrowUp" xlink:href="#dirArrow" transform="translate(30 24)" onmousedown="handlePan(0,-1)">
                  <use xlink:href="#rim" fill="#404040">
                        <set attributeName="fill" to="#808080" begin="arrowUp.mouseover" end="arrowUp.mouseout"/>
                  </use>
                  <path fill="none" stroke="white" stroke-width="1.5" d="M0,-3.0v7 M-2.5,-0.5L0,-3.0L2.5,-0.5"/>
                </g>
                <g id="arrowRight" xlink:href="#dirArrow" transform="rotate(90) translate(36 -43)" onmousedown="handlePan(1,0)">
                  <use xlink:href="#rim" fill="#404040">
                        <set attributeName="fill" to="#808080" begin="arrowRight.mouseover" end="arrowRight.mouseout"/>
                  </use>
                  <path fill="none" stroke="white" stroke-width="1.5" d="M0,-3.0v7 M-2.5,-0.5L0,-3.0L2.5,-0.5"/>
                </g>
                <g id="arrowDown" xlink:href="#dirArrow" transform="rotate(180) translate(-30 -48)" onmousedown="handlePan(0,1)">
                  <use xlink:href="#rim" fill="#404040">
                        <set attributeName="fill" to="#808080" begin="arrowDown.mouseover" end="arrowDown.mouseout"/>
                  </use>
                  <path fill="none" stroke="white" stroke-width="1.5" d="M0,-3.0v7 M-2.5,-0.5L0,-3.0L2.5,-0.5"/>
                </g>
                <g id="arrowLeft" xlink:href="#dirArrow" transform="rotate(270) translate(-36 17)" onmousedown="handlePan(-1,0)">
                  <use xlink:href="#rim" fill="#404040">
                        <set attributeName="fill" to="#808080" begin="arrowLeft.mouseover" end="arrowLeft.mouseout"/>
                  </use>
                  <path fill="none" stroke="white" stroke-width="1.5" d="M0,-3.0v7 M-2.5,-0.5L0,-3.0L2.5,-0.5"/>
                </g>
        </g>
        <svg viewBox="0 0 15 15" width="100%" height="30px" preserveAspectRatio="xMaxYMin meet">
         <g id="arrow_out" transform="scale(0.3 0.3)">
          <a xlink:href="classpocketmine_1_1inventory_1_1_crafting_transaction_group_a6761a58d52f41eb21a736157a51476db_cgraph_org.svg" target="_base">
           <rect id="button" ry="5" rx="5" y="6" x="6" height="38" width="38"
                fill="#f2f5e9" fill-opacity="0.5" stroke="#606060" stroke-width="1.0"/>
           <path id="arrow"
             d="M 11.500037,31.436501 C 11.940474,20.09759 22.043105,11.32322 32.158766,21.979434 L 37.068811,17.246167 C 37.068811,17.246167 37.088388,32 37.088388,32 L 22.160133,31.978069 C 22.160133,31.978069 26.997745,27.140456 26.997745,27.140456 C 18.528582,18.264221 13.291696,25.230495 11.500037,31.436501 z"
             style="fill:#404040;"/>
          </a>
         </g>
        </svg>
</svg>
