<?xml version="1.0" encoding="UTF-8" standalone="no"?>
<!DOCTYPE svg PUBLIC "-//W3C//DTD SVG 1.1//EN"
 "http://www.w3.org/Graphics/SVG/1.1/DTD/svg11.dtd">
<!-- Generated by graphviz version 2.26.3 (20100126.1600)
 -->
<!-- Title: pocketmine\inventory\CraftingTransactionGroup\execute Pages: 1 -->
<svg width="664pt" height="264pt"
 viewBox="0.00 0.00 664.00 264.00" xmlns="http://www.w3.org/2000/svg" xmlns:xlink="http://www.w3.org/1999/xlink">
<g id="graph1" class="graph" transform="scale(1 1) rotate(0) translate(4 260)">
<title>pocketmine\inventory\CraftingTransactionGroup\execute</title>
<polygon fill="white" stroke="white" points="-4,5 -4,-260 661,-260 661,5 -4,5"/>
<!-- Node1 -->
<g id="node1" class="node"><title>Node1</title>
<polygon fill="#bfbfbf" stroke="black" points="0.5,-118.5 0.5,-165.5 131.5,-165.5 131.5,-118.5 0.5,-118.5"/>
<text text-anchor="start" x="8.5" y="-152.5" font-family="Helvetica,sans-Serif" font-size="10.00">pocketmine\inventory</text>
<text text-anchor="start" x="8.5" y="-139.5" font-family="Helvetica,sans-Serif" font-size="10.00">\CraftingTransactionGroup</text>
<text text-anchor="middle" x="66" y="-126.5" font-family="Helvetica,sans-Serif" font-size="10.00">\execute</text>
</g>
<!-- Node2 -->
<g id="node3" class="node"><title>Node2</title>
<a xlink:href="../../d6/d42/classpocketmine_1_1inventory_1_1_crafting_transaction_group.html#a05e604737a07e4c9549bfc67c6ef52f0" target="_top" xlink:title="pocketmine\\inventory\l\\CraftingTransactionGroup\l\\canExecute">
<polygon fill="white" stroke="black" points="168.5,-208.5 168.5,-255.5 299.5,-255.5 299.5,-208.5 168.5,-208.5"/>
<text text-anchor="start" x="176.5" y="-242.5" font-family="Helvetica,sans-Serif" font-size="10.00">pocketmine\inventory</text>
<text text-anchor="start" x="176.5" y="-229.5" font-family="Helvetica,sans-Serif" font-size="10.00">\CraftingTransactionGroup</text>
<text text-anchor="middle" x="234" y="-216.5" font-family="Helvetica,sans-Serif" font-size="10.00">\canExecute</text>
</a>
</g>
<!-- Node1&#45;&gt;Node2 -->
<g id="edge2" class="edge"><title>Node1&#45;&gt;Node2</title>
<path fill="none" stroke="midnightblue" d="M110.14,-165.646C131.854,-177.279 158.193,-191.389 180.991,-203.602"/>
<polygon fill="midnightblue" stroke="midnightblue" points="179.396,-206.718 189.863,-208.355 182.701,-200.548 179.396,-206.718"/>
</g>
<!-- Node3 -->
<g id="node5" class="node"><title>Node3</title>
<a xlink:href="../../d6/d42/classpocketmine_1_1inventory_1_1_crafting_transaction_group.html#a9f16aa4dd583f69449354d98e365abdc" target="_top" xlink:title="pocketmine\\inventory\l\\CraftingTransactionGroup\l\\getMatchingRecipe">
<polygon fill="white" stroke="black" points="336.5,-170.5 336.5,-217.5 467.5,-217.5 467.5,-170.5 336.5,-170.5"/>
<text text-anchor="start" x="344.5" y="-204.5" font-family="Helvetica,sans-Serif" font-size="10.00">pocketmine\inventory</text>
<text text-anchor="start" x="344.5" y="-191.5" font-family="Helvetica,sans-Serif" font-size="10.00">\CraftingTransactionGroup</text>
<text text-anchor="middle" x="402" y="-178.5" font-family="Helvetica,sans-Serif" font-size="10.00">\getMatchingRecipe</text>
</a>
</g>
<!-- Node1&#45;&gt;Node3 -->
<g id="edge10" class="edge"><title>Node1&#45;&gt;Node3</title>
<path fill="none" stroke="midnightblue" d="M131.582,-152.15C187.458,-160.797 267.776,-173.227 326.357,-182.293"/>
<polygon fill="midnightblue" stroke="midnightblue" points="325.879,-185.761 336.297,-183.832 326.95,-178.843 325.879,-185.761"/>
</g>
<!-- Node4 -->
<g id="node7" class="node"><title>Node4</title>
<a xlink:href="../../d5/df7/classpocketmine_1_1_server.html#a8d9b9873eb3c7efce048f10f803c2b2e" target="_top" xlink:title="pocketmine\\Server\\getInstance">
<polygon fill="white" stroke="black" points="504,-157.5 504,-178.5 656,-178.5 656,-157.5 504,-157.5"/>
<text text-anchor="middle" x="580" y="-165.5" font-family="Helvetica,sans-Serif" font-size="10.00">pocketmine\Server\getInstance</text>
</a>
</g>
<!-- Node1&#45;&gt;Node4 -->
<g id="edge8" class="edge"><title>Node1&#45;&gt;Node4</title>
<path fill="none" stroke="midnightblue" d="M131.819,-144.804C211.449,-148.267 349.575,-154.501 468,-161 476.319,-161.457 484.985,-161.956 493.648,-162.471"/>
<polygon fill="midnightblue" stroke="midnightblue" points="493.605,-165.975 503.797,-163.081 494.025,-158.987 493.605,-165.975"/>
</g>
<!-- Node5 -->
<g id="node11" class="node"><title>Node5</title>
<a xlink:href="../../df/df1/classpocketmine_1_1inventory_1_1_simple_transaction_group.html#aa8d514b406c0bcbfa1a0d4f8f5ed765a" target="_top" xlink:title="pocketmine\\inventory\l\\SimpleTransactionGroup\l\\getSource">
<polygon fill="white" stroke="black" points="170.5,-66.5 170.5,-113.5 297.5,-113.5 297.5,-66.5 170.5,-66.5"/>
<text text-anchor="start" x="178.5" y="-100.5" font-family="Helvetica,sans-Serif" font-size="10.00">pocketmine\inventory</text>
<text text-anchor="start" x="178.5" y="-87.5" font-family="Helvetica,sans-Serif" font-size="10.00">\SimpleTransactionGroup</text>
<text text-anchor="middle" x="234" y="-74.5" font-family="Helvetica,sans-Serif" font-size="10.00">\getSource</text>
</a>
</g>
<!-- Node1&#45;&gt;Node5 -->
<g id="edge12" class="edge"><title>Node1&#45;&gt;Node5</title>
<path fill="none" stroke="midnightblue" d="M131.916,-121.597C141.43,-118.653 151.27,-115.607 160.914,-112.622"/>
<polygon fill="midnightblue" stroke="midnightblue" points="161.955,-115.963 170.473,-109.663 159.886,-109.276 161.955,-115.963"/>
</g>
<!-- Node6 -->
<g id="node13" class="node"><title>Node6</title>
<a xlink:href="../../df/df1/classpocketmine_1_1inventory_1_1_simple_transaction_group.html#a733538b56586ee02abca451485ff7f82" target="_top" xlink:title="pocketmine\\inventory\l\\SimpleTransactionGroup\l\\hasExecuted">
<polygon fill="white" stroke="black" points="170.5,-0.5 170.5,-47.5 297.5,-47.5 297.5,-0.5 170.5,-0.5"/>
<text text-anchor="start" x="178.5" y="-34.5" font-family="Helvetica,sans-Serif" font-size="10.00">pocketmine\inventory</text>
<text text-anchor="start" x="178.5" y="-21.5" font-family="Helvetica,sans-Serif" font-size="10.00">\SimpleTransactionGroup</text>
<text text-anchor="middle" x="234" y="-8.5" font-family="Helvetica,sans-Serif" font-size="10.00">\hasExecuted</text>
</a>
</g>
<!-- Node1&#45;&gt;Node6 -->
<g id="edge14" class="edge"><title>Node1&#45;&gt;Node6</title>
<path fill="none" stroke="midnightblue" d="M91.1226,-118.235C111.019,-100.134 140.027,-75.2946 168,-57 170.158,-55.5888 172.384,-54.1956 174.655,-52.8262"/>
<polygon fill="midnightblue" stroke="midnightblue" points="176.671,-55.704 183.583,-47.675 173.172,-49.6408 176.671,-55.704"/>
</g>
<!-- Node2&#45;&gt;Node3 -->
<g id="edge4" class="edge"><title>Node2&#45;&gt;Node3</title>
<path fill="none" stroke="midnightblue" d="M299.916,-217.09C308.599,-215.127 317.552,-213.101 326.381,-211.104"/>
<polygon fill="midnightblue" stroke="midnightblue" points="327.293,-214.487 336.274,-208.867 325.748,-207.659 327.293,-214.487"/>
</g>
<!-- Node3&#45;&gt;Node4 -->
<g id="edge6" class="edge"><title>Node3&#45;&gt;Node4</title>
<path fill="none" stroke="midnightblue" d="M467.522,-184.429C477.41,-182.985 487.715,-181.48 497.898,-179.992"/>
<polygon fill="midnightblue" stroke="midnightblue" points="498.632,-183.422 508.021,-178.514 497.62,-176.496 498.632,-183.422"/>
</g>
</g>
</svg>
