<?xml version="1.0" encoding="UTF-8" standalone="no"?>
<!DOCTYPE svg PUBLIC "-//W3C//DTD SVG 1.1//EN"
 "http://www.w3.org/Graphics/SVG/1.1/DTD/svg11.dtd">
<!-- Generated by graphviz version 2.36.0 (20140111.2315)
 -->
<!-- Title: pocketmine\utils\Config\load Pages: 1 -->
<svg width="324pt" height="87pt"
 viewBox="0.00 0.00 324.00 87.00" xmlns="http://www.w3.org/2000/svg" xmlns:xlink="http://www.w3.org/1999/xlink">
<g id="graph0" class="graph" transform="scale(1 1) rotate(0) translate(4 83)">
<title>pocketmine\utils\Config\load</title>
<polygon fill="white" stroke="none" points="-4,4 -4,-83 320,-83 320,4 -4,4"/>
<!-- Node1 -->
<g id="node1" class="node"><title>Node1</title>
<polygon fill="#bfbfbf" stroke="black" points="0,-29.5 0,-48.5 152,-48.5 152,-29.5 0,-29.5"/>
<text text-anchor="middle" x="76" y="-36.5" font-family="Helvetica,sans-Serif" font-size="10.00">pocketmine\utils\Config\load</text>
</g>
<!-- Node2 -->
<g id="node2" class="node"><title>Node2</title>
<g id="a_node2"><a xlink:href="../../d6/d2c/classpocketmine_1_1utils_1_1_config.html#a4f4aee89fc088cd8a51a3fd36b62ad06" target="_top" xlink:title="pocketmine\\utils\\Config\l\\__construct">
<polygon fill="white" stroke="black" points="188,-49 188,-79 316,-79 316,-49 188,-49"/>
<text text-anchor="start" x="196" y="-67" font-family="Helvetica,sans-Serif" font-size="10.00">pocketmine\utils\Config</text>
<text text-anchor="middle" x="252" y="-56" font-family="Helvetica,sans-Serif" font-size="10.00">\__construct</text>
</a>
</g>
</g>
<!-- Node1&#45;&gt;Node2 -->
<g id="edge1" class="edge"><title>Node1&#45;&gt;Node2</title>
<path fill="none" stroke="midnightblue" d="M153.307,-49.9637C164.817,-51.6173 176.58,-53.3075 187.774,-54.9159"/>
<polygon fill="midnightblue" stroke="midnightblue" points="153.674,-46.4806 143.278,-48.5227 152.679,-53.4094 153.674,-46.4806"/>
</g>
<!-- Node3 -->
<g id="node3" class="node"><title>Node3</title>
<g id="a_node3"><a xlink:href="../../d6/d2c/classpocketmine_1_1utils_1_1_config.html#aac376eaf33921376c775496c910b8369" target="_top" xlink:title="pocketmine\\utils\\Config\l\\reload">
<polygon fill="white" stroke="black" points="188,-0 188,-30 316,-30 316,-0 188,-0"/>
<text text-anchor="start" x="196" y="-18" font-family="Helvetica,sans-Serif" font-size="10.00">pocketmine\utils\Config</text>
<text text-anchor="middle" x="252" y="-7" font-family="Helvetica,sans-Serif" font-size="10.00">\reload</text>
</a>
</g>
</g>
<!-- Node1&#45;&gt;Node3 -->
<g id="edge2" class="edge"><title>Node1&#45;&gt;Node3</title>
<path fill="none" stroke="midnightblue" d="M156.175,-28.0793C166.84,-26.6083 177.663,-25.1154 187.997,-23.6901"/>
<polygon fill="midnightblue" stroke="midnightblue" points="155.447,-24.6465 146.019,-29.4801 156.404,-31.5808 155.447,-24.6465"/>
</g>
</g>
</svg>
