<?xml version="1.0" encoding="UTF-8" standalone="no"?>
<!DOCTYPE svg PUBLIC "-//W3C//DTD SVG 1.1//EN"
 "http://www.w3.org/Graphics/SVG/1.1/DTD/svg11.dtd">
<!-- Generated by graphviz version 2.26.3 (20100126.1600)
 -->
<!-- Title: pocketmine\utils\Config\save Pages: 1 -->
<svg width="484pt" height="94pt"
 viewBox="0.00 0.00 484.00 94.00" xmlns="http://www.w3.org/2000/svg" xmlns:xlink="http://www.w3.org/1999/xlink">
<g id="graph1" class="graph" transform="scale(1 1) rotate(0) translate(4 90)">
<title>pocketmine\utils\Config\save</title>
<polygon fill="white" stroke="white" points="-4,5 -4,-90 481,-90 481,5 -4,5"/>
<!-- Node1 -->
<g id="node1" class="node"><title>Node1</title>
<polygon fill="#bfbfbf" stroke="black" points="0.5,-32.5 0.5,-53.5 143.5,-53.5 143.5,-32.5 0.5,-32.5"/>
<text text-anchor="middle" x="72" y="-40.5" font-family="Helvetica,sans-Serif" font-size="10.00">pocketmine\utils\Config\save</text>
</g>
<!-- Node2 -->
<g id="node3" class="node"><title>Node2</title>
<a xlink:href="../../d6/d2c/classpocketmine_1_1utils_1_1_config.html#abac0192f001a0ebc9f8f95c0f77fd25d" target="_top" xlink:title="pocketmine\\utils\\Config\\load">
<polygon fill="white" stroke="black" points="180,-32.5 180,-53.5 320,-53.5 320,-32.5 180,-32.5"/>
<text text-anchor="middle" x="250" y="-40.5" font-family="Helvetica,sans-Serif" font-size="10.00">pocketmine\utils\Config\load</text>
</a>
</g>
<!-- Node1&#45;&gt;Node2 -->
<g id="edge2" class="edge"><title>Node1&#45;&gt;Node2</title>
<path fill="none" stroke="midnightblue" d="M153.821,-43C162.555,-43 171.382,-43 179.963,-43"/>
<polygon fill="midnightblue" stroke="midnightblue" points="153.63,-39.5001 143.63,-43 153.63,-46.5001 153.63,-39.5001"/>
</g>
<!-- Node3 -->
<g id="node5" class="node"><title>Node3</title>
<a xlink:href="../../d6/d2c/classpocketmine_1_1utils_1_1_config.html#a4f4aee89fc088cd8a51a3fd36b62ad06" target="_top" xlink:title="pocketmine\\utils\\Config\l\\__construct">
<polygon fill="white" stroke="black" points="356.5,-52 356.5,-86 475.5,-86 475.5,-52 356.5,-52"/>
<text text-anchor="start" x="364.5" y="-73" font-family="Helvetica,sans-Serif" font-size="10.00">pocketmine\utils\Config</text>
<text text-anchor="middle" x="416" y="-60" font-family="Helvetica,sans-Serif" font-size="10.00">\__construct</text>
</a>
</g>
<!-- Node2&#45;&gt;Node3 -->
<g id="edge4" class="edge"><title>Node2&#45;&gt;Node3</title>
<path fill="none" stroke="midnightblue" d="M327.217,-55.0943C337.043,-56.6333 346.978,-58.1893 356.467,-59.6755"/>
<polygon fill="midnightblue" stroke="midnightblue" points="327.461,-51.5899 317.04,-53.5003 326.378,-58.5056 327.461,-51.5899"/>
</g>
<!-- Node4 -->
<g id="node7" class="node"><title>Node4</title>
<a xlink:href="../../d6/d2c/classpocketmine_1_1utils_1_1_config.html#aac376eaf33921376c775496c910b8369" target="_top" xlink:title="pocketmine\\utils\\Config\l\\reload">
<polygon fill="white" stroke="black" points="356.5,-0 356.5,-34 475.5,-34 475.5,-0 356.5,-0"/>
<text text-anchor="start" x="364.5" y="-21" font-family="Helvetica,sans-Serif" font-size="10.00">pocketmine\utils\Config</text>
<text text-anchor="middle" x="416" y="-8" font-family="Helvetica,sans-Serif" font-size="10.00">\reload</text>
</a>
</g>
<!-- Node2&#45;&gt;Node4 -->
<g id="edge6" class="edge"><title>Node2&#45;&gt;Node4</title>
<path fill="none" stroke="midnightblue" d="M327.217,-30.9057C337.043,-29.3667 346.978,-27.8107 356.467,-26.3245"/>
<polygon fill="midnightblue" stroke="midnightblue" points="326.378,-27.4944 317.04,-32.4997 327.461,-34.4101 326.378,-27.4944"/>
</g>
</g>
</svg>
