<?xml version="1.0" encoding="UTF-8" standalone="no"?>
<!DOCTYPE svg PUBLIC "-//W3C//DTD SVG 1.1//EN"
 "http://www.w3.org/Graphics/SVG/1.1/DTD/svg11.dtd">
<!-- Generated by graphviz version 2.36.0 (20140111.2315)
 -->
<!-- Title: pocketmine\utils\Config\save Pages: 1 -->
<svg width="514pt" height="87pt"
 viewBox="0.00 0.00 514.00 87.00" xmlns="http://www.w3.org/2000/svg" xmlns:xlink="http://www.w3.org/1999/xlink">
<g id="graph0" class="graph" transform="scale(1 1) rotate(0) translate(4 83)">
<title>pocketmine\utils\Config\save</title>
<polygon fill="white" stroke="none" points="-4,4 -4,-83 510,-83 510,4 -4,4"/>
<!-- Node1 -->
<g id="node1" class="node"><title>Node1</title>
<polygon fill="#bfbfbf" stroke="black" points="0,-29.5 0,-48.5 154,-48.5 154,-29.5 0,-29.5"/>
<text text-anchor="middle" x="77" y="-36.5" font-family="Helvetica,sans-Serif" font-size="10.00">pocketmine\utils\Config\save</text>
</g>
<!-- Node2 -->
<g id="node2" class="node"><title>Node2</title>
<g id="a_node2"><a xlink:href="../../d6/d2c/classpocketmine_1_1utils_1_1_config.html#abac0192f001a0ebc9f8f95c0f77fd25d" target="_top" xlink:title="pocketmine\\utils\\Config\\load">
<polygon fill="white" stroke="black" points="190,-29.5 190,-48.5 342,-48.5 342,-29.5 190,-29.5"/>
<text text-anchor="middle" x="266" y="-36.5" font-family="Helvetica,sans-Serif" font-size="10.00">pocketmine\utils\Config\load</text>
</a>
</g>
</g>
<!-- Node1&#45;&gt;Node2 -->
<g id="edge1" class="edge"><title>Node1&#45;&gt;Node2</title>
<path fill="none" stroke="midnightblue" d="M164.116,-39C172.73,-39 181.429,-39 189.917,-39"/>
<polygon fill="midnightblue" stroke="midnightblue" points="164.06,-35.5001 154.06,-39 164.06,-42.5001 164.06,-35.5001"/>
</g>
<!-- Node3 -->
<g id="node3" class="node"><title>Node3</title>
<g id="a_node3"><a xlink:href="../../d6/d2c/classpocketmine_1_1utils_1_1_config.html#a4f4aee89fc088cd8a51a3fd36b62ad06" target="_top" xlink:title="pocketmine\\utils\\Config\l\\__construct">
<polygon fill="white" stroke="black" points="378,-49 378,-79 506,-79 506,-49 378,-49"/>
<text text-anchor="start" x="386" y="-67" font-family="Helvetica,sans-Serif" font-size="10.00">pocketmine\utils\Config</text>
<text text-anchor="middle" x="442" y="-56" font-family="Helvetica,sans-Serif" font-size="10.00">\__construct</text>
</a>
</g>
</g>
<!-- Node2&#45;&gt;Node3 -->
<g id="edge2" class="edge"><title>Node2&#45;&gt;Node3</title>
<path fill="none" stroke="midnightblue" d="M343.307,-49.9637C354.817,-51.6173 366.58,-53.3075 377.774,-54.9159"/>
<polygon fill="midnightblue" stroke="midnightblue" points="343.674,-46.4806 333.278,-48.5227 342.679,-53.4094 343.674,-46.4806"/>
</g>
<!-- Node4 -->
<g id="node4" class="node"><title>Node4</title>
<g id="a_node4"><a xlink:href="../../d6/d2c/classpocketmine_1_1utils_1_1_config.html#aac376eaf33921376c775496c910b8369" target="_top" xlink:title="pocketmine\\utils\\Config\l\\reload">
<polygon fill="white" stroke="black" points="378,-0 378,-30 506,-30 506,-0 378,-0"/>
<text text-anchor="start" x="386" y="-18" font-family="Helvetica,sans-Serif" font-size="10.00">pocketmine\utils\Config</text>
<text text-anchor="middle" x="442" y="-7" font-family="Helvetica,sans-Serif" font-size="10.00">\reload</text>
</a>
</g>
</g>
<!-- Node2&#45;&gt;Node4 -->
<g id="edge3" class="edge"><title>Node2&#45;&gt;Node4</title>
<path fill="none" stroke="midnightblue" d="M346.175,-28.0793C356.84,-26.6083 367.663,-25.1154 377.997,-23.6901"/>
<polygon fill="midnightblue" stroke="midnightblue" points="345.447,-24.6465 336.019,-29.4801 346.404,-31.5808 345.447,-24.6465"/>
</g>
</g>
</svg>
