<?xml version="1.0" encoding="UTF-8" standalone="no"?>
<!DOCTYPE svg PUBLIC "-//W3C//DTD SVG 1.1//EN"
 "http://www.w3.org/Graphics/SVG/1.1/DTD/svg11.dtd">
<!-- Generated by graphviz version 2.26.3 (20100126.1600)
 -->
<!-- Title: pocketmine\utils\Config\__isset Pages: 1 -->
<svg width="284pt" height="42pt"
 viewBox="0.00 0.00 284.00 42.00" xmlns="http://www.w3.org/2000/svg" xmlns:xlink="http://www.w3.org/1999/xlink">
<g id="graph1" class="graph" transform="scale(1 1) rotate(0) translate(4 38)">
<title>pocketmine\utils\Config\__isset</title>
<polygon fill="white" stroke="white" points="-4,5 -4,-38 281,-38 281,5 -4,5"/>
<!-- Node1 -->
<g id="node1" class="node"><title>Node1</title>
<polygon fill="#bfbfbf" stroke="black" points="0.5,-0 0.5,-34 119.5,-34 119.5,-0 0.5,-0"/>
<text text-anchor="start" x="8.5" y="-21" font-family="Helvetica,sans-Serif" font-size="10.00">pocketmine\utils\Config</text>
<text text-anchor="middle" x="60" y="-8" font-family="Helvetica,sans-Serif" font-size="10.00">\__isset</text>
</g>
<!-- Node2 -->
<g id="node3" class="node"><title>Node2</title>
<a xlink:href="../../d6/d2c/classpocketmine_1_1utils_1_1_config.html#adb55f526d901a363fc82752d33534947" target="_top" xlink:title="pocketmine\\utils\\Config\l\\exists">
<polygon fill="white" stroke="black" points="156.5,-0 156.5,-34 275.5,-34 275.5,-0 156.5,-0"/>
<text text-anchor="start" x="164.5" y="-21" font-family="Helvetica,sans-Serif" font-size="10.00">pocketmine\utils\Config</text>
<text text-anchor="middle" x="216" y="-8" font-family="Helvetica,sans-Serif" font-size="10.00">\exists</text>
</a>
</g>
<!-- Node1&#45;&gt;Node2 -->
<g id="edge2" class="edge"><title>Node1&#45;&gt;Node2</title>
<path fill="none" stroke="midnightblue" d="M119.868,-17C128.452,-17 137.346,-17 146.103,-17"/>
<polygon fill="midnightblue" stroke="midnightblue" points="146.293,-20.5001 156.293,-17 146.293,-13.5001 146.293,-20.5001"/>
</g>
</g>
</svg>
