<?xml version="1.0" encoding="UTF-8" standalone="no"?>
<!DOCTYPE svg PUBLIC "-//W3C//DTD SVG 1.1//EN"
 "http://www.w3.org/Graphics/SVG/1.1/DTD/svg11.dtd">
<!-- Generated by graphviz version 2.26.3 (20100126.1600)
 -->
<!-- Title: pocketmine\inventory\InventoryType\getDefaultTitle Pages: 1 -->
<svg width="304pt" height="56pt"
 viewBox="0.00 0.00 304.00 56.00" xmlns="http://www.w3.org/2000/svg" xmlns:xlink="http://www.w3.org/1999/xlink">
<g id="graph1" class="graph" transform="scale(1 1) rotate(0) translate(4 52)">
<title>pocketmine\inventory\InventoryType\getDefaultTitle</title>
<polygon fill="white" stroke="white" points="-4,5 -4,-52 301,-52 301,5 -4,5"/>
<!-- Node1 -->
<g id="node1" class="node"><title>Node1</title>
<polygon fill="#bfbfbf" stroke="black" points="0.5,-7 0.5,-41 149.5,-41 149.5,-7 0.5,-7"/>
<text text-anchor="start" x="8.5" y="-28" font-family="Helvetica,sans-Serif" font-size="10.00">pocketmine\inventory</text>
<text text-anchor="middle" x="75" y="-15" font-family="Helvetica,sans-Serif" font-size="10.00">\InventoryType\getDefaultTitle</text>
</g>
<!-- Node2 -->
<g id="node3" class="node"><title>Node2</title>
<a xlink:href="../../df/d13/classpocketmine_1_1inventory_1_1_crafting_inventory.html#ab72ca614d3595e67238a7b359cedf680" target="_top" xlink:title="pocketmine\\inventory\l\\CraftingInventory\\_\l_construct">
<polygon fill="white" stroke="black" points="186,-0.5 186,-47.5 296,-47.5 296,-0.5 186,-0.5"/>
<text text-anchor="start" x="194" y="-34.5" font-family="Helvetica,sans-Serif" font-size="10.00">pocketmine\inventory</text>
<text text-anchor="start" x="194" y="-21.5" font-family="Helvetica,sans-Serif" font-size="10.00">\CraftingInventory\_</text>
<text text-anchor="middle" x="241" y="-8.5" font-family="Helvetica,sans-Serif" font-size="10.00">_construct</text>
</a>
</g>
<!-- Node1&#45;&gt;Node2 -->
<g id="edge2" class="edge"><title>Node1&#45;&gt;Node2</title>
<path fill="none" stroke="midnightblue" d="M159.943,-24C168.638,-24 177.305,-24 185.562,-24"/>
<polygon fill="midnightblue" stroke="midnightblue" points="159.745,-20.5001 149.745,-24 159.745,-27.5001 159.745,-20.5001"/>
</g>
</g>
</svg>
