<?xml version="1.0" encoding="UTF-8" standalone="no"?>
<!DOCTYPE svg PUBLIC "-//W3C//DTD SVG 1.1//EN"
 "http://www.w3.org/Graphics/SVG/1.1/DTD/svg11.dtd">
<!-- Generated by graphviz version 2.26.3 (20100126.1600)
 -->
<!-- Title: pocketmine\level\Level\setBlock Pages: 1 -->
<!--zoomable 410 -->
<svg id="main" version="1.1" xmlns="http://www.w3.org/2000/svg" xmlns:xlink="http://www.w3.org/1999/xlink" xml:space="preserve" onload="init(evt)">
<style type="text/css"><![CDATA[
.edge:hover path { stroke: red; }
.edge:hover polygon { stroke: red; fill: red; }
]]></style>
<script type="text/javascript"><![CDATA[
var edges = document.getElementsByTagName('g');
if (edges && edges.length) {
  for (var i=0;i<edges.length;i++) {
    if (edges[i].id.substr(0,4)=='edge') {
      edges[i].setAttribute('class','edge');
    }
  }
}
]]></script>
        <defs>
                <circle id="rim" cx="0" cy="0" r="7"/>
                <circle id="rim2" cx="0" cy="0" r="3.5"/>
                <g id="zoomPlus">
                        <use xlink:href="#rim" fill="#404040">
                                <set attributeName="fill" to="#808080" begin="zoomplus.mouseover" end="zoomplus.mouseout"/>
                        </use>
                        <path d="M-4,0h8M0,-4v8" fill="none" stroke="white" stroke-width="1.5" pointer-events="none"/>
                </g>
                <g id="zoomMin">
                        <use xlink:href="#rim" fill="#404040">
                                <set attributeName="fill" to="#808080" begin="zoomminus.mouseover" end="zoomminus.mouseout"/>
                        </use>
                        <path d="M-4,0h8" fill="none" stroke="white" stroke-width="1.5" pointer-events="none"/>
                </g>
                <g id="dirArrow">
                        <path fill="none" stroke="white" stroke-width="1.5" d="M0,-3.0v7 M-2.5,-0.5L0,-3.0L2.5,-0.5"/>
                </g>
               <g id="resetDef">
                       <use xlink:href="#rim2" fill="#404040">
                               <set attributeName="fill" to="#808080" begin="reset.mouseover" end="reset.mouseout"/>
                       </use>
               </g>
        </defs>

<script type="text/javascript">
var viewWidth = 608;
var viewHeight = 410;
var sectionId = 'dynsection-50';
</script>
<script xlink:href="../../svgpan.js"/>
<svg id="graph" class="graph">
<g id="viewport">
<title>pocketmine\level\Level\setBlock</title>
<polygon fill="white" stroke="white" points="-4,5 -4,-405.828 605,-405.828 605,5 -4,5"/>
<!-- Node1 -->
<g id="node1" class="node"><title>Node1</title>
<polygon fill="#bfbfbf" stroke="black" points="0,-208 0,-242 116,-242 116,-208 0,-208"/>
<text text-anchor="start" x="8" y="-229" font-family="Helvetica,sans-Serif" font-size="10.00">pocketmine\level\Level</text>
<text text-anchor="middle" x="58" y="-216" font-family="Helvetica,sans-Serif" font-size="10.00">\setBlock</text>
</g>
<!-- Node2 -->
<g id="node3" class="node"><title>Node2</title>
<a xlink:href="../../d3/d4b/classpocketmine_1_1level_1_1_level.html#a4be83538c608928a193884ea26010d96" target="_top" xlink:title="pocketmine\\level\\Level\l\\chunkHash">
<polygon fill="white" stroke="black" points="310,-279 310,-313 426,-313 426,-279 310,-279"/>
<text text-anchor="start" x="318" y="-300" font-family="Helvetica,sans-Serif" font-size="10.00">pocketmine\level\Level</text>
<text text-anchor="middle" x="368" y="-287" font-family="Helvetica,sans-Serif" font-size="10.00">\chunkHash</text>
</a>
</g>
<!-- Node1&#45;&gt;Node2 -->
<g id="edge2" class="edge"><title>Node1&#45;&gt;Node2</title>
<path fill="none" stroke="midnightblue" d="M64.3135,-242.131C76.2284,-271.605 105.125,-331.049 152,-355 200.284,-379.671 221.893,-369.998 274,-355 298.346,-347.993 322.48,-332.619 340.197,-319.322"/>
<polygon fill="midnightblue" stroke="midnightblue" points="342.589,-321.897 348.352,-313.007 338.303,-316.363 342.589,-321.897"/>
</g>
<!-- Node3 -->
<g id="node5" class="node"><title>Node3</title>
<a xlink:href="../../d3/d4b/classpocketmine_1_1level_1_1_level.html#a07cfdb965d8af5b865c2f468d3dc9f2e" target="_top" xlink:title="pocketmine\\level\\Level\l\\getChunkAt">
<polygon fill="white" stroke="black" points="473,-295 473,-329 589,-329 589,-295 473,-295"/>
<text text-anchor="start" x="481" y="-316" font-family="Helvetica,sans-Serif" font-size="10.00">pocketmine\level\Level</text>
<text text-anchor="middle" x="531" y="-303" font-family="Helvetica,sans-Serif" font-size="10.00">\getChunkAt</text>
</a>
</g>
<!-- Node1&#45;&gt;Node3 -->
<g id="edge4" class="edge"><title>Node1&#45;&gt;Node3</title>
<path fill="none" stroke="midnightblue" d="M62.6546,-242.162C72.6504,-275.194 99.6289,-346.912 152,-376 263.659,-438.017 420.218,-371.519 492.116,-334.012"/>
<polygon fill="midnightblue" stroke="midnightblue" points="494.084,-336.93 501.276,-329.15 490.802,-330.747 494.084,-336.93"/>
</g>
<!-- Node4 -->
<g id="node7" class="node"><title>Node4</title>
<a xlink:href="../../d7/d27/classpocketmine_1_1block_1_1_block.html#ac29adb1329728b321a335ca75011db89" target="_top" xlink:title="pocketmine\\block\\Block\l\\getDamage">
<polygon fill="white" stroke="black" points="152.5,-312 152.5,-346 273.5,-346 273.5,-312 152.5,-312"/>
<text text-anchor="start" x="160.5" y="-333" font-family="Helvetica,sans-Serif" font-size="10.00">pocketmine\block\Block</text>
<text text-anchor="middle" x="213" y="-320" font-family="Helvetica,sans-Serif" font-size="10.00">\getDamage</text>
</a>
</g>
<!-- Node1&#45;&gt;Node4 -->
<g id="edge6" class="edge"><title>Node1&#45;&gt;Node4</title>
<path fill="none" stroke="midnightblue" d="M75.5224,-242.225C93.5572,-259.278 123.035,-285.33 152,-303 154.442,-304.489 156.984,-305.935 159.584,-307.33"/>
<polygon fill="midnightblue" stroke="midnightblue" points="158.083,-310.493 168.587,-311.876 161.238,-304.244 158.083,-310.493"/>
</g>
<!-- Node5 -->
<g id="node9" class="node"><title>Node5</title>
<a xlink:href="../../d7/d27/classpocketmine_1_1block_1_1_block.html#a33f3b7dc9f48b83b8f44215d3f4ce874" target="_top" xlink:title="pocketmine\\block\\Block\l\\getID">
<polygon fill="white" stroke="black" points="152.5,-260 152.5,-294 273.5,-294 273.5,-260 152.5,-260"/>
<text text-anchor="start" x="160.5" y="-281" font-family="Helvetica,sans-Serif" font-size="10.00">pocketmine\block\Block</text>
<text text-anchor="middle" x="213" y="-268" font-family="Helvetica,sans-Serif" font-size="10.00">\getID</text>
</a>
</g>
<!-- Node1&#45;&gt;Node5 -->
<g id="edge8" class="edge"><title>Node1&#45;&gt;Node5</title>
<path fill="none" stroke="midnightblue" d="M108.753,-242.027C122.67,-246.696 137.898,-251.804 152.311,-256.64"/>
<polygon fill="midnightblue" stroke="midnightblue" points="151.539,-260.073 162.133,-259.935 153.766,-253.436 151.539,-260.073"/>
</g>
<!-- Node6 -->
<g id="node11" class="node"><title>Node6</title>
<a xlink:href="../../d3/d4b/classpocketmine_1_1level_1_1_level.html#a8a83e3d60970bb4a06f400fc1220511a" target="_top" xlink:title="pocketmine\\level\\Level\l\\getUsingChunk">
<polygon fill="white" stroke="black" points="155,-208 155,-242 271,-242 271,-208 155,-208"/>
<text text-anchor="start" x="163" y="-229" font-family="Helvetica,sans-Serif" font-size="10.00">pocketmine\level\Level</text>
<text text-anchor="middle" x="213" y="-216" font-family="Helvetica,sans-Serif" font-size="10.00">\getUsingChunk</text>
</a>
</g>
<!-- Node1&#45;&gt;Node6 -->
<g id="edge10" class="edge"><title>Node1&#45;&gt;Node6</title>
<path fill="none" stroke="midnightblue" d="M116.157,-225C125.431,-225 135.099,-225 144.583,-225"/>
<polygon fill="midnightblue" stroke="midnightblue" points="144.775,-228.5 154.775,-225 144.775,-221.5 144.775,-228.5"/>
</g>
<!-- Node7 -->
<g id="node14" class="node"><title>Node7</title>
<a xlink:href="../../d7/d27/classpocketmine_1_1block_1_1_block.html#a56933e5b9dab7c426c8af39508b5e54b" target="_top" xlink:title="pocketmine\\block\\Block\l\\onUpdate">
<polygon fill="white" stroke="black" points="152.5,-156 152.5,-190 273.5,-190 273.5,-156 152.5,-156"/>
<text text-anchor="start" x="160.5" y="-177" font-family="Helvetica,sans-Serif" font-size="10.00">pocketmine\block\Block</text>
<text text-anchor="middle" x="213" y="-164" font-family="Helvetica,sans-Serif" font-size="10.00">\onUpdate</text>
</a>
</g>
<!-- Node1&#45;&gt;Node7 -->
<g id="edge14" class="edge"><title>Node1&#45;&gt;Node7</title>
<path fill="none" stroke="midnightblue" d="M108.753,-207.973C122.67,-203.304 137.898,-198.196 152.311,-193.36"/>
<polygon fill="midnightblue" stroke="midnightblue" points="153.766,-196.564 162.133,-190.065 151.539,-189.927 153.766,-196.564"/>
</g>
<!-- Node8 -->
<g id="node16" class="node"><title>Node8</title>
<a xlink:href="../../d7/d27/classpocketmine_1_1block_1_1_block.html#a049a07e777098c8895339554696376c5" target="_top" xlink:title="pocketmine\\block\\Block\l\\position">
<polygon fill="white" stroke="black" points="152.5,-104 152.5,-138 273.5,-138 273.5,-104 152.5,-104"/>
<text text-anchor="start" x="160.5" y="-125" font-family="Helvetica,sans-Serif" font-size="10.00">pocketmine\block\Block</text>
<text text-anchor="middle" x="213" y="-112" font-family="Helvetica,sans-Serif" font-size="10.00">\position</text>
</a>
</g>
<!-- Node1&#45;&gt;Node8 -->
<g id="edge16" class="edge"><title>Node1&#45;&gt;Node8</title>
<path fill="none" stroke="midnightblue" d="M75.5224,-207.775C93.5572,-190.722 123.035,-164.67 152,-147 154.442,-145.511 156.984,-144.065 159.584,-142.67"/>
<polygon fill="midnightblue" stroke="midnightblue" points="161.238,-145.756 168.587,-138.124 158.083,-139.507 161.238,-145.756"/>
</g>
<!-- Node9 -->
<g id="node18" class="node"><title>Node9</title>
<a xlink:href="../../df/d32/classpocketmine_1_1utils_1_1_cache.html#a6651d7cbb7a251b26bb018e28df44004" target="_top" xlink:title="pocketmine\\utils\\Cache\l\\remove">
<polygon fill="white" stroke="black" points="153.5,-52 153.5,-86 272.5,-86 272.5,-52 153.5,-52"/>
<text text-anchor="start" x="161.5" y="-73" font-family="Helvetica,sans-Serif" font-size="10.00">pocketmine\utils\Cache</text>
<text text-anchor="middle" x="213" y="-60" font-family="Helvetica,sans-Serif" font-size="10.00">\remove</text>
</a>
</g>
<!-- Node1&#45;&gt;Node9 -->
<g id="edge18" class="edge"><title>Node1&#45;&gt;Node9</title>
<path fill="none" stroke="midnightblue" d="M66.3895,-207.967C80.5764,-180.724 111.736,-127.151 152,-95 153.552,-93.7609 155.171,-92.5707 156.843,-91.4285"/>
<polygon fill="midnightblue" stroke="midnightblue" points="158.841,-94.3091 165.555,-86.1126 155.195,-88.3336 158.841,-94.3091"/>
</g>
<!-- Node10 -->
<g id="node20" class="node"><title>Node10</title>
<a xlink:href="../../d3/d4b/classpocketmine_1_1level_1_1_level.html#aae760e7c0fb170f97ef6b82614be67c0" target="_top" xlink:title="pocketmine\\level\\Level\l\\updateAround">
<polygon fill="white" stroke="black" points="155,-0 155,-34 271,-34 271,-0 155,-0"/>
<text text-anchor="start" x="163" y="-21" font-family="Helvetica,sans-Serif" font-size="10.00">pocketmine\level\Level</text>
<text text-anchor="middle" x="213" y="-8" font-family="Helvetica,sans-Serif" font-size="10.00">\updateAround</text>
</a>
</g>
<!-- Node1&#45;&gt;Node10 -->
<g id="edge20" class="edge"><title>Node1&#45;&gt;Node10</title>
<path fill="none" stroke="midnightblue" d="M62.5752,-207.782C72.8159,-172.336 100.797,-90.5557 152,-43 153.133,-41.9473 154.316,-40.9334 155.539,-39.9573"/>
<polygon fill="midnightblue" stroke="midnightblue" points="157.867,-42.6039 164.118,-34.0495 153.897,-36.8388 157.867,-42.6039"/>
</g>
<!-- Node6&#45;&gt;Node2 -->
<g id="edge12" class="edge"><title>Node6&#45;&gt;Node2</title>
<path fill="none" stroke="midnightblue" d="M253.795,-242.097C260.565,-245.018 267.497,-248.059 274,-251 290.537,-258.478 308.547,-267.006 324.337,-274.611"/>
<polygon fill="midnightblue" stroke="midnightblue" points="322.823,-277.767 333.349,-278.968 325.869,-271.464 322.823,-277.767"/>
</g>
<!-- Node11 -->
<g id="node22" class="node"><title>Node11</title>
<a xlink:href="../../d3/d4b/classpocketmine_1_1level_1_1_level.html#ac20d8473b45c810cb8ecd57c2b938afe" target="_top" xlink:title="pocketmine\\level\\Level\l\\getBlock">
<polygon fill="white" stroke="black" points="310,-149 310,-183 426,-183 426,-149 310,-149"/>
<text text-anchor="start" x="318" y="-170" font-family="Helvetica,sans-Serif" font-size="10.00">pocketmine\level\Level</text>
<text text-anchor="middle" x="368" y="-157" font-family="Helvetica,sans-Serif" font-size="10.00">\getBlock</text>
</a>
</g>
<!-- Node10&#45;&gt;Node11 -->
<g id="edge22" class="edge"><title>Node10&#45;&gt;Node11</title>
<path fill="none" stroke="midnightblue" d="M260.044,-34.0544C264.968,-36.7029 269.728,-39.6801 274,-43 308.551,-69.8474 337.173,-112.293 353.434,-139.64"/>
<polygon fill="midnightblue" stroke="midnightblue" points="350.609,-141.745 358.66,-148.632 356.662,-138.228 350.609,-141.745"/>
</g>
<!-- Node11&#45;&gt;Node3 -->
<g id="edge26" class="edge"><title>Node11&#45;&gt;Node3</title>
<path fill="none" stroke="midnightblue" d="M387.017,-183.034C416.017,-209.009 471.394,-258.61 504.376,-288.153"/>
<polygon fill="midnightblue" stroke="midnightblue" points="502.068,-290.784 511.852,-294.849 506.738,-285.57 502.068,-290.784"/>
</g>
<!-- Node12 -->
<g id="node24" class="node"><title>Node12</title>
<a xlink:href="../../d7/d27/classpocketmine_1_1block_1_1_block.html#ad1a33ab24f0c7cd9d0de92c13a516a8b" target="_top" xlink:title="pocketmine\\block\\Block\\get">
<polygon fill="white" stroke="black" points="462.5,-155.5 462.5,-176.5 599.5,-176.5 599.5,-155.5 462.5,-155.5"/>
<text text-anchor="middle" x="531" y="-163.5" font-family="Helvetica,sans-Serif" font-size="10.00">pocketmine\block\Block\get</text>
</a>
</g>
<!-- Node11&#45;&gt;Node12 -->
<g id="edge24" class="edge"><title>Node11&#45;&gt;Node12</title>
<path fill="none" stroke="midnightblue" d="M426.386,-166C434.791,-166 443.552,-166 452.271,-166"/>
<polygon fill="midnightblue" stroke="midnightblue" points="452.464,-169.5 462.464,-166 452.464,-162.5 452.464,-169.5"/>
</g>
</g>
</svg>
        <g id="navigator" transform="translate(0 0)" fill="#404254">
                <rect fill="#f2f5e9" fill-opacity="0.5" stroke="#606060" stroke-width=".5" x="0" y="0" width="60" height="60"/>
                <use id="zoomplus" xlink:href="#zoomPlus" x="17" y="9" onmousedown="handleZoom(evt,'in')"/>
                <use id="zoomminus" xlink:href="#zoomMin" x="42" y="9" onmousedown="handleZoom(evt,'out')"/>
                <use id="reset" xlink:href="#resetDef" x="30" y="36" onmousedown="handleReset()"/>
                <g id="arrowUp" xlink:href="#dirArrow" transform="translate(30 24)" onmousedown="handlePan(0,-1)">
                  <use xlink:href="#rim" fill="#404040">
                        <set attributeName="fill" to="#808080" begin="arrowUp.mouseover" end="arrowUp.mouseout"/>
                  </use>
                  <path fill="none" stroke="white" stroke-width="1.5" d="M0,-3.0v7 M-2.5,-0.5L0,-3.0L2.5,-0.5"/>
                </g>
                <g id="arrowRight" xlink:href="#dirArrow" transform="rotate(90) translate(36 -43)" onmousedown="handlePan(1,0)">
                  <use xlink:href="#rim" fill="#404040">
                        <set attributeName="fill" to="#808080" begin="arrowRight.mouseover" end="arrowRight.mouseout"/>
                  </use>
                  <path fill="none" stroke="white" stroke-width="1.5" d="M0,-3.0v7 M-2.5,-0.5L0,-3.0L2.5,-0.5"/>
                </g>
                <g id="arrowDown" xlink:href="#dirArrow" transform="rotate(180) translate(-30 -48)" onmousedown="handlePan(0,1)">
                  <use xlink:href="#rim" fill="#404040">
                        <set attributeName="fill" to="#808080" begin="arrowDown.mouseover" end="arrowDown.mouseout"/>
                  </use>
                  <path fill="none" stroke="white" stroke-width="1.5" d="M0,-3.0v7 M-2.5,-0.5L0,-3.0L2.5,-0.5"/>
                </g>
                <g id="arrowLeft" xlink:href="#dirArrow" transform="rotate(270) translate(-36 17)" onmousedown="handlePan(-1,0)">
                  <use xlink:href="#rim" fill="#404040">
                        <set attributeName="fill" to="#808080" begin="arrowLeft.mouseover" end="arrowLeft.mouseout"/>
                  </use>
                  <path fill="none" stroke="white" stroke-width="1.5" d="M0,-3.0v7 M-2.5,-0.5L0,-3.0L2.5,-0.5"/>
                </g>
        </g>
        <svg viewBox="0 0 15 15" width="100%" height="30px" preserveAspectRatio="xMaxYMin meet">
         <g id="arrow_out" transform="scale(0.3 0.3)">
          <a xlink:href="classpocketmine_1_1level_1_1_level_a809bb258d797af4a4f9271addb4bfd4a_cgraph_org.svg" target="_base">
           <rect id="button" ry="5" rx="5" y="6" x="6" height="38" width="38"
                fill="#f2f5e9" fill-opacity="0.5" stroke="#606060" stroke-width="1.0"/>
           <path id="arrow"
             d="M 11.500037,31.436501 C 11.940474,20.09759 22.043105,11.32322 32.158766,21.979434 L 37.068811,17.246167 C 37.068811,17.246167 37.088388,32 37.088388,32 L 22.160133,31.978069 C 22.160133,31.978069 26.997745,27.140456 26.997745,27.140456 C 18.528582,18.264221 13.291696,25.230495 11.500037,31.436501 z"
             style="fill:#404040;"/>
          </a>
         </g>
        </svg>
</svg>
