<?xml version="1.0" encoding="UTF-8" standalone="no"?>
<!DOCTYPE svg PUBLIC "-//W3C//DTD SVG 1.1//EN"
 "http://www.w3.org/Graphics/SVG/1.1/DTD/svg11.dtd">
<!-- Generated by graphviz version 2.26.3 (20100126.1600)
 -->
<!-- Title: pocketmine\level\Level\getCollidingEntities Pages: 1 -->
<svg width="276pt" height="94pt"
 viewBox="0.00 0.00 276.00 94.00" xmlns="http://www.w3.org/2000/svg" xmlns:xlink="http://www.w3.org/1999/xlink">
<g id="graph1" class="graph" transform="scale(1 1) rotate(0) translate(4 90)">
<title>pocketmine\level\Level\getCollidingEntities</title>
<polygon fill="white" stroke="white" points="-4,5 -4,-90 273,-90 273,5 -4,5"/>
<!-- Node1 -->
<g id="node1" class="node"><title>Node1</title>
<polygon fill="#bfbfbf" stroke="black" points="0,-26 0,-60 116,-60 116,-26 0,-26"/>
<text text-anchor="start" x="8" y="-47" font-family="Helvetica,sans-Serif" font-size="10.00">pocketmine\level\Level</text>
<text text-anchor="middle" x="58" y="-34" font-family="Helvetica,sans-Serif" font-size="10.00">\getCollidingEntities</text>
</g>
<!-- Node2 -->
<g id="node3" class="node"><title>Node2</title>
<a xlink:href="../../d3/d4b/classpocketmine_1_1level_1_1_level.html#a54ad629d27b7091b1c830fe33c00ed15" target="_top" xlink:title="pocketmine\\level\\Level\l\\getCollisionCubes">
<polygon fill="white" stroke="black" points="152,-52 152,-86 268,-86 268,-52 152,-52"/>
<text text-anchor="start" x="160" y="-73" font-family="Helvetica,sans-Serif" font-size="10.00">pocketmine\level\Level</text>
<text text-anchor="middle" x="210" y="-60" font-family="Helvetica,sans-Serif" font-size="10.00">\getCollisionCubes</text>
</a>
</g>
<!-- Node1&#45;&gt;Node2 -->
<g id="edge2" class="edge"><title>Node1&#45;&gt;Node2</title>
<path fill="none" stroke="midnightblue" d="M126.264,-54.6767C134.798,-56.1365 143.463,-57.6187 151.824,-59.0488"/>
<polygon fill="midnightblue" stroke="midnightblue" points="126.779,-51.2141 116.332,-52.9779 125.599,-58.1139 126.779,-51.2141"/>
</g>
<!-- Node3 -->
<g id="node5" class="node"><title>Node3</title>
<a xlink:href="../../d3/d4b/classpocketmine_1_1level_1_1_level.html#a3346679b5fe84b0fb3ae4bc27d99e18f" target="_top" xlink:title="pocketmine\\level\\Level\l\\useItemOn">
<polygon fill="white" stroke="black" points="152,-0 152,-34 268,-34 268,-0 152,-0"/>
<text text-anchor="start" x="160" y="-21" font-family="Helvetica,sans-Serif" font-size="10.00">pocketmine\level\Level</text>
<text text-anchor="middle" x="210" y="-8" font-family="Helvetica,sans-Serif" font-size="10.00">\useItemOn</text>
</a>
</g>
<!-- Node1&#45;&gt;Node3 -->
<g id="edge4" class="edge"><title>Node1&#45;&gt;Node3</title>
<path fill="none" stroke="midnightblue" d="M126.264,-31.3233C134.798,-29.8635 143.463,-28.3813 151.824,-26.9512"/>
<polygon fill="midnightblue" stroke="midnightblue" points="125.599,-27.8861 116.332,-33.0221 126.779,-34.7859 125.599,-27.8861"/>
</g>
</g>
</svg>
