<?xml version="1.0" encoding="UTF-8" standalone="no"?>
<!DOCTYPE svg PUBLIC "-//W3C//DTD SVG 1.1//EN"
 "http://www.w3.org/Graphics/SVG/1.1/DTD/svg11.dtd">
<!-- Generated by graphviz version 2.26.3 (20100126.1600)
 -->
<!-- Title: pocketmine\level\Level\getBlock Pages: 1 -->
<svg width="580pt" height="340pt"
 viewBox="0.00 0.00 580.00 340.00" xmlns="http://www.w3.org/2000/svg" xmlns:xlink="http://www.w3.org/1999/xlink">
<g id="graph1" class="graph" transform="scale(1 1) rotate(0) translate(4 336)">
<title>pocketmine\level\Level\getBlock</title>
<polygon fill="white" stroke="white" points="-4,5 -4,-336 577,-336 577,5 -4,5"/>
<!-- Node1 -->
<g id="node1" class="node"><title>Node1</title>
<polygon fill="#bfbfbf" stroke="black" points="0,-142 0,-176 116,-176 116,-142 0,-142"/>
<text text-anchor="start" x="8" y="-163" font-family="Helvetica,sans-Serif" font-size="10.00">pocketmine\level\Level</text>
<text text-anchor="middle" x="58" y="-150" font-family="Helvetica,sans-Serif" font-size="10.00">\getBlock</text>
</g>
<!-- Node2 -->
<g id="node3" class="node"><title>Node2</title>
<a xlink:href="../../d3/d4b/classpocketmine_1_1level_1_1_level.html#ab2c4e6d8e0a05a5f42e83fe0e49ba0b4" target="_top" xlink:title="pocketmine\\level\\Level\l\\getCollisionBlocks">
<polygon fill="white" stroke="black" points="152,-298 152,-332 268,-332 268,-298 152,-298"/>
<text text-anchor="start" x="160" y="-319" font-family="Helvetica,sans-Serif" font-size="10.00">pocketmine\level\Level</text>
<text text-anchor="middle" x="210" y="-306" font-family="Helvetica,sans-Serif" font-size="10.00">\getCollisionBlocks</text>
</a>
</g>
<!-- Node1&#45;&gt;Node2 -->
<g id="edge2" class="edge"><title>Node1&#45;&gt;Node2</title>
<path fill="none" stroke="midnightblue" d="M71.5866,-185.443C87.501,-214.201 116.289,-259.939 152,-289 156.023,-292.274 160.523,-295.222 165.191,-297.853"/>
<polygon fill="midnightblue" stroke="midnightblue" points="74.5266,-183.521 66.6917,-176.389 68.3691,-186.851 74.5266,-183.521"/>
</g>
<!-- Node3 -->
<g id="node5" class="node"><title>Node3</title>
<a xlink:href="../../d3/d4b/classpocketmine_1_1level_1_1_level.html#a54ad629d27b7091b1c830fe33c00ed15" target="_top" xlink:title="pocketmine\\level\\Level\l\\getCollisionCubes">
<polygon fill="white" stroke="black" points="152,-246 152,-280 268,-280 268,-246 152,-246"/>
<text text-anchor="start" x="160" y="-267" font-family="Helvetica,sans-Serif" font-size="10.00">pocketmine\level\Level</text>
<text text-anchor="middle" x="210" y="-254" font-family="Helvetica,sans-Serif" font-size="10.00">\getCollisionCubes</text>
</a>
</g>
<!-- Node1&#45;&gt;Node3 -->
<g id="edge4" class="edge"><title>Node1&#45;&gt;Node3</title>
<path fill="none" stroke="midnightblue" d="M83.3756,-183.309C101.509,-199.838 127.024,-221.445 152,-237 157.058,-240.15 162.563,-243.128 168.101,-245.867"/>
<polygon fill="midnightblue" stroke="midnightblue" points="85.3104,-180.331 75.5919,-176.112 80.5581,-185.471 85.3104,-180.331"/>
</g>
<!-- Node4 -->
<g id="node7" class="node"><title>Node4</title>
<a xlink:href="../../d3/d4b/classpocketmine_1_1level_1_1_level.html#a3167219fc8feab0852933dd2c265f6d8" target="_top" xlink:title="pocketmine\\level\\Level\l\\getSafeSpawn">
<polygon fill="white" stroke="black" points="152,-194 152,-228 268,-228 268,-194 152,-194"/>
<text text-anchor="start" x="160" y="-215" font-family="Helvetica,sans-Serif" font-size="10.00">pocketmine\level\Level</text>
<text text-anchor="middle" x="210" y="-202" font-family="Helvetica,sans-Serif" font-size="10.00">\getSafeSpawn</text>
</a>
</g>
<!-- Node1&#45;&gt;Node4 -->
<g id="edge6" class="edge"><title>Node1&#45;&gt;Node4</title>
<path fill="none" stroke="midnightblue" d="M117.399,-179.321C131.528,-184.154 146.463,-189.264 160.118,-193.935"/>
<polygon fill="midnightblue" stroke="midnightblue" points="118.365,-175.952 107.77,-176.027 116.099,-182.575 118.365,-175.952"/>
</g>
<!-- Node5 -->
<g id="node9" class="node"><title>Node5</title>
<a xlink:href="../../d3/d4b/classpocketmine_1_1level_1_1_level.html#a69618f606777659e0c4dcbfc046c2eef" target="_top" xlink:title="pocketmine\\level\\Level\l\\isFullBlock">
<polygon fill="white" stroke="black" points="152,-142 152,-176 268,-176 268,-142 152,-142"/>
<text text-anchor="start" x="160" y="-163" font-family="Helvetica,sans-Serif" font-size="10.00">pocketmine\level\Level</text>
<text text-anchor="middle" x="210" y="-150" font-family="Helvetica,sans-Serif" font-size="10.00">\isFullBlock</text>
</a>
</g>
<!-- Node1&#45;&gt;Node5 -->
<g id="edge8" class="edge"><title>Node1&#45;&gt;Node5</title>
<path fill="none" stroke="midnightblue" d="M126.542,-159C134.986,-159 143.554,-159 151.824,-159"/>
<polygon fill="midnightblue" stroke="midnightblue" points="126.332,-155.5 116.332,-159 126.332,-162.5 126.332,-155.5"/>
</g>
<!-- Node6 -->
<g id="node11" class="node"><title>Node6</title>
<a xlink:href="../../d3/d4b/classpocketmine_1_1level_1_1_level.html#aae760e7c0fb170f97ef6b82614be67c0" target="_top" xlink:title="pocketmine\\level\\Level\l\\updateAround">
<polygon fill="white" stroke="black" points="152,-90 152,-124 268,-124 268,-90 152,-90"/>
<text text-anchor="start" x="160" y="-111" font-family="Helvetica,sans-Serif" font-size="10.00">pocketmine\level\Level</text>
<text text-anchor="middle" x="210" y="-98" font-family="Helvetica,sans-Serif" font-size="10.00">\updateAround</text>
</a>
</g>
<!-- Node1&#45;&gt;Node6 -->
<g id="edge10" class="edge"><title>Node1&#45;&gt;Node6</title>
<path fill="none" stroke="midnightblue" d="M117.399,-138.679C131.528,-133.846 146.463,-128.736 160.118,-124.065"/>
<polygon fill="midnightblue" stroke="midnightblue" points="116.099,-135.425 107.77,-141.973 118.365,-142.048 116.099,-135.425"/>
</g>
<!-- Node8 -->
<g id="node15" class="node"><title>Node8</title>
<a xlink:href="../../d3/d4b/classpocketmine_1_1level_1_1_level.html#a3346679b5fe84b0fb3ae4bc27d99e18f" target="_top" xlink:title="pocketmine\\level\\Level\l\\useItemOn">
<polygon fill="white" stroke="black" points="456,-67 456,-101 572,-101 572,-67 456,-67"/>
<text text-anchor="start" x="464" y="-88" font-family="Helvetica,sans-Serif" font-size="10.00">pocketmine\level\Level</text>
<text text-anchor="middle" x="514" y="-75" font-family="Helvetica,sans-Serif" font-size="10.00">\useItemOn</text>
</a>
</g>
<!-- Node1&#45;&gt;Node8 -->
<g id="edge18" class="edge"><title>Node1&#45;&gt;Node8</title>
<path fill="none" stroke="midnightblue" d="M78.6646,-134.375C96.0359,-115.729 122.678,-91.5814 152,-81 253.831,-44.2529 382.515,-58.3147 455.815,-71.4482"/>
<polygon fill="midnightblue" stroke="midnightblue" points="75.9085,-132.204 71.8065,-141.973 81.1049,-136.895 75.9085,-132.204"/>
</g>
<!-- Node9 -->
<g id="node17" class="node"><title>Node9</title>
<a xlink:href="../../d3/d4b/classpocketmine_1_1level_1_1_level.html#adbfdb8014d3364de28dd7909a7577d0d" target="_top" xlink:title="pocketmine\\level\\Level\l\\useBreakOn">
<polygon fill="white" stroke="black" points="152,-0 152,-34 268,-34 268,-0 152,-0"/>
<text text-anchor="start" x="160" y="-21" font-family="Helvetica,sans-Serif" font-size="10.00">pocketmine\level\Level</text>
<text text-anchor="middle" x="210" y="-8" font-family="Helvetica,sans-Serif" font-size="10.00">\useBreakOn</text>
</a>
</g>
<!-- Node1&#45;&gt;Node9 -->
<g id="edge16" class="edge"><title>Node1&#45;&gt;Node9</title>
<path fill="none" stroke="midnightblue" d="M75.2523,-133.512C92.5606,-109.313 121.034,-73.0155 152,-48 158.395,-42.8342 165.78,-38.122 173.094,-34.0169"/>
<polygon fill="midnightblue" stroke="midnightblue" points="72.2872,-131.644 69.3968,-141.837 78.0128,-135.671 72.2872,-131.644"/>
</g>
<!-- Node7 -->
<g id="node13" class="node"><title>Node7</title>
<a xlink:href="../../d3/d4b/classpocketmine_1_1level_1_1_level.html#a809bb258d797af4a4f9271addb4bfd4a" target="_top" xlink:title="pocketmine\\level\\Level\l\\setBlock">
<polygon fill="white" stroke="black" points="304,-90 304,-124 420,-124 420,-90 304,-90"/>
<text text-anchor="start" x="312" y="-111" font-family="Helvetica,sans-Serif" font-size="10.00">pocketmine\level\Level</text>
<text text-anchor="middle" x="362" y="-98" font-family="Helvetica,sans-Serif" font-size="10.00">\setBlock</text>
</a>
</g>
<!-- Node6&#45;&gt;Node7 -->
<g id="edge12" class="edge"><title>Node6&#45;&gt;Node7</title>
<path fill="none" stroke="midnightblue" d="M278.542,-107C286.986,-107 295.554,-107 303.824,-107"/>
<polygon fill="midnightblue" stroke="midnightblue" points="278.332,-103.5 268.332,-107 278.332,-110.5 278.332,-103.5"/>
</g>
<!-- Node7&#45;&gt;Node8 -->
<g id="edge14" class="edge"><title>Node7&#45;&gt;Node8</title>
<path fill="none" stroke="midnightblue" d="M430.264,-96.6706C438.798,-95.3793 447.463,-94.0681 455.824,-92.803"/>
<polygon fill="midnightblue" stroke="midnightblue" points="429.696,-93.2166 420.332,-98.1734 430.744,-100.138 429.696,-93.2166"/>
</g>
</g>
</svg>
