<?xml version="1.0" encoding="UTF-8" standalone="no"?>
<!DOCTYPE svg PUBLIC "-//W3C//DTD SVG 1.1//EN"
 "http://www.w3.org/Graphics/SVG/1.1/DTD/svg11.dtd">
<!-- Generated by graphviz version 2.26.3 (20100126.1600)
 -->
<!-- Title: G Pages: 1 -->
<svg width="496pt" height="70pt"
 viewBox="0.00 0.00 496.00 70.00" xmlns="http://www.w3.org/2000/svg" xmlns:xlink="http://www.w3.org/1999/xlink">
<g id="graph1" class="graph" transform="scale(1 1) rotate(0) translate(4 66)">
<title>G</title>
<polygon fill="white" stroke="white" points="-4,5 -4,-66 493,-66 493,5 -4,5"/>
<!-- Node1 -->
<g id="node1" class="node"><title>Node1</title>
<polygon fill="#bfbfbf" stroke="black" points="0.5,-20.5 0.5,-41.5 143.5,-41.5 143.5,-20.5 0.5,-20.5"/>
<text text-anchor="middle" x="72" y="-28.5" font-family="Helvetica,sans-Serif" font-size="10.00">pocketmine\level\Level\getID</text>
</g>
<!-- Node2 -->
<g id="node3" class="node"><title>Node2</title>
<a xlink:href="../../d4/dc0/classpocketmine_1_1level_1_1generator_1_1_generation_request_manager.html#a93f1fd613d45ccdfd5c0c2048e61d251" target="_top" xlink:title="pocketmine\\level\\generator\\GenerationRequestManager\\closeLevel">
<polygon fill="white" stroke="black" points="180,-40.5 180,-61.5 488,-61.5 488,-40.5 180,-40.5"/>
<text text-anchor="middle" x="334" y="-48.5" font-family="Helvetica,sans-Serif" font-size="10.00">pocketmine\level\generator\GenerationRequestManager\closeLevel</text>
</a>
</g>
<!-- Node1&#45;&gt;Node2 -->
<g id="edge2" class="edge"><title>Node1&#45;&gt;Node2</title>
<path fill="none" stroke="midnightblue" d="M153.794,-37.2438C167.36,-38.2794 181.75,-39.3779 196.25,-40.4848"/>
<polygon fill="midnightblue" stroke="midnightblue" points="153.83,-33.7365 143.593,-36.4651 153.297,-40.7162 153.83,-33.7365"/>
</g>
<!-- Node3 -->
<g id="node5" class="node"><title>Node3</title>
<a xlink:href="../../d4/dc0/classpocketmine_1_1level_1_1generator_1_1_generation_request_manager.html#aa0213bc69d54b594d7501b1de5137552" target="_top" xlink:title="pocketmine\\level\\generator\\GenerationRequestManager\\openLevel">
<polygon fill="white" stroke="black" points="181.5,-0.5 181.5,-21.5 486.5,-21.5 486.5,-0.5 181.5,-0.5"/>
<text text-anchor="middle" x="334" y="-8.5" font-family="Helvetica,sans-Serif" font-size="10.00">pocketmine\level\generator\GenerationRequestManager\openLevel</text>
</a>
</g>
<!-- Node1&#45;&gt;Node3 -->
<g id="edge4" class="edge"><title>Node1&#45;&gt;Node3</title>
<path fill="none" stroke="midnightblue" d="M153.794,-24.7562C167.36,-23.7206 181.75,-22.6221 196.25,-21.5152"/>
<polygon fill="midnightblue" stroke="midnightblue" points="153.297,-21.2838 143.593,-25.5349 153.83,-28.2635 153.297,-21.2838"/>
</g>
</g>
</svg>
