<?xml version="1.0" encoding="UTF-8" standalone="no"?>
<!DOCTYPE svg PUBLIC "-//W3C//DTD SVG 1.1//EN"
 "http://www.w3.org/Graphics/SVG/1.1/DTD/svg11.dtd">
<!-- Generated by graphviz version 2.26.3 (20100126.1600)
 -->
<!-- Title: pocketmine\level\Level\getSeed Pages: 1 -->
<svg width="302pt" height="56pt"
 viewBox="0.00 0.00 302.00 56.00" xmlns="http://www.w3.org/2000/svg" xmlns:xlink="http://www.w3.org/1999/xlink">
<g id="graph1" class="graph" transform="scale(1 1) rotate(0) translate(4 52)">
<title>pocketmine\level\Level\getSeed</title>
<polygon fill="white" stroke="white" points="-4,5 -4,-52 299,-52 299,5 -4,5"/>
<!-- Node1 -->
<g id="node1" class="node"><title>Node1</title>
<polygon fill="#bfbfbf" stroke="black" points="0,-7 0,-41 116,-41 116,-7 0,-7"/>
<text text-anchor="start" x="8" y="-28" font-family="Helvetica,sans-Serif" font-size="10.00">pocketmine\level\Level</text>
<text text-anchor="middle" x="58" y="-15" font-family="Helvetica,sans-Serif" font-size="10.00">\getSeed</text>
</g>
<!-- Node2 -->
<g id="node3" class="node"><title>Node2</title>
<a xlink:href="../../d4/dc0/classpocketmine_1_1level_1_1generator_1_1_generation_request_manager.html#aa0213bc69d54b594d7501b1de5137552" target="_top" xlink:title="pocketmine\\level\\generator\l\\GenerationRequestManager\l\\openLevel">
<polygon fill="white" stroke="black" points="152.5,-0.5 152.5,-47.5 293.5,-47.5 293.5,-0.5 152.5,-0.5"/>
<text text-anchor="start" x="160.5" y="-34.5" font-family="Helvetica,sans-Serif" font-size="10.00">pocketmine\level\generator</text>
<text text-anchor="start" x="160.5" y="-21.5" font-family="Helvetica,sans-Serif" font-size="10.00">\GenerationRequestManager</text>
<text text-anchor="middle" x="223" y="-8.5" font-family="Helvetica,sans-Serif" font-size="10.00">\openLevel</text>
</a>
</g>
<!-- Node1&#45;&gt;Node2 -->
<g id="edge2" class="edge"><title>Node1&#45;&gt;Node2</title>
<path fill="none" stroke="midnightblue" d="M126.183,-24C134.815,-24 143.662,-24 152.331,-24"/>
<polygon fill="midnightblue" stroke="midnightblue" points="126.173,-20.5001 116.173,-24 126.173,-27.5001 126.173,-20.5001"/>
</g>
</g>
</svg>
