<?xml version="1.0" encoding="UTF-8" standalone="no"?>
<!DOCTYPE svg PUBLIC "-//W3C//DTD SVG 1.1//EN"
 "http://www.w3.org/Graphics/SVG/1.1/DTD/svg11.dtd">
<!-- Generated by graphviz version 2.36.0 (20140111.2315)
 -->
<!-- Title: pocketmine\level\Level\getBlockIdAt Pages: 1 -->
<svg width="620pt" height="60pt"
 viewBox="0.00 0.00 620.00 60.00" xmlns="http://www.w3.org/2000/svg" xmlns:xlink="http://www.w3.org/1999/xlink">
<g id="graph0" class="graph" transform="scale(1 1) rotate(0) translate(4 56)">
<title>pocketmine\level\Level\getBlockIdAt</title>
<polygon fill="white" stroke="none" points="-4,4 -4,-56 616,-56 616,4 -4,4"/>
<!-- Node1 -->
<g id="node1" class="node"><title>Node1</title>
<polygon fill="#bfbfbf" stroke="black" points="0.5,-22 0.5,-52 125.5,-52 125.5,-22 0.5,-22"/>
<text text-anchor="start" x="8.5" y="-40" font-family="Helvetica,sans-Serif" font-size="10.00">pocketmine\level\Level</text>
<text text-anchor="middle" x="63" y="-29" font-family="Helvetica,sans-Serif" font-size="10.00">\getBlockIdAt</text>
</g>
<!-- Node2 -->
<g id="node2" class="node"><title>Node2</title>
<g id="a_node2"><a xlink:href="../../d3/d4b/classpocketmine_1_1level_1_1_level.html#ab5808e52f13dfe100b837c94216af011" target="_top" xlink:title="pocketmine\\level\\Level\l\\getChunk">
<polygon fill="white" stroke="black" points="162.5,-22 162.5,-52 287.5,-52 287.5,-22 162.5,-22"/>
<text text-anchor="start" x="170.5" y="-40" font-family="Helvetica,sans-Serif" font-size="10.00">pocketmine\level\Level</text>
<text text-anchor="middle" x="225" y="-29" font-family="Helvetica,sans-Serif" font-size="10.00">\getChunk</text>
</a>
</g>
</g>
<!-- Node1&#45;&gt;Node2 -->
<g id="edge1" class="edge"><title>Node1&#45;&gt;Node2</title>
<path fill="none" stroke="midnightblue" d="M125.86,-37C134.456,-37 143.347,-37 152.107,-37"/>
<polygon fill="midnightblue" stroke="midnightblue" points="152.304,-40.5001 162.304,-37 152.304,-33.5001 152.304,-40.5001"/>
</g>
<!-- Node3 -->
<g id="node3" class="node"><title>Node3</title>
<g id="a_node3"><a xlink:href="../../d3/d4b/classpocketmine_1_1level_1_1_level.html#a4be83538c608928a193884ea26010d96" target="_top" xlink:title="pocketmine\\level\\Level\l\\chunkHash">
<polygon fill="white" stroke="black" points="486.5,-22 486.5,-52 611.5,-52 611.5,-22 486.5,-22"/>
<text text-anchor="start" x="494.5" y="-40" font-family="Helvetica,sans-Serif" font-size="10.00">pocketmine\level\Level</text>
<text text-anchor="middle" x="549" y="-29" font-family="Helvetica,sans-Serif" font-size="10.00">\chunkHash</text>
</a>
</g>
</g>
<!-- Node2&#45;&gt;Node3 -->
<g id="edge2" class="edge"><title>Node2&#45;&gt;Node3</title>
<path fill="none" stroke="midnightblue" d="M287.684,-38.4507C299.727,-38.6797 312.259,-38.8802 324,-39 379.997,-39.5713 394.003,-39.5713 450,-39 458.439,-38.9139 467.286,-38.7861 476.067,-38.636"/>
<polygon fill="midnightblue" stroke="midnightblue" points="476.38,-42.131 486.316,-38.4507 476.254,-35.1321 476.38,-42.131"/>
</g>
<!-- Node4 -->
<g id="node4" class="node"><title>Node4</title>
<g id="a_node4"><a xlink:href="../../d3/d4b/classpocketmine_1_1level_1_1_level.html#a14d16fe7983d9afe9ea3daf4e5a1b9f5" target="_top" xlink:title="pocketmine\\level\\Level\l\\loadChunk">
<polygon fill="white" stroke="black" points="324.5,-0 324.5,-30 449.5,-30 449.5,-0 324.5,-0"/>
<text text-anchor="start" x="332.5" y="-18" font-family="Helvetica,sans-Serif" font-size="10.00">pocketmine\level\Level</text>
<text text-anchor="middle" x="387" y="-7" font-family="Helvetica,sans-Serif" font-size="10.00">\loadChunk</text>
</a>
</g>
</g>
<!-- Node2&#45;&gt;Node4 -->
<g id="edge3" class="edge"><title>Node2&#45;&gt;Node4</title>
<path fill="none" stroke="midnightblue" d="M287.86,-28.4942C296.549,-27.2994 305.54,-26.0632 314.392,-24.8461"/>
<polygon fill="midnightblue" stroke="midnightblue" points="314.874,-28.3128 324.304,-23.4832 313.921,-21.378 314.874,-28.3128"/>
</g>
<!-- Node4&#45;&gt;Node3 -->
<g id="edge4" class="edge"><title>Node4&#45;&gt;Node3</title>
<path fill="none" stroke="midnightblue" d="M449.86,-23.5058C458.549,-24.7006 467.54,-25.9368 476.392,-27.1539"/>
<polygon fill="midnightblue" stroke="midnightblue" points="475.921,-30.622 486.304,-28.5168 476.874,-23.6872 475.921,-30.622"/>
</g>
</g>
</svg>
