<?xml version="1.0" encoding="UTF-8" standalone="no"?>
<!DOCTYPE svg PUBLIC "-//W3C//DTD SVG 1.1//EN"
 "http://www.w3.org/Graphics/SVG/1.1/DTD/svg11.dtd">
<!-- Generated by graphviz version 2.26.3 (20100126.1600)
 -->
<!-- Title: pocketmine\level\Level\checkTime Pages: 1 -->
<svg width="580pt" height="119pt"
 viewBox="0.00 0.00 580.00 119.00" xmlns="http://www.w3.org/2000/svg" xmlns:xlink="http://www.w3.org/1999/xlink">
<g id="graph1" class="graph" transform="scale(1 1) rotate(0) translate(4 115)">
<title>pocketmine\level\Level\checkTime</title>
<polygon fill="white" stroke="white" points="-4,5 -4,-115 577,-115 577,5 -4,5"/>
<!-- Node1 -->
<g id="node1" class="node"><title>Node1</title>
<polygon fill="#bfbfbf" stroke="black" points="0,-54 0,-88 116,-88 116,-54 0,-54"/>
<text text-anchor="start" x="8" y="-75" font-family="Helvetica,sans-Serif" font-size="10.00">pocketmine\level\Level</text>
<text text-anchor="middle" x="58" y="-62" font-family="Helvetica,sans-Serif" font-size="10.00">\checkTime</text>
</g>
<!-- Node2 -->
<g id="node3" class="node"><title>Node2</title>
<a xlink:href="../../d3/d4b/classpocketmine_1_1level_1_1_level.html#ac2855c606dec3107ace36c3bd073b953" target="_top" xlink:title="pocketmine\\level\\Level\l\\setTime">
<polygon fill="white" stroke="black" points="456,-77 456,-111 572,-111 572,-77 456,-77"/>
<text text-anchor="start" x="464" y="-98" font-family="Helvetica,sans-Serif" font-size="10.00">pocketmine\level\Level</text>
<text text-anchor="middle" x="514" y="-85" font-family="Helvetica,sans-Serif" font-size="10.00">\setTime</text>
</a>
</g>
<!-- Node1&#45;&gt;Node2 -->
<g id="edge2" class="edge"><title>Node1&#45;&gt;Node2</title>
<path fill="none" stroke="midnightblue" d="M125.836,-89.467C134.585,-91.2964 143.467,-92.8857 152,-94 258.408,-107.895 383.916,-103.254 455.705,-98.6227"/>
<polygon fill="midnightblue" stroke="midnightblue" points="126.558,-86.0423 116.039,-87.3119 125.054,-92.8788 126.558,-86.0423"/>
</g>
<!-- Node3 -->
<g id="node5" class="node"><title>Node3</title>
<a xlink:href="../../d3/d4b/classpocketmine_1_1level_1_1_level.html#ad56d6a8573f596fddea712bdb171f866" target="_top" xlink:title="pocketmine\\level\\Level\l\\startTime">
<polygon fill="white" stroke="black" points="304,-54 304,-88 420,-88 420,-54 304,-54"/>
<text text-anchor="start" x="312" y="-75" font-family="Helvetica,sans-Serif" font-size="10.00">pocketmine\level\Level</text>
<text text-anchor="middle" x="362" y="-62" font-family="Helvetica,sans-Serif" font-size="10.00">\startTime</text>
</a>
</g>
<!-- Node1&#45;&gt;Node3 -->
<g id="edge4" class="edge"><title>Node1&#45;&gt;Node3</title>
<path fill="none" stroke="midnightblue" d="M126.329,-65.2566C179.789,-63.82 253.306,-63.9211 303.943,-65.5599"/>
<polygon fill="midnightblue" stroke="midnightblue" points="126.147,-61.7604 116.255,-65.5536 126.353,-68.7573 126.147,-61.7604"/>
</g>
<!-- Node4 -->
<g id="node9" class="node"><title>Node4</title>
<a xlink:href="../../d3/d4b/classpocketmine_1_1level_1_1_level.html#a44ce0ab1d94a790f2f3a02c7ff70ca83" target="_top" xlink:title="pocketmine\\level\\Level\l\\stopTime">
<polygon fill="white" stroke="black" points="152,-0 152,-34 268,-34 268,-0 152,-0"/>
<text text-anchor="start" x="160" y="-21" font-family="Helvetica,sans-Serif" font-size="10.00">pocketmine\level\Level</text>
<text text-anchor="middle" x="210" y="-8" font-family="Helvetica,sans-Serif" font-size="10.00">\stopTime</text>
</a>
</g>
<!-- Node1&#45;&gt;Node4 -->
<g id="edge10" class="edge"><title>Node1&#45;&gt;Node4</title>
<path fill="none" stroke="midnightblue" d="M99.8461,-50.0301C115.868,-43.6889 134.446,-36.9286 151.729,-31.1176"/>
<polygon fill="midnightblue" stroke="midnightblue" points="98.1967,-46.9215 90.2353,-53.912 100.818,-53.4121 98.1967,-46.9215"/>
</g>
<!-- Node3&#45;&gt;Node1 -->
<g id="edge6" class="edge"><title>Node3&#45;&gt;Node1</title>
<path fill="none" stroke="midnightblue" d="M293.879,-76.7378C240.471,-78.1784 166.95,-78.0813 116.255,-76.4464"/>
<polygon fill="midnightblue" stroke="midnightblue" points="294.05,-80.2343 303.943,-76.4401 293.843,-73.2374 294.05,-80.2343"/>
</g>
<!-- Node3&#45;&gt;Node2 -->
<g id="edge8" class="edge"><title>Node3&#45;&gt;Node2</title>
<path fill="none" stroke="midnightblue" d="M430.264,-81.3294C438.798,-82.6207 447.463,-83.9319 455.824,-85.197"/>
<polygon fill="midnightblue" stroke="midnightblue" points="430.744,-77.8622 420.332,-79.8266 429.696,-84.7834 430.744,-77.8622"/>
</g>
<!-- Node4&#45;&gt;Node1 -->
<g id="edge12" class="edge"><title>Node4&#45;&gt;Node1</title>
<path fill="none" stroke="midnightblue" d="M168.341,-37.8959C152.296,-44.251 133.665,-51.0329 116.332,-56.8618"/>
<polygon fill="midnightblue" stroke="midnightblue" points="170.003,-40.9993 177.962,-34.0065 167.379,-34.5095 170.003,-40.9993"/>
</g>
<!-- Node4&#45;&gt;Node3 -->
<g id="edge14" class="edge"><title>Node4&#45;&gt;Node3</title>
<path fill="none" stroke="midnightblue" d="M267.908,-37.5726C283.109,-42.9731 299.336,-48.7378 313.958,-53.9326"/>
<polygon fill="midnightblue" stroke="midnightblue" points="268.688,-34.1356 258.094,-34.0859 266.345,-40.7317 268.688,-34.1356"/>
</g>
</g>
</svg>
