<?xml version="1.0" encoding="UTF-8" standalone="no"?>
<!DOCTYPE svg PUBLIC "-//W3C//DTD SVG 1.1//EN"
 "http://www.w3.org/Graphics/SVG/1.1/DTD/svg11.dtd">
<!-- Generated by graphviz version 2.26.3 (20100126.1600)
 -->
<!-- Title: pocketmine\level\Level\getCollisionCubes Pages: 1 -->
<svg width="602pt" height="172pt"
 viewBox="0.00 0.00 602.00 172.00" xmlns="http://www.w3.org/2000/svg" xmlns:xlink="http://www.w3.org/1999/xlink">
<g id="graph1" class="graph" transform="scale(1 1) rotate(0) translate(4 168)">
<title>pocketmine\level\Level\getCollisionCubes</title>
<polygon fill="white" stroke="white" points="-4,5 -4,-168 599,-168 599,5 -4,5"/>
<!-- Node1 -->
<g id="node1" class="node"><title>Node1</title>
<polygon fill="#bfbfbf" stroke="black" points="0,-45 0,-79 116,-79 116,-45 0,-45"/>
<text text-anchor="start" x="8" y="-66" font-family="Helvetica,sans-Serif" font-size="10.00">pocketmine\level\Level</text>
<text text-anchor="middle" x="58" y="-53" font-family="Helvetica,sans-Serif" font-size="10.00">\getCollisionCubes</text>
</g>
<!-- Node2 -->
<g id="node3" class="node"><title>Node2</title>
<a xlink:href="../../d3/d4b/classpocketmine_1_1level_1_1_level.html#ac20d8473b45c810cb8ecd57c2b938afe" target="_top" xlink:title="pocketmine\\level\\Level\l\\getBlock">
<polygon fill="white" stroke="black" points="152,-97 152,-131 268,-131 268,-97 152,-97"/>
<text text-anchor="start" x="160" y="-118" font-family="Helvetica,sans-Serif" font-size="10.00">pocketmine\level\Level</text>
<text text-anchor="middle" x="210" y="-105" font-family="Helvetica,sans-Serif" font-size="10.00">\getBlock</text>
</a>
</g>
<!-- Node1&#45;&gt;Node2 -->
<g id="edge2" class="edge"><title>Node1&#45;&gt;Node2</title>
<path fill="none" stroke="midnightblue" d="M107.77,-79.0267C121.418,-83.6956 136.351,-88.8044 150.486,-93.6399"/>
<polygon fill="midnightblue" stroke="midnightblue" points="149.523,-97.0096 160.118,-96.935 151.789,-90.3865 149.523,-97.0096"/>
</g>
<!-- Node5 -->
<g id="node9" class="node"><title>Node5</title>
<a xlink:href="../../d3/d4b/classpocketmine_1_1level_1_1_level.html#a55b9ba03563413447dbc7ce5962e33fd" target="_top" xlink:title="pocketmine\\level\\Level\l\\getCollidingEntities">
<polygon fill="white" stroke="black" points="152,-45 152,-79 268,-79 268,-45 152,-45"/>
<text text-anchor="start" x="160" y="-66" font-family="Helvetica,sans-Serif" font-size="10.00">pocketmine\level\Level</text>
<text text-anchor="middle" x="210" y="-53" font-family="Helvetica,sans-Serif" font-size="10.00">\getCollidingEntities</text>
</a>
</g>
<!-- Node1&#45;&gt;Node5 -->
<g id="edge8" class="edge"><title>Node1&#45;&gt;Node5</title>
<path fill="none" stroke="midnightblue" d="M116.332,-62C124.606,-62 133.175,-62 141.617,-62"/>
<polygon fill="midnightblue" stroke="midnightblue" points="141.824,-65.5001 151.824,-62 141.824,-58.5001 141.824,-65.5001"/>
</g>
<!-- Node7 -->
<g id="node14" class="node"><title>Node7</title>
<a xlink:href="../../d3/d4b/classpocketmine_1_1level_1_1_level.html#ad7b3b356b1f5bbc2f1ba6b13127d9a7c" target="_top" xlink:title="pocketmine\\level\\Level\l\\isChunkLoaded">
<polygon fill="white" stroke="black" points="315,-0 315,-34 431,-34 431,-0 315,-0"/>
<text text-anchor="start" x="323" y="-21" font-family="Helvetica,sans-Serif" font-size="10.00">pocketmine\level\Level</text>
<text text-anchor="middle" x="373" y="-8" font-family="Helvetica,sans-Serif" font-size="10.00">\isChunkLoaded</text>
</a>
</g>
<!-- Node1&#45;&gt;Node7 -->
<g id="edge16" class="edge"><title>Node1&#45;&gt;Node7</title>
<path fill="none" stroke="midnightblue" d="M113.28,-44.8897C125.904,-41.4922 139.334,-38.276 152,-36 202.811,-26.8691 261.01,-22.091 304.925,-19.6108"/>
<polygon fill="midnightblue" stroke="midnightblue" points="305.12,-23.1054 314.917,-19.072 304.743,-16.1156 305.12,-23.1054"/>
</g>
<!-- Node3 -->
<g id="node5" class="node"><title>Node3</title>
<a xlink:href="../../d7/d27/classpocketmine_1_1block_1_1_block.html#ad1a33ab24f0c7cd9d0de92c13a516a8b" target="_top" xlink:title="pocketmine\\block\\Block\\get">
<polygon fill="white" stroke="black" points="304.5,-142.5 304.5,-163.5 441.5,-163.5 441.5,-142.5 304.5,-142.5"/>
<text text-anchor="middle" x="373" y="-150.5" font-family="Helvetica,sans-Serif" font-size="10.00">pocketmine\block\Block\get</text>
</a>
</g>
<!-- Node2&#45;&gt;Node3 -->
<g id="edge4" class="edge"><title>Node2&#45;&gt;Node3</title>
<path fill="none" stroke="midnightblue" d="M268.386,-127.97C284.953,-131.934 302.91,-136.23 319.192,-140.126"/>
<polygon fill="midnightblue" stroke="midnightblue" points="318.547,-143.57 329.087,-142.493 320.176,-136.762 318.547,-143.57"/>
</g>
<!-- Node4 -->
<g id="node7" class="node"><title>Node4</title>
<a xlink:href="../../d3/d4b/classpocketmine_1_1level_1_1_level.html#a07cfdb965d8af5b865c2f468d3dc9f2e" target="_top" xlink:title="pocketmine\\level\\Level\l\\getChunkAt">
<polygon fill="white" stroke="black" points="478,-74 478,-108 594,-108 594,-74 478,-74"/>
<text text-anchor="start" x="486" y="-95" font-family="Helvetica,sans-Serif" font-size="10.00">pocketmine\level\Level</text>
<text text-anchor="middle" x="536" y="-82" font-family="Helvetica,sans-Serif" font-size="10.00">\getChunkAt</text>
</a>
</g>
<!-- Node2&#45;&gt;Node4 -->
<g id="edge6" class="edge"><title>Node2&#45;&gt;Node4</title>
<path fill="none" stroke="midnightblue" d="M268.282,-109.888C324.289,-105.937 408.899,-99.9672 467.964,-95.8001"/>
<polygon fill="midnightblue" stroke="midnightblue" points="468.219,-99.2909 477.948,-95.0957 467.727,-92.3082 468.219,-99.2909"/>
</g>
<!-- Node6 -->
<g id="node11" class="node"><title>Node6</title>
<a xlink:href="../../d3/d4b/classpocketmine_1_1level_1_1_level.html#ad928c92eafa0c724bd3aebea4e1123e3" target="_top" xlink:title="pocketmine\\level\\Level\l\\getChunkEntities">
<polygon fill="white" stroke="black" points="315,-52 315,-86 431,-86 431,-52 315,-52"/>
<text text-anchor="start" x="323" y="-73" font-family="Helvetica,sans-Serif" font-size="10.00">pocketmine\level\Level</text>
<text text-anchor="middle" x="373" y="-60" font-family="Helvetica,sans-Serif" font-size="10.00">\getChunkEntities</text>
</a>
</g>
<!-- Node5&#45;&gt;Node6 -->
<g id="edge10" class="edge"><title>Node5&#45;&gt;Node6</title>
<path fill="none" stroke="midnightblue" d="M268.386,-64.5074C280.162,-65.0131 292.639,-65.5489 304.719,-66.0677"/>
<polygon fill="midnightblue" stroke="midnightblue" points="304.607,-69.566 314.748,-66.4984 304.907,-62.5724 304.607,-69.566"/>
</g>
<!-- Node5&#45;&gt;Node7 -->
<g id="edge14" class="edge"><title>Node5&#45;&gt;Node7</title>
<path fill="none" stroke="midnightblue" d="M268.386,-45.8811C280.28,-42.5976 292.889,-39.1166 305.081,-35.7507"/>
<polygon fill="midnightblue" stroke="midnightblue" points="306.04,-39.117 314.748,-33.082 304.177,-32.3694 306.04,-39.117"/>
</g>
<!-- Node6&#45;&gt;Node4 -->
<g id="edge12" class="edge"><title>Node6&#45;&gt;Node4</title>
<path fill="none" stroke="midnightblue" d="M431.386,-76.8804C443.162,-78.4697 455.639,-80.1538 467.719,-81.7841"/>
<polygon fill="midnightblue" stroke="midnightblue" points="467.369,-85.2686 477.748,-83.1377 468.306,-78.3315 467.369,-85.2686"/>
</g>
</g>
</svg>
