<?xml version="1.0" encoding="UTF-8" standalone="no"?>
<!DOCTYPE svg PUBLIC "-//W3C//DTD SVG 1.1//EN"
 "http://www.w3.org/Graphics/SVG/1.1/DTD/svg11.dtd">
<!-- Generated by graphviz version 2.36.0 (20140111.2315)
 -->
<!-- Title: pocketmine\level\Level\loadChunk Pages: 1 -->
<svg width="944pt" height="1252pt"
 viewBox="0.00 0.00 944.00 1252.46" xmlns="http://www.w3.org/2000/svg" xmlns:xlink="http://www.w3.org/1999/xlink">
<g id="graph0" class="graph" transform="scale(1 1) rotate(0) translate(4 1248.46)">
<title>pocketmine\level\Level\loadChunk</title>
<polygon fill="white" stroke="none" points="-4,4 -4,-1248.46 940,-1248.46 940,4 -4,4"/>
<!-- Node1 -->
<g id="node1" class="node"><title>Node1</title>
<polygon fill="#bfbfbf" stroke="black" points="0.5,-577 0.5,-607 125.5,-607 125.5,-577 0.5,-577"/>
<text text-anchor="start" x="8.5" y="-595" font-family="Helvetica,sans-Serif" font-size="10.00">pocketmine\level\Level</text>
<text text-anchor="middle" x="63" y="-584" font-family="Helvetica,sans-Serif" font-size="10.00">\loadChunk</text>
</g>
<!-- Node2 -->
<g id="node2" class="node"><title>Node2</title>
<g id="a_node2"><a xlink:href="../../d3/d4b/classpocketmine_1_1level_1_1_level.html#ab5808e52f13dfe100b837c94216af011" target="_top" xlink:title="pocketmine\\level\\Level\l\\getChunk">
<polygon fill="white" stroke="black" points="162.5,-602 162.5,-632 287.5,-632 287.5,-602 162.5,-602"/>
<text text-anchor="start" x="170.5" y="-620" font-family="Helvetica,sans-Serif" font-size="10.00">pocketmine\level\Level</text>
<text text-anchor="middle" x="225" y="-609" font-family="Helvetica,sans-Serif" font-size="10.00">\getChunk</text>
</a>
</g>
</g>
<!-- Node1&#45;&gt;Node2 -->
<g id="edge1" class="edge"><title>Node1&#45;&gt;Node2</title>
<path fill="none" stroke="midnightblue" d="M135.775,-603.215C144.629,-604.598 153.619,-606.003 162.304,-607.36"/>
<polygon fill="midnightblue" stroke="midnightblue" points="136.281,-599.751 125.86,-601.666 135.2,-606.668 136.281,-599.751"/>
</g>
<!-- Node33 -->
<g id="node33" class="node"><title>Node33</title>
<g id="a_node33"><a xlink:href="../../d3/d4b/classpocketmine_1_1level_1_1_level.html#aa25904089127cf0ff7e17e5afd481bcf" target="_top" xlink:title="pocketmine\\level\\Level\l\\useChunk">
<polygon fill="white" stroke="black" points="162.5,-553 162.5,-583 287.5,-583 287.5,-553 162.5,-553"/>
<text text-anchor="start" x="170.5" y="-571" font-family="Helvetica,sans-Serif" font-size="10.00">pocketmine\level\Level</text>
<text text-anchor="middle" x="225" y="-560" font-family="Helvetica,sans-Serif" font-size="10.00">\useChunk</text>
</a>
</g>
</g>
<!-- Node1&#45;&gt;Node33 -->
<g id="edge36" class="edge"><title>Node1&#45;&gt;Node33</title>
<path fill="none" stroke="midnightblue" d="M135.775,-581.234C144.629,-579.906 153.619,-578.557 162.304,-577.254"/>
<polygon fill="midnightblue" stroke="midnightblue" points="135.23,-577.776 125.86,-582.721 136.269,-584.699 135.23,-577.776"/>
</g>
<!-- Node3 -->
<g id="node3" class="node"><title>Node3</title>
<g id="a_node3"><a xlink:href="../../d3/d4b/classpocketmine_1_1level_1_1_level.html#a2458f2dce4333ad4338ddde249a6c368" target="_top" xlink:title="pocketmine\\level\\Level\l\\dropItem">
<polygon fill="white" stroke="black" points="324.5,-774 324.5,-804 449.5,-804 449.5,-774 324.5,-774"/>
<text text-anchor="start" x="332.5" y="-792" font-family="Helvetica,sans-Serif" font-size="10.00">pocketmine\level\Level</text>
<text text-anchor="middle" x="387" y="-781" font-family="Helvetica,sans-Serif" font-size="10.00">\dropItem</text>
</a>
</g>
</g>
<!-- Node2&#45;&gt;Node3 -->
<g id="edge2" class="edge"><title>Node2&#45;&gt;Node3</title>
<path fill="none" stroke="midnightblue" d="M236.51,-641.215C251.575,-673.346 282.172,-729.965 324,-764 328.681,-767.809 334.019,-771.102 339.553,-773.932"/>
<polygon fill="midnightblue" stroke="midnightblue" points="239.677,-639.724 232.339,-632.082 233.31,-642.632 239.677,-639.724"/>
</g>
<!-- Node5 -->
<g id="node5" class="node"><title>Node5</title>
<g id="a_node5"><a xlink:href="../../d3/d4b/classpocketmine_1_1level_1_1_level.html#acce3596e2a0c27e46a8905edd9763378" target="_top" xlink:title="pocketmine\\level\\Level\l\\getBiomeColor">
<polygon fill="white" stroke="black" points="324.5,-1166 324.5,-1196 449.5,-1196 449.5,-1166 324.5,-1166"/>
<text text-anchor="start" x="332.5" y="-1184" font-family="Helvetica,sans-Serif" font-size="10.00">pocketmine\level\Level</text>
<text text-anchor="middle" x="387" y="-1173" font-family="Helvetica,sans-Serif" font-size="10.00">\getBiomeColor</text>
</a>
</g>
</g>
<!-- Node2&#45;&gt;Node5 -->
<g id="edge4" class="edge"><title>Node2&#45;&gt;Node5</title>
<path fill="none" stroke="midnightblue" d="M227.421,-642.364C233.248,-737.973 258.193,-1075.23 324,-1156 327.152,-1159.87 330.995,-1163.14 335.207,-1165.91"/>
<polygon fill="midnightblue" stroke="midnightblue" points="230.903,-641.95 226.818,-632.175 223.915,-642.364 230.903,-641.95"/>
</g>
<!-- Node6 -->
<g id="node6" class="node"><title>Node6</title>
<g id="a_node6"><a xlink:href="../../d3/d4b/classpocketmine_1_1level_1_1_level.html#a9fa00135de00a7fdfb2a0b2383823cf3" target="_top" xlink:title="pocketmine\\level\\Level\l\\getBiomeId">
<polygon fill="white" stroke="black" points="324.5,-1117 324.5,-1147 449.5,-1147 449.5,-1117 324.5,-1117"/>
<text text-anchor="start" x="332.5" y="-1135" font-family="Helvetica,sans-Serif" font-size="10.00">pocketmine\level\Level</text>
<text text-anchor="middle" x="387" y="-1124" font-family="Helvetica,sans-Serif" font-size="10.00">\getBiomeId</text>
</a>
</g>
</g>
<!-- Node2&#45;&gt;Node6 -->
<g id="edge5" class="edge"><title>Node2&#45;&gt;Node6</title>
<path fill="none" stroke="midnightblue" d="M227.903,-642.072C235.161,-731.651 263.787,-1034.41 324,-1107 327.186,-1110.84 331.051,-1114.1 335.277,-1116.86"/>
<polygon fill="midnightblue" stroke="midnightblue" points="231.384,-641.7 227.105,-632.008 224.406,-642.253 231.384,-641.7"/>
</g>
<!-- Node7 -->
<g id="node7" class="node"><title>Node7</title>
<g id="a_node7"><a xlink:href="../../d3/d4b/classpocketmine_1_1level_1_1_level.html#a525b470d3f40ffdeba60b46cb265e7b5" target="_top" xlink:title="pocketmine\\level\\Level\l\\getBlockDataAt">
<polygon fill="white" stroke="black" points="324.5,-1068 324.5,-1098 449.5,-1098 449.5,-1068 324.5,-1068"/>
<text text-anchor="start" x="332.5" y="-1086" font-family="Helvetica,sans-Serif" font-size="10.00">pocketmine\level\Level</text>
<text text-anchor="middle" x="387" y="-1075" font-family="Helvetica,sans-Serif" font-size="10.00">\getBlockDataAt</text>
</a>
</g>
</g>
<!-- Node2&#45;&gt;Node7 -->
<g id="edge6" class="edge"><title>Node2&#45;&gt;Node7</title>
<path fill="none" stroke="midnightblue" d="M228.559,-642.534C237.459,-726.709 269.523,-993.726 324,-1058 327.302,-1061.9 331.3,-1065.19 335.658,-1067.98"/>
<polygon fill="midnightblue" stroke="midnightblue" points="232.015,-641.922 227.501,-632.337 225.052,-642.645 232.015,-641.922"/>
</g>
<!-- Node8 -->
<g id="node8" class="node"><title>Node8</title>
<g id="a_node8"><a xlink:href="../../d3/d4b/classpocketmine_1_1level_1_1_level.html#a6d1152dfde93ceec1f99e74e581e9e1b" target="_top" xlink:title="pocketmine\\level\\Level\l\\getBlockIdAt">
<polygon fill="white" stroke="black" points="324.5,-1019 324.5,-1049 449.5,-1049 449.5,-1019 324.5,-1019"/>
<text text-anchor="start" x="332.5" y="-1037" font-family="Helvetica,sans-Serif" font-size="10.00">pocketmine\level\Level</text>
<text text-anchor="middle" x="387" y="-1026" font-family="Helvetica,sans-Serif" font-size="10.00">\getBlockIdAt</text>
</a>
</g>
</g>
<!-- Node2&#45;&gt;Node8 -->
<g id="edge7" class="edge"><title>Node2&#45;&gt;Node8</title>
<path fill="none" stroke="midnightblue" d="M229.353,-642.711C239.987,-720.736 275.163,-952.894 324,-1009 327.353,-1012.85 331.385,-1016.12 335.763,-1018.89"/>
<polygon fill="midnightblue" stroke="midnightblue" points="232.762,-641.803 227.963,-632.357 225.824,-642.734 232.762,-641.803"/>
</g>
<!-- Node9 -->
<g id="node9" class="node"><title>Node9</title>
<g id="a_node9"><a xlink:href="../../d3/d4b/classpocketmine_1_1level_1_1_level.html#a0eaaf4b405c95438781324ce19b4c3de" target="_top" xlink:title="pocketmine\\level\\Level\l\\getBlockLightAt">
<polygon fill="white" stroke="black" points="324.5,-970 324.5,-1000 449.5,-1000 449.5,-970 324.5,-970"/>
<text text-anchor="start" x="332.5" y="-988" font-family="Helvetica,sans-Serif" font-size="10.00">pocketmine\level\Level</text>
<text text-anchor="middle" x="387" y="-977" font-family="Helvetica,sans-Serif" font-size="10.00">\getBlockLightAt</text>
</a>
</g>
</g>
<!-- Node2&#45;&gt;Node9 -->
<g id="edge8" class="edge"><title>Node2&#45;&gt;Node9</title>
<path fill="none" stroke="midnightblue" d="M226.03,-642.298C227.458,-704.417 239.571,-866.208 324,-960 327.494,-963.882 331.676,-967.171 336.195,-969.957"/>
<polygon fill="midnightblue" stroke="midnightblue" points="229.529,-642.168 225.875,-632.223 222.529,-642.276 229.529,-642.168"/>
</g>
<!-- Node10 -->
<g id="node10" class="node"><title>Node10</title>
<g id="a_node10"><a xlink:href="../../d3/d4b/classpocketmine_1_1level_1_1_level.html#aff637ac21cefeb05f43677b41f8ac76d" target="_top" xlink:title="pocketmine\\level\\Level\l\\getBlockSkyLightAt">
<polygon fill="white" stroke="black" points="324.5,-921 324.5,-951 449.5,-951 449.5,-921 324.5,-921"/>
<text text-anchor="start" x="332.5" y="-939" font-family="Helvetica,sans-Serif" font-size="10.00">pocketmine\level\Level</text>
<text text-anchor="middle" x="387" y="-928" font-family="Helvetica,sans-Serif" font-size="10.00">\getBlockSkyLightAt</text>
</a>
</g>
</g>
<!-- Node2&#45;&gt;Node10 -->
<g id="edge9" class="edge"><title>Node2&#45;&gt;Node10</title>
<path fill="none" stroke="midnightblue" d="M227.456,-642.057C231.994,-697.683 250.403,-832.729 324,-911 327.657,-914.889 332.002,-918.188 336.669,-920.983"/>
<polygon fill="midnightblue" stroke="midnightblue" points="230.943,-641.749 226.721,-632.031 223.962,-642.26 230.943,-641.749"/>
</g>
<!-- Node11 -->
<g id="node11" class="node"><title>Node11</title>
<g id="a_node11"><a xlink:href="../../d3/d4b/classpocketmine_1_1level_1_1_level.html#a07cfdb965d8af5b865c2f468d3dc9f2e" target="_top" xlink:title="pocketmine\\level\\Level\l\\getChunkAt">
<polygon fill="white" stroke="black" points="324.5,-872 324.5,-902 449.5,-902 449.5,-872 324.5,-872"/>
<text text-anchor="start" x="332.5" y="-890" font-family="Helvetica,sans-Serif" font-size="10.00">pocketmine\level\Level</text>
<text text-anchor="middle" x="387" y="-879" font-family="Helvetica,sans-Serif" font-size="10.00">\getChunkAt</text>
</a>
</g>
</g>
<!-- Node2&#45;&gt;Node11 -->
<g id="edge10" class="edge"><title>Node2&#45;&gt;Node11</title>
<path fill="none" stroke="midnightblue" d="M229.437,-642.198C237.363,-690.998 261.296,-799.121 324,-862 327.852,-865.862 332.379,-869.149 337.204,-871.942"/>
<polygon fill="midnightblue" stroke="midnightblue" points="232.878,-641.543 227.904,-632.189 225.958,-642.603 232.878,-641.543"/>
</g>
<!-- Node12 -->
<g id="node12" class="node"><title>Node12</title>
<g id="a_node12"><a xlink:href="../../d3/d4b/classpocketmine_1_1level_1_1_level.html#ad928c92eafa0c724bd3aebea4e1123e3" target="_top" xlink:title="pocketmine\\level\\Level\l\\getChunkEntities">
<polygon fill="white" stroke="black" points="324.5,-725 324.5,-755 449.5,-755 449.5,-725 324.5,-725"/>
<text text-anchor="start" x="332.5" y="-743" font-family="Helvetica,sans-Serif" font-size="10.00">pocketmine\level\Level</text>
<text text-anchor="middle" x="387" y="-732" font-family="Helvetica,sans-Serif" font-size="10.00">\getChunkEntities</text>
</a>
</g>
</g>
<!-- Node2&#45;&gt;Node12 -->
<g id="edge11" class="edge"><title>Node2&#45;&gt;Node12</title>
<path fill="none" stroke="midnightblue" d="M244.205,-639.937C262.455,-661.68 292.324,-694.05 324,-715 329.615,-718.713 335.868,-722.027 342.181,-724.932"/>
<polygon fill="midnightblue" stroke="midnightblue" points="246.863,-637.658 237.8,-632.169 241.462,-642.111 246.863,-637.658"/>
</g>
<!-- Node15 -->
<g id="node15" class="node"><title>Node15</title>
<g id="a_node15"><a xlink:href="../../d3/d4b/classpocketmine_1_1level_1_1_level.html#a3346679b5fe84b0fb3ae4bc27d99e18f" target="_top" xlink:title="pocketmine\\level\\Level\l\\useItemOn">
<polygon fill="white" stroke="black" points="810.5,-746 810.5,-776 935.5,-776 935.5,-746 810.5,-746"/>
<text text-anchor="start" x="818.5" y="-764" font-family="Helvetica,sans-Serif" font-size="10.00">pocketmine\level\Level</text>
<text text-anchor="middle" x="873" y="-753" font-family="Helvetica,sans-Serif" font-size="10.00">\useItemOn</text>
</a>
</g>
</g>
<!-- Node2&#45;&gt;Node15 -->
<g id="edge35" class="edge"><title>Node2&#45;&gt;Node15</title>
<path fill="none" stroke="midnightblue" d="M226.096,-642.218C227.068,-745.075 236.572,-1130.94 324,-1205 541.223,-1389.02 815.889,-872.558 864.486,-776.189"/>
<polygon fill="midnightblue" stroke="midnightblue" points="229.595,-642.103 226.02,-632.13 222.595,-642.156 229.595,-642.103"/>
</g>
<!-- Node17 -->
<g id="node17" class="node"><title>Node17</title>
<g id="a_node17"><a xlink:href="../../d3/d4b/classpocketmine_1_1level_1_1_level.html#a809bb258d797af4a4f9271addb4bfd4a" target="_top" xlink:title="pocketmine\\level\\Level\l\\setBlock">
<polygon fill="white" stroke="black" points="648.5,-700 648.5,-730 773.5,-730 773.5,-700 648.5,-700"/>
<text text-anchor="start" x="656.5" y="-718" font-family="Helvetica,sans-Serif" font-size="10.00">pocketmine\level\Level</text>
<text text-anchor="middle" x="711" y="-707" font-family="Helvetica,sans-Serif" font-size="10.00">\setBlock</text>
</a>
</g>
</g>
<!-- Node2&#45;&gt;Node17 -->
<g id="edge29" class="edge"><title>Node2&#45;&gt;Node17</title>
<path fill="none" stroke="midnightblue" d="M284.148,-595.779C285.503,-594.586 286.792,-593.328 288,-592 325.764,-550.504 279.024,-504.543 324,-471 368.89,-437.521 397.929,-450.393 450,-471 571.739,-519.177 669.789,-654.294 700.198,-699.812"/>
<polygon fill="midnightblue" stroke="midnightblue" points="281.764,-593.187 275.762,-601.918 285.899,-598.835 281.764,-593.187"/>
</g>
<!-- Node18 -->
<g id="node18" class="node"><title>Node18</title>
<g id="a_node18"><a xlink:href="../../d3/d4b/classpocketmine_1_1level_1_1_level.html#a11376c9cd83988a0091c70ae6d8a4229" target="_top" xlink:title="pocketmine\\level\\Level\l\\getChunkTiles">
<polygon fill="white" stroke="black" points="324.5,-676 324.5,-706 449.5,-706 449.5,-676 324.5,-676"/>
<text text-anchor="start" x="332.5" y="-694" font-family="Helvetica,sans-Serif" font-size="10.00">pocketmine\level\Level</text>
<text text-anchor="middle" x="387" y="-683" font-family="Helvetica,sans-Serif" font-size="10.00">\getChunkTiles</text>
</a>
</g>
</g>
<!-- Node2&#45;&gt;Node18 -->
<g id="edge18" class="edge"><title>Node2&#45;&gt;Node18</title>
<path fill="none" stroke="midnightblue" d="M263.909,-636.845C281.947,-646.057 303.916,-656.947 324,-666 331.407,-669.338 339.398,-672.72 347.101,-675.872"/>
<polygon fill="midnightblue" stroke="midnightblue" points="265.36,-633.655 254.866,-632.199 262.161,-639.882 265.36,-633.655"/>
</g>
<!-- Node19 -->
<g id="node19" class="node"><title>Node19</title>
<g id="a_node19"><a xlink:href="../../d3/d4b/classpocketmine_1_1level_1_1_level.html#a656a43524caca513a720f614c707cc34" target="_top" xlink:title="pocketmine\\level\\Level\l\\getFullBlock">
<polygon fill="white" stroke="black" points="324.5,-627 324.5,-657 449.5,-657 449.5,-627 324.5,-627"/>
<text text-anchor="start" x="332.5" y="-645" font-family="Helvetica,sans-Serif" font-size="10.00">pocketmine\level\Level</text>
<text text-anchor="middle" x="387" y="-634" font-family="Helvetica,sans-Serif" font-size="10.00">\getFullBlock</text>
</a>
</g>
</g>
<!-- Node2&#45;&gt;Node19 -->
<g id="edge19" class="edge"><title>Node2&#45;&gt;Node19</title>
<path fill="none" stroke="midnightblue" d="M297.775,-628.215C306.629,-629.598 315.619,-631.003 324.304,-632.36"/>
<polygon fill="midnightblue" stroke="midnightblue" points="298.281,-624.751 287.86,-626.666 297.2,-631.668 298.281,-624.751"/>
</g>
<!-- Node20 -->
<g id="node20" class="node"><title>Node20</title>
<g id="a_node20"><a xlink:href="../../d3/d4b/classpocketmine_1_1level_1_1_level.html#a5307508e155f183bdf1cda41874ac3b3" target="_top" xlink:title="pocketmine\\level\\Level\l\\getHeightMap">
<polygon fill="white" stroke="black" points="324.5,-578 324.5,-608 449.5,-608 449.5,-578 324.5,-578"/>
<text text-anchor="start" x="332.5" y="-596" font-family="Helvetica,sans-Serif" font-size="10.00">pocketmine\level\Level</text>
<text text-anchor="middle" x="387" y="-585" font-family="Helvetica,sans-Serif" font-size="10.00">\getHeightMap</text>
</a>
</g>
</g>
<!-- Node2&#45;&gt;Node20 -->
<g id="edge20" class="edge"><title>Node2&#45;&gt;Node20</title>
<path fill="none" stroke="midnightblue" d="M297.775,-606.234C306.629,-604.906 315.619,-603.557 324.304,-602.254"/>
<polygon fill="midnightblue" stroke="midnightblue" points="297.23,-602.776 287.86,-607.721 298.269,-609.699 297.23,-602.776"/>
</g>
<!-- Node21 -->
<g id="node21" class="node"><title>Node21</title>
<g id="a_node21"><a xlink:href="../../d3/d4b/classpocketmine_1_1level_1_1_level.html#a0121fa5b1a8c8f022e633dcc9507a5e5" target="_top" xlink:title="pocketmine\\level\\Level\l\\getHighestBlockAt">
<polygon fill="white" stroke="black" points="324.5,-529 324.5,-559 449.5,-559 449.5,-529 324.5,-529"/>
<text text-anchor="start" x="332.5" y="-547" font-family="Helvetica,sans-Serif" font-size="10.00">pocketmine\level\Level</text>
<text text-anchor="middle" x="387" y="-536" font-family="Helvetica,sans-Serif" font-size="10.00">\getHighestBlockAt</text>
</a>
</g>
</g>
<!-- Node2&#45;&gt;Node21 -->
<g id="edge21" class="edge"><title>Node2&#45;&gt;Node21</title>
<path fill="none" stroke="midnightblue" d="M275.727,-597.908C279.923,-596.008 284.064,-594.029 288,-592 304.877,-583.301 307.123,-577.699 324,-569 330.809,-565.491 338.228,-562.129 345.49,-559.072"/>
<polygon fill="midnightblue" stroke="midnightblue" points="274.277,-594.722 266.51,-601.928 277.076,-601.138 274.277,-594.722"/>
</g>
<!-- Node22 -->
<g id="node22" class="node"><title>Node22</title>
<g id="a_node22"><a xlink:href="../../d3/d4b/classpocketmine_1_1level_1_1_level.html#a3167219fc8feab0852933dd2c265f6d8" target="_top" xlink:title="pocketmine\\level\\Level\l\\getSafeSpawn">
<polygon fill="white" stroke="black" points="324.5,-480 324.5,-510 449.5,-510 449.5,-480 324.5,-480"/>
<text text-anchor="start" x="332.5" y="-498" font-family="Helvetica,sans-Serif" font-size="10.00">pocketmine\level\Level</text>
<text text-anchor="middle" x="387" y="-487" font-family="Helvetica,sans-Serif" font-size="10.00">\getSafeSpawn</text>
</a>
</g>
</g>
<!-- Node2&#45;&gt;Node22 -->
<g id="edge22" class="edge"><title>Node2&#45;&gt;Node22</title>
<path fill="none" stroke="midnightblue" d="M282.601,-596.428C284.493,-595.041 286.302,-593.567 288,-592 314.294,-567.738 297.706,-544.262 324,-520 328.18,-516.144 333.031,-512.847 338.143,-510.038"/>
<polygon fill="midnightblue" stroke="midnightblue" points="280.435,-593.656 273.857,-601.962 284.179,-599.571 280.435,-593.656"/>
</g>
<!-- Node23 -->
<g id="node23" class="node"><title>Node23</title>
<g id="a_node23"><a xlink:href="../../d3/d4b/classpocketmine_1_1level_1_1_level.html#a63d7cd706f0d0437e25db76d34f7f987" target="_top" xlink:title="pocketmine\\level\\Level\l\\getTile">
<polygon fill="white" stroke="black" points="324.5,-823 324.5,-853 449.5,-853 449.5,-823 324.5,-823"/>
<text text-anchor="start" x="332.5" y="-841" font-family="Helvetica,sans-Serif" font-size="10.00">pocketmine\level\Level</text>
<text text-anchor="middle" x="387" y="-830" font-family="Helvetica,sans-Serif" font-size="10.00">\getTile</text>
</a>
</g>
</g>
<!-- Node2&#45;&gt;Node23 -->
<g id="edge23" class="edge"><title>Node2&#45;&gt;Node23</title>
<path fill="none" stroke="midnightblue" d="M232.257,-641.998C243.74,-683.041 271.914,-764.941 324,-813 328.18,-816.856 333.031,-820.153 338.143,-822.962"/>
<polygon fill="midnightblue" stroke="midnightblue" points="235.614,-641.003 229.633,-632.258 228.855,-642.824 235.614,-641.003"/>
</g>
<!-- Node24 -->
<g id="node24" class="node"><title>Node24</title>
<g id="a_node24"><a xlink:href="../../d3/d4b/classpocketmine_1_1level_1_1_level.html#adcca54f7d78e1eb39c7c5e7f8301317d" target="_top" xlink:title="pocketmine\\level\\Level\l\\isChunkGenerated">
<polygon fill="white" stroke="black" points="324.5,-392 324.5,-422 449.5,-422 449.5,-392 324.5,-392"/>
<text text-anchor="start" x="332.5" y="-410" font-family="Helvetica,sans-Serif" font-size="10.00">pocketmine\level\Level</text>
<text text-anchor="middle" x="387" y="-399" font-family="Helvetica,sans-Serif" font-size="10.00">\isChunkGenerated</text>
</a>
</g>
</g>
<!-- Node2&#45;&gt;Node24 -->
<g id="edge25" class="edge"><title>Node2&#45;&gt;Node24</title>
<path fill="none" stroke="midnightblue" d="M284.345,-595.794C285.636,-594.597 286.859,-593.334 288,-592 333.985,-538.268 279.851,-492.25 324,-437 328.852,-430.928 335.237,-426.005 342.064,-422.04"/>
<polygon fill="midnightblue" stroke="midnightblue" points="282.12,-593.089 276.304,-601.944 286.373,-598.649 282.12,-593.089"/>
</g>
<!-- Node25 -->
<g id="node25" class="node"><title>Node25</title>
<g id="a_node25"><a xlink:href="../../d3/d4b/classpocketmine_1_1level_1_1_level.html#a14ade0a441485f14702c186e3277f44a" target="_top" xlink:title="pocketmine\\level\\Level\l\\isChunkPopulated">
<polygon fill="white" stroke="black" points="324.5,-343 324.5,-373 449.5,-373 449.5,-343 324.5,-343"/>
<text text-anchor="start" x="332.5" y="-361" font-family="Helvetica,sans-Serif" font-size="10.00">pocketmine\level\Level</text>
<text text-anchor="middle" x="387" y="-350" font-family="Helvetica,sans-Serif" font-size="10.00">\isChunkPopulated</text>
</a>
</g>
</g>
<!-- Node2&#45;&gt;Node25 -->
<g id="edge26" class="edge"><title>Node2&#45;&gt;Node25</title>
<path fill="none" stroke="midnightblue" d="M284.867,-595.468C285.973,-594.369 287.021,-593.214 288,-592 347.198,-518.652 264.802,-456.348 324,-383 327.134,-379.116 330.965,-375.832 335.17,-373.055"/>
<polygon fill="midnightblue" stroke="midnightblue" points="282.421,-592.945 276.83,-601.945 286.813,-598.395 282.421,-592.945"/>
</g>
<!-- Node26 -->
<g id="node26" class="node"><title>Node26</title>
<g id="a_node26"><a xlink:href="../../d3/d4b/classpocketmine_1_1level_1_1_level.html#a08d198bfbec59c43e18e28d16934dabb" target="_top" xlink:title="pocketmine\\level\\Level\l\\setBiomeColor">
<polygon fill="white" stroke="black" points="324.5,-294 324.5,-324 449.5,-324 449.5,-294 324.5,-294"/>
<text text-anchor="start" x="332.5" y="-312" font-family="Helvetica,sans-Serif" font-size="10.00">pocketmine\level\Level</text>
<text text-anchor="middle" x="387" y="-301" font-family="Helvetica,sans-Serif" font-size="10.00">\setBiomeColor</text>
</a>
</g>
</g>
<!-- Node2&#45;&gt;Node26 -->
<g id="edge27" class="edge"><title>Node2&#45;&gt;Node26</title>
<path fill="none" stroke="midnightblue" d="M284.996,-595.432C286.058,-594.344 287.062,-593.201 288,-592 359.266,-500.755 252.734,-425.245 324,-334 327,-330.158 330.685,-326.904 334.749,-324.149"/>
<polygon fill="midnightblue" stroke="midnightblue" points="282.717,-592.775 277.251,-601.851 287.184,-598.165 282.717,-592.775"/>
</g>
<!-- Node27 -->
<g id="node27" class="node"><title>Node27</title>
<g id="a_node27"><a xlink:href="../../d3/d4b/classpocketmine_1_1level_1_1_level.html#a4699fe01281c5c1202c235f0bbf7d7b4" target="_top" xlink:title="pocketmine\\level\\Level\l\\setBiomeId">
<polygon fill="white" stroke="black" points="324.5,-245 324.5,-275 449.5,-275 449.5,-245 324.5,-245"/>
<text text-anchor="start" x="332.5" y="-263" font-family="Helvetica,sans-Serif" font-size="10.00">pocketmine\level\Level</text>
<text text-anchor="middle" x="387" y="-252" font-family="Helvetica,sans-Serif" font-size="10.00">\setBiomeId</text>
</a>
</g>
</g>
<!-- Node2&#45;&gt;Node27 -->
<g id="edge28" class="edge"><title>Node2&#45;&gt;Node27</title>
<path fill="none" stroke="midnightblue" d="M285.032,-595.46C286.083,-594.363 287.076,-593.211 288,-592 371.372,-482.811 240.628,-394.189 324,-285 326.958,-281.126 330.615,-277.85 334.66,-275.08"/>
<polygon fill="midnightblue" stroke="midnightblue" points="282.746,-592.808 277.34,-601.92 287.248,-598.169 282.746,-592.808"/>
</g>
<!-- Node28 -->
<g id="node28" class="node"><title>Node28</title>
<g id="a_node28"><a xlink:href="../../d3/d4b/classpocketmine_1_1level_1_1_level.html#aa6246f770e669fe3dc3680921a10bd24" target="_top" xlink:title="pocketmine\\level\\Level\l\\setBlockDataAt">
<polygon fill="white" stroke="black" points="324.5,-196 324.5,-226 449.5,-226 449.5,-196 324.5,-196"/>
<text text-anchor="start" x="332.5" y="-214" font-family="Helvetica,sans-Serif" font-size="10.00">pocketmine\level\Level</text>
<text text-anchor="middle" x="387" y="-203" font-family="Helvetica,sans-Serif" font-size="10.00">\setBlockDataAt</text>
</a>
</g>
</g>
<!-- Node2&#45;&gt;Node28 -->
<g id="edge30" class="edge"><title>Node2&#45;&gt;Node28</title>
<path fill="none" stroke="midnightblue" d="M285.058,-595.48C286.102,-594.377 287.085,-593.218 288,-592 383.747,-464.471 227.366,-361.858 324,-235 326.588,-231.603 329.723,-228.686 333.193,-226.182"/>
<polygon fill="midnightblue" stroke="midnightblue" points="282.768,-592.832 277.406,-601.97 287.296,-598.171 282.768,-592.832"/>
</g>
<!-- Node29 -->
<g id="node29" class="node"><title>Node29</title>
<g id="a_node29"><a xlink:href="../../d3/d4b/classpocketmine_1_1level_1_1_level.html#aa27fd77eec87346f8b9e2b04d62d8f4c" target="_top" xlink:title="pocketmine\\level\\Level\l\\setBlockIdAt">
<polygon fill="white" stroke="black" points="324.5,-147 324.5,-177 449.5,-177 449.5,-147 324.5,-147"/>
<text text-anchor="start" x="332.5" y="-165" font-family="Helvetica,sans-Serif" font-size="10.00">pocketmine\level\Level</text>
<text text-anchor="middle" x="387" y="-154" font-family="Helvetica,sans-Serif" font-size="10.00">\setBlockIdAt</text>
</a>
</g>
</g>
<!-- Node2&#45;&gt;Node29 -->
<g id="edge31" class="edge"><title>Node2&#45;&gt;Node29</title>
<path fill="none" stroke="midnightblue" d="M285.453,-595.089C286.352,-594.104 287.203,-593.075 288,-592 341.944,-519.24 269.549,-258.382 324,-186 326.567,-182.587 329.688,-179.66 333.148,-177.148"/>
<polygon fill="midnightblue" stroke="midnightblue" points="282.983,-592.599 277.742,-601.807 287.581,-597.877 282.983,-592.599"/>
</g>
<!-- Node30 -->
<g id="node30" class="node"><title>Node30</title>
<g id="a_node30"><a xlink:href="../../d3/d4b/classpocketmine_1_1level_1_1_level.html#ac53432e7e013c32b01fbee5d28fe1e9e" target="_top" xlink:title="pocketmine\\level\\Level\l\\setBlockLightAt">
<polygon fill="white" stroke="black" points="324.5,-98 324.5,-128 449.5,-128 449.5,-98 324.5,-98"/>
<text text-anchor="start" x="332.5" y="-116" font-family="Helvetica,sans-Serif" font-size="10.00">pocketmine\level\Level</text>
<text text-anchor="middle" x="387" y="-105" font-family="Helvetica,sans-Serif" font-size="10.00">\setBlockLightAt</text>
</a>
</g>
</g>
<!-- Node2&#45;&gt;Node30 -->
<g id="edge32" class="edge"><title>Node2&#45;&gt;Node30</title>
<path fill="none" stroke="midnightblue" d="M285.467,-595.099C286.362,-594.111 287.208,-593.079 288,-592 348.02,-510.238 263.411,-218.342 324,-137 326.551,-133.575 329.66,-130.639 333.112,-128.122"/>
<polygon fill="midnightblue" stroke="midnightblue" points="282.995,-592.612 277.78,-601.835 287.608,-597.877 282.995,-592.612"/>
</g>
<!-- Node31 -->
<g id="node31" class="node"><title>Node31</title>
<g id="a_node31"><a xlink:href="../../d3/d4b/classpocketmine_1_1level_1_1_level.html#ae6032db9f642577324a259b6e9d0b26e" target="_top" xlink:title="pocketmine\\level\\Level\l\\setBlockSkyLightAt">
<polygon fill="white" stroke="black" points="324.5,-49 324.5,-79 449.5,-79 449.5,-49 324.5,-49"/>
<text text-anchor="start" x="332.5" y="-67" font-family="Helvetica,sans-Serif" font-size="10.00">pocketmine\level\Level</text>
<text text-anchor="middle" x="387" y="-56" font-family="Helvetica,sans-Serif" font-size="10.00">\setBlockSkyLightAt</text>
</a>
</g>
</g>
<!-- Node2&#45;&gt;Node31 -->
<g id="edge33" class="edge"><title>Node2&#45;&gt;Node31</title>
<path fill="none" stroke="midnightblue" d="M285.479,-595.107C286.37,-594.117 287.212,-593.082 288,-592 354.099,-501.231 257.27,-178.305 324,-88 326.538,-84.5654 329.637,-81.6222 333.083,-79.1002"/>
<polygon fill="midnightblue" stroke="midnightblue" points="283.004,-592.623 277.811,-601.858 287.63,-597.877 283.004,-592.623"/>
</g>
<!-- Node32 -->
<g id="node32" class="node"><title>Node32</title>
<g id="a_node32"><a xlink:href="../../d3/d4b/classpocketmine_1_1level_1_1_level.html#ac3b56ee1cf982fde41f8ff8f2868473d" target="_top" xlink:title="pocketmine\\level\\Level\l\\setHeightMap">
<polygon fill="white" stroke="black" points="324.5,-0 324.5,-30 449.5,-30 449.5,-0 324.5,-0"/>
<text text-anchor="start" x="332.5" y="-18" font-family="Helvetica,sans-Serif" font-size="10.00">pocketmine\level\Level</text>
<text text-anchor="middle" x="387" y="-7" font-family="Helvetica,sans-Serif" font-size="10.00">\setHeightMap</text>
</a>
</g>
</g>
<!-- Node2&#45;&gt;Node32 -->
<g id="edge34" class="edge"><title>Node2&#45;&gt;Node32</title>
<path fill="none" stroke="midnightblue" d="M285.488,-595.114C286.376,-594.122 287.216,-593.084 288,-592 360.18,-492.222 251.126,-138.273 324,-39 326.527,-35.5574 329.619,-32.6086 333.059,-30.0827"/>
<polygon fill="midnightblue" stroke="midnightblue" points="283.012,-592.631 277.837,-601.876 287.648,-597.876 283.012,-592.631"/>
</g>
<!-- Node4 -->
<g id="node4" class="node"><title>Node4</title>
<g id="a_node4"><a xlink:href="../../d3/d4b/classpocketmine_1_1level_1_1_level.html#adbfdb8014d3364de28dd7909a7577d0d" target="_top" xlink:title="pocketmine\\level\\Level\l\\useBreakOn">
<polygon fill="white" stroke="black" points="486.5,-798 486.5,-828 611.5,-828 611.5,-798 486.5,-798"/>
<text text-anchor="start" x="494.5" y="-816" font-family="Helvetica,sans-Serif" font-size="10.00">pocketmine\level\Level</text>
<text text-anchor="middle" x="549" y="-805" font-family="Helvetica,sans-Serif" font-size="10.00">\useBreakOn</text>
</a>
</g>
</g>
<!-- Node3&#45;&gt;Node4 -->
<g id="edge3" class="edge"><title>Node3&#45;&gt;Node4</title>
<path fill="none" stroke="midnightblue" d="M459.775,-799.766C468.629,-801.094 477.619,-802.443 486.304,-803.746"/>
<polygon fill="midnightblue" stroke="midnightblue" points="460.269,-796.301 449.86,-798.279 459.23,-803.224 460.269,-796.301"/>
</g>
<!-- Node13 -->
<g id="node13" class="node"><title>Node13</title>
<g id="a_node13"><a xlink:href="../../d3/d4b/classpocketmine_1_1level_1_1_level.html#a55b9ba03563413447dbc7ce5962e33fd" target="_top" xlink:title="pocketmine\\level\\Level\l\\getCollidingEntities">
<polygon fill="white" stroke="black" points="486.5,-749 486.5,-779 611.5,-779 611.5,-749 486.5,-749"/>
<text text-anchor="start" x="494.5" y="-767" font-family="Helvetica,sans-Serif" font-size="10.00">pocketmine\level\Level</text>
<text text-anchor="middle" x="549" y="-756" font-family="Helvetica,sans-Serif" font-size="10.00">\getCollidingEntities</text>
</a>
</g>
</g>
<!-- Node12&#45;&gt;Node13 -->
<g id="edge12" class="edge"><title>Node12&#45;&gt;Node13</title>
<path fill="none" stroke="midnightblue" d="M459.775,-750.766C468.629,-752.094 477.619,-753.443 486.304,-754.746"/>
<polygon fill="midnightblue" stroke="midnightblue" points="460.269,-747.301 449.86,-749.279 459.23,-754.224 460.269,-747.301"/>
</g>
<!-- Node16 -->
<g id="node16" class="node"><title>Node16</title>
<g id="a_node16"><a xlink:href="../../d3/d4b/classpocketmine_1_1level_1_1_level.html#a69273b11463bd557e0aab505e2847891" target="_top" xlink:title="pocketmine\\level\\Level\l\\getNearbyEntities">
<polygon fill="white" stroke="black" points="486.5,-700 486.5,-730 611.5,-730 611.5,-700 486.5,-700"/>
<text text-anchor="start" x="494.5" y="-718" font-family="Helvetica,sans-Serif" font-size="10.00">pocketmine\level\Level</text>
<text text-anchor="middle" x="549" y="-707" font-family="Helvetica,sans-Serif" font-size="10.00">\getNearbyEntities</text>
</a>
</g>
</g>
<!-- Node12&#45;&gt;Node16 -->
<g id="edge15" class="edge"><title>Node12&#45;&gt;Node16</title>
<path fill="none" stroke="midnightblue" d="M459.775,-728.785C468.629,-727.402 477.619,-725.997 486.304,-724.64"/>
<polygon fill="midnightblue" stroke="midnightblue" points="459.2,-725.332 449.86,-730.334 460.281,-732.249 459.2,-725.332"/>
</g>
<!-- Node14 -->
<g id="node14" class="node"><title>Node14</title>
<g id="a_node14"><a xlink:href="../../d3/d4b/classpocketmine_1_1level_1_1_level.html#a608a2c562559670a68894c6282b9c80a" target="_top" xlink:title="pocketmine\\level\\Level\l\\getCollisionCubes">
<polygon fill="white" stroke="black" points="648.5,-790 648.5,-820 773.5,-820 773.5,-790 648.5,-790"/>
<text text-anchor="start" x="656.5" y="-808" font-family="Helvetica,sans-Serif" font-size="10.00">pocketmine\level\Level</text>
<text text-anchor="middle" x="711" y="-797" font-family="Helvetica,sans-Serif" font-size="10.00">\getCollisionCubes</text>
</a>
</g>
</g>
<!-- Node13&#45;&gt;Node14 -->
<g id="edge13" class="edge"><title>Node13&#45;&gt;Node14</title>
<path fill="none" stroke="midnightblue" d="M618.581,-781.574C629.489,-784.369 640.685,-787.238 651.338,-789.968"/>
<polygon fill="midnightblue" stroke="midnightblue" points="619.225,-778.126 608.67,-779.034 617.488,-784.907 619.225,-778.126"/>
</g>
<!-- Node13&#45;&gt;Node15 -->
<g id="edge14" class="edge"><title>Node13&#45;&gt;Node15</title>
<path fill="none" stroke="midnightblue" d="M622.005,-763.329C678.564,-762.802 756.489,-762.076 810.231,-761.575"/>
<polygon fill="midnightblue" stroke="midnightblue" points="621.671,-759.832 611.704,-763.425 621.736,-766.832 621.671,-759.832"/>
</g>
<!-- Node16&#45;&gt;Node17 -->
<g id="edge16" class="edge"><title>Node16&#45;&gt;Node17</title>
<path fill="none" stroke="midnightblue" d="M622.061,-715C630.822,-715 639.712,-715 648.304,-715"/>
<polygon fill="midnightblue" stroke="midnightblue" points="621.86,-711.5 611.86,-715 621.86,-718.5 621.86,-711.5"/>
</g>
<!-- Node17&#45;&gt;Node15 -->
<g id="edge17" class="edge"><title>Node17&#45;&gt;Node15</title>
<path fill="none" stroke="midnightblue" d="M774.147,-732.867C789.226,-737.202 805.197,-741.794 819.766,-745.983"/>
<polygon fill="midnightblue" stroke="midnightblue" points="774.968,-729.462 764.39,-730.062 773.034,-736.189 774.968,-729.462"/>
</g>
<!-- Node23&#45;&gt;Node4 -->
<g id="edge24" class="edge"><title>Node23&#45;&gt;Node4</title>
<path fill="none" stroke="midnightblue" d="M459.775,-826.785C468.629,-825.402 477.619,-823.997 486.304,-822.64"/>
<polygon fill="midnightblue" stroke="midnightblue" points="459.2,-823.332 449.86,-828.334 460.281,-830.249 459.2,-823.332"/>
</g>
</g>
</svg>
