<?xml version="1.0" encoding="UTF-8" standalone="no"?>
<!DOCTYPE svg PUBLIC "-//W3C//DTD SVG 1.1//EN"
 "http://www.w3.org/Graphics/SVG/1.1/DTD/svg11.dtd">
<!-- Generated by graphviz version 2.36.0 (20140111.2315)
 -->
<!-- Title: pocketmine\level\Level\getChunk Pages: 1 -->
<!--zoomable 1252 -->
<svg id="main" version="1.1" xmlns="http://www.w3.org/2000/svg" xmlns:xlink="http://www.w3.org/1999/xlink" xml:space="preserve" onload="init(evt)">
<style type="text/css"><![CDATA[
.edge:hover path { stroke: red; }
.edge:hover polygon { stroke: red; fill: red; }
]]></style>
<script type="text/javascript"><![CDATA[
var edges = document.getElementsByTagName('g');
if (edges && edges.length) {
  for (var i=0;i<edges.length;i++) {
    if (edges[i].id.substr(0,4)=='edge') {
      edges[i].setAttribute('class','edge');
    }
  }
}
]]></script>
        <defs>
                <circle id="rim" cx="0" cy="0" r="7"/>
                <circle id="rim2" cx="0" cy="0" r="3.5"/>
                <g id="zoomPlus">
                        <use xlink:href="#rim" fill="#404040">
                                <set attributeName="fill" to="#808080" begin="zoomplus.mouseover" end="zoomplus.mouseout"/>
                        </use>
                        <path d="M-4,0h8M0,-4v8" fill="none" stroke="white" stroke-width="1.5" pointer-events="none"/>
                </g>
                <g id="zoomMin">
                        <use xlink:href="#rim" fill="#404040">
                                <set attributeName="fill" to="#808080" begin="zoomminus.mouseover" end="zoomminus.mouseout"/>
                        </use>
                        <path d="M-4,0h8" fill="none" stroke="white" stroke-width="1.5" pointer-events="none"/>
                </g>
                <g id="dirArrow">
                        <path fill="none" stroke="white" stroke-width="1.5" d="M0,-3.0v7 M-2.5,-0.5L0,-3.0L2.5,-0.5"/>
                </g>
               <g id="resetDef">
                       <use xlink:href="#rim2" fill="#404040">
                               <set attributeName="fill" to="#808080" begin="reset.mouseover" end="reset.mouseout"/>
                       </use>
               </g>
        </defs>

<script type="text/javascript">
var viewWidth = 782;
var viewHeight = 1252;
var sectionId = 'dynsection-19';
</script>
<script xlink:href="../../svgpan.js"/>
<svg id="graph" class="graph">
<g id="viewport">
<title>pocketmine\level\Level\getChunk</title>
<polygon fill="white" stroke="none" points="-4,4 -4,-1248.46 778,-1248.46 778,4 -4,4"/>
<!-- Node1 -->
<g id="node1" class="node"><title>Node1</title>
<polygon fill="#bfbfbf" stroke="black" points="0.5,-602 0.5,-632 125.5,-632 125.5,-602 0.5,-602"/>
<text text-anchor="start" x="8.5" y="-620" font-family="Helvetica,sans-Serif" font-size="10.00">pocketmine\level\Level</text>
<text text-anchor="middle" x="63" y="-609" font-family="Helvetica,sans-Serif" font-size="10.00">\getChunk</text>
</g>
<!-- Node2 -->
<g id="node2" class="node"><title>Node2</title>
<g id="a_node2"><a xlink:href="../../d3/d4b/classpocketmine_1_1level_1_1_level.html#a2458f2dce4333ad4338ddde249a6c368" target="_top" xlink:title="pocketmine\\level\\Level\l\\dropItem">
<polygon fill="white" stroke="black" points="162.5,-774 162.5,-804 287.5,-804 287.5,-774 162.5,-774"/>
<text text-anchor="start" x="170.5" y="-792" font-family="Helvetica,sans-Serif" font-size="10.00">pocketmine\level\Level</text>
<text text-anchor="middle" x="225" y="-781" font-family="Helvetica,sans-Serif" font-size="10.00">\dropItem</text>
</a>
</g>
</g>
<!-- Node1&#45;&gt;Node2 -->
<g id="edge1" class="edge"><title>Node1&#45;&gt;Node2</title>
<path fill="none" stroke="midnightblue" d="M74.5103,-641.215C89.5747,-673.346 120.172,-729.965 162,-764 166.681,-767.809 172.019,-771.102 177.553,-773.932"/>
<polygon fill="midnightblue" stroke="midnightblue" points="77.677,-639.724 70.3386,-632.082 71.3098,-642.632 77.677,-639.724"/>
</g>
<!-- Node4 -->
<g id="node4" class="node"><title>Node4</title>
<g id="a_node4"><a xlink:href="../../d3/d4b/classpocketmine_1_1level_1_1_level.html#acce3596e2a0c27e46a8905edd9763378" target="_top" xlink:title="pocketmine\\level\\Level\l\\getBiomeColor">
<polygon fill="white" stroke="black" points="162.5,-1166 162.5,-1196 287.5,-1196 287.5,-1166 162.5,-1166"/>
<text text-anchor="start" x="170.5" y="-1184" font-family="Helvetica,sans-Serif" font-size="10.00">pocketmine\level\Level</text>
<text text-anchor="middle" x="225" y="-1173" font-family="Helvetica,sans-Serif" font-size="10.00">\getBiomeColor</text>
</a>
</g>
</g>
<!-- Node1&#45;&gt;Node4 -->
<g id="edge3" class="edge"><title>Node1&#45;&gt;Node4</title>
<path fill="none" stroke="midnightblue" d="M65.4211,-642.364C71.248,-737.973 96.1931,-1075.23 162,-1156 165.152,-1159.87 168.995,-1163.14 173.207,-1165.91"/>
<polygon fill="midnightblue" stroke="midnightblue" points="68.9028,-641.95 64.8175,-632.175 61.9151,-642.364 68.9028,-641.95"/>
</g>
<!-- Node5 -->
<g id="node5" class="node"><title>Node5</title>
<g id="a_node5"><a xlink:href="../../d3/d4b/classpocketmine_1_1level_1_1_level.html#a9fa00135de00a7fdfb2a0b2383823cf3" target="_top" xlink:title="pocketmine\\level\\Level\l\\getBiomeId">
<polygon fill="white" stroke="black" points="162.5,-1117 162.5,-1147 287.5,-1147 287.5,-1117 162.5,-1117"/>
<text text-anchor="start" x="170.5" y="-1135" font-family="Helvetica,sans-Serif" font-size="10.00">pocketmine\level\Level</text>
<text text-anchor="middle" x="225" y="-1124" font-family="Helvetica,sans-Serif" font-size="10.00">\getBiomeId</text>
</a>
</g>
</g>
<!-- Node1&#45;&gt;Node5 -->
<g id="edge4" class="edge"><title>Node1&#45;&gt;Node5</title>
<path fill="none" stroke="midnightblue" d="M65.9028,-642.072C73.1614,-731.651 101.787,-1034.41 162,-1107 165.186,-1110.84 169.051,-1114.1 173.277,-1116.86"/>
<polygon fill="midnightblue" stroke="midnightblue" points="69.3844,-641.7 65.1053,-632.008 62.4063,-642.253 69.3844,-641.7"/>
</g>
<!-- Node6 -->
<g id="node6" class="node"><title>Node6</title>
<g id="a_node6"><a xlink:href="../../d3/d4b/classpocketmine_1_1level_1_1_level.html#a525b470d3f40ffdeba60b46cb265e7b5" target="_top" xlink:title="pocketmine\\level\\Level\l\\getBlockDataAt">
<polygon fill="white" stroke="black" points="162.5,-1068 162.5,-1098 287.5,-1098 287.5,-1068 162.5,-1068"/>
<text text-anchor="start" x="170.5" y="-1086" font-family="Helvetica,sans-Serif" font-size="10.00">pocketmine\level\Level</text>
<text text-anchor="middle" x="225" y="-1075" font-family="Helvetica,sans-Serif" font-size="10.00">\getBlockDataAt</text>
</a>
</g>
</g>
<!-- Node1&#45;&gt;Node6 -->
<g id="edge5" class="edge"><title>Node1&#45;&gt;Node6</title>
<path fill="none" stroke="midnightblue" d="M66.5592,-642.534C75.4589,-726.709 107.523,-993.726 162,-1058 165.302,-1061.9 169.3,-1065.19 173.658,-1067.98"/>
<polygon fill="midnightblue" stroke="midnightblue" points="70.0146,-641.922 65.5006,-632.337 63.052,-642.645 70.0146,-641.922"/>
</g>
<!-- Node7 -->
<g id="node7" class="node"><title>Node7</title>
<g id="a_node7"><a xlink:href="../../d3/d4b/classpocketmine_1_1level_1_1_level.html#a6d1152dfde93ceec1f99e74e581e9e1b" target="_top" xlink:title="pocketmine\\level\\Level\l\\getBlockIdAt">
<polygon fill="white" stroke="black" points="162.5,-1019 162.5,-1049 287.5,-1049 287.5,-1019 162.5,-1019"/>
<text text-anchor="start" x="170.5" y="-1037" font-family="Helvetica,sans-Serif" font-size="10.00">pocketmine\level\Level</text>
<text text-anchor="middle" x="225" y="-1026" font-family="Helvetica,sans-Serif" font-size="10.00">\getBlockIdAt</text>
</a>
</g>
</g>
<!-- Node1&#45;&gt;Node7 -->
<g id="edge6" class="edge"><title>Node1&#45;&gt;Node7</title>
<path fill="none" stroke="midnightblue" d="M67.3526,-642.711C77.9869,-720.736 113.163,-952.894 162,-1009 165.353,-1012.85 169.385,-1016.12 173.763,-1018.89"/>
<polygon fill="midnightblue" stroke="midnightblue" points="70.7622,-641.803 65.963,-632.357 63.8244,-642.734 70.7622,-641.803"/>
</g>
<!-- Node8 -->
<g id="node8" class="node"><title>Node8</title>
<g id="a_node8"><a xlink:href="../../d3/d4b/classpocketmine_1_1level_1_1_level.html#a0eaaf4b405c95438781324ce19b4c3de" target="_top" xlink:title="pocketmine\\level\\Level\l\\getBlockLightAt">
<polygon fill="white" stroke="black" points="162.5,-970 162.5,-1000 287.5,-1000 287.5,-970 162.5,-970"/>
<text text-anchor="start" x="170.5" y="-988" font-family="Helvetica,sans-Serif" font-size="10.00">pocketmine\level\Level</text>
<text text-anchor="middle" x="225" y="-977" font-family="Helvetica,sans-Serif" font-size="10.00">\getBlockLightAt</text>
</a>
</g>
</g>
<!-- Node1&#45;&gt;Node8 -->
<g id="edge7" class="edge"><title>Node1&#45;&gt;Node8</title>
<path fill="none" stroke="midnightblue" d="M64.0301,-642.298C65.4583,-704.417 77.5714,-866.208 162,-960 165.494,-963.882 169.676,-967.171 174.195,-969.957"/>
<polygon fill="midnightblue" stroke="midnightblue" points="67.5286,-642.168 63.875,-632.223 60.5294,-642.276 67.5286,-642.168"/>
</g>
<!-- Node9 -->
<g id="node9" class="node"><title>Node9</title>
<g id="a_node9"><a xlink:href="../../d3/d4b/classpocketmine_1_1level_1_1_level.html#aff637ac21cefeb05f43677b41f8ac76d" target="_top" xlink:title="pocketmine\\level\\Level\l\\getBlockSkyLightAt">
<polygon fill="white" stroke="black" points="162.5,-921 162.5,-951 287.5,-951 287.5,-921 162.5,-921"/>
<text text-anchor="start" x="170.5" y="-939" font-family="Helvetica,sans-Serif" font-size="10.00">pocketmine\level\Level</text>
<text text-anchor="middle" x="225" y="-928" font-family="Helvetica,sans-Serif" font-size="10.00">\getBlockSkyLightAt</text>
</a>
</g>
</g>
<!-- Node1&#45;&gt;Node9 -->
<g id="edge8" class="edge"><title>Node1&#45;&gt;Node9</title>
<path fill="none" stroke="midnightblue" d="M65.4563,-642.057C69.9941,-697.683 88.4034,-832.729 162,-911 165.657,-914.889 170.002,-918.188 174.669,-920.983"/>
<polygon fill="midnightblue" stroke="midnightblue" points="68.9431,-641.749 64.7214,-632.031 61.9619,-642.26 68.9431,-641.749"/>
</g>
<!-- Node10 -->
<g id="node10" class="node"><title>Node10</title>
<g id="a_node10"><a xlink:href="../../d3/d4b/classpocketmine_1_1level_1_1_level.html#a07cfdb965d8af5b865c2f468d3dc9f2e" target="_top" xlink:title="pocketmine\\level\\Level\l\\getChunkAt">
<polygon fill="white" stroke="black" points="162.5,-872 162.5,-902 287.5,-902 287.5,-872 162.5,-872"/>
<text text-anchor="start" x="170.5" y="-890" font-family="Helvetica,sans-Serif" font-size="10.00">pocketmine\level\Level</text>
<text text-anchor="middle" x="225" y="-879" font-family="Helvetica,sans-Serif" font-size="10.00">\getChunkAt</text>
</a>
</g>
</g>
<!-- Node1&#45;&gt;Node10 -->
<g id="edge9" class="edge"><title>Node1&#45;&gt;Node10</title>
<path fill="none" stroke="midnightblue" d="M67.437,-642.198C75.3627,-690.998 99.2958,-799.121 162,-862 165.852,-865.862 170.379,-869.149 175.204,-871.942"/>
<polygon fill="midnightblue" stroke="midnightblue" points="70.8777,-641.543 65.9036,-632.189 63.9584,-642.603 70.8777,-641.543"/>
</g>
<!-- Node11 -->
<g id="node11" class="node"><title>Node11</title>
<g id="a_node11"><a xlink:href="../../d3/d4b/classpocketmine_1_1level_1_1_level.html#ad928c92eafa0c724bd3aebea4e1123e3" target="_top" xlink:title="pocketmine\\level\\Level\l\\getChunkEntities">
<polygon fill="white" stroke="black" points="162.5,-725 162.5,-755 287.5,-755 287.5,-725 162.5,-725"/>
<text text-anchor="start" x="170.5" y="-743" font-family="Helvetica,sans-Serif" font-size="10.00">pocketmine\level\Level</text>
<text text-anchor="middle" x="225" y="-732" font-family="Helvetica,sans-Serif" font-size="10.00">\getChunkEntities</text>
</a>
</g>
</g>
<!-- Node1&#45;&gt;Node11 -->
<g id="edge10" class="edge"><title>Node1&#45;&gt;Node11</title>
<path fill="none" stroke="midnightblue" d="M82.2054,-639.937C100.455,-661.68 130.324,-694.05 162,-715 167.615,-718.713 173.868,-722.027 180.181,-724.932"/>
<polygon fill="midnightblue" stroke="midnightblue" points="84.8628,-637.658 75.8005,-632.169 79.4621,-642.111 84.8628,-637.658"/>
</g>
<!-- Node14 -->
<g id="node14" class="node"><title>Node14</title>
<g id="a_node14"><a xlink:href="../../d3/d4b/classpocketmine_1_1level_1_1_level.html#a3346679b5fe84b0fb3ae4bc27d99e18f" target="_top" xlink:title="pocketmine\\level\\Level\l\\useItemOn">
<polygon fill="white" stroke="black" points="648.5,-746 648.5,-776 773.5,-776 773.5,-746 648.5,-746"/>
<text text-anchor="start" x="656.5" y="-764" font-family="Helvetica,sans-Serif" font-size="10.00">pocketmine\level\Level</text>
<text text-anchor="middle" x="711" y="-753" font-family="Helvetica,sans-Serif" font-size="10.00">\useItemOn</text>
</a>
</g>
</g>
<!-- Node1&#45;&gt;Node14 -->
<g id="edge34" class="edge"><title>Node1&#45;&gt;Node14</title>
<path fill="none" stroke="midnightblue" d="M64.0957,-642.218C65.0682,-745.075 74.5721,-1130.94 162,-1205 379.223,-1389.02 653.889,-872.558 702.486,-776.189"/>
<polygon fill="midnightblue" stroke="midnightblue" points="67.5951,-642.103 64.02,-632.13 60.5953,-642.156 67.5951,-642.103"/>
</g>
<!-- Node16 -->
<g id="node16" class="node"><title>Node16</title>
<g id="a_node16"><a xlink:href="../../d3/d4b/classpocketmine_1_1level_1_1_level.html#a809bb258d797af4a4f9271addb4bfd4a" target="_top" xlink:title="pocketmine\\level\\Level\l\\setBlock">
<polygon fill="white" stroke="black" points="486.5,-700 486.5,-730 611.5,-730 611.5,-700 486.5,-700"/>
<text text-anchor="start" x="494.5" y="-718" font-family="Helvetica,sans-Serif" font-size="10.00">pocketmine\level\Level</text>
<text text-anchor="middle" x="549" y="-707" font-family="Helvetica,sans-Serif" font-size="10.00">\setBlock</text>
</a>
</g>
</g>
<!-- Node1&#45;&gt;Node16 -->
<g id="edge28" class="edge"><title>Node1&#45;&gt;Node16</title>
<path fill="none" stroke="midnightblue" d="M72.279,-592.027C85.2304,-557.526 113.907,-496.641 162,-471 211.415,-444.654 235.929,-450.393 288,-471 409.739,-519.177 507.789,-654.294 538.198,-699.812"/>
<polygon fill="midnightblue" stroke="midnightblue" points="68.8484,-591.224 68.7604,-601.818 75.436,-593.591 68.8484,-591.224"/>
</g>
<!-- Node17 -->
<g id="node17" class="node"><title>Node17</title>
<g id="a_node17"><a xlink:href="../../d3/d4b/classpocketmine_1_1level_1_1_level.html#a11376c9cd83988a0091c70ae6d8a4229" target="_top" xlink:title="pocketmine\\level\\Level\l\\getChunkTiles">
<polygon fill="white" stroke="black" points="162.5,-676 162.5,-706 287.5,-706 287.5,-676 162.5,-676"/>
<text text-anchor="start" x="170.5" y="-694" font-family="Helvetica,sans-Serif" font-size="10.00">pocketmine\level\Level</text>
<text text-anchor="middle" x="225" y="-683" font-family="Helvetica,sans-Serif" font-size="10.00">\getChunkTiles</text>
</a>
</g>
</g>
<!-- Node1&#45;&gt;Node17 -->
<g id="edge17" class="edge"><title>Node1&#45;&gt;Node17</title>
<path fill="none" stroke="midnightblue" d="M101.909,-636.845C119.947,-646.057 141.916,-656.947 162,-666 169.407,-669.338 177.398,-672.72 185.101,-675.872"/>
<polygon fill="midnightblue" stroke="midnightblue" points="103.36,-633.655 92.8655,-632.199 100.161,-639.882 103.36,-633.655"/>
</g>
<!-- Node18 -->
<g id="node18" class="node"><title>Node18</title>
<g id="a_node18"><a xlink:href="../../d3/d4b/classpocketmine_1_1level_1_1_level.html#a656a43524caca513a720f614c707cc34" target="_top" xlink:title="pocketmine\\level\\Level\l\\getFullBlock">
<polygon fill="white" stroke="black" points="162.5,-627 162.5,-657 287.5,-657 287.5,-627 162.5,-627"/>
<text text-anchor="start" x="170.5" y="-645" font-family="Helvetica,sans-Serif" font-size="10.00">pocketmine\level\Level</text>
<text text-anchor="middle" x="225" y="-634" font-family="Helvetica,sans-Serif" font-size="10.00">\getFullBlock</text>
</a>
</g>
</g>
<!-- Node1&#45;&gt;Node18 -->
<g id="edge18" class="edge"><title>Node1&#45;&gt;Node18</title>
<path fill="none" stroke="midnightblue" d="M135.775,-628.215C144.629,-629.598 153.619,-631.003 162.304,-632.36"/>
<polygon fill="midnightblue" stroke="midnightblue" points="136.281,-624.751 125.86,-626.666 135.2,-631.668 136.281,-624.751"/>
</g>
<!-- Node19 -->
<g id="node19" class="node"><title>Node19</title>
<g id="a_node19"><a xlink:href="../../d3/d4b/classpocketmine_1_1level_1_1_level.html#a5307508e155f183bdf1cda41874ac3b3" target="_top" xlink:title="pocketmine\\level\\Level\l\\getHeightMap">
<polygon fill="white" stroke="black" points="162.5,-578 162.5,-608 287.5,-608 287.5,-578 162.5,-578"/>
<text text-anchor="start" x="170.5" y="-596" font-family="Helvetica,sans-Serif" font-size="10.00">pocketmine\level\Level</text>
<text text-anchor="middle" x="225" y="-585" font-family="Helvetica,sans-Serif" font-size="10.00">\getHeightMap</text>
</a>
</g>
</g>
<!-- Node1&#45;&gt;Node19 -->
<g id="edge19" class="edge"><title>Node1&#45;&gt;Node19</title>
<path fill="none" stroke="midnightblue" d="M135.775,-606.234C144.629,-604.906 153.619,-603.557 162.304,-602.254"/>
<polygon fill="midnightblue" stroke="midnightblue" points="135.23,-602.776 125.86,-607.721 136.269,-609.699 135.23,-602.776"/>
</g>
<!-- Node20 -->
<g id="node20" class="node"><title>Node20</title>
<g id="a_node20"><a xlink:href="../../d3/d4b/classpocketmine_1_1level_1_1_level.html#a0121fa5b1a8c8f022e633dcc9507a5e5" target="_top" xlink:title="pocketmine\\level\\Level\l\\getHighestBlockAt">
<polygon fill="white" stroke="black" points="162.5,-529 162.5,-559 287.5,-559 287.5,-529 162.5,-529"/>
<text text-anchor="start" x="170.5" y="-547" font-family="Helvetica,sans-Serif" font-size="10.00">pocketmine\level\Level</text>
<text text-anchor="middle" x="225" y="-536" font-family="Helvetica,sans-Serif" font-size="10.00">\getHighestBlockAt</text>
</a>
</g>
</g>
<!-- Node1&#45;&gt;Node20 -->
<g id="edge20" class="edge"><title>Node1&#45;&gt;Node20</title>
<path fill="none" stroke="midnightblue" d="M102.348,-597.421C120.319,-588.451 142.108,-577.868 162,-569 169.526,-565.645 177.647,-562.228 185.453,-559.041"/>
<polygon fill="midnightblue" stroke="midnightblue" points="100.697,-594.333 93.3286,-601.946 103.836,-600.59 100.697,-594.333"/>
</g>
<!-- Node21 -->
<g id="node21" class="node"><title>Node21</title>
<g id="a_node21"><a xlink:href="../../d3/d4b/classpocketmine_1_1level_1_1_level.html#a3167219fc8feab0852933dd2c265f6d8" target="_top" xlink:title="pocketmine\\level\\Level\l\\getSafeSpawn">
<polygon fill="white" stroke="black" points="162.5,-480 162.5,-510 287.5,-510 287.5,-480 162.5,-480"/>
<text text-anchor="start" x="170.5" y="-498" font-family="Helvetica,sans-Serif" font-size="10.00">pocketmine\level\Level</text>
<text text-anchor="middle" x="225" y="-487" font-family="Helvetica,sans-Serif" font-size="10.00">\getSafeSpawn</text>
</a>
</g>
</g>
<!-- Node1&#45;&gt;Node21 -->
<g id="edge21" class="edge"><title>Node1&#45;&gt;Node21</title>
<path fill="none" stroke="midnightblue" d="M82.2529,-594.309C100.537,-572.796 130.432,-540.763 162,-520 167.624,-516.301 173.882,-512.995 180.198,-510.093"/>
<polygon fill="midnightblue" stroke="midnightblue" points="79.5586,-592.075 75.8344,-601.994 84.9311,-596.562 79.5586,-592.075"/>
</g>
<!-- Node22 -->
<g id="node22" class="node"><title>Node22</title>
<g id="a_node22"><a xlink:href="../../d3/d4b/classpocketmine_1_1level_1_1_level.html#a63d7cd706f0d0437e25db76d34f7f987" target="_top" xlink:title="pocketmine\\level\\Level\l\\getTile">
<polygon fill="white" stroke="black" points="162.5,-823 162.5,-853 287.5,-853 287.5,-823 162.5,-823"/>
<text text-anchor="start" x="170.5" y="-841" font-family="Helvetica,sans-Serif" font-size="10.00">pocketmine\level\Level</text>
<text text-anchor="middle" x="225" y="-830" font-family="Helvetica,sans-Serif" font-size="10.00">\getTile</text>
</a>
</g>
</g>
<!-- Node1&#45;&gt;Node22 -->
<g id="edge22" class="edge"><title>Node1&#45;&gt;Node22</title>
<path fill="none" stroke="midnightblue" d="M70.2569,-641.998C81.7396,-683.041 109.914,-764.941 162,-813 166.18,-816.856 171.031,-820.153 176.143,-822.962"/>
<polygon fill="midnightblue" stroke="midnightblue" points="73.6137,-641.003 67.6329,-632.258 66.8547,-642.824 73.6137,-641.003"/>
</g>
<!-- Node23 -->
<g id="node23" class="node"><title>Node23</title>
<g id="a_node23"><a xlink:href="../../d3/d4b/classpocketmine_1_1level_1_1_level.html#adcca54f7d78e1eb39c7c5e7f8301317d" target="_top" xlink:title="pocketmine\\level\\Level\l\\isChunkGenerated">
<polygon fill="white" stroke="black" points="162.5,-392 162.5,-422 287.5,-422 287.5,-392 162.5,-392"/>
<text text-anchor="start" x="170.5" y="-410" font-family="Helvetica,sans-Serif" font-size="10.00">pocketmine\level\Level</text>
<text text-anchor="middle" x="225" y="-399" font-family="Helvetica,sans-Serif" font-size="10.00">\isChunkGenerated</text>
</a>
</g>
</g>
<!-- Node1&#45;&gt;Node23 -->
<g id="edge24" class="edge"><title>Node1&#45;&gt;Node23</title>
<path fill="none" stroke="midnightblue" d="M71.9047,-592.281C85.103,-554.454 114.916,-481.881 162,-437 168.232,-431.06 175.863,-426.088 183.613,-422.009"/>
<polygon fill="midnightblue" stroke="midnightblue" points="68.5137,-591.383 68.6222,-601.977 75.1441,-593.627 68.5137,-591.383"/>
</g>
<!-- Node24 -->
<g id="node24" class="node"><title>Node24</title>
<g id="a_node24"><a xlink:href="../../d3/d4b/classpocketmine_1_1level_1_1_level.html#a14ade0a441485f14702c186e3277f44a" target="_top" xlink:title="pocketmine\\level\\Level\l\\isChunkPopulated">
<polygon fill="white" stroke="black" points="162.5,-343 162.5,-373 287.5,-373 287.5,-343 162.5,-343"/>
<text text-anchor="start" x="170.5" y="-361" font-family="Helvetica,sans-Serif" font-size="10.00">pocketmine\level\Level</text>
<text text-anchor="middle" x="225" y="-350" font-family="Helvetica,sans-Serif" font-size="10.00">\isChunkPopulated</text>
</a>
</g>
</g>
<!-- Node1&#45;&gt;Node24 -->
<g id="edge25" class="edge"><title>Node1&#45;&gt;Node24</title>
<path fill="none" stroke="midnightblue" d="M67.9576,-591.946C76.6471,-544.859 101.649,-442.552 162,-383 165.883,-379.169 170.43,-375.901 175.266,-373.12"/>
<polygon fill="midnightblue" stroke="midnightblue" points="64.4923,-591.444 66.2149,-601.898 71.3874,-592.651 64.4923,-591.444"/>
</g>
<!-- Node25 -->
<g id="node25" class="node"><title>Node25</title>
<g id="a_node25"><a xlink:href="../../d3/d4b/classpocketmine_1_1level_1_1_level.html#a08d198bfbec59c43e18e28d16934dabb" target="_top" xlink:title="pocketmine\\level\\Level\l\\setBiomeColor">
<polygon fill="white" stroke="black" points="162.5,-294 162.5,-324 287.5,-324 287.5,-294 162.5,-294"/>
<text text-anchor="start" x="170.5" y="-312" font-family="Helvetica,sans-Serif" font-size="10.00">pocketmine\level\Level</text>
<text text-anchor="middle" x="225" y="-301" font-family="Helvetica,sans-Serif" font-size="10.00">\setBiomeColor</text>
</a>
</g>
</g>
<!-- Node1&#45;&gt;Node25 -->
<g id="edge26" class="edge"><title>Node1&#45;&gt;Node25</title>
<path fill="none" stroke="midnightblue" d="M65.858,-591.765C71.1566,-537.527 90.9231,-408.717 162,-334 165.68,-330.132 170.039,-326.847 174.714,-324.06"/>
<polygon fill="midnightblue" stroke="midnightblue" points="62.359,-591.6 64.9569,-601.871 69.3313,-592.222 62.359,-591.6"/>
</g>
<!-- Node26 -->
<g id="node26" class="node"><title>Node26</title>
<g id="a_node26"><a xlink:href="../../d3/d4b/classpocketmine_1_1level_1_1_level.html#a4699fe01281c5c1202c235f0bbf7d7b4" target="_top" xlink:title="pocketmine\\level\\Level\l\\setBiomeId">
<polygon fill="white" stroke="black" points="162.5,-245 162.5,-275 287.5,-275 287.5,-245 162.5,-245"/>
<text text-anchor="start" x="170.5" y="-263" font-family="Helvetica,sans-Serif" font-size="10.00">pocketmine\level\Level</text>
<text text-anchor="middle" x="225" y="-252" font-family="Helvetica,sans-Serif" font-size="10.00">\setBiomeId</text>
</a>
</g>
</g>
<!-- Node1&#45;&gt;Node26 -->
<g id="edge27" class="edge"><title>Node1&#45;&gt;Node26</title>
<path fill="none" stroke="midnightblue" d="M64.3201,-591.701C66.4351,-530.963 80.0357,-375.259 162,-285 165.511,-281.134 169.704,-277.854 174.229,-275.074"/>
<polygon fill="midnightblue" stroke="midnightblue" points="60.816,-591.809 64.0449,-601.9 67.8134,-591.998 60.816,-591.809"/>
</g>
<!-- Node27 -->
<g id="node27" class="node"><title>Node27</title>
<g id="a_node27"><a xlink:href="../../d3/d4b/classpocketmine_1_1level_1_1_level.html#aa6246f770e669fe3dc3680921a10bd24" target="_top" xlink:title="pocketmine\\level\\Level\l\\setBlockDataAt">
<polygon fill="white" stroke="black" points="162.5,-196 162.5,-226 287.5,-226 287.5,-196 162.5,-196"/>
<text text-anchor="start" x="170.5" y="-214" font-family="Helvetica,sans-Serif" font-size="10.00">pocketmine\level\Level</text>
<text text-anchor="middle" x="225" y="-203" font-family="Helvetica,sans-Serif" font-size="10.00">\setBlockDataAt</text>
</a>
</g>
</g>
<!-- Node1&#45;&gt;Node27 -->
<g id="edge29" class="edge"><title>Node1&#45;&gt;Node27</title>
<path fill="none" stroke="midnightblue" d="M67.4809,-591.394C78.361,-514.757 113.895,-289.156 162,-235 165.066,-231.548 168.688,-228.589 172.616,-226.053"/>
<polygon fill="midnightblue" stroke="midnightblue" points="63.9749,-591.194 66.0559,-601.582 70.9074,-592.163 63.9749,-591.194"/>
</g>
<!-- Node28 -->
<g id="node28" class="node"><title>Node28</title>
<g id="a_node28"><a xlink:href="../../d3/d4b/classpocketmine_1_1level_1_1_level.html#aa27fd77eec87346f8b9e2b04d62d8f4c" target="_top" xlink:title="pocketmine\\level\\Level\l\\setBlockIdAt">
<polygon fill="white" stroke="black" points="162.5,-147 162.5,-177 287.5,-177 287.5,-147 162.5,-147"/>
<text text-anchor="start" x="170.5" y="-165" font-family="Helvetica,sans-Serif" font-size="10.00">pocketmine\level\Level</text>
<text text-anchor="middle" x="225" y="-154" font-family="Helvetica,sans-Serif" font-size="10.00">\setBlockIdAt</text>
</a>
</g>
</g>
<!-- Node1&#45;&gt;Node28 -->
<g id="edge30" class="edge"><title>Node1&#45;&gt;Node28</title>
<path fill="none" stroke="midnightblue" d="M66.6046,-592.011C75.6473,-509.639 108.109,-248.38 162,-186 164.943,-182.594 168.428,-179.668 172.222,-177.156"/>
<polygon fill="midnightblue" stroke="midnightblue" points="63.1209,-591.672 65.5284,-601.99 70.0806,-592.423 63.1209,-591.672"/>
</g>
<!-- Node29 -->
<g id="node29" class="node"><title>Node29</title>
<g id="a_node29"><a xlink:href="../../d3/d4b/classpocketmine_1_1level_1_1_level.html#ac53432e7e013c32b01fbee5d28fe1e9e" target="_top" xlink:title="pocketmine\\level\\Level\l\\setBlockLightAt">
<polygon fill="white" stroke="black" points="162.5,-98 162.5,-128 287.5,-128 287.5,-98 162.5,-98"/>
<text text-anchor="start" x="170.5" y="-116" font-family="Helvetica,sans-Serif" font-size="10.00">pocketmine\level\Level</text>
<text text-anchor="middle" x="225" y="-105" font-family="Helvetica,sans-Serif" font-size="10.00">\setBlockLightAt</text>
</a>
</g>
</g>
<!-- Node1&#45;&gt;Node29 -->
<g id="edge31" class="edge"><title>Node1&#45;&gt;Node29</title>
<path fill="none" stroke="midnightblue" d="M65.9891,-591.822C73.4537,-503.236 102.463,-207.48 162,-137 164.905,-133.561 168.364,-130.613 172.14,-128.086"/>
<polygon fill="midnightblue" stroke="midnightblue" points="62.5006,-591.541 65.1669,-601.794 69.4769,-592.116 62.5006,-591.541"/>
</g>
<!-- Node30 -->
<g id="node30" class="node"><title>Node30</title>
<g id="a_node30"><a xlink:href="../../d3/d4b/classpocketmine_1_1level_1_1_level.html#ae6032db9f642577324a259b6e9d0b26e" target="_top" xlink:title="pocketmine\\level\\Level\l\\setBlockSkyLightAt">
<polygon fill="white" stroke="black" points="162.5,-49 162.5,-79 287.5,-79 287.5,-49 162.5,-49"/>
<text text-anchor="start" x="170.5" y="-67" font-family="Helvetica,sans-Serif" font-size="10.00">pocketmine\level\Level</text>
<text text-anchor="middle" x="225" y="-56" font-family="Helvetica,sans-Serif" font-size="10.00">\setBlockSkyLightAt</text>
</a>
</g>
</g>
<!-- Node1&#45;&gt;Node30 -->
<g id="edge32" class="edge"><title>Node1&#45;&gt;Node30</title>
<path fill="none" stroke="midnightblue" d="M65.4718,-591.764C71.4474,-497.396 96.7636,-166.67 162,-88 164.873,-84.5349 168.31,-81.5686 172.072,-79.0295"/>
<polygon fill="midnightblue" stroke="midnightblue" points="61.9732,-591.635 64.8517,-601.832 68.96,-592.066 61.9732,-591.635"/>
</g>
<!-- Node31 -->
<g id="node31" class="node"><title>Node31</title>
<g id="a_node31"><a xlink:href="../../d3/d4b/classpocketmine_1_1level_1_1_level.html#ac3b56ee1cf982fde41f8ff8f2868473d" target="_top" xlink:title="pocketmine\\level\\Level\l\\setHeightMap">
<polygon fill="white" stroke="black" points="162.5,-0 162.5,-30 287.5,-30 287.5,-0 162.5,-0"/>
<text text-anchor="start" x="170.5" y="-18" font-family="Helvetica,sans-Serif" font-size="10.00">pocketmine\level\Level</text>
<text text-anchor="middle" x="225" y="-7" font-family="Helvetica,sans-Serif" font-size="10.00">\setHeightMap</text>
</a>
</g>
</g>
<!-- Node1&#45;&gt;Node31 -->
<g id="edge33" class="edge"><title>Node1&#45;&gt;Node31</title>
<path fill="none" stroke="midnightblue" d="M65.0378,-591.731C69.6156,-491.866 91.037,-125.914 162,-39 164.774,-35.6026 168.09,-32.6849 171.727,-30.1795"/>
<polygon fill="midnightblue" stroke="midnightblue" points="61.5373,-591.667 64.5922,-601.812 68.5305,-591.976 61.5373,-591.667"/>
</g>
<!-- Node3 -->
<g id="node3" class="node"><title>Node3</title>
<g id="a_node3"><a xlink:href="../../d3/d4b/classpocketmine_1_1level_1_1_level.html#adbfdb8014d3364de28dd7909a7577d0d" target="_top" xlink:title="pocketmine\\level\\Level\l\\useBreakOn">
<polygon fill="white" stroke="black" points="324.5,-798 324.5,-828 449.5,-828 449.5,-798 324.5,-798"/>
<text text-anchor="start" x="332.5" y="-816" font-family="Helvetica,sans-Serif" font-size="10.00">pocketmine\level\Level</text>
<text text-anchor="middle" x="387" y="-805" font-family="Helvetica,sans-Serif" font-size="10.00">\useBreakOn</text>
</a>
</g>
</g>
<!-- Node2&#45;&gt;Node3 -->
<g id="edge2" class="edge"><title>Node2&#45;&gt;Node3</title>
<path fill="none" stroke="midnightblue" d="M297.775,-799.766C306.629,-801.094 315.619,-802.443 324.304,-803.746"/>
<polygon fill="midnightblue" stroke="midnightblue" points="298.269,-796.301 287.86,-798.279 297.23,-803.224 298.269,-796.301"/>
</g>
<!-- Node12 -->
<g id="node12" class="node"><title>Node12</title>
<g id="a_node12"><a xlink:href="../../d3/d4b/classpocketmine_1_1level_1_1_level.html#a55b9ba03563413447dbc7ce5962e33fd" target="_top" xlink:title="pocketmine\\level\\Level\l\\getCollidingEntities">
<polygon fill="white" stroke="black" points="324.5,-749 324.5,-779 449.5,-779 449.5,-749 324.5,-749"/>
<text text-anchor="start" x="332.5" y="-767" font-family="Helvetica,sans-Serif" font-size="10.00">pocketmine\level\Level</text>
<text text-anchor="middle" x="387" y="-756" font-family="Helvetica,sans-Serif" font-size="10.00">\getCollidingEntities</text>
</a>
</g>
</g>
<!-- Node11&#45;&gt;Node12 -->
<g id="edge11" class="edge"><title>Node11&#45;&gt;Node12</title>
<path fill="none" stroke="midnightblue" d="M297.775,-750.766C306.629,-752.094 315.619,-753.443 324.304,-754.746"/>
<polygon fill="midnightblue" stroke="midnightblue" points="298.269,-747.301 287.86,-749.279 297.23,-754.224 298.269,-747.301"/>
</g>
<!-- Node15 -->
<g id="node15" class="node"><title>Node15</title>
<g id="a_node15"><a xlink:href="../../d3/d4b/classpocketmine_1_1level_1_1_level.html#a69273b11463bd557e0aab505e2847891" target="_top" xlink:title="pocketmine\\level\\Level\l\\getNearbyEntities">
<polygon fill="white" stroke="black" points="324.5,-700 324.5,-730 449.5,-730 449.5,-700 324.5,-700"/>
<text text-anchor="start" x="332.5" y="-718" font-family="Helvetica,sans-Serif" font-size="10.00">pocketmine\level\Level</text>
<text text-anchor="middle" x="387" y="-707" font-family="Helvetica,sans-Serif" font-size="10.00">\getNearbyEntities</text>
</a>
</g>
</g>
<!-- Node11&#45;&gt;Node15 -->
<g id="edge14" class="edge"><title>Node11&#45;&gt;Node15</title>
<path fill="none" stroke="midnightblue" d="M297.775,-728.785C306.629,-727.402 315.619,-725.997 324.304,-724.64"/>
<polygon fill="midnightblue" stroke="midnightblue" points="297.2,-725.332 287.86,-730.334 298.281,-732.249 297.2,-725.332"/>
</g>
<!-- Node13 -->
<g id="node13" class="node"><title>Node13</title>
<g id="a_node13"><a xlink:href="../../d3/d4b/classpocketmine_1_1level_1_1_level.html#a608a2c562559670a68894c6282b9c80a" target="_top" xlink:title="pocketmine\\level\\Level\l\\getCollisionCubes">
<polygon fill="white" stroke="black" points="486.5,-790 486.5,-820 611.5,-820 611.5,-790 486.5,-790"/>
<text text-anchor="start" x="494.5" y="-808" font-family="Helvetica,sans-Serif" font-size="10.00">pocketmine\level\Level</text>
<text text-anchor="middle" x="549" y="-797" font-family="Helvetica,sans-Serif" font-size="10.00">\getCollisionCubes</text>
</a>
</g>
</g>
<!-- Node12&#45;&gt;Node13 -->
<g id="edge12" class="edge"><title>Node12&#45;&gt;Node13</title>
<path fill="none" stroke="midnightblue" d="M456.581,-781.574C467.489,-784.369 478.685,-787.238 489.338,-789.968"/>
<polygon fill="midnightblue" stroke="midnightblue" points="457.225,-778.126 446.67,-779.034 455.488,-784.907 457.225,-778.126"/>
</g>
<!-- Node12&#45;&gt;Node14 -->
<g id="edge13" class="edge"><title>Node12&#45;&gt;Node14</title>
<path fill="none" stroke="midnightblue" d="M460.005,-763.329C516.564,-762.802 594.489,-762.076 648.231,-761.575"/>
<polygon fill="midnightblue" stroke="midnightblue" points="459.671,-759.832 449.704,-763.425 459.736,-766.832 459.671,-759.832"/>
</g>
<!-- Node15&#45;&gt;Node16 -->
<g id="edge15" class="edge"><title>Node15&#45;&gt;Node16</title>
<path fill="none" stroke="midnightblue" d="M460.061,-715C468.822,-715 477.712,-715 486.304,-715"/>
<polygon fill="midnightblue" stroke="midnightblue" points="459.86,-711.5 449.86,-715 459.86,-718.5 459.86,-711.5"/>
</g>
<!-- Node16&#45;&gt;Node14 -->
<g id="edge16" class="edge"><title>Node16&#45;&gt;Node14</title>
<path fill="none" stroke="midnightblue" d="M612.147,-732.867C627.226,-737.202 643.197,-741.794 657.766,-745.983"/>
<polygon fill="midnightblue" stroke="midnightblue" points="612.968,-729.462 602.39,-730.062 611.034,-736.189 612.968,-729.462"/>
</g>
<!-- Node22&#45;&gt;Node3 -->
<g id="edge23" class="edge"><title>Node22&#45;&gt;Node3</title>
<path fill="none" stroke="midnightblue" d="M297.775,-826.785C306.629,-825.402 315.619,-823.997 324.304,-822.64"/>
<polygon fill="midnightblue" stroke="midnightblue" points="297.2,-823.332 287.86,-828.334 298.281,-830.249 297.2,-823.332"/>
</g>
</g>
</svg>
        <g id="navigator" transform="translate(0 0)" fill="#404254">
                <rect fill="#f2f5e9" fill-opacity="0.5" stroke="#606060" stroke-width=".5" x="0" y="0" width="60" height="60"/>
                <use id="zoomplus" xlink:href="#zoomPlus" x="17" y="9" onmousedown="handleZoom(evt,'in')"/>
                <use id="zoomminus" xlink:href="#zoomMin" x="42" y="9" onmousedown="handleZoom(evt,'out')"/>
                <use id="reset" xlink:href="#resetDef" x="30" y="36" onmousedown="handleReset()"/>
                <g id="arrowUp" xlink:href="#dirArrow" transform="translate(30 24)" onmousedown="handlePan(0,-1)">
                  <use xlink:href="#rim" fill="#404040">
                        <set attributeName="fill" to="#808080" begin="arrowUp.mouseover" end="arrowUp.mouseout"/>
                  </use>
                  <path fill="none" stroke="white" stroke-width="1.5" d="M0,-3.0v7 M-2.5,-0.5L0,-3.0L2.5,-0.5"/>
                </g>
                <g id="arrowRight" xlink:href="#dirArrow" transform="rotate(90) translate(36 -43)" onmousedown="handlePan(1,0)">
                  <use xlink:href="#rim" fill="#404040">
                        <set attributeName="fill" to="#808080" begin="arrowRight.mouseover" end="arrowRight.mouseout"/>
                  </use>
                  <path fill="none" stroke="white" stroke-width="1.5" d="M0,-3.0v7 M-2.5,-0.5L0,-3.0L2.5,-0.5"/>
                </g>
                <g id="arrowDown" xlink:href="#dirArrow" transform="rotate(180) translate(-30 -48)" onmousedown="handlePan(0,1)">
                  <use xlink:href="#rim" fill="#404040">
                        <set attributeName="fill" to="#808080" begin="arrowDown.mouseover" end="arrowDown.mouseout"/>
                  </use>
                  <path fill="none" stroke="white" stroke-width="1.5" d="M0,-3.0v7 M-2.5,-0.5L0,-3.0L2.5,-0.5"/>
                </g>
                <g id="arrowLeft" xlink:href="#dirArrow" transform="rotate(270) translate(-36 17)" onmousedown="handlePan(-1,0)">
                  <use xlink:href="#rim" fill="#404040">
                        <set attributeName="fill" to="#808080" begin="arrowLeft.mouseover" end="arrowLeft.mouseout"/>
                  </use>
                  <path fill="none" stroke="white" stroke-width="1.5" d="M0,-3.0v7 M-2.5,-0.5L0,-3.0L2.5,-0.5"/>
                </g>
        </g>
        <svg viewBox="0 0 15 15" width="100%" height="30px" preserveAspectRatio="xMaxYMin meet">
         <g id="arrow_out" transform="scale(0.3 0.3)">
          <a xlink:href="classpocketmine_1_1level_1_1_level_ab5808e52f13dfe100b837c94216af011_icgraph_org.svg" target="_base">
           <rect id="button" ry="5" rx="5" y="6" x="6" height="38" width="38"
                fill="#f2f5e9" fill-opacity="0.5" stroke="#606060" stroke-width="1.0"/>
           <path id="arrow"
             d="M 11.500037,31.436501 C 11.940474,20.09759 22.043105,11.32322 32.158766,21.979434 L 37.068811,17.246167 C 37.068811,17.246167 37.088388,32 37.088388,32 L 22.160133,31.978069 C 22.160133,31.978069 26.997745,27.140456 26.997745,27.140456 C 18.528582,18.264221 13.291696,25.230495 11.500037,31.436501 z"
             style="fill:#404040;"/>
          </a>
         </g>
        </svg>
</svg>
