<?xml version="1.0" encoding="UTF-8" standalone="no"?>
<!DOCTYPE svg PUBLIC "-//W3C//DTD SVG 1.1//EN"
 "http://www.w3.org/Graphics/SVG/1.1/DTD/svg11.dtd">
<!-- Generated by graphviz version 2.36.0 (20140111.2315)
 -->
<!-- Title: pocketmine\level\Level\getBlock Pages: 1 -->
<svg width="620pt" height="273pt"
 viewBox="0.00 0.00 620.00 273.00" xmlns="http://www.w3.org/2000/svg" xmlns:xlink="http://www.w3.org/1999/xlink">
<g id="graph0" class="graph" transform="scale(1 1) rotate(0) translate(4 269)">
<title>pocketmine\level\Level\getBlock</title>
<polygon fill="white" stroke="none" points="-4,4 -4,-269 616,-269 616,4 -4,4"/>
<!-- Node1 -->
<g id="node1" class="node"><title>Node1</title>
<polygon fill="#bfbfbf" stroke="black" points="0.5,-112 0.5,-142 125.5,-142 125.5,-112 0.5,-112"/>
<text text-anchor="start" x="8.5" y="-130" font-family="Helvetica,sans-Serif" font-size="10.00">pocketmine\level\Level</text>
<text text-anchor="middle" x="63" y="-119" font-family="Helvetica,sans-Serif" font-size="10.00">\getBlock</text>
</g>
<!-- Node2 -->
<g id="node2" class="node"><title>Node2</title>
<g id="a_node2"><a xlink:href="../../d3/d4b/classpocketmine_1_1level_1_1_level.html#ab2c4e6d8e0a05a5f42e83fe0e49ba0b4" target="_top" xlink:title="pocketmine\\level\\Level\l\\getCollisionBlocks">
<polygon fill="white" stroke="black" points="162.5,-235 162.5,-265 287.5,-265 287.5,-235 162.5,-235"/>
<text text-anchor="start" x="170.5" y="-253" font-family="Helvetica,sans-Serif" font-size="10.00">pocketmine\level\Level</text>
<text text-anchor="middle" x="225" y="-242" font-family="Helvetica,sans-Serif" font-size="10.00">\getCollisionBlocks</text>
</a>
</g>
</g>
<!-- Node1&#45;&gt;Node2 -->
<g id="edge1" class="edge"><title>Node1&#45;&gt;Node2</title>
<path fill="none" stroke="midnightblue" d="M82.2054,-149.937C100.455,-171.68 130.324,-204.05 162,-225 167.615,-228.713 173.868,-232.027 180.181,-234.932"/>
<polygon fill="midnightblue" stroke="midnightblue" points="84.8628,-147.658 75.8005,-142.169 79.4621,-152.111 84.8628,-147.658"/>
</g>
<!-- Node3 -->
<g id="node3" class="node"><title>Node3</title>
<g id="a_node3"><a xlink:href="../../d3/d4b/classpocketmine_1_1level_1_1_level.html#a608a2c562559670a68894c6282b9c80a" target="_top" xlink:title="pocketmine\\level\\Level\l\\getCollisionCubes">
<polygon fill="white" stroke="black" points="162.5,-186 162.5,-216 287.5,-216 287.5,-186 162.5,-186"/>
<text text-anchor="start" x="170.5" y="-204" font-family="Helvetica,sans-Serif" font-size="10.00">pocketmine\level\Level</text>
<text text-anchor="middle" x="225" y="-193" font-family="Helvetica,sans-Serif" font-size="10.00">\getCollisionCubes</text>
</a>
</g>
</g>
<!-- Node1&#45;&gt;Node3 -->
<g id="edge2" class="edge"><title>Node1&#45;&gt;Node3</title>
<path fill="none" stroke="midnightblue" d="M101.909,-146.845C119.947,-156.057 141.916,-166.947 162,-176 169.407,-179.338 177.398,-182.72 185.101,-185.872"/>
<polygon fill="midnightblue" stroke="midnightblue" points="103.36,-143.655 92.8655,-142.199 100.161,-149.882 103.36,-143.655"/>
</g>
<!-- Node4 -->
<g id="node4" class="node"><title>Node4</title>
<g id="a_node4"><a xlink:href="../../d3/d4b/classpocketmine_1_1level_1_1_level.html#a69618f606777659e0c4dcbfc046c2eef" target="_top" xlink:title="pocketmine\\level\\Level\l\\isFullBlock">
<polygon fill="white" stroke="black" points="162.5,-137 162.5,-167 287.5,-167 287.5,-137 162.5,-137"/>
<text text-anchor="start" x="170.5" y="-155" font-family="Helvetica,sans-Serif" font-size="10.00">pocketmine\level\Level</text>
<text text-anchor="middle" x="225" y="-144" font-family="Helvetica,sans-Serif" font-size="10.00">\isFullBlock</text>
</a>
</g>
</g>
<!-- Node1&#45;&gt;Node4 -->
<g id="edge3" class="edge"><title>Node1&#45;&gt;Node4</title>
<path fill="none" stroke="midnightblue" d="M135.775,-138.215C144.629,-139.598 153.619,-141.003 162.304,-142.36"/>
<polygon fill="midnightblue" stroke="midnightblue" points="136.281,-134.751 125.86,-136.666 135.2,-141.668 136.281,-134.751"/>
</g>
<!-- Node5 -->
<g id="node5" class="node"><title>Node5</title>
<g id="a_node5"><a xlink:href="../../d3/d4b/classpocketmine_1_1level_1_1_level.html#a60f0a9e93625494e1d47bc9fb75c9b38" target="_top" xlink:title="pocketmine\\level\\Level\l\\updateAround">
<polygon fill="white" stroke="black" points="162.5,-88 162.5,-118 287.5,-118 287.5,-88 162.5,-88"/>
<text text-anchor="start" x="170.5" y="-106" font-family="Helvetica,sans-Serif" font-size="10.00">pocketmine\level\Level</text>
<text text-anchor="middle" x="225" y="-95" font-family="Helvetica,sans-Serif" font-size="10.00">\updateAround</text>
</a>
</g>
</g>
<!-- Node1&#45;&gt;Node5 -->
<g id="edge4" class="edge"><title>Node1&#45;&gt;Node5</title>
<path fill="none" stroke="midnightblue" d="M135.775,-116.234C144.629,-114.906 153.619,-113.557 162.304,-112.254"/>
<polygon fill="midnightblue" stroke="midnightblue" points="135.23,-112.776 125.86,-117.721 136.269,-119.699 135.23,-112.776"/>
</g>
<!-- Node7 -->
<g id="node7" class="node"><title>Node7</title>
<g id="a_node7"><a xlink:href="../../d3/d4b/classpocketmine_1_1level_1_1_level.html#a3346679b5fe84b0fb3ae4bc27d99e18f" target="_top" xlink:title="pocketmine\\level\\Level\l\\useItemOn">
<polygon fill="white" stroke="black" points="486.5,-66 486.5,-96 611.5,-96 611.5,-66 486.5,-66"/>
<text text-anchor="start" x="494.5" y="-84" font-family="Helvetica,sans-Serif" font-size="10.00">pocketmine\level\Level</text>
<text text-anchor="middle" x="549" y="-73" font-family="Helvetica,sans-Serif" font-size="10.00">\useItemOn</text>
</a>
</g>
</g>
<!-- Node1&#45;&gt;Node7 -->
<g id="edge8" class="edge"><title>Node1&#45;&gt;Node7</title>
<path fill="none" stroke="midnightblue" d="M95.2069,-106.707C113.785,-95.8531 138.294,-83.5961 162,-78 274.021,-51.5555 409.473,-61.9444 486.495,-71.6466"/>
<polygon fill="midnightblue" stroke="midnightblue" points="93.3585,-103.735 86.5926,-111.888 96.9661,-109.734 93.3585,-103.735"/>
</g>
<!-- Node8 -->
<g id="node8" class="node"><title>Node8</title>
<g id="a_node8"><a xlink:href="../../d3/d4b/classpocketmine_1_1level_1_1_level.html#adbfdb8014d3364de28dd7909a7577d0d" target="_top" xlink:title="pocketmine\\level\\Level\l\\useBreakOn">
<polygon fill="white" stroke="black" points="162.5,-0 162.5,-30 287.5,-30 287.5,-0 162.5,-0"/>
<text text-anchor="start" x="170.5" y="-18" font-family="Helvetica,sans-Serif" font-size="10.00">pocketmine\level\Level</text>
<text text-anchor="middle" x="225" y="-7" font-family="Helvetica,sans-Serif" font-size="10.00">\useBreakOn</text>
</a>
</g>
</g>
<!-- Node1&#45;&gt;Node8 -->
<g id="edge7" class="edge"><title>Node1&#45;&gt;Node8</title>
<path fill="none" stroke="midnightblue" d="M87.0184,-104.923C106.11,-87.3278 134.488,-62.7784 162,-45 170.436,-39.5484 180.012,-34.4444 189.07,-30.0469"/>
<polygon fill="midnightblue" stroke="midnightblue" points="84.6091,-102.384 79.6824,-111.764 89.3831,-107.504 84.6091,-102.384"/>
</g>
<!-- Node6 -->
<g id="node6" class="node"><title>Node6</title>
<g id="a_node6"><a xlink:href="../../d3/d4b/classpocketmine_1_1level_1_1_level.html#a809bb258d797af4a4f9271addb4bfd4a" target="_top" xlink:title="pocketmine\\level\\Level\l\\setBlock">
<polygon fill="white" stroke="black" points="324.5,-88 324.5,-118 449.5,-118 449.5,-88 324.5,-88"/>
<text text-anchor="start" x="332.5" y="-106" font-family="Helvetica,sans-Serif" font-size="10.00">pocketmine\level\Level</text>
<text text-anchor="middle" x="387" y="-95" font-family="Helvetica,sans-Serif" font-size="10.00">\setBlock</text>
</a>
</g>
</g>
<!-- Node5&#45;&gt;Node6 -->
<g id="edge5" class="edge"><title>Node5&#45;&gt;Node6</title>
<path fill="none" stroke="midnightblue" d="M298.061,-103C306.822,-103 315.712,-103 324.304,-103"/>
<polygon fill="midnightblue" stroke="midnightblue" points="297.86,-99.5001 287.86,-103 297.86,-106.5 297.86,-99.5001"/>
</g>
<!-- Node6&#45;&gt;Node7 -->
<g id="edge6" class="edge"><title>Node6&#45;&gt;Node7</title>
<path fill="none" stroke="midnightblue" d="M459.775,-93.1309C468.629,-91.9135 477.619,-90.6774 486.304,-89.4832"/>
<polygon fill="midnightblue" stroke="midnightblue" points="459.29,-89.6646 449.86,-94.4942 460.244,-96.5993 459.29,-89.6646"/>
</g>
</g>
</svg>
