<?xml version="1.0" encoding="UTF-8" standalone="no"?>
<!DOCTYPE svg PUBLIC "-//W3C//DTD SVG 1.1//EN"
 "http://www.w3.org/Graphics/SVG/1.1/DTD/svg11.dtd">
<!-- Generated by graphviz version 2.26.3 (20100126.1600)
 -->
<!-- Title: pocketmine\level\Level\removeTile Pages: 1 -->
<svg width="288pt" height="146pt"
 viewBox="0.00 0.00 288.00 146.00" xmlns="http://www.w3.org/2000/svg" xmlns:xlink="http://www.w3.org/1999/xlink">
<g id="graph1" class="graph" transform="scale(1 1) rotate(0) translate(4 142)">
<title>pocketmine\level\Level\removeTile</title>
<polygon fill="white" stroke="white" points="-4,5 -4,-142 285,-142 285,5 -4,5"/>
<!-- Node1 -->
<g id="node1" class="node"><title>Node1</title>
<polygon fill="#bfbfbf" stroke="black" points="0,-52 0,-86 116,-86 116,-52 0,-52"/>
<text text-anchor="start" x="8" y="-73" font-family="Helvetica,sans-Serif" font-size="10.00">pocketmine\level\Level</text>
<text text-anchor="middle" x="58" y="-60" font-family="Helvetica,sans-Serif" font-size="10.00">\removeTile</text>
</g>
<!-- Node2 -->
<g id="node3" class="node"><title>Node2</title>
<a xlink:href="../../d3/d4b/classpocketmine_1_1level_1_1_level.html#a07cfdb965d8af5b865c2f468d3dc9f2e" target="_top" xlink:title="pocketmine\\level\\Level\l\\getChunkAt">
<polygon fill="white" stroke="black" points="158,-104 158,-138 274,-138 274,-104 158,-104"/>
<text text-anchor="start" x="166" y="-125" font-family="Helvetica,sans-Serif" font-size="10.00">pocketmine\level\Level</text>
<text text-anchor="middle" x="216" y="-112" font-family="Helvetica,sans-Serif" font-size="10.00">\getChunkAt</text>
</a>
</g>
<!-- Node1&#45;&gt;Node2 -->
<g id="edge2" class="edge"><title>Node1&#45;&gt;Node2</title>
<path fill="none" stroke="midnightblue" d="M109.735,-86.0267C124.058,-90.7405 139.743,-95.9027 154.56,-100.779"/>
<polygon fill="midnightblue" stroke="midnightblue" points="153.556,-104.133 164.149,-103.935 155.744,-97.4842 153.556,-104.133"/>
</g>
<!-- Node3 -->
<g id="node5" class="node"><title>Node3</title>
<a xlink:href="../../db/d9b/classpocketmine_1_1level_1_1_position.html#ae667e74646ed1b8d04db126265d75955" target="_top" xlink:title="pocketmine\\level\\Position\l\\getLevel">
<polygon fill="white" stroke="black" points="152,-52 152,-86 280,-86 280,-52 152,-52"/>
<text text-anchor="start" x="160" y="-73" font-family="Helvetica,sans-Serif" font-size="10.00">pocketmine\level\Position</text>
<text text-anchor="middle" x="216" y="-60" font-family="Helvetica,sans-Serif" font-size="10.00">\getLevel</text>
</a>
</g>
<!-- Node1&#45;&gt;Node3 -->
<g id="edge4" class="edge"><title>Node1&#45;&gt;Node3</title>
<path fill="none" stroke="midnightblue" d="M116.384,-69C124.571,-69 133.076,-69 141.512,-69"/>
<polygon fill="midnightblue" stroke="midnightblue" points="141.742,-72.5001 151.742,-69 141.742,-65.5001 141.742,-72.5001"/>
</g>
<!-- Node4 -->
<g id="node7" class="node"><title>Node4</title>
<a xlink:href="../../d3/d4b/classpocketmine_1_1level_1_1_level.html#ad7b3b356b1f5bbc2f1ba6b13127d9a7c" target="_top" xlink:title="pocketmine\\level\\Level\l\\isChunkLoaded">
<polygon fill="white" stroke="black" points="158,-0 158,-34 274,-34 274,-0 158,-0"/>
<text text-anchor="start" x="166" y="-21" font-family="Helvetica,sans-Serif" font-size="10.00">pocketmine\level\Level</text>
<text text-anchor="middle" x="216" y="-8" font-family="Helvetica,sans-Serif" font-size="10.00">\isChunkLoaded</text>
</a>
</g>
<!-- Node1&#45;&gt;Node4 -->
<g id="edge6" class="edge"><title>Node1&#45;&gt;Node4</title>
<path fill="none" stroke="midnightblue" d="M109.735,-51.9733C124.058,-47.2595 139.743,-42.0973 154.56,-37.2207"/>
<polygon fill="midnightblue" stroke="midnightblue" points="155.744,-40.5158 164.149,-34.065 153.556,-33.8667 155.744,-40.5158"/>
</g>
</g>
</svg>
