<?xml version="1.0" encoding="UTF-8" standalone="no"?>
<!DOCTYPE svg PUBLIC "-//W3C//DTD SVG 1.1//EN"
 "http://www.w3.org/Graphics/SVG/1.1/DTD/svg11.dtd">
<!-- Generated by graphviz version 2.26.3 (20100126.1600)
 -->
<!-- Title: pocketmine\level\Level\getBlock Pages: 1 -->
<svg width="298pt" height="82pt"
 viewBox="0.00 0.00 298.00 82.00" xmlns="http://www.w3.org/2000/svg" xmlns:xlink="http://www.w3.org/1999/xlink">
<g id="graph1" class="graph" transform="scale(1 1) rotate(0) translate(4 78)">
<title>pocketmine\level\Level\getBlock</title>
<polygon fill="white" stroke="white" points="-4,5 -4,-78 295,-78 295,5 -4,5"/>
<!-- Node1 -->
<g id="node1" class="node"><title>Node1</title>
<polygon fill="#bfbfbf" stroke="black" points="0,-23 0,-57 116,-57 116,-23 0,-23"/>
<text text-anchor="start" x="8" y="-44" font-family="Helvetica,sans-Serif" font-size="10.00">pocketmine\level\Level</text>
<text text-anchor="middle" x="58" y="-31" font-family="Helvetica,sans-Serif" font-size="10.00">\getBlock</text>
</g>
<!-- Node2 -->
<g id="node3" class="node"><title>Node2</title>
<a xlink:href="../../d7/d27/classpocketmine_1_1block_1_1_block.html#ad1a33ab24f0c7cd9d0de92c13a516a8b" target="_top" xlink:title="pocketmine\\block\\Block\\get">
<polygon fill="white" stroke="black" points="152.5,-52.5 152.5,-73.5 289.5,-73.5 289.5,-52.5 152.5,-52.5"/>
<text text-anchor="middle" x="221" y="-60.5" font-family="Helvetica,sans-Serif" font-size="10.00">pocketmine\block\Block\get</text>
</a>
</g>
<!-- Node1&#45;&gt;Node2 -->
<g id="edge2" class="edge"><title>Node1&#45;&gt;Node2</title>
<path fill="none" stroke="midnightblue" d="M116.386,-48.2386C124.882,-49.4373 133.743,-50.6876 142.556,-51.9312"/>
<polygon fill="midnightblue" stroke="midnightblue" points="142.073,-55.3976 152.464,-53.3292 143.051,-48.4663 142.073,-55.3976"/>
</g>
<!-- Node3 -->
<g id="node5" class="node"><title>Node3</title>
<a xlink:href="../../d3/d4b/classpocketmine_1_1level_1_1_level.html#a07cfdb965d8af5b865c2f468d3dc9f2e" target="_top" xlink:title="pocketmine\\level\\Level\l\\getChunkAt">
<polygon fill="white" stroke="black" points="163,-0 163,-34 279,-34 279,-0 163,-0"/>
<text text-anchor="start" x="171" y="-21" font-family="Helvetica,sans-Serif" font-size="10.00">pocketmine\level\Level</text>
<text text-anchor="middle" x="221" y="-8" font-family="Helvetica,sans-Serif" font-size="10.00">\getChunkAt</text>
</a>
</g>
<!-- Node1&#45;&gt;Node3 -->
<g id="edge4" class="edge"><title>Node1&#45;&gt;Node3</title>
<path fill="none" stroke="midnightblue" d="M116.386,-31.7614C128.162,-30.0999 140.639,-28.3392 152.719,-26.6348"/>
<polygon fill="midnightblue" stroke="midnightblue" points="153.335,-30.0826 162.748,-25.2197 152.357,-23.1513 153.335,-30.0826"/>
</g>
</g>
</svg>
