<?xml version="1.0" encoding="UTF-8" standalone="no"?>
<!DOCTYPE svg PUBLIC "-//W3C//DTD SVG 1.1//EN"
 "http://www.w3.org/Graphics/SVG/1.1/DTD/svg11.dtd">
<!-- Generated by graphviz version 2.26.3 (20100126.1600)
 -->
<!-- Title: pocketmine\level\Level\getHighestBlockAt Pages: 1 -->
<svg width="428pt" height="146pt"
 viewBox="0.00 0.00 428.00 146.00" xmlns="http://www.w3.org/2000/svg" xmlns:xlink="http://www.w3.org/1999/xlink">
<g id="graph1" class="graph" transform="scale(1 1) rotate(0) translate(4 142)">
<title>pocketmine\level\Level\getHighestBlockAt</title>
<polygon fill="white" stroke="white" points="-4,5 -4,-142 425,-142 425,5 -4,5"/>
<!-- Node1 -->
<g id="node1" class="node"><title>Node1</title>
<polygon fill="#bfbfbf" stroke="black" points="0,-52 0,-86 116,-86 116,-52 0,-52"/>
<text text-anchor="start" x="8" y="-73" font-family="Helvetica,sans-Serif" font-size="10.00">pocketmine\level\Level</text>
<text text-anchor="middle" x="58" y="-60" font-family="Helvetica,sans-Serif" font-size="10.00">\getHighestBlockAt</text>
</g>
<!-- Node2 -->
<g id="node3" class="node"><title>Node2</title>
<a xlink:href="../../d3/d4b/classpocketmine_1_1level_1_1_level.html#a07cfdb965d8af5b865c2f468d3dc9f2e" target="_top" xlink:title="pocketmine\\level\\Level\l\\getChunkAt">
<polygon fill="white" stroke="black" points="152,-104 152,-138 268,-138 268,-104 152,-104"/>
<text text-anchor="start" x="160" y="-125" font-family="Helvetica,sans-Serif" font-size="10.00">pocketmine\level\Level</text>
<text text-anchor="middle" x="210" y="-112" font-family="Helvetica,sans-Serif" font-size="10.00">\getChunkAt</text>
</a>
</g>
<!-- Node1&#45;&gt;Node2 -->
<g id="edge2" class="edge"><title>Node1&#45;&gt;Node2</title>
<path fill="none" stroke="midnightblue" d="M107.77,-86.0267C121.418,-90.6956 136.351,-95.8044 150.486,-100.64"/>
<polygon fill="midnightblue" stroke="midnightblue" points="149.523,-104.01 160.118,-103.935 151.789,-97.3865 149.523,-104.01"/>
</g>
<!-- Node3 -->
<g id="node5" class="node"><title>Node3</title>
<a xlink:href="../../d3/d4b/classpocketmine_1_1level_1_1_level.html#ad7b3b356b1f5bbc2f1ba6b13127d9a7c" target="_top" xlink:title="pocketmine\\level\\Level\l\\isChunkLoaded">
<polygon fill="white" stroke="black" points="152,-52 152,-86 268,-86 268,-52 152,-52"/>
<text text-anchor="start" x="160" y="-73" font-family="Helvetica,sans-Serif" font-size="10.00">pocketmine\level\Level</text>
<text text-anchor="middle" x="210" y="-60" font-family="Helvetica,sans-Serif" font-size="10.00">\isChunkLoaded</text>
</a>
</g>
<!-- Node1&#45;&gt;Node3 -->
<g id="edge4" class="edge"><title>Node1&#45;&gt;Node3</title>
<path fill="none" stroke="midnightblue" d="M116.332,-69C124.606,-69 133.175,-69 141.617,-69"/>
<polygon fill="midnightblue" stroke="midnightblue" points="141.824,-72.5001 151.824,-69 141.824,-65.5001 141.824,-72.5001"/>
</g>
<!-- Node4 -->
<g id="node7" class="node"><title>Node4</title>
<a xlink:href="../../d3/d4b/classpocketmine_1_1level_1_1_level.html#a14d16fe7983d9afe9ea3daf4e5a1b9f5" target="_top" xlink:title="pocketmine\\level\\Level\l\\loadChunk">
<polygon fill="white" stroke="black" points="152,-0 152,-34 268,-34 268,-0 152,-0"/>
<text text-anchor="start" x="160" y="-21" font-family="Helvetica,sans-Serif" font-size="10.00">pocketmine\level\Level</text>
<text text-anchor="middle" x="210" y="-8" font-family="Helvetica,sans-Serif" font-size="10.00">\loadChunk</text>
</a>
</g>
<!-- Node1&#45;&gt;Node4 -->
<g id="edge6" class="edge"><title>Node1&#45;&gt;Node4</title>
<path fill="none" stroke="midnightblue" d="M107.77,-51.9733C121.418,-47.3044 136.351,-42.1956 150.486,-37.3601"/>
<polygon fill="midnightblue" stroke="midnightblue" points="151.789,-40.6135 160.118,-34.065 149.523,-33.9904 151.789,-40.6135"/>
</g>
<!-- Node5 -->
<g id="node9" class="node"><title>Node5</title>
<a xlink:href="../../d3/d4b/classpocketmine_1_1level_1_1_level.html#a4be83538c608928a193884ea26010d96" target="_top" xlink:title="pocketmine\\level\\Level\l\\chunkHash">
<polygon fill="white" stroke="black" points="304,-0 304,-34 420,-34 420,-0 304,-0"/>
<text text-anchor="start" x="312" y="-21" font-family="Helvetica,sans-Serif" font-size="10.00">pocketmine\level\Level</text>
<text text-anchor="middle" x="362" y="-8" font-family="Helvetica,sans-Serif" font-size="10.00">\chunkHash</text>
</a>
</g>
<!-- Node4&#45;&gt;Node5 -->
<g id="edge8" class="edge"><title>Node4&#45;&gt;Node5</title>
<path fill="none" stroke="midnightblue" d="M268.332,-17C276.606,-17 285.175,-17 293.617,-17"/>
<polygon fill="midnightblue" stroke="midnightblue" points="293.824,-20.5001 303.824,-17 293.824,-13.5001 293.824,-20.5001"/>
</g>
</g>
</svg>
