<?xml version="1.0" encoding="UTF-8" standalone="no"?>
<!DOCTYPE svg PUBLIC "-//W3C//DTD SVG 1.1//EN"
 "http://www.w3.org/Graphics/SVG/1.1/DTD/svg11.dtd">
<!-- Generated by graphviz version 2.36.0 (20140111.2315)
 -->
<!-- Title: pocketmine\level\Level\sendTime Pages: 1 -->
<svg width="458pt" height="131pt"
 viewBox="0.00 0.00 458.00 131.00" xmlns="http://www.w3.org/2000/svg" xmlns:xlink="http://www.w3.org/1999/xlink">
<g id="graph0" class="graph" transform="scale(1 1) rotate(0) translate(4 127)">
<title>pocketmine\level\Level\sendTime</title>
<polygon fill="white" stroke="none" points="-4,4 -4,-127 454,-127 454,4 -4,4"/>
<!-- Node1 -->
<g id="node1" class="node"><title>Node1</title>
<polygon fill="#bfbfbf" stroke="black" points="0.5,-27 0.5,-57 125.5,-57 125.5,-27 0.5,-27"/>
<text text-anchor="start" x="8.5" y="-45" font-family="Helvetica,sans-Serif" font-size="10.00">pocketmine\level\Level</text>
<text text-anchor="middle" x="63" y="-34" font-family="Helvetica,sans-Serif" font-size="10.00">\sendTime</text>
</g>
<!-- Node2 -->
<g id="node2" class="node"><title>Node2</title>
<g id="a_node2"><a xlink:href="../../d3/d4b/classpocketmine_1_1level_1_1_level.html#ac2855c606dec3107ace36c3bd073b953" target="_top" xlink:title="pocketmine\\level\\Level\l\\setTime">
<polygon fill="white" stroke="black" points="162.5,-93 162.5,-123 287.5,-123 287.5,-93 162.5,-93"/>
<text text-anchor="start" x="170.5" y="-111" font-family="Helvetica,sans-Serif" font-size="10.00">pocketmine\level\Level</text>
<text text-anchor="middle" x="225" y="-100" font-family="Helvetica,sans-Serif" font-size="10.00">\setTime</text>
</a>
</g>
</g>
<!-- Node1&#45;&gt;Node2 -->
<g id="edge1" class="edge"><title>Node1&#45;&gt;Node2</title>
<path fill="none" stroke="midnightblue" d="M110.186,-61.0517C134.751,-71.1848 164.529,-83.4682 187.464,-92.9287"/>
<polygon fill="midnightblue" stroke="midnightblue" points="111.286,-57.7196 100.707,-57.1417 108.617,-64.1906 111.286,-57.7196"/>
</g>
<!-- Node3 -->
<g id="node3" class="node"><title>Node3</title>
<g id="a_node3"><a xlink:href="../../d3/d4b/classpocketmine_1_1level_1_1_level.html#ad56d6a8573f596fddea712bdb171f866" target="_top" xlink:title="pocketmine\\level\\Level\l\\startTime">
<polygon fill="white" stroke="black" points="324.5,-49 324.5,-79 449.5,-79 449.5,-49 324.5,-49"/>
<text text-anchor="start" x="332.5" y="-67" font-family="Helvetica,sans-Serif" font-size="10.00">pocketmine\level\Level</text>
<text text-anchor="middle" x="387" y="-56" font-family="Helvetica,sans-Serif" font-size="10.00">\startTime</text>
</a>
</g>
</g>
<!-- Node1&#45;&gt;Node3 -->
<g id="edge2" class="edge"><title>Node1&#45;&gt;Node3</title>
<path fill="none" stroke="midnightblue" d="M136.005,-46.9196C192.564,-50.7839 270.489,-56.1079 324.231,-59.7798"/>
<polygon fill="midnightblue" stroke="midnightblue" points="135.919,-43.4057 125.704,-46.2158 135.442,-50.3894 135.919,-43.4057"/>
</g>
<!-- Node4 -->
<g id="node4" class="node"><title>Node4</title>
<g id="a_node4"><a xlink:href="../../d3/d4b/classpocketmine_1_1level_1_1_level.html#a44ce0ab1d94a790f2f3a02c7ff70ca83" target="_top" xlink:title="pocketmine\\level\\Level\l\\stopTime">
<polygon fill="white" stroke="black" points="162.5,-5 162.5,-35 287.5,-35 287.5,-5 162.5,-5"/>
<text text-anchor="start" x="170.5" y="-23" font-family="Helvetica,sans-Serif" font-size="10.00">pocketmine\level\Level</text>
<text text-anchor="middle" x="225" y="-12" font-family="Helvetica,sans-Serif" font-size="10.00">\stopTime</text>
</a>
</g>
</g>
<!-- Node1&#45;&gt;Node4 -->
<g id="edge3" class="edge"><title>Node1&#45;&gt;Node4</title>
<path fill="none" stroke="midnightblue" d="M135.49,-25.4542C144.502,-24.1427 153.659,-22.9266 162.497,-21.8696"/>
<polygon fill="midnightblue" stroke="midnightblue" points="134.771,-22.023 125.403,-26.9719 135.812,-28.945 134.771,-22.023"/>
</g>
<!-- Node4&#45;&gt;Node1 -->
<g id="edge5" class="edge"><title>Node4&#45;&gt;Node1</title>
<path fill="none" stroke="midnightblue" d="M152.588,-36.5345C143.672,-37.8326 134.613,-39.0376 125.86,-40.0876"/>
<polygon fill="midnightblue" stroke="midnightblue" points="153.2,-39.9818 162.568,-35.0326 152.158,-33.0598 153.2,-39.9818"/>
</g>
<!-- Node4&#45;&gt;Node3 -->
<g id="edge6" class="edge"><title>Node4&#45;&gt;Node3</title>
<path fill="none" stroke="midnightblue" d="M290.374,-37.7029C303.961,-41.4392 318.173,-45.3475 331.359,-48.9738"/>
<polygon fill="midnightblue" stroke="midnightblue" points="291.186,-34.2962 280.615,-35.0192 289.329,-41.0456 291.186,-34.2962"/>
</g>
<!-- Node5 -->
<g id="node5" class="node"><title>Node5</title>
<g id="a_node5"><a xlink:href="../../d3/d4b/classpocketmine_1_1level_1_1_level.html#a1079deee151083b7da76d8dd57f5b2ef" target="_top" xlink:title="pocketmine\\level\\Level\l\\checkTime">
<polygon fill="white" stroke="black" points="324.5,-0 324.5,-30 449.5,-30 449.5,-0 324.5,-0"/>
<text text-anchor="start" x="332.5" y="-18" font-family="Helvetica,sans-Serif" font-size="10.00">pocketmine\level\Level</text>
<text text-anchor="middle" x="387" y="-7" font-family="Helvetica,sans-Serif" font-size="10.00">\checkTime</text>
</a>
</g>
</g>
<!-- Node4&#45;&gt;Node5 -->
<g id="edge4" class="edge"><title>Node4&#45;&gt;Node5</title>
<path fill="none" stroke="midnightblue" d="M298.061,-17.7481C306.822,-17.4743 315.712,-17.1965 324.304,-16.928"/>
<polygon fill="midnightblue" stroke="midnightblue" points="297.746,-14.2561 287.86,-18.0669 297.965,-21.2527 297.746,-14.2561"/>
</g>
</g>
</svg>
