<?xml version="1.0" encoding="UTF-8" standalone="no"?>
<!DOCTYPE svg PUBLIC "-//W3C//DTD SVG 1.1//EN"
 "http://www.w3.org/Graphics/SVG/1.1/DTD/svg11.dtd">
<!-- Generated by graphviz version 2.36.0 (20140111.2315)
 -->
<!-- Title: pocketmine\level\Level\getSeed Pages: 1 -->
<svg width="326pt" height="109pt"
 viewBox="0.00 0.00 326.00 109.00" xmlns="http://www.w3.org/2000/svg" xmlns:xlink="http://www.w3.org/1999/xlink">
<g id="graph0" class="graph" transform="scale(1 1) rotate(0) translate(4 105)">
<title>pocketmine\level\Level\getSeed</title>
<polygon fill="white" stroke="none" points="-4,4 -4,-105 322,-105 322,4 -4,4"/>
<!-- Node1 -->
<g id="node1" class="node"><title>Node1</title>
<polygon fill="#bfbfbf" stroke="black" points="0.5,-35 0.5,-65 125.5,-65 125.5,-35 0.5,-35"/>
<text text-anchor="start" x="8.5" y="-53" font-family="Helvetica,sans-Serif" font-size="10.00">pocketmine\level\Level</text>
<text text-anchor="middle" x="63" y="-42" font-family="Helvetica,sans-Serif" font-size="10.00">\getSeed</text>
</g>
<!-- Node2 -->
<g id="node2" class="node"><title>Node2</title>
<g id="a_node2"><a xlink:href="../../d4/dc0/classpocketmine_1_1level_1_1generator_1_1_generation_request_manager.html#aa0213bc69d54b594d7501b1de5137552" target="_top" xlink:title="pocketmine\\level\\generator\l\\GenerationRequestManager\l\\openLevel">
<polygon fill="white" stroke="black" points="163.5,-59.5 163.5,-100.5 316.5,-100.5 316.5,-59.5 163.5,-59.5"/>
<text text-anchor="start" x="171.5" y="-88.5" font-family="Helvetica,sans-Serif" font-size="10.00">pocketmine\level\generator</text>
<text text-anchor="start" x="171.5" y="-77.5" font-family="Helvetica,sans-Serif" font-size="10.00">\GenerationRequestManager</text>
<text text-anchor="middle" x="240" y="-66.5" font-family="Helvetica,sans-Serif" font-size="10.00">\openLevel</text>
</a>
</g>
</g>
<!-- Node1&#45;&gt;Node2 -->
<g id="edge1" class="edge"><title>Node1&#45;&gt;Node2</title>
<path fill="none" stroke="midnightblue" d="M135.558,-62.267C144.75,-63.8429 154.185,-65.4603 163.439,-67.0467"/>
<polygon fill="midnightblue" stroke="midnightblue" points="136.146,-58.8169 125.698,-60.5769 134.963,-65.7163 136.146,-58.8169"/>
</g>
<!-- Node3 -->
<g id="node3" class="node"><title>Node3</title>
<g id="a_node3"><a xlink:href="../../d5/db2/classpocketmine_1_1level_1_1generator_1_1_generation_instance_manager.html#a0f2d3d78ba341ad899a8d16a2fad8933" target="_top" xlink:title="pocketmine\\level\\generator\l\\GenerationInstanceManager\l\\openLevel">
<polygon fill="white" stroke="black" points="162.5,0.5 162.5,-40.5 317.5,-40.5 317.5,0.5 162.5,0.5"/>
<text text-anchor="start" x="170.5" y="-28.5" font-family="Helvetica,sans-Serif" font-size="10.00">pocketmine\level\generator</text>
<text text-anchor="start" x="170.5" y="-17.5" font-family="Helvetica,sans-Serif" font-size="10.00">\GenerationInstanceManager</text>
<text text-anchor="middle" x="240" y="-6.5" font-family="Helvetica,sans-Serif" font-size="10.00">\openLevel</text>
</a>
</g>
</g>
<!-- Node1&#45;&gt;Node3 -->
<g id="edge2" class="edge"><title>Node1&#45;&gt;Node3</title>
<path fill="none" stroke="midnightblue" d="M135.804,-37.6908C144.514,-36.1975 153.44,-34.6675 162.219,-33.1625"/>
<polygon fill="midnightblue" stroke="midnightblue" points="134.963,-34.2837 125.698,-39.4231 136.146,-41.1831 134.963,-34.2837"/>
</g>
</g>
</svg>
