<?xml version="1.0" encoding="UTF-8" standalone="no"?>
<!DOCTYPE svg PUBLIC "-//W3C//DTD SVG 1.1//EN"
 "http://www.w3.org/Graphics/SVG/1.1/DTD/svg11.dtd">
<!-- Generated by graphviz version 2.36.0 (20140111.2315)
 -->
<!-- Title: pocketmine\level\Level\unload Pages: 1 -->
<svg width="296pt" height="87pt"
 viewBox="0.00 0.00 296.00 87.00" xmlns="http://www.w3.org/2000/svg" xmlns:xlink="http://www.w3.org/1999/xlink">
<g id="graph0" class="graph" transform="scale(1 1) rotate(0) translate(4 83)">
<title>pocketmine\level\Level\unload</title>
<polygon fill="white" stroke="none" points="-4,4 -4,-83 292,-83 292,4 -4,4"/>
<!-- Node1 -->
<g id="node1" class="node"><title>Node1</title>
<polygon fill="#bfbfbf" stroke="black" points="0.5,-24 0.5,-54 125.5,-54 125.5,-24 0.5,-24"/>
<text text-anchor="start" x="8.5" y="-42" font-family="Helvetica,sans-Serif" font-size="10.00">pocketmine\level\Level</text>
<text text-anchor="middle" x="63" y="-31" font-family="Helvetica,sans-Serif" font-size="10.00">\unload</text>
</g>
<!-- Node2 -->
<g id="node2" class="node"><title>Node2</title>
<g id="a_node2"><a xlink:href="../../d3/d4b/classpocketmine_1_1level_1_1_level.html#a9fb97a07c57210eb1c727e008096754b" target="_top" xlink:title="pocketmine\\level\\Level\l\\getName">
<polygon fill="white" stroke="black" points="162.5,-49 162.5,-79 287.5,-79 287.5,-49 162.5,-49"/>
<text text-anchor="start" x="170.5" y="-67" font-family="Helvetica,sans-Serif" font-size="10.00">pocketmine\level\Level</text>
<text text-anchor="middle" x="225" y="-56" font-family="Helvetica,sans-Serif" font-size="10.00">\getName</text>
</a>
</g>
</g>
<!-- Node1&#45;&gt;Node2 -->
<g id="edge1" class="edge"><title>Node1&#45;&gt;Node2</title>
<path fill="none" stroke="midnightblue" d="M125.86,-48.6657C134.549,-50.0234 143.54,-51.4282 152.392,-52.8113"/>
<polygon fill="midnightblue" stroke="midnightblue" points="151.884,-56.2742 162.304,-54.3601 152.965,-49.3582 151.884,-56.2742"/>
</g>
<!-- Node3 -->
<g id="node3" class="node"><title>Node3</title>
<g id="a_node3"><a xlink:href="../../d3/d4b/classpocketmine_1_1level_1_1_level.html#aba3e58e49b52026c29df0fa1a61998fd" target="_top" xlink:title="pocketmine\\level\\Level\l\\getPlayers">
<polygon fill="white" stroke="black" points="162.5,-0 162.5,-30 287.5,-30 287.5,-0 162.5,-0"/>
<text text-anchor="start" x="170.5" y="-18" font-family="Helvetica,sans-Serif" font-size="10.00">pocketmine\level\Level</text>
<text text-anchor="middle" x="225" y="-7" font-family="Helvetica,sans-Serif" font-size="10.00">\getPlayers</text>
</a>
</g>
</g>
<!-- Node1&#45;&gt;Node3 -->
<g id="edge2" class="edge"><title>Node1&#45;&gt;Node3</title>
<path fill="none" stroke="midnightblue" d="M125.86,-29.721C134.549,-28.4176 143.54,-27.069 152.392,-25.7411"/>
<polygon fill="midnightblue" stroke="midnightblue" points="152.934,-29.1991 162.304,-24.2543 151.896,-22.2766 152.934,-29.1991"/>
</g>
</g>
</svg>
