<?xml version="1.0" encoding="UTF-8" standalone="no"?>
<!DOCTYPE svg PUBLIC "-//W3C//DTD SVG 1.1//EN"
 "http://www.w3.org/Graphics/SVG/1.1/DTD/svg11.dtd">
<!-- Generated by graphviz version 2.26.3 (20100126.1600)
 -->
<!-- Title: pocketmine\level\Level\isChunkLoaded Pages: 1 -->
<svg width="428pt" height="347pt"
 viewBox="0.00 0.00 428.00 347.00" xmlns="http://www.w3.org/2000/svg" xmlns:xlink="http://www.w3.org/1999/xlink">
<g id="graph1" class="graph" transform="scale(1 1) rotate(0) translate(4 343)">
<title>pocketmine\level\Level\isChunkLoaded</title>
<polygon fill="white" stroke="white" points="-4,5 -4,-343 425,-343 425,5 -4,5"/>
<!-- Node1 -->
<g id="node1" class="node"><title>Node1</title>
<polygon fill="#bfbfbf" stroke="black" points="0,-156 0,-190 116,-190 116,-156 0,-156"/>
<text text-anchor="start" x="8" y="-177" font-family="Helvetica,sans-Serif" font-size="10.00">pocketmine\level\Level</text>
<text text-anchor="middle" x="58" y="-164" font-family="Helvetica,sans-Serif" font-size="10.00">\isChunkLoaded</text>
</g>
<!-- Node2 -->
<g id="node3" class="node"><title>Node2</title>
<a xlink:href="../../d3/d4b/classpocketmine_1_1level_1_1_level.html#a55b9ba03563413447dbc7ce5962e33fd" target="_top" xlink:title="pocketmine\\level\\Level\l\\getCollidingEntities">
<polygon fill="white" stroke="black" points="152,-260 152,-294 268,-294 268,-260 152,-260"/>
<text text-anchor="start" x="160" y="-281" font-family="Helvetica,sans-Serif" font-size="10.00">pocketmine\level\Level</text>
<text text-anchor="middle" x="210" y="-268" font-family="Helvetica,sans-Serif" font-size="10.00">\getCollidingEntities</text>
</a>
</g>
<!-- Node1&#45;&gt;Node2 -->
<g id="edge2" class="edge"><title>Node1&#45;&gt;Node2</title>
<path fill="none" stroke="midnightblue" d="M83.3756,-197.309C101.509,-213.838 127.024,-235.445 152,-251 157.058,-254.15 162.563,-257.128 168.101,-259.867"/>
<polygon fill="midnightblue" stroke="midnightblue" points="85.3104,-194.331 75.5919,-190.112 80.5581,-199.471 85.3104,-194.331"/>
</g>
<!-- Node3 -->
<g id="node5" class="node"><title>Node3</title>
<a xlink:href="../../d3/d4b/classpocketmine_1_1level_1_1_level.html#a54ad629d27b7091b1c830fe33c00ed15" target="_top" xlink:title="pocketmine\\level\\Level\l\\getCollisionCubes">
<polygon fill="white" stroke="black" points="304,-305 304,-339 420,-339 420,-305 304,-305"/>
<text text-anchor="start" x="312" y="-326" font-family="Helvetica,sans-Serif" font-size="10.00">pocketmine\level\Level</text>
<text text-anchor="middle" x="362" y="-313" font-family="Helvetica,sans-Serif" font-size="10.00">\getCollisionCubes</text>
</a>
</g>
<!-- Node1&#45;&gt;Node3 -->
<g id="edge10" class="edge"><title>Node1&#45;&gt;Node3</title>
<path fill="none" stroke="midnightblue" d="M68.8561,-199.421C83.0199,-230.145 110.939,-279.627 152,-303 198.13,-329.259 259.375,-331.867 303.813,-329.192"/>
<polygon fill="midnightblue" stroke="midnightblue" points="72.0008,-197.879 64.7415,-190.161 65.6039,-200.721 72.0008,-197.879"/>
</g>
<!-- Node5 -->
<g id="node9" class="node"><title>Node5</title>
<a xlink:href="../../d3/d4b/classpocketmine_1_1level_1_1_level.html#ab2c4e6d8e0a05a5f42e83fe0e49ba0b4" target="_top" xlink:title="pocketmine\\level\\Level\l\\getCollisionBlocks">
<polygon fill="white" stroke="black" points="152,-208 152,-242 268,-242 268,-208 152,-208"/>
<text text-anchor="start" x="160" y="-229" font-family="Helvetica,sans-Serif" font-size="10.00">pocketmine\level\Level</text>
<text text-anchor="middle" x="210" y="-216" font-family="Helvetica,sans-Serif" font-size="10.00">\getCollisionBlocks</text>
</a>
</g>
<!-- Node1&#45;&gt;Node5 -->
<g id="edge8" class="edge"><title>Node1&#45;&gt;Node5</title>
<path fill="none" stroke="midnightblue" d="M117.399,-193.321C131.528,-198.154 146.463,-203.264 160.118,-207.935"/>
<polygon fill="midnightblue" stroke="midnightblue" points="118.365,-189.952 107.77,-190.027 116.099,-196.575 118.365,-189.952"/>
</g>
<!-- Node6 -->
<g id="node12" class="node"><title>Node6</title>
<a xlink:href="../../d3/d4b/classpocketmine_1_1level_1_1_level.html#a0121fa5b1a8c8f022e633dcc9507a5e5" target="_top" xlink:title="pocketmine\\level\\Level\l\\getHighestBlockAt">
<polygon fill="white" stroke="black" points="152,-156 152,-190 268,-190 268,-156 152,-156"/>
<text text-anchor="start" x="160" y="-177" font-family="Helvetica,sans-Serif" font-size="10.00">pocketmine\level\Level</text>
<text text-anchor="middle" x="210" y="-164" font-family="Helvetica,sans-Serif" font-size="10.00">\getHighestBlockAt</text>
</a>
</g>
<!-- Node1&#45;&gt;Node6 -->
<g id="edge12" class="edge"><title>Node1&#45;&gt;Node6</title>
<path fill="none" stroke="midnightblue" d="M126.542,-173C134.986,-173 143.554,-173 151.824,-173"/>
<polygon fill="midnightblue" stroke="midnightblue" points="126.332,-169.5 116.332,-173 126.332,-176.5 126.332,-169.5"/>
</g>
<!-- Node7 -->
<g id="node14" class="node"><title>Node7</title>
<a xlink:href="../../d3/d4b/classpocketmine_1_1level_1_1_level.html#a69273b11463bd557e0aab505e2847891" target="_top" xlink:title="pocketmine\\level\\Level\l\\getNearbyEntities">
<polygon fill="white" stroke="black" points="152,-104 152,-138 268,-138 268,-104 152,-104"/>
<text text-anchor="start" x="160" y="-125" font-family="Helvetica,sans-Serif" font-size="10.00">pocketmine\level\Level</text>
<text text-anchor="middle" x="210" y="-112" font-family="Helvetica,sans-Serif" font-size="10.00">\getNearbyEntities</text>
</a>
</g>
<!-- Node1&#45;&gt;Node7 -->
<g id="edge14" class="edge"><title>Node1&#45;&gt;Node7</title>
<path fill="none" stroke="midnightblue" d="M117.399,-152.679C131.528,-147.846 146.463,-142.736 160.118,-138.065"/>
<polygon fill="midnightblue" stroke="midnightblue" points="116.099,-149.425 107.77,-155.973 118.365,-156.048 116.099,-149.425"/>
</g>
<!-- Node8 -->
<g id="node16" class="node"><title>Node8</title>
<a xlink:href="../../d3/d4b/classpocketmine_1_1level_1_1_level.html#a8f95a1e0b2d1b6149796ab3b292a0f82" target="_top" xlink:title="pocketmine\\level\\Level\l\\removeEntity">
<polygon fill="white" stroke="black" points="152,-52 152,-86 268,-86 268,-52 152,-52"/>
<text text-anchor="start" x="160" y="-73" font-family="Helvetica,sans-Serif" font-size="10.00">pocketmine\level\Level</text>
<text text-anchor="middle" x="210" y="-60" font-family="Helvetica,sans-Serif" font-size="10.00">\removeEntity</text>
</a>
</g>
<!-- Node1&#45;&gt;Node8 -->
<g id="edge16" class="edge"><title>Node1&#45;&gt;Node8</title>
<path fill="none" stroke="midnightblue" d="M83.3756,-148.691C101.509,-132.162 127.024,-110.555 152,-95 157.058,-91.8498 162.563,-88.8717 168.101,-86.1332"/>
<polygon fill="midnightblue" stroke="midnightblue" points="80.5581,-146.529 75.5919,-155.888 85.3104,-151.669 80.5581,-146.529"/>
</g>
<!-- Node9 -->
<g id="node18" class="node"><title>Node9</title>
<a xlink:href="../../d3/d4b/classpocketmine_1_1level_1_1_level.html#a499d934fb79794d440b83f7e5ad18a1b" target="_top" xlink:title="pocketmine\\level\\Level\l\\removeTile">
<polygon fill="white" stroke="black" points="152,-0 152,-34 268,-34 268,-0 152,-0"/>
<text text-anchor="start" x="160" y="-21" font-family="Helvetica,sans-Serif" font-size="10.00">pocketmine\level\Level</text>
<text text-anchor="middle" x="210" y="-8" font-family="Helvetica,sans-Serif" font-size="10.00">\removeTile</text>
</a>
</g>
<!-- Node1&#45;&gt;Node9 -->
<g id="edge18" class="edge"><title>Node1&#45;&gt;Node9</title>
<path fill="none" stroke="midnightblue" d="M71.5866,-146.557C87.501,-117.799 116.289,-72.0611 152,-43 156.023,-39.7264 160.523,-36.7785 165.191,-34.1469"/>
<polygon fill="midnightblue" stroke="midnightblue" points="68.3691,-145.149 66.6917,-155.611 74.5266,-148.479 68.3691,-145.149"/>
</g>
<!-- Node2&#45;&gt;Node3 -->
<g id="edge4" class="edge"><title>Node2&#45;&gt;Node3</title>
<path fill="none" stroke="midnightblue" d="M277.228,-296.903C286.31,-299.592 295.561,-302.331 304.454,-304.963"/>
<polygon fill="midnightblue" stroke="midnightblue" points="278.047,-293.495 267.465,-294.013 276.06,-300.207 278.047,-293.495"/>
</g>
<!-- Node4 -->
<g id="node7" class="node"><title>Node4</title>
<a xlink:href="../../d3/d4b/classpocketmine_1_1level_1_1_level.html#a3346679b5fe84b0fb3ae4bc27d99e18f" target="_top" xlink:title="pocketmine\\level\\Level\l\\useItemOn">
<polygon fill="white" stroke="black" points="304,-253 304,-287 420,-287 420,-253 304,-253"/>
<text text-anchor="start" x="312" y="-274" font-family="Helvetica,sans-Serif" font-size="10.00">pocketmine\level\Level</text>
<text text-anchor="middle" x="362" y="-261" font-family="Helvetica,sans-Serif" font-size="10.00">\useItemOn</text>
</a>
</g>
<!-- Node2&#45;&gt;Node4 -->
<g id="edge6" class="edge"><title>Node2&#45;&gt;Node4</title>
<path fill="none" stroke="midnightblue" d="M278.542,-273.843C286.986,-273.455 295.554,-273.06 303.824,-272.679"/>
<polygon fill="midnightblue" stroke="midnightblue" points="278.161,-270.357 268.332,-274.314 278.483,-277.35 278.161,-270.357"/>
</g>
</g>
</svg>
