<?xml version="1.0" encoding="UTF-8" standalone="no"?>
<!DOCTYPE svg PUBLIC "-//W3C//DTD SVG 1.1//EN"
 "http://www.w3.org/Graphics/SVG/1.1/DTD/svg11.dtd">
<!-- Generated by graphviz version 2.36.0 (20140111.2315)
 -->
<!-- Title: pocketmine\level\Level\setBlock Pages: 1 -->
<svg width="976pt" height="531pt"
 viewBox="0.00 0.00 976.00 531.48" xmlns="http://www.w3.org/2000/svg" xmlns:xlink="http://www.w3.org/1999/xlink">
<g id="graph0" class="graph" transform="scale(1 1) rotate(0) translate(4 527.479)">
<title>pocketmine\level\Level\setBlock</title>
<polygon fill="white" stroke="none" points="-4,4 -4,-527.479 972,-527.479 972,4 -4,4"/>
<!-- Node1 -->
<g id="node1" class="node"><title>Node1</title>
<polygon fill="#bfbfbf" stroke="black" points="0.5,-244.479 0.5,-274.479 125.5,-274.479 125.5,-244.479 0.5,-244.479"/>
<text text-anchor="start" x="8.5" y="-262.479" font-family="Helvetica,sans-Serif" font-size="10.00">pocketmine\level\Level</text>
<text text-anchor="middle" x="63" y="-251.479" font-family="Helvetica,sans-Serif" font-size="10.00">\setBlock</text>
</g>
<!-- Node2 -->
<g id="node2" class="node"><title>Node2</title>
<g id="a_node2"><a xlink:href="../../d5/df7/classpocketmine_1_1_server.html#a3f4968a94dbe06c71c5649fd1dd41e7f" target="_top" xlink:title="pocketmine\\Server\\broadcast\lPacket">
<polygon fill="white" stroke="black" points="162,-493.479 162,-523.479 320,-523.479 320,-493.479 162,-493.479"/>
<text text-anchor="start" x="170" y="-511.479" font-family="Helvetica,sans-Serif" font-size="10.00">pocketmine\Server\broadcast</text>
<text text-anchor="middle" x="241" y="-500.479" font-family="Helvetica,sans-Serif" font-size="10.00">Packet</text>
</a>
</g>
</g>
<!-- Node1&#45;&gt;Node2 -->
<g id="edge1" class="edge"><title>Node1&#45;&gt;Node2</title>
<path fill="none" stroke="midnightblue" d="M66.6277,-274.523C74.2152,-313.614 99.7213,-419.452 162,-478.479 166.015,-482.284 170.564,-485.621 175.398,-488.546"/>
<polygon fill="midnightblue" stroke="midnightblue" points="173.893,-491.71 184.357,-493.375 177.215,-485.549 173.893,-491.71"/>
</g>
<!-- Node3 -->
<g id="node3" class="node"><title>Node3</title>
<g id="a_node3"><a xlink:href="../../d3/d4b/classpocketmine_1_1level_1_1_level.html#a4be83538c608928a193884ea26010d96" target="_top" xlink:title="pocketmine\\level\\Level\l\\chunkHash">
<polygon fill="white" stroke="black" points="842.5,-220.479 842.5,-250.479 967.5,-250.479 967.5,-220.479 842.5,-220.479"/>
<text text-anchor="start" x="850.5" y="-238.479" font-family="Helvetica,sans-Serif" font-size="10.00">pocketmine\level\Level</text>
<text text-anchor="middle" x="905" y="-227.479" font-family="Helvetica,sans-Serif" font-size="10.00">\chunkHash</text>
</a>
</g>
</g>
<!-- Node1&#45;&gt;Node3 -->
<g id="edge2" class="edge"><title>Node1&#45;&gt;Node3</title>
<path fill="none" stroke="midnightblue" d="M67.7895,-274.714C77.1883,-309.007 105.039,-392.24 162,-430.479 257.295,-494.452 303.223,-464.479 418,-464.479 418,-464.479 418,-464.479 582,-464.479 722.937,-464.479 845.052,-316.983 887.781,-258.737"/>
<polygon fill="midnightblue" stroke="midnightblue" points="890.709,-260.661 893.725,-250.505 885.033,-256.563 890.709,-260.661"/>
</g>
<!-- Node4 -->
<g id="node4" class="node"><title>Node4</title>
<g id="a_node4"><a xlink:href="../../d3/d4b/classpocketmine_1_1level_1_1_level.html#ab5808e52f13dfe100b837c94216af011" target="_top" xlink:title="pocketmine\\level\\Level\l\\getChunk">
<polygon fill="white" stroke="black" points="518.5,-253.479 518.5,-283.479 643.5,-283.479 643.5,-253.479 518.5,-253.479"/>
<text text-anchor="start" x="526.5" y="-271.479" font-family="Helvetica,sans-Serif" font-size="10.00">pocketmine\level\Level</text>
<text text-anchor="middle" x="581" y="-260.479" font-family="Helvetica,sans-Serif" font-size="10.00">\getChunk</text>
</a>
</g>
</g>
<!-- Node1&#45;&gt;Node4 -->
<g id="edge3" class="edge"><title>Node1&#45;&gt;Node4</title>
<path fill="none" stroke="midnightblue" d="M68.7275,-274.761C79.4103,-306.287 108.725,-377.968 162,-406.479 301.247,-481.002 488.078,-345.272 554.922,-290.186"/>
<polygon fill="midnightblue" stroke="midnightblue" points="557.396,-292.68 562.827,-283.583 552.909,-287.307 557.396,-292.68"/>
</g>
<!-- Node6 -->
<g id="node6" class="node"><title>Node6</title>
<g id="a_node6"><a xlink:href="../../d7/d27/classpocketmine_1_1block_1_1_block.html#ac29adb1329728b321a335ca75011db89" target="_top" xlink:title="pocketmine\\block\\Block\l\\getDamage">
<polygon fill="white" stroke="black" points="176.5,-367.479 176.5,-397.479 305.5,-397.479 305.5,-367.479 176.5,-367.479"/>
<text text-anchor="start" x="184.5" y="-385.479" font-family="Helvetica,sans-Serif" font-size="10.00">pocketmine\block\Block</text>
<text text-anchor="middle" x="241" y="-374.479" font-family="Helvetica,sans-Serif" font-size="10.00">\getDamage</text>
</a>
</g>
</g>
<!-- Node1&#45;&gt;Node6 -->
<g id="edge7" class="edge"><title>Node1&#45;&gt;Node6</title>
<path fill="none" stroke="midnightblue" d="M75.2855,-274.656C91.969,-296.073 125.232,-335.049 162,-357.479 165.386,-359.545 168.96,-361.457 172.64,-363.225"/>
<polygon fill="midnightblue" stroke="midnightblue" points="171.401,-366.503 181.964,-367.326 174.22,-360.096 171.401,-366.503"/>
</g>
<!-- Node7 -->
<g id="node7" class="node"><title>Node7</title>
<g id="a_node7"><a xlink:href="../../d3/d4b/classpocketmine_1_1level_1_1_level.html#af35c952cc99fd10302526c86b8639bc8" target="_top" xlink:title="pocketmine\\level\\Level\l\\getId">
<polygon fill="white" stroke="black" points="178.5,-318.479 178.5,-348.479 303.5,-348.479 303.5,-318.479 178.5,-318.479"/>
<text text-anchor="start" x="186.5" y="-336.479" font-family="Helvetica,sans-Serif" font-size="10.00">pocketmine\level\Level</text>
<text text-anchor="middle" x="241" y="-325.479" font-family="Helvetica,sans-Serif" font-size="10.00">\getId</text>
</a>
</g>
</g>
<!-- Node1&#45;&gt;Node7 -->
<g id="edge8" class="edge"><title>Node1&#45;&gt;Node7</title>
<path fill="none" stroke="midnightblue" d="M91.3553,-274.577C110.726,-284.914 137.514,-298.502 162,-308.479 167.704,-310.803 173.71,-313.056 179.754,-315.196"/>
<polygon fill="midnightblue" stroke="midnightblue" points="178.649,-318.517 189.243,-318.46 180.925,-311.898 178.649,-318.517"/>
</g>
<!-- Node8 -->
<g id="node8" class="node"><title>Node8</title>
<g id="a_node8"><a xlink:href="../../d7/d27/classpocketmine_1_1block_1_1_block.html#a125996d0c5e53c6fe56708b09036472d" target="_top" xlink:title="pocketmine\\block\\Block\l\\getId">
<polygon fill="white" stroke="black" points="176.5,-269.479 176.5,-299.479 305.5,-299.479 305.5,-269.479 176.5,-269.479"/>
<text text-anchor="start" x="184.5" y="-287.479" font-family="Helvetica,sans-Serif" font-size="10.00">pocketmine\block\Block</text>
<text text-anchor="middle" x="241" y="-276.479" font-family="Helvetica,sans-Serif" font-size="10.00">\getId</text>
</a>
</g>
</g>
<!-- Node1&#45;&gt;Node8 -->
<g id="edge9" class="edge"><title>Node1&#45;&gt;Node8</title>
<path fill="none" stroke="midnightblue" d="M125.556,-268.223C138.669,-270.086 152.645,-272.071 166.164,-273.991"/>
<polygon fill="midnightblue" stroke="midnightblue" points="165.997,-277.503 176.39,-275.444 166.982,-270.572 165.997,-277.503"/>
</g>
<!-- Node9 -->
<g id="node9" class="node"><title>Node9</title>
<g id="a_node9"><a xlink:href="../../d3/d4b/classpocketmine_1_1level_1_1_level.html#a69273b11463bd557e0aab505e2847891" target="_top" xlink:title="pocketmine\\level\\Level\l\\getNearbyEntities">
<polygon fill="white" stroke="black" points="178.5,-220.479 178.5,-250.479 303.5,-250.479 303.5,-220.479 178.5,-220.479"/>
<text text-anchor="start" x="186.5" y="-238.479" font-family="Helvetica,sans-Serif" font-size="10.00">pocketmine\level\Level</text>
<text text-anchor="middle" x="241" y="-227.479" font-family="Helvetica,sans-Serif" font-size="10.00">\getNearbyEntities</text>
</a>
</g>
</g>
<!-- Node1&#45;&gt;Node9 -->
<g id="edge10" class="edge"><title>Node1&#45;&gt;Node9</title>
<path fill="none" stroke="midnightblue" d="M125.556,-251.085C139.356,-249.203 154.112,-247.191 168.284,-245.259"/>
<polygon fill="midnightblue" stroke="midnightblue" points="169.043,-248.688 178.478,-243.869 168.097,-241.752 169.043,-248.688"/>
</g>
<!-- Node11 -->
<g id="node11" class="node"><title>Node11</title>
<g id="a_node11"><a xlink:href="../../d3/d4b/classpocketmine_1_1level_1_1_level.html#a8a83e3d60970bb4a06f400fc1220511a" target="_top" xlink:title="pocketmine\\level\\Level\l\\getUsingChunk">
<polygon fill="white" stroke="black" points="518.5,-176.479 518.5,-206.479 643.5,-206.479 643.5,-176.479 518.5,-176.479"/>
<text text-anchor="start" x="526.5" y="-194.479" font-family="Helvetica,sans-Serif" font-size="10.00">pocketmine\level\Level</text>
<text text-anchor="middle" x="581" y="-183.479" font-family="Helvetica,sans-Serif" font-size="10.00">\getUsingChunk</text>
</a>
</g>
</g>
<!-- Node1&#45;&gt;Node11 -->
<g id="edge13" class="edge"><title>Node1&#45;&gt;Node11</title>
<path fill="none" stroke="midnightblue" d="M87.8941,-244.323C107.103,-233.01 135.211,-218.366 162,-211.479 280.376,-181.047 423.686,-181.975 508.036,-186.189"/>
<polygon fill="midnightblue" stroke="midnightblue" points="508.106,-189.697 518.277,-186.731 508.476,-182.707 508.106,-189.697"/>
</g>
<!-- Node12 -->
<g id="node12" class="node"><title>Node12</title>
<g id="a_node12"><a xlink:href="../../d7/d27/classpocketmine_1_1block_1_1_block.html#a049a07e777098c8895339554696376c5" target="_top" xlink:title="pocketmine\\block\\Block\l\\position">
<polygon fill="white" stroke="black" points="176.5,-132.479 176.5,-162.479 305.5,-162.479 305.5,-132.479 176.5,-132.479"/>
<text text-anchor="start" x="184.5" y="-150.479" font-family="Helvetica,sans-Serif" font-size="10.00">pocketmine\block\Block</text>
<text text-anchor="middle" x="241" y="-139.479" font-family="Helvetica,sans-Serif" font-size="10.00">\position</text>
</a>
</g>
</g>
<!-- Node1&#45;&gt;Node12 -->
<g id="edge15" class="edge"><title>Node1&#45;&gt;Node12</title>
<path fill="none" stroke="midnightblue" d="M78.7445,-244.411C96.9469,-226.492 129.498,-196.608 162,-177.479 168.934,-173.398 176.524,-169.678 184.16,-166.353"/>
<polygon fill="midnightblue" stroke="midnightblue" points="185.561,-169.561 193.456,-162.496 182.878,-163.095 185.561,-169.561"/>
</g>
<!-- Node13 -->
<g id="node13" class="node"><title>Node13</title>
<g id="a_node13"><a xlink:href="../../df/d32/classpocketmine_1_1utils_1_1_cache.html#a6651d7cbb7a251b26bb018e28df44004" target="_top" xlink:title="pocketmine\\utils\\Cache\l\\remove">
<polygon fill="white" stroke="black" points="177,-83.4792 177,-113.479 305,-113.479 305,-83.4792 177,-83.4792"/>
<text text-anchor="start" x="185" y="-101.479" font-family="Helvetica,sans-Serif" font-size="10.00">pocketmine\utils\Cache</text>
<text text-anchor="middle" x="241" y="-90.4792" font-family="Helvetica,sans-Serif" font-size="10.00">\remove</text>
</a>
</g>
</g>
<!-- Node1&#45;&gt;Node13 -->
<g id="edge16" class="edge"><title>Node1&#45;&gt;Node13</title>
<path fill="none" stroke="midnightblue" d="M70.7699,-244.226C84.0947,-215.949 116.439,-155.294 162,-122.479 164.062,-120.994 166.218,-119.599 168.445,-118.289"/>
<polygon fill="midnightblue" stroke="midnightblue" points="170.092,-121.378 177.335,-113.646 166.851,-115.173 170.092,-121.378"/>
</g>
<!-- Node14 -->
<g id="node14" class="node"><title>Node14</title>
<g id="a_node14"><a xlink:href="../../d2/d90/classpocketmine_1_1math_1_1_vector3.html#ae276f35969617a7f8a6b623e7e00f1c5" target="_top" xlink:title="pocketmine\\math\\Vector3\l\\setComponents">
<polygon fill="white" stroke="black" points="170.5,-34.4792 170.5,-64.4792 311.5,-64.4792 311.5,-34.4792 170.5,-34.4792"/>
<text text-anchor="start" x="178.5" y="-52.4792" font-family="Helvetica,sans-Serif" font-size="10.00">pocketmine\math\Vector3</text>
<text text-anchor="middle" x="241" y="-41.4792" font-family="Helvetica,sans-Serif" font-size="10.00">\setComponents</text>
</a>
</g>
</g>
<!-- Node1&#45;&gt;Node14 -->
<g id="edge17" class="edge"><title>Node1&#45;&gt;Node14</title>
<path fill="none" stroke="midnightblue" d="M67.6652,-244.424C77.0374,-209.138 105.239,-120.535 162,-73.4792 163.554,-72.1907 165.177,-70.9712 166.856,-69.8171"/>
<polygon fill="midnightblue" stroke="midnightblue" points="168.86,-72.6974 175.663,-64.5746 165.28,-66.6826 168.86,-72.6974"/>
</g>
<!-- Node15 -->
<g id="node15" class="node"><title>Node15</title>
<g id="a_node15"><a xlink:href="../../d3/d4b/classpocketmine_1_1level_1_1_level.html#a60f0a9e93625494e1d47bc9fb75c9b38" target="_top" xlink:title="pocketmine\\level\\Level\l\\updateAround">
<polygon fill="white" stroke="black" points="356.5,-26.4792 356.5,-56.4792 481.5,-56.4792 481.5,-26.4792 356.5,-26.4792"/>
<text text-anchor="start" x="364.5" y="-44.4792" font-family="Helvetica,sans-Serif" font-size="10.00">pocketmine\level\Level</text>
<text text-anchor="middle" x="419" y="-33.4792" font-family="Helvetica,sans-Serif" font-size="10.00">\updateAround</text>
</a>
</g>
</g>
<!-- Node1&#45;&gt;Node15 -->
<g id="edge18" class="edge"><title>Node1&#45;&gt;Node15</title>
<path fill="none" stroke="midnightblue" d="M64.8732,-244.43C68.2944,-201.114 84.7542,-75.9596 162,-24.4792 225.288,17.699 318.038,-3.94996 372.794,-23.0464"/>
<polygon fill="midnightblue" stroke="midnightblue" points="371.637,-26.3497 382.231,-26.4442 374.008,-19.7635 371.637,-26.3497"/>
</g>
<!-- Node4&#45;&gt;Node3 -->
<g id="edge4" class="edge"><title>Node4&#45;&gt;Node3</title>
<path fill="none" stroke="midnightblue" d="M643.62,-269.306C688.784,-269.111 751.468,-267.173 806,-259.479 817.403,-257.87 829.412,-255.505 840.964,-252.878"/>
<polygon fill="midnightblue" stroke="midnightblue" points="842.044,-256.219 850.972,-250.514 840.435,-249.407 842.044,-256.219"/>
</g>
<!-- Node5 -->
<g id="node5" class="node"><title>Node5</title>
<g id="a_node5"><a xlink:href="../../d3/d4b/classpocketmine_1_1level_1_1_level.html#a14d16fe7983d9afe9ea3daf4e5a1b9f5" target="_top" xlink:title="pocketmine\\level\\Level\l\\loadChunk">
<polygon fill="white" stroke="black" points="680.5,-220.479 680.5,-250.479 805.5,-250.479 805.5,-220.479 680.5,-220.479"/>
<text text-anchor="start" x="688.5" y="-238.479" font-family="Helvetica,sans-Serif" font-size="10.00">pocketmine\level\Level</text>
<text text-anchor="middle" x="743" y="-227.479" font-family="Helvetica,sans-Serif" font-size="10.00">\loadChunk</text>
</a>
</g>
</g>
<!-- Node4&#45;&gt;Node5 -->
<g id="edge5" class="edge"><title>Node4&#45;&gt;Node5</title>
<path fill="none" stroke="midnightblue" d="M643.86,-255.721C652.549,-253.928 661.54,-252.074 670.392,-250.248"/>
<polygon fill="midnightblue" stroke="midnightblue" points="671.217,-253.652 680.304,-248.204 669.803,-246.796 671.217,-253.652"/>
</g>
<!-- Node5&#45;&gt;Node3 -->
<g id="edge6" class="edge"><title>Node5&#45;&gt;Node3</title>
<path fill="none" stroke="midnightblue" d="M805.86,-235.479C814.456,-235.479 823.347,-235.479 832.107,-235.479"/>
<polygon fill="midnightblue" stroke="midnightblue" points="832.304,-238.979 842.304,-235.479 832.304,-231.979 832.304,-238.979"/>
</g>
<!-- Node10 -->
<g id="node10" class="node"><title>Node10</title>
<g id="a_node10"><a xlink:href="../../d3/d4b/classpocketmine_1_1level_1_1_level.html#ad928c92eafa0c724bd3aebea4e1123e3" target="_top" xlink:title="pocketmine\\level\\Level\l\\getChunkEntities">
<polygon fill="white" stroke="black" points="356.5,-231.479 356.5,-261.479 481.5,-261.479 481.5,-231.479 356.5,-231.479"/>
<text text-anchor="start" x="364.5" y="-249.479" font-family="Helvetica,sans-Serif" font-size="10.00">pocketmine\level\Level</text>
<text text-anchor="middle" x="419" y="-238.479" font-family="Helvetica,sans-Serif" font-size="10.00">\getChunkEntities</text>
</a>
</g>
</g>
<!-- Node9&#45;&gt;Node10 -->
<g id="edge11" class="edge"><title>Node9&#45;&gt;Node10</title>
<path fill="none" stroke="midnightblue" d="M303.556,-239.326C317.356,-240.189 332.112,-241.111 346.284,-241.997"/>
<polygon fill="midnightblue" stroke="midnightblue" points="346.28,-245.503 356.478,-242.634 346.716,-238.517 346.28,-245.503"/>
</g>
<!-- Node10&#45;&gt;Node4 -->
<g id="edge12" class="edge"><title>Node10&#45;&gt;Node4</title>
<path fill="none" stroke="midnightblue" d="M481.86,-254.985C490.549,-256.18 499.54,-257.416 508.392,-258.633"/>
<polygon fill="midnightblue" stroke="midnightblue" points="507.921,-262.101 518.304,-259.996 508.874,-255.166 507.921,-262.101"/>
</g>
<!-- Node11&#45;&gt;Node3 -->
<g id="edge14" class="edge"><title>Node11&#45;&gt;Node3</title>
<path fill="none" stroke="midnightblue" d="M643.639,-194.47C688.813,-197.271 751.5,-202.426 806,-211.479 816.716,-213.259 827.992,-215.585 838.926,-218.088"/>
<polygon fill="midnightblue" stroke="midnightblue" points="838.31,-221.539 848.847,-220.426 839.916,-214.726 838.31,-221.539"/>
</g>
<!-- Node16 -->
<g id="node16" class="node"><title>Node16</title>
<g id="a_node16"><a xlink:href="../../d3/d4b/classpocketmine_1_1level_1_1_level.html#a7bffd0c3117ed9c3a4ed4a409a686650" target="_top" xlink:title="pocketmine\\level\\Level\l\\getBlock">
<polygon fill="white" stroke="black" points="680.5,-97.4792 680.5,-127.479 805.5,-127.479 805.5,-97.4792 680.5,-97.4792"/>
<text text-anchor="start" x="688.5" y="-115.479" font-family="Helvetica,sans-Serif" font-size="10.00">pocketmine\level\Level</text>
<text text-anchor="middle" x="743" y="-104.479" font-family="Helvetica,sans-Serif" font-size="10.00">\getBlock</text>
</a>
</g>
</g>
<!-- Node15&#45;&gt;Node16 -->
<g id="edge19" class="edge"><title>Node15&#45;&gt;Node16</title>
<path fill="none" stroke="midnightblue" d="M481.704,-55.0847C535.538,-66.9551 613.673,-84.1836 670.278,-96.6647"/>
<polygon fill="midnightblue" stroke="midnightblue" points="669.712,-100.124 680.231,-98.8594 671.219,-93.2881 669.712,-100.124"/>
</g>
<!-- Node16&#45;&gt;Node3 -->
<g id="edge20" class="edge"><title>Node16&#45;&gt;Node3</title>
<path fill="none" stroke="midnightblue" d="M763.619,-127.561C791.808,-149.232 843.911,-189.286 876.099,-214.031"/>
<polygon fill="midnightblue" stroke="midnightblue" points="874.159,-216.954 884.22,-220.274 878.425,-211.404 874.159,-216.954"/>
</g>
</g>
</svg>
