<?xml version="1.0" encoding="UTF-8" standalone="no"?>
<!DOCTYPE svg PUBLIC "-//W3C//DTD SVG 1.1//EN"
 "http://www.w3.org/Graphics/SVG/1.1/DTD/svg11.dtd">
<!-- Generated by graphviz version 2.26.3 (20100126.1600)
 -->
<!-- Title: pocketmine\level\Level\getFolderName Pages: 1 -->
<svg width="290pt" height="42pt"
 viewBox="0.00 0.00 290.00 42.00" xmlns="http://www.w3.org/2000/svg" xmlns:xlink="http://www.w3.org/1999/xlink">
<g id="graph1" class="graph" transform="scale(1 1) rotate(0) translate(4 38)">
<title>pocketmine\level\Level\getFolderName</title>
<polygon fill="white" stroke="white" points="-4,5 -4,-38 287,-38 287,5 -4,5"/>
<!-- Node1 -->
<g id="node1" class="node"><title>Node1</title>
<polygon fill="#bfbfbf" stroke="black" points="0,-0 0,-34 116,-34 116,-0 0,-0"/>
<text text-anchor="start" x="8" y="-21" font-family="Helvetica,sans-Serif" font-size="10.00">pocketmine\level\Level</text>
<text text-anchor="middle" x="58" y="-8" font-family="Helvetica,sans-Serif" font-size="10.00">\getFolderName</text>
</g>
<!-- Node2 -->
<g id="node3" class="node"><title>Node2</title>
<a xlink:href="../../d5/df7/classpocketmine_1_1_server.html#a1dbad5e1e5f4b5ac16818c5cff4ab85b" target="_top" xlink:title="pocketmine\\Server\\unload\lLevel">
<polygon fill="white" stroke="black" points="152,-0 152,-34 282,-34 282,-0 152,-0"/>
<text text-anchor="start" x="160" y="-21" font-family="Helvetica,sans-Serif" font-size="10.00">pocketmine\Server\unload</text>
<text text-anchor="middle" x="217" y="-8" font-family="Helvetica,sans-Serif" font-size="10.00">Level</text>
</a>
</g>
<!-- Node1&#45;&gt;Node2 -->
<g id="edge2" class="edge"><title>Node1&#45;&gt;Node2</title>
<path fill="none" stroke="midnightblue" d="M126.508,-17C134.965,-17 143.591,-17 151.994,-17"/>
<polygon fill="midnightblue" stroke="midnightblue" points="126.303,-13.5001 116.303,-17 126.303,-20.5001 126.303,-13.5001"/>
</g>
</g>
</svg>
