<?xml version="1.0" encoding="UTF-8" standalone="no"?>
<!DOCTYPE svg PUBLIC "-//W3C//DTD SVG 1.1//EN"
 "http://www.w3.org/Graphics/SVG/1.1/DTD/svg11.dtd">
<!-- Generated by graphviz version 2.26.3 (20100126.1600)
 -->
<!-- Title: pocketmine\command\CommandSender Pages: 1 -->
<svg width="146pt" height="416pt"
 viewBox="0.00 0.00 146.00 416.00" xmlns="http://www.w3.org/2000/svg" xmlns:xlink="http://www.w3.org/1999/xlink">
<g id="graph1" class="graph" transform="scale(1 1) rotate(0) translate(4 412)">
<title>pocketmine\command\CommandSender</title>
<polygon fill="white" stroke="white" points="-4,5 -4,-412 143,-412 143,5 -4,5"/>
<!-- Node1 -->
<g id="node1" class="node"><title>Node1</title>
<polygon fill="#bfbfbf" stroke="black" points="12.5,-1 12.5,-103 125.5,-103 125.5,-1 12.5,-1"/>
<text text-anchor="start" x="20.5" y="-90" font-family="Helvetica,sans-Serif" font-size="10.00">pocketmine\command</text>
<text text-anchor="middle" x="69" y="-77" font-family="Helvetica,sans-Serif" font-size="10.00">\CommandSender</text>
<polyline fill="none" stroke="black" points="12.5,-69 125.5,-69 "/>
<text text-anchor="middle" x="69" y="-56" font-family="Helvetica,sans-Serif" font-size="10.00"> </text>
<polyline fill="none" stroke="black" points="12.5,-48 125.5,-48 "/>
<text text-anchor="start" x="20.5" y="-35" font-family="Helvetica,sans-Serif" font-size="10.00">+ sendMessage()</text>
<text text-anchor="start" x="20.5" y="-22" font-family="Helvetica,sans-Serif" font-size="10.00">+ getServer()</text>
<text text-anchor="start" x="20.5" y="-9" font-family="Helvetica,sans-Serif" font-size="10.00">+ getName()</text>
</g>
<!-- Node2 -->
<g id="node2" class="node"><title>Node2</title>
<a xlink:href="../../de/da0/interfacepocketmine_1_1permission_1_1_permissible.html" target="_top" xlink:title="{pocketmine\\permission\l\\Permissible\n||+ isPermissionSet()\l+ hasPermission()\l+ addAttachment()\l+ removeAttachment()\l+ recalculatePermissions()\l+ getEffectivePermissions()\l}">
<polygon fill="white" stroke="black" points="0,-140.5 0,-281.5 138,-281.5 138,-140.5 0,-140.5"/>
<text text-anchor="start" x="8" y="-268.5" font-family="Helvetica,sans-Serif" font-size="10.00">pocketmine\permission</text>
<text text-anchor="middle" x="69" y="-255.5" font-family="Helvetica,sans-Serif" font-size="10.00">\Permissible</text>
<polyline fill="none" stroke="black" points="0,-247.5 138,-247.5 "/>
<text text-anchor="middle" x="69" y="-234.5" font-family="Helvetica,sans-Serif" font-size="10.00"> </text>
<polyline fill="none" stroke="black" points="0,-226.5 138,-226.5 "/>
<text text-anchor="start" x="8" y="-213.5" font-family="Helvetica,sans-Serif" font-size="10.00">+ isPermissionSet()</text>
<text text-anchor="start" x="8" y="-200.5" font-family="Helvetica,sans-Serif" font-size="10.00">+ hasPermission()</text>
<text text-anchor="start" x="8" y="-187.5" font-family="Helvetica,sans-Serif" font-size="10.00">+ addAttachment()</text>
<text text-anchor="start" x="8" y="-174.5" font-family="Helvetica,sans-Serif" font-size="10.00">+ removeAttachment()</text>
<text text-anchor="start" x="8" y="-161.5" font-family="Helvetica,sans-Serif" font-size="10.00">+ recalculatePermissions()</text>
<text text-anchor="start" x="8" y="-148.5" font-family="Helvetica,sans-Serif" font-size="10.00">+ getEffectivePermissions()</text>
</a>
</g>
<!-- Node2&#45;&gt;Node1 -->
<g id="edge2" class="edge"><title>Node2&#45;&gt;Node1</title>
<path fill="none" stroke="midnightblue" d="M69,-130.089C69,-121.001 69,-111.937 69,-103.374"/>
<polygon fill="none" stroke="midnightblue" points="65.5001,-130.334 69,-140.334 72.5001,-130.334 65.5001,-130.334"/>
</g>
<!-- Node3 -->
<g id="node4" class="node"><title>Node3</title>
<a xlink:href="../../dd/d17/interfacepocketmine_1_1permission_1_1_server_operator.html" target="_top" xlink:title="{pocketmine\\permission\l\\ServerOperator\n||+ isOp()\l+ setOp()\l}">
<polygon fill="white" stroke="black" points="10.5,-318.5 10.5,-407.5 127.5,-407.5 127.5,-318.5 10.5,-318.5"/>
<text text-anchor="start" x="18.5" y="-394.5" font-family="Helvetica,sans-Serif" font-size="10.00">pocketmine\permission</text>
<text text-anchor="middle" x="69" y="-381.5" font-family="Helvetica,sans-Serif" font-size="10.00">\ServerOperator</text>
<polyline fill="none" stroke="black" points="10.5,-373.5 127.5,-373.5 "/>
<text text-anchor="middle" x="69" y="-360.5" font-family="Helvetica,sans-Serif" font-size="10.00"> </text>
<polyline fill="none" stroke="black" points="10.5,-352.5 127.5,-352.5 "/>
<text text-anchor="start" x="18.5" y="-339.5" font-family="Helvetica,sans-Serif" font-size="10.00">+ isOp()</text>
<text text-anchor="start" x="18.5" y="-326.5" font-family="Helvetica,sans-Serif" font-size="10.00">+ setOp()</text>
</a>
</g>
<!-- Node3&#45;&gt;Node2 -->
<g id="edge4" class="edge"><title>Node3&#45;&gt;Node2</title>
<path fill="none" stroke="midnightblue" d="M69,-308.013C69,-299.465 69,-290.532 69,-281.695"/>
<polygon fill="none" stroke="midnightblue" points="65.5001,-308.217 69,-318.217 72.5001,-308.217 65.5001,-308.217"/>
</g>
</g>
</svg>
