<?xml version="1.0" encoding="UTF-8" standalone="no"?>
<!DOCTYPE svg PUBLIC "-//W3C//DTD SVG 1.1//EN"
 "http://www.w3.org/Graphics/SVG/1.1/DTD/svg11.dtd">
<!-- Generated by graphviz version 2.36.0 (20140111.2315)
 -->
<!-- Title: pocketmine\scheduler\Task Pages: 1 -->
<svg width="270pt" height="248pt"
 viewBox="0.00 0.00 270.00 248.00" xmlns="http://www.w3.org/2000/svg" xmlns:xlink="http://www.w3.org/1999/xlink">
<g id="graph0" class="graph" transform="scale(1 1) rotate(0) translate(4 244)">
<title>pocketmine\scheduler\Task</title>
<polygon fill="white" stroke="none" points="-4,4 -4,-244 266,-244 266,4 -4,4"/>
<!-- Node1 -->
<g id="node1" class="node"><title>Node1</title>
<polygon fill="#bfbfbf" stroke="black" points="58,-138.5 58,-239.5 204,-239.5 204,-138.5 58,-138.5"/>
<text text-anchor="middle" x="131" y="-227.5" font-family="Helvetica,sans-Serif" font-size="10.00">pocketmine\scheduler\Task</text>
<polyline fill="none" stroke="black" points="58,-220.5 204,-220.5 "/>
<text text-anchor="middle" x="131" y="-208.5" font-family="Helvetica,sans-Serif" font-size="10.00"> </text>
<polyline fill="none" stroke="black" points="58,-201.5 204,-201.5 "/>
<text text-anchor="start" x="66" y="-189.5" font-family="Helvetica,sans-Serif" font-size="10.00">+ getHandler()</text>
<text text-anchor="start" x="66" y="-178.5" font-family="Helvetica,sans-Serif" font-size="10.00">+ getTaskId()</text>
<text text-anchor="start" x="66" y="-167.5" font-family="Helvetica,sans-Serif" font-size="10.00">+ setHandler()</text>
<text text-anchor="start" x="66" y="-156.5" font-family="Helvetica,sans-Serif" font-size="10.00">+ onRun()</text>
<text text-anchor="start" x="66" y="-145.5" font-family="Helvetica,sans-Serif" font-size="10.00">+ onCancel()</text>
</g>
<!-- Node2 -->
<g id="node2" class="node"><title>Node2</title>
<g id="a_node2"><a xlink:href="../../df/d63/classpocketmine_1_1scheduler_1_1_callback_task.html" target="_top" xlink:title="{pocketmine\\scheduler\l\\CallbackTask\n|# $callable\l# $args\l|+ __construct()\l+ getCallable()\l+ onRun()\l}">
<polygon fill="white" stroke="black" points="0,-0.5 0,-101.5 122,-101.5 122,-0.5 0,-0.5"/>
<text text-anchor="start" x="8" y="-89.5" font-family="Helvetica,sans-Serif" font-size="10.00">pocketmine\scheduler</text>
<text text-anchor="middle" x="61" y="-78.5" font-family="Helvetica,sans-Serif" font-size="10.00">\CallbackTask</text>
<polyline fill="none" stroke="black" points="0,-71.5 122,-71.5 "/>
<text text-anchor="start" x="8" y="-59.5" font-family="Helvetica,sans-Serif" font-size="10.00"># $callable</text>
<text text-anchor="start" x="8" y="-48.5" font-family="Helvetica,sans-Serif" font-size="10.00"># $args</text>
<polyline fill="none" stroke="black" points="0,-41.5 122,-41.5 "/>
<text text-anchor="start" x="8" y="-29.5" font-family="Helvetica,sans-Serif" font-size="10.00">+ __construct()</text>
<text text-anchor="start" x="8" y="-18.5" font-family="Helvetica,sans-Serif" font-size="10.00">+ getCallable()</text>
<text text-anchor="start" x="8" y="-7.5" font-family="Helvetica,sans-Serif" font-size="10.00">+ onRun()</text>
</a>
</g>
</g>
<!-- Node1&#45;&gt;Node2 -->
<g id="edge1" class="edge"><title>Node1&#45;&gt;Node2</title>
<path fill="none" stroke="midnightblue" d="M100.703,-129.138C96.0238,-120.046 91.23,-110.733 86.6648,-101.863"/>
<polygon fill="none" stroke="midnightblue" points="97.6436,-130.841 105.332,-138.131 103.868,-127.638 97.6436,-130.841"/>
</g>
<!-- Node3 -->
<g id="node3" class="node"><title>Node3</title>
<g id="a_node3"><a xlink:href="../../d5/d2e/classpocketmine_1_1scheduler_1_1_plugin_task.html" target="_top" xlink:title="{pocketmine\\scheduler\l\\PluginTask\n|# $owner\l|+ __construct()\l+ getOwner()\l}">
<polygon fill="white" stroke="black" points="140,-11.5 140,-90.5 262,-90.5 262,-11.5 140,-11.5"/>
<text text-anchor="start" x="148" y="-78.5" font-family="Helvetica,sans-Serif" font-size="10.00">pocketmine\scheduler</text>
<text text-anchor="middle" x="201" y="-67.5" font-family="Helvetica,sans-Serif" font-size="10.00">\PluginTask</text>
<polyline fill="none" stroke="black" points="140,-60.5 262,-60.5 "/>
<text text-anchor="start" x="148" y="-48.5" font-family="Helvetica,sans-Serif" font-size="10.00"># $owner</text>
<polyline fill="none" stroke="black" points="140,-41.5 262,-41.5 "/>
<text text-anchor="start" x="148" y="-29.5" font-family="Helvetica,sans-Serif" font-size="10.00">+ __construct()</text>
<text text-anchor="start" x="148" y="-18.5" font-family="Helvetica,sans-Serif" font-size="10.00">+ getOwner()</text>
</a>
</g>
</g>
<!-- Node1&#45;&gt;Node3 -->
<g id="edge2" class="edge"><title>Node1&#45;&gt;Node3</title>
<path fill="none" stroke="midnightblue" d="M161.252,-129.225C167.945,-116.221 174.874,-102.759 181.036,-90.7873"/>
<polygon fill="none" stroke="midnightblue" points="158.132,-127.638 156.668,-138.131 164.356,-130.841 158.132,-127.638"/>
</g>
</g>
</svg>
