<?xml version="1.0" encoding="UTF-8" standalone="no"?>
<!DOCTYPE svg PUBLIC "-//W3C//DTD SVG 1.1//EN"
 "http://www.w3.org/Graphics/SVG/1.1/DTD/svg11.dtd">
<!-- Generated by graphviz version 2.26.3 (20100126.1600)
 -->
<!-- Title: G Pages: 1 -->
<svg width="364pt" height="250pt"
 viewBox="0.00 0.00 364.00 250.00" xmlns="http://www.w3.org/2000/svg" xmlns:xlink="http://www.w3.org/1999/xlink">
<g id="graph1" class="graph" transform="scale(1 1) rotate(0) translate(4 246)">
<title>G</title>
<polygon fill="white" stroke="white" points="-4,5 -4,-246 361,-246 361,5 -4,5"/>
<!-- Node1 -->
<g id="node1" class="node"><title>Node1</title>
<polygon fill="#bfbfbf" stroke="black" points="111.5,-126.5 111.5,-241.5 248.5,-241.5 248.5,-126.5 111.5,-126.5"/>
<text text-anchor="middle" x="180" y="-228.5" font-family="Helvetica,sans-Serif" font-size="10.00">pocketmine\scheduler\Task</text>
<polyline fill="none" stroke="black" points="111.5,-220.5 248.5,-220.5 "/>
<text text-anchor="middle" x="180" y="-207.5" font-family="Helvetica,sans-Serif" font-size="10.00"> </text>
<polyline fill="none" stroke="black" points="111.5,-199.5 248.5,-199.5 "/>
<text text-anchor="start" x="119.5" y="-186.5" font-family="Helvetica,sans-Serif" font-size="10.00">+ getHandler()</text>
<text text-anchor="start" x="119.5" y="-173.5" font-family="Helvetica,sans-Serif" font-size="10.00">+ getTaskId()</text>
<text text-anchor="start" x="119.5" y="-160.5" font-family="Helvetica,sans-Serif" font-size="10.00">+ setHandler()</text>
<text text-anchor="start" x="119.5" y="-147.5" font-family="Helvetica,sans-Serif" font-size="10.00">+ onRun()</text>
<text text-anchor="start" x="119.5" y="-134.5" font-family="Helvetica,sans-Serif" font-size="10.00">+ onCancel()</text>
</g>
<!-- Node2 -->
<g id="node3" class="node"><title>Node2</title>
<a xlink:href="../../df/d63/classpocketmine_1_1scheduler_1_1_callback_task.html" target="_top" xlink:title="{pocketmine\\scheduler\\CallbackTask\n|# $callable\l# $args\l|+ __construct()\l+ onRun()\l}">
<polygon fill="white" stroke="black" points="-0.5,-0.5 -0.5,-89.5 174.5,-89.5 174.5,-0.5 -0.5,-0.5"/>
<text text-anchor="middle" x="87" y="-76.5" font-family="Helvetica,sans-Serif" font-size="10.00">pocketmine\scheduler\CallbackTask</text>
<polyline fill="none" stroke="black" points="-0.5,-68.5 174.5,-68.5 "/>
<text text-anchor="start" x="7.5" y="-55.5" font-family="Helvetica,sans-Serif" font-size="10.00"># $callable</text>
<text text-anchor="start" x="7.5" y="-42.5" font-family="Helvetica,sans-Serif" font-size="10.00"># $args</text>
<polyline fill="none" stroke="black" points="-0.5,-34.5 174.5,-34.5 "/>
<text text-anchor="start" x="7.5" y="-21.5" font-family="Helvetica,sans-Serif" font-size="10.00">+ __construct()</text>
<text text-anchor="start" x="7.5" y="-8.5" font-family="Helvetica,sans-Serif" font-size="10.00">+ onRun()</text>
</a>
</g>
<!-- Node1&#45;&gt;Node2 -->
<g id="edge2" class="edge"><title>Node1&#45;&gt;Node2</title>
<path fill="none" stroke="midnightblue" d="M135.765,-117.886C129.36,-108.312 122.896,-98.6517 116.864,-89.6348"/>
<polygon fill="none" stroke="midnightblue" points="132.898,-119.894 141.368,-126.259 138.716,-116.001 132.898,-119.894"/>
</g>
<!-- Node3 -->
<g id="node5" class="node"><title>Node3</title>
<a xlink:href="../../d5/d2e/classpocketmine_1_1scheduler_1_1_plugin_task.html" target="_top" xlink:title="{pocketmine\\scheduler\\PluginTask\n|# $owner\l|+ __construct()\l+ getOwner()\l}">
<polygon fill="white" stroke="black" points="192,-7 192,-83 356,-83 356,-7 192,-7"/>
<text text-anchor="middle" x="274" y="-70" font-family="Helvetica,sans-Serif" font-size="10.00">pocketmine\scheduler\PluginTask</text>
<polyline fill="none" stroke="black" points="192,-62 356,-62 "/>
<text text-anchor="start" x="200" y="-49" font-family="Helvetica,sans-Serif" font-size="10.00"># $owner</text>
<polyline fill="none" stroke="black" points="192,-41 356,-41 "/>
<text text-anchor="start" x="200" y="-28" font-family="Helvetica,sans-Serif" font-size="10.00">+ __construct()</text>
<text text-anchor="start" x="200" y="-15" font-family="Helvetica,sans-Serif" font-size="10.00">+ getOwner()</text>
</a>
</g>
<!-- Node1&#45;&gt;Node3 -->
<g id="edge4" class="edge"><title>Node1&#45;&gt;Node3</title>
<path fill="none" stroke="midnightblue" d="M224.823,-117.72C232.792,-105.935 240.845,-94.0272 248.062,-83.3546"/>
<polygon fill="none" stroke="midnightblue" points="221.75,-116.015 219.048,-126.259 227.549,-119.936 221.75,-116.015"/>
</g>
</g>
</svg>
