<?xml version="1.0" encoding="UTF-8" standalone="no"?>
<!DOCTYPE svg PUBLIC "-//W3C//DTD SVG 1.1//EN"
 "http://www.w3.org/Graphics/SVG/1.1/DTD/svg11.dtd">
<!-- Generated by graphviz version 2.36.0 (20140111.2315)
 -->
<!-- Title: pocketmine\event\block\BlockSpreadEvent Pages: 1 -->
<!--zoomable 598 -->
<svg id="main" version="1.1" xmlns="http://www.w3.org/2000/svg" xmlns:xlink="http://www.w3.org/1999/xlink" xml:space="preserve" onload="init(evt)">
<style type="text/css"><![CDATA[
.edge:hover path { stroke: red; }
.edge:hover polygon { stroke: red; fill: red; }
]]></style>
<script type="text/javascript"><![CDATA[
var edges = document.getElementsByTagName('g');
if (edges && edges.length) {
  for (var i=0;i<edges.length;i++) {
    if (edges[i].id.substr(0,4)=='edge') {
      edges[i].setAttribute('class','edge');
    }
  }
}
]]></script>
        <defs>
                <circle id="rim" cx="0" cy="0" r="7"/>
                <circle id="rim2" cx="0" cy="0" r="3.5"/>
                <g id="zoomPlus">
                        <use xlink:href="#rim" fill="#404040">
                                <set attributeName="fill" to="#808080" begin="zoomplus.mouseover" end="zoomplus.mouseout"/>
                        </use>
                        <path d="M-4,0h8M0,-4v8" fill="none" stroke="white" stroke-width="1.5" pointer-events="none"/>
                </g>
                <g id="zoomMin">
                        <use xlink:href="#rim" fill="#404040">
                                <set attributeName="fill" to="#808080" begin="zoomminus.mouseover" end="zoomminus.mouseout"/>
                        </use>
                        <path d="M-4,0h8" fill="none" stroke="white" stroke-width="1.5" pointer-events="none"/>
                </g>
                <g id="dirArrow">
                        <path fill="none" stroke="white" stroke-width="1.5" d="M0,-3.0v7 M-2.5,-0.5L0,-3.0L2.5,-0.5"/>
                </g>
               <g id="resetDef">
                       <use xlink:href="#rim2" fill="#404040">
                               <set attributeName="fill" to="#808080" begin="reset.mouseover" end="reset.mouseout"/>
                       </use>
               </g>
        </defs>

<script type="text/javascript">
var viewWidth = 318;
var viewHeight = 598;
var sectionId = 'dynsection-0';
</script>
<script xlink:href="../../svgpan.js"/>
<svg id="graph" class="graph">
<g id="viewport">
<title>pocketmine\event\block\BlockSpreadEvent</title>
<polygon fill="white" stroke="none" points="-4,4 -4,-594 314,-594 314,4 -4,4"/>
<!-- Node1 -->
<g id="node1" class="node"><title>Node1</title>
<polygon fill="#bfbfbf" stroke="black" points="136.5,-0.5 136.5,-101.5 267.5,-101.5 267.5,-0.5 136.5,-0.5"/>
<text text-anchor="start" x="144.5" y="-89.5" font-family="Helvetica,sans-Serif" font-size="10.00">pocketmine\event\block</text>
<text text-anchor="middle" x="202" y="-78.5" font-family="Helvetica,sans-Serif" font-size="10.00">\BlockSpreadEvent</text>
<polyline fill="none" stroke="black" points="136.5,-71.5 267.5,-71.5 "/>
<text text-anchor="start" x="144.5" y="-59.5" font-family="Helvetica,sans-Serif" font-size="10.00">+ $handlerList</text>
<text text-anchor="start" x="144.5" y="-48.5" font-family="Helvetica,sans-Serif" font-size="10.00">+ $eventPool</text>
<text text-anchor="start" x="144.5" y="-37.5" font-family="Helvetica,sans-Serif" font-size="10.00">+ $nextEvent</text>
<polyline fill="none" stroke="black" points="136.5,-30.5 267.5,-30.5 "/>
<text text-anchor="start" x="144.5" y="-18.5" font-family="Helvetica,sans-Serif" font-size="10.00">+ __construct()</text>
<text text-anchor="start" x="144.5" y="-7.5" font-family="Helvetica,sans-Serif" font-size="10.00">+ getSource()</text>
</g>
<!-- Node2 -->
<g id="node2" class="node"><title>Node2</title>
<g id="a_node2"><a xlink:href="../../dc/d51/classpocketmine_1_1event_1_1block_1_1_block_form_event.html" target="_top" xlink:title="{pocketmine\\event\\block\l\\BlockFormEvent\n|+ $handlerList\l+ $eventPool\l+ $nextEvent\l|+ __construct()\l}">
<polygon fill="white" stroke="black" points="89.5,-139 89.5,-229 220.5,-229 220.5,-139 89.5,-139"/>
<text text-anchor="start" x="97.5" y="-217" font-family="Helvetica,sans-Serif" font-size="10.00">pocketmine\event\block</text>
<text text-anchor="middle" x="155" y="-206" font-family="Helvetica,sans-Serif" font-size="10.00">\BlockFormEvent</text>
<polyline fill="none" stroke="black" points="89.5,-199 220.5,-199 "/>
<text text-anchor="start" x="97.5" y="-187" font-family="Helvetica,sans-Serif" font-size="10.00">+ $handlerList</text>
<text text-anchor="start" x="97.5" y="-176" font-family="Helvetica,sans-Serif" font-size="10.00">+ $eventPool</text>
<text text-anchor="start" x="97.5" y="-165" font-family="Helvetica,sans-Serif" font-size="10.00">+ $nextEvent</text>
<polyline fill="none" stroke="black" points="89.5,-158 220.5,-158 "/>
<text text-anchor="start" x="97.5" y="-146" font-family="Helvetica,sans-Serif" font-size="10.00">+ __construct()</text>
</a>
</g>
</g>
<!-- Node2&#45;&gt;Node1 -->
<g id="edge1" class="edge"><title>Node2&#45;&gt;Node1</title>
<path fill="none" stroke="midnightblue" d="M174.374,-128.999C177.615,-119.966 180.964,-110.632 184.164,-101.712"/>
<polygon fill="none" stroke="midnightblue" points="170.995,-128.055 170.912,-138.649 177.584,-130.419 170.995,-128.055"/>
</g>
<!-- Node3 -->
<g id="node3" class="node"><title>Node3</title>
<g id="a_node3"><a xlink:href="../../db/d04/classpocketmine_1_1event_1_1block_1_1_block_grow_event.html" target="_top" xlink:title="{pocketmine\\event\\block\l\\BlockGrowEvent\n|+ $handlerList\l+ $eventPool\l+ $nextEvent\l|+ __construct()\l+ getNewState()\l}">
<polygon fill="white" stroke="black" points="51.5,-266.5 51.5,-367.5 182.5,-367.5 182.5,-266.5 51.5,-266.5"/>
<text text-anchor="start" x="59.5" y="-355.5" font-family="Helvetica,sans-Serif" font-size="10.00">pocketmine\event\block</text>
<text text-anchor="middle" x="117" y="-344.5" font-family="Helvetica,sans-Serif" font-size="10.00">\BlockGrowEvent</text>
<polyline fill="none" stroke="black" points="51.5,-337.5 182.5,-337.5 "/>
<text text-anchor="start" x="59.5" y="-325.5" font-family="Helvetica,sans-Serif" font-size="10.00">+ $handlerList</text>
<text text-anchor="start" x="59.5" y="-314.5" font-family="Helvetica,sans-Serif" font-size="10.00">+ $eventPool</text>
<text text-anchor="start" x="59.5" y="-303.5" font-family="Helvetica,sans-Serif" font-size="10.00">+ $nextEvent</text>
<polyline fill="none" stroke="black" points="51.5,-296.5 182.5,-296.5 "/>
<text text-anchor="start" x="59.5" y="-284.5" font-family="Helvetica,sans-Serif" font-size="10.00">+ __construct()</text>
<text text-anchor="start" x="59.5" y="-273.5" font-family="Helvetica,sans-Serif" font-size="10.00">+ getNewState()</text>
</a>
</g>
</g>
<!-- Node3&#45;&gt;Node2 -->
<g id="edge2" class="edge"><title>Node3&#45;&gt;Node2</title>
<path fill="none" stroke="midnightblue" d="M134.167,-256.82C136.881,-247.465 139.645,-237.935 142.235,-229.005"/>
<polygon fill="none" stroke="midnightblue" points="130.791,-255.895 131.366,-266.475 137.514,-257.846 130.791,-255.895"/>
</g>
<!-- Node4 -->
<g id="node4" class="node"><title>Node4</title>
<g id="a_node4"><a xlink:href="../../df/d69/classpocketmine_1_1event_1_1block_1_1_block_event.html" target="_top" xlink:title="{pocketmine\\event\\block\l\\BlockEvent\n|# $block\l|+ __construct()\l+ getBlock()\l}">
<polygon fill="white" stroke="black" points="0.5,-404.5 0.5,-483.5 131.5,-483.5 131.5,-404.5 0.5,-404.5"/>
<text text-anchor="start" x="8.5" y="-471.5" font-family="Helvetica,sans-Serif" font-size="10.00">pocketmine\event\block</text>
<text text-anchor="middle" x="66" y="-460.5" font-family="Helvetica,sans-Serif" font-size="10.00">\BlockEvent</text>
<polyline fill="none" stroke="black" points="0.5,-453.5 131.5,-453.5 "/>
<text text-anchor="start" x="8.5" y="-441.5" font-family="Helvetica,sans-Serif" font-size="10.00"># $block</text>
<polyline fill="none" stroke="black" points="0.5,-434.5 131.5,-434.5 "/>
<text text-anchor="start" x="8.5" y="-422.5" font-family="Helvetica,sans-Serif" font-size="10.00">+ __construct()</text>
<text text-anchor="start" x="8.5" y="-411.5" font-family="Helvetica,sans-Serif" font-size="10.00">+ getBlock()</text>
</a>
</g>
</g>
<!-- Node4&#45;&gt;Node3 -->
<g id="edge3" class="edge"><title>Node4&#45;&gt;Node3</title>
<path fill="none" stroke="midnightblue" d="M85.5935,-394.977C89.2408,-386.037 93.0588,-376.679 96.7261,-367.691"/>
<polygon fill="none" stroke="midnightblue" points="82.2549,-393.895 81.7178,-404.476 88.7362,-396.539 82.2549,-393.895"/>
</g>
<!-- Node5 -->
<g id="node5" class="node"><title>Node5</title>
<g id="a_node5"><a xlink:href="../../d1/d2f/classpocketmine_1_1event_1_1_event.html" target="_top" xlink:title="{pocketmine\\event\\Event\n|# $eventName\l|+ getEventName()\l+ getHandlers()\l}">
<polygon fill="white" stroke="black" points="-0.5,-521 -0.5,-589 132.5,-589 132.5,-521 -0.5,-521"/>
<text text-anchor="middle" x="66" y="-577" font-family="Helvetica,sans-Serif" font-size="10.00">pocketmine\event\Event</text>
<polyline fill="none" stroke="black" points="-0.5,-570 132.5,-570 "/>
<text text-anchor="start" x="7.5" y="-558" font-family="Helvetica,sans-Serif" font-size="10.00"># $eventName</text>
<polyline fill="none" stroke="black" points="-0.5,-551 132.5,-551 "/>
<text text-anchor="start" x="7.5" y="-539" font-family="Helvetica,sans-Serif" font-size="10.00">+ getEventName()</text>
<text text-anchor="start" x="7.5" y="-528" font-family="Helvetica,sans-Serif" font-size="10.00">+ getHandlers()</text>
</a>
</g>
</g>
<!-- Node5&#45;&gt;Node4 -->
<g id="edge4" class="edge"><title>Node5&#45;&gt;Node4</title>
<path fill="none" stroke="midnightblue" d="M66,-510.575C66,-501.737 66,-492.493 66,-483.827"/>
<polygon fill="none" stroke="midnightblue" points="62.5001,-510.704 66,-520.704 69.5001,-510.704 62.5001,-510.704"/>
</g>
<!-- Node6 -->
<g id="node6" class="node"><title>Node6</title>
<g id="a_node6"><a xlink:href="../../db/d62/interfacepocketmine_1_1event_1_1_cancellable.html" target="_top" xlink:title="{pocketmine\\event\\Cancellable\n||+ isCancelled()\l+ setCancelled()\l}">
<polygon fill="white" stroke="black" points="149.5,-410 149.5,-478 310.5,-478 310.5,-410 149.5,-410"/>
<text text-anchor="middle" x="230" y="-466" font-family="Helvetica,sans-Serif" font-size="10.00">pocketmine\event\Cancellable</text>
<polyline fill="none" stroke="black" points="149.5,-459 310.5,-459 "/>
<text text-anchor="middle" x="230" y="-447" font-family="Helvetica,sans-Serif" font-size="10.00"> </text>
<polyline fill="none" stroke="black" points="149.5,-440 310.5,-440 "/>
<text text-anchor="start" x="157.5" y="-428" font-family="Helvetica,sans-Serif" font-size="10.00">+ isCancelled()</text>
<text text-anchor="start" x="157.5" y="-417" font-family="Helvetica,sans-Serif" font-size="10.00">+ setCancelled()</text>
</a>
</g>
</g>
<!-- Node6&#45;&gt;Node1 -->
<g id="edge7" class="edge"><title>Node6&#45;&gt;Node1</title>
<path fill="none" stroke="midnightblue" d="M233.918,-399.655C238.37,-340.229 243.305,-230.309 229,-138 227.155,-126.092 223.977,-113.568 220.435,-101.874"/>
<polygon fill="none" stroke="midnightblue" points="230.415,-399.556 233.126,-409.798 237.394,-400.101 230.415,-399.556"/>
</g>
<!-- Node6&#45;&gt;Node2 -->
<g id="edge6" class="edge"><title>Node6&#45;&gt;Node2</title>
<path fill="none" stroke="midnightblue" d="M222.963,-399.621C216.488,-363.382 205.665,-310.62 191,-266 187.012,-253.866 181.826,-241.085 176.637,-229.353"/>
<polygon fill="none" stroke="midnightblue" points="219.581,-400.599 224.753,-409.846 226.476,-399.392 219.581,-400.599"/>
</g>
<!-- Node6&#45;&gt;Node3 -->
<g id="edge5" class="edge"><title>Node6&#45;&gt;Node3</title>
<path fill="none" stroke="midnightblue" d="M193.282,-402.382C183.313,-391.355 172.403,-379.287 162.032,-367.814"/>
<polygon fill="none" stroke="midnightblue" points="190.712,-404.759 200.015,-409.83 195.905,-400.065 190.712,-404.759"/>
</g>
</g>
</svg>
        <g id="navigator" transform="translate(0 0)" fill="#404254">
                <rect fill="#f2f5e9" fill-opacity="0.5" stroke="#606060" stroke-width=".5" x="0" y="0" width="60" height="60"/>
                <use id="zoomplus" xlink:href="#zoomPlus" x="17" y="9" onmousedown="handleZoom(evt,'in')"/>
                <use id="zoomminus" xlink:href="#zoomMin" x="42" y="9" onmousedown="handleZoom(evt,'out')"/>
                <use id="reset" xlink:href="#resetDef" x="30" y="36" onmousedown="handleReset()"/>
                <g id="arrowUp" xlink:href="#dirArrow" transform="translate(30 24)" onmousedown="handlePan(0,-1)">
                  <use xlink:href="#rim" fill="#404040">
                        <set attributeName="fill" to="#808080" begin="arrowUp.mouseover" end="arrowUp.mouseout"/>
                  </use>
                  <path fill="none" stroke="white" stroke-width="1.5" d="M0,-3.0v7 M-2.5,-0.5L0,-3.0L2.5,-0.5"/>
                </g>
                <g id="arrowRight" xlink:href="#dirArrow" transform="rotate(90) translate(36 -43)" onmousedown="handlePan(1,0)">
                  <use xlink:href="#rim" fill="#404040">
                        <set attributeName="fill" to="#808080" begin="arrowRight.mouseover" end="arrowRight.mouseout"/>
                  </use>
                  <path fill="none" stroke="white" stroke-width="1.5" d="M0,-3.0v7 M-2.5,-0.5L0,-3.0L2.5,-0.5"/>
                </g>
                <g id="arrowDown" xlink:href="#dirArrow" transform="rotate(180) translate(-30 -48)" onmousedown="handlePan(0,1)">
                  <use xlink:href="#rim" fill="#404040">
                        <set attributeName="fill" to="#808080" begin="arrowDown.mouseover" end="arrowDown.mouseout"/>
                  </use>
                  <path fill="none" stroke="white" stroke-width="1.5" d="M0,-3.0v7 M-2.5,-0.5L0,-3.0L2.5,-0.5"/>
                </g>
                <g id="arrowLeft" xlink:href="#dirArrow" transform="rotate(270) translate(-36 17)" onmousedown="handlePan(-1,0)">
                  <use xlink:href="#rim" fill="#404040">
                        <set attributeName="fill" to="#808080" begin="arrowLeft.mouseover" end="arrowLeft.mouseout"/>
                  </use>
                  <path fill="none" stroke="white" stroke-width="1.5" d="M0,-3.0v7 M-2.5,-0.5L0,-3.0L2.5,-0.5"/>
                </g>
        </g>
        <svg viewBox="0 0 15 15" width="100%" height="30px" preserveAspectRatio="xMaxYMin meet">
         <g id="arrow_out" transform="scale(0.3 0.3)">
          <a xlink:href="classpocketmine_1_1event_1_1block_1_1_block_spread_event__inherit__graph_org.svg" target="_base">
           <rect id="button" ry="5" rx="5" y="6" x="6" height="38" width="38"
                fill="#f2f5e9" fill-opacity="0.5" stroke="#606060" stroke-width="1.0"/>
           <path id="arrow"
             d="M 11.500037,31.436501 C 11.940474,20.09759 22.043105,11.32322 32.158766,21.979434 L 37.068811,17.246167 C 37.068811,17.246167 37.088388,32 37.088388,32 L 22.160133,31.978069 C 22.160133,31.978069 26.997745,27.140456 26.997745,27.140456 C 18.528582,18.264221 13.291696,25.230495 11.500037,31.436501 z"
             style="fill:#404040;"/>
          </a>
         </g>
        </svg>
</svg>
