<?xml version="1.0" encoding="UTF-8" standalone="no"?>
<!DOCTYPE svg PUBLIC "-//W3C//DTD SVG 1.1//EN"
 "http://www.w3.org/Graphics/SVG/1.1/DTD/svg11.dtd">
<!-- Generated by graphviz version 2.36.0 (20140111.2315)
 -->
<!-- Title: pocketmine\permission\PermissionAttachment\setPermission Pages: 1 -->
<svg width="302pt" height="48pt"
 viewBox="0.00 0.00 302.00 48.00" xmlns="http://www.w3.org/2000/svg" xmlns:xlink="http://www.w3.org/1999/xlink">
<g id="graph0" class="graph" transform="scale(1 1) rotate(0) translate(4 44)">
<title>pocketmine\permission\PermissionAttachment\setPermission</title>
<polygon fill="white" stroke="none" points="-4,4 -4,-44 298,-44 298,4 -4,4"/>
<!-- Node1 -->
<g id="node1" class="node"><title>Node1</title>
<polygon fill="#bfbfbf" stroke="black" points="0.5,0.5 0.5,-40.5 129.5,-40.5 129.5,0.5 0.5,0.5"/>
<text text-anchor="start" x="8.5" y="-28.5" font-family="Helvetica,sans-Serif" font-size="10.00">pocketmine\permission</text>
<text text-anchor="start" x="8.5" y="-17.5" font-family="Helvetica,sans-Serif" font-size="10.00">\PermissionAttachment</text>
<text text-anchor="middle" x="65" y="-6.5" font-family="Helvetica,sans-Serif" font-size="10.00">\setPermission</text>
</g>
<!-- Node2 -->
<g id="node2" class="node"><title>Node2</title>
<g id="a_node2"><a xlink:href="../../db/dc3/classpocketmine_1_1permission_1_1_permission.html#a7d2c3cc786d1bba634bb234a8f593a32" target="_top" xlink:title="pocketmine\\permission\l\\Permission\\getName">
<polygon fill="white" stroke="black" points="166,-5 166,-35 294,-35 294,-5 166,-5"/>
<text text-anchor="start" x="174" y="-23" font-family="Helvetica,sans-Serif" font-size="10.00">pocketmine\permission</text>
<text text-anchor="middle" x="230" y="-12" font-family="Helvetica,sans-Serif" font-size="10.00">\Permission\getName</text>
</a>
</g>
</g>
<!-- Node1&#45;&gt;Node2 -->
<g id="edge1" class="edge"><title>Node1&#45;&gt;Node2</title>
<path fill="none" stroke="midnightblue" d="M129.954,-20C138.416,-20 147.143,-20 155.746,-20"/>
<polygon fill="midnightblue" stroke="midnightblue" points="155.765,-23.5001 165.765,-20 155.765,-16.5001 155.765,-23.5001"/>
</g>
</g>
</svg>
