<?xml version="1.0" encoding="UTF-8" standalone="no"?>
<!DOCTYPE svg PUBLIC "-//W3C//DTD SVG 1.1//EN"
 "http://www.w3.org/Graphics/SVG/1.1/DTD/svg11.dtd">
<!-- Generated by graphviz version 2.36.0 (20140111.2315)
 -->
<!-- Title: pocketmine\network\rcon\RCONInstance Pages: 1 -->
<svg width="120pt" height="310pt"
 viewBox="0.00 0.00 120.00 310.00" xmlns="http://www.w3.org/2000/svg" xmlns:xlink="http://www.w3.org/1999/xlink">
<g id="graph0" class="graph" transform="scale(1 1) rotate(0) translate(4 306)">
<title>pocketmine\network\rcon\RCONInstance</title>
<polygon fill="white" stroke="none" points="-4,4 -4,-306 116,-306 116,4 -4,4"/>
<!-- Node1 -->
<g id="node1" class="node"><title>Node1</title>
<polygon fill="#bfbfbf" stroke="black" points="-0.5,-1 -0.5,-113 112.5,-113 112.5,-1 -0.5,-1"/>
<text text-anchor="start" x="7.5" y="-101" font-family="Helvetica,sans-Serif" font-size="10.00">pocketmine\network</text>
<text text-anchor="middle" x="56" y="-90" font-family="Helvetica,sans-Serif" font-size="10.00">\rcon\RCONInstance</text>
<polyline fill="none" stroke="black" points="-0.5,-83 112.5,-83 "/>
<text text-anchor="start" x="7.5" y="-71" font-family="Helvetica,sans-Serif" font-size="10.00">+ $stop</text>
<text text-anchor="start" x="7.5" y="-60" font-family="Helvetica,sans-Serif" font-size="10.00">+ $cmd</text>
<text text-anchor="start" x="7.5" y="-49" font-family="Helvetica,sans-Serif" font-size="10.00">+ $response</text>
<polyline fill="none" stroke="black" points="-0.5,-42 112.5,-42 "/>
<text text-anchor="start" x="7.5" y="-30" font-family="Helvetica,sans-Serif" font-size="10.00">+ __construct()</text>
<text text-anchor="start" x="7.5" y="-19" font-family="Helvetica,sans-Serif" font-size="10.00">+ close()</text>
<text text-anchor="start" x="7.5" y="-8" font-family="Helvetica,sans-Serif" font-size="10.00">+ run()</text>
</g>
<!-- Node2 -->
<g id="node2" class="node"><title>Node2</title>
<g id="a_node2"><a xlink:href="../../d1/d31/classpocketmine_1_1_thread.html" target="_top" xlink:title="{pocketmine\\Thread\n||+ start()\l}">
<polygon fill="white" stroke="black" points="1.5,-150.5 1.5,-207.5 110.5,-207.5 110.5,-150.5 1.5,-150.5"/>
<text text-anchor="middle" x="56" y="-195.5" font-family="Helvetica,sans-Serif" font-size="10.00">pocketmine\Thread</text>
<polyline fill="none" stroke="black" points="1.5,-188.5 110.5,-188.5 "/>
<text text-anchor="middle" x="56" y="-176.5" font-family="Helvetica,sans-Serif" font-size="10.00"> </text>
<polyline fill="none" stroke="black" points="1.5,-169.5 110.5,-169.5 "/>
<text text-anchor="start" x="9.5" y="-157.5" font-family="Helvetica,sans-Serif" font-size="10.00">+ start()</text>
</a>
</g>
</g>
<!-- Node2&#45;&gt;Node1 -->
<g id="edge1" class="edge"><title>Node2&#45;&gt;Node1</title>
<path fill="none" stroke="midnightblue" d="M56,-140.398C56,-131.802 56,-122.49 56,-113.324"/>
<polygon fill="none" stroke="midnightblue" points="52.5001,-140.47 56,-150.47 59.5001,-140.47 52.5001,-140.47"/>
</g>
<!-- Node3 -->
<g id="node3" class="node"><title>Node3</title>
<polygon fill="white" stroke="#bfbfbf" points="31,-244.5 31,-301.5 81,-301.5 81,-244.5 31,-244.5"/>
<text text-anchor="middle" x="56" y="-289.5" font-family="Helvetica,sans-Serif" font-size="10.00">Thread</text>
<polyline fill="none" stroke="#bfbfbf" points="31,-282.5 81,-282.5 "/>
<text text-anchor="middle" x="56" y="-270.5" font-family="Helvetica,sans-Serif" font-size="10.00"> </text>
<polyline fill="none" stroke="#bfbfbf" points="31,-263.5 81,-263.5 "/>
<text text-anchor="middle" x="56" y="-251.5" font-family="Helvetica,sans-Serif" font-size="10.00"> </text>
</g>
<!-- Node3&#45;&gt;Node2 -->
<g id="edge2" class="edge"><title>Node3&#45;&gt;Node2</title>
<path fill="none" stroke="midnightblue" d="M56,-234.209C56,-225.293 56,-215.951 56,-207.584"/>
<polygon fill="none" stroke="midnightblue" points="52.5001,-234.397 56,-244.397 59.5001,-234.397 52.5001,-234.397"/>
</g>
</g>
</svg>
