<?xml version="1.0" encoding="UTF-8" standalone="no"?>
<!DOCTYPE svg PUBLIC "-//W3C//DTD SVG 1.1//EN"
 "http://www.w3.org/Graphics/SVG/1.1/DTD/svg11.dtd">
<!-- Generated by graphviz version 2.36.0 (20140111.2315)
 -->
<!-- Title: pocketmine\scheduler\PluginTask\getOwner Pages: 1 -->
<svg width="496pt" height="87pt"
 viewBox="0.00 0.00 496.00 87.00" xmlns="http://www.w3.org/2000/svg" xmlns:xlink="http://www.w3.org/1999/xlink">
<g id="graph0" class="graph" transform="scale(1 1) rotate(0) translate(4 83)">
<title>pocketmine\scheduler\PluginTask\getOwner</title>
<polygon fill="white" stroke="none" points="-4,4 -4,-83 492,-83 492,4 -4,4"/>
<!-- Node1 -->
<g id="node1" class="node"><title>Node1</title>
<polygon fill="#bfbfbf" stroke="black" points="0,-24 0,-54 122,-54 122,-24 0,-24"/>
<text text-anchor="start" x="8" y="-42" font-family="Helvetica,sans-Serif" font-size="10.00">pocketmine\scheduler</text>
<text text-anchor="middle" x="61" y="-31" font-family="Helvetica,sans-Serif" font-size="10.00">\PluginTask\getOwner</text>
</g>
<!-- Node2 -->
<g id="node2" class="node"><title>Node2</title>
<g id="a_node2"><a xlink:href="../../d3/d25/classpocketmine_1_1scheduler_1_1_server_scheduler.html#ac85de2200030db98a2ff76f29c878c12" target="_top" xlink:title="pocketmine\\scheduler\l\\ServerScheduler\\cancelTasks">
<polygon fill="white" stroke="black" points="158,-49 158,-79 316,-79 316,-49 158,-49"/>
<text text-anchor="start" x="166" y="-67" font-family="Helvetica,sans-Serif" font-size="10.00">pocketmine\scheduler</text>
<text text-anchor="middle" x="237" y="-56" font-family="Helvetica,sans-Serif" font-size="10.00">\ServerScheduler\cancelTasks</text>
</a>
</g>
</g>
<!-- Node1&#45;&gt;Node2 -->
<g id="edge1" class="edge"><title>Node1&#45;&gt;Node2</title>
<path fill="none" stroke="midnightblue" d="M132.477,-49.126C140.869,-50.3317 149.474,-51.5681 157.963,-52.7879"/>
<polygon fill="midnightblue" stroke="midnightblue" points="132.765,-45.6315 122.368,-47.6736 131.769,-52.5603 132.765,-45.6315"/>
</g>
<!-- Node3 -->
<g id="node3" class="node"><title>Node3</title>
<g id="a_node3"><a xlink:href="../../d5/d20/classpocketmine_1_1event_1_1_timings.html#a516830247208d1337a72bd553047339b" target="_top" xlink:title="pocketmine\\event\\Timings\l\\getPluginTaskTimings">
<polygon fill="white" stroke="black" points="165.5,-0 165.5,-30 308.5,-30 308.5,-0 165.5,-0"/>
<text text-anchor="start" x="173.5" y="-18" font-family="Helvetica,sans-Serif" font-size="10.00">pocketmine\event\Timings</text>
<text text-anchor="middle" x="237" y="-7" font-family="Helvetica,sans-Serif" font-size="10.00">\getPluginTaskTimings</text>
</a>
</g>
</g>
<!-- Node1&#45;&gt;Node3 -->
<g id="edge2" class="edge"><title>Node1&#45;&gt;Node3</title>
<path fill="none" stroke="midnightblue" d="M132.576,-29.2653C143.359,-27.7781 154.49,-26.2427 165.276,-24.7551"/>
<polygon fill="midnightblue" stroke="midnightblue" points="131.796,-25.8397 122.368,-30.6733 132.753,-32.774 131.796,-25.8397"/>
</g>
<!-- Node4 -->
<g id="node4" class="node"><title>Node4</title>
<g id="a_node4"><a xlink:href="../../dd/d18/classpocketmine_1_1scheduler_1_1_task_handler.html#a62f74510e269c67d902a8bc4d315a8da" target="_top" xlink:title="pocketmine\\scheduler\l\\TaskHandler\\__construct">
<polygon fill="white" stroke="black" points="352,-0 352,-30 488,-30 488,-0 352,-0"/>
<text text-anchor="start" x="360" y="-18" font-family="Helvetica,sans-Serif" font-size="10.00">pocketmine\scheduler</text>
<text text-anchor="middle" x="420" y="-7" font-family="Helvetica,sans-Serif" font-size="10.00">\TaskHandler\__construct</text>
</a>
</g>
</g>
<!-- Node3&#45;&gt;Node4 -->
<g id="edge3" class="edge"><title>Node3&#45;&gt;Node4</title>
<path fill="none" stroke="midnightblue" d="M318.819,-15C329.856,-15 341.087,-15 351.846,-15"/>
<polygon fill="midnightblue" stroke="midnightblue" points="318.757,-11.5001 308.757,-15 318.757,-18.5001 318.757,-11.5001"/>
</g>
</g>
</svg>
