<?xml version="1.0" encoding="UTF-8" standalone="no"?>
<!DOCTYPE svg PUBLIC "-//W3C//DTD SVG 1.1//EN"
 "http://www.w3.org/Graphics/SVG/1.1/DTD/svg11.dtd">
<!-- Generated by graphviz version 2.26.3 (20100126.1600)
 -->
<!-- Title: pocketmine\inventory\SimpleTransactionGroup\hasExecuted Pages: 1 -->
<svg width="304pt" height="122pt"
 viewBox="0.00 0.00 304.00 122.00" xmlns="http://www.w3.org/2000/svg" xmlns:xlink="http://www.w3.org/1999/xlink">
<g id="graph1" class="graph" transform="scale(1 1) rotate(0) translate(4 118)">
<title>pocketmine\inventory\SimpleTransactionGroup\hasExecuted</title>
<polygon fill="white" stroke="white" points="-4,5 -4,-118 301,-118 301,5 -4,5"/>
<!-- Node1 -->
<g id="node1" class="node"><title>Node1</title>
<polygon fill="#bfbfbf" stroke="black" points="0.5,-33.5 0.5,-80.5 127.5,-80.5 127.5,-33.5 0.5,-33.5"/>
<text text-anchor="start" x="8.5" y="-67.5" font-family="Helvetica,sans-Serif" font-size="10.00">pocketmine\inventory</text>
<text text-anchor="start" x="8.5" y="-54.5" font-family="Helvetica,sans-Serif" font-size="10.00">\SimpleTransactionGroup</text>
<text text-anchor="middle" x="64" y="-41.5" font-family="Helvetica,sans-Serif" font-size="10.00">\hasExecuted</text>
</g>
<!-- Node2 -->
<g id="node3" class="node"><title>Node2</title>
<a xlink:href="../../d6/d42/classpocketmine_1_1inventory_1_1_crafting_transaction_group.html#a6761a58d52f41eb21a736157a51476db" target="_top" xlink:title="pocketmine\\inventory\l\\CraftingTransactionGroup\l\\execute">
<polygon fill="white" stroke="black" points="164.5,-66.5 164.5,-113.5 295.5,-113.5 295.5,-66.5 164.5,-66.5"/>
<text text-anchor="start" x="172.5" y="-100.5" font-family="Helvetica,sans-Serif" font-size="10.00">pocketmine\inventory</text>
<text text-anchor="start" x="172.5" y="-87.5" font-family="Helvetica,sans-Serif" font-size="10.00">\CraftingTransactionGroup</text>
<text text-anchor="middle" x="230" y="-74.5" font-family="Helvetica,sans-Serif" font-size="10.00">\execute</text>
</a>
</g>
<!-- Node1&#45;&gt;Node2 -->
<g id="edge2" class="edge"><title>Node1&#45;&gt;Node2</title>
<path fill="none" stroke="midnightblue" d="M137.636,-71.6384C146.505,-73.4017 155.519,-75.1936 164.266,-76.9323"/>
<polygon fill="midnightblue" stroke="midnightblue" points="138.196,-68.1813 127.705,-69.6643 136.831,-75.047 138.196,-68.1813"/>
</g>
<!-- Node3 -->
<g id="node5" class="node"><title>Node3</title>
<a xlink:href="../../df/df1/classpocketmine_1_1inventory_1_1_simple_transaction_group.html#aa72211fd34f3f5855623f6a5acec9da4" target="_top" xlink:title="pocketmine\\inventory\l\\SimpleTransactionGroup\l\\execute">
<polygon fill="white" stroke="black" points="166.5,-0.5 166.5,-47.5 293.5,-47.5 293.5,-0.5 166.5,-0.5"/>
<text text-anchor="start" x="174.5" y="-34.5" font-family="Helvetica,sans-Serif" font-size="10.00">pocketmine\inventory</text>
<text text-anchor="start" x="174.5" y="-21.5" font-family="Helvetica,sans-Serif" font-size="10.00">\SimpleTransactionGroup</text>
<text text-anchor="middle" x="230" y="-8.5" font-family="Helvetica,sans-Serif" font-size="10.00">\execute</text>
</a>
</g>
<!-- Node1&#45;&gt;Node3 -->
<g id="edge4" class="edge"><title>Node1&#45;&gt;Node3</title>
<path fill="none" stroke="midnightblue" d="M137.64,-42.3607C147.254,-40.4495 157.037,-38.5047 166.465,-36.6304"/>
<polygon fill="midnightblue" stroke="midnightblue" points="136.831,-38.953 127.705,-44.3357 138.196,-45.8187 136.831,-38.953"/>
</g>
</g>
</svg>
