<?xml version="1.0" encoding="UTF-8" standalone="no"?>
<!DOCTYPE svg PUBLIC "-//W3C//DTD SVG 1.1//EN"
 "http://www.w3.org/Graphics/SVG/1.1/DTD/svg11.dtd">
<!-- Generated by graphviz version 2.36.0 (20140111.2315)
 -->
<!-- Title: pocketmine\inventory\SimpleTransactionGroup\execute Pages: 1 -->
<!--zoomable 207 -->
<svg id="main" version="1.1" xmlns="http://www.w3.org/2000/svg" xmlns:xlink="http://www.w3.org/1999/xlink" xml:space="preserve" onload="init(evt)">
<style type="text/css"><![CDATA[
.edge:hover path { stroke: red; }
.edge:hover polygon { stroke: red; fill: red; }
]]></style>
<script type="text/javascript"><![CDATA[
var edges = document.getElementsByTagName('g');
if (edges && edges.length) {
  for (var i=0;i<edges.length;i++) {
    if (edges[i].id.substr(0,4)=='edge') {
      edges[i].setAttribute('class','edge');
    }
  }
}
]]></script>
        <defs>
                <circle id="rim" cx="0" cy="0" r="7"/>
                <circle id="rim2" cx="0" cy="0" r="3.5"/>
                <g id="zoomPlus">
                        <use xlink:href="#rim" fill="#404040">
                                <set attributeName="fill" to="#808080" begin="zoomplus.mouseover" end="zoomplus.mouseout"/>
                        </use>
                        <path d="M-4,0h8M0,-4v8" fill="none" stroke="white" stroke-width="1.5" pointer-events="none"/>
                </g>
                <g id="zoomMin">
                        <use xlink:href="#rim" fill="#404040">
                                <set attributeName="fill" to="#808080" begin="zoomminus.mouseover" end="zoomminus.mouseout"/>
                        </use>
                        <path d="M-4,0h8" fill="none" stroke="white" stroke-width="1.5" pointer-events="none"/>
                </g>
                <g id="dirArrow">
                        <path fill="none" stroke="white" stroke-width="1.5" d="M0,-3.0v7 M-2.5,-0.5L0,-3.0L2.5,-0.5"/>
                </g>
               <g id="resetDef">
                       <use xlink:href="#rim2" fill="#404040">
                               <set attributeName="fill" to="#808080" begin="reset.mouseover" end="reset.mouseout"/>
                       </use>
               </g>
        </defs>

<script type="text/javascript">
var viewWidth = 520;
var viewHeight = 207;
var sectionId = 'dynsection-5';
</script>
<script xlink:href="../../svgpan.js"/>
<svg id="graph" class="graph">
<g id="viewport">
<title>pocketmine\inventory\SimpleTransactionGroup\execute</title>
<polygon fill="white" stroke="none" points="-4,4 -4,-203 516,-203 516,4 -4,4"/>
<!-- Node1 -->
<g id="node1" class="node"><title>Node1</title>
<polygon fill="#bfbfbf" stroke="black" points="0,-83.5 0,-124.5 136,-124.5 136,-83.5 0,-83.5"/>
<text text-anchor="start" x="8" y="-112.5" font-family="Helvetica,sans-Serif" font-size="10.00">pocketmine\inventory</text>
<text text-anchor="start" x="8" y="-101.5" font-family="Helvetica,sans-Serif" font-size="10.00">\SimpleTransactionGroup</text>
<text text-anchor="middle" x="68" y="-90.5" font-family="Helvetica,sans-Serif" font-size="10.00">\execute</text>
</g>
<!-- Node2 -->
<g id="node2" class="node"><title>Node2</title>
<g id="a_node2"><a xlink:href="../../df/df1/classpocketmine_1_1inventory_1_1_simple_transaction_group.html#aa324087f57222a5818847743b350419b" target="_top" xlink:title="pocketmine\\inventory\l\\SimpleTransactionGroup\l\\canExecute">
<polygon fill="white" stroke="black" points="188,-157.5 188,-198.5 324,-198.5 324,-157.5 188,-157.5"/>
<text text-anchor="start" x="196" y="-186.5" font-family="Helvetica,sans-Serif" font-size="10.00">pocketmine\inventory</text>
<text text-anchor="start" x="196" y="-175.5" font-family="Helvetica,sans-Serif" font-size="10.00">\SimpleTransactionGroup</text>
<text text-anchor="middle" x="256" y="-164.5" font-family="Helvetica,sans-Serif" font-size="10.00">\canExecute</text>
</a>
</g>
</g>
<!-- Node1&#45;&gt;Node2 -->
<g id="edge1" class="edge"><title>Node1&#45;&gt;Node2</title>
<path fill="none" stroke="midnightblue" d="M115.684,-124.608C133.249,-132.185 153.456,-140.695 172,-148 176.99,-149.966 182.166,-151.955 187.385,-153.924"/>
<polygon fill="midnightblue" stroke="midnightblue" points="186.203,-157.218 196.795,-157.437 188.651,-150.66 186.203,-157.218"/>
</g>
<!-- Node4 -->
<g id="node4" class="node"><title>Node4</title>
<g id="a_node4"><a xlink:href="../../d5/df7/classpocketmine_1_1_server.html#a8d9b9873eb3c7efce048f10f803c2b2e" target="_top" xlink:title="pocketmine\\Server\\getInstance">
<polygon fill="white" stroke="black" points="172.5,-119.5 172.5,-138.5 339.5,-138.5 339.5,-119.5 172.5,-119.5"/>
<text text-anchor="middle" x="256" y="-126.5" font-family="Helvetica,sans-Serif" font-size="10.00">pocketmine\Server\getInstance</text>
</a>
</g>
</g>
<!-- Node1&#45;&gt;Node4 -->
<g id="edge3" class="edge"><title>Node1&#45;&gt;Node4</title>
<path fill="none" stroke="midnightblue" d="M136.15,-113.026C148.466,-114.681 161.44,-116.425 174.108,-118.127"/>
<polygon fill="midnightblue" stroke="midnightblue" points="173.807,-121.618 184.184,-119.482 174.739,-114.681 173.807,-121.618"/>
</g>
<!-- Node5 -->
<g id="node5" class="node"><title>Node5</title>
<g id="a_node5"><a xlink:href="../../df/df1/classpocketmine_1_1inventory_1_1_simple_transaction_group.html#aa8d514b406c0bcbfa1a0d4f8f5ed765a" target="_top" xlink:title="pocketmine\\inventory\l\\SimpleTransactionGroup\l\\getSource">
<polygon fill="white" stroke="black" points="188,-59.5 188,-100.5 324,-100.5 324,-59.5 188,-59.5"/>
<text text-anchor="start" x="196" y="-88.5" font-family="Helvetica,sans-Serif" font-size="10.00">pocketmine\inventory</text>
<text text-anchor="start" x="196" y="-77.5" font-family="Helvetica,sans-Serif" font-size="10.00">\SimpleTransactionGroup</text>
<text text-anchor="middle" x="256" y="-66.5" font-family="Helvetica,sans-Serif" font-size="10.00">\getSource</text>
</a>
</g>
</g>
<!-- Node1&#45;&gt;Node5 -->
<g id="edge4" class="edge"><title>Node1&#45;&gt;Node5</title>
<path fill="none" stroke="midnightblue" d="M136.15,-95.3354C149.715,-93.5851 164.077,-91.732 177.951,-89.9418"/>
<polygon fill="midnightblue" stroke="midnightblue" points="178.478,-93.4029 187.948,-88.6518 177.583,-86.4604 178.478,-93.4029"/>
</g>
<!-- Node6 -->
<g id="node6" class="node"><title>Node6</title>
<g id="a_node6"><a xlink:href="../../df/df1/classpocketmine_1_1inventory_1_1_simple_transaction_group.html#a733538b56586ee02abca451485ff7f82" target="_top" xlink:title="pocketmine\\inventory\l\\SimpleTransactionGroup\l\\hasExecuted">
<polygon fill="white" stroke="black" points="188,0.5 188,-40.5 324,-40.5 324,0.5 188,0.5"/>
<text text-anchor="start" x="196" y="-28.5" font-family="Helvetica,sans-Serif" font-size="10.00">pocketmine\inventory</text>
<text text-anchor="start" x="196" y="-17.5" font-family="Helvetica,sans-Serif" font-size="10.00">\SimpleTransactionGroup</text>
<text text-anchor="middle" x="256" y="-6.5" font-family="Helvetica,sans-Serif" font-size="10.00">\hasExecuted</text>
</a>
</g>
</g>
<!-- Node1&#45;&gt;Node6 -->
<g id="edge5" class="edge"><title>Node1&#45;&gt;Node6</title>
<path fill="none" stroke="midnightblue" d="M105.589,-83.2636C125.008,-72.6577 149.457,-59.9283 172,-50 176.413,-48.0566 180.995,-46.1376 185.638,-44.2665"/>
<polygon fill="midnightblue" stroke="midnightblue" points="187.193,-47.4161 195.219,-40.5005 184.632,-40.9013 187.193,-47.4161"/>
</g>
<!-- Node3 -->
<g id="node3" class="node"><title>Node3</title>
<g id="a_node3"><a xlink:href="../../df/df1/classpocketmine_1_1inventory_1_1_simple_transaction_group.html#a510fd95f31abb7524a9dcc58a36f80b8" target="_top" xlink:title="pocketmine\\inventory\l\\SimpleTransactionGroup\l\\matchItems">
<polygon fill="white" stroke="black" points="376,-157.5 376,-198.5 512,-198.5 512,-157.5 376,-157.5"/>
<text text-anchor="start" x="384" y="-186.5" font-family="Helvetica,sans-Serif" font-size="10.00">pocketmine\inventory</text>
<text text-anchor="start" x="384" y="-175.5" font-family="Helvetica,sans-Serif" font-size="10.00">\SimpleTransactionGroup</text>
<text text-anchor="middle" x="444" y="-164.5" font-family="Helvetica,sans-Serif" font-size="10.00">\matchItems</text>
</a>
</g>
</g>
<!-- Node2&#45;&gt;Node3 -->
<g id="edge2" class="edge"><title>Node2&#45;&gt;Node3</title>
<path fill="none" stroke="midnightblue" d="M324.15,-178C337.583,-178 351.798,-178 365.547,-178"/>
<polygon fill="midnightblue" stroke="midnightblue" points="365.948,-181.5 375.948,-178 365.948,-174.5 365.948,-181.5"/>
</g>
</g>
</svg>
        <g id="navigator" transform="translate(0 0)" fill="#404254">
                <rect fill="#f2f5e9" fill-opacity="0.5" stroke="#606060" stroke-width=".5" x="0" y="0" width="60" height="60"/>
                <use id="zoomplus" xlink:href="#zoomPlus" x="17" y="9" onmousedown="handleZoom(evt,'in')"/>
                <use id="zoomminus" xlink:href="#zoomMin" x="42" y="9" onmousedown="handleZoom(evt,'out')"/>
                <use id="reset" xlink:href="#resetDef" x="30" y="36" onmousedown="handleReset()"/>
                <g id="arrowUp" xlink:href="#dirArrow" transform="translate(30 24)" onmousedown="handlePan(0,-1)">
                  <use xlink:href="#rim" fill="#404040">
                        <set attributeName="fill" to="#808080" begin="arrowUp.mouseover" end="arrowUp.mouseout"/>
                  </use>
                  <path fill="none" stroke="white" stroke-width="1.5" d="M0,-3.0v7 M-2.5,-0.5L0,-3.0L2.5,-0.5"/>
                </g>
                <g id="arrowRight" xlink:href="#dirArrow" transform="rotate(90) translate(36 -43)" onmousedown="handlePan(1,0)">
                  <use xlink:href="#rim" fill="#404040">
                        <set attributeName="fill" to="#808080" begin="arrowRight.mouseover" end="arrowRight.mouseout"/>
                  </use>
                  <path fill="none" stroke="white" stroke-width="1.5" d="M0,-3.0v7 M-2.5,-0.5L0,-3.0L2.5,-0.5"/>
                </g>
                <g id="arrowDown" xlink:href="#dirArrow" transform="rotate(180) translate(-30 -48)" onmousedown="handlePan(0,1)">
                  <use xlink:href="#rim" fill="#404040">
                        <set attributeName="fill" to="#808080" begin="arrowDown.mouseover" end="arrowDown.mouseout"/>
                  </use>
                  <path fill="none" stroke="white" stroke-width="1.5" d="M0,-3.0v7 M-2.5,-0.5L0,-3.0L2.5,-0.5"/>
                </g>
                <g id="arrowLeft" xlink:href="#dirArrow" transform="rotate(270) translate(-36 17)" onmousedown="handlePan(-1,0)">
                  <use xlink:href="#rim" fill="#404040">
                        <set attributeName="fill" to="#808080" begin="arrowLeft.mouseover" end="arrowLeft.mouseout"/>
                  </use>
                  <path fill="none" stroke="white" stroke-width="1.5" d="M0,-3.0v7 M-2.5,-0.5L0,-3.0L2.5,-0.5"/>
                </g>
        </g>
        <svg viewBox="0 0 15 15" width="100%" height="30px" preserveAspectRatio="xMaxYMin meet">
         <g id="arrow_out" transform="scale(0.3 0.3)">
          <a xlink:href="classpocketmine_1_1inventory_1_1_simple_transaction_group_aa72211fd34f3f5855623f6a5acec9da4_cgraph_org.svg" target="_base">
           <rect id="button" ry="5" rx="5" y="6" x="6" height="38" width="38"
                fill="#f2f5e9" fill-opacity="0.5" stroke="#606060" stroke-width="1.0"/>
           <path id="arrow"
             d="M 11.500037,31.436501 C 11.940474,20.09759 22.043105,11.32322 32.158766,21.979434 L 37.068811,17.246167 C 37.068811,17.246167 37.088388,32 37.088388,32 L 22.160133,31.978069 C 22.160133,31.978069 26.997745,27.140456 26.997745,27.140456 C 18.528582,18.264221 13.291696,25.230495 11.500037,31.436501 z"
             style="fill:#404040;"/>
          </a>
         </g>
        </svg>
</svg>
