<?xml version="1.0" encoding="UTF-8" standalone="no"?>
<!DOCTYPE svg PUBLIC "-//W3C//DTD SVG 1.1//EN"
 "http://www.w3.org/Graphics/SVG/1.1/DTD/svg11.dtd">
<!-- Generated by graphviz version 2.36.0 (20140111.2315)
 -->
<!-- Title: pocketmine\entity\Projectile\onUpdate Pages: 1 -->
<svg width="360pt" height="87pt"
 viewBox="0.00 0.00 360.00 87.00" xmlns="http://www.w3.org/2000/svg" xmlns:xlink="http://www.w3.org/1999/xlink">
<g id="graph0" class="graph" transform="scale(1 1) rotate(0) translate(4 83)">
<title>pocketmine\entity\Projectile\onUpdate</title>
<polygon fill="white" stroke="none" points="-4,4 -4,-83 356,-83 356,4 -4,4"/>
<!-- Node1 -->
<g id="node1" class="node"><title>Node1</title>
<polygon fill="#bfbfbf" stroke="black" points="0.5,-24 0.5,-54 149.5,-54 149.5,-24 0.5,-24"/>
<text text-anchor="start" x="8.5" y="-42" font-family="Helvetica,sans-Serif" font-size="10.00">pocketmine\entity\Projectile</text>
<text text-anchor="middle" x="75" y="-31" font-family="Helvetica,sans-Serif" font-size="10.00">\onUpdate</text>
</g>
<!-- Node2 -->
<g id="node2" class="node"><title>Node2</title>
<g id="a_node2"><a xlink:href="../../dc/dba/classpocketmine_1_1level_1_1_moving_object_position.html#ac2a664acf3b78832cc6e5d75e91596b2" target="_top" xlink:title="pocketmine\\level\\MovingObject\lPosition\\fromEntity">
<polygon fill="white" stroke="black" points="186.5,-49 186.5,-79 351.5,-79 351.5,-49 186.5,-49"/>
<text text-anchor="start" x="194.5" y="-67" font-family="Helvetica,sans-Serif" font-size="10.00">pocketmine\level\MovingObject</text>
<text text-anchor="middle" x="269" y="-56" font-family="Helvetica,sans-Serif" font-size="10.00">Position\fromEntity</text>
</a>
</g>
</g>
<!-- Node1&#45;&gt;Node2 -->
<g id="edge1" class="edge"><title>Node1&#45;&gt;Node2</title>
<path fill="none" stroke="midnightblue" d="M149.683,-48.5942C158.366,-49.7247 167.306,-50.8888 176.198,-52.0466"/>
<polygon fill="midnightblue" stroke="midnightblue" points="175.832,-55.5285 186.201,-53.349 176.736,-48.5871 175.832,-55.5285"/>
</g>
<!-- Node3 -->
<g id="node3" class="node"><title>Node3</title>
<g id="a_node3"><a xlink:href="../../db/d9b/classpocketmine_1_1level_1_1_position.html#ae667e74646ed1b8d04db126265d75955" target="_top" xlink:title="pocketmine\\level\\Position\l\\getLevel">
<polygon fill="white" stroke="black" points="200,-0 200,-30 338,-30 338,-0 200,-0"/>
<text text-anchor="start" x="208" y="-18" font-family="Helvetica,sans-Serif" font-size="10.00">pocketmine\level\Position</text>
<text text-anchor="middle" x="269" y="-7" font-family="Helvetica,sans-Serif" font-size="10.00">\getLevel</text>
</a>
</g>
</g>
<!-- Node1&#45;&gt;Node3 -->
<g id="edge2" class="edge"><title>Node1&#45;&gt;Node3</title>
<path fill="none" stroke="midnightblue" d="M149.683,-29.7896C162.829,-28.1463 176.567,-26.4292 189.833,-24.7708"/>
<polygon fill="midnightblue" stroke="midnightblue" points="190.38,-28.2298 199.869,-23.5164 189.512,-21.2839 190.38,-28.2298"/>
</g>
</g>
</svg>
