<?xml version="1.0" encoding="UTF-8" standalone="no"?>
<!DOCTYPE svg PUBLIC "-//W3C//DTD SVG 1.1//EN"
 "http://www.w3.org/Graphics/SVG/1.1/DTD/svg11.dtd">
<!-- Generated by graphviz version 2.26.3 (20100126.1600)
 -->
<!-- Title: G Pages: 1 -->
<!--zoomable 364 -->
<svg id="main" version="1.1" xmlns="http://www.w3.org/2000/svg" xmlns:xlink="http://www.w3.org/1999/xlink" xml:space="preserve" onload="init(evt)">
        <defs>
                <circle id="rim" cx="0" cy="0" r="7"/>
                <circle id="rim2" cx="0" cy="0" r="3.5"/>
                <g id="zoomPlus">
                        <use xlink:href="#rim" fill="#404040">
                                <set attributeName="fill" to="#808080" begin="zoomplus.mouseover" end="zoomplus.mouseout"/>
                        </use>
                        <path d="M-4,0h8M0,-4v8" fill="none" stroke="white" stroke-width="1.5" pointer-events="none"/>
                </g>
                <g id="zoomMin">
                        <use xlink:href="#rim" fill="#404040">
                                <set attributeName="fill" to="#808080" begin="zoomminus.mouseover" end="zoomminus.mouseout"/>
                        </use>
                        <path d="M-4,0h8" fill="none" stroke="white" stroke-width="1.5" pointer-events="none"/>
                </g>
                <g id="dirArrow">
                        <path fill="none" stroke="white" stroke-width="1.5" d="M0,-3.0v7 M-2.5,-0.5L0,-3.0L2.5,-0.5"/>
                </g>
               <g id="resetDef">
                       <use xlink:href="#rim2" fill="#404040">
                               <set attributeName="fill" to="#808080" begin="reset.mouseover" end="reset.mouseout"/>
                       </use>
               </g>
        </defs>

<script type="text/javascript">
var viewWidth = 730;
var viewHeight = 364;
var sectionId = 'dynsection-0';
</script>
<script xlink:href="../../svgpan.js"/>
<svg id="graph" class="graph">
<g id="viewport">
<title>G</title>
<polygon fill="white" stroke="white" points="-4,5 -4,-360 727,-360 727,5 -4,5"/>
<!-- Node1 -->
<g id="node1" class="node"><title>Node1</title>
<polygon fill="#bfbfbf" stroke="black" points="210.5,-279 210.5,-355 357.5,-355 357.5,-279 210.5,-279"/>
<text text-anchor="middle" x="284" y="-342" font-family="Helvetica,sans-Serif" font-size="10.00">pocketmine\inventory\Recipe</text>
<polyline fill="none" stroke="black" points="210.5,-334 357.5,-334 "/>
<text text-anchor="middle" x="284" y="-321" font-family="Helvetica,sans-Serif" font-size="10.00"> </text>
<polyline fill="none" stroke="black" points="210.5,-313 357.5,-313 "/>
<text text-anchor="start" x="218.5" y="-300" font-family="Helvetica,sans-Serif" font-size="10.00">+ getResult()</text>
<text text-anchor="start" x="218.5" y="-287" font-family="Helvetica,sans-Serif" font-size="10.00">+ registerToCraftingManager()</text>
</g>
<!-- Node2 -->
<g id="node3" class="node"><title>Node2</title>
<a xlink:href="../../db/db2/classpocketmine_1_1inventory_1_1_furnace_recipe.html" target="_top" xlink:title="{pocketmine\\inventory\\FurnaceRecipe\n||+ __construct()\l+ setInput()\l+ getInput()\l+ getResult()\l+ registerToCraftingManager()\l}">
<polygon fill="white" stroke="black" points="-0.5,-113.5 -0.5,-228.5 178.5,-228.5 178.5,-113.5 -0.5,-113.5"/>
<text text-anchor="middle" x="89" y="-215.5" font-family="Helvetica,sans-Serif" font-size="10.00">pocketmine\inventory\FurnaceRecipe</text>
<polyline fill="none" stroke="black" points="-0.5,-207.5 178.5,-207.5 "/>
<text text-anchor="middle" x="89" y="-194.5" font-family="Helvetica,sans-Serif" font-size="10.00"> </text>
<polyline fill="none" stroke="black" points="-0.5,-186.5 178.5,-186.5 "/>
<text text-anchor="start" x="7.5" y="-173.5" font-family="Helvetica,sans-Serif" font-size="10.00">+ __construct()</text>
<text text-anchor="start" x="7.5" y="-160.5" font-family="Helvetica,sans-Serif" font-size="10.00">+ setInput()</text>
<text text-anchor="start" x="7.5" y="-147.5" font-family="Helvetica,sans-Serif" font-size="10.00">+ getInput()</text>
<text text-anchor="start" x="7.5" y="-134.5" font-family="Helvetica,sans-Serif" font-size="10.00">+ getResult()</text>
<text text-anchor="start" x="7.5" y="-121.5" font-family="Helvetica,sans-Serif" font-size="10.00">+ registerToCraftingManager()</text>
</a>
</g>
<!-- Node1&#45;&gt;Node2 -->
<g id="edge2" class="edge"><title>Node1&#45;&gt;Node2</title>
<path fill="none" stroke="midnightblue" d="M224.706,-272.606C206.252,-258.789 185.629,-243.348 166.141,-228.757"/>
<polygon fill="none" stroke="midnightblue" points="222.918,-275.639 233.021,-278.831 227.114,-270.036 222.918,-275.639"/>
</g>
<!-- Node3 -->
<g id="node5" class="node"><title>Node3</title>
<a xlink:href="../../d7/d21/classpocketmine_1_1inventory_1_1_shaped_recipe.html" target="_top" xlink:title="{pocketmine\\inventory\\ShapedRecipe\n||+ __construct()\l+ setIngredient()\l+ getIngredientMap()\l+ getShape()\l+ registerToCraftingManager()\l}">
<polygon fill="white" stroke="black" points="196,-113.5 196,-228.5 372,-228.5 372,-113.5 196,-113.5"/>
<text text-anchor="middle" x="284" y="-215.5" font-family="Helvetica,sans-Serif" font-size="10.00">pocketmine\inventory\ShapedRecipe</text>
<polyline fill="none" stroke="black" points="196,-207.5 372,-207.5 "/>
<text text-anchor="middle" x="284" y="-194.5" font-family="Helvetica,sans-Serif" font-size="10.00"> </text>
<polyline fill="none" stroke="black" points="196,-186.5 372,-186.5 "/>
<text text-anchor="start" x="204" y="-173.5" font-family="Helvetica,sans-Serif" font-size="10.00">+ __construct()</text>
<text text-anchor="start" x="204" y="-160.5" font-family="Helvetica,sans-Serif" font-size="10.00">+ setIngredient()</text>
<text text-anchor="start" x="204" y="-147.5" font-family="Helvetica,sans-Serif" font-size="10.00">+ getIngredientMap()</text>
<text text-anchor="start" x="204" y="-134.5" font-family="Helvetica,sans-Serif" font-size="10.00">+ getShape()</text>
<text text-anchor="start" x="204" y="-121.5" font-family="Helvetica,sans-Serif" font-size="10.00">+ registerToCraftingManager()</text>
</a>
</g>
<!-- Node1&#45;&gt;Node3 -->
<g id="edge4" class="edge"><title>Node1&#45;&gt;Node3</title>
<path fill="none" stroke="midnightblue" d="M284,-268.265C284,-255.557 284,-241.742 284,-228.621"/>
<polygon fill="none" stroke="midnightblue" points="280.5,-268.64 284,-278.64 287.5,-268.64 280.5,-268.64"/>
</g>
<!-- Node4 -->
<g id="node7" class="node"><title>Node4</title>
<a xlink:href="../../d6/d74/classpocketmine_1_1inventory_1_1_shapeless_recipe.html" target="_top" xlink:title="{pocketmine\\inventory\\ShapelessRecipe\n||+ __construct()\l+ getResult()\l+ addIngredient()\l+ removeIngredient()\l+ getIngredientList()\l+ getIngredientCount()\l+ registerToCraftingManager()\l}">
<polygon fill="white" stroke="black" points="389.5,-100.5 389.5,-241.5 578.5,-241.5 578.5,-100.5 389.5,-100.5"/>
<text text-anchor="middle" x="484" y="-228.5" font-family="Helvetica,sans-Serif" font-size="10.00">pocketmine\inventory\ShapelessRecipe</text>
<polyline fill="none" stroke="black" points="389.5,-220.5 578.5,-220.5 "/>
<text text-anchor="middle" x="484" y="-207.5" font-family="Helvetica,sans-Serif" font-size="10.00"> </text>
<polyline fill="none" stroke="black" points="389.5,-199.5 578.5,-199.5 "/>
<text text-anchor="start" x="397.5" y="-186.5" font-family="Helvetica,sans-Serif" font-size="10.00">+ __construct()</text>
<text text-anchor="start" x="397.5" y="-173.5" font-family="Helvetica,sans-Serif" font-size="10.00">+ getResult()</text>
<text text-anchor="start" x="397.5" y="-160.5" font-family="Helvetica,sans-Serif" font-size="10.00">+ addIngredient()</text>
<text text-anchor="start" x="397.5" y="-147.5" font-family="Helvetica,sans-Serif" font-size="10.00">+ removeIngredient()</text>
<text text-anchor="start" x="397.5" y="-134.5" font-family="Helvetica,sans-Serif" font-size="10.00">+ getIngredientList()</text>
<text text-anchor="start" x="397.5" y="-121.5" font-family="Helvetica,sans-Serif" font-size="10.00">+ getIngredientCount()</text>
<text text-anchor="start" x="397.5" y="-108.5" font-family="Helvetica,sans-Serif" font-size="10.00">+ registerToCraftingManager()</text>
</a>
</g>
<!-- Node1&#45;&gt;Node4 -->
<g id="edge6" class="edge"><title>Node1&#45;&gt;Node4</title>
<path fill="none" stroke="midnightblue" d="M344.486,-272.845C358.68,-262.483 374.14,-251.198 389.43,-240.036"/>
<polygon fill="none" stroke="midnightblue" points="342.3,-270.108 336.286,-278.831 346.427,-275.762 342.3,-270.108"/>
</g>
<!-- Node5 -->
<g id="node9" class="node"><title>Node5</title>
<a xlink:href="../../d8/d7b/classpocketmine_1_1inventory_1_1_big_shapeless_recipe.html" target="_top" xlink:title="{pocketmine\\inventory\\BigShapelessRecipe\n||}">
<polygon fill="white" stroke="black" points="263.5,-0.5 263.5,-63.5 466.5,-63.5 466.5,-0.5 263.5,-0.5"/>
<text text-anchor="middle" x="365" y="-50.5" font-family="Helvetica,sans-Serif" font-size="10.00">pocketmine\inventory\BigShapelessRecipe</text>
<polyline fill="none" stroke="black" points="263.5,-42.5 466.5,-42.5 "/>
<text text-anchor="middle" x="365" y="-29.5" font-family="Helvetica,sans-Serif" font-size="10.00"> </text>
<polyline fill="none" stroke="black" points="263.5,-21.5 466.5,-21.5 "/>
<text text-anchor="middle" x="365" y="-8.5" font-family="Helvetica,sans-Serif" font-size="10.00"> </text>
</a>
</g>
<!-- Node4&#45;&gt;Node5 -->
<g id="edge8" class="edge"><title>Node4&#45;&gt;Node5</title>
<path fill="none" stroke="midnightblue" d="M416.755,-92.4533C408.036,-82.2684 399.542,-72.3472 392.04,-63.5847"/>
<polygon fill="none" stroke="midnightblue" points="414.292,-94.9581 423.454,-100.278 419.609,-90.4057 414.292,-94.9581"/>
</g>
<!-- Node6 -->
<g id="node11" class="node"><title>Node6</title>
<a xlink:href="../../d5/da2/classpocketmine_1_1inventory_1_1_stonecutter_shapeless_recipe.html" target="_top" xlink:title="{pocketmine\\inventory\\StonecutterShapelessRecipe\n||}">
<polygon fill="white" stroke="black" points="483.5,-0.5 483.5,-63.5 722.5,-63.5 722.5,-0.5 483.5,-0.5"/>
<text text-anchor="middle" x="603" y="-50.5" font-family="Helvetica,sans-Serif" font-size="10.00">pocketmine\inventory\StonecutterShapelessRecipe</text>
<polyline fill="none" stroke="black" points="483.5,-42.5 722.5,-42.5 "/>
<text text-anchor="middle" x="603" y="-29.5" font-family="Helvetica,sans-Serif" font-size="10.00"> </text>
<polyline fill="none" stroke="black" points="483.5,-21.5 722.5,-21.5 "/>
<text text-anchor="middle" x="603" y="-8.5" font-family="Helvetica,sans-Serif" font-size="10.00"> </text>
</a>
</g>
<!-- Node4&#45;&gt;Node6 -->
<g id="edge10" class="edge"><title>Node4&#45;&gt;Node6</title>
<path fill="none" stroke="midnightblue" d="M551.245,-92.4533C559.964,-82.2684 568.458,-72.3472 575.96,-63.5847"/>
<polygon fill="none" stroke="midnightblue" points="548.391,-90.4057 544.546,-100.278 553.708,-94.9581 548.391,-90.4057"/>
</g>
</g>
</svg>
        <g id="navigator" transform="translate(0 0)" fill="#404254">
                <rect fill="#f2f5e9" fill-opacity="0.5" stroke="#606060" stroke-width=".5" x="0" y="0" width="60" height="60"/>
                <use id="zoomplus" xlink:href="#zoomPlus" x="17" y="9" onmousedown="handleZoom(evt,'in')"/>
                <use id="zoomminus" xlink:href="#zoomMin" x="42" y="9" onmousedown="handleZoom(evt,'out')"/>
                <use id="reset" xlink:href="#resetDef" x="30" y="36" onmousedown="handleReset()"/>
                <g id="arrowUp" xlink:href="#dirArrow" transform="translate(30 24)" onmousedown="handlePan(0,-1)">
                  <use xlink:href="#rim" fill="#404040">
                        <set attributeName="fill" to="#808080" begin="arrowUp.mouseover" end="arrowUp.mouseout"/>
                  </use>
                  <path fill="none" stroke="white" stroke-width="1.5" d="M0,-3.0v7 M-2.5,-0.5L0,-3.0L2.5,-0.5"/>
                </g>
                <g id="arrowRight" xlink:href="#dirArrow" transform="rotate(90) translate(36 -43)" onmousedown="handlePan(1,0)">
                  <use xlink:href="#rim" fill="#404040">
                        <set attributeName="fill" to="#808080" begin="arrowRight.mouseover" end="arrowRight.mouseout"/>
                  </use>
                  <path fill="none" stroke="white" stroke-width="1.5" d="M0,-3.0v7 M-2.5,-0.5L0,-3.0L2.5,-0.5"/>
                </g>
                <g id="arrowDown" xlink:href="#dirArrow" transform="rotate(180) translate(-30 -48)" onmousedown="handlePan(0,1)">
                  <use xlink:href="#rim" fill="#404040">
                        <set attributeName="fill" to="#808080" begin="arrowDown.mouseover" end="arrowDown.mouseout"/>
                  </use>
                  <path fill="none" stroke="white" stroke-width="1.5" d="M0,-3.0v7 M-2.5,-0.5L0,-3.0L2.5,-0.5"/>
                </g>
                <g id="arrowLeft" xlink:href="#dirArrow" transform="rotate(270) translate(-36 17)" onmousedown="handlePan(-1,0)">
                  <use xlink:href="#rim" fill="#404040">
                        <set attributeName="fill" to="#808080" begin="arrowLeft.mouseover" end="arrowLeft.mouseout"/>
                  </use>
                  <path fill="none" stroke="white" stroke-width="1.5" d="M0,-3.0v7 M-2.5,-0.5L0,-3.0L2.5,-0.5"/>
                </g>
        </g>
</svg>
