<?xml version="1.0" encoding="UTF-8" standalone="no"?>
<!DOCTYPE svg PUBLIC "-//W3C//DTD SVG 1.1//EN"
 "http://www.w3.org/Graphics/SVG/1.1/DTD/svg11.dtd">
<!-- Generated by graphviz version 2.26.3 (20100126.1600)
 -->
<!-- Title: G Pages: 1 -->
<svg width="228pt" height="186pt"
 viewBox="0.00 0.00 228.00 186.00" xmlns="http://www.w3.org/2000/svg" xmlns:xlink="http://www.w3.org/1999/xlink">
<g id="graph1" class="graph" transform="scale(1 1) rotate(0) translate(4 182)">
<title>G</title>
<polygon fill="white" stroke="white" points="-4,5 -4,-182 225,-182 225,5 -4,5"/>
<!-- Node1 -->
<g id="node1" class="node"><title>Node1</title>
<polygon fill="#bfbfbf" stroke="black" points="12.5,-1 12.5,-77 207.5,-77 207.5,-1 12.5,-1"/>
<text text-anchor="middle" x="110" y="-64" font-family="Helvetica,sans-Serif" font-size="10.00">pocketmine\level\generator\populator\Ore</text>
<polyline fill="none" stroke="black" points="12.5,-56 207.5,-56 "/>
<text text-anchor="middle" x="110" y="-43" font-family="Helvetica,sans-Serif" font-size="10.00"> </text>
<polyline fill="none" stroke="black" points="12.5,-35 207.5,-35 "/>
<text text-anchor="start" x="20.5" y="-22" font-family="Helvetica,sans-Serif" font-size="10.00">+ populate()</text>
<text text-anchor="start" x="20.5" y="-9" font-family="Helvetica,sans-Serif" font-size="10.00">+ setOreTypes()</text>
</g>
<!-- Node2 -->
<g id="node2" class="node"><title>Node2</title>
<a xlink:href="../../db/de9/classpocketmine_1_1level_1_1generator_1_1populator_1_1_populator.html" target="_top" xlink:title="{pocketmine\\level\\generator\\populator\\Populator\n||+ populate()\l}">
<polygon fill="white" stroke="black" points="-0.5,-114.5 -0.5,-177.5 220.5,-177.5 220.5,-114.5 -0.5,-114.5"/>
<text text-anchor="middle" x="110" y="-164.5" font-family="Helvetica,sans-Serif" font-size="10.00">pocketmine\level\generator\populator\Populator</text>
<polyline fill="none" stroke="black" points="-0.5,-156.5 220.5,-156.5 "/>
<text text-anchor="middle" x="110" y="-143.5" font-family="Helvetica,sans-Serif" font-size="10.00"> </text>
<polyline fill="none" stroke="black" points="-0.5,-135.5 220.5,-135.5 "/>
<text text-anchor="start" x="7.5" y="-122.5" font-family="Helvetica,sans-Serif" font-size="10.00">+ populate()</text>
</a>
</g>
<!-- Node2&#45;&gt;Node1 -->
<g id="edge2" class="edge"><title>Node2&#45;&gt;Node1</title>
<path fill="none" stroke="midnightblue" d="M110,-104.253C110,-95.3105 110,-85.907 110,-77.1103"/>
<polygon fill="none" stroke="midnightblue" points="106.5,-104.475 110,-114.475 113.5,-104.475 106.5,-104.475"/>
</g>
</g>
</svg>
