<?xml version="1.0" encoding="UTF-8" standalone="no"?>
<!DOCTYPE svg PUBLIC "-//W3C//DTD SVG 1.1//EN"
 "http://www.w3.org/Graphics/SVG/1.1/DTD/svg11.dtd">
<!-- Generated by graphviz version 2.36.0 (20140111.2315)
 -->
<!-- Title: pocketmine\level\generator\GenerationRequestManager\__construct Pages: 1 -->
<svg width="358pt" height="66pt"
 viewBox="0.00 0.00 358.00 66.00" xmlns="http://www.w3.org/2000/svg" xmlns:xlink="http://www.w3.org/1999/xlink">
<g id="graph0" class="graph" transform="scale(1 1) rotate(0) translate(4 62)">
<title>pocketmine\level\generator\GenerationRequestManager\__construct</title>
<polygon fill="white" stroke="none" points="-4,4 -4,-62 354,-62 354,4 -4,4"/>
<!-- Node1 -->
<g id="node1" class="node"><title>Node1</title>
<polygon fill="#bfbfbf" stroke="black" points="0.5,-8.5 0.5,-49.5 153.5,-49.5 153.5,-8.5 0.5,-8.5"/>
<text text-anchor="start" x="8.5" y="-37.5" font-family="Helvetica,sans-Serif" font-size="10.00">pocketmine\level\generator</text>
<text text-anchor="start" x="8.5" y="-26.5" font-family="Helvetica,sans-Serif" font-size="10.00">\GenerationRequestManager</text>
<text text-anchor="middle" x="77" y="-15.5" font-family="Helvetica,sans-Serif" font-size="10.00">\__construct</text>
</g>
<!-- Node2 -->
<g id="node2" class="node"><title>Node2</title>
<g id="a_node2"><a xlink:href="../../d5/df7/classpocketmine_1_1_server.html#af9c4f86ccd5d076e961e423be2fcdd9a" target="_top" xlink:title="pocketmine\\Server\\getLoader">
<polygon fill="white" stroke="black" points="190.5,-38.5 190.5,-57.5 349.5,-57.5 349.5,-38.5 190.5,-38.5"/>
<text text-anchor="middle" x="270" y="-45.5" font-family="Helvetica,sans-Serif" font-size="10.00">pocketmine\Server\getLoader</text>
</a>
</g>
</g>
<!-- Node1&#45;&gt;Node2 -->
<g id="edge1" class="edge"><title>Node1&#45;&gt;Node2</title>
<path fill="none" stroke="midnightblue" d="M153.763,-36.5366C162.371,-37.393 171.204,-38.2716 179.964,-39.143"/>
<polygon fill="midnightblue" stroke="midnightblue" points="179.898,-42.6537 190.196,-40.1608 180.591,-35.6881 179.898,-42.6537"/>
</g>
<!-- Node3 -->
<g id="node3" class="node"><title>Node3</title>
<g id="a_node3"><a xlink:href="../../d5/df7/classpocketmine_1_1_server.html#a5b32c69f8f444fc6b2768a5afc0af656" target="_top" xlink:title="pocketmine\\Server\\getLogger">
<polygon fill="white" stroke="black" points="190.5,-0.5 190.5,-19.5 349.5,-19.5 349.5,-0.5 190.5,-0.5"/>
<text text-anchor="middle" x="270" y="-7.5" font-family="Helvetica,sans-Serif" font-size="10.00">pocketmine\Server\getLogger</text>
</a>
</g>
</g>
<!-- Node1&#45;&gt;Node3 -->
<g id="edge2" class="edge"><title>Node1&#45;&gt;Node3</title>
<path fill="none" stroke="midnightblue" d="M153.763,-21.4634C162.371,-20.607 171.204,-19.7284 179.964,-18.857"/>
<polygon fill="midnightblue" stroke="midnightblue" points="180.591,-22.3119 190.196,-17.8392 179.898,-15.3463 180.591,-22.3119"/>
</g>
</g>
</svg>
