<?xml version="1.0" encoding="UTF-8" standalone="no"?>
<!DOCTYPE svg PUBLIC "-//W3C//DTD SVG 1.1//EN"
 "http://www.w3.org/Graphics/SVG/1.1/DTD/svg11.dtd">
<!-- Generated by graphviz version 2.36.0 (20140111.2315)
 -->
<!-- Title: pocketmine\level\generator\GenerationRequestManager\closeLevel Pages: 1 -->
<svg width="324pt" height="48pt"
 viewBox="0.00 0.00 324.00 48.00" xmlns="http://www.w3.org/2000/svg" xmlns:xlink="http://www.w3.org/1999/xlink">
<g id="graph0" class="graph" transform="scale(1 1) rotate(0) translate(4 44)">
<title>pocketmine\level\generator\GenerationRequestManager\closeLevel</title>
<polygon fill="white" stroke="none" points="-4,4 -4,-44 320,-44 320,4 -4,4"/>
<!-- Node1 -->
<g id="node1" class="node"><title>Node1</title>
<polygon fill="#bfbfbf" stroke="black" points="0.5,0.5 0.5,-40.5 153.5,-40.5 153.5,0.5 0.5,0.5"/>
<text text-anchor="start" x="8.5" y="-28.5" font-family="Helvetica,sans-Serif" font-size="10.00">pocketmine\level\generator</text>
<text text-anchor="start" x="8.5" y="-17.5" font-family="Helvetica,sans-Serif" font-size="10.00">\GenerationRequestManager</text>
<text text-anchor="middle" x="77" y="-6.5" font-family="Helvetica,sans-Serif" font-size="10.00">\closeLevel</text>
</g>
<!-- Node2 -->
<g id="node2" class="node"><title>Node2</title>
<g id="a_node2"><a xlink:href="../../d3/d4b/classpocketmine_1_1level_1_1_level.html#af35c952cc99fd10302526c86b8639bc8" target="_top" xlink:title="pocketmine\\level\\Level\l\\getId">
<polygon fill="white" stroke="black" points="190.5,-5 190.5,-35 315.5,-35 315.5,-5 190.5,-5"/>
<text text-anchor="start" x="198.5" y="-23" font-family="Helvetica,sans-Serif" font-size="10.00">pocketmine\level\Level</text>
<text text-anchor="middle" x="253" y="-12" font-family="Helvetica,sans-Serif" font-size="10.00">\getId</text>
</a>
</g>
</g>
<!-- Node1&#45;&gt;Node2 -->
<g id="edge1" class="edge"><title>Node1&#45;&gt;Node2</title>
<path fill="none" stroke="midnightblue" d="M153.56,-20C162.393,-20 171.386,-20 180.167,-20"/>
<polygon fill="midnightblue" stroke="midnightblue" points="180.355,-23.5001 190.355,-20 180.355,-16.5001 180.355,-23.5001"/>
</g>
</g>
</svg>
