<?xml version="1.0" encoding="UTF-8" standalone="no"?>
<!DOCTYPE svg PUBLIC "-//W3C//DTD SVG 1.1//EN"
 "http://www.w3.org/Graphics/SVG/1.1/DTD/svg11.dtd">
<!-- Generated by graphviz version 2.26.3 (20100126.1600)
 -->
<!-- Title: G Pages: 1 -->
<svg width="228pt" height="198pt"
 viewBox="0.00 0.00 228.00 198.00" xmlns="http://www.w3.org/2000/svg" xmlns:xlink="http://www.w3.org/1999/xlink">
<g id="graph1" class="graph" transform="scale(1 1) rotate(0) translate(4 194)">
<title>G</title>
<polygon fill="white" stroke="white" points="-4,5 -4,-194 225,-194 225,5 -4,5"/>
<!-- Node1 -->
<g id="node1" class="node"><title>Node1</title>
<polygon fill="#bfbfbf" stroke="black" points="-0.5,-0.5 -0.5,-89.5 220.5,-89.5 220.5,-0.5 -0.5,-0.5"/>
<text text-anchor="middle" x="110" y="-76.5" font-family="Helvetica,sans-Serif" font-size="10.00">pocketmine\level\generator\populator\TallGrass</text>
<polyline fill="none" stroke="black" points="-0.5,-68.5 220.5,-68.5 "/>
<text text-anchor="middle" x="110" y="-55.5" font-family="Helvetica,sans-Serif" font-size="10.00"> </text>
<polyline fill="none" stroke="black" points="-0.5,-47.5 220.5,-47.5 "/>
<text text-anchor="start" x="7.5" y="-34.5" font-family="Helvetica,sans-Serif" font-size="10.00">+ setRandomAmount()</text>
<text text-anchor="start" x="7.5" y="-21.5" font-family="Helvetica,sans-Serif" font-size="10.00">+ setBaseAmount()</text>
<text text-anchor="start" x="7.5" y="-8.5" font-family="Helvetica,sans-Serif" font-size="10.00">+ populate()</text>
</g>
<!-- Node2 -->
<g id="node2" class="node"><title>Node2</title>
<a xlink:href="../../db/de9/classpocketmine_1_1level_1_1generator_1_1populator_1_1_populator.html" target="_top" xlink:title="{pocketmine\\level\\generator\\populator\\Populator\n||+ populate()\l}">
<polygon fill="white" stroke="black" points="-0.5,-126.5 -0.5,-189.5 220.5,-189.5 220.5,-126.5 -0.5,-126.5"/>
<text text-anchor="middle" x="110" y="-176.5" font-family="Helvetica,sans-Serif" font-size="10.00">pocketmine\level\generator\populator\Populator</text>
<polyline fill="none" stroke="black" points="-0.5,-168.5 220.5,-168.5 "/>
<text text-anchor="middle" x="110" y="-155.5" font-family="Helvetica,sans-Serif" font-size="10.00"> </text>
<polyline fill="none" stroke="black" points="-0.5,-147.5 220.5,-147.5 "/>
<text text-anchor="start" x="7.5" y="-134.5" font-family="Helvetica,sans-Serif" font-size="10.00">+ populate()</text>
</a>
</g>
<!-- Node2&#45;&gt;Node1 -->
<g id="edge2" class="edge"><title>Node2&#45;&gt;Node1</title>
<path fill="none" stroke="midnightblue" d="M110,-116.015C110,-107.403 110,-98.3072 110,-89.6061"/>
<polygon fill="none" stroke="midnightblue" points="106.5,-116.222 110,-126.222 113.5,-116.223 106.5,-116.222"/>
</g>
</g>
</svg>
