<?xml version="1.0" encoding="UTF-8" standalone="no"?>
<!DOCTYPE svg PUBLIC "-//W3C//DTD SVG 1.1//EN"
 "http://www.w3.org/Graphics/SVG/1.1/DTD/svg11.dtd">
<!-- Generated by graphviz version 2.26.3 (20100126.1600)
 -->
<!-- Title: pocketmine\level\generator\populator\TallGrass Pages: 1 -->
<svg width="142pt" height="226pt"
 viewBox="0.00 0.00 142.00 226.00" xmlns="http://www.w3.org/2000/svg" xmlns:xlink="http://www.w3.org/1999/xlink">
<g id="graph1" class="graph" transform="scale(1 1) rotate(0) translate(4 222)">
<title>pocketmine\level\generator\populator\TallGrass</title>
<polygon fill="white" stroke="white" points="-4,5 -4,-222 139,-222 139,5 -4,5"/>
<!-- Node1 -->
<g id="node1" class="node"><title>Node1</title>
<polygon fill="#bfbfbf" stroke="black" points="0,-1 0,-103 134,-103 134,-1 0,-1"/>
<text text-anchor="start" x="8" y="-90" font-family="Helvetica,sans-Serif" font-size="10.00">pocketmine\level\generator</text>
<text text-anchor="middle" x="67" y="-77" font-family="Helvetica,sans-Serif" font-size="10.00">\populator\TallGrass</text>
<polyline fill="none" stroke="black" points="0,-69 134,-69 "/>
<text text-anchor="middle" x="67" y="-56" font-family="Helvetica,sans-Serif" font-size="10.00"> </text>
<polyline fill="none" stroke="black" points="0,-48 134,-48 "/>
<text text-anchor="start" x="8" y="-35" font-family="Helvetica,sans-Serif" font-size="10.00">+ setRandomAmount()</text>
<text text-anchor="start" x="8" y="-22" font-family="Helvetica,sans-Serif" font-size="10.00">+ setBaseAmount()</text>
<text text-anchor="start" x="8" y="-9" font-family="Helvetica,sans-Serif" font-size="10.00">+ populate()</text>
</g>
<!-- Node2 -->
<g id="node2" class="node"><title>Node2</title>
<a xlink:href="../../db/de9/classpocketmine_1_1level_1_1generator_1_1populator_1_1_populator.html" target="_top" xlink:title="{pocketmine\\level\\generator\l\\populator\\Populator\n||+ populate()\l}">
<polygon fill="white" stroke="black" points="0,-141 0,-217 134,-217 134,-141 0,-141"/>
<text text-anchor="start" x="8" y="-204" font-family="Helvetica,sans-Serif" font-size="10.00">pocketmine\level\generator</text>
<text text-anchor="middle" x="67" y="-191" font-family="Helvetica,sans-Serif" font-size="10.00">\populator\Populator</text>
<polyline fill="none" stroke="black" points="0,-183 134,-183 "/>
<text text-anchor="middle" x="67" y="-170" font-family="Helvetica,sans-Serif" font-size="10.00"> </text>
<polyline fill="none" stroke="black" points="0,-162 134,-162 "/>
<text text-anchor="start" x="8" y="-149" font-family="Helvetica,sans-Serif" font-size="10.00">+ populate()</text>
</a>
</g>
<!-- Node2&#45;&gt;Node1 -->
<g id="edge2" class="edge"><title>Node2&#45;&gt;Node1</title>
<path fill="none" stroke="midnightblue" d="M67,-130.621C67,-121.662 67,-112.276 67,-103.235"/>
<polygon fill="none" stroke="midnightblue" points="63.5001,-130.896 67,-140.896 70.5001,-130.896 63.5001,-130.896"/>
</g>
</g>
</svg>
