<?xml version="1.0" encoding="UTF-8" standalone="no"?>
<!DOCTYPE svg PUBLIC "-//W3C//DTD SVG 1.1//EN"
 "http://www.w3.org/Graphics/SVG/1.1/DTD/svg11.dtd">
<!-- Generated by graphviz version 2.26.3 (20100126.1600)
 -->
<!-- Title: pocketmine\command\PluginIdentifiableCommand\getPlugin Pages: 1 -->
<svg width="310pt" height="56pt"
 viewBox="0.00 0.00 310.00 56.00" xmlns="http://www.w3.org/2000/svg" xmlns:xlink="http://www.w3.org/1999/xlink">
<g id="graph1" class="graph" transform="scale(1 1) rotate(0) translate(4 52)">
<title>pocketmine\command\PluginIdentifiableCommand\getPlugin</title>
<polygon fill="white" stroke="white" points="-4,5 -4,-52 307,-52 307,5 -4,5"/>
<!-- Node1 -->
<g id="node1" class="node"><title>Node1</title>
<polygon fill="#bfbfbf" stroke="black" points="0.5,-0.5 0.5,-47.5 139.5,-47.5 139.5,-0.5 0.5,-0.5"/>
<text text-anchor="start" x="8.5" y="-34.5" font-family="Helvetica,sans-Serif" font-size="10.00">pocketmine\command</text>
<text text-anchor="start" x="8.5" y="-21.5" font-family="Helvetica,sans-Serif" font-size="10.00">\PluginIdentifiableCommand</text>
<text text-anchor="middle" x="70" y="-8.5" font-family="Helvetica,sans-Serif" font-size="10.00">\getPlugin</text>
</g>
<!-- Node2 -->
<g id="node3" class="node"><title>Node2</title>
<a xlink:href="../../d1/d8e/classpocketmine_1_1plugin_1_1_plugin_base.html#ab3d6a3761a0be785a9dcbb00d319550d" target="_top" xlink:title="pocketmine\\plugin\\Plugin\lBase\\getCommand">
<polygon fill="white" stroke="black" points="176.5,-7 176.5,-41 301.5,-41 301.5,-7 176.5,-7"/>
<text text-anchor="start" x="184.5" y="-28" font-family="Helvetica,sans-Serif" font-size="10.00">pocketmine\plugin\Plugin</text>
<text text-anchor="middle" x="239" y="-15" font-family="Helvetica,sans-Serif" font-size="10.00">Base\getCommand</text>
</a>
</g>
<!-- Node1&#45;&gt;Node2 -->
<g id="edge2" class="edge"><title>Node1&#45;&gt;Node2</title>
<path fill="none" stroke="midnightblue" d="M149.782,-24C158.745,-24 167.78,-24 176.48,-24"/>
<polygon fill="midnightblue" stroke="midnightblue" points="149.715,-20.5001 139.714,-24 149.714,-27.5001 149.715,-20.5001"/>
</g>
</g>
</svg>
