<?xml version="1.0" encoding="UTF-8" standalone="no"?>
<!DOCTYPE svg PUBLIC "-//W3C//DTD SVG 1.1//EN"
 "http://www.w3.org/Graphics/SVG/1.1/DTD/svg11.dtd">
<!-- Generated by graphviz version 2.26.3 (20100126.1600)
 -->
<!-- Title: G Pages: 1 -->
<svg width="422pt" height="416pt"
 viewBox="0.00 0.00 422.00 416.00" xmlns="http://www.w3.org/2000/svg" xmlns:xlink="http://www.w3.org/1999/xlink">
<g id="graph1" class="graph" transform="scale(1 1) rotate(0) translate(4 412)">
<title>G</title>
<polygon fill="white" stroke="white" points="-4,5 -4,-412 419,-412 419,5 -4,5"/>
<!-- Node1 -->
<g id="node1" class="node"><title>Node1</title>
<polygon fill="#bfbfbf" stroke="black" points="120.5,-204.5 120.5,-267.5 293.5,-267.5 293.5,-204.5 120.5,-204.5"/>
<text text-anchor="middle" x="207" y="-254.5" font-family="Helvetica,sans-Serif" font-size="10.00">pocketmine\event\block\BlockEvent</text>
<polyline fill="none" stroke="black" points="120.5,-246.5 293.5,-246.5 "/>
<text text-anchor="start" x="128.5" y="-233.5" font-family="Helvetica,sans-Serif" font-size="10.00"># $block</text>
<polyline fill="none" stroke="black" points="120.5,-225.5 293.5,-225.5 "/>
<text text-anchor="start" x="128.5" y="-212.5" font-family="Helvetica,sans-Serif" font-size="10.00">+ getBlock()</text>
</g>
<!-- Node3 -->
<g id="node5" class="node"><title>Node3</title>
<a xlink:href="../../de/d3a/classpocketmine_1_1event_1_1block_1_1_block_break_event.html" target="_top" xlink:title="{pocketmine\\event\\block\\BlockBreakEvent\n|+ $handlerList\l# $player\l# $item\l# $instaBreak\l|+ __construct()\l+ getPlayer()\l+ getItem()\l+ getInstaBreak()\l+ setInstaBreak()\l}">
<polygon fill="white" stroke="black" points="-0.5,-7 -0.5,-161 198.5,-161 198.5,-7 -0.5,-7"/>
<text text-anchor="middle" x="99" y="-148" font-family="Helvetica,sans-Serif" font-size="10.00">pocketmine\event\block\BlockBreakEvent</text>
<polyline fill="none" stroke="black" points="-0.5,-140 198.5,-140 "/>
<text text-anchor="start" x="7.5" y="-127" font-family="Helvetica,sans-Serif" font-size="10.00">+ $handlerList</text>
<text text-anchor="start" x="7.5" y="-114" font-family="Helvetica,sans-Serif" font-size="10.00"># $player</text>
<text text-anchor="start" x="7.5" y="-101" font-family="Helvetica,sans-Serif" font-size="10.00"># $item</text>
<text text-anchor="start" x="7.5" y="-88" font-family="Helvetica,sans-Serif" font-size="10.00"># $instaBreak</text>
<polyline fill="none" stroke="black" points="-0.5,-80 198.5,-80 "/>
<text text-anchor="start" x="7.5" y="-67" font-family="Helvetica,sans-Serif" font-size="10.00">+ __construct()</text>
<text text-anchor="start" x="7.5" y="-54" font-family="Helvetica,sans-Serif" font-size="10.00">+ getPlayer()</text>
<text text-anchor="start" x="7.5" y="-41" font-family="Helvetica,sans-Serif" font-size="10.00">+ getItem()</text>
<text text-anchor="start" x="7.5" y="-28" font-family="Helvetica,sans-Serif" font-size="10.00">+ getInstaBreak()</text>
<text text-anchor="start" x="7.5" y="-15" font-family="Helvetica,sans-Serif" font-size="10.00">+ setInstaBreak()</text>
</a>
</g>
<!-- Node1&#45;&gt;Node3 -->
<g id="edge4" class="edge"><title>Node1&#45;&gt;Node3</title>
<path fill="none" stroke="midnightblue" d="M178.464,-195.839C170.86,-185.136 162.382,-173.204 153.874,-161.231"/>
<polygon fill="none" stroke="midnightblue" points="175.714,-198.011 184.36,-204.136 181.421,-193.957 175.714,-198.011"/>
</g>
<!-- Node4 -->
<g id="node7" class="node"><title>Node4</title>
<a xlink:href="../../de/d85/classpocketmine_1_1event_1_1block_1_1_block_place_event.html" target="_top" xlink:title="{pocketmine\\event\\block\\BlockPlaceEvent\n|+ $handlerList\l# $player\l# $item\l# $blockReplace\l# $blockAgainst\l|+ __construct()\l+ getPlayer()\l+ getItem()\l+ getBlockReplaced()\l+ getBlockAgainst()\l}">
<polygon fill="white" stroke="black" points="216,-0.5 216,-167.5 414,-167.5 414,-0.5 216,-0.5"/>
<text text-anchor="middle" x="315" y="-154.5" font-family="Helvetica,sans-Serif" font-size="10.00">pocketmine\event\block\BlockPlaceEvent</text>
<polyline fill="none" stroke="black" points="216,-146.5 414,-146.5 "/>
<text text-anchor="start" x="224" y="-133.5" font-family="Helvetica,sans-Serif" font-size="10.00">+ $handlerList</text>
<text text-anchor="start" x="224" y="-120.5" font-family="Helvetica,sans-Serif" font-size="10.00"># $player</text>
<text text-anchor="start" x="224" y="-107.5" font-family="Helvetica,sans-Serif" font-size="10.00"># $item</text>
<text text-anchor="start" x="224" y="-94.5" font-family="Helvetica,sans-Serif" font-size="10.00"># $blockReplace</text>
<text text-anchor="start" x="224" y="-81.5" font-family="Helvetica,sans-Serif" font-size="10.00"># $blockAgainst</text>
<polyline fill="none" stroke="black" points="216,-73.5 414,-73.5 "/>
<text text-anchor="start" x="224" y="-60.5" font-family="Helvetica,sans-Serif" font-size="10.00">+ __construct()</text>
<text text-anchor="start" x="224" y="-47.5" font-family="Helvetica,sans-Serif" font-size="10.00">+ getPlayer()</text>
<text text-anchor="start" x="224" y="-34.5" font-family="Helvetica,sans-Serif" font-size="10.00">+ getItem()</text>
<text text-anchor="start" x="224" y="-21.5" font-family="Helvetica,sans-Serif" font-size="10.00">+ getBlockReplaced()</text>
<text text-anchor="start" x="224" y="-8.5" font-family="Helvetica,sans-Serif" font-size="10.00">+ getBlockAgainst()</text>
</a>
</g>
<!-- Node1&#45;&gt;Node4 -->
<g id="edge6" class="edge"><title>Node1&#45;&gt;Node4</title>
<path fill="none" stroke="midnightblue" d="M235.618,-195.723C241.804,-187.016 248.566,-177.5 255.449,-167.812"/>
<polygon fill="none" stroke="midnightblue" points="232.579,-193.957 229.64,-204.136 238.286,-198.011 232.579,-193.957"/>
</g>
<!-- Node2 -->
<g id="node2" class="node"><title>Node2</title>
<a xlink:href="../../d1/d2f/classpocketmine_1_1event_1_1_event.html" target="_top" xlink:title="{pocketmine\\event\\Event\n|# $eventName\l|+ getEventName()\l+ isCancelled()\l+ setCancelled()\l+ getHandlers()\l}">
<polygon fill="white" stroke="black" points="146,-305 146,-407 268,-407 268,-305 146,-305"/>
<text text-anchor="middle" x="207" y="-394" font-family="Helvetica,sans-Serif" font-size="10.00">pocketmine\event\Event</text>
<polyline fill="none" stroke="black" points="146,-386 268,-386 "/>
<text text-anchor="start" x="154" y="-373" font-family="Helvetica,sans-Serif" font-size="10.00"># $eventName</text>
<polyline fill="none" stroke="black" points="146,-365 268,-365 "/>
<text text-anchor="start" x="154" y="-352" font-family="Helvetica,sans-Serif" font-size="10.00">+ getEventName()</text>
<text text-anchor="start" x="154" y="-339" font-family="Helvetica,sans-Serif" font-size="10.00">+ isCancelled()</text>
<text text-anchor="start" x="154" y="-326" font-family="Helvetica,sans-Serif" font-size="10.00">+ setCancelled()</text>
<text text-anchor="start" x="154" y="-313" font-family="Helvetica,sans-Serif" font-size="10.00">+ getHandlers()</text>
</a>
</g>
<!-- Node2&#45;&gt;Node1 -->
<g id="edge2" class="edge"><title>Node2&#45;&gt;Node1</title>
<path fill="none" stroke="midnightblue" d="M207,-294.641C207,-285.292 207,-275.986 207,-267.633"/>
<polygon fill="none" stroke="midnightblue" points="203.5,-294.761 207,-304.761 210.5,-294.761 203.5,-294.761"/>
</g>
</g>
</svg>
