<?xml version="1.0" encoding="UTF-8" standalone="no"?>
<!DOCTYPE svg PUBLIC "-//W3C//DTD SVG 1.1//EN"
 "http://www.w3.org/Graphics/SVG/1.1/DTD/svg11.dtd">
<!-- Generated by graphviz version 2.26.3 (20100126.1600)
 -->
<!-- Title: Thread Pages: 1 -->
<!--zoomable 1418 -->
<svg id="main" version="1.1" xmlns="http://www.w3.org/2000/svg" xmlns:xlink="http://www.w3.org/1999/xlink" xml:space="preserve" onload="init(evt)">
<style type="text/css"><![CDATA[
.edge:hover path { stroke: red; }
.edge:hover polygon { stroke: red; fill: red; }
]]></style>
<script type="text/javascript"><![CDATA[
var edges = document.getElementsByTagName('g');
if (edges && edges.length) {
  for (var i=0;i<edges.length;i++) {
    if (edges[i].id.substr(0,4)=='edge') {
      edges[i].setAttribute('class','edge');
    }
  }
}
]]></script>
        <defs>
                <circle id="rim" cx="0" cy="0" r="7"/>
                <circle id="rim2" cx="0" cy="0" r="3.5"/>
                <g id="zoomPlus">
                        <use xlink:href="#rim" fill="#404040">
                                <set attributeName="fill" to="#808080" begin="zoomplus.mouseover" end="zoomplus.mouseout"/>
                        </use>
                        <path d="M-4,0h8M0,-4v8" fill="none" stroke="white" stroke-width="1.5" pointer-events="none"/>
                </g>
                <g id="zoomMin">
                        <use xlink:href="#rim" fill="#404040">
                                <set attributeName="fill" to="#808080" begin="zoomminus.mouseover" end="zoomminus.mouseout"/>
                        </use>
                        <path d="M-4,0h8" fill="none" stroke="white" stroke-width="1.5" pointer-events="none"/>
                </g>
                <g id="dirArrow">
                        <path fill="none" stroke="white" stroke-width="1.5" d="M0,-3.0v7 M-2.5,-0.5L0,-3.0L2.5,-0.5"/>
                </g>
               <g id="resetDef">
                       <use xlink:href="#rim2" fill="#404040">
                               <set attributeName="fill" to="#808080" begin="reset.mouseover" end="reset.mouseout"/>
                       </use>
               </g>
        </defs>

<script type="text/javascript">
var viewWidth = 631;
var viewHeight = 1418;
var sectionId = 'dynsection-0';
</script>
<script xlink:href="../../svgpan.js"/>
<svg id="graph" class="graph">
<g id="viewport">
<title>Thread</title>
<polygon fill="white" stroke="white" points="-4,5 -4,-1414 628,-1414 628,5 -4,5"/>
<!-- Node1 -->
<g id="node1" class="node"><title>Node1</title>
<polygon fill="#bfbfbf" stroke="black" points="252,-886.5 252,-1079.5 368,-1079.5 368,-886.5 252,-886.5"/>
<text text-anchor="middle" x="310" y="-1066.5" font-family="Helvetica,sans-Serif" font-size="10.00">Thread</text>
<polyline fill="none" stroke="black" points="252,-1058.5 368,-1058.5 "/>
<text text-anchor="middle" x="310" y="-1045.5" font-family="Helvetica,sans-Serif" font-size="10.00"> </text>
<polyline fill="none" stroke="black" points="252,-1037.5 368,-1037.5 "/>
<text text-anchor="start" x="260" y="-1024.5" font-family="Helvetica,sans-Serif" font-size="10.00">+ detach()</text>
<text text-anchor="start" x="260" y="-1011.5" font-family="Helvetica,sans-Serif" font-size="10.00">+ getCreatorId()</text>
<text text-anchor="start" x="260" y="-998.5" font-family="Helvetica,sans-Serif" font-size="10.00">+ getThreadId()</text>
<text text-anchor="start" x="260" y="-985.5" font-family="Helvetica,sans-Serif" font-size="10.00">+ isJoined()</text>
<text text-anchor="start" x="260" y="-972.5" font-family="Helvetica,sans-Serif" font-size="10.00">+ isStarted()</text>
<text text-anchor="start" x="260" y="-959.5" font-family="Helvetica,sans-Serif" font-size="10.00">+ join()</text>
<text text-anchor="start" x="260" y="-946.5" font-family="Helvetica,sans-Serif" font-size="10.00">+ kill()</text>
<text text-anchor="start" x="260" y="-933.5" font-family="Helvetica,sans-Serif" font-size="10.00">+ start()</text>
<text text-anchor="start" x="260" y="-920.5" font-family="Helvetica,sans-Serif" font-size="10.00">+ getCurrentThread()</text>
<text text-anchor="start" x="260" y="-907.5" font-family="Helvetica,sans-Serif" font-size="10.00">+ getCurrentThreadId()</text>
<text text-anchor="start" x="260" y="-894.5" font-family="Helvetica,sans-Serif" font-size="10.00">+ globally()</text>
</g>
<!-- Node6 -->
<g id="node11" class="node"><title>Node6</title>
<a xlink:href="../../d3/d92/classpocketmine_1_1network_1_1rcon_1_1_r_c_o_n_instance.html" target="_top" xlink:title="{pocketmine\\network\l\\rcon\\RCONInstance\n|+ $stop\l+ $cmd\l+ $response\l|+ __construct()\l+ close()\l+ run()\l}">
<polygon fill="white" stroke="black" points="-0.5,-650 -0.5,-778 108.5,-778 108.5,-650 -0.5,-650"/>
<text text-anchor="start" x="7.5" y="-765" font-family="Helvetica,sans-Serif" font-size="10.00">pocketmine\network</text>
<text text-anchor="middle" x="54" y="-752" font-family="Helvetica,sans-Serif" font-size="10.00">\rcon\RCONInstance</text>
<polyline fill="none" stroke="black" points="-0.5,-744 108.5,-744 "/>
<text text-anchor="start" x="7.5" y="-731" font-family="Helvetica,sans-Serif" font-size="10.00">+ $stop</text>
<text text-anchor="start" x="7.5" y="-718" font-family="Helvetica,sans-Serif" font-size="10.00">+ $cmd</text>
<text text-anchor="start" x="7.5" y="-705" font-family="Helvetica,sans-Serif" font-size="10.00">+ $response</text>
<polyline fill="none" stroke="black" points="-0.5,-697 108.5,-697 "/>
<text text-anchor="start" x="7.5" y="-684" font-family="Helvetica,sans-Serif" font-size="10.00">+ __construct()</text>
<text text-anchor="start" x="7.5" y="-671" font-family="Helvetica,sans-Serif" font-size="10.00">+ close()</text>
<text text-anchor="start" x="7.5" y="-658" font-family="Helvetica,sans-Serif" font-size="10.00">+ run()</text>
</a>
</g>
<!-- Node1&#45;&gt;Node6 -->
<g id="edge10" class="edge"><title>Node1&#45;&gt;Node6</title>
<path fill="none" stroke="midnightblue" d="M243.094,-948.92C202.437,-925.531 151.828,-891.298 117,-850 99.3857,-829.113 85.6222,-802.481 75.514,-778.33"/>
<polygon fill="none" stroke="midnightblue" points="241.446,-952.009 251.872,-953.892 244.896,-945.918 241.446,-952.009"/>
</g>
<!-- Node7 -->
<g id="node13" class="node"><title>Node7</title>
<a xlink:href="../../d1/d31/classpocketmine_1_1_thread.html" target="_top" xlink:title="{pocketmine\\Thread\n||+ start()\l}">
<polygon fill="white" stroke="black" points="126,-682.5 126,-745.5 226,-745.5 226,-682.5 126,-682.5"/>
<text text-anchor="middle" x="176" y="-732.5" font-family="Helvetica,sans-Serif" font-size="10.00">pocketmine\Thread</text>
<polyline fill="none" stroke="black" points="126,-724.5 226,-724.5 "/>
<text text-anchor="middle" x="176" y="-711.5" font-family="Helvetica,sans-Serif" font-size="10.00"> </text>
<polyline fill="none" stroke="black" points="126,-703.5 226,-703.5 "/>
<text text-anchor="start" x="134" y="-690.5" font-family="Helvetica,sans-Serif" font-size="10.00">+ start()</text>
</a>
</g>
<!-- Node1&#45;&gt;Node7 -->
<g id="edge12" class="edge"><title>Node1&#45;&gt;Node7</title>
<path fill="none" stroke="midnightblue" d="M249.18,-877.464C244.263,-868.239 239.472,-858.994 235,-850 217.584,-814.97 200.05,-773.593 188.677,-745.755"/>
<polygon fill="none" stroke="midnightblue" points="246.11,-879.144 253.928,-886.294 252.275,-875.829 246.11,-879.144"/>
</g>
<!-- Node10 -->
<g id="node19" class="node"><title>Node10</title>
<a xlink:href="../../d1/d8d/classraklib_1_1server_1_1_rak_lib_server.html" target="_top" xlink:title="{raklib\\server\\RakLibServer\n|+ $loadPaths\l# $port\l# $interface\l# $logger\l# $loader\l# $shutdown\l# $externalSocket\l# $internalSocket\l|+ __construct()\l+ addDependency()\l+ isShutdown()\l+ shutdown()\l+ getPort()\l+ getInterface()\l+ getLogger()\l+ getExternalSocket()\l+ getInternalSocket()\l+ run()\l}">
<polygon fill="white" stroke="black" points="244,-578.5 244,-849.5 376,-849.5 376,-578.5 244,-578.5"/>
<text text-anchor="middle" x="310" y="-836.5" font-family="Helvetica,sans-Serif" font-size="10.00">raklib\server\RakLibServer</text>
<polyline fill="none" stroke="black" points="244,-828.5 376,-828.5 "/>
<text text-anchor="start" x="252" y="-815.5" font-family="Helvetica,sans-Serif" font-size="10.00">+ $loadPaths</text>
<text text-anchor="start" x="252" y="-802.5" font-family="Helvetica,sans-Serif" font-size="10.00"># $port</text>
<text text-anchor="start" x="252" y="-789.5" font-family="Helvetica,sans-Serif" font-size="10.00"># $interface</text>
<text text-anchor="start" x="252" y="-776.5" font-family="Helvetica,sans-Serif" font-size="10.00"># $logger</text>
<text text-anchor="start" x="252" y="-763.5" font-family="Helvetica,sans-Serif" font-size="10.00"># $loader</text>
<text text-anchor="start" x="252" y="-750.5" font-family="Helvetica,sans-Serif" font-size="10.00"># $shutdown</text>
<text text-anchor="start" x="252" y="-737.5" font-family="Helvetica,sans-Serif" font-size="10.00"># $externalSocket</text>
<text text-anchor="start" x="252" y="-724.5" font-family="Helvetica,sans-Serif" font-size="10.00"># $internalSocket</text>
<polyline fill="none" stroke="black" points="244,-716.5 376,-716.5 "/>
<text text-anchor="start" x="252" y="-703.5" font-family="Helvetica,sans-Serif" font-size="10.00">+ __construct()</text>
<text text-anchor="start" x="252" y="-690.5" font-family="Helvetica,sans-Serif" font-size="10.00">+ addDependency()</text>
<text text-anchor="start" x="252" y="-677.5" font-family="Helvetica,sans-Serif" font-size="10.00">+ isShutdown()</text>
<text text-anchor="start" x="252" y="-664.5" font-family="Helvetica,sans-Serif" font-size="10.00">+ shutdown()</text>
<text text-anchor="start" x="252" y="-651.5" font-family="Helvetica,sans-Serif" font-size="10.00">+ getPort()</text>
<text text-anchor="start" x="252" y="-638.5" font-family="Helvetica,sans-Serif" font-size="10.00">+ getInterface()</text>
<text text-anchor="start" x="252" y="-625.5" font-family="Helvetica,sans-Serif" font-size="10.00">+ getLogger()</text>
<text text-anchor="start" x="252" y="-612.5" font-family="Helvetica,sans-Serif" font-size="10.00">+ getExternalSocket()</text>
<text text-anchor="start" x="252" y="-599.5" font-family="Helvetica,sans-Serif" font-size="10.00">+ getInternalSocket()</text>
<text text-anchor="start" x="252" y="-586.5" font-family="Helvetica,sans-Serif" font-size="10.00">+ run()</text>
</a>
</g>
<!-- Node1&#45;&gt;Node10 -->
<g id="edge18" class="edge"><title>Node1&#45;&gt;Node10</title>
<path fill="none" stroke="midnightblue" d="M310,-876.132C310,-867.43 310,-858.566 310,-849.695"/>
<polygon fill="none" stroke="midnightblue" points="306.5,-876.265 310,-886.265 313.5,-876.265 306.5,-876.265"/>
</g>
<!-- Node11 -->
<g id="node21" class="node"><title>Node11</title>
<a xlink:href="../../d0/d55/class_threaded_logger.html" target="_top" xlink:title="{ThreadedLogger\n||}">
<polygon fill="white" stroke="black" points="394,-682.5 394,-745.5 480,-745.5 480,-682.5 394,-682.5"/>
<text text-anchor="middle" x="437" y="-732.5" font-family="Helvetica,sans-Serif" font-size="10.00">ThreadedLogger</text>
<polyline fill="none" stroke="black" points="394,-724.5 480,-724.5 "/>
<text text-anchor="middle" x="437" y="-711.5" font-family="Helvetica,sans-Serif" font-size="10.00"> </text>
<polyline fill="none" stroke="black" points="394,-703.5 480,-703.5 "/>
<text text-anchor="middle" x="437" y="-690.5" font-family="Helvetica,sans-Serif" font-size="10.00"> </text>
</a>
</g>
<!-- Node1&#45;&gt;Node11 -->
<g id="edge20" class="edge"><title>Node1&#45;&gt;Node11</title>
<path fill="none" stroke="midnightblue" d="M371.546,-877.112C376.265,-868.027 380.814,-858.907 385,-850 401.396,-815.112 416.711,-773.528 426.414,-745.607"/>
<polygon fill="none" stroke="midnightblue" points="368.336,-875.697 366.778,-886.176 374.531,-878.956 368.336,-875.697"/>
</g>
<!-- Node14 -->
<g id="node27" class="node"><title>Node14</title>
<a xlink:href="../../d3/d0a/class_worker.html" target="_top" xlink:title="{Worker\n||+ getStacked()\l+ isShutdown()\l+ isWorking()\l+ shutdown()\l+ stack()\l+ unstack()\l}">
<polygon fill="white" stroke="black" points="513.5,-650 513.5,-778 596.5,-778 596.5,-650 513.5,-650"/>
<text text-anchor="middle" x="555" y="-765" font-family="Helvetica,sans-Serif" font-size="10.00">Worker</text>
<polyline fill="none" stroke="black" points="513.5,-757 596.5,-757 "/>
<text text-anchor="middle" x="555" y="-744" font-family="Helvetica,sans-Serif" font-size="10.00"> </text>
<polyline fill="none" stroke="black" points="513.5,-736 596.5,-736 "/>
<text text-anchor="start" x="521.5" y="-723" font-family="Helvetica,sans-Serif" font-size="10.00">+ getStacked()</text>
<text text-anchor="start" x="521.5" y="-710" font-family="Helvetica,sans-Serif" font-size="10.00">+ isShutdown()</text>
<text text-anchor="start" x="521.5" y="-697" font-family="Helvetica,sans-Serif" font-size="10.00">+ isWorking()</text>
<text text-anchor="start" x="521.5" y="-684" font-family="Helvetica,sans-Serif" font-size="10.00">+ shutdown()</text>
<text text-anchor="start" x="521.5" y="-671" font-family="Helvetica,sans-Serif" font-size="10.00">+ stack()</text>
<text text-anchor="start" x="521.5" y="-658" font-family="Helvetica,sans-Serif" font-size="10.00">+ unstack()</text>
</a>
</g>
<!-- Node1&#45;&gt;Node14 -->
<g id="edge26" class="edge"><title>Node1&#45;&gt;Node14</title>
<path fill="none" stroke="midnightblue" d="M376.801,-944.471C413.453,-920.806 457.676,-887.815 489,-850 506.495,-828.88 520.705,-802.34 531.396,-778.325"/>
<polygon fill="none" stroke="midnightblue" points="374.7,-941.659 368.142,-949.98 378.458,-947.565 374.7,-941.659"/>
</g>
<!-- Node2 -->
<g id="node2" class="node"><title>Node2</title>
<a xlink:href="../../d0/d82/class_threaded.html" target="_top" xlink:title="{Threaded\n||+ chunk()\l+ count()\l+ getTerminationInfo()\l+ isRunning()\l+ isTerminated()\l+ isWaiting()\l+ lock()\l+ merge()\l+ notify()\l+ offsetGet()\land 9 more...\l}">
<polygon fill="white" stroke="black" points="253.5,-1116.5 253.5,-1309.5 366.5,-1309.5 366.5,-1116.5 253.5,-1116.5"/>
<text text-anchor="middle" x="310" y="-1296.5" font-family="Helvetica,sans-Serif" font-size="10.00">Threaded</text>
<polyline fill="none" stroke="black" points="253.5,-1288.5 366.5,-1288.5 "/>
<text text-anchor="middle" x="310" y="-1275.5" font-family="Helvetica,sans-Serif" font-size="10.00"> </text>
<polyline fill="none" stroke="black" points="253.5,-1267.5 366.5,-1267.5 "/>
<text text-anchor="start" x="261.5" y="-1254.5" font-family="Helvetica,sans-Serif" font-size="10.00">+ chunk()</text>
<text text-anchor="start" x="261.5" y="-1241.5" font-family="Helvetica,sans-Serif" font-size="10.00">+ count()</text>
<text text-anchor="start" x="261.5" y="-1228.5" font-family="Helvetica,sans-Serif" font-size="10.00">+ getTerminationInfo()</text>
<text text-anchor="start" x="261.5" y="-1215.5" font-family="Helvetica,sans-Serif" font-size="10.00">+ isRunning()</text>
<text text-anchor="start" x="261.5" y="-1202.5" font-family="Helvetica,sans-Serif" font-size="10.00">+ isTerminated()</text>
<text text-anchor="start" x="261.5" y="-1189.5" font-family="Helvetica,sans-Serif" font-size="10.00">+ isWaiting()</text>
<text text-anchor="start" x="261.5" y="-1176.5" font-family="Helvetica,sans-Serif" font-size="10.00">+ lock()</text>
<text text-anchor="start" x="261.5" y="-1163.5" font-family="Helvetica,sans-Serif" font-size="10.00">+ merge()</text>
<text text-anchor="start" x="261.5" y="-1150.5" font-family="Helvetica,sans-Serif" font-size="10.00">+ notify()</text>
<text text-anchor="start" x="261.5" y="-1137.5" font-family="Helvetica,sans-Serif" font-size="10.00">+ offsetGet()</text>
<text text-anchor="start" x="261.5" y="-1124.5" font-family="Helvetica,sans-Serif" font-size="10.00">and 9 more...</text>
</a>
</g>
<!-- Node2&#45;&gt;Node1 -->
<g id="edge2" class="edge"><title>Node2&#45;&gt;Node1</title>
<path fill="none" stroke="midnightblue" d="M310,-1106.42C310,-1097.5 310,-1088.51 310,-1079.66"/>
<polygon fill="none" stroke="midnightblue" points="306.5,-1106.46 310,-1116.46 313.5,-1106.46 306.5,-1106.46"/>
</g>
<!-- Node3 -->
<g id="node4" class="node"><title>Node3</title>
<polygon fill="white" stroke="#bfbfbf" points="194,-1346.5 194,-1409.5 262,-1409.5 262,-1346.5 194,-1346.5"/>
<text text-anchor="middle" x="228" y="-1396.5" font-family="Helvetica,sans-Serif" font-size="10.00">Traversable</text>
<polyline fill="none" stroke="#bfbfbf" points="194,-1388.5 262,-1388.5 "/>
<text text-anchor="middle" x="228" y="-1375.5" font-family="Helvetica,sans-Serif" font-size="10.00"> </text>
<polyline fill="none" stroke="#bfbfbf" points="194,-1367.5 262,-1367.5 "/>
<text text-anchor="middle" x="228" y="-1354.5" font-family="Helvetica,sans-Serif" font-size="10.00"> </text>
</g>
<!-- Node3&#45;&gt;Node2 -->
<g id="edge4" class="edge"><title>Node3&#45;&gt;Node2</title>
<path fill="none" stroke="midnightblue" d="M248.396,-1336.96C252.619,-1328.46 257.236,-1319.17 261.981,-1309.62"/>
<polygon fill="none" stroke="midnightblue" points="245.127,-1335.67 243.81,-1346.19 251.395,-1338.79 245.127,-1335.67"/>
</g>
<!-- Node4 -->
<g id="node6" class="node"><title>Node4</title>
<polygon fill="white" stroke="#bfbfbf" points="279.5,-1346.5 279.5,-1409.5 340.5,-1409.5 340.5,-1346.5 279.5,-1346.5"/>
<text text-anchor="middle" x="310" y="-1396.5" font-family="Helvetica,sans-Serif" font-size="10.00">Countable</text>
<polyline fill="none" stroke="#bfbfbf" points="279.5,-1388.5 340.5,-1388.5 "/>
<text text-anchor="middle" x="310" y="-1375.5" font-family="Helvetica,sans-Serif" font-size="10.00"> </text>
<polyline fill="none" stroke="#bfbfbf" points="279.5,-1367.5 340.5,-1367.5 "/>
<text text-anchor="middle" x="310" y="-1354.5" font-family="Helvetica,sans-Serif" font-size="10.00"> </text>
</g>
<!-- Node4&#45;&gt;Node2 -->
<g id="edge6" class="edge"><title>Node4&#45;&gt;Node2</title>
<path fill="none" stroke="midnightblue" d="M310,-1336.13C310,-1327.86 310,-1318.86 310,-1309.62"/>
<polygon fill="none" stroke="midnightblue" points="306.5,-1336.19 310,-1346.19 313.5,-1336.19 306.5,-1336.19"/>
</g>
<!-- Node5 -->
<g id="node8" class="node"><title>Node5</title>
<polygon fill="white" stroke="#bfbfbf" points="357.5,-1346.5 357.5,-1409.5 430.5,-1409.5 430.5,-1346.5 357.5,-1346.5"/>
<text text-anchor="middle" x="394" y="-1396.5" font-family="Helvetica,sans-Serif" font-size="10.00">ArrayAccess</text>
<polyline fill="none" stroke="#bfbfbf" points="357.5,-1388.5 430.5,-1388.5 "/>
<text text-anchor="middle" x="394" y="-1375.5" font-family="Helvetica,sans-Serif" font-size="10.00"> </text>
<polyline fill="none" stroke="#bfbfbf" points="357.5,-1367.5 430.5,-1367.5 "/>
<text text-anchor="middle" x="394" y="-1354.5" font-family="Helvetica,sans-Serif" font-size="10.00"> </text>
</g>
<!-- Node5&#45;&gt;Node2 -->
<g id="edge8" class="edge"><title>Node5&#45;&gt;Node2</title>
<path fill="none" stroke="midnightblue" d="M373.246,-1337.23C368.882,-1328.66 364.104,-1319.27 359.19,-1309.62"/>
<polygon fill="none" stroke="midnightblue" points="370.148,-1338.86 377.804,-1346.19 376.386,-1335.69 370.148,-1338.86"/>
</g>
<!-- Node8 -->
<g id="node15" class="node"><title>Node8</title>
<a xlink:href="../../dd/de2/classpocketmine_1_1command_1_1_command_reader.html" target="_top" xlink:title="{pocketmine\\command\l\\CommandReader\n||+ __construct()\l+ getLine()\l+ run()\l}">
<polygon fill="white" stroke="black" points="30.5,-394 30.5,-496 143.5,-496 143.5,-394 30.5,-394"/>
<text text-anchor="start" x="38.5" y="-483" font-family="Helvetica,sans-Serif" font-size="10.00">pocketmine\command</text>
<text text-anchor="middle" x="87" y="-470" font-family="Helvetica,sans-Serif" font-size="10.00">\CommandReader</text>
<polyline fill="none" stroke="black" points="30.5,-462 143.5,-462 "/>
<text text-anchor="middle" x="87" y="-449" font-family="Helvetica,sans-Serif" font-size="10.00"> </text>
<polyline fill="none" stroke="black" points="30.5,-441 143.5,-441 "/>
<text text-anchor="start" x="38.5" y="-428" font-family="Helvetica,sans-Serif" font-size="10.00">+ __construct()</text>
<text text-anchor="start" x="38.5" y="-415" font-family="Helvetica,sans-Serif" font-size="10.00">+ getLine()</text>
<text text-anchor="start" x="38.5" y="-402" font-family="Helvetica,sans-Serif" font-size="10.00">+ run()</text>
</a>
</g>
<!-- Node7&#45;&gt;Node8 -->
<g id="edge14" class="edge"><title>Node7&#45;&gt;Node8</title>
<path fill="none" stroke="midnightblue" d="M162.342,-672.718C146.659,-625.318 120.92,-547.522 103.966,-496.278"/>
<polygon fill="none" stroke="midnightblue" points="159.065,-673.957 165.529,-682.351 165.711,-671.758 159.065,-673.957"/>
</g>
<!-- Node9 -->
<g id="node17" class="node"><title>Node9</title>
<a xlink:href="../../d6/de7/classpocketmine_1_1level_1_1generator_1_1_generation_thread.html" target="_top" xlink:title="{pocketmine\\level\\generator\l\\GenerationThread\n|# $loadPaths\l# $loader\l# $logger\l# $externalSocket\l# $internalSocket\l|+ getExternalSocket()\l+ getInternalSocket()\l+ getLogger()\l+ __construct()\l+ run()\l# addDependency()\l}">
<polygon fill="white" stroke="black" points="161,-348.5 161,-541.5 295,-541.5 295,-348.5 161,-348.5"/>
<text text-anchor="start" x="169" y="-528.5" font-family="Helvetica,sans-Serif" font-size="10.00">pocketmine\level\generator</text>
<text text-anchor="middle" x="228" y="-515.5" font-family="Helvetica,sans-Serif" font-size="10.00">\GenerationThread</text>
<polyline fill="none" stroke="black" points="161,-507.5 295,-507.5 "/>
<text text-anchor="start" x="169" y="-494.5" font-family="Helvetica,sans-Serif" font-size="10.00"># $loadPaths</text>
<text text-anchor="start" x="169" y="-481.5" font-family="Helvetica,sans-Serif" font-size="10.00"># $loader</text>
<text text-anchor="start" x="169" y="-468.5" font-family="Helvetica,sans-Serif" font-size="10.00"># $logger</text>
<text text-anchor="start" x="169" y="-455.5" font-family="Helvetica,sans-Serif" font-size="10.00"># $externalSocket</text>
<text text-anchor="start" x="169" y="-442.5" font-family="Helvetica,sans-Serif" font-size="10.00"># $internalSocket</text>
<polyline fill="none" stroke="black" points="161,-434.5 295,-434.5 "/>
<text text-anchor="start" x="169" y="-421.5" font-family="Helvetica,sans-Serif" font-size="10.00">+ getExternalSocket()</text>
<text text-anchor="start" x="169" y="-408.5" font-family="Helvetica,sans-Serif" font-size="10.00">+ getInternalSocket()</text>
<text text-anchor="start" x="169" y="-395.5" font-family="Helvetica,sans-Serif" font-size="10.00">+ getLogger()</text>
<text text-anchor="start" x="169" y="-382.5" font-family="Helvetica,sans-Serif" font-size="10.00">+ __construct()</text>
<text text-anchor="start" x="169" y="-369.5" font-family="Helvetica,sans-Serif" font-size="10.00">+ run()</text>
<text text-anchor="start" x="169" y="-356.5" font-family="Helvetica,sans-Serif" font-size="10.00"># addDependency()</text>
</a>
</g>
<!-- Node7&#45;&gt;Node9 -->
<g id="edge16" class="edge"><title>Node7&#45;&gt;Node9</title>
<path fill="none" stroke="midnightblue" d="M184.1,-672.1C190.821,-637.33 200.644,-586.515 209.295,-541.765"/>
<polygon fill="none" stroke="midnightblue" points="180.58,-671.869 182.118,-682.351 187.452,-673.197 180.58,-671.869"/>
</g>
<!-- Node12 -->
<g id="node23" class="node"><title>Node12</title>
<a xlink:href="../../d3/db3/class_attachable_threaded_logger.html" target="_top" xlink:title="{AttachableThreadedLogger\n|# $attachment\l|+ addAttachment()\l+ removeAttachment()\l+ removeAttachments()\l+ getAttachments()\l}">
<polygon fill="white" stroke="black" points="359.5,-394 359.5,-496 492.5,-496 492.5,-394 359.5,-394"/>
<text text-anchor="middle" x="426" y="-483" font-family="Helvetica,sans-Serif" font-size="10.00">AttachableThreadedLogger</text>
<polyline fill="none" stroke="black" points="359.5,-475 492.5,-475 "/>
<text text-anchor="start" x="367.5" y="-462" font-family="Helvetica,sans-Serif" font-size="10.00"># $attachment</text>
<polyline fill="none" stroke="black" points="359.5,-454 492.5,-454 "/>
<text text-anchor="start" x="367.5" y="-441" font-family="Helvetica,sans-Serif" font-size="10.00">+ addAttachment()</text>
<text text-anchor="start" x="367.5" y="-428" font-family="Helvetica,sans-Serif" font-size="10.00">+ removeAttachment()</text>
<text text-anchor="start" x="367.5" y="-415" font-family="Helvetica,sans-Serif" font-size="10.00">+ removeAttachments()</text>
<text text-anchor="start" x="367.5" y="-402" font-family="Helvetica,sans-Serif" font-size="10.00">+ getAttachments()</text>
</a>
</g>
<!-- Node11&#45;&gt;Node12 -->
<g id="edge22" class="edge"><title>Node11&#45;&gt;Node12</title>
<path fill="none" stroke="midnightblue" d="M435.288,-672.122C433.347,-624.668 430.184,-547.308 428.097,-496.278"/>
<polygon fill="none" stroke="midnightblue" points="431.8,-672.503 435.706,-682.351 438.794,-672.217 431.8,-672.503"/>
</g>
<!-- Node13 -->
<g id="node25" class="node"><title>Node13</title>
<a xlink:href="../../d9/d27/classpocketmine_1_1utils_1_1_main_logger.html" target="_top" xlink:title="{pocketmine\\utils\\MainLogger\n|+ $logger\l# $logFile\l# $logStream\l# $shutdown\l# $hasANSI\l# $logDebug\l|+ __construct()\l+ emergency()\l+ alert()\l+ critical()\l+ error()\l+ warning()\l+ notice()\l+ info()\l+ debug()\l+ setLogDebug()\l+ log()\l+ shutdown()\l+ run()\l+ getLogger()\l# send()\l}">
<polygon fill="white" stroke="black" points="352.5,-1 352.5,-311 493.5,-311 493.5,-1 352.5,-1"/>
<text text-anchor="middle" x="423" y="-298" font-family="Helvetica,sans-Serif" font-size="10.00">pocketmine\utils\MainLogger</text>
<polyline fill="none" stroke="black" points="352.5,-290 493.5,-290 "/>
<text text-anchor="start" x="360.5" y="-277" font-family="Helvetica,sans-Serif" font-size="10.00">+ $logger</text>
<text text-anchor="start" x="360.5" y="-264" font-family="Helvetica,sans-Serif" font-size="10.00"># $logFile</text>
<text text-anchor="start" x="360.5" y="-251" font-family="Helvetica,sans-Serif" font-size="10.00"># $logStream</text>
<text text-anchor="start" x="360.5" y="-238" font-family="Helvetica,sans-Serif" font-size="10.00"># $shutdown</text>
<text text-anchor="start" x="360.5" y="-225" font-family="Helvetica,sans-Serif" font-size="10.00"># $hasANSI</text>
<text text-anchor="start" x="360.5" y="-212" font-family="Helvetica,sans-Serif" font-size="10.00"># $logDebug</text>
<polyline fill="none" stroke="black" points="352.5,-204 493.5,-204 "/>
<text text-anchor="start" x="360.5" y="-191" font-family="Helvetica,sans-Serif" font-size="10.00">+ __construct()</text>
<text text-anchor="start" x="360.5" y="-178" font-family="Helvetica,sans-Serif" font-size="10.00">+ emergency()</text>
<text text-anchor="start" x="360.5" y="-165" font-family="Helvetica,sans-Serif" font-size="10.00">+ alert()</text>
<text text-anchor="start" x="360.5" y="-152" font-family="Helvetica,sans-Serif" font-size="10.00">+ critical()</text>
<text text-anchor="start" x="360.5" y="-139" font-family="Helvetica,sans-Serif" font-size="10.00">+ error()</text>
<text text-anchor="start" x="360.5" y="-126" font-family="Helvetica,sans-Serif" font-size="10.00">+ warning()</text>
<text text-anchor="start" x="360.5" y="-113" font-family="Helvetica,sans-Serif" font-size="10.00">+ notice()</text>
<text text-anchor="start" x="360.5" y="-100" font-family="Helvetica,sans-Serif" font-size="10.00">+ info()</text>
<text text-anchor="start" x="360.5" y="-87" font-family="Helvetica,sans-Serif" font-size="10.00">+ debug()</text>
<text text-anchor="start" x="360.5" y="-74" font-family="Helvetica,sans-Serif" font-size="10.00">+ setLogDebug()</text>
<text text-anchor="start" x="360.5" y="-61" font-family="Helvetica,sans-Serif" font-size="10.00">+ log()</text>
<text text-anchor="start" x="360.5" y="-48" font-family="Helvetica,sans-Serif" font-size="10.00">+ shutdown()</text>
<text text-anchor="start" x="360.5" y="-35" font-family="Helvetica,sans-Serif" font-size="10.00">+ run()</text>
<text text-anchor="start" x="360.5" y="-22" font-family="Helvetica,sans-Serif" font-size="10.00">+ getLogger()</text>
<text text-anchor="start" x="360.5" y="-9" font-family="Helvetica,sans-Serif" font-size="10.00"># send()</text>
</a>
</g>
<!-- Node12&#45;&gt;Node13 -->
<g id="edge24" class="edge"><title>Node12&#45;&gt;Node13</title>
<path fill="none" stroke="midnightblue" d="M425.364,-383.72C425.14,-362.141 424.877,-336.804 424.609,-311.018"/>
<polygon fill="none" stroke="midnightblue" points="421.867,-384.035 425.471,-393.998 428.866,-383.962 421.867,-384.035"/>
</g>
<!-- Node15 -->
<g id="node29" class="node"><title>Node15</title>
<a xlink:href="../../d1/d8c/classpocketmine_1_1_worker.html" target="_top" xlink:title="{pocketmine\\Worker\n||+ start()\l}">
<polygon fill="white" stroke="black" points="514.5,-413.5 514.5,-476.5 615.5,-476.5 615.5,-413.5 514.5,-413.5"/>
<text text-anchor="middle" x="565" y="-463.5" font-family="Helvetica,sans-Serif" font-size="10.00">pocketmine\Worker</text>
<polyline fill="none" stroke="black" points="514.5,-455.5 615.5,-455.5 "/>
<text text-anchor="middle" x="565" y="-442.5" font-family="Helvetica,sans-Serif" font-size="10.00"> </text>
<polyline fill="none" stroke="black" points="514.5,-434.5 615.5,-434.5 "/>
<text text-anchor="start" x="522.5" y="-421.5" font-family="Helvetica,sans-Serif" font-size="10.00">+ start()</text>
</a>
</g>
<!-- Node14&#45;&gt;Node15 -->
<g id="edge28" class="edge"><title>Node14&#45;&gt;Node15</title>
<path fill="none" stroke="midnightblue" d="M557.759,-639.778C559.748,-586.277 562.333,-516.734 563.816,-476.862"/>
<polygon fill="none" stroke="midnightblue" points="554.257,-639.786 557.383,-649.91 561.252,-640.047 554.257,-639.786"/>
</g>
<!-- Node16 -->
<g id="node31" class="node"><title>Node16</title>
<a xlink:href="../../d1/d4e/classpocketmine_1_1scheduler_1_1_async_worker.html" target="_top" xlink:title="{pocketmine\\scheduler\l\\AsyncWorker\n||+ run()\l}">
<polygon fill="white" stroke="black" points="511,-118 511,-194 623,-194 623,-118 511,-118"/>
<text text-anchor="start" x="519" y="-181" font-family="Helvetica,sans-Serif" font-size="10.00">pocketmine\scheduler</text>
<text text-anchor="middle" x="567" y="-168" font-family="Helvetica,sans-Serif" font-size="10.00">\AsyncWorker</text>
<polyline fill="none" stroke="black" points="511,-160 623,-160 "/>
<text text-anchor="middle" x="567" y="-147" font-family="Helvetica,sans-Serif" font-size="10.00"> </text>
<polyline fill="none" stroke="black" points="511,-139 623,-139 "/>
<text text-anchor="start" x="519" y="-126" font-family="Helvetica,sans-Serif" font-size="10.00">+ run()</text>
</a>
</g>
<!-- Node15&#45;&gt;Node16 -->
<g id="edge30" class="edge"><title>Node15&#45;&gt;Node16</title>
<path fill="none" stroke="midnightblue" d="M565.291,-402.949C565.679,-346.838 566.361,-248.292 566.736,-194.204"/>
<polygon fill="none" stroke="midnightblue" points="561.789,-403.221 565.22,-413.245 568.789,-403.27 561.789,-403.221"/>
</g>
</g>
</svg>
        <g id="navigator" transform="translate(0 0)" fill="#404254">
                <rect fill="#f2f5e9" fill-opacity="0.5" stroke="#606060" stroke-width=".5" x="0" y="0" width="60" height="60"/>
                <use id="zoomplus" xlink:href="#zoomPlus" x="17" y="9" onmousedown="handleZoom(evt,'in')"/>
                <use id="zoomminus" xlink:href="#zoomMin" x="42" y="9" onmousedown="handleZoom(evt,'out')"/>
                <use id="reset" xlink:href="#resetDef" x="30" y="36" onmousedown="handleReset()"/>
                <g id="arrowUp" xlink:href="#dirArrow" transform="translate(30 24)" onmousedown="handlePan(0,-1)">
                  <use xlink:href="#rim" fill="#404040">
                        <set attributeName="fill" to="#808080" begin="arrowUp.mouseover" end="arrowUp.mouseout"/>
                  </use>
                  <path fill="none" stroke="white" stroke-width="1.5" d="M0,-3.0v7 M-2.5,-0.5L0,-3.0L2.5,-0.5"/>
                </g>
                <g id="arrowRight" xlink:href="#dirArrow" transform="rotate(90) translate(36 -43)" onmousedown="handlePan(1,0)">
                  <use xlink:href="#rim" fill="#404040">
                        <set attributeName="fill" to="#808080" begin="arrowRight.mouseover" end="arrowRight.mouseout"/>
                  </use>
                  <path fill="none" stroke="white" stroke-width="1.5" d="M0,-3.0v7 M-2.5,-0.5L0,-3.0L2.5,-0.5"/>
                </g>
                <g id="arrowDown" xlink:href="#dirArrow" transform="rotate(180) translate(-30 -48)" onmousedown="handlePan(0,1)">
                  <use xlink:href="#rim" fill="#404040">
                        <set attributeName="fill" to="#808080" begin="arrowDown.mouseover" end="arrowDown.mouseout"/>
                  </use>
                  <path fill="none" stroke="white" stroke-width="1.5" d="M0,-3.0v7 M-2.5,-0.5L0,-3.0L2.5,-0.5"/>
                </g>
                <g id="arrowLeft" xlink:href="#dirArrow" transform="rotate(270) translate(-36 17)" onmousedown="handlePan(-1,0)">
                  <use xlink:href="#rim" fill="#404040">
                        <set attributeName="fill" to="#808080" begin="arrowLeft.mouseover" end="arrowLeft.mouseout"/>
                  </use>
                  <path fill="none" stroke="white" stroke-width="1.5" d="M0,-3.0v7 M-2.5,-0.5L0,-3.0L2.5,-0.5"/>
                </g>
        </g>
        <svg viewBox="0 0 15 15" width="100%" height="30px" preserveAspectRatio="xMaxYMin meet">
         <g id="arrow_out" transform="scale(0.3 0.3)">
          <a xlink:href="class_thread__inherit__graph_org.svg" target="_base">
           <rect id="button" ry="5" rx="5" y="6" x="6" height="38" width="38"
                fill="#f2f5e9" fill-opacity="0.5" stroke="#606060" stroke-width="1.0"/>
           <path id="arrow"
             d="M 11.500037,31.436501 C 11.940474,20.09759 22.043105,11.32322 32.158766,21.979434 L 37.068811,17.246167 C 37.068811,17.246167 37.088388,32 37.088388,32 L 22.160133,31.978069 C 22.160133,31.978069 26.997745,27.140456 26.997745,27.140456 C 18.528582,18.264221 13.291696,25.230495 11.500037,31.436501 z"
             style="fill:#404040;"/>
          </a>
         </g>
        </svg>
</svg>
