<?xml version="1.0" encoding="UTF-8" standalone="no"?>
<!DOCTYPE svg PUBLIC "-//W3C//DTD SVG 1.1//EN"
 "http://www.w3.org/Graphics/SVG/1.1/DTD/svg11.dtd">
<!-- Generated by graphviz version 2.26.3 (20100126.1600)
 -->
<!-- Title: pocketmine\event\entity\EntityMoveEvent Pages: 1 -->
<svg width="295pt" height="352pt"
 viewBox="0.00 0.00 295.00 352.00" xmlns="http://www.w3.org/2000/svg" xmlns:xlink="http://www.w3.org/1999/xlink">
<g id="graph1" class="graph" transform="scale(1 1) rotate(0) translate(4 348)">
<title>pocketmine\event\entity\EntityMoveEvent</title>
<polygon fill="white" stroke="white" points="-4,5 -4,-348 292,-348 292,5 -4,5"/>
<!-- Node1 -->
<g id="node1" class="node"><title>Node1</title>
<polygon fill="#bfbfbf" stroke="black" points="76.5,-0.5 76.5,-89.5 197.5,-89.5 197.5,-0.5 76.5,-0.5"/>
<text text-anchor="start" x="84.5" y="-76.5" font-family="Helvetica,sans-Serif" font-size="10.00">pocketmine\event\entity</text>
<text text-anchor="middle" x="137" y="-63.5" font-family="Helvetica,sans-Serif" font-size="10.00">\EntityMoveEvent</text>
<polyline fill="none" stroke="black" points="76.5,-55.5 197.5,-55.5 "/>
<text text-anchor="start" x="84.5" y="-42.5" font-family="Helvetica,sans-Serif" font-size="10.00">+ $handlerList</text>
<polyline fill="none" stroke="black" points="76.5,-34.5 197.5,-34.5 "/>
<text text-anchor="start" x="84.5" y="-21.5" font-family="Helvetica,sans-Serif" font-size="10.00">+ __construct()</text>
<text text-anchor="start" x="84.5" y="-8.5" font-family="Helvetica,sans-Serif" font-size="10.00">+ getVector()</text>
</g>
<!-- Node2 -->
<g id="node2" class="node"><title>Node2</title>
<a xlink:href="../../de/d84/classpocketmine_1_1event_1_1entity_1_1_entity_event.html" target="_top" xlink:title="{pocketmine\\event\\entity\l\\EntityEvent\n|# $entity\l|+ getEntity()\l}">
<polygon fill="white" stroke="black" points="0.5,-127 0.5,-203 121.5,-203 121.5,-127 0.5,-127"/>
<text text-anchor="start" x="8.5" y="-190" font-family="Helvetica,sans-Serif" font-size="10.00">pocketmine\event\entity</text>
<text text-anchor="middle" x="61" y="-177" font-family="Helvetica,sans-Serif" font-size="10.00">\EntityEvent</text>
<polyline fill="none" stroke="black" points="0.5,-169 121.5,-169 "/>
<text text-anchor="start" x="8.5" y="-156" font-family="Helvetica,sans-Serif" font-size="10.00"># $entity</text>
<polyline fill="none" stroke="black" points="0.5,-148 121.5,-148 "/>
<text text-anchor="start" x="8.5" y="-135" font-family="Helvetica,sans-Serif" font-size="10.00">+ getEntity()</text>
</a>
</g>
<!-- Node2&#45;&gt;Node1 -->
<g id="edge2" class="edge"><title>Node2&#45;&gt;Node1</title>
<path fill="none" stroke="midnightblue" d="M90.6266,-118.221C96.5827,-108.817 102.828,-98.9564 108.736,-89.6276"/>
<polygon fill="none" stroke="midnightblue" points="87.6495,-116.38 85.2558,-126.701 93.5633,-120.126 87.6495,-116.38"/>
</g>
<!-- Node3 -->
<g id="node4" class="node"><title>Node3</title>
<a xlink:href="../../d1/d2f/classpocketmine_1_1event_1_1_event.html" target="_top" xlink:title="{pocketmine\\event\\Event\n|# $eventName\l|+ getEventName()\l+ isCancelled()\l+ setCancelled()\l+ getHandlers()\l}">
<polygon fill="white" stroke="black" points="0,-241 0,-343 122,-343 122,-241 0,-241"/>
<text text-anchor="middle" x="61" y="-330" font-family="Helvetica,sans-Serif" font-size="10.00">pocketmine\event\Event</text>
<polyline fill="none" stroke="black" points="0,-322 122,-322 "/>
<text text-anchor="start" x="8" y="-309" font-family="Helvetica,sans-Serif" font-size="10.00"># $eventName</text>
<polyline fill="none" stroke="black" points="0,-301 122,-301 "/>
<text text-anchor="start" x="8" y="-288" font-family="Helvetica,sans-Serif" font-size="10.00">+ getEventName()</text>
<text text-anchor="start" x="8" y="-275" font-family="Helvetica,sans-Serif" font-size="10.00">+ isCancelled()</text>
<text text-anchor="start" x="8" y="-262" font-family="Helvetica,sans-Serif" font-size="10.00">+ setCancelled()</text>
<text text-anchor="start" x="8" y="-249" font-family="Helvetica,sans-Serif" font-size="10.00">+ getHandlers()</text>
</a>
</g>
<!-- Node3&#45;&gt;Node2 -->
<g id="edge4" class="edge"><title>Node3&#45;&gt;Node2</title>
<path fill="none" stroke="midnightblue" d="M61,-230.625C61,-221.273 61,-211.859 61,-203.197"/>
<polygon fill="none" stroke="midnightblue" points="57.5001,-230.71 61,-240.71 64.5001,-230.71 57.5001,-230.71"/>
</g>
<!-- Node4 -->
<g id="node6" class="node"><title>Node4</title>
<a xlink:href="../../db/d62/interfacepocketmine_1_1event_1_1_cancellable.html" target="_top" xlink:title="{pocketmine\\event\\Cancellable\n||+ isCancelled()\l+ setCancelled()\l}">
<polygon fill="white" stroke="black" points="139,-127 139,-203 287,-203 287,-127 139,-127"/>
<text text-anchor="middle" x="213" y="-190" font-family="Helvetica,sans-Serif" font-size="10.00">pocketmine\event\Cancellable</text>
<polyline fill="none" stroke="black" points="139,-182 287,-182 "/>
<text text-anchor="middle" x="213" y="-169" font-family="Helvetica,sans-Serif" font-size="10.00"> </text>
<polyline fill="none" stroke="black" points="139,-161 287,-161 "/>
<text text-anchor="start" x="147" y="-148" font-family="Helvetica,sans-Serif" font-size="10.00">+ isCancelled()</text>
<text text-anchor="start" x="147" y="-135" font-family="Helvetica,sans-Serif" font-size="10.00">+ setCancelled()</text>
</a>
</g>
<!-- Node4&#45;&gt;Node1 -->
<g id="edge6" class="edge"><title>Node4&#45;&gt;Node1</title>
<path fill="none" stroke="midnightblue" d="M183.373,-118.221C177.417,-108.817 171.172,-98.9564 165.264,-89.6276"/>
<polygon fill="none" stroke="midnightblue" points="180.437,-120.126 188.744,-126.701 186.35,-116.38 180.437,-120.126"/>
</g>
</g>
</svg>
