<?xml version="1.0" encoding="UTF-8" standalone="no"?>
<!DOCTYPE svg PUBLIC "-//W3C//DTD SVG 1.1//EN"
 "http://www.w3.org/Graphics/SVG/1.1/DTD/svg11.dtd">
<!-- Generated by graphviz version 2.26.3 (20100126.1600)
 -->
<!-- Title: pocketmine\permission\Permissible Pages: 1 -->
<svg width="146pt" height="276pt"
 viewBox="0.00 0.00 146.00 276.00" xmlns="http://www.w3.org/2000/svg" xmlns:xlink="http://www.w3.org/1999/xlink">
<g id="graph1" class="graph" transform="scale(1 1) rotate(0) translate(4 272)">
<title>pocketmine\permission\Permissible</title>
<polygon fill="white" stroke="white" points="-4,5 -4,-272 143,-272 143,5 -4,5"/>
<!-- Node1 -->
<g id="node1" class="node"><title>Node1</title>
<polygon fill="#bfbfbf" stroke="black" points="0,-0.5 0,-141.5 138,-141.5 138,-0.5 0,-0.5"/>
<text text-anchor="start" x="8" y="-128.5" font-family="Helvetica,sans-Serif" font-size="10.00">pocketmine\permission</text>
<text text-anchor="middle" x="69" y="-115.5" font-family="Helvetica,sans-Serif" font-size="10.00">\Permissible</text>
<polyline fill="none" stroke="black" points="0,-107.5 138,-107.5 "/>
<text text-anchor="middle" x="69" y="-94.5" font-family="Helvetica,sans-Serif" font-size="10.00"> </text>
<polyline fill="none" stroke="black" points="0,-86.5 138,-86.5 "/>
<text text-anchor="start" x="8" y="-73.5" font-family="Helvetica,sans-Serif" font-size="10.00">+ isPermissionSet()</text>
<text text-anchor="start" x="8" y="-60.5" font-family="Helvetica,sans-Serif" font-size="10.00">+ hasPermission()</text>
<text text-anchor="start" x="8" y="-47.5" font-family="Helvetica,sans-Serif" font-size="10.00">+ addAttachment()</text>
<text text-anchor="start" x="8" y="-34.5" font-family="Helvetica,sans-Serif" font-size="10.00">+ removeAttachment()</text>
<text text-anchor="start" x="8" y="-21.5" font-family="Helvetica,sans-Serif" font-size="10.00">+ recalculatePermissions()</text>
<text text-anchor="start" x="8" y="-8.5" font-family="Helvetica,sans-Serif" font-size="10.00">+ getEffectivePermissions()</text>
</g>
<!-- Node2 -->
<g id="node2" class="node"><title>Node2</title>
<a xlink:href="../../dd/d17/interfacepocketmine_1_1permission_1_1_server_operator.html" target="_top" xlink:title="{pocketmine\\permission\l\\ServerOperator\n||+ isOp()\l+ setOp()\l}">
<polygon fill="white" stroke="black" points="10.5,-178.5 10.5,-267.5 127.5,-267.5 127.5,-178.5 10.5,-178.5"/>
<text text-anchor="start" x="18.5" y="-254.5" font-family="Helvetica,sans-Serif" font-size="10.00">pocketmine\permission</text>
<text text-anchor="middle" x="69" y="-241.5" font-family="Helvetica,sans-Serif" font-size="10.00">\ServerOperator</text>
<polyline fill="none" stroke="black" points="10.5,-233.5 127.5,-233.5 "/>
<text text-anchor="middle" x="69" y="-220.5" font-family="Helvetica,sans-Serif" font-size="10.00"> </text>
<polyline fill="none" stroke="black" points="10.5,-212.5 127.5,-212.5 "/>
<text text-anchor="start" x="18.5" y="-199.5" font-family="Helvetica,sans-Serif" font-size="10.00">+ isOp()</text>
<text text-anchor="start" x="18.5" y="-186.5" font-family="Helvetica,sans-Serif" font-size="10.00">+ setOp()</text>
</a>
</g>
<!-- Node2&#45;&gt;Node1 -->
<g id="edge2" class="edge"><title>Node2&#45;&gt;Node1</title>
<path fill="none" stroke="midnightblue" d="M69,-168.013C69,-159.465 69,-150.532 69,-141.695"/>
<polygon fill="none" stroke="midnightblue" points="65.5001,-168.217 69,-178.217 72.5001,-168.217 65.5001,-168.217"/>
</g>
</g>
</svg>
