<?xml version="1.0" encoding="UTF-8" standalone="no"?>
<!DOCTYPE svg PUBLIC "-//W3C//DTD SVG 1.1//EN"
 "http://www.w3.org/Graphics/SVG/1.1/DTD/svg11.dtd">
<!-- Generated by graphviz version 2.26.3 (20100126.1600)
 -->
<!-- Title: G Pages: 1 -->
<!--zoomable 994 -->
<svg id="main" version="1.1" xmlns="http://www.w3.org/2000/svg" xmlns:xlink="http://www.w3.org/1999/xlink" xml:space="preserve" onload="init(evt)">
        <defs>
                <circle id="rim" cx="0" cy="0" r="7"/>
                <circle id="rim2" cx="0" cy="0" r="3.5"/>
                <g id="zoomPlus">
                        <use xlink:href="#rim" fill="#404040">
                                <set attributeName="fill" to="#808080" begin="zoomplus.mouseover" end="zoomplus.mouseout"/>
                        </use>
                        <path d="M-4,0h8M0,-4v8" fill="none" stroke="white" stroke-width="1.5" pointer-events="none"/>
                </g>
                <g id="zoomMin">
                        <use xlink:href="#rim" fill="#404040">
                                <set attributeName="fill" to="#808080" begin="zoomminus.mouseover" end="zoomminus.mouseout"/>
                        </use>
                        <path d="M-4,0h8" fill="none" stroke="white" stroke-width="1.5" pointer-events="none"/>
                </g>
                <g id="dirArrow">
                        <path fill="none" stroke="white" stroke-width="1.5" d="M0,-3.0v7 M-2.5,-0.5L0,-3.0L2.5,-0.5"/>
                </g>
               <g id="resetDef">
                       <use xlink:href="#rim2" fill="#404040">
                               <set attributeName="fill" to="#808080" begin="reset.mouseover" end="reset.mouseout"/>
                       </use>
               </g>
        </defs>

<script type="text/javascript">
var viewWidth = 2938;
var viewHeight = 994;
var sectionId = 'dynsection-0';
</script>
<script xlink:href="../../svgpan.js"/>
<svg id="graph" class="graph">
<g id="viewport">
<title>G</title>
<polygon fill="white" stroke="white" points="-4,5 -4,-990 2935,-990 2935,5 -4,5"/>
<!-- Node1 -->
<g id="node1" class="node"><title>Node1</title>
<polygon fill="#bfbfbf" stroke="black" points="1389.5,-204.5 1389.5,-267.5 1524.5,-267.5 1524.5,-204.5 1389.5,-204.5"/>
<text text-anchor="middle" x="1457" y="-254.5" font-family="Helvetica,sans-Serif" font-size="10.00">pocketmine\block\Flowable</text>
<polyline fill="none" stroke="black" points="1389.5,-246.5 1524.5,-246.5 "/>
<text text-anchor="middle" x="1457" y="-233.5" font-family="Helvetica,sans-Serif" font-size="10.00"> </text>
<polyline fill="none" stroke="black" points="1389.5,-225.5 1524.5,-225.5 "/>
<text text-anchor="start" x="1397.5" y="-212.5" font-family="Helvetica,sans-Serif" font-size="10.00">+ __construct()</text>
</g>
<!-- Node5 -->
<g id="node9" class="node"><title>Node5</title>
<a xlink:href="../../d7/da3/classpocketmine_1_1block_1_1_beetroot.html" target="_top" xlink:title="{pocketmine\\block\\Beetroot\n||+ __construct()\l+ place()\l+ onActivate()\l+ onUpdate()\l+ getDrops()\l}">
<polygon fill="white" stroke="black" points="-0.5,-26.5 -0.5,-141.5 132.5,-141.5 132.5,-26.5 -0.5,-26.5"/>
<text text-anchor="middle" x="66" y="-128.5" font-family="Helvetica,sans-Serif" font-size="10.00">pocketmine\block\Beetroot</text>
<polyline fill="none" stroke="black" points="-0.5,-120.5 132.5,-120.5 "/>
<text text-anchor="middle" x="66" y="-107.5" font-family="Helvetica,sans-Serif" font-size="10.00"> </text>
<polyline fill="none" stroke="black" points="-0.5,-99.5 132.5,-99.5 "/>
<text text-anchor="start" x="7.5" y="-86.5" font-family="Helvetica,sans-Serif" font-size="10.00">+ __construct()</text>
<text text-anchor="start" x="7.5" y="-73.5" font-family="Helvetica,sans-Serif" font-size="10.00">+ place()</text>
<text text-anchor="start" x="7.5" y="-60.5" font-family="Helvetica,sans-Serif" font-size="10.00">+ onActivate()</text>
<text text-anchor="start" x="7.5" y="-47.5" font-family="Helvetica,sans-Serif" font-size="10.00">+ onUpdate()</text>
<text text-anchor="start" x="7.5" y="-34.5" font-family="Helvetica,sans-Serif" font-size="10.00">+ getDrops()</text>
</a>
</g>
<!-- Node1&#45;&gt;Node5 -->
<g id="edge8" class="edge"><title>Node1&#45;&gt;Node5</title>
<path fill="none" stroke="midnightblue" d="M1378.77,-235.447C1112.61,-233.089 252.408,-221.375 141,-168 127.953,-161.749 116.182,-152.093 106.039,-141.523"/>
<polygon fill="none" stroke="midnightblue" points="1379.09,-238.95 1389.12,-235.537 1379.15,-231.95 1379.09,-238.95"/>
</g>
<!-- Node6 -->
<g id="node11" class="node"><title>Node6</title>
<a xlink:href="../../df/d55/classpocketmine_1_1block_1_1_brown_mushroom.html" target="_top" xlink:title="{pocketmine\\block\\BrownMushroom\n||+ __construct()\l+ onUpdate()\l+ place()\l}">
<polygon fill="white" stroke="black" points="150,-39.5 150,-128.5 320,-128.5 320,-39.5 150,-39.5"/>
<text text-anchor="middle" x="235" y="-115.5" font-family="Helvetica,sans-Serif" font-size="10.00">pocketmine\block\BrownMushroom</text>
<polyline fill="none" stroke="black" points="150,-107.5 320,-107.5 "/>
<text text-anchor="middle" x="235" y="-94.5" font-family="Helvetica,sans-Serif" font-size="10.00"> </text>
<polyline fill="none" stroke="black" points="150,-86.5 320,-86.5 "/>
<text text-anchor="start" x="158" y="-73.5" font-family="Helvetica,sans-Serif" font-size="10.00">+ __construct()</text>
<text text-anchor="start" x="158" y="-60.5" font-family="Helvetica,sans-Serif" font-size="10.00">+ onUpdate()</text>
<text text-anchor="start" x="158" y="-47.5" font-family="Helvetica,sans-Serif" font-size="10.00">+ place()</text>
</a>
</g>
<!-- Node1&#45;&gt;Node6 -->
<g id="edge10" class="edge"><title>Node1&#45;&gt;Node6</title>
<path fill="none" stroke="midnightblue" d="M1379.35,-234.265C1140.23,-228.513 425.298,-208.119 329,-168 308.191,-159.331 288.91,-144.04 273.296,-128.858"/>
<polygon fill="none" stroke="midnightblue" points="1379.28,-237.764 1389.36,-234.504 1379.45,-230.766 1379.28,-237.764"/>
</g>
<!-- Node7 -->
<g id="node13" class="node"><title>Node7</title>
<a xlink:href="../../d8/d55/classpocketmine_1_1block_1_1_carpet.html" target="_top" xlink:title="{pocketmine\\block\\Carpet\n||+ __construct()\l+ place()\l+ onUpdate()\l}">
<polygon fill="white" stroke="black" points="337.5,-39.5 337.5,-128.5 462.5,-128.5 462.5,-39.5 337.5,-39.5"/>
<text text-anchor="middle" x="400" y="-115.5" font-family="Helvetica,sans-Serif" font-size="10.00">pocketmine\block\Carpet</text>
<polyline fill="none" stroke="black" points="337.5,-107.5 462.5,-107.5 "/>
<text text-anchor="middle" x="400" y="-94.5" font-family="Helvetica,sans-Serif" font-size="10.00"> </text>
<polyline fill="none" stroke="black" points="337.5,-86.5 462.5,-86.5 "/>
<text text-anchor="start" x="345.5" y="-73.5" font-family="Helvetica,sans-Serif" font-size="10.00">+ __construct()</text>
<text text-anchor="start" x="345.5" y="-60.5" font-family="Helvetica,sans-Serif" font-size="10.00">+ place()</text>
<text text-anchor="start" x="345.5" y="-47.5" font-family="Helvetica,sans-Serif" font-size="10.00">+ onUpdate()</text>
</a>
</g>
<!-- Node1&#45;&gt;Node7 -->
<g id="edge12" class="edge"><title>Node1&#45;&gt;Node7</title>
<path fill="none" stroke="midnightblue" d="M1379.31,-234.109C1160.74,-228.305 551.185,-208.627 471,-168 453.456,-159.111 438.536,-143.777 426.968,-128.623"/>
<polygon fill="none" stroke="midnightblue" points="1379.33,-237.61 1389.42,-234.375 1379.52,-230.613 1379.33,-237.61"/>
</g>
<!-- Node8 -->
<g id="node15" class="node"><title>Node8</title>
<a xlink:href="../../da/dd7/classpocketmine_1_1block_1_1_carrot.html" target="_top" xlink:title="{pocketmine\\block\\Carrot\n||+ __construct()\l+ place()\l+ onActivate()\l+ onUpdate()\l+ getDrops()\l}">
<polygon fill="white" stroke="black" points="479.5,-26.5 479.5,-141.5 602.5,-141.5 602.5,-26.5 479.5,-26.5"/>
<text text-anchor="middle" x="541" y="-128.5" font-family="Helvetica,sans-Serif" font-size="10.00">pocketmine\block\Carrot</text>
<polyline fill="none" stroke="black" points="479.5,-120.5 602.5,-120.5 "/>
<text text-anchor="middle" x="541" y="-107.5" font-family="Helvetica,sans-Serif" font-size="10.00"> </text>
<polyline fill="none" stroke="black" points="479.5,-99.5 602.5,-99.5 "/>
<text text-anchor="start" x="487.5" y="-86.5" font-family="Helvetica,sans-Serif" font-size="10.00">+ __construct()</text>
<text text-anchor="start" x="487.5" y="-73.5" font-family="Helvetica,sans-Serif" font-size="10.00">+ place()</text>
<text text-anchor="start" x="487.5" y="-60.5" font-family="Helvetica,sans-Serif" font-size="10.00">+ onActivate()</text>
<text text-anchor="start" x="487.5" y="-47.5" font-family="Helvetica,sans-Serif" font-size="10.00">+ onUpdate()</text>
<text text-anchor="start" x="487.5" y="-34.5" font-family="Helvetica,sans-Serif" font-size="10.00">+ getDrops()</text>
</a>
</g>
<!-- Node1&#45;&gt;Node8 -->
<g id="edge14" class="edge"><title>Node1&#45;&gt;Node8</title>
<path fill="none" stroke="midnightblue" d="M1378.93,-233.166C1182.41,-225.549 678.194,-202.823 611,-168 598.696,-161.624 587.718,-152.054 578.309,-141.629"/>
<polygon fill="none" stroke="midnightblue" points="1379.05,-236.673 1389.17,-233.561 1379.32,-229.679 1379.05,-236.673"/>
</g>
<!-- Node9 -->
<g id="node17" class="node"><title>Node9</title>
<a xlink:href="../../db/ddc/classpocketmine_1_1block_1_1_cobweb.html" target="_top" xlink:title="{pocketmine\\block\\Cobweb\n||+ __construct()\l+ getDrops()\l}">
<polygon fill="white" stroke="black" points="620,-46 620,-122 752,-122 752,-46 620,-46"/>
<text text-anchor="middle" x="686" y="-109" font-family="Helvetica,sans-Serif" font-size="10.00">pocketmine\block\Cobweb</text>
<polyline fill="none" stroke="black" points="620,-101 752,-101 "/>
<text text-anchor="middle" x="686" y="-88" font-family="Helvetica,sans-Serif" font-size="10.00"> </text>
<polyline fill="none" stroke="black" points="620,-80 752,-80 "/>
<text text-anchor="start" x="628" y="-67" font-family="Helvetica,sans-Serif" font-size="10.00">+ __construct()</text>
<text text-anchor="start" x="628" y="-54" font-family="Helvetica,sans-Serif" font-size="10.00">+ getDrops()</text>
</a>
</g>
<!-- Node1&#45;&gt;Node9 -->
<g id="edge16" class="edge"><title>Node1&#45;&gt;Node9</title>
<path fill="none" stroke="midnightblue" d="M1379.21,-231.593C1209.16,-221.502 815.108,-195.463 761,-168 740.603,-157.648 723.184,-139.212 710.282,-122.245"/>
<polygon fill="none" stroke="midnightblue" points="1379.16,-235.096 1389.35,-232.192 1379.57,-228.108 1379.16,-235.096"/>
</g>
<!-- Node10 -->
<g id="node19" class="node"><title>Node10</title>
<a xlink:href="../../d3/dc4/classpocketmine_1_1block_1_1_cyan_flower.html" target="_top" xlink:title="{pocketmine\\block\\CyanFlower\n||+ __construct()\l+ place()\l+ onUpdate()\l}">
<polygon fill="white" stroke="black" points="769.5,-39.5 769.5,-128.5 918.5,-128.5 918.5,-39.5 769.5,-39.5"/>
<text text-anchor="middle" x="844" y="-115.5" font-family="Helvetica,sans-Serif" font-size="10.00">pocketmine\block\CyanFlower</text>
<polyline fill="none" stroke="black" points="769.5,-107.5 918.5,-107.5 "/>
<text text-anchor="middle" x="844" y="-94.5" font-family="Helvetica,sans-Serif" font-size="10.00"> </text>
<polyline fill="none" stroke="black" points="769.5,-86.5 918.5,-86.5 "/>
<text text-anchor="start" x="777.5" y="-73.5" font-family="Helvetica,sans-Serif" font-size="10.00">+ __construct()</text>
<text text-anchor="start" x="777.5" y="-60.5" font-family="Helvetica,sans-Serif" font-size="10.00">+ place()</text>
<text text-anchor="start" x="777.5" y="-47.5" font-family="Helvetica,sans-Serif" font-size="10.00">+ onUpdate()</text>
</a>
</g>
<!-- Node1&#45;&gt;Node10 -->
<g id="edge18" class="edge"><title>Node1&#45;&gt;Node10</title>
<path fill="none" stroke="midnightblue" d="M1379.06,-232.22C1251.54,-225.008 1004.72,-206.455 927,-168 908.257,-158.726 891.274,-143.507 877.623,-128.553"/>
<polygon fill="none" stroke="midnightblue" points="1378.97,-235.72 1389.15,-232.781 1379.36,-228.731 1378.97,-235.72"/>
</g>
<!-- Node11 -->
<g id="node21" class="node"><title>Node11</title>
<a xlink:href="../../d3/d9e/classpocketmine_1_1block_1_1_dandelion.html" target="_top" xlink:title="{pocketmine\\block\\Dandelion\n||+ __construct()\l+ place()\l+ onUpdate()\l}">
<polygon fill="white" stroke="black" points="936,-39.5 936,-128.5 1076,-128.5 1076,-39.5 936,-39.5"/>
<text text-anchor="middle" x="1006" y="-115.5" font-family="Helvetica,sans-Serif" font-size="10.00">pocketmine\block\Dandelion</text>
<polyline fill="none" stroke="black" points="936,-107.5 1076,-107.5 "/>
<text text-anchor="middle" x="1006" y="-94.5" font-family="Helvetica,sans-Serif" font-size="10.00"> </text>
<polyline fill="none" stroke="black" points="936,-86.5 1076,-86.5 "/>
<text text-anchor="start" x="944" y="-73.5" font-family="Helvetica,sans-Serif" font-size="10.00">+ __construct()</text>
<text text-anchor="start" x="944" y="-60.5" font-family="Helvetica,sans-Serif" font-size="10.00">+ place()</text>
<text text-anchor="start" x="944" y="-47.5" font-family="Helvetica,sans-Serif" font-size="10.00">+ onUpdate()</text>
</a>
</g>
<!-- Node1&#45;&gt;Node11 -->
<g id="edge20" class="edge"><title>Node1&#45;&gt;Node11</title>
<path fill="none" stroke="midnightblue" d="M1379.12,-227.556C1285.44,-216.405 1134.59,-194.989 1085,-168 1067.42,-158.43 1051.52,-143.519 1038.67,-128.9"/>
<polygon fill="none" stroke="midnightblue" points="1378.78,-231.04 1389.12,-228.733 1379.6,-224.088 1378.78,-231.04"/>
</g>
<!-- Node12 -->
<g id="node23" class="node"><title>Node12</title>
<a xlink:href="../../dc/dbe/classpocketmine_1_1block_1_1_dead_bush.html" target="_top" xlink:title="{pocketmine\\block\\DeadBush\n||+ __construct()\l+ onUpdate()\l}">
<polygon fill="white" stroke="black" points="1094,-46 1094,-122 1236,-122 1236,-46 1094,-46"/>
<text text-anchor="middle" x="1165" y="-109" font-family="Helvetica,sans-Serif" font-size="10.00">pocketmine\block\DeadBush</text>
<polyline fill="none" stroke="black" points="1094,-101 1236,-101 "/>
<text text-anchor="middle" x="1165" y="-88" font-family="Helvetica,sans-Serif" font-size="10.00"> </text>
<polyline fill="none" stroke="black" points="1094,-80 1236,-80 "/>
<text text-anchor="start" x="1102" y="-67" font-family="Helvetica,sans-Serif" font-size="10.00">+ __construct()</text>
<text text-anchor="start" x="1102" y="-54" font-family="Helvetica,sans-Serif" font-size="10.00">+ onUpdate()</text>
</a>
</g>
<!-- Node1&#45;&gt;Node12 -->
<g id="edge22" class="edge"><title>Node1&#45;&gt;Node12</title>
<path fill="none" stroke="midnightblue" d="M1379.41,-220.964C1337.42,-210.477 1285.93,-193.664 1245,-168 1225.72,-155.91 1207.87,-138.127 1193.95,-122.032"/>
<polygon fill="none" stroke="midnightblue" points="1378.77,-224.411 1389.32,-223.366 1380.42,-217.608 1378.77,-224.411"/>
</g>
<!-- Node13 -->
<g id="node25" class="node"><title>Node13</title>
<a xlink:href="../../da/d18/classpocketmine_1_1block_1_1_fire.html" target="_top" xlink:title="{pocketmine\\block\\Fire\n||+ __construct()\l+ getDrops()\l+ onUpdate()\l}">
<polygon fill="white" stroke="black" points="1253.5,-39.5 1253.5,-128.5 1366.5,-128.5 1366.5,-39.5 1253.5,-39.5"/>
<text text-anchor="middle" x="1310" y="-115.5" font-family="Helvetica,sans-Serif" font-size="10.00">pocketmine\block\Fire</text>
<polyline fill="none" stroke="black" points="1253.5,-107.5 1366.5,-107.5 "/>
<text text-anchor="middle" x="1310" y="-94.5" font-family="Helvetica,sans-Serif" font-size="10.00"> </text>
<polyline fill="none" stroke="black" points="1253.5,-86.5 1366.5,-86.5 "/>
<text text-anchor="start" x="1261.5" y="-73.5" font-family="Helvetica,sans-Serif" font-size="10.00">+ __construct()</text>
<text text-anchor="start" x="1261.5" y="-60.5" font-family="Helvetica,sans-Serif" font-size="10.00">+ getDrops()</text>
<text text-anchor="start" x="1261.5" y="-47.5" font-family="Helvetica,sans-Serif" font-size="10.00">+ onUpdate()</text>
</a>
</g>
<!-- Node1&#45;&gt;Node13 -->
<g id="edge24" class="edge"><title>Node1&#45;&gt;Node13</title>
<path fill="none" stroke="midnightblue" d="M1407.42,-197.862C1396.33,-188.536 1384.93,-178.271 1375,-168 1363.34,-155.936 1351.75,-141.835 1341.66,-128.669"/>
<polygon fill="none" stroke="midnightblue" points="1405.47,-200.794 1415.41,-204.474 1409.93,-195.402 1405.47,-200.794"/>
</g>
<!-- Node14 -->
<g id="node27" class="node"><title>Node14</title>
<a xlink:href="../../db/d86/classpocketmine_1_1block_1_1_melon_stem.html" target="_top" xlink:title="{pocketmine\\block\\MelonStem\n||+ __construct()\l+ place()\l+ onUpdate()\l+ onActivate()\l+ getDrops()\l}">
<polygon fill="white" stroke="black" points="1384,-26.5 1384,-141.5 1530,-141.5 1530,-26.5 1384,-26.5"/>
<text text-anchor="middle" x="1457" y="-128.5" font-family="Helvetica,sans-Serif" font-size="10.00">pocketmine\block\MelonStem</text>
<polyline fill="none" stroke="black" points="1384,-120.5 1530,-120.5 "/>
<text text-anchor="middle" x="1457" y="-107.5" font-family="Helvetica,sans-Serif" font-size="10.00"> </text>
<polyline fill="none" stroke="black" points="1384,-99.5 1530,-99.5 "/>
<text text-anchor="start" x="1392" y="-86.5" font-family="Helvetica,sans-Serif" font-size="10.00">+ __construct()</text>
<text text-anchor="start" x="1392" y="-73.5" font-family="Helvetica,sans-Serif" font-size="10.00">+ place()</text>
<text text-anchor="start" x="1392" y="-60.5" font-family="Helvetica,sans-Serif" font-size="10.00">+ onUpdate()</text>
<text text-anchor="start" x="1392" y="-47.5" font-family="Helvetica,sans-Serif" font-size="10.00">+ onActivate()</text>
<text text-anchor="start" x="1392" y="-34.5" font-family="Helvetica,sans-Serif" font-size="10.00">+ getDrops()</text>
</a>
</g>
<!-- Node1&#45;&gt;Node14 -->
<g id="edge26" class="edge"><title>Node1&#45;&gt;Node14</title>
<path fill="none" stroke="midnightblue" d="M1457,-193.921C1457,-177.749 1457,-158.998 1457,-141.614"/>
<polygon fill="none" stroke="midnightblue" points="1453.5,-194.136 1457,-204.136 1460.5,-194.136 1453.5,-194.136"/>
</g>
<!-- Node15 -->
<g id="node29" class="node"><title>Node15</title>
<a xlink:href="../../d4/d42/classpocketmine_1_1block_1_1_potato.html" target="_top" xlink:title="{pocketmine\\block\\Potato\n||+ __construct()\l+ place()\l+ onActivate()\l+ onUpdate()\l+ getDrops()\l}">
<polygon fill="white" stroke="black" points="1547.5,-26.5 1547.5,-141.5 1672.5,-141.5 1672.5,-26.5 1547.5,-26.5"/>
<text text-anchor="middle" x="1610" y="-128.5" font-family="Helvetica,sans-Serif" font-size="10.00">pocketmine\block\Potato</text>
<polyline fill="none" stroke="black" points="1547.5,-120.5 1672.5,-120.5 "/>
<text text-anchor="middle" x="1610" y="-107.5" font-family="Helvetica,sans-Serif" font-size="10.00"> </text>
<polyline fill="none" stroke="black" points="1547.5,-99.5 1672.5,-99.5 "/>
<text text-anchor="start" x="1555.5" y="-86.5" font-family="Helvetica,sans-Serif" font-size="10.00">+ __construct()</text>
<text text-anchor="start" x="1555.5" y="-73.5" font-family="Helvetica,sans-Serif" font-size="10.00">+ place()</text>
<text text-anchor="start" x="1555.5" y="-60.5" font-family="Helvetica,sans-Serif" font-size="10.00">+ onActivate()</text>
<text text-anchor="start" x="1555.5" y="-47.5" font-family="Helvetica,sans-Serif" font-size="10.00">+ onUpdate()</text>
<text text-anchor="start" x="1555.5" y="-34.5" font-family="Helvetica,sans-Serif" font-size="10.00">+ getDrops()</text>
</a>
</g>
<!-- Node1&#45;&gt;Node15 -->
<g id="edge28" class="edge"><title>Node1&#45;&gt;Node15</title>
<path fill="none" stroke="midnightblue" d="M1506.26,-197.545C1517.36,-188.233 1528.85,-178.055 1539,-168 1547.27,-159.802 1555.64,-150.742 1563.58,-141.696"/>
<polygon fill="none" stroke="midnightblue" points="1503.74,-195.085 1498.27,-204.159 1508.21,-200.477 1503.74,-195.085"/>
</g>
<!-- Node16 -->
<g id="node31" class="node"><title>Node16</title>
<a xlink:href="../../df/da1/classpocketmine_1_1block_1_1_pumpkin_stem.html" target="_top" xlink:title="{pocketmine\\block\\PumpkinStem\n||+ __construct()\l+ place()\l+ onUpdate()\l+ onActivate()\l+ getDrops()\l}">
<polygon fill="white" stroke="black" points="1690,-26.5 1690,-141.5 1848,-141.5 1848,-26.5 1690,-26.5"/>
<text text-anchor="middle" x="1769" y="-128.5" font-family="Helvetica,sans-Serif" font-size="10.00">pocketmine\block\PumpkinStem</text>
<polyline fill="none" stroke="black" points="1690,-120.5 1848,-120.5 "/>
<text text-anchor="middle" x="1769" y="-107.5" font-family="Helvetica,sans-Serif" font-size="10.00"> </text>
<polyline fill="none" stroke="black" points="1690,-99.5 1848,-99.5 "/>
<text text-anchor="start" x="1698" y="-86.5" font-family="Helvetica,sans-Serif" font-size="10.00">+ __construct()</text>
<text text-anchor="start" x="1698" y="-73.5" font-family="Helvetica,sans-Serif" font-size="10.00">+ place()</text>
<text text-anchor="start" x="1698" y="-60.5" font-family="Helvetica,sans-Serif" font-size="10.00">+ onUpdate()</text>
<text text-anchor="start" x="1698" y="-47.5" font-family="Helvetica,sans-Serif" font-size="10.00">+ onActivate()</text>
<text text-anchor="start" x="1698" y="-34.5" font-family="Helvetica,sans-Serif" font-size="10.00">+ getDrops()</text>
</a>
</g>
<!-- Node1&#45;&gt;Node16 -->
<g id="edge30" class="edge"><title>Node1&#45;&gt;Node16</title>
<path fill="none" stroke="midnightblue" d="M1534.51,-221.857C1579.41,-211.43 1635.81,-194.384 1681,-168 1693.4,-160.759 1705.43,-151.438 1716.4,-141.653"/>
<polygon fill="none" stroke="midnightblue" points="1533.51,-218.494 1524.53,-224.11 1535.05,-225.322 1533.51,-218.494"/>
</g>
<!-- Node17 -->
<g id="node33" class="node"><title>Node17</title>
<a xlink:href="../../d1/d03/classpocketmine_1_1block_1_1_red_mushroom.html" target="_top" xlink:title="{pocketmine\\block\\RedMushroom\n||+ __construct()\l+ onUpdate()\l+ place()\l}">
<polygon fill="white" stroke="black" points="1866,-39.5 1866,-128.5 2026,-128.5 2026,-39.5 1866,-39.5"/>
<text text-anchor="middle" x="1946" y="-115.5" font-family="Helvetica,sans-Serif" font-size="10.00">pocketmine\block\RedMushroom</text>
<polyline fill="none" stroke="black" points="1866,-107.5 2026,-107.5 "/>
<text text-anchor="middle" x="1946" y="-94.5" font-family="Helvetica,sans-Serif" font-size="10.00"> </text>
<polyline fill="none" stroke="black" points="1866,-86.5 2026,-86.5 "/>
<text text-anchor="start" x="1874" y="-73.5" font-family="Helvetica,sans-Serif" font-size="10.00">+ __construct()</text>
<text text-anchor="start" x="1874" y="-60.5" font-family="Helvetica,sans-Serif" font-size="10.00">+ onUpdate()</text>
<text text-anchor="start" x="1874" y="-47.5" font-family="Helvetica,sans-Serif" font-size="10.00">+ place()</text>
</a>
</g>
<!-- Node1&#45;&gt;Node17 -->
<g id="edge32" class="edge"><title>Node1&#45;&gt;Node17</title>
<path fill="none" stroke="midnightblue" d="M1534.83,-228.187C1634.73,-217.235 1801.77,-195.535 1857,-168 1876.21,-158.426 1894.11,-143.332 1908.75,-128.563"/>
<polygon fill="none" stroke="midnightblue" points="1534.35,-224.719 1524.78,-229.277 1535.1,-231.678 1534.35,-224.719"/>
</g>
<!-- Node18 -->
<g id="node35" class="node"><title>Node18</title>
<a xlink:href="../../d6/d87/classpocketmine_1_1block_1_1_sapling.html" target="_top" xlink:title="{pocketmine\\block\\Sapling\n|+ OAK\l+ SPRUCE\l+ BIRCH\l+ JUNGLE\l+ BURN_TIME\l|+ __construct()\l+ place()\l+ onActivate()\l+ onUpdate()\l+ getDrops()\l}">
<polygon fill="white" stroke="black" points="2044,-0.5 2044,-167.5 2172,-167.5 2172,-0.5 2044,-0.5"/>
<text text-anchor="middle" x="2108" y="-154.5" font-family="Helvetica,sans-Serif" font-size="10.00">pocketmine\block\Sapling</text>
<polyline fill="none" stroke="black" points="2044,-146.5 2172,-146.5 "/>
<text text-anchor="start" x="2052" y="-133.5" font-family="Helvetica,sans-Serif" font-size="10.00">+ OAK</text>
<text text-anchor="start" x="2052" y="-120.5" font-family="Helvetica,sans-Serif" font-size="10.00">+ SPRUCE</text>
<text text-anchor="start" x="2052" y="-107.5" font-family="Helvetica,sans-Serif" font-size="10.00">+ BIRCH</text>
<text text-anchor="start" x="2052" y="-94.5" font-family="Helvetica,sans-Serif" font-size="10.00">+ JUNGLE</text>
<text text-anchor="start" x="2052" y="-81.5" font-family="Helvetica,sans-Serif" font-size="10.00">+ BURN_TIME</text>
<polyline fill="none" stroke="black" points="2044,-73.5 2172,-73.5 "/>
<text text-anchor="start" x="2052" y="-60.5" font-family="Helvetica,sans-Serif" font-size="10.00">+ __construct()</text>
<text text-anchor="start" x="2052" y="-47.5" font-family="Helvetica,sans-Serif" font-size="10.00">+ place()</text>
<text text-anchor="start" x="2052" y="-34.5" font-family="Helvetica,sans-Serif" font-size="10.00">+ onActivate()</text>
<text text-anchor="start" x="2052" y="-21.5" font-family="Helvetica,sans-Serif" font-size="10.00">+ onUpdate()</text>
<text text-anchor="start" x="2052" y="-8.5" font-family="Helvetica,sans-Serif" font-size="10.00">+ getDrops()</text>
</a>
</g>
<!-- Node1&#45;&gt;Node18 -->
<g id="edge34" class="edge"><title>Node1&#45;&gt;Node18</title>
<path fill="none" stroke="midnightblue" d="M1534.74,-233.744C1671.8,-228.645 1949.98,-212.94 2035,-168 2037.9,-166.465 2040.74,-164.764 2043.52,-162.925"/>
<polygon fill="none" stroke="midnightblue" points="1534.59,-230.248 1524.72,-234.108 1534.84,-237.243 1534.59,-230.248"/>
</g>
<!-- Node19 -->
<g id="node37" class="node"><title>Node19</title>
<a xlink:href="../../d6/dfd/classpocketmine_1_1block_1_1_snow_layer.html" target="_top" xlink:title="{pocketmine\\block\\SnowLayer\n||+ __construct()\l+ place()\l+ onUpdate()\l+ getDrops()\l}">
<polygon fill="white" stroke="black" points="2189.5,-33 2189.5,-135 2334.5,-135 2334.5,-33 2189.5,-33"/>
<text text-anchor="middle" x="2262" y="-122" font-family="Helvetica,sans-Serif" font-size="10.00">pocketmine\block\SnowLayer</text>
<polyline fill="none" stroke="black" points="2189.5,-114 2334.5,-114 "/>
<text text-anchor="middle" x="2262" y="-101" font-family="Helvetica,sans-Serif" font-size="10.00"> </text>
<polyline fill="none" stroke="black" points="2189.5,-93 2334.5,-93 "/>
<text text-anchor="start" x="2197.5" y="-80" font-family="Helvetica,sans-Serif" font-size="10.00">+ __construct()</text>
<text text-anchor="start" x="2197.5" y="-67" font-family="Helvetica,sans-Serif" font-size="10.00">+ place()</text>
<text text-anchor="start" x="2197.5" y="-54" font-family="Helvetica,sans-Serif" font-size="10.00">+ onUpdate()</text>
<text text-anchor="start" x="2197.5" y="-41" font-family="Helvetica,sans-Serif" font-size="10.00">+ getDrops()</text>
</a>
</g>
<!-- Node1&#45;&gt;Node19 -->
<g id="edge36" class="edge"><title>Node1&#45;&gt;Node19</title>
<path fill="none" stroke="midnightblue" d="M1534.67,-231.76C1709.63,-221.774 2123.8,-195.531 2181,-168 2197.06,-160.268 2211.66,-147.926 2223.89,-135.057"/>
<polygon fill="none" stroke="midnightblue" points="1534.29,-228.276 1524.5,-232.338 1534.69,-235.265 1534.29,-228.276"/>
</g>
<!-- Node20 -->
<g id="node39" class="node"><title>Node20</title>
<a xlink:href="../../da/da9/classpocketmine_1_1block_1_1_sugarcane.html" target="_top" xlink:title="{pocketmine\\block\\Sugarcane\n||+ __construct()\l+ getDrops()\l+ onActivate()\l+ onUpdate()\l+ place()\l}">
<polygon fill="white" stroke="black" points="2351.5,-26.5 2351.5,-141.5 2494.5,-141.5 2494.5,-26.5 2351.5,-26.5"/>
<text text-anchor="middle" x="2423" y="-128.5" font-family="Helvetica,sans-Serif" font-size="10.00">pocketmine\block\Sugarcane</text>
<polyline fill="none" stroke="black" points="2351.5,-120.5 2494.5,-120.5 "/>
<text text-anchor="middle" x="2423" y="-107.5" font-family="Helvetica,sans-Serif" font-size="10.00"> </text>
<polyline fill="none" stroke="black" points="2351.5,-99.5 2494.5,-99.5 "/>
<text text-anchor="start" x="2359.5" y="-86.5" font-family="Helvetica,sans-Serif" font-size="10.00">+ __construct()</text>
<text text-anchor="start" x="2359.5" y="-73.5" font-family="Helvetica,sans-Serif" font-size="10.00">+ getDrops()</text>
<text text-anchor="start" x="2359.5" y="-60.5" font-family="Helvetica,sans-Serif" font-size="10.00">+ onActivate()</text>
<text text-anchor="start" x="2359.5" y="-47.5" font-family="Helvetica,sans-Serif" font-size="10.00">+ onUpdate()</text>
<text text-anchor="start" x="2359.5" y="-34.5" font-family="Helvetica,sans-Serif" font-size="10.00">+ place()</text>
</a>
</g>
<!-- Node1&#45;&gt;Node20 -->
<g id="edge38" class="edge"><title>Node1&#45;&gt;Node20</title>
<path fill="none" stroke="midnightblue" d="M1535.03,-233.204C1737.87,-225.488 2271,-202.179 2343,-168 2356.28,-161.696 2368.49,-152.156 2379.17,-141.74"/>
<polygon fill="none" stroke="midnightblue" points="1534.62,-229.717 1524.76,-233.593 1534.88,-236.712 1534.62,-229.717"/>
</g>
<!-- Node21 -->
<g id="node41" class="node"><title>Node21</title>
<a xlink:href="../../d7/d79/classpocketmine_1_1block_1_1_tall_grass.html" target="_top" xlink:title="{pocketmine\\block\\TallGrass\n||+ __construct()\l+ onUpdate()\l+ getDrops()\l}">
<polygon fill="white" stroke="black" points="2512,-39.5 2512,-128.5 2650,-128.5 2650,-39.5 2512,-39.5"/>
<text text-anchor="middle" x="2581" y="-115.5" font-family="Helvetica,sans-Serif" font-size="10.00">pocketmine\block\TallGrass</text>
<polyline fill="none" stroke="black" points="2512,-107.5 2650,-107.5 "/>
<text text-anchor="middle" x="2581" y="-94.5" font-family="Helvetica,sans-Serif" font-size="10.00"> </text>
<polyline fill="none" stroke="black" points="2512,-86.5 2650,-86.5 "/>
<text text-anchor="start" x="2520" y="-73.5" font-family="Helvetica,sans-Serif" font-size="10.00">+ __construct()</text>
<text text-anchor="start" x="2520" y="-60.5" font-family="Helvetica,sans-Serif" font-size="10.00">+ onUpdate()</text>
<text text-anchor="start" x="2520" y="-47.5" font-family="Helvetica,sans-Serif" font-size="10.00">+ getDrops()</text>
</a>
</g>
<!-- Node1&#45;&gt;Node21 -->
<g id="edge40" class="edge"><title>Node1&#45;&gt;Node21</title>
<path fill="none" stroke="midnightblue" d="M1534.94,-234.246C1762.65,-228.66 2416.35,-209.184 2503,-168 2521.51,-159.201 2537.76,-143.885 2550.56,-128.72"/>
<polygon fill="none" stroke="midnightblue" points="1534.66,-230.751 1524.74,-234.493 1534.83,-237.749 1534.66,-230.751"/>
</g>
<!-- Node22 -->
<g id="node43" class="node"><title>Node22</title>
<a xlink:href="../../d2/d00/classpocketmine_1_1block_1_1_torch.html" target="_top" xlink:title="{pocketmine\\block\\Torch\n||+ __construct()\l+ onUpdate()\l+ place()\l+ getDrops()\l}">
<polygon fill="white" stroke="black" points="2667.5,-33 2667.5,-135 2788.5,-135 2788.5,-33 2667.5,-33"/>
<text text-anchor="middle" x="2728" y="-122" font-family="Helvetica,sans-Serif" font-size="10.00">pocketmine\block\Torch</text>
<polyline fill="none" stroke="black" points="2667.5,-114 2788.5,-114 "/>
<text text-anchor="middle" x="2728" y="-101" font-family="Helvetica,sans-Serif" font-size="10.00"> </text>
<polyline fill="none" stroke="black" points="2667.5,-93 2788.5,-93 "/>
<text text-anchor="start" x="2675.5" y="-80" font-family="Helvetica,sans-Serif" font-size="10.00">+ __construct()</text>
<text text-anchor="start" x="2675.5" y="-67" font-family="Helvetica,sans-Serif" font-size="10.00">+ onUpdate()</text>
<text text-anchor="start" x="2675.5" y="-54" font-family="Helvetica,sans-Serif" font-size="10.00">+ place()</text>
<text text-anchor="start" x="2675.5" y="-41" font-family="Helvetica,sans-Serif" font-size="10.00">+ getDrops()</text>
</a>
</g>
<!-- Node1&#45;&gt;Node22 -->
<g id="edge42" class="edge"><title>Node1&#45;&gt;Node22</title>
<path fill="none" stroke="midnightblue" d="M1534.84,-235.204C1785.21,-232.149 2559.22,-218.662 2659,-168 2673.81,-160.481 2686.59,-148.206 2696.99,-135.332"/>
<polygon fill="none" stroke="midnightblue" points="1534.7,-231.706 1524.74,-235.325 1534.78,-238.705 1534.7,-231.706"/>
</g>
<!-- Node23 -->
<g id="node45" class="node"><title>Node23</title>
<a xlink:href="../../d5/d7b/classpocketmine_1_1block_1_1_wheat.html" target="_top" xlink:title="{pocketmine\\block\\Wheat\n||+ __construct()\l+ place()\l+ onActivate()\l+ onUpdate()\l+ getDrops()\l}">
<polygon fill="white" stroke="black" points="2805.5,-26.5 2805.5,-141.5 2930.5,-141.5 2930.5,-26.5 2805.5,-26.5"/>
<text text-anchor="middle" x="2868" y="-128.5" font-family="Helvetica,sans-Serif" font-size="10.00">pocketmine\block\Wheat</text>
<polyline fill="none" stroke="black" points="2805.5,-120.5 2930.5,-120.5 "/>
<text text-anchor="middle" x="2868" y="-107.5" font-family="Helvetica,sans-Serif" font-size="10.00"> </text>
<polyline fill="none" stroke="black" points="2805.5,-99.5 2930.5,-99.5 "/>
<text text-anchor="start" x="2813.5" y="-86.5" font-family="Helvetica,sans-Serif" font-size="10.00">+ __construct()</text>
<text text-anchor="start" x="2813.5" y="-73.5" font-family="Helvetica,sans-Serif" font-size="10.00">+ place()</text>
<text text-anchor="start" x="2813.5" y="-60.5" font-family="Helvetica,sans-Serif" font-size="10.00">+ onActivate()</text>
<text text-anchor="start" x="2813.5" y="-47.5" font-family="Helvetica,sans-Serif" font-size="10.00">+ onUpdate()</text>
<text text-anchor="start" x="2813.5" y="-34.5" font-family="Helvetica,sans-Serif" font-size="10.00">+ getDrops()</text>
</a>
</g>
<!-- Node1&#45;&gt;Node23 -->
<g id="edge44" class="edge"><title>Node1&#45;&gt;Node23</title>
<path fill="none" stroke="midnightblue" d="M1534.92,-235.639C1804.02,-233.9 2684.04,-223.951 2797,-168 2809.49,-161.813 2820.63,-152.324 2830.18,-141.92"/>
<polygon fill="none" stroke="midnightblue" points="1534.82,-232.139 1524.84,-235.702 1534.86,-239.139 1534.82,-232.139"/>
</g>
<!-- Node2 -->
<g id="node2" class="node"><title>Node2</title>
<a xlink:href="../../d5/d1b/classpocketmine_1_1block_1_1_transparent.html" target="_top" xlink:title="{pocketmine\\block\\Transparent\n||+ __construct()\l}">
<polygon fill="white" stroke="black" points="1383,-304.5 1383,-367.5 1531,-367.5 1531,-304.5 1383,-304.5"/>
<text text-anchor="middle" x="1457" y="-354.5" font-family="Helvetica,sans-Serif" font-size="10.00">pocketmine\block\Transparent</text>
<polyline fill="none" stroke="black" points="1383,-346.5 1531,-346.5 "/>
<text text-anchor="middle" x="1457" y="-333.5" font-family="Helvetica,sans-Serif" font-size="10.00"> </text>
<polyline fill="none" stroke="black" points="1383,-325.5 1531,-325.5 "/>
<text text-anchor="start" x="1391" y="-312.5" font-family="Helvetica,sans-Serif" font-size="10.00">+ __construct()</text>
</a>
</g>
<!-- Node2&#45;&gt;Node1 -->
<g id="edge2" class="edge"><title>Node2&#45;&gt;Node1</title>
<path fill="none" stroke="midnightblue" d="M1457,-294.211C1457,-285.37 1457,-276.177 1457,-267.778"/>
<polygon fill="none" stroke="midnightblue" points="1453.5,-294.359 1457,-304.359 1460.5,-294.359 1453.5,-294.359"/>
</g>
<!-- Node3 -->
<g id="node4" class="node"><title>Node3</title>
<a xlink:href="../../d0/d81/classpocketmine_1_1block_1_1_generic.html" target="_top" xlink:title="{pocketmine\\block\\Generic\n||+ __construct()\l+ place()\l+ isBreakable()\l+ onBreak()\l+ onUpdate()\l+ onActivate()\l}">
<polygon fill="white" stroke="black" points="1392,-405 1392,-533 1522,-533 1522,-405 1392,-405"/>
<text text-anchor="middle" x="1457" y="-520" font-family="Helvetica,sans-Serif" font-size="10.00">pocketmine\block\Generic</text>
<polyline fill="none" stroke="black" points="1392,-512 1522,-512 "/>
<text text-anchor="middle" x="1457" y="-499" font-family="Helvetica,sans-Serif" font-size="10.00"> </text>
<polyline fill="none" stroke="black" points="1392,-491 1522,-491 "/>
<text text-anchor="start" x="1400" y="-478" font-family="Helvetica,sans-Serif" font-size="10.00">+ __construct()</text>
<text text-anchor="start" x="1400" y="-465" font-family="Helvetica,sans-Serif" font-size="10.00">+ place()</text>
<text text-anchor="start" x="1400" y="-452" font-family="Helvetica,sans-Serif" font-size="10.00">+ isBreakable()</text>
<text text-anchor="start" x="1400" y="-439" font-family="Helvetica,sans-Serif" font-size="10.00">+ onBreak()</text>
<text text-anchor="start" x="1400" y="-426" font-family="Helvetica,sans-Serif" font-size="10.00">+ onUpdate()</text>
<text text-anchor="start" x="1400" y="-413" font-family="Helvetica,sans-Serif" font-size="10.00">+ onActivate()</text>
</a>
</g>
<!-- Node3&#45;&gt;Node2 -->
<g id="edge4" class="edge"><title>Node3&#45;&gt;Node2</title>
<path fill="none" stroke="midnightblue" d="M1457,-394.58C1457,-385.171 1457,-375.976 1457,-367.764"/>
<polygon fill="none" stroke="midnightblue" points="1453.5,-394.837 1457,-404.837 1460.5,-394.837 1453.5,-394.837"/>
</g>
<!-- Node4 -->
<g id="node6" class="node"><title>Node4</title>
<a xlink:href="../../d7/d27/classpocketmine_1_1block_1_1_block.html" target="_top" xlink:title="{pocketmine\\block\\Block\n|+ AIR\l+ STONE\l+ GRASS\l+ DIRT\l+ COBBLESTONE\l+ COBBLE\l+ PLANK\l+ PLANKS\l+ WOODEN_PLANK\l+ WOODEN_PLANKS\land 163 more...+ $creative\l+ $list\l# $id\l# $meta\l# $name\l# $breakTime\l# $hardness\l|+ __construct()\l+ getHardness()\l+ getName()\l+ getID()\l+ getDamage()\l+ setDamage()\l+ position()\l+ getDrops()\l+ getBreakTime()\l+ getSide()\land 11 more...+ init()\l+ get()\l}">
<polygon fill="white" stroke="black" points="1390,-571 1390,-985 1524,-985 1524,-571 1390,-571"/>
<text text-anchor="middle" x="1457" y="-972" font-family="Helvetica,sans-Serif" font-size="10.00">pocketmine\block\Block</text>
<polyline fill="none" stroke="black" points="1390,-964 1524,-964 "/>
<text text-anchor="start" x="1398" y="-951" font-family="Helvetica,sans-Serif" font-size="10.00">+ AIR</text>
<text text-anchor="start" x="1398" y="-938" font-family="Helvetica,sans-Serif" font-size="10.00">+ STONE</text>
<text text-anchor="start" x="1398" y="-925" font-family="Helvetica,sans-Serif" font-size="10.00">+ GRASS</text>
<text text-anchor="start" x="1398" y="-912" font-family="Helvetica,sans-Serif" font-size="10.00">+ DIRT</text>
<text text-anchor="start" x="1398" y="-899" font-family="Helvetica,sans-Serif" font-size="10.00">+ COBBLESTONE</text>
<text text-anchor="start" x="1398" y="-886" font-family="Helvetica,sans-Serif" font-size="10.00">+ COBBLE</text>
<text text-anchor="start" x="1398" y="-873" font-family="Helvetica,sans-Serif" font-size="10.00">+ PLANK</text>
<text text-anchor="start" x="1398" y="-860" font-family="Helvetica,sans-Serif" font-size="10.00">+ PLANKS</text>
<text text-anchor="start" x="1398" y="-847" font-family="Helvetica,sans-Serif" font-size="10.00">+ WOODEN_PLANK</text>
<text text-anchor="start" x="1398" y="-834" font-family="Helvetica,sans-Serif" font-size="10.00">+ WOODEN_PLANKS</text>
<text text-anchor="start" x="1398" y="-821" font-family="Helvetica,sans-Serif" font-size="10.00">and 163 more...+ $creative</text>
<text text-anchor="start" x="1398" y="-808" font-family="Helvetica,sans-Serif" font-size="10.00">+ $list</text>
<text text-anchor="start" x="1398" y="-795" font-family="Helvetica,sans-Serif" font-size="10.00"># $id</text>
<text text-anchor="start" x="1398" y="-782" font-family="Helvetica,sans-Serif" font-size="10.00"># $meta</text>
<text text-anchor="start" x="1398" y="-769" font-family="Helvetica,sans-Serif" font-size="10.00"># $name</text>
<text text-anchor="start" x="1398" y="-756" font-family="Helvetica,sans-Serif" font-size="10.00"># $breakTime</text>
<text text-anchor="start" x="1398" y="-743" font-family="Helvetica,sans-Serif" font-size="10.00"># $hardness</text>
<polyline fill="none" stroke="black" points="1390,-735 1524,-735 "/>
<text text-anchor="start" x="1398" y="-722" font-family="Helvetica,sans-Serif" font-size="10.00">+ __construct()</text>
<text text-anchor="start" x="1398" y="-709" font-family="Helvetica,sans-Serif" font-size="10.00">+ getHardness()</text>
<text text-anchor="start" x="1398" y="-696" font-family="Helvetica,sans-Serif" font-size="10.00">+ getName()</text>
<text text-anchor="start" x="1398" y="-683" font-family="Helvetica,sans-Serif" font-size="10.00">+ getID()</text>
<text text-anchor="start" x="1398" y="-670" font-family="Helvetica,sans-Serif" font-size="10.00">+ getDamage()</text>
<text text-anchor="start" x="1398" y="-657" font-family="Helvetica,sans-Serif" font-size="10.00">+ setDamage()</text>
<text text-anchor="start" x="1398" y="-644" font-family="Helvetica,sans-Serif" font-size="10.00">+ position()</text>
<text text-anchor="start" x="1398" y="-631" font-family="Helvetica,sans-Serif" font-size="10.00">+ getDrops()</text>
<text text-anchor="start" x="1398" y="-618" font-family="Helvetica,sans-Serif" font-size="10.00">+ getBreakTime()</text>
<text text-anchor="start" x="1398" y="-605" font-family="Helvetica,sans-Serif" font-size="10.00">+ getSide()</text>
<text text-anchor="start" x="1398" y="-592" font-family="Helvetica,sans-Serif" font-size="10.00">and 11 more...+ init()</text>
<text text-anchor="start" x="1398" y="-579" font-family="Helvetica,sans-Serif" font-size="10.00">+ get()</text>
</a>
</g>
<!-- Node4&#45;&gt;Node3 -->
<g id="edge6" class="edge"><title>Node4&#45;&gt;Node3</title>
<path fill="none" stroke="midnightblue" d="M1457,-560.479C1457,-550.889 1457,-541.69 1457,-533.071"/>
<polygon fill="none" stroke="midnightblue" points="1453.5,-560.606 1457,-570.606 1460.5,-560.606 1453.5,-560.606"/>
</g>
</g>
</svg>
        <g id="navigator" transform="translate(0 0)" fill="#404254">
                <rect fill="#f2f5e9" fill-opacity="0.5" stroke="#606060" stroke-width=".5" x="0" y="0" width="60" height="60"/>
                <use id="zoomplus" xlink:href="#zoomPlus" x="17" y="9" onmousedown="handleZoom(evt,'in')"/>
                <use id="zoomminus" xlink:href="#zoomMin" x="42" y="9" onmousedown="handleZoom(evt,'out')"/>
                <use id="reset" xlink:href="#resetDef" x="30" y="36" onmousedown="handleReset()"/>
                <g id="arrowUp" xlink:href="#dirArrow" transform="translate(30 24)" onmousedown="handlePan(0,-1)">
                  <use xlink:href="#rim" fill="#404040">
                        <set attributeName="fill" to="#808080" begin="arrowUp.mouseover" end="arrowUp.mouseout"/>
                  </use>
                  <path fill="none" stroke="white" stroke-width="1.5" d="M0,-3.0v7 M-2.5,-0.5L0,-3.0L2.5,-0.5"/>
                </g>
                <g id="arrowRight" xlink:href="#dirArrow" transform="rotate(90) translate(36 -43)" onmousedown="handlePan(1,0)">
                  <use xlink:href="#rim" fill="#404040">
                        <set attributeName="fill" to="#808080" begin="arrowRight.mouseover" end="arrowRight.mouseout"/>
                  </use>
                  <path fill="none" stroke="white" stroke-width="1.5" d="M0,-3.0v7 M-2.5,-0.5L0,-3.0L2.5,-0.5"/>
                </g>
                <g id="arrowDown" xlink:href="#dirArrow" transform="rotate(180) translate(-30 -48)" onmousedown="handlePan(0,1)">
                  <use xlink:href="#rim" fill="#404040">
                        <set attributeName="fill" to="#808080" begin="arrowDown.mouseover" end="arrowDown.mouseout"/>
                  </use>
                  <path fill="none" stroke="white" stroke-width="1.5" d="M0,-3.0v7 M-2.5,-0.5L0,-3.0L2.5,-0.5"/>
                </g>
                <g id="arrowLeft" xlink:href="#dirArrow" transform="rotate(270) translate(-36 17)" onmousedown="handlePan(-1,0)">
                  <use xlink:href="#rim" fill="#404040">
                        <set attributeName="fill" to="#808080" begin="arrowLeft.mouseover" end="arrowLeft.mouseout"/>
                  </use>
                  <path fill="none" stroke="white" stroke-width="1.5" d="M0,-3.0v7 M-2.5,-0.5L0,-3.0L2.5,-0.5"/>
                </g>
        </g>
</svg>
