<?xml version="1.0" encoding="UTF-8" standalone="no"?>
<!DOCTYPE svg PUBLIC "-//W3C//DTD SVG 1.1//EN"
 "http://www.w3.org/Graphics/SVG/1.1/DTD/svg11.dtd">
<!-- Generated by graphviz version 2.26.3 (20100126.1600)
 -->
<!-- Title: pocketmine\tile\Furnace\getSlotIndex Pages: 1 -->
<svg width="288pt" height="94pt"
 viewBox="0.00 0.00 288.00 94.00" xmlns="http://www.w3.org/2000/svg" xmlns:xlink="http://www.w3.org/1999/xlink">
<g id="graph1" class="graph" transform="scale(1 1) rotate(0) translate(4 90)">
<title>pocketmine\tile\Furnace\getSlotIndex</title>
<polygon fill="white" stroke="white" points="-4,5 -4,-90 285,-90 285,5 -4,5"/>
<!-- Node1 -->
<g id="node1" class="node"><title>Node1</title>
<polygon fill="#bfbfbf" stroke="black" points="0.5,-26 0.5,-60 121.5,-60 121.5,-26 0.5,-26"/>
<text text-anchor="start" x="8.5" y="-47" font-family="Helvetica,sans-Serif" font-size="10.00">pocketmine\tile\Furnace</text>
<text text-anchor="middle" x="61" y="-34" font-family="Helvetica,sans-Serif" font-size="10.00">\getSlotIndex</text>
</g>
<!-- Node2 -->
<g id="node3" class="node"><title>Node2</title>
<a xlink:href="../../d7/d7c/classpocketmine_1_1tile_1_1_furnace.html#a4dd6b4b46ee7e5ea8099743747372d15" target="_top" xlink:title="pocketmine\\tile\\Furnace\l\\getItem">
<polygon fill="white" stroke="black" points="158.5,-52 158.5,-86 279.5,-86 279.5,-52 158.5,-52"/>
<text text-anchor="start" x="166.5" y="-73" font-family="Helvetica,sans-Serif" font-size="10.00">pocketmine\tile\Furnace</text>
<text text-anchor="middle" x="219" y="-60" font-family="Helvetica,sans-Serif" font-size="10.00">\getItem</text>
</a>
</g>
<!-- Node1&#45;&gt;Node2 -->
<g id="edge2" class="edge"><title>Node1&#45;&gt;Node2</title>
<path fill="none" stroke="midnightblue" d="M131.597,-54.6172C140.495,-56.0815 149.538,-57.5696 158.266,-59.0058"/>
<polygon fill="midnightblue" stroke="midnightblue" points="132.071,-51.1482 121.635,-52.9779 130.934,-58.0553 132.071,-51.1482"/>
</g>
<!-- Node3 -->
<g id="node5" class="node"><title>Node3</title>
<a xlink:href="../../d7/d7c/classpocketmine_1_1tile_1_1_furnace.html#ac7ba1c2fb5a179276f9bdfb3368a173b" target="_top" xlink:title="pocketmine\\tile\\Furnace\l\\setItem">
<polygon fill="white" stroke="black" points="158.5,-0 158.5,-34 279.5,-34 279.5,-0 158.5,-0"/>
<text text-anchor="start" x="166.5" y="-21" font-family="Helvetica,sans-Serif" font-size="10.00">pocketmine\tile\Furnace</text>
<text text-anchor="middle" x="219" y="-8" font-family="Helvetica,sans-Serif" font-size="10.00">\setItem</text>
</a>
</g>
<!-- Node1&#45;&gt;Node3 -->
<g id="edge4" class="edge"><title>Node1&#45;&gt;Node3</title>
<path fill="none" stroke="midnightblue" d="M131.597,-31.3828C140.495,-29.9185 149.538,-28.4304 158.266,-26.9942"/>
<polygon fill="midnightblue" stroke="midnightblue" points="130.934,-27.9447 121.635,-33.0221 132.071,-34.8518 130.934,-27.9447"/>
</g>
</g>
</svg>
