<?xml version="1.0" encoding="UTF-8" standalone="no"?>
<!DOCTYPE svg PUBLIC "-//W3C//DTD SVG 1.1//EN"
 "http://www.w3.org/Graphics/SVG/1.1/DTD/svg11.dtd">
<!-- Generated by graphviz version 2.36.0 (20140111.2315)
 -->
<!-- Title: pocketmine\tile\Furnace\setItem Pages: 1 -->
<svg width="308pt" height="87pt"
 viewBox="0.00 0.00 308.00 87.00" xmlns="http://www.w3.org/2000/svg" xmlns:xlink="http://www.w3.org/1999/xlink">
<g id="graph0" class="graph" transform="scale(1 1) rotate(0) translate(4 83)">
<title>pocketmine\tile\Furnace\setItem</title>
<polygon fill="white" stroke="none" points="-4,4 -4,-83 304,-83 304,4 -4,4"/>
<!-- Node1 -->
<g id="node1" class="node"><title>Node1</title>
<polygon fill="#bfbfbf" stroke="black" points="0.5,-24 0.5,-54 131.5,-54 131.5,-24 0.5,-24"/>
<text text-anchor="start" x="8.5" y="-42" font-family="Helvetica,sans-Serif" font-size="10.00">pocketmine\tile\Furnace</text>
<text text-anchor="middle" x="66" y="-31" font-family="Helvetica,sans-Serif" font-size="10.00">\setItem</text>
</g>
<!-- Node2 -->
<g id="node2" class="node"><title>Node2</title>
<g id="a_node2"><a xlink:href="../../d7/d7c/classpocketmine_1_1tile_1_1_furnace.html#aecbf197a59630a113bf588f85b13b9e0" target="_top" xlink:title="pocketmine\\tile\\Furnace\l\\getSize">
<polygon fill="white" stroke="black" points="168.5,-49 168.5,-79 299.5,-79 299.5,-49 168.5,-49"/>
<text text-anchor="start" x="176.5" y="-67" font-family="Helvetica,sans-Serif" font-size="10.00">pocketmine\tile\Furnace</text>
<text text-anchor="middle" x="234" y="-56" font-family="Helvetica,sans-Serif" font-size="10.00">\getSize</text>
</a>
</g>
</g>
<!-- Node1&#45;&gt;Node2 -->
<g id="edge1" class="edge"><title>Node1&#45;&gt;Node2</title>
<path fill="none" stroke="midnightblue" d="M131.655,-48.7372C140.386,-50.0521 149.402,-51.4099 158.29,-52.7485"/>
<polygon fill="midnightblue" stroke="midnightblue" points="157.838,-56.2199 168.248,-54.2482 158.881,-49.2979 157.838,-56.2199"/>
</g>
<!-- Node3 -->
<g id="node3" class="node"><title>Node3</title>
<g id="a_node3"><a xlink:href="../../d7/d7c/classpocketmine_1_1tile_1_1_furnace.html#add0e7f393ff01465894b066b6e1d255c" target="_top" xlink:title="pocketmine\\tile\\Furnace\l\\getSlotIndex">
<polygon fill="white" stroke="black" points="168.5,-0 168.5,-30 299.5,-30 299.5,-0 168.5,-0"/>
<text text-anchor="start" x="176.5" y="-18" font-family="Helvetica,sans-Serif" font-size="10.00">pocketmine\tile\Furnace</text>
<text text-anchor="middle" x="234" y="-7" font-family="Helvetica,sans-Serif" font-size="10.00">\getSlotIndex</text>
</a>
</g>
</g>
<!-- Node1&#45;&gt;Node3 -->
<g id="edge2" class="edge"><title>Node1&#45;&gt;Node3</title>
<path fill="none" stroke="midnightblue" d="M131.655,-29.6523C140.386,-28.39 149.402,-27.0865 158.29,-25.8015"/>
<polygon fill="midnightblue" stroke="midnightblue" points="158.852,-29.2567 168.248,-24.3617 157.85,-22.3287 158.852,-29.2567"/>
</g>
</g>
</svg>
