<?xml version="1.0" encoding="UTF-8" standalone="no"?>
<!DOCTYPE svg PUBLIC "-//W3C//DTD SVG 1.1//EN"
 "http://www.w3.org/Graphics/SVG/1.1/DTD/svg11.dtd">
<!-- Generated by graphviz version 2.26.3 (20100126.1600)
 -->
<!-- Title: G Pages: 1 -->
<svg width="482pt" height="342pt"
 viewBox="0.00 0.00 482.00 342.00" xmlns="http://www.w3.org/2000/svg" xmlns:xlink="http://www.w3.org/1999/xlink">
<g id="graph1" class="graph" transform="scale(1 1) rotate(0) translate(4 338)">
<title>G</title>
<polygon fill="white" stroke="white" points="-4,5 -4,-338 479,-338 479,5 -4,5"/>
<!-- Node1 -->
<g id="node1" class="node"><title>Node1</title>
<polygon fill="#bfbfbf" stroke="black" points="140,-0.5 140,-89.5 328,-89.5 328,-0.5 140,-0.5"/>
<text text-anchor="middle" x="234" y="-76.5" font-family="Helvetica,sans-Serif" font-size="10.00">pocketmine\command\PluginCommand</text>
<polyline fill="none" stroke="black" points="140,-68.5 328,-68.5 "/>
<text text-anchor="middle" x="234" y="-55.5" font-family="Helvetica,sans-Serif" font-size="10.00"> </text>
<polyline fill="none" stroke="black" points="140,-47.5 328,-47.5 "/>
<text text-anchor="start" x="148" y="-34.5" font-family="Helvetica,sans-Serif" font-size="10.00">+ __construct()</text>
<text text-anchor="start" x="148" y="-21.5" font-family="Helvetica,sans-Serif" font-size="10.00">+ execute()</text>
<text text-anchor="start" x="148" y="-8.5" font-family="Helvetica,sans-Serif" font-size="10.00">+ getPlugin()</text>
</g>
<!-- Node2 -->
<g id="node2" class="node"><title>Node2</title>
<a xlink:href="../../d6/df1/classpocketmine_1_1command_1_1_command.html" target="_top" xlink:title="{pocketmine\\command\\Command\n|# $description\l# $usageMessage\l|+ __construct()\l+ execute()\l+ getName()\l+ getPermission()\l+ setPermission()\l+ testPermission()\l+ testPermissionSilent()\l+ getLabel()\l+ setLabel()\l+ register()\land 10 more...+ broadcastCommandMessage()\l}">
<polygon fill="white" stroke="black" points="0,-127 0,-333 222,-333 222,-127 0,-127"/>
<text text-anchor="middle" x="111" y="-320" font-family="Helvetica,sans-Serif" font-size="10.00">pocketmine\command\Command</text>
<polyline fill="none" stroke="black" points="0,-312 222,-312 "/>
<text text-anchor="start" x="8" y="-299" font-family="Helvetica,sans-Serif" font-size="10.00"># $description</text>
<text text-anchor="start" x="8" y="-286" font-family="Helvetica,sans-Serif" font-size="10.00"># $usageMessage</text>
<polyline fill="none" stroke="black" points="0,-278 222,-278 "/>
<text text-anchor="start" x="8" y="-265" font-family="Helvetica,sans-Serif" font-size="10.00">+ __construct()</text>
<text text-anchor="start" x="8" y="-252" font-family="Helvetica,sans-Serif" font-size="10.00">+ execute()</text>
<text text-anchor="start" x="8" y="-239" font-family="Helvetica,sans-Serif" font-size="10.00">+ getName()</text>
<text text-anchor="start" x="8" y="-226" font-family="Helvetica,sans-Serif" font-size="10.00">+ getPermission()</text>
<text text-anchor="start" x="8" y="-213" font-family="Helvetica,sans-Serif" font-size="10.00">+ setPermission()</text>
<text text-anchor="start" x="8" y="-200" font-family="Helvetica,sans-Serif" font-size="10.00">+ testPermission()</text>
<text text-anchor="start" x="8" y="-187" font-family="Helvetica,sans-Serif" font-size="10.00">+ testPermissionSilent()</text>
<text text-anchor="start" x="8" y="-174" font-family="Helvetica,sans-Serif" font-size="10.00">+ getLabel()</text>
<text text-anchor="start" x="8" y="-161" font-family="Helvetica,sans-Serif" font-size="10.00">+ setLabel()</text>
<text text-anchor="start" x="8" y="-148" font-family="Helvetica,sans-Serif" font-size="10.00">+ register()</text>
<text text-anchor="start" x="8" y="-135" font-family="Helvetica,sans-Serif" font-size="10.00">and 10 more...+ broadcastCommandMessage()</text>
</a>
</g>
<!-- Node2&#45;&gt;Node1 -->
<g id="edge2" class="edge"><title>Node2&#45;&gt;Node1</title>
<path fill="none" stroke="midnightblue" d="M185.198,-118.401C191.915,-108.298 198.421,-98.5125 204.376,-89.5558"/>
<polygon fill="none" stroke="midnightblue" points="182.135,-116.686 179.513,-126.952 187.965,-120.562 182.135,-116.686"/>
</g>
<!-- Node3 -->
<g id="node4" class="node"><title>Node3</title>
<a xlink:href="../../d4/d58/interfacepocketmine_1_1command_1_1_plugin_identifiable_command.html" target="_top" xlink:title="{pocketmine\\command\\PluginIdentifiableCommand\n||+ getPlugin()\l}">
<polygon fill="white" stroke="black" points="239.5,-198.5 239.5,-261.5 474.5,-261.5 474.5,-198.5 239.5,-198.5"/>
<text text-anchor="middle" x="357" y="-248.5" font-family="Helvetica,sans-Serif" font-size="10.00">pocketmine\command\PluginIdentifiableCommand</text>
<polyline fill="none" stroke="black" points="239.5,-240.5 474.5,-240.5 "/>
<text text-anchor="middle" x="357" y="-227.5" font-family="Helvetica,sans-Serif" font-size="10.00"> </text>
<polyline fill="none" stroke="black" points="239.5,-219.5 474.5,-219.5 "/>
<text text-anchor="start" x="247.5" y="-206.5" font-family="Helvetica,sans-Serif" font-size="10.00">+ getPlugin()</text>
</a>
</g>
<!-- Node3&#45;&gt;Node1 -->
<g id="edge4" class="edge"><title>Node3&#45;&gt;Node1</title>
<path fill="none" stroke="midnightblue" d="M330.255,-189.773C310.603,-160.215 283.902,-120.055 263.607,-89.531"/>
<polygon fill="none" stroke="midnightblue" points="327.404,-191.808 335.856,-198.197 333.233,-187.932 327.404,-191.808"/>
</g>
</g>
</svg>
