<?xml version="1.0" encoding="UTF-8" standalone="no"?>
<!DOCTYPE svg PUBLIC "-//W3C//DTD SVG 1.1//EN"
 "http://www.w3.org/Graphics/SVG/1.1/DTD/svg11.dtd">
<!-- Generated by graphviz version 2.26.3 (20100126.1600)
 -->
<!-- Title: pocketmine\command\CommandReader Pages: 1 -->
<svg width="244pt" height="772pt"
 viewBox="0.00 0.00 244.00 772.00" xmlns="http://www.w3.org/2000/svg" xmlns:xlink="http://www.w3.org/1999/xlink">
<g id="graph1" class="graph" transform="scale(1 1) rotate(0) translate(4 768)">
<title>pocketmine\command\CommandReader</title>
<polygon fill="white" stroke="white" points="-4,5 -4,-768 241,-768 241,5 -4,5"/>
<!-- Node1 -->
<g id="node1" class="node"><title>Node1</title>
<polygon fill="#bfbfbf" stroke="black" points="59.5,-1 59.5,-103 172.5,-103 172.5,-1 59.5,-1"/>
<text text-anchor="start" x="67.5" y="-90" font-family="Helvetica,sans-Serif" font-size="10.00">pocketmine\command</text>
<text text-anchor="middle" x="116" y="-77" font-family="Helvetica,sans-Serif" font-size="10.00">\CommandReader</text>
<polyline fill="none" stroke="black" points="59.5,-69 172.5,-69 "/>
<text text-anchor="middle" x="116" y="-56" font-family="Helvetica,sans-Serif" font-size="10.00"> </text>
<polyline fill="none" stroke="black" points="59.5,-48 172.5,-48 "/>
<text text-anchor="start" x="67.5" y="-35" font-family="Helvetica,sans-Serif" font-size="10.00">+ __construct()</text>
<text text-anchor="start" x="67.5" y="-22" font-family="Helvetica,sans-Serif" font-size="10.00">+ getLine()</text>
<text text-anchor="start" x="67.5" y="-9" font-family="Helvetica,sans-Serif" font-size="10.00">+ run()</text>
</g>
<!-- Node2 -->
<g id="node2" class="node"><title>Node2</title>
<a xlink:href="../../d1/d31/classpocketmine_1_1_thread.html" target="_top" xlink:title="{pocketmine\\Thread\n||+ start()\l}">
<polygon fill="white" stroke="black" points="66,-140.5 66,-203.5 166,-203.5 166,-140.5 66,-140.5"/>
<text text-anchor="middle" x="116" y="-190.5" font-family="Helvetica,sans-Serif" font-size="10.00">pocketmine\Thread</text>
<polyline fill="none" stroke="black" points="66,-182.5 166,-182.5 "/>
<text text-anchor="middle" x="116" y="-169.5" font-family="Helvetica,sans-Serif" font-size="10.00"> </text>
<polyline fill="none" stroke="black" points="66,-161.5 166,-161.5 "/>
<text text-anchor="start" x="74" y="-148.5" font-family="Helvetica,sans-Serif" font-size="10.00">+ start()</text>
</a>
</g>
<!-- Node2&#45;&gt;Node1 -->
<g id="edge2" class="edge"><title>Node2&#45;&gt;Node1</title>
<path fill="none" stroke="midnightblue" d="M116,-130.205C116,-121.513 116,-112.259 116,-103.272"/>
<polygon fill="none" stroke="midnightblue" points="112.5,-130.471 116,-140.471 119.5,-130.471 112.5,-130.471"/>
</g>
<!-- Node3 -->
<g id="node4" class="node"><title>Node3</title>
<a xlink:href="../../d8/d18/class_thread.html" target="_top" xlink:title="{Thread\n||+ detach()\l+ getCreatorId()\l+ getThreadId()\l+ isJoined()\l+ isStarted()\l+ join()\l+ kill()\l+ start()\l+ getCurrentThread()\l+ getCurrentThreadId()\l+ globally()\l}">
<polygon fill="white" stroke="black" points="58,-240.5 58,-433.5 174,-433.5 174,-240.5 58,-240.5"/>
<text text-anchor="middle" x="116" y="-420.5" font-family="Helvetica,sans-Serif" font-size="10.00">Thread</text>
<polyline fill="none" stroke="black" points="58,-412.5 174,-412.5 "/>
<text text-anchor="middle" x="116" y="-399.5" font-family="Helvetica,sans-Serif" font-size="10.00"> </text>
<polyline fill="none" stroke="black" points="58,-391.5 174,-391.5 "/>
<text text-anchor="start" x="66" y="-378.5" font-family="Helvetica,sans-Serif" font-size="10.00">+ detach()</text>
<text text-anchor="start" x="66" y="-365.5" font-family="Helvetica,sans-Serif" font-size="10.00">+ getCreatorId()</text>
<text text-anchor="start" x="66" y="-352.5" font-family="Helvetica,sans-Serif" font-size="10.00">+ getThreadId()</text>
<text text-anchor="start" x="66" y="-339.5" font-family="Helvetica,sans-Serif" font-size="10.00">+ isJoined()</text>
<text text-anchor="start" x="66" y="-326.5" font-family="Helvetica,sans-Serif" font-size="10.00">+ isStarted()</text>
<text text-anchor="start" x="66" y="-313.5" font-family="Helvetica,sans-Serif" font-size="10.00">+ join()</text>
<text text-anchor="start" x="66" y="-300.5" font-family="Helvetica,sans-Serif" font-size="10.00">+ kill()</text>
<text text-anchor="start" x="66" y="-287.5" font-family="Helvetica,sans-Serif" font-size="10.00">+ start()</text>
<text text-anchor="start" x="66" y="-274.5" font-family="Helvetica,sans-Serif" font-size="10.00">+ getCurrentThread()</text>
<text text-anchor="start" x="66" y="-261.5" font-family="Helvetica,sans-Serif" font-size="10.00">+ getCurrentThreadId()</text>
<text text-anchor="start" x="66" y="-248.5" font-family="Helvetica,sans-Serif" font-size="10.00">+ globally()</text>
</a>
</g>
<!-- Node3&#45;&gt;Node2 -->
<g id="edge4" class="edge"><title>Node3&#45;&gt;Node2</title>
<path fill="none" stroke="midnightblue" d="M116,-229.798C116,-220.481 116,-211.626 116,-203.774"/>
<polygon fill="none" stroke="midnightblue" points="112.5,-230.064 116,-240.064 119.5,-230.064 112.5,-230.064"/>
</g>
<!-- Node4 -->
<g id="node6" class="node"><title>Node4</title>
<a xlink:href="../../d0/d82/class_threaded.html" target="_top" xlink:title="{Threaded\n||+ chunk()\l+ count()\l+ getTerminationInfo()\l+ isRunning()\l+ isTerminated()\l+ isWaiting()\l+ lock()\l+ merge()\l+ notify()\l+ offsetGet()\land 9 more...\l}">
<polygon fill="white" stroke="black" points="59.5,-470.5 59.5,-663.5 172.5,-663.5 172.5,-470.5 59.5,-470.5"/>
<text text-anchor="middle" x="116" y="-650.5" font-family="Helvetica,sans-Serif" font-size="10.00">Threaded</text>
<polyline fill="none" stroke="black" points="59.5,-642.5 172.5,-642.5 "/>
<text text-anchor="middle" x="116" y="-629.5" font-family="Helvetica,sans-Serif" font-size="10.00"> </text>
<polyline fill="none" stroke="black" points="59.5,-621.5 172.5,-621.5 "/>
<text text-anchor="start" x="67.5" y="-608.5" font-family="Helvetica,sans-Serif" font-size="10.00">+ chunk()</text>
<text text-anchor="start" x="67.5" y="-595.5" font-family="Helvetica,sans-Serif" font-size="10.00">+ count()</text>
<text text-anchor="start" x="67.5" y="-582.5" font-family="Helvetica,sans-Serif" font-size="10.00">+ getTerminationInfo()</text>
<text text-anchor="start" x="67.5" y="-569.5" font-family="Helvetica,sans-Serif" font-size="10.00">+ isRunning()</text>
<text text-anchor="start" x="67.5" y="-556.5" font-family="Helvetica,sans-Serif" font-size="10.00">+ isTerminated()</text>
<text text-anchor="start" x="67.5" y="-543.5" font-family="Helvetica,sans-Serif" font-size="10.00">+ isWaiting()</text>
<text text-anchor="start" x="67.5" y="-530.5" font-family="Helvetica,sans-Serif" font-size="10.00">+ lock()</text>
<text text-anchor="start" x="67.5" y="-517.5" font-family="Helvetica,sans-Serif" font-size="10.00">+ merge()</text>
<text text-anchor="start" x="67.5" y="-504.5" font-family="Helvetica,sans-Serif" font-size="10.00">+ notify()</text>
<text text-anchor="start" x="67.5" y="-491.5" font-family="Helvetica,sans-Serif" font-size="10.00">+ offsetGet()</text>
<text text-anchor="start" x="67.5" y="-478.5" font-family="Helvetica,sans-Serif" font-size="10.00">and 9 more...</text>
</a>
</g>
<!-- Node4&#45;&gt;Node3 -->
<g id="edge6" class="edge"><title>Node4&#45;&gt;Node3</title>
<path fill="none" stroke="midnightblue" d="M116,-460.423C116,-451.499 116,-442.507 116,-433.663"/>
<polygon fill="none" stroke="midnightblue" points="112.5,-460.459 116,-470.459 119.5,-460.459 112.5,-460.459"/>
</g>
<!-- Node5 -->
<g id="node8" class="node"><title>Node5</title>
<polygon fill="white" stroke="#bfbfbf" points="0,-700.5 0,-763.5 68,-763.5 68,-700.5 0,-700.5"/>
<text text-anchor="middle" x="34" y="-750.5" font-family="Helvetica,sans-Serif" font-size="10.00">Traversable</text>
<polyline fill="none" stroke="#bfbfbf" points="0,-742.5 68,-742.5 "/>
<text text-anchor="middle" x="34" y="-729.5" font-family="Helvetica,sans-Serif" font-size="10.00"> </text>
<polyline fill="none" stroke="#bfbfbf" points="0,-721.5 68,-721.5 "/>
<text text-anchor="middle" x="34" y="-708.5" font-family="Helvetica,sans-Serif" font-size="10.00"> </text>
</g>
<!-- Node5&#45;&gt;Node4 -->
<g id="edge8" class="edge"><title>Node5&#45;&gt;Node4</title>
<path fill="none" stroke="midnightblue" d="M54.3964,-690.958C58.619,-682.462 63.2356,-673.172 67.9815,-663.623"/>
<polygon fill="none" stroke="midnightblue" points="51.1266,-689.674 49.8104,-700.186 57.3952,-692.789 51.1266,-689.674"/>
</g>
<!-- Node6 -->
<g id="node10" class="node"><title>Node6</title>
<polygon fill="white" stroke="#bfbfbf" points="85.5,-700.5 85.5,-763.5 146.5,-763.5 146.5,-700.5 85.5,-700.5"/>
<text text-anchor="middle" x="116" y="-750.5" font-family="Helvetica,sans-Serif" font-size="10.00">Countable</text>
<polyline fill="none" stroke="#bfbfbf" points="85.5,-742.5 146.5,-742.5 "/>
<text text-anchor="middle" x="116" y="-729.5" font-family="Helvetica,sans-Serif" font-size="10.00"> </text>
<polyline fill="none" stroke="#bfbfbf" points="85.5,-721.5 146.5,-721.5 "/>
<text text-anchor="middle" x="116" y="-708.5" font-family="Helvetica,sans-Serif" font-size="10.00"> </text>
</g>
<!-- Node6&#45;&gt;Node4 -->
<g id="edge10" class="edge"><title>Node6&#45;&gt;Node4</title>
<path fill="none" stroke="midnightblue" d="M116,-690.134C116,-681.862 116,-672.864 116,-663.623"/>
<polygon fill="none" stroke="midnightblue" points="112.5,-690.186 116,-700.186 119.5,-690.186 112.5,-690.186"/>
</g>
<!-- Node7 -->
<g id="node12" class="node"><title>Node7</title>
<polygon fill="white" stroke="#bfbfbf" points="163.5,-700.5 163.5,-763.5 236.5,-763.5 236.5,-700.5 163.5,-700.5"/>
<text text-anchor="middle" x="200" y="-750.5" font-family="Helvetica,sans-Serif" font-size="10.00">ArrayAccess</text>
<polyline fill="none" stroke="#bfbfbf" points="163.5,-742.5 236.5,-742.5 "/>
<text text-anchor="middle" x="200" y="-729.5" font-family="Helvetica,sans-Serif" font-size="10.00"> </text>
<polyline fill="none" stroke="#bfbfbf" points="163.5,-721.5 236.5,-721.5 "/>
<text text-anchor="middle" x="200" y="-708.5" font-family="Helvetica,sans-Serif" font-size="10.00"> </text>
</g>
<!-- Node7&#45;&gt;Node4 -->
<g id="edge12" class="edge"><title>Node7&#45;&gt;Node4</title>
<path fill="none" stroke="midnightblue" d="M179.246,-691.232C174.882,-682.661 170.104,-673.275 165.19,-663.623"/>
<polygon fill="none" stroke="midnightblue" points="176.148,-692.863 183.804,-700.186 182.386,-689.687 176.148,-692.863"/>
</g>
</g>
</svg>
