<?xml version="1.0" encoding="UTF-8" standalone="no"?>
<!DOCTYPE svg PUBLIC "-//W3C//DTD SVG 1.1//EN"
 "http://www.w3.org/Graphics/SVG/1.1/DTD/svg11.dtd">
<!-- Generated by graphviz version 2.26.3 (20100126.1600)
 -->
<!-- Title: G Pages: 1 -->
<svg width="250pt" height="408pt"
 viewBox="0.00 0.00 250.00 408.00" xmlns="http://www.w3.org/2000/svg" xmlns:xlink="http://www.w3.org/1999/xlink">
<g id="graph1" class="graph" transform="scale(1 1) rotate(0) translate(4 404)">
<title>G</title>
<polygon fill="white" stroke="white" points="-4,5 -4,-404 247,-404 247,5 -4,5"/>
<!-- Node1 -->
<g id="node1" class="node"><title>Node1</title>
<polygon fill="#bfbfbf" stroke="black" points="0,-1 0,-103 242,-103 242,-1 0,-1"/>
<text text-anchor="middle" x="121" y="-90" font-family="Helvetica,sans-Serif" font-size="10.00">pocketmine\network\protocol\TakeItemEntityPacket</text>
<polyline fill="none" stroke="black" points="0,-82 242,-82 "/>
<text text-anchor="start" x="8" y="-69" font-family="Helvetica,sans-Serif" font-size="10.00">+ $target</text>
<text text-anchor="start" x="8" y="-56" font-family="Helvetica,sans-Serif" font-size="10.00">+ $eid</text>
<polyline fill="none" stroke="black" points="0,-48 242,-48 "/>
<text text-anchor="start" x="8" y="-35" font-family="Helvetica,sans-Serif" font-size="10.00">+ pid()</text>
<text text-anchor="start" x="8" y="-22" font-family="Helvetica,sans-Serif" font-size="10.00">+ decode()</text>
<text text-anchor="start" x="8" y="-9" font-family="Helvetica,sans-Serif" font-size="10.00">+ encode()</text>
</g>
<!-- Node2 -->
<g id="node2" class="node"><title>Node2</title>
<a xlink:href="../../d0/d90/classpocketmine_1_1network_1_1protocol_1_1_data_packet.html" target="_top" xlink:title="{pocketmine\\network\\protocol\\DataPacket\n|+ $buffer\l|+ pid()\l+ encode()\l+ decode()\l+ setBuffer()\l+ getBuffer()\l# reset()\l# get()\l# put()\l# getLong()\l# putLong()\l# getInt()\l# putInt()\l# getShort()\l# putShort()\l# getFloat()\land 13 more...}">
<polygon fill="white" stroke="black" points="22.5,-141 22.5,-399 219.5,-399 219.5,-141 22.5,-141"/>
<text text-anchor="middle" x="121" y="-386" font-family="Helvetica,sans-Serif" font-size="10.00">pocketmine\network\protocol\DataPacket</text>
<polyline fill="none" stroke="black" points="22.5,-378 219.5,-378 "/>
<text text-anchor="start" x="30.5" y="-365" font-family="Helvetica,sans-Serif" font-size="10.00">+ $buffer</text>
<polyline fill="none" stroke="black" points="22.5,-357 219.5,-357 "/>
<text text-anchor="start" x="30.5" y="-344" font-family="Helvetica,sans-Serif" font-size="10.00">+ pid()</text>
<text text-anchor="start" x="30.5" y="-331" font-family="Helvetica,sans-Serif" font-size="10.00">+ encode()</text>
<text text-anchor="start" x="30.5" y="-318" font-family="Helvetica,sans-Serif" font-size="10.00">+ decode()</text>
<text text-anchor="start" x="30.5" y="-305" font-family="Helvetica,sans-Serif" font-size="10.00">+ setBuffer()</text>
<text text-anchor="start" x="30.5" y="-292" font-family="Helvetica,sans-Serif" font-size="10.00">+ getBuffer()</text>
<text text-anchor="start" x="30.5" y="-279" font-family="Helvetica,sans-Serif" font-size="10.00"># reset()</text>
<text text-anchor="start" x="30.5" y="-266" font-family="Helvetica,sans-Serif" font-size="10.00"># get()</text>
<text text-anchor="start" x="30.5" y="-253" font-family="Helvetica,sans-Serif" font-size="10.00"># put()</text>
<text text-anchor="start" x="30.5" y="-240" font-family="Helvetica,sans-Serif" font-size="10.00"># getLong()</text>
<text text-anchor="start" x="30.5" y="-227" font-family="Helvetica,sans-Serif" font-size="10.00"># putLong()</text>
<text text-anchor="start" x="30.5" y="-214" font-family="Helvetica,sans-Serif" font-size="10.00"># getInt()</text>
<text text-anchor="start" x="30.5" y="-201" font-family="Helvetica,sans-Serif" font-size="10.00"># putInt()</text>
<text text-anchor="start" x="30.5" y="-188" font-family="Helvetica,sans-Serif" font-size="10.00"># getShort()</text>
<text text-anchor="start" x="30.5" y="-175" font-family="Helvetica,sans-Serif" font-size="10.00"># putShort()</text>
<text text-anchor="start" x="30.5" y="-162" font-family="Helvetica,sans-Serif" font-size="10.00"># getFloat()</text>
<text text-anchor="middle" x="121" y="-149" font-family="Helvetica,sans-Serif" font-size="10.00">and 13 more...</text>
</a>
</g>
<!-- Node2&#45;&gt;Node1 -->
<g id="edge2" class="edge"><title>Node2&#45;&gt;Node1</title>
<path fill="none" stroke="midnightblue" d="M121,-130.84C121,-121.211 121,-111.922 121,-103.309"/>
<polygon fill="none" stroke="midnightblue" points="117.5,-130.983 121,-140.983 124.5,-130.983 117.5,-130.983"/>
</g>
</g>
</svg>
