<?xml version="1.0" encoding="UTF-8" standalone="no"?>
<!DOCTYPE svg PUBLIC "-//W3C//DTD SVG 1.1//EN"
 "http://www.w3.org/Graphics/SVG/1.1/DTD/svg11.dtd">
<!-- Generated by graphviz version 2.26.3 (20100126.1600)
 -->
<!-- Title: pocketmine\scheduler\CallbackTask Pages: 1 -->
<svg width="144pt" height="264pt"
 viewBox="0.00 0.00 144.00 264.00" xmlns="http://www.w3.org/2000/svg" xmlns:xlink="http://www.w3.org/1999/xlink">
<g id="graph1" class="graph" transform="scale(1 1) rotate(0) translate(4 260)">
<title>pocketmine\scheduler\CallbackTask</title>
<polygon fill="white" stroke="white" points="-4,5 -4,-260 141,-260 141,5 -4,5"/>
<!-- Node1 -->
<g id="node1" class="node"><title>Node1</title>
<polygon fill="#bfbfbf" stroke="black" points="12,-1 12,-103 124,-103 124,-1 12,-1"/>
<text text-anchor="start" x="20" y="-90" font-family="Helvetica,sans-Serif" font-size="10.00">pocketmine\scheduler</text>
<text text-anchor="middle" x="68" y="-77" font-family="Helvetica,sans-Serif" font-size="10.00">\CallbackTask</text>
<polyline fill="none" stroke="black" points="12,-69 124,-69 "/>
<text text-anchor="start" x="20" y="-56" font-family="Helvetica,sans-Serif" font-size="10.00"># $callable</text>
<text text-anchor="start" x="20" y="-43" font-family="Helvetica,sans-Serif" font-size="10.00"># $args</text>
<polyline fill="none" stroke="black" points="12,-35 124,-35 "/>
<text text-anchor="start" x="20" y="-22" font-family="Helvetica,sans-Serif" font-size="10.00">+ __construct()</text>
<text text-anchor="start" x="20" y="-9" font-family="Helvetica,sans-Serif" font-size="10.00">+ onRun()</text>
</g>
<!-- Node2 -->
<g id="node2" class="node"><title>Node2</title>
<a xlink:href="../../df/d5e/classpocketmine_1_1scheduler_1_1_task.html" target="_top" xlink:title="{pocketmine\\scheduler\\Task\n||+ getHandler()\l+ getTaskId()\l+ setHandler()\l+ onRun()\l+ onCancel()\l}">
<polygon fill="white" stroke="black" points="-0.5,-140.5 -0.5,-255.5 136.5,-255.5 136.5,-140.5 -0.5,-140.5"/>
<text text-anchor="middle" x="68" y="-242.5" font-family="Helvetica,sans-Serif" font-size="10.00">pocketmine\scheduler\Task</text>
<polyline fill="none" stroke="black" points="-0.5,-234.5 136.5,-234.5 "/>
<text text-anchor="middle" x="68" y="-221.5" font-family="Helvetica,sans-Serif" font-size="10.00"> </text>
<polyline fill="none" stroke="black" points="-0.5,-213.5 136.5,-213.5 "/>
<text text-anchor="start" x="7.5" y="-200.5" font-family="Helvetica,sans-Serif" font-size="10.00">+ getHandler()</text>
<text text-anchor="start" x="7.5" y="-187.5" font-family="Helvetica,sans-Serif" font-size="10.00">+ getTaskId()</text>
<text text-anchor="start" x="7.5" y="-174.5" font-family="Helvetica,sans-Serif" font-size="10.00">+ setHandler()</text>
<text text-anchor="start" x="7.5" y="-161.5" font-family="Helvetica,sans-Serif" font-size="10.00">+ onRun()</text>
<text text-anchor="start" x="7.5" y="-148.5" font-family="Helvetica,sans-Serif" font-size="10.00">+ onCancel()</text>
</a>
</g>
<!-- Node2&#45;&gt;Node1 -->
<g id="edge2" class="edge"><title>Node2&#45;&gt;Node1</title>
<path fill="none" stroke="midnightblue" d="M68,-130.122C68,-121.044 68,-111.86 68,-103.134"/>
<polygon fill="none" stroke="midnightblue" points="64.5001,-130.297 68,-140.297 71.5001,-130.297 64.5001,-130.297"/>
</g>
</g>
</svg>
