<?xml version="1.0" encoding="UTF-8" standalone="no"?>
<!DOCTYPE svg PUBLIC "-//W3C//DTD SVG 1.1//EN"
 "http://www.w3.org/Graphics/SVG/1.1/DTD/svg11.dtd">
<!-- Generated by graphviz version 2.26.3 (20100126.1600)
 -->
<!-- Title: pocketmine\event\level\LevelUnloadEvent Pages: 1 -->
<svg width="293pt" height="352pt"
 viewBox="0.00 0.00 293.00 352.00" xmlns="http://www.w3.org/2000/svg" xmlns:xlink="http://www.w3.org/1999/xlink">
<g id="graph1" class="graph" transform="scale(1 1) rotate(0) translate(4 348)">
<title>pocketmine\event\level\LevelUnloadEvent</title>
<polygon fill="white" stroke="white" points="-4,5 -4,-348 290,-348 290,5 -4,5"/>
<!-- Node1 -->
<g id="node1" class="node"><title>Node1</title>
<polygon fill="#bfbfbf" stroke="black" points="77.5,-1 77.5,-77 194.5,-77 194.5,-1 77.5,-1"/>
<text text-anchor="start" x="85.5" y="-64" font-family="Helvetica,sans-Serif" font-size="10.00">pocketmine\event\level</text>
<text text-anchor="middle" x="136" y="-51" font-family="Helvetica,sans-Serif" font-size="10.00">\LevelUnloadEvent</text>
<polyline fill="none" stroke="black" points="77.5,-43 194.5,-43 "/>
<text text-anchor="start" x="85.5" y="-30" font-family="Helvetica,sans-Serif" font-size="10.00">+ $handlerList</text>
<polyline fill="none" stroke="black" points="77.5,-22 194.5,-22 "/>
<text text-anchor="middle" x="136" y="-9" font-family="Helvetica,sans-Serif" font-size="10.00"> </text>
</g>
<!-- Node2 -->
<g id="node2" class="node"><title>Node2</title>
<a xlink:href="../../d5/dbb/classpocketmine_1_1event_1_1level_1_1_level_event.html" target="_top" xlink:title="{pocketmine\\event\\level\l\\LevelEvent\n||+ __construct()\l+ getLevel()\l}">
<polygon fill="white" stroke="black" points="2.5,-114.5 2.5,-203.5 119.5,-203.5 119.5,-114.5 2.5,-114.5"/>
<text text-anchor="start" x="10.5" y="-190.5" font-family="Helvetica,sans-Serif" font-size="10.00">pocketmine\event\level</text>
<text text-anchor="middle" x="61" y="-177.5" font-family="Helvetica,sans-Serif" font-size="10.00">\LevelEvent</text>
<polyline fill="none" stroke="black" points="2.5,-169.5 119.5,-169.5 "/>
<text text-anchor="middle" x="61" y="-156.5" font-family="Helvetica,sans-Serif" font-size="10.00"> </text>
<polyline fill="none" stroke="black" points="2.5,-148.5 119.5,-148.5 "/>
<text text-anchor="start" x="10.5" y="-135.5" font-family="Helvetica,sans-Serif" font-size="10.00">+ __construct()</text>
<text text-anchor="start" x="10.5" y="-122.5" font-family="Helvetica,sans-Serif" font-size="10.00">+ getLevel()</text>
</a>
</g>
<!-- Node2&#45;&gt;Node1 -->
<g id="edge2" class="edge"><title>Node2&#45;&gt;Node1</title>
<path fill="none" stroke="midnightblue" d="M94.3915,-105.574C100.405,-95.9522 106.561,-86.1026 112.231,-77.0306"/>
<polygon fill="none" stroke="midnightblue" points="91.2593,-103.981 88.9272,-114.316 97.1953,-107.691 91.2593,-103.981"/>
</g>
<!-- Node3 -->
<g id="node4" class="node"><title>Node3</title>
<a xlink:href="../../d1/d2f/classpocketmine_1_1event_1_1_event.html" target="_top" xlink:title="{pocketmine\\event\\Event\n|# $eventName\l|+ getEventName()\l+ isCancelled()\l+ setCancelled()\l+ getHandlers()\l}">
<polygon fill="white" stroke="black" points="0,-241 0,-343 122,-343 122,-241 0,-241"/>
<text text-anchor="middle" x="61" y="-330" font-family="Helvetica,sans-Serif" font-size="10.00">pocketmine\event\Event</text>
<polyline fill="none" stroke="black" points="0,-322 122,-322 "/>
<text text-anchor="start" x="8" y="-309" font-family="Helvetica,sans-Serif" font-size="10.00"># $eventName</text>
<polyline fill="none" stroke="black" points="0,-301 122,-301 "/>
<text text-anchor="start" x="8" y="-288" font-family="Helvetica,sans-Serif" font-size="10.00">+ getEventName()</text>
<text text-anchor="start" x="8" y="-275" font-family="Helvetica,sans-Serif" font-size="10.00">+ isCancelled()</text>
<text text-anchor="start" x="8" y="-262" font-family="Helvetica,sans-Serif" font-size="10.00">+ setCancelled()</text>
<text text-anchor="start" x="8" y="-249" font-family="Helvetica,sans-Serif" font-size="10.00">+ getHandlers()</text>
</a>
</g>
<!-- Node3&#45;&gt;Node2 -->
<g id="edge4" class="edge"><title>Node3&#45;&gt;Node2</title>
<path fill="none" stroke="midnightblue" d="M61,-230.733C61,-221.593 61,-212.32 61,-203.611"/>
<polygon fill="none" stroke="midnightblue" points="57.5001,-230.959 61,-240.959 64.5001,-230.959 57.5001,-230.959"/>
</g>
<!-- Node4 -->
<g id="node6" class="node"><title>Node4</title>
<a xlink:href="../../db/d62/interfacepocketmine_1_1event_1_1_cancellable.html" target="_top" xlink:title="{pocketmine\\event\\Cancellable\n||+ isCancelled()\l+ setCancelled()\l}">
<polygon fill="white" stroke="black" points="137,-121 137,-197 285,-197 285,-121 137,-121"/>
<text text-anchor="middle" x="211" y="-184" font-family="Helvetica,sans-Serif" font-size="10.00">pocketmine\event\Cancellable</text>
<polyline fill="none" stroke="black" points="137,-176 285,-176 "/>
<text text-anchor="middle" x="211" y="-163" font-family="Helvetica,sans-Serif" font-size="10.00"> </text>
<polyline fill="none" stroke="black" points="137,-155 285,-155 "/>
<text text-anchor="start" x="145" y="-142" font-family="Helvetica,sans-Serif" font-size="10.00">+ isCancelled()</text>
<text text-anchor="start" x="145" y="-129" font-family="Helvetica,sans-Serif" font-size="10.00">+ setCancelled()</text>
</a>
</g>
<!-- Node4&#45;&gt;Node1 -->
<g id="edge6" class="edge"><title>Node4&#45;&gt;Node1</title>
<path fill="none" stroke="midnightblue" d="M181.667,-112.067C174.479,-100.566 166.869,-88.3908 159.967,-77.3464"/>
<polygon fill="none" stroke="midnightblue" points="178.795,-114.076 187.063,-120.701 184.731,-110.366 178.795,-114.076"/>
</g>
</g>
</svg>
